<?xml version="1.0" encoding="utf-8" standalone="no"?>
<!DOCTYPE svg PUBLIC "-//W3C//DTD SVG 1.1//EN"
  "http://www.w3.org/Graphics/SVG/1.1/DTD/svg11.dtd">
<!-- Created with matplotlib (http://matplotlib.org/) -->
<svg height="252.018125pt" version="1.1" viewBox="0 0 366.0625 252.018125" width="366.0625pt" xmlns="http://www.w3.org/2000/svg" xmlns:xlink="http://www.w3.org/1999/xlink">
 <defs>
  <style type="text/css">
*{stroke-linecap:butt;stroke-linejoin:round;}
  </style>
 </defs>
 <g id="figure_1">
  <g id="patch_1">
   <path d="M 0 252.018125 
L 366.0625 252.018125 
L 366.0625 0 
L 0 0 
z
" style="fill:#ffffff;"/>
  </g>
  <g id="axes_1">
   <g id="patch_2">
    <path d="M 20.5625 228.14 
L 355.3625 228.14 
L 355.3625 10.7 
L 20.5625 10.7 
z
" style="fill:#ffffff;"/>
   </g>
   <g id="matplotlib.axis_1">
    <g id="xtick_1">
     <g id="line2d_1">
      <defs>
       <path d="M 0 0 
L 0 3.5 
" id="mdb82ff3189" style="stroke:#000000;stroke-width:0.8;"/>
      </defs>
      <g>
       <use style="stroke:#000000;stroke-width:0.8;" x="35.780682" xlink:href="#mdb82ff3189" y="228.14"/>
      </g>
     </g>
     <g id="text_1">
      <!-- 0 -->
      <defs>
       <path d="M 31.78125 66.40625 
Q 24.171875 66.40625 20.328125 58.90625 
Q 16.5 51.421875 16.5 36.375 
Q 16.5 21.390625 20.328125 13.890625 
Q 24.171875 6.390625 31.78125 6.390625 
Q 39.453125 6.390625 43.28125 13.890625 
Q 47.125 21.390625 47.125 36.375 
Q 47.125 51.421875 43.28125 58.90625 
Q 39.453125 66.40625 31.78125 66.40625 
z
M 31.78125 74.21875 
Q 44.046875 74.21875 50.515625 64.515625 
Q 56.984375 54.828125 56.984375 36.375 
Q 56.984375 17.96875 50.515625 8.265625 
Q 44.046875 -1.421875 31.78125 -1.421875 
Q 19.53125 -1.421875 13.0625 8.265625 
Q 6.59375 17.96875 6.59375 36.375 
Q 6.59375 54.828125 13.0625 64.515625 
Q 19.53125 74.21875 31.78125 74.21875 
z
" id="DejaVuSans-30"/>
      </defs>
      <g transform="translate(32.599432 242.738437)scale(0.1 -0.1)">
       <use xlink:href="#DejaVuSans-30"/>
      </g>
     </g>
    </g>
    <g id="xtick_2">
     <g id="line2d_2">
      <g>
       <use style="stroke:#000000;stroke-width:0.8;" x="73.449449" xlink:href="#mdb82ff3189" y="228.14"/>
      </g>
     </g>
     <g id="text_2">
      <!-- 25 -->
      <defs>
       <path d="M 19.1875 8.296875 
L 53.609375 8.296875 
L 53.609375 0 
L 7.328125 0 
L 7.328125 8.296875 
Q 12.9375 14.109375 22.625 23.890625 
Q 32.328125 33.6875 34.8125 36.53125 
Q 39.546875 41.84375 41.421875 45.53125 
Q 43.3125 49.21875 43.3125 52.78125 
Q 43.3125 58.59375 39.234375 62.25 
Q 35.15625 65.921875 28.609375 65.921875 
Q 23.96875 65.921875 18.8125 64.3125 
Q 13.671875 62.703125 7.8125 59.421875 
L 7.8125 69.390625 
Q 13.765625 71.78125 18.9375 73 
Q 24.125 74.21875 28.421875 74.21875 
Q 39.75 74.21875 46.484375 68.546875 
Q 53.21875 62.890625 53.21875 53.421875 
Q 53.21875 48.921875 51.53125 44.890625 
Q 49.859375 40.875 45.40625 35.40625 
Q 44.1875 33.984375 37.640625 27.21875 
Q 31.109375 20.453125 19.1875 8.296875 
z
" id="DejaVuSans-32"/>
       <path d="M 10.796875 72.90625 
L 49.515625 72.90625 
L 49.515625 64.59375 
L 19.828125 64.59375 
L 19.828125 46.734375 
Q 21.96875 47.46875 24.109375 47.828125 
Q 26.265625 48.1875 28.421875 48.1875 
Q 40.625 48.1875 47.75 41.5 
Q 54.890625 34.8125 54.890625 23.390625 
Q 54.890625 11.625 47.5625 5.09375 
Q 40.234375 -1.421875 26.90625 -1.421875 
Q 22.3125 -1.421875 17.546875 -0.640625 
Q 12.796875 0.140625 7.71875 1.703125 
L 7.71875 11.625 
Q 12.109375 9.234375 16.796875 8.0625 
Q 21.484375 6.890625 26.703125 6.890625 
Q 35.15625 6.890625 40.078125 11.328125 
Q 45.015625 15.765625 45.015625 23.390625 
Q 45.015625 31 40.078125 35.4375 
Q 35.15625 39.890625 26.703125 39.890625 
Q 22.75 39.890625 18.8125 39.015625 
Q 14.890625 38.140625 10.796875 36.28125 
z
" id="DejaVuSans-35"/>
      </defs>
      <g transform="translate(67.086949 242.738437)scale(0.1 -0.1)">
       <use xlink:href="#DejaVuSans-32"/>
       <use x="63.623047" xlink:href="#DejaVuSans-35"/>
      </g>
     </g>
    </g>
    <g id="xtick_3">
     <g id="line2d_3">
      <g>
       <use style="stroke:#000000;stroke-width:0.8;" x="111.118216" xlink:href="#mdb82ff3189" y="228.14"/>
      </g>
     </g>
     <g id="text_3">
      <!-- 50 -->
      <g transform="translate(104.755716 242.738437)scale(0.1 -0.1)">
       <use xlink:href="#DejaVuSans-35"/>
       <use x="63.623047" xlink:href="#DejaVuSans-30"/>
      </g>
     </g>
    </g>
    <g id="xtick_4">
     <g id="line2d_4">
      <g>
       <use style="stroke:#000000;stroke-width:0.8;" x="148.786982" xlink:href="#mdb82ff3189" y="228.14"/>
      </g>
     </g>
     <g id="text_4">
      <!-- 75 -->
      <defs>
       <path d="M 8.203125 72.90625 
L 55.078125 72.90625 
L 55.078125 68.703125 
L 28.609375 0 
L 18.3125 0 
L 43.21875 64.59375 
L 8.203125 64.59375 
z
" id="DejaVuSans-37"/>
      </defs>
      <g transform="translate(142.424482 242.738437)scale(0.1 -0.1)">
       <use xlink:href="#DejaVuSans-37"/>
       <use x="63.623047" xlink:href="#DejaVuSans-35"/>
      </g>
     </g>
    </g>
    <g id="xtick_5">
     <g id="line2d_5">
      <g>
       <use style="stroke:#000000;stroke-width:0.8;" x="186.455749" xlink:href="#mdb82ff3189" y="228.14"/>
      </g>
     </g>
     <g id="text_5">
      <!-- 100 -->
      <defs>
       <path d="M 12.40625 8.296875 
L 28.515625 8.296875 
L 28.515625 63.921875 
L 10.984375 60.40625 
L 10.984375 69.390625 
L 28.421875 72.90625 
L 38.28125 72.90625 
L 38.28125 8.296875 
L 54.390625 8.296875 
L 54.390625 0 
L 12.40625 0 
z
" id="DejaVuSans-31"/>
      </defs>
      <g transform="translate(176.911999 242.738437)scale(0.1 -0.1)">
       <use xlink:href="#DejaVuSans-31"/>
       <use x="63.623047" xlink:href="#DejaVuSans-30"/>
       <use x="127.246094" xlink:href="#DejaVuSans-30"/>
      </g>
     </g>
    </g>
    <g id="xtick_6">
     <g id="line2d_6">
      <g>
       <use style="stroke:#000000;stroke-width:0.8;" x="224.124516" xlink:href="#mdb82ff3189" y="228.14"/>
      </g>
     </g>
     <g id="text_6">
      <!-- 125 -->
      <g transform="translate(214.580766 242.738437)scale(0.1 -0.1)">
       <use xlink:href="#DejaVuSans-31"/>
       <use x="63.623047" xlink:href="#DejaVuSans-32"/>
       <use x="127.246094" xlink:href="#DejaVuSans-35"/>
      </g>
     </g>
    </g>
    <g id="xtick_7">
     <g id="line2d_7">
      <g>
       <use style="stroke:#000000;stroke-width:0.8;" x="261.793283" xlink:href="#mdb82ff3189" y="228.14"/>
      </g>
     </g>
     <g id="text_7">
      <!-- 150 -->
      <g transform="translate(252.249533 242.738437)scale(0.1 -0.1)">
       <use xlink:href="#DejaVuSans-31"/>
       <use x="63.623047" xlink:href="#DejaVuSans-35"/>
       <use x="127.246094" xlink:href="#DejaVuSans-30"/>
      </g>
     </g>
    </g>
    <g id="xtick_8">
     <g id="line2d_8">
      <g>
       <use style="stroke:#000000;stroke-width:0.8;" x="299.46205" xlink:href="#mdb82ff3189" y="228.14"/>
      </g>
     </g>
     <g id="text_8">
      <!-- 175 -->
      <g transform="translate(289.9183 242.738437)scale(0.1 -0.1)">
       <use xlink:href="#DejaVuSans-31"/>
       <use x="63.623047" xlink:href="#DejaVuSans-37"/>
       <use x="127.246094" xlink:href="#DejaVuSans-35"/>
      </g>
     </g>
    </g>
    <g id="xtick_9">
     <g id="line2d_9">
      <g>
       <use style="stroke:#000000;stroke-width:0.8;" x="337.130817" xlink:href="#mdb82ff3189" y="228.14"/>
      </g>
     </g>
     <g id="text_9">
      <!-- 200 -->
      <g transform="translate(327.587067 242.738437)scale(0.1 -0.1)">
       <use xlink:href="#DejaVuSans-32"/>
       <use x="63.623047" xlink:href="#DejaVuSans-30"/>
       <use x="127.246094" xlink:href="#DejaVuSans-30"/>
      </g>
     </g>
    </g>
   </g>
   <g id="matplotlib.axis_2">
    <g id="ytick_1">
     <g id="line2d_10">
      <defs>
       <path d="M 0 0 
L -3.5 0 
" id="md043608696" style="stroke:#000000;stroke-width:0.8;"/>
      </defs>
      <g>
       <use style="stroke:#000000;stroke-width:0.8;" x="20.5625" xlink:href="#md043608696" y="218.400439"/>
      </g>
     </g>
     <g id="text_10">
      <!-- 0 -->
      <g transform="translate(7.2 222.199658)scale(0.1 -0.1)">
       <use xlink:href="#DejaVuSans-30"/>
      </g>
     </g>
    </g>
    <g id="ytick_2">
     <g id="line2d_11">
      <g>
       <use style="stroke:#000000;stroke-width:0.8;" x="20.5625" xlink:href="#md043608696" y="181.108519"/>
      </g>
     </g>
     <g id="text_11">
      <!-- 1 -->
      <g transform="translate(7.2 184.907737)scale(0.1 -0.1)">
       <use xlink:href="#DejaVuSans-31"/>
      </g>
     </g>
    </g>
    <g id="ytick_3">
     <g id="line2d_12">
      <g>
       <use style="stroke:#000000;stroke-width:0.8;" x="20.5625" xlink:href="#md043608696" y="143.816598"/>
      </g>
     </g>
     <g id="text_12">
      <!-- 2 -->
      <g transform="translate(7.2 147.615817)scale(0.1 -0.1)">
       <use xlink:href="#DejaVuSans-32"/>
      </g>
     </g>
    </g>
    <g id="ytick_4">
     <g id="line2d_13">
      <g>
       <use style="stroke:#000000;stroke-width:0.8;" x="20.5625" xlink:href="#md043608696" y="106.524677"/>
      </g>
     </g>
     <g id="text_13">
      <!-- 3 -->
      <defs>
       <path d="M 40.578125 39.3125 
Q 47.65625 37.796875 51.625 33 
Q 55.609375 28.21875 55.609375 21.1875 
Q 55.609375 10.40625 48.1875 4.484375 
Q 40.765625 -1.421875 27.09375 -1.421875 
Q 22.515625 -1.421875 17.65625 -0.515625 
Q 12.796875 0.390625 7.625 2.203125 
L 7.625 11.71875 
Q 11.71875 9.328125 16.59375 8.109375 
Q 21.484375 6.890625 26.8125 6.890625 
Q 36.078125 6.890625 40.9375 10.546875 
Q 45.796875 14.203125 45.796875 21.1875 
Q 45.796875 27.640625 41.28125 31.265625 
Q 36.765625 34.90625 28.71875 34.90625 
L 20.21875 34.90625 
L 20.21875 43.015625 
L 29.109375 43.015625 
Q 36.375 43.015625 40.234375 45.921875 
Q 44.09375 48.828125 44.09375 54.296875 
Q 44.09375 59.90625 40.109375 62.90625 
Q 36.140625 65.921875 28.71875 65.921875 
Q 24.65625 65.921875 20.015625 65.03125 
Q 15.375 64.15625 9.8125 62.3125 
L 9.8125 71.09375 
Q 15.4375 72.65625 20.34375 73.4375 
Q 25.25 74.21875 29.59375 74.21875 
Q 40.828125 74.21875 47.359375 69.109375 
Q 53.90625 64.015625 53.90625 55.328125 
Q 53.90625 49.265625 50.4375 45.09375 
Q 46.96875 40.921875 40.578125 39.3125 
z
" id="DejaVuSans-33"/>
      </defs>
      <g transform="translate(7.2 110.323896)scale(0.1 -0.1)">
       <use xlink:href="#DejaVuSans-33"/>
      </g>
     </g>
    </g>
    <g id="ytick_5">
     <g id="line2d_14">
      <g>
       <use style="stroke:#000000;stroke-width:0.8;" x="20.5625" xlink:href="#md043608696" y="69.232757"/>
      </g>
     </g>
     <g id="text_14">
      <!-- 4 -->
      <defs>
       <path d="M 37.796875 64.3125 
L 12.890625 25.390625 
L 37.796875 25.390625 
z
M 35.203125 72.90625 
L 47.609375 72.90625 
L 47.609375 25.390625 
L 58.015625 25.390625 
L 58.015625 17.1875 
L 47.609375 17.1875 
L 47.609375 0 
L 37.796875 0 
L 37.796875 17.1875 
L 4.890625 17.1875 
L 4.890625 26.703125 
z
" id="DejaVuSans-34"/>
      </defs>
      <g transform="translate(7.2 73.031976)scale(0.1 -0.1)">
       <use xlink:href="#DejaVuSans-34"/>
      </g>
     </g>
    </g>
    <g id="ytick_6">
     <g id="line2d_15">
      <g>
       <use style="stroke:#000000;stroke-width:0.8;" x="20.5625" xlink:href="#md043608696" y="31.940836"/>
      </g>
     </g>
     <g id="text_15">
      <!-- 5 -->
      <g transform="translate(7.2 35.740055)scale(0.1 -0.1)">
       <use xlink:href="#DejaVuSans-35"/>
      </g>
     </g>
    </g>
   </g>
   <g id="line2d_16">
    <path clip-path="url(#p87e6441e4b)" d="M 35.780682 216.122861 
L 37.287432 214.505068 
L 38.794183 89.470036 
L 40.300934 20.583636 
L 41.807685 214.932736 
L 43.314435 215.11438 
L 44.821186 210.071928 
L 46.327937 193.414446 
L 47.834687 216.002545 
L 49.341438 214.406142 
L 50.848189 214.13376 
L 52.354939 213.589741 
L 53.86169 211.774689 
L 55.368441 215.016351 
L 56.875191 215.277954 
L 58.381942 214.23743 
L 59.888693 215.188815 
L 61.395443 209.556855 
L 62.902194 214.596464 
L 64.408945 212.085558 
L 65.915695 214.937228 
L 67.422446 213.415968 
L 68.929197 212.094769 
L 70.435947 211.471471 
L 71.942698 216.704872 
L 73.449449 215.678594 
L 74.956199 217.514638 
L 76.46295 215.847821 
L 77.969701 212.046236 
L 79.476451 214.202671 
L 80.983202 212.867865 
L 82.489953 217.451289 
L 83.996703 217.756114 
L 85.503454 215.895016 
L 87.010205 213.014635 
L 88.516955 216.169826 
L 90.023706 209.13402 
L 91.530457 215.722804 
L 93.037207 212.049177 
L 94.543958 216.639414 
L 96.050709 215.929219 
L 97.557459 214.363239 
L 99.06421 216.411884 
L 100.570961 212.38712 
L 102.077712 216.74138 
L 103.584462 211.572263 
L 105.091213 216.037425 
L 106.597964 216.726433 
L 108.104714 213.428895 
L 109.611465 212.797217 
L 111.118216 215.921252 
L 112.624966 213.522254 
L 114.131717 216.903163 
L 115.638468 215.763424 
L 117.145218 215.745381 
L 118.651969 216.868895 
L 120.15872 213.307416 
L 121.66547 211.192487 
L 123.172221 212.016414 
L 124.678972 214.536367 
L 126.185722 208.433787 
L 127.692473 204.82351 
L 129.199224 205.552248 
L 130.705974 207.393126 
L 132.212725 210.79167 
L 133.719476 216.20311 
L 135.226226 215.272308 
L 136.732977 213.13409 
L 138.239728 212.134065 
L 139.746478 213.062641 
L 141.253229 212.482986 
L 142.75998 212.381255 
L 144.26673 213.585212 
L 145.773481 213.115793 
L 147.280232 213.339716 
L 148.786982 212.753672 
L 150.293733 212.579539 
L 151.800484 213.168891 
L 153.307234 213.569933 
L 154.813985 213.42201 
L 156.320736 212.234075 
L 157.827486 212.766737 
L 159.334237 212.734589 
L 160.840988 212.998664 
L 162.347739 212.681168 
L 163.854489 212.733856 
L 165.36124 211.512033 
L 166.867991 215.839297 
L 168.374741 211.635178 
L 169.881492 212.517111 
L 171.388243 210.689236 
L 172.894993 215.374853 
L 174.401744 210.637857 
L 175.908495 211.460096 
L 177.415245 211.521381 
L 178.921996 214.884583 
L 180.428747 213.046333 
L 181.935497 217.026802 
L 183.442248 214.583933 
L 184.948999 216.184297 
L 186.455749 213.893385 
L 187.9625 215.821528 
L 190.976001 215.149948 
L 192.482752 214.308593 
L 193.989503 216.312587 
L 195.496253 215.104289 
L 197.003004 214.36684 
L 198.509755 214.824289 
L 200.016505 217.298473 
L 201.523256 207.234634 
L 203.030007 215.110908 
L 204.536757 214.759859 
L 206.043508 214.525638 
L 207.550259 212.83793 
L 209.057009 215.103974 
L 210.56376 214.401208 
L 212.070511 213.468719 
L 213.577261 215.871514 
L 215.084012 214.394725 
L 216.590763 215.649766 
L 218.097514 212.048523 
L 219.604264 211.351921 
L 221.111015 208.774836 
L 222.617766 207.342327 
L 224.124516 207.624496 
L 225.631267 207.121066 
L 227.138018 212.101686 
L 228.644768 213.813495 
L 230.151519 210.188767 
L 231.65827 203.474815 
L 233.16502 205.090326 
L 234.671771 202.775253 
L 236.178522 213.534823 
L 237.685272 215.105549 
L 239.192023 215.80668 
L 240.698774 215.413173 
L 242.205524 217.018515 
L 243.712275 206.37475 
L 245.219026 218.050481 
L 246.725776 215.284942 
L 248.232527 217.519338 
L 249.739278 216.206893 
L 251.246028 216.625326 
L 252.752779 213.286875 
L 254.25953 217.806401 
L 255.76628 216.26929 
L 257.273031 215.927959 
L 258.779782 213.568215 
L 260.286532 212.532832 
L 261.793283 211.273433 
L 263.300034 213.356356 
L 264.806784 217.582882 
L 266.313535 217.02077 
L 267.820286 216.860785 
L 269.327036 215.914145 
L 270.833787 215.588566 
L 272.340538 218.130899 
L 273.847288 216.228289 
L 275.354039 216.834715 
L 276.86079 212.318643 
L 278.367541 216.773598 
L 279.874291 214.786757 
L 281.381042 214.635131 
L 282.887793 212.999817 
L 284.394543 215.610429 
L 285.901294 217.897205 
L 287.408045 213.98834 
L 288.914795 213.540159 
L 290.421546 210.644813 
L 291.928297 215.787543 
L 293.435047 215.919159 
L 294.941798 216.623573 
L 296.448549 215.24818 
L 297.955299 217.171145 
L 299.46205 213.565423 
L 300.968801 217.265073 
L 302.475551 210.953673 
L 303.982302 215.626471 
L 308.502554 216.869573 
L 310.009305 217.82775 
L 311.516055 218.256364 
L 313.022806 216.459961 
L 314.529557 217.39914 
L 316.036307 216.00948 
L 317.543058 215.52542 
L 319.049809 215.822735 
L 320.556559 216.475534 
L 322.06331 218.033117 
L 323.570061 217.559107 
L 325.076811 215.834034 
L 326.583562 215.797094 
L 328.090313 217.500688 
L 329.597063 217.616584 
L 331.103814 215.705803 
L 334.117315 217.574043 
L 335.624066 92.160248 
L 337.130817 127.670449 
L 338.637568 157.636196 
L 340.144318 176.644781 
L 340.144318 176.644781 
" style="fill:none;stroke:#1f77b4;stroke-linecap:square;stroke-width:1.5;"/>
   </g>
   <g id="patch_3">
    <path d="M 20.5625 228.14 
L 20.5625 10.7 
" style="fill:none;stroke:#000000;stroke-linecap:square;stroke-linejoin:miter;stroke-width:0.8;"/>
   </g>
   <g id="patch_4">
    <path d="M 355.3625 228.14 
L 355.3625 10.7 
" style="fill:none;stroke:#000000;stroke-linecap:square;stroke-linejoin:miter;stroke-width:0.8;"/>
   </g>
   <g id="patch_5">
    <path d="M 20.5625 228.14 
L 355.3625 228.14 
" style="fill:none;stroke:#000000;stroke-linecap:square;stroke-linejoin:miter;stroke-width:0.8;"/>
   </g>
   <g id="patch_6">
    <path d="M 20.5625 10.7 
L 355.3625 10.7 
" style="fill:none;stroke:#000000;stroke-linecap:square;stroke-linejoin:miter;stroke-width:0.8;"/>
   </g>
  </g>
 </g>
 <defs>
  <clipPath id="p87e6441e4b">
   <rect height="217.44" width="334.8" x="20.5625" y="10.7"/>
  </clipPath>
 </defs>
</svg>
