<?xml version="1.0" encoding="utf-8" standalone="no"?>
<!DOCTYPE svg PUBLIC "-//W3C//DTD SVG 1.1//EN"
  "http://www.w3.org/Graphics/SVG/1.1/DTD/svg11.dtd">
<!-- Created with matplotlib (http://matplotlib.org/) -->
<svg height="252.018125pt" version="1.1" viewBox="0 0 375.603125 252.018125" width="375.603125pt" xmlns="http://www.w3.org/2000/svg" xmlns:xlink="http://www.w3.org/1999/xlink">
 <defs>
  <style type="text/css">
*{stroke-linecap:butt;stroke-linejoin:round;}
  </style>
 </defs>
 <g id="figure_1">
  <g id="patch_1">
   <path d="M 0 252.018125 
L 375.603125 252.018125 
L 375.603125 0 
L 0 0 
z
" style="fill:#ffffff;"/>
  </g>
  <g id="axes_1">
   <g id="patch_2">
    <path d="M 30.103125 228.14 
L 364.903125 228.14 
L 364.903125 10.7 
L 30.103125 10.7 
z
" style="fill:#ffffff;"/>
   </g>
   <g id="matplotlib.axis_1">
    <g id="xtick_1">
     <g id="line2d_1">
      <defs>
       <path d="M 0 0 
L 0 3.5 
" id="m5ed3b042c5" style="stroke:#000000;stroke-width:0.8;"/>
      </defs>
      <g>
       <use style="stroke:#000000;stroke-width:0.8;" x="45.321307" xlink:href="#m5ed3b042c5" y="228.14"/>
      </g>
     </g>
     <g id="text_1">
      <!-- 0 -->
      <defs>
       <path d="M 31.78125 66.40625 
Q 24.171875 66.40625 20.328125 58.90625 
Q 16.5 51.421875 16.5 36.375 
Q 16.5 21.390625 20.328125 13.890625 
Q 24.171875 6.390625 31.78125 6.390625 
Q 39.453125 6.390625 43.28125 13.890625 
Q 47.125 21.390625 47.125 36.375 
Q 47.125 51.421875 43.28125 58.90625 
Q 39.453125 66.40625 31.78125 66.40625 
z
M 31.78125 74.21875 
Q 44.046875 74.21875 50.515625 64.515625 
Q 56.984375 54.828125 56.984375 36.375 
Q 56.984375 17.96875 50.515625 8.265625 
Q 44.046875 -1.421875 31.78125 -1.421875 
Q 19.53125 -1.421875 13.0625 8.265625 
Q 6.59375 17.96875 6.59375 36.375 
Q 6.59375 54.828125 13.0625 64.515625 
Q 19.53125 74.21875 31.78125 74.21875 
z
" id="DejaVuSans-30"/>
      </defs>
      <g transform="translate(42.140057 242.738437)scale(0.1 -0.1)">
       <use xlink:href="#DejaVuSans-30"/>
      </g>
     </g>
    </g>
    <g id="xtick_2">
     <g id="line2d_2">
      <g>
       <use style="stroke:#000000;stroke-width:0.8;" x="91.367243" xlink:href="#m5ed3b042c5" y="228.14"/>
      </g>
     </g>
     <g id="text_2">
      <!-- 100 -->
      <defs>
       <path d="M 12.40625 8.296875 
L 28.515625 8.296875 
L 28.515625 63.921875 
L 10.984375 60.40625 
L 10.984375 69.390625 
L 28.421875 72.90625 
L 38.28125 72.90625 
L 38.28125 8.296875 
L 54.390625 8.296875 
L 54.390625 0 
L 12.40625 0 
z
" id="DejaVuSans-31"/>
      </defs>
      <g transform="translate(81.823493 242.738437)scale(0.1 -0.1)">
       <use xlink:href="#DejaVuSans-31"/>
       <use x="63.623047" xlink:href="#DejaVuSans-30"/>
       <use x="127.246094" xlink:href="#DejaVuSans-30"/>
      </g>
     </g>
    </g>
    <g id="xtick_3">
     <g id="line2d_3">
      <g>
       <use style="stroke:#000000;stroke-width:0.8;" x="137.413179" xlink:href="#m5ed3b042c5" y="228.14"/>
      </g>
     </g>
     <g id="text_3">
      <!-- 200 -->
      <defs>
       <path d="M 19.1875 8.296875 
L 53.609375 8.296875 
L 53.609375 0 
L 7.328125 0 
L 7.328125 8.296875 
Q 12.9375 14.109375 22.625 23.890625 
Q 32.328125 33.6875 34.8125 36.53125 
Q 39.546875 41.84375 41.421875 45.53125 
Q 43.3125 49.21875 43.3125 52.78125 
Q 43.3125 58.59375 39.234375 62.25 
Q 35.15625 65.921875 28.609375 65.921875 
Q 23.96875 65.921875 18.8125 64.3125 
Q 13.671875 62.703125 7.8125 59.421875 
L 7.8125 69.390625 
Q 13.765625 71.78125 18.9375 73 
Q 24.125 74.21875 28.421875 74.21875 
Q 39.75 74.21875 46.484375 68.546875 
Q 53.21875 62.890625 53.21875 53.421875 
Q 53.21875 48.921875 51.53125 44.890625 
Q 49.859375 40.875 45.40625 35.40625 
Q 44.1875 33.984375 37.640625 27.21875 
Q 31.109375 20.453125 19.1875 8.296875 
z
" id="DejaVuSans-32"/>
      </defs>
      <g transform="translate(127.869429 242.738437)scale(0.1 -0.1)">
       <use xlink:href="#DejaVuSans-32"/>
       <use x="63.623047" xlink:href="#DejaVuSans-30"/>
       <use x="127.246094" xlink:href="#DejaVuSans-30"/>
      </g>
     </g>
    </g>
    <g id="xtick_4">
     <g id="line2d_4">
      <g>
       <use style="stroke:#000000;stroke-width:0.8;" x="183.459115" xlink:href="#m5ed3b042c5" y="228.14"/>
      </g>
     </g>
     <g id="text_4">
      <!-- 300 -->
      <defs>
       <path d="M 40.578125 39.3125 
Q 47.65625 37.796875 51.625 33 
Q 55.609375 28.21875 55.609375 21.1875 
Q 55.609375 10.40625 48.1875 4.484375 
Q 40.765625 -1.421875 27.09375 -1.421875 
Q 22.515625 -1.421875 17.65625 -0.515625 
Q 12.796875 0.390625 7.625 2.203125 
L 7.625 11.71875 
Q 11.71875 9.328125 16.59375 8.109375 
Q 21.484375 6.890625 26.8125 6.890625 
Q 36.078125 6.890625 40.9375 10.546875 
Q 45.796875 14.203125 45.796875 21.1875 
Q 45.796875 27.640625 41.28125 31.265625 
Q 36.765625 34.90625 28.71875 34.90625 
L 20.21875 34.90625 
L 20.21875 43.015625 
L 29.109375 43.015625 
Q 36.375 43.015625 40.234375 45.921875 
Q 44.09375 48.828125 44.09375 54.296875 
Q 44.09375 59.90625 40.109375 62.90625 
Q 36.140625 65.921875 28.71875 65.921875 
Q 24.65625 65.921875 20.015625 65.03125 
Q 15.375 64.15625 9.8125 62.3125 
L 9.8125 71.09375 
Q 15.4375 72.65625 20.34375 73.4375 
Q 25.25 74.21875 29.59375 74.21875 
Q 40.828125 74.21875 47.359375 69.109375 
Q 53.90625 64.015625 53.90625 55.328125 
Q 53.90625 49.265625 50.4375 45.09375 
Q 46.96875 40.921875 40.578125 39.3125 
z
" id="DejaVuSans-33"/>
      </defs>
      <g transform="translate(173.915365 242.738437)scale(0.1 -0.1)">
       <use xlink:href="#DejaVuSans-33"/>
       <use x="63.623047" xlink:href="#DejaVuSans-30"/>
       <use x="127.246094" xlink:href="#DejaVuSans-30"/>
      </g>
     </g>
    </g>
    <g id="xtick_5">
     <g id="line2d_5">
      <g>
       <use style="stroke:#000000;stroke-width:0.8;" x="229.50505" xlink:href="#m5ed3b042c5" y="228.14"/>
      </g>
     </g>
     <g id="text_5">
      <!-- 400 -->
      <defs>
       <path d="M 37.796875 64.3125 
L 12.890625 25.390625 
L 37.796875 25.390625 
z
M 35.203125 72.90625 
L 47.609375 72.90625 
L 47.609375 25.390625 
L 58.015625 25.390625 
L 58.015625 17.1875 
L 47.609375 17.1875 
L 47.609375 0 
L 37.796875 0 
L 37.796875 17.1875 
L 4.890625 17.1875 
L 4.890625 26.703125 
z
" id="DejaVuSans-34"/>
      </defs>
      <g transform="translate(219.9613 242.738437)scale(0.1 -0.1)">
       <use xlink:href="#DejaVuSans-34"/>
       <use x="63.623047" xlink:href="#DejaVuSans-30"/>
       <use x="127.246094" xlink:href="#DejaVuSans-30"/>
      </g>
     </g>
    </g>
    <g id="xtick_6">
     <g id="line2d_6">
      <g>
       <use style="stroke:#000000;stroke-width:0.8;" x="275.550986" xlink:href="#m5ed3b042c5" y="228.14"/>
      </g>
     </g>
     <g id="text_6">
      <!-- 500 -->
      <defs>
       <path d="M 10.796875 72.90625 
L 49.515625 72.90625 
L 49.515625 64.59375 
L 19.828125 64.59375 
L 19.828125 46.734375 
Q 21.96875 47.46875 24.109375 47.828125 
Q 26.265625 48.1875 28.421875 48.1875 
Q 40.625 48.1875 47.75 41.5 
Q 54.890625 34.8125 54.890625 23.390625 
Q 54.890625 11.625 47.5625 5.09375 
Q 40.234375 -1.421875 26.90625 -1.421875 
Q 22.3125 -1.421875 17.546875 -0.640625 
Q 12.796875 0.140625 7.71875 1.703125 
L 7.71875 11.625 
Q 12.109375 9.234375 16.796875 8.0625 
Q 21.484375 6.890625 26.703125 6.890625 
Q 35.15625 6.890625 40.078125 11.328125 
Q 45.015625 15.765625 45.015625 23.390625 
Q 45.015625 31 40.078125 35.4375 
Q 35.15625 39.890625 26.703125 39.890625 
Q 22.75 39.890625 18.8125 39.015625 
Q 14.890625 38.140625 10.796875 36.28125 
z
" id="DejaVuSans-35"/>
      </defs>
      <g transform="translate(266.007236 242.738437)scale(0.1 -0.1)">
       <use xlink:href="#DejaVuSans-35"/>
       <use x="63.623047" xlink:href="#DejaVuSans-30"/>
       <use x="127.246094" xlink:href="#DejaVuSans-30"/>
      </g>
     </g>
    </g>
    <g id="xtick_7">
     <g id="line2d_7">
      <g>
       <use style="stroke:#000000;stroke-width:0.8;" x="321.596922" xlink:href="#m5ed3b042c5" y="228.14"/>
      </g>
     </g>
     <g id="text_7">
      <!-- 600 -->
      <defs>
       <path d="M 33.015625 40.375 
Q 26.375 40.375 22.484375 35.828125 
Q 18.609375 31.296875 18.609375 23.390625 
Q 18.609375 15.53125 22.484375 10.953125 
Q 26.375 6.390625 33.015625 6.390625 
Q 39.65625 6.390625 43.53125 10.953125 
Q 47.40625 15.53125 47.40625 23.390625 
Q 47.40625 31.296875 43.53125 35.828125 
Q 39.65625 40.375 33.015625 40.375 
z
M 52.59375 71.296875 
L 52.59375 62.3125 
Q 48.875 64.0625 45.09375 64.984375 
Q 41.3125 65.921875 37.59375 65.921875 
Q 27.828125 65.921875 22.671875 59.328125 
Q 17.53125 52.734375 16.796875 39.40625 
Q 19.671875 43.65625 24.015625 45.921875 
Q 28.375 48.1875 33.59375 48.1875 
Q 44.578125 48.1875 50.953125 41.515625 
Q 57.328125 34.859375 57.328125 23.390625 
Q 57.328125 12.15625 50.6875 5.359375 
Q 44.046875 -1.421875 33.015625 -1.421875 
Q 20.359375 -1.421875 13.671875 8.265625 
Q 6.984375 17.96875 6.984375 36.375 
Q 6.984375 53.65625 15.1875 63.9375 
Q 23.390625 74.21875 37.203125 74.21875 
Q 40.921875 74.21875 44.703125 73.484375 
Q 48.484375 72.75 52.59375 71.296875 
z
" id="DejaVuSans-36"/>
      </defs>
      <g transform="translate(312.053172 242.738437)scale(0.1 -0.1)">
       <use xlink:href="#DejaVuSans-36"/>
       <use x="63.623047" xlink:href="#DejaVuSans-30"/>
       <use x="127.246094" xlink:href="#DejaVuSans-30"/>
      </g>
     </g>
    </g>
   </g>
   <g id="matplotlib.axis_2">
    <g id="ytick_1">
     <g id="line2d_8">
      <defs>
       <path d="M 0 0 
L -3.5 0 
" id="me188bdcd8f" style="stroke:#000000;stroke-width:0.8;"/>
      </defs>
      <g>
       <use style="stroke:#000000;stroke-width:0.8;" x="30.103125" xlink:href="#me188bdcd8f" y="218.482089"/>
      </g>
     </g>
     <g id="text_8">
      <!-- 0.0 -->
      <defs>
       <path d="M 10.6875 12.40625 
L 21 12.40625 
L 21 0 
L 10.6875 0 
z
" id="DejaVuSans-2e"/>
      </defs>
      <g transform="translate(7.2 222.281308)scale(0.1 -0.1)">
       <use xlink:href="#DejaVuSans-30"/>
       <use x="63.623047" xlink:href="#DejaVuSans-2e"/>
       <use x="95.410156" xlink:href="#DejaVuSans-30"/>
      </g>
     </g>
    </g>
    <g id="ytick_2">
     <g id="line2d_9">
      <g>
       <use style="stroke:#000000;stroke-width:0.8;" x="30.103125" xlink:href="#me188bdcd8f" y="194.175914"/>
      </g>
     </g>
     <g id="text_9">
      <!-- 0.5 -->
      <g transform="translate(7.2 197.975133)scale(0.1 -0.1)">
       <use xlink:href="#DejaVuSans-30"/>
       <use x="63.623047" xlink:href="#DejaVuSans-2e"/>
       <use x="95.410156" xlink:href="#DejaVuSans-35"/>
      </g>
     </g>
    </g>
    <g id="ytick_3">
     <g id="line2d_10">
      <g>
       <use style="stroke:#000000;stroke-width:0.8;" x="30.103125" xlink:href="#me188bdcd8f" y="169.869739"/>
      </g>
     </g>
     <g id="text_10">
      <!-- 1.0 -->
      <g transform="translate(7.2 173.668958)scale(0.1 -0.1)">
       <use xlink:href="#DejaVuSans-31"/>
       <use x="63.623047" xlink:href="#DejaVuSans-2e"/>
       <use x="95.410156" xlink:href="#DejaVuSans-30"/>
      </g>
     </g>
    </g>
    <g id="ytick_4">
     <g id="line2d_11">
      <g>
       <use style="stroke:#000000;stroke-width:0.8;" x="30.103125" xlink:href="#me188bdcd8f" y="145.563565"/>
      </g>
     </g>
     <g id="text_11">
      <!-- 1.5 -->
      <g transform="translate(7.2 149.362783)scale(0.1 -0.1)">
       <use xlink:href="#DejaVuSans-31"/>
       <use x="63.623047" xlink:href="#DejaVuSans-2e"/>
       <use x="95.410156" xlink:href="#DejaVuSans-35"/>
      </g>
     </g>
    </g>
    <g id="ytick_5">
     <g id="line2d_12">
      <g>
       <use style="stroke:#000000;stroke-width:0.8;" x="30.103125" xlink:href="#me188bdcd8f" y="121.25739"/>
      </g>
     </g>
     <g id="text_12">
      <!-- 2.0 -->
      <g transform="translate(7.2 125.056608)scale(0.1 -0.1)">
       <use xlink:href="#DejaVuSans-32"/>
       <use x="63.623047" xlink:href="#DejaVuSans-2e"/>
       <use x="95.410156" xlink:href="#DejaVuSans-30"/>
      </g>
     </g>
    </g>
    <g id="ytick_6">
     <g id="line2d_13">
      <g>
       <use style="stroke:#000000;stroke-width:0.8;" x="30.103125" xlink:href="#me188bdcd8f" y="96.951215"/>
      </g>
     </g>
     <g id="text_13">
      <!-- 2.5 -->
      <g transform="translate(7.2 100.750433)scale(0.1 -0.1)">
       <use xlink:href="#DejaVuSans-32"/>
       <use x="63.623047" xlink:href="#DejaVuSans-2e"/>
       <use x="95.410156" xlink:href="#DejaVuSans-35"/>
      </g>
     </g>
    </g>
    <g id="ytick_7">
     <g id="line2d_14">
      <g>
       <use style="stroke:#000000;stroke-width:0.8;" x="30.103125" xlink:href="#me188bdcd8f" y="72.64504"/>
      </g>
     </g>
     <g id="text_14">
      <!-- 3.0 -->
      <g transform="translate(7.2 76.444259)scale(0.1 -0.1)">
       <use xlink:href="#DejaVuSans-33"/>
       <use x="63.623047" xlink:href="#DejaVuSans-2e"/>
       <use x="95.410156" xlink:href="#DejaVuSans-30"/>
      </g>
     </g>
    </g>
    <g id="ytick_8">
     <g id="line2d_15">
      <g>
       <use style="stroke:#000000;stroke-width:0.8;" x="30.103125" xlink:href="#me188bdcd8f" y="48.338865"/>
      </g>
     </g>
     <g id="text_15">
      <!-- 3.5 -->
      <g transform="translate(7.2 52.138084)scale(0.1 -0.1)">
       <use xlink:href="#DejaVuSans-33"/>
       <use x="63.623047" xlink:href="#DejaVuSans-2e"/>
       <use x="95.410156" xlink:href="#DejaVuSans-35"/>
      </g>
     </g>
    </g>
    <g id="ytick_9">
     <g id="line2d_16">
      <g>
       <use style="stroke:#000000;stroke-width:0.8;" x="30.103125" xlink:href="#me188bdcd8f" y="24.03269"/>
      </g>
     </g>
     <g id="text_16">
      <!-- 4.0 -->
      <g transform="translate(7.2 27.831909)scale(0.1 -0.1)">
       <use xlink:href="#DejaVuSans-34"/>
       <use x="63.623047" xlink:href="#DejaVuSans-2e"/>
       <use x="95.410156" xlink:href="#DejaVuSans-30"/>
      </g>
     </g>
    </g>
   </g>
   <g id="line2d_17">
    <path clip-path="url(#pde69945708)" d="M 45.321307 149.673065 
L 45.781766 165.480214 
L 46.242226 187.058743 
L 47.163144 34.853562 
L 47.623604 20.583636 
L 48.084063 84.001407 
L 48.544522 126.017437 
L 49.004982 95.633623 
L 49.465441 111.991736 
L 49.9259 173.446725 
L 50.38636 138.510663 
L 50.846819 178.647297 
L 51.307278 197.509225 
L 51.767738 164.009306 
L 52.228197 150.108932 
L 52.688657 164.08855 
L 53.149116 167.260828 
L 53.609575 216.670354 
L 54.070035 212.090258 
L 54.530494 213.343878 
L 54.990953 216.135137 
L 55.451413 214.242039 
L 55.911872 185.557247 
L 56.372331 215.389696 
L 56.832791 213.272353 
L 57.29325 211.84633 
L 57.75371 210.994364 
L 58.214169 212.78362 
L 58.674628 214.05788 
L 59.595547 213.220111 
L 60.056006 211.850979 
L 60.516466 209.528523 
L 60.976925 211.318143 
L 61.437384 211.911104 
L 61.897844 211.38452 
L 62.358303 210.18436 
L 62.818762 209.494593 
L 63.279222 210.572364 
L 63.739681 210.470629 
L 64.200141 209.63473 
L 64.6606 209.232266 
L 65.581519 209.710528 
L 66.041978 209.986033 
L 66.502437 210.997767 
L 67.883815 208.123793 
L 68.344275 208.042946 
L 68.804734 207.570802 
L 69.265193 207.688175 
L 69.725653 206.817696 
L 70.186112 207.612664 
L 70.646572 207.537183 
L 71.107031 207.996808 
L 71.56749 206.791631 
L 72.02795 207.407965 
L 72.488409 207.570926 
L 72.948868 209.370135 
L 73.869787 208.885082 
L 74.330246 209.865524 
L 74.790706 209.525079 
L 75.251165 209.718175 
L 75.711625 209.719246 
L 76.172084 210.133774 
L 76.632543 210.349205 
L 77.093003 211.702207 
L 77.553462 211.750038 
L 78.013921 211.650785 
L 78.474381 211.798613 
L 78.93484 212.472127 
L 79.395299 213.603843 
L 80.776677 214.253121 
L 81.237137 214.589593 
L 81.697596 215.750706 
L 82.158056 216.284427 
L 82.618515 215.828897 
L 83.078974 216.097166 
L 83.539434 217.246824 
L 83.999893 217.340468 
L 84.460352 217.16081 
L 84.920812 217.127736 
L 85.381271 218.084321 
L 85.84173 218.051931 
L 86.30219 217.798998 
L 86.762649 218.055059 
L 87.683568 216.890174 
L 88.144027 216.451219 
L 88.604487 216.269833 
L 89.064946 215.079219 
L 89.525405 214.886479 
L 89.985865 214.12568 
L 90.446324 214.295503 
L 90.906783 212.485528 
L 91.367243 209.78452 
L 91.827702 209.511915 
L 92.288161 208.225389 
L 92.748621 206.327496 
L 93.20908 205.191993 
L 93.66954 203.62295 
L 94.590458 203.203405 
L 95.511377 198.37663 
L 95.971836 198.174771 
L 96.432296 193.902314 
L 96.892755 196.691243 
L 97.353214 197.088738 
L 97.813674 197.066562 
L 98.274133 197.315889 
L 99.195052 198.609258 
L 99.655511 198.679553 
L 100.57643 201.328975 
L 101.036889 201.820993 
L 101.497349 202.941668 
L 101.957808 203.389002 
L 102.418267 206.834491 
L 102.878727 208.314804 
L 103.339186 209.241548 
L 103.799645 209.449946 
L 104.260105 209.968218 
L 104.720564 209.747446 
L 105.181024 211.658837 
L 105.641483 211.467753 
L 106.101942 212.24936 
L 106.562402 209.456332 
L 107.022861 211.527071 
L 107.48332 212.24076 
L 107.94378 210.941545 
L 108.404239 211.307109 
L 108.864698 213.649685 
L 109.325158 212.919357 
L 109.785617 212.569293 
L 110.246076 210.611961 
L 110.706536 214.840163 
L 111.166995 215.167444 
L 111.627455 215.993713 
L 112.087914 215.669443 
L 112.548373 216.014818 
L 113.008833 216.008847 
L 113.469292 217.236017 
L 114.390211 217.000097 
L 115.771589 217.034886 
L 116.232048 215.948855 
L 116.692507 217.296676 
L 117.152967 216.091551 
L 117.613426 217.246824 
L 118.073886 216.605642 
L 118.534345 216.566044 
L 118.994804 217.33111 
L 119.915723 215.408833 
L 120.376182 216.597086 
L 120.836642 216.045441 
L 121.297101 216.178384 
L 121.75756 216.866762 
L 122.21802 217.255539 
L 122.678479 216.748258 
L 123.138939 218.055059 
L 123.599398 217.542794 
L 124.059857 216.357641 
L 124.520317 218.055059 
L 124.980776 218.074334 
L 125.441235 217.149694 
L 125.901695 216.801668 
L 126.362154 215.667061 
L 126.822613 217.471286 
L 127.283073 216.970535 
L 127.743532 218.010305 
L 128.203991 217.875961 
L 128.664451 216.976757 
L 129.12491 217.71225 
L 129.58537 217.125757 
L 130.045829 216.047643 
L 130.506288 216.579386 
L 130.966748 216.135137 
L 131.427207 216.575866 
L 131.887666 217.32762 
L 132.348126 216.038846 
L 132.808585 215.541266 
L 133.269044 215.509973 
L 133.729504 214.496998 
L 134.189963 213.82 
L 134.650422 217.193693 
L 135.110882 214.981331 
L 136.031801 212.824236 
L 136.49226 212.095715 
L 136.952719 211.781581 
L 137.413179 208.836445 
L 137.873638 208.683632 
L 138.334097 209.269304 
L 138.794557 208.91685 
L 139.255016 209.138231 
L 139.715475 208.544358 
L 140.175935 208.298202 
L 140.636394 207.762968 
L 141.557313 208.034216 
L 142.478232 206.344275 
L 142.938691 209.317021 
L 143.39915 203.48007 
L 143.85961 204.0095 
L 144.320069 208.292936 
L 144.780528 209.06647 
L 145.240988 207.875134 
L 145.701447 208.352195 
L 146.161906 210.707091 
L 146.622366 207.649611 
L 147.082825 211.141576 
L 147.543285 210.724356 
L 148.003744 211.780781 
L 148.464203 211.117504 
L 148.924663 211.360191 
L 149.385122 215.546286 
L 149.845581 214.683032 
L 150.306041 214.722769 
L 150.7665 214.551543 
L 151.226959 214.509129 
L 152.147878 214.764373 
L 152.608337 214.390746 
L 153.068797 214.871222 
L 153.529256 216.386235 
L 153.989716 215.804749 
L 154.450175 216.181879 
L 154.910634 216.320724 
L 155.371094 215.690498 
L 156.292012 212.900347 
L 156.752472 213.882543 
L 157.212931 210.958278 
L 157.67339 212.513994 
L 158.13385 215.396641 
L 158.594309 217.208346 
L 159.054769 217.51328 
L 159.515228 213.689807 
L 159.975687 216.6748 
L 160.436147 215.237354 
L 160.896606 212.666469 
L 161.357065 210.789444 
L 161.817525 215.66468 
L 162.738443 216.362696 
L 163.198903 217.086774 
L 163.659362 216.245121 
L 164.119821 216.289314 
L 164.580281 217.273156 
L 165.04074 216.193567 
L 165.5012 216.855183 
L 165.961659 215.961058 
L 166.422118 217.448982 
L 166.882578 217.376264 
L 167.343037 215.201191 
L 167.803496 214.871593 
L 168.263956 213.724346 
L 168.724415 213.767093 
L 169.184874 213.527749 
L 169.645334 213.645802 
L 170.105793 212.906116 
L 170.566252 213.019323 
L 171.026712 211.687786 
L 171.487171 211.010498 
L 171.947631 210.9403 
L 172.40809 211.279318 
L 172.868549 208.289779 
L 173.329009 207.819658 
L 173.789468 207.557907 
L 174.249927 209.521338 
L 174.710387 210.064516 
L 175.170846 209.941016 
L 175.631305 212.482846 
L 176.091765 209.418381 
L 177.012684 212.26379 
L 177.473143 211.083173 
L 177.933602 210.816159 
L 178.854521 211.667883 
L 179.31498 211.899687 
L 179.77544 211.74327 
L 180.235899 211.931337 
L 180.696358 211.613203 
L 181.156818 212.223812 
L 181.617277 213.2344 
L 182.077736 213.728293 
L 182.538196 214.781001 
L 182.998655 214.339936 
L 183.459115 214.793339 
L 184.380033 214.702848 
L 185.300952 216.272258 
L 185.761411 215.965849 
L 186.221871 216.875919 
L 186.68233 216.865932 
L 187.142789 216.607787 
L 187.603249 216.817703 
L 188.063708 216.784994 
L 188.524167 216.457832 
L 188.984627 214.749974 
L 189.445086 217.313766 
L 189.905546 216.829831 
L 190.366005 217.048851 
L 190.826464 216.508136 
L 191.286924 216.682234 
L 191.747383 216.7085 
L 192.207842 217.16081 
L 192.668302 216.937194 
L 193.58922 217.938964 
L 194.04968 217.831162 
L 194.510139 217.547087 
L 194.970599 217.893925 
L 195.431058 216.945025 
L 195.891517 217.265417 
L 196.351977 216.294211 
L 196.812436 217.562997 
L 197.272895 215.957869 
L 197.733355 217.422077 
L 198.193814 216.808063 
L 198.654273 217.645477 
L 199.114733 216.529994 
L 199.575192 214.171473 
L 200.035651 214.708884 
L 200.95657 216.530681 
L 201.41703 216.702462 
L 201.877489 217.186429 
L 202.337948 217.309184 
L 202.798408 217.05166 
L 203.258867 216.241527 
L 203.719326 215.660875 
L 204.179786 214.825466 
L 204.640245 213.584093 
L 205.100704 213.718713 
L 205.561164 213.550536 
L 206.021623 214.262008 
L 206.942542 213.990206 
L 207.403001 213.04343 
L 207.863461 212.850603 
L 208.32392 212.219528 
L 208.784379 212.378704 
L 209.705298 213.257703 
L 210.165757 212.980679 
L 210.626217 213.087244 
L 211.086676 213.412181 
L 212.468054 213.716461 
L 212.928514 213.0622 
L 213.388973 212.769755 
L 213.849432 212.173451 
L 214.309892 212.072034 
L 214.770351 211.828975 
L 215.23081 210.835598 
L 215.69127 210.996692 
L 216.151729 210.037004 
L 216.612188 210.017498 
L 217.072648 209.384714 
L 218.454026 205.334305 
L 218.914485 203.452924 
L 219.374945 202.616849 
L 219.835404 203.022291 
L 220.295863 201.596603 
L 220.756323 200.81027 
L 221.216782 199.79509 
L 221.677241 199.406079 
L 222.137701 196.357463 
L 223.519079 198.138686 
L 223.979538 197.673857 
L 224.439998 196.077307 
L 224.900457 196.157825 
L 225.360916 197.119158 
L 225.821376 198.743643 
L 226.742294 200.919029 
L 227.202754 200.152756 
L 227.663213 200.97194 
L 229.044591 201.815923 
L 229.50505 203.014227 
L 229.96551 203.327916 
L 230.425969 207.162 
L 230.886429 207.96782 
L 231.346888 208.403285 
L 231.807347 208.068151 
L 232.267807 209.614748 
L 232.728266 210.630895 
L 233.188725 212.122013 
L 233.649185 212.755922 
L 234.109644 212.244199 
L 234.570103 212.559324 
L 235.030563 213.403197 
L 235.491022 213.830942 
L 235.951481 214.102045 
L 236.8724 215.166231 
L 237.33286 215.50862 
L 238.253778 215.769425 
L 238.714238 215.165827 
L 239.174697 216.021348 
L 239.635156 216.16967 
L 240.095616 216.063668 
L 240.556075 215.713165 
L 241.476994 216.668874 
L 241.937453 218.094566 
L 242.397913 218.256364 
L 242.858372 218.203218 
L 243.318831 217.929177 
L 243.779291 217.366606 
L 244.23975 217.049787 
L 245.160669 216.835521 
L 245.621128 216.784994 
L 246.081587 217.186429 
L 246.542047 217.775836 
L 247.002506 217.849973 
L 247.923425 217.376264 
L 248.383884 217.623332 
L 248.844344 217.614014 
L 249.304803 217.111008 
L 249.765262 216.916502 
L 250.225722 217.858515 
L 250.686181 217.607858 
L 251.14664 217.66166 
L 251.6071 217.980015 
L 252.067559 217.589643 
L 252.528018 218.218036 
L 252.988478 217.542794 
L 253.448937 217.66166 
L 253.909396 217.485985 
L 254.369856 217.717493 
L 254.830315 217.090623 
L 255.290775 217.645477 
L 255.751234 217.631175 
L 256.211693 217.480615 
L 256.672153 217.719248 
L 257.132612 218.189149 
L 257.593071 217.538522 
L 258.053531 217.244655 
L 258.974449 217.643876 
L 259.895368 217.273156 
L 260.355828 217.351088 
L 260.816287 217.063898 
L 261.276746 217.623332 
L 262.197665 217.33695 
L 262.658124 217.549959 
L 263.118584 217.372632 
L 264.039502 216.394569 
L 264.499962 217.191613 
L 264.960421 217.081977 
L 265.42088 216.82902 
L 265.88134 216.343801 
L 266.341799 216.427588 
L 266.802259 216.729796 
L 267.262718 216.619268 
L 267.723177 215.900099 
L 268.183637 215.686178 
L 268.644096 215.760049 
L 269.104555 216.848603 
L 269.565015 216.707744 
L 270.025474 216.236148 
L 271.867311 216.424327 
L 272.78823 215.865537 
L 273.24869 216.505421 
L 273.709149 216.834707 
L 274.169608 216.627203 
L 274.630068 215.96159 
L 275.090527 215.794752 
L 275.550986 215.40012 
L 276.011446 213.964608 
L 276.471905 215.387529 
L 276.932364 216.207672 
L 277.392824 215.54309 
L 278.313743 215.326601 
L 278.774202 215.519462 
L 279.695121 215.059574 
L 280.15558 215.144868 
L 280.616039 215.344071 
L 281.536958 215.16421 
L 281.997417 215.961058 
L 282.457877 215.610472 
L 282.918336 216.316386 
L 283.378795 215.602545 
L 283.839255 215.484815 
L 284.299714 215.132436 
L 284.760174 214.442195 
L 285.220633 214.792612 
L 285.681092 214.603396 
L 286.141552 211.483062 
L 286.602011 210.702092 
L 287.06247 209.067751 
L 287.52293 208.702535 
L 287.983389 207.815258 
L 288.443848 203.27933 
L 288.904308 203.135805 
L 290.285686 199.401018 
L 290.746145 198.682262 
L 291.206605 199.628861 
L 291.667064 198.38597 
L 292.127523 197.911183 
L 292.587983 197.849744 
L 293.048442 198.064474 
L 294.42982 197.464137 
L 294.890279 197.746864 
L 295.350739 198.719747 
L 295.811198 198.484156 
L 296.271658 198.887501 
L 296.732117 198.707538 
L 297.192576 199.516541 
L 297.653036 199.261688 
L 298.113495 200.052809 
L 298.573954 199.99368 
L 299.034414 200.562082 
L 299.494873 199.844521 
L 299.955332 200.204329 
L 300.876251 202.061015 
L 301.33671 203.870548 
L 301.79717 207.410872 
L 302.718089 210.894923 
L 303.178548 208.582345 
L 303.639007 209.437189 
L 304.099467 212.093196 
L 304.559926 212.646445 
L 305.020385 212.657715 
L 305.480845 213.249753 
L 305.941304 213.204589 
L 306.401763 214.316694 
L 306.862223 214.69753 
L 307.322682 214.144187 
L 307.783142 214.650699 
L 308.243601 216.085948 
L 308.70406 216.643174 
L 309.16452 216.651945 
L 309.624979 217.295546 
L 310.085438 216.649017 
L 310.545898 217.966835 
L 311.006357 217.875961 
L 311.466816 217.471286 
L 312.387735 217.831162 
L 312.848194 217.145675 
L 313.308654 217.394604 
L 313.769113 217.198907 
L 314.229573 216.639532 
L 314.690032 217.412005 
L 315.150491 215.952032 
L 315.610951 217.564457 
L 316.07141 217.62646 
L 316.531869 216.697947 
L 316.992329 216.507457 
L 317.452788 216.594243 
L 317.913247 213.59725 
L 318.373707 216.48249 
L 318.834166 217.591146 
L 319.294625 217.775836 
L 319.755085 217.298941 
L 320.215544 217.480615 
L 320.676004 217.351088 
L 321.596922 215.788771 
L 322.057382 214.667885 
L 322.517841 212.267241 
L 323.43876 211.014626 
L 323.899219 211.132083 
L 324.820138 210.17354 
L 325.280597 207.316925 
L 325.741057 207.162593 
L 326.201516 206.68306 
L 326.661975 206.891267 
L 327.122435 206.193102 
L 327.582894 203.351382 
L 328.043353 198.407132 
L 328.503813 200.449973 
L 328.964272 205.027451 
L 329.424731 205.435864 
L 329.885191 205.322277 
L 330.34565 207.361809 
L 330.806109 208.30874 
L 331.266569 211.926835 
L 331.727028 211.94527 
L 332.187488 207.187021 
L 332.647947 213.893049 
L 333.108406 215.022944 
L 333.568866 215.800746 
L 334.029325 216.914791 
L 334.489784 216.594243 
L 334.950244 215.108106 
L 335.410703 214.831338 
L 335.871162 215.784294 
L 336.331622 215.126836 
L 336.792081 215.613275 
L 337.25254 213.338141 
L 337.713 213.579441 
L 338.173459 214.404205 
L 338.633919 214.313155 
L 339.094378 214.674923 
L 339.554837 214.731339 
L 340.015297 214.143878 
L 340.475756 214.563843 
L 340.936215 214.760408 
L 341.396675 214.493299 
L 342.317593 216.151764 
L 342.778053 216.483161 
L 343.238512 216.521769 
L 343.698972 217.600222 
L 344.159431 217.946421 
L 344.61989 217.547087 
L 345.08035 217.701869 
L 346.922187 217.924348 
L 347.382646 217.746086 
L 348.303565 218.077635 
L 348.764024 217.560083 
L 349.224484 217.912454 
L 349.684943 217.78732 
L 349.684943 217.78732 
" style="fill:none;stroke:#1f77b4;stroke-linecap:square;stroke-width:1.5;"/>
   </g>
   <g id="patch_3">
    <path d="M 30.103125 228.14 
L 30.103125 10.7 
" style="fill:none;stroke:#000000;stroke-linecap:square;stroke-linejoin:miter;stroke-width:0.8;"/>
   </g>
   <g id="patch_4">
    <path d="M 364.903125 228.14 
L 364.903125 10.7 
" style="fill:none;stroke:#000000;stroke-linecap:square;stroke-linejoin:miter;stroke-width:0.8;"/>
   </g>
   <g id="patch_5">
    <path d="M 30.103125 228.14 
L 364.903125 228.14 
" style="fill:none;stroke:#000000;stroke-linecap:square;stroke-linejoin:miter;stroke-width:0.8;"/>
   </g>
   <g id="patch_6">
    <path d="M 30.103125 10.7 
L 364.903125 10.7 
" style="fill:none;stroke:#000000;stroke-linecap:square;stroke-linejoin:miter;stroke-width:0.8;"/>
   </g>
  </g>
 </g>
 <defs>
  <clipPath id="pde69945708">
   <rect height="217.44" width="334.8" x="30.103125" y="10.7"/>
  </clipPath>
 </defs>
</svg>
