<?xml version="1.0" encoding="utf-8" standalone="no"?>
<!DOCTYPE svg PUBLIC "-//W3C//DTD SVG 1.1//EN"
  "http://www.w3.org/Graphics/SVG/1.1/DTD/svg11.dtd">
<!-- Created with matplotlib (http://matplotlib.org/) -->
<svg height="300.690125pt" version="1.1" viewBox="0 0 397.923125 300.690125" width="397.923125pt" xmlns="http://www.w3.org/2000/svg" xmlns:xlink="http://www.w3.org/1999/xlink">
 <defs>
  <style type="text/css">
*{stroke-linecap:butt;stroke-linejoin:round;}
  </style>
 </defs>
 <g id="figure_1">
  <g id="patch_1">
   <path d="M 0 300.690125 
L 397.923125 300.690125 
L 397.923125 0 
L 0 0 
z
" style="fill:#ffffff;"/>
  </g>
  <g id="axes_1">
   <g id="patch_2">
    <path d="M 30.103125 276.812 
L 387.223125 276.812 
L 387.223125 10.7 
L 30.103125 10.7 
z
" style="fill:#ffffff;"/>
   </g>
   <g id="matplotlib.axis_1">
    <g id="xtick_1">
     <g id="line2d_1">
      <defs>
       <path d="M 0 0 
L 0 3.5 
" id="m28ae42d04a" style="stroke:#000000;stroke-width:0.8;"/>
      </defs>
      <g>
       <use style="stroke:#000000;stroke-width:0.8;" x="46.335852" xlink:href="#m28ae42d04a" y="276.812"/>
      </g>
     </g>
     <g id="text_1">
      <!-- 0 -->
      <defs>
       <path d="M 31.78125 66.40625 
Q 24.171875 66.40625 20.328125 58.90625 
Q 16.5 51.421875 16.5 36.375 
Q 16.5 21.390625 20.328125 13.890625 
Q 24.171875 6.390625 31.78125 6.390625 
Q 39.453125 6.390625 43.28125 13.890625 
Q 47.125 21.390625 47.125 36.375 
Q 47.125 51.421875 43.28125 58.90625 
Q 39.453125 66.40625 31.78125 66.40625 
z
M 31.78125 74.21875 
Q 44.046875 74.21875 50.515625 64.515625 
Q 56.984375 54.828125 56.984375 36.375 
Q 56.984375 17.96875 50.515625 8.265625 
Q 44.046875 -1.421875 31.78125 -1.421875 
Q 19.53125 -1.421875 13.0625 8.265625 
Q 6.59375 17.96875 6.59375 36.375 
Q 6.59375 54.828125 13.0625 64.515625 
Q 19.53125 74.21875 31.78125 74.21875 
z
" id="DejaVuSans-30"/>
      </defs>
      <g transform="translate(43.154602 291.410437)scale(0.1 -0.1)">
       <use xlink:href="#DejaVuSans-30"/>
      </g>
     </g>
    </g>
    <g id="xtick_2">
     <g id="line2d_2">
      <g>
       <use style="stroke:#000000;stroke-width:0.8;" x="116.653059" xlink:href="#m28ae42d04a" y="276.812"/>
      </g>
     </g>
     <g id="text_2">
      <!-- 1000 -->
      <defs>
       <path d="M 12.40625 8.296875 
L 28.515625 8.296875 
L 28.515625 63.921875 
L 10.984375 60.40625 
L 10.984375 69.390625 
L 28.421875 72.90625 
L 38.28125 72.90625 
L 38.28125 8.296875 
L 54.390625 8.296875 
L 54.390625 0 
L 12.40625 0 
z
" id="DejaVuSans-31"/>
      </defs>
      <g transform="translate(103.928059 291.410437)scale(0.1 -0.1)">
       <use xlink:href="#DejaVuSans-31"/>
       <use x="63.623047" xlink:href="#DejaVuSans-30"/>
       <use x="127.246094" xlink:href="#DejaVuSans-30"/>
       <use x="190.869141" xlink:href="#DejaVuSans-30"/>
      </g>
     </g>
    </g>
    <g id="xtick_3">
     <g id="line2d_3">
      <g>
       <use style="stroke:#000000;stroke-width:0.8;" x="186.970267" xlink:href="#m28ae42d04a" y="276.812"/>
      </g>
     </g>
     <g id="text_3">
      <!-- 2000 -->
      <defs>
       <path d="M 19.1875 8.296875 
L 53.609375 8.296875 
L 53.609375 0 
L 7.328125 0 
L 7.328125 8.296875 
Q 12.9375 14.109375 22.625 23.890625 
Q 32.328125 33.6875 34.8125 36.53125 
Q 39.546875 41.84375 41.421875 45.53125 
Q 43.3125 49.21875 43.3125 52.78125 
Q 43.3125 58.59375 39.234375 62.25 
Q 35.15625 65.921875 28.609375 65.921875 
Q 23.96875 65.921875 18.8125 64.3125 
Q 13.671875 62.703125 7.8125 59.421875 
L 7.8125 69.390625 
Q 13.765625 71.78125 18.9375 73 
Q 24.125 74.21875 28.421875 74.21875 
Q 39.75 74.21875 46.484375 68.546875 
Q 53.21875 62.890625 53.21875 53.421875 
Q 53.21875 48.921875 51.53125 44.890625 
Q 49.859375 40.875 45.40625 35.40625 
Q 44.1875 33.984375 37.640625 27.21875 
Q 31.109375 20.453125 19.1875 8.296875 
z
" id="DejaVuSans-32"/>
      </defs>
      <g transform="translate(174.245267 291.410437)scale(0.1 -0.1)">
       <use xlink:href="#DejaVuSans-32"/>
       <use x="63.623047" xlink:href="#DejaVuSans-30"/>
       <use x="127.246094" xlink:href="#DejaVuSans-30"/>
       <use x="190.869141" xlink:href="#DejaVuSans-30"/>
      </g>
     </g>
    </g>
    <g id="xtick_4">
     <g id="line2d_4">
      <g>
       <use style="stroke:#000000;stroke-width:0.8;" x="257.287474" xlink:href="#m28ae42d04a" y="276.812"/>
      </g>
     </g>
     <g id="text_4">
      <!-- 3000 -->
      <defs>
       <path d="M 40.578125 39.3125 
Q 47.65625 37.796875 51.625 33 
Q 55.609375 28.21875 55.609375 21.1875 
Q 55.609375 10.40625 48.1875 4.484375 
Q 40.765625 -1.421875 27.09375 -1.421875 
Q 22.515625 -1.421875 17.65625 -0.515625 
Q 12.796875 0.390625 7.625 2.203125 
L 7.625 11.71875 
Q 11.71875 9.328125 16.59375 8.109375 
Q 21.484375 6.890625 26.8125 6.890625 
Q 36.078125 6.890625 40.9375 10.546875 
Q 45.796875 14.203125 45.796875 21.1875 
Q 45.796875 27.640625 41.28125 31.265625 
Q 36.765625 34.90625 28.71875 34.90625 
L 20.21875 34.90625 
L 20.21875 43.015625 
L 29.109375 43.015625 
Q 36.375 43.015625 40.234375 45.921875 
Q 44.09375 48.828125 44.09375 54.296875 
Q 44.09375 59.90625 40.109375 62.90625 
Q 36.140625 65.921875 28.71875 65.921875 
Q 24.65625 65.921875 20.015625 65.03125 
Q 15.375 64.15625 9.8125 62.3125 
L 9.8125 71.09375 
Q 15.4375 72.65625 20.34375 73.4375 
Q 25.25 74.21875 29.59375 74.21875 
Q 40.828125 74.21875 47.359375 69.109375 
Q 53.90625 64.015625 53.90625 55.328125 
Q 53.90625 49.265625 50.4375 45.09375 
Q 46.96875 40.921875 40.578125 39.3125 
z
" id="DejaVuSans-33"/>
      </defs>
      <g transform="translate(244.562474 291.410437)scale(0.1 -0.1)">
       <use xlink:href="#DejaVuSans-33"/>
       <use x="63.623047" xlink:href="#DejaVuSans-30"/>
       <use x="127.246094" xlink:href="#DejaVuSans-30"/>
       <use x="190.869141" xlink:href="#DejaVuSans-30"/>
      </g>
     </g>
    </g>
    <g id="xtick_5">
     <g id="line2d_5">
      <g>
       <use style="stroke:#000000;stroke-width:0.8;" x="327.604681" xlink:href="#m28ae42d04a" y="276.812"/>
      </g>
     </g>
     <g id="text_5">
      <!-- 4000 -->
      <defs>
       <path d="M 37.796875 64.3125 
L 12.890625 25.390625 
L 37.796875 25.390625 
z
M 35.203125 72.90625 
L 47.609375 72.90625 
L 47.609375 25.390625 
L 58.015625 25.390625 
L 58.015625 17.1875 
L 47.609375 17.1875 
L 47.609375 0 
L 37.796875 0 
L 37.796875 17.1875 
L 4.890625 17.1875 
L 4.890625 26.703125 
z
" id="DejaVuSans-34"/>
      </defs>
      <g transform="translate(314.879681 291.410437)scale(0.1 -0.1)">
       <use xlink:href="#DejaVuSans-34"/>
       <use x="63.623047" xlink:href="#DejaVuSans-30"/>
       <use x="127.246094" xlink:href="#DejaVuSans-30"/>
       <use x="190.869141" xlink:href="#DejaVuSans-30"/>
      </g>
     </g>
    </g>
   </g>
   <g id="matplotlib.axis_2">
    <g id="ytick_1">
     <g id="line2d_6">
      <defs>
       <path d="M 0 0 
L -3.5 0 
" id="m0b6b9444fd" style="stroke:#000000;stroke-width:0.8;"/>
      </defs>
      <g>
       <use style="stroke:#000000;stroke-width:0.8;" x="30.103125" xlink:href="#m0b6b9444fd" y="264.822125"/>
      </g>
     </g>
     <g id="text_6">
      <!-- 0.0 -->
      <defs>
       <path d="M 10.6875 12.40625 
L 21 12.40625 
L 21 0 
L 10.6875 0 
z
" id="DejaVuSans-2e"/>
      </defs>
      <g transform="translate(7.2 268.621344)scale(0.1 -0.1)">
       <use xlink:href="#DejaVuSans-30"/>
       <use x="63.623047" xlink:href="#DejaVuSans-2e"/>
       <use x="95.410156" xlink:href="#DejaVuSans-30"/>
      </g>
     </g>
    </g>
    <g id="ytick_2">
     <g id="line2d_7">
      <g>
       <use style="stroke:#000000;stroke-width:0.8;" x="30.103125" xlink:href="#m0b6b9444fd" y="229.600085"/>
      </g>
     </g>
     <g id="text_7">
      <!-- 0.5 -->
      <defs>
       <path d="M 10.796875 72.90625 
L 49.515625 72.90625 
L 49.515625 64.59375 
L 19.828125 64.59375 
L 19.828125 46.734375 
Q 21.96875 47.46875 24.109375 47.828125 
Q 26.265625 48.1875 28.421875 48.1875 
Q 40.625 48.1875 47.75 41.5 
Q 54.890625 34.8125 54.890625 23.390625 
Q 54.890625 11.625 47.5625 5.09375 
Q 40.234375 -1.421875 26.90625 -1.421875 
Q 22.3125 -1.421875 17.546875 -0.640625 
Q 12.796875 0.140625 7.71875 1.703125 
L 7.71875 11.625 
Q 12.109375 9.234375 16.796875 8.0625 
Q 21.484375 6.890625 26.703125 6.890625 
Q 35.15625 6.890625 40.078125 11.328125 
Q 45.015625 15.765625 45.015625 23.390625 
Q 45.015625 31 40.078125 35.4375 
Q 35.15625 39.890625 26.703125 39.890625 
Q 22.75 39.890625 18.8125 39.015625 
Q 14.890625 38.140625 10.796875 36.28125 
z
" id="DejaVuSans-35"/>
      </defs>
      <g transform="translate(7.2 233.399304)scale(0.1 -0.1)">
       <use xlink:href="#DejaVuSans-30"/>
       <use x="63.623047" xlink:href="#DejaVuSans-2e"/>
       <use x="95.410156" xlink:href="#DejaVuSans-35"/>
      </g>
     </g>
    </g>
    <g id="ytick_3">
     <g id="line2d_8">
      <g>
       <use style="stroke:#000000;stroke-width:0.8;" x="30.103125" xlink:href="#m0b6b9444fd" y="194.378046"/>
      </g>
     </g>
     <g id="text_8">
      <!-- 1.0 -->
      <g transform="translate(7.2 198.177265)scale(0.1 -0.1)">
       <use xlink:href="#DejaVuSans-31"/>
       <use x="63.623047" xlink:href="#DejaVuSans-2e"/>
       <use x="95.410156" xlink:href="#DejaVuSans-30"/>
      </g>
     </g>
    </g>
    <g id="ytick_4">
     <g id="line2d_9">
      <g>
       <use style="stroke:#000000;stroke-width:0.8;" x="30.103125" xlink:href="#m0b6b9444fd" y="159.156006"/>
      </g>
     </g>
     <g id="text_9">
      <!-- 1.5 -->
      <g transform="translate(7.2 162.955225)scale(0.1 -0.1)">
       <use xlink:href="#DejaVuSans-31"/>
       <use x="63.623047" xlink:href="#DejaVuSans-2e"/>
       <use x="95.410156" xlink:href="#DejaVuSans-35"/>
      </g>
     </g>
    </g>
    <g id="ytick_5">
     <g id="line2d_10">
      <g>
       <use style="stroke:#000000;stroke-width:0.8;" x="30.103125" xlink:href="#m0b6b9444fd" y="123.933967"/>
      </g>
     </g>
     <g id="text_10">
      <!-- 2.0 -->
      <g transform="translate(7.2 127.733186)scale(0.1 -0.1)">
       <use xlink:href="#DejaVuSans-32"/>
       <use x="63.623047" xlink:href="#DejaVuSans-2e"/>
       <use x="95.410156" xlink:href="#DejaVuSans-30"/>
      </g>
     </g>
    </g>
    <g id="ytick_6">
     <g id="line2d_11">
      <g>
       <use style="stroke:#000000;stroke-width:0.8;" x="30.103125" xlink:href="#m0b6b9444fd" y="88.711927"/>
      </g>
     </g>
     <g id="text_11">
      <!-- 2.5 -->
      <g transform="translate(7.2 92.511146)scale(0.1 -0.1)">
       <use xlink:href="#DejaVuSans-32"/>
       <use x="63.623047" xlink:href="#DejaVuSans-2e"/>
       <use x="95.410156" xlink:href="#DejaVuSans-35"/>
      </g>
     </g>
    </g>
    <g id="ytick_7">
     <g id="line2d_12">
      <g>
       <use style="stroke:#000000;stroke-width:0.8;" x="30.103125" xlink:href="#m0b6b9444fd" y="53.489888"/>
      </g>
     </g>
     <g id="text_12">
      <!-- 3.0 -->
      <g transform="translate(7.2 57.289107)scale(0.1 -0.1)">
       <use xlink:href="#DejaVuSans-33"/>
       <use x="63.623047" xlink:href="#DejaVuSans-2e"/>
       <use x="95.410156" xlink:href="#DejaVuSans-30"/>
      </g>
     </g>
    </g>
    <g id="ytick_8">
     <g id="line2d_13">
      <g>
       <use style="stroke:#000000;stroke-width:0.8;" x="30.103125" xlink:href="#m0b6b9444fd" y="18.267849"/>
      </g>
     </g>
     <g id="text_13">
      <!-- 3.5 -->
      <g transform="translate(7.2 22.067067)scale(0.1 -0.1)">
       <use xlink:href="#DejaVuSans-33"/>
       <use x="63.623047" xlink:href="#DejaVuSans-2e"/>
       <use x="95.410156" xlink:href="#DejaVuSans-35"/>
      </g>
     </g>
    </g>
   </g>
   <g id="line2d_14">
    <path clip-path="url(#p2633d7cb22)" d="M 46.335852 133.711525 
L 46.476487 131.7158 
L 46.546804 22.796 
L 46.687438 251.442399 
L 46.828073 252.491536 
L 46.89839 259.074214 
L 46.968707 258.067549 
L 47.039024 260.47878 
L 47.109342 260.288471 
L 47.320293 262.395136 
L 47.39061 260.705768 
L 47.531245 262.845239 
L 47.601562 260.939494 
L 47.671879 261.386565 
L 47.742196 261.385745 
L 47.812514 260.481373 
L 48.023465 261.878237 
L 48.093782 259.176026 
L 48.304734 263.302649 
L 48.375051 259.834259 
L 48.445368 263.228485 
L 48.515686 262.025379 
L 48.586003 262.572129 
L 48.65632 253.728655 
L 48.867272 263.564199 
L 49.007906 264.478241 
L 49.078223 261.083578 
L 49.218858 263.357372 
L 49.289175 264.24572 
L 49.359492 259.847259 
L 49.500127 263.654752 
L 49.711078 263.200463 
L 49.781395 262.486173 
L 49.92203 264.064242 
L 49.992347 262.987055 
L 50.132981 256.390377 
L 50.273616 258.728952 
L 50.343933 257.489522 
L 50.41425 248.611407 
L 50.484567 251.579891 
L 50.554885 259.695626 
L 50.625202 256.564141 
L 50.695519 257.787803 
L 50.765836 257.728016 
L 50.836154 255.015767 
L 50.976788 259.650786 
L 51.047105 259.40404 
L 51.117422 263.440463 
L 51.18774 262.18177 
L 51.258057 261.051333 
L 51.469008 264.359537 
L 51.539326 261.408764 
L 51.67996 264.038668 
L 51.820594 262.719621 
L 51.890912 263.956703 
L 51.961229 263.237343 
L 52.101863 262.021355 
L 52.242498 263.881857 
L 52.312815 261.675744 
L 52.383132 262.18177 
L 52.453449 263.522367 
L 52.523767 262.903055 
L 52.594084 263.365081 
L 52.664401 262.414939 
L 52.734718 262.789066 
L 52.805035 263.349703 
L 52.875353 263.239121 
L 52.94567 261.679325 
L 53.015987 262.982458 
L 53.086304 262.115422 
L 53.156621 263.840829 
L 53.226939 263.758227 
L 53.297256 262.624034 
L 53.367573 262.875378 
L 53.43789 263.526706 
L 53.508207 262.967216 
L 53.578525 262.983989 
L 53.648842 263.317546 
L 53.719159 262.529976 
L 53.859793 264.231247 
L 54.000428 262.944585 
L 54.070745 263.079932 
L 54.141062 264.50375 
L 54.211379 262.056764 
L 54.281697 262.299567 
L 54.352014 263.937398 
L 54.422331 263.289733 
L 54.492648 263.657166 
L 54.562966 262.903055 
L 54.633283 263.570932 
L 54.7036 262.618916 
L 54.773917 263.070262 
L 54.844234 264.318731 
L 54.984869 261.864877 
L 55.055186 262.239997 
L 55.125503 263.752947 
L 55.19582 263.000917 
L 55.266138 263.094538 
L 55.336455 263.490269 
L 55.406772 262.66672 
L 55.477089 262.685086 
L 55.547406 263.216165 
L 55.617724 262.484968 
L 55.828675 264.180969 
L 55.96931 260.276067 
L 56.039627 263.903057 
L 56.109944 261.924509 
L 56.180261 263.598234 
L 56.250578 262.430193 
L 56.391213 263.776917 
L 56.46153 263.714149 
L 56.531847 264.609875 
L 56.742799 262.500682 
L 56.883433 263.795947 
L 56.953751 262.178573 
L 57.024068 263.246252 
L 57.164702 261.899354 
L 57.235019 261.949885 
L 57.305337 261.730813 
L 57.375654 263.365081 
L 57.445971 263.169506 
L 57.516288 261.770229 
L 57.586605 264.0209 
L 57.656923 263.033678 
L 57.72724 263.068655 
L 57.938191 261.665023 
L 58.008509 264.486529 
L 58.078826 261.879194 
L 58.149143 263.460994 
L 58.360095 260.465834 
L 58.571046 263.589066 
L 58.711681 262.494626 
L 58.781998 263.088031 
L 58.922632 255.568857 
L 58.99295 246.722011 
L 59.063267 253.091372 
L 59.203901 247.06706 
L 59.414853 260.232304 
L 59.48517 260.581114 
L 59.555487 260.316505 
L 59.696122 261.428619 
L 59.766439 259.966407 
L 59.836756 262.360578 
L 59.907073 261.287197 
L 59.97739 263.343977 
L 60.047708 260.613771 
L 60.188342 263.609791 
L 60.258659 264.291501 
L 60.399294 262.372043 
L 60.469611 263.055856 
L 60.539928 263.790474 
L 60.610245 262.546001 
L 60.680563 262.552195 
L 60.75088 262.714271 
L 60.821197 263.858198 
L 60.961831 258.708194 
L 61.032149 263.795947 
L 61.102466 260.120185 
L 61.172783 262.317489 
L 61.2431 262.148917 
L 61.313417 262.481357 
L 61.383735 263.477645 
L 61.454052 263.302649 
L 61.594686 260.962769 
L 61.735321 263.109269 
L 61.805638 263.002463 
L 61.946272 262.81836 
L 62.016589 264.04227 
L 62.157224 257.431006 
L 62.227541 257.801425 
L 62.438493 263.737261 
L 62.579127 260.930078 
L 62.649444 259.875638 
L 62.790079 263.50729 
L 62.930713 262.686404 
L 63.00103 263.776917 
L 63.071348 262.802963 
L 63.141665 263.038407 
L 63.282299 263.704031 
L 63.352616 262.919262 
L 63.493251 263.943786 
L 63.704202 260.066004 
L 63.915154 264.654327 
L 64.126106 263.025823 
L 64.196423 263.196994 
L 64.26674 262.826809 
L 64.477692 259.236692 
L 64.758961 234.262049 
L 64.899595 240.716837 
L 65.180864 236.841175 
L 65.321498 258.304298 
L 65.391815 259.852922 
L 65.462133 258.787457 
L 65.53245 254.642714 
L 65.602767 262.644626 
L 65.673084 262.028401 
L 65.743401 262.869601 
L 65.954353 261.560621 
L 66.02467 258.71234 
L 66.094987 263.212662 
L 66.165305 261.628667 
L 66.305939 262.965699 
L 66.376256 262.213958 
L 66.446574 262.572129 
L 66.516891 263.196994 
L 66.587208 260.09391 
L 66.727842 262.965699 
L 66.79816 262.702283 
L 66.868477 261.211541 
L 66.938794 263.983134 
L 67.009111 257.415784 
L 67.079428 262.952098 
L 67.149746 262.793225 
L 67.29038 261.298366 
L 67.360697 262.850944 
L 67.431014 262.691684 
L 67.501332 250.09064 
L 67.571649 250.772306 
L 67.712283 247.313943 
L 67.7826 220.804948 
L 67.923235 245.832455 
L 67.993552 246.298253 
L 68.134186 244.844711 
L 68.204504 245.358563 
L 68.345138 247.3006 
L 68.55609 262.025379 
L 68.696724 263.983134 
L 68.767041 262.15947 
L 68.837359 263.619117 
L 68.907676 262.477751 
L 68.977993 264.454498 
L 69.04831 262.964183 
L 69.118627 263.89695 
L 69.188945 263.689022 
L 69.259262 263.244466 
L 69.329579 261.996334 
L 69.399896 263.440463 
L 69.470213 262.940092 
L 69.540531 260.818813 
L 69.610848 261.435263 
L 69.681165 260.700983 
L 69.751482 262.760188 
L 69.821799 262.604903 
L 69.892117 260.983251 
L 69.962434 262.892812 
L 70.032751 261.895503 
L 70.173385 263.302649 
L 70.384337 261.455275 
L 70.524972 263.979785 
L 70.735923 259.852922 
L 70.80624 260.805472 
L 70.876558 262.871044 
L 70.946875 262.237817 
L 71.017192 262.259699 
L 71.087509 262.996285 
L 71.157826 262.612536 
L 71.228144 262.221526 
L 71.509412 256.324847 
L 71.57973 258.871087 
L 71.650047 257.499897 
L 71.720364 254.934561 
L 71.931316 262.106076 
L 72.001633 261.213881 
L 72.142267 264.207883 
L 72.353219 262.944585 
L 72.423536 264.038668 
L 72.493853 263.310079 
L 72.634488 259.776451 
L 72.775122 262.274024 
L 72.845439 260.234758 
L 72.986074 262.943086 
L 73.126708 263.737261 
L 73.267343 259.397808 
L 73.33766 262.797392 
L 73.407977 261.043128 
L 73.618929 257.595501 
L 73.689246 259.452063 
L 73.759563 259.08942 
L 73.900197 262.272919 
L 74.040832 262.098829 
L 74.111149 262.416109 
L 74.181466 261.965612 
L 74.251784 263.295255 
L 74.322101 260.055951 
L 74.392418 262.84097 
L 74.533052 259.474656 
L 74.60337 261.772998 
L 74.673687 258.38865 
L 74.744004 264.3358 
L 74.814321 262.907461 
L 74.884638 263.696501 
L 75.025273 262.707603 
L 75.09559 263.509433 
L 75.165907 261.563212 
L 75.306542 263.458927 
L 75.447176 263.07509 
L 75.517493 261.84117 
L 75.658128 262.946085 
L 75.798762 261.626023 
L 75.869079 261.942053 
L 75.939396 261.138967 
L 76.009714 261.211541 
L 76.080031 261.18435 
L 76.150348 261.291979 
L 76.220665 259.996071 
L 76.3613 262.702283 
L 76.431617 262.148917 
L 76.572251 260.385143 
L 76.642569 260.50544 
L 76.85352 257.677394 
L 76.923837 257.736356 
L 77.134789 252.846703 
L 77.205106 253.975048 
L 77.345741 255.829025 
L 77.416058 250.121062 
L 77.486375 250.888216 
L 77.767644 262.504324 
L 77.837961 260.127976 
L 77.908278 260.096889 
L 78.11923 261.461133 
L 78.189547 261.303963 
L 78.259864 260.096889 
L 78.330182 261.151219 
L 78.400499 260.75393 
L 78.61145 257.920339 
L 78.681768 258.169191 
L 78.752085 257.907704 
L 79.103671 260.242129 
L 79.38494 257.517607 
L 79.455257 259.434265 
L 79.525574 257.919116 
L 79.736526 260.52833 
L 79.87716 258.912869 
L 79.947477 264.118172 
L 80.088112 252.771934 
L 80.228746 263.906126 
L 80.369381 261.436926 
L 80.439698 262.409098 
L 80.510015 262.491 
L 80.580332 257.722066 
L 80.650649 263.666874 
L 80.720967 261.289587 
L 80.861601 261.457784 
L 80.931918 263.216165 
L 81.002235 261.657897 
L 81.14287 246.639441 
L 81.283504 263.149186 
L 81.353821 264.045889 
L 81.424139 263.109269 
L 81.494456 264.231247 
L 81.564773 262.609989 
L 81.63509 263.295255 
L 81.705407 262.084393 
L 81.775725 263.890883 
L 81.846042 263.147504 
L 81.916359 264.270684 
L 82.127311 262.944585 
L 82.197628 263.174625 
L 82.267945 263.10107 
L 82.549214 261.063298 
L 82.689848 261.502436 
L 82.760166 256.411441 
L 82.971117 263.424255 
L 83.252386 259.637735 
L 83.322703 261.993346 
L 83.39302 260.901966 
L 83.463338 260.722904 
L 83.603972 262.625316 
L 83.674289 263.004011 
L 83.885241 261.581406 
L 83.955558 263.248039 
L 84.025875 262.673261 
L 84.096193 259.992571 
L 84.16651 260.578459 
L 84.236827 259.034186 
L 84.307144 261.87155 
L 84.377461 258.884349 
L 84.518096 264.045889 
L 84.588413 259.284789 
L 84.65873 259.316917 
L 84.799365 262.526294 
L 84.869682 261.539967 
L 84.939999 262.946085 
L 85.010316 257.793008 
L 85.080633 262.990127 
L 85.150951 262.965699 
L 85.291585 264.34752 
L 85.361902 262.46219 
L 85.432219 263.025823 
L 85.502537 263.602844 
L 85.643171 262.66672 
L 85.854123 264.478241 
L 85.92444 264.231247 
L 86.065074 262.069009 
L 86.135392 262.859533 
L 86.205709 262.512843 
L 86.276026 264.114184 
L 86.346343 262.337807 
L 86.41666 263.989874 
L 86.486978 263.394362 
L 86.557295 262.493417 
L 86.627612 263.214413 
L 86.768246 261.623382 
L 86.908881 263.280573 
L 86.979198 264.50375 
L 87.049515 264.236031 
L 87.119832 262.83813 
L 87.19015 263.50729 
L 87.260467 263.745076 
L 87.330784 263.647538 
L 87.401101 262.268505 
L 87.471418 262.652398 
L 87.541736 262.772514 
L 87.612053 261.770229 
L 87.68237 263.226719 
L 87.752687 263.214413 
L 87.823004 263.771543 
L 87.893322 263.745076 
L 88.104273 260.948933 
L 88.174591 262.944585 
L 88.244908 262.165823 
L 88.315225 260.294064 
L 88.385542 260.956209 
L 88.596494 262.786298 
L 88.666811 259.678629 
L 88.737128 261.007532 
L 88.807445 261.044618 
L 88.877763 255.135946 
L 89.018397 262.823989 
L 89.088714 262.691684 
L 89.159031 261.021582 
L 89.229349 261.744505 
L 89.299666 260.962769 
L 89.4403 263.246252 
L 89.510617 261.279241 
L 89.580935 261.819524 
L 89.651252 261.032711 
L 89.932521 263.47974 
L 90.002838 263.518041 
L 90.073155 262.452664 
L 90.143472 262.483764 
L 90.284107 264.146751 
L 90.424741 259.294968 
L 90.495058 263.376722 
L 90.565376 259.71213 
L 90.635693 259.927711 
L 90.776327 262.903055 
L 90.916962 258.278 
L 90.987279 255.284757 
L 91.057596 263.45069 
L 91.127913 261.818586 
L 91.19823 264.359537 
L 91.338865 254.665975 
L 91.479499 262.183904 
L 91.690451 257.136681 
L 91.901403 263.492385 
L 92.042037 260.942395 
L 92.112354 262.543529 
L 92.182671 261.359625 
L 92.323306 264.110218 
L 92.393623 263.12247 
L 92.46394 263.473463 
L 92.534257 263.032104 
L 92.604575 263.492385 
L 92.674892 262.686404 
L 92.745209 263.776917 
L 92.815526 263.242682 
L 92.956161 263.302649 
L 93.096795 261.021582 
L 93.237429 263.943786 
L 93.307747 262.772514 
L 93.378064 262.074128 
L 93.518698 264.006965 
L 93.589015 263.162705 
L 93.659333 262.83955 
L 93.72965 263.140792 
L 93.799967 261.989367 
L 93.870284 263.776917 
L 93.940602 263.531061 
L 94.010919 264.110218 
L 94.22187 259.310272 
L 94.292188 257.292123 
L 94.503139 260.405496 
L 94.643774 258.944879 
L 94.784408 262.800176 
L 94.925042 263.674209 
L 94.99536 262.962668 
L 95.065677 263.248039 
L 95.276628 263.394362 
L 95.346946 263.319419 
L 95.48758 260.037673 
L 95.557897 261.418677 
L 95.768849 263.162705 
L 95.839166 261.930346 
L 95.909483 262.57338 
L 95.979801 263.328816 
L 96.120435 260.369307 
L 96.190752 260.450349 
L 96.261069 256.638808 
L 96.331387 257.056138 
L 96.472021 255.564598 
L 96.612655 260.255058 
L 96.75329 257.674243 
L 96.823607 261.138967 
L 96.893924 257.891842 
L 96.964241 258.874873 
L 97.034559 258.575618 
L 97.104876 261.974497 
L 97.175193 256.395721 
L 97.24551 262.3905 
L 97.315827 258.870141 
L 97.386145 260.397217 
L 97.456462 260.460666 
L 97.526779 261.01788 
L 97.597096 263.566439 
L 97.667413 262.771141 
L 97.737731 260.194426 
L 97.808048 262.426664 
L 97.878365 252.346704 
L 98.019 260.034731 
L 98.089317 260.430429 
L 98.229951 263.319418 
L 98.370586 259.620385 
L 98.440903 259.687394 
L 98.581537 262.465772 
L 98.651854 261.221693 
L 98.722172 261.616347 
L 98.862806 261.068545 
L 99.00344 261.961672 
L 99.144075 261.369397 
L 99.214392 262.56588 
L 99.284709 261.969558 
L 99.425344 262.47535 
L 99.565978 261.317595 
L 99.636295 262.414939 
L 99.706613 262.358292 
L 99.77693 262.09057 
L 99.847247 262.323116 
L 99.987881 261.852526 
L 100.128516 262.260799 
L 100.198833 263.790474 
L 100.26915 263.626159 
L 100.339467 262.259699 
L 100.409785 263.676665 
L 100.550419 261.599703 
L 100.691053 264.418014 
L 100.761371 263.790474 
L 100.902005 261.925481 
L 100.972322 264.067966 
L 101.042639 260.269259 
L 101.112957 261.103211 
L 101.253591 263.820945 
L 101.394225 257.363883 
L 101.464543 257.730795 
L 101.53486 263.442502 
L 101.605177 260.977388 
L 101.675494 263.706552 
L 101.745812 259.921387 
L 101.816129 262.078229 
L 101.886446 263.647538 
L 102.02708 259.848957 
L 102.097398 263.640369 
L 102.167715 262.895733 
L 102.238032 262.784915 
L 102.308349 258.753029 
L 102.378666 262.544764 
L 102.448984 258.539213 
L 102.519301 259.325106 
L 102.730252 259.626342 
L 102.80057 261.867735 
L 102.870887 260.010093 
L 102.941204 262.356007 
L 103.011521 261.833623 
L 103.081838 259.312826 
L 103.152156 261.031225 
L 103.222473 260.839262 
L 103.29279 260.89264 
L 103.363107 260.215159 
L 103.433424 262.483764 
L 103.503742 262.368598 
L 103.574059 261.089608 
L 103.644376 262.392817 
L 103.714693 262.376644 
L 103.785011 260.323384 
L 103.855328 263.526706 
L 103.925645 262.514063 
L 104.066279 262.970254 
L 104.136597 260.022396 
L 104.206914 261.060303 
L 104.277231 260.729778 
L 104.417865 263.398311 
L 104.488183 259.163572 
L 104.5585 260.36741 
L 104.839769 262.993203 
L 104.910086 259.024465 
L 104.980403 262.647213 
L 105.05072 259.832001 
L 105.191355 263.737261 
L 105.261672 261.55286 
L 105.331989 263.132439 
L 105.542941 257.421488 
L 105.613258 259.024465 
L 105.753892 263.750317 
L 105.82421 261.772075 
L 105.894527 261.977465 
L 105.964844 261.847789 
L 106.035161 262.255308 
L 106.105478 261.111548 
L 106.175796 262.922224 
L 106.246113 260.392129 
L 106.386747 263.273284 
L 106.457064 261.994342 
L 106.597699 254.74306 
L 106.738333 264.045889 
L 106.878968 258.428601 
L 107.019602 263.774226 
L 107.089919 261.448591 
L 107.160236 264.313168 
L 107.230554 263.137446 
L 107.300871 262.904523 
L 107.441505 264.079251 
L 107.58214 261.755503 
L 107.652457 263.094538 
L 107.722774 262.944585 
L 107.793091 262.863842 
L 107.933726 261.291182 
L 108.004043 258.933393 
L 108.07436 262.430193 
L 108.144677 262.349166 
L 108.214995 262.881172 
L 108.285312 251.774814 
L 108.355629 261.167361 
L 108.425946 257.179296 
L 108.496263 260.361094 
L 108.566581 259.249815 
L 108.707215 262.029409 
L 108.847849 260.32401 
L 108.988484 264.270684 
L 109.129118 261.13133 
L 109.199435 261.385745 
L 109.34007 263.867002 
L 109.410387 260.648032 
L 109.480704 261.371028 
L 109.551022 263.092909 
L 109.621339 259.652964 
L 109.691656 261.26734 
L 109.83229 261.798033 
L 109.972925 259.643713 
L 110.043242 263.456863 
L 110.183876 257.100861 
L 110.394828 262.757458 
L 110.465145 259.136271 
L 110.535462 260.87548 
L 110.60578 263.878867 
L 110.676097 262.83955 
L 110.746414 261.6032 
L 110.816731 262.109188 
L 110.887048 262.32199 
L 110.957366 261.517738 
L 111.027683 258.372914 
L 111.098 259.993738 
L 111.308952 262.651101 
L 111.379269 260.508703 
L 111.590221 263.602844 
L 111.730855 260.449061 
L 111.801172 263.300797 
L 111.871489 262.455042 
L 111.941807 263.915394 
L 112.152758 262.423141 
L 112.223075 263.979785 
L 112.293393 263.564199 
L 112.434027 260.724965 
L 112.504344 261.614591 
L 112.644979 263.645144 
L 112.715296 263.37089 
L 112.785613 263.542011 
L 112.926247 259.270063 
L 112.996565 259.747516 
L 113.137199 263.246252 
L 113.207516 263.190078 
L 113.277833 263.492385 
L 113.488785 259.851789 
L 113.62942 261.898391 
L 113.770054 259.696725 
L 113.910688 263.068655 
L 114.051323 261.18435 
L 114.262274 263.956703 
L 114.402909 261.392306 
L 114.473226 261.768385 
L 114.543543 262.81836 
L 114.61386 262.186039 
L 114.684178 262.944585 
L 114.895129 257.485683 
L 115.035764 263.598234 
L 115.176398 262.940092 
L 115.246715 263.745076 
L 115.38735 261.132856 
L 115.527984 264.000086 
L 115.598301 262.260798 
L 115.668619 263.428289 
L 115.738936 262.670642 
L 115.809253 259.467815 
L 115.949887 263.257009 
L 116.090522 259.590161 
L 116.231156 263.134106 
L 116.301473 258.622219 
L 116.371791 263.931055 
L 116.442108 262.510406 
L 116.653059 263.442502 
L 116.723377 263.188354 
L 116.864011 261.528834 
L 116.934328 263.956703 
L 117.004645 262.729016 
L 117.074963 261.5314 
L 117.14528 261.921596 
L 117.215597 261.397235 
L 117.285914 260.006584 
L 117.426549 261.925481 
L 117.707818 257.169356 
L 117.848452 259.502635 
L 117.918769 259.383293 
L 117.989086 259.487835 
L 118.059404 260.089149 
L 118.129721 259.978599 
L 118.200038 260.312757 
L 118.270355 258.782327 
L 118.340672 259.300574 
L 118.41099 259.253352 
L 118.481307 259.613353 
L 118.551624 259.594468 
L 118.621941 259.352319 
L 118.692258 261.483829 
L 118.762576 260.515889 
L 118.832893 259.980344 
L 118.90321 260.082609 
L 118.973527 259.975113 
L 119.043844 259.288349 
L 119.114162 260.511968 
L 119.184479 260.366778 
L 119.254796 260.323384 
L 119.325113 259.805552 
L 119.395431 261.099427 
L 119.465748 260.735286 
L 119.536065 261.26259 
L 119.676699 259.163572 
L 119.747017 259.619844 
L 119.817334 258.457289 
L 119.957968 261.665915 
L 120.16892 260.492415 
L 120.239237 261.352314 
L 120.309554 260.814596 
L 120.590823 262.376644 
L 120.66114 262.350305 
L 120.731457 261.51263 
L 120.872092 262.396297 
L 121.012726 262.044573 
L 121.153361 262.378948 
L 121.223678 262.000322 
L 121.293995 262.875378 
L 121.43463 260.827262 
L 121.504947 262.178573 
L 121.575264 260.161687 
L 121.645581 260.301532 
L 121.715898 262.735753 
L 121.786216 261.608452 
L 121.856533 258.404425 
L 121.92685 259.230143 
L 122.348753 263.893912 
L 122.41907 262.583419 
L 122.489388 262.895733 
L 122.559705 263.553057 
L 122.630022 263.53543 
L 122.700339 262.773889 
L 122.770656 262.846663 
L 122.840974 262.707603 
L 122.911291 264.21712 
L 122.981608 263.492385 
L 123.051925 262.553435 
L 123.122242 262.698302 
L 123.19256 262.525068 
L 123.262877 262.826809 
L 123.333194 261.330473 
L 123.403511 262.098829 
L 123.473829 263.915394 
L 123.544146 263.176335 
L 123.68478 263.979785 
L 123.755097 261.891658 
L 123.825415 263.500882 
L 123.895732 262.974821 
L 123.966049 262.996285 
L 124.036366 262.699629 
L 124.106683 263.696501 
L 124.177001 262.934117 
L 124.247318 260.274209 
L 124.387952 262.097795 
L 124.458269 261.948905 
L 124.528587 263.602844 
L 124.598904 262.714271 
L 124.669221 261.535681 
L 124.739538 262.465772 
L 124.809855 260.162291 
L 124.95049 263.253415 
L 125.091124 260.329021 
L 125.161441 260.948206 
L 125.231759 262.584678 
L 125.302076 255.533627 
L 125.44271 263.376722 
L 125.583345 262.111264 
L 125.653662 263.706552 
L 125.723979 263.132439 
L 125.794296 261.149685 
L 125.864614 261.837394 
L 126.075565 263.706552 
L 126.2162 260.718785 
L 126.356834 263.890883 
L 126.567786 256.13738 
L 126.70842 263.186632 
L 126.778737 262.801569 
L 126.849054 255.904798 
L 126.919372 263.376722 
L 126.989689 261.995337 
L 127.060006 261.197531 
L 127.130323 262.959642 
L 127.200641 262.233462 
L 127.341275 259.715988 
L 127.411592 262.982458 
L 127.481909 261.528834 
L 127.552227 250.776115 
L 127.692861 263.818137 
L 127.833495 262.767027 
L 128.044447 263.979785 
L 128.255399 261.311173 
L 128.396033 262.20426 
L 128.46635 255.731867 
L 128.536667 262.860968 
L 128.606985 262.779394 
L 128.677302 263.890883 
L 128.747619 262.801569 
L 128.817936 263.402272 
L 128.888253 263.342074 
L 129.099205 258.585543 
L 129.450791 263.993264 
L 129.521108 262.220443 
L 129.591426 262.994743 
L 129.661743 262.538591 
L 129.73206 262.66672 
L 129.872694 262.365158 
L 129.943012 262.48256 
L 130.013329 263.357372 
L 130.083646 262.928161 
L 130.153963 261.887817 
L 130.22428 262.531205 
L 130.294598 260.284126 
L 130.364915 261.362065 
L 130.435232 260.237214 
L 130.575866 262.652398 
L 130.716501 260.348489 
L 130.786818 262.583419 
L 130.857135 261.3337 
L 130.927452 262.729016 
L 130.99777 260.616448 
L 131.068087 260.810382 
L 131.138404 260.936594 
L 131.208721 261.43859 
L 131.419673 259.754179 
L 131.560307 259.749181 
L 131.771259 257.807042 
L 131.841576 262.907461 
L 131.911893 260.747015 
L 131.982211 260.937319 
L 132.052528 258.814111 
L 132.122845 260.642639 
L 132.193162 260.324636 
L 132.263479 259.813978 
L 132.333797 262.15947 
L 132.404114 261.953808 
L 132.615065 261.260218 
L 132.685383 258.747001 
L 132.7557 263.376722 
L 132.826017 253.404456 
L 132.896334 263.53543 
L 132.966651 262.385873 
L 133.107286 261.570997 
L 133.177603 263.55973 
L 133.24792 260.004245 
L 133.318238 260.152634 
L 133.458872 262.761554 
L 133.529189 250.282445 
L 133.669824 263.469294 
L 133.740141 262.217198 
L 133.810458 263.367015 
L 133.880775 255.778759 
L 134.02141 262.720961 
L 134.091727 264.478241 
L 134.232361 259.955981 
L 134.302678 262.793225 
L 134.372996 260.657486 
L 134.583947 264.138464 
L 134.794899 262.81836 
L 134.935533 262.151024 
L 135.005851 263.388458 
L 135.076168 262.693006 
L 135.146485 263.442502 
L 135.287119 261.515183 
L 135.357437 262.633019 
L 135.427754 262.531205 
L 135.498071 262.474151 
L 135.568388 262.982458 
L 135.638705 262.852373 
L 135.77934 261.135147 
L 135.849657 261.864877 
L 135.919974 261.633079 
L 135.990291 259.946732 
L 136.201243 263.178046 
L 136.27156 258.10559 
L 136.341877 258.956869 
L 136.412195 260.850589 
L 136.552829 256.522309 
L 136.623146 263.963235 
L 136.693463 263.402272 
L 136.763781 262.407931 
L 136.834098 263.396335 
L 136.974732 260.607086 
L 137.04505 263.195262 
L 137.115367 263.102706 
L 137.185684 262.514063 
L 137.256001 259.480451 
L 137.326318 261.122948 
L 137.396636 263.575441 
L 137.466953 262.895733 
L 137.677904 258.331571 
L 137.748222 261.612836 
L 137.818539 259.926561 
L 137.888856 254.281521 
L 137.959173 259.93923 
L 138.02949 258.724795 
L 138.170125 261.611959 
L 138.240442 258.590059 
L 138.310759 259.121434 
L 138.381076 262.004316 
L 138.451394 259.400404 
L 138.521711 262.250924 
L 138.592028 262.085421 
L 138.662345 263.20568 
L 138.732662 261.244444 
L 138.80298 263.438427 
L 138.873297 263.172917 
L 138.943614 262.465772 
L 139.013931 263.311942 
L 139.154566 262.115422 
L 139.224883 263.840829 
L 139.2952 263.570932 
L 139.365517 263.915394 
L 139.506152 261.6865 
L 139.576469 262.752011 
L 139.646786 261.310372 
L 139.857738 263.940586 
L 139.998372 262.934117 
L 140.068689 262.950593 
L 140.139007 262.594768 
L 140.209324 263.812544 
L 140.279641 263.402272 
L 140.349958 261.654339 
L 140.420275 262.373193 
L 140.56091 263.869954 
L 140.771861 260.381971 
L 140.842179 260.420183 
L 141.05313 263.388458 
L 141.193765 260.02533 
L 141.264082 261.382469 
L 141.334399 260.224336 
L 141.404716 263.246252 
L 141.475034 262.317489 
L 141.615668 258.928136 
L 141.756302 263.188354 
L 141.82662 263.036829 
L 141.896937 262.017336 
L 141.967254 262.144707 
L 142.037571 263.45069 
L 142.107888 262.958131 
L 142.178206 262.407931 
L 142.31884 263.319419 
L 142.389157 262.333277 
L 142.529792 263.815336 
L 142.600109 262.826809 
L 142.670426 263.041567 
L 142.740743 263.091282 
L 142.81106 264.0209 
L 142.881378 263.097801 
L 142.951695 263.869954 
L 143.092329 263.186632 
L 143.162647 263.217919 
L 143.232964 262.645919 
L 143.303281 262.696977 
L 143.373598 260.570505 
L 143.443915 262.548477 
L 143.514233 261.542542 
L 143.58455 263.198727 
L 143.725184 259.984998 
L 143.795501 256.699589 
L 144.07677 263.420233 
L 144.147087 264.478241 
L 144.217405 263.376722 
L 144.287722 263.766196 
L 144.428356 263.53543 
L 144.498673 264.09457 
L 144.709625 257.252963 
L 144.779942 263.214413 
L 144.85026 261.878237 
L 144.920577 261.994342 
L 144.990894 260.827262 
L 145.061211 261.293575 
L 145.131528 261.602325 
L 145.201846 260.213937 
L 145.272163 261.633962 
L 145.34248 261.041638 
L 145.623749 258.209093 
L 145.764383 262.354866 
L 145.8347 261.958721 
L 145.905018 260.638599 
L 145.975335 261.196755 
L 146.186286 262.008316 
L 146.256604 261.330473 
L 146.326921 262.464577 
L 146.397238 262.147864 
L 146.467555 262.898658 
L 146.537872 262.681137 
L 146.60819 259.696725 
L 146.678507 264.006965 
L 146.748824 262.716944 
L 146.819141 262.845239 
L 146.959776 262.460997 
L 147.030093 262.707603 
L 147.241045 264.478241 
L 147.522313 262.625316 
L 147.592631 264.138464 
L 147.662948 262.24327 
L 147.733265 264.180969 
L 147.803582 263.114208 
L 147.873899 264.541345 
L 148.014534 263.555277 
L 148.155168 264.275814 
L 148.295803 263.430311 
L 148.36612 264.21712 
L 148.436437 263.758227 
L 148.577071 263.460994 
L 148.788023 263.921626 
L 148.998975 263.342074 
L 149.069292 263.577701 
L 149.139609 263.420233 
L 149.209926 261.759178 
L 149.280244 263.408233 
L 149.350561 262.350305 
L 149.561512 256.688158 
L 149.63183 256.008333 
L 149.702147 257.154653 
L 149.772464 255.1706 
L 149.842781 255.21739 
L 149.913098 254.79319 
L 150.264684 261.914809 
L 150.335002 260.094506 
L 150.405319 261.730813 
L 150.475636 261.398057 
L 150.545953 261.630431 
L 150.897539 257.836403 
L 151.038174 259.305166 
L 151.249125 257.487219 
L 151.319443 258.471462 
L 151.38976 257.740331 
L 151.460077 258.156929 
L 151.671029 260.754622 
L 151.741346 258.351121 
L 151.811663 259.696725 
L 151.88198 258.698071 
L 151.952297 259.793779 
L 152.022615 259.708274 
L 152.092932 258.806617 
L 152.163249 259.102204 
L 152.303883 260.25136 
L 152.514835 258.954469 
L 152.585152 258.916205 
L 152.655469 257.745104 
L 152.725787 258.066299 
L 152.796104 258.613597 
L 152.866421 256.510106 
L 152.936738 256.601047 
L 153.077373 255.728151 
L 153.14769 256.239127 
L 153.288324 254.523096 
L 153.358642 256.717287 
L 153.428959 255.688915 
L 153.569593 256.777262 
L 153.63991 255.889656 
L 153.710228 256.327498 
L 153.850862 254.997122 
L 154.132131 259.85009 
L 154.202448 257.435197 
L 154.272765 257.703056 
L 154.554034 259.953667 
L 154.624351 258.369422 
L 154.694669 263.553057 
L 154.764986 261.594465 
L 154.835303 263.396335 
L 154.975937 261.202973 
L 155.116572 263.719243 
L 155.186889 263.326932 
L 155.397841 263.906126 
L 155.468158 263.893912 
L 155.538475 263.372831 
L 155.608792 264.0209 
L 155.890061 259.859158 
L 155.960378 260.692111 
L 156.030695 259.873362 
L 156.101013 261.528834 
L 156.17133 261.2539 
L 156.311964 259.763076 
L 156.733868 263.50729 
L 156.874502 261.129805 
L 156.944819 262.823989 
L 157.015136 262.710268 
L 157.085454 262.383562 
L 157.155771 263.66444 
L 157.226088 260.893356 
L 157.296405 261.869642 
L 157.366722 262.326499 
L 157.43704 261.089608 
L 157.507357 261.545978 
L 157.577674 260.710559 
L 157.647991 262.661501 
L 157.788626 256.462143 
L 157.92926 262.673261 
L 158.069894 260.34786 
L 158.140212 258.607251 
L 158.210529 259.449966 
L 158.562115 263.832258 
L 158.632432 261.633079 
L 158.702749 262.323116 
L 158.773067 262.194598 
L 158.984018 263.239121 
L 159.054335 262.982458 
L 159.124653 262.126889 
L 159.265287 263.388458 
L 159.405921 262.696977 
L 159.476239 260.003661 
L 159.546556 261.088099 
L 159.616873 261.441921 
L 159.757507 263.412222 
L 159.827825 263.454802 
L 160.109093 261.475405 
L 160.249728 263.471376 
L 160.320045 261.655228 
L 160.390362 261.878237 
L 160.460679 264.418014 
L 160.601314 260.744943 
L 160.671631 262.767027 
L 160.741948 262.727672 
L 160.812266 263.063844 
L 160.882583 262.041533 
L 160.9529 262.265199 
L 161.023217 263.083167 
L 161.093534 262.833877 
L 161.163852 261.688297 
L 161.234169 264.176593 
L 161.304486 262.026385 
L 161.374803 263.591351 
L 161.44512 260.62516 
L 161.656072 263.858198 
L 161.726389 262.814149 
L 161.796706 264.418014 
L 161.867024 263.564199 
L 161.937341 263.878867 
L 162.148292 262.486173 
L 162.21861 262.789066 
L 162.288927 262.409098 
L 162.499878 264.024422 
L 162.570196 263.849475 
L 162.640513 263.174625 
L 162.71083 260.774051 
L 162.781147 262.254211 
L 162.851465 261.817649 
L 162.921782 261.344209 
L 162.992099 259.600935 
L 163.062416 263.734669 
L 163.132733 260.479428 
L 163.273368 263.089656 
L 163.343685 262.19567 
L 163.414002 263.706552 
L 163.554637 261.185124 
L 163.624954 263.734669 
L 163.695271 262.84097 
L 163.835905 260.798469 
L 164.046857 263.946997 
L 164.117174 261.842115 
L 164.187491 262.583419 
L 164.257809 261.448591 
L 164.398443 263.164402 
L 164.46876 263.142467 
L 164.539078 263.969816 
L 164.609395 261.303963 
L 164.750029 264.159376 
L 164.890664 262.718282 
L 164.960981 261.657897 
L 165.031298 257.786602 
L 165.101615 262.52017 
L 165.171932 261.365322 
L 165.24225 264.185376 
L 165.312567 261.441921 
L 165.382884 263.633243 
L 165.523518 259.506341 
L 165.593836 261.852526 
L 165.804787 257.91463 
L 165.875104 261.072298 
L 165.945422 260.058906 
L 166.015739 259.149657 
L 166.086056 261.767463 
L 166.156373 261.644577 
L 166.367325 256.788119 
L 166.578277 263.226719 
L 166.648594 258.177237 
L 166.718911 262.515283 
L 166.789228 261.550278 
L 166.859545 261.089608 
L 167.140814 263.228485 
L 167.351766 260.729778 
L 167.422083 263.758227 
L 167.4924 262.81836 
L 167.562717 260.607086 
L 167.773669 264.110218 
L 167.843986 260.666962 
L 167.914303 263.440463 
L 167.984621 255.989824 
L 168.054938 262.920742 
L 168.125255 262.819766 
L 168.195572 264.110218 
L 168.265889 263.494504 
L 168.336207 263.12911 
L 168.406524 261.349881 
L 168.476841 262.739806 
L 168.547158 261.095648 
L 168.617476 263.094538 
L 168.687793 260.371204 
L 168.75811 263.079932 
L 168.828427 261.358812 
L 168.898744 261.475405 
L 168.969062 254.051633 
L 169.109696 263.609791 
L 169.180013 263.766196 
L 169.25033 263.237343 
L 169.320648 261.206865 
L 169.390965 263.776917 
L 169.461282 259.886465 
L 169.531599 260.696885 
L 169.601916 259.517477 
L 169.812868 263.092909 
L 169.883185 260.793573 
L 170.02382 263.038407 
L 170.094137 262.316366 
L 170.164454 259.923686 
L 170.234771 261.615469 
L 170.305088 257.533428 
L 170.445723 263.289733 
L 170.51604 262.716944 
L 170.586357 262.779395 
L 170.656675 263.903057 
L 170.726992 263.867002 
L 170.867626 261.616347 
L 170.937943 262.734404 
L 171.008261 264.049525 
L 171.148895 261.2539 
L 171.219212 262.332146 
L 171.289529 261.931319 
L 171.359847 262.188176 
L 171.430164 261.608453 
L 171.500481 261.960688 
L 171.570798 261.047601 
L 171.641115 263.745076 
L 171.711433 262.707603 
L 171.852067 261.094137 
L 171.992701 263.094538 
L 172.27397 257.286142 
L 172.344288 261.563212 
L 172.414605 260.418265 
L 172.484922 262.004316 
L 172.555239 261.185124 
L 172.625556 259.949043 
L 172.695874 261.957738 
L 172.766191 260.751854 
L 172.836508 260.975192 
L 172.906825 261.24287 
L 172.977142 263.684063 
L 173.04746 262.845239 
L 173.117777 263.969816 
L 173.258411 259.752513 
L 173.469363 262.056764 
L 173.53968 262.881172 
L 173.609997 256.186473 
L 173.680314 264.318731 
L 173.750632 263.26603 
L 173.820949 263.645144 
L 173.961583 262.133164 
L 174.102218 263.041567 
L 174.172535 261.682911 
L 174.242852 256.785666 
L 174.313169 256.795482 
L 174.383487 263.004011 
L 174.453804 262.020349 
L 174.524121 262.943086 
L 174.594438 259.318962 
L 174.664755 262.374343 
L 174.735073 260.942396 
L 174.875707 260.243974 
L 174.946024 261.917715 
L 175.016341 258.140053 
L 175.086659 261.914808 
L 175.156976 258.23127 
L 175.227293 261.952827 
L 175.29761 259.535021 
L 175.508562 264.692149 
L 175.578879 260.047688 
L 175.719513 263.378671 
L 175.860148 261.510929 
L 175.930465 262.494626 
L 176.000782 260.87334 
L 176.071099 263.134106 
L 176.141417 262.908933 
L 176.211734 261.522002 
L 176.352368 264.3358 
L 176.422686 261.657896 
L 176.493003 262.266301 
L 176.56332 263.776917 
L 176.633637 262.093664 
L 176.703954 263.132439 
L 176.774272 262.28843 
L 176.844589 263.582235 
L 176.914906 263.224955 
L 177.05554 262.630448 
L 177.125858 263.275103 
L 177.336809 260.814596 
L 177.407126 264.138464 
L 177.477444 264.035082 
L 177.618078 259.906472 
L 177.688395 261.448591 
L 177.758712 261.324028 
L 177.82903 259.458883 
L 177.899347 262.723643 
L 177.969664 252.268408 
L 178.039981 256.168559 
L 178.180616 261.203751 
L 178.32125 263.310079 
L 178.461885 257.875609 
L 178.532202 261.422816 
L 178.602519 260.171363 
L 178.813471 263.996668 
L 178.954105 261.586623 
L 179.094739 264.0209 
L 179.165057 262.768397 
L 179.305691 262.962668 
L 179.376008 262.277341 
L 179.446325 263.616779 
L 179.516643 261.529689 
L 179.58696 262.542293 
L 179.727594 263.979785 
L 179.797911 261.658787 
L 179.868229 263.232022 
L 179.938546 262.897195 
L 180.008863 263.181475 
L 180.07918 262.911878 
L 180.149497 263.289732 
L 180.219815 262.145759 
L 180.360449 263.028961 
L 180.430766 262.444361 
L 180.501084 262.629164 
L 180.571401 263.169506 
L 180.641718 262.908933 
L 180.712035 263.054263 
L 180.922987 259.154126 
L 180.993304 259.727029 
L 181.063621 257.505668 
L 181.274573 263.776917 
L 181.555842 261.697294 
L 181.626159 263.300797 
L 181.907428 255.696317 
L 182.188697 247.190549 
L 182.259014 248.886255 
L 182.329331 248.418717 
L 182.399648 247.322468 
L 182.469965 247.936937 
L 182.540283 248.233693 
L 182.6106 241.286211 
L 182.680917 250.657345 
L 182.751234 250.543308 
L 182.821551 252.215588 
L 182.891869 249.648689 
L 183.10282 264.035082 
L 183.243455 259.513762 
L 183.313772 247.072611 
L 183.384089 254.483531 
L 183.454406 254.231687 
L 183.595041 245.466345 
L 183.665358 248.870539 
L 183.735675 247.751363 
L 183.805992 247.954288 
L 183.876309 244.374294 
L 183.946627 245.713616 
L 184.016944 245.886651 
L 184.087261 245.806821 
L 184.227896 245.268934 
L 184.36853 244.23022 
L 184.438847 244.317092 
L 184.509164 244.968558 
L 184.720116 243.76016 
L 184.790433 243.852201 
L 184.86075 239.45552 
L 185.071702 249.609216 
L 185.493605 258.56706 
L 185.63424 249.037865 
L 185.845191 258.382089 
L 185.915508 257.409324 
L 185.985826 242.030231 
L 186.056143 252.144318 
L 186.12646 251.932 
L 186.337412 253.80225 
L 186.407729 252.809143 
L 186.478046 253.648991 
L 186.548363 253.010286 
L 186.618681 249.932092 
L 186.829632 254.420269 
L 186.899949 254.819897 
L 187.040584 256.556303 
L 187.110901 256.223395 
L 187.181218 258.159464 
L 187.251535 256.383701 
L 187.532804 260.348489 
L 187.603121 260.868352 
L 187.673439 259.253353 
L 187.743756 259.616057 
L 188.025025 261.875369 
L 188.095342 262.376644 
L 188.165659 261.095648 
L 188.235976 263.186632 
L 188.306294 261.050586 
L 188.376611 262.153133 
L 188.446928 260.424663 
L 188.587562 263.528882 
L 188.65788 261.188222 
L 188.728197 263.528882 
L 188.798514 262.177508 
L 189.009466 263.790474 
L 189.1501 262.387029 
L 189.220417 262.143656 
L 189.290734 262.898658 
L 189.361052 260.322758 
L 189.572003 263.388458 
L 189.64232 260.74978 
L 189.712638 261.314383 
L 189.782955 262.695653 
L 189.853272 262.024372 
L 189.923589 263.025823 
L 189.993906 262.98859 
L 190.064224 261.698196 
L 190.134541 261.953809 
L 190.204858 262.80715 
L 190.345493 260.305894 
L 190.626761 262.543529 
L 190.837713 259.775335 
L 190.90803 261.12371 
L 190.978347 261.044618 
L 191.048665 261.098671 
L 191.118982 260.306517 
L 191.189299 262.077203 
L 191.259616 260.147812 
L 191.329933 262.300683 
L 191.400251 262.017336 
L 191.470568 263.004011 
L 191.611202 262.217198 
L 191.681519 262.668026 
L 191.751837 261.923538 
L 191.822154 262.52017 
L 191.892471 261.458621 
L 191.962788 262.730362 
L 192.033106 262.538591 
L 192.17374 257.232531 
L 192.314374 261.377561 
L 192.384692 261.143557 
L 192.455009 259.967567 
L 192.525326 262.891353 
L 192.595643 259.660596 
L 192.66596 260.381337 
L 192.736278 263.134106 
L 192.806595 260.648707 
L 192.876912 252.447545 
L 193.017546 260.890491 
L 193.087864 261.216223 
L 193.158181 259.322545 
L 193.228498 259.951354 
L 193.298815 258.664142 
L 193.369132 251.044279 
L 193.509767 260.151427 
L 193.720718 263.063845 
L 193.791036 262.800176 
L 194.072305 250.84645 
L 194.142622 263.989874 
L 194.212939 259.723714 
L 194.353573 258.50079 
L 194.423891 262.455042 
L 194.494208 260.422103 
L 194.634842 258.846534 
L 194.705159 260.125578 
L 194.775477 256.419144 
L 194.845794 261.026772 
L 194.916111 257.114365 
L 194.986428 257.727223 
L 195.056745 257.938722 
L 195.127063 256.964587 
L 195.19738 260.607754 
L 195.338014 257.848909 
L 195.548966 262.719621 
L 195.619283 261.969558 
L 195.6896 261.785954 
L 195.900552 263.983135 
L 195.970869 263.835107 
L 196.111504 257.698707 
L 196.181821 252.764226 
L 196.322455 262.191385 
L 196.392772 260.012434 
L 196.46309 263.398311 
L 196.533407 262.64075 
L 196.674041 263.45069 
L 196.744358 252.389206 
L 196.884993 261.979445 
L 196.95531 262.112303 
L 197.025627 261.095648 
L 197.095944 262.553435 
L 197.166262 262.029409 
L 197.306896 263.32505 
L 197.377213 263.049491 
L 197.44753 262.888439 
L 197.658482 263.890883 
L 197.728799 263.365081 
L 197.869434 260.906278 
L 197.939751 261.610205 
L 198.010068 260.886911 
L 198.080385 263.295255 
L 198.150703 263.12911 
L 198.291337 263.317546 
L 198.361654 263.492385 
L 198.431971 262.757458 
L 198.502289 262.869601 
L 198.572606 264.053177 
L 198.642923 263.768866 
L 198.783557 261.132856 
L 198.853875 262.542293 
L 198.924192 262.09057 
L 198.994509 262.714271 
L 199.064826 261.109273 
L 199.135143 261.218566 
L 199.275778 263.342074 
L 199.346095 263.049491 
L 199.416412 264.045889 
L 199.486729 263.595935 
L 199.557047 263.591352 
L 199.767998 261.755503 
L 199.838316 257.541545 
L 199.908633 258.415402 
L 199.97895 261.503284 
L 200.049267 260.612433 
L 200.119584 260.794272 
L 200.189902 262.677196 
L 200.260219 261.790594 
L 200.400853 260.25136 
L 200.541488 262.604903 
L 200.611805 260.877621 
L 200.682122 260.991328 
L 200.752439 260.447774 
L 200.822756 260.467127 
L 200.893074 263.008663 
L 201.104025 258.79446 
L 201.174342 259.118965 
L 201.24466 255.435927 
L 201.314977 261.167361 
L 201.385294 257.83036 
L 201.596246 262.976346 
L 201.947832 258.332005 
L 202.018149 258.378592 
L 202.088466 257.466137 
L 202.158783 262.696977 
L 202.229101 259.000233 
L 202.299418 261.862022 
L 202.369735 261.495658 
L 202.440052 260.991328 
L 202.510369 261.072298 
L 202.651004 262.065943 
L 202.791638 260.914195 
L 202.861955 262.277341 
L 203.00259 259.355924 
L 203.072907 261.188996 
L 203.143224 260.927185 
L 203.213541 260.848463 
L 203.283859 262.2597 
L 203.424493 260.371204 
L 203.635445 262.514063 
L 203.776079 259.880194 
L 203.916714 263.230253 
L 203.987031 262.137356 
L 204.197982 260.077859 
L 204.408934 262.414939 
L 204.479251 262.583419 
L 204.619886 260.096889 
L 204.690203 262.029408 
L 204.901154 258.447123 
L 205.041789 261.598829 
L 205.112106 253.709383 
L 205.25274 263.909205 
L 205.323058 255.210943 
L 205.393375 256.908173 
L 205.534009 261.47793 
L 205.604326 261.939122 
L 205.674644 261.39888 
L 205.744961 263.426271 
L 205.815278 262.22586 
L 205.885595 262.634306 
L 206.02623 261.364507 
L 206.096547 262.922224 
L 206.166864 261.814839 
L 206.237181 263.025823 
L 206.307499 261.51859 
L 206.377816 262.395136 
L 206.448133 262.752011 
L 206.51845 262.687723 
L 206.659085 258.777201 
L 206.729402 263.711611 
L 206.799719 261.626023 
L 206.870036 261.622501 
L 207.010671 262.872488 
L 207.080988 262.609989 
L 207.151305 262.645919 
L 207.221622 263.246252 
L 207.291939 259.58102 
L 207.432574 263.737261 
L 207.502891 263.729503 
L 207.573208 264.638311 
L 207.643525 262.859533 
L 207.713843 263.154242 
L 207.78416 262.872488 
L 207.854477 263.049491 
L 207.924794 264.359537 
L 207.995112 262.850944 
L 208.065429 263.475552 
L 208.135746 264.57324 
L 208.206063 260.220051 
L 208.27638 261.901282 
L 208.346698 262.86528 
L 208.417015 257.154286 
L 208.487332 259.909337 
L 208.557649 259.672064 
L 208.627966 262.407931 
L 208.698284 261.699097 
L 208.838918 262.919262 
L 208.979552 259.875069 
L 209.04987 260.432995 
L 209.120187 260.29593 
L 209.331138 257.453516 
L 209.54209 259.813978 
L 209.612407 259.149657 
L 209.682725 259.765303 
L 209.893676 257.648684 
L 209.963993 257.985924 
L 210.104628 259.170044 
L 210.315579 254.271909 
L 210.456214 258.433006 
L 210.526531 258.214204 
L 210.596848 259.589623 
L 210.8078 257.17046 
L 210.878117 258.768823 
L 210.948434 256.229291 
L 211.089069 258.965516 
L 211.229703 257.674243 
L 211.370337 257.343902 
L 211.440655 258.102237 
L 211.510972 257.504128 
L 211.581289 258.265535 
L 211.651606 257.579933 
L 211.721924 257.884938 
L 211.792241 254.519269 
L 211.862558 259.135776 
L 211.932875 258.661399 
L 212.07351 256.962796 
L 212.214144 259.966988 
L 212.284461 258.528467 
L 212.354778 258.621765 
L 212.425096 258.653178 
L 212.495413 259.682462 
L 212.56573 257.958384 
L 212.776682 262.735753 
L 212.917316 259.3585 
L 213.05795 260.405496 
L 213.128268 260.079046 
L 213.198585 260.518505 
L 213.268902 260.000156 
L 213.339219 261.225605 
L 213.409536 261.089608 
L 213.479854 260.893356 
L 213.550171 257.07465 
L 213.620488 258.469688 
L 213.901757 252.163877 
L 213.972074 253.959485 
L 214.253343 249.429636 
L 214.32366 249.489753 
L 214.464295 250.65496 
L 214.534612 249.771471 
L 214.675246 251.388635 
L 214.745563 250.601004 
L 214.886198 252.245998 
L 215.167467 258.101398 
L 215.237784 256.979293 
L 215.308101 256.983962 
L 215.378418 246.625046 
L 215.519053 261.760097 
L 215.58937 261.408764 
L 215.940956 250.940244 
L 216.011273 242.008869 
L 216.08159 244.14521 
L 216.151908 244.212998 
L 216.222225 203.781398 
L 216.362859 242.512932 
L 216.433176 241.900763 
L 216.573811 235.951299 
L 216.644128 236.977959 
L 216.714445 236.931885 
L 216.784762 235.380474 
L 216.925397 237.054512 
L 216.995714 236.572087 
L 217.276983 241.224921 
L 217.417617 254.769074 
L 217.558252 222.827933 
L 217.628569 259.140729 
L 217.698886 258.928613 
L 217.839521 252.544168 
L 217.909838 256.632961 
L 218.050472 242.158327 
L 218.120789 253.639923 
L 218.191107 252.494048 
L 218.261424 248.758845 
L 218.331741 251.376065 
L 218.402058 251.26616 
L 218.472375 250.494883 
L 218.61301 251.077016 
L 218.753644 250.002222 
L 218.823961 250.059327 
L 218.894279 250.651582 
L 219.175547 247.650718 
L 219.386499 255.465972 
L 219.456816 258.306891 
L 219.527134 257.660469 
L 219.597451 257.331863 
L 219.738085 262.34348 
L 219.87872 261.243657 
L 219.949037 262.416109 
L 220.019354 260.445843 
L 220.089671 261.404642 
L 220.230306 263.503014 
L 220.441257 262.852373 
L 220.511574 264.291501 
L 220.722526 261.695493 
L 220.86316 261.040893 
L 220.933478 262.106076 
L 221.074112 260.724278 
L 221.214746 263.524535 
L 221.285064 263.388458 
L 221.425698 264.716 
L 221.566333 260.979586 
L 221.63665 262.563386 
L 221.706967 262.687723 
L 221.777284 260.648032 
L 221.847601 264.114184 
L 221.917919 263.134106 
L 221.988236 262.076177 
L 222.058553 262.682453 
L 222.199187 264.172246 
L 222.269505 262.852373 
L 222.339822 263.867002 
L 222.410139 263.418225 
L 222.480456 264.09457 
L 222.550773 263.258809 
L 222.621091 263.903057 
L 222.691408 263.815336 
L 222.972677 262.252019 
L 223.042994 262.391658 
L 223.113311 262.593504 
L 223.183628 261.721718 
L 223.253945 263.041567 
L 223.324263 262.093664 
L 223.39458 262.111264 
L 223.675849 263.520202 
L 223.746166 262.395136 
L 223.816483 263.711611 
L 223.8868 261.269717 
L 223.957118 261.814839 
L 224.097752 262.309633 
L 224.168069 263.555277 
L 224.238386 262.588456 
L 224.308704 263.137446 
L 224.379021 263.706552 
L 224.449338 262.158413 
L 224.519655 262.624034 
L 224.589972 263.745076 
L 224.66029 261.587493 
L 224.730607 262.143656 
L 224.941558 264.079251 
L 225.011876 263.943786 
L 225.222827 260.204171 
L 225.293144 263.390423 
L 225.363462 263.372831 
L 225.504096 262.005316 
L 225.574413 262.588456 
L 225.644731 261.953809 
L 225.715048 262.013324 
L 225.925999 262.856666 
L 225.996317 262.686404 
L 226.066634 261.380014 
L 226.207268 262.212878 
L 226.347903 261.704511 
L 226.41822 260.818813 
L 226.629171 262.506755 
L 226.840123 260.730466 
L 226.91044 262.061859 
L 226.980757 261.969558 
L 227.051075 260.397217 
L 227.121392 261.135146 
L 227.191709 262.230201 
L 227.262026 261.968571 
L 227.402661 260.591084 
L 227.543295 261.34907 
L 227.613612 261.53911 
L 227.754247 262.167943 
L 227.894881 261.042383 
L 227.965198 261.867735 
L 228.035516 261.551999 
L 228.105833 260.242129 
L 228.17615 261.403818 
L 228.246467 259.08942 
L 228.387102 261.948905 
L 228.457419 260.868352 
L 228.527736 262.053711 
L 228.598053 260.842091 
L 228.66837 261.111548 
L 228.738688 262.438447 
L 228.809005 261.85063 
L 228.879322 262.594768 
L 229.090274 256.703057 
L 229.230908 262.532434 
L 229.301225 263.216165 
L 229.371543 262.447916 
L 229.582494 264.397626 
L 229.723129 262.911878 
L 229.93408 263.937398 
L 230.074715 262.468163 
L 230.285666 264.255573 
L 230.496618 262.983989 
L 230.566935 263.025823 
L 230.707569 260.912754 
L 230.777887 261.431109 
L 230.918521 264.163638 
L 230.988838 262.886983 
L 231.059155 263.694003 
L 231.19979 260.150222 
L 231.270107 262.046601 
L 231.340424 261.222475 
L 231.410742 260.427225 
L 231.481059 261.135147 
L 231.621693 263.396335 
L 231.973279 260.86764 
L 232.113914 263.094538 
L 232.254548 262.157356 
L 232.395182 264.3358 
L 232.4655 264.075471 
L 232.535817 262.310753 
L 232.606134 262.34348 
L 232.676451 262.067987 
L 232.746768 262.938596 
L 232.95772 261.317595 
L 233.098354 264.51272 
L 233.168672 263.832258 
L 233.238989 263.906126 
L 233.309306 263.619117 
L 233.379623 262.584678 
L 233.590575 263.555277 
L 233.731209 262.691684 
L 233.801527 263.36315 
L 233.871844 261.697294 
L 234.012478 263.013327 
L 234.082795 263.280573 
L 234.153113 264.3358 
L 234.434381 256.254888 
L 234.575016 263.458927 
L 234.785967 261.637496 
L 234.996919 263.196994 
L 235.207871 262.480154 
L 235.278188 262.974821 
L 235.348505 262.131071 
L 235.418822 262.926675 
L 235.48914 262.574633 
L 235.629774 261.009009 
L 235.770408 262.873932 
L 235.911043 264.09457 
L 235.98136 263.37089 
L 236.051677 263.931055 
L 236.121994 262.940092 
L 236.192312 263.024257 
L 236.262629 262.784915 
L 236.332946 263.313808 
L 236.403263 263.147503 
L 236.47358 262.907461 
L 236.543898 260.532923 
L 236.684532 264.486529 
L 236.825166 262.811347 
L 237.106435 263.376722 
L 237.176753 261.01566 
L 237.24707 262.654995 
L 237.317387 257.899565 
L 237.387704 258.632218 
L 237.458021 261.099427 
L 237.528339 260.988389 
L 237.668973 263.440463 
L 237.73929 262.136307 
L 237.809607 263.522367 
L 237.879925 259.659505 
L 238.020559 263.812544 
L 238.090876 263.289733 
L 238.231511 259.52385 
L 238.442462 263.492385 
L 238.583097 262.856666 
L 238.653414 263.063845 
L 238.723731 263.737261 
L 239.005 261.047601 
L 239.075317 264.000086 
L 239.145634 263.345883 
L 239.286269 261.418677 
L 239.356586 261.595337 
L 239.49722 263.471376 
L 239.708172 259.389509 
L 239.778489 263.609791 
L 239.848806 263.342074 
L 239.919124 263.790474 
L 240.059758 261.792452 
L 240.130075 263.477645 
L 240.200392 263.365081 
L 240.622296 261.255478 
L 240.692613 261.697294 
L 240.76293 262.891353 
L 241.044199 258.653178 
L 241.255151 252.785026 
L 241.325468 256.267385 
L 241.395785 255.752023 
L 241.606737 258.132893 
L 241.677054 256.981807 
L 241.817688 258.822083 
L 241.888005 255.587436 
L 241.958323 256.576425 
L 242.098957 257.567114 
L 242.169274 257.191832 
L 242.239591 259.875069 
L 242.309909 259.745297 
L 242.380226 257.806239 
L 242.450543 260.068373 
L 242.52086 259.173533 
L 242.661495 260.940945 
L 242.731812 260.927185 
L 242.802129 262.219361 
L 242.872446 261.923538 
L 242.942763 261.475405 
L 243.013081 261.760097 
L 243.083398 261.268132 
L 243.153715 262.376644 
L 243.224032 262.167943 
L 243.364667 261.024547 
L 243.434984 262.856666 
L 243.505301 262.83813 
L 243.575618 261.227955 
L 243.645936 261.364507 
L 243.716253 263.357372 
L 243.78657 262.236727 
L 243.856887 262.970254 
L 243.927204 262.745221 
L 244.067839 263.812544 
L 244.208473 262.327628 
L 244.27879 263.440463 
L 244.419425 260.849171 
L 244.489742 260.876194 
L 244.560059 262.872488 
L 244.630376 262.1563 
L 244.700694 262.06084 
L 244.841328 263.102706 
L 244.911645 262.885529 
L 245.122597 264.24572 
L 245.263231 260.998685 
L 245.333549 261.059555 
L 245.403866 262.543529 
L 245.474183 260.947479 
L 245.5445 263.228485 
L 245.614817 262.049646 
L 245.685135 262.682453 
L 245.896086 258.548183 
L 246.036721 261.397235 
L 246.107038 260.958395 
L 246.247672 261.436095 
L 246.388307 258.825368 
L 246.458624 259.348203 
L 246.528941 257.533428 
L 246.599258 257.691201 
L 246.669575 259.452063 
L 246.739893 258.034699 
L 246.950844 259.923111 
L 247.161796 257.220298 
L 247.232113 257.814271 
L 247.30243 258.948713 
L 247.443065 257.759839 
L 247.583699 258.85455 
L 247.654016 257.896312 
L 248.005602 262.892812 
L 248.07592 261.563212 
L 248.146237 263.076702 
L 248.216554 261.921596 
L 248.357188 262.964183 
L 248.427506 262.846663 
L 248.497823 262.908933 
L 248.56814 263.062244 
L 248.638457 261.326444 
L 248.779092 263.174625 
L 248.849409 259.317428 
L 248.990043 264.172246 
L 249.130678 262.477751 
L 249.200995 264.439486 
L 249.341629 262.287319 
L 249.411947 263.798694 
L 249.482264 263.696501 
L 249.552581 261.424473 
L 249.622898 263.881857 
L 249.693215 263.53543 
L 249.763533 262.336674 
L 249.904167 263.953456 
L 249.974484 263.167803 
L 250.044801 263.410226 
L 250.115119 263.458927 
L 250.185436 264.439486 
L 250.396387 262.429016 
L 250.466705 262.526294 
L 250.607339 263.774226 
L 250.747973 263.237343 
L 250.818291 263.275103 
L 250.888608 264.010426 
L 251.09956 260.994269 
L 251.310511 264.384561 
L 251.380828 264.198783 
L 251.451146 263.396335 
L 251.521463 263.89695 
L 251.59178 262.466967 
L 251.662097 263.51158 
L 251.802732 261.566669 
L 251.873049 263.07509 
L 252.013683 261.299964 
L 252.084 262.702283 
L 252.154318 262.220443 
L 252.294952 263.253415 
L 252.365269 260.296552 
L 252.505904 263.798694 
L 252.576221 263.570932 
L 252.646538 264.291501 
L 252.85749 261.615469 
L 252.927807 262.568378 
L 253.138759 260.14721 
L 253.279393 264.038668 
L 253.490345 262.767027 
L 253.560662 263.167803 
L 253.630979 263.088031 
L 253.701296 261.095648 
L 253.841931 263.494504 
L 253.982565 264.118172 
L 254.052882 263.801449 
L 254.193517 261.649898 
L 254.263834 262.028401 
L 254.474785 259.593929 
L 254.545103 261.179709 
L 254.61542 260.874054 
L 254.685737 260.893356 
L 254.756054 261.633962 
L 254.896689 260.506745 
L 254.967006 260.688703 
L 255.037323 258.996849 
L 255.10764 259.726476 
L 255.177958 259.38174 
L 255.248275 259.845561 
L 255.318592 259.367784 
L 255.388909 259.698923 
L 255.459226 260.660868 
L 255.529544 260.489814 
L 255.599861 255.735895 
L 255.670178 261.401348 
L 255.740495 260.256907 
L 255.810812 253.666898 
L 255.951447 260.75393 
L 256.021764 259.312826 
L 256.092081 259.98791 
L 256.232716 260.307765 
L 256.303033 259.0167 
L 256.513984 261.219348 
L 256.584302 256.015364 
L 256.654619 256.888275 
L 256.724936 257.254451 
L 256.865571 261.511779 
L 256.935888 261.190547 
L 257.006205 262.011319 
L 257.076522 260.735286 
L 257.146839 262.522618 
L 257.287474 260.042972 
L 257.428108 262.032435 
L 257.63906 259.088438 
L 257.709377 259.449441 
L 257.850011 257.943223 
L 257.920329 259.506342 
L 257.990646 258.807086 
L 258.060963 258.965516 
L 258.13128 258.527125 
L 258.201597 256.842626 
L 258.271915 251.089107 
L 258.342232 252.084495 
L 258.412549 254.139831 
L 258.482866 251.725489 
L 258.553183 253.353278 
L 258.623501 252.011976 
L 258.693818 252.400307 
L 258.764135 252.026491 
L 258.834452 252.654972 
L 259.045404 251.769636 
L 259.115721 251.237527 
L 259.186038 251.549946 
L 259.326673 251.860118 
L 259.39699 252.187031 
L 259.467307 254.06288 
L 259.537624 253.889724 
L 259.607942 248.583121 
L 259.818893 262.47655 
L 260.029845 263.768866 
L 260.240796 262.958131 
L 260.522065 229.395746 
L 260.592382 225.538954 
L 260.6627 240.686604 
L 260.733017 238.318104 
L 261.15492 233.384361 
L 261.225237 233.625491 
L 261.295555 233.132628 
L 261.436189 229.023362 
L 261.506506 229.83134 
L 261.576823 229.747754 
L 261.647141 228.914515 
L 261.787775 229.629227 
L 261.858092 229.151242 
L 261.928409 229.33468 
L 261.998727 229.362381 
L 262.069044 229.538378 
L 262.350313 233.849222 
L 262.42063 236.110215 
L 262.561264 253.308928 
L 262.631581 183.325076 
L 262.701899 220.928965 
L 262.842533 258.430803 
L 262.91285 257.58071 
L 263.194119 244.441049 
L 263.264436 245.742371 
L 263.475388 240.566744 
L 263.545705 243.684763 
L 263.616022 241.87584 
L 263.68634 241.530085 
L 263.756657 242.66147 
L 263.826974 239.93037 
L 263.897291 241.35618 
L 263.967608 240.081497 
L 264.037926 240.703408 
L 264.108243 240.886214 
L 264.17856 239.690367 
L 264.248877 240.30982 
L 264.459829 239.188974 
L 264.530146 239.617762 
L 264.600463 237.887009 
L 264.670781 239.932406 
L 264.741098 238.973162 
L 264.811415 239.658456 
L 264.952049 243.03046 
L 265.092684 259.397808 
L 265.163001 259.194507 
L 265.233318 263.878867 
L 265.303635 263.408233 
L 265.373953 263.109269 
L 265.514587 261.508379 
L 265.655221 263.169506 
L 265.725539 263.149186 
L 265.795856 261.944987 
L 265.93649 257.01708 
L 266.006807 257.747093 
L 266.077125 257.682125 
L 266.147442 256.703057 
L 266.217759 257.928912 
L 266.428711 254.175473 
L 266.639662 257.756651 
L 266.70998 258.37466 
L 266.920931 255.869505 
L 266.991248 254.583968 
L 267.061566 255.69169 
L 267.131883 254.516264 
L 267.2022 257.511827 
L 267.272517 253.016961 
L 267.342834 254.9357 
L 267.413152 255.135074 
L 267.483469 255.025822 
L 267.624103 257.683703 
L 267.69442 256.790923 
L 267.764738 259.507401 
L 267.835055 258.807085 
L 267.905372 256.825002 
L 268.116324 260.02533 
L 268.256958 258.846063 
L 268.327275 258.70313 
L 268.46791 257.118019 
L 268.608544 259.58102 
L 268.749179 262.903055 
L 268.889813 261.830798 
L 269.100765 263.790474 
L 269.311716 260.567857 
L 269.382033 261.371844 
L 269.452351 262.752011 
L 269.522668 261.799896 
L 269.663302 257.2783 
L 269.733619 257.375974 
L 269.874254 255.453341 
L 270.014888 262.050662 
L 270.155523 264.24572 
L 270.22584 263.973126 
L 270.296157 264.176593 
L 270.366474 260.959123 
L 270.436791 260.975924 
L 270.577426 263.843702 
L 270.71806 260.970803 
L 270.858695 262.444361 
L 270.929012 261.489738 
L 271.210281 263.132439 
L 271.350915 261.988374 
L 271.421232 258.724795 
L 271.49155 263.127447 
L 271.561867 258.792125 
L 271.632184 260.989123 
L 271.702501 261.01566 
L 271.772818 263.490269 
L 271.843136 262.863842 
L 271.913453 263.372831 
L 271.98377 261.795241 
L 272.054087 263.471376 
L 272.124404 261.454438 
L 272.194722 263.412222 
L 272.265039 263.044732 
L 272.335356 262.852373 
L 272.405673 261.2539 
L 272.616625 263.684063 
L 272.686942 263.186632 
L 272.827577 260.861238 
L 272.897894 262.049646 
L 272.968211 257.085925 
L 273.108845 262.505539 
L 273.179163 261.981427 
L 273.390114 264.126218 
L 273.530749 263.444545 
L 273.601066 264.106274 
L 273.812017 262.944585 
L 273.882335 263.626159 
L 274.022969 262.752011 
L 274.233921 264.056848 
L 274.374555 263.161009 
L 274.51519 264.017394 
L 274.585507 263.162705 
L 274.655824 263.619117 
L 274.937093 260.963499 
L 275.148044 263.946997 
L 275.218362 263.524535 
L 275.288679 262.305154 
L 275.358996 262.464577 
L 275.49963 262.260799 
L 275.640265 264.318731 
L 275.710582 263.602844 
L 275.780899 263.867002 
L 275.921534 262.895733 
L 275.991851 263.336377 
L 276.062168 262.546001 
L 276.27312 255.527869 
L 276.413754 260.263079 
L 276.554389 259.242745 
L 276.624706 261.995338 
L 276.695023 260.945299 
L 276.76534 262.480154 
L 276.835657 262.1248 
L 276.976292 260.869777 
L 277.116926 256.247004 
L 277.187243 255.950383 
L 277.257561 253.770612 
L 277.327878 260.763631 
L 277.398195 258.243242 
L 277.468512 260.164104 
L 277.538829 253.812219 
L 277.609147 260.156252 
L 277.679464 259.140234 
L 277.749781 260.467127 
L 277.820098 258.510152 
L 278.03105 262.559649 
L 278.101367 262.46219 
L 278.171684 261.84495 
L 278.242001 262.24327 
L 278.312319 262.111264 
L 278.382636 261.378379 
L 278.452953 261.538252 
L 278.52327 261.785954 
L 278.593588 262.910405 
L 278.663905 261.287197 
L 278.874856 263.145823 
L 278.945174 263.025823 
L 279.015491 262.57965 
L 279.085808 263.490269 
L 279.156125 263.342074 
L 279.226442 263.319418 
L 279.29676 264.212484 
L 279.367077 263.626159 
L 279.437394 264.231247 
L 279.507711 263.555277 
L 279.578028 263.867002 
L 279.648346 263.843702 
L 279.718663 263.607471 
L 279.78898 264.341624 
L 279.859297 264.079251 
L 280.070249 262.965699 
L 280.140566 263.745076 
L 280.210883 263.440463 
L 280.2812 263.776917 
L 280.351518 263.310079 
L 280.421835 263.867002 
L 280.492152 263.503014 
L 280.562469 263.69151 
L 280.632787 263.657166 
L 280.703104 264.296834 
L 280.914055 261.320006 
L 280.984373 261.789665 
L 281.195324 263.684063 
L 281.265641 263.2022 
L 281.335959 263.380623 
L 281.476593 264.0209 
L 281.617227 263.440463 
L 281.687545 263.544213 
L 281.757862 264.391044 
L 281.828179 262.801569 
L 281.898496 263.471376 
L 281.968813 262.238906 
L 282.039131 263.619117 
L 282.109448 263.195262 
L 282.179765 263.412222 
L 282.320399 262.194598 
L 282.390717 264.038668 
L 282.461034 263.790474 
L 282.531351 262.816956 
L 282.601668 264.000086 
L 282.671986 261.289587 
L 282.742303 261.63838 
L 282.81262 263.262415 
L 282.882937 263.007111 
L 282.953254 261.28083 
L 283.023572 262.331016 
L 283.093889 259.819041 
L 283.164206 260.409323 
L 283.234523 262.304036 
L 283.30484 261.036428 
L 283.375158 262.242178 
L 283.515792 260.386413 
L 283.656426 263.490269 
L 283.726744 261.87155 
L 283.797061 263.467214 
L 283.867378 261.788737 
L 283.937695 263.237343 
L 284.008012 263.070262 
L 284.07833 262.982458 
L 284.148647 263.155931 
L 284.218964 262.2652 
L 284.289281 263.144144 
L 284.359599 261.818586 
L 284.500233 263.496626 
L 284.640867 261.953809 
L 284.711185 259.178021 
L 284.781502 259.262461 
L 284.922136 262.397457 
L 284.992453 261.793381 
L 285.062771 260.635235 
L 285.203405 263.295255 
L 285.344039 262.08954 
L 285.414357 262.395136 
L 285.484674 263.66444 
L 285.625308 261.524562 
L 285.695625 262.660198 
L 285.83626 261.368582 
L 285.906577 264.231247 
L 285.976894 262.47655 
L 286.117529 264.045889 
L 286.258163 264.079251 
L 286.32848 263.795947 
L 286.398798 264.198783 
L 286.609749 262.543528 
L 286.750384 263.878867 
L 286.891018 263.038407 
L 287.031652 264.270684 
L 287.10197 264.163638 
L 287.242604 263.555277 
L 287.312921 264.280992 
L 287.383238 264.163638 
L 287.523873 263.53543 
L 287.664507 263.893912 
L 287.734824 263.750317 
L 287.805142 262.735753 
L 287.875459 264.609875 
L 287.945776 263.619117 
L 288.016093 263.357372 
L 288.156728 264.212484 
L 288.297362 263.269653 
L 288.437997 261.167361 
L 288.508314 263.53762 
L 288.578631 261.291181 
L 288.719265 264.045889 
L 288.789583 263.915394 
L 288.8599 263.28423 
L 288.930217 264.114184 
L 289.000534 263.963235 
L 289.070851 264.231247 
L 289.141169 264.049525 
L 289.211486 263.367015 
L 289.281803 263.577701 
L 289.35212 263.304503 
L 289.563072 264.432197 
L 289.703706 261.885898 
L 289.774023 262.64075 
L 289.844341 263.068655 
L 289.914658 262.718282 
L 289.984975 264.0209 
L 290.055292 263.66444 
L 290.336561 262.835294 
L 290.547513 259.414964 
L 290.688147 262.272919 
L 290.828782 259.539816 
L 290.899099 262.719621 
L 290.969416 261.261799 
L 291.039733 263.843702 
L 291.11005 260.29593 
L 291.321002 264.313168 
L 291.461636 260.801969 
L 291.602271 262.789066 
L 291.813222 258.839471 
L 291.88354 259.727029 
L 292.024174 262.761554 
L 292.305443 258.463929 
L 292.446077 262.514063 
L 292.516395 261.235012 
L 292.657029 264.411105 
L 292.727346 261.47793 
L 292.797663 262.908933 
L 292.867981 262.372043 
L 292.938298 262.572129 
L 293.008615 263.117508 
L 293.078932 262.962668 
L 293.149249 262.644626 
L 293.360201 263.579966 
L 293.500835 261.878237 
L 293.64147 263.134106 
L 293.711787 262.079255 
L 293.782104 263.246252 
L 293.922739 257.863865 
L 293.993056 259.030782 
L 294.063373 264.010426 
L 294.13369 259.923111 
L 294.204008 264.163638 
L 294.274325 263.044732 
L 294.344642 262.794613 
L 294.414959 261.933268 
L 294.485276 262.693006 
L 294.836862 258.904774 
L 294.977497 263.867002 
L 295.047814 263.626159 
L 295.118131 263.442502 
L 295.188448 262.645919 
L 295.258766 258.874399 
L 295.329083 260.004245 
L 295.3994 260.810382 
L 295.469717 259.77422 
L 295.610352 263.609791 
L 295.680669 260.289092 
L 295.750986 260.54673 
L 295.961938 262.432549 
L 296.032255 262.052694 
L 296.102572 262.131071 
L 296.172889 263.436393 
L 296.243207 261.39888 
L 296.383841 262.982458 
L 296.454158 261.982418 
L 296.594793 263.195262 
L 296.735427 261.184349 
L 296.805744 261.478772 
L 296.946379 260.378802 
L 297.016696 261.03866 
L 297.087013 260.765713 
L 297.15733 260.465834 
L 297.227647 259.634477 
L 297.297965 259.833694 
L 297.368282 259.539816 
L 297.438599 260.771965 
L 297.508916 260.677818 
L 297.579233 259.771989 
L 297.649551 260.46842 
L 297.719868 258.751173 
L 297.860502 260.904121 
L 298.071454 263.524535 
L 298.212088 261.142791 
L 298.282406 262.407931 
L 298.352723 260.811786 
L 298.42304 261.364507 
L 298.704309 264.114184 
L 298.774626 263.203939 
L 298.844943 264.079251 
L 298.985578 261.782246 
L 299.055895 255.700946 
L 299.196529 263.183192 
L 299.337164 260.46842 
L 299.477798 263.890883 
L 299.548115 258.991052 
L 299.618432 263.50729 
L 299.68875 262.143656 
L 299.759067 262.716945 
L 299.829384 262.340075 
L 299.899701 262.715607 
L 299.970018 261.633962 
L 300.040336 263.719243 
L 300.110653 260.255057 
L 300.18097 264.024422 
L 300.321605 259.773662 
L 300.462239 264.110218 
L 300.532556 263.598234 
L 300.602873 264.478241 
L 300.673191 262.008316 
L 300.743508 264.079251 
L 300.813825 263.176335 
L 301.024777 261.934243 
L 301.165411 263.198727 
L 301.235728 262.630448 
L 301.306045 262.64075 
L 301.376363 262.414939 
L 301.44668 263.676665 
L 301.516997 263.070262 
L 301.657631 263.790474 
L 301.727949 263.654752 
L 301.798266 263.937398 
L 302.009218 261.558032 
L 302.079535 262.136307 
L 302.149852 263.820945 
L 302.290486 261.952827 
L 302.431121 263.174625 
L 302.501438 263.054263 
L 302.571755 261.763778 
L 302.642072 262.143656 
L 302.853024 260.491114 
L 302.923341 260.694156 
L 302.993658 261.834565 
L 303.063976 260.356048 
L 303.134293 260.844921 
L 303.20461 260.648032 
L 303.274927 259.193507 
L 303.345244 260.765019 
L 303.415562 259.875638 
L 303.485879 260.04474 
L 303.626513 259.094334 
L 303.767148 259.859159 
L 303.837465 261.446088 
L 303.907782 258.666886 
L 303.978099 262.271815 
L 304.048417 261.84117 
L 304.189051 263.287896 
L 304.259368 261.316792 
L 304.329685 262.356007 
L 304.400003 262.466967 
L 304.47032 263.105985 
L 304.540637 260.893356 
L 304.610954 262.850944 
L 304.681271 259.420695 
L 304.821906 263.893912 
L 304.892223 263.394362 
L 305.032857 262.81836 
L 305.103175 264.000086 
L 305.173492 257.519535 
L 305.314126 264.236031 
L 305.525078 261.557169 
L 305.665712 264.296834 
L 305.736029 260.297174 
L 305.806347 262.81836 
L 305.876664 261.938145 
L 306.017298 263.577701 
L 306.157933 263.342074 
L 306.298567 264.126218 
L 306.368884 263.159315 
L 306.439202 264.318731 
L 306.509519 263.528882 
L 306.579836 260.754622 
L 306.72047 264.672042 
L 306.790788 262.074127 
L 306.861105 264.0209 
L 306.931422 263.210914 
L 307.001739 263.07509 
L 307.072056 262.531205 
L 307.142374 263.890883 
L 307.212691 263.531061 
L 307.353325 262.455042 
L 307.49396 263.376722 
L 307.634594 261.800828 
L 307.704911 262.56588 
L 307.775228 261.082072 
L 307.845546 262.509188 
L 307.915863 262.424315 
L 308.056497 263.349703 
L 308.126815 261.132856 
L 308.197132 263.380623 
L 308.267449 263.149186 
L 308.337766 262.793225 
L 308.408083 263.776917 
L 308.478401 262.432548 
L 308.548718 264.049525 
L 308.619035 262.589717 
L 308.689352 263.149186 
L 308.829987 263.357372 
L 308.900304 263.260611 
L 308.970621 264.114184 
L 309.040938 262.112303 
L 309.111255 262.235639 
L 309.181573 262.093664 
L 309.25189 263.154242 
L 309.322207 263.049491 
L 309.392524 262.49947 
L 309.462841 263.840829 
L 309.533159 258.102656 
L 309.673793 261.925481 
L 309.814427 258.793993 
L 309.884745 260.881192 
L 309.955062 260.316505 
L 310.236331 264.280992 
L 310.306648 262.635593 
L 310.376965 263.304503 
L 310.447282 263.378671 
L 310.587917 263.200463 
L 310.658234 262.272919 
L 310.728551 262.281771 
L 310.869186 262.926675 
L 310.939503 262.661501 
L 311.080137 261.815775 
L 311.150454 263.544213 
L 311.220772 260.353527 
L 311.291089 261.268132 
L 311.361406 263.304503 
L 311.431723 261.15736 
L 311.50204 261.891658 
L 311.572358 261.119905 
L 311.712992 263.490269 
L 311.783309 261.902246 
L 311.923944 264.495026 
L 311.994261 260.054179 
L 312.064578 262.133164 
L 312.134895 262.123757 
L 312.345847 257.272331 
L 312.416164 255.619812 
L 312.486481 258.312079 
L 312.556799 258.010268 
L 312.627116 257.917484 
L 312.697433 257.295115 
L 312.908385 254.029957 
L 313.119336 256.857106 
L 313.259971 260.387682 
L 313.330288 259.521724 
L 313.400605 259.429042 
L 313.470922 262.134211 
L 313.611557 257.467668 
L 313.752191 263.555277 
L 313.822508 262.895733 
L 313.892826 264.275814 
L 313.963143 262.612536 
L 314.03346 263.164402 
L 314.103777 263.430311 
L 314.174094 263.12247 
L 314.244412 263.969816 
L 314.455363 261.450261 
L 314.595998 262.512843 
L 314.666315 262.325371 
L 314.806949 264.270684 
L 315.228852 258.358958 
L 315.29917 262.505539 
L 315.369487 261.051332 
L 315.510121 258.382088 
L 315.580438 262.289541 
L 315.650756 261.825156 
L 315.721073 262.888439 
L 315.79139 262.538591 
L 315.932025 260.861238 
L 316.072659 263.635613 
L 316.142976 263.070262 
L 316.213293 261.476247 
L 316.283611 262.796002 
L 316.353928 261.602325 
L 316.424245 263.102706 
L 316.494562 262.671951 
L 316.564879 261.930346 
L 316.635197 259.529698 
L 316.705514 264.114184 
L 316.775831 263.626159 
L 316.846148 262.344616 
L 316.916465 262.968735 
L 317.0571 264.231247 
L 317.127417 263.244466 
L 317.197734 263.766196 
L 317.268051 263.469294 
L 317.408686 262.06084 
L 317.479003 262.952098 
L 317.54932 262.340074 
L 317.619637 263.210914 
L 317.689955 261.885898 
L 317.830589 263.931055 
L 317.900906 263.230253 
L 318.041541 257.435579 
L 318.111858 263.795947 
L 318.182175 260.832905 
L 318.252492 259.652964 
L 318.32281 244.833157 
L 318.463444 263.469294 
L 318.674396 261.95479 
L 318.744713 261.856321 
L 318.81503 263.008663 
L 318.885347 262.994743 
L 318.955664 262.671951 
L 319.096299 263.055856 
L 319.236933 260.228012 
L 319.30725 263.719243 
L 319.377568 262.360578 
L 319.447885 263.137446 
L 319.518202 262.976346 
L 319.588519 261.113826 
L 319.658837 254.913795 
L 319.799471 262.891353 
L 319.869788 261.446088 
L 319.940105 261.916746 
L 320.010423 253.17544 
L 320.151057 262.230201 
L 320.221374 261.644577 
L 320.362009 262.835294 
L 320.432326 261.626904 
L 320.502643 261.690993 
L 320.57296 262.441994 
L 320.643277 261.719902 
L 320.713595 262.903055 
L 320.783912 262.429016 
L 320.854229 263.319418 
L 320.924546 258.124901 
L 320.994863 262.094697 
L 321.065181 261.384926 
L 321.135498 262.061859 
L 321.346449 260.263079 
L 321.416767 257.022854 
L 321.557401 262.849516 
L 321.627718 262.319739 
L 321.698036 262.952098 
L 321.768353 262.381254 
L 321.908987 264.180969 
L 321.979304 263.313808 
L 322.049622 260.092125 
L 322.119939 263.595935 
L 322.190256 263.032104 
L 322.260573 263.440463 
L 322.33089 257.465371 
L 322.401208 258.552672 
L 322.471525 262.216118 
L 322.541842 261.945966 
L 322.612159 263.380623 
L 322.682476 263.032104 
L 322.752794 261.934243 
L 322.893428 264.114184 
L 323.034062 260.627173 
L 323.174697 263.921626 
L 323.245014 263.257009 
L 323.385648 260.230464 
L 323.455966 260.989123 
L 323.526283 260.378802 
L 323.666917 262.035464 
L 323.737235 262.065943 
L 323.877869 263.12911 
L 324.018503 256.565846 
L 324.159138 263.12247 
L 324.229455 263.159315 
L 324.299772 263.843702 
L 324.370089 262.115422 
L 324.440407 263.436393 
L 324.510724 263.032104 
L 324.581041 262.165823 
L 324.651358 262.670642 
L 324.721675 261.944988 
L 324.932627 264.09845 
L 325.073261 261.99733 
L 325.143579 263.619117 
L 325.213896 263.566439 
L 325.284213 262.892812 
L 325.35453 262.970254 
L 325.424847 262.980928 
L 325.495165 262.82258 
L 325.635799 263.940586 
L 325.706116 263.600537 
L 325.776434 263.53543 
L 325.846751 264.486529 
L 325.987385 262.729016 
L 326.057702 263.275103 
L 326.12802 261.483829 
L 326.198337 261.722626 
L 326.268654 261.847789 
L 326.338971 260.342828 
L 326.409288 263.573184 
L 326.479606 263.043149 
L 326.549923 262.418451 
L 326.62024 263.602844 
L 326.690557 259.474656 
L 326.760874 260.331528 
L 326.901509 264.146751 
L 327.182778 261.7009 
L 327.253095 256.608242 
L 327.393729 263.326932 
L 327.534364 262.724985 
L 327.604681 264.198783 
L 327.745315 261.825156 
L 327.815633 262.254211 
L 327.88595 263.420233 
L 327.956267 261.192098 
L 328.026584 261.818586 
L 328.096901 261.695493 
L 328.237536 263.758227 
L 328.37817 262.674572 
L 328.448487 263.729503 
L 328.589122 262.414939 
L 328.800073 264.51272 
L 329.011025 261.166591 
L 329.081342 261.255478 
L 329.151659 260.484618 
L 329.221977 260.832199 
L 329.64388 264.418014 
L 329.854832 262.613811 
L 329.925149 263.729503 
L 329.995466 261.570997 
L 330.065783 262.543529 
L 330.1361 262.897195 
L 330.206418 260.912754 
L 330.347052 263.007111 
L 330.417369 262.495836 
L 330.487686 264.146751 
L 330.558004 261.699097 
L 330.628321 263.546418 
L 330.698638 260.579123 
L 330.768955 262.221526 
L 330.839272 263.591352 
L 330.90959 261.53911 
L 330.979907 261.993346 
L 331.120541 263.815336 
L 331.261176 260.922128 
L 331.331493 262.419622 
L 331.40181 252.998611 
L 331.472127 255.731248 
L 331.612762 257.864269 
L 331.823713 247.810678 
L 332.104982 257.672667 
L 332.175299 257.986336 
L 332.245617 256.731195 
L 332.315934 257.468051 
L 332.456568 224.655601 
L 332.66752 254.495248 
L 332.737837 257.845276 
L 332.808154 248.143302 
L 333.019106 263.696501 
L 333.089423 263.436393 
L 333.15974 262.272919 
L 333.230057 262.797392 
L 333.300375 263.637989 
L 333.441009 261.492274 
L 333.511326 261.789665 
L 333.581644 262.052694 
L 333.651961 261.910937 
L 333.722278 261.595337 
L 333.862912 258.629945 
L 333.93323 259.064915 
L 334.214498 255.625628 
L 334.355133 255.835916 
L 334.706719 263.609791 
L 334.847353 262.724985 
L 334.91767 263.230253 
L 335.058305 263.918505 
L 335.128622 259.349747 
L 335.198939 261.102454 
L 335.269256 259.527039 
L 335.480208 264.000086 
L 335.550525 263.518041 
L 335.620843 264.418014 
L 335.761477 262.133164 
L 335.831794 262.694329 
L 335.972429 261.458621 
L 336.042746 259.070786 
L 336.113063 261.728081 
L 336.253697 257.313092 
L 336.675601 263.804211 
L 336.816235 260.741491 
L 336.886552 261.371844 
L 336.956869 263.881857 
L 337.027187 262.852373 
L 337.097504 263.619117 
L 337.167821 261.888777 
L 337.238138 262.606174 
L 337.308455 264.010426 
L 337.44909 261.876325 
L 337.519407 259.644256 
L 337.589724 260.006584 
L 337.730359 263.626159 
L 337.800676 262.602365 
L 337.870993 262.885529 
L 337.94131 262.28843 
L 338.011628 263.164402 
L 338.081945 259.544616 
L 338.152262 261.114585 
L 338.292896 264.21712 
L 338.433531 261.721718 
L 338.503848 264.134357 
L 338.7148 255.86636 
L 338.785117 262.34348 
L 338.855434 260.175603 
L 338.925751 260.449061 
L 338.996068 250.150394 
L 339.066386 263.132439 
L 339.136703 262.780773 
L 339.20702 263.398311 
L 339.417972 260.749088 
L 339.628923 263.494504 
L 339.769558 258.062549 
L 339.839875 263.246252 
L 339.910192 258.509705 
L 340.050827 263.117508 
L 340.121144 263.666874 
L 340.332095 260.988389 
L 340.47273 262.480154 
L 340.613364 261.206865 
L 340.753999 262.093664 
L 340.824316 259.01573 
L 340.894633 262.057782 
L 340.96495 253.012907 
L 341.035267 263.979785 
L 341.105585 263.589066 
L 341.175902 262.789066 
L 341.246219 263.589066 
L 341.316536 263.174625 
L 341.386854 261.257058 
L 341.457171 263.286062 
L 341.527488 261.164281 
L 341.668122 264.231247 
L 341.949391 263.094538 
L 342.019708 264.024422 
L 342.160343 262.727671 
L 342.300977 263.855282 
L 342.441612 262.162645 
L 342.511929 263.140792 
L 342.582246 260.212715 
L 342.652563 260.269878 
L 342.793198 263.706552 
L 342.863515 263.869954 
L 343.004149 262.846663 
L 343.144784 262.993203 
L 343.285418 263.640369 
L 343.426053 262.515283 
L 343.49637 262.544764 
L 343.637004 263.330703 
L 343.707321 263.013327 
L 343.777639 263.230253 
L 343.918273 261.581406 
L 344.129225 255.583169 
L 344.340176 260.452926 
L 344.551128 261.031225 
L 344.762079 258.197182 
L 344.832397 256.595569 
L 345.113665 237.468467 
L 345.183983 237.243759 
L 345.2543 237.291684 
L 345.394934 240.87763 
L 345.465252 242.756584 
L 345.676203 258.840883 
L 345.816838 246.746294 
L 345.957472 247.577251 
L 346.027789 246.456552 
L 346.098106 247.305743 
L 346.168424 246.892841 
L 346.309058 240.906221 
L 346.379375 242.498802 
L 346.449692 234.286935 
L 346.52001 242.729422 
L 346.590327 241.983582 
L 346.660644 241.787784 
L 346.871596 242.980902 
L 347.082547 240.990901 
L 347.152865 242.00492 
L 347.223182 241.816649 
L 347.363816 242.809859 
L 347.645085 262.1563 
L 347.996671 254.132453 
L 348.207623 250.832556 
L 348.488891 260.381971 
L 348.629526 262.024372 
L 348.699843 259.744743 
L 348.77016 264.384561 
L 348.840477 262.852373 
L 348.910795 261.973509 
L 348.981112 264.09457 
L 349.051429 263.614445 
L 349.121746 263.598234 
L 349.192064 262.503109 
L 349.262381 262.801569 
L 349.403015 263.906126 
L 349.613967 261.722626 
L 349.684284 263.714149 
L 349.754601 263.647538 
L 349.824918 262.552195 
L 349.965553 257.202541 
L 350.03587 263.134106 
L 350.106187 260.491114 
L 350.246822 262.698302 
L 350.317139 260.623148 
L 350.387456 261.614591 
L 350.598408 264.159376 
L 350.809359 260.130376 
L 350.879676 264.341624 
L 350.949994 262.958131 
L 351.090628 261.826095 
L 351.160945 263.69151 
L 351.231263 263.063844 
L 351.30158 262.660198 
L 351.442214 264.110218 
L 351.512531 263.172917 
L 351.582849 263.776917 
L 351.653166 263.719243 
L 351.723483 263.490269 
L 351.7938 263.893912 
L 351.864117 262.745221 
L 351.934435 263.890883 
L 352.075069 262.903055 
L 352.145386 263.2971 
L 352.215703 263.223193 
L 352.286021 261.716274 
L 352.426655 263.07187 
L 352.496972 261.989368 
L 352.567289 262.29622 
L 352.637607 262.615086 
L 352.707924 263.801449 
L 352.848558 260.613102 
L 352.989193 262.66672 
L 353.05951 262.526294 
L 353.270462 260.423383 
L 353.340779 260.732531 
L 353.411096 261.929372 
L 353.481413 260.936594 
L 353.622048 263.390423 
L 353.692365 262.245455 
L 353.762682 263.317546 
L 353.903316 261.000158 
L 354.043951 263.013327 
L 354.184585 258.736813 
L 354.395537 262.169004 
L 354.465854 261.419505 
L 354.536171 261.719902 
L 354.606488 261.499045 
L 354.747123 261.944987 
L 354.887757 260.927185 
L 355.028392 262.723642 
L 355.098709 262.295106 
L 355.169026 258.622674 
L 355.239343 259.703321 
L 355.379978 263.591351 
L 355.520612 262.671951 
L 355.590929 263.456863 
L 355.661247 263.408233 
L 355.872198 261.139732 
L 355.942515 261.825156 
L 356.153467 254.505887 
L 356.223784 255.107211 
L 356.364419 252.743928 
L 356.434736 253.211275 
L 356.57537 247.317964 
L 356.786322 252.232349 
L 356.926956 252.547149 
L 357.208225 261.276063 
L 357.278542 260.422103 
L 357.34886 263.609791 
L 357.489494 259.692332 
L 357.559811 262.772514 
L 357.630128 261.434432 
L 357.700446 262.199961 
L 357.770763 260.765019 
L 357.84108 261.785026 
L 357.981714 260.156252 
L 358.052032 262.919262 
L 358.122349 261.818587 
L 358.192666 263.109269 
L 358.262983 259.530231 
L 358.3333 262.873932 
L 358.403618 261.714461 
L 358.614569 263.154242 
L 358.755204 261.356374 
L 358.825521 263.503014 
L 358.895838 261.885898 
L 359.10679 263.626159 
L 359.177107 263.906126 
L 359.388059 259.829181 
L 359.528693 263.804211 
L 359.59901 263.812544 
L 359.739645 259.776451 
L 359.809962 262.767027 
L 359.880279 261.861072 
L 359.950596 262.846663 
L 360.020913 261.87155 
L 360.091231 258.361573 
L 360.231865 263.155931 
L 360.302182 262.768397 
L 360.442817 263.878867 
L 360.583451 261.665915 
L 360.653768 263.434363 
L 360.724085 262.967216 
L 360.794403 262.801569 
L 360.86472 258.924315 
L 360.935037 263.424255 
L 361.005354 263.37089 
L 361.145989 262.350305 
L 361.216306 252.655666 
L 361.286623 254.131137 
L 361.35694 254.29034 
L 361.427258 253.146225 
L 361.638209 259.504223 
L 361.778844 257.30672 
L 361.989795 262.391658 
L 362.060112 263.428289 
L 362.13043 260.55464 
L 362.200747 261.119144 
L 362.271064 260.229237 
L 362.411698 263.729503 
L 362.482016 264.024422 
L 362.552333 262.656294 
L 362.62265 256.516883 
L 362.692967 261.99733 
L 362.763284 261.953808 
L 362.833602 262.414939 
L 363.114871 256.248645 
L 363.396139 263.315676 
L 363.466457 260.832905 
L 363.536774 262.529976 
L 363.607091 261.919655 
L 363.677408 263.07509 
L 363.747725 263.038407 
L 363.88836 261.363694 
L 364.028994 263.689022 
L 364.169629 261.886858 
L 364.239946 261.688297 
L 364.310263 261.797102 
L 364.450897 263.444545 
L 364.591532 260.271734 
L 364.661849 260.688703 
L 364.732166 264.024422 
L 364.802483 263.216165 
L 364.872801 263.776917 
L 365.013435 261.135147 
L 365.15407 263.172917 
L 365.365021 259.884754 
L 365.435338 259.769202 
L 365.505656 258.27585 
L 365.575973 260.469067 
L 365.64629 259.270063 
L 365.786924 256.679509 
L 365.997876 262.83813 
L 366.068193 262.056764 
L 366.13851 262.796002 
L 366.279145 258.487443 
L 366.419779 262.036475 
L 366.490096 260.088554 
L 366.560414 261.099427 
L 366.630731 262.012321 
L 366.841683 260.825148 
L 366.912 261.523708 
L 366.982317 257.650647 
L 367.052634 258.973694 
L 367.263586 263.426271 
L 367.333903 262.0284 
L 367.40422 262.583419 
L 367.474537 263.149186 
L 367.615172 258.397409 
L 367.685489 259.499989 
L 367.826123 258.706352 
L 367.896441 258.784658 
L 368.037075 259.921387 
L 368.107392 260.17924 
L 368.248027 255.774401 
L 368.529295 261.003106 
L 368.599613 259.294968 
L 368.66993 259.708274 
L 368.810564 261.20453 
L 368.880882 260.583771 
L 368.951199 263.750317 
L 369.021516 263.640369 
L 369.091833 262.63946 
L 369.16215 258.846535 
L 369.373102 262.447916 
L 369.443419 262.362867 
L 369.513736 262.970254 
L 369.584054 261.588364 
L 369.724688 248.327652 
L 370.005957 254.432186 
L 370.076274 253.428896 
L 370.146591 253.698999 
L 370.42786 262.092633 
L 370.709129 246.226193 
L 370.779446 249.163051 
L 370.990398 245.359141 
L 370.990398 245.359141 
" style="fill:none;stroke:#1f77b4;stroke-linecap:square;stroke-width:1.5;"/>
   </g>
   <g id="patch_3">
    <path d="M 30.103125 276.812 
L 30.103125 10.7 
" style="fill:none;stroke:#000000;stroke-linecap:square;stroke-linejoin:miter;stroke-width:0.8;"/>
   </g>
   <g id="patch_4">
    <path d="M 387.223125 276.812 
L 387.223125 10.7 
" style="fill:none;stroke:#000000;stroke-linecap:square;stroke-linejoin:miter;stroke-width:0.8;"/>
   </g>
   <g id="patch_5">
    <path d="M 30.103125 276.812 
L 387.223125 276.812 
" style="fill:none;stroke:#000000;stroke-linecap:square;stroke-linejoin:miter;stroke-width:0.8;"/>
   </g>
   <g id="patch_6">
    <path d="M 30.103125 10.7 
L 387.223125 10.7 
" style="fill:none;stroke:#000000;stroke-linecap:square;stroke-linejoin:miter;stroke-width:0.8;"/>
   </g>
  </g>
 </g>
 <defs>
  <clipPath id="p2633d7cb22">
   <rect height="266.112" width="357.12" x="30.103125" y="10.7"/>
  </clipPath>
 </defs>
</svg>
