<?xml version="1.0" encoding="utf-8" standalone="no"?>
<!DOCTYPE svg PUBLIC "-//W3C//DTD SVG 1.1//EN"
  "http://www.w3.org/Graphics/SVG/1.1/DTD/svg11.dtd">
<!-- Created with matplotlib (http://matplotlib.org/) -->
<svg height="252.018125pt" version="1.1" viewBox="0 0 375.603125 252.018125" width="375.603125pt" xmlns="http://www.w3.org/2000/svg" xmlns:xlink="http://www.w3.org/1999/xlink">
 <defs>
  <style type="text/css">
*{stroke-linecap:butt;stroke-linejoin:round;}
  </style>
 </defs>
 <g id="figure_1">
  <g id="patch_1">
   <path d="M 0 252.018125 
L 375.603125 252.018125 
L 375.603125 0 
L 0 0 
z
" style="fill:#ffffff;"/>
  </g>
  <g id="axes_1">
   <g id="patch_2">
    <path d="M 30.103125 228.14 
L 364.903125 228.14 
L 364.903125 10.7 
L 30.103125 10.7 
z
" style="fill:#ffffff;"/>
   </g>
   <g id="matplotlib.axis_1">
    <g id="xtick_1">
     <g id="line2d_1">
      <defs>
       <path d="M 0 0 
L 0 3.5 
" id="m2fbede1073" style="stroke:#000000;stroke-width:0.8;"/>
      </defs>
      <g>
       <use style="stroke:#000000;stroke-width:0.8;" x="45.321307" xlink:href="#m2fbede1073" y="228.14"/>
      </g>
     </g>
     <g id="text_1">
      <!-- 0 -->
      <defs>
       <path d="M 31.78125 66.40625 
Q 24.171875 66.40625 20.328125 58.90625 
Q 16.5 51.421875 16.5 36.375 
Q 16.5 21.390625 20.328125 13.890625 
Q 24.171875 6.390625 31.78125 6.390625 
Q 39.453125 6.390625 43.28125 13.890625 
Q 47.125 21.390625 47.125 36.375 
Q 47.125 51.421875 43.28125 58.90625 
Q 39.453125 66.40625 31.78125 66.40625 
z
M 31.78125 74.21875 
Q 44.046875 74.21875 50.515625 64.515625 
Q 56.984375 54.828125 56.984375 36.375 
Q 56.984375 17.96875 50.515625 8.265625 
Q 44.046875 -1.421875 31.78125 -1.421875 
Q 19.53125 -1.421875 13.0625 8.265625 
Q 6.59375 17.96875 6.59375 36.375 
Q 6.59375 54.828125 13.0625 64.515625 
Q 19.53125 74.21875 31.78125 74.21875 
z
" id="DejaVuSans-30"/>
      </defs>
      <g transform="translate(42.140057 242.738437)scale(0.1 -0.1)">
       <use xlink:href="#DejaVuSans-30"/>
      </g>
     </g>
    </g>
    <g id="xtick_2">
     <g id="line2d_2">
      <g>
       <use style="stroke:#000000;stroke-width:0.8;" x="112.361755" xlink:href="#m2fbede1073" y="228.14"/>
      </g>
     </g>
     <g id="text_2">
      <!-- 50 -->
      <defs>
       <path d="M 10.796875 72.90625 
L 49.515625 72.90625 
L 49.515625 64.59375 
L 19.828125 64.59375 
L 19.828125 46.734375 
Q 21.96875 47.46875 24.109375 47.828125 
Q 26.265625 48.1875 28.421875 48.1875 
Q 40.625 48.1875 47.75 41.5 
Q 54.890625 34.8125 54.890625 23.390625 
Q 54.890625 11.625 47.5625 5.09375 
Q 40.234375 -1.421875 26.90625 -1.421875 
Q 22.3125 -1.421875 17.546875 -0.640625 
Q 12.796875 0.140625 7.71875 1.703125 
L 7.71875 11.625 
Q 12.109375 9.234375 16.796875 8.0625 
Q 21.484375 6.890625 26.703125 6.890625 
Q 35.15625 6.890625 40.078125 11.328125 
Q 45.015625 15.765625 45.015625 23.390625 
Q 45.015625 31 40.078125 35.4375 
Q 35.15625 39.890625 26.703125 39.890625 
Q 22.75 39.890625 18.8125 39.015625 
Q 14.890625 38.140625 10.796875 36.28125 
z
" id="DejaVuSans-35"/>
      </defs>
      <g transform="translate(105.999255 242.738437)scale(0.1 -0.1)">
       <use xlink:href="#DejaVuSans-35"/>
       <use x="63.623047" xlink:href="#DejaVuSans-30"/>
      </g>
     </g>
    </g>
    <g id="xtick_3">
     <g id="line2d_3">
      <g>
       <use style="stroke:#000000;stroke-width:0.8;" x="179.402204" xlink:href="#m2fbede1073" y="228.14"/>
      </g>
     </g>
     <g id="text_3">
      <!-- 100 -->
      <defs>
       <path d="M 12.40625 8.296875 
L 28.515625 8.296875 
L 28.515625 63.921875 
L 10.984375 60.40625 
L 10.984375 69.390625 
L 28.421875 72.90625 
L 38.28125 72.90625 
L 38.28125 8.296875 
L 54.390625 8.296875 
L 54.390625 0 
L 12.40625 0 
z
" id="DejaVuSans-31"/>
      </defs>
      <g transform="translate(169.858454 242.738437)scale(0.1 -0.1)">
       <use xlink:href="#DejaVuSans-31"/>
       <use x="63.623047" xlink:href="#DejaVuSans-30"/>
       <use x="127.246094" xlink:href="#DejaVuSans-30"/>
      </g>
     </g>
    </g>
    <g id="xtick_4">
     <g id="line2d_4">
      <g>
       <use style="stroke:#000000;stroke-width:0.8;" x="246.442652" xlink:href="#m2fbede1073" y="228.14"/>
      </g>
     </g>
     <g id="text_4">
      <!-- 150 -->
      <g transform="translate(236.898902 242.738437)scale(0.1 -0.1)">
       <use xlink:href="#DejaVuSans-31"/>
       <use x="63.623047" xlink:href="#DejaVuSans-35"/>
       <use x="127.246094" xlink:href="#DejaVuSans-30"/>
      </g>
     </g>
    </g>
    <g id="xtick_5">
     <g id="line2d_5">
      <g>
       <use style="stroke:#000000;stroke-width:0.8;" x="313.483101" xlink:href="#m2fbede1073" y="228.14"/>
      </g>
     </g>
     <g id="text_5">
      <!-- 200 -->
      <defs>
       <path d="M 19.1875 8.296875 
L 53.609375 8.296875 
L 53.609375 0 
L 7.328125 0 
L 7.328125 8.296875 
Q 12.9375 14.109375 22.625 23.890625 
Q 32.328125 33.6875 34.8125 36.53125 
Q 39.546875 41.84375 41.421875 45.53125 
Q 43.3125 49.21875 43.3125 52.78125 
Q 43.3125 58.59375 39.234375 62.25 
Q 35.15625 65.921875 28.609375 65.921875 
Q 23.96875 65.921875 18.8125 64.3125 
Q 13.671875 62.703125 7.8125 59.421875 
L 7.8125 69.390625 
Q 13.765625 71.78125 18.9375 73 
Q 24.125 74.21875 28.421875 74.21875 
Q 39.75 74.21875 46.484375 68.546875 
Q 53.21875 62.890625 53.21875 53.421875 
Q 53.21875 48.921875 51.53125 44.890625 
Q 49.859375 40.875 45.40625 35.40625 
Q 44.1875 33.984375 37.640625 27.21875 
Q 31.109375 20.453125 19.1875 8.296875 
z
" id="DejaVuSans-32"/>
      </defs>
      <g transform="translate(303.939351 242.738437)scale(0.1 -0.1)">
       <use xlink:href="#DejaVuSans-32"/>
       <use x="63.623047" xlink:href="#DejaVuSans-30"/>
       <use x="127.246094" xlink:href="#DejaVuSans-30"/>
      </g>
     </g>
    </g>
   </g>
   <g id="matplotlib.axis_2">
    <g id="ytick_1">
     <g id="line2d_6">
      <defs>
       <path d="M 0 0 
L -3.5 0 
" id="m8ee4a06925" style="stroke:#000000;stroke-width:0.8;"/>
      </defs>
      <g>
       <use style="stroke:#000000;stroke-width:0.8;" x="30.103125" xlink:href="#m8ee4a06925" y="220.930724"/>
      </g>
     </g>
     <g id="text_6">
      <!-- 0.0 -->
      <defs>
       <path d="M 10.6875 12.40625 
L 21 12.40625 
L 21 0 
L 10.6875 0 
z
" id="DejaVuSans-2e"/>
      </defs>
      <g transform="translate(7.2 224.729943)scale(0.1 -0.1)">
       <use xlink:href="#DejaVuSans-30"/>
       <use x="63.623047" xlink:href="#DejaVuSans-2e"/>
       <use x="95.410156" xlink:href="#DejaVuSans-30"/>
      </g>
     </g>
    </g>
    <g id="ytick_2">
     <g id="line2d_7">
      <g>
       <use style="stroke:#000000;stroke-width:0.8;" x="30.103125" xlink:href="#m8ee4a06925" y="188.10725"/>
      </g>
     </g>
     <g id="text_7">
      <!-- 0.2 -->
      <g transform="translate(7.2 191.906468)scale(0.1 -0.1)">
       <use xlink:href="#DejaVuSans-30"/>
       <use x="63.623047" xlink:href="#DejaVuSans-2e"/>
       <use x="95.410156" xlink:href="#DejaVuSans-32"/>
      </g>
     </g>
    </g>
    <g id="ytick_3">
     <g id="line2d_8">
      <g>
       <use style="stroke:#000000;stroke-width:0.8;" x="30.103125" xlink:href="#m8ee4a06925" y="155.283775"/>
      </g>
     </g>
     <g id="text_8">
      <!-- 0.4 -->
      <defs>
       <path d="M 37.796875 64.3125 
L 12.890625 25.390625 
L 37.796875 25.390625 
z
M 35.203125 72.90625 
L 47.609375 72.90625 
L 47.609375 25.390625 
L 58.015625 25.390625 
L 58.015625 17.1875 
L 47.609375 17.1875 
L 47.609375 0 
L 37.796875 0 
L 37.796875 17.1875 
L 4.890625 17.1875 
L 4.890625 26.703125 
z
" id="DejaVuSans-34"/>
      </defs>
      <g transform="translate(7.2 159.082994)scale(0.1 -0.1)">
       <use xlink:href="#DejaVuSans-30"/>
       <use x="63.623047" xlink:href="#DejaVuSans-2e"/>
       <use x="95.410156" xlink:href="#DejaVuSans-34"/>
      </g>
     </g>
    </g>
    <g id="ytick_4">
     <g id="line2d_9">
      <g>
       <use style="stroke:#000000;stroke-width:0.8;" x="30.103125" xlink:href="#m8ee4a06925" y="122.460301"/>
      </g>
     </g>
     <g id="text_9">
      <!-- 0.6 -->
      <defs>
       <path d="M 33.015625 40.375 
Q 26.375 40.375 22.484375 35.828125 
Q 18.609375 31.296875 18.609375 23.390625 
Q 18.609375 15.53125 22.484375 10.953125 
Q 26.375 6.390625 33.015625 6.390625 
Q 39.65625 6.390625 43.53125 10.953125 
Q 47.40625 15.53125 47.40625 23.390625 
Q 47.40625 31.296875 43.53125 35.828125 
Q 39.65625 40.375 33.015625 40.375 
z
M 52.59375 71.296875 
L 52.59375 62.3125 
Q 48.875 64.0625 45.09375 64.984375 
Q 41.3125 65.921875 37.59375 65.921875 
Q 27.828125 65.921875 22.671875 59.328125 
Q 17.53125 52.734375 16.796875 39.40625 
Q 19.671875 43.65625 24.015625 45.921875 
Q 28.375 48.1875 33.59375 48.1875 
Q 44.578125 48.1875 50.953125 41.515625 
Q 57.328125 34.859375 57.328125 23.390625 
Q 57.328125 12.15625 50.6875 5.359375 
Q 44.046875 -1.421875 33.015625 -1.421875 
Q 20.359375 -1.421875 13.671875 8.265625 
Q 6.984375 17.96875 6.984375 36.375 
Q 6.984375 53.65625 15.1875 63.9375 
Q 23.390625 74.21875 37.203125 74.21875 
Q 40.921875 74.21875 44.703125 73.484375 
Q 48.484375 72.75 52.59375 71.296875 
z
" id="DejaVuSans-36"/>
      </defs>
      <g transform="translate(7.2 126.25952)scale(0.1 -0.1)">
       <use xlink:href="#DejaVuSans-30"/>
       <use x="63.623047" xlink:href="#DejaVuSans-2e"/>
       <use x="95.410156" xlink:href="#DejaVuSans-36"/>
      </g>
     </g>
    </g>
    <g id="ytick_5">
     <g id="line2d_10">
      <g>
       <use style="stroke:#000000;stroke-width:0.8;" x="30.103125" xlink:href="#m8ee4a06925" y="89.636826"/>
      </g>
     </g>
     <g id="text_10">
      <!-- 0.8 -->
      <defs>
       <path d="M 31.78125 34.625 
Q 24.75 34.625 20.71875 30.859375 
Q 16.703125 27.09375 16.703125 20.515625 
Q 16.703125 13.921875 20.71875 10.15625 
Q 24.75 6.390625 31.78125 6.390625 
Q 38.8125 6.390625 42.859375 10.171875 
Q 46.921875 13.96875 46.921875 20.515625 
Q 46.921875 27.09375 42.890625 30.859375 
Q 38.875 34.625 31.78125 34.625 
z
M 21.921875 38.8125 
Q 15.578125 40.375 12.03125 44.71875 
Q 8.5 49.078125 8.5 55.328125 
Q 8.5 64.0625 14.71875 69.140625 
Q 20.953125 74.21875 31.78125 74.21875 
Q 42.671875 74.21875 48.875 69.140625 
Q 55.078125 64.0625 55.078125 55.328125 
Q 55.078125 49.078125 51.53125 44.71875 
Q 48 40.375 41.703125 38.8125 
Q 48.828125 37.15625 52.796875 32.3125 
Q 56.78125 27.484375 56.78125 20.515625 
Q 56.78125 9.90625 50.3125 4.234375 
Q 43.84375 -1.421875 31.78125 -1.421875 
Q 19.734375 -1.421875 13.25 4.234375 
Q 6.78125 9.90625 6.78125 20.515625 
Q 6.78125 27.484375 10.78125 32.3125 
Q 14.796875 37.15625 21.921875 38.8125 
z
M 18.3125 54.390625 
Q 18.3125 48.734375 21.84375 45.5625 
Q 25.390625 42.390625 31.78125 42.390625 
Q 38.140625 42.390625 41.71875 45.5625 
Q 45.3125 48.734375 45.3125 54.390625 
Q 45.3125 60.0625 41.71875 63.234375 
Q 38.140625 66.40625 31.78125 66.40625 
Q 25.390625 66.40625 21.84375 63.234375 
Q 18.3125 60.0625 18.3125 54.390625 
z
" id="DejaVuSans-38"/>
      </defs>
      <g transform="translate(7.2 93.436045)scale(0.1 -0.1)">
       <use xlink:href="#DejaVuSans-30"/>
       <use x="63.623047" xlink:href="#DejaVuSans-2e"/>
       <use x="95.410156" xlink:href="#DejaVuSans-38"/>
      </g>
     </g>
    </g>
    <g id="ytick_6">
     <g id="line2d_11">
      <g>
       <use style="stroke:#000000;stroke-width:0.8;" x="30.103125" xlink:href="#m8ee4a06925" y="56.813352"/>
      </g>
     </g>
     <g id="text_11">
      <!-- 1.0 -->
      <g transform="translate(7.2 60.612571)scale(0.1 -0.1)">
       <use xlink:href="#DejaVuSans-31"/>
       <use x="63.623047" xlink:href="#DejaVuSans-2e"/>
       <use x="95.410156" xlink:href="#DejaVuSans-30"/>
      </g>
     </g>
    </g>
    <g id="ytick_7">
     <g id="line2d_12">
      <g>
       <use style="stroke:#000000;stroke-width:0.8;" x="30.103125" xlink:href="#m8ee4a06925" y="23.989878"/>
      </g>
     </g>
     <g id="text_12">
      <!-- 1.2 -->
      <g transform="translate(7.2 27.789096)scale(0.1 -0.1)">
       <use xlink:href="#DejaVuSans-31"/>
       <use x="63.623047" xlink:href="#DejaVuSans-2e"/>
       <use x="95.410156" xlink:href="#DejaVuSans-32"/>
      </g>
     </g>
    </g>
   </g>
   <g id="line2d_13">
    <path clip-path="url(#p22663f0712)" d="M 45.321307 112.67622 
L 46.662116 109.486699 
L 48.002925 108.33404 
L 49.343734 107.741522 
L 50.684543 109.217564 
L 52.025352 108.587727 
L 53.366161 109.217564 
L 54.70697 108.587727 
L 56.047779 110.798681 
L 57.388588 110.131438 
L 58.729397 111.936042 
L 60.070205 111.21507 
L 61.411014 110.640459 
L 62.751823 111.418762 
L 64.092632 111.418762 
L 65.433441 110.640459 
L 66.77425 106.823475 
L 68.115059 105.952363 
L 69.455868 101.510123 
L 70.796677 102.362259 
L 72.137486 102.362259 
L 73.478295 101.510123 
L 74.819104 102.676012 
L 76.159913 102.041495 
L 77.500722 104.181336 
L 78.841531 103.728644 
L 80.18234 104.181336 
L 81.523149 103.728644 
L 82.863958 107.066416 
L 86.886385 107.116221 
L 88.227194 105.501337 
L 89.568003 105.822321 
L 90.908812 96.805761 
L 92.249621 97.542363 
L 93.59043 91.718226 
L 94.931239 92.565836 
L 96.272048 91.718226 
L 97.612857 92.565836 
L 98.953666 87.940996 
L 100.294475 88.8273 
L 101.635284 84.433286 
L 102.976093 85.222321 
L 104.316902 84.349002 
L 106.998519 85.682114 
L 108.339328 85.175148 
L 109.680137 85.175148 
L 111.020946 85.682114 
L 112.361755 87.269066 
L 113.702564 87.580085 
L 115.043373 91.32897 
L 117.724991 91.244229 
L 119.0658 91.32897 
L 120.406609 102.916122 
L 121.747418 102.433938 
L 123.088227 102.916122 
L 124.429036 102.433938 
L 125.769845 102.916122 
L 127.110654 102.433938 
L 128.451463 114.564059 
L 129.792272 113.426042 
L 131.133081 119.742225 
L 132.47389 118.30273 
L 133.814699 124.893578 
L 135.155508 123.225883 
L 136.496317 124.893578 
L 137.837126 123.225883 
L 139.177935 137.009449 
L 140.518744 138.94888 
L 141.859553 137.009449 
L 143.200362 138.94888 
L 144.541171 148.524955 
L 145.88198 146.552794 
L 147.222789 156.134215 
L 148.563598 157.997111 
L 149.904407 157.997111 
L 151.245216 156.134215 
L 152.586024 164.411376 
L 153.926833 165.126222 
L 155.267642 165.126222 
L 156.608451 164.411376 
L 157.94926 138.266646 
L 159.290069 139.083953 
L 160.630878 138.266646 
L 161.971687 139.083953 
L 163.312496 117.997616 
L 164.653305 116.788599 
L 165.994114 116.788599 
L 167.334923 117.997616 
L 168.675732 74.016496 
L 170.016541 75.534234 
L 171.35735 74.016496 
L 172.698159 75.534234 
L 174.038968 45.130883 
L 175.379777 43.586028 
L 176.720586 43.586028 
L 178.061395 45.130883 
L 179.402204 43.586028 
L 180.743013 45.130883 
L 182.083822 34.059353 
L 183.424631 35.503053 
L 184.76544 34.059353 
L 186.106249 35.503053 
L 187.447058 47.598183 
L 188.787867 46.303669 
L 190.128676 47.598183 
L 191.469485 46.303669 
L 192.810294 77.142037 
L 194.151103 76.020334 
L 195.491912 76.020334 
L 196.832721 77.142037 
L 198.173529 94.568846 
L 199.514338 95.584609 
L 200.855147 94.568846 
L 202.195956 95.584609 
L 203.536765 115.287348 
L 204.877574 116.1856 
L 206.218383 115.287348 
L 207.559192 116.1856 
L 208.900001 163.43583 
L 210.24081 164.012599 
L 211.581619 218.256364 
L 212.922428 216.223325 
L 214.263237 218.256364 
L 215.604046 216.223325 
L 216.944855 165.605063 
L 218.285664 165.730334 
L 219.626473 139.800548 
L 220.967282 140.280999 
L 222.308091 116.797844 
L 223.6489 116.000618 
L 224.989709 116.000618 
L 226.330518 116.797844 
L 227.671327 92.740973 
L 229.012136 93.788042 
L 230.352945 70.699813 
L 231.693754 71.926253 
L 233.034563 50.985097 
L 234.375372 52.33133 
L 235.716181 50.985097 
L 237.05699 52.33133 
L 238.397799 35.521849 
L 239.738608 36.95823 
L 241.079417 20.583636 
L 242.420226 22.208356 
L 243.761034 20.583636 
L 245.101843 22.208356 
L 246.442652 20.64008 
L 247.783461 22.366829 
L 249.12427 25.327115 
L 250.465079 27.150653 
L 251.805888 25.327115 
L 253.146697 27.150653 
L 254.487506 33.387432 
L 255.828315 35.306264 
L 257.169124 43.607663 
L 258.509933 45.612357 
L 259.850742 56.22585 
L 261.191551 58.299989 
L 262.53236 70.493143 
L 263.873169 72.618832 
L 265.213978 70.493143 
L 266.554787 72.618832 
L 267.895596 105.149828 
L 269.236405 102.999668 
L 270.577214 102.999668 
L 271.918023 105.149828 
L 273.258832 102.999668 
L 274.599641 105.149828 
L 275.94045 102.999668 
L 277.281259 105.149828 
L 278.622068 164.919297 
L 279.962877 166.56668 
L 281.303686 174.243029 
L 282.644495 175.537915 
L 283.985304 178.765174 
L 285.326113 179.612741 
L 286.666922 178.765174 
L 288.007731 179.612741 
L 289.348539 176.932977 
L 292.030157 176.830628 
L 293.370966 176.932977 
L 294.711775 173.143371 
L 296.052584 173.064444 
L 297.393393 168.590125 
L 298.734202 168.787584 
L 300.075011 168.787584 
L 301.41582 168.590125 
L 302.756629 165.066552 
L 304.097438 164.844588 
L 305.438247 161.628835 
L 306.779056 161.423286 
L 308.119865 161.628835 
L 309.460674 161.423286 
L 310.801483 128.249574 
L 312.142292 128.52651 
L 313.483101 128.249574 
L 314.82391 128.52651 
L 316.164719 88.080354 
L 317.505528 88.647887 
L 318.846337 59.605402 
L 320.187146 60.327255 
L 321.527955 46.216884 
L 322.868764 46.975056 
L 324.209573 44.651224 
L 325.550382 45.372892 
L 326.891191 44.651224 
L 328.232 45.372892 
L 329.572809 51.473744 
L 330.913618 52.138377 
L 332.254427 64.661415 
L 333.595236 64.02732 
L 334.936045 80.29858 
L 336.276853 80.930614 
L 337.617662 97.6622 
L 338.958471 98.30122 
L 340.29928 97.6622 
L 341.640089 98.30122 
L 342.980898 113.396475 
L 344.321707 114.038628 
L 345.662516 125.085054 
L 347.003325 125.719047 
L 348.344134 125.085054 
L 349.684943 125.719047 
L 349.684943 125.719047 
" style="fill:none;stroke:#1f77b4;stroke-linecap:square;stroke-width:1.5;"/>
   </g>
   <g id="patch_3">
    <path d="M 30.103125 228.14 
L 30.103125 10.7 
" style="fill:none;stroke:#000000;stroke-linecap:square;stroke-linejoin:miter;stroke-width:0.8;"/>
   </g>
   <g id="patch_4">
    <path d="M 364.903125 228.14 
L 364.903125 10.7 
" style="fill:none;stroke:#000000;stroke-linecap:square;stroke-linejoin:miter;stroke-width:0.8;"/>
   </g>
   <g id="patch_5">
    <path d="M 30.103125 228.14 
L 364.903125 228.14 
" style="fill:none;stroke:#000000;stroke-linecap:square;stroke-linejoin:miter;stroke-width:0.8;"/>
   </g>
   <g id="patch_6">
    <path d="M 30.103125 10.7 
L 364.903125 10.7 
" style="fill:none;stroke:#000000;stroke-linecap:square;stroke-linejoin:miter;stroke-width:0.8;"/>
   </g>
  </g>
 </g>
 <defs>
  <clipPath id="p22663f0712">
   <rect height="217.44" width="334.8" x="30.103125" y="10.7"/>
  </clipPath>
 </defs>
</svg>
