<?xml version="1.0" encoding="utf-8" standalone="no"?>
<!DOCTYPE svg PUBLIC "-//W3C//DTD SVG 1.1//EN"
  "http://www.w3.org/Graphics/SVG/1.1/DTD/svg11.dtd">
<!-- Created with matplotlib (http://matplotlib.org/) -->
<svg height="300.690125pt" version="1.1" viewBox="0 0 404.285625 300.690125" width="404.285625pt" xmlns="http://www.w3.org/2000/svg" xmlns:xlink="http://www.w3.org/1999/xlink">
 <defs>
  <style type="text/css">
*{stroke-linecap:butt;stroke-linejoin:round;}
  </style>
 </defs>
 <g id="figure_1">
  <g id="patch_1">
   <path d="M 0 300.690125 
L 404.285625 300.690125 
L 404.285625 0 
L 0 0 
z
" style="fill:#ffffff;"/>
  </g>
  <g id="axes_1">
   <g id="patch_2">
    <path d="M 36.465625 276.812 
L 393.585625 276.812 
L 393.585625 10.7 
L 36.465625 10.7 
z
" style="fill:#ffffff;"/>
   </g>
   <g id="matplotlib.axis_1">
    <g id="xtick_1">
     <g id="line2d_1">
      <defs>
       <path d="M 0 0 
L 0 3.5 
" id="mf6b4b66e68" style="stroke:#000000;stroke-width:0.8;"/>
      </defs>
      <g>
       <use style="stroke:#000000;stroke-width:0.8;" x="52.698352" xlink:href="#mf6b4b66e68" y="276.812"/>
      </g>
     </g>
     <g id="text_1">
      <!-- 0 -->
      <defs>
       <path d="M 31.78125 66.40625 
Q 24.171875 66.40625 20.328125 58.90625 
Q 16.5 51.421875 16.5 36.375 
Q 16.5 21.390625 20.328125 13.890625 
Q 24.171875 6.390625 31.78125 6.390625 
Q 39.453125 6.390625 43.28125 13.890625 
Q 47.125 21.390625 47.125 36.375 
Q 47.125 51.421875 43.28125 58.90625 
Q 39.453125 66.40625 31.78125 66.40625 
z
M 31.78125 74.21875 
Q 44.046875 74.21875 50.515625 64.515625 
Q 56.984375 54.828125 56.984375 36.375 
Q 56.984375 17.96875 50.515625 8.265625 
Q 44.046875 -1.421875 31.78125 -1.421875 
Q 19.53125 -1.421875 13.0625 8.265625 
Q 6.59375 17.96875 6.59375 36.375 
Q 6.59375 54.828125 13.0625 64.515625 
Q 19.53125 74.21875 31.78125 74.21875 
z
" id="DejaVuSans-30"/>
      </defs>
      <g transform="translate(49.517102 291.410437)scale(0.1 -0.1)">
       <use xlink:href="#DejaVuSans-30"/>
      </g>
     </g>
    </g>
    <g id="xtick_2">
     <g id="line2d_2">
      <g>
       <use style="stroke:#000000;stroke-width:0.8;" x="123.894525" xlink:href="#mf6b4b66e68" y="276.812"/>
      </g>
     </g>
     <g id="text_2">
      <!-- 200 -->
      <defs>
       <path d="M 19.1875 8.296875 
L 53.609375 8.296875 
L 53.609375 0 
L 7.328125 0 
L 7.328125 8.296875 
Q 12.9375 14.109375 22.625 23.890625 
Q 32.328125 33.6875 34.8125 36.53125 
Q 39.546875 41.84375 41.421875 45.53125 
Q 43.3125 49.21875 43.3125 52.78125 
Q 43.3125 58.59375 39.234375 62.25 
Q 35.15625 65.921875 28.609375 65.921875 
Q 23.96875 65.921875 18.8125 64.3125 
Q 13.671875 62.703125 7.8125 59.421875 
L 7.8125 69.390625 
Q 13.765625 71.78125 18.9375 73 
Q 24.125 74.21875 28.421875 74.21875 
Q 39.75 74.21875 46.484375 68.546875 
Q 53.21875 62.890625 53.21875 53.421875 
Q 53.21875 48.921875 51.53125 44.890625 
Q 49.859375 40.875 45.40625 35.40625 
Q 44.1875 33.984375 37.640625 27.21875 
Q 31.109375 20.453125 19.1875 8.296875 
z
" id="DejaVuSans-32"/>
      </defs>
      <g transform="translate(114.350775 291.410437)scale(0.1 -0.1)">
       <use xlink:href="#DejaVuSans-32"/>
       <use x="63.623047" xlink:href="#DejaVuSans-30"/>
       <use x="127.246094" xlink:href="#DejaVuSans-30"/>
      </g>
     </g>
    </g>
    <g id="xtick_3">
     <g id="line2d_3">
      <g>
       <use style="stroke:#000000;stroke-width:0.8;" x="195.090697" xlink:href="#mf6b4b66e68" y="276.812"/>
      </g>
     </g>
     <g id="text_3">
      <!-- 400 -->
      <defs>
       <path d="M 37.796875 64.3125 
L 12.890625 25.390625 
L 37.796875 25.390625 
z
M 35.203125 72.90625 
L 47.609375 72.90625 
L 47.609375 25.390625 
L 58.015625 25.390625 
L 58.015625 17.1875 
L 47.609375 17.1875 
L 47.609375 0 
L 37.796875 0 
L 37.796875 17.1875 
L 4.890625 17.1875 
L 4.890625 26.703125 
z
" id="DejaVuSans-34"/>
      </defs>
      <g transform="translate(185.546947 291.410437)scale(0.1 -0.1)">
       <use xlink:href="#DejaVuSans-34"/>
       <use x="63.623047" xlink:href="#DejaVuSans-30"/>
       <use x="127.246094" xlink:href="#DejaVuSans-30"/>
      </g>
     </g>
    </g>
    <g id="xtick_4">
     <g id="line2d_4">
      <g>
       <use style="stroke:#000000;stroke-width:0.8;" x="266.286869" xlink:href="#mf6b4b66e68" y="276.812"/>
      </g>
     </g>
     <g id="text_4">
      <!-- 600 -->
      <defs>
       <path d="M 33.015625 40.375 
Q 26.375 40.375 22.484375 35.828125 
Q 18.609375 31.296875 18.609375 23.390625 
Q 18.609375 15.53125 22.484375 10.953125 
Q 26.375 6.390625 33.015625 6.390625 
Q 39.65625 6.390625 43.53125 10.953125 
Q 47.40625 15.53125 47.40625 23.390625 
Q 47.40625 31.296875 43.53125 35.828125 
Q 39.65625 40.375 33.015625 40.375 
z
M 52.59375 71.296875 
L 52.59375 62.3125 
Q 48.875 64.0625 45.09375 64.984375 
Q 41.3125 65.921875 37.59375 65.921875 
Q 27.828125 65.921875 22.671875 59.328125 
Q 17.53125 52.734375 16.796875 39.40625 
Q 19.671875 43.65625 24.015625 45.921875 
Q 28.375 48.1875 33.59375 48.1875 
Q 44.578125 48.1875 50.953125 41.515625 
Q 57.328125 34.859375 57.328125 23.390625 
Q 57.328125 12.15625 50.6875 5.359375 
Q 44.046875 -1.421875 33.015625 -1.421875 
Q 20.359375 -1.421875 13.671875 8.265625 
Q 6.984375 17.96875 6.984375 36.375 
Q 6.984375 53.65625 15.1875 63.9375 
Q 23.390625 74.21875 37.203125 74.21875 
Q 40.921875 74.21875 44.703125 73.484375 
Q 48.484375 72.75 52.59375 71.296875 
z
" id="DejaVuSans-36"/>
      </defs>
      <g transform="translate(256.743119 291.410437)scale(0.1 -0.1)">
       <use xlink:href="#DejaVuSans-36"/>
       <use x="63.623047" xlink:href="#DejaVuSans-30"/>
       <use x="127.246094" xlink:href="#DejaVuSans-30"/>
      </g>
     </g>
    </g>
    <g id="xtick_5">
     <g id="line2d_5">
      <g>
       <use style="stroke:#000000;stroke-width:0.8;" x="337.483041" xlink:href="#mf6b4b66e68" y="276.812"/>
      </g>
     </g>
     <g id="text_5">
      <!-- 800 -->
      <defs>
       <path d="M 31.78125 34.625 
Q 24.75 34.625 20.71875 30.859375 
Q 16.703125 27.09375 16.703125 20.515625 
Q 16.703125 13.921875 20.71875 10.15625 
Q 24.75 6.390625 31.78125 6.390625 
Q 38.8125 6.390625 42.859375 10.171875 
Q 46.921875 13.96875 46.921875 20.515625 
Q 46.921875 27.09375 42.890625 30.859375 
Q 38.875 34.625 31.78125 34.625 
z
M 21.921875 38.8125 
Q 15.578125 40.375 12.03125 44.71875 
Q 8.5 49.078125 8.5 55.328125 
Q 8.5 64.0625 14.71875 69.140625 
Q 20.953125 74.21875 31.78125 74.21875 
Q 42.671875 74.21875 48.875 69.140625 
Q 55.078125 64.0625 55.078125 55.328125 
Q 55.078125 49.078125 51.53125 44.71875 
Q 48 40.375 41.703125 38.8125 
Q 48.828125 37.15625 52.796875 32.3125 
Q 56.78125 27.484375 56.78125 20.515625 
Q 56.78125 9.90625 50.3125 4.234375 
Q 43.84375 -1.421875 31.78125 -1.421875 
Q 19.734375 -1.421875 13.25 4.234375 
Q 6.78125 9.90625 6.78125 20.515625 
Q 6.78125 27.484375 10.78125 32.3125 
Q 14.796875 37.15625 21.921875 38.8125 
z
M 18.3125 54.390625 
Q 18.3125 48.734375 21.84375 45.5625 
Q 25.390625 42.390625 31.78125 42.390625 
Q 38.140625 42.390625 41.71875 45.5625 
Q 45.3125 48.734375 45.3125 54.390625 
Q 45.3125 60.0625 41.71875 63.234375 
Q 38.140625 66.40625 31.78125 66.40625 
Q 25.390625 66.40625 21.84375 63.234375 
Q 18.3125 60.0625 18.3125 54.390625 
z
" id="DejaVuSans-38"/>
      </defs>
      <g transform="translate(327.939291 291.410437)scale(0.1 -0.1)">
       <use xlink:href="#DejaVuSans-38"/>
       <use x="63.623047" xlink:href="#DejaVuSans-30"/>
       <use x="127.246094" xlink:href="#DejaVuSans-30"/>
      </g>
     </g>
    </g>
   </g>
   <g id="matplotlib.axis_2">
    <g id="ytick_1">
     <g id="line2d_6">
      <defs>
       <path d="M 0 0 
L -3.5 0 
" id="m108a2cb260" style="stroke:#000000;stroke-width:0.8;"/>
      </defs>
      <g>
       <use style="stroke:#000000;stroke-width:0.8;" x="36.465625" xlink:href="#m108a2cb260" y="264.716"/>
      </g>
     </g>
     <g id="text_6">
      <!-- 0.00 -->
      <defs>
       <path d="M 10.6875 12.40625 
L 21 12.40625 
L 21 0 
L 10.6875 0 
z
" id="DejaVuSans-2e"/>
      </defs>
      <g transform="translate(7.2 268.515219)scale(0.1 -0.1)">
       <use xlink:href="#DejaVuSans-30"/>
       <use x="63.623047" xlink:href="#DejaVuSans-2e"/>
       <use x="95.410156" xlink:href="#DejaVuSans-30"/>
       <use x="159.033203" xlink:href="#DejaVuSans-30"/>
      </g>
     </g>
    </g>
    <g id="ytick_2">
     <g id="line2d_7">
      <g>
       <use style="stroke:#000000;stroke-width:0.8;" x="36.465625" xlink:href="#m108a2cb260" y="232.004582"/>
      </g>
     </g>
     <g id="text_7">
      <!-- 0.25 -->
      <defs>
       <path d="M 10.796875 72.90625 
L 49.515625 72.90625 
L 49.515625 64.59375 
L 19.828125 64.59375 
L 19.828125 46.734375 
Q 21.96875 47.46875 24.109375 47.828125 
Q 26.265625 48.1875 28.421875 48.1875 
Q 40.625 48.1875 47.75 41.5 
Q 54.890625 34.8125 54.890625 23.390625 
Q 54.890625 11.625 47.5625 5.09375 
Q 40.234375 -1.421875 26.90625 -1.421875 
Q 22.3125 -1.421875 17.546875 -0.640625 
Q 12.796875 0.140625 7.71875 1.703125 
L 7.71875 11.625 
Q 12.109375 9.234375 16.796875 8.0625 
Q 21.484375 6.890625 26.703125 6.890625 
Q 35.15625 6.890625 40.078125 11.328125 
Q 45.015625 15.765625 45.015625 23.390625 
Q 45.015625 31 40.078125 35.4375 
Q 35.15625 39.890625 26.703125 39.890625 
Q 22.75 39.890625 18.8125 39.015625 
Q 14.890625 38.140625 10.796875 36.28125 
z
" id="DejaVuSans-35"/>
      </defs>
      <g transform="translate(7.2 235.8038)scale(0.1 -0.1)">
       <use xlink:href="#DejaVuSans-30"/>
       <use x="63.623047" xlink:href="#DejaVuSans-2e"/>
       <use x="95.410156" xlink:href="#DejaVuSans-32"/>
       <use x="159.033203" xlink:href="#DejaVuSans-35"/>
      </g>
     </g>
    </g>
    <g id="ytick_3">
     <g id="line2d_8">
      <g>
       <use style="stroke:#000000;stroke-width:0.8;" x="36.465625" xlink:href="#m108a2cb260" y="199.293163"/>
      </g>
     </g>
     <g id="text_8">
      <!-- 0.50 -->
      <g transform="translate(7.2 203.092382)scale(0.1 -0.1)">
       <use xlink:href="#DejaVuSans-30"/>
       <use x="63.623047" xlink:href="#DejaVuSans-2e"/>
       <use x="95.410156" xlink:href="#DejaVuSans-35"/>
       <use x="159.033203" xlink:href="#DejaVuSans-30"/>
      </g>
     </g>
    </g>
    <g id="ytick_4">
     <g id="line2d_9">
      <g>
       <use style="stroke:#000000;stroke-width:0.8;" x="36.465625" xlink:href="#m108a2cb260" y="166.581745"/>
      </g>
     </g>
     <g id="text_9">
      <!-- 0.75 -->
      <defs>
       <path d="M 8.203125 72.90625 
L 55.078125 72.90625 
L 55.078125 68.703125 
L 28.609375 0 
L 18.3125 0 
L 43.21875 64.59375 
L 8.203125 64.59375 
z
" id="DejaVuSans-37"/>
      </defs>
      <g transform="translate(7.2 170.380964)scale(0.1 -0.1)">
       <use xlink:href="#DejaVuSans-30"/>
       <use x="63.623047" xlink:href="#DejaVuSans-2e"/>
       <use x="95.410156" xlink:href="#DejaVuSans-37"/>
       <use x="159.033203" xlink:href="#DejaVuSans-35"/>
      </g>
     </g>
    </g>
    <g id="ytick_5">
     <g id="line2d_10">
      <g>
       <use style="stroke:#000000;stroke-width:0.8;" x="36.465625" xlink:href="#m108a2cb260" y="133.870327"/>
      </g>
     </g>
     <g id="text_10">
      <!-- 1.00 -->
      <defs>
       <path d="M 12.40625 8.296875 
L 28.515625 8.296875 
L 28.515625 63.921875 
L 10.984375 60.40625 
L 10.984375 69.390625 
L 28.421875 72.90625 
L 38.28125 72.90625 
L 38.28125 8.296875 
L 54.390625 8.296875 
L 54.390625 0 
L 12.40625 0 
z
" id="DejaVuSans-31"/>
      </defs>
      <g transform="translate(7.2 137.669545)scale(0.1 -0.1)">
       <use xlink:href="#DejaVuSans-31"/>
       <use x="63.623047" xlink:href="#DejaVuSans-2e"/>
       <use x="95.410156" xlink:href="#DejaVuSans-30"/>
       <use x="159.033203" xlink:href="#DejaVuSans-30"/>
      </g>
     </g>
    </g>
    <g id="ytick_6">
     <g id="line2d_11">
      <g>
       <use style="stroke:#000000;stroke-width:0.8;" x="36.465625" xlink:href="#m108a2cb260" y="101.158908"/>
      </g>
     </g>
     <g id="text_11">
      <!-- 1.25 -->
      <g transform="translate(7.2 104.958127)scale(0.1 -0.1)">
       <use xlink:href="#DejaVuSans-31"/>
       <use x="63.623047" xlink:href="#DejaVuSans-2e"/>
       <use x="95.410156" xlink:href="#DejaVuSans-32"/>
       <use x="159.033203" xlink:href="#DejaVuSans-35"/>
      </g>
     </g>
    </g>
    <g id="ytick_7">
     <g id="line2d_12">
      <g>
       <use style="stroke:#000000;stroke-width:0.8;" x="36.465625" xlink:href="#m108a2cb260" y="68.44749"/>
      </g>
     </g>
     <g id="text_12">
      <!-- 1.50 -->
      <g transform="translate(7.2 72.246709)scale(0.1 -0.1)">
       <use xlink:href="#DejaVuSans-31"/>
       <use x="63.623047" xlink:href="#DejaVuSans-2e"/>
       <use x="95.410156" xlink:href="#DejaVuSans-35"/>
       <use x="159.033203" xlink:href="#DejaVuSans-30"/>
      </g>
     </g>
    </g>
    <g id="ytick_8">
     <g id="line2d_13">
      <g>
       <use style="stroke:#000000;stroke-width:0.8;" x="36.465625" xlink:href="#m108a2cb260" y="35.736071"/>
      </g>
     </g>
     <g id="text_13">
      <!-- 1.75 -->
      <g transform="translate(7.2 39.53529)scale(0.1 -0.1)">
       <use xlink:href="#DejaVuSans-31"/>
       <use x="63.623047" xlink:href="#DejaVuSans-2e"/>
       <use x="95.410156" xlink:href="#DejaVuSans-37"/>
       <use x="159.033203" xlink:href="#DejaVuSans-35"/>
      </g>
     </g>
    </g>
   </g>
   <g id="line2d_14">
    <path clip-path="url(#p62a465f1ae)" d="M 52.698352 214.829127 
L 53.054333 153.523869 
L 53.410314 22.796 
L 53.766295 191.282724 
L 54.122276 162.516767 
L 54.834237 80.304846 
L 55.190218 76.788038 
L 55.546199 86.20502 
L 55.90218 76.02478 
L 56.970123 246.612545 
L 57.326103 173.196872 
L 57.682084 245.969851 
L 58.038065 264.576615 
L 58.394046 262.547674 
L 58.750027 262.442695 
L 59.106008 264.518879 
L 59.817969 264.576615 
L 60.17395 262.62058 
L 60.529931 262.534276 
L 60.885912 262.602118 
L 61.241893 262.442695 
L 61.597874 264.474578 
L 61.953855 264.518879 
L 62.309836 262.516538 
L 62.665816 264.474578 
L 63.021797 264.321759 
L 63.377778 264.716 
L 63.733759 262.754676 
L 64.445721 262.583816 
L 64.801702 264.437229 
L 65.157682 262.442695 
L 65.513663 264.576615 
L 65.869644 264.437229 
L 66.225625 262.653287 
L 66.581606 264.404325 
L 66.937587 262.611329 
L 67.293568 264.518879 
L 67.649548 262.754676 
L 68.005529 262.516538 
L 68.36151 262.4172 
L 68.717491 264.576615 
L 69.073472 264.576615 
L 69.429453 262.583816 
L 69.785434 262.8616 
L 70.141414 262.583816 
L 70.853376 262.516538 
L 71.209357 264.374577 
L 71.565338 262.681739 
L 71.921319 262.516538 
L 72.2773 264.404325 
L 72.633281 262.534276 
L 72.989261 262.744795 
L 73.345242 262.481485 
L 73.701223 264.518879 
L 74.413185 264.404325 
L 74.769166 262.516538 
L 75.125147 262.681739 
L 75.837108 262.425667 
L 76.193089 262.583816 
L 76.54907 264.518879 
L 76.905051 262.516538 
L 77.261032 264.437229 
L 77.617013 262.534276 
L 77.972993 262.611329 
L 78.684955 262.442695 
L 79.040936 262.442695 
L 79.396917 262.754676 
L 80.464859 262.534276 
L 80.82084 264.374577 
L 81.176821 264.437229 
L 81.532802 262.611329 
L 81.888783 262.442695 
L 82.600745 262.611329 
L 82.956725 262.425667 
L 83.312706 264.518879 
L 83.668687 264.518879 
L 84.024668 262.442695 
L 84.380649 264.576615 
L 84.73663 264.576615 
L 85.092611 262.611329 
L 85.448592 264.474578 
L 85.804572 262.507722 
L 86.160553 264.518879 
L 86.516534 264.576615 
L 86.872515 264.518879 
L 87.228496 262.346451 
L 87.584477 262.4172 
L 87.940458 262.820156 
L 88.296438 262.62058 
L 88.652419 264.374577 
L 89.0084 262.516538 
L 89.364381 262.459853 
L 89.720362 262.774588 
L 90.076343 264.474578 
L 90.432324 264.474578 
L 90.788304 262.583816 
L 91.856247 262.681739 
L 92.212228 264.518879 
L 92.568209 264.374577 
L 92.92419 262.681739 
L 93.28017 264.576615 
L 93.636151 262.464162 
L 93.992132 262.346451 
L 94.348113 262.481485 
L 94.704094 264.321759 
L 95.060075 262.62058 
L 95.416056 262.681739 
L 96.128017 262.507722 
L 96.483998 262.611329 
L 96.839979 262.534276 
L 97.551941 262.774588 
L 97.907922 264.518879 
L 98.263903 262.507722 
L 98.975864 262.442695 
L 99.331845 262.653287 
L 99.687826 262.371177 
L 100.043807 262.643889 
L 100.399788 262.744795 
L 100.755769 264.576615 
L 101.111749 262.583816 
L 101.46773 264.576615 
L 101.823711 262.4172 
L 102.179692 264.474578 
L 102.535673 262.507722 
L 102.891654 264.474578 
L 103.247635 264.576615 
L 103.603615 264.437229 
L 103.959596 262.534276 
L 104.671558 262.820156 
L 105.027539 264.474578 
L 105.38352 262.920147 
L 105.739501 264.474578 
L 106.095481 262.534276 
L 107.163424 262.774588 
L 107.875386 262.534276 
L 108.231367 262.754676 
L 108.587347 262.442695 
L 108.943328 264.518879 
L 109.299309 262.744795 
L 109.65529 264.518879 
L 110.011271 264.518879 
L 110.367252 262.62058 
L 110.723233 262.442695 
L 111.079214 264.474578 
L 111.435194 264.374577 
L 111.791175 262.442695 
L 112.503137 262.611329 
L 112.859118 262.840763 
L 113.215099 262.583816 
L 113.57108 262.681739 
L 113.92706 262.459853 
L 114.639022 262.662727 
L 114.995003 262.442695 
L 115.350984 262.371177 
L 115.706965 262.643889 
L 116.062946 264.576615 
L 116.418926 264.404325 
L 116.774907 262.602118 
L 117.486869 262.583816 
L 117.84285 262.681739 
L 118.198831 264.253711 
L 118.554812 262.653287 
L 118.910792 262.920147 
L 119.266773 262.681739 
L 119.978735 262.62058 
L 120.690697 262.375324 
L 121.046678 264.404325 
L 121.402658 262.330109 
L 121.758639 262.643889 
L 122.11462 264.404325 
L 122.826582 264.404325 
L 123.538544 264.716 
L 123.894525 262.744795 
L 124.250505 262.700931 
L 124.606486 264.576615 
L 125.318448 264.518879 
L 125.674429 262.681739 
L 126.03041 262.691312 
L 126.386391 264.518879 
L 126.742371 262.346451 
L 127.098352 264.518879 
L 127.454333 264.576615 
L 127.810314 262.611329 
L 128.166295 262.769591 
L 128.522276 264.404325 
L 128.878257 262.516538 
L 129.234237 262.481485 
L 129.590218 264.518879 
L 129.946199 262.371177 
L 130.30218 262.371177 
L 131.014142 262.534276 
L 131.370123 262.481485 
L 131.726103 262.754676 
L 132.082084 262.851153 
L 132.438065 264.474578 
L 132.794046 262.583816 
L 133.150027 264.474578 
L 133.506008 262.534276 
L 133.861989 262.820156 
L 134.217969 264.374577 
L 134.57395 264.518879 
L 134.929931 262.516538 
L 135.285912 262.62058 
L 135.641893 264.518879 
L 135.997874 262.516538 
L 136.353855 264.404325 
L 136.709836 262.820156 
L 137.065816 262.602118 
L 137.421797 262.516538 
L 137.777778 264.374577 
L 138.133759 262.516538 
L 138.48974 264.576615 
L 138.845721 262.774588 
L 139.557682 262.459853 
L 140.269644 262.583816 
L 140.625625 264.518879 
L 140.981606 262.547674 
L 141.337587 262.611329 
L 141.693568 264.576615 
L 142.049548 262.425667 
L 142.405529 262.653287 
L 142.76151 264.518879 
L 143.117491 262.681739 
L 143.473472 262.543199 
L 143.829453 262.700931 
L 144.185434 262.451258 
L 144.541414 264.474578 
L 144.897395 262.534276 
L 145.253376 264.404325 
L 145.609357 264.404325 
L 145.965338 262.62058 
L 146.321319 264.518879 
L 146.6773 262.516538 
L 147.745242 262.534276 
L 148.101223 264.474578 
L 148.457204 262.459853 
L 148.813185 262.62058 
L 149.169166 264.518879 
L 149.525147 262.583816 
L 149.881127 262.442695 
L 150.593089 262.681739 
L 150.94907 262.507722 
L 151.305051 262.774588 
L 151.661032 262.346451 
L 152.017013 262.754676 
L 152.372993 262.481485 
L 152.728974 262.602118 
L 153.084955 264.518879 
L 153.440936 262.516538 
L 153.796917 262.820156 
L 154.152898 262.851153 
L 154.508879 262.507722 
L 154.864859 264.576615 
L 155.22084 264.518879 
L 155.576821 262.611329 
L 155.932802 264.374577 
L 156.288783 262.442695 
L 156.644764 264.374577 
L 157.000745 262.516538 
L 157.356725 262.611329 
L 157.712706 262.371177 
L 158.068687 262.583816 
L 158.424668 264.576615 
L 158.780649 262.583816 
L 159.13663 262.507722 
L 159.492611 262.583816 
L 159.848592 262.516538 
L 160.204572 264.374577 
L 160.560553 262.543199 
L 160.916534 262.442695 
L 161.272515 262.583816 
L 161.628496 262.534276 
L 161.984477 264.716 
L 162.340458 264.518879 
L 162.696438 262.507722 
L 163.052419 264.576615 
L 163.4084 264.518879 
L 163.764381 262.534276 
L 164.120362 264.404325 
L 164.476343 262.371177 
L 164.832324 264.518879 
L 165.188304 264.474578 
L 165.544285 262.451258 
L 165.900266 264.374577 
L 166.256247 262.62058 
L 166.968209 262.653287 
L 167.32419 262.543199 
L 167.68017 262.611329 
L 168.036151 264.518879 
L 168.392132 262.611329 
L 168.748113 262.754676 
L 169.104094 264.374577 
L 169.460075 262.62058 
L 169.816056 262.507722 
L 170.172036 264.404325 
L 170.528017 262.442695 
L 171.239979 262.681739 
L 171.59596 262.774588 
L 171.951941 262.507722 
L 173.375864 262.744795 
L 173.731845 262.516538 
L 174.443807 262.61595 
L 174.799788 262.371177 
L 175.155769 264.576615 
L 175.511749 262.371177 
L 175.86773 262.481485 
L 176.223711 264.716 
L 176.579692 264.518879 
L 176.935673 262.583816 
L 177.291654 262.538733 
L 177.647635 262.700931 
L 178.003615 264.576615 
L 178.359596 262.681739 
L 178.715577 262.301777 
L 179.071558 262.681739 
L 179.427539 262.4172 
L 180.139501 262.346451 
L 180.851462 262.715445 
L 181.207443 262.754676 
L 181.563424 262.442695 
L 181.919405 262.611329 
L 182.275386 262.451258 
L 182.631367 262.516538 
L 182.987347 262.851153 
L 183.343328 262.516538 
L 183.699309 262.774588 
L 184.05529 262.611329 
L 184.411271 262.611329 
L 184.767252 262.442695 
L 185.123233 264.474578 
L 185.479214 262.481485 
L 185.835194 264.576615 
L 186.191175 262.481485 
L 186.547156 262.851153 
L 186.903137 262.371177 
L 187.259118 264.576615 
L 187.615099 262.681739 
L 187.97108 262.606719 
L 188.32706 262.681739 
L 188.683041 262.583816 
L 189.039022 264.374577 
L 189.395003 262.754676 
L 189.750984 264.518879 
L 190.106965 262.744795 
L 190.462946 262.774588 
L 190.818926 264.374577 
L 191.174907 262.507722 
L 191.530888 264.404325 
L 191.886869 264.576615 
L 192.24285 264.404325 
L 192.598831 262.534276 
L 192.954812 262.583816 
L 193.310792 264.437229 
L 193.666773 262.451258 
L 194.022754 262.774588 
L 194.378735 264.474578 
L 194.734716 262.681739 
L 195.090697 262.534276 
L 195.446678 264.716 
L 195.802658 262.516538 
L 196.158639 262.691312 
L 196.870601 262.681739 
L 197.226582 262.425667 
L 197.582563 264.518879 
L 197.938544 264.576615 
L 198.294525 262.602118 
L 199.006486 262.507722 
L 199.362467 262.681739 
L 199.718448 262.534276 
L 200.074429 262.516538 
L 200.43041 264.576615 
L 201.142371 264.518879 
L 201.498352 262.459853 
L 201.854333 264.576615 
L 202.210314 262.611329 
L 202.566295 262.371177 
L 202.922276 262.602118 
L 203.278257 264.404325 
L 203.634237 262.516538 
L 203.990218 262.583816 
L 204.346199 262.425667 
L 204.70218 262.459853 
L 205.058161 262.681739 
L 205.414142 262.516538 
L 205.770123 264.576615 
L 206.126103 262.602118 
L 206.482084 262.4172 
L 206.838065 264.518879 
L 207.194046 264.518879 
L 207.550027 262.851153 
L 207.906008 264.518879 
L 208.261989 262.371177 
L 208.617969 264.404325 
L 208.97395 264.576615 
L 209.329931 262.611329 
L 209.685912 262.681739 
L 210.041893 262.62058 
L 210.397874 262.442695 
L 210.753855 264.404325 
L 211.109836 262.451258 
L 211.821797 262.547674 
L 212.177778 262.4172 
L 212.533759 262.681739 
L 213.245721 262.451258 
L 213.601702 262.362906 
L 213.957682 262.611329 
L 214.313663 262.481485 
L 215.025625 262.681739 
L 215.381606 264.374577 
L 215.737587 262.442695 
L 216.093568 262.611329 
L 216.449548 264.716 
L 216.805529 264.518879 
L 217.16151 262.774588 
L 217.517491 262.547674 
L 217.873472 262.62058 
L 218.229453 262.543199 
L 218.585434 264.404325 
L 218.941414 264.518879 
L 219.297395 262.4172 
L 219.653376 264.716 
L 220.009357 262.611329 
L 220.365338 262.754676 
L 221.0773 262.362906 
L 221.433281 264.576615 
L 221.789261 264.404325 
L 222.145242 262.774588 
L 222.501223 262.534276 
L 222.857204 262.574723 
L 223.213185 264.576615 
L 223.569166 262.379477 
L 223.925147 262.820156 
L 224.281127 262.715445 
L 224.637108 264.518879 
L 225.34907 264.404325 
L 225.705051 262.442695 
L 226.061032 262.744795 
L 226.417013 262.507722 
L 227.128974 262.4172 
L 227.484955 264.404325 
L 227.840936 262.754676 
L 228.196917 262.442695 
L 228.552898 262.643889 
L 228.908879 264.716 
L 229.264859 264.518879 
L 229.62084 262.516538 
L 229.976821 264.518879 
L 230.332802 264.576615 
L 230.688783 262.681739 
L 231.044764 262.516538 
L 232.112706 262.516538 
L 232.468687 262.930998 
L 232.824668 262.516538 
L 233.53663 262.611329 
L 233.892611 262.371177 
L 234.604572 262.583816 
L 234.960553 264.576615 
L 235.316534 262.516538 
L 235.672515 262.611329 
L 236.028496 262.408764 
L 236.384477 262.691312 
L 236.740458 262.371177 
L 237.096438 262.583816 
L 237.452419 264.576615 
L 237.8084 264.716 
L 238.164381 262.602118 
L 238.520362 264.518879 
L 238.876343 262.611329 
L 239.588304 262.691312 
L 239.944285 262.565669 
L 240.300266 264.518879 
L 240.656247 264.474578 
L 241.012228 262.507722 
L 241.368209 262.840763 
L 241.72419 264.518879 
L 242.08017 262.459853 
L 242.436151 262.293743 
L 242.792132 262.611329 
L 243.148113 264.576615 
L 243.504094 262.442695 
L 243.860075 262.681739 
L 244.216056 262.516538 
L 244.572036 262.774588 
L 244.928017 262.840763 
L 245.283998 262.534276 
L 245.639979 262.442695 
L 245.99596 262.602118 
L 246.351941 264.576615 
L 246.707922 264.404325 
L 247.063903 262.700931 
L 247.419883 262.534276 
L 248.487826 262.442695 
L 248.843807 262.602118 
L 249.199788 262.602118 
L 249.555769 264.518879 
L 249.911749 262.583816 
L 250.26773 262.8616 
L 250.623711 262.611329 
L 250.979692 264.576615 
L 251.335673 262.754676 
L 251.691654 262.442695 
L 252.047635 262.754676 
L 252.403615 264.518879 
L 252.759596 262.583816 
L 253.115577 262.820156 
L 253.471558 262.784621 
L 253.827539 264.576615 
L 254.18352 264.576615 
L 254.539501 262.602118 
L 254.895481 262.681739 
L 255.251462 264.374577 
L 255.607443 262.534276 
L 255.963424 262.362906 
L 256.319405 264.518879 
L 256.675386 262.442695 
L 257.031367 264.404325 
L 257.387347 262.583816 
L 257.743328 262.379477 
L 258.099309 262.653287 
L 258.45529 264.474578 
L 258.811271 262.534276 
L 259.167252 264.474578 
L 259.523233 262.346451 
L 260.235194 262.611329 
L 260.947156 262.653287 
L 261.303137 264.716 
L 261.659118 262.4172 
L 262.015099 262.516538 
L 262.37108 264.474578 
L 262.72706 262.774588 
L 263.083041 262.681739 
L 263.439022 262.442695 
L 264.150984 262.941915 
L 264.506965 264.474578 
L 264.862946 262.681739 
L 265.218926 262.534276 
L 265.574907 262.700931 
L 265.930888 262.442695 
L 266.64285 262.611329 
L 266.998831 264.437229 
L 267.354812 264.518879 
L 267.710792 262.442695 
L 268.066773 264.474578 
L 268.422754 264.404325 
L 268.778735 262.611329 
L 269.134716 264.437229 
L 269.846678 264.576615 
L 270.202658 262.774588 
L 270.558639 262.534276 
L 270.91462 262.754676 
L 271.270601 262.611329 
L 271.626582 262.346451 
L 271.982563 262.583816 
L 272.338544 262.362906 
L 272.694525 262.602118 
L 273.050505 262.62058 
L 273.406486 262.438426 
L 273.762467 262.611329 
L 274.474429 262.481485 
L 274.83041 262.774588 
L 275.186391 264.518879 
L 275.542371 264.297844 
L 275.898352 264.404325 
L 276.254333 262.516538 
L 276.610314 262.715445 
L 277.322276 262.700931 
L 277.678257 262.681739 
L 278.034237 262.774588 
L 278.390218 262.602118 
L 279.10218 262.507722 
L 279.458161 264.474578 
L 279.814142 262.538733 
L 280.170123 262.583816 
L 280.526103 264.518879 
L 280.882084 262.681739 
L 281.238065 262.662727 
L 281.594046 264.474578 
L 282.306008 264.374577 
L 282.661989 262.442695 
L 283.017969 262.507722 
L 283.37395 264.404325 
L 283.729931 264.374577 
L 284.085912 262.744795 
L 284.797874 262.442695 
L 285.153855 264.404325 
L 285.509836 264.374577 
L 285.865816 262.565669 
L 286.221797 262.691312 
L 286.577778 262.653287 
L 286.933759 264.576615 
L 287.28974 262.442695 
L 288.001702 262.516538 
L 288.357682 264.576615 
L 288.713663 264.576615 
L 289.069644 262.602118 
L 289.425625 262.481485 
L 289.781606 262.754676 
L 290.137587 264.518879 
L 290.493568 262.459853 
L 291.205529 262.774588 
L 291.56151 264.518879 
L 291.917491 262.611329 
L 292.273472 262.681739 
L 292.629453 264.518879 
L 292.985434 262.691312 
L 293.341414 262.62058 
L 293.697395 264.437229 
L 294.053376 262.442695 
L 294.409357 262.744795 
L 294.765338 262.681739 
L 295.121319 264.321759 
L 295.4773 264.716 
L 295.833281 262.534276 
L 296.189261 264.518879 
L 296.545242 262.681739 
L 296.901223 262.681739 
L 297.257204 264.474578 
L 297.613185 262.611329 
L 297.969166 262.534276 
L 298.325147 262.681739 
L 298.681127 262.516538 
L 299.037108 262.602118 
L 299.393089 264.576615 
L 299.74907 262.653287 
L 300.105051 262.516538 
L 300.817013 262.744795 
L 301.172993 262.442695 
L 301.528974 262.744795 
L 301.884955 262.681739 
L 302.240936 262.774588 
L 303.308879 262.371177 
L 303.664859 264.576615 
L 304.02084 262.611329 
L 304.376821 262.744795 
L 304.732802 264.576615 
L 305.088783 262.507722 
L 305.444764 262.611329 
L 306.156725 262.507722 
L 306.512706 264.404325 
L 306.868687 262.744795 
L 307.224668 264.518879 
L 307.580649 264.716 
L 307.93663 262.602118 
L 308.292611 262.516538 
L 308.648592 264.518879 
L 309.004572 262.611329 
L 309.360553 262.362906 
L 310.428496 262.602118 
L 310.784477 262.371177 
L 311.140458 262.534276 
L 311.852419 262.442695 
L 312.2084 262.611329 
L 312.564381 262.442695 
L 312.920362 262.481485 
L 313.276343 262.346451 
L 313.632324 262.534276 
L 313.988304 264.716 
L 314.344285 264.253711 
L 314.700266 262.442695 
L 315.056247 262.611329 
L 315.412228 264.404325 
L 315.768209 264.518879 
L 316.12419 262.583816 
L 316.48017 264.518879 
L 316.836151 262.583816 
L 317.548113 262.516538 
L 317.904094 264.474578 
L 318.260075 262.611329 
L 318.616056 262.744795 
L 319.328017 262.602118 
L 319.683998 264.716 
L 320.039979 262.583816 
L 320.39596 262.507722 
L 320.751941 262.700931 
L 321.107922 262.611329 
L 321.463903 264.474578 
L 321.819883 262.534276 
L 322.531845 262.442695 
L 322.887826 262.681739 
L 323.243807 262.547674 
L 323.599788 262.62058 
L 323.955769 262.346451 
L 324.311749 264.518879 
L 324.66773 262.611329 
L 325.379692 262.371177 
L 325.735673 262.611329 
L 326.091654 264.404325 
L 326.447635 264.716 
L 326.803615 262.534276 
L 327.515577 262.481485 
L 328.227539 262.920147 
L 328.58352 262.583816 
L 328.939501 262.547674 
L 329.295481 264.374577 
L 329.651462 262.611329 
L 330.007443 262.602118 
L 330.363424 264.576615 
L 330.719405 262.507722 
L 331.075386 262.754676 
L 331.431367 262.681739 
L 331.787347 264.518879 
L 332.143328 262.516538 
L 332.85529 262.62058 
L 333.211271 264.518879 
L 333.567252 262.8616 
L 333.923233 264.518879 
L 334.279214 262.681739 
L 334.635194 262.534276 
L 334.991175 262.583816 
L 335.347156 264.404325 
L 335.703137 262.534276 
L 336.059118 262.851153 
L 336.415099 262.507722 
L 336.77108 262.583816 
L 337.12706 262.820156 
L 337.483041 262.602118 
L 337.839022 262.583816 
L 338.195003 264.374577 
L 338.550984 262.442695 
L 338.906965 262.534276 
L 339.262946 264.716 
L 339.618926 264.518879 
L 339.974907 262.565669 
L 340.330888 262.507722 
L 340.686869 264.518879 
L 341.04285 262.516538 
L 341.398831 264.576615 
L 341.754812 262.534276 
L 342.110792 262.425667 
L 342.466773 264.518879 
L 342.822754 262.481485 
L 343.178735 262.507722 
L 343.534716 264.474578 
L 343.890697 264.716 
L 344.246678 264.437229 
L 344.602658 264.518879 
L 344.958639 262.481485 
L 345.31462 262.362906 
L 345.670601 262.602118 
L 346.026582 262.442695 
L 346.382563 264.576615 
L 346.738544 262.784621 
L 347.094525 264.321759 
L 347.450505 262.481485 
L 347.806486 264.576615 
L 348.162467 262.62058 
L 348.518448 262.754676 
L 348.874429 262.534276 
L 349.23041 264.518879 
L 349.586391 262.481485 
L 349.942371 264.518879 
L 350.298352 262.602118 
L 350.654333 262.379477 
L 351.010314 264.576615 
L 351.366295 262.313878 
L 351.722276 262.774588 
L 352.434237 262.700931 
L 352.790218 262.362906 
L 353.146199 262.643889 
L 353.50218 262.754676 
L 353.858161 264.518879 
L 354.214142 262.681739 
L 354.570123 264.374577 
L 354.926103 262.507722 
L 355.282084 262.583816 
L 355.638065 264.576615 
L 355.994046 262.507722 
L 356.350027 262.920147 
L 356.706008 264.297844 
L 357.061989 262.534276 
L 357.417969 262.681739 
L 357.77395 264.374577 
L 358.129931 262.516538 
L 358.485912 262.62058 
L 358.841893 262.346451 
L 359.197874 262.681739 
L 359.553855 264.374577 
L 359.909836 262.611329 
L 360.265816 262.277754 
L 360.621797 264.576615 
L 360.977778 262.442695 
L 361.68974 262.662727 
L 362.401702 262.346451 
L 362.757682 262.8616 
L 363.113663 262.172458 
L 363.469644 264.518879 
L 363.825625 262.840763 
L 364.181606 262.840763 
L 364.537587 262.681739 
L 365.249548 262.643889 
L 365.605529 262.534276 
L 365.96151 264.576615 
L 366.317491 264.404325 
L 366.673472 262.442695 
L 367.029453 262.534276 
L 367.385434 262.362906 
L 368.097395 262.408764 
L 368.453376 262.346451 
L 368.809357 264.518879 
L 369.165338 262.681739 
L 369.8773 262.442695 
L 370.233281 264.474578 
L 370.589261 262.516538 
L 370.945242 264.576615 
L 371.301223 262.516538 
L 371.657204 264.576615 
L 372.013185 262.534276 
L 372.369166 262.507722 
L 372.725147 262.602118 
L 373.081127 264.576615 
L 373.793089 264.518879 
L 374.14907 262.700931 
L 374.505051 262.583816 
L 374.861032 262.681739 
L 375.217013 264.576615 
L 375.572993 262.408764 
L 375.928974 264.213439 
L 376.284955 262.691312 
L 376.640936 262.534276 
L 376.996917 264.576615 
L 377.352898 262.516538 
L 377.352898 262.516538 
" style="fill:none;stroke:#1f77b4;stroke-linecap:square;stroke-width:1.5;"/>
   </g>
   <g id="patch_3">
    <path d="M 36.465625 276.812 
L 36.465625 10.7 
" style="fill:none;stroke:#000000;stroke-linecap:square;stroke-linejoin:miter;stroke-width:0.8;"/>
   </g>
   <g id="patch_4">
    <path d="M 393.585625 276.812 
L 393.585625 10.7 
" style="fill:none;stroke:#000000;stroke-linecap:square;stroke-linejoin:miter;stroke-width:0.8;"/>
   </g>
   <g id="patch_5">
    <path d="M 36.465625 276.812 
L 393.585625 276.812 
" style="fill:none;stroke:#000000;stroke-linecap:square;stroke-linejoin:miter;stroke-width:0.8;"/>
   </g>
   <g id="patch_6">
    <path d="M 36.465625 10.7 
L 393.585625 10.7 
" style="fill:none;stroke:#000000;stroke-linecap:square;stroke-linejoin:miter;stroke-width:0.8;"/>
   </g>
  </g>
 </g>
 <defs>
  <clipPath id="p62a465f1ae">
   <rect height="266.112" width="357.12" x="36.465625" y="10.7"/>
  </clipPath>
 </defs>
</svg>
