<?xml version="1.0" encoding="utf-8" standalone="no"?>
<!DOCTYPE svg PUBLIC "-//W3C//DTD SVG 1.1//EN"
  "http://www.w3.org/Graphics/SVG/1.1/DTD/svg11.dtd">
<!-- Created with matplotlib (http://matplotlib.org/) -->
<svg height="252.018125pt" version="1.1" viewBox="0 0 376.72956 252.018125" width="376.72956pt" xmlns="http://www.w3.org/2000/svg" xmlns:xlink="http://www.w3.org/1999/xlink">
 <defs>
  <style type="text/css">
*{stroke-linecap:butt;stroke-linejoin:round;}
  </style>
 </defs>
 <g id="figure_1">
  <g id="patch_1">
   <path d="M 0 252.018125 
L 376.72956 252.018125 
L 376.72956 0 
L 0 0 
z
" style="fill:#ffffff;"/>
  </g>
  <g id="axes_1">
   <g id="patch_2">
    <path d="M 30.103125 228.14 
L 364.903125 228.14 
L 364.903125 10.7 
L 30.103125 10.7 
z
" style="fill:#ffffff;"/>
   </g>
   <g id="matplotlib.axis_1">
    <g id="xtick_1">
     <g id="line2d_1">
      <defs>
       <path d="M 0 0 
L 0 3.5 
" id="m6091ebc0c7" style="stroke:#000000;stroke-width:0.8;"/>
      </defs>
      <g>
       <use style="stroke:#000000;stroke-width:0.8;" x="45.321307" xlink:href="#m6091ebc0c7" y="228.14"/>
      </g>
     </g>
     <g id="text_1">
      <!-- 0 -->
      <defs>
       <path d="M 31.78125 66.40625 
Q 24.171875 66.40625 20.328125 58.90625 
Q 16.5 51.421875 16.5 36.375 
Q 16.5 21.390625 20.328125 13.890625 
Q 24.171875 6.390625 31.78125 6.390625 
Q 39.453125 6.390625 43.28125 13.890625 
Q 47.125 21.390625 47.125 36.375 
Q 47.125 51.421875 43.28125 58.90625 
Q 39.453125 66.40625 31.78125 66.40625 
z
M 31.78125 74.21875 
Q 44.046875 74.21875 50.515625 64.515625 
Q 56.984375 54.828125 56.984375 36.375 
Q 56.984375 17.96875 50.515625 8.265625 
Q 44.046875 -1.421875 31.78125 -1.421875 
Q 19.53125 -1.421875 13.0625 8.265625 
Q 6.59375 17.96875 6.59375 36.375 
Q 6.59375 54.828125 13.0625 64.515625 
Q 19.53125 74.21875 31.78125 74.21875 
z
" id="DejaVuSans-30"/>
      </defs>
      <g transform="translate(42.140057 242.738437)scale(0.1 -0.1)">
       <use xlink:href="#DejaVuSans-30"/>
      </g>
     </g>
    </g>
    <g id="xtick_2">
     <g id="line2d_2">
      <g>
       <use style="stroke:#000000;stroke-width:0.8;" x="89.818914" xlink:href="#m6091ebc0c7" y="228.14"/>
      </g>
     </g>
     <g id="text_2">
      <!-- 250 -->
      <defs>
       <path d="M 19.1875 8.296875 
L 53.609375 8.296875 
L 53.609375 0 
L 7.328125 0 
L 7.328125 8.296875 
Q 12.9375 14.109375 22.625 23.890625 
Q 32.328125 33.6875 34.8125 36.53125 
Q 39.546875 41.84375 41.421875 45.53125 
Q 43.3125 49.21875 43.3125 52.78125 
Q 43.3125 58.59375 39.234375 62.25 
Q 35.15625 65.921875 28.609375 65.921875 
Q 23.96875 65.921875 18.8125 64.3125 
Q 13.671875 62.703125 7.8125 59.421875 
L 7.8125 69.390625 
Q 13.765625 71.78125 18.9375 73 
Q 24.125 74.21875 28.421875 74.21875 
Q 39.75 74.21875 46.484375 68.546875 
Q 53.21875 62.890625 53.21875 53.421875 
Q 53.21875 48.921875 51.53125 44.890625 
Q 49.859375 40.875 45.40625 35.40625 
Q 44.1875 33.984375 37.640625 27.21875 
Q 31.109375 20.453125 19.1875 8.296875 
z
" id="DejaVuSans-32"/>
       <path d="M 10.796875 72.90625 
L 49.515625 72.90625 
L 49.515625 64.59375 
L 19.828125 64.59375 
L 19.828125 46.734375 
Q 21.96875 47.46875 24.109375 47.828125 
Q 26.265625 48.1875 28.421875 48.1875 
Q 40.625 48.1875 47.75 41.5 
Q 54.890625 34.8125 54.890625 23.390625 
Q 54.890625 11.625 47.5625 5.09375 
Q 40.234375 -1.421875 26.90625 -1.421875 
Q 22.3125 -1.421875 17.546875 -0.640625 
Q 12.796875 0.140625 7.71875 1.703125 
L 7.71875 11.625 
Q 12.109375 9.234375 16.796875 8.0625 
Q 21.484375 6.890625 26.703125 6.890625 
Q 35.15625 6.890625 40.078125 11.328125 
Q 45.015625 15.765625 45.015625 23.390625 
Q 45.015625 31 40.078125 35.4375 
Q 35.15625 39.890625 26.703125 39.890625 
Q 22.75 39.890625 18.8125 39.015625 
Q 14.890625 38.140625 10.796875 36.28125 
z
" id="DejaVuSans-35"/>
      </defs>
      <g transform="translate(80.275164 242.738437)scale(0.1 -0.1)">
       <use xlink:href="#DejaVuSans-32"/>
       <use x="63.623047" xlink:href="#DejaVuSans-35"/>
       <use x="127.246094" xlink:href="#DejaVuSans-30"/>
      </g>
     </g>
    </g>
    <g id="xtick_3">
     <g id="line2d_3">
      <g>
       <use style="stroke:#000000;stroke-width:0.8;" x="134.316522" xlink:href="#m6091ebc0c7" y="228.14"/>
      </g>
     </g>
     <g id="text_3">
      <!-- 500 -->
      <g transform="translate(124.772772 242.738437)scale(0.1 -0.1)">
       <use xlink:href="#DejaVuSans-35"/>
       <use x="63.623047" xlink:href="#DejaVuSans-30"/>
       <use x="127.246094" xlink:href="#DejaVuSans-30"/>
      </g>
     </g>
    </g>
    <g id="xtick_4">
     <g id="line2d_4">
      <g>
       <use style="stroke:#000000;stroke-width:0.8;" x="178.81413" xlink:href="#m6091ebc0c7" y="228.14"/>
      </g>
     </g>
     <g id="text_4">
      <!-- 750 -->
      <defs>
       <path d="M 8.203125 72.90625 
L 55.078125 72.90625 
L 55.078125 68.703125 
L 28.609375 0 
L 18.3125 0 
L 43.21875 64.59375 
L 8.203125 64.59375 
z
" id="DejaVuSans-37"/>
      </defs>
      <g transform="translate(169.27038 242.738437)scale(0.1 -0.1)">
       <use xlink:href="#DejaVuSans-37"/>
       <use x="63.623047" xlink:href="#DejaVuSans-35"/>
       <use x="127.246094" xlink:href="#DejaVuSans-30"/>
      </g>
     </g>
    </g>
    <g id="xtick_5">
     <g id="line2d_5">
      <g>
       <use style="stroke:#000000;stroke-width:0.8;" x="223.311737" xlink:href="#m6091ebc0c7" y="228.14"/>
      </g>
     </g>
     <g id="text_5">
      <!-- 1000 -->
      <defs>
       <path d="M 12.40625 8.296875 
L 28.515625 8.296875 
L 28.515625 63.921875 
L 10.984375 60.40625 
L 10.984375 69.390625 
L 28.421875 72.90625 
L 38.28125 72.90625 
L 38.28125 8.296875 
L 54.390625 8.296875 
L 54.390625 0 
L 12.40625 0 
z
" id="DejaVuSans-31"/>
      </defs>
      <g transform="translate(210.586737 242.738437)scale(0.1 -0.1)">
       <use xlink:href="#DejaVuSans-31"/>
       <use x="63.623047" xlink:href="#DejaVuSans-30"/>
       <use x="127.246094" xlink:href="#DejaVuSans-30"/>
       <use x="190.869141" xlink:href="#DejaVuSans-30"/>
      </g>
     </g>
    </g>
    <g id="xtick_6">
     <g id="line2d_6">
      <g>
       <use style="stroke:#000000;stroke-width:0.8;" x="267.809345" xlink:href="#m6091ebc0c7" y="228.14"/>
      </g>
     </g>
     <g id="text_6">
      <!-- 1250 -->
      <g transform="translate(255.084345 242.738437)scale(0.1 -0.1)">
       <use xlink:href="#DejaVuSans-31"/>
       <use x="63.623047" xlink:href="#DejaVuSans-32"/>
       <use x="127.246094" xlink:href="#DejaVuSans-35"/>
       <use x="190.869141" xlink:href="#DejaVuSans-30"/>
      </g>
     </g>
    </g>
    <g id="xtick_7">
     <g id="line2d_7">
      <g>
       <use style="stroke:#000000;stroke-width:0.8;" x="312.306953" xlink:href="#m6091ebc0c7" y="228.14"/>
      </g>
     </g>
     <g id="text_7">
      <!-- 1500 -->
      <g transform="translate(299.581953 242.738437)scale(0.1 -0.1)">
       <use xlink:href="#DejaVuSans-31"/>
       <use x="63.623047" xlink:href="#DejaVuSans-35"/>
       <use x="127.246094" xlink:href="#DejaVuSans-30"/>
       <use x="190.869141" xlink:href="#DejaVuSans-30"/>
      </g>
     </g>
    </g>
    <g id="xtick_8">
     <g id="line2d_8">
      <g>
       <use style="stroke:#000000;stroke-width:0.8;" x="356.80456" xlink:href="#m6091ebc0c7" y="228.14"/>
      </g>
     </g>
     <g id="text_8">
      <!-- 1750 -->
      <g transform="translate(344.07956 242.738437)scale(0.1 -0.1)">
       <use xlink:href="#DejaVuSans-31"/>
       <use x="63.623047" xlink:href="#DejaVuSans-37"/>
       <use x="127.246094" xlink:href="#DejaVuSans-35"/>
       <use x="190.869141" xlink:href="#DejaVuSans-30"/>
      </g>
     </g>
    </g>
   </g>
   <g id="matplotlib.axis_2">
    <g id="ytick_1">
     <g id="line2d_9">
      <defs>
       <path d="M 0 0 
L -3.5 0 
" id="mef83de40a5" style="stroke:#000000;stroke-width:0.8;"/>
      </defs>
      <g>
       <use style="stroke:#000000;stroke-width:0.8;" x="30.103125" xlink:href="#mef83de40a5" y="218.692955"/>
      </g>
     </g>
     <g id="text_9">
      <!-- 0.0 -->
      <defs>
       <path d="M 10.6875 12.40625 
L 21 12.40625 
L 21 0 
L 10.6875 0 
z
" id="DejaVuSans-2e"/>
      </defs>
      <g transform="translate(7.2 222.492174)scale(0.1 -0.1)">
       <use xlink:href="#DejaVuSans-30"/>
       <use x="63.623047" xlink:href="#DejaVuSans-2e"/>
       <use x="95.410156" xlink:href="#DejaVuSans-30"/>
      </g>
     </g>
    </g>
    <g id="ytick_2">
     <g id="line2d_10">
      <g>
       <use style="stroke:#000000;stroke-width:0.8;" x="30.103125" xlink:href="#mef83de40a5" y="181.279571"/>
      </g>
     </g>
     <g id="text_10">
      <!-- 0.5 -->
      <g transform="translate(7.2 185.07879)scale(0.1 -0.1)">
       <use xlink:href="#DejaVuSans-30"/>
       <use x="63.623047" xlink:href="#DejaVuSans-2e"/>
       <use x="95.410156" xlink:href="#DejaVuSans-35"/>
      </g>
     </g>
    </g>
    <g id="ytick_3">
     <g id="line2d_11">
      <g>
       <use style="stroke:#000000;stroke-width:0.8;" x="30.103125" xlink:href="#mef83de40a5" y="143.866187"/>
      </g>
     </g>
     <g id="text_11">
      <!-- 1.0 -->
      <g transform="translate(7.2 147.665406)scale(0.1 -0.1)">
       <use xlink:href="#DejaVuSans-31"/>
       <use x="63.623047" xlink:href="#DejaVuSans-2e"/>
       <use x="95.410156" xlink:href="#DejaVuSans-30"/>
      </g>
     </g>
    </g>
    <g id="ytick_4">
     <g id="line2d_12">
      <g>
       <use style="stroke:#000000;stroke-width:0.8;" x="30.103125" xlink:href="#mef83de40a5" y="106.452803"/>
      </g>
     </g>
     <g id="text_12">
      <!-- 1.5 -->
      <g transform="translate(7.2 110.252022)scale(0.1 -0.1)">
       <use xlink:href="#DejaVuSans-31"/>
       <use x="63.623047" xlink:href="#DejaVuSans-2e"/>
       <use x="95.410156" xlink:href="#DejaVuSans-35"/>
      </g>
     </g>
    </g>
    <g id="ytick_5">
     <g id="line2d_13">
      <g>
       <use style="stroke:#000000;stroke-width:0.8;" x="30.103125" xlink:href="#mef83de40a5" y="69.039419"/>
      </g>
     </g>
     <g id="text_13">
      <!-- 2.0 -->
      <g transform="translate(7.2 72.838638)scale(0.1 -0.1)">
       <use xlink:href="#DejaVuSans-32"/>
       <use x="63.623047" xlink:href="#DejaVuSans-2e"/>
       <use x="95.410156" xlink:href="#DejaVuSans-30"/>
      </g>
     </g>
    </g>
    <g id="ytick_6">
     <g id="line2d_14">
      <g>
       <use style="stroke:#000000;stroke-width:0.8;" x="30.103125" xlink:href="#mef83de40a5" y="31.626035"/>
      </g>
     </g>
     <g id="text_14">
      <!-- 2.5 -->
      <g transform="translate(7.2 35.425254)scale(0.1 -0.1)">
       <use xlink:href="#DejaVuSans-32"/>
       <use x="63.623047" xlink:href="#DejaVuSans-2e"/>
       <use x="95.410156" xlink:href="#DejaVuSans-35"/>
      </g>
     </g>
    </g>
   </g>
   <g id="line2d_15">
    <path clip-path="url(#pca127e8894)" d="M 45.321307 184.089504 
L 45.499297 169.924453 
L 45.677288 105.725325 
L 46.033269 131.79963 
L 46.389249 76.528551 
L 46.56724 120.514619 
L 46.74523 54.600816 
L 46.923221 158.077218 
L 47.101211 146.183744 
L 47.279202 198.665991 
L 47.457192 193.863614 
L 47.635182 196.08992 
L 47.813173 202.250787 
L 47.991163 204.5285 
L 48.169154 180.640324 
L 48.347144 203.783933 
L 48.525135 200.113273 
L 48.703125 203.225049 
L 48.881115 198.176262 
L 49.237096 214.750719 
L 49.415087 203.755407 
L 49.771068 215.28773 
L 50.127048 205.006671 
L 50.305039 213.141775 
L 50.483029 214.09318 
L 50.66102 213.414592 
L 50.83901 208.259428 
L 51.017001 212.523769 
L 51.194991 213.746419 
L 51.372981 213.045887 
L 51.550972 217.405196 
L 51.728962 210.313511 
L 51.906953 213.313839 
L 52.084943 207.522701 
L 52.262934 213.063918 
L 52.440924 213.020628 
L 52.618914 215.765296 
L 52.796905 201.612989 
L 52.974895 204.602031 
L 53.152886 195.556501 
L 53.330876 134.241636 
L 53.686857 198.470405 
L 53.864847 209.825028 
L 54.042838 205.176947 
L 54.220828 210.285124 
L 54.398819 206.153839 
L 54.7548 215.129985 
L 54.93279 195.690906 
L 55.110781 158.91778 
L 55.288771 173.048871 
L 55.466761 216.105131 
L 55.822742 205.727591 
L 56.000733 207.12617 
L 56.178723 194.604351 
L 56.356714 194.564951 
L 56.712694 197.009996 
L 56.890685 191.637796 
L 57.068675 211.770539 
L 57.246666 210.785147 
L 57.424656 202.716259 
L 57.602647 206.571223 
L 57.780637 207.511614 
L 58.136618 201.883907 
L 58.314608 206.808901 
L 58.492599 216.42436 
L 58.670589 187.117011 
L 58.84858 204.00613 
L 59.02657 202.743922 
L 59.20456 211.770539 
L 59.382551 200.374669 
L 59.560541 200.583099 
L 59.738532 207.494864 
L 59.916522 195.413591 
L 60.094513 205.191998 
L 60.272503 138.368624 
L 60.450493 200.315625 
L 60.628484 196.459497 
L 60.984465 207.302189 
L 61.162455 199.922238 
L 61.340446 202.369072 
L 61.696426 196.725572 
L 61.874417 189.826269 
L 62.052407 187.800613 
L 62.230398 170.709078 
L 62.408388 200.887559 
L 62.586379 200.633339 
L 62.764369 209.650139 
L 62.942359 196.821374 
L 63.12035 208.785443 
L 63.29834 188.946913 
L 63.476331 211.144007 
L 63.654321 206.902026 
L 63.832312 196.532632 
L 64.010302 197.089552 
L 64.188292 214.459295 
L 64.366283 189.834524 
L 64.544273 215.699836 
L 64.900254 191.911126 
L 65.078245 212.588478 
L 65.256235 206.976626 
L 65.434225 196.844334 
L 65.612216 208.805665 
L 65.790206 209.912874 
L 65.968197 210.310857 
L 66.146187 210.24028 
L 66.324178 207.232122 
L 66.502168 214.395986 
L 66.680158 209.610877 
L 66.858149 175.507552 
L 67.036139 204.478349 
L 67.21413 197.591997 
L 67.39212 206.827896 
L 67.570111 208.752151 
L 67.748101 207.475873 
L 67.926092 204.419023 
L 68.282072 212.614032 
L 68.460063 209.519342 
L 68.638053 215.14428 
L 68.994034 207.300794 
L 69.172025 181.32302 
L 69.350015 207.964588 
L 69.528005 209.508267 
L 69.705996 190.787293 
L 69.883986 206.589057 
L 70.061977 182.956597 
L 70.417958 208.809521 
L 70.595948 207.103395 
L 70.773938 177.01415 
L 70.951929 206.118924 
L 71.129919 212.275905 
L 71.4859 198.34496 
L 71.663891 185.785538 
L 71.841881 204.171454 
L 72.019871 206.030804 
L 72.375852 199.212796 
L 72.553843 216.746979 
L 72.731833 215.184796 
L 72.909824 215.503547 
L 73.087814 197.902468 
L 73.265804 207.836542 
L 73.443795 172.571405 
L 73.799776 206.45126 
L 74.155757 195.393265 
L 74.511737 205.924868 
L 74.689728 189.782611 
L 74.867718 192.592002 
L 75.045709 203.664869 
L 75.223699 203.80163 
L 75.40169 198.331069 
L 75.57968 198.025688 
L 75.75767 194.510632 
L 75.935661 195.81124 
L 76.113651 215.530555 
L 76.291642 213.341668 
L 76.469632 194.903338 
L 76.647623 188.17838 
L 76.825613 209.244342 
L 77.003603 193.673189 
L 77.181594 192.853907 
L 77.537575 213.623355 
L 77.715565 213.864721 
L 77.893556 201.134603 
L 78.071546 215.584253 
L 78.249536 215.112197 
L 78.605517 193.377939 
L 78.961498 192.562441 
L 79.139489 202.300324 
L 79.495469 181.617212 
L 79.67346 202.96496 
L 79.85145 206.909304 
L 80.029441 192.197343 
L 80.207431 215.850078 
L 80.385422 199.04182 
L 80.563412 215.776168 
L 80.741403 195.065608 
L 80.919393 202.21296 
L 81.275374 194.67792 
L 81.453364 210.076128 
L 81.809345 204.535231 
L 81.987336 198.990801 
L 82.165326 211.385211 
L 82.343316 204.344658 
L 82.521307 186.892145 
L 82.877288 205.669649 
L 83.233269 204.158989 
L 83.411259 206.000482 
L 83.589249 215.506536 
L 83.76724 209.210109 
L 83.94523 213.827361 
L 84.123221 205.924122 
L 84.301211 215.260781 
L 84.657192 214.198679 
L 84.835182 216.637418 
L 85.013173 211.428377 
L 85.191163 193.733957 
L 85.369154 198.165116 
L 85.547144 189.746591 
L 85.725135 204.794075 
L 85.903125 197.827425 
L 86.259106 205.267034 
L 86.437096 202.850647 
L 86.615087 203.637413 
L 86.793077 207.776718 
L 86.971068 196.735119 
L 87.149058 207.914956 
L 87.327048 209.529044 
L 87.505039 210.076866 
L 87.683029 202.056403 
L 87.86102 206.612703 
L 88.03901 200.880245 
L 88.217001 216.013456 
L 88.394991 203.84607 
L 88.750972 200.395492 
L 88.928962 211.954723 
L 89.106953 203.635303 
L 89.284943 182.778004 
L 89.462934 185.717643 
L 89.640924 192.739938 
L 89.818914 154.323597 
L 89.996905 196.728465 
L 90.174895 195.435981 
L 90.352886 209.816076 
L 90.530876 202.694997 
L 90.886857 214.225621 
L 91.064847 214.457044 
L 91.242838 216.256896 
L 91.420828 215.693474 
L 91.776809 209.927359 
L 91.9548 214.823104 
L 92.13279 211.481045 
L 92.310781 211.262775 
L 92.666761 206.38423 
L 93.022742 215.006408 
L 93.200733 212.371672 
L 93.378723 211.972191 
L 93.556714 207.278507 
L 93.734704 209.20877 
L 93.912694 208.957524 
L 94.090685 203.307836 
L 94.268675 203.892575 
L 94.446666 198.976134 
L 94.624656 200.636505 
L 94.802647 204.218785 
L 94.980637 200.543146 
L 95.158627 209.59969 
L 95.514608 195.544146 
L 95.692599 165.78501 
L 95.870589 173.831779 
L 96.22657 147.138985 
L 96.40456 210.616607 
L 96.760541 196.78596 
L 96.938532 207.462852 
L 97.116522 201.068506 
L 97.294513 211.575491 
L 97.472503 206.146241 
L 97.650493 188.785339 
L 97.828484 182.324963 
L 98.006474 186.007262 
L 98.184465 181.475757 
L 98.362455 203.219094 
L 98.540446 125.099282 
L 98.718436 199.100917 
L 98.896426 210.833908 
L 99.074417 189.685744 
L 99.252407 195.081209 
L 99.430398 196.845207 
L 99.608388 189.700753 
L 99.786379 198.809749 
L 99.964369 198.064152 
L 100.142359 198.898303 
L 100.32035 183.924461 
L 100.49834 194.61873 
L 100.676331 195.886755 
L 101.032312 185.624998 
L 101.210302 195.891631 
L 101.388292 196.735554 
L 101.566283 196.039519 
L 101.744273 206.378811 
L 101.922264 207.718668 
L 102.100254 209.989919 
L 102.278245 209.140348 
L 102.634225 174.927647 
L 102.812216 180.183971 
L 102.990206 181.028259 
L 103.346187 192.045266 
L 103.524178 198.85726 
L 103.702168 200.024742 
L 103.880158 183.456586 
L 104.058149 186.50223 
L 104.236139 178.84466 
L 104.41413 191.778716 
L 104.59212 188.604138 
L 104.770111 198.306121 
L 104.948101 182.438701 
L 105.126092 177.691014 
L 105.482072 206.4814 
L 105.660063 166.563459 
L 106.016044 207.284075 
L 106.194034 213.458713 
L 106.372025 206.809436 
L 106.550015 212.574962 
L 106.905996 200.66415 
L 107.083986 215.190234 
L 107.439967 191.4704 
L 107.795948 213.182557 
L 107.973938 200.484604 
L 108.151929 200.637385 
L 108.329919 205.287872 
L 108.50791 206.192154 
L 108.6859 205.267033 
L 108.863891 214.455545 
L 109.041881 204.955469 
L 109.219871 205.440654 
L 109.397862 214.973806 
L 109.575852 204.544209 
L 109.753843 214.648885 
L 109.931833 193.52204 
L 110.109824 202.797794 
L 110.287814 202.06557 
L 110.465804 199.2474 
L 110.643795 212.864284 
L 110.821785 205.918898 
L 110.999776 213.40978 
L 111.177766 190.712256 
L 111.355757 206.782732 
L 111.533747 210.94956 
L 111.711737 190.902398 
L 111.889728 188.420353 
L 112.067718 214.379015 
L 112.245709 194.272577 
L 112.423699 191.731307 
L 112.60169 170.47666 
L 112.77968 203.564579 
L 112.95767 168.638063 
L 113.135661 209.285451 
L 113.313651 204.713623 
L 113.491642 204.65353 
L 113.669632 204.956163 
L 113.847623 195.130371 
L 114.025613 196.569363 
L 114.203603 207.37269 
L 114.559584 194.971674 
L 114.737575 161.02158 
L 114.915565 179.523312 
L 115.093556 172.985235 
L 115.271546 204.034493 
L 115.627527 210.724317 
L 115.805517 159.509789 
L 115.983508 164.525954 
L 116.339489 214.986641 
L 116.517479 214.225621 
L 116.695469 208.188118 
L 117.05145 164.76324 
L 117.229441 210.885821 
L 117.407431 192.287063 
L 117.585422 211.751291 
L 117.763412 212.363134 
L 117.941403 207.170198 
L 118.119393 166.523863 
L 118.475374 215.294266 
L 118.653364 187.912186 
L 118.831355 193.512323 
L 119.009345 208.052004 
L 119.187336 202.708308 
L 119.365326 210.909049 
L 119.899297 193.857857 
L 120.077288 122.430299 
L 120.433269 213.087105 
L 120.611259 210.977509 
L 120.789249 212.016296 
L 120.96724 193.464552 
L 121.14523 203.384427 
L 121.323221 199.346821 
L 121.501211 208.194471 
L 121.679202 189.819668 
L 121.857192 209.4445 
L 122.213173 201.239858 
L 122.391163 203.551146 
L 122.569154 211.461689 
L 122.747144 213.167013 
L 122.925135 207.44222 
L 123.103125 211.523458 
L 123.281115 198.980967 
L 123.459106 217.868425 
L 123.637096 204.728175 
L 123.815087 201.087623 
L 123.993077 208.982684 
L 124.171068 201.681202 
L 124.349058 214.879336 
L 124.527048 211.0703 
L 124.705039 212.379718 
L 124.883029 206.521007 
L 125.06102 196.766827 
L 125.23901 200.342093 
L 125.417001 186.530073 
L 125.594991 207.252931 
L 125.772981 180.709849 
L 125.950972 193.564608 
L 126.128962 179.584108 
L 126.306953 208.883081 
L 126.484943 207.435445 
L 126.662934 213.307346 
L 126.840924 201.226212 
L 127.018914 204.053795 
L 127.196905 197.949585 
L 127.374895 201.154697 
L 127.552886 208.071128 
L 127.730876 207.417399 
L 127.908867 215.242318 
L 128.086857 211.687059 
L 128.264847 194.5385 
L 128.442838 199.36062 
L 128.620828 213.375017 
L 128.798819 197.563711 
L 128.976809 214.638685 
L 129.1548 208.73427 
L 129.510781 211.074051 
L 129.688771 208.584508 
L 129.866761 204.423921 
L 130.044752 212.916845 
L 130.222742 214.049189 
L 130.400733 195.890098 
L 130.578723 212.594727 
L 130.756714 207.752009 
L 130.934704 194.187516 
L 131.112694 211.990651 
L 131.290685 212.34159 
L 131.468675 214.034163 
L 131.646666 210.759077 
L 131.824656 211.805506 
L 132.002647 209.532164 
L 132.180637 213.961089 
L 132.358627 209.953493 
L 132.536618 211.70113 
L 132.714608 188.091986 
L 132.892599 211.437566 
L 133.070589 212.835468 
L 133.24858 199.392362 
L 133.42657 215.155039 
L 133.782551 205.79441 
L 133.960541 207.4143 
L 134.138532 212.258601 
L 134.316522 202.328061 
L 134.494513 204.993679 
L 134.672503 195.659438 
L 134.850493 205.956008 
L 135.028484 207.447021 
L 135.206474 165.480556 
L 135.384465 209.21413 
L 135.562455 204.737961 
L 135.918436 218.158242 
L 136.274417 200.698367 
L 136.452407 202.625842 
L 136.630398 212.115527 
L 136.808388 213.084839 
L 136.986379 209.342356 
L 137.164369 212.532014 
L 137.342359 210.160229 
L 137.52035 217.151431 
L 137.69834 204.174955 
L 137.876331 214.851944 
L 138.232312 201.11724 
L 138.410302 201.779152 
L 138.588292 186.327237 
L 138.766283 186.344812 
L 138.944273 207.772353 
L 139.122264 206.417569 
L 139.300254 206.776599 
L 139.478245 214.239867 
L 139.656235 208.725024 
L 140.012216 204.924976 
L 140.190206 206.714908 
L 140.368197 197.647475 
L 140.546187 210.141634 
L 140.724178 211.26192 
L 140.902168 206.018517 
L 141.080158 210.551181 
L 141.258149 208.98661 
L 141.436139 211.607701 
L 141.61413 216.139736 
L 141.79212 200.221136 
L 141.970111 196.232891 
L 142.148101 200.013855 
L 142.326092 192.698476 
L 142.504082 203.746902 
L 142.682072 188.80744 
L 142.860063 207.596606 
L 143.038053 206.803289 
L 143.216044 203.131268 
L 143.394034 179.420768 
L 143.750015 204.332045 
L 143.928005 202.698969 
L 144.105996 203.801416 
L 144.283986 216.774932 
L 144.461977 193.884734 
L 144.639967 211.86899 
L 144.995948 194.765258 
L 145.173938 198.251343 
L 145.351929 191.027969 
L 145.529919 190.513251 
L 145.70791 212.421624 
L 145.8859 192.850956 
L 146.063891 187.145195 
L 146.241881 211.904464 
L 146.419871 213.598351 
L 146.597862 203.695552 
L 146.775852 206.273743 
L 146.953843 216.738833 
L 147.131833 210.295332 
L 147.309824 208.382867 
L 147.487814 172.456242 
L 147.665804 200.187459 
L 147.843795 209.694513 
L 148.021785 203.541707 
L 148.199776 202.570772 
L 148.377766 213.607713 
L 148.733747 203.312999 
L 148.911737 209.723864 
L 149.089728 201.334219 
L 149.267718 202.868905 
L 149.445709 200.053524 
L 149.623699 202.414871 
L 149.80169 208.981702 
L 149.97968 203.261034 
L 150.15767 193.584211 
L 150.513651 213.361891 
L 150.691642 212.35561 
L 150.869632 196.348323 
L 151.047623 193.898697 
L 151.225613 209.906725 
L 151.403603 189.409211 
L 151.581594 205.929846 
L 151.759584 208.589223 
L 151.937575 208.354865 
L 152.115565 209.898413 
L 152.293556 187.122242 
L 152.471546 193.145215 
L 152.649536 214.008322 
L 153.005517 195.554029 
L 153.183508 211.227797 
L 153.361498 215.74152 
L 153.539489 213.17219 
L 153.895469 193.656054 
L 154.07346 210.650901 
L 154.25145 194.512866 
L 154.429441 211.838796 
L 154.607431 212.906954 
L 154.785422 212.04634 
L 154.963412 210.244039 
L 155.141403 203.684118 
L 155.319393 205.037346 
L 155.497383 215.354625 
L 155.675374 208.459879 
L 155.853364 208.754388 
L 156.031355 211.804122 
L 156.209345 209.600389 
L 156.387336 210.678204 
L 156.565326 213.481218 
L 156.743316 205.33155 
L 156.921307 208.800846 
L 157.277288 205.512767 
L 157.633269 212.632351 
L 157.811259 212.587438 
L 157.989249 210.525858 
L 158.16724 205.992225 
L 158.34523 215.726489 
L 158.523221 189.201223 
L 158.701211 186.425049 
L 158.879202 209.225868 
L 159.057192 212.065007 
L 159.235182 207.920263 
L 159.591163 214.255589 
L 159.769154 213.50627 
L 159.947144 215.087441 
L 160.125135 213.860775 
L 160.303125 215.279343 
L 160.481115 215.715799 
L 160.659106 211.139379 
L 161.015087 215.656631 
L 161.193077 214.747497 
L 161.371068 214.526614 
L 161.549058 214.591165 
L 161.727048 210.132722 
L 162.083029 215.453146 
L 162.26102 212.391303 
L 162.43901 215.462966 
L 162.617001 213.681338 
L 162.794991 216.469623 
L 162.972981 213.87526 
L 163.150972 216.190001 
L 163.506953 213.625235 
L 163.684943 215.487649 
L 163.862934 215.328085 
L 164.218914 216.563034 
L 164.396905 208.518411 
L 164.574895 207.671583 
L 164.752886 217.430106 
L 164.930876 217.945206 
L 165.108867 212.743982 
L 165.286857 212.637595 
L 165.464847 215.47973 
L 165.642838 216.164743 
L 165.820828 213.009997 
L 165.998819 194.677789 
L 166.3548 217.307738 
L 166.53279 215.239558 
L 166.710781 202.114554 
L 167.066761 218.030831 
L 167.244752 216.743716 
L 167.600733 217.763381 
L 167.778723 214.14807 
L 167.956714 214.171195 
L 168.134704 217.608778 
L 168.490685 210.144978 
L 168.668675 214.770107 
L 168.846666 216.335092 
L 169.024656 216.635873 
L 169.202647 217.557258 
L 169.380637 217.195334 
L 169.558627 217.145261 
L 169.736618 217.359147 
L 169.914608 217.78762 
L 170.092599 217.719967 
L 170.270589 217.238379 
L 170.44858 218.091155 
L 170.80456 217.47623 
L 170.982551 218.158242 
L 171.160541 216.776589 
L 171.338532 217.330865 
L 171.516522 217.16177 
L 171.694513 217.962398 
L 171.872503 216.606737 
L 172.228484 217.402731 
L 172.406474 216.515828 
L 173.118436 218.045385 
L 173.296426 217.876167 
L 173.474417 216.866563 
L 173.652407 217.64453 
L 173.830398 217.390478 
L 174.008388 217.562866 
L 174.186379 217.526894 
L 174.364369 217.271517 
L 174.542359 214.620702 
L 174.72035 217.891876 
L 174.89834 217.07109 
L 175.076331 217.962398 
L 175.254321 216.381356 
L 175.432312 217.988973 
L 175.610302 217.273753 
L 175.788292 217.756571 
L 175.966283 217.681545 
L 176.144273 217.385609 
L 176.322264 217.473622 
L 176.500254 216.042063 
L 176.678245 216.14846 
L 176.856235 217.47623 
L 177.034225 217.582719 
L 177.212216 217.35202 
L 177.390206 217.899847 
L 177.568197 216.01939 
L 177.746187 216.461067 
L 177.924178 216.581008 
L 178.102168 217.608778 
L 178.280158 216.246485 
L 178.458149 216.64361 
L 178.636139 216.33644 
L 178.99212 216.784896 
L 179.170111 217.392919 
L 179.348101 217.178459 
L 179.526092 216.051668 
L 179.704082 217.59712 
L 179.882072 217.178459 
L 180.060063 217.4973 
L 180.238053 215.915649 
L 180.594034 217.895852 
L 180.772025 217.64453 
L 180.950015 217.597119 
L 181.128005 216.295013 
L 181.305996 217.468422 
L 181.483986 217.605851 
L 181.661977 216.600654 
L 181.839967 217.691012 
L 182.017958 217.66596 
L 182.195948 217.830756 
L 182.373938 217.422582 
L 182.551929 216.679579 
L 182.90791 217.314635 
L 183.0859 216.813414 
L 183.263891 217.557258 
L 183.441881 216.300318 
L 183.975852 216.825283 
L 184.153843 217.002044 
L 184.331833 217.363919 
L 184.509824 217.442748 
L 184.687814 215.19568 
L 184.865804 217.827079 
L 185.043795 217.582719 
L 185.221785 217.049685 
L 185.399776 218.065315 
L 185.577766 217.756571 
L 185.755757 218.256364 
L 185.933747 216.766669 
L 186.111737 218.040498 
L 186.289728 218.065315 
L 186.467718 216.907017 
L 186.645709 217.026647 
L 186.823699 218.158242 
L 187.17968 216.732341 
L 187.35767 214.337241 
L 187.535661 214.4503 
L 187.713651 208.265215 
L 187.891642 217.608778 
L 188.069632 214.038256 
L 188.247623 218.235054 
L 188.425613 214.52814 
L 188.603603 216.196355 
L 188.781594 213.86538 
L 188.959584 216.009901 
L 189.137575 216.283119 
L 189.315565 217.729812 
L 189.671546 217.088816 
L 190.205517 218.201588 
L 190.739489 217.227499 
L 190.917479 217.770241 
L 191.095469 217.201712 
L 191.27346 214.708237 
L 191.45145 216.272595 
L 191.629441 214.942334 
L 191.807431 217.729812 
L 191.985422 218.112655 
L 192.163412 216.370388 
L 192.341403 216.077048 
L 192.519393 217.44784 
L 192.697383 210.408834 
L 192.875374 216.077048 
L 193.053364 217.936757 
L 193.231355 208.414653 
L 193.409345 208.013857 
L 193.587336 206.404119 
L 193.765326 217.28951 
L 193.943316 205.166138 
L 194.121307 207.21661 
L 194.299297 210.665926 
L 194.477288 208.738418 
L 194.655278 215.897407 
L 194.833269 210.704011 
L 195.011259 213.745135 
L 195.36724 183.575254 
L 195.54523 202.379391 
L 195.723221 151.582328 
L 195.901211 191.627464 
L 196.079202 165.649423 
L 196.257192 213.57533 
L 196.435182 203.33098 
L 196.613173 214.480358 
L 196.791163 178.309953 
L 197.325135 205.937813 
L 197.503125 203.91642 
L 197.681115 207.324802 
L 197.859106 207.503378 
L 198.037096 213.903036 
L 198.215087 214.482621 
L 198.393077 207.005675 
L 198.571068 211.851786 
L 198.749058 205.667942 
L 198.927048 210.030899 
L 199.105039 204.480808 
L 199.283029 205.094229 
L 199.46102 211.799052 
L 199.63901 206.760081 
L 199.817001 210.808079 
L 199.994991 210.952843 
L 200.172981 214.43759 
L 200.350972 208.265824 
L 200.528962 217.47623 
L 200.706953 208.945784 
L 200.884943 205.84055 
L 201.062934 198.138979 
L 201.240924 203.926528 
L 201.418914 205.797859 
L 201.596905 166.371782 
L 201.774895 156.482045 
L 201.952886 159.018687 
L 202.130876 207.653151 
L 202.308867 190.315418 
L 202.486857 20.583636 
L 202.664847 146.409823 
L 202.842838 126.590268 
L 203.020828 200.220621 
L 203.198819 128.065995 
L 203.376809 208.874018 
L 203.5548 191.294171 
L 203.73279 193.928312 
L 204.088771 212.506286 
L 204.266761 208.310402 
L 204.444752 211.934481 
L 204.622742 204.479243 
L 204.800733 175.116495 
L 204.978723 178.634426 
L 205.156714 197.029345 
L 205.334704 187.912702 
L 205.512694 211.894643 
L 205.690685 195.600894 
L 205.868675 162.441594 
L 206.224656 204.243829 
L 206.402647 185.459019 
L 206.580637 196.204619 
L 206.758627 196.765378 
L 206.936618 213.065047 
L 207.114608 212.207946 
L 207.292599 204.77352 
L 207.470589 206.3801 
L 207.64858 210.190067 
L 207.82657 211.061552 
L 208.00456 210.807274 
L 208.182551 209.447248 
L 208.360541 212.153309 
L 208.538532 198.973556 
L 208.716522 206.87834 
L 208.894513 208.540604 
L 209.072503 208.960788 
L 209.250493 202.693409 
L 209.428484 215.8367 
L 209.606474 202.497047 
L 209.784465 204.014785 
L 209.962455 199.578101 
L 210.140446 203.924807 
L 210.318436 212.966559 
L 210.496426 204.274202 
L 210.674417 206.261215 
L 210.852407 205.378233 
L 211.030398 203.698518 
L 211.386379 213.213778 
L 211.564369 206.992906 
L 211.742359 211.927433 
L 212.09834 206.511615 
L 212.276331 210.150182 
L 212.454321 202.944371 
L 212.632312 208.323874 
L 212.810302 203.691105 
L 212.988292 193.108309 
L 213.344273 217.681545 
L 213.522264 211.321584 
L 213.700254 214.695501 
L 213.878245 213.414593 
L 214.056235 203.243751 
L 214.234225 211.118799 
L 214.412216 196.976909 
L 214.590206 214.185974 
L 214.768197 209.930984 
L 214.946187 209.290856 
L 215.124178 214.798554 
L 215.302168 197.215503 
L 215.480158 209.837933 
L 215.658149 208.551562 
L 215.836139 212.549571 
L 216.19212 195.928582 
L 216.370111 210.823808 
L 216.548101 200.783132 
L 216.726092 203.244368 
L 216.904082 201.422289 
L 217.260063 215.908794 
L 217.438053 215.909935 
L 217.972025 192.343909 
L 218.150015 213.742567 
L 218.328005 205.365117 
L 218.505996 202.615565 
L 218.683986 203.088048 
L 218.861977 200.212023 
L 219.217958 205.565175 
L 219.395948 192.132316 
L 219.573938 206.236962 
L 219.751929 197.398367 
L 219.929919 199.781109 
L 220.10791 209.295926 
L 220.2859 204.439737 
L 220.463891 212.924 
L 220.641881 214.599693 
L 220.819871 205.615607 
L 220.997862 204.162487 
L 221.175852 193.23815 
L 221.353843 211.128452 
L 221.531833 203.399169 
L 221.709824 207.170198 
L 221.887814 216.018202 
L 222.065804 201.79738 
L 222.243795 213.345232 
L 222.599776 216.321657 
L 222.777766 215.309255 
L 222.955757 197.319593 
L 223.133747 211.669396 
L 223.311737 213.575331 
L 223.489728 192.092757 
L 223.667718 206.790203 
L 223.845709 208.558142 
L 224.023699 200.145789 
L 224.20169 208.212945 
L 224.37968 204.99739 
L 224.735661 190.831498 
L 224.913651 170.452153 
L 225.091642 208.248473 
L 225.269632 203.932769 
L 225.447623 213.585272 
L 225.625613 208.393965 
L 225.803603 188.740757 
L 225.981594 189.925377 
L 226.159584 211.84668 
L 226.337575 214.699477 
L 226.515565 201.222575 
L 226.693556 213.003851 
L 226.871546 196.004066 
L 227.049536 210.849284 
L 227.227527 214.154365 
L 227.405517 199.797243 
L 227.583508 210.424572 
L 227.761498 210.808079 
L 227.939489 211.620715 
L 228.117479 195.448688 
L 228.295469 214.234876 
L 228.47346 213.404371 
L 228.65145 207.184268 
L 229.007431 185.42577 
L 229.185422 193.134149 
L 229.541403 214.358444 
L 229.719393 214.131325 
L 229.897383 206.299862 
L 230.075374 185.420041 
L 230.253364 201.025837 
L 230.431355 200.834291 
L 230.609345 209.941868 
L 230.787336 211.480605 
L 230.965326 199.644195 
L 231.143316 210.530917 
L 231.499297 201.030693 
L 231.677288 210.746274 
L 231.855278 204.590538 
L 232.033269 211.979758 
L 232.211259 211.048659 
L 232.389249 200.760441 
L 232.56724 205.496628 
L 232.74523 203.930832 
L 232.923221 214.336512 
L 233.101211 201.995408 
L 233.279202 215.173043 
L 233.457192 204.980235 
L 233.635182 207.256541 
L 233.813173 214.369452 
L 233.991163 214.160669 
L 234.169154 215.424833 
L 234.347144 207.131664 
L 234.525135 208.48848 
L 234.703125 212.171308 
L 235.237096 196.935402 
L 235.415087 202.988408 
L 235.593077 204.822218 
L 235.771068 214.832968 
L 235.949058 212.065486 
L 236.127048 188.636041 
L 236.305039 204.946452 
L 236.483029 207.305258 
L 236.66102 213.63088 
L 236.83901 210.838356 
L 237.017001 205.526754 
L 237.194991 213.511173 
L 237.372981 212.98434 
L 237.550972 213.806512 
L 237.728962 213.022308 
L 237.906953 214.221356 
L 238.084943 212.64652 
L 238.262934 214.408573 
L 238.440924 213.4357 
L 238.618914 210.478153 
L 238.796905 204.533659 
L 238.974895 207.218271 
L 239.152886 215.611969 
L 239.330876 213.551177 
L 239.508867 215.817854 
L 239.686857 187.294585 
L 239.864847 195.676409 
L 240.042838 191.444273 
L 240.398819 209.574919 
L 240.576809 211.427065 
L 240.7548 200.946178 
L 240.93279 212.222167 
L 241.466761 202.611811 
L 241.644752 205.930841 
L 241.822742 215.642018 
L 242.000733 214.805086 
L 242.178723 216.463915 
L 242.356714 214.87767 
L 242.534704 212.105392 
L 242.712694 213.394768 
L 243.068675 204.684337 
L 243.246666 207.988304 
L 243.424656 206.397658 
L 243.602647 211.615776 
L 243.780637 203.864912 
L 243.958627 191.010979 
L 244.136618 214.648885 
L 244.314608 215.873643 
L 244.492599 212.315135 
L 244.84858 201.771827 
L 245.02657 208.05708 
L 245.20456 206.712521 
L 245.560541 215.054112 
L 245.738532 215.697714 
L 245.916522 201.527642 
L 246.094513 142.477739 
L 246.272503 215.054985 
L 246.450493 200.188832 
L 246.628484 211.054895 
L 246.806474 175.430819 
L 247.162455 207.268771 
L 247.340446 208.966012 
L 247.518436 217.108744 
L 247.696426 209.588866 
L 247.874417 209.152661 
L 248.052407 209.181676 
L 248.230398 213.160693 
L 248.408388 212.837638 
L 248.586379 217.310033 
L 248.764369 217.505298 
L 248.942359 211.638707 
L 249.12035 216.585526 
L 249.29834 213.696575 
L 249.476331 215.077761 
L 249.654321 211.833236 
L 249.832312 199.590902 
L 250.010302 214.0994 
L 250.188292 209.770385 
L 250.544273 207.632738 
L 250.722264 215.435543 
L 250.900254 205.693332 
L 251.256235 214.299478 
L 251.434225 209.505155 
L 251.612216 213.344637 
L 251.790206 211.701585 
L 251.968197 208.006423 
L 252.146187 215.87477 
L 252.324178 202.198123 
L 252.680158 216.42436 
L 252.858149 210.707193 
L 253.036139 209.45034 
L 253.21413 212.828964 
L 253.39212 186.350999 
L 253.748101 212.782556 
L 253.926092 201.778964 
L 254.104082 212.203048 
L 254.282072 213.259776 
L 254.460063 189.945925 
L 254.638053 205.757764 
L 254.816044 197.921272 
L 254.994034 210.243288 
L 255.172025 210.064706 
L 255.350015 213.318565 
L 255.528005 206.497019 
L 255.705996 208.32939 
L 255.883986 206.967682 
L 256.061977 213.489759 
L 256.239967 198.543271 
L 256.417958 212.059257 
L 256.595948 210.64182 
L 256.951929 216.176078 
L 257.129919 202.776224 
L 257.30791 212.138752 
L 257.4859 211.834626 
L 257.663891 208.514665 
L 257.841881 208.104379 
L 258.019871 209.055588 
L 258.197862 215.190234 
L 258.375852 197.178704 
L 258.553843 204.841929 
L 258.731833 201.430936 
L 258.909824 204.128202 
L 259.265804 212.009637 
L 259.443795 201.527088 
L 259.621785 209.881091 
L 259.799776 200.654989 
L 259.977766 206.224726 
L 260.155757 202.126824 
L 260.333747 205.763905 
L 260.511737 194.13274 
L 260.689728 109.3641 
L 260.867718 178.41748 
L 261.045709 169.548794 
L 261.223699 211.054063 
L 261.40169 210.209892 
L 261.57968 206.974186 
L 261.75767 163.090525 
L 261.935661 177.615541 
L 262.113651 210.863066 
L 262.291642 209.455498 
L 262.469632 206.871619 
L 262.647623 195.820405 
L 262.825613 198.501061 
L 263.003603 204.445757 
L 263.181594 168.253403 
L 263.359584 172.567617 
L 263.537575 173.830785 
L 263.893556 214.08559 
L 264.249536 186.333519 
L 264.427527 188.695289 
L 264.605517 185.346506 
L 264.783508 206.559959 
L 264.961498 192.040974 
L 265.139489 210.427262 
L 265.317479 211.665327 
L 265.495469 196.217337 
L 265.85145 203.23861 
L 266.029441 199.674907 
L 266.207431 210.892334 
L 266.385422 208.330923 
L 266.563412 210.956127 
L 266.741403 204.305522 
L 266.919393 212.157683 
L 267.097383 209.375029 
L 267.275374 131.809429 
L 267.453364 196.024238 
L 267.631355 210.931529 
L 267.809345 211.020036 
L 267.987336 213.110957 
L 268.165326 211.558104 
L 268.343316 181.306022 
L 268.699297 214.12089 
L 268.877288 213.605839 
L 269.055278 203.788835 
L 269.233269 202.551669 
L 269.411259 175.112776 
L 269.589249 213.640303 
L 269.76724 211.78754 
L 270.123221 200.363573 
L 270.301211 199.747878 
L 270.479202 196.399566 
L 270.657192 198.261759 
L 270.835182 202.942353 
L 271.191163 199.122008 
L 271.369154 197.062218 
L 271.547144 196.642862 
L 271.725135 200.574855 
L 271.903125 194.33171 
L 272.081115 192.312821 
L 272.437096 198.030761 
L 272.615087 187.896605 
L 272.793077 191.534077 
L 272.971068 191.140967 
L 273.149058 191.844899 
L 273.327048 189.638469 
L 273.683029 199.220952 
L 273.86102 200.213227 
L 274.03901 195.383451 
L 274.572981 203.437436 
L 274.750972 203.924807 
L 274.928962 206.136875 
L 275.106953 202.845634 
L 275.640924 215.738293 
L 275.818914 215.294266 
L 275.996905 195.651715 
L 276.174895 202.561119 
L 276.352886 204.917826 
L 276.530876 195.085651 
L 276.886857 208.840427 
L 277.064847 214.397465 
L 277.242838 208.539353 
L 277.420828 211.339707 
L 277.598819 186.796383 
L 277.9548 214.581109 
L 278.310781 202.248082 
L 278.488771 208.956219 
L 278.666761 208.484123 
L 278.844752 213.368451 
L 279.022742 208.111582 
L 279.200733 216.36902 
L 279.556714 208.337363 
L 279.734704 215.36893 
L 279.912694 205.982225 
L 280.090685 214.599693 
L 280.268675 217.296318 
L 280.446666 212.621876 
L 280.624656 211.657646 
L 280.802647 209.440722 
L 280.980637 209.832196 
L 281.336618 212.630254 
L 281.514608 207.327877 
L 281.692599 206.634286 
L 281.870589 211.439756 
L 282.04858 205.956007 
L 282.22657 205.485558 
L 282.40456 205.442572 
L 282.582551 205.040138 
L 282.760541 205.819804 
L 283.294513 200.174759 
L 283.472503 204.212641 
L 283.828484 201.958918 
L 284.006474 203.157421 
L 284.184465 202.268184 
L 284.362455 202.760863 
L 284.540446 205.343206 
L 284.718436 203.622438 
L 285.074417 208.238743 
L 285.252407 202.649587 
L 285.430398 204.119698 
L 285.608388 207.02499 
L 285.786379 206.330405 
L 285.964369 201.909441 
L 286.142359 200.699249 
L 286.32035 203.66804 
L 286.49834 196.547116 
L 286.676331 197.837932 
L 286.854321 202.347679 
L 287.032312 197.674512 
L 287.210302 205.609292 
L 287.388292 200.415122 
L 287.566283 200.325654 
L 287.744273 208.471061 
L 287.922264 196.162138 
L 288.100254 202.030452 
L 288.278245 196.869941 
L 288.456235 206.706954 
L 288.634225 201.212758 
L 288.812216 201.638118 
L 288.990206 199.695631 
L 289.168197 203.776477 
L 289.346187 201.663842 
L 289.524178 195.897204 
L 289.702168 207.271829 
L 289.880158 199.74989 
L 290.058149 202.609242 
L 290.236139 195.120934 
L 290.41413 192.753896 
L 290.59212 203.485618 
L 290.770111 201.839175 
L 290.948101 197.384647 
L 291.126092 200.605566 
L 291.304082 193.53542 
L 291.482072 204.626854 
L 291.660063 196.338514 
L 291.838053 199.814904 
L 292.016044 207.923507 
L 292.194034 200.021679 
L 292.372025 201.964614 
L 292.550015 197.579205 
L 292.728005 198.963731 
L 292.905996 206.476458 
L 293.083986 204.617597 
L 293.261977 208.347491 
L 293.439967 200.569245 
L 293.617958 202.181183 
L 293.795948 200.829665 
L 293.973938 195.107731 
L 294.329919 207.988601 
L 294.50791 204.401007 
L 294.6859 212.873557 
L 294.863891 213.243428 
L 295.041881 178.303743 
L 295.219871 202.548521 
L 295.397862 204.200141 
L 295.575852 197.701132 
L 295.931833 213.107544 
L 296.109824 212.251692 
L 296.287814 207.174059 
L 296.465804 215.678683 
L 296.821785 176.579734 
L 296.999776 201.880128 
L 297.177766 159.39546 
L 297.355757 215.390023 
L 297.533747 182.737955 
L 297.711737 192.287424 
L 297.889728 215.101566 
L 298.067718 212.554745 
L 298.245709 214.446558 
L 298.423699 190.96328 
L 298.60169 213.600222 
L 298.77968 204.494227 
L 298.95767 212.590561 
L 299.135661 201.882963 
L 299.313651 205.157217 
L 299.491642 214.155065 
L 299.669632 214.221357 
L 299.847623 211.945301 
L 300.025613 216.086782 
L 300.203603 217.227499 
L 300.381594 216.136006 
L 300.559584 216.005169 
L 300.737575 188.009356 
L 301.093556 213.114373 
L 301.271546 213.713772 
L 301.449536 197.242295 
L 301.627527 211.288473 
L 301.805517 197.054289 
L 301.983508 215.443355 
L 302.161498 217.151431 
L 302.339489 206.563363 
L 302.517479 205.067856 
L 302.695469 200.335862 
L 302.87346 212.966005 
L 303.05145 182.651912 
L 303.229441 203.374054 
L 303.407431 207.62556 
L 303.585422 196.410113 
L 303.763412 202.167528 
L 303.941403 213.03184 
L 304.119393 211.155378 
L 304.297383 213.624609 
L 304.653364 170.700537 
L 304.831355 214.202215 
L 305.009345 205.919146 
L 305.187336 214.200093 
L 305.365326 210.613853 
L 305.543316 211.891373 
L 305.721307 205.015495 
L 305.899297 209.142677 
L 306.077288 217.28951 
L 306.255278 212.49705 
L 306.433269 215.688183 
L 306.611259 216.596104 
L 306.789249 215.022817 
L 306.96724 208.966666 
L 307.14523 212.428213 
L 307.323221 208.961767 
L 307.679202 216.327022 
L 307.857192 216.302975 
L 308.391163 172.164668 
L 308.569154 199.989549 
L 308.747144 166.803387 
L 308.925135 201.419897 
L 309.281115 215.730776 
L 309.459106 211.985439 
L 309.637096 213.187748 
L 309.815087 211.493831 
L 309.993077 205.414071 
L 310.171068 208.234186 
L 310.349058 205.25379 
L 310.527048 213.062789 
L 310.705039 214.85029 
L 311.06102 196.32786 
L 311.23901 206.975542 
L 311.417001 202.977893 
L 311.594991 211.137697 
L 311.772981 211.955666 
L 311.950972 201.40905 
L 312.128962 215.621263 
L 312.306953 217.195334 
L 312.484943 211.780183 
L 312.662934 212.266011 
L 312.840924 210.99606 
L 313.018914 208.794425 
L 313.196905 210.841592 
L 313.374895 217.407665 
L 313.552886 207.200289 
L 313.730876 210.171406 
L 313.908867 206.80703 
L 314.086857 212.930612 
L 314.264847 205.15182 
L 314.442838 214.879336 
L 314.620828 209.60004 
L 314.798819 209.252415 
L 314.976809 207.752589 
L 315.1548 209.448966 
L 315.33279 205.638461 
L 315.688771 194.043906 
L 315.866761 207.001598 
L 316.044752 207.86555 
L 316.222742 209.732014 
L 316.400733 190.802893 
L 316.578723 192.908552 
L 316.756714 200.719918 
L 316.934704 213.987346 
L 317.112694 216.34725 
L 317.290685 203.590641 
L 317.468675 211.355277 
L 317.646666 211.912892 
L 318.002647 196.766682 
L 318.180637 206.59851 
L 318.358627 204.700676 
L 318.536618 174.436294 
L 318.714608 165.001755 
L 318.892599 205.321092 
L 319.070589 197.545676 
L 319.24858 198.16527 
L 319.42657 174.954077 
L 319.960541 210.877687 
L 320.316522 216.158468 
L 320.494513 216.379982 
L 320.672503 213.232363 
L 320.850493 215.894 
L 321.028484 195.003436 
L 321.384465 214.349658 
L 321.562455 214.582654 
L 321.740446 211.62386 
L 321.918436 212.791162 
L 322.096426 216.169775 
L 322.274417 215.492609 
L 322.452407 211.065717 
L 322.630398 214.829677 
L 322.808388 211.545203 
L 322.986379 215.18208 
L 323.164369 212.271451 
L 323.342359 211.575044 
L 323.52035 207.632738 
L 323.876331 214.942333 
L 324.054321 215.947864 
L 324.410302 211.334956 
L 324.588292 215.10865 
L 324.766283 212.615077 
L 324.944273 188.143523 
L 325.122264 209.271279 
L 325.300254 190.003226 
L 325.478245 215.675523 
L 325.656235 210.483955 
L 325.834225 211.67709 
L 326.012216 208.469818 
L 326.190206 202.397121 
L 326.368197 215.011582 
L 326.902168 183.916512 
L 327.080158 208.92202 
L 327.258149 201.75719 
L 327.436139 207.270717 
L 327.61413 204.563307 
L 327.970111 212.255639 
L 328.148101 213.42604 
L 328.326092 207.29076 
L 328.504082 214.94318 
L 328.682072 200.056933 
L 328.860063 210.780328 
L 329.038053 211.717962 
L 329.216044 204.963102 
L 329.394034 210.623296 
L 329.572025 210.906602 
L 329.750015 209.68146 
L 329.928005 212.140206 
L 330.105996 207.509058 
L 330.283986 216.596104 
L 330.461977 206.767005 
L 330.817958 215.053239 
L 330.995948 193.147577 
L 331.173938 205.350823 
L 331.351929 202.01216 
L 331.529919 176.390738 
L 331.70791 200.193124 
L 331.8859 204.194663 
L 332.063891 194.466007 
L 332.241881 211.416143 
L 332.775852 188.145083 
L 332.953843 212.308165 
L 333.131833 211.218866 
L 333.309824 196.324876 
L 333.487814 213.154953 
L 333.665804 207.574297 
L 333.843795 210.271533 
L 334.021785 201.300577 
L 334.199776 214.842857 
L 334.377766 211.636004 
L 334.555757 210.751873 
L 334.733747 199.333032 
L 334.911737 203.739677 
L 335.089728 203.127185 
L 335.267718 196.385889 
L 335.445709 209.793916 
L 335.623699 211.162124 
L 335.80169 214.393768 
L 335.97968 211.9755 
L 336.15767 195.012959 
L 336.335661 209.092909 
L 336.513651 200.066312 
L 336.691642 200.337766 
L 336.869632 208.869813 
L 337.047623 209.862363 
L 337.225613 208.754708 
L 337.403603 203.237788 
L 337.581594 202.324178 
L 337.759584 192.988887 
L 337.937575 204.387455 
L 338.115565 198.518375 
L 338.293556 213.640303 
L 338.471546 207.170474 
L 338.649536 190.531295 
L 338.827527 199.7754 
L 339.005517 174.797688 
L 339.183508 211.710678 
L 339.361498 209.748337 
L 339.539489 214.493198 
L 339.717479 202.965567 
L 339.895469 213.477562 
L 340.07346 215.596541 
L 340.25145 202.391078 
L 340.607431 207.45126 
L 340.785422 194.913489 
L 341.319393 211.903059 
L 341.497383 213.252764 
L 341.675374 215.86352 
L 341.853364 209.898413 
L 342.031355 208.307955 
L 342.209345 213.971171 
L 342.387336 207.580299 
L 342.565326 213.812367 
L 342.743316 208.407547 
L 342.921307 198.567723 
L 343.099297 214.849464 
L 343.277288 214.945723 
L 343.633269 159.031197 
L 343.811259 210.436492 
L 343.989249 214.927118 
L 344.16724 194.721881 
L 344.34523 214.68043 
L 344.523221 213.026231 
L 344.701211 171.531801 
L 344.879202 217.203844 
L 345.235182 196.851752 
L 345.591163 214.869352 
L 345.769154 215.943238 
L 346.125135 202.748106 
L 346.303125 192.781223 
L 346.481115 210.476606 
L 346.659106 215.127311 
L 346.837096 212.52377 
L 347.015087 192.597478 
L 348.083029 212.658091 
L 348.26102 195.596905 
L 348.43901 212.667046 
L 348.617001 186.020094 
L 348.972981 208.883082 
L 349.150972 206.731097 
L 349.328962 203.202474 
L 349.506953 209.431798 
L 349.684943 209.477879 
L 349.684943 209.477879 
" style="fill:none;stroke:#1f77b4;stroke-linecap:square;stroke-width:1.5;"/>
   </g>
   <g id="patch_3">
    <path d="M 30.103125 228.14 
L 30.103125 10.7 
" style="fill:none;stroke:#000000;stroke-linecap:square;stroke-linejoin:miter;stroke-width:0.8;"/>
   </g>
   <g id="patch_4">
    <path d="M 364.903125 228.14 
L 364.903125 10.7 
" style="fill:none;stroke:#000000;stroke-linecap:square;stroke-linejoin:miter;stroke-width:0.8;"/>
   </g>
   <g id="patch_5">
    <path d="M 30.103125 228.14 
L 364.903125 228.14 
" style="fill:none;stroke:#000000;stroke-linecap:square;stroke-linejoin:miter;stroke-width:0.8;"/>
   </g>
   <g id="patch_6">
    <path d="M 30.103125 10.7 
L 364.903125 10.7 
" style="fill:none;stroke:#000000;stroke-linecap:square;stroke-linejoin:miter;stroke-width:0.8;"/>
   </g>
  </g>
 </g>
 <defs>
  <clipPath id="pca127e8894">
   <rect height="217.44" width="334.8" x="30.103125" y="10.7"/>
  </clipPath>
 </defs>
</svg>
