<?xml version="1.0" encoding="utf-8" standalone="no"?>
<!DOCTYPE svg PUBLIC "-//W3C//DTD SVG 1.1//EN"
  "http://www.w3.org/Graphics/SVG/1.1/DTD/svg11.dtd">
<!-- Created with matplotlib (http://matplotlib.org/) -->
<svg height="300.690125pt" version="1.1" viewBox="0 0 398.509656 300.690125" width="398.509656pt" xmlns="http://www.w3.org/2000/svg" xmlns:xlink="http://www.w3.org/1999/xlink">
 <defs>
  <style type="text/css">
*{stroke-linecap:butt;stroke-linejoin:round;}
  </style>
 </defs>
 <g id="figure_1">
  <g id="patch_1">
   <path d="M 0 300.690125 
L 398.509656 300.690125 
L 398.509656 0 
L 0 0 
z
" style="fill:#ffffff;"/>
  </g>
  <g id="axes_1">
   <g id="patch_2">
    <path d="M 30.103125 276.812 
L 387.223125 276.812 
L 387.223125 10.7 
L 30.103125 10.7 
z
" style="fill:#ffffff;"/>
   </g>
   <g id="matplotlib.axis_1">
    <g id="xtick_1">
     <g id="line2d_1">
      <defs>
       <path d="M 0 0 
L 0 3.5 
" id="mf34234c456" style="stroke:#000000;stroke-width:0.8;"/>
      </defs>
      <g>
       <use style="stroke:#000000;stroke-width:0.8;" x="46.335852" xlink:href="#mf34234c456" y="276.812"/>
      </g>
     </g>
     <g id="text_1">
      <!-- 0 -->
      <defs>
       <path d="M 31.78125 66.40625 
Q 24.171875 66.40625 20.328125 58.90625 
Q 16.5 51.421875 16.5 36.375 
Q 16.5 21.390625 20.328125 13.890625 
Q 24.171875 6.390625 31.78125 6.390625 
Q 39.453125 6.390625 43.28125 13.890625 
Q 47.125 21.390625 47.125 36.375 
Q 47.125 51.421875 43.28125 58.90625 
Q 39.453125 66.40625 31.78125 66.40625 
z
M 31.78125 74.21875 
Q 44.046875 74.21875 50.515625 64.515625 
Q 56.984375 54.828125 56.984375 36.375 
Q 56.984375 17.96875 50.515625 8.265625 
Q 44.046875 -1.421875 31.78125 -1.421875 
Q 19.53125 -1.421875 13.0625 8.265625 
Q 6.59375 17.96875 6.59375 36.375 
Q 6.59375 54.828125 13.0625 64.515625 
Q 19.53125 74.21875 31.78125 74.21875 
z
" id="DejaVuSans-30"/>
      </defs>
      <g transform="translate(43.154602 291.410437)scale(0.1 -0.1)">
       <use xlink:href="#DejaVuSans-30"/>
      </g>
     </g>
    </g>
    <g id="xtick_2">
     <g id="line2d_2">
      <g>
       <use style="stroke:#000000;stroke-width:0.8;" x="93.799967" xlink:href="#mf34234c456" y="276.812"/>
      </g>
     </g>
     <g id="text_2">
      <!-- 250 -->
      <defs>
       <path d="M 19.1875 8.296875 
L 53.609375 8.296875 
L 53.609375 0 
L 7.328125 0 
L 7.328125 8.296875 
Q 12.9375 14.109375 22.625 23.890625 
Q 32.328125 33.6875 34.8125 36.53125 
Q 39.546875 41.84375 41.421875 45.53125 
Q 43.3125 49.21875 43.3125 52.78125 
Q 43.3125 58.59375 39.234375 62.25 
Q 35.15625 65.921875 28.609375 65.921875 
Q 23.96875 65.921875 18.8125 64.3125 
Q 13.671875 62.703125 7.8125 59.421875 
L 7.8125 69.390625 
Q 13.765625 71.78125 18.9375 73 
Q 24.125 74.21875 28.421875 74.21875 
Q 39.75 74.21875 46.484375 68.546875 
Q 53.21875 62.890625 53.21875 53.421875 
Q 53.21875 48.921875 51.53125 44.890625 
Q 49.859375 40.875 45.40625 35.40625 
Q 44.1875 33.984375 37.640625 27.21875 
Q 31.109375 20.453125 19.1875 8.296875 
z
" id="DejaVuSans-32"/>
       <path d="M 10.796875 72.90625 
L 49.515625 72.90625 
L 49.515625 64.59375 
L 19.828125 64.59375 
L 19.828125 46.734375 
Q 21.96875 47.46875 24.109375 47.828125 
Q 26.265625 48.1875 28.421875 48.1875 
Q 40.625 48.1875 47.75 41.5 
Q 54.890625 34.8125 54.890625 23.390625 
Q 54.890625 11.625 47.5625 5.09375 
Q 40.234375 -1.421875 26.90625 -1.421875 
Q 22.3125 -1.421875 17.546875 -0.640625 
Q 12.796875 0.140625 7.71875 1.703125 
L 7.71875 11.625 
Q 12.109375 9.234375 16.796875 8.0625 
Q 21.484375 6.890625 26.703125 6.890625 
Q 35.15625 6.890625 40.078125 11.328125 
Q 45.015625 15.765625 45.015625 23.390625 
Q 45.015625 31 40.078125 35.4375 
Q 35.15625 39.890625 26.703125 39.890625 
Q 22.75 39.890625 18.8125 39.015625 
Q 14.890625 38.140625 10.796875 36.28125 
z
" id="DejaVuSans-35"/>
      </defs>
      <g transform="translate(84.256217 291.410437)scale(0.1 -0.1)">
       <use xlink:href="#DejaVuSans-32"/>
       <use x="63.623047" xlink:href="#DejaVuSans-35"/>
       <use x="127.246094" xlink:href="#DejaVuSans-30"/>
      </g>
     </g>
    </g>
    <g id="xtick_3">
     <g id="line2d_3">
      <g>
       <use style="stroke:#000000;stroke-width:0.8;" x="141.264082" xlink:href="#mf34234c456" y="276.812"/>
      </g>
     </g>
     <g id="text_3">
      <!-- 500 -->
      <g transform="translate(131.720332 291.410437)scale(0.1 -0.1)">
       <use xlink:href="#DejaVuSans-35"/>
       <use x="63.623047" xlink:href="#DejaVuSans-30"/>
       <use x="127.246094" xlink:href="#DejaVuSans-30"/>
      </g>
     </g>
    </g>
    <g id="xtick_4">
     <g id="line2d_4">
      <g>
       <use style="stroke:#000000;stroke-width:0.8;" x="188.728197" xlink:href="#mf34234c456" y="276.812"/>
      </g>
     </g>
     <g id="text_4">
      <!-- 750 -->
      <defs>
       <path d="M 8.203125 72.90625 
L 55.078125 72.90625 
L 55.078125 68.703125 
L 28.609375 0 
L 18.3125 0 
L 43.21875 64.59375 
L 8.203125 64.59375 
z
" id="DejaVuSans-37"/>
      </defs>
      <g transform="translate(179.184447 291.410437)scale(0.1 -0.1)">
       <use xlink:href="#DejaVuSans-37"/>
       <use x="63.623047" xlink:href="#DejaVuSans-35"/>
       <use x="127.246094" xlink:href="#DejaVuSans-30"/>
      </g>
     </g>
    </g>
    <g id="xtick_5">
     <g id="line2d_5">
      <g>
       <use style="stroke:#000000;stroke-width:0.8;" x="236.192312" xlink:href="#mf34234c456" y="276.812"/>
      </g>
     </g>
     <g id="text_5">
      <!-- 1000 -->
      <defs>
       <path d="M 12.40625 8.296875 
L 28.515625 8.296875 
L 28.515625 63.921875 
L 10.984375 60.40625 
L 10.984375 69.390625 
L 28.421875 72.90625 
L 38.28125 72.90625 
L 38.28125 8.296875 
L 54.390625 8.296875 
L 54.390625 0 
L 12.40625 0 
z
" id="DejaVuSans-31"/>
      </defs>
      <g transform="translate(223.467312 291.410437)scale(0.1 -0.1)">
       <use xlink:href="#DejaVuSans-31"/>
       <use x="63.623047" xlink:href="#DejaVuSans-30"/>
       <use x="127.246094" xlink:href="#DejaVuSans-30"/>
       <use x="190.869141" xlink:href="#DejaVuSans-30"/>
      </g>
     </g>
    </g>
    <g id="xtick_6">
     <g id="line2d_6">
      <g>
       <use style="stroke:#000000;stroke-width:0.8;" x="283.656426" xlink:href="#mf34234c456" y="276.812"/>
      </g>
     </g>
     <g id="text_6">
      <!-- 1250 -->
      <g transform="translate(270.931426 291.410437)scale(0.1 -0.1)">
       <use xlink:href="#DejaVuSans-31"/>
       <use x="63.623047" xlink:href="#DejaVuSans-32"/>
       <use x="127.246094" xlink:href="#DejaVuSans-35"/>
       <use x="190.869141" xlink:href="#DejaVuSans-30"/>
      </g>
     </g>
    </g>
    <g id="xtick_7">
     <g id="line2d_7">
      <g>
       <use style="stroke:#000000;stroke-width:0.8;" x="331.120541" xlink:href="#mf34234c456" y="276.812"/>
      </g>
     </g>
     <g id="text_7">
      <!-- 1500 -->
      <g transform="translate(318.395541 291.410437)scale(0.1 -0.1)">
       <use xlink:href="#DejaVuSans-31"/>
       <use x="63.623047" xlink:href="#DejaVuSans-35"/>
       <use x="127.246094" xlink:href="#DejaVuSans-30"/>
       <use x="190.869141" xlink:href="#DejaVuSans-30"/>
      </g>
     </g>
    </g>
    <g id="xtick_8">
     <g id="line2d_8">
      <g>
       <use style="stroke:#000000;stroke-width:0.8;" x="378.584656" xlink:href="#mf34234c456" y="276.812"/>
      </g>
     </g>
     <g id="text_8">
      <!-- 1750 -->
      <g transform="translate(365.859656 291.410437)scale(0.1 -0.1)">
       <use xlink:href="#DejaVuSans-31"/>
       <use x="63.623047" xlink:href="#DejaVuSans-37"/>
       <use x="127.246094" xlink:href="#DejaVuSans-35"/>
       <use x="190.869141" xlink:href="#DejaVuSans-30"/>
      </g>
     </g>
    </g>
   </g>
   <g id="matplotlib.axis_2">
    <g id="ytick_1">
     <g id="line2d_9">
      <defs>
       <path d="M 0 0 
L -3.5 0 
" id="m35bc31e1b6" style="stroke:#000000;stroke-width:0.8;"/>
      </defs>
      <g>
       <use style="stroke:#000000;stroke-width:0.8;" x="30.103125" xlink:href="#m35bc31e1b6" y="265.250318"/>
      </g>
     </g>
     <g id="text_9">
      <!-- 0.0 -->
      <defs>
       <path d="M 10.6875 12.40625 
L 21 12.40625 
L 21 0 
L 10.6875 0 
z
" id="DejaVuSans-2e"/>
      </defs>
      <g transform="translate(7.2 269.049537)scale(0.1 -0.1)">
       <use xlink:href="#DejaVuSans-30"/>
       <use x="63.623047" xlink:href="#DejaVuSans-2e"/>
       <use x="95.410156" xlink:href="#DejaVuSans-30"/>
      </g>
     </g>
    </g>
    <g id="ytick_2">
     <g id="line2d_10">
      <g>
       <use style="stroke:#000000;stroke-width:0.8;" x="30.103125" xlink:href="#m35bc31e1b6" y="219.462283"/>
      </g>
     </g>
     <g id="text_10">
      <!-- 0.5 -->
      <g transform="translate(7.2 223.261502)scale(0.1 -0.1)">
       <use xlink:href="#DejaVuSans-30"/>
       <use x="63.623047" xlink:href="#DejaVuSans-2e"/>
       <use x="95.410156" xlink:href="#DejaVuSans-35"/>
      </g>
     </g>
    </g>
    <g id="ytick_3">
     <g id="line2d_11">
      <g>
       <use style="stroke:#000000;stroke-width:0.8;" x="30.103125" xlink:href="#m35bc31e1b6" y="173.674247"/>
      </g>
     </g>
     <g id="text_11">
      <!-- 1.0 -->
      <g transform="translate(7.2 177.473466)scale(0.1 -0.1)">
       <use xlink:href="#DejaVuSans-31"/>
       <use x="63.623047" xlink:href="#DejaVuSans-2e"/>
       <use x="95.410156" xlink:href="#DejaVuSans-30"/>
      </g>
     </g>
    </g>
    <g id="ytick_4">
     <g id="line2d_12">
      <g>
       <use style="stroke:#000000;stroke-width:0.8;" x="30.103125" xlink:href="#m35bc31e1b6" y="127.886212"/>
      </g>
     </g>
     <g id="text_12">
      <!-- 1.5 -->
      <g transform="translate(7.2 131.685431)scale(0.1 -0.1)">
       <use xlink:href="#DejaVuSans-31"/>
       <use x="63.623047" xlink:href="#DejaVuSans-2e"/>
       <use x="95.410156" xlink:href="#DejaVuSans-35"/>
      </g>
     </g>
    </g>
    <g id="ytick_5">
     <g id="line2d_13">
      <g>
       <use style="stroke:#000000;stroke-width:0.8;" x="30.103125" xlink:href="#m35bc31e1b6" y="82.098177"/>
      </g>
     </g>
     <g id="text_13">
      <!-- 2.0 -->
      <g transform="translate(7.2 85.897395)scale(0.1 -0.1)">
       <use xlink:href="#DejaVuSans-32"/>
       <use x="63.623047" xlink:href="#DejaVuSans-2e"/>
       <use x="95.410156" xlink:href="#DejaVuSans-30"/>
      </g>
     </g>
    </g>
    <g id="ytick_6">
     <g id="line2d_14">
      <g>
       <use style="stroke:#000000;stroke-width:0.8;" x="30.103125" xlink:href="#m35bc31e1b6" y="36.310141"/>
      </g>
     </g>
     <g id="text_14">
      <!-- 2.5 -->
      <g transform="translate(7.2 40.10936)scale(0.1 -0.1)">
       <use xlink:href="#DejaVuSans-32"/>
       <use x="63.623047" xlink:href="#DejaVuSans-2e"/>
       <use x="95.410156" xlink:href="#DejaVuSans-35"/>
      </g>
     </g>
    </g>
   </g>
   <g id="line2d_15">
    <path clip-path="url(#pbf75f0afd2)" d="M 46.335852 222.901195 
L 46.525709 205.565423 
L 46.715565 126.995895 
L 46.905422 150.176997 
L 47.095278 158.9067 
L 47.474991 91.263684 
L 47.664847 145.09564 
L 47.854704 64.427621 
L 48.04456 191.06629 
L 48.234417 176.510569 
L 48.424273 240.740497 
L 48.61413 234.863151 
L 48.803986 237.587796 
L 48.993843 245.127718 
L 49.183699 247.915277 
L 49.373556 218.679947 
L 49.563412 247.004046 
L 49.753269 242.511741 
L 49.943125 246.32006 
L 50.132981 240.141147 
L 50.512694 260.425648 
L 50.702551 246.969133 
L 51.082264 261.082864 
L 51.461977 248.500483 
L 51.651833 258.456557 
L 51.84169 259.620925 
L 52.031546 258.790441 
L 52.221403 252.48134 
L 52.411259 257.700216 
L 52.601115 259.196544 
L 52.790972 258.339204 
L 52.980828 263.674306 
L 53.170685 254.99521 
L 53.360541 258.667135 
L 53.550398 251.579703 
L 53.740254 258.361272 
L 53.930111 258.308292 
L 54.119967 261.66733 
L 54.309824 244.347155 
L 54.49968 248.005268 
L 54.689536 236.934976 
L 54.879393 161.895326 
L 55.259106 240.501131 
L 55.448962 254.397385 
L 55.638819 248.708873 
L 55.828675 254.96047 
L 56.018532 249.904433 
L 56.398245 260.889809 
L 56.588101 237.099467 
L 56.777958 192.095005 
L 56.967814 209.389214 
L 57.15767 262.083233 
L 57.537383 249.382774 
L 57.72724 251.094412 
L 57.917096 235.769696 
L 58.106953 235.721477 
L 58.486666 238.713823 
L 58.676522 232.139104 
L 58.866379 256.778382 
L 59.056235 255.572418 
L 59.246092 245.697382 
L 59.435948 250.415245 
L 59.625804 251.566135 
L 60.005517 244.678716 
L 60.195374 250.706125 
L 60.38523 262.473919 
L 60.575087 226.606382 
L 60.764943 247.275979 
L 60.9548 245.731237 
L 61.144656 256.778382 
L 61.334513 242.831648 
L 61.524369 243.086733 
L 61.714225 251.545635 
L 61.904082 236.760077 
L 62.093938 248.727293 
L 62.283795 166.946104 
L 62.473651 242.759387 
L 62.663508 238.0401 
L 63.043221 251.309831 
L 63.233077 242.277944 
L 63.422934 245.27248 
L 63.802647 238.365733 
L 63.992503 229.922083 
L 64.182359 227.443002 
L 64.372216 206.52568 
L 64.562072 243.459344 
L 64.751929 243.148219 
L 64.941785 254.183349 
L 65.131642 238.482979 
L 65.321498 253.125098 
L 65.511355 228.84589 
L 65.701211 256.011606 
L 65.891068 250.820095 
L 66.080924 238.129606 
L 66.270781 238.811187 
L 66.460637 260.068992 
L 66.650493 229.932186 
L 66.84035 261.587216 
L 67.220063 232.473617 
L 67.409919 257.779409 
L 67.599776 250.911393 
L 67.789632 238.51108 
L 67.979489 253.149846 
L 68.169345 254.504895 
L 68.359202 254.991963 
L 68.549058 254.905588 
L 68.738914 251.224081 
L 68.928771 259.991511 
L 69.118627 254.135298 
L 69.308484 212.398249 
L 69.49834 247.8539 
L 69.688197 239.4261 
L 69.878053 250.729372 
L 70.06791 253.084354 
L 70.257766 251.522392 
L 70.447623 247.781295 
L 70.827336 257.810683 
L 71.017192 254.023274 
L 71.207048 260.907304 
L 71.586761 251.308124 
L 71.776618 219.515458 
L 71.966474 252.120503 
L 72.156331 254.00972 
L 72.346187 231.098223 
L 72.536044 250.437071 
L 72.7259 221.514696 
L 73.105613 253.154566 
L 73.295469 251.06654 
L 73.485326 214.242085 
L 73.675182 249.861703 
L 73.865039 257.396869 
L 74.244752 240.347607 
L 74.434608 224.97687 
L 74.624465 247.478309 
L 74.814321 249.753858 
L 75.194034 241.4097 
L 75.383891 262.868753 
L 75.573747 260.956889 
L 75.763603 261.34699 
L 75.95346 239.806067 
L 76.143316 251.963794 
L 76.333173 208.804872 
L 76.712886 250.268429 
L 76.902742 240.592429 
L 77.092599 236.735201 
L 77.472312 249.62421 
L 77.662168 229.868652 
L 77.852025 233.3069 
L 78.041881 246.858329 
L 78.231737 247.025703 
L 78.421594 240.330607 
L 78.61145 239.956868 
L 78.801307 235.654999 
L 78.991163 237.246736 
L 79.18102 261.380044 
L 79.370876 258.701194 
L 79.560733 236.135608 
L 79.750589 227.905329 
L 79.940446 253.686718 
L 80.130302 234.630102 
L 80.320158 233.627431 
L 80.510015 251.638652 
L 80.699871 259.045934 
L 80.889728 259.341328 
L 81.079584 243.761686 
L 81.269441 261.445762 
L 81.459297 260.868039 
L 81.83901 234.268763 
L 82.218723 233.270722 
L 82.40858 245.188343 
L 82.788292 219.875502 
L 82.978149 246.001753 
L 83.168005 250.829002 
L 83.357862 232.823901 
L 83.547718 261.771089 
L 83.737575 241.200453 
L 83.927431 261.680635 
L 84.117288 236.334201 
L 84.307144 245.081424 
L 84.686857 235.859733 
L 84.876714 254.704692 
L 85.06657 252.111085 
L 85.256426 247.923514 
L 85.446283 241.138014 
L 85.636139 256.306802 
L 85.825996 247.690284 
L 86.015852 226.331181 
L 86.395565 249.311861 
L 86.775278 247.463055 
L 86.965135 249.716749 
L 87.154991 261.350648 
L 87.344847 253.644822 
L 87.534704 259.295605 
L 87.72456 249.623296 
L 87.914417 261.049883 
L 88.29413 259.750039 
L 88.483986 262.734668 
L 88.673843 256.35963 
L 88.863699 234.704472 
L 89.053556 240.127506 
L 89.243412 229.82457 
L 89.433269 248.240299 
L 89.623125 239.714226 
L 89.812981 246.221534 
L 90.002838 248.819125 
L 90.192694 245.861851 
L 90.382551 246.824728 
L 90.572407 251.890579 
L 90.762264 238.377418 
L 90.95212 252.05976 
L 91.141977 254.035148 
L 91.331833 254.705594 
L 91.52169 244.889823 
L 91.711546 250.46601 
L 91.901403 243.450392 
L 92.091259 261.971037 
L 92.281115 247.080091 
L 92.660828 242.857131 
L 92.850685 257.003794 
L 93.040541 246.822145 
L 93.230398 221.296126 
L 93.420254 224.893777 
L 93.610111 233.487951 
L 93.799967 186.472456 
L 93.989824 238.369274 
L 94.17968 236.787479 
L 94.369536 254.38643 
L 94.559393 245.67136 
L 94.939106 259.783012 
L 95.128962 260.066237 
L 95.318819 262.268969 
L 95.508675 261.579431 
L 95.698532 256.511858 
L 95.888388 254.522622 
L 96.078245 260.514236 
L 96.268101 256.424086 
L 96.457958 256.15696 
L 96.647814 251.816702 
L 96.83767 250.186395 
L 97.217383 260.73857 
L 97.40724 257.514073 
L 97.597096 257.025171 
L 97.786953 251.280848 
L 97.976809 253.643183 
L 98.166666 253.335698 
L 98.356522 246.421378 
L 98.546379 247.137005 
L 98.736235 241.120063 
L 98.926092 243.152094 
L 99.115948 247.536234 
L 99.305804 243.037837 
L 99.495661 254.121608 
L 99.875374 236.919855 
L 100.06523 200.499403 
L 100.255087 210.347369 
L 100.6348 177.679633 
L 100.824656 255.366152 
L 101.204369 238.439639 
L 101.394225 251.506458 
L 101.584082 243.680794 
L 101.773938 256.539673 
L 101.963795 249.895134 
L 102.153651 228.64815 
L 102.343508 220.741677 
L 102.533364 225.248225 
L 102.723221 219.702384 
L 102.913077 246.312772 
L 103.102934 150.706539 
L 103.29279 241.272778 
L 103.482647 255.632094 
L 103.672503 229.750103 
L 103.862359 236.353294 
L 104.052216 238.512148 
L 104.242072 229.768471 
L 104.431929 240.916435 
L 104.621785 240.003942 
L 104.811642 241.02481 
L 105.001498 222.699208 
L 105.191355 235.787293 
L 105.381211 237.339154 
L 105.760924 224.780394 
L 105.950781 237.345121 
L 106.140637 238.377949 
L 106.330493 237.526114 
L 106.52035 250.179763 
L 106.710206 251.819535 
L 106.900063 254.599186 
L 107.089919 253.559446 
L 107.469632 211.688538 
L 107.659489 218.121443 
L 107.849345 219.154718 
L 108.039202 228.896771 
L 108.229058 232.637782 
L 108.418914 240.97458 
L 108.608771 242.403393 
L 108.798627 222.126603 
L 108.988484 225.853988 
L 109.17834 216.482339 
L 109.368197 232.311568 
L 109.558053 228.426389 
L 109.74791 240.300074 
L 109.937766 220.880874 
L 110.127623 215.07046 
L 110.507336 250.305316 
L 110.697192 201.4521 
L 111.076905 251.287663 
L 111.266761 258.844438 
L 111.456618 250.706779 
L 111.646474 257.762868 
L 112.026187 243.185926 
L 112.216044 260.963544 
L 112.595757 231.934238 
L 112.975469 258.506468 
L 113.165326 242.96619 
L 113.355182 243.153171 
L 113.545039 248.844627 
L 113.734895 249.951325 
L 113.924752 248.819124 
L 114.114608 260.064402 
L 114.304465 248.437819 
L 114.494321 249.031608 
L 114.684178 260.698671 
L 114.874034 247.934502 
L 115.063891 260.301019 
L 115.253747 234.445119 
L 115.443603 245.797168 
L 115.63346 244.901042 
L 115.823316 241.45205 
L 116.013173 258.116952 
L 116.203029 249.616903 
L 116.392886 258.784551 
L 116.582742 231.00639 
L 116.772599 250.674099 
L 116.962455 255.773634 
L 117.152312 231.239094 
L 117.342168 228.201465 
L 117.532025 259.970741 
L 117.721881 235.363657 
L 117.911737 232.253547 
L 118.101594 206.241237 
L 118.29145 246.735591 
L 118.481307 203.991086 
L 118.671163 253.737029 
L 118.86102 248.141839 
L 119.050876 248.068294 
L 119.240733 248.438668 
L 119.430589 236.41346 
L 119.620446 238.174558 
L 119.810302 251.396113 
L 120.000158 245.534045 
L 120.190015 236.219241 
L 120.379871 194.669721 
L 120.569728 217.312901 
L 120.759584 209.311334 
L 120.949441 247.310691 
L 121.329154 255.497972 
L 121.51901 192.81953 
L 121.708867 198.958519 
L 122.08858 260.714379 
L 122.278436 259.783012 
L 122.468292 252.394067 
L 122.658149 231.849511 
L 122.848005 199.248919 
L 123.037862 255.695627 
L 123.227718 232.933704 
L 123.417575 256.754824 
L 123.607431 257.503624 
L 123.797288 251.148295 
L 123.987144 201.403642 
L 124.366857 261.090864 
L 124.556714 227.57955 
L 124.74657 234.433227 
L 124.936426 252.227485 
L 125.126283 245.687651 
L 125.316139 255.724055 
L 125.885709 234.856105 
L 126.075565 147.440128 
L 126.455278 258.389649 
L 126.645135 255.807839 
L 126.834991 257.079149 
L 127.024847 234.374763 
L 127.214704 246.515114 
L 127.40456 241.573726 
L 127.594417 252.401842 
L 127.784273 229.914004 
L 127.97413 253.931679 
L 128.353843 243.890502 
L 128.543699 246.719151 
L 128.733556 256.400398 
L 128.923412 258.487444 
L 129.113269 251.481207 
L 129.303125 256.475994 
L 129.492981 241.125978 
L 129.682838 264.241225 
L 129.872694 248.159647 
L 130.062551 243.70419 
L 130.252407 253.36649 
L 130.442264 244.430636 
L 130.63212 260.583055 
L 130.821977 255.9214 
L 131.011833 257.52392 
L 131.20169 250.353789 
L 131.391546 238.416223 
L 131.581403 242.79178 
L 131.771259 225.888063 
L 131.961115 251.249547 
L 132.150972 218.765034 
L 132.340828 234.497216 
L 132.530685 217.387306 
L 132.720541 253.244592 
L 132.910398 251.472916 
L 133.100254 258.65919 
L 133.290111 243.873801 
L 133.479967 247.334314 
L 133.669824 239.863731 
L 133.85968 243.786279 
L 134.049536 252.250891 
L 134.239393 251.45083 
L 134.429249 261.027288 
L 134.619106 256.676216 
L 134.808962 235.689105 
L 134.998819 241.590613 
L 135.188675 258.742008 
L 135.378532 239.391483 
L 135.568388 260.288537 
L 135.758245 253.062471 
L 136.137958 255.925991 
L 136.327814 252.879186 
L 136.51767 247.787288 
L 136.707527 258.181278 
L 136.897383 259.567087 
L 137.08724 237.343246 
L 137.277096 257.787056 
L 137.466953 251.860339 
L 137.656809 235.259556 
L 137.846666 257.047763 
L 138.036522 257.477257 
L 138.226379 259.548697 
L 138.416235 255.540513 
L 138.606092 256.821175 
L 138.795948 254.038966 
L 138.985804 259.459267 
L 139.175661 254.554606 
L 139.365517 256.693436 
L 139.555374 227.799596 
L 139.74523 256.370876 
L 139.935087 258.081685 
L 140.124943 241.62946 
L 140.3148 260.920471 
L 140.694513 249.46455 
L 140.884369 251.447037 
L 141.074225 257.375692 
L 141.264082 245.222289 
L 141.453938 248.484582 
L 141.643795 237.060954 
L 141.833651 249.66232 
L 142.023508 251.487083 
L 142.213364 200.1268 
L 142.403221 253.649744 
L 142.593077 248.171623 
L 142.97279 264.595915 
L 143.352503 243.227803 
L 143.542359 245.586726 
L 143.732216 257.200592 
L 143.922072 258.386875 
L 144.111929 253.806671 
L 144.301785 257.710306 
L 144.491642 254.807618 
L 144.681498 263.363738 
L 144.871355 247.482593 
L 145.061211 260.549532 
L 145.440924 243.740437 
L 145.630781 244.550512 
L 145.820637 225.639823 
L 146.010493 225.661333 
L 146.20035 251.885238 
L 146.390206 250.227197 
L 146.580063 250.666592 
L 146.769919 259.800446 
L 146.959776 253.051155 
L 147.339489 248.400501 
L 147.529345 250.591093 
L 147.719202 239.493996 
L 147.909058 254.784861 
L 148.098914 256.155913 
L 148.288771 249.738821 
L 148.478627 255.286082 
L 148.668484 253.371295 
L 148.85834 256.579093 
L 149.048197 262.125584 
L 149.238053 242.643748 
L 149.42791 237.762769 
L 149.617766 242.390068 
L 149.807623 233.437208 
L 149.997479 246.958725 
L 150.187336 228.675199 
L 150.377192 251.670151 
L 150.567048 250.699256 
L 150.756905 246.205287 
L 150.946761 217.187404 
L 151.326474 247.674847 
L 151.516331 245.676222 
L 151.706187 247.025441 
L 151.896044 262.902963 
L 152.0859 234.888999 
L 152.275757 256.89887 
L 152.655469 235.96662 
L 152.845326 240.233035 
L 153.035182 231.392773 
L 153.225039 230.76284 
L 153.414895 257.575206 
L 153.604752 233.623818 
L 153.794608 226.640874 
L 153.984465 256.942284 
L 154.174321 259.015333 
L 154.364178 246.895881 
L 154.554034 250.051177 
L 154.743891 262.858784 
L 154.933747 254.972963 
L 155.123603 252.632409 
L 155.31346 208.663931 
L 155.503316 242.602532 
L 155.693173 254.237656 
L 155.883029 246.707599 
L 156.072886 245.519329 
L 156.262742 259.026791 
L 156.642455 246.427697 
L 156.832312 254.273577 
L 157.022168 244.005985 
L 157.212025 245.884197 
L 157.401881 242.438618 
L 157.591737 245.328531 
L 157.781594 253.365288 
L 157.97145 246.364099 
L 158.161307 234.521207 
L 158.54102 258.725944 
L 158.730876 257.494416 
L 158.920733 237.90404 
L 159.110589 234.906087 
L 159.300446 254.497369 
L 159.490302 229.41167 
L 159.680158 249.630301 
L 159.870015 252.884956 
L 160.059871 252.598139 
L 160.249728 254.487196 
L 160.439584 226.612784 
L 160.629441 233.983945 
L 160.819297 259.517072 
L 161.19901 236.931951 
L 161.388867 256.114152 
L 161.578723 261.638232 
L 161.76858 258.493779 
L 162.148292 234.609131 
L 162.338149 255.408123 
L 162.528005 235.657732 
L 162.717862 256.861917 
L 162.907718 258.169172 
L 163.097575 257.115918 
L 163.287431 254.910189 
L 163.477288 246.881888 
L 163.667144 248.538023 
L 163.857001 261.164734 
L 164.046857 252.726659 
L 164.236714 253.087093 
L 164.42657 256.819481 
L 164.616426 254.122463 
L 164.806283 255.441538 
L 164.996139 258.871981 
L 165.185996 248.898082 
L 165.375852 253.143949 
L 165.755565 249.119863 
L 166.135278 257.833102 
L 166.325135 257.778135 
L 166.514991 255.25509 
L 166.704847 249.706644 
L 166.894704 261.619836 
L 167.08456 229.157125 
L 167.274417 225.75953 
L 167.464273 253.664109 
L 167.65413 257.138764 
L 167.843986 252.066255 
L 168.223699 259.819688 
L 168.413556 258.902641 
L 168.603412 260.837742 
L 168.793269 259.336498 
L 168.983125 261.0726 
L 169.172981 261.606753 
L 169.362838 256.005942 
L 169.742551 261.53434 
L 169.932407 260.421704 
L 170.122264 260.15138 
L 170.31212 260.230379 
L 170.501977 254.773954 
L 170.691833 257.280792 
L 170.88169 261.285307 
L 171.071546 257.538098 
L 171.261403 261.297326 
L 171.451259 259.116896 
L 171.641115 262.529314 
L 171.830972 259.354226 
L 172.020828 262.1871 
L 172.400541 259.048235 
L 172.590398 261.327534 
L 172.780254 261.132253 
L 173.159967 262.643633 
L 173.349824 252.798294 
L 173.53968 251.761911 
L 173.729536 263.704792 
L 173.919393 264.335193 
L 174.109249 257.96972 
L 174.299106 257.839521 
L 174.488962 261.317842 
L 174.678819 262.156189 
L 174.868675 258.295281 
L 175.058532 235.859572 
L 175.438245 263.555033 
L 175.628101 261.023909 
L 175.817958 244.960991 
L 176.19767 264.439984 
L 176.387527 262.86476 
L 176.76724 264.112668 
L 176.957096 259.688101 
L 177.146953 259.716403 
L 177.336809 263.923458 
L 177.716522 254.788953 
L 177.906379 260.449376 
L 178.096235 262.364669 
L 178.286092 262.732777 
L 178.475948 263.860406 
L 178.665804 263.417469 
L 178.855661 263.356187 
L 179.045517 263.617949 
L 179.235374 264.142332 
L 179.42523 264.059535 
L 179.615087 263.470148 
L 179.804943 264.513811 
L 180.184656 263.761241 
L 180.374513 264.595915 
L 180.564369 262.904992 
L 180.754225 263.583337 
L 180.944082 263.376391 
L 181.133938 264.356233 
L 181.323795 262.697119 
L 181.703508 263.671289 
L 181.893364 262.58586 
L 182.083221 263.128687 
L 182.273077 264.012513 
L 182.462934 264.159646 
L 182.65279 264.457796 
L 182.842647 264.2507 
L 183.032503 263.015104 
L 183.222359 263.967212 
L 183.412216 263.656294 
L 183.602072 263.86727 
L 183.791929 263.823245 
L 183.981785 263.510704 
L 184.171642 260.266529 
L 184.361498 264.269926 
L 184.551355 263.265414 
L 184.741211 264.356233 
L 184.931068 262.421289 
L 185.120924 264.388756 
L 185.310781 263.513441 
L 185.500637 264.104333 
L 185.690493 264.012513 
L 185.88035 263.650335 
L 186.070206 263.758048 
L 186.260063 262.006048 
L 186.449919 262.136261 
L 186.639776 263.76124 
L 186.829632 263.891566 
L 187.019489 263.609227 
L 187.209345 264.279681 
L 187.399202 261.9783 
L 187.589058 262.518842 
L 187.778914 262.665631 
L 187.968771 263.923458 
L 188.158627 262.256228 
L 188.348484 262.742245 
L 188.53834 262.366319 
L 188.728197 262.559206 
L 188.918053 262.915158 
L 189.10791 263.659281 
L 189.297766 263.396816 
L 189.487623 262.017803 
L 189.677479 263.90919 
L 189.867336 263.396816 
L 190.057192 263.787027 
L 190.247048 261.851337 
L 190.626761 264.274791 
L 190.816618 263.967212 
L 191.006474 263.90919 
L 191.196331 262.315618 
L 191.386187 263.751685 
L 191.576044 263.919876 
L 191.7659 262.689675 
L 191.955757 264.024099 
L 192.145613 263.993439 
L 192.335469 264.195124 
L 192.525326 263.695584 
L 192.715182 262.786267 
L 193.094895 263.563474 
L 193.284752 262.950059 
L 193.474608 263.860406 
L 193.664465 262.322111 
L 194.044178 262.757469 
L 194.423891 263.180912 
L 194.613747 263.623789 
L 194.803603 263.720264 
L 194.99346 260.970209 
L 195.183316 264.190624 
L 195.373173 263.891566 
L 195.563029 263.239217 
L 195.752886 264.482187 
L 195.942742 264.104333 
L 196.132599 264.716 
L 196.322455 262.89285 
L 196.512312 264.451815 
L 196.702168 264.482187 
L 196.892025 263.064615 
L 197.081881 263.211023 
L 197.271737 264.595915 
L 197.65145 262.850838 
L 197.841307 259.919617 
L 198.031163 260.057983 
L 198.22102 252.488422 
L 198.410876 263.923458 
L 198.600733 259.553706 
L 198.790589 264.689921 
L 198.980446 260.153246 
L 199.170302 262.194877 
L 199.360158 259.342134 
L 199.550015 261.966687 
L 199.739871 262.301062 
L 199.929728 264.071584 
L 200.309441 263.287107 
L 200.87901 264.648963 
L 201.44858 263.456833 
L 201.638436 264.121064 
L 201.828292 263.425274 
L 202.018149 260.373657 
L 202.208005 262.288183 
L 202.397862 260.660154 
L 202.587718 264.071584 
L 202.777575 264.540124 
L 202.967431 262.407865 
L 203.157288 262.048864 
L 203.347144 263.726496 
L 203.537001 255.111872 
L 203.726857 262.048864 
L 203.916714 264.324852 
L 204.10657 252.67131 
L 204.296426 252.1808 
L 204.486283 250.210736 
L 204.676139 263.532725 
L 204.865996 248.695645 
L 205.055852 251.205096 
L 205.245709 255.426511 
L 205.435565 253.067548 
L 205.625422 261.829012 
L 205.815278 255.47312 
L 206.005135 259.194973 
L 206.384847 222.271835 
L 206.574704 245.285108 
L 206.76456 183.117577 
L 206.954417 232.126459 
L 207.144273 200.333466 
L 207.33413 258.987159 
L 207.523986 246.449702 
L 207.713843 260.094769 
L 207.903699 215.827943 
L 208.473269 249.640051 
L 208.663125 247.166189 
L 208.852981 251.337506 
L 209.042838 251.556055 
L 209.232694 259.388219 
L 209.422551 260.097539 
L 209.612407 250.946945 
L 209.802264 256.877815 
L 209.99212 249.309772 
L 210.181977 254.649339 
L 210.371833 247.856909 
L 210.56169 248.607639 
L 210.751546 256.813276 
L 210.941403 250.646377 
L 211.131259 255.600484 
L 211.321115 255.777652 
L 211.510972 260.042428 
L 211.700828 252.489168 
L 211.890685 263.761241 
L 212.080541 253.32133 
L 212.270398 249.521017 
L 212.460254 240.095519 
L 212.650111 247.178559 
L 212.839967 249.46877 
L 213.029824 201.217519 
L 213.21968 189.114053 
L 213.409536 192.2185 
L 213.599393 251.739353 
L 213.789249 230.520724 
L 213.979106 22.796 
L 214.168962 176.787253 
L 214.358819 152.531269 
L 214.548675 242.643117 
L 214.738532 154.337324 
L 214.928388 253.2335 
L 215.118245 231.718562 
L 215.308101 234.942332 
L 215.687814 257.678819 
L 215.87767 252.543723 
L 216.067527 256.97902 
L 216.257383 247.854994 
L 216.44724 211.919658 
L 216.637096 216.225045 
L 216.826953 238.737503 
L 217.016809 227.580181 
L 217.206666 256.930265 
L 217.396522 236.989306 
L 217.586379 196.407594 
L 217.966092 247.566884 
L 218.155948 224.577263 
L 218.345804 237.728169 
L 218.535661 238.414449 
L 218.725517 258.362653 
L 218.915374 257.313698 
L 219.10523 248.215142 
L 219.295087 250.181341 
L 219.484943 254.844135 
L 219.6748 255.910695 
L 219.864656 255.599498 
L 220.054513 253.935042 
L 220.244369 257.246831 
L 220.434225 241.116908 
L 220.624082 250.791107 
L 220.813938 252.825454 
L 221.003795 253.339693 
L 221.193651 245.669417 
L 221.383508 261.754716 
L 221.573364 245.429101 
L 221.763221 247.286571 
L 221.953077 241.856775 
L 222.142934 247.176453 
L 222.33279 258.24212 
L 222.522647 247.604056 
L 222.712503 250.035845 
L 222.902359 248.955215 
L 223.092216 246.899511 
L 223.471929 258.544677 
L 223.661785 250.931318 
L 223.851642 256.970395 
L 224.231355 250.342295 
L 224.421211 254.795323 
L 224.611068 245.976554 
L 224.800924 252.560212 
L 224.990781 246.890438 
L 225.180637 233.938778 
L 225.56035 264.012513 
L 225.750206 256.228932 
L 225.940063 260.358071 
L 226.129919 258.790442 
L 226.319776 246.342948 
L 226.509632 255.980755 
L 226.699489 238.67333 
L 226.889345 259.73449 
L 227.079202 254.527059 
L 227.269058 253.743643 
L 227.458914 260.484191 
L 227.648771 238.965331 
L 227.838627 254.413179 
L 228.028484 252.838866 
L 228.21834 257.731793 
L 228.598053 237.390344 
L 228.78791 255.619734 
L 228.977766 243.331541 
L 229.167623 246.343703 
L 229.357479 244.113768 
L 229.737192 261.842948 
L 229.927048 261.844345 
L 230.496618 233.003274 
L 230.686474 259.19183 
L 230.876331 248.939162 
L 231.066187 245.574148 
L 231.256044 246.152393 
L 231.4459 242.632595 
L 231.825613 249.184002 
L 232.015469 232.744318 
L 232.205326 250.006163 
L 232.395182 239.189127 
L 232.585039 242.105225 
L 232.774895 253.749848 
L 232.964752 247.806645 
L 233.154608 258.190034 
L 233.344465 260.240817 
L 233.534321 249.245723 
L 233.724178 247.467335 
L 233.914034 234.097683 
L 234.103891 255.992569 
L 234.293747 246.533155 
L 234.483603 251.148295 
L 234.67346 261.976846 
L 234.863316 244.57282 
L 235.053173 258.705555 
L 235.432886 262.348227 
L 235.622742 261.109208 
L 235.812599 239.092721 
L 236.002455 256.654599 
L 236.192312 258.987159 
L 236.382168 232.695904 
L 236.572025 250.683242 
L 236.761881 252.846918 
L 236.951737 242.551535 
L 237.141594 252.424452 
L 237.33145 248.489124 
L 237.711163 231.152324 
L 237.90102 206.211244 
L 238.090876 252.467932 
L 238.280733 247.186197 
L 238.470589 258.999327 
L 238.660446 252.645992 
L 238.850302 228.593589 
L 239.040158 230.043376 
L 239.230015 256.871566 
L 239.419871 260.362936 
L 239.609728 243.86935 
L 239.799584 258.287759 
L 239.989441 237.482725 
L 240.179297 255.650911 
L 240.369154 259.695806 
L 240.55901 242.12497 
L 240.748867 255.131132 
L 240.938723 255.600484 
L 241.12858 256.595021 
L 241.318436 236.80303 
L 241.508292 259.794338 
L 241.698149 258.777932 
L 241.888005 251.165515 
L 242.267718 224.536571 
L 242.457575 233.970402 
L 242.837288 259.945566 
L 243.027144 259.667608 
L 243.217001 250.083142 
L 243.406857 224.529561 
L 243.596714 243.628574 
L 243.78657 243.394152 
L 243.976426 254.540379 
L 244.166283 256.423548 
L 244.356139 241.937664 
L 244.545996 255.261281 
L 244.925709 243.634518 
L 245.115565 255.524844 
L 245.305422 247.991202 
L 245.495278 257.034432 
L 245.685135 255.894915 
L 245.874991 243.303771 
L 246.064847 249.100111 
L 246.254704 247.183826 
L 246.44456 259.918724 
L 246.634417 244.815174 
L 246.824273 260.942506 
L 247.01413 248.468129 
L 247.203986 251.253965 
L 247.393843 259.959038 
L 247.583699 259.703521 
L 247.773556 261.250656 
L 247.963412 251.101136 
L 248.153269 252.761663 
L 248.343125 257.268859 
L 248.912694 238.622531 
L 249.102551 246.030449 
L 249.292407 248.274741 
L 249.482264 260.526308 
L 249.67212 257.13935 
L 249.861977 228.465433 
L 250.051833 248.426784 
L 250.24169 251.313587 
L 250.431546 259.055144 
L 250.621403 255.637537 
L 250.811259 249.136981 
L 251.001115 258.908641 
L 251.190972 258.263881 
L 251.380828 259.270089 
L 251.570685 258.310348 
L 251.760541 259.777793 
L 251.950398 257.850444 
L 252.140254 260.006916 
L 252.330111 258.816274 
L 252.519967 255.196706 
L 252.709824 247.921591 
L 252.89968 251.207129 
L 253.089536 261.479681 
L 253.279393 258.9576 
L 253.469249 261.731652 
L 253.659106 226.823704 
L 253.848962 237.081724 
L 254.038819 231.902263 
L 254.418532 254.091292 
L 254.608388 256.358024 
L 254.798245 243.531084 
L 254.988101 257.331103 
L 255.55767 245.569554 
L 255.747527 249.631519 
L 255.937383 261.516456 
L 256.12724 260.492184 
L 256.317096 262.522328 
L 256.506953 260.581016 
L 256.696809 257.188188 
L 256.886666 258.76618 
L 257.266379 248.105997 
L 257.456235 252.149528 
L 257.646092 250.202829 
L 257.835948 256.588976 
L 258.025804 247.10315 
L 258.215661 231.37198 
L 258.405517 260.301019 
L 258.595374 261.799929 
L 258.78523 257.444881 
L 259.164943 244.541548 
L 259.3548 252.233698 
L 259.544656 250.588171 
L 259.924369 260.796953 
L 260.114225 261.584619 
L 260.304082 244.242704 
L 260.493938 171.975008 
L 260.683795 260.798022 
L 260.873651 242.604213 
L 261.063508 255.902547 
L 261.253364 212.30434 
L 261.633077 251.268933 
L 261.822934 253.346086 
L 262.01279 263.311496 
L 262.202647 254.108361 
L 262.392503 253.574515 
L 262.582359 253.610025 
L 262.772216 258.479709 
L 262.962072 258.084341 
L 263.151929 263.557842 
L 263.341785 263.796815 
L 263.531642 256.617039 
L 263.721498 262.67116 
L 263.911355 259.135544 
L 264.101211 260.825896 
L 264.291068 256.855113 
L 264.480924 241.872441 
L 264.670781 259.628538 
L 264.860637 254.330511 
L 265.24035 251.714371 
L 265.430206 261.263764 
L 265.620063 249.340846 
L 265.809919 256.914838 
L 265.999776 259.873401 
L 266.189632 254.005911 
L 266.379489 258.704828 
L 266.569345 256.693993 
L 266.759202 252.171702 
L 266.949058 261.801308 
L 267.138914 245.063266 
L 267.518627 262.473919 
L 267.708484 255.477015 
L 267.89834 253.938827 
L 268.088197 258.073725 
L 268.278053 225.668905 
L 268.657766 258.01693 
L 268.847623 244.550282 
L 269.037479 257.307704 
L 269.227336 258.60097 
L 269.417192 230.068523 
L 269.607048 249.4197 
L 269.796905 239.82908 
L 269.986761 254.909269 
L 270.176618 254.690713 
L 270.366474 258.67292 
L 270.556331 250.324431 
L 270.746187 252.566962 
L 270.936044 250.900447 
L 271.1259 258.882434 
L 271.315757 240.590307 
L 271.505613 257.131727 
L 271.695469 255.397009 
L 272.075182 262.170061 
L 272.265039 245.770769 
L 272.454895 257.229015 
L 272.644752 256.856814 
L 272.834608 252.793709 
L 273.024465 252.291585 
L 273.214321 253.455712 
L 273.404178 260.963544 
L 273.594034 238.920295 
L 273.783891 248.298864 
L 273.973747 244.124351 
L 274.163603 247.425376 
L 274.543316 257.071 
L 274.733173 244.242025 
L 274.923029 254.465997 
L 275.112886 243.174715 
L 275.302742 249.991187 
L 275.492599 244.976007 
L 275.682455 249.427217 
L 275.872312 235.192519 
L 276.062168 131.449176 
L 276.252025 215.959538 
L 276.441881 205.105676 
L 276.631737 255.901529 
L 276.821594 254.868397 
L 277.01145 250.908407 
L 277.201307 197.201781 
L 277.391163 214.978093 
L 277.58102 255.667779 
L 277.770876 253.945139 
L 277.960733 250.782882 
L 278.150589 237.257953 
L 278.340446 240.538649 
L 278.530302 247.814012 
L 278.720158 203.520324 
L 278.910015 208.800236 
L 279.099871 210.346152 
L 279.479584 259.611635 
L 279.669441 246.604982 
L 279.859297 225.647512 
L 280.049154 228.537944 
L 280.23901 224.439565 
L 280.428867 250.401459 
L 280.618723 232.63253 
L 280.80858 255.134425 
L 280.998436 256.649619 
L 281.188292 237.743735 
L 281.568005 246.336657 
L 281.757862 241.97525 
L 281.947718 255.703598 
L 282.137575 252.568838 
L 282.327431 255.781671 
L 282.517288 247.642387 
L 282.707144 257.252184 
L 282.897001 253.846658 
L 283.086857 158.918691 
L 283.276714 237.507411 
L 283.46657 255.751567 
L 283.656426 255.859886 
L 283.846283 258.41884 
L 284.036139 256.518395 
L 284.225996 219.494655 
L 284.605709 259.654838 
L 284.795565 259.024497 
L 284.985422 247.010044 
L 285.175278 245.49595 
L 285.365135 211.915106 
L 285.554991 259.066675 
L 285.744847 256.799188 
L 286.12456 242.818068 
L 286.314417 242.064556 
L 286.504273 237.966753 
L 286.69413 240.245782 
L 286.883986 245.974085 
L 287.263699 241.29859 
L 287.453556 238.777734 
L 287.643412 238.26451 
L 287.833269 243.076643 
L 288.023125 235.436026 
L 288.212981 232.965227 
L 288.592694 239.963077 
L 288.782551 227.560481 
L 288.972407 232.012168 
L 289.162264 231.531064 
L 289.35212 232.392565 
L 289.541977 229.692245 
L 289.92169 241.419681 
L 290.111546 242.634068 
L 290.301403 236.72319 
L 290.870972 246.579988 
L 291.060828 247.176452 
L 291.250685 249.883672 
L 291.440541 245.855716 
L 292.010111 261.634282 
L 292.199967 261.090864 
L 292.389824 237.051503 
L 292.57968 245.507515 
L 292.769536 248.391749 
L 292.959393 236.35873 
L 293.339106 253.19239 
L 293.528962 259.993321 
L 293.718819 252.823923 
L 293.908675 256.251112 
L 294.098532 226.213984 
L 294.478245 260.218072 
L 294.857958 245.124407 
L 295.047814 253.334101 
L 295.23767 252.75633 
L 295.427527 258.733971 
L 295.617383 252.3004 
L 295.80724 262.406192 
L 296.186953 252.57672 
L 296.376809 261.182241 
L 296.566666 249.694405 
L 296.756522 260.240817 
L 296.946379 263.541056 
L 297.136235 257.820283 
L 297.326092 256.640219 
L 297.515948 253.927056 
L 297.705804 254.406157 
L 298.085517 257.830536 
L 298.275374 251.341269 
L 298.46523 250.492424 
L 298.655087 256.373556 
L 298.844943 249.662319 
L 299.0348 249.086563 
L 299.224656 249.033955 
L 299.414513 248.54144 
L 299.604369 249.495627 
L 299.984082 246.291427 
L 300.173938 242.58699 
L 300.363795 247.528716 
L 300.743508 244.770517 
L 300.933364 246.237294 
L 301.123221 245.149009 
L 301.313077 245.75197 
L 301.502934 248.912347 
L 301.69279 246.806401 
L 302.072503 252.456025 
L 302.262359 245.615786 
L 302.452216 247.414968 
L 302.642072 250.970584 
L 302.831929 250.120522 
L 303.021785 244.709965 
L 303.211642 243.228883 
L 303.401498 246.86221 
L 303.591355 238.147331 
L 303.781211 239.727085 
L 303.971068 245.246299 
L 304.160924 239.527085 
L 304.350781 249.237994 
L 304.540637 242.881156 
L 304.730493 242.771662 
L 304.92035 252.740345 
L 305.110206 237.676179 
L 305.300063 244.858063 
L 305.489919 238.542418 
L 305.679776 250.581358 
L 305.869632 243.857335 
L 306.059489 244.377908 
L 306.249345 242.000614 
L 306.439202 246.99492 
L 306.629058 244.409391 
L 306.818914 237.351943 
L 307.008771 251.272676 
L 307.198627 242.067018 
L 307.388484 245.566411 
L 307.57834 236.401911 
L 307.768197 233.505033 
L 307.958053 246.638955 
L 308.14791 244.62397 
L 308.337766 239.172336 
L 308.527623 243.114229 
L 308.717479 234.461494 
L 308.907336 248.035646 
L 309.097192 237.892036 
L 309.287048 242.146585 
L 309.476905 252.070226 
L 309.666761 242.399645 
L 309.856618 244.777488 
L 310.046474 239.410444 
L 310.236331 241.104884 
L 310.426187 250.299268 
L 310.616044 248.024318 
L 310.8059 252.589115 
L 310.995757 243.069778 
L 311.185613 245.042534 
L 311.375469 243.388491 
L 311.565326 236.385753 
L 311.945039 252.149891 
L 312.134895 247.759246 
L 312.324752 258.128301 
L 312.514608 258.580964 
L 312.704465 215.820342 
L 312.894321 245.492097 
L 313.084178 247.513417 
L 313.274034 239.559663 
L 313.653747 258.414663 
L 313.843603 257.367236 
L 314.03346 251.15302 
L 314.223316 261.561328 
L 314.603029 213.71043 
L 314.792886 244.67409 
L 314.982742 192.679609 
L 315.172599 261.208055 
L 315.362455 221.247114 
L 315.552312 232.934145 
L 315.742168 260.855029 
L 315.932025 257.738125 
L 316.121881 260.053403 
L 316.311737 231.313604 
L 316.501594 259.017622 
L 316.69145 247.873332 
L 316.881307 257.781958 
L 317.071163 244.67756 
L 317.26102 248.684727 
L 317.450876 259.696663 
L 317.640733 259.777793 
L 317.830589 256.992262 
L 318.020446 262.060777 
L 318.210302 263.456833 
L 318.400158 262.121019 
L 318.590015 261.960896 
L 318.779871 227.69847 
L 319.159584 258.423021 
L 319.349441 259.15659 
L 319.539297 238.99812 
L 319.729154 256.18841 
L 319.91901 238.768031 
L 320.108867 261.273324 
L 320.298723 263.363738 
L 320.48858 250.405626 
L 320.678436 248.575363 
L 320.868292 242.784154 
L 321.058149 258.241441 
L 321.248005 221.14181 
L 321.437862 246.502419 
L 321.627718 251.705586 
L 321.817575 237.979662 
L 322.007431 245.025823 
L 322.197288 258.322014 
L 322.387144 256.025522 
L 322.577001 259.047468 
L 322.956714 206.515226 
L 323.14657 259.754367 
L 323.336426 249.617207 
L 323.526283 259.75177 
L 323.716139 255.362782 
L 323.905996 256.926263 
L 324.095852 248.511282 
L 324.285709 253.562295 
L 324.475565 263.532725 
L 324.665422 257.667515 
L 324.855278 261.572956 
L 325.045135 262.684107 
L 325.234991 260.758653 
L 325.424847 253.346886 
L 325.614704 257.583269 
L 325.80456 253.340891 
L 326.184273 262.354793 
L 326.37413 262.325363 
L 326.753843 231.374226 
L 326.943699 208.307091 
L 327.133556 242.360322 
L 327.323412 201.745734 
L 327.513269 244.110841 
L 327.892981 261.625082 
L 328.082838 257.041385 
L 328.272694 258.512821 
L 328.462551 256.439735 
L 328.652407 248.999075 
L 328.842264 252.450448 
L 329.03212 248.802916 
L 329.221977 258.359891 
L 329.411833 260.547508 
L 329.791546 237.878997 
L 329.981403 250.910067 
L 330.171259 246.01758 
L 330.361115 256.003884 
L 330.550972 257.004948 
L 330.740828 244.097565 
L 330.930685 261.491056 
L 331.120541 263.417469 
L 331.310398 256.790184 
L 331.500254 257.38476 
L 331.690111 255.830542 
L 331.879967 253.136091 
L 332.069824 255.641498 
L 332.25968 263.677328 
L 332.449536 251.185122 
L 332.639393 254.821297 
L 332.829249 250.703835 
L 333.019106 258.198126 
L 333.208962 248.678121 
L 333.398819 260.583054 
L 333.588675 254.122035 
L 333.778532 253.696598 
L 333.968388 251.86105 
L 334.158245 253.937145 
L 334.348101 249.273693 
L 334.727814 235.083801 
L 334.91767 250.941956 
L 335.107527 251.999295 
L 335.297383 254.283551 
L 335.48724 231.117315 
L 335.677096 233.694307 
L 335.866953 243.254178 
L 336.056809 259.491401 
L 336.246666 262.379548 
L 336.436522 246.767487 
L 336.626379 256.270167 
L 336.816235 256.952599 
L 337.195948 238.416046 
L 337.385804 250.44864 
L 337.575661 248.125993 
L 337.765517 211.0872 
L 337.955374 199.540824 
L 338.14523 248.885283 
L 338.335087 239.369411 
L 338.524943 240.127695 
L 338.7148 211.720884 
L 339.284369 255.685672 
L 339.664082 262.148509 
L 339.853938 262.419608 
L 340.043795 258.567422 
L 340.233651 261.824842 
L 340.423508 236.258112 
L 340.803221 259.934813 
L 340.993077 260.219964 
L 341.182934 256.59887 
L 341.37279 258.027462 
L 341.562647 262.162347 
L 341.752503 261.333604 
L 341.942359 255.915791 
L 342.132216 260.522281 
L 342.322072 256.502607 
L 342.511929 260.953566 
L 342.701785 257.391418 
L 342.891642 256.539127 
L 343.081498 251.714371 
L 343.461211 260.660154 
L 343.651068 261.890763 
L 343.840924 257.887187 
L 344.030781 256.245297 
L 344.220637 260.863698 
L 344.410493 257.811962 
L 344.60035 227.862669 
L 344.790206 253.719684 
L 344.980063 230.138651 
L 345.169919 261.557461 
L 345.359776 255.203808 
L 345.549632 256.664015 
L 345.739489 252.738823 
L 345.929345 245.306808 
L 346.119202 260.744902 
L 346.688771 222.689479 
L 346.878627 253.292247 
L 347.068484 244.523634 
L 347.25834 251.271315 
L 347.448197 247.957875 
L 347.82791 257.372067 
L 348.017766 258.804452 
L 348.207623 251.295844 
L 348.397479 260.66119 
L 348.587336 242.442789 
L 348.777192 255.56652 
L 348.967048 256.714036 
L 349.156905 248.447161 
L 349.346761 255.374338 
L 349.536618 255.721059 
L 349.726474 254.22168 
L 349.916331 257.230795 
L 350.106187 251.563006 
L 350.296044 262.684107 
L 350.4859 250.654851 
L 350.865613 260.795885 
L 351.055469 233.986836 
L 351.245326 248.921669 
L 351.435182 244.835676 
L 351.625039 213.479128 
L 351.814895 242.609466 
L 352.004752 247.506713 
L 352.194608 235.600384 
L 352.384465 256.344657 
L 352.954034 227.864578 
L 353.143891 257.43635 
L 353.333747 256.103222 
L 353.523603 237.875345 
L 353.71346 258.472685 
L 353.903316 251.642849 
L 354.093173 254.943836 
L 354.283029 243.964812 
L 354.472886 260.53841 
L 354.662742 256.613733 
L 354.852599 255.531696 
L 355.042455 241.55685 
L 355.232312 246.949883 
L 355.422168 246.20029 
L 355.612025 237.950015 
L 355.801881 254.359309 
L 355.991737 256.033779 
L 356.181594 259.988797 
L 356.37145 257.029221 
L 356.561307 236.269767 
L 356.751163 253.501388 
L 356.94102 242.454268 
L 357.130876 242.786485 
L 357.320733 253.228354 
L 357.510589 254.443078 
L 357.700446 253.087484 
L 357.890302 246.335651 
L 358.080158 245.217537 
L 358.270015 233.792625 
L 358.459871 247.742661 
L 358.649728 240.559839 
L 358.839584 259.066675 
L 359.029441 251.148633 
L 359.219297 230.784922 
L 359.409154 242.098237 
L 359.59901 211.529488 
L 359.788867 256.705122 
L 359.978723 254.303528 
L 360.16858 260.110483 
L 360.358436 246.002495 
L 360.548292 258.867506 
L 360.738149 261.460799 
L 360.928005 245.299412 
L 361.307718 251.49227 
L 361.497575 236.148031 
L 362.067144 256.940565 
L 362.257001 258.592389 
L 362.446857 261.78754 
L 362.636714 254.487197 
L 362.82657 252.540729 
L 363.016426 259.471605 
L 363.206283 251.650194 
L 363.396139 259.277254 
L 363.585996 252.662614 
L 363.775852 240.620234 
L 363.965709 260.546496 
L 364.155565 260.664302 
L 364.535278 192.233809 
L 364.725135 255.14572 
L 364.914991 260.641533 
L 365.104847 235.913534 
L 365.294704 260.339626 
L 365.48456 258.315149 
L 365.674417 207.532562 
L 365.864273 263.427883 
L 366.243986 238.520157 
L 366.623699 260.570837 
L 366.813556 261.885102 
L 367.193269 245.736358 
L 367.383125 233.538477 
L 367.572981 255.194813 
L 367.762838 260.886537 
L 367.952694 257.700216 
L 368.142551 233.313603 
L 369.28169 257.864604 
L 369.471546 236.984424 
L 369.661403 257.875564 
L 369.851259 225.263929 
L 370.230972 253.244593 
L 370.420828 250.610906 
L 370.610685 246.292431 
L 370.800541 253.916135 
L 370.990398 253.972531 
L 370.990398 253.972531 
" style="fill:none;stroke:#1f77b4;stroke-linecap:square;stroke-width:1.5;"/>
   </g>
   <g id="patch_3">
    <path d="M 30.103125 276.812 
L 30.103125 10.7 
" style="fill:none;stroke:#000000;stroke-linecap:square;stroke-linejoin:miter;stroke-width:0.8;"/>
   </g>
   <g id="patch_4">
    <path d="M 387.223125 276.812 
L 387.223125 10.7 
" style="fill:none;stroke:#000000;stroke-linecap:square;stroke-linejoin:miter;stroke-width:0.8;"/>
   </g>
   <g id="patch_5">
    <path d="M 30.103125 276.812 
L 387.223125 276.812 
" style="fill:none;stroke:#000000;stroke-linecap:square;stroke-linejoin:miter;stroke-width:0.8;"/>
   </g>
   <g id="patch_6">
    <path d="M 30.103125 10.7 
L 387.223125 10.7 
" style="fill:none;stroke:#000000;stroke-linecap:square;stroke-linejoin:miter;stroke-width:0.8;"/>
   </g>
  </g>
 </g>
 <defs>
  <clipPath id="pbf75f0afd2">
   <rect height="266.112" width="357.12" x="30.103125" y="10.7"/>
  </clipPath>
 </defs>
</svg>
