<?xml version="1.0" encoding="utf-8" standalone="no"?>
<!DOCTYPE svg PUBLIC "-//W3C//DTD SVG 1.1//EN"
  "http://www.w3.org/Graphics/SVG/1.1/DTD/svg11.dtd">
<!-- Created with matplotlib (http://matplotlib.org/) -->
<svg height="252.018125pt" version="1.1" viewBox="0 0 372.425 252.018125" width="372.425pt" xmlns="http://www.w3.org/2000/svg" xmlns:xlink="http://www.w3.org/1999/xlink">
 <defs>
  <style type="text/css">
*{stroke-linecap:butt;stroke-linejoin:round;}
  </style>
 </defs>
 <g id="figure_1">
  <g id="patch_1">
   <path d="M -0 252.018125 
L 372.425 252.018125 
L 372.425 0 
L -0 0 
z
" style="fill:#ffffff;"/>
  </g>
  <g id="axes_1">
   <g id="patch_2">
    <path d="M 26.925 228.14 
L 361.725 228.14 
L 361.725 10.7 
L 26.925 10.7 
z
" style="fill:#ffffff;"/>
   </g>
   <g id="matplotlib.axis_1">
    <g id="xtick_1">
     <g id="line2d_1">
      <defs>
       <path d="M 0 0 
L 0 3.5 
" id="m60ace7d204" style="stroke:#000000;stroke-width:0.8;"/>
      </defs>
      <g>
       <use style="stroke:#000000;stroke-width:0.8;" x="42.143182" xlink:href="#m60ace7d204" y="228.14"/>
      </g>
     </g>
     <g id="text_1">
      <!-- 0 -->
      <defs>
       <path d="M 31.78125 66.40625 
Q 24.171875 66.40625 20.328125 58.90625 
Q 16.5 51.421875 16.5 36.375 
Q 16.5 21.390625 20.328125 13.890625 
Q 24.171875 6.390625 31.78125 6.390625 
Q 39.453125 6.390625 43.28125 13.890625 
Q 47.125 21.390625 47.125 36.375 
Q 47.125 51.421875 43.28125 58.90625 
Q 39.453125 66.40625 31.78125 66.40625 
z
M 31.78125 74.21875 
Q 44.046875 74.21875 50.515625 64.515625 
Q 56.984375 54.828125 56.984375 36.375 
Q 56.984375 17.96875 50.515625 8.265625 
Q 44.046875 -1.421875 31.78125 -1.421875 
Q 19.53125 -1.421875 13.0625 8.265625 
Q 6.59375 17.96875 6.59375 36.375 
Q 6.59375 54.828125 13.0625 64.515625 
Q 19.53125 74.21875 31.78125 74.21875 
z
" id="DejaVuSans-30"/>
      </defs>
      <g transform="translate(38.961932 242.738437)scale(0.1 -0.1)">
       <use xlink:href="#DejaVuSans-30"/>
      </g>
     </g>
    </g>
    <g id="xtick_2">
     <g id="line2d_2">
      <g>
       <use style="stroke:#000000;stroke-width:0.8;" x="82.627837" xlink:href="#m60ace7d204" y="228.14"/>
      </g>
     </g>
     <g id="text_2">
      <!-- 500 -->
      <defs>
       <path d="M 10.796875 72.90625 
L 49.515625 72.90625 
L 49.515625 64.59375 
L 19.828125 64.59375 
L 19.828125 46.734375 
Q 21.96875 47.46875 24.109375 47.828125 
Q 26.265625 48.1875 28.421875 48.1875 
Q 40.625 48.1875 47.75 41.5 
Q 54.890625 34.8125 54.890625 23.390625 
Q 54.890625 11.625 47.5625 5.09375 
Q 40.234375 -1.421875 26.90625 -1.421875 
Q 22.3125 -1.421875 17.546875 -0.640625 
Q 12.796875 0.140625 7.71875 1.703125 
L 7.71875 11.625 
Q 12.109375 9.234375 16.796875 8.0625 
Q 21.484375 6.890625 26.703125 6.890625 
Q 35.15625 6.890625 40.078125 11.328125 
Q 45.015625 15.765625 45.015625 23.390625 
Q 45.015625 31 40.078125 35.4375 
Q 35.15625 39.890625 26.703125 39.890625 
Q 22.75 39.890625 18.8125 39.015625 
Q 14.890625 38.140625 10.796875 36.28125 
z
" id="DejaVuSans-35"/>
      </defs>
      <g transform="translate(73.084087 242.738437)scale(0.1 -0.1)">
       <use xlink:href="#DejaVuSans-35"/>
       <use x="63.623047" xlink:href="#DejaVuSans-30"/>
       <use x="127.246094" xlink:href="#DejaVuSans-30"/>
      </g>
     </g>
    </g>
    <g id="xtick_3">
     <g id="line2d_3">
      <g>
       <use style="stroke:#000000;stroke-width:0.8;" x="123.112492" xlink:href="#m60ace7d204" y="228.14"/>
      </g>
     </g>
     <g id="text_3">
      <!-- 1000 -->
      <defs>
       <path d="M 12.40625 8.296875 
L 28.515625 8.296875 
L 28.515625 63.921875 
L 10.984375 60.40625 
L 10.984375 69.390625 
L 28.421875 72.90625 
L 38.28125 72.90625 
L 38.28125 8.296875 
L 54.390625 8.296875 
L 54.390625 0 
L 12.40625 0 
z
" id="DejaVuSans-31"/>
      </defs>
      <g transform="translate(110.387492 242.738437)scale(0.1 -0.1)">
       <use xlink:href="#DejaVuSans-31"/>
       <use x="63.623047" xlink:href="#DejaVuSans-30"/>
       <use x="127.246094" xlink:href="#DejaVuSans-30"/>
       <use x="190.869141" xlink:href="#DejaVuSans-30"/>
      </g>
     </g>
    </g>
    <g id="xtick_4">
     <g id="line2d_4">
      <g>
       <use style="stroke:#000000;stroke-width:0.8;" x="163.597147" xlink:href="#m60ace7d204" y="228.14"/>
      </g>
     </g>
     <g id="text_4">
      <!-- 1500 -->
      <g transform="translate(150.872147 242.738437)scale(0.1 -0.1)">
       <use xlink:href="#DejaVuSans-31"/>
       <use x="63.623047" xlink:href="#DejaVuSans-35"/>
       <use x="127.246094" xlink:href="#DejaVuSans-30"/>
       <use x="190.869141" xlink:href="#DejaVuSans-30"/>
      </g>
     </g>
    </g>
    <g id="xtick_5">
     <g id="line2d_5">
      <g>
       <use style="stroke:#000000;stroke-width:0.8;" x="204.081802" xlink:href="#m60ace7d204" y="228.14"/>
      </g>
     </g>
     <g id="text_5">
      <!-- 2000 -->
      <defs>
       <path d="M 19.1875 8.296875 
L 53.609375 8.296875 
L 53.609375 0 
L 7.328125 0 
L 7.328125 8.296875 
Q 12.9375 14.109375 22.625 23.890625 
Q 32.328125 33.6875 34.8125 36.53125 
Q 39.546875 41.84375 41.421875 45.53125 
Q 43.3125 49.21875 43.3125 52.78125 
Q 43.3125 58.59375 39.234375 62.25 
Q 35.15625 65.921875 28.609375 65.921875 
Q 23.96875 65.921875 18.8125 64.3125 
Q 13.671875 62.703125 7.8125 59.421875 
L 7.8125 69.390625 
Q 13.765625 71.78125 18.9375 73 
Q 24.125 74.21875 28.421875 74.21875 
Q 39.75 74.21875 46.484375 68.546875 
Q 53.21875 62.890625 53.21875 53.421875 
Q 53.21875 48.921875 51.53125 44.890625 
Q 49.859375 40.875 45.40625 35.40625 
Q 44.1875 33.984375 37.640625 27.21875 
Q 31.109375 20.453125 19.1875 8.296875 
z
" id="DejaVuSans-32"/>
      </defs>
      <g transform="translate(191.356802 242.738437)scale(0.1 -0.1)">
       <use xlink:href="#DejaVuSans-32"/>
       <use x="63.623047" xlink:href="#DejaVuSans-30"/>
       <use x="127.246094" xlink:href="#DejaVuSans-30"/>
       <use x="190.869141" xlink:href="#DejaVuSans-30"/>
      </g>
     </g>
    </g>
    <g id="xtick_6">
     <g id="line2d_6">
      <g>
       <use style="stroke:#000000;stroke-width:0.8;" x="244.566457" xlink:href="#m60ace7d204" y="228.14"/>
      </g>
     </g>
     <g id="text_6">
      <!-- 2500 -->
      <g transform="translate(231.841457 242.738437)scale(0.1 -0.1)">
       <use xlink:href="#DejaVuSans-32"/>
       <use x="63.623047" xlink:href="#DejaVuSans-35"/>
       <use x="127.246094" xlink:href="#DejaVuSans-30"/>
       <use x="190.869141" xlink:href="#DejaVuSans-30"/>
      </g>
     </g>
    </g>
    <g id="xtick_7">
     <g id="line2d_7">
      <g>
       <use style="stroke:#000000;stroke-width:0.8;" x="285.051112" xlink:href="#m60ace7d204" y="228.14"/>
      </g>
     </g>
     <g id="text_7">
      <!-- 3000 -->
      <defs>
       <path d="M 40.578125 39.3125 
Q 47.65625 37.796875 51.625 33 
Q 55.609375 28.21875 55.609375 21.1875 
Q 55.609375 10.40625 48.1875 4.484375 
Q 40.765625 -1.421875 27.09375 -1.421875 
Q 22.515625 -1.421875 17.65625 -0.515625 
Q 12.796875 0.390625 7.625 2.203125 
L 7.625 11.71875 
Q 11.71875 9.328125 16.59375 8.109375 
Q 21.484375 6.890625 26.8125 6.890625 
Q 36.078125 6.890625 40.9375 10.546875 
Q 45.796875 14.203125 45.796875 21.1875 
Q 45.796875 27.640625 41.28125 31.265625 
Q 36.765625 34.90625 28.71875 34.90625 
L 20.21875 34.90625 
L 20.21875 43.015625 
L 29.109375 43.015625 
Q 36.375 43.015625 40.234375 45.921875 
Q 44.09375 48.828125 44.09375 54.296875 
Q 44.09375 59.90625 40.109375 62.90625 
Q 36.140625 65.921875 28.71875 65.921875 
Q 24.65625 65.921875 20.015625 65.03125 
Q 15.375 64.15625 9.8125 62.3125 
L 9.8125 71.09375 
Q 15.4375 72.65625 20.34375 73.4375 
Q 25.25 74.21875 29.59375 74.21875 
Q 40.828125 74.21875 47.359375 69.109375 
Q 53.90625 64.015625 53.90625 55.328125 
Q 53.90625 49.265625 50.4375 45.09375 
Q 46.96875 40.921875 40.578125 39.3125 
z
" id="DejaVuSans-33"/>
      </defs>
      <g transform="translate(272.326112 242.738437)scale(0.1 -0.1)">
       <use xlink:href="#DejaVuSans-33"/>
       <use x="63.623047" xlink:href="#DejaVuSans-30"/>
       <use x="127.246094" xlink:href="#DejaVuSans-30"/>
       <use x="190.869141" xlink:href="#DejaVuSans-30"/>
      </g>
     </g>
    </g>
    <g id="xtick_8">
     <g id="line2d_8">
      <g>
       <use style="stroke:#000000;stroke-width:0.8;" x="325.535767" xlink:href="#m60ace7d204" y="228.14"/>
      </g>
     </g>
     <g id="text_8">
      <!-- 3500 -->
      <g transform="translate(312.810767 242.738437)scale(0.1 -0.1)">
       <use xlink:href="#DejaVuSans-33"/>
       <use x="63.623047" xlink:href="#DejaVuSans-35"/>
       <use x="127.246094" xlink:href="#DejaVuSans-30"/>
       <use x="190.869141" xlink:href="#DejaVuSans-30"/>
      </g>
     </g>
    </g>
   </g>
   <g id="matplotlib.axis_2">
    <g id="ytick_1">
     <g id="line2d_9">
      <defs>
       <path d="M 0 0 
L -3.5 0 
" id="m6670889c69" style="stroke:#000000;stroke-width:0.8;"/>
      </defs>
      <g>
       <use style="stroke:#000000;stroke-width:0.8;" x="26.925" xlink:href="#m6670889c69" y="218.287079"/>
      </g>
     </g>
     <g id="text_9">
      <!-- 0 -->
      <g transform="translate(13.5625 222.086298)scale(0.1 -0.1)">
       <use xlink:href="#DejaVuSans-30"/>
      </g>
     </g>
    </g>
    <g id="ytick_2">
     <g id="line2d_10">
      <g>
       <use style="stroke:#000000;stroke-width:0.8;" x="26.925" xlink:href="#m6670889c69" y="182.732804"/>
      </g>
     </g>
     <g id="text_10">
      <!-- 2 -->
      <g transform="translate(13.5625 186.532023)scale(0.1 -0.1)">
       <use xlink:href="#DejaVuSans-32"/>
      </g>
     </g>
    </g>
    <g id="ytick_3">
     <g id="line2d_11">
      <g>
       <use style="stroke:#000000;stroke-width:0.8;" x="26.925" xlink:href="#m6670889c69" y="147.178529"/>
      </g>
     </g>
     <g id="text_11">
      <!-- 4 -->
      <defs>
       <path d="M 37.796875 64.3125 
L 12.890625 25.390625 
L 37.796875 25.390625 
z
M 35.203125 72.90625 
L 47.609375 72.90625 
L 47.609375 25.390625 
L 58.015625 25.390625 
L 58.015625 17.1875 
L 47.609375 17.1875 
L 47.609375 0 
L 37.796875 0 
L 37.796875 17.1875 
L 4.890625 17.1875 
L 4.890625 26.703125 
z
" id="DejaVuSans-34"/>
      </defs>
      <g transform="translate(13.5625 150.977748)scale(0.1 -0.1)">
       <use xlink:href="#DejaVuSans-34"/>
      </g>
     </g>
    </g>
    <g id="ytick_4">
     <g id="line2d_12">
      <g>
       <use style="stroke:#000000;stroke-width:0.8;" x="26.925" xlink:href="#m6670889c69" y="111.624254"/>
      </g>
     </g>
     <g id="text_12">
      <!-- 6 -->
      <defs>
       <path d="M 33.015625 40.375 
Q 26.375 40.375 22.484375 35.828125 
Q 18.609375 31.296875 18.609375 23.390625 
Q 18.609375 15.53125 22.484375 10.953125 
Q 26.375 6.390625 33.015625 6.390625 
Q 39.65625 6.390625 43.53125 10.953125 
Q 47.40625 15.53125 47.40625 23.390625 
Q 47.40625 31.296875 43.53125 35.828125 
Q 39.65625 40.375 33.015625 40.375 
z
M 52.59375 71.296875 
L 52.59375 62.3125 
Q 48.875 64.0625 45.09375 64.984375 
Q 41.3125 65.921875 37.59375 65.921875 
Q 27.828125 65.921875 22.671875 59.328125 
Q 17.53125 52.734375 16.796875 39.40625 
Q 19.671875 43.65625 24.015625 45.921875 
Q 28.375 48.1875 33.59375 48.1875 
Q 44.578125 48.1875 50.953125 41.515625 
Q 57.328125 34.859375 57.328125 23.390625 
Q 57.328125 12.15625 50.6875 5.359375 
Q 44.046875 -1.421875 33.015625 -1.421875 
Q 20.359375 -1.421875 13.671875 8.265625 
Q 6.984375 17.96875 6.984375 36.375 
Q 6.984375 53.65625 15.1875 63.9375 
Q 23.390625 74.21875 37.203125 74.21875 
Q 40.921875 74.21875 44.703125 73.484375 
Q 48.484375 72.75 52.59375 71.296875 
z
" id="DejaVuSans-36"/>
      </defs>
      <g transform="translate(13.5625 115.423473)scale(0.1 -0.1)">
       <use xlink:href="#DejaVuSans-36"/>
      </g>
     </g>
    </g>
    <g id="ytick_5">
     <g id="line2d_13">
      <g>
       <use style="stroke:#000000;stroke-width:0.8;" x="26.925" xlink:href="#m6670889c69" y="76.069979"/>
      </g>
     </g>
     <g id="text_13">
      <!-- 8 -->
      <defs>
       <path d="M 31.78125 34.625 
Q 24.75 34.625 20.71875 30.859375 
Q 16.703125 27.09375 16.703125 20.515625 
Q 16.703125 13.921875 20.71875 10.15625 
Q 24.75 6.390625 31.78125 6.390625 
Q 38.8125 6.390625 42.859375 10.171875 
Q 46.921875 13.96875 46.921875 20.515625 
Q 46.921875 27.09375 42.890625 30.859375 
Q 38.875 34.625 31.78125 34.625 
z
M 21.921875 38.8125 
Q 15.578125 40.375 12.03125 44.71875 
Q 8.5 49.078125 8.5 55.328125 
Q 8.5 64.0625 14.71875 69.140625 
Q 20.953125 74.21875 31.78125 74.21875 
Q 42.671875 74.21875 48.875 69.140625 
Q 55.078125 64.0625 55.078125 55.328125 
Q 55.078125 49.078125 51.53125 44.71875 
Q 48 40.375 41.703125 38.8125 
Q 48.828125 37.15625 52.796875 32.3125 
Q 56.78125 27.484375 56.78125 20.515625 
Q 56.78125 9.90625 50.3125 4.234375 
Q 43.84375 -1.421875 31.78125 -1.421875 
Q 19.734375 -1.421875 13.25 4.234375 
Q 6.78125 9.90625 6.78125 20.515625 
Q 6.78125 27.484375 10.78125 32.3125 
Q 14.796875 37.15625 21.921875 38.8125 
z
M 18.3125 54.390625 
Q 18.3125 48.734375 21.84375 45.5625 
Q 25.390625 42.390625 31.78125 42.390625 
Q 38.140625 42.390625 41.71875 45.5625 
Q 45.3125 48.734375 45.3125 54.390625 
Q 45.3125 60.0625 41.71875 63.234375 
Q 38.140625 66.40625 31.78125 66.40625 
Q 25.390625 66.40625 21.84375 63.234375 
Q 18.3125 60.0625 18.3125 54.390625 
z
" id="DejaVuSans-38"/>
      </defs>
      <g transform="translate(13.5625 79.869198)scale(0.1 -0.1)">
       <use xlink:href="#DejaVuSans-38"/>
      </g>
     </g>
    </g>
    <g id="ytick_6">
     <g id="line2d_14">
      <g>
       <use style="stroke:#000000;stroke-width:0.8;" x="26.925" xlink:href="#m6670889c69" y="40.515705"/>
      </g>
     </g>
     <g id="text_14">
      <!-- 10 -->
      <g transform="translate(7.2 44.314923)scale(0.1 -0.1)">
       <use xlink:href="#DejaVuSans-31"/>
       <use x="63.623047" xlink:href="#DejaVuSans-30"/>
      </g>
     </g>
    </g>
   </g>
   <g id="line2d_15">
    <path clip-path="url(#p32363565ae)" d="M 42.143182 202.041334 
L 42.30512 216.316159 
L 42.38609 216.498467 
L 42.467059 217.200918 
L 42.548028 207.031422 
L 42.628998 214.592827 
L 42.709967 213.424331 
L 42.871906 211.89313 
L 42.952875 215.566926 
L 43.033844 214.151416 
L 43.276752 216.859238 
L 43.51966 208.811551 
L 43.600629 212.520442 
L 43.681599 211.807899 
L 43.762568 208.599464 
L 43.843537 209.967702 
L 43.924507 209.889259 
L 44.005476 210.185591 
L 44.086445 211.77569 
L 44.167415 211.567799 
L 44.329353 203.096146 
L 44.491292 213.243529 
L 44.572261 211.184742 
L 44.65323 211.533488 
L 44.7342 214.468632 
L 44.896138 181.999413 
L 44.977108 109.707209 
L 45.058077 205.548021 
L 45.139046 151.140104 
L 45.220016 206.479941 
L 45.381954 161.231533 
L 45.543893 215.67521 
L 45.705831 148.486383 
L 45.786801 124.063133 
L 45.948739 190.964825 
L 46.110678 174.099671 
L 46.191647 216.430147 
L 46.272617 207.912026 
L 46.434555 216.562923 
L 46.515525 216.879535 
L 46.677463 214.258009 
L 46.920371 217.031698 
L 47.00134 216.36634 
L 47.163279 216.821095 
L 47.325218 215.674939 
L 47.406187 215.85602 
L 47.487156 217.432834 
L 47.568126 215.817423 
L 47.649095 216.183934 
L 47.730064 217.566745 
L 47.811034 216.485459 
L 47.892003 216.55978 
L 47.972972 217.015272 
L 48.053941 216.480231 
L 48.21588 217.358994 
L 48.296849 214.916383 
L 48.377819 216.469948 
L 48.458788 215.613275 
L 48.539757 216.609516 
L 48.620727 216.241581 
L 48.782665 216.86935 
L 49.511389 209.401087 
L 49.592358 209.641904 
L 49.673328 209.633369 
L 49.835266 209.129619 
L 49.916236 208.281726 
L 49.997205 208.373515 
L 50.078174 207.800169 
L 50.159144 205.892071 
L 50.483021 211.509364 
L 50.644959 214.79885 
L 50.725929 214.691703 
L 50.806898 213.756364 
L 50.968837 215.287279 
L 51.049806 213.93994 
L 51.211745 216.69137 
L 51.373683 215.813987 
L 51.454652 216.177775 
L 51.535622 215.395205 
L 51.616591 213.190913 
L 51.69756 217.044539 
L 51.77853 216.657874 
L 51.859499 216.564018 
L 51.940468 216.732396 
L 52.102407 217.764922 
L 52.264346 214.663931 
L 52.345315 217.152489 
L 52.426284 215.948994 
L 52.507254 216.244581 
L 52.588223 216.881379 
L 52.750161 216.16729 
L 52.993069 217.706734 
L 53.155008 216.892835 
L 53.235977 217.03245 
L 53.316947 216.860561 
L 53.478885 217.887782 
L 53.559855 216.991752 
L 53.721793 217.795157 
L 53.883732 216.85528 
L 53.964701 217.582302 
L 54.04567 215.735689 
L 54.207609 217.100266 
L 54.288578 216.945774 
L 54.450517 214.048392 
L 54.531486 215.854759 
L 54.612456 214.435912 
L 54.774394 216.777031 
L 54.855363 216.673877 
L 54.936333 216.447246 
L 55.098271 217.20005 
L 55.179241 217.071986 
L 55.26021 214.528898 
L 55.341179 217.814725 
L 55.422149 217.721971 
L 55.503118 216.720758 
L 55.584087 216.821417 
L 55.665057 217.555698 
L 55.746026 216.650075 
L 55.826995 218.06137 
L 56.069903 216.298052 
L 56.39378 218.185208 
L 56.717658 215.751825 
L 56.960566 216.048243 
L 57.122504 217.345872 
L 57.203473 216.659177 
L 57.284443 216.76041 
L 57.365412 217.7249 
L 57.446381 216.564566 
L 57.527351 217.033578 
L 57.60832 216.887264 
L 57.851228 216.382989 
L 58.013167 215.357043 
L 58.175105 213.709083 
L 58.256075 213.333605 
L 58.660921 208.506712 
L 58.74189 208.541766 
L 58.82286 206.600267 
L 58.903829 206.804922 
L 59.146737 209.278668 
L 59.389645 214.886567 
L 59.794491 217.595818 
L 59.95643 217.162511 
L 60.037399 217.207671 
L 60.118369 217.738489 
L 60.361277 216.356541 
L 60.442246 217.858165 
L 60.523215 216.996678 
L 60.604185 217.13046 
L 60.685154 216.557187 
L 60.766123 213.613432 
L 60.847092 216.473846 
L 60.928062 213.714289 
L 61.17097 217.873279 
L 61.251939 217.085258 
L 61.332908 217.810747 
L 61.494847 206.063367 
L 61.575816 217.003275 
L 61.656786 216.143502 
L 61.737755 216.898089 
L 61.818724 216.358986 
L 61.899693 217.629388 
L 61.980663 217.497097 
L 62.061632 215.818664 
L 62.223571 217.320162 
L 62.30454 216.867023 
L 62.385509 215.351414 
L 62.466479 216.515958 
L 62.790356 212.667218 
L 62.952294 215.462122 
L 63.114233 210.707162 
L 63.195202 209.526697 
L 63.276172 213.714908 
L 63.43811 208.314143 
L 63.51908 207.949444 
L 63.600049 209.029972 
L 63.761988 208.498492 
L 63.842957 211.081485 
L 63.923926 208.014925 
L 64.085865 209.772035 
L 64.166834 209.504971 
L 64.247803 209.585072 
L 64.490711 215.052425 
L 64.571681 216.22928 
L 64.65265 215.674939 
L 64.733619 217.544497 
L 64.895558 214.840341 
L 64.976527 216.111394 
L 65.057497 215.400674 
L 65.138466 215.557923 
L 65.219435 216.38398 
L 65.381374 215.528611 
L 65.462343 216.728003 
L 65.543312 210.042457 
L 65.705251 215.663317 
L 65.86719 217.435322 
L 66.110098 215.576306 
L 66.191067 217.04416 
L 66.272036 215.838523 
L 66.433975 217.252294 
L 66.514944 217.302038 
L 66.595913 215.484924 
L 66.676883 217.697061 
L 66.757852 217.065597 
L 66.838821 216.353977 
L 66.919791 211.343389 
L 67.081729 216.390062 
L 67.243668 210.968561 
L 67.324637 216.235479 
L 67.405607 214.557372 
L 67.486576 216.888782 
L 67.567545 213.219316 
L 67.648514 213.590326 
L 67.729484 212.318933 
L 67.810453 214.303575 
L 67.891422 209.459139 
L 67.972392 218.039446 
L 68.053361 214.026304 
L 68.13433 214.031732 
L 68.2153 215.799628 
L 68.296269 214.470115 
L 68.377238 215.857087 
L 68.458208 214.751436 
L 68.539177 211.494591 
L 68.620146 214.338184 
L 68.701116 211.662538 
L 68.782085 216.031869 
L 68.863054 215.983854 
L 68.944023 216.997775 
L 69.024993 211.300587 
L 69.105962 215.011271 
L 69.186931 211.742992 
L 69.267901 212.836854 
L 69.34887 211.940336 
L 69.429839 215.665205 
L 69.510809 214.255434 
L 69.591778 209.177961 
L 69.834686 214.564082 
L 69.915655 212.703977 
L 70.077594 215.5275 
L 70.320502 213.604005 
L 70.401471 216.689892 
L 70.48244 215.844889 
L 70.644379 214.452606 
L 70.725348 214.053626 
L 71.049225 208.39135 
L 71.130195 207.362422 
L 71.211164 207.369657 
L 71.292133 208.313764 
L 71.373103 205.815189 
L 71.616011 211.245708 
L 71.69698 211.028133 
L 71.777949 208.629896 
L 71.858919 212.861837 
L 71.939888 212.448741 
L 72.020857 212.60993 
L 72.506673 217.374369 
L 72.587642 216.749327 
L 72.668612 216.90149 
L 72.749581 217.536284 
L 72.91152 216.753628 
L 72.992489 217.399523 
L 73.073458 216.479578 
L 73.154428 216.524769 
L 73.397335 217.970847 
L 73.559274 216.885244 
L 73.640243 217.526918 
L 73.721213 217.263523 
L 73.883151 217.549276 
L 73.964121 217.330955 
L 74.126059 217.948515 
L 74.207029 217.599924 
L 74.368967 217.774495 
L 74.449937 216.780941 
L 74.530906 217.159788 
L 74.773814 215.774627 
L 74.935752 217.468361 
L 75.016722 217.336149 
L 75.097691 217.072763 
L 75.17866 217.644993 
L 75.340599 216.71805 
L 75.421568 216.764587 
L 75.502538 216.934915 
L 75.583507 216.620094 
L 75.664476 217.068497 
L 75.745445 216.395416 
L 75.826415 217.680115 
L 75.907384 217.180908 
L 75.988353 218.025549 
L 76.069323 216.940334 
L 76.150292 217.720304 
L 76.312231 216.95 
L 76.3932 217.783782 
L 76.474169 217.69746 
L 76.555139 217.96714 
L 76.798047 215.764135 
L 76.879016 217.830982 
L 76.959985 217.669331 
L 77.040954 218.095263 
L 77.121924 216.943665 
L 77.202893 217.094913 
L 77.283862 217.017686 
L 77.445801 217.737201 
L 77.52677 217.173894 
L 77.60774 218.256364 
L 77.688709 217.976871 
L 77.931617 215.158204 
L 78.012586 217.294405 
L 78.093555 217.049103 
L 78.255494 217.034519 
L 78.498402 218.100246 
L 78.579371 217.777726 
L 78.74131 215.502486 
L 78.903249 217.714096 
L 79.146156 215.411809 
L 79.227126 216.965079 
L 79.308095 216.95 
L 79.389064 216.460497 
L 79.470034 216.714447 
L 79.551003 217.462048 
L 79.631972 217.405924 
L 79.793911 216.903363 
L 79.87488 217.097091 
L 79.95585 216.806686 
L 80.036819 217.585657 
L 80.117788 217.316267 
L 80.198758 217.897953 
L 80.360696 216.961338 
L 80.441665 216.899619 
L 80.522635 217.341871 
L 80.684573 216.580937 
L 80.846512 217.638779 
L 80.927481 217.73506 
L 81.170389 216.013848 
L 81.251359 217.173894 
L 81.332328 216.898939 
L 81.413297 217.171777 
L 81.575236 215.76638 
L 81.656205 216.230885 
L 81.818144 215.920619 
L 81.899113 216.071648 
L 82.061052 215.463291 
L 82.30396 215.715524 
L 82.384929 215.655508 
L 82.465898 215.785634 
L 82.546868 216.179901 
L 82.708806 215.60359 
L 82.870745 214.095956 
L 82.951714 215.180065 
L 83.032683 214.708405 
L 83.113653 214.77466 
L 83.275591 214.46715 
L 83.356561 214.539016 
L 83.518499 213.874672 
L 83.599469 214.128099 
L 83.680438 213.393388 
L 83.761407 213.587515 
L 83.842376 213.521333 
L 83.923346 213.135538 
L 84.085284 215.798585 
L 84.166254 215.354629 
L 84.328192 216.747641 
L 84.409162 215.914447 
L 84.65207 217.727001 
L 84.733039 217.499189 
L 84.814008 217.664387 
L 84.894978 216.028107 
L 84.975947 216.040356 
L 85.056916 216.384104 
L 85.137885 215.765163 
L 85.218855 215.883338 
L 85.299824 216.707563 
L 85.380793 216.02029 
L 85.542732 216.885749 
L 85.623701 217.101857 
L 85.704671 217.059434 
L 85.78564 217.912782 
L 85.866609 217.587677 
L 85.947579 217.716984 
L 86.028548 217.923004 
L 86.109517 217.125982 
L 86.190486 217.6103 
L 86.352425 216.477622 
L 86.433394 217.330462 
L 86.514364 216.946653 
L 86.595333 217.791336 
L 86.757272 213.604559 
L 86.838241 213.791482 
L 87.081149 210.551349 
L 87.243087 209.646789 
L 87.324057 211.450842 
L 87.405026 211.387277 
L 87.485995 210.736498 
L 87.647934 213.996516 
L 87.728903 215.028018 
L 87.890842 214.286736 
L 88.13375 216.560463 
L 88.214719 216.10544 
L 88.295689 216.769087 
L 88.457627 216.000504 
L 88.700535 217.3187 
L 88.862474 216.38646 
L 88.943443 216.446605 
L 89.024412 216.303752 
L 89.186351 215.300912 
L 89.26732 215.439587 
L 89.510228 214.532666 
L 89.672167 213.408255 
L 89.753136 213.49119 
L 89.834105 213.515596 
L 89.915075 213.930726 
L 90.077013 212.793535 
L 90.319921 213.749134 
L 90.48186 213.550671 
L 90.967676 215.882259 
L 91.129614 217.510952 
L 91.210584 217.116272 
L 91.291553 217.077628 
L 91.372522 217.166713 
L 91.453492 218.019311 
L 91.61543 217.108242 
L 91.6964 217.100465 
L 91.777369 216.976547 
L 91.858338 217.068884 
L 91.939307 217.446471 
L 92.101246 216.838087 
L 92.182215 216.593425 
L 92.263185 217.742372 
L 92.344154 216.829323 
L 92.425123 216.93509 
L 92.506093 216.366831 
L 92.587062 217.768548 
L 92.668031 216.885244 
L 92.749001 218.068807 
L 92.82997 217.958413 
L 92.910939 217.994881 
L 93.153847 217.00199 
L 93.234816 217.681282 
L 93.477724 215.253037 
L 93.558694 215.320962 
L 93.639663 215.11538 
L 93.882571 212.910222 
L 93.96354 212.711375 
L 94.04451 212.983893 
L 94.125479 212.418923 
L 94.206448 212.43192 
L 94.287417 212.264212 
L 94.368387 212.879734 
L 94.449356 212.638252 
L 94.692264 213.283766 
L 95.259049 214.500015 
L 95.340019 214.228903 
L 95.501957 212.651293 
L 95.582926 212.517049 
L 95.906804 204.796793 
L 96.068742 204.01778 
L 96.149712 204.260993 
L 96.39262 206.677474 
L 96.473589 206.411205 
L 96.554558 206.886058 
L 97.121343 214.153355 
L 97.445221 217.772199 
L 97.52619 217.05905 
L 97.607159 217.397665 
L 97.769098 215.741427 
L 97.931036 213.325184 
L 98.173944 212.755755 
L 98.335883 211.757207 
L 98.416852 211.65962 
L 98.497822 215.080179 
L 98.65976 211.468875 
L 98.902668 212.467272 
L 99.226545 213.152736 
L 99.307515 213.930076 
L 99.388484 213.503106 
L 99.631392 216.270847 
L 99.712361 216.462047 
L 99.793331 217.246838 
L 99.955269 216.89741 
L 100.117208 217.470669 
L 100.198177 216.896223 
L 100.279146 217.525678 
L 100.522054 216.091646 
L 100.764962 217.427878 
L 100.926901 217.538801 
L 101.08884 217.084669 
L 101.250778 217.849456 
L 101.331747 215.205065 
L 101.493686 217.065211 
L 101.574655 217.489077 
L 101.655625 216.481275 
L 101.736594 217.593094 
L 101.817563 216.536856 
L 101.979502 217.345121 
L 102.060471 217.039047 
L 102.141441 217.430903 
L 102.22241 216.697441 
L 102.303379 216.717749 
L 102.384348 214.089208 
L 102.465318 214.36341 
L 102.708226 217.43893 
L 103.032103 215.836982 
L 103.113072 216.687384 
L 103.194042 216.17867 
L 103.275011 216.554327 
L 103.43695 215.94849 
L 103.517919 216.451738 
L 103.598888 216.24666 
L 103.760827 217.078604 
L 103.841796 216.945774 
L 103.922765 216.616701 
L 104.165673 217.682841 
L 104.246643 218.019311 
L 104.327612 216.529594 
L 104.408581 217.805821 
L 104.489551 217.539117 
L 104.57052 218.133503 
L 104.732458 216.849854 
L 104.813428 216.912599 
L 105.137305 215.777727 
L 105.218274 215.963972 
L 105.542152 214.12946 
L 105.70409 213.766161 
L 105.785059 213.890308 
L 105.946998 213.779955 
L 106.351845 215.486944 
L 106.432814 215.422081 
L 106.675722 214.58269 
L 106.756691 214.89483 
L 106.999599 214.285793 
L 107.080568 214.697152 
L 107.161538 213.82857 
L 107.323476 216.886759 
L 107.404446 211.318197 
L 107.647354 136.469548 
L 107.890262 182.646591 
L 108.0522 206.183508 
L 108.133169 157.192473 
L 108.214139 170.955419 
L 108.538016 206.504797 
L 108.699955 215.875404 
L 108.780924 214.27749 
L 108.942863 202.476129 
L 109.023832 148.089782 
L 109.104801 150.102146 
L 109.185771 197.551687 
L 109.26674 183.281717 
L 109.347709 183.809837 
L 109.428678 188.838005 
L 109.509648 157.047339 
L 109.590617 210.195349 
L 109.833525 70.376465 
L 109.914494 205.582338 
L 110.076433 82.077787 
L 110.319341 193.027471 
L 110.40031 213.528019 
L 110.481279 208.611036 
L 110.562249 205.834379 
L 110.643218 212.244508 
L 110.724187 211.125086 
L 110.886126 217.709994 
L 110.967095 215.835058 
L 111.048065 216.095839 
L 111.210003 217.411294 
L 111.290973 216.435744 
L 111.371942 216.4869 
L 111.452911 216.606846 
L 111.533881 217.040749 
L 111.61485 216.068988 
L 111.695819 216.659177 
L 111.776788 216.606847 
L 111.857758 210.390305 
L 112.019696 217.243442 
L 112.100666 216.836785 
L 112.181635 217.429802 
L 112.262604 217.142554 
L 112.343574 217.639143 
L 112.424543 217.625098 
L 112.667451 215.838523 
L 112.829389 217.669331 
L 112.991328 217.006954 
L 113.072297 217.216446 
L 113.234236 216.01416 
L 113.396175 213.954341 
L 113.558113 212.992572 
L 113.720052 212.786713 
L 113.88199 213.006936 
L 114.124898 212.465854 
L 114.448776 213.332081 
L 114.529745 213.332653 
L 114.772653 214.197813 
L 115.015561 213.096632 
L 115.177499 213.481512 
L 115.339438 213.442553 
L 115.420407 213.407578 
L 115.744285 215.068726 
L 115.906223 212.922474 
L 116.068162 216.34582 
L 116.2301 216.121281 
L 116.31107 216.876689 
L 116.473008 215.90532 
L 116.553978 216.452123 
L 116.634947 215.019922 
L 116.715916 216.737258 
L 116.877855 215.504943 
L 116.958824 216.374584 
L 117.039794 213.786029 
L 117.120763 214.042442 
L 117.282702 212.825226 
L 117.363671 212.926564 
L 117.606579 211.102464 
L 117.687548 211.307714 
L 117.930456 210.021971 
L 118.092395 208.846687 
L 118.335303 209.803447 
L 118.57821 208.611523 
L 118.65918 209.071493 
L 118.740149 208.381249 
L 118.902088 209.081249 
L 118.983057 208.491122 
L 119.306934 209.556174 
L 119.468873 208.988865 
L 119.711781 209.741069 
L 119.873719 208.390802 
L 120.035658 209.166472 
L 120.116627 208.775428 
L 120.440505 209.866961 
L 120.683413 213.455863 
L 120.764382 213.85297 
L 120.845351 212.129635 
L 120.92632 214.951835 
L 121.00729 214.058922 
L 121.088259 214.201275 
L 121.169228 216.499522 
L 121.250198 215.670158 
L 121.331167 217.291558 
L 121.412136 213.714702 
L 121.493106 215.521779 
L 121.574075 207.460881 
L 121.736014 217.474143 
L 121.816983 217.079775 
L 121.897952 217.99167 
L 121.978921 216.221615 
L 122.14086 217.877864 
L 122.464737 215.00868 
L 122.626676 217.979928 
L 122.707645 216.352879 
L 122.788615 216.647052 
L 123.031523 217.421043 
L 123.112492 215.861265 
L 123.27443 217.601987 
L 123.3554 217.721553 
L 123.436369 217.131888 
L 123.517338 217.73378 
L 123.598308 217.24888 
L 123.679277 217.452102 
L 123.841216 217.168188 
L 123.922185 215.332274 
L 124.003154 216.135704 
L 124.246062 213.657137 
L 124.408001 212.711967 
L 124.48897 213.022772 
L 124.731878 208.827195 
L 124.812847 209.103694 
L 124.974786 208.833755 
L 125.055755 208.91192 
L 125.136725 207.64798 
L 125.217694 207.776492 
L 125.460602 205.733139 
L 125.541571 206.251493 
L 125.62254 205.751809 
L 125.70351 205.811123 
L 125.784479 205.797935 
L 125.865448 208.117961 
L 126.189326 204.875012 
L 126.270295 204.706479 
L 126.351264 204.849292 
L 126.594172 210.24473 
L 126.675141 210.318118 
L 127.241927 216.663384 
L 127.322896 217.21205 
L 127.403865 216.657874 
L 127.565804 217.171989 
L 127.646773 216.724376 
L 127.727743 217.099472 
L 127.808712 216.012396 
L 127.889681 216.397911 
L 127.97065 216.747948 
L 128.132589 215.278408 
L 128.375497 215.749965 
L 128.456466 215.429912 
L 128.537436 215.503587 
L 128.618405 215.802569 
L 128.780344 215.337707 
L 128.861313 214.739914 
L 128.942282 214.923387 
L 129.023251 214.896291 
L 129.104221 215.716533 
L 129.18519 212.28186 
L 129.266159 215.754059 
L 129.347129 214.900258 
L 129.428098 215.231426 
L 129.509067 214.658987 
L 129.590037 215.680362 
L 129.671006 214.314128 
L 129.832945 215.27449 
L 129.913914 214.803586 
L 129.994883 215.231271 
L 130.237791 214.018561 
L 130.31876 214.599857 
L 130.39973 213.878309 
L 130.480699 214.542289 
L 130.561668 214.179628 
L 130.642638 214.526263 
L 130.723607 215.834673 
L 130.804576 214.578299 
L 130.966515 216.837598 
L 131.047484 216.322031 
L 131.128454 216.980873 
L 131.209423 216.909856 
L 131.290392 216.276939 
L 131.452331 217.102653 
L 131.5333 216.822866 
L 131.614269 216.017171 
L 131.776208 217.403785 
L 131.857177 215.882455 
L 132.019116 217.235562 
L 132.100085 217.087222 
L 132.181055 216.702048 
L 132.262024 217.199399 
L 132.423962 215.121111 
L 132.504932 217.363324 
L 132.585901 216.353489 
L 132.66687 217.448719 
L 132.74784 217.356456 
L 132.828809 217.172412 
L 132.909778 217.462619 
L 132.990748 216.141742 
L 133.071717 217.604747 
L 133.152686 216.833861 
L 133.233656 217.004194 
L 133.314625 217.215786 
L 133.719471 215.861848 
L 133.800441 216.791628 
L 133.88141 215.489725 
L 134.043349 217.777726 
L 134.124318 216.496753 
L 134.286257 217.647938 
L 134.367226 211.042802 
L 134.448195 216.820291 
L 134.529165 216.772042 
L 134.610134 218.130462 
L 134.853042 217.001439 
L 134.934011 215.344993 
L 135.176919 218.08921 
L 135.257888 216.391555 
L 135.338858 217.571674 
L 135.419827 217.501288 
L 135.500796 216.188762 
L 135.581766 217.635513 
L 135.662735 216.748101 
L 135.824674 217.604747 
L 135.905643 217.742372 
L 135.986612 217.215125 
L 136.391459 210.369128 
L 136.553397 209.501105 
L 136.715336 208.398193 
L 136.877275 207.765927 
L 137.201152 210.919002 
L 137.282121 208.773569 
L 137.525029 216.018626 
L 137.605998 215.036641 
L 137.686968 215.431316 
L 137.767937 217.024579 
L 137.929876 214.798106 
L 138.010845 215.886087 
L 138.091814 214.269733 
L 138.172784 214.485222 
L 138.334722 215.282801 
L 138.415691 214.0616 
L 138.496661 216.933869 
L 138.57763 216.180236 
L 138.739569 215.539749 
L 138.820538 215.539148 
L 138.982477 211.392817 
L 139.225385 208.595959 
L 139.306354 209.08681 
L 139.387323 209.193613 
L 139.468292 208.943546 
L 139.549262 209.092785 
L 139.954108 214.792365 
L 140.035078 211.284671 
L 140.116047 213.524353 
L 140.197016 212.29763 
L 140.277986 206.317675 
L 140.358955 212.854017 
L 140.439924 212.489564 
L 140.520893 211.569134 
L 140.844771 218.044254 
L 141.006709 216.876021 
L 141.087679 217.521662 
L 141.168648 217.398461 
L 141.249617 214.23932 
L 141.330587 217.656109 
L 141.411556 217.464911 
L 141.492525 217.917858 
L 141.573495 216.374585 
L 141.654464 217.621545 
L 141.735433 215.926406 
L 141.816402 215.995352 
L 141.897372 217.783782 
L 141.978341 217.330462 
L 142.05931 216.880709 
L 142.14028 217.385026 
L 142.302218 214.838973 
L 142.464157 217.397665 
L 142.545126 217.637688 
L 142.626096 215.582055 
L 142.707065 217.203745 
L 142.869003 216.476579 
L 143.030942 217.394489 
L 143.192881 216.060073 
L 143.27385 217.19033 
L 143.354819 217.102852 
L 143.435789 216.914487 
L 143.516758 215.76975 
L 143.840635 217.491741 
L 143.921605 215.406236 
L 144.083543 217.585321 
L 144.164512 215.834961 
L 144.245482 217.804353 
L 144.326451 217.382676 
L 144.40742 217.763118 
L 144.569359 216.171188 
L 144.650328 216.536856 
L 144.731298 216.542525 
L 144.812267 216.726642 
L 144.974206 217.398196 
L 145.055175 216.409432 
L 145.136144 216.749481 
L 145.217113 217.99167 
L 145.298083 217.287539 
L 145.379052 217.400055 
L 145.540991 216.737106 
L 145.62196 217.027946 
L 145.702929 216.563334 
L 145.783899 215.340908 
L 145.864868 216.199128 
L 146.107776 213.478862 
L 146.188745 215.602535 
L 146.269715 214.996544 
L 146.350684 215.36793 
L 146.431653 214.174807 
L 146.593592 215.144965 
L 146.75553 215.605348 
L 146.8365 216.015509 
L 146.917469 215.442819 
L 146.998438 215.740408 
L 147.160377 214.47166 
L 147.241346 216.105332 
L 147.322316 215.422163 
L 147.565223 216.780315 
L 147.646193 216.076657 
L 147.727162 216.529594 
L 147.808131 216.211023 
L 147.889101 216.398411 
L 148.051039 217.181761 
L 148.132009 216.115626 
L 148.212978 216.193488 
L 148.293947 217.499788 
L 148.374917 217.219977 
L 148.455886 217.20005 
L 148.536855 217.485832 
L 148.698794 216.275414 
L 148.779763 217.128422 
L 148.860732 214.868098 
L 148.941702 216.591754 
L 149.10364 214.917503 
L 149.18461 214.985667 
L 149.265579 215.049291 
L 149.346548 215.642544 
L 149.427518 212.821599 
L 149.508487 212.834561 
L 149.751395 210.019232 
L 149.832364 213.194015 
L 149.913333 210.619456 
L 149.994303 214.05881 
L 150.156241 208.710707 
L 150.237211 208.790964 
L 150.31818 209.492331 
L 150.399149 209.327025 
L 150.480119 206.853027 
L 150.561088 209.436593 
L 150.723027 207.853563 
L 150.884965 207.553077 
L 151.046904 208.616302 
L 151.45175 216.631166 
L 151.53272 217.101061 
L 151.694658 213.566084 
L 151.775628 214.638115 
L 151.937566 212.597564 
L 152.099505 212.843306 
L 152.180474 213.356369 
L 152.423382 212.07252 
L 152.828229 209.823655 
L 152.909198 209.953681 
L 152.990167 209.964669 
L 153.071137 210.137321 
L 153.152106 209.787088 
L 153.233075 209.873462 
L 153.475983 211.978803 
L 153.556952 211.3654 
L 153.637922 211.912155 
L 153.79986 217.268837 
L 153.88083 214.205433 
L 153.961799 214.243809 
L 154.042768 214.500576 
L 154.123738 213.844202 
L 154.204707 214.943148 
L 154.285676 213.829575 
L 154.447615 216.39916 
L 154.609553 212.061903 
L 154.690523 212.991013 
L 154.933431 217.675084 
L 155.0144 216.370273 
L 155.095369 217.308765 
L 155.176339 217.182828 
L 155.257308 217.665145 
L 155.338277 214.933007 
L 155.581185 217.728266 
L 155.662154 216.785804 
L 155.824093 217.380592 
L 155.986032 214.466841 
L 156.390878 217.169876 
L 156.633786 217.418052 
L 156.714755 218.011497 
L 156.957663 217.088992 
L 157.119602 217.849995 
L 157.36251 217.710403 
L 157.524449 216.192587 
L 157.605418 216.208298 
L 157.767357 217.540379 
L 157.848326 216.169183 
L 157.929295 217.574978 
L 158.091234 216.679589 
L 158.172203 217.740212 
L 158.253172 216.935439 
L 158.334142 216.970084 
L 158.49608 217.742372 
L 158.57705 215.169608 
L 158.658019 217.125982 
L 158.738988 216.479578 
L 158.819958 215.163787 
L 158.900927 215.528526 
L 159.062865 217.208545 
L 159.305773 216.442892 
L 159.386743 213.501578 
L 159.467712 215.697974 
L 159.548681 214.513116 
L 159.629651 216.444939 
L 159.71062 214.579762 
L 159.791589 214.725316 
L 159.872559 214.475804 
L 160.034497 215.90978 
L 160.196436 214.200698 
L 160.277405 217.328984 
L 160.358374 215.231734 
L 160.439344 216.915863 
L 160.520313 215.597006 
L 160.601282 217.419954 
L 160.682252 215.727014 
L 160.763221 216.061027 
L 160.84419 215.750802 
L 160.92516 216.092075 
L 161.087098 217.338384 
L 161.168068 217.590042 
L 161.410975 214.788452 
L 161.572914 217.716984 
L 161.734853 216.784704 
L 161.815822 217.00677 
L 161.896791 214.967287 
L 162.05873 217.553122 
L 162.220669 215.425705 
L 162.301638 217.150204 
L 162.382607 215.267843 
L 162.463577 215.8982 
L 162.787454 217.013049 
L 162.868423 216.985939 
L 162.949392 212.542571 
L 163.030362 216.680763 
L 163.111331 215.501893 
L 163.1923 215.339947 
L 163.27327 214.919183 
L 163.354239 216.833374 
L 163.435208 215.597006 
L 163.516178 217.407263 
L 163.597147 215.837464 
L 163.678116 217.117683 
L 163.759085 216.765207 
L 163.921024 217.448438 
L 164.001993 216.486376 
L 164.244901 217.599581 
L 164.325871 216.300188 
L 164.487809 217.840916 
L 164.568779 216.837598 
L 164.649748 217.605784 
L 164.730717 216.654259 
L 164.892656 217.16314 
L 164.973625 217.133318 
L 165.054594 216.713397 
L 165.135564 214.353984 
L 165.216533 216.057216 
L 165.297502 214.939201 
L 165.378472 216.427101 
L 165.62138 214.576964 
L 165.783318 217.167135 
L 165.864288 217.304675 
L 165.945257 217.121117 
L 166.026226 214.571311 
L 166.107195 217.235562 
L 166.188165 216.437784 
L 166.269134 216.237434 
L 166.593011 217.794199 
L 166.673981 215.960218 
L 166.75495 216.468261 
L 166.997858 214.112929 
L 167.240766 215.547314 
L 167.321735 214.704584 
L 167.564643 217.292269 
L 167.645612 217.11728 
L 167.807551 215.617424 
L 167.88852 217.154153 
L 168.050459 214.730087 
L 168.131428 216.571288 
L 168.212398 215.858738 
L 168.293367 215.987954 
L 168.536275 217.547361 
L 168.617244 215.937623 
L 168.698213 217.207889 
L 168.860152 215.744765 
L 168.941121 216.736954 
L 169.022091 216.172303 
L 169.10306 217.214026 
L 169.184029 215.519818 
L 169.264999 216.049508 
L 169.345968 216.238585 
L 169.507906 217.239833 
L 169.588876 217.024953 
L 169.669845 214.727502 
L 169.750814 200.009646 
L 169.912753 216.129027 
L 169.993722 216.942437 
L 170.155661 208.5181 
L 170.23663 203.896314 
L 170.3176 216.538608 
L 170.398569 215.64531 
L 170.479538 213.041443 
L 170.560508 204.802809 
L 170.641477 215.597795 
L 170.722446 213.22388 
L 170.803415 212.788772 
L 170.965354 215.045142 
L 171.046323 213.920883 
L 171.127293 215.598058 
L 171.208262 209.199528 
L 171.289231 217.292506 
L 171.370201 215.289717 
L 171.45117 217.530651 
L 171.532139 217.243442 
L 171.613109 208.440523 
L 171.694078 216.409307 
L 171.856016 190.451883 
L 171.936986 216.451995 
L 172.017955 216.064844 
L 172.098924 216.060603 
L 172.179894 216.560326 
L 172.260863 191.568409 
L 172.341832 215.049801 
L 172.422802 212.085438 
L 172.503771 200.807894 
L 172.66571 217.665524 
L 172.908617 211.157928 
L 172.989587 213.336796 
L 173.151525 215.699979 
L 173.232495 214.745904 
L 173.313464 216.515026 
L 173.394433 216.492806 
L 173.556372 216.154865 
L 173.637341 216.896223 
L 173.718311 215.399122 
L 173.79928 216.762884 
L 173.880249 215.049582 
L 173.961219 217.217769 
L 174.042188 215.928805 
L 174.123157 217.297022 
L 174.204126 216.799059 
L 174.285096 216.680176 
L 174.366065 217.213806 
L 174.447034 217.025513 
L 174.528004 215.756108 
L 174.608973 216.10166 
L 174.689942 216.879032 
L 174.770912 216.73665 
L 174.851881 216.379153 
L 174.93285 217.181761 
L 175.175758 216.205237 
L 175.256727 215.903736 
L 175.337697 217.128422 
L 175.418666 216.859899 
L 175.499635 215.898102 
L 175.580605 217.053875 
L 175.661574 215.928805 
L 175.742543 216.12466 
L 175.823513 216.560736 
L 176.066421 208.373895 
L 176.228359 216.512234 
L 176.309329 216.807643 
L 176.390298 215.86214 
L 176.471267 212.637249 
L 176.633206 216.536317 
L 176.714175 212.551241 
L 176.795144 216.872015 
L 176.876114 216.728608 
L 176.957083 214.282435 
L 177.119022 216.818363 
L 177.199991 213.498622 
L 177.36193 216.773132 
L 177.442899 216.014782 
L 177.523868 216.700858 
L 177.685807 205.402058 
L 177.847745 217.051582 
L 177.928715 216.903363 
L 178.009684 216.518757 
L 178.090653 216.610359 
L 178.171623 217.106643 
L 178.252592 216.673146 
L 178.333561 211.566044 
L 178.4955 216.832401 
L 178.738408 214.627659 
L 178.900346 217.407263 
L 178.981316 217.279548 
L 179.062285 216.43957 
L 179.143254 211.276323 
L 179.386162 217.462048 
L 179.467132 217.375145 
L 179.548101 217.917858 
L 179.62907 215.466551 
L 179.871978 217.871572 
L 180.033917 214.61017 
L 180.114886 216.371627 
L 180.195855 215.840546 
L 180.276825 212.556835 
L 180.357794 217.017686 
L 180.438763 216.883899 
L 180.600702 217.439764 
L 180.681671 214.320069 
L 180.762641 215.349807 
L 180.84361 215.724528 
L 181.086518 217.967878 
L 181.167487 214.759183 
L 181.248456 214.85646 
L 181.410395 212.786584 
L 181.491364 217.668949 
L 181.572334 217.326034 
L 181.734272 209.75557 
L 181.896211 216.446989 
L 181.97718 215.33012 
L 182.05815 216.846248 
L 182.139119 215.027149 
L 182.220088 215.279976 
L 182.301057 216.55283 
L 182.382027 209.330816 
L 182.462996 216.887264 
L 182.543965 215.959408 
L 182.624935 216.933347 
L 182.705904 216.681497 
L 182.786873 216.683261 
L 182.867843 214.668751 
L 183.029781 217.404854 
L 183.110751 217.473563 
L 183.353658 213.678736 
L 183.515597 217.141524 
L 183.596566 217.723224 
L 183.677536 216.928303 
L 183.758505 212.88484 
L 183.839474 216.790997 
L 183.920444 216.722415 
L 184.082382 215.121409 
L 184.163352 217.199616 
L 184.244321 216.854127 
L 184.32529 215.72637 
L 184.40626 216.387453 
L 184.487229 215.319133 
L 184.649167 216.803503 
L 184.730137 216.42014 
L 184.892075 216.742441 
L 184.973045 213.534367 
L 185.054014 216.161069 
L 185.134983 215.813987 
L 185.215953 216.400035 
L 185.296922 216.330571 
L 185.377891 216.697441 
L 185.458861 216.191011 
L 185.620799 217.450127 
L 185.701768 217.133523 
L 185.782738 215.351414 
L 185.863707 215.875795 
L 185.944676 215.64808 
L 186.025646 214.799255 
L 186.268554 216.614585 
L 186.349523 215.34315 
L 186.592431 217.540695 
L 186.6734 216.858578 
L 186.75437 212.468448 
L 186.835339 217.59038 
L 186.916308 217.323094 
L 186.997277 217.16482 
L 187.078247 217.33491 
L 187.159216 217.270923 
L 187.240185 215.333871 
L 187.483093 217.407263 
L 187.645032 216.099933 
L 187.726001 216.325395 
L 187.806971 217.423225 
L 187.88794 217.35747 
L 187.968909 217.501888 
L 188.211817 211.526332 
L 188.373756 217.483481 
L 188.454725 216.744274 
L 188.535694 217.44423 
L 188.616664 214.628948 
L 188.697633 215.979353 
L 188.778602 213.906538 
L 188.859572 217.712041 
L 188.940541 217.165661 
L 189.02151 217.087418 
L 189.10248 214.9447 
L 189.183449 216.538069 
L 189.264418 213.493847 
L 189.426357 217.537856 
L 189.507326 214.628303 
L 189.750234 217.854879 
L 189.831203 217.34287 
L 189.993142 208.832058 
L 190.074111 215.213034 
L 190.155081 196.570707 
L 190.317019 216.731486 
L 190.397988 216.121717 
L 190.478958 214.042442 
L 190.559927 215.384703 
L 190.640896 209.180032 
L 190.721866 216.570189 
L 190.802835 216.002051 
L 191.045743 211.265263 
L 191.126712 209.228044 
L 191.288651 216.717599 
L 191.36962 213.619138 
L 191.450589 216.82351 
L 191.531559 200.604583 
L 191.693497 215.434538 
L 191.855436 217.301798 
L 191.936405 216.683261 
L 192.017375 216.505205 
L 192.098344 215.602271 
L 192.179313 217.262371 
L 192.260283 217.041506 
L 192.341252 216.436636 
L 192.422221 216.654403 
L 192.503191 216.297697 
L 192.58416 216.873849 
L 192.746098 212.989767 
L 192.908037 217.060011 
L 192.989006 217.013605 
L 193.069976 216.555961 
L 193.231914 217.47909 
L 193.474822 215.932809 
L 193.636761 217.068884 
L 193.798699 216.409935 
L 193.879669 217.29893 
L 193.960638 216.053411 
L 194.041607 216.298764 
L 194.122577 217.575641 
L 194.203546 217.103649 
L 194.365485 216.458045 
L 194.446454 214.77231 
L 194.608393 216.959915 
L 194.770331 216.692109 
L 194.851301 216.955126 
L 194.93227 215.53666 
L 195.094208 217.243442 
L 195.175178 216.232607 
L 195.337116 217.750662 
L 195.580024 217.052155 
L 195.660994 217.201787 
L 195.741963 215.484924 
L 195.903902 217.086239 
L 195.984871 217.017128 
L 196.06584 217.119298 
L 196.146809 216.531071 
L 196.227779 216.8647 
L 196.308748 216.472805 
L 196.389717 216.612893 
L 196.551656 216.518357 
L 196.794564 216.763658 
L 196.875533 217.15332 
L 197.037472 216.541173 
L 197.199411 216.49491 
L 197.28038 217.759529 
L 197.604257 212.210878 
L 197.928134 217.504596 
L 198.009104 213.471265 
L 198.171042 217.371531 
L 198.252012 216.890132 
L 198.332981 215.386654 
L 198.494919 217.252978 
L 198.656858 217.083885 
L 198.737827 216.366708 
L 198.818797 216.416732 
L 198.899766 216.632876 
L 198.980735 214.379492 
L 199.061705 217.761769 
L 199.385582 213.506361 
L 199.466551 217.04739 
L 199.54752 216.747182 
L 199.62849 218.076506 
L 199.871398 216.259648 
L 199.952367 217.466922 
L 200.033336 213.113518 
L 200.195275 217.386335 
L 200.276244 214.411006 
L 200.357214 214.816066 
L 200.438183 217.559902 
L 200.519152 213.381402 
L 200.600122 216.385964 
L 200.681091 214.336751 
L 200.843029 217.656109 
L 200.923999 213.59329 
L 201.004968 216.245736 
L 201.085937 213.146217 
L 201.247876 216.643604 
L 201.328845 216.356541 
L 201.409815 217.259613 
L 201.490784 216.421404 
L 201.571753 217.09116 
L 201.733692 215.654522 
L 201.814661 211.954063 
L 201.89563 217.282126 
L 201.9766 216.529057 
L 202.057569 213.027434 
L 202.219508 216.738933 
L 202.300477 215.29137 
L 202.381446 215.789314 
L 202.462416 217.341871 
L 202.543385 213.909285 
L 202.624354 214.433524 
L 202.786293 217.295356 
L 202.948232 216.296274 
L 203.11017 217.818736 
L 203.191139 216.11454 
L 203.353078 217.839333 
L 203.434047 215.533575 
L 203.515017 217.454648 
L 203.676955 216.653681 
L 203.757925 217.039614 
L 203.838894 212.471286 
L 204.000833 217.229747 
L 204.081802 216.950706 
L 204.162771 213.687803 
L 204.32471 217.16419 
L 204.405679 217.125373 
L 204.567618 216.935264 
L 204.648587 214.754773 
L 204.729556 216.852482 
L 204.810526 213.247131 
L 204.972464 217.331942 
L 205.053434 217.36665 
L 205.215372 215.286336 
L 205.296342 213.114886 
L 205.377311 214.102545 
L 205.539249 217.318943 
L 205.782157 211.603134 
L 205.944096 217.612394 
L 206.106035 216.597747 
L 206.267973 218.095263 
L 206.348943 214.823821 
L 206.429912 217.368445 
L 206.510881 216.746875 
L 206.67282 211.763423 
L 206.753789 215.162353 
L 206.834758 212.244001 
L 206.915728 215.653895 
L 207.077666 214.239903 
L 207.158636 214.381485 
L 207.239605 212.012279 
L 207.320574 218.127478 
L 207.401544 216.288589 
L 207.482513 213.811674 
L 207.563482 214.077258 
L 207.644451 213.212108 
L 207.725421 217.891939 
L 207.80639 217.137619 
L 207.968329 215.594377 
L 208.130267 213.176448 
L 208.211237 213.006177 
L 208.292206 216.102091 
L 208.373175 215.004295 
L 208.454145 217.000339 
L 208.535114 215.173317 
L 208.616083 216.648779 
L 208.697053 212.928456 
L 208.93996 217.817228 
L 209.182868 214.340096 
L 209.263838 214.967998 
L 209.344807 217.554087 
L 209.425776 217.297022 
L 209.587715 212.129329 
L 209.749654 217.949911 
L 209.911592 211.166568 
L 209.992561 217.661364 
L 210.073531 216.424187 
L 210.1545 217.860371 
L 210.235469 216.440336 
L 210.316439 216.729365 
L 210.397408 217.947125 
L 210.478377 216.45238 
L 210.559347 217.384765 
L 210.640316 216.90149 
L 210.721285 217.467497 
L 210.802255 216.922587 
L 210.883224 217.266061 
L 211.045163 215.733379 
L 211.207101 217.194639 
L 211.28807 213.963605 
L 211.36904 217.656857 
L 211.450009 217.156654 
L 211.530978 217.798525 
L 211.773886 216.455082 
L 212.016794 215.496648 
L 212.259702 217.238707 
L 212.421641 217.881337 
L 212.50261 216.201841 
L 212.583579 217.61625 
L 212.826487 214.466162 
L 212.907457 217.878441 
L 212.988426 217.415884 
L 213.069395 214.866029 
L 213.231334 217.672393 
L 213.393273 216.254188 
L 213.474242 217.334167 
L 213.63618 215.94597 
L 213.71715 217.587677 
L 213.798119 215.642901 
L 213.879088 216.831104 
L 213.960058 215.957078 
L 214.121996 216.617973 
L 214.202966 215.670428 
L 214.283935 216.831266 
L 214.364904 216.728003 
L 214.445874 214.234719 
L 214.526843 216.726188 
L 214.607812 215.977718 
L 214.688781 216.806846 
L 214.769751 215.630176 
L 214.85072 217.310695 
L 214.931689 216.970621 
L 215.012659 216.847394 
L 215.174597 215.660891 
L 215.336536 216.848378 
L 215.498475 215.636753 
L 215.579444 216.79289 
L 215.660413 216.161512 
L 215.741383 216.381503 
L 215.822352 217.324318 
L 215.903321 216.19958 
L 215.98429 216.521961 
L 216.06526 217.386073 
L 216.146229 217.045489 
L 216.227198 217.478798 
L 216.308168 215.86214 
L 216.389137 217.684405 
L 216.470106 216.656861 
L 216.551076 216.954241 
L 216.713014 216.710552 
L 216.874953 215.122154 
L 217.117861 216.875018 
L 217.19883 216.460368 
L 217.279799 217.015273 
L 217.360769 216.819648 
L 217.522707 217.136593 
L 217.603677 217.673929 
L 217.684646 214.613442 
L 217.846585 217.162092 
L 217.927554 216.604322 
L 218.008523 217.219977 
L 218.089492 216.18427 
L 218.170462 216.215458 
L 218.251431 217.246838 
L 218.3324 216.922587 
L 218.41337 214.264746 
L 218.494339 216.656861 
L 218.575308 214.938567 
L 218.737247 217.131684 
L 218.818216 209.553365 
L 218.980155 217.539432 
L 219.142094 217.021034 
L 219.223063 217.019731 
L 219.304032 217.317483 
L 219.385001 217.229301 
L 219.465971 217.256176 
L 219.54694 216.683702 
L 219.627909 217.486715 
L 219.708879 216.145594 
L 219.789848 216.458948 
L 219.951787 217.596842 
L 220.032756 216.535778 
L 220.113725 216.707264 
L 220.194695 216.570189 
L 220.275664 215.262224 
L 220.356633 216.534836 
L 220.437602 214.393945 
L 220.518572 215.61204 
L 220.599541 214.200582 
L 220.76148 217.462333 
L 220.923418 208.764053 
L 221.004388 216.58232 
L 221.085357 214.705243 
L 221.166326 216.193713 
L 221.247296 213.105683 
L 221.328265 217.746283 
L 221.571173 211.818282 
L 221.652142 216.490179 
L 221.733111 215.940335 
L 221.814081 211.542259 
L 221.89505 216.603201 
L 221.976019 208.255805 
L 222.137958 214.254089 
L 222.218927 210.961345 
L 222.380866 216.995399 
L 222.461835 215.630176 
L 222.542805 217.221747 
L 222.623774 216.889794 
L 222.704743 214.44425 
L 222.785712 217.047199 
L 222.866682 216.570601 
L 222.947651 216.05637 
L 223.02862 216.17353 
L 223.190559 217.033766 
L 223.352498 214.065509 
L 223.514436 217.145649 
L 223.595406 217.265368 
L 223.676375 216.751937 
L 223.757344 216.878697 
L 223.838314 214.021435 
L 224.000252 216.947181 
L 224.081221 215.741797 
L 224.324129 217.834617 
L 224.405099 215.614951 
L 224.486068 217.128422 
L 224.567037 214.185834 
L 224.648007 216.365235 
L 224.728976 213.71135 
L 224.890915 217.460619 
L 224.971884 215.80181 
L 225.133822 217.127202 
L 225.214792 215.644775 
L 225.37673 217.520738 
L 225.4577 216.844612 
L 225.538669 217.531899 
L 225.619638 216.880206 
L 225.700608 217.379812 
L 225.781577 217.102056 
L 225.862546 215.470902 
L 225.943516 215.499523 
L 226.024485 217.35671 
L 226.105454 216.46334 
L 226.186423 217.416968 
L 226.267393 217.2693 
L 226.348362 217.551838 
L 226.59127 216.88558 
L 226.672239 217.09967 
L 226.753209 217.023645 
L 226.834178 216.741373 
L 226.915147 216.925009 
L 226.996117 216.568129 
L 227.077086 215.005732 
L 227.239025 217.193129 
L 227.319994 215.536746 
L 227.400963 217.379552 
L 227.481932 216.955657 
L 227.562902 209.895581 
L 227.72484 217.847842 
L 227.80581 215.528098 
L 227.886779 217.402985 
L 227.967748 215.553433 
L 228.048718 215.572828 
L 228.129687 217.551517 
L 228.210656 216.862712 
L 228.291626 217.789437 
L 228.453564 216.285405 
L 228.615503 217.761321 
L 228.858411 213.684881 
L 228.93938 216.968652 
L 229.101319 212.428778 
L 229.182288 217.638051 
L 229.263257 216.534836 
L 229.344227 214.990887 
L 229.425196 215.866131 
L 229.587135 212.480133 
L 229.668104 215.685343 
L 229.749073 213.020488 
L 229.830042 217.162511 
L 229.911012 214.2888 
L 229.991981 216.742594 
L 230.07295 211.39463 
L 230.15392 217.198966 
L 230.234889 211.258146 
L 230.396828 216.600542 
L 230.477797 213.780112 
L 230.558766 216.421783 
L 230.639736 214.465792 
L 230.720705 216.334433 
L 230.801674 213.646655 
L 230.963613 217.616602 
L 231.044582 216.150556 
L 231.125551 217.198966 
L 231.206521 215.525022 
L 231.28749 216.775626 
L 231.368459 214.770432 
L 231.530398 217.531275 
L 231.611367 217.492928 
L 231.854275 215.389013 
L 232.016214 217.633705 
L 232.097183 216.761956 
L 232.178152 217.33491 
L 232.259122 216.259764 
L 232.340091 216.524502 
L 232.42106 217.390534 
L 232.50203 217.006954 
L 232.582999 215.126703 
L 232.744938 218.06137 
L 232.825907 217.424591 
L 232.906876 217.809264 
L 232.987846 217.73978 
L 233.068815 217.75819 
L 233.392692 215.22834 
L 233.473661 215.791203 
L 233.554631 216.881883 
L 233.716569 215.855632 
L 233.797539 216.051617 
L 233.959477 215.78837 
L 234.040447 215.935716 
L 234.121416 215.599725 
L 234.202385 216.633447 
L 234.283354 215.906904 
L 234.364324 217.172623 
L 234.607232 213.757822 
L 234.688201 215.946071 
L 234.76917 215.533575 
L 234.85014 215.919622 
L 235.012078 215.593501 
L 235.093048 215.998338 
L 235.254986 214.999771 
L 235.335956 215.262302 
L 235.416925 215.190102 
L 235.497894 214.244217 
L 235.578863 215.824691 
L 235.659833 215.660173 
L 235.821771 215.489135 
L 235.902741 215.616011 
L 235.98371 215.564326 
L 236.226618 216.525439 
L 236.307587 216.393173 
L 236.388557 216.029361 
L 236.631464 216.485329 
L 236.712434 217.410486 
L 236.874372 216.343149 
L 236.955342 217.751102 
L 237.036311 216.24562 
L 237.11728 217.187109 
L 237.19825 216.568129 
L 237.279219 217.684405 
L 237.360188 216.828191 
L 237.441158 217.29893 
L 237.684066 215.461872 
L 237.926973 214.905624 
L 238.007943 215.0533 
L 238.088912 214.534488 
L 238.169881 214.741777 
L 238.412789 214.066179 
L 238.493759 214.722536 
L 238.655697 213.843512 
L 238.736667 214.173201 
L 238.817636 213.797467 
L 238.898605 214.038777 
L 238.979574 213.443722 
L 239.060544 213.711556 
L 239.141513 213.606372 
L 239.303452 213.20041 
L 239.384421 213.318534 
L 239.46539 213.168332 
L 239.54636 212.614253 
L 239.627329 213.340847 
L 239.708298 213.096586 
L 239.870237 212.824707 
L 239.951206 212.50064 
L 240.032176 212.721833 
L 240.113145 212.472381 
L 240.275083 213.366808 
L 240.437022 212.435465 
L 240.517991 213.420355 
L 240.598961 212.597812 
L 240.67993 213.225976 
L 240.760899 213.158987 
L 240.841869 213.271665 
L 240.922838 212.504106 
L 241.003807 212.736133 
L 241.084777 212.5911 
L 241.165746 213.014669 
L 241.246715 212.859055 
L 241.327684 213.062392 
L 241.408654 212.344596 
L 241.489623 213.25214 
L 241.570592 212.555518 
L 241.651562 212.744467 
L 241.732531 213.249612 
L 241.89447 212.099983 
L 241.975439 213.193876 
L 242.137378 212.509206 
L 242.218347 212.416994 
L 242.542224 213.353213 
L 242.704163 214.152214 
L 242.785132 213.065102 
L 243.189979 216.729062 
L 243.351917 216.336487 
L 243.513856 217.893134 
L 243.594825 215.496732 
L 243.756764 216.967937 
L 243.837733 215.797638 
L 243.918702 217.718227 
L 243.999672 217.320162 
L 244.080641 217.454648 
L 244.16161 217.20527 
L 244.24258 216.519024 
L 244.404518 217.786601 
L 244.485488 217.816225 
L 244.566457 217.218652 
L 244.647426 217.897348 
L 244.728395 217.771742 
L 244.971303 217.452102 
L 245.052273 217.391587 
L 245.133242 217.173894 
L 245.214211 217.778189 
L 245.295181 217.684796 
L 245.619058 217.971594 
L 245.780997 216.881212 
L 245.861966 217.669331 
L 246.104874 216.308634 
L 246.266812 217.483187 
L 246.428751 217.948515 
L 246.59069 217.237134 
L 246.671659 216.816277 
L 246.752628 210.873846 
L 246.914567 216.919997 
L 247.076505 217.757744 
L 247.157475 217.807293 
L 247.238444 217.710403 
L 247.400383 217.970847 
L 247.481352 216.925529 
L 247.562321 217.333425 
L 247.643291 217.224185 
L 247.72426 216.116387 
L 247.805229 217.16314 
L 247.886199 216.373105 
L 248.048137 217.327262 
L 248.129107 216.75163 
L 248.210076 217.596501 
L 248.291045 216.429639 
L 248.372014 217.536284 
L 248.452984 216.441741 
L 248.533953 216.541173 
L 248.695892 217.343869 
L 248.85783 215.839101 
L 249.019769 217.455498 
L 249.100738 216.739695 
L 249.181708 217.834617 
L 249.262677 217.716157 
L 249.343646 217.127812 
L 249.424615 217.690304 
L 249.505585 216.969368 
L 249.586554 217.729534 
L 249.829462 215.553347 
L 249.910431 211.40672 
L 249.991401 215.588864 
L 250.07237 213.338702 
L 250.153339 215.564586 
L 250.234309 214.340096 
L 250.315278 214.607348 
L 250.396247 214.861 
L 250.477216 215.702077 
L 250.558186 214.717379 
L 250.639155 214.95134 
L 250.720124 215.009615 
L 250.882063 215.627692 
L 250.963032 215.607547 
L 251.044002 215.173392 
L 251.20594 215.963972 
L 251.28691 214.945124 
L 251.367879 216.018106 
L 251.529818 214.693344 
L 251.610787 214.70386 
L 251.691756 215.668446 
L 251.772725 215.15519 
L 251.853695 216.013745 
L 251.934664 215.830445 
L 252.015633 214.904997 
L 252.096603 215.753407 
L 252.177572 215.193683 
L 252.258541 215.2056 
L 252.42048 215.345715 
L 252.582419 215.156697 
L 252.744357 215.96032 
L 252.825326 212.201995 
L 252.987265 215.599813 
L 253.068234 215.747178 
L 253.149204 216.222872 
L 253.311142 212.139986 
L 253.392112 216.581076 
L 253.473081 215.296255 
L 253.63502 216.813873 
L 253.796958 215.591663 
L 253.958897 217.890747 
L 254.120835 215.34275 
L 254.201805 217.143997 
L 254.282774 217.001256 
L 254.363743 215.953033 
L 254.444713 216.185392 
L 254.525682 215.362683 
L 254.687621 217.249562 
L 254.849559 216.535913 
L 254.930529 217.326034 
L 255.011498 215.192159 
L 255.173436 217.555698 
L 255.254406 216.93265 
L 255.335375 214.45907 
L 255.497314 217.273712 
L 255.578283 215.221947 
L 255.659252 217.231533 
L 255.740222 216.955834 
L 255.821191 217.721971 
L 255.98313 215.557232 
L 256.064099 217.375403 
L 256.145068 216.952826 
L 256.226038 217.052728 
L 256.307007 215.772656 
L 256.468945 217.550556 
L 256.549915 215.906211 
L 256.630884 217.437818 
L 256.711853 216.080181 
L 256.792823 216.525037 
L 256.873792 216.972055 
L 257.035731 215.832846 
L 257.197669 217.73978 
L 257.278639 216.646046 
L 257.359608 217.036781 
L 257.440577 217.388169 
L 257.521546 217.239607 
L 257.764454 215.50927 
L 257.845424 217.517973 
L 257.926393 217.22064 
L 258.007362 215.893269 
L 258.088332 216.83711 
L 258.169301 215.277154 
L 258.33124 217.738919 
L 258.412209 214.751703 
L 258.574148 217.175166 
L 258.655117 216.198789 
L 258.736086 216.540228 
L 258.817055 216.038258 
L 258.898025 216.612893 
L 258.978994 214.64439 
L 259.059963 215.221947 
L 259.302871 217.280016 
L 259.383841 215.923611 
L 259.545779 217.778189 
L 259.626749 217.594795 
L 259.788687 217.209639 
L 259.869656 217.967878 
L 260.031595 216.139874 
L 260.112564 217.443391 
L 260.193534 215.949801 
L 260.274503 216.794311 
L 260.355472 215.12454 
L 260.436442 216.55419 
L 260.517411 215.7008 
L 260.59838 215.908491 
L 260.67935 216.393547 
L 260.760319 216.280697 
L 260.841288 216.348008 
L 261.165165 215.2201 
L 261.246135 215.04536 
L 261.327104 215.638356 
L 261.408073 215.622642 
L 261.489043 214.08494 
L 261.570012 216.398411 
L 261.650981 215.941441 
L 261.731951 215.52434 
L 261.81292 214.447996 
L 261.974859 215.799912 
L 262.055828 211.681363 
L 262.136797 216.545908 
L 262.217766 215.104986 
L 262.298736 214.654245 
L 262.379705 216.904386 
L 262.460674 213.169115 
L 262.622613 217.477632 
L 262.703582 215.895142 
L 262.784552 217.072763 
L 262.865521 214.904927 
L 263.02746 216.462952 
L 263.189398 216.078899 
L 263.270367 214.447136 
L 263.351337 215.19559 
L 263.432306 214.979173 
L 263.513275 214.954807 
L 263.594245 214.635078 
L 263.675214 215.045942 
L 263.837153 214.651908 
L 263.918122 215.4991 
L 263.999091 215.266984 
L 264.241999 214.661263 
L 264.403938 214.198793 
L 264.484907 214.523944 
L 264.565876 214.103391 
L 264.727815 214.42234 
L 264.808784 213.726478 
L 264.889754 214.066347 
L 264.970723 213.639342 
L 265.132662 214.220891 
L 265.213631 213.507447 
L 265.37557 214.379553 
L 265.456539 214.28214 
L 265.537508 213.936197 
L 265.618477 214.058754 
L 265.699447 214.321972 
L 265.780416 214.060316 
L 266.023324 214.813825 
L 266.185263 214.049561 
L 266.266232 214.365334 
L 266.428171 213.752357 
L 266.590109 214.475123 
L 266.671079 213.848292 
L 266.752048 214.083369 
L 266.833017 214.126228 
L 266.913986 214.541723 
L 267.318833 213.671883 
L 267.399802 214.603184 
L 267.480772 213.96677 
L 267.561741 214.402253 
L 267.885618 213.615047 
L 268.047557 214.482059 
L 268.128526 214.255726 
L 268.209495 213.605365 
L 268.290465 214.50787 
L 268.371434 214.359144 
L 268.614342 214.484726 
L 268.695311 214.021877 
L 268.776281 214.045388 
L 268.938219 214.420022 
L 269.019188 214.513867 
L 269.100158 214.3392 
L 269.181127 214.417888 
L 269.262096 214.689277 
L 269.343066 213.874458 
L 269.505004 214.7707 
L 269.747912 213.878041 
L 269.828882 213.694115 
L 270.07179 214.325542 
L 270.152759 214.105477 
L 270.233728 214.275021 
L 270.314697 213.794841 
L 270.395667 214.228845 
L 270.476636 214.106775 
L 270.557605 214.464681 
L 270.638575 214.242817 
L 270.800513 214.703334 
L 270.881483 214.528647 
L 271.043421 213.810462 
L 271.20536 214.748902 
L 271.367298 214.52363 
L 271.448268 214.262519 
L 271.529237 214.451561 
L 271.610206 214.273963 
L 271.691176 214.376656 
L 271.772145 214.11502 
L 271.934084 214.940822 
L 272.015053 213.98581 
L 272.176992 214.749836 
L 272.257961 214.700834 
L 272.581838 216.986483 
L 272.662807 216.455082 
L 272.743777 215.150976 
L 272.905715 217.258695 
L 273.067654 216.028838 
L 273.148623 216.365358 
L 273.391531 215.733194 
L 273.472501 208.718665 
L 273.634439 216.235824 
L 273.715408 214.514742 
L 273.796378 215.10595 
L 273.877347 215.688699 
L 274.039286 214.688687 
L 274.120255 215.42653 
L 274.201224 215.367284 
L 274.282194 215.177334 
L 274.363163 215.282565 
L 274.444132 216.591337 
L 274.606071 212.362483 
L 274.68704 216.279757 
L 274.76801 214.292401 
L 274.848979 216.887264 
L 274.929948 216.760411 
L 275.010917 217.947125 
L 275.091887 217.926258 
L 275.253825 215.867593 
L 275.415764 217.820755 
L 275.577703 216.478665 
L 275.658672 212.086541 
L 275.739641 215.654522 
L 275.820611 213.084922 
L 275.90158 217.287775 
L 275.982549 216.697738 
L 276.225457 217.695863 
L 276.306426 216.611204 
L 276.387396 217.742372 
L 276.468365 217.413721 
L 276.549334 215.288694 
L 276.711273 218.116064 
L 276.873212 214.488511 
L 277.03515 217.947125 
L 277.197089 217.242539 
L 277.278058 217.772658 
L 277.359027 217.12375 
L 277.439997 217.701877 
L 277.520966 215.569962 
L 277.601935 216.748101 
L 277.682905 214.724323 
L 277.763874 217.533149 
L 277.844843 216.759175 
L 278.006782 216.629316 
L 278.087751 217.004929 
L 278.168721 216.226073 
L 278.24969 216.336608 
L 278.330659 217.201352 
L 278.411628 214.862584 
L 278.654536 217.398992 
L 278.735506 217.902219 
L 278.978414 211.503243 
L 279.059383 213.076632 
L 279.140352 217.345371 
L 279.221322 216.238355 
L 279.302291 217.186251 
L 279.464229 215.960522 
L 279.626168 214.623536 
L 279.707137 217.332189 
L 279.788107 217.270691 
L 279.869076 214.995111 
L 280.111984 217.886014 
L 280.354892 216.498862 
L 280.516831 217.766732 
L 280.5978 217.751102 
L 280.678769 217.616602 
L 280.759738 217.204834 
L 280.840708 215.831021 
L 280.921677 217.203527 
L 281.002646 216.872682 
L 281.083616 216.454438 
L 281.164585 217.299407 
L 281.245554 217.201135 
L 281.326524 216.531205 
L 281.488462 217.301559 
L 281.569432 217.328984 
L 281.650401 216.457401 
L 281.73137 217.665524 
L 281.812339 217.462048 
L 281.893309 213.99899 
L 282.055247 216.809557 
L 282.217186 215.603501 
L 282.298155 216.225044 
L 282.379125 213.724823 
L 282.460094 217.656857 
L 282.541063 217.237808 
L 282.622033 217.685972 
L 282.703002 216.772197 
L 282.783971 217.414802 
L 282.864941 217.01416 
L 283.026879 215.64799 
L 283.269787 217.521354 
L 283.350756 214.930055 
L 283.431726 217.421315 
L 283.593664 215.346677 
L 283.674634 217.849456 
L 283.755603 215.431316 
L 283.836572 217.547042 
L 283.917542 216.712798 
L 283.998511 216.811793 
L 284.07948 216.573902 
L 284.160449 216.632163 
L 284.241419 216.702792 
L 284.322388 215.002427 
L 284.403357 217.618011 
L 284.484327 214.435483 
L 284.646265 217.639143 
L 284.808204 210.64966 
L 284.889173 211.25667 
L 285.051112 217.39185 
L 285.132081 213.231198 
L 285.29402 215.44257 
L 285.374989 214.874865 
L 285.536928 216.860726 
L 285.698866 215.125509 
L 285.779836 217.69746 
L 285.860805 216.483235 
L 285.941774 213.076496 
L 286.022744 216.556642 
L 286.103713 214.383297 
L 286.184682 217.865375 
L 286.265652 217.414802 
L 286.346621 214.05987 
L 286.42759 217.695863 
L 286.508559 217.394489 
L 286.589529 217.505803 
L 286.670498 216.934741 
L 286.751467 215.498085 
L 286.832437 217.187109 
L 286.913406 216.857918 
L 286.994375 216.738628 
L 287.075345 217.755077 
L 287.156314 214.728099 
L 287.237283 216.331174 
L 287.318253 213.348387 
L 287.480191 216.762266 
L 287.56116 217.571344 
L 287.64213 214.105477 
L 287.804068 218.059289 
L 288.046976 216.874016 
L 288.127946 216.776875 
L 288.208915 217.143172 
L 288.370854 215.547228 
L 288.451823 214.309144 
L 288.532792 216.448528 
L 288.613762 216.217736 
L 288.7757 215.066675 
L 288.937639 217.830982 
L 289.018608 217.65387 
L 289.180547 215.377236 
L 289.261516 217.171143 
L 289.342485 216.800962 
L 289.423455 214.113211 
L 289.504424 216.428877 
L 289.585393 215.622553 
L 289.666363 214.367861 
L 289.747332 216.429258 
L 289.828301 215.222177 
L 289.90927 217.764019 
L 289.99024 213.511248 
L 290.071209 213.983289 
L 290.233148 216.589808 
L 290.314117 215.502147 
L 290.395086 217.238707 
L 290.476056 216.496753 
L 290.557025 217.705921 
L 290.718964 217.014346 
L 290.799933 217.590042 
L 290.880902 217.558606 
L 291.042841 215.760958 
L 291.366718 217.806311 
L 291.447687 217.638779 
L 291.528657 216.816277 
L 291.609626 217.750223 
L 291.690595 217.081143 
L 291.771565 214.275903 
L 291.933503 217.234217 
L 292.095442 216.177775 
L 292.25738 215.767409 
L 292.33835 216.236974 
L 292.419319 215.983035 
L 292.500288 216.024352 
L 292.581258 214.844586 
L 292.662227 215.016603 
L 292.824166 216.133732 
L 292.905135 215.098248 
L 292.986104 215.244963 
L 293.067074 215.795459 
L 293.148043 214.644001 
L 293.229012 214.869892 
L 293.309981 214.367921 
L 293.390951 212.952498 
L 293.47192 215.053592 
L 293.552889 214.996616 
L 293.633859 214.423927 
L 293.714828 215.088574 
L 293.795797 212.822851 
L 293.957736 214.297304 
L 294.119675 214.70011 
L 294.200644 214.711437 
L 294.281613 212.567341 
L 294.362583 214.405412 
L 294.443552 214.013315 
L 294.60549 215.46279 
L 294.68646 215.12193 
L 294.767429 215.794986 
L 294.848398 213.856376 
L 294.929368 215.386735 
L 295.010337 214.929001 
L 295.091306 215.308345 
L 295.172276 216.239737 
L 295.253245 214.359865 
L 295.334214 215.705455 
L 295.496153 214.446951 
L 295.577122 216.01821 
L 295.658091 215.873449 
L 295.900999 215.259964 
L 296.062938 215.503672 
L 296.143907 214.058922 
L 296.305846 215.521353 
L 296.386815 215.433629 
L 296.548754 213.843459 
L 296.710693 214.69919 
L 296.791662 214.063275 
L 296.872631 214.325364 
L 296.9536 215.800292 
L 297.03457 215.280917 
L 297.115539 215.330679 
L 297.277478 216.992117 
L 297.358447 216.489654 
L 297.520386 217.729111 
L 297.763294 213.533027 
L 297.925232 214.81627 
L 298.249109 213.915755 
L 298.492017 213.601135 
L 298.572987 213.009393 
L 298.653956 213.602192 
L 298.896864 210.917401 
L 298.977833 211.229114 
L 299.058803 210.725261 
L 299.139772 211.60017 
L 299.220741 210.924509 
L 299.30171 211.045537 
L 299.38268 211.033171 
L 299.463649 212.090764 
L 299.544618 209.353017 
L 299.706557 212.129788 
L 299.787526 210.44789 
L 300.030434 214.835691 
L 300.111404 215.747735 
L 300.192373 215.121111 
L 300.273342 215.357526 
L 300.51625 216.887264 
L 300.597219 216.812273 
L 300.678189 217.227073 
L 300.759158 217.1968 
L 300.840127 217.07529 
L 301.002066 216.228249 
L 301.083035 217.087025 
L 301.164005 216.844776 
L 301.244974 216.655993 
L 301.325943 215.950912 
L 301.406913 216.019042 
L 301.568851 216.696403 
L 301.64982 216.191573 
L 301.73079 217.448157 
L 301.811759 217.269764 
L 301.892728 216.942963 
L 301.973698 214.251925 
L 302.135636 216.993939 
L 302.216606 216.337334 
L 302.297575 211.520474 
L 302.378544 216.326838 
L 302.459514 210.917658 
L 302.621452 216.969189 
L 302.86436 217.208764 
L 303.026299 217.319187 
L 303.107268 216.674315 
L 303.269207 217.671242 
L 303.350176 217.477923 
L 303.431145 217.839333 
L 303.512115 216.599004 
L 303.593084 217.837231 
L 303.674053 216.686794 
L 303.755022 216.807005 
L 303.835992 217.0257 
L 303.916961 216.97961 
L 303.99793 216.781568 
L 304.0789 217.198099 
L 304.159869 216.771886 
L 304.321808 217.638051 
L 304.402777 216.617408 
L 304.483746 217.901607 
L 304.564716 217.833056 
L 304.645685 217.310937 
L 304.726654 217.372304 
L 304.888593 217.69268 
L 304.969562 218.110634 
L 305.131501 217.107642 
L 305.21247 217.330215 
L 305.293439 218.19753 
L 305.374409 217.867056 
L 305.455378 218.022857 
L 305.617317 217.131072 
L 305.698286 217.80877 
L 305.779255 217.020103 
L 305.860225 217.761769 
L 306.022163 217.236011 
L 306.103132 217.66363 
L 306.184102 216.799217 
L 306.265071 217.302756 
L 306.34604 217.111448 
L 306.42701 215.650136 
L 306.507979 217.558606 
L 306.669918 213.419047 
L 306.831856 216.782822 
L 306.912826 216.210114 
L 307.074764 216.51064 
L 307.155734 212.477981 
L 307.317672 218.092819 
L 307.398641 217.691095 
L 307.479611 215.668446 
L 307.641549 218.146324 
L 307.722519 216.814354 
L 307.884457 218.043285 
L 308.046396 215.964682 
L 308.208335 218.20877 
L 308.613181 217.754191 
L 308.69415 216.371873 
L 308.77512 217.860924 
L 308.856089 217.677014 
L 308.937058 216.791943 
L 309.018028 217.100266 
L 309.098997 217.625098 
L 309.179966 217.133931 
L 309.260936 217.852159 
L 309.341905 217.171989 
L 309.422874 217.626168 
L 309.503844 217.514607 
L 309.584813 217.572994 
L 309.665782 217.821767 
L 309.746751 215.948187 
L 309.827721 217.556989 
L 309.90869 216.118234 
L 309.989659 217.998945 
L 310.070629 217.195503 
L 310.151598 217.52197 
L 310.232567 217.456066 
L 310.313537 217.019545 
L 310.394506 217.057323 
L 310.475475 217.032074 
L 310.556445 216.562376 
L 310.637414 216.664838 
L 310.718383 217.538171 
L 310.799352 215.474422 
L 310.880322 217.148339 
L 310.961291 216.717599 
L 311.12323 217.669331 
L 311.204199 217.063668 
L 311.285168 217.632623 
L 311.366138 217.187967 
L 311.528076 213.995087 
L 311.609046 216.655126 
L 311.770984 213.752201 
L 311.932923 216.572388 
L 312.013892 215.784126 
L 312.175831 217.411294 
L 312.2568 216.759175 
L 312.337769 216.913285 
L 312.418739 216.964366 
L 312.499708 217.44535 
L 312.580677 216.021435 
L 312.742616 217.206797 
L 312.904555 215.86467 
L 313.147462 217.843567 
L 313.309401 214.819805 
L 313.47134 217.75819 
L 313.633278 216.697887 
L 313.795217 217.911524 
L 313.876186 217.143172 
L 313.957156 217.728688 
L 314.038125 217.300124 
L 314.281033 217.926912 
L 314.362002 217.24888 
L 314.442971 217.338633 
L 314.523941 217.297022 
L 314.60491 217.853789 
L 314.685879 215.872472 
L 314.847818 217.269995 
L 314.928787 217.119702 
L 315.009757 216.640164 
L 315.090726 217.64133 
L 315.171695 215.409513 
L 315.252665 216.926569 
L 315.333634 216.891483 
L 315.414603 216.341451 
L 315.495572 217.460619 
L 315.73848 216.532549 
L 315.81945 216.754551 
L 316.791081 208.863041 
L 316.872051 209.366279 
L 316.95302 209.369293 
L 317.033989 209.698014 
L 317.114959 209.638195 
L 317.357867 208.705905 
L 317.519805 208.929169 
L 317.600775 209.672815 
L 317.924652 216.627183 
L 318.005621 216.455082 
L 318.08659 216.936137 
L 318.16756 216.443788 
L 318.248529 217.201352 
L 318.329498 216.914316 
L 318.410468 217.309488 
L 318.653376 216.119975 
L 318.815314 217.077433 
L 318.896283 216.49491 
L 318.977253 216.953356 
L 319.058222 216.615854 
L 319.139191 216.761956 
L 319.220161 217.246158 
L 319.30113 216.316996 
L 319.544038 217.619422 
L 319.625007 217.570356 
L 319.705977 217.176227 
L 319.786946 217.421315 
L 320.029854 217.04739 
L 320.110823 216.510109 
L 320.272762 215.159411 
L 320.51567 216.899109 
L 320.596639 216.440975 
L 320.677608 216.974928 
L 320.839547 216.187188 
L 320.920516 215.969562 
L 321.163424 213.19939 
L 321.244393 213.313078 
L 321.487301 211.952909 
L 321.568271 211.590337 
L 321.730209 209.505347 
L 321.811179 208.931589 
L 321.892148 209.053467 
L 322.296994 206.899243 
L 322.377964 207.158303 
L 322.458933 207.571903 
L 322.620872 209.668572 
L 322.701841 210.287396 
L 322.86378 215.419448 
L 323.106688 215.963566 
L 323.187657 215.888446 
L 323.268626 216.77547 
L 323.349596 216.764587 
L 323.511534 217.345872 
L 323.673473 216.363885 
L 323.754442 217.54291 
L 323.835411 217.418867 
L 323.916381 217.495307 
L 324.078319 216.959915 
L 324.159289 218.088022 
L 324.321227 215.630531 
L 324.402197 215.476267 
L 324.483166 214.817153 
L 324.645104 212.375275 
L 324.888012 210.59915 
L 324.968982 210.781928 
L 325.049951 210.613153 
L 325.292859 209.473578 
L 325.454798 212.038269 
L 326.021583 215.296255 
L 326.102552 215.249308 
L 326.34546 216.974209 
L 326.588368 217.499788 
L 326.993214 214.847397 
L 327.074184 215.371487 
L 327.398061 213.157653 
L 327.47903 212.966621 
L 327.56 213.279949 
L 327.964846 217.789437 
L 328.126785 218.059289 
L 328.207754 216.904386 
L 328.288723 217.451537 
L 328.369693 209.711424 
L 328.531631 217.331942 
L 328.612601 215.623261 
L 328.69357 215.953538 
L 328.774539 215.998957 
L 328.855509 215.276527 
L 328.936478 215.644061 
L 329.017447 215.368819 
L 329.098417 215.653895 
L 329.179386 215.516837 
L 329.341324 216.602921 
L 329.422294 216.576244 
L 329.584232 217.78613 
L 329.665202 217.652382 
L 329.90811 216.787847 
L 329.989079 217.075874 
L 330.151018 216.358864 
L 330.231987 216.148349 
L 330.393925 215.396265 
L 330.555864 216.33552 
L 330.636833 215.833519 
L 330.798772 217.284005 
L 330.879741 216.701006 
L 330.960711 217.747593 
L 331.04168 217.201135 
L 331.203619 218.135047 
L 331.365557 217.108242 
L 331.446527 217.820249 
L 331.527496 217.779117 
L 331.608465 217.684013 
L 331.770404 217.140701 
L 331.932342 217.039803 
L 332.013312 216.30923 
L 332.17525 217.873849 
L 332.337189 216.506264 
L 332.499128 217.791336 
L 332.661066 216.701155 
L 332.742035 217.77037 
L 332.823005 217.459194 
L 332.903974 217.333178 
L 333.065913 217.96714 
L 333.146882 217.914678 
L 333.308821 216.872015 
L 333.38979 217.67086 
L 333.470759 217.6406 
L 333.551729 216.067393 
L 333.632698 216.204104 
L 333.794637 218.000587 
L 333.875606 217.894934 
L 333.956575 216.646046 
L 334.037544 217.902219 
L 334.118514 216.72121 
L 334.199483 217.854333 
L 334.280452 216.964187 
L 334.442391 217.887782 
L 334.52336 216.028212 
L 334.685299 217.883669 
L 335.009176 216.437273 
L 335.090145 217.743673 
L 335.171115 216.630739 
L 335.333053 217.562176 
L 335.414023 217.323094 
L 335.494992 218.102788 
L 335.575961 217.893134 
L 335.656931 217.081143 
L 335.7379 217.178352 
L 335.818869 216.91879 
L 335.899839 217.07121 
L 335.980808 217.538801 
L 336.304685 205.561507 
L 336.385654 201.43399 
L 336.466624 186.16188 
L 336.547593 191.814902 
L 336.709532 213.995472 
L 336.790501 213.341515 
L 336.87147 217.441436 
L 336.95244 216.797 
L 337.033409 218.133503 
L 337.195348 217.017128 
L 337.438255 217.276509 
L 337.519225 218.024649 
L 337.600194 217.887782 
L 337.762133 216.153096 
L 337.843102 217.27721 
L 337.924071 217.218652 
L 338.005041 216.754243 
L 338.166979 218.091609 
L 338.328918 217.097289 
L 338.490856 217.141524 
L 338.652795 218.04916 
L 338.814734 216.781724 
L 338.895703 216.720608 
L 338.976672 217.502489 
L 339.057642 217.221304 
L 339.138611 216.970621 
L 339.21958 217.200918 
L 339.30055 216.442125 
L 339.381519 217.972342 
L 339.462488 217.171777 
L 339.543458 217.205488 
L 339.624427 217.39185 
L 339.786365 218.085666 
L 339.867335 218.19753 
L 339.948304 216.974209 
L 340.029273 217.377994 
L 340.191212 217.330955 
L 340.272181 218.14801 
L 340.353151 217.230639 
L 340.43412 217.410486 
L 340.515089 217.250017 
L 340.596059 217.29726 
L 340.757997 218.233879 
L 340.838966 218.014077 
L 341.000905 218.096496 
L 341.081874 217.136798 
L 341.162844 217.199182 
L 341.324782 217.374369 
L 341.405752 216.81756 
L 341.486721 218.043285 
L 341.56769 217.795157 
L 341.64866 217.843567 
L 341.810598 218.139774 
L 341.891568 218.032866 
L 341.972537 217.147304 
L 342.053506 218.046205 
L 342.134475 217.274411 
L 342.215445 218.004733 
L 342.296414 217.943673 
L 342.377383 218.176334 
L 342.458353 217.322115 
L 342.539322 218.135047 
L 342.620291 218.030098 
L 342.701261 217.090962 
L 342.78223 218.139774 
L 342.863199 217.176652 
L 343.025138 218.170119 
L 343.106107 217.360775 
L 343.268046 218.116064 
L 343.349015 217.275809 
L 343.429984 218.048171 
L 343.591923 217.186037 
L 343.753862 218.19753 
L 343.834831 218.068807 
L 343.9158 217.274644 
L 343.99677 217.373336 
L 344.077739 217.438652 
L 344.158708 217.224185 
L 344.239678 217.313598 
L 344.320647 217.73378 
L 344.401616 217.642061 
L 344.563555 216.571288 
L 344.644524 217.284005 
L 344.725493 216.896392 
L 344.806463 218.14801 
L 344.887432 217.317483 
L 345.049371 218.136606 
L 345.13034 218.176334 
L 345.211309 217.068304 
L 345.373248 218.117449 
L 345.454217 218.180678 
L 345.535186 217.160625 
L 345.616156 217.774495 
L 345.697125 217.021966 
L 345.859064 205.78112 
L 345.940033 20.583636 
L 346.021002 150.371717 
L 346.101972 103.077637 
L 346.26391 183.226672 
L 346.34488 154.418511 
L 346.506818 216.371135 
L 346.506818 216.371135 
" style="fill:none;stroke:#1f77b4;stroke-linecap:square;stroke-width:1.5;"/>
   </g>
   <g id="patch_3">
    <path d="M 26.925 228.14 
L 26.925 10.7 
" style="fill:none;stroke:#000000;stroke-linecap:square;stroke-linejoin:miter;stroke-width:0.8;"/>
   </g>
   <g id="patch_4">
    <path d="M 361.725 228.14 
L 361.725 10.7 
" style="fill:none;stroke:#000000;stroke-linecap:square;stroke-linejoin:miter;stroke-width:0.8;"/>
   </g>
   <g id="patch_5">
    <path d="M 26.925 228.14 
L 361.725 228.14 
" style="fill:none;stroke:#000000;stroke-linecap:square;stroke-linejoin:miter;stroke-width:0.8;"/>
   </g>
   <g id="patch_6">
    <path d="M 26.925 10.7 
L 361.725 10.7 
" style="fill:none;stroke:#000000;stroke-linecap:square;stroke-linejoin:miter;stroke-width:0.8;"/>
   </g>
  </g>
 </g>
 <defs>
  <clipPath id="p32363565ae">
   <rect height="217.44" width="334.8" x="26.925" y="10.7"/>
  </clipPath>
 </defs>
</svg>
