<?xml version="1.0" encoding="utf-8" standalone="no"?>
<!DOCTYPE svg PUBLIC "-//W3C//DTD SVG 1.1//EN"
  "http://www.w3.org/Graphics/SVG/1.1/DTD/svg11.dtd">
<!-- Created with matplotlib (http://matplotlib.org/) -->
<svg height="300.690125pt" version="1.1" viewBox="0 0 394.745 300.690125" width="394.745pt" xmlns="http://www.w3.org/2000/svg" xmlns:xlink="http://www.w3.org/1999/xlink">
 <defs>
  <style type="text/css">
*{stroke-linecap:butt;stroke-linejoin:round;}
  </style>
 </defs>
 <g id="figure_1">
  <g id="patch_1">
   <path d="M 0 300.690125 
L 394.745 300.690125 
L 394.745 0 
L 0 0 
z
" style="fill:#ffffff;"/>
  </g>
  <g id="axes_1">
   <g id="patch_2">
    <path d="M 26.925 276.812 
L 384.045 276.812 
L 384.045 10.7 
L 26.925 10.7 
z
" style="fill:#ffffff;"/>
   </g>
   <g id="matplotlib.axis_1">
    <g id="xtick_1">
     <g id="line2d_1">
      <defs>
       <path d="M 0 0 
L 0 3.5 
" id="m8a8ae5e709" style="stroke:#000000;stroke-width:0.8;"/>
      </defs>
      <g>
       <use style="stroke:#000000;stroke-width:0.8;" x="43.157727" xlink:href="#m8a8ae5e709" y="276.812"/>
      </g>
     </g>
     <g id="text_1">
      <!-- 0 -->
      <defs>
       <path d="M 31.78125 66.40625 
Q 24.171875 66.40625 20.328125 58.90625 
Q 16.5 51.421875 16.5 36.375 
Q 16.5 21.390625 20.328125 13.890625 
Q 24.171875 6.390625 31.78125 6.390625 
Q 39.453125 6.390625 43.28125 13.890625 
Q 47.125 21.390625 47.125 36.375 
Q 47.125 51.421875 43.28125 58.90625 
Q 39.453125 66.40625 31.78125 66.40625 
z
M 31.78125 74.21875 
Q 44.046875 74.21875 50.515625 64.515625 
Q 56.984375 54.828125 56.984375 36.375 
Q 56.984375 17.96875 50.515625 8.265625 
Q 44.046875 -1.421875 31.78125 -1.421875 
Q 19.53125 -1.421875 13.0625 8.265625 
Q 6.59375 17.96875 6.59375 36.375 
Q 6.59375 54.828125 13.0625 64.515625 
Q 19.53125 74.21875 31.78125 74.21875 
z
" id="DejaVuSans-30"/>
      </defs>
      <g transform="translate(39.976477 291.410437)scale(0.1 -0.1)">
       <use xlink:href="#DejaVuSans-30"/>
      </g>
     </g>
    </g>
    <g id="xtick_2">
     <g id="line2d_2">
      <g>
       <use style="stroke:#000000;stroke-width:0.8;" x="86.341359" xlink:href="#m8a8ae5e709" y="276.812"/>
      </g>
     </g>
     <g id="text_2">
      <!-- 500 -->
      <defs>
       <path d="M 10.796875 72.90625 
L 49.515625 72.90625 
L 49.515625 64.59375 
L 19.828125 64.59375 
L 19.828125 46.734375 
Q 21.96875 47.46875 24.109375 47.828125 
Q 26.265625 48.1875 28.421875 48.1875 
Q 40.625 48.1875 47.75 41.5 
Q 54.890625 34.8125 54.890625 23.390625 
Q 54.890625 11.625 47.5625 5.09375 
Q 40.234375 -1.421875 26.90625 -1.421875 
Q 22.3125 -1.421875 17.546875 -0.640625 
Q 12.796875 0.140625 7.71875 1.703125 
L 7.71875 11.625 
Q 12.109375 9.234375 16.796875 8.0625 
Q 21.484375 6.890625 26.703125 6.890625 
Q 35.15625 6.890625 40.078125 11.328125 
Q 45.015625 15.765625 45.015625 23.390625 
Q 45.015625 31 40.078125 35.4375 
Q 35.15625 39.890625 26.703125 39.890625 
Q 22.75 39.890625 18.8125 39.015625 
Q 14.890625 38.140625 10.796875 36.28125 
z
" id="DejaVuSans-35"/>
      </defs>
      <g transform="translate(76.797609 291.410437)scale(0.1 -0.1)">
       <use xlink:href="#DejaVuSans-35"/>
       <use x="63.623047" xlink:href="#DejaVuSans-30"/>
       <use x="127.246094" xlink:href="#DejaVuSans-30"/>
      </g>
     </g>
    </g>
    <g id="xtick_3">
     <g id="line2d_3">
      <g>
       <use style="stroke:#000000;stroke-width:0.8;" x="129.524991" xlink:href="#m8a8ae5e709" y="276.812"/>
      </g>
     </g>
     <g id="text_3">
      <!-- 1000 -->
      <defs>
       <path d="M 12.40625 8.296875 
L 28.515625 8.296875 
L 28.515625 63.921875 
L 10.984375 60.40625 
L 10.984375 69.390625 
L 28.421875 72.90625 
L 38.28125 72.90625 
L 38.28125 8.296875 
L 54.390625 8.296875 
L 54.390625 0 
L 12.40625 0 
z
" id="DejaVuSans-31"/>
      </defs>
      <g transform="translate(116.799991 291.410437)scale(0.1 -0.1)">
       <use xlink:href="#DejaVuSans-31"/>
       <use x="63.623047" xlink:href="#DejaVuSans-30"/>
       <use x="127.246094" xlink:href="#DejaVuSans-30"/>
       <use x="190.869141" xlink:href="#DejaVuSans-30"/>
      </g>
     </g>
    </g>
    <g id="xtick_4">
     <g id="line2d_4">
      <g>
       <use style="stroke:#000000;stroke-width:0.8;" x="172.708623" xlink:href="#m8a8ae5e709" y="276.812"/>
      </g>
     </g>
     <g id="text_4">
      <!-- 1500 -->
      <g transform="translate(159.983623 291.410437)scale(0.1 -0.1)">
       <use xlink:href="#DejaVuSans-31"/>
       <use x="63.623047" xlink:href="#DejaVuSans-35"/>
       <use x="127.246094" xlink:href="#DejaVuSans-30"/>
       <use x="190.869141" xlink:href="#DejaVuSans-30"/>
      </g>
     </g>
    </g>
    <g id="xtick_5">
     <g id="line2d_5">
      <g>
       <use style="stroke:#000000;stroke-width:0.8;" x="215.892255" xlink:href="#m8a8ae5e709" y="276.812"/>
      </g>
     </g>
     <g id="text_5">
      <!-- 2000 -->
      <defs>
       <path d="M 19.1875 8.296875 
L 53.609375 8.296875 
L 53.609375 0 
L 7.328125 0 
L 7.328125 8.296875 
Q 12.9375 14.109375 22.625 23.890625 
Q 32.328125 33.6875 34.8125 36.53125 
Q 39.546875 41.84375 41.421875 45.53125 
Q 43.3125 49.21875 43.3125 52.78125 
Q 43.3125 58.59375 39.234375 62.25 
Q 35.15625 65.921875 28.609375 65.921875 
Q 23.96875 65.921875 18.8125 64.3125 
Q 13.671875 62.703125 7.8125 59.421875 
L 7.8125 69.390625 
Q 13.765625 71.78125 18.9375 73 
Q 24.125 74.21875 28.421875 74.21875 
Q 39.75 74.21875 46.484375 68.546875 
Q 53.21875 62.890625 53.21875 53.421875 
Q 53.21875 48.921875 51.53125 44.890625 
Q 49.859375 40.875 45.40625 35.40625 
Q 44.1875 33.984375 37.640625 27.21875 
Q 31.109375 20.453125 19.1875 8.296875 
z
" id="DejaVuSans-32"/>
      </defs>
      <g transform="translate(203.167255 291.410437)scale(0.1 -0.1)">
       <use xlink:href="#DejaVuSans-32"/>
       <use x="63.623047" xlink:href="#DejaVuSans-30"/>
       <use x="127.246094" xlink:href="#DejaVuSans-30"/>
       <use x="190.869141" xlink:href="#DejaVuSans-30"/>
      </g>
     </g>
    </g>
    <g id="xtick_6">
     <g id="line2d_6">
      <g>
       <use style="stroke:#000000;stroke-width:0.8;" x="259.075887" xlink:href="#m8a8ae5e709" y="276.812"/>
      </g>
     </g>
     <g id="text_6">
      <!-- 2500 -->
      <g transform="translate(246.350887 291.410437)scale(0.1 -0.1)">
       <use xlink:href="#DejaVuSans-32"/>
       <use x="63.623047" xlink:href="#DejaVuSans-35"/>
       <use x="127.246094" xlink:href="#DejaVuSans-30"/>
       <use x="190.869141" xlink:href="#DejaVuSans-30"/>
      </g>
     </g>
    </g>
    <g id="xtick_7">
     <g id="line2d_7">
      <g>
       <use style="stroke:#000000;stroke-width:0.8;" x="302.259519" xlink:href="#m8a8ae5e709" y="276.812"/>
      </g>
     </g>
     <g id="text_7">
      <!-- 3000 -->
      <defs>
       <path d="M 40.578125 39.3125 
Q 47.65625 37.796875 51.625 33 
Q 55.609375 28.21875 55.609375 21.1875 
Q 55.609375 10.40625 48.1875 4.484375 
Q 40.765625 -1.421875 27.09375 -1.421875 
Q 22.515625 -1.421875 17.65625 -0.515625 
Q 12.796875 0.390625 7.625 2.203125 
L 7.625 11.71875 
Q 11.71875 9.328125 16.59375 8.109375 
Q 21.484375 6.890625 26.8125 6.890625 
Q 36.078125 6.890625 40.9375 10.546875 
Q 45.796875 14.203125 45.796875 21.1875 
Q 45.796875 27.640625 41.28125 31.265625 
Q 36.765625 34.90625 28.71875 34.90625 
L 20.21875 34.90625 
L 20.21875 43.015625 
L 29.109375 43.015625 
Q 36.375 43.015625 40.234375 45.921875 
Q 44.09375 48.828125 44.09375 54.296875 
Q 44.09375 59.90625 40.109375 62.90625 
Q 36.140625 65.921875 28.71875 65.921875 
Q 24.65625 65.921875 20.015625 65.03125 
Q 15.375 64.15625 9.8125 62.3125 
L 9.8125 71.09375 
Q 15.4375 72.65625 20.34375 73.4375 
Q 25.25 74.21875 29.59375 74.21875 
Q 40.828125 74.21875 47.359375 69.109375 
Q 53.90625 64.015625 53.90625 55.328125 
Q 53.90625 49.265625 50.4375 45.09375 
Q 46.96875 40.921875 40.578125 39.3125 
z
" id="DejaVuSans-33"/>
      </defs>
      <g transform="translate(289.534519 291.410437)scale(0.1 -0.1)">
       <use xlink:href="#DejaVuSans-33"/>
       <use x="63.623047" xlink:href="#DejaVuSans-30"/>
       <use x="127.246094" xlink:href="#DejaVuSans-30"/>
       <use x="190.869141" xlink:href="#DejaVuSans-30"/>
      </g>
     </g>
    </g>
    <g id="xtick_8">
     <g id="line2d_8">
      <g>
       <use style="stroke:#000000;stroke-width:0.8;" x="345.443151" xlink:href="#m8a8ae5e709" y="276.812"/>
      </g>
     </g>
     <g id="text_8">
      <!-- 3500 -->
      <g transform="translate(332.718151 291.410437)scale(0.1 -0.1)">
       <use xlink:href="#DejaVuSans-33"/>
       <use x="63.623047" xlink:href="#DejaVuSans-35"/>
       <use x="127.246094" xlink:href="#DejaVuSans-30"/>
       <use x="190.869141" xlink:href="#DejaVuSans-30"/>
      </g>
     </g>
    </g>
   </g>
   <g id="matplotlib.axis_2">
    <g id="ytick_1">
     <g id="line2d_9">
      <defs>
       <path d="M 0 0 
L -3.5 0 
" id="mfe545086d4" style="stroke:#000000;stroke-width:0.8;"/>
      </defs>
      <g>
       <use style="stroke:#000000;stroke-width:0.8;" x="26.925" xlink:href="#mfe545086d4" y="264.75359"/>
      </g>
     </g>
     <g id="text_9">
      <!-- 0 -->
      <g transform="translate(13.5625 268.552809)scale(0.1 -0.1)">
       <use xlink:href="#DejaVuSans-30"/>
      </g>
     </g>
    </g>
    <g id="ytick_2">
     <g id="line2d_10">
      <g>
       <use style="stroke:#000000;stroke-width:0.8;" x="26.925" xlink:href="#mfe545086d4" y="221.240809"/>
      </g>
     </g>
     <g id="text_10">
      <!-- 2 -->
      <g transform="translate(13.5625 225.040028)scale(0.1 -0.1)">
       <use xlink:href="#DejaVuSans-32"/>
      </g>
     </g>
    </g>
    <g id="ytick_3">
     <g id="line2d_11">
      <g>
       <use style="stroke:#000000;stroke-width:0.8;" x="26.925" xlink:href="#mfe545086d4" y="177.728028"/>
      </g>
     </g>
     <g id="text_11">
      <!-- 4 -->
      <defs>
       <path d="M 37.796875 64.3125 
L 12.890625 25.390625 
L 37.796875 25.390625 
z
M 35.203125 72.90625 
L 47.609375 72.90625 
L 47.609375 25.390625 
L 58.015625 25.390625 
L 58.015625 17.1875 
L 47.609375 17.1875 
L 47.609375 0 
L 37.796875 0 
L 37.796875 17.1875 
L 4.890625 17.1875 
L 4.890625 26.703125 
z
" id="DejaVuSans-34"/>
      </defs>
      <g transform="translate(13.5625 181.527246)scale(0.1 -0.1)">
       <use xlink:href="#DejaVuSans-34"/>
      </g>
     </g>
    </g>
    <g id="ytick_4">
     <g id="line2d_12">
      <g>
       <use style="stroke:#000000;stroke-width:0.8;" x="26.925" xlink:href="#mfe545086d4" y="134.215246"/>
      </g>
     </g>
     <g id="text_12">
      <!-- 6 -->
      <defs>
       <path d="M 33.015625 40.375 
Q 26.375 40.375 22.484375 35.828125 
Q 18.609375 31.296875 18.609375 23.390625 
Q 18.609375 15.53125 22.484375 10.953125 
Q 26.375 6.390625 33.015625 6.390625 
Q 39.65625 6.390625 43.53125 10.953125 
Q 47.40625 15.53125 47.40625 23.390625 
Q 47.40625 31.296875 43.53125 35.828125 
Q 39.65625 40.375 33.015625 40.375 
z
M 52.59375 71.296875 
L 52.59375 62.3125 
Q 48.875 64.0625 45.09375 64.984375 
Q 41.3125 65.921875 37.59375 65.921875 
Q 27.828125 65.921875 22.671875 59.328125 
Q 17.53125 52.734375 16.796875 39.40625 
Q 19.671875 43.65625 24.015625 45.921875 
Q 28.375 48.1875 33.59375 48.1875 
Q 44.578125 48.1875 50.953125 41.515625 
Q 57.328125 34.859375 57.328125 23.390625 
Q 57.328125 12.15625 50.6875 5.359375 
Q 44.046875 -1.421875 33.015625 -1.421875 
Q 20.359375 -1.421875 13.671875 8.265625 
Q 6.984375 17.96875 6.984375 36.375 
Q 6.984375 53.65625 15.1875 63.9375 
Q 23.390625 74.21875 37.203125 74.21875 
Q 40.921875 74.21875 44.703125 73.484375 
Q 48.484375 72.75 52.59375 71.296875 
z
" id="DejaVuSans-36"/>
      </defs>
      <g transform="translate(13.5625 138.014465)scale(0.1 -0.1)">
       <use xlink:href="#DejaVuSans-36"/>
      </g>
     </g>
    </g>
    <g id="ytick_5">
     <g id="line2d_13">
      <g>
       <use style="stroke:#000000;stroke-width:0.8;" x="26.925" xlink:href="#mfe545086d4" y="90.702465"/>
      </g>
     </g>
     <g id="text_13">
      <!-- 8 -->
      <defs>
       <path d="M 31.78125 34.625 
Q 24.75 34.625 20.71875 30.859375 
Q 16.703125 27.09375 16.703125 20.515625 
Q 16.703125 13.921875 20.71875 10.15625 
Q 24.75 6.390625 31.78125 6.390625 
Q 38.8125 6.390625 42.859375 10.171875 
Q 46.921875 13.96875 46.921875 20.515625 
Q 46.921875 27.09375 42.890625 30.859375 
Q 38.875 34.625 31.78125 34.625 
z
M 21.921875 38.8125 
Q 15.578125 40.375 12.03125 44.71875 
Q 8.5 49.078125 8.5 55.328125 
Q 8.5 64.0625 14.71875 69.140625 
Q 20.953125 74.21875 31.78125 74.21875 
Q 42.671875 74.21875 48.875 69.140625 
Q 55.078125 64.0625 55.078125 55.328125 
Q 55.078125 49.078125 51.53125 44.71875 
Q 48 40.375 41.703125 38.8125 
Q 48.828125 37.15625 52.796875 32.3125 
Q 56.78125 27.484375 56.78125 20.515625 
Q 56.78125 9.90625 50.3125 4.234375 
Q 43.84375 -1.421875 31.78125 -1.421875 
Q 19.734375 -1.421875 13.25 4.234375 
Q 6.78125 9.90625 6.78125 20.515625 
Q 6.78125 27.484375 10.78125 32.3125 
Q 14.796875 37.15625 21.921875 38.8125 
z
M 18.3125 54.390625 
Q 18.3125 48.734375 21.84375 45.5625 
Q 25.390625 42.390625 31.78125 42.390625 
Q 38.140625 42.390625 41.71875 45.5625 
Q 45.3125 48.734375 45.3125 54.390625 
Q 45.3125 60.0625 41.71875 63.234375 
Q 38.140625 66.40625 31.78125 66.40625 
Q 25.390625 66.40625 21.84375 63.234375 
Q 18.3125 60.0625 18.3125 54.390625 
z
" id="DejaVuSans-38"/>
      </defs>
      <g transform="translate(13.5625 94.501684)scale(0.1 -0.1)">
       <use xlink:href="#DejaVuSans-38"/>
      </g>
     </g>
    </g>
    <g id="ytick_6">
     <g id="line2d_14">
      <g>
       <use style="stroke:#000000;stroke-width:0.8;" x="26.925" xlink:href="#mfe545086d4" y="47.189683"/>
      </g>
     </g>
     <g id="text_14">
      <!-- 10 -->
      <g transform="translate(7.2 50.988902)scale(0.1 -0.1)">
       <use xlink:href="#DejaVuSans-31"/>
       <use x="63.623047" xlink:href="#DejaVuSans-30"/>
      </g>
     </g>
    </g>
   </g>
   <g id="line2d_15">
    <path clip-path="url(#p57e132b5e9)" d="M 43.157727 244.871381 
L 43.330462 262.341497 
L 43.416829 262.564614 
L 43.503196 263.424302 
L 43.589564 250.978455 
L 43.675931 260.232414 
L 43.762298 258.80236 
L 43.935033 256.928414 
L 44.0214 261.424555 
L 44.107767 259.692196 
L 44.366869 263.006141 
L 44.625971 253.15705 
L 44.712338 257.696144 
L 44.798705 256.824104 
L 44.885073 252.89749 
L 44.97144 254.571996 
L 45.057807 254.475994 
L 45.144174 254.838657 
L 45.230542 256.784686 
L 45.316909 256.53026 
L 45.489643 246.162303 
L 45.662378 258.581087 
L 45.748745 256.061459 
L 45.835112 256.488268 
L 45.92148 260.080418 
L 46.094214 220.343256 
L 46.180582 131.869087 
L 46.266949 249.163008 
L 46.353316 182.576366 
L 46.439683 250.30353 
L 46.612418 194.926671 
L 46.785152 261.557078 
L 46.957887 179.328633 
L 47.044254 149.438457 
L 47.216989 231.315495 
L 47.389723 210.675227 
L 47.47609 262.481001 
L 47.562458 252.056174 
L 47.735192 262.643498 
L 47.82156 263.030981 
L 47.994294 259.822649 
L 48.253396 263.217204 
L 48.339763 262.402911 
L 48.512498 262.95946 
L 48.685232 261.556746 
L 48.771599 261.778361 
L 48.857967 263.70813 
L 48.944334 261.731124 
L 49.030701 262.179675 
L 49.117068 263.872017 
L 49.203436 262.548695 
L 49.289803 262.639651 
L 49.37617 263.197102 
L 49.462538 262.542295 
L 49.635272 263.617762 
L 49.721639 260.628394 
L 49.808007 262.529711 
L 49.894374 261.481279 
L 49.980741 262.70052 
L 50.067108 262.250226 
L 50.239843 263.018516 
L 51.017148 253.878549 
L 51.103516 254.173271 
L 51.189883 254.162826 
L 51.362617 253.546315 
L 51.448985 252.508628 
L 51.535352 252.620964 
L 51.621719 251.91928 
L 51.708086 249.584071 
L 52.053555 256.458744 
L 52.22629 260.484552 
L 52.312657 260.353423 
L 52.399025 259.208716 
L 52.571759 261.082312 
L 52.658126 259.433383 
L 52.830861 262.800696 
L 53.003595 261.726919 
L 53.089963 262.172138 
L 53.17633 261.214397 
L 53.262697 258.516694 
L 53.349064 263.23292 
L 53.435432 262.759703 
L 53.521799 262.644838 
L 53.608166 262.850906 
L 53.780901 264.114553 
L 53.953635 260.319433 
L 54.040003 263.365033 
L 54.12637 261.892146 
L 54.212737 262.253898 
L 54.299104 263.033238 
L 54.471839 262.159306 
L 54.730941 264.04334 
L 54.903675 263.047258 
L 54.990042 263.218124 
L 55.07641 263.007759 
L 55.249144 264.264915 
L 55.335511 263.168317 
L 55.508246 264.151557 
L 55.680981 263.001296 
L 55.767348 263.891056 
L 55.853715 261.631095 
L 56.02645 263.30112 
L 56.112817 263.112046 
L 56.285551 259.566111 
L 56.371919 261.776818 
L 56.458286 260.040374 
L 56.63102 262.905532 
L 56.717388 262.779288 
L 56.803755 262.501927 
L 56.97649 263.42324 
L 57.062857 263.26651 
L 57.149224 260.154175 
L 57.235591 264.175504 
L 57.321959 264.061988 
L 57.408326 262.836663 
L 57.494693 262.959853 
L 57.58106 263.858496 
L 57.667428 262.750158 
L 57.753795 264.477358 
L 58.012897 262.319338 
L 58.185631 263.428295 
L 58.271998 263.23083 
L 58.358366 264.628917 
L 58.703835 261.650843 
L 58.962937 262.013612 
L 59.135671 263.601703 
L 59.222038 262.761298 
L 59.308406 262.885191 
L 59.394773 264.065573 
L 59.48114 262.645508 
L 59.567507 263.219505 
L 59.912976 262.423287 
L 60.085711 261.167692 
L 60.258446 259.150851 
L 60.344813 258.691325 
L 60.776649 252.783976 
L 60.863016 252.826877 
L 60.949384 250.45079 
L 61.035751 250.701255 
L 61.294853 253.728728 
L 61.553955 260.591904 
L 61.985791 263.907597 
L 62.158525 263.377298 
L 62.244893 263.432566 
L 62.33126 264.082204 
L 62.590362 262.390919 
L 62.676729 264.228669 
L 62.763096 263.174345 
L 62.849463 263.338073 
L 62.935831 262.636478 
L 63.022198 259.03379 
L 63.108565 262.534481 
L 63.194933 259.157223 
L 63.454034 264.247165 
L 63.540402 263.282752 
L 63.626769 264.170636 
L 63.799503 249.79371 
L 63.885871 263.182418 
L 63.972238 262.130193 
L 64.058605 263.053688 
L 64.144972 262.393911 
L 64.23134 263.948681 
L 64.317707 263.786778 
L 64.404074 261.732644 
L 64.576809 263.570238 
L 64.663176 263.015668 
L 64.749543 261.160803 
L 64.835911 262.586021 
L 65.18138 257.875775 
L 65.354114 261.296293 
L 65.526849 255.476977 
L 65.613216 254.032276 
L 65.699583 259.15798 
L 65.872318 252.548303 
L 65.958685 252.101968 
L 66.045052 253.424363 
L 66.217787 252.773916 
L 66.304154 255.935089 
L 66.390521 252.182107 
L 66.563256 254.33253 
L 66.649623 254.005686 
L 66.73599 254.103718 
L 66.995092 260.794888 
L 67.081459 262.235172 
L 67.167827 261.556746 
L 67.254194 263.844788 
L 67.426928 260.535331 
L 67.513296 262.090898 
L 67.599663 261.22109 
L 67.68603 261.413538 
L 67.772398 262.4245 
L 67.945132 261.377665 
L 68.031499 262.845529 
L 68.117867 254.663484 
L 68.290601 261.542523 
L 68.463336 263.711176 
L 68.722437 261.436036 
L 68.808805 263.232455 
L 68.895172 261.756947 
L 69.067906 263.487178 
L 69.154274 263.548057 
L 69.240641 261.324198 
L 69.327008 264.031502 
L 69.413376 263.258691 
L 69.499743 262.387781 
L 69.58611 256.255618 
L 69.758845 262.431944 
L 69.931579 255.796887 
L 70.017946 262.242758 
L 70.104314 260.189023 
L 70.190681 263.042297 
L 70.277048 258.551455 
L 70.363415 259.005511 
L 70.449783 257.449528 
L 70.53615 259.878415 
L 70.622517 253.949595 
L 70.708884 264.450527 
L 70.795252 259.539079 
L 70.881619 259.545722 
L 70.967986 261.709346 
L 71.054354 260.082233 
L 71.140721 261.779667 
L 71.227088 260.426526 
L 71.313455 256.440665 
L 71.399823 259.920771 
L 71.48619 256.646206 
L 71.572557 261.993572 
L 71.658924 261.93481 
L 71.745292 263.175688 
L 71.831659 256.203235 
L 71.918026 260.744523 
L 72.004393 256.744668 
L 72.090761 258.083381 
L 72.177128 256.986186 
L 72.263495 261.544834 
L 72.349863 259.819498 
L 72.43623 253.605478 
L 72.695332 260.197234 
L 72.781699 257.920761 
L 72.954433 261.376304 
L 73.213535 259.022252 
L 73.299902 262.798888 
L 73.38627 261.764738 
L 73.559004 260.060805 
L 73.645371 259.572517 
L 73.990841 252.642791 
L 74.077208 251.383547 
L 74.163575 251.392401 
L 74.249942 252.547839 
L 74.33631 249.489979 
L 74.595411 256.136072 
L 74.681779 255.869794 
L 74.768146 252.934733 
L 74.854513 258.113957 
L 74.94088 257.608393 
L 75.027248 257.805663 
L 75.545451 263.636579 
L 75.631819 262.871627 
L 75.718186 263.05785 
L 75.804553 263.834737 
L 75.977288 262.876891 
L 76.063655 263.667364 
L 76.150022 262.541497 
L 76.236389 262.596804 
L 76.495491 264.366573 
L 76.668226 263.037967 
L 76.754593 263.823275 
L 76.84096 263.500921 
L 77.013695 263.850637 
L 77.100062 263.583447 
L 77.272797 264.339242 
L 77.359164 263.912623 
L 77.531898 264.126269 
L 77.618266 262.910317 
L 77.704633 263.373965 
L 77.963735 261.678749 
L 78.136469 263.75161 
L 78.222836 263.589804 
L 78.309204 263.267461 
L 78.395571 263.96778 
L 78.568306 262.833349 
L 78.654673 262.890303 
L 78.74104 263.098758 
L 78.827407 262.713465 
L 78.913775 263.26224 
L 79.000142 262.438496 
L 79.086509 264.010763 
L 79.172876 263.399813 
L 79.259244 264.433519 
L 79.345611 263.105388 
L 79.431978 264.059948 
L 79.604713 263.117219 
L 79.69108 264.137635 
L 79.777447 264.031991 
L 79.863814 264.362036 
L 79.950182 262.786278 
L 80.036549 263.360714 
L 80.122916 261.665908 
L 80.209284 264.195401 
L 80.295651 263.997565 
L 80.382018 264.518838 
L 80.468385 263.109466 
L 80.554753 263.294568 
L 80.64112 263.200055 
L 80.813854 264.080627 
L 80.900222 263.391229 
L 80.986589 264.716 
L 81.072956 264.373946 
L 81.332058 260.924345 
L 81.418425 263.538716 
L 81.504792 263.238505 
L 81.677527 263.220657 
L 81.936629 264.524937 
L 82.022996 264.130224 
L 82.195731 261.345691 
L 82.368465 264.05235 
L 82.627567 261.234717 
L 82.713934 263.135673 
L 82.800301 263.117219 
L 82.886669 262.518145 
L 82.973036 262.828939 
L 83.059403 263.743883 
L 83.145771 263.675197 
L 83.318505 263.060143 
L 83.404872 263.297234 
L 83.49124 262.941825 
L 83.577607 263.895161 
L 83.663974 263.565471 
L 83.750341 264.277363 
L 83.923076 263.131094 
L 84.009443 263.05556 
L 84.09581 263.596806 
L 84.182178 263.321943 
L 84.268545 262.665545 
L 84.441279 263.960174 
L 84.527647 264.078008 
L 84.614014 262.781974 
L 84.700381 263.022389 
L 84.786749 261.971518 
L 84.873116 263.391229 
L 84.959483 263.054728 
L 85.04585 263.388639 
L 85.218585 261.668655 
L 85.304952 262.237137 
L 85.391319 262.074234 
L 85.477687 261.857419 
L 85.564054 262.042255 
L 85.736788 261.297723 
L 85.99589 261.606416 
L 86.082257 261.532966 
L 86.168625 261.69222 
L 86.254992 262.174739 
L 86.427727 261.469426 
L 86.600461 259.624322 
L 86.686828 260.9511 
L 86.773196 260.373862 
L 86.859563 260.454948 
L 87.032297 260.078605 
L 87.118665 260.166557 
L 87.291399 259.353506 
L 87.377766 259.66366 
L 87.464134 258.764491 
L 87.550501 259.002071 
L 87.636868 258.921075 
L 87.723236 258.448924 
L 87.89597 261.70807 
L 87.982337 261.164738 
L 88.155072 262.869564 
L 88.241439 261.849867 
L 88.414174 263.39903 
L 88.500541 264.068145 
L 88.586908 263.789339 
L 88.673275 263.991515 
L 88.759643 261.988968 
L 88.84601 262.003959 
L 88.932377 262.424652 
L 89.018744 261.667167 
L 89.105112 261.811794 
L 89.191479 262.820514 
L 89.277846 261.979402 
L 89.450581 263.038585 
L 89.536948 263.303067 
L 89.623315 263.251148 
L 89.709683 264.295511 
L 89.79605 263.897634 
L 89.968784 264.308021 
L 90.055152 263.332593 
L 90.141519 263.925321 
L 90.314253 262.539103 
L 90.400621 263.582843 
L 90.486988 263.113122 
L 90.573355 264.14688 
L 90.74609 259.02293 
L 90.832457 259.251695 
L 91.091559 255.286286 
L 91.264293 254.179249 
L 91.350661 256.387123 
L 91.437028 256.30933 
L 91.523395 255.51288 
L 91.69613 259.502624 
L 91.782497 260.765018 
L 91.955231 259.857807 
L 92.214333 262.640487 
L 92.300701 262.083611 
L 92.387068 262.895809 
L 92.559802 261.955186 
L 92.818904 263.568448 
L 92.991639 262.427536 
L 93.078006 262.501143 
L 93.164373 262.326314 
L 93.337108 261.098997 
L 93.423475 261.268713 
L 93.596209 260.932472 
L 93.855311 258.782685 
L 94.028046 258.914054 
L 94.114413 259.422107 
L 94.287148 258.030366 
L 94.546249 259.199867 
L 94.718984 258.956981 
L 95.237187 261.810474 
L 95.409922 263.803735 
L 95.582657 263.273415 
L 95.669024 263.382441 
L 95.755391 264.425885 
L 95.928126 263.310882 
L 96.014493 263.301364 
L 96.10086 263.149708 
L 96.187227 263.262714 
L 96.273595 263.724821 
L 96.446329 262.980254 
L 96.532696 262.680827 
L 96.619064 264.086956 
L 96.705431 262.96953 
L 96.791798 263.098971 
L 96.878165 262.403512 
L 96.964533 264.118991 
L 97.0509 263.037967 
L 97.137267 264.48646 
L 97.223635 264.351355 
L 97.310002 264.395987 
L 97.569104 263.180845 
L 97.655471 264.012191 
L 97.914573 261.040406 
L 98.00094 261.123535 
L 98.087307 260.871935 
L 98.346409 258.173172 
L 98.432776 257.929815 
L 98.519144 258.263333 
L 98.605511 257.571901 
L 98.691878 257.587806 
L 98.778245 257.382559 
L 98.864613 258.13586 
L 98.95098 257.840324 
L 99.210082 258.63033 
L 99.814652 260.118827 
L 99.90102 259.787029 
L 100.073754 257.856285 
L 100.160122 257.691991 
L 100.505591 248.243624 
L 100.678325 247.290237 
L 100.764692 247.58789 
L 101.023794 250.545279 
L 101.110161 250.219408 
L 101.196529 250.800553 
L 101.8011 259.69457 
L 102.146569 264.12346 
L 102.232936 263.250678 
L 102.319303 263.66509 
L 102.492038 261.638117 
L 102.664772 258.68102 
L 102.923874 257.98413 
L 103.096609 256.762065 
L 103.182976 256.642634 
L 103.269343 260.828855 
L 103.442078 256.409193 
L 103.701179 257.631072 
L 104.046648 258.469971 
L 104.133016 259.421312 
L 104.219383 258.898768 
L 104.392117 262.038999 
L 104.564852 262.520042 
L 104.651219 263.480501 
L 104.823954 263.052857 
L 104.996688 263.754434 
L 105.083056 263.051404 
L 105.169423 263.821757 
L 105.428525 262.066729 
L 105.601259 263.467251 
L 105.773994 263.807834 
L 105.860361 263.837818 
L 106.033095 263.282032 
L 106.20583 264.218009 
L 106.292197 260.981695 
L 106.464932 263.258219 
L 106.551299 263.776963 
L 106.637666 262.543574 
L 106.724034 263.904263 
L 106.810401 262.611596 
L 106.983135 263.600783 
L 107.069503 263.226197 
L 107.15587 263.705768 
L 107.242237 262.808127 
L 107.328604 262.832981 
L 107.414972 259.616064 
L 107.501339 259.951643 
L 107.760441 263.715591 
L 108.10591 261.755062 
L 108.192277 262.795818 
L 108.278644 262.173233 
L 108.365012 262.632977 
L 108.537746 261.891529 
L 108.624113 262.507425 
L 108.710481 262.256443 
L 108.883215 263.274609 
L 108.969582 263.112046 
L 109.05595 262.709314 
L 109.315052 264.0141 
L 109.401419 264.425885 
L 109.487786 262.602708 
L 109.574153 264.164607 
L 109.660521 263.838204 
L 109.746888 264.565638 
L 109.919622 262.994656 
L 110.00599 263.071445 
L 110.351459 261.682542 
L 110.437826 261.910476 
L 110.783295 259.665326 
L 110.95603 259.220706 
L 111.042397 259.372642 
L 111.215131 259.237588 
L 111.646968 261.326671 
L 111.733335 261.247288 
L 111.992437 260.220007 
L 112.078804 260.602017 
L 112.337906 259.856653 
L 112.424273 260.360091 
L 112.51064 259.297084 
L 112.683375 263.039821 
L 112.769742 256.224787 
L 113.028844 164.621937 
L 113.287946 221.135299 
L 113.374313 229.760598 
L 113.46068 249.940744 
L 113.547047 189.983503 
L 113.633415 206.827162 
L 113.978884 250.33395 
L 114.151618 261.802084 
L 114.237986 259.846492 
L 114.41072 245.403501 
L 114.497087 178.843256 
L 114.583455 181.30607 
L 114.669822 239.376767 
L 114.756189 221.912592 
L 114.842556 222.558926 
L 114.928924 228.712604 
L 115.015291 189.805882 
L 115.101658 254.850599 
L 115.36076 83.734509 
L 115.447127 249.205007 
L 115.619862 98.055067 
L 115.878964 233.839845 
L 115.965331 258.929257 
L 116.051698 252.911651 
L 116.138065 249.513465 
L 116.224433 257.358444 
L 116.3108 255.988449 
L 116.483534 264.04733 
L 116.569902 261.752706 
L 116.656269 262.071862 
L 116.829003 263.681769 
L 116.915371 262.487851 
L 117.001738 262.550458 
L 117.088105 262.697253 
L 117.174473 263.22828 
L 117.26084 262.038999 
L 117.347207 262.761298 
L 117.433574 262.697253 
L 117.519942 255.089195 
L 117.692676 263.476345 
L 117.779043 262.978661 
L 117.865411 263.70442 
L 117.951778 263.352874 
L 118.038145 263.96062 
L 118.124512 263.943432 
L 118.383614 261.756947 
L 118.556349 263.997565 
L 118.729083 263.186922 
L 118.815451 263.443307 
L 118.988185 261.971899 
L 119.16092 259.451008 
L 119.333654 258.273956 
L 119.506389 258.022017 
L 119.679123 258.291535 
L 119.938225 257.629337 
L 120.283694 258.689461 
L 120.370061 258.69016 
L 120.629163 259.748979 
L 120.888265 258.401309 
L 121.060999 258.87234 
L 121.233734 258.824661 
L 121.320101 258.781857 
L 121.66557 260.814838 
L 121.838305 258.188167 
L 122.011039 262.377798 
L 122.183774 262.102999 
L 122.270141 263.027498 
L 122.442876 261.838696 
L 122.529243 262.507897 
L 122.61561 260.75511 
L 122.701977 262.856856 
L 122.874712 261.348699 
L 122.961079 262.413001 
L 123.047446 259.245021 
L 123.133814 259.55883 
L 123.306548 258.06915 
L 123.392916 258.193172 
L 123.652017 255.960764 
L 123.738385 256.211957 
L 123.997486 254.638412 
L 124.170221 253.200052 
L 124.429323 254.370974 
L 124.688425 252.912248 
L 124.774792 253.475178 
L 124.861159 252.63043 
L 125.033894 253.487118 
L 125.120261 252.764896 
L 125.46573 254.06835 
L 125.638464 253.374055 
L 125.724832 253.721169 
L 125.811199 253.583192 
L 125.897566 254.294633 
L 126.070301 252.642121 
L 126.243035 253.591417 
L 126.329403 253.112842 
L 126.674872 254.448704 
L 126.847606 257.937533 
L 127.020341 259.326947 
L 127.106708 257.217858 
L 127.193075 260.671782 
L 127.279442 259.578998 
L 127.36581 259.753216 
L 127.452177 262.565905 
L 127.538544 261.550895 
L 127.624911 263.535231 
L 127.711279 259.157728 
L 127.797646 261.369304 
L 127.884013 251.504045 
L 128.056748 263.758686 
L 128.143115 263.276043 
L 128.229482 264.392057 
L 128.31585 262.225792 
L 128.488584 264.252776 
L 128.834053 260.741352 
L 129.006788 264.377686 
L 129.093155 262.386438 
L 129.179522 262.746459 
L 129.438624 263.6937 
L 129.524991 261.78478 
L 129.697726 263.915147 
L 129.784093 264.061477 
L 129.87046 263.339821 
L 129.956828 264.076441 
L 130.043195 263.483001 
L 130.129562 263.731711 
L 130.302297 263.384246 
L 130.388664 261.13738 
L 130.475031 262.12065 
L 130.734133 259.087278 
L 130.906868 257.93054 
L 130.993235 258.310916 
L 131.252337 253.176196 
L 131.338704 253.514587 
L 131.511438 253.184224 
L 131.597806 253.279886 
L 131.684173 251.733024 
L 131.77054 251.890302 
L 132.029642 249.389564 
L 132.116009 250.023946 
L 132.202376 249.412412 
L 132.288744 249.485004 
L 132.375111 249.468863 
L 132.461478 252.308207 
L 132.806947 248.339352 
L 132.893315 248.133095 
L 132.979682 248.307875 
L 133.238784 254.911034 
L 133.325151 255.000849 
L 133.843354 262.773392 
L 133.929722 262.766447 
L 134.016089 263.437925 
L 134.102456 262.759703 
L 134.275191 263.388897 
L 134.361558 262.841091 
L 134.447925 263.300148 
L 134.534293 261.969741 
L 134.707027 262.869939 
L 134.879762 261.071455 
L 134.966129 261.408148 
L 135.052496 261.275105 
L 135.138863 261.648566 
L 135.225231 261.256872 
L 135.311598 261.347039 
L 135.397965 261.712945 
L 135.5707 261.144028 
L 135.657067 260.412425 
L 135.829802 260.603805 
L 135.916169 261.607651 
L 136.002536 257.404157 
L 136.088903 261.653576 
L 136.175271 260.60866 
L 136.261638 261.013957 
L 136.348005 260.313383 
L 136.434372 261.563383 
L 136.52074 259.89133 
L 136.693474 261.066661 
L 136.779841 260.490349 
L 136.866209 261.013768 
L 137.125311 259.529603 
L 137.211678 260.241017 
L 137.298045 259.357956 
L 137.384412 260.170563 
L 137.47078 259.726723 
L 137.557147 260.15095 
L 137.643514 261.752236 
L 137.729881 260.214634 
L 137.902616 262.979657 
L 137.988983 262.348684 
L 138.07535 263.155003 
L 138.161718 263.068088 
L 138.248085 262.293499 
L 138.420819 263.304042 
L 138.507187 262.961627 
L 138.593554 261.975584 
L 138.766289 263.67258 
L 138.852656 261.810714 
L 139.02539 263.466702 
L 139.111758 263.285156 
L 139.198125 262.813764 
L 139.284492 263.422443 
L 139.457227 260.878949 
L 139.543594 263.623062 
L 139.629961 262.387184 
L 139.716328 263.727571 
L 139.802696 263.614656 
L 139.889063 263.389415 
L 139.97543 263.744583 
L 140.061798 262.12804 
L 140.148165 263.918524 
L 140.234532 262.975082 
L 140.320899 263.183543 
L 140.407267 263.442498 
L 140.839103 261.785494 
L 140.92547 262.923396 
L 141.011837 261.330074 
L 141.184572 264.130224 
L 141.270939 262.562517 
L 141.443674 263.971384 
L 141.530041 255.887747 
L 141.616408 262.958475 
L 141.702776 262.899426 
L 141.789143 264.561916 
L 142.048245 263.180172 
L 142.134612 261.152946 
L 142.393714 264.511431 
L 142.480081 262.433771 
L 142.566448 263.878048 
L 142.652815 263.791907 
L 142.739183 262.185584 
L 142.82555 263.956177 
L 142.911917 262.870126 
L 143.084652 263.918524 
L 143.171019 264.086956 
L 143.257386 263.44169 
L 143.689223 255.063277 
L 143.861957 254.000954 
L 144.034692 252.651166 
L 144.207426 251.877373 
L 144.552895 255.736235 
L 144.639262 253.110566 
L 144.898364 261.977365 
L 144.984732 260.775571 
L 145.071099 261.25859 
L 145.157466 263.208491 
L 145.330201 260.483642 
L 145.416568 261.815158 
L 145.502935 259.836998 
L 145.589302 260.100721 
L 145.762037 261.076832 
L 145.848404 259.582276 
L 145.934771 263.097477 
L 146.021139 262.17515 
L 146.193873 261.391295 
L 146.280241 261.39056 
L 146.452975 256.316109 
L 146.712077 252.8932 
L 146.798444 253.493924 
L 146.884811 253.624634 
L 146.971179 253.318591 
L 147.057546 253.501237 
L 147.489382 260.476616 
L 147.575749 256.183756 
L 147.662117 258.924771 
L 147.748484 257.423457 
L 147.834851 250.104943 
L 147.921219 258.104387 
L 148.007586 257.658354 
L 148.093953 256.531893 
L 148.439422 264.456412 
L 148.612157 263.026679 
L 148.698524 263.816842 
L 148.784891 263.666064 
L 148.871258 259.799777 
L 148.957626 263.981384 
L 149.043993 263.747388 
L 149.13036 264.301723 
L 149.216727 262.413001 
L 149.303095 263.939083 
L 149.389462 261.864503 
L 149.475829 261.948881 
L 149.562197 264.137635 
L 149.648564 263.582843 
L 149.734931 263.032417 
L 149.821298 263.649622 
L 149.994033 260.533657 
L 150.166767 263.66509 
L 150.253135 263.95884 
L 150.339502 261.443071 
L 150.425869 263.427762 
L 150.598604 262.537827 
L 150.771338 263.661202 
L 150.944073 262.02809 
L 151.03044 263.411344 
L 151.116807 263.304286 
L 151.203175 263.073757 
L 151.289542 261.67278 
L 151.635011 263.780223 
L 151.721378 261.227897 
L 151.894113 263.89475 
L 151.98048 261.752589 
L 152.066847 264.162811 
L 152.153214 263.646745 
L 152.239582 264.112346 
L 152.412316 262.164076 
L 152.498684 262.611596 
L 152.585051 262.618534 
L 152.671418 262.843864 
L 152.844153 263.665739 
L 152.93052 262.45565 
L 153.016887 262.871815 
L 153.103254 264.392057 
L 153.189622 263.530312 
L 153.275989 263.668014 
L 153.448723 262.85667 
L 153.535091 263.212612 
L 153.621458 262.644 
L 153.707825 261.147945 
L 153.794192 262.198271 
L 154.053294 258.869098 
L 154.139662 261.468136 
L 154.226029 260.726499 
L 154.312396 261.181016 
L 154.398763 259.720823 
L 154.571498 260.908143 
L 154.744232 261.471578 
L 154.8306 261.97355 
L 154.916967 261.272668 
L 155.003334 261.63687 
L 155.176069 260.084124 
L 155.262436 262.083479 
L 155.348803 261.247389 
L 155.607905 262.909551 
L 155.694272 262.048385 
L 155.78064 262.602708 
L 155.867007 262.212828 
L 155.953374 262.442161 
L 156.126109 263.400857 
L 156.212476 262.096077 
L 156.298843 262.191368 
L 156.38521 263.790072 
L 156.471578 263.447627 
L 156.557945 263.42324 
L 156.644312 263.772992 
L 156.817047 262.291633 
L 156.903414 263.335579 
L 156.989781 260.569301 
L 157.076149 262.678783 
L 157.248883 260.629765 
L 157.33525 260.713188 
L 157.421618 260.791053 
L 157.507985 261.5171 
L 157.594352 258.064712 
L 157.680719 258.080575 
L 157.939821 254.63506 
L 158.026188 258.52049 
L 158.112556 255.369639 
L 158.198923 259.578862 
L 158.371657 253.033633 
L 158.458025 253.131855 
L 158.544392 253.990216 
L 158.630759 253.787908 
L 158.717127 250.760128 
L 158.803494 253.922002 
L 158.976228 251.984625 
L 159.148963 251.616879 
L 159.321697 252.918097 
L 159.753534 262.727017 
L 159.839901 263.302094 
L 160.012635 258.975843 
L 160.099003 260.287838 
L 160.271737 257.790529 
L 160.444472 258.091277 
L 160.530839 258.719185 
L 160.703574 257.417869 
L 160.962675 256.525408 
L 161.221777 254.395705 
L 161.480879 254.779582 
L 161.567246 254.350953 
L 161.653614 254.456661 
L 161.912715 257.033263 
L 161.999083 256.282556 
L 162.08545 256.951697 
L 162.258184 263.507424 
L 162.344552 259.758305 
L 162.430919 259.805271 
L 162.517286 260.119513 
L 162.603653 259.316216 
L 162.690021 260.661151 
L 162.776388 259.298314 
L 162.949122 262.443078 
L 163.121857 257.134965 
L 163.208224 258.272048 
L 163.467326 264.004606 
L 163.553693 262.407725 
L 163.640061 263.55629 
L 163.726428 263.402164 
L 163.812795 263.992442 
L 163.899162 260.64874 
L 163.98553 262.704136 
L 164.071897 262.552704 
L 164.158264 264.069693 
L 164.244631 262.916268 
L 164.417366 263.644195 
L 164.5901 260.078227 
L 165.021937 263.386311 
L 165.281039 263.69004 
L 165.367406 264.416322 
L 165.626508 263.287323 
L 165.799242 264.218669 
L 166.058344 264.047831 
L 166.231079 262.190265 
L 166.317446 262.209493 
L 166.49018 263.839749 
L 166.576548 262.161622 
L 166.662915 263.882092 
L 166.835649 262.786278 
L 166.922017 264.084312 
L 167.008384 263.099398 
L 167.094751 263.141798 
L 167.267486 264.086956 
L 167.353853 260.938301 
L 167.44022 263.332593 
L 167.612955 260.931178 
L 167.699322 261.37756 
L 167.872057 263.433636 
L 168.131158 262.496599 
L 168.217526 258.896898 
L 168.303893 261.584938 
L 168.39026 260.13486 
L 168.476627 262.499105 
L 168.562995 260.216424 
L 168.649362 260.394559 
L 168.735729 260.089196 
L 168.908464 261.844155 
L 169.081198 259.752509 
L 169.167565 263.581034 
L 169.253933 261.014335 
L 169.3403 263.07544 
L 169.426667 261.461369 
L 169.513035 263.692368 
L 169.599402 261.620478 
L 169.685769 262.029257 
L 169.772136 261.649591 
L 169.858504 262.067255 
L 170.031238 263.592539 
L 170.117605 263.900528 
L 170.29034 262.152099 
L 170.376707 260.471828 
L 170.549442 264.055885 
L 170.722176 262.914923 
L 170.808543 263.186696 
L 170.894911 260.690693 
L 171.067645 263.855344 
L 171.24038 261.251724 
L 171.326747 263.362237 
L 171.413114 261.058526 
L 171.672216 262.463195 
L 171.758583 262.636478 
L 171.844951 263.19438 
L 171.931318 263.161202 
L 172.017685 257.723226 
L 172.104052 262.787715 
L 172.19042 261.344966 
L 172.276787 261.14677 
L 172.363154 260.631821 
L 172.449522 262.974487 
L 172.535889 261.461369 
L 172.622256 263.676836 
L 172.708623 261.755651 
L 172.794991 263.322436 
L 172.881358 262.891062 
L 173.054092 263.727227 
L 173.14046 262.549817 
L 173.399561 263.912203 
L 173.485929 262.321952 
L 173.658663 264.207558 
L 173.74503 262.979657 
L 173.831398 263.919794 
L 173.917765 262.755278 
L 174.0905 263.378068 
L 174.176867 263.341571 
L 174.263234 262.827654 
L 174.349601 259.940107 
L 174.435969 262.024593 
L 174.522336 260.65632 
L 174.608703 262.477274 
L 174.867805 260.213 
L 175.040539 263.382957 
L 175.126907 263.551284 
L 175.213274 263.326639 
L 175.299641 260.206081 
L 175.386008 263.466701 
L 175.558743 262.245151 
L 175.904212 264.150384 
L 175.990579 261.905883 
L 176.076947 262.527647 
L 176.336048 259.645094 
L 176.59515 261.400554 
L 176.681517 260.369187 
L 176.940619 263.536102 
L 177.026987 263.321943 
L 177.199721 261.486357 
L 177.286088 263.367069 
L 177.458823 260.400398 
L 177.54519 262.653735 
L 177.631557 261.781687 
L 177.717925 261.939827 
L 177.977026 263.848293 
L 178.063394 261.87823 
L 178.149761 263.432834 
L 178.322495 261.642202 
L 178.408863 262.856484 
L 178.49523 262.165441 
L 178.581597 263.440344 
L 178.667965 261.366904 
L 179.013434 263.471928 
L 179.099801 263.208949 
L 179.186168 260.397235 
L 179.272535 242.384917 
L 179.44527 262.112478 
L 179.531637 263.107962 
L 179.704372 252.797914 
L 179.790739 247.141582 
L 179.877106 262.613741 
L 179.963473 261.520486 
L 180.049841 258.333766 
L 180.136208 248.250987 
L 180.222575 261.462334 
L 180.308943 258.55704 
L 180.39531 258.024537 
L 180.568044 260.785975 
L 180.654412 259.410061 
L 180.740779 261.462656 
L 180.827146 253.631873 
L 180.913513 263.536392 
L 180.999881 261.085296 
L 181.086248 263.827843 
L 181.172615 263.476345 
L 181.258982 252.702971 
L 181.34535 262.455496 
L 181.518084 230.687735 
L 181.604451 262.507739 
L 181.690819 262.033929 
L 181.777186 262.028738 
L 181.863553 262.64032 
L 181.949921 232.054185 
L 182.036288 260.791677 
L 182.122655 257.163768 
L 182.209022 243.361846 
L 182.381757 263.992907 
L 182.640859 256.028643 
L 182.89996 261.587392 
L 182.986328 260.419755 
L 183.072695 262.58488 
L 183.159062 262.557685 
L 183.331797 262.1441 
L 183.418164 263.051404 
L 183.504531 261.219191 
L 183.590899 262.888219 
L 183.677266 260.79141 
L 183.763633 263.444925 
L 183.85 261.867439 
L 183.936368 263.541919 
L 184.109102 262.786997 
L 184.195469 263.440075 
L 184.281837 263.209635 
L 184.368204 261.656085 
L 184.454571 262.078985 
L 184.540938 263.030366 
L 184.627306 262.856111 
L 184.713673 262.418592 
L 184.80004 263.400857 
L 185.059142 262.205747 
L 185.145509 261.836757 
L 185.231877 263.335579 
L 185.318244 263.00695 
L 185.404611 261.829862 
L 185.490978 263.244345 
L 185.577346 261.867439 
L 185.663713 262.107134 
L 185.75008 262.640821 
L 186.009182 252.621429 
L 186.181916 262.581462 
L 186.268284 262.942996 
L 186.354651 261.785851 
L 186.441018 257.839097 
L 186.613753 262.610936 
L 186.70012 257.733836 
L 186.786487 263.021777 
L 186.872855 262.84627 
L 186.959222 259.852543 
L 187.131956 262.956115 
L 187.218324 258.89328 
L 187.391058 262.90076 
L 187.477425 261.972661 
L 187.563793 262.812308 
L 187.736527 248.984373 
L 187.909262 263.241539 
L 187.995629 263.060143 
L 188.081996 262.589446 
L 188.168364 262.701552 
L 188.254731 263.308924 
L 188.341098 262.778393 
L 188.427465 256.528113 
L 188.6002 262.973296 
L 188.859302 260.275042 
L 189.032036 263.676836 
L 189.118403 263.520533 
L 189.204771 262.492533 
L 189.291138 256.17354 
L 189.55024 263.743883 
L 189.636607 263.637528 
L 189.722974 264.301723 
L 189.809342 261.301713 
L 190.068443 264.245077 
L 190.241178 260.253638 
L 190.327545 262.409382 
L 190.413912 261.759424 
L 190.50028 257.740683 
L 190.586647 263.200055 
L 190.673014 263.036321 
L 190.845749 263.716612 
L 190.932116 259.898601 
L 191.277585 263.548057 
L 191.363952 264.362939 
L 191.45032 260.436006 
L 191.536687 260.555058 
L 191.709421 258.02186 
L 191.795789 263.997098 
L 191.882156 263.577424 
L 192.05489 254.31238 
L 192.227625 262.501613 
L 192.313992 261.134743 
L 192.40036 262.990243 
L 192.486727 260.763955 
L 192.573094 261.073374 
L 192.659461 262.631146 
L 192.745829 253.792548 
L 192.832196 263.04044 
L 192.918563 261.904891 
L 193.00493 263.096837 
L 193.091298 262.788614 
L 193.177665 262.790773 
L 193.264032 260.325333 
L 193.436767 263.673888 
L 193.523134 263.757976 
L 193.695868 260.689389 
L 193.782236 259.113711 
L 193.95497 263.351614 
L 194.041338 264.063522 
L 194.127705 263.090665 
L 194.214072 258.142109 
L 194.300439 262.922624 
L 194.386807 262.838691 
L 194.559541 260.879314 
L 194.645908 263.422709 
L 194.732276 262.999885 
L 194.818643 261.619689 
L 194.90501 262.428751 
L 194.991377 261.121297 
L 195.164112 262.93793 
L 195.250479 262.468754 
L 195.423214 262.863199 
L 195.509581 258.937026 
L 195.595948 262.151692 
L 195.682316 261.726919 
L 195.768683 262.444149 
L 195.85505 262.359136 
L 195.941417 262.808127 
L 196.027785 262.188336 
L 196.200519 263.729294 
L 196.286886 263.341821 
L 196.373254 261.160803 
L 196.459621 261.802562 
L 196.545988 261.523875 
L 196.632355 260.485049 
L 196.891457 262.706724 
L 196.977824 261.15069 
L 197.236926 263.840135 
L 197.323294 263.005332 
L 197.409661 257.632511 
L 197.496028 263.900942 
L 197.582395 263.573826 
L 197.668763 263.380124 
L 197.75513 263.588287 
L 197.841497 263.509978 
L 197.927864 261.139334 
L 198.186966 263.676836 
L 198.359701 262.076872 
L 198.446068 262.352801 
L 198.532435 263.69637 
L 198.618803 263.615898 
L 198.70517 263.792642 
L 198.964272 256.479512 
L 199.137006 263.770114 
L 199.223373 262.865443 
L 199.309741 263.722077 
L 199.396108 260.27662 
L 199.482475 261.929301 
L 199.568842 259.392505 
L 199.65521 264.049836 
L 199.741577 263.381154 
L 199.827944 263.285397 
L 199.914311 260.663051 
L 200.000679 262.613081 
L 200.087046 258.887436 
L 200.259781 263.836661 
L 200.346148 260.275831 
L 200.60525 264.224646 
L 200.691617 263.598029 
L 200.864351 253.182148 
L 200.950719 260.991448 
L 201.037086 238.176203 
L 201.20982 262.849792 
L 201.296188 262.103532 
L 201.382555 259.55883 
L 201.468922 261.201544 
L 201.555289 253.608013 
L 201.641657 262.65239 
L 201.728024 261.95708 
L 201.987126 256.160005 
L 202.073493 253.666772 
L 202.246228 262.832797 
L 202.332595 259.040773 
L 202.418962 262.962415 
L 202.505329 243.113026 
L 202.678064 261.262534 
L 202.850798 263.547764 
L 203.1099 261.467813 
L 203.196268 263.499512 
L 203.282635 263.229207 
L 203.369002 262.488943 
L 203.455369 262.755455 
L 203.541737 262.318903 
L 203.628104 263.024022 
L 203.800838 258.270522 
L 203.973573 263.251854 
L 204.05994 263.19506 
L 204.146307 262.634977 
L 204.319042 263.764741 
L 204.578144 261.872339 
L 204.750878 263.262714 
L 204.923613 262.456265 
L 205.00998 263.544253 
L 205.096347 262.019937 
L 205.182715 262.320209 
L 205.269082 263.882903 
L 205.528184 262.515144 
L 205.614551 260.452073 
L 205.787285 263.129353 
L 205.96002 262.801601 
L 206.046387 263.123492 
L 206.132754 261.387515 
L 206.305489 263.476345 
L 206.391856 262.239243 
L 206.564591 264.097102 
L 206.737325 263.545422 
L 206.823693 263.24224 
L 206.91006 263.425366 
L 206.996427 261.324198 
L 207.169162 263.283954 
L 207.255529 263.199373 
L 207.341896 263.324412 
L 207.428263 262.604516 
L 207.514631 263.012825 
L 207.600998 262.533208 
L 207.687365 262.704654 
L 207.8601 262.588956 
L 208.119202 262.889166 
L 208.205569 263.36605 
L 208.378303 262.61688 
L 208.551038 262.560261 
L 208.637405 264.107954 
L 208.982874 257.317286 
L 209.328343 263.795956 
L 209.414711 258.8598 
L 209.587445 263.633106 
L 209.673812 263.043949 
L 209.76018 261.203931 
L 209.932914 263.488015 
L 210.105649 263.281072 
L 210.192016 262.403362 
L 210.278383 262.464583 
L 210.36475 262.729109 
L 210.451118 259.971326 
L 210.537485 264.110695 
L 210.882954 258.902752 
L 210.969321 263.236408 
L 211.055689 262.869001 
L 211.142056 264.495883 
L 211.401158 262.272337 
L 211.487525 263.749849 
L 211.573892 258.421974 
L 211.746627 263.651223 
L 211.832994 260.009893 
L 211.919361 260.505623 
L 212.005728 263.863642 
L 212.092096 258.749822 
L 212.178463 262.426928 
L 212.26483 259.919017 
L 212.437565 263.981384 
L 212.523932 259.009138 
L 212.610299 262.255311 
L 212.696667 258.461992 
L 212.869401 262.742239 
L 212.955768 262.390919 
L 213.042136 263.496136 
L 213.128503 262.470301 
L 213.21487 263.289975 
L 213.387605 261.53176 
L 213.473972 257.002985 
L 213.560339 263.523688 
L 213.646706 262.602051 
L 213.733074 258.316621 
L 213.905808 262.858906 
L 213.992176 261.087319 
L 214.078543 261.696724 
L 214.16491 263.596806 
L 214.251277 259.395866 
L 214.337645 260.037452 
L 214.510379 263.539879 
L 214.683114 262.317162 
L 214.855848 264.180413 
L 214.942215 262.094748 
L 215.11495 264.20562 
L 215.201317 261.383739 
L 215.287684 263.734827 
L 215.460419 262.754571 
L 215.546786 263.226891 
L 215.633154 257.635984 
L 215.805888 263.459584 
L 215.892255 263.118083 
L 215.978623 259.124808 
L 216.151357 263.379353 
L 216.237724 263.331847 
L 216.410459 263.099184 
L 216.496826 260.43061 
L 216.583193 262.997872 
L 216.669561 258.585495 
L 216.842295 263.584655 
L 216.928662 263.627131 
L 217.101397 261.081158 
L 217.187764 258.423648 
L 217.274132 259.632386 
L 217.446866 263.568746 
L 217.705968 256.573504 
L 217.878702 263.927884 
L 218.051437 262.686117 
L 218.224171 264.518838 
L 218.310539 260.515113 
L 218.396906 263.629329 
L 218.483273 262.868626 
L 218.656008 256.769672 
L 218.742375 260.929423 
L 218.828742 257.357823 
L 218.91511 261.530992 
L 219.087844 259.80049 
L 219.174211 259.973764 
L 219.260579 257.074233 
L 219.346946 264.558265 
L 219.51968 259.276406 
L 219.606048 259.601439 
L 219.692415 258.542633 
L 219.778782 264.270002 
L 219.865149 263.346834 
L 220.037884 261.458151 
L 220.210619 258.498991 
L 220.296986 258.290606 
L 220.383353 262.079513 
L 220.46972 260.735984 
L 220.556088 263.178825 
L 220.642455 260.94284 
L 220.728822 262.748572 
L 220.815189 258.195488 
L 220.901557 261.699383 
L 220.987924 261.644587 
L 221.074291 264.178567 
L 221.333393 259.923111 
L 221.41976 260.691563 
L 221.506127 263.856525 
L 221.592495 263.541919 
L 221.765229 257.217483 
L 221.937964 264.340951 
L 222.110698 256.039217 
L 222.197066 263.987815 
L 222.283433 262.473707 
L 222.3698 264.231368 
L 222.456167 262.493471 
L 222.542535 262.847196 
L 222.628902 264.337541 
L 222.715269 262.508211 
L 222.801636 263.649302 
L 222.888004 263.05785 
L 222.974371 263.750553 
L 223.060738 263.08367 
L 223.147105 263.504027 
L 223.31984 261.628268 
L 223.492575 263.416618 
L 223.578942 259.462346 
L 223.665309 263.982299 
L 223.751676 263.37013 
L 223.838044 264.155678 
L 224.097145 262.511518 
L 224.356247 261.338546 
L 224.615349 263.47055 
L 224.788084 264.257027 
L 224.874451 262.201591 
L 224.960818 263.932603 
L 225.21992 260.077396 
L 225.306287 264.253482 
L 225.392654 263.687386 
L 225.479022 260.566769 
L 225.651756 264.001312 
L 225.824491 262.265655 
L 225.910858 263.587378 
L 226.083592 261.888445 
L 226.16996 263.897634 
L 226.256327 261.517537 
L 226.342694 262.971709 
L 226.429062 261.90204 
L 226.601796 262.71087 
L 226.688163 261.551226 
L 226.774531 262.971907 
L 226.860898 262.845529 
L 226.947265 259.794147 
L 227.033632 262.843309 
L 227.12 261.9273 
L 227.206367 262.94202 
L 227.292734 261.501964 
L 227.379101 263.558652 
L 227.465469 263.142456 
L 227.551836 262.991646 
L 227.72457 261.539554 
L 227.897305 262.992849 
L 228.07004 261.510014 
L 228.156407 262.924941 
L 228.242774 262.152235 
L 228.329141 262.421469 
L 228.415509 263.575324 
L 228.501876 262.198824 
L 228.588243 262.593367 
L 228.67461 263.650902 
L 228.760978 263.234081 
L 228.847345 263.764383 
L 228.933712 261.785851 
L 229.020079 264.016013 
L 229.106447 262.758463 
L 229.192814 263.122408 
L 229.365549 262.824172 
L 229.538283 260.880226 
L 229.711018 262.602708 
L 229.797385 263.025453 
L 229.883752 262.517987 
L 229.970119 263.197102 
L 230.056487 262.957688 
L 230.229221 263.345579 
L 230.315588 264.003193 
L 230.401956 260.257643 
L 230.57469 263.376785 
L 230.661057 262.694163 
L 230.747425 263.447627 
L 230.833792 262.180087 
L 230.920159 262.218256 
L 231.006527 263.480501 
L 231.092894 263.08367 
L 231.179261 259.830895 
L 231.265628 262.758463 
L 231.351996 260.655544 
L 231.52473 263.339571 
L 231.611097 254.064913 
L 231.783832 263.83859 
L 231.956566 263.204153 
L 232.042934 263.202558 
L 232.129301 263.566959 
L 232.215668 263.459038 
L 232.302035 263.491929 
L 232.388403 262.791313 
L 232.47477 263.774073 
L 232.561137 262.132753 
L 232.647505 262.516249 
L 232.820239 263.908851 
L 232.906606 262.610277 
L 232.992974 262.820148 
L 233.079341 262.65239 
L 233.165708 261.051649 
L 233.252075 262.609123 
L 233.338443 259.989013 
L 233.42481 261.479769 
L 233.511177 259.752368 
L 233.683912 263.744233 
L 233.856646 253.098921 
L 233.943013 262.667237 
L 234.029381 260.369992 
L 234.115748 262.191643 
L 234.202115 258.412385 
L 234.288483 264.091743 
L 234.547584 256.836811 
L 234.633952 262.55447 
L 234.720319 261.881549 
L 234.806686 256.499003 
L 234.893053 262.692792 
L 234.979421 252.476906 
L 235.152155 259.817851 
L 235.238522 255.788057 
L 235.411257 263.17278 
L 235.497624 261.501964 
L 235.583992 263.449793 
L 235.670359 263.043536 
L 235.756726 260.050579 
L 235.843093 263.236175 
L 235.929461 262.652894 
L 236.015828 262.023557 
L 236.102195 262.166943 
L 236.27493 263.219735 
L 236.447664 259.58706 
L 236.620399 263.356662 
L 236.706766 263.503179 
L 236.793133 262.874821 
L 236.8795 263.029956 
L 236.965868 259.53312 
L 237.138602 263.113769 
L 237.22497 261.638571 
L 237.484071 264.199849 
L 237.570439 261.483331 
L 237.656806 263.335579 
L 237.743173 259.734318 
L 237.82954 262.401559 
L 237.915908 259.153626 
L 238.088642 263.742136 
L 238.175009 261.712016 
L 238.347744 263.334085 
L 238.434111 261.51983 
L 238.606846 263.815711 
L 238.693213 262.988241 
L 238.77958 263.82937 
L 238.865948 263.031801 
L 238.952315 263.64324 
L 239.038682 263.303311 
L 239.125049 261.307038 
L 239.211417 261.342065 
L 239.297784 263.614967 
L 239.384151 262.521624 
L 239.470518 263.688713 
L 239.556886 263.507991 
L 239.643253 263.853773 
L 239.902355 263.038379 
L 239.988722 263.300391 
L 240.075089 263.207349 
L 240.161457 262.861892 
L 240.247824 263.086634 
L 240.334191 262.64987 
L 240.420558 260.737743 
L 240.593293 263.41477 
L 240.67966 261.38762 
L 240.766027 263.642922 
L 240.852395 263.124142 
L 240.938762 254.48373 
L 241.111496 264.216034 
L 241.197864 261.377037 
L 241.284231 263.6716 
L 241.370598 261.408042 
L 241.456965 261.431779 
L 241.543333 263.85338 
L 241.6297 263.010391 
L 241.716067 264.144556 
L 241.888802 262.303859 
L 242.061536 264.110146 
L 242.147904 261.966063 
L 242.234271 262.683385 
L 242.320638 259.121232 
L 242.407005 263.140046 
L 242.57974 257.583962 
L 242.666107 263.959284 
L 242.752474 262.609123 
L 242.838842 260.719576 
L 242.925209 261.790735 
L 243.097943 257.646812 
L 243.184311 261.569479 
L 243.270678 258.30812 
L 243.357045 263.377298 
L 243.443413 259.860333 
L 243.52978 262.863386 
L 243.616147 256.318329 
L 243.702514 263.421913 
L 243.788882 256.151294 
L 243.961616 262.689537 
L 244.047983 259.23778 
L 244.134351 262.470765 
L 244.220718 260.076942 
L 244.307085 262.363862 
L 244.393452 259.074449 
L 244.566187 263.933034 
L 244.652554 262.138826 
L 244.738921 263.421913 
L 244.825289 261.373272 
L 244.911656 262.903813 
L 244.998023 260.449774 
L 245.170758 263.828606 
L 245.257125 263.781676 
L 245.516227 261.206819 
L 245.688961 263.953965 
L 245.775329 262.887083 
L 245.861696 263.588287 
L 245.948063 262.27248 
L 246.03443 262.596476 
L 246.120798 263.656362 
L 246.207165 263.186922 
L 246.293532 260.885793 
L 246.466267 264.477358 
L 246.552634 263.698042 
L 246.639001 264.168821 
L 246.725369 264.083784 
L 246.811736 264.106314 
L 247.070838 262.2223 
L 247.157205 261.01018 
L 247.329939 263.033854 
L 247.502674 261.777886 
L 247.589041 262.017741 
L 247.761776 261.695568 
L 247.848143 261.875897 
L 247.93451 261.464696 
L 248.020878 262.729808 
L 248.107245 261.840635 
L 248.193612 263.389674 
L 248.452714 259.2105 
L 248.539081 261.888569 
L 248.625448 261.383739 
L 248.711816 261.8562 
L 248.88455 261.457079 
L 248.970917 261.952536 
L 249.143652 260.730449 
L 249.230019 261.051744 
L 249.316386 260.963383 
L 249.402754 259.805771 
L 249.489121 261.74002 
L 249.575488 261.538675 
L 249.748223 261.329352 
L 249.83459 261.484628 
L 249.920957 261.421373 
L 250.093692 262.124275 
L 250.180059 262.597623 
L 250.266426 262.435751 
L 250.352794 261.990502 
L 250.611895 262.548535 
L 250.698263 263.68078 
L 250.870997 262.374529 
L 250.957365 264.09764 
L 251.043732 262.25517 
L 251.130099 263.407402 
L 251.216466 262.64987 
L 251.302834 264.016013 
L 251.389201 262.968144 
L 251.475568 263.544253 
L 251.73467 261.295986 
L 251.993772 260.615228 
L 252.080139 260.795959 
L 252.166506 260.161016 
L 252.252873 260.414704 
L 252.511975 259.58788 
L 252.598343 260.391157 
L 252.771077 259.315372 
L 252.857444 259.718858 
L 252.943812 259.25902 
L 253.030179 259.554344 
L 253.116546 258.826091 
L 253.202913 259.153878 
L 253.289281 259.02515 
L 253.462015 258.528316 
L 253.548382 258.672881 
L 253.63475 258.489058 
L 253.721117 257.810953 
L 253.807484 258.700189 
L 254.152953 257.671909 
L 254.239321 257.942614 
L 254.325688 257.637325 
L 254.498422 258.731961 
L 254.671157 257.592146 
L 254.757524 258.797494 
L 254.843891 257.790832 
L 254.930259 258.559605 
L 255.016626 258.477621 
L 255.102993 258.615522 
L 255.18936 257.676151 
L 255.275728 257.960115 
L 255.362095 257.782618 
L 255.448462 258.300999 
L 255.53483 258.110552 
L 255.621197 258.359405 
L 255.707564 257.480936 
L 255.793931 258.591626 
L 255.880299 257.739072 
L 255.966666 257.970315 
L 256.053033 258.588531 
L 256.225768 257.181568 
L 256.312135 258.52032 
L 256.484869 257.682392 
L 256.571237 257.569539 
L 256.916706 258.715323 
L 257.08944 259.693174 
L 257.175808 258.36272 
L 257.607644 262.846825 
L 257.780378 262.366376 
L 257.953113 264.271465 
L 258.03948 261.33865 
L 258.212215 263.13917 
L 258.298582 261.70691 
L 258.384949 264.057406 
L 258.471316 263.570238 
L 258.557684 263.734827 
L 258.644051 263.429628 
L 258.730418 262.589772 
L 258.903153 264.141086 
L 258.98952 264.17734 
L 259.075887 263.446005 
L 259.162255 264.276621 
L 259.248622 264.1229 
L 259.507724 263.731711 
L 259.594091 263.657651 
L 259.680458 263.391229 
L 259.766825 264.130791 
L 259.853193 264.016492 
L 260.198662 264.367487 
L 260.371396 263.033033 
L 260.457764 263.997565 
L 260.716865 262.332288 
L 260.8896 263.769755 
L 261.062334 264.339242 
L 261.235069 263.468624 
L 261.321436 262.953562 
L 261.407803 255.680971 
L 261.580538 263.0805 
L 261.753273 264.105769 
L 261.83964 264.166409 
L 261.926007 264.047831 
L 262.098742 264.366573 
L 262.185109 263.08727 
L 262.271476 263.58647 
L 262.357843 263.452777 
L 262.444211 262.097008 
L 262.530578 263.378068 
L 262.616945 262.411191 
L 262.78968 263.578927 
L 262.876047 262.874445 
L 262.962414 263.908433 
L 263.048781 262.48038 
L 263.135149 263.834737 
L 263.221516 262.495191 
L 263.307883 262.61688 
L 263.480618 263.599252 
L 263.653352 261.757655 
L 263.826087 263.735868 
L 263.912454 262.859839 
L 263.998821 264.199849 
L 264.085189 264.054873 
L 264.171556 263.334832 
L 264.257923 264.023233 
L 264.34429 263.140922 
L 264.430658 264.071244 
L 264.689759 261.407937 
L 264.776127 256.333125 
L 264.862494 261.451405 
L 264.948861 258.697564 
L 265.035229 261.421691 
L 265.121596 259.923111 
L 265.207963 260.250185 
L 265.29433 260.560615 
L 265.380698 261.589959 
L 265.467065 260.384845 
L 265.553432 260.671177 
L 265.639799 260.742496 
L 265.812534 261.498924 
L 265.898901 261.47427 
L 265.985268 260.942933 
L 266.158003 261.910477 
L 266.24437 260.663569 
L 266.330738 261.976729 
L 266.503472 260.35543 
L 266.589839 260.3683 
L 266.676207 261.5488 
L 266.762574 260.920657 
L 266.848941 261.971391 
L 266.935308 261.747061 
L 267.021676 260.614459 
L 267.108043 261.652779 
L 267.19441 260.967766 
L 267.280777 260.982351 
L 267.453512 261.153829 
L 267.539879 260.891277 
L 267.626246 260.922501 
L 267.798981 261.906007 
L 267.885348 257.306415 
L 268.058083 261.464804 
L 268.14445 261.645155 
L 268.230817 262.227329 
L 268.403552 257.230526 
L 268.489919 262.665714 
L 268.576286 261.093298 
L 268.749021 262.950621 
L 268.921755 261.45483 
L 269.09449 264.268543 
L 269.267224 261.1502 
L 269.353592 263.354641 
L 269.439959 263.179947 
L 269.526326 261.897089 
L 269.612694 262.18146 
L 269.699061 261.174595 
L 269.871795 263.483835 
L 270.04453 262.610441 
L 270.130897 263.577424 
L 270.217264 260.9659 
L 270.389999 263.858496 
L 270.476366 263.095985 
L 270.562733 260.068716 
L 270.735468 263.513391 
L 270.821835 261.002356 
L 270.908202 263.46177 
L 270.99457 263.124359 
L 271.080937 264.061988 
L 271.253672 261.412692 
L 271.340039 263.637845 
L 271.426406 263.120677 
L 271.512773 263.242942 
L 271.599141 261.676337 
L 271.771875 263.852204 
L 271.858242 261.839787 
L 271.94461 263.71423 
L 272.030977 262.052698 
L 272.203711 263.144211 
L 272.376446 261.75 
L 272.549181 264.083784 
L 272.635548 262.745227 
L 272.808282 263.653468 
L 272.89465 263.471652 
L 273.153751 261.353994 
L 273.240119 263.812327 
L 273.326486 263.448439 
L 273.412853 261.823948 
L 273.49922 262.979059 
L 273.585588 261.069921 
L 273.758322 264.08273 
L 273.844689 260.426852 
L 274.017424 263.392786 
L 274.103791 262.197856 
L 274.190159 262.615723 
L 274.276526 262.001391 
L 274.362893 262.704654 
L 274.44926 260.295518 
L 274.794729 263.521106 
L 274.881097 261.861081 
L 275.053831 264.130791 
L 275.140198 263.906345 
L 275.312933 263.434975 
L 275.3993 264.362939 
L 275.572035 262.125753 
L 275.658402 263.72105 
L 275.744769 261.893134 
L 275.831137 262.92668 
L 275.917504 260.883145 
L 276.003871 262.632811 
L 276.090238 261.588396 
L 276.176606 261.842576 
L 276.262973 262.436208 
L 276.34934 262.298098 
L 276.435707 262.380476 
L 276.781176 261.000096 
L 276.867544 260.786242 
L 276.953911 261.511974 
L 277.040278 261.492743 
L 277.126646 259.610841 
L 277.213013 262.442161 
L 277.29938 261.882902 
L 277.385747 261.372437 
L 277.472115 260.055163 
L 277.644849 261.709694 
L 277.731216 256.669245 
L 277.817584 262.622674 
L 277.990318 260.307579 
L 278.076685 263.061395 
L 278.163053 258.490017 
L 278.335787 263.762956 
L 278.422154 261.82624 
L 278.508522 263.267461 
L 278.594889 260.614374 
L 278.767624 262.521149 
L 278.940358 262.051129 
L 279.026725 260.054111 
L 279.113093 260.970099 
L 279.19946 260.705239 
L 279.285827 260.675419 
L 279.372194 260.284122 
L 279.458562 260.786954 
L 279.631296 260.304719 
L 279.717663 261.341547 
L 279.804031 261.057475 
L 280.063132 260.316168 
L 280.235867 259.750179 
L 280.322234 260.148111 
L 280.408602 259.633421 
L 280.581336 260.023765 
L 280.667703 259.17214 
L 280.754071 259.588086 
L 280.840438 259.065499 
L 281.013172 259.777223 
L 281.09954 258.90408 
L 281.272274 259.971399 
L 281.358641 259.852182 
L 281.445009 259.428803 
L 281.617743 259.90093 
L 281.70411 259.580705 
L 281.963212 260.502879 
L 282.135947 259.567542 
L 282.222314 259.953998 
L 282.395049 259.203812 
L 282.567783 260.088363 
L 282.65415 259.321221 
L 282.913252 260.16987 
L 283.345089 259.105324 
L 283.431456 260.245089 
L 283.517823 259.466219 
L 283.60419 259.999181 
L 283.949659 259.035766 
L 284.122394 260.096851 
L 284.208761 259.819856 
L 284.295128 259.023917 
L 284.381496 260.12844 
L 284.467863 259.946423 
L 284.726965 260.100114 
L 284.813332 259.533662 
L 284.899699 259.562436 
L 285.072434 260.020927 
L 285.158801 260.135778 
L 285.245168 259.922014 
L 285.331536 260.018315 
L 285.417903 260.350453 
L 285.50427 259.353244 
L 285.677005 260.450102 
L 285.936106 259.357629 
L 286.022474 259.132533 
L 286.195208 259.869366 
L 286.281575 259.9053 
L 286.367943 259.635974 
L 286.45431 259.843469 
L 286.540677 259.255806 
L 286.627045 259.786957 
L 286.713412 259.637562 
L 286.799779 260.075583 
L 286.886146 259.804057 
L 287.058881 260.367656 
L 287.145248 260.153867 
L 287.317983 259.274923 
L 287.490717 260.423424 
L 287.577084 260.364516 
L 287.749819 259.828169 
L 287.836186 260.059526 
L 287.922554 259.842174 
L 288.008921 259.967855 
L 288.095288 259.647654 
L 288.268023 260.658304 
L 288.35439 259.489521 
L 288.527124 260.424567 
L 288.613492 260.364596 
L 288.958961 263.161868 
L 289.045328 262.511518 
L 289.131695 260.915499 
L 289.30443 263.495013 
L 289.477164 261.989863 
L 289.563532 262.401709 
L 289.822633 261.628042 
L 289.909001 253.043373 
L 290.081735 262.24318 
L 290.168102 260.13685 
L 290.340837 261.573587 
L 290.513571 260.349731 
L 290.599939 261.252733 
L 290.686306 261.180225 
L 290.772673 260.947757 
L 290.85904 261.076543 
L 290.945408 262.678272 
L 291.118142 257.502827 
L 291.20451 262.296947 
L 291.290877 259.864739 
L 291.377244 263.04044 
L 291.463611 262.885191 
L 291.549979 264.337541 
L 291.636346 264.312003 
L 291.80908 261.792524 
L 291.981815 264.182884 
L 292.154549 262.540379 
L 292.240917 257.165118 
L 292.327284 261.53176 
L 292.413651 258.386977 
L 292.500019 263.530601 
L 292.586386 262.80849 
L 292.845488 264.030036 
L 292.931855 262.702586 
L 293.018222 264.086956 
L 293.104589 263.684739 
L 293.190957 261.084045 
L 293.363691 264.544296 
L 293.536426 260.104747 
L 293.70916 264.337541 
L 293.881895 263.47524 
L 293.968262 264.124021 
L 294.054629 263.329861 
L 294.140997 264.037397 
L 294.227364 261.428271 
L 294.313731 262.870126 
L 294.400098 260.393344 
L 294.486466 263.8309 
L 294.572833 262.883679 
L 294.745567 262.724752 
L 294.831935 263.184443 
L 294.918302 262.231247 
L 295.004669 262.366524 
L 295.091036 263.424834 
L 295.177404 260.562553 
L 295.436505 263.666713 
L 295.522873 264.282584 
L 295.781975 256.451253 
L 295.868342 258.376831 
L 295.954709 263.60109 
L 296.041076 262.246278 
L 296.127444 263.406352 
L 296.300178 261.906255 
L 296.472913 260.269996 
L 296.55928 263.584957 
L 296.645647 263.509694 
L 296.732014 260.724745 
L 296.991116 264.262751 
L 297.250218 262.565098 
L 297.422953 264.116768 
L 297.50932 264.09764 
L 297.595687 263.933034 
L 297.682054 263.429095 
L 297.768422 261.747766 
L 297.854789 263.427495 
L 297.941156 263.022593 
L 298.027523 262.51073 
L 298.113891 263.544838 
L 298.200258 263.424568 
L 298.286625 262.60468 
L 298.45936 263.547471 
L 298.545727 263.581034 
L 298.632094 262.514355 
L 298.718462 263.992907 
L 298.804829 263.743883 
L 298.891196 259.505652 
L 299.063931 262.945338 
L 299.236665 261.469318 
L 299.323032 262.229987 
L 299.4094 259.170115 
L 299.495767 263.982299 
L 299.582134 263.469449 
L 299.668501 264.017931 
L 299.754869 262.899616 
L 299.841236 263.686062 
L 299.927603 263.19574 
L 300.100338 261.523765 
L 300.35944 263.816465 
L 300.445807 260.645127 
L 300.532174 263.694034 
L 300.704909 261.155007 
L 300.791276 264.218009 
L 300.877643 261.25859 
L 300.96401 263.847903 
L 301.050378 262.826921 
L 301.136745 262.948076 
L 301.223112 262.656934 
L 301.309479 262.728237 
L 301.395847 262.814675 
L 301.482214 260.733699 
L 301.568581 263.934757 
L 301.654948 260.03985 
L 301.827683 263.96062 
L 302.000418 255.406604 
L 302.086785 256.149487 
L 302.259519 263.657973 
L 302.345887 258.565996 
L 302.518621 261.272364 
L 302.604988 260.577583 
L 302.777723 263.007961 
L 302.950457 260.884332 
L 303.036825 264.031991 
L 303.123192 262.545973 
L 303.209559 258.376665 
L 303.295927 262.635811 
L 303.382294 259.975982 
L 303.468661 264.237492 
L 303.555028 263.686062 
L 303.641396 259.580159 
L 303.727763 264.030036 
L 303.81413 263.661202 
L 303.900497 263.797433 
L 303.986865 263.098544 
L 304.073232 261.340305 
L 304.159599 263.407402 
L 304.245966 263.004524 
L 304.332334 262.858533 
L 304.418701 264.102505 
L 304.505068 260.397964 
L 304.591435 262.359874 
L 304.677803 258.709417 
L 304.850537 262.887461 
L 304.936905 263.877645 
L 305.023272 259.635974 
L 305.196006 264.474812 
L 305.455108 263.024226 
L 305.541475 262.905341 
L 305.627843 263.353631 
L 305.800577 261.400448 
L 305.886944 259.885231 
L 305.973312 262.503497 
L 306.059679 262.221044 
L 306.232413 260.812328 
L 306.405148 264.195401 
L 306.491515 263.978644 
L 306.66425 261.192406 
L 306.750617 263.387862 
L 306.836984 262.93482 
L 306.923352 259.64544 
L 307.009719 262.479447 
L 307.182453 259.95709 
L 307.268821 262.479913 
L 307.355188 261.002638 
L 307.441555 264.113449 
L 307.527922 258.908732 
L 307.61429 259.486435 
L 307.787024 262.6764 
L 307.873391 261.345277 
L 307.959759 263.47055 
L 308.046126 262.562517 
L 308.132493 264.042346 
L 308.305228 263.195967 
L 308.391595 263.900528 
L 308.477962 263.862055 
L 308.650697 261.662021 
L 308.996166 264.165207 
L 309.082533 263.960174 
L 309.1689 262.953562 
L 309.255268 264.096564 
L 309.341635 263.277717 
L 309.428002 259.844548 
L 309.600737 263.465056 
L 309.773471 262.172138 
L 309.859839 262.029257 
L 309.946206 261.669915 
L 310.032573 262.244588 
L 310.11894 261.933807 
L 310.205308 261.984372 
L 310.291675 260.540527 
L 310.378042 260.751048 
L 310.550777 262.118236 
L 310.637144 260.850969 
L 310.723511 261.030525 
L 310.809878 261.704244 
L 310.896246 260.295042 
L 310.982613 260.571497 
L 311.06898 259.957164 
L 311.155348 258.224912 
L 311.241715 260.796316 
L 311.328082 260.726587 
L 311.414449 260.025707 
L 311.500817 260.839129 
L 311.587184 258.066244 
L 311.759918 259.87074 
L 311.932653 260.363711 
L 312.01902 260.377574 
L 312.105387 257.75354 
L 312.191755 260.003047 
L 312.278122 259.523183 
L 312.450856 261.29711 
L 312.537224 260.879952 
L 312.623591 261.703665 
L 312.709958 259.331114 
L 312.796326 261.204031 
L 312.882693 260.643837 
L 312.96906 261.108094 
L 313.055427 262.247969 
L 313.141795 259.947305 
L 313.228162 261.594093 
L 313.400896 260.053885 
L 313.487264 261.976856 
L 313.573631 261.799691 
L 313.832733 261.048883 
L 314.005467 261.347143 
L 314.091835 259.578998 
L 314.264569 261.368782 
L 314.350936 261.261422 
L 314.523671 259.315307 
L 314.696405 260.362584 
L 314.782773 259.584326 
L 314.86914 259.905081 
L 314.955507 261.710158 
L 315.041874 261.074527 
L 315.128242 261.135426 
L 315.300976 263.168763 
L 315.387343 262.553828 
L 315.560078 264.070726 
L 315.81918 258.935386 
L 315.991914 260.505872 
L 316.337383 259.403785 
L 316.510118 259.347295 
L 316.682852 258.294542 
L 316.76922 259.020033 
L 317.028321 255.734277 
L 317.114689 256.115764 
L 317.201056 255.499128 
L 317.287423 256.569877 
L 317.373791 255.742976 
L 317.460158 255.891094 
L 317.546525 255.875961 
L 317.632892 257.170287 
L 317.71926 253.819718 
L 317.891994 257.218046 
L 317.978361 255.159669 
L 318.237463 260.529641 
L 318.32383 261.645837 
L 318.410198 260.878949 
L 318.496565 261.168283 
L 318.755667 263.04044 
L 318.842034 262.948663 
L 318.928401 263.456312 
L 319.014769 263.419263 
L 319.101136 263.270554 
L 319.27387 262.23391 
L 319.360238 263.284916 
L 319.446605 262.988441 
L 319.532972 262.757401 
L 319.619339 261.894493 
L 319.705707 261.977874 
L 319.878441 262.806856 
L 319.964808 262.189025 
L 320.051176 263.726883 
L 320.137543 263.508558 
L 320.22391 263.108607 
L 320.310278 259.815204 
L 320.483012 263.170993 
L 320.569379 262.367412 
L 320.655747 256.472342 
L 320.742114 262.354567 
L 320.828481 255.73459 
L 321.001216 263.140703 
L 321.087583 263.190534 
L 321.346685 263.514246 
L 321.433052 263.569045 
L 321.519419 262.779824 
L 321.692154 263.999905 
L 321.778521 263.763313 
L 321.864888 264.205621 
L 321.951256 262.687655 
L 322.037623 264.203048 
L 322.12399 262.795097 
L 322.210357 262.942215 
L 322.296725 263.209864 
L 322.383092 263.153456 
L 322.469459 262.911084 
L 322.555826 263.420852 
L 322.642194 262.899235 
L 322.814928 263.959284 
L 322.901295 262.710178 
L 322.987663 264.281834 
L 323.07403 264.197938 
L 323.160397 263.558948 
L 323.246764 263.634052 
L 323.419499 264.02614 
L 323.505866 264.53765 
L 323.678601 263.310147 
L 323.764968 263.582542 
L 323.851335 264.643996 
L 323.937703 264.239549 
L 324.02407 264.430225 
L 324.110437 263.330854 
L 324.196804 263.338821 
L 324.283172 264.168217 
L 324.369539 263.203014 
L 324.455906 264.110695 
L 324.628641 263.467251 
L 324.715008 263.990588 
L 324.801375 262.932684 
L 324.887743 263.548936 
L 324.97411 263.314805 
L 325.060477 261.526392 
L 325.146844 263.862055 
L 325.319579 258.795893 
L 325.492313 262.912619 
L 325.578681 262.211716 
L 325.751415 262.579511 
L 325.837782 257.644179 
L 326.010517 264.515848 
L 326.096884 264.0242 
L 326.183251 261.5488 
L 326.355986 264.581329 
L 326.442353 262.951209 
L 326.615088 264.455226 
L 326.787822 261.911347 
L 326.960557 264.657753 
L 327.392393 264.101421 
L 327.47876 262.409683 
L 327.565128 264.232044 
L 327.651495 264.006968 
L 327.737862 262.923782 
L 327.910597 263.943432 
L 327.996964 263.342321 
L 328.083331 264.221317 
L 328.169699 263.388897 
L 328.256066 263.944741 
L 328.342433 263.808208 
L 328.4288 263.879664 
L 328.515168 264.184123 
L 328.601535 261.891159 
L 328.687902 263.860076 
L 328.774269 262.09927 
L 328.860637 264.400961 
L 328.947004 263.417675 
L 329.033371 263.817219 
L 329.119738 263.736563 
L 329.206106 263.20233 
L 329.292473 263.248564 
L 329.37884 263.217664 
L 329.465208 262.642829 
L 329.551575 262.768225 
L 329.637942 263.837047 
L 329.724309 261.311346 
L 329.810677 263.359954 
L 329.897044 262.832797 
L 330.069778 263.997565 
L 330.156146 263.25633 
L 330.242513 263.952641 
L 330.32888 263.408452 
L 330.501615 259.500875 
L 330.587982 262.756339 
L 330.760716 259.203621 
L 330.933451 262.655081 
L 331.019818 261.690374 
L 331.192553 263.681769 
L 331.27892 262.883679 
L 331.365287 263.072285 
L 331.451655 263.1348 
L 331.538022 263.723448 
L 331.624389 261.980803 
L 331.797124 263.431497 
L 331.969858 261.788947 
L 332.22896 264.210802 
L 332.315327 263.110325 
L 332.401694 260.510199 
L 332.574429 264.106314 
L 332.747164 262.808672 
L 332.919898 264.293972 
L 333.006265 263.353631 
L 333.092633 264.070209 
L 333.179 263.545715 
L 333.265367 263.929168 
L 333.351734 263.797433 
L 333.438102 264.312804 
L 333.524469 263.483001 
L 333.610836 263.592843 
L 333.697203 263.541918 
L 333.783571 264.223312 
L 333.869938 261.798495 
L 334.042672 263.508842 
L 334.12904 263.324907 
L 334.215407 262.738028 
L 334.301774 263.963297 
L 334.388142 261.231907 
L 334.474509 263.088542 
L 334.560876 263.045603 
L 334.647243 262.372451 
L 334.733611 263.742135 
L 334.992712 262.606325 
L 335.07908 262.87802 
L 336.115487 253.220065 
L 336.201854 253.835949 
L 336.288221 253.839638 
L 336.374589 254.24194 
L 336.460956 254.168731 
L 336.63369 253.42533 
L 336.720058 253.027757 
L 336.806425 253.095921 
L 336.892792 253.300996 
L 336.979159 254.211101 
L 337.238261 261.227897 
L 337.324629 262.722142 
L 337.410996 262.511518 
L 337.497363 263.100253 
L 337.58373 262.497695 
L 337.670098 263.424834 
L 337.756465 263.073546 
L 337.842832 263.557175 
L 338.101934 262.1014 
L 338.274668 263.273177 
L 338.361036 262.560261 
L 338.447403 263.121326 
L 338.53377 262.708277 
L 338.620137 262.887083 
L 338.706505 263.479669 
L 338.792872 262.342523 
L 338.879239 263.20142 
L 338.965607 262.921274 
L 339.051974 263.936485 
L 339.138341 263.876436 
L 339.224708 263.394084 
L 339.311076 263.694034 
L 339.570177 263.236408 
L 339.656545 262.578862 
L 339.829279 260.925822 
L 340.088381 263.054936 
L 340.174748 262.494253 
L 340.261116 263.147727 
L 340.43385 262.183658 
L 340.520217 261.917319 
L 340.779319 258.527068 
L 340.865686 258.666204 
L 341.124788 257.001573 
L 341.211155 256.557843 
L 341.38389 254.006146 
L 341.470257 253.303957 
L 341.556624 253.453118 
L 341.988461 250.816689 
L 342.074828 251.133737 
L 342.161195 251.639918 
L 342.33393 254.205908 
L 342.420297 254.963251 
L 342.593032 261.244066 
L 342.852133 261.90998 
L 342.938501 261.818045 
L 343.024868 262.903622 
L 343.111235 262.890303 
L 343.28397 263.601703 
L 343.456704 262.399907 
L 343.543072 263.842846 
L 343.629439 263.691037 
L 343.715806 263.784588 
L 343.888541 263.129353 
L 343.974908 264.509977 
L 344.147642 261.502399 
L 344.23401 261.313604 
L 344.320377 260.506953 
L 344.493111 257.518483 
L 344.752213 255.344788 
L 344.83858 255.568479 
L 344.924948 255.361925 
L 345.18405 253.967266 
L 345.356784 257.10604 
L 345.961355 261.093298 
L 346.047722 261.035842 
L 346.306824 263.146847 
L 346.479559 263.815711 
L 346.565926 263.790072 
L 346.997762 260.543966 
L 347.084129 261.18537 
L 347.429598 258.475989 
L 347.515966 258.242195 
L 347.602333 258.625659 
L 348.034169 264.144556 
L 348.206904 264.474812 
L 348.293271 263.061395 
L 348.379638 263.73102 
L 348.466006 254.258353 
L 348.63874 263.584655 
L 348.725107 261.493501 
L 348.811475 261.897707 
L 348.897842 261.953293 
L 348.984209 261.069153 
L 349.070576 261.518956 
L 349.156944 261.182104 
L 349.243311 261.530992 
L 349.329678 261.363255 
L 349.502413 262.692449 
L 349.58878 262.6598 
L 349.761515 264.140509 
L 349.847882 263.976823 
L 350.106984 262.918769 
L 350.193351 263.271269 
L 350.366085 262.393762 
L 350.452453 262.136125 
L 350.625187 261.215694 
L 350.797922 262.365193 
L 350.884289 261.750823 
L 351.057024 263.525988 
L 351.143391 262.81249 
L 351.229758 264.093346 
L 351.316125 263.424568 
L 351.48886 264.567527 
L 351.661594 263.310882 
L 351.747962 264.182265 
L 351.834329 264.131926 
L 351.920696 264.015534 
L 352.093431 263.350606 
L 352.266165 263.227123 
L 352.352532 262.333018 
L 352.525267 264.247863 
L 352.698002 262.574156 
L 352.870736 264.14688 
L 353.043471 262.812672 
L 353.129838 264.121222 
L 353.302572 263.586167 
L 353.475307 264.362036 
L 353.561674 264.297831 
L 353.734409 263.021777 
L 353.820776 263.999436 
L 353.907143 263.962403 
L 353.99351 262.037048 
L 354.079878 262.204361 
L 354.252612 264.40297 
L 354.33898 264.273668 
L 354.425347 262.745227 
L 354.511714 264.282584 
L 354.598081 262.837216 
L 354.684449 264.223979 
L 354.770816 263.134582 
L 354.94355 264.264915 
L 355.029918 261.989096 
L 355.202652 264.259881 
L 355.548121 262.489723 
L 355.634489 264.088548 
L 355.720856 262.726494 
L 355.89359 263.866424 
L 355.979958 263.573826 
L 356.066325 264.528048 
L 356.152692 264.271465 
L 356.239059 263.277717 
L 356.325427 263.396685 
L 356.411794 263.079022 
L 356.498161 263.26556 
L 356.584528 263.837818 
L 356.929997 249.179513 
L 357.016365 244.128089 
L 357.102732 225.437453 
L 357.189099 232.355854 
L 357.361834 259.501346 
L 357.448201 258.701006 
L 357.534568 263.718658 
L 357.620936 262.92997 
L 357.707303 264.565638 
L 357.880037 263.199373 
L 358.139139 263.516814 
L 358.225506 264.432418 
L 358.311874 264.264915 
L 358.484608 262.141935 
L 358.570975 263.517671 
L 358.657343 263.446005 
L 358.74371 262.877643 
L 358.916445 264.514366 
L 359.089179 263.297477 
L 359.261914 263.351614 
L 359.434648 264.462416 
L 359.607383 262.911276 
L 359.69375 262.836479 
L 359.780117 263.793378 
L 359.952852 263.142456 
L 360.039219 263.424302 
L 360.125586 262.49566 
L 360.211953 264.368403 
L 360.298321 263.388639 
L 360.384688 263.429895 
L 360.471055 263.657973 
L 360.64379 264.507094 
L 360.730157 264.643996 
L 360.816524 263.146847 
L 360.902892 263.641015 
L 360.989259 263.55747 
L 361.075626 263.583447 
L 361.161993 264.583393 
L 361.248361 263.460676 
L 361.334728 263.68078 
L 361.421095 263.484392 
L 361.507462 263.54221 
L 361.680197 264.688482 
L 361.766564 264.419479 
L 361.852932 264.575283 
L 361.939299 264.520348 
L 362.025666 263.34583 
L 362.112033 263.422178 
L 362.198401 263.459584 
L 362.284768 263.636579 
L 362.371135 262.955133 
L 362.457502 264.455226 
L 362.54387 264.151557 
L 362.630237 264.210802 
L 362.802971 264.573313 
L 362.889339 264.442474 
L 362.975706 263.358687 
L 363.062073 264.458799 
L 363.14844 263.514246 
L 363.234808 264.408045 
L 363.321175 264.333317 
L 363.407542 264.618056 
L 363.49391 263.572629 
L 363.580277 264.567527 
L 363.666644 264.439086 
L 363.753011 263.289734 
L 363.839379 264.573313 
L 363.925746 263.394604 
L 364.09848 264.61045 
L 364.184848 263.619941 
L 364.357582 264.544296 
L 364.443949 263.515957 
L 364.530317 264.461206 
L 364.703051 263.40609 
L 364.875786 264.643996 
L 364.962153 264.48646 
L 365.04852 263.514531 
L 365.134888 263.635315 
L 365.221255 263.71525 
L 365.307622 263.452777 
L 365.393989 263.562205 
L 365.480357 264.076441 
L 365.566724 263.964191 
L 365.739458 262.653735 
L 365.825826 263.525988 
L 365.912193 263.051611 
L 365.99856 264.583393 
L 366.084927 263.566959 
L 366.257662 264.569436 
L 366.344029 264.618056 
L 366.430397 263.262003 
L 366.603131 264.545991 
L 366.689498 264.623373 
L 366.775866 263.37499 
L 366.862233 264.126269 
L 366.9486 263.205294 
L 367.121335 249.448285 
L 367.207702 22.796 
L 367.294069 181.635982 
L 367.380436 123.755546 
L 367.553171 221.845226 
L 367.639538 186.588615 
L 367.812273 262.408779 
L 367.812273 262.408779 
" style="fill:none;stroke:#1f77b4;stroke-linecap:square;stroke-width:1.5;"/>
   </g>
   <g id="patch_3">
    <path d="M 26.925 276.812 
L 26.925 10.7 
" style="fill:none;stroke:#000000;stroke-linecap:square;stroke-linejoin:miter;stroke-width:0.8;"/>
   </g>
   <g id="patch_4">
    <path d="M 384.045 276.812 
L 384.045 10.7 
" style="fill:none;stroke:#000000;stroke-linecap:square;stroke-linejoin:miter;stroke-width:0.8;"/>
   </g>
   <g id="patch_5">
    <path d="M 26.925 276.812 
L 384.045 276.812 
" style="fill:none;stroke:#000000;stroke-linecap:square;stroke-linejoin:miter;stroke-width:0.8;"/>
   </g>
   <g id="patch_6">
    <path d="M 26.925 10.7 
L 384.045 10.7 
" style="fill:none;stroke:#000000;stroke-linecap:square;stroke-linejoin:miter;stroke-width:0.8;"/>
   </g>
  </g>
 </g>
 <defs>
  <clipPath id="p57e132b5e9">
   <rect height="266.112" width="357.12" x="26.925" y="10.7"/>
  </clipPath>
 </defs>
</svg>
