<?xml version="1.0" encoding="utf-8" standalone="no"?>
<!DOCTYPE svg PUBLIC "-//W3C//DTD SVG 1.1//EN"
  "http://www.w3.org/Graphics/SVG/1.1/DTD/svg11.dtd">
<!-- Created with matplotlib (http://matplotlib.org/) -->
<svg height="252.018125pt" version="1.1" viewBox="0 0 366.0625 252.018125" width="366.0625pt" xmlns="http://www.w3.org/2000/svg" xmlns:xlink="http://www.w3.org/1999/xlink">
 <defs>
  <style type="text/css">
*{stroke-linecap:butt;stroke-linejoin:round;}
  </style>
 </defs>
 <g id="figure_1">
  <g id="patch_1">
   <path d="M 0 252.018125 
L 366.0625 252.018125 
L 366.0625 0 
L 0 0 
z
" style="fill:#ffffff;"/>
  </g>
  <g id="axes_1">
   <g id="patch_2">
    <path d="M 20.5625 228.14 
L 355.3625 228.14 
L 355.3625 10.7 
L 20.5625 10.7 
z
" style="fill:#ffffff;"/>
   </g>
   <g id="matplotlib.axis_1">
    <g id="xtick_1">
     <g id="line2d_1">
      <defs>
       <path d="M 0 0 
L 0 3.5 
" id="m01505e9fae" style="stroke:#000000;stroke-width:0.8;"/>
      </defs>
      <g>
       <use style="stroke:#000000;stroke-width:0.8;" x="35.780682" xlink:href="#m01505e9fae" y="228.14"/>
      </g>
     </g>
     <g id="text_1">
      <!-- 0 -->
      <defs>
       <path d="M 31.78125 66.40625 
Q 24.171875 66.40625 20.328125 58.90625 
Q 16.5 51.421875 16.5 36.375 
Q 16.5 21.390625 20.328125 13.890625 
Q 24.171875 6.390625 31.78125 6.390625 
Q 39.453125 6.390625 43.28125 13.890625 
Q 47.125 21.390625 47.125 36.375 
Q 47.125 51.421875 43.28125 58.90625 
Q 39.453125 66.40625 31.78125 66.40625 
z
M 31.78125 74.21875 
Q 44.046875 74.21875 50.515625 64.515625 
Q 56.984375 54.828125 56.984375 36.375 
Q 56.984375 17.96875 50.515625 8.265625 
Q 44.046875 -1.421875 31.78125 -1.421875 
Q 19.53125 -1.421875 13.0625 8.265625 
Q 6.59375 17.96875 6.59375 36.375 
Q 6.59375 54.828125 13.0625 64.515625 
Q 19.53125 74.21875 31.78125 74.21875 
z
" id="DejaVuSans-30"/>
      </defs>
      <g transform="translate(32.599432 242.738437)scale(0.1 -0.1)">
       <use xlink:href="#DejaVuSans-30"/>
      </g>
     </g>
    </g>
    <g id="xtick_2">
     <g id="line2d_2">
      <g>
       <use style="stroke:#000000;stroke-width:0.8;" x="85.67636" xlink:href="#m01505e9fae" y="228.14"/>
      </g>
     </g>
     <g id="text_2">
      <!-- 100 -->
      <defs>
       <path d="M 12.40625 8.296875 
L 28.515625 8.296875 
L 28.515625 63.921875 
L 10.984375 60.40625 
L 10.984375 69.390625 
L 28.421875 72.90625 
L 38.28125 72.90625 
L 38.28125 8.296875 
L 54.390625 8.296875 
L 54.390625 0 
L 12.40625 0 
z
" id="DejaVuSans-31"/>
      </defs>
      <g transform="translate(76.13261 242.738437)scale(0.1 -0.1)">
       <use xlink:href="#DejaVuSans-31"/>
       <use x="63.623047" xlink:href="#DejaVuSans-30"/>
       <use x="127.246094" xlink:href="#DejaVuSans-30"/>
      </g>
     </g>
    </g>
    <g id="xtick_3">
     <g id="line2d_3">
      <g>
       <use style="stroke:#000000;stroke-width:0.8;" x="135.572038" xlink:href="#m01505e9fae" y="228.14"/>
      </g>
     </g>
     <g id="text_3">
      <!-- 200 -->
      <defs>
       <path d="M 19.1875 8.296875 
L 53.609375 8.296875 
L 53.609375 0 
L 7.328125 0 
L 7.328125 8.296875 
Q 12.9375 14.109375 22.625 23.890625 
Q 32.328125 33.6875 34.8125 36.53125 
Q 39.546875 41.84375 41.421875 45.53125 
Q 43.3125 49.21875 43.3125 52.78125 
Q 43.3125 58.59375 39.234375 62.25 
Q 35.15625 65.921875 28.609375 65.921875 
Q 23.96875 65.921875 18.8125 64.3125 
Q 13.671875 62.703125 7.8125 59.421875 
L 7.8125 69.390625 
Q 13.765625 71.78125 18.9375 73 
Q 24.125 74.21875 28.421875 74.21875 
Q 39.75 74.21875 46.484375 68.546875 
Q 53.21875 62.890625 53.21875 53.421875 
Q 53.21875 48.921875 51.53125 44.890625 
Q 49.859375 40.875 45.40625 35.40625 
Q 44.1875 33.984375 37.640625 27.21875 
Q 31.109375 20.453125 19.1875 8.296875 
z
" id="DejaVuSans-32"/>
      </defs>
      <g transform="translate(126.028288 242.738437)scale(0.1 -0.1)">
       <use xlink:href="#DejaVuSans-32"/>
       <use x="63.623047" xlink:href="#DejaVuSans-30"/>
       <use x="127.246094" xlink:href="#DejaVuSans-30"/>
      </g>
     </g>
    </g>
    <g id="xtick_4">
     <g id="line2d_4">
      <g>
       <use style="stroke:#000000;stroke-width:0.8;" x="185.467716" xlink:href="#m01505e9fae" y="228.14"/>
      </g>
     </g>
     <g id="text_4">
      <!-- 300 -->
      <defs>
       <path d="M 40.578125 39.3125 
Q 47.65625 37.796875 51.625 33 
Q 55.609375 28.21875 55.609375 21.1875 
Q 55.609375 10.40625 48.1875 4.484375 
Q 40.765625 -1.421875 27.09375 -1.421875 
Q 22.515625 -1.421875 17.65625 -0.515625 
Q 12.796875 0.390625 7.625 2.203125 
L 7.625 11.71875 
Q 11.71875 9.328125 16.59375 8.109375 
Q 21.484375 6.890625 26.8125 6.890625 
Q 36.078125 6.890625 40.9375 10.546875 
Q 45.796875 14.203125 45.796875 21.1875 
Q 45.796875 27.640625 41.28125 31.265625 
Q 36.765625 34.90625 28.71875 34.90625 
L 20.21875 34.90625 
L 20.21875 43.015625 
L 29.109375 43.015625 
Q 36.375 43.015625 40.234375 45.921875 
Q 44.09375 48.828125 44.09375 54.296875 
Q 44.09375 59.90625 40.109375 62.90625 
Q 36.140625 65.921875 28.71875 65.921875 
Q 24.65625 65.921875 20.015625 65.03125 
Q 15.375 64.15625 9.8125 62.3125 
L 9.8125 71.09375 
Q 15.4375 72.65625 20.34375 73.4375 
Q 25.25 74.21875 29.59375 74.21875 
Q 40.828125 74.21875 47.359375 69.109375 
Q 53.90625 64.015625 53.90625 55.328125 
Q 53.90625 49.265625 50.4375 45.09375 
Q 46.96875 40.921875 40.578125 39.3125 
z
" id="DejaVuSans-33"/>
      </defs>
      <g transform="translate(175.923966 242.738437)scale(0.1 -0.1)">
       <use xlink:href="#DejaVuSans-33"/>
       <use x="63.623047" xlink:href="#DejaVuSans-30"/>
       <use x="127.246094" xlink:href="#DejaVuSans-30"/>
      </g>
     </g>
    </g>
    <g id="xtick_5">
     <g id="line2d_5">
      <g>
       <use style="stroke:#000000;stroke-width:0.8;" x="235.363394" xlink:href="#m01505e9fae" y="228.14"/>
      </g>
     </g>
     <g id="text_5">
      <!-- 400 -->
      <defs>
       <path d="M 37.796875 64.3125 
L 12.890625 25.390625 
L 37.796875 25.390625 
z
M 35.203125 72.90625 
L 47.609375 72.90625 
L 47.609375 25.390625 
L 58.015625 25.390625 
L 58.015625 17.1875 
L 47.609375 17.1875 
L 47.609375 0 
L 37.796875 0 
L 37.796875 17.1875 
L 4.890625 17.1875 
L 4.890625 26.703125 
z
" id="DejaVuSans-34"/>
      </defs>
      <g transform="translate(225.819644 242.738437)scale(0.1 -0.1)">
       <use xlink:href="#DejaVuSans-34"/>
       <use x="63.623047" xlink:href="#DejaVuSans-30"/>
       <use x="127.246094" xlink:href="#DejaVuSans-30"/>
      </g>
     </g>
    </g>
    <g id="xtick_6">
     <g id="line2d_6">
      <g>
       <use style="stroke:#000000;stroke-width:0.8;" x="285.259072" xlink:href="#m01505e9fae" y="228.14"/>
      </g>
     </g>
     <g id="text_6">
      <!-- 500 -->
      <defs>
       <path d="M 10.796875 72.90625 
L 49.515625 72.90625 
L 49.515625 64.59375 
L 19.828125 64.59375 
L 19.828125 46.734375 
Q 21.96875 47.46875 24.109375 47.828125 
Q 26.265625 48.1875 28.421875 48.1875 
Q 40.625 48.1875 47.75 41.5 
Q 54.890625 34.8125 54.890625 23.390625 
Q 54.890625 11.625 47.5625 5.09375 
Q 40.234375 -1.421875 26.90625 -1.421875 
Q 22.3125 -1.421875 17.546875 -0.640625 
Q 12.796875 0.140625 7.71875 1.703125 
L 7.71875 11.625 
Q 12.109375 9.234375 16.796875 8.0625 
Q 21.484375 6.890625 26.703125 6.890625 
Q 35.15625 6.890625 40.078125 11.328125 
Q 45.015625 15.765625 45.015625 23.390625 
Q 45.015625 31 40.078125 35.4375 
Q 35.15625 39.890625 26.703125 39.890625 
Q 22.75 39.890625 18.8125 39.015625 
Q 14.890625 38.140625 10.796875 36.28125 
z
" id="DejaVuSans-35"/>
      </defs>
      <g transform="translate(275.715322 242.738437)scale(0.1 -0.1)">
       <use xlink:href="#DejaVuSans-35"/>
       <use x="63.623047" xlink:href="#DejaVuSans-30"/>
       <use x="127.246094" xlink:href="#DejaVuSans-30"/>
      </g>
     </g>
    </g>
    <g id="xtick_7">
     <g id="line2d_7">
      <g>
       <use style="stroke:#000000;stroke-width:0.8;" x="335.15475" xlink:href="#m01505e9fae" y="228.14"/>
      </g>
     </g>
     <g id="text_7">
      <!-- 600 -->
      <defs>
       <path d="M 33.015625 40.375 
Q 26.375 40.375 22.484375 35.828125 
Q 18.609375 31.296875 18.609375 23.390625 
Q 18.609375 15.53125 22.484375 10.953125 
Q 26.375 6.390625 33.015625 6.390625 
Q 39.65625 6.390625 43.53125 10.953125 
Q 47.40625 15.53125 47.40625 23.390625 
Q 47.40625 31.296875 43.53125 35.828125 
Q 39.65625 40.375 33.015625 40.375 
z
M 52.59375 71.296875 
L 52.59375 62.3125 
Q 48.875 64.0625 45.09375 64.984375 
Q 41.3125 65.921875 37.59375 65.921875 
Q 27.828125 65.921875 22.671875 59.328125 
Q 17.53125 52.734375 16.796875 39.40625 
Q 19.671875 43.65625 24.015625 45.921875 
Q 28.375 48.1875 33.59375 48.1875 
Q 44.578125 48.1875 50.953125 41.515625 
Q 57.328125 34.859375 57.328125 23.390625 
Q 57.328125 12.15625 50.6875 5.359375 
Q 44.046875 -1.421875 33.015625 -1.421875 
Q 20.359375 -1.421875 13.671875 8.265625 
Q 6.984375 17.96875 6.984375 36.375 
Q 6.984375 53.65625 15.1875 63.9375 
Q 23.390625 74.21875 37.203125 74.21875 
Q 40.921875 74.21875 44.703125 73.484375 
Q 48.484375 72.75 52.59375 71.296875 
z
" id="DejaVuSans-36"/>
      </defs>
      <g transform="translate(325.611 242.738437)scale(0.1 -0.1)">
       <use xlink:href="#DejaVuSans-36"/>
       <use x="63.623047" xlink:href="#DejaVuSans-30"/>
       <use x="127.246094" xlink:href="#DejaVuSans-30"/>
      </g>
     </g>
    </g>
   </g>
   <g id="matplotlib.axis_2">
    <g id="ytick_1">
     <g id="line2d_8">
      <defs>
       <path d="M 0 0 
L -3.5 0 
" id="m14a5a391d5" style="stroke:#000000;stroke-width:0.8;"/>
      </defs>
      <g>
       <use style="stroke:#000000;stroke-width:0.8;" x="20.5625" xlink:href="#m14a5a391d5" y="218.454987"/>
      </g>
     </g>
     <g id="text_8">
      <!-- 0 -->
      <g transform="translate(7.2 222.254206)scale(0.1 -0.1)">
       <use xlink:href="#DejaVuSans-30"/>
      </g>
     </g>
    </g>
    <g id="ytick_2">
     <g id="line2d_9">
      <g>
       <use style="stroke:#000000;stroke-width:0.8;" x="20.5625" xlink:href="#m14a5a391d5" y="171.868702"/>
      </g>
     </g>
     <g id="text_9">
      <!-- 1 -->
      <g transform="translate(7.2 175.667921)scale(0.1 -0.1)">
       <use xlink:href="#DejaVuSans-31"/>
      </g>
     </g>
    </g>
    <g id="ytick_3">
     <g id="line2d_10">
      <g>
       <use style="stroke:#000000;stroke-width:0.8;" x="20.5625" xlink:href="#m14a5a391d5" y="125.282417"/>
      </g>
     </g>
     <g id="text_10">
      <!-- 2 -->
      <g transform="translate(7.2 129.081636)scale(0.1 -0.1)">
       <use xlink:href="#DejaVuSans-32"/>
      </g>
     </g>
    </g>
    <g id="ytick_4">
     <g id="line2d_11">
      <g>
       <use style="stroke:#000000;stroke-width:0.8;" x="20.5625" xlink:href="#m14a5a391d5" y="78.696132"/>
      </g>
     </g>
     <g id="text_11">
      <!-- 3 -->
      <g transform="translate(7.2 82.495351)scale(0.1 -0.1)">
       <use xlink:href="#DejaVuSans-33"/>
      </g>
     </g>
    </g>
    <g id="ytick_5">
     <g id="line2d_12">
      <g>
       <use style="stroke:#000000;stroke-width:0.8;" x="20.5625" xlink:href="#m14a5a391d5" y="32.109847"/>
      </g>
     </g>
     <g id="text_12">
      <!-- 4 -->
      <g transform="translate(7.2 35.909066)scale(0.1 -0.1)">
       <use xlink:href="#DejaVuSans-34"/>
      </g>
     </g>
    </g>
   </g>
   <g id="line2d_13">
    <path clip-path="url(#pfcb8833cb9)" d="M 35.780682 194.217923 
L 36.279639 128.860424 
L 36.778595 113.996248 
L 37.277552 176.596323 
L 37.776509 178.009362 
L 38.275466 154.871077 
L 38.774423 59.256113 
L 39.273379 174.555065 
L 39.772336 180.631919 
L 40.271293 212.138669 
L 40.77025 205.559241 
L 41.269206 215.027724 
L 41.768163 213.007452 
L 42.26712 202.776289 
L 42.766077 213.395438 
L 43.265034 216.065716 
L 43.76399 204.555286 
L 44.262947 190.090309 
L 44.761904 214.275553 
L 45.759817 217.888707 
L 46.258774 217.664872 
L 46.757731 212.624969 
L 47.256688 214.898734 
L 47.755645 216.584958 
L 48.753558 214.984964 
L 49.252515 215.038554 
L 49.751472 202.909322 
L 50.250428 210.186736 
L 50.749385 212.122741 
L 51.248342 216.551784 
L 51.747299 213.895654 
L 52.745212 216.09979 
L 53.244169 202.224741 
L 53.743126 200.116977 
L 54.242083 214.052044 
L 54.741039 211.254111 
L 55.239996 210.707924 
L 55.738953 207.514779 
L 56.23791 206.352292 
L 56.736867 203.069697 
L 57.235823 210.158822 
L 57.73478 199.676528 
L 58.233737 204.556489 
L 58.732694 205.730996 
L 59.231651 193.40215 
L 59.730607 196.262907 
L 60.229564 207.964106 
L 60.728521 205.113068 
L 61.227478 203.901392 
L 61.726434 209.90103 
L 62.225391 212.639685 
L 62.724348 213.686031 
L 63.223305 211.615501 
L 63.722262 213.267515 
L 64.221218 213.036647 
L 64.720175 213.056498 
L 65.219132 207.002287 
L 65.718089 209.359572 
L 66.217045 214.414132 
L 66.716002 207.742388 
L 67.214959 206.586156 
L 67.713916 205.0555 
L 68.212873 211.050705 
L 68.711829 211.896559 
L 69.210786 211.415731 
L 69.709743 214.223729 
L 70.2087 215.290284 
L 70.707656 207.616366 
L 71.206613 214.464313 
L 71.70557 214.744065 
L 72.204527 214.356138 
L 72.703484 215.964538 
L 73.20244 216.887402 
L 73.701397 216.903385 
L 74.200354 215.596299 
L 74.699311 215.429701 
L 75.198268 210.6392 
L 75.697224 215.533877 
L 76.196181 212.942476 
L 76.695138 215.793366 
L 77.194095 215.936078 
L 77.693051 214.765988 
L 78.192008 211.256648 
L 78.690965 213.925981 
L 79.189922 211.764078 
L 79.688879 211.423146 
L 80.187835 213.208846 
L 80.686792 212.293801 
L 81.185749 206.72007 
L 81.684706 208.321775 
L 82.183662 205.18486 
L 82.682619 211.219189 
L 83.181576 211.721005 
L 83.680533 212.862596 
L 84.17949 211.478944 
L 84.678446 213.266876 
L 85.177403 208.468002 
L 85.67636 213.054553 
L 86.175317 212.493879 
L 86.674273 215.385732 
L 87.17323 216.397942 
L 87.672187 215.987529 
L 88.171144 216.155171 
L 88.670101 210.588822 
L 89.169057 208.346204 
L 89.668014 214.360684 
L 90.166971 214.865072 
L 90.665928 202.16416 
L 91.663841 212.455562 
L 92.162798 213.712178 
L 92.661755 211.434303 
L 93.160712 208.157562 
L 93.659668 210.448301 
L 94.657582 217.107264 
L 95.156539 215.651365 
L 95.655496 173.659592 
L 96.154452 204.233329 
L 97.152366 217.297203 
L 97.651323 217.225471 
L 98.150279 216.74815 
L 98.649236 215.795631 
L 99.148193 216.199921 
L 99.64715 217.592668 
L 100.645063 217.776387 
L 101.14402 216.448137 
L 101.642977 217.254876 
L 102.141934 215.958016 
L 102.64089 213.932824 
L 103.139847 214.886445 
L 103.638804 214.225858 
L 104.137761 214.775612 
L 104.636718 213.693864 
L 105.135674 213.051174 
L 105.634631 211.676011 
L 106.133588 213.813904 
L 106.632545 208.733501 
L 107.630458 207.746986 
L 108.129415 208.711017 
L 108.628372 203.152317 
L 109.127329 210.056475 
L 109.626285 211.03473 
L 110.125242 207.723288 
L 110.624199 215.882864 
L 111.123156 215.260978 
L 111.622113 213.102447 
L 112.121069 208.217043 
L 112.620026 214.346267 
L 113.118983 216.241179 
L 113.61794 216.070199 
L 114.116896 217.622891 
L 114.615853 216.769392 
L 115.613767 216.538848 
L 116.112724 216.618473 
L 116.61168 216.362465 
L 117.110637 217.648704 
L 117.609594 216.990065 
L 118.108551 212.652289 
L 119.106464 216.286904 
L 119.605421 217.782416 
L 120.104378 214.843564 
L 120.603335 215.68167 
L 121.102291 208.431705 
L 121.601248 212.689243 
L 122.100205 210.927437 
L 123.098118 216.267568 
L 123.597075 216.440121 
L 124.096032 218.143607 
L 124.594989 215.347282 
L 125.093946 215.551352 
L 125.592902 216.532403 
L 126.590816 217.043333 
L 127.089773 217.71923 
L 127.58873 216.770899 
L 128.087686 217.974566 
L 128.586643 217.740792 
L 129.0856 216.556464 
L 129.584557 216.313424 
L 130.083513 217.778965 
L 130.58247 217.031493 
L 131.081427 217.887328 
L 131.580384 217.802902 
L 132.578297 217.920741 
L 133.077254 216.961935 
L 133.576211 217.866084 
L 134.075168 216.562707 
L 134.574124 216.492543 
L 135.073081 217.814612 
L 135.572038 216.706027 
L 136.070995 216.635051 
L 136.569952 217.84448 
L 137.068908 216.801343 
L 137.567865 216.644087 
L 138.066822 217.842312 
L 138.565779 217.926743 
L 139.064735 216.682304 
L 139.563692 218.197074 
L 140.062649 216.537338 
L 140.561606 216.229911 
L 141.060563 216.709789 
L 141.559519 216.389482 
L 142.058476 217.733058 
L 142.557433 216.800561 
L 143.05639 216.755757 
L 143.555346 218.185046 
L 144.054303 217.821692 
L 144.55326 214.712627 
L 145.052217 217.657495 
L 145.551174 216.356515 
L 146.05013 217.369465 
L 146.549087 217.609369 
L 147.048044 216.548856 
L 147.547001 215.750659 
L 148.045958 216.73147 
L 148.544914 214.479183 
L 149.043871 216.850728 
L 149.542828 215.740649 
L 150.041785 217.013386 
L 151.039698 214.467938 
L 151.538655 210.751373 
L 152.037612 202.625935 
L 152.536569 214.268677 
L 153.035525 215.51171 
L 153.534482 214.852094 
L 154.033439 215.46766 
L 154.532396 214.822406 
L 155.031352 210.346458 
L 155.530309 214.661578 
L 156.029266 214.10359 
L 157.02718 199.27736 
L 157.526136 216.321345 
L 158.025093 216.754576 
L 158.52405 215.517415 
L 159.023007 216.303571 
L 159.521963 216.527413 
L 160.02092 206.578078 
L 160.519877 213.396429 
L 161.018834 216.313926 
L 161.517791 209.456191 
L 162.016747 217.255799 
L 162.515704 217.297126 
L 163.014661 216.904261 
L 163.513618 216.34736 
L 164.012575 215.456621 
L 164.511531 216.57217 
L 165.509445 213.709863 
L 166.008402 215.921927 
L 166.507358 203.704187 
L 167.006315 210.830564 
L 167.505272 212.443232 
L 168.004229 216.276346 
L 168.503186 211.705576 
L 169.002142 214.069034 
L 169.501099 214.407195 
L 170.000056 208.103649 
L 170.499013 216.357855 
L 170.997969 216.280186 
L 171.496926 215.806145 
L 171.995883 212.483968 
L 172.49484 215.112249 
L 172.993797 214.030837 
L 173.492753 214.938654 
L 174.490667 213.637534 
L 174.989624 214.331976 
L 175.48858 217.02083 
L 175.987537 212.871911 
L 176.486494 211.049621 
L 176.985451 209.744429 
L 177.484408 212.53756 
L 177.983364 214.566372 
L 178.482321 215.167495 
L 178.981278 211.519084 
L 179.480235 204.51246 
L 179.979192 205.158803 
L 180.478148 213.798242 
L 180.977105 214.321798 
L 181.476062 216.170396 
L 181.975019 204.408317 
L 182.473975 204.117359 
L 182.972932 216.918296 
L 183.471889 214.981805 
L 183.970846 217.384806 
L 184.469803 217.264973 
L 184.968759 217.406516 
L 185.467716 216.368477 
L 185.966673 218.230141 
L 186.46563 216.241105 
L 186.964586 217.917404 
L 187.463543 216.3982 
L 187.9625 216.300285 
L 188.461457 216.759316 
L 188.960414 218.17646 
L 189.45937 216.39489 
L 189.958327 216.431646 
L 190.457284 216.02767 
L 190.956241 216.52219 
L 191.455197 216.796287 
L 191.954154 215.480671 
L 192.453111 217.506777 
L 192.952068 216.668496 
L 193.451025 216.668502 
L 193.949981 215.020314 
L 194.448938 215.879314 
L 194.947895 216.37065 
L 195.446852 218.183643 
L 195.945808 217.764147 
L 196.444765 216.607821 
L 196.943722 216.382418 
L 197.442679 216.718352 
L 197.941636 218.20976 
L 198.440592 216.388708 
L 198.939549 217.652489 
L 199.438506 216.584613 
L 199.937463 216.438668 
L 200.43642 217.424369 
L 200.935376 217.486833 
L 201.434333 215.54976 
L 201.93329 217.854889 
L 202.432247 216.662441 
L 202.931203 212.009041 
L 203.43016 215.399743 
L 204.428074 209.835449 
L 204.927031 216.75267 
L 205.425987 216.86007 
L 205.924944 213.56659 
L 206.423901 207.91729 
L 206.922858 215.405053 
L 207.421814 215.43458 
L 207.920771 212.325176 
L 208.419728 194.187435 
L 208.918685 208.848665 
L 209.417642 213.366682 
L 209.916598 211.829353 
L 210.415555 211.191692 
L 210.914512 207.544753 
L 211.413469 201.294877 
L 211.912425 207.786308 
L 212.411382 206.519065 
L 212.910339 207.639431 
L 213.409296 215.906252 
L 213.908253 216.45414 
L 214.407209 217.221111 
L 214.906166 217.134447 
L 215.405123 215.305393 
L 215.90408 214.816245 
L 216.403037 215.703997 
L 216.901993 213.394109 
L 217.40095 215.2276 
L 217.899907 211.114393 
L 218.398864 212.992636 
L 218.89782 213.294266 
L 219.396777 215.338113 
L 219.895734 214.062874 
L 220.893648 216.614278 
L 221.392604 215.135481 
L 221.891561 216.367424 
L 222.390518 214.12166 
L 222.889475 215.032885 
L 223.388431 210.577141 
L 223.887388 216.197401 
L 224.386345 217.40225 
L 224.885302 216.012239 
L 225.384259 190.006725 
L 225.883215 187.568835 
L 226.382172 201.212964 
L 226.881129 201.006444 
L 227.380086 211.18564 
L 227.879042 210.698519 
L 228.377999 208.544492 
L 228.876956 191.408345 
L 229.375913 206.750026 
L 229.87487 212.332199 
L 230.373826 213.712878 
L 230.872783 206.663108 
L 231.37174 211.199556 
L 231.870697 210.859804 
L 232.369654 214.801085 
L 232.86861 208.36775 
L 233.367567 214.341759 
L 233.866524 210.460685 
L 234.365481 214.142053 
L 234.864437 215.279313 
L 235.363394 216.81023 
L 235.862351 217.06969 
L 236.361308 217.122294 
L 236.860265 214.239923 
L 237.359221 215.184203 
L 237.858178 214.323463 
L 238.357135 217.247875 
L 238.856092 199.913871 
L 239.355048 207.243644 
L 239.854005 212.561858 
L 240.352962 188.173304 
L 240.851919 186.467326 
L 241.350876 208.221545 
L 241.849832 203.38828 
L 242.348789 174.308966 
L 242.847746 213.915366 
L 243.346703 207.029621 
L 243.845659 210.420834 
L 244.344616 202.871257 
L 244.843573 206.654772 
L 245.34253 204.756531 
L 245.841487 198.398985 
L 246.340443 209.984635 
L 246.8394 207.437457 
L 247.338357 208.507412 
L 247.837314 202.176358 
L 248.33627 212.68478 
L 248.835227 209.642362 
L 249.334184 214.582686 
L 249.833141 214.153107 
L 250.332098 213.392232 
L 250.831054 210.703887 
L 251.330011 208.648613 
L 251.828968 216.712025 
L 252.327925 216.328743 
L 252.826882 204.223663 
L 253.325838 195.63663 
L 253.824795 214.187549 
L 254.323752 214.843776 
L 254.822709 199.758559 
L 255.321665 212.914978 
L 255.820622 208.656355 
L 256.319579 209.866867 
L 256.818536 211.372819 
L 257.317493 209.236681 
L 257.816449 209.865757 
L 258.315406 214.268378 
L 258.814363 209.683132 
L 259.31332 211.230748 
L 259.812276 216.165326 
L 260.311233 208.368581 
L 261.309147 216.778687 
L 261.808104 217.130045 
L 262.30706 214.345618 
L 262.806017 214.994246 
L 263.304974 212.746296 
L 263.803931 214.870415 
L 264.302887 209.23 
L 264.801844 216.404411 
L 265.799758 214.473641 
L 266.298715 211.261882 
L 266.797671 214.607228 
L 267.296628 215.261751 
L 267.795585 209.384172 
L 268.294542 210.072758 
L 268.793499 209.386444 
L 269.292455 214.673701 
L 269.791412 215.292537 
L 270.290369 216.16546 
L 270.789326 214.695774 
L 271.288282 211.622662 
L 271.787239 217.716207 
L 272.286196 215.795216 
L 272.785153 216.206434 
L 273.28411 212.672585 
L 273.783066 215.427065 
L 274.282023 217.308999 
L 274.78098 215.001606 
L 275.279937 217.664231 
L 275.778893 215.64708 
L 276.27785 215.646743 
L 276.776807 207.074424 
L 277.275764 212.850907 
L 277.774721 210.638155 
L 278.273677 191.702169 
L 278.772634 186.631228 
L 279.271591 188.649951 
L 279.770548 209.319614 
L 280.269504 216.560799 
L 280.768461 216.566979 
L 281.267418 214.448041 
L 281.766375 203.847375 
L 282.265332 211.091725 
L 282.764288 207.318491 
L 283.263245 204.99516 
L 283.762202 190.424552 
L 284.760115 211.455429 
L 285.259072 203.601129 
L 285.758029 211.794545 
L 286.256986 201.383374 
L 286.755943 210.563506 
L 287.254899 210.274771 
L 287.753856 211.019977 
L 288.252813 208.354386 
L 288.75177 204.346668 
L 289.250727 203.952837 
L 289.749683 207.721223 
L 290.24864 208.771515 
L 290.747597 210.748877 
L 291.246554 212.008304 
L 291.74551 208.840798 
L 292.244467 210.871697 
L 292.743424 212.147684 
L 293.242381 211.959065 
L 293.741338 210.989906 
L 294.240294 207.547195 
L 294.739251 212.56235 
L 295.238208 214.777977 
L 295.737165 212.378448 
L 296.236121 199.35462 
L 296.735078 211.050687 
L 297.234035 215.861556 
L 297.732992 215.659087 
L 298.231949 217.04357 
L 298.730905 215.288219 
L 299.229862 216.563569 
L 299.728819 214.937034 
L 300.227776 214.780452 
L 300.726732 216.800109 
L 301.225689 214.565226 
L 301.724646 214.604096 
L 302.223603 215.074752 
L 302.72256 215.118566 
L 303.221516 213.496801 
L 303.720473 216.204748 
L 304.21943 215.462474 
L 304.718387 215.585366 
L 305.217344 215.189618 
L 306.215257 217.40791 
L 306.714214 215.786513 
L 307.213171 216.589254 
L 307.712127 214.020513 
L 308.211084 210.721586 
L 308.710041 205.928297 
L 309.208998 217.839453 
L 309.707955 214.432456 
L 310.206911 216.879836 
L 310.705868 215.300173 
L 311.204825 217.430655 
L 311.703782 216.181061 
L 312.202738 216.594748 
L 312.701695 218.256364 
L 313.200652 218.223708 
L 313.699609 216.539956 
L 314.198566 216.363514 
L 314.697522 218.00775 
L 315.196479 218.107016 
L 315.695436 217.369875 
L 316.194393 217.312654 
L 316.693349 217.685982 
L 317.691263 211.505861 
L 318.19022 213.930515 
L 318.689177 214.070746 
L 319.188133 216.226183 
L 319.68709 215.949934 
L 320.186047 218.171626 
L 320.685004 210.885034 
L 321.183961 211.578851 
L 321.682917 213.939956 
L 322.181874 205.338948 
L 322.680831 210.864468 
L 323.179788 204.779824 
L 323.678744 213.798087 
L 324.177701 213.896937 
L 324.676658 217.580453 
L 325.175615 214.364661 
L 325.674572 206.629517 
L 326.173528 208.263841 
L 326.672485 213.085426 
L 327.171442 215.209847 
L 327.670399 212.034582 
L 328.169355 213.926126 
L 328.668312 211.85394 
L 329.167269 214.461338 
L 329.666226 213.067929 
L 330.165183 212.42503 
L 330.664139 215.30383 
L 331.163096 214.512486 
L 331.662053 215.818875 
L 332.16101 215.768682 
L 333.158923 212.27104 
L 333.65788 214.361127 
L 334.156837 203.195839 
L 334.655794 145.138539 
L 335.15475 169.431121 
L 335.653707 212.57272 
L 336.152664 20.583636 
L 336.651621 209.284671 
L 337.150577 177.320565 
L 337.649534 178.529092 
L 338.148491 111.886095 
L 338.647448 198.74183 
L 339.146405 207.039995 
L 339.645361 179.84001 
L 340.144318 209.190112 
L 340.144318 209.190112 
" style="fill:none;stroke:#1f77b4;stroke-linecap:square;stroke-width:1.5;"/>
   </g>
   <g id="patch_3">
    <path d="M 20.5625 228.14 
L 20.5625 10.7 
" style="fill:none;stroke:#000000;stroke-linecap:square;stroke-linejoin:miter;stroke-width:0.8;"/>
   </g>
   <g id="patch_4">
    <path d="M 355.3625 228.14 
L 355.3625 10.7 
" style="fill:none;stroke:#000000;stroke-linecap:square;stroke-linejoin:miter;stroke-width:0.8;"/>
   </g>
   <g id="patch_5">
    <path d="M 20.5625 228.14 
L 355.3625 228.14 
" style="fill:none;stroke:#000000;stroke-linecap:square;stroke-linejoin:miter;stroke-width:0.8;"/>
   </g>
   <g id="patch_6">
    <path d="M 20.5625 10.7 
L 355.3625 10.7 
" style="fill:none;stroke:#000000;stroke-linecap:square;stroke-linejoin:miter;stroke-width:0.8;"/>
   </g>
  </g>
 </g>
 <defs>
  <clipPath id="pfcb8833cb9">
   <rect height="217.44" width="334.8" x="20.5625" y="10.7"/>
  </clipPath>
 </defs>
</svg>
