<?xml version="1.0" encoding="utf-8" standalone="no"?>
<!DOCTYPE svg PUBLIC "-//W3C//DTD SVG 1.1//EN"
  "http://www.w3.org/Graphics/SVG/1.1/DTD/svg11.dtd">
<!-- Created with matplotlib (http://matplotlib.org/) -->
<svg height="300.690125pt" version="1.1" viewBox="0 0 397.923125 300.690125" width="397.923125pt" xmlns="http://www.w3.org/2000/svg" xmlns:xlink="http://www.w3.org/1999/xlink">
 <defs>
  <style type="text/css">
*{stroke-linecap:butt;stroke-linejoin:round;}
  </style>
 </defs>
 <g id="figure_1">
  <g id="patch_1">
   <path d="M 0 300.690125 
L 397.923125 300.690125 
L 397.923125 0 
L 0 0 
z
" style="fill:#ffffff;"/>
  </g>
  <g id="axes_1">
   <g id="patch_2">
    <path d="M 30.103125 276.812 
L 387.223125 276.812 
L 387.223125 10.7 
L 30.103125 10.7 
z
" style="fill:#ffffff;"/>
   </g>
   <g id="matplotlib.axis_1">
    <g id="xtick_1">
     <g id="line2d_1">
      <defs>
       <path d="M 0 0 
L 0 3.5 
" id="m72c58eb2df" style="stroke:#000000;stroke-width:0.8;"/>
      </defs>
      <g>
       <use style="stroke:#000000;stroke-width:0.8;" x="46.335852" xlink:href="#m72c58eb2df" y="276.812"/>
      </g>
     </g>
     <g id="text_1">
      <!-- 0 -->
      <defs>
       <path d="M 31.78125 66.40625 
Q 24.171875 66.40625 20.328125 58.90625 
Q 16.5 51.421875 16.5 36.375 
Q 16.5 21.390625 20.328125 13.890625 
Q 24.171875 6.390625 31.78125 6.390625 
Q 39.453125 6.390625 43.28125 13.890625 
Q 47.125 21.390625 47.125 36.375 
Q 47.125 51.421875 43.28125 58.90625 
Q 39.453125 66.40625 31.78125 66.40625 
z
M 31.78125 74.21875 
Q 44.046875 74.21875 50.515625 64.515625 
Q 56.984375 54.828125 56.984375 36.375 
Q 56.984375 17.96875 50.515625 8.265625 
Q 44.046875 -1.421875 31.78125 -1.421875 
Q 19.53125 -1.421875 13.0625 8.265625 
Q 6.59375 17.96875 6.59375 36.375 
Q 6.59375 54.828125 13.0625 64.515625 
Q 19.53125 74.21875 31.78125 74.21875 
z
" id="DejaVuSans-30"/>
      </defs>
      <g transform="translate(43.154602 291.410437)scale(0.1 -0.1)">
       <use xlink:href="#DejaVuSans-30"/>
      </g>
     </g>
    </g>
    <g id="xtick_2">
     <g id="line2d_2">
      <g>
       <use style="stroke:#000000;stroke-width:0.8;" x="112.456941" xlink:href="#m72c58eb2df" y="276.812"/>
      </g>
     </g>
     <g id="text_2">
      <!-- 200 -->
      <defs>
       <path d="M 19.1875 8.296875 
L 53.609375 8.296875 
L 53.609375 0 
L 7.328125 0 
L 7.328125 8.296875 
Q 12.9375 14.109375 22.625 23.890625 
Q 32.328125 33.6875 34.8125 36.53125 
Q 39.546875 41.84375 41.421875 45.53125 
Q 43.3125 49.21875 43.3125 52.78125 
Q 43.3125 58.59375 39.234375 62.25 
Q 35.15625 65.921875 28.609375 65.921875 
Q 23.96875 65.921875 18.8125 64.3125 
Q 13.671875 62.703125 7.8125 59.421875 
L 7.8125 69.390625 
Q 13.765625 71.78125 18.9375 73 
Q 24.125 74.21875 28.421875 74.21875 
Q 39.75 74.21875 46.484375 68.546875 
Q 53.21875 62.890625 53.21875 53.421875 
Q 53.21875 48.921875 51.53125 44.890625 
Q 49.859375 40.875 45.40625 35.40625 
Q 44.1875 33.984375 37.640625 27.21875 
Q 31.109375 20.453125 19.1875 8.296875 
z
" id="DejaVuSans-32"/>
      </defs>
      <g transform="translate(102.913191 291.410437)scale(0.1 -0.1)">
       <use xlink:href="#DejaVuSans-32"/>
       <use x="63.623047" xlink:href="#DejaVuSans-30"/>
       <use x="127.246094" xlink:href="#DejaVuSans-30"/>
      </g>
     </g>
    </g>
    <g id="xtick_3">
     <g id="line2d_3">
      <g>
       <use style="stroke:#000000;stroke-width:0.8;" x="178.57803" xlink:href="#m72c58eb2df" y="276.812"/>
      </g>
     </g>
     <g id="text_3">
      <!-- 400 -->
      <defs>
       <path d="M 37.796875 64.3125 
L 12.890625 25.390625 
L 37.796875 25.390625 
z
M 35.203125 72.90625 
L 47.609375 72.90625 
L 47.609375 25.390625 
L 58.015625 25.390625 
L 58.015625 17.1875 
L 47.609375 17.1875 
L 47.609375 0 
L 37.796875 0 
L 37.796875 17.1875 
L 4.890625 17.1875 
L 4.890625 26.703125 
z
" id="DejaVuSans-34"/>
      </defs>
      <g transform="translate(169.03428 291.410437)scale(0.1 -0.1)">
       <use xlink:href="#DejaVuSans-34"/>
       <use x="63.623047" xlink:href="#DejaVuSans-30"/>
       <use x="127.246094" xlink:href="#DejaVuSans-30"/>
      </g>
     </g>
    </g>
    <g id="xtick_4">
     <g id="line2d_4">
      <g>
       <use style="stroke:#000000;stroke-width:0.8;" x="244.699118" xlink:href="#m72c58eb2df" y="276.812"/>
      </g>
     </g>
     <g id="text_4">
      <!-- 600 -->
      <defs>
       <path d="M 33.015625 40.375 
Q 26.375 40.375 22.484375 35.828125 
Q 18.609375 31.296875 18.609375 23.390625 
Q 18.609375 15.53125 22.484375 10.953125 
Q 26.375 6.390625 33.015625 6.390625 
Q 39.65625 6.390625 43.53125 10.953125 
Q 47.40625 15.53125 47.40625 23.390625 
Q 47.40625 31.296875 43.53125 35.828125 
Q 39.65625 40.375 33.015625 40.375 
z
M 52.59375 71.296875 
L 52.59375 62.3125 
Q 48.875 64.0625 45.09375 64.984375 
Q 41.3125 65.921875 37.59375 65.921875 
Q 27.828125 65.921875 22.671875 59.328125 
Q 17.53125 52.734375 16.796875 39.40625 
Q 19.671875 43.65625 24.015625 45.921875 
Q 28.375 48.1875 33.59375 48.1875 
Q 44.578125 48.1875 50.953125 41.515625 
Q 57.328125 34.859375 57.328125 23.390625 
Q 57.328125 12.15625 50.6875 5.359375 
Q 44.046875 -1.421875 33.015625 -1.421875 
Q 20.359375 -1.421875 13.671875 8.265625 
Q 6.984375 17.96875 6.984375 36.375 
Q 6.984375 53.65625 15.1875 63.9375 
Q 23.390625 74.21875 37.203125 74.21875 
Q 40.921875 74.21875 44.703125 73.484375 
Q 48.484375 72.75 52.59375 71.296875 
z
" id="DejaVuSans-36"/>
      </defs>
      <g transform="translate(235.155368 291.410437)scale(0.1 -0.1)">
       <use xlink:href="#DejaVuSans-36"/>
       <use x="63.623047" xlink:href="#DejaVuSans-30"/>
       <use x="127.246094" xlink:href="#DejaVuSans-30"/>
      </g>
     </g>
    </g>
    <g id="xtick_5">
     <g id="line2d_5">
      <g>
       <use style="stroke:#000000;stroke-width:0.8;" x="310.820207" xlink:href="#m72c58eb2df" y="276.812"/>
      </g>
     </g>
     <g id="text_5">
      <!-- 800 -->
      <defs>
       <path d="M 31.78125 34.625 
Q 24.75 34.625 20.71875 30.859375 
Q 16.703125 27.09375 16.703125 20.515625 
Q 16.703125 13.921875 20.71875 10.15625 
Q 24.75 6.390625 31.78125 6.390625 
Q 38.8125 6.390625 42.859375 10.171875 
Q 46.921875 13.96875 46.921875 20.515625 
Q 46.921875 27.09375 42.890625 30.859375 
Q 38.875 34.625 31.78125 34.625 
z
M 21.921875 38.8125 
Q 15.578125 40.375 12.03125 44.71875 
Q 8.5 49.078125 8.5 55.328125 
Q 8.5 64.0625 14.71875 69.140625 
Q 20.953125 74.21875 31.78125 74.21875 
Q 42.671875 74.21875 48.875 69.140625 
Q 55.078125 64.0625 55.078125 55.328125 
Q 55.078125 49.078125 51.53125 44.71875 
Q 48 40.375 41.703125 38.8125 
Q 48.828125 37.15625 52.796875 32.3125 
Q 56.78125 27.484375 56.78125 20.515625 
Q 56.78125 9.90625 50.3125 4.234375 
Q 43.84375 -1.421875 31.78125 -1.421875 
Q 19.734375 -1.421875 13.25 4.234375 
Q 6.78125 9.90625 6.78125 20.515625 
Q 6.78125 27.484375 10.78125 32.3125 
Q 14.796875 37.15625 21.921875 38.8125 
z
M 18.3125 54.390625 
Q 18.3125 48.734375 21.84375 45.5625 
Q 25.390625 42.390625 31.78125 42.390625 
Q 38.140625 42.390625 41.71875 45.5625 
Q 45.3125 48.734375 45.3125 54.390625 
Q 45.3125 60.0625 41.71875 63.234375 
Q 38.140625 66.40625 31.78125 66.40625 
Q 25.390625 66.40625 21.84375 63.234375 
Q 18.3125 60.0625 18.3125 54.390625 
z
" id="DejaVuSans-38"/>
      </defs>
      <g transform="translate(301.276457 291.410437)scale(0.1 -0.1)">
       <use xlink:href="#DejaVuSans-38"/>
       <use x="63.623047" xlink:href="#DejaVuSans-30"/>
       <use x="127.246094" xlink:href="#DejaVuSans-30"/>
      </g>
     </g>
    </g>
    <g id="xtick_6">
     <g id="line2d_6">
      <g>
       <use style="stroke:#000000;stroke-width:0.8;" x="376.941296" xlink:href="#m72c58eb2df" y="276.812"/>
      </g>
     </g>
     <g id="text_6">
      <!-- 1000 -->
      <defs>
       <path d="M 12.40625 8.296875 
L 28.515625 8.296875 
L 28.515625 63.921875 
L 10.984375 60.40625 
L 10.984375 69.390625 
L 28.421875 72.90625 
L 38.28125 72.90625 
L 38.28125 8.296875 
L 54.390625 8.296875 
L 54.390625 0 
L 12.40625 0 
z
" id="DejaVuSans-31"/>
      </defs>
      <g transform="translate(364.216296 291.410437)scale(0.1 -0.1)">
       <use xlink:href="#DejaVuSans-31"/>
       <use x="63.623047" xlink:href="#DejaVuSans-30"/>
       <use x="127.246094" xlink:href="#DejaVuSans-30"/>
       <use x="190.869141" xlink:href="#DejaVuSans-30"/>
      </g>
     </g>
    </g>
   </g>
   <g id="matplotlib.axis_2">
    <g id="ytick_1">
     <g id="line2d_7">
      <defs>
       <path d="M 0 0 
L -3.5 0 
" id="m094eed22ed" style="stroke:#000000;stroke-width:0.8;"/>
      </defs>
      <g>
       <use style="stroke:#000000;stroke-width:0.8;" x="30.103125" xlink:href="#m094eed22ed" y="265.199929"/>
      </g>
     </g>
     <g id="text_7">
      <!-- 0.0 -->
      <defs>
       <path d="M 10.6875 12.40625 
L 21 12.40625 
L 21 0 
L 10.6875 0 
z
" id="DejaVuSans-2e"/>
      </defs>
      <g transform="translate(7.2 268.999148)scale(0.1 -0.1)">
       <use xlink:href="#DejaVuSans-30"/>
       <use x="63.623047" xlink:href="#DejaVuSans-2e"/>
       <use x="95.410156" xlink:href="#DejaVuSans-30"/>
      </g>
     </g>
    </g>
    <g id="ytick_2">
     <g id="line2d_8">
      <g>
       <use style="stroke:#000000;stroke-width:0.8;" x="30.103125" xlink:href="#m094eed22ed" y="226.033937"/>
      </g>
     </g>
     <g id="text_8">
      <!-- 0.1 -->
      <g transform="translate(7.2 229.833156)scale(0.1 -0.1)">
       <use xlink:href="#DejaVuSans-30"/>
       <use x="63.623047" xlink:href="#DejaVuSans-2e"/>
       <use x="95.410156" xlink:href="#DejaVuSans-31"/>
      </g>
     </g>
    </g>
    <g id="ytick_3">
     <g id="line2d_9">
      <g>
       <use style="stroke:#000000;stroke-width:0.8;" x="30.103125" xlink:href="#m094eed22ed" y="186.867944"/>
      </g>
     </g>
     <g id="text_9">
      <!-- 0.2 -->
      <g transform="translate(7.2 190.667163)scale(0.1 -0.1)">
       <use xlink:href="#DejaVuSans-30"/>
       <use x="63.623047" xlink:href="#DejaVuSans-2e"/>
       <use x="95.410156" xlink:href="#DejaVuSans-32"/>
      </g>
     </g>
    </g>
    <g id="ytick_4">
     <g id="line2d_10">
      <g>
       <use style="stroke:#000000;stroke-width:0.8;" x="30.103125" xlink:href="#m094eed22ed" y="147.701952"/>
      </g>
     </g>
     <g id="text_10">
      <!-- 0.3 -->
      <defs>
       <path d="M 40.578125 39.3125 
Q 47.65625 37.796875 51.625 33 
Q 55.609375 28.21875 55.609375 21.1875 
Q 55.609375 10.40625 48.1875 4.484375 
Q 40.765625 -1.421875 27.09375 -1.421875 
Q 22.515625 -1.421875 17.65625 -0.515625 
Q 12.796875 0.390625 7.625 2.203125 
L 7.625 11.71875 
Q 11.71875 9.328125 16.59375 8.109375 
Q 21.484375 6.890625 26.8125 6.890625 
Q 36.078125 6.890625 40.9375 10.546875 
Q 45.796875 14.203125 45.796875 21.1875 
Q 45.796875 27.640625 41.28125 31.265625 
Q 36.765625 34.90625 28.71875 34.90625 
L 20.21875 34.90625 
L 20.21875 43.015625 
L 29.109375 43.015625 
Q 36.375 43.015625 40.234375 45.921875 
Q 44.09375 48.828125 44.09375 54.296875 
Q 44.09375 59.90625 40.109375 62.90625 
Q 36.140625 65.921875 28.71875 65.921875 
Q 24.65625 65.921875 20.015625 65.03125 
Q 15.375 64.15625 9.8125 62.3125 
L 9.8125 71.09375 
Q 15.4375 72.65625 20.34375 73.4375 
Q 25.25 74.21875 29.59375 74.21875 
Q 40.828125 74.21875 47.359375 69.109375 
Q 53.90625 64.015625 53.90625 55.328125 
Q 53.90625 49.265625 50.4375 45.09375 
Q 46.96875 40.921875 40.578125 39.3125 
z
" id="DejaVuSans-33"/>
      </defs>
      <g transform="translate(7.2 151.501171)scale(0.1 -0.1)">
       <use xlink:href="#DejaVuSans-30"/>
       <use x="63.623047" xlink:href="#DejaVuSans-2e"/>
       <use x="95.410156" xlink:href="#DejaVuSans-33"/>
      </g>
     </g>
    </g>
    <g id="ytick_5">
     <g id="line2d_11">
      <g>
       <use style="stroke:#000000;stroke-width:0.8;" x="30.103125" xlink:href="#m094eed22ed" y="108.53596"/>
      </g>
     </g>
     <g id="text_11">
      <!-- 0.4 -->
      <g transform="translate(7.2 112.335178)scale(0.1 -0.1)">
       <use xlink:href="#DejaVuSans-30"/>
       <use x="63.623047" xlink:href="#DejaVuSans-2e"/>
       <use x="95.410156" xlink:href="#DejaVuSans-34"/>
      </g>
     </g>
    </g>
    <g id="ytick_6">
     <g id="line2d_12">
      <g>
       <use style="stroke:#000000;stroke-width:0.8;" x="30.103125" xlink:href="#m094eed22ed" y="69.369967"/>
      </g>
     </g>
     <g id="text_12">
      <!-- 0.5 -->
      <defs>
       <path d="M 10.796875 72.90625 
L 49.515625 72.90625 
L 49.515625 64.59375 
L 19.828125 64.59375 
L 19.828125 46.734375 
Q 21.96875 47.46875 24.109375 47.828125 
Q 26.265625 48.1875 28.421875 48.1875 
Q 40.625 48.1875 47.75 41.5 
Q 54.890625 34.8125 54.890625 23.390625 
Q 54.890625 11.625 47.5625 5.09375 
Q 40.234375 -1.421875 26.90625 -1.421875 
Q 22.3125 -1.421875 17.546875 -0.640625 
Q 12.796875 0.140625 7.71875 1.703125 
L 7.71875 11.625 
Q 12.109375 9.234375 16.796875 8.0625 
Q 21.484375 6.890625 26.703125 6.890625 
Q 35.15625 6.890625 40.078125 11.328125 
Q 45.015625 15.765625 45.015625 23.390625 
Q 45.015625 31 40.078125 35.4375 
Q 35.15625 39.890625 26.703125 39.890625 
Q 22.75 39.890625 18.8125 39.015625 
Q 14.890625 38.140625 10.796875 36.28125 
z
" id="DejaVuSans-35"/>
      </defs>
      <g transform="translate(7.2 73.169186)scale(0.1 -0.1)">
       <use xlink:href="#DejaVuSans-30"/>
       <use x="63.623047" xlink:href="#DejaVuSans-2e"/>
       <use x="95.410156" xlink:href="#DejaVuSans-35"/>
      </g>
     </g>
    </g>
    <g id="ytick_7">
     <g id="line2d_13">
      <g>
       <use style="stroke:#000000;stroke-width:0.8;" x="30.103125" xlink:href="#m094eed22ed" y="30.203975"/>
      </g>
     </g>
     <g id="text_13">
      <!-- 0.6 -->
      <g transform="translate(7.2 34.003194)scale(0.1 -0.1)">
       <use xlink:href="#DejaVuSans-30"/>
       <use x="63.623047" xlink:href="#DejaVuSans-2e"/>
       <use x="95.410156" xlink:href="#DejaVuSans-36"/>
      </g>
     </g>
    </g>
   </g>
   <g id="line2d_14">
    <path clip-path="url(#p432a7a3008)" d="M 46.335852 248.714764 
L 46.666458 237.090521 
L 46.997063 241.271815 
L 47.327669 241.006869 
L 47.658274 242.376323 
L 47.988879 235.309324 
L 48.319485 236.644838 
L 48.65009 241.629694 
L 48.980696 238.461271 
L 49.311301 229.267607 
L 49.641907 254.532198 
L 49.972512 236.168066 
L 50.303118 236.598642 
L 50.633723 236.722853 
L 50.964328 238.179761 
L 51.294934 247.182932 
L 51.625539 260.916754 
L 51.956145 249.703064 
L 52.28675 249.952727 
L 52.617356 243.853924 
L 53.278567 252.954079 
L 53.609172 255.285581 
L 54.270383 243.48397 
L 54.600988 255.247997 
L 54.931594 240.204022 
L 55.262199 249.567074 
L 55.592805 245.261056 
L 55.92341 258.374812 
L 56.254016 257.932639 
L 56.584621 233.570365 
L 56.915226 256.47646 
L 57.245832 247.27051 
L 57.576437 254.524869 
L 57.907043 245.600444 
L 58.237648 251.389771 
L 58.568254 251.823191 
L 58.898859 256.615637 
L 59.229465 250.951981 
L 59.56007 238.622478 
L 59.890675 252.835239 
L 60.221281 244.723966 
L 60.551886 250.54393 
L 60.882492 241.648244 
L 61.213097 255.650738 
L 61.543703 237.719751 
L 61.874308 244.356786 
L 62.204914 248.399239 
L 62.535519 239.353827 
L 62.866124 237.321923 
L 63.19673 253.312669 
L 63.527335 246.26012 
L 63.857941 259.24376 
L 64.188546 257.053799 
L 64.519152 259.429573 
L 64.849757 250.835082 
L 65.180363 248.866563 
L 65.510968 249.751777 
L 65.841573 244.435673 
L 66.172179 256.914439 
L 66.502784 220.8474 
L 67.494601 261.800732 
L 67.825206 249.614011 
L 68.155812 243.961218 
L 68.486417 255.604859 
L 68.817022 243.58466 
L 69.147628 252.30234 
L 69.478233 249.889368 
L 69.808839 234.631914 
L 70.139444 236.6197 
L 70.47005 234.258668 
L 70.800655 246.901737 
L 71.131261 235.619049 
L 71.461866 238.447675 
L 71.792471 249.909786 
L 72.123077 250.049441 
L 72.453682 259.278352 
L 72.784288 256.129173 
L 73.114893 255.657824 
L 73.776104 236.186532 
L 74.10671 226.495692 
L 74.437315 261.629182 
L 75.098526 235.727466 
L 75.429131 254.239557 
L 75.759737 243.446218 
L 76.090342 237.986939 
L 76.420948 262.655454 
L 76.751553 242.116868 
L 77.412764 257.656407 
L 77.743369 243.46733 
L 78.073975 238.578909 
L 78.40458 247.167258 
L 78.735186 247.09812 
L 79.065791 243.656689 
L 79.396397 252.815681 
L 79.727002 233.426142 
L 80.057608 262.743128 
L 80.388213 257.926482 
L 80.718818 260.997308 
L 81.380029 237.378513 
L 81.710635 245.617583 
L 82.04124 260.455636 
L 82.371846 241.755252 
L 82.702451 243.381146 
L 83.033056 243.005526 
L 83.363662 233.605187 
L 83.694267 254.718351 
L 84.024873 250.211009 
L 84.355478 250.531306 
L 84.686084 254.29577 
L 85.016689 245.309252 
L 85.347295 246.217772 
L 86.008505 259.593768 
L 86.339111 260.308269 
L 86.669716 254.001267 
L 87.000322 256.915017 
L 87.330927 233.512996 
L 87.661533 246.064886 
L 87.992138 238.230859 
L 88.322744 261.225144 
L 88.653349 229.643993 
L 88.983954 249.921081 
L 89.31456 254.764522 
L 89.645165 249.195219 
L 89.975771 259.264111 
L 90.306376 245.543744 
L 90.636982 244.257064 
L 90.967587 253.669951 
L 91.298193 259.378635 
L 91.628798 254.517343 
L 91.959403 251.614591 
L 92.290009 253.390656 
L 92.620614 251.741268 
L 92.95122 253.17223 
L 93.281825 251.417167 
L 93.612431 260.970099 
L 93.943036 251.774938 
L 94.273642 246.161309 
L 94.604247 246.856133 
L 94.934852 246.338493 
L 95.265458 242.100591 
L 95.596063 251.248747 
L 95.926669 236.1892 
L 96.257274 252.148096 
L 96.58788 231.648231 
L 96.918485 252.626838 
L 97.249091 246.768183 
L 97.579696 245.167041 
L 97.910301 251.141202 
L 98.240907 237.242233 
L 98.571512 249.852702 
L 98.902118 235.524726 
L 99.232723 249.476385 
L 99.563329 240.285327 
L 99.893934 242.994962 
L 100.22454 238.187893 
L 100.555145 248.297495 
L 101.216356 238.448505 
L 101.546961 250.599559 
L 101.877567 232.471792 
L 102.208172 246.100924 
L 102.538778 248.582767 
L 102.869383 235.829776 
L 103.199989 240.804595 
L 103.530594 258.318694 
L 103.861199 239.988057 
L 104.52241 256.741525 
L 104.853016 228.879754 
L 105.183621 245.637261 
L 105.514227 227.054161 
L 105.844832 235.117626 
L 106.175438 250.969577 
L 107.167254 229.918221 
L 107.497859 236.971549 
L 107.828465 232.37246 
L 108.15907 222.391569 
L 108.489676 252.13274 
L 108.820281 237.918186 
L 109.150887 244.419694 
L 109.481492 220.311721 
L 109.812097 229.540469 
L 110.142703 243.408315 
L 110.473308 240.972655 
L 110.803914 203.463486 
L 111.134519 227.432698 
L 111.465125 237.406944 
L 112.126336 246.340364 
L 112.456941 251.385366 
L 112.787546 252.669942 
L 113.118152 242.843415 
L 113.448757 243.012971 
L 113.779363 244.481676 
L 114.109968 249.278599 
L 114.440574 235.659168 
L 114.771179 245.530963 
L 115.101785 241.914311 
L 115.43239 254.168194 
L 115.762995 240.763842 
L 116.093601 257.761567 
L 116.424206 249.117076 
L 116.754812 250.576509 
L 117.085417 242.546007 
L 117.416023 226.027356 
L 117.746628 247.222673 
L 118.077233 256.183301 
L 118.407839 243.837174 
L 118.738444 246.508149 
L 119.06905 252.593943 
L 119.399655 245.497866 
L 119.730261 242.819321 
L 120.060866 258.792959 
L 120.391472 250.416103 
L 120.722077 246.820634 
L 121.052682 252.945105 
L 121.383288 250.134793 
L 121.713893 258.897888 
L 122.044499 238.010576 
L 122.375104 242.886364 
L 122.70571 244.599057 
L 123.036315 263.166763 
L 123.366921 248.608108 
L 124.028131 232.01246 
L 124.689342 249.42646 
L 125.019948 253.412663 
L 125.350553 244.969533 
L 125.681159 250.20928 
L 126.011764 247.174351 
L 126.34237 260.88662 
L 126.672975 239.773355 
L 127.00358 257.002436 
L 127.334186 253.427812 
L 127.664791 242.861317 
L 127.995397 244.348107 
L 128.326002 256.131686 
L 128.656608 253.423427 
L 128.987213 260.822208 
L 129.317819 247.835371 
L 129.648424 256.67854 
L 129.979029 248.590177 
L 130.309635 237.041721 
L 130.64024 251.592253 
L 130.970846 244.299524 
L 131.301451 246.765281 
L 131.632057 241.727029 
L 131.962662 262.698197 
L 132.293268 259.544518 
L 132.623873 252.189042 
L 133.285084 229.587706 
L 133.946295 259.477343 
L 134.2769 243.194129 
L 134.607506 236.896694 
L 134.938111 258.953998 
L 135.268717 243.527764 
L 135.599322 252.370417 
L 135.929927 250.355147 
L 136.260533 252.678724 
L 136.591138 236.448271 
L 136.921744 255.225481 
L 137.252349 244.173559 
L 137.582955 246.341013 
L 137.91356 256.383045 
L 138.244166 240.392006 
L 138.574771 256.951314 
L 138.905376 251.852834 
L 139.235982 261.560497 
L 139.566587 259.225293 
L 139.897193 234.125821 
L 140.227798 260.625219 
L 140.558404 235.400515 
L 140.889009 247.624893 
L 141.219615 243.108855 
L 141.55022 242.837777 
L 142.211431 254.293057 
L 142.542036 245.66822 
L 142.872642 256.526438 
L 143.203247 258.374569 
L 143.533853 250.587444 
L 143.864458 235.751995 
L 144.195064 260.372457 
L 144.525669 239.857445 
L 144.856274 242.56217 
L 145.18688 244.180676 
L 145.517485 258.666394 
L 145.848091 263.990346 
L 146.509302 238.529876 
L 146.839907 263.500265 
L 147.170513 259.904163 
L 147.501118 252.990764 
L 147.831723 241.743193 
L 148.162329 239.042369 
L 148.492934 244.539409 
L 148.82354 237.748666 
L 149.154145 241.560222 
L 149.484751 259.660224 
L 149.815356 249.540161 
L 150.145962 243.8444 
L 150.476567 263.975219 
L 150.807172 241.490352 
L 151.137778 258.419106 
L 151.468383 243.968064 
L 151.798989 247.435804 
L 152.129594 234.33488 
L 152.4602 261.806247 
L 153.121411 241.120721 
L 153.452016 256.349285 
L 153.782621 249.866848 
L 154.113227 258.619007 
L 154.443832 241.152946 
L 154.774438 244.065686 
L 155.105043 245.397317 
L 155.435649 237.504303 
L 155.766254 243.212261 
L 156.096859 242.955282 
L 156.427465 247.990687 
L 156.75807 242.275194 
L 157.088676 254.313423 
L 157.419281 255.559181 
L 157.749887 233.94951 
L 158.080492 238.479722 
L 158.411098 249.935264 
L 158.741703 245.783511 
L 159.072308 248.720884 
L 159.402914 245.128978 
L 159.733519 248.666729 
L 160.064125 261.587709 
L 160.39473 261.968587 
L 160.725336 262.681024 
L 161.055941 245.736158 
L 161.386547 246.64168 
L 161.717152 243.112687 
L 162.047757 243.143304 
L 162.378363 246.676516 
L 162.708968 260.862608 
L 163.039574 244.413753 
L 163.370179 241.535444 
L 163.700785 242.41827 
L 164.361996 257.803161 
L 164.692601 241.372988 
L 165.023206 254.533624 
L 165.353812 246.833577 
L 165.684417 249.713694 
L 166.015023 258.581051 
L 166.345628 246.810464 
L 166.676234 256.114005 
L 167.337445 248.898725 
L 167.66805 248.933301 
L 167.998655 259.178793 
L 168.329261 243.878257 
L 168.659866 250.1071 
L 168.990472 233.907678 
L 169.321077 254.761875 
L 169.651683 256.863632 
L 169.982288 248.310701 
L 170.312894 249.883812 
L 170.643499 247.394768 
L 170.974104 254.083913 
L 171.30471 255.343836 
L 171.635315 245.622709 
L 171.965921 257.223893 
L 172.296526 235.043646 
L 172.627132 259.491191 
L 172.957737 257.029677 
L 173.288343 236.307773 
L 173.618948 252.480214 
L 173.949553 256.801122 
L 174.280159 253.340929 
L 174.610764 260.609068 
L 174.94137 238.711806 
L 175.271975 232.502551 
L 175.602581 231.014885 
L 175.933186 256.84054 
L 176.263792 240.867064 
L 176.594397 235.277748 
L 176.925002 241.682981 
L 177.255608 243.402477 
L 177.586213 260.012618 
L 177.916819 245.442023 
L 178.247424 254.971845 
L 178.57803 244.089685 
L 178.908635 243.594625 
L 179.239241 247.813396 
L 179.569846 246.736502 
L 179.900451 255.800616 
L 180.231057 246.191131 
L 180.561662 244.564198 
L 180.892268 260.972827 
L 181.222873 256.836556 
L 181.553479 248.307974 
L 181.884084 249.02131 
L 182.21469 237.773146 
L 182.545295 257.599872 
L 182.8759 241.095067 
L 183.206506 245.914022 
L 183.537111 244.235048 
L 183.867717 259.033629 
L 184.198322 241.190128 
L 184.528928 240.563452 
L 184.859533 234.478514 
L 185.851349 255.528011 
L 186.181955 254.092836 
L 186.51256 253.264729 
L 186.843166 236.668159 
L 187.504377 256.330801 
L 187.834982 242.432979 
L 188.165588 257.24311 
L 188.496193 242.83748 
L 188.826798 242.487541 
L 189.488009 258.717005 
L 189.818615 259.251152 
L 190.14922 255.874941 
L 190.479826 257.572257 
L 190.810431 247.05851 
L 191.141036 256.549608 
L 191.471642 238.543997 
L 191.802247 260.26024 
L 192.132853 259.391949 
L 192.463458 255.171364 
L 192.794064 257.054687 
L 193.124669 252.579369 
L 193.455275 243.993342 
L 193.78588 241.566991 
L 194.116485 254.906413 
L 194.447091 257.025612 
L 194.777696 246.693136 
L 195.108302 241.630186 
L 195.438907 254.230165 
L 195.769513 239.729461 
L 196.100118 248.142889 
L 196.430724 246.730029 
L 196.761329 252.823781 
L 197.091934 238.704694 
L 197.42254 253.697311 
L 197.753145 251.431682 
L 198.083751 256.107182 
L 198.414356 231.943308 
L 198.744962 256.334975 
L 199.075567 253.691365 
L 199.406173 240.296585 
L 199.736778 256.475696 
L 200.067383 255.59386 
L 200.397989 248.432823 
L 200.728594 245.225613 
L 201.0592 250.41452 
L 201.389805 234.894996 
L 201.720411 249.858897 
L 202.051016 245.673793 
L 202.381622 256.883076 
L 202.712227 230.779709 
L 203.042832 252.844828 
L 203.373438 239.305741 
L 203.704043 242.508484 
L 204.034649 253.575183 
L 204.69586 227.694045 
L 205.026465 239.041033 
L 205.357071 241.933212 
L 205.687676 240.935228 
L 206.018281 251.561843 
L 206.348887 247.45061 
L 206.679492 231.961344 
L 207.010098 244.965542 
L 207.340703 230.595203 
L 207.671309 249.059345 
L 208.001914 231.89805 
L 208.33252 256.319759 
L 208.663125 230.988719 
L 208.99373 228.144747 
L 209.324336 205.720213 
L 209.985547 251.123755 
L 210.316152 229.535431 
L 210.646758 240.433981 
L 210.977363 243.736879 
L 211.307969 226.534216 
L 211.638574 257.768472 
L 211.969179 258.837776 
L 212.299785 245.988107 
L 212.63039 239.121977 
L 212.960996 261.651351 
L 213.291601 250.584013 
L 213.622207 246.916143 
L 213.952812 246.126378 
L 214.614023 259.217792 
L 214.944628 240.93327 
L 215.605839 262.574965 
L 215.936445 243.909383 
L 216.26705 255.688774 
L 216.597656 256.878354 
L 216.928261 235.538146 
L 217.258867 223.466799 
L 217.589472 248.697611 
L 217.920077 249.782373 
L 218.250683 234.120716 
L 218.581288 235.839554 
L 218.911894 245.544618 
L 219.242499 241.774175 
L 219.573105 256.529378 
L 219.90371 244.136837 
L 220.234316 238.233365 
L 220.564921 249.904886 
L 220.895526 256.093668 
L 221.226132 240.929461 
L 221.556737 262.688173 
L 221.887343 250.894746 
L 222.217948 250.012874 
L 222.548554 240.758398 
L 222.879159 256.705466 
L 223.209765 237.128973 
L 223.54037 248.166741 
L 223.870975 239.532826 
L 224.201581 253.769571 
L 224.532186 246.026453 
L 224.862792 257.54619 
L 225.193397 247.502865 
L 225.524003 260.91382 
L 225.854608 226.008925 
L 226.185214 259.388964 
L 226.515819 250.928943 
L 226.846424 252.725282 
L 227.17703 258.544982 
L 227.507635 260.937668 
L 227.838241 249.222216 
L 228.168846 253.646104 
L 228.499452 255.083441 
L 228.830057 249.734003 
L 229.160662 248.82243 
L 229.491268 261.652781 
L 229.821873 244.268498 
L 230.152479 250.332645 
L 230.483084 263.329647 
L 230.81369 259.086298 
L 231.474901 246.568943 
L 231.805506 255.237788 
L 232.136111 253.174619 
L 232.466717 245.695851 
L 232.797322 257.493473 
L 233.458533 249.746465 
L 233.789139 251.197323 
L 234.119744 249.48906 
L 234.45035 242.694033 
L 234.780955 261.28285 
L 235.11156 259.36846 
L 235.442166 229.606534 
L 235.772771 253.303435 
L 236.103377 255.703771 
L 236.433982 251.984352 
L 236.764588 249.83841 
L 237.095193 258.20739 
L 237.425799 240.733827 
L 237.756404 242.877698 
L 238.087009 233.857634 
L 238.417615 237.789441 
L 239.078826 263.308078 
L 239.740037 255.198779 
L 240.070642 249.789227 
L 240.401248 237.967751 
L 240.731853 262.396676 
L 241.062458 255.453513 
L 241.393064 240.796567 
L 242.054275 248.733699 
L 242.38488 246.088936 
L 242.715486 239.080407 
L 243.046091 248.332998 
L 243.376697 250.4882 
L 243.707302 256.789052 
L 244.037907 258.892801 
L 244.368513 256.88162 
L 244.699118 218.893581 
L 245.029724 251.132707 
L 245.360329 245.913891 
L 245.690935 244.754653 
L 246.02154 239.266828 
L 246.352146 259.886133 
L 246.682751 243.272593 
L 247.013356 246.766114 
L 247.343962 209.736219 
L 247.674567 252.768712 
L 248.005173 261.551822 
L 248.335778 260.394997 
L 248.666384 229.679044 
L 248.996989 219.707722 
L 249.327595 234.070177 
L 249.6582 240.229876 
L 249.988805 244.035262 
L 250.319411 233.902643 
L 250.650016 252.330563 
L 250.980622 230.408103 
L 251.311227 231.235859 
L 251.641833 232.712066 
L 251.972438 254.467503 
L 252.303044 258.872852 
L 252.633649 251.887789 
L 252.964254 221.057419 
L 253.29486 256.879886 
L 253.625465 234.173323 
L 253.956071 236.013512 
L 254.286676 242.117977 
L 254.617282 231.195237 
L 254.947887 227.193566 
L 255.278493 240.380749 
L 255.609098 246.897982 
L 255.939703 231.44592 
L 256.270309 244.407517 
L 256.600914 235.087906 
L 256.93152 258.490028 
L 257.262125 261.418994 
L 257.592731 245.321968 
L 257.923336 242.981813 
L 258.253942 22.796 
L 258.584547 243.625799 
L 258.915152 230.313214 
L 259.576363 255.38103 
L 259.906969 244.905596 
L 260.237574 256.447448 
L 260.56818 249.426271 
L 260.898785 259.375201 
L 261.229391 243.814194 
L 261.559996 241.40565 
L 261.890601 216.093625 
L 262.221207 247.395176 
L 262.551812 255.203239 
L 262.882418 246.816606 
L 263.213023 257.822309 
L 263.543629 240.053485 
L 263.874234 255.486255 
L 264.204839 247.989572 
L 264.535445 256.465229 
L 264.86605 252.32571 
L 265.196656 205.723949 
L 265.527261 220.620403 
L 265.857867 247.166636 
L 266.188472 256.036605 
L 266.519078 244.957093 
L 266.849683 247.709223 
L 267.180288 234.411396 
L 267.510894 248.593979 
L 267.841499 245.352052 
L 268.172105 256.935292 
L 268.50271 241.22654 
L 268.833316 246.039343 
L 269.163921 238.291985 
L 269.494527 255.683693 
L 269.825132 244.668932 
L 270.155737 262.105163 
L 270.816948 244.445215 
L 271.147554 237.101075 
L 271.808765 250.637958 
L 272.13937 242.835413 
L 272.469976 239.3095 
L 273.131186 260.090045 
L 273.461792 233.651877 
L 273.792397 261.988071 
L 274.123003 230.470184 
L 274.453608 257.958785 
L 274.784214 243.418579 
L 275.114819 258.430875 
L 275.445425 232.574047 
L 275.77603 247.541863 
L 276.106635 240.832297 
L 276.437241 236.560097 
L 276.767846 261.726012 
L 277.098452 239.289884 
L 277.429057 250.121276 
L 277.759663 249.108082 
L 278.090268 243.425064 
L 278.420874 250.439446 
L 278.751479 250.888486 
L 279.082084 245.122097 
L 279.41269 233.920731 
L 279.743295 251.677678 
L 280.073901 241.641093 
L 280.404506 257.709038 
L 280.735112 242.088259 
L 281.065717 242.296173 
L 281.396323 249.500038 
L 281.726928 250.482992 
L 282.057533 238.247631 
L 282.718744 258.943426 
L 283.04935 240.816487 
L 283.379955 255.208828 
L 283.710561 239.697119 
L 284.041166 261.58892 
L 284.371772 262.983753 
L 285.032982 251.322886 
L 285.363588 242.930287 
L 285.694193 241.565578 
L 286.024799 249.14369 
L 286.355404 253.360407 
L 286.68601 246.647087 
L 287.016615 248.498221 
L 287.347221 258.893849 
L 287.677826 239.42509 
L 288.008431 245.21725 
L 288.339037 247.533261 
L 289.000248 237.765588 
L 289.330853 244.18202 
L 289.661459 261.166912 
L 289.992064 260.785377 
L 290.653275 229.69772 
L 290.98388 247.21598 
L 291.314486 247.195246 
L 291.645091 242.187047 
L 291.975697 257.473515 
L 292.306302 259.940576 
L 292.636908 244.349808 
L 292.967513 239.924779 
L 293.298119 243.394905 
L 293.628724 235.360823 
L 293.959329 252.427211 
L 294.289935 258.139357 
L 294.62054 261.35194 
L 294.951146 243.370613 
L 295.281751 254.111152 
L 295.612357 257.555706 
L 295.942962 255.613536 
L 296.273568 239.332527 
L 296.604173 238.410269 
L 296.934778 232.762654 
L 297.265384 230.199094 
L 297.595989 256.375053 
L 297.926595 259.578019 
L 298.2572 243.243334 
L 298.587806 258.245975 
L 298.918411 242.792207 
L 299.249017 238.691402 
L 299.579622 259.209442 
L 299.910227 249.467302 
L 300.240833 263.111375 
L 300.571438 247.602118 
L 300.902044 245.356328 
L 301.232649 259.111676 
L 301.563255 258.830112 
L 301.89386 260.937363 
L 302.224465 261.663652 
L 302.555071 259.876598 
L 302.885676 255.625732 
L 303.216282 245.409614 
L 303.546887 243.608807 
L 303.877493 245.148598 
L 304.208098 244.116442 
L 304.538704 263.128408 
L 304.869309 246.201132 
L 305.199914 258.954044 
L 305.53052 244.772284 
L 305.861125 243.704582 
L 306.852942 248.743567 
L 307.183547 263.030128 
L 307.514153 247.072854 
L 307.844758 263.425343 
L 308.175363 245.210554 
L 308.505969 260.032803 
L 308.836574 243.525492 
L 309.16718 260.572215 
L 309.497785 243.301245 
L 309.828391 240.487026 
L 310.158996 264.5327 
L 310.489602 244.602916 
L 310.820207 245.133539 
L 311.150812 263.548394 
L 311.481418 254.056673 
L 311.812023 248.241287 
L 312.142629 244.776368 
L 312.473234 264.309287 
L 312.80384 245.13835 
L 313.134445 245.196157 
L 313.465051 264.716 
L 313.795656 247.210813 
L 314.126261 243.517017 
L 314.456867 242.23481 
L 314.787472 262.925581 
L 315.118078 262.784893 
L 315.448683 246.514936 
L 315.779289 256.945073 
L 316.109894 249.945257 
L 316.4405 261.127015 
L 316.771105 244.756464 
L 317.10171 262.561502 
L 317.432316 263.340276 
L 317.762921 245.000387 
L 318.093527 264.057385 
L 318.424132 245.640544 
L 318.754738 246.085007 
L 319.085343 243.996818 
L 319.415949 261.669413 
L 319.746554 242.184066 
L 320.077159 245.4464 
L 320.407765 242.615521 
L 320.73837 244.014657 
L 321.068976 244.347372 
L 321.399581 254.073852 
L 321.730187 240.741096 
L 322.060792 244.220618 
L 322.391398 262.919347 
L 322.722003 260.583203 
L 323.052608 242.382945 
L 323.383214 261.500395 
L 323.713819 264.094451 
L 324.044425 242.096006 
L 324.37503 243.986444 
L 324.705636 261.401686 
L 325.036241 245.677516 
L 325.366847 242.399161 
L 325.697452 242.617973 
L 326.028057 262.248548 
L 326.358663 241.44589 
L 326.689268 243.773685 
L 327.019874 261.749538 
L 327.350479 243.297351 
L 327.681085 244.045583 
L 328.01169 245.106744 
L 328.342296 257.319794 
L 328.672901 259.568444 
L 329.003506 242.065507 
L 329.334112 244.551704 
L 329.664717 240.833824 
L 329.995323 245.159542 
L 330.325928 264.074313 
L 330.656534 246.886612 
L 330.987139 263.588389 
L 331.317745 244.686875 
L 331.64835 244.550365 
L 331.978955 244.896999 
L 332.309561 242.47002 
L 332.640166 263.135083 
L 332.970772 245.138807 
L 333.301377 245.627936 
L 333.631983 262.572347 
L 333.962588 262.944092 
L 334.293194 261.190806 
L 334.623799 243.15151 
L 334.954404 244.969494 
L 335.28501 243.349834 
L 335.615615 263.608875 
L 335.946221 243.234839 
L 336.276826 246.627783 
L 336.607432 244.289077 
L 336.938037 246.03096 
L 337.268642 263.509705 
L 337.599248 244.977868 
L 337.929853 262.877925 
L 338.260459 244.539139 
L 338.591064 262.421124 
L 338.92167 245.085342 
L 339.252275 244.086842 
L 339.582881 244.654872 
L 339.913486 263.95937 
L 340.574697 261.201604 
L 340.905302 244.492201 
L 341.235908 263.552508 
L 341.566513 245.0629 
L 341.897119 244.31602 
L 342.227724 263.258658 
L 342.55833 241.943702 
L 342.888935 244.170173 
L 343.21954 243.155239 
L 343.550146 245.098862 
L 343.880751 246.060037 
L 344.211357 245.623085 
L 344.541962 246.011874 
L 344.872568 244.68315 
L 345.203173 244.670028 
L 345.533779 263.660768 
L 345.864384 242.622534 
L 346.194989 262.018029 
L 346.525595 258.053694 
L 346.8562 264.170537 
L 347.186806 245.439417 
L 347.517411 245.068012 
L 347.848017 245.25868 
L 348.178622 243.90686 
L 348.509228 244.794353 
L 348.839833 244.204722 
L 349.170438 263.200722 
L 349.501044 243.863043 
L 349.831649 263.992977 
L 350.162255 242.299145 
L 350.49286 246.289327 
L 350.823466 243.956274 
L 351.154071 264.245953 
L 351.484677 262.900429 
L 351.815282 244.187358 
L 352.145887 243.278627 
L 352.476493 260.090436 
L 352.807098 246.359641 
L 353.137704 245.334356 
L 353.468309 245.341566 
L 353.798915 246.120591 
L 354.12952 262.460678 
L 354.460126 244.603444 
L 354.790731 246.090773 
L 355.121336 263.781843 
L 355.451942 263.521995 
L 355.782547 245.535804 
L 356.113153 245.121371 
L 356.443758 264.533503 
L 356.774364 263.304617 
L 357.104969 242.652559 
L 357.435575 243.8161 
L 357.76618 264.058449 
L 358.096785 242.760772 
L 358.427391 264.434922 
L 358.757996 263.077693 
L 359.088602 263.366221 
L 359.419207 245.686688 
L 359.749813 246.323161 
L 360.080418 243.895309 
L 360.411024 244.684381 
L 360.741629 244.188972 
L 361.072234 245.512395 
L 361.40284 264.142774 
L 361.733445 263.473743 
L 362.064051 242.048409 
L 362.394656 262.541268 
L 362.725262 245.496456 
L 363.055867 264.05495 
L 363.386473 245.023984 
L 363.717078 245.391623 
L 364.047683 244.023394 
L 364.378289 263.252357 
L 364.708894 244.714152 
L 365.0395 244.423161 
L 365.370105 245.369096 
L 365.700711 262.185087 
L 366.031316 261.179463 
L 366.361922 243.742851 
L 366.692527 261.762205 
L 367.023132 242.944463 
L 367.353738 245.610088 
L 367.684343 258.259291 
L 368.014949 262.971491 
L 368.345554 238.75667 
L 368.67616 251.942889 
L 369.006765 197.426546 
L 369.337371 261.851807 
L 369.667976 241.758579 
L 369.998581 245.979768 
L 370.329187 241.233916 
L 370.659792 244.523725 
L 370.990398 263.299264 
L 370.990398 263.299264 
" style="fill:none;stroke:#1f77b4;stroke-linecap:square;stroke-width:1.5;"/>
   </g>
   <g id="patch_3">
    <path d="M 30.103125 276.812 
L 30.103125 10.7 
" style="fill:none;stroke:#000000;stroke-linecap:square;stroke-linejoin:miter;stroke-width:0.8;"/>
   </g>
   <g id="patch_4">
    <path d="M 387.223125 276.812 
L 387.223125 10.7 
" style="fill:none;stroke:#000000;stroke-linecap:square;stroke-linejoin:miter;stroke-width:0.8;"/>
   </g>
   <g id="patch_5">
    <path d="M 30.103125 276.812 
L 387.223125 276.812 
" style="fill:none;stroke:#000000;stroke-linecap:square;stroke-linejoin:miter;stroke-width:0.8;"/>
   </g>
   <g id="patch_6">
    <path d="M 30.103125 10.7 
L 387.223125 10.7 
" style="fill:none;stroke:#000000;stroke-linecap:square;stroke-linejoin:miter;stroke-width:0.8;"/>
   </g>
  </g>
 </g>
 <defs>
  <clipPath id="p432a7a3008">
   <rect height="266.112" width="357.12" x="30.103125" y="10.7"/>
  </clipPath>
 </defs>
</svg>
