<?xml version="1.0" encoding="utf-8" standalone="no"?>
<!DOCTYPE svg PUBLIC "-//W3C//DTD SVG 1.1//EN"
  "http://www.w3.org/Graphics/SVG/1.1/DTD/svg11.dtd">
<!-- Created with matplotlib (http://matplotlib.org/) -->
<svg height="300.690125pt" version="1.1" viewBox="0 0 404.285625 300.690125" width="404.285625pt" xmlns="http://www.w3.org/2000/svg" xmlns:xlink="http://www.w3.org/1999/xlink">
 <defs>
  <style type="text/css">
*{stroke-linecap:butt;stroke-linejoin:round;}
  </style>
 </defs>
 <g id="figure_1">
  <g id="patch_1">
   <path d="M 0 300.690125 
L 404.285625 300.690125 
L 404.285625 0 
L 0 0 
z
" style="fill:#ffffff;"/>
  </g>
  <g id="axes_1">
   <g id="patch_2">
    <path d="M 36.465625 276.812 
L 393.585625 276.812 
L 393.585625 10.7 
L 36.465625 10.7 
z
" style="fill:#ffffff;"/>
   </g>
   <g id="matplotlib.axis_1">
    <g id="xtick_1">
     <g id="line2d_1">
      <defs>
       <path d="M 0 0 
L 0 3.5 
" id="me767441304" style="stroke:#000000;stroke-width:0.8;"/>
      </defs>
      <g>
       <use style="stroke:#000000;stroke-width:0.8;" x="52.698352" xlink:href="#me767441304" y="276.812"/>
      </g>
     </g>
     <g id="text_1">
      <!-- 0 -->
      <defs>
       <path d="M 31.78125 66.40625 
Q 24.171875 66.40625 20.328125 58.90625 
Q 16.5 51.421875 16.5 36.375 
Q 16.5 21.390625 20.328125 13.890625 
Q 24.171875 6.390625 31.78125 6.390625 
Q 39.453125 6.390625 43.28125 13.890625 
Q 47.125 21.390625 47.125 36.375 
Q 47.125 51.421875 43.28125 58.90625 
Q 39.453125 66.40625 31.78125 66.40625 
z
M 31.78125 74.21875 
Q 44.046875 74.21875 50.515625 64.515625 
Q 56.984375 54.828125 56.984375 36.375 
Q 56.984375 17.96875 50.515625 8.265625 
Q 44.046875 -1.421875 31.78125 -1.421875 
Q 19.53125 -1.421875 13.0625 8.265625 
Q 6.59375 17.96875 6.59375 36.375 
Q 6.59375 54.828125 13.0625 64.515625 
Q 19.53125 74.21875 31.78125 74.21875 
z
" id="DejaVuSans-30"/>
      </defs>
      <g transform="translate(49.517102 291.410437)scale(0.1 -0.1)">
       <use xlink:href="#DejaVuSans-30"/>
      </g>
     </g>
    </g>
    <g id="xtick_2">
     <g id="line2d_2">
      <g>
       <use style="stroke:#000000;stroke-width:0.8;" x="105.677227" xlink:href="#me767441304" y="276.812"/>
      </g>
     </g>
     <g id="text_2">
      <!-- 500 -->
      <defs>
       <path d="M 10.796875 72.90625 
L 49.515625 72.90625 
L 49.515625 64.59375 
L 19.828125 64.59375 
L 19.828125 46.734375 
Q 21.96875 47.46875 24.109375 47.828125 
Q 26.265625 48.1875 28.421875 48.1875 
Q 40.625 48.1875 47.75 41.5 
Q 54.890625 34.8125 54.890625 23.390625 
Q 54.890625 11.625 47.5625 5.09375 
Q 40.234375 -1.421875 26.90625 -1.421875 
Q 22.3125 -1.421875 17.546875 -0.640625 
Q 12.796875 0.140625 7.71875 1.703125 
L 7.71875 11.625 
Q 12.109375 9.234375 16.796875 8.0625 
Q 21.484375 6.890625 26.703125 6.890625 
Q 35.15625 6.890625 40.078125 11.328125 
Q 45.015625 15.765625 45.015625 23.390625 
Q 45.015625 31 40.078125 35.4375 
Q 35.15625 39.890625 26.703125 39.890625 
Q 22.75 39.890625 18.8125 39.015625 
Q 14.890625 38.140625 10.796875 36.28125 
z
" id="DejaVuSans-35"/>
      </defs>
      <g transform="translate(96.133477 291.410437)scale(0.1 -0.1)">
       <use xlink:href="#DejaVuSans-35"/>
       <use x="63.623047" xlink:href="#DejaVuSans-30"/>
       <use x="127.246094" xlink:href="#DejaVuSans-30"/>
      </g>
     </g>
    </g>
    <g id="xtick_3">
     <g id="line2d_3">
      <g>
       <use style="stroke:#000000;stroke-width:0.8;" x="158.656102" xlink:href="#me767441304" y="276.812"/>
      </g>
     </g>
     <g id="text_3">
      <!-- 1000 -->
      <defs>
       <path d="M 12.40625 8.296875 
L 28.515625 8.296875 
L 28.515625 63.921875 
L 10.984375 60.40625 
L 10.984375 69.390625 
L 28.421875 72.90625 
L 38.28125 72.90625 
L 38.28125 8.296875 
L 54.390625 8.296875 
L 54.390625 0 
L 12.40625 0 
z
" id="DejaVuSans-31"/>
      </defs>
      <g transform="translate(145.931102 291.410437)scale(0.1 -0.1)">
       <use xlink:href="#DejaVuSans-31"/>
       <use x="63.623047" xlink:href="#DejaVuSans-30"/>
       <use x="127.246094" xlink:href="#DejaVuSans-30"/>
       <use x="190.869141" xlink:href="#DejaVuSans-30"/>
      </g>
     </g>
    </g>
    <g id="xtick_4">
     <g id="line2d_4">
      <g>
       <use style="stroke:#000000;stroke-width:0.8;" x="211.634977" xlink:href="#me767441304" y="276.812"/>
      </g>
     </g>
     <g id="text_4">
      <!-- 1500 -->
      <g transform="translate(198.909977 291.410437)scale(0.1 -0.1)">
       <use xlink:href="#DejaVuSans-31"/>
       <use x="63.623047" xlink:href="#DejaVuSans-35"/>
       <use x="127.246094" xlink:href="#DejaVuSans-30"/>
       <use x="190.869141" xlink:href="#DejaVuSans-30"/>
      </g>
     </g>
    </g>
    <g id="xtick_5">
     <g id="line2d_5">
      <g>
       <use style="stroke:#000000;stroke-width:0.8;" x="264.613852" xlink:href="#me767441304" y="276.812"/>
      </g>
     </g>
     <g id="text_5">
      <!-- 2000 -->
      <defs>
       <path d="M 19.1875 8.296875 
L 53.609375 8.296875 
L 53.609375 0 
L 7.328125 0 
L 7.328125 8.296875 
Q 12.9375 14.109375 22.625 23.890625 
Q 32.328125 33.6875 34.8125 36.53125 
Q 39.546875 41.84375 41.421875 45.53125 
Q 43.3125 49.21875 43.3125 52.78125 
Q 43.3125 58.59375 39.234375 62.25 
Q 35.15625 65.921875 28.609375 65.921875 
Q 23.96875 65.921875 18.8125 64.3125 
Q 13.671875 62.703125 7.8125 59.421875 
L 7.8125 69.390625 
Q 13.765625 71.78125 18.9375 73 
Q 24.125 74.21875 28.421875 74.21875 
Q 39.75 74.21875 46.484375 68.546875 
Q 53.21875 62.890625 53.21875 53.421875 
Q 53.21875 48.921875 51.53125 44.890625 
Q 49.859375 40.875 45.40625 35.40625 
Q 44.1875 33.984375 37.640625 27.21875 
Q 31.109375 20.453125 19.1875 8.296875 
z
" id="DejaVuSans-32"/>
      </defs>
      <g transform="translate(251.888852 291.410437)scale(0.1 -0.1)">
       <use xlink:href="#DejaVuSans-32"/>
       <use x="63.623047" xlink:href="#DejaVuSans-30"/>
       <use x="127.246094" xlink:href="#DejaVuSans-30"/>
       <use x="190.869141" xlink:href="#DejaVuSans-30"/>
      </g>
     </g>
    </g>
    <g id="xtick_6">
     <g id="line2d_6">
      <g>
       <use style="stroke:#000000;stroke-width:0.8;" x="317.592727" xlink:href="#me767441304" y="276.812"/>
      </g>
     </g>
     <g id="text_6">
      <!-- 2500 -->
      <g transform="translate(304.867727 291.410437)scale(0.1 -0.1)">
       <use xlink:href="#DejaVuSans-32"/>
       <use x="63.623047" xlink:href="#DejaVuSans-35"/>
       <use x="127.246094" xlink:href="#DejaVuSans-30"/>
       <use x="190.869141" xlink:href="#DejaVuSans-30"/>
      </g>
     </g>
    </g>
    <g id="xtick_7">
     <g id="line2d_7">
      <g>
       <use style="stroke:#000000;stroke-width:0.8;" x="370.571602" xlink:href="#me767441304" y="276.812"/>
      </g>
     </g>
     <g id="text_7">
      <!-- 3000 -->
      <defs>
       <path d="M 40.578125 39.3125 
Q 47.65625 37.796875 51.625 33 
Q 55.609375 28.21875 55.609375 21.1875 
Q 55.609375 10.40625 48.1875 4.484375 
Q 40.765625 -1.421875 27.09375 -1.421875 
Q 22.515625 -1.421875 17.65625 -0.515625 
Q 12.796875 0.390625 7.625 2.203125 
L 7.625 11.71875 
Q 11.71875 9.328125 16.59375 8.109375 
Q 21.484375 6.890625 26.8125 6.890625 
Q 36.078125 6.890625 40.9375 10.546875 
Q 45.796875 14.203125 45.796875 21.1875 
Q 45.796875 27.640625 41.28125 31.265625 
Q 36.765625 34.90625 28.71875 34.90625 
L 20.21875 34.90625 
L 20.21875 43.015625 
L 29.109375 43.015625 
Q 36.375 43.015625 40.234375 45.921875 
Q 44.09375 48.828125 44.09375 54.296875 
Q 44.09375 59.90625 40.109375 62.90625 
Q 36.140625 65.921875 28.71875 65.921875 
Q 24.65625 65.921875 20.015625 65.03125 
Q 15.375 64.15625 9.8125 62.3125 
L 9.8125 71.09375 
Q 15.4375 72.65625 20.34375 73.4375 
Q 25.25 74.21875 29.59375 74.21875 
Q 40.828125 74.21875 47.359375 69.109375 
Q 53.90625 64.015625 53.90625 55.328125 
Q 53.90625 49.265625 50.4375 45.09375 
Q 46.96875 40.921875 40.578125 39.3125 
z
" id="DejaVuSans-33"/>
      </defs>
      <g transform="translate(357.846602 291.410437)scale(0.1 -0.1)">
       <use xlink:href="#DejaVuSans-33"/>
       <use x="63.623047" xlink:href="#DejaVuSans-30"/>
       <use x="127.246094" xlink:href="#DejaVuSans-30"/>
       <use x="190.869141" xlink:href="#DejaVuSans-30"/>
      </g>
     </g>
    </g>
   </g>
   <g id="matplotlib.axis_2">
    <g id="ytick_1">
     <g id="line2d_8">
      <defs>
       <path d="M 0 0 
L -3.5 0 
" id="mfe7f242180" style="stroke:#000000;stroke-width:0.8;"/>
      </defs>
      <g>
       <use style="stroke:#000000;stroke-width:0.8;" x="36.465625" xlink:href="#mfe7f242180" y="264.798827"/>
      </g>
     </g>
     <g id="text_8">
      <!-- 0.00 -->
      <defs>
       <path d="M 10.6875 12.40625 
L 21 12.40625 
L 21 0 
L 10.6875 0 
z
" id="DejaVuSans-2e"/>
      </defs>
      <g transform="translate(7.2 268.598046)scale(0.1 -0.1)">
       <use xlink:href="#DejaVuSans-30"/>
       <use x="63.623047" xlink:href="#DejaVuSans-2e"/>
       <use x="95.410156" xlink:href="#DejaVuSans-30"/>
       <use x="159.033203" xlink:href="#DejaVuSans-30"/>
      </g>
     </g>
    </g>
    <g id="ytick_2">
     <g id="line2d_9">
      <g>
       <use style="stroke:#000000;stroke-width:0.8;" x="36.465625" xlink:href="#mfe7f242180" y="229.271234"/>
      </g>
     </g>
     <g id="text_9">
      <!-- 0.25 -->
      <g transform="translate(7.2 233.070453)scale(0.1 -0.1)">
       <use xlink:href="#DejaVuSans-30"/>
       <use x="63.623047" xlink:href="#DejaVuSans-2e"/>
       <use x="95.410156" xlink:href="#DejaVuSans-32"/>
       <use x="159.033203" xlink:href="#DejaVuSans-35"/>
      </g>
     </g>
    </g>
    <g id="ytick_3">
     <g id="line2d_10">
      <g>
       <use style="stroke:#000000;stroke-width:0.8;" x="36.465625" xlink:href="#mfe7f242180" y="193.743641"/>
      </g>
     </g>
     <g id="text_10">
      <!-- 0.50 -->
      <g transform="translate(7.2 197.54286)scale(0.1 -0.1)">
       <use xlink:href="#DejaVuSans-30"/>
       <use x="63.623047" xlink:href="#DejaVuSans-2e"/>
       <use x="95.410156" xlink:href="#DejaVuSans-35"/>
       <use x="159.033203" xlink:href="#DejaVuSans-30"/>
      </g>
     </g>
    </g>
    <g id="ytick_4">
     <g id="line2d_11">
      <g>
       <use style="stroke:#000000;stroke-width:0.8;" x="36.465625" xlink:href="#mfe7f242180" y="158.216048"/>
      </g>
     </g>
     <g id="text_11">
      <!-- 0.75 -->
      <defs>
       <path d="M 8.203125 72.90625 
L 55.078125 72.90625 
L 55.078125 68.703125 
L 28.609375 0 
L 18.3125 0 
L 43.21875 64.59375 
L 8.203125 64.59375 
z
" id="DejaVuSans-37"/>
      </defs>
      <g transform="translate(7.2 162.015267)scale(0.1 -0.1)">
       <use xlink:href="#DejaVuSans-30"/>
       <use x="63.623047" xlink:href="#DejaVuSans-2e"/>
       <use x="95.410156" xlink:href="#DejaVuSans-37"/>
       <use x="159.033203" xlink:href="#DejaVuSans-35"/>
      </g>
     </g>
    </g>
    <g id="ytick_5">
     <g id="line2d_12">
      <g>
       <use style="stroke:#000000;stroke-width:0.8;" x="36.465625" xlink:href="#mfe7f242180" y="122.688455"/>
      </g>
     </g>
     <g id="text_12">
      <!-- 1.00 -->
      <g transform="translate(7.2 126.487674)scale(0.1 -0.1)">
       <use xlink:href="#DejaVuSans-31"/>
       <use x="63.623047" xlink:href="#DejaVuSans-2e"/>
       <use x="95.410156" xlink:href="#DejaVuSans-30"/>
       <use x="159.033203" xlink:href="#DejaVuSans-30"/>
      </g>
     </g>
    </g>
    <g id="ytick_6">
     <g id="line2d_13">
      <g>
       <use style="stroke:#000000;stroke-width:0.8;" x="36.465625" xlink:href="#mfe7f242180" y="87.160862"/>
      </g>
     </g>
     <g id="text_13">
      <!-- 1.25 -->
      <g transform="translate(7.2 90.96008)scale(0.1 -0.1)">
       <use xlink:href="#DejaVuSans-31"/>
       <use x="63.623047" xlink:href="#DejaVuSans-2e"/>
       <use x="95.410156" xlink:href="#DejaVuSans-32"/>
       <use x="159.033203" xlink:href="#DejaVuSans-35"/>
      </g>
     </g>
    </g>
    <g id="ytick_7">
     <g id="line2d_14">
      <g>
       <use style="stroke:#000000;stroke-width:0.8;" x="36.465625" xlink:href="#mfe7f242180" y="51.633269"/>
      </g>
     </g>
     <g id="text_14">
      <!-- 1.50 -->
      <g transform="translate(7.2 55.432487)scale(0.1 -0.1)">
       <use xlink:href="#DejaVuSans-31"/>
       <use x="63.623047" xlink:href="#DejaVuSans-2e"/>
       <use x="95.410156" xlink:href="#DejaVuSans-35"/>
       <use x="159.033203" xlink:href="#DejaVuSans-30"/>
      </g>
     </g>
    </g>
    <g id="ytick_8">
     <g id="line2d_15">
      <g>
       <use style="stroke:#000000;stroke-width:0.8;" x="36.465625" xlink:href="#mfe7f242180" y="16.105676"/>
      </g>
     </g>
     <g id="text_15">
      <!-- 1.75 -->
      <g transform="translate(7.2 19.904894)scale(0.1 -0.1)">
       <use xlink:href="#DejaVuSans-31"/>
       <use x="63.623047" xlink:href="#DejaVuSans-2e"/>
       <use x="95.410156" xlink:href="#DejaVuSans-37"/>
       <use x="159.033203" xlink:href="#DejaVuSans-35"/>
      </g>
     </g>
    </g>
   </g>
   <g id="line2d_16">
    <path clip-path="url(#p8a018bdc80)" d="M 52.698352 202.206419 
L 52.80431 22.796 
L 52.910268 55.681496 
L 53.016226 236.432627 
L 53.122183 186.57165 
L 53.228141 261.969767 
L 53.334099 254.309411 
L 53.440057 262.535664 
L 53.546014 259.428282 
L 53.75793 264.160888 
L 53.863888 264.343518 
L 53.969845 260.972423 
L 54.075803 263.358458 
L 54.287719 261.811624 
L 54.393676 262.21221 
L 54.499634 263.272377 
L 54.605592 260.168796 
L 54.817507 264.355628 
L 54.923465 260.774197 
L 55.029423 262.98272 
L 55.135381 262.495334 
L 55.347296 264.002407 
L 55.453254 263.70752 
L 55.559212 262.83617 
L 55.665169 259.55908 
L 55.877085 263.494433 
L 55.983043 263.598524 
L 56.089 258.942763 
L 56.300916 263.880092 
L 56.512831 262.630262 
L 56.618789 262.52958 
L 56.830705 263.133109 
L 56.936662 263.073481 
L 57.04262 264.082716 
L 57.254536 263.435689 
L 57.572409 264.427139 
L 57.678367 264.304758 
L 57.784324 264.527808 
L 57.890282 264.29761 
L 57.99624 261.957577 
L 58.102198 263.442328 
L 58.208155 262.588224 
L 58.314113 264.344542 
L 58.420071 262.554525 
L 58.526029 262.621816 
L 58.737944 263.855696 
L 58.843902 264.087591 
L 58.94986 264.0457 
L 59.055817 263.668034 
L 59.161775 264.133242 
L 59.267733 263.234095 
L 59.373691 263.419854 
L 59.479648 262.670406 
L 59.691564 264.168015 
L 59.797522 264.346768 
L 59.903479 263.314355 
L 60.009437 263.938856 
L 60.115395 258.400741 
L 60.221353 264.324967 
L 60.32731 263.150133 
L 60.433268 258.667807 
L 60.539226 264.110655 
L 60.645184 260.334745 
L 60.857099 263.866903 
L 60.963057 263.565943 
L 61.069015 263.831403 
L 61.174972 261.479648 
L 61.386888 264.098487 
L 61.492846 261.738818 
L 61.598803 263.861603 
L 61.704761 263.634821 
L 61.810719 263.043616 
L 62.128592 263.911072 
L 62.23455 262.297323 
L 62.340508 262.326224 
L 62.552423 264.284548 
L 62.658381 262.980314 
L 62.764339 263.170671 
L 62.870296 262.97712 
L 62.976254 263.126363 
L 63.18817 264.527808 
L 63.294127 263.351935 
L 63.400085 264.395925 
L 63.612001 263.374016 
L 63.717958 263.275357 
L 63.929874 258.821551 
L 64.141789 263.83771 
L 64.247747 263.442051 
L 64.353705 260.297592 
L 64.459663 264.11926 
L 64.56562 263.365713 
L 64.671578 261.670235 
L 64.883494 262.027353 
L 64.989451 263.568386 
L 65.095409 261.679637 
L 65.201367 261.730928 
L 65.307325 263.092297 
L 65.413282 262.676508 
L 65.51924 261.175609 
L 65.731156 264.11926 
L 66.049029 262.302438 
L 66.154987 262.872211 
L 66.260944 260.213764 
L 66.366902 263.938618 
L 66.684775 263.06607 
L 66.790733 264.185728 
L 67.002648 263.299092 
L 67.108606 260.724452 
L 67.320522 264.343518 
L 67.426479 263.859999 
L 67.532437 261.15908 
L 67.638395 264.258857 
L 67.744353 263.957708 
L 67.85031 264.423657 
L 68.062226 263.404063 
L 68.168184 259.100397 
L 68.274141 264.506073 
L 68.486057 259.533239 
L 68.592015 263.164149 
L 68.697972 258.265391 
L 68.909888 264.435409 
L 69.015846 264.266695 
L 69.121803 259.209836 
L 69.333719 263.130175 
L 69.439677 262.246877 
L 69.75755 263.937744 
L 69.863508 263.165737 
L 69.969465 259.829441 
L 70.075423 260.635504 
L 70.287339 264.424435 
L 70.499254 262.903587 
L 70.605212 260.402545 
L 70.71117 263.81709 
L 70.817127 262.901875 
L 71.029043 263.987219 
L 71.135001 263.272192 
L 71.240958 263.391177 
L 71.346916 259.877622 
L 71.452874 263.020664 
L 71.558832 262.614866 
L 71.664789 260.132459 
L 71.876705 263.497237 
L 71.982663 259.989386 
L 72.194578 263.747355 
L 72.300536 263.497526 
L 72.618409 264.497103 
L 72.830325 260.005256 
L 72.936282 264.54286 
L 73.04224 261.949454 
L 73.148198 263.348589 
L 73.254156 260.318463 
L 73.466071 263.309882 
L 73.572029 263.262838 
L 73.677987 264.195676 
L 73.783944 263.669665 
L 73.889902 263.779323 
L 73.99586 263.08838 
L 74.101818 259.686798 
L 74.313733 264.282026 
L 74.419691 264.255013 
L 74.525649 263.910455 
L 74.631606 264.264257 
L 74.737564 263.358077 
L 74.94948 263.969448 
L 75.055437 263.861631 
L 75.267353 263.907567 
L 75.373311 263.728133 
L 75.479268 259.145029 
L 75.585226 264.362541 
L 75.797142 263.461008 
L 75.903099 263.869172 
L 76.009057 259.526675 
L 76.115015 263.449459 
L 76.220973 263.332201 
L 76.32693 264.038882 
L 76.432888 263.541903 
L 76.538846 260.049125 
L 76.750761 263.206176 
L 76.856719 264.568718 
L 76.962677 258.948293 
L 77.068635 264.220974 
L 77.28055 263.419854 
L 77.386508 263.731313 
L 77.492466 262.574191 
L 77.598423 259.174743 
L 77.704381 263.823539 
L 77.810339 263.441449 
L 78.022254 263.722444 
L 78.128212 263.514372 
L 78.23417 263.817148 
L 78.340128 264.468442 
L 78.446085 263.940881 
L 78.552043 264.353543 
L 78.658001 263.370204 
L 78.763959 264.159669 
L 78.869916 263.713049 
L 78.975874 264.284996 
L 79.081832 259.22494 
L 79.18779 262.889795 
L 79.293747 260.237952 
L 79.399705 264.423194 
L 79.717578 262.902148 
L 79.929494 264.544704 
L 80.141409 263.945608 
L 80.247367 264.197264 
L 80.353325 263.989406 
L 80.459283 264.271983 
L 80.56524 264.051171 
L 80.671198 263.169918 
L 80.883114 263.306656 
L 80.989071 264.256125 
L 81.095029 258.8543 
L 81.200987 264.180664 
L 81.306945 264.11265 
L 81.412902 264.026193 
L 81.51886 259.530129 
L 81.624818 263.753065 
L 81.730776 263.528672 
L 81.836733 264.019114 
L 81.942691 263.914995 
L 82.048649 262.956659 
L 82.154607 263.979455 
L 82.260564 263.551547 
L 82.366522 263.598375 
L 82.47248 263.299722 
L 82.578438 264.131197 
L 82.684395 264.111554 
L 82.790353 264.472401 
L 82.896311 264.271983 
L 83.108226 263.639955 
L 83.214184 260.553998 
L 83.4261 264.128641 
L 83.532057 264.207354 
L 83.743973 263.621297 
L 83.849931 258.214524 
L 83.955888 264.322586 
L 84.061846 263.947746 
L 84.167804 260.396471 
L 84.273762 263.130609 
L 84.485677 262.75164 
L 84.591635 264.289518 
L 84.697593 264.281326 
L 84.80355 264.342085 
L 84.909508 264.141846 
L 85.015466 263.05492 
L 85.121424 263.982984 
L 85.227381 259.970956 
L 85.333339 264.462601 
L 85.439297 261.158449 
L 85.651212 264.47544 
L 85.75717 264.232181 
L 85.863128 262.637766 
L 86.075043 263.905989 
L 86.181001 263.529961 
L 86.286959 259.495512 
L 86.392917 259.81428 
L 86.604832 263.801806 
L 86.71079 264.109781 
L 86.816748 263.605531 
L 86.922705 264.462601 
L 87.028663 264.327953 
L 87.134621 263.678845 
L 87.240579 264.031674 
L 87.346536 263.661268 
L 87.452494 262.793167 
L 87.66441 263.985353 
L 87.770367 263.798402 
L 87.876325 262.41262 
L 87.982283 263.262553 
L 88.088241 263.119821 
L 88.194198 261.963188 
L 88.406114 263.610457 
L 88.512072 263.260686 
L 88.618029 263.714427 
L 88.829945 262.66027 
L 88.935903 262.906641 
L 89.04186 264.452455 
L 89.147818 263.506171 
L 89.253776 263.539782 
L 89.359734 263.512514 
L 89.465691 260.440605 
L 89.571649 263.952513 
L 89.783565 263.602477 
L 89.889522 259.207687 
L 89.99548 263.485004 
L 90.101438 263.438306 
L 90.207396 263.996762 
L 90.313353 263.373699 
L 90.419311 260.618237 
L 90.631227 263.814605 
L 90.737184 263.78013 
L 90.843142 264.170674 
L 90.9491 263.269191 
L 91.055058 260.120983 
L 91.161015 260.588062 
L 91.266973 264.027505 
L 91.372931 262.427492 
L 91.478889 263.870508 
L 91.584846 263.770535 
L 91.690804 259.816394 
L 91.90272 263.818355 
L 92.114635 259.868452 
L 92.326551 263.948965 
L 92.432508 264.123846 
L 92.538466 263.667901 
L 92.644424 264.008 
L 92.750382 263.716858 
L 92.856339 264.245932 
L 92.962297 260.962043 
L 93.068255 264.193947 
L 93.28017 263.51356 
L 93.492086 263.798512 
L 93.598044 260.770895 
L 93.809959 263.649341 
L 93.915917 259.516233 
L 94.021875 263.622255 
L 94.127832 262.834209 
L 94.23379 263.197336 
L 94.339748 259.353879 
L 94.445706 259.757338 
L 94.657621 264.309679 
L 94.763579 264.188754 
L 94.869537 259.723004 
L 94.975494 259.886955 
L 95.18741 264.416088 
L 95.293368 263.766296 
L 95.399325 264.142419 
L 95.505283 261.126733 
L 95.611241 263.485015 
L 95.717199 263.475968 
L 95.823156 262.674788 
L 95.929114 264.330923 
L 96.14103 263.294651 
L 96.246987 264.33717 
L 96.352945 260.146796 
L 96.564861 263.994924 
L 96.776776 263.865814 
L 96.882734 260.363185 
L 96.988692 264.044428 
L 97.094649 263.301569 
L 97.200607 264.415235 
L 97.306565 264.228068 
L 97.412523 264.40795 
L 97.51848 263.125993 
L 97.730396 263.862178 
L 97.836354 263.9531 
L 97.942311 262.122856 
L 98.048269 264.318173 
L 98.154227 264.036371 
L 98.260185 260.153917 
L 98.4721 263.553904 
L 98.578058 263.932013 
L 98.684016 258.90757 
L 98.789973 264.090958 
L 98.895931 259.11765 
L 99.001889 263.698143 
L 99.107847 263.085393 
L 99.213804 263.382028 
L 99.319762 263.106914 
L 99.42572 259.033891 
L 99.531678 263.548851 
L 99.637635 260.11571 
L 99.743593 260.314105 
L 99.849551 258.746562 
L 100.061466 264.012305 
L 100.167424 263.241244 
L 100.37934 264.08632 
L 100.485297 263.197818 
L 100.697213 263.636716 
L 100.803171 263.309751 
L 101.015086 264.008 
L 101.121044 262.872476 
L 101.227002 263.160177 
L 101.438917 263.134288 
L 101.650833 263.670882 
L 101.75679 263.4824 
L 101.968706 259.498349 
L 102.074664 264.001962 
L 102.180621 263.505391 
L 102.286579 264.017707 
L 102.392537 262.429221 
L 102.604452 263.817461 
L 102.71041 261.853536 
L 102.816368 263.771686 
L 102.922326 261.322517 
L 103.028283 263.678747 
L 103.134241 263.432345 
L 103.240199 262.161961 
L 103.452114 264.041513 
L 103.558072 263.962684 
L 103.66403 263.69405 
L 103.769988 264.071077 
L 103.875945 264.017707 
L 104.087861 263.38996 
L 104.193819 262.883198 
L 104.299776 260.701371 
L 104.511692 263.706734 
L 104.61765 263.231057 
L 104.829565 263.359137 
L 104.935523 263.401298 
L 105.041481 262.617195 
L 105.147438 263.598287 
L 105.253396 263.489114 
L 105.359354 264.179832 
L 105.465312 263.951625 
L 105.571269 262.194915 
L 105.677227 263.587362 
L 105.783185 262.558156 
L 105.9951 263.980535 
L 106.312974 258.983532 
L 106.418931 263.633176 
L 106.524889 263.076343 
L 106.842762 263.641094 
L 106.94872 262.656868 
L 107.160636 263.570007 
L 107.266593 262.694906 
L 107.372551 259.281166 
L 107.478509 260.01483 
L 107.584467 263.726534 
L 107.690424 259.677111 
L 107.90234 263.961911 
L 108.008298 263.293587 
L 108.114255 263.545545 
L 108.220213 262.963259 
L 108.326171 263.515302 
L 108.432129 263.47283 
L 108.538086 261.351926 
L 108.750002 263.891824 
L 108.85596 262.851683 
L 108.961917 263.604155 
L 109.279791 262.585341 
L 109.491706 262.394208 
L 109.597664 263.648428 
L 109.809579 262.226608 
L 109.915537 259.856886 
L 110.021495 263.207232 
L 110.127453 260.709752 
L 110.23341 263.751239 
L 110.339368 262.152689 
L 110.445326 263.614909 
L 110.551284 263.234109 
L 110.657241 259.395211 
L 110.763199 262.470831 
L 110.869157 262.096239 
L 110.975115 263.470383 
L 111.081072 263.435564 
L 111.18703 259.73426 
L 111.398946 263.265189 
L 111.504903 263.040008 
L 111.610861 263.384975 
L 111.716819 262.726966 
L 111.928734 263.28377 
L 112.034692 263.050897 
L 112.14065 262.145632 
L 112.246608 264.165307 
L 112.458523 263.756278 
L 112.670439 262.25799 
L 112.776396 263.273877 
L 112.882354 261.572274 
L 113.09427 264.278106 
L 113.200227 262.835222 
L 113.412143 263.353948 
L 113.624058 264.137537 
L 113.835974 263.313383 
L 113.941932 259.852448 
L 114.047889 264.039232 
L 114.153847 263.026855 
L 114.259805 258.985013 
L 114.365763 259.923344 
L 114.47172 263.138277 
L 114.577678 258.743584 
L 114.683636 259.791252 
L 114.895551 264.246813 
L 115.001509 263.708457 
L 115.107467 259.980681 
L 115.319382 263.628657 
L 115.42534 262.389096 
L 115.531298 263.91667 
L 115.637256 263.528368 
L 115.743213 263.743491 
L 115.849171 263.269105 
L 115.955129 264.248413 
L 116.061087 260.22717 
L 116.167044 264.135379 
L 116.273002 263.718815 
L 116.37896 260.238164 
L 116.590875 263.723711 
L 116.696833 263.824542 
L 116.802791 263.446525 
L 116.908749 260.290296 
L 117.120664 264.013047 
L 117.226622 263.220608 
L 117.33258 264.620264 
L 117.544495 263.547762 
L 117.650453 263.271398 
L 117.756411 264.060764 
L 117.862368 263.860329 
L 117.968326 261.08992 
L 118.074284 263.730736 
L 118.180242 259.73634 
L 118.286199 263.553288 
L 118.392157 262.773412 
L 118.498115 262.911873 
L 118.604073 263.958454 
L 118.71003 259.041717 
L 118.815988 259.155423 
L 118.921946 258.661368 
L 119.133861 264.300512 
L 119.239819 263.407672 
L 119.345777 264.510206 
L 119.451735 263.687578 
L 119.557692 263.895606 
L 119.66365 259.071188 
L 119.769608 263.565439 
L 119.875566 263.400491 
L 119.981523 262.627844 
L 120.087481 263.208899 
L 120.193439 262.976711 
L 120.299397 259.585591 
L 120.405354 263.413007 
L 120.511312 259.316661 
L 120.61727 264.010191 
L 120.723228 263.329049 
L 120.935143 264.007335 
L 121.147059 258.7497 
L 121.253016 263.683981 
L 121.358974 263.634248 
L 121.464932 263.433695 
L 121.57089 258.918409 
L 121.676847 259.099971 
L 121.782805 263.300828 
L 121.888763 262.939174 
L 121.994721 263.841163 
L 122.100678 263.443195 
L 122.206636 264.091672 
L 122.312594 263.665575 
L 122.524509 264.035379 
L 122.630467 259.011288 
L 122.842383 263.484992 
L 122.94834 262.594085 
L 123.054298 262.616498 
L 123.372171 263.71277 
L 123.478129 259.212829 
L 123.584087 264.263326 
L 123.690045 263.5852 
L 123.796002 264.442326 
L 124.007918 262.196046 
L 124.113876 263.927034 
L 124.219833 259.191256 
L 124.325791 263.525898 
L 124.537707 262.929465 
L 124.643664 263.607095 
L 124.749622 262.630016 
L 124.85558 264.273708 
L 124.961538 263.311874 
L 125.173453 264.316041 
L 125.279411 263.842913 
L 125.385369 264.122965 
L 125.491326 263.301068 
L 125.597284 263.506302 
L 125.915157 264.408305 
L 126.021115 264.177868 
L 126.127073 259.132777 
L 126.233031 264.206131 
L 126.338988 264.149886 
L 126.444946 264.215112 
L 126.550904 264.58503 
L 126.762819 263.868297 
L 126.868777 264.220262 
L 126.974735 259.30227 
L 127.080693 259.531272 
L 127.18665 259.290073 
L 127.398566 264.093913 
L 127.504524 264.466809 
L 127.610481 263.961099 
L 127.822397 258.954781 
L 128.034312 263.793093 
L 128.14027 263.268029 
L 128.246228 264.435811 
L 128.352186 264.074957 
L 128.458143 264.345978 
L 128.564101 264.294435 
L 128.670059 264.552407 
L 128.776017 263.226289 
L 128.987932 264.151627 
L 129.09389 263.011277 
L 129.199848 264.067368 
L 129.305805 257.926814 
L 129.411763 264.31066 
L 129.517721 263.666177 
L 129.729636 263.812629 
L 129.835594 264.628678 
L 129.941552 263.606286 
L 130.04751 264.15632 
L 130.259425 263.338876 
L 130.365383 263.861066 
L 130.471341 263.699909 
L 130.577298 259.364737 
L 130.683256 263.741928 
L 130.789214 263.119485 
L 131.001129 264.043108 
L 131.107087 263.451609 
L 131.213045 264.51889 
L 131.319003 264.046397 
L 131.42496 259.573863 
L 131.530918 264.37861 
L 131.742834 263.640655 
L 131.848791 263.48233 
L 131.954749 263.89834 
L 132.060707 263.491139 
L 132.166665 263.790241 
L 132.37858 263.813409 
L 132.484538 258.59446 
L 132.590496 264.466088 
L 132.696453 263.751942 
L 132.802411 258.503458 
L 132.908369 264.224291 
L 133.014327 262.792566 
L 133.120284 263.603641 
L 133.226242 263.267047 
L 133.3322 263.32477 
L 133.438158 263.251367 
L 133.650073 264.269224 
L 133.756031 259.061191 
L 133.861989 259.383288 
L 133.967946 259.234942 
L 134.179862 264.083702 
L 134.391777 262.948086 
L 134.709651 264.058648 
L 134.815608 264.204891 
L 134.921566 261.49145 
L 135.027524 264.204891 
L 135.239439 262.788443 
L 135.345397 259.988291 
L 135.451355 264.359207 
L 135.66327 263.012348 
L 135.875186 264.716 
L 135.981144 263.834158 
L 136.087101 263.888806 
L 136.193059 264.151627 
L 136.404975 263.654778 
L 136.510932 263.95468 
L 136.61689 263.845225 
L 136.828806 264.102379 
L 136.934763 263.47367 
L 137.040721 263.619258 
L 137.146679 259.663993 
L 137.358594 264.279426 
L 137.464552 264.441746 
L 137.782425 263.913647 
L 137.888383 263.043427 
L 138.206256 263.993766 
L 138.312214 263.633871 
L 138.418172 264.297938 
L 138.52413 258.711143 
L 138.630087 264.340005 
L 138.842003 263.32692 
L 139.053918 264.266496 
L 139.159876 264.266302 
L 139.477749 263.933004 
L 139.583707 263.206622 
L 139.689665 258.756517 
L 139.795623 259.269258 
L 140.007538 263.577182 
L 140.113496 262.807162 
L 140.219454 259.2083 
L 140.431369 264.266496 
L 140.537327 264.404471 
L 140.643285 263.869556 
L 140.749242 260.074206 
L 140.8552 263.983964 
L 141.067116 263.550997 
L 141.384989 264.371619 
L 141.596904 264.052909 
L 141.80882 263.218479 
L 141.914778 263.977014 
L 142.020735 263.541053 
L 142.126693 264.421034 
L 142.232651 263.020398 
L 142.338609 258.948293 
L 142.444566 264.136585 
L 142.550524 263.34832 
L 142.868397 264.209452 
L 143.080313 263.930347 
L 143.186271 264.238272 
L 143.292228 263.81575 
L 143.398186 264.029119 
L 143.504144 263.745828 
L 143.610102 259.330028 
L 143.822017 264.104485 
L 144.033933 264.211302 
L 144.13989 264.123772 
L 144.245848 258.756517 
L 144.351806 264.366259 
L 144.457764 259.093543 
L 144.669679 263.742641 
L 144.775637 263.159544 
L 144.987552 264.016483 
L 145.09351 263.695585 
L 145.199468 262.821379 
L 145.305426 264.385276 
L 145.411383 263.593975 
L 145.517341 263.979869 
L 145.623299 263.88878 
L 145.729257 259.155987 
L 145.835214 263.901429 
L 145.941172 263.816233 
L 146.04713 263.717708 
L 146.153088 264.286178 
L 146.259045 258.917826 
L 146.470961 264.201921 
L 146.682876 263.677438 
L 146.788834 263.812224 
L 146.894792 264.37875 
L 147.00075 263.819089 
L 147.106707 264.442445 
L 147.318623 263.726301 
L 147.424581 263.752278 
L 147.530538 264.241688 
L 147.742454 263.788489 
L 147.848412 259.350643 
L 148.060327 264.636977 
L 148.166285 264.404471 
L 148.272243 263.863906 
L 148.3782 259.55498 
L 148.484158 263.687468 
L 148.590116 263.347569 
L 148.696074 264.533152 
L 148.802031 263.441235 
L 148.907989 263.984888 
L 149.013947 259.015833 
L 149.225862 263.915205 
L 149.33182 263.704222 
L 149.543736 263.842861 
L 149.649693 263.02915 
L 149.755651 264.096406 
L 149.861609 262.939465 
L 150.073524 263.898385 
L 150.28544 263.38959 
L 150.391398 264.371619 
L 150.603313 263.730967 
L 150.815229 264.41143 
L 150.921186 263.98704 
L 151.027144 264.099146 
L 151.133102 263.847263 
L 151.345017 264.152816 
L 151.450975 258.974225 
L 151.556933 264.384827 
L 151.874806 263.435694 
L 152.086722 263.517644 
L 152.192679 262.700278 
L 152.298637 264.088475 
L 152.404595 260.014799 
L 152.510553 264.213375 
L 152.828426 263.208331 
L 153.040341 264.134951 
L 153.146299 259.042197 
L 153.358215 263.369156 
L 153.464172 264.581702 
L 153.57013 263.377133 
L 153.676088 264.413529 
L 153.888003 263.662112 
L 153.993961 263.934958 
L 154.099919 263.536284 
L 154.205877 264.236229 
L 154.311834 262.318259 
L 154.417792 263.938501 
L 154.52375 259.246805 
L 154.629708 264.237601 
L 154.841623 263.623689 
L 154.947581 259.495512 
L 155.053539 263.624884 
L 155.159496 259.436942 
L 155.371412 264.436167 
L 155.47737 262.440277 
L 155.689285 264.236229 
L 155.795243 264.055242 
L 155.901201 259.234942 
L 156.007158 263.673653 
L 156.113116 263.288893 
L 156.219074 259.546837 
L 156.430989 263.591756 
L 156.536947 263.927806 
L 156.642905 263.883877 
L 156.748863 262.528753 
L 156.960778 264.264349 
L 157.066736 259.03865 
L 157.172694 263.804729 
L 157.278651 259.698619 
L 157.490567 263.402719 
L 157.596525 264.123772 
L 157.702482 259.583888 
L 157.80844 263.993766 
L 157.914398 263.020398 
L 158.020356 263.907264 
L 158.126313 263.331766 
L 158.232271 263.986576 
L 158.338229 263.909786 
L 158.444187 263.647821 
L 158.550144 259.495414 
L 158.656102 263.889651 
L 158.76206 263.550997 
L 158.868018 259.632591 
L 158.973975 263.745828 
L 159.185891 263.098064 
L 159.291849 264.015099 
L 159.397806 262.363002 
L 159.503764 263.595574 
L 159.609722 263.161394 
L 159.71568 264.141785 
L 159.821637 263.20657 
L 160.033553 264.248396 
L 160.139511 263.342307 
L 160.245468 259.535805 
L 160.457384 264.414128 
L 160.563342 264.363993 
L 160.669299 263.144227 
L 160.881215 263.86558 
L 160.987173 264.217093 
L 161.09313 259.977655 
L 161.305046 264.363993 
L 161.411004 263.878203 
L 161.516961 264.110597 
L 161.622919 263.858352 
L 161.834835 263.038554 
L 161.940792 264.199359 
L 162.04675 264.035903 
L 162.258666 264.404471 
L 162.364623 263.87046 
L 162.470581 259.330546 
L 162.576539 260.106525 
L 162.682497 263.818703 
L 162.788454 263.734905 
L 162.894412 263.790066 
L 163.00037 264.021176 
L 163.212285 259.125744 
L 163.424201 259.84354 
L 163.530159 263.311907 
L 163.636116 262.877525 
L 163.848032 264.502156 
L 163.95399 263.797469 
L 164.059947 264.286816 
L 164.165905 264.245665 
L 164.271863 264.335325 
L 164.483778 263.993863 
L 164.589736 264.395039 
L 164.695694 264.301868 
L 164.801652 264.448151 
L 164.907609 263.719146 
L 165.013567 264.023468 
L 165.119525 263.884278 
L 165.225483 264.321162 
L 165.33144 259.641844 
L 165.437398 264.065403 
L 165.649314 263.62925 
L 165.755271 263.76071 
L 165.861229 263.074513 
L 166.073145 263.770705 
L 166.28506 258.841542 
L 166.391018 264.205164 
L 166.496976 263.768347 
L 166.814849 264.286219 
L 167.132722 263.987263 
L 167.23868 263.278068 
L 167.344638 263.391453 
L 167.450595 263.835326 
L 167.556553 263.621129 
L 167.874426 264.325542 
L 168.086342 264.011089 
L 168.1923 263.535619 
L 168.298257 259.183928 
L 168.404215 264.223951 
L 168.510173 263.84651 
L 168.616131 264.020336 
L 168.828046 262.963815 
L 169.039962 264.055115 
L 169.145919 264.19307 
L 169.251877 263.390651 
L 169.463793 264.448151 
L 169.56975 263.52714 
L 169.781666 264.343513 
L 169.887624 263.375366 
L 169.993581 264.355941 
L 170.099539 264.343513 
L 170.205497 264.690016 
L 170.311455 259.649686 
L 170.52337 264.501436 
L 170.735286 264.18111 
L 170.841243 263.970745 
L 170.947201 259.793122 
L 171.053159 264.048885 
L 171.159117 263.484825 
L 171.265074 263.865542 
L 171.371032 259.59906 
L 171.47699 263.793645 
L 171.582948 263.710253 
L 171.688905 258.793494 
L 171.900821 264.264327 
L 172.006779 260.073057 
L 172.112736 264.284959 
L 172.218694 264.187229 
L 172.324652 260.004933 
L 172.43061 264.212175 
L 172.536567 263.887766 
L 172.642525 264.145708 
L 172.748483 263.425836 
L 172.960398 259.371423 
L 173.172314 263.898565 
L 173.278272 263.390651 
L 173.596145 264.511864 
L 173.80806 263.369562 
L 174.231891 264.492057 
L 174.443807 262.638035 
L 174.655722 259.466435 
L 174.76168 264.006106 
L 174.867638 263.749501 
L 174.973596 263.905699 
L 175.079553 263.497482 
L 175.185511 257.831376 
L 175.291469 264.015567 
L 175.397427 263.916289 
L 175.503384 264.546235 
L 175.609342 260.09159 
L 175.7153 264.255069 
L 175.927215 263.980969 
L 176.033173 263.976991 
L 176.139131 259.995012 
L 176.351046 263.949892 
L 176.457004 264.216035 
L 176.562962 263.486324 
L 176.66892 263.641843 
L 176.774877 262.964567 
L 176.880835 264.316318 
L 176.986793 264.075588 
L 177.198708 264.248195 
L 177.304666 259.452137 
L 177.410624 264.482281 
L 177.516582 260.339382 
L 177.728497 264.467909 
L 177.834455 263.68913 
L 177.940413 264.0463 
L 178.04637 263.980969 
L 178.152328 264.140848 
L 178.258286 263.573239 
L 178.364244 264.467909 
L 178.470201 264.365369 
L 178.576159 263.562623 
L 178.682117 264.231551 
L 178.788075 263.586137 
L 178.894032 264.347679 
L 179.211906 262.55905 
L 179.423821 264.240554 
L 179.529779 263.744173 
L 179.847652 264.248195 
L 179.95361 263.653636 
L 180.059568 264.116663 
L 180.165525 263.943923 
L 180.271483 260.079429 
L 180.377441 264.159404 
L 180.483399 263.4468 
L 180.589356 264.050266 
L 180.695314 263.964702 
L 180.801272 263.555342 
L 181.013187 263.830062 
L 181.119145 264.055115 
L 181.225103 263.913411 
L 181.331061 264.074694 
L 181.437018 264.511864 
L 181.542976 263.682984 
L 181.648934 263.837038 
L 181.754892 262.940637 
L 181.860849 259.333166 
L 181.966807 263.391453 
L 182.072765 260.202259 
L 182.28468 264.166723 
L 182.390638 264.293671 
L 182.496596 263.847372 
L 182.602554 261.403997 
L 182.814469 263.904996 
L 183.026385 259.302375 
L 183.132342 263.474531 
L 183.2383 260.178919 
L 183.344258 264.131003 
L 183.450216 259.712681 
L 183.662131 264.021699 
L 183.768089 263.906795 
L 183.874047 264.053051 
L 183.980004 263.684394 
L 184.19192 264.383512 
L 184.297878 264.459456 
L 184.509793 263.76071 
L 184.615751 260.106753 
L 184.827666 264.216035 
L 184.933624 259.632952 
L 185.039582 263.814722 
L 185.251497 258.466213 
L 185.463413 264.440353 
L 185.569371 263.565773 
L 185.781286 263.73388 
L 185.887244 264.371663 
L 185.993202 263.990258 
L 186.099159 264.467909 
L 186.205117 263.620034 
L 186.311075 264.350255 
L 186.417033 264.120829 
L 186.52299 264.178625 
L 186.840864 263.278068 
L 186.946821 264.371663 
L 187.264695 263.313887 
L 187.370652 264.138669 
L 187.47661 259.463103 
L 187.582568 263.711041 
L 187.688526 263.575805 
L 187.794483 264.124065 
L 187.900441 264.061165 
L 188.006399 263.549633 
L 188.112357 264.450809 
L 188.218314 264.383512 
L 188.324272 259.868452 
L 188.43023 259.889373 
L 188.642145 263.351776 
L 188.748103 262.931247 
L 188.854061 259.678592 
L 189.065976 264.288094 
L 189.277892 263.873834 
L 189.38385 258.852949 
L 189.595765 264.170842 
L 189.701723 259.798758 
L 189.807681 259.885701 
L 190.019596 264.011089 
L 190.231512 263.756077 
L 190.337469 263.958899 
L 190.443427 259.279087 
L 190.549385 264.448151 
L 190.655343 263.846083 
L 190.7613 264.640176 
L 190.867258 263.916638 
L 190.973216 264.350255 
L 191.291089 263.698406 
L 191.397047 264.11231 
L 191.503005 263.979045 
L 191.608962 263.530778 
L 191.71492 264.298445 
L 191.820878 264.238343 
L 191.926836 264.35233 
L 192.032793 263.963412 
L 192.138751 264.075588 
L 192.244709 263.578693 
L 192.350667 264.144392 
L 192.562582 263.284769 
L 192.66854 259.764121 
L 192.774498 264.423739 
L 192.880455 263.813194 
L 192.986413 259.81428 
L 193.092371 264.402117 
L 193.198329 263.563841 
L 193.304286 264.1312 
L 193.516202 264.008271 
L 193.62216 260.076688 
L 193.728117 263.781914 
L 193.834075 262.082892 
L 194.045991 263.718676 
L 194.151948 263.60986 
L 194.257906 264.255069 
L 194.363864 264.19307 
L 194.469822 263.83961 
L 194.681737 264.307052 
L 194.893653 262.226114 
L 195.105568 259.533239 
L 195.211526 264.069002 
L 195.317484 263.698406 
L 195.423441 260.297355 
L 195.529399 264.22874 
L 195.635357 263.984241 
L 195.741315 264.2282 
L 195.847272 263.171386 
L 196.059188 264.166347 
L 196.165146 264.170842 
L 196.271103 263.855926 
L 196.377061 263.890958 
L 196.483019 263.680044 
L 196.588977 264.355941 
L 196.694934 259.478164 
L 196.800892 264.159511 
L 197.012808 263.769772 
L 197.118765 264.248195 
L 197.224723 263.379118 
L 197.330681 264.284959 
L 197.436639 264.076385 
L 197.648554 264.335325 
L 197.754512 263.742558 
L 197.86047 259.27643 
L 197.966427 264.226575 
L 198.072385 263.129278 
L 198.178343 264.355941 
L 198.284301 263.021819 
L 198.496216 264.1312 
L 198.602174 262.925616 
L 198.708132 259.432234 
L 198.814089 260.018998 
L 198.920047 264.064369 
L 199.026005 258.619559 
L 199.131963 259.606915 
L 199.23792 264.166723 
L 199.449836 263.14775 
L 199.555794 260.310463 
L 199.767709 264.296593 
L 199.873667 263.654014 
L 199.979625 260.991091 
L 200.085582 263.887492 
L 200.19154 263.57193 
L 200.297498 259.764194 
L 200.509413 264.374385 
L 200.721329 264.19307 
L 200.827287 264.423739 
L 201.039202 263.945883 
L 201.14516 264.015696 
L 201.251118 264.423939 
L 201.357075 263.323531 
L 201.463033 264.298445 
L 201.674949 263.365517 
L 201.780906 259.678962 
L 201.886864 264.536116 
L 201.992822 263.768238 
L 202.09878 259.340808 
L 202.204737 259.975631 
L 202.416653 264.698915 
L 202.522611 264.159404 
L 202.628568 260.137811 
L 202.734526 263.8195 
L 202.840484 263.752409 
L 202.946442 263.378009 
L 203.052399 264.467703 
L 203.370273 263.957347 
L 203.47623 263.690391 
L 203.582188 263.776575 
L 203.688146 264.015567 
L 203.794104 263.941572 
L 203.900061 258.972168 
L 204.006019 259.323391 
L 204.111977 264.423739 
L 204.217935 264.307191 
L 204.323892 264.178625 
L 204.42985 263.493961 
L 204.641766 264.074694 
L 204.747723 264.0463 
L 204.853681 262.899257 
L 205.065597 263.917264 
L 205.171554 263.427589 
L 205.277512 264.423739 
L 205.489428 263.563335 
L 205.595385 264.185836 
L 205.701343 263.514938 
L 205.913259 264.151377 
L 206.019216 263.739677 
L 206.125174 264.019506 
L 206.231132 263.65017 
L 206.33709 264.350255 
L 206.443047 258.866435 
L 206.549005 259.681826 
L 206.760921 264.448151 
L 206.866878 263.543901 
L 207.078794 264.223833 
L 207.184752 259.349391 
L 207.290709 264.353849 
L 207.396667 263.825484 
L 207.502625 259.018961 
L 207.608583 264.009595 
L 207.71454 263.881301 
L 207.820498 264.395039 
L 207.926456 264.313132 
L 208.032414 263.43916 
L 208.138371 264.484562 
L 208.244329 264.081758 
L 208.350287 264.318247 
L 208.456245 263.521768 
L 208.562202 263.680044 
L 208.66816 264.450809 
L 208.774118 263.427589 
L 208.880076 259.916293 
L 208.986033 264.149959 
L 209.197949 263.549925 
L 209.303907 264.180296 
L 209.409864 263.978168 
L 209.515822 259.419492 
L 209.62178 264.172421 
L 209.727738 263.766319 
L 209.833695 263.821701 
L 209.939653 263.142824 
L 210.045611 264.33689 
L 210.151569 263.927533 
L 210.257526 259.839932 
L 210.363484 263.957149 
L 210.469442 259.661103 
L 210.5754 264.341345 
L 210.681357 261.343812 
L 210.787315 263.743781 
L 210.893273 259.837771 
L 210.999231 263.924462 
L 211.105188 263.513926 
L 211.211146 263.745378 
L 211.317104 264.373439 
L 211.423062 264.330421 
L 211.634977 263.536023 
L 211.740935 264.240322 
L 211.846893 263.555098 
L 211.95285 263.806422 
L 212.058808 259.143539 
L 212.270724 264.032254 
L 212.482639 263.74326 
L 212.588597 264.505728 
L 212.694555 262.870997 
L 213.012428 264.415186 
L 213.118386 263.397253 
L 213.224343 263.981228 
L 213.330301 259.718792 
L 213.542217 263.687164 
L 213.648174 259.552744 
L 213.754132 259.556725 
L 213.86009 264.207004 
L 213.966048 264.091995 
L 214.072005 264.356106 
L 214.177963 263.965232 
L 214.283921 264.422081 
L 214.389879 264.237262 
L 214.495836 264.474801 
L 214.707752 263.700127 
L 214.919667 264.21083 
L 215.131583 263.888215 
L 215.23754 264.422081 
L 215.343498 259.487302 
L 215.555414 264.058702 
L 215.767329 264.126841 
L 215.873287 259.743508 
L 215.979245 260.329935 
L 216.085202 264.001729 
L 216.19116 263.157353 
L 216.297118 259.561893 
L 216.509033 263.51975 
L 216.614991 264.129112 
L 216.720949 263.028765 
L 216.826907 264.373439 
L 217.038822 263.875172 
L 217.250738 264.224021 
L 217.356695 264.479537 
L 217.462653 264.373439 
L 217.568611 263.570916 
L 217.780526 264.523633 
L 217.886484 259.734127 
L 218.0984 264.04192 
L 218.204357 264.258853 
L 218.310315 259.526711 
L 218.522231 264.218509 
L 218.840104 263.786773 
L 218.946062 259.404647 
L 219.052019 263.961228 
L 219.157977 263.560858 
L 219.263935 264.233685 
L 219.369893 264.201894 
L 219.581808 263.88702 
L 219.687766 259.746482 
L 219.899681 264.626154 
L 220.111597 264.060764 
L 220.217555 264.02612 
L 220.323512 263.123085 
L 220.42947 263.732748 
L 220.535428 263.623397 
L 220.747343 263.892215 
L 220.853301 263.967288 
L 220.959259 264.410817 
L 221.171174 264.136503 
L 221.38309 264.234647 
L 221.489048 263.938192 
L 221.595005 264.005513 
L 221.700963 264.283429 
L 221.806921 263.488972 
L 221.912879 264.224021 
L 222.018836 259.632952 
L 222.230752 264.555634 
L 222.33671 259.504606 
L 222.442667 259.552744 
L 222.548625 264.056463 
L 222.654583 263.966573 
L 222.760541 264.341345 
L 222.972456 263.838652 
L 223.078414 264.380944 
L 223.290329 260.111865 
L 223.396287 259.764194 
L 223.502245 264.41526 
L 223.71416 264.005513 
L 223.820118 264.262659 
L 223.926076 264.118337 
L 224.032034 263.629795 
L 224.137991 264.261682 
L 224.455865 263.879202 
L 224.561822 264.232264 
L 224.66778 264.032527 
L 224.773738 259.533239 
L 224.985653 264.362956 
L 225.197569 263.908296 
L 225.303527 264.017406 
L 225.409484 258.553015 
L 225.515442 264.100276 
L 225.6214 264.09411 
L 225.727358 263.631083 
L 225.833315 264.397925 
L 225.939273 263.648943 
L 226.045231 264.195625 
L 226.151189 261.150771 
L 226.257146 263.927965 
L 226.363104 263.665855 
L 226.57502 264.234647 
L 226.680977 264.237262 
L 226.786935 260.045686 
L 226.892893 263.917606 
L 226.998851 263.771775 
L 227.104808 264.438554 
L 227.210766 264.180565 
L 227.422682 259.303372 
L 227.528639 264.311586 
L 227.634597 263.55071 
L 227.846513 264.346768 
L 228.058428 259.414918 
L 228.164386 259.723457 
L 228.270344 260.469694 
L 228.376301 264.346768 
L 228.482259 264.240007 
L 228.694175 263.929456 
L 228.800132 259.00797 
L 229.012048 264.388764 
L 229.118006 264.156429 
L 229.223963 264.593363 
L 229.329921 263.689069 
L 229.435879 264.548686 
L 229.541837 263.715104 
L 229.647794 264.385066 
L 229.753752 260.306186 
L 229.85971 263.106675 
L 229.965668 261.5107 
L 230.177583 263.91699 
L 230.283541 263.406974 
L 230.389499 263.838386 
L 230.495456 262.550262 
L 230.707372 264.044079 
L 230.81333 263.48808 
L 230.919287 264.397925 
L 231.025245 258.689501 
L 231.237161 264.180565 
L 231.343118 263.491648 
L 231.449076 263.968406 
L 231.555034 263.347155 
L 231.660992 264.522942 
L 231.766949 264.330421 
L 231.872907 263.795115 
L 231.978865 264.176937 
L 232.084823 259.710014 
L 232.19078 264.16969 
L 232.296738 263.793243 
L 232.402696 263.924126 
L 232.508654 263.41427 
L 232.720569 264.25258 
L 232.826527 262.790637 
L 232.932485 264.283429 
L 233.038442 264.231029 
L 233.1444 264.316182 
L 233.356316 263.514592 
L 233.462273 264.347971 
L 233.568231 259.605616 
L 233.780147 263.943453 
L 233.886104 259.368446 
L 234.09802 264.316182 
L 234.203978 262.748352 
L 234.415893 264.384606 
L 234.521851 263.987437 
L 234.627809 264.274439 
L 234.733766 263.638011 
L 234.839724 259.703999 
L 234.945682 264.373439 
L 235.05164 264.198172 
L 235.157597 264.228385 
L 235.263555 264.479537 
L 235.475471 263.360423 
L 235.581428 263.527604 
L 235.687386 264.172042 
L 235.793344 263.38935 
L 236.111217 263.799027 
L 236.217175 263.659783 
L 236.323133 264.419253 
L 236.535048 263.758158 
L 236.641006 264.455057 
L 236.852921 263.877029 
L 236.958879 264.028338 
L 237.064837 263.715056 
L 237.170795 260.084018 
L 237.38271 264.390488 
L 237.488668 264.017442 
L 237.594626 264.311586 
L 237.700583 259.132402 
L 237.806541 259.617828 
L 238.018457 264.225754 
L 238.124414 263.558429 
L 238.230372 259.587572 
L 238.33633 264.403066 
L 238.442288 263.361628 
L 238.548245 264.088501 
L 238.654203 259.981337 
L 238.866119 263.908499 
L 239.078034 263.132991 
L 239.28995 264.203448 
L 239.395907 263.910855 
L 239.713781 264.600917 
L 239.925696 262.985704 
L 240.031654 263.990956 
L 240.137612 263.616666 
L 240.243569 264.182939 
L 240.349527 263.428436 
L 240.455485 259.203751 
L 240.6674 264.031003 
L 240.773358 263.674563 
L 240.879316 259.26015 
L 241.091231 264.159574 
L 241.197189 264.325284 
L 241.303147 263.081402 
L 241.515062 264.080104 
L 241.62102 263.624694 
L 241.832936 264.247158 
L 241.938893 263.693648 
L 242.150809 264.548817 
L 242.256767 260.61858 
L 242.362724 264.356106 
L 242.468682 264.161131 
L 242.57464 264.274439 
L 242.680598 263.2522 
L 242.786555 264.283429 
L 242.892513 264.021267 
L 243.104429 258.729806 
L 243.316344 264.307339 
L 243.422302 259.340808 
L 243.52826 263.978168 
L 243.634217 258.74393 
L 243.740175 263.679773 
L 243.846133 259.393335 
L 243.952091 260.346512 
L 244.058048 264.582527 
L 244.164006 263.18178 
L 244.269964 259.305705 
L 244.375922 264.079571 
L 244.481879 263.974749 
L 244.693795 264.390488 
L 244.799753 263.876132 
L 245.011668 264.215612 
L 245.223584 263.90521 
L 245.329541 264.203448 
L 245.541457 264.121634 
L 245.647415 264.316182 
L 245.753372 264.172042 
L 245.965288 262.73217 
L 246.071246 264.262659 
L 246.177203 263.484385 
L 246.283161 264.223436 
L 246.389119 264.117232 
L 246.495077 263.527013 
L 246.601034 263.582333 
L 246.706992 264.459365 
L 246.81295 263.426028 
L 246.918908 264.221377 
L 247.024865 259.35651 
L 247.130823 263.545485 
L 247.236781 263.473298 
L 247.448696 263.816911 
L 247.554654 264.215612 
L 247.660612 259.435872 
L 247.872527 264.083297 
L 248.084443 264.582527 
L 248.190401 264.314723 
L 248.296358 264.373439 
L 248.402316 259.73426 
L 248.508274 264.15349 
L 248.614232 263.845299 
L 248.720189 263.908296 
L 248.826147 263.273142 
L 248.932105 264.33689 
L 249.038063 263.431922 
L 249.249978 264.522942 
L 249.355936 263.913584 
L 249.461894 264.459365 
L 249.567851 258.993188 
L 249.673809 259.535805 
L 249.779767 264.10218 
L 249.885725 260.157386 
L 249.991682 263.077008 
L 250.09764 259.412576 
L 250.203598 264.136503 
L 250.415513 263.524649 
L 250.521471 264.298553 
L 250.627429 259.033465 
L 250.839344 264.495789 
L 250.945302 263.297981 
L 251.05126 263.836009 
L 251.369133 263.476397 
L 251.687006 264.198172 
L 251.792964 263.66588 
L 251.898922 264.04192 
L 252.00488 263.646288 
L 252.110837 263.841792 
L 252.322753 264.517474 
L 252.428711 263.740588 
L 252.640626 264.325284 
L 252.746584 264.455057 
L 252.958499 263.841895 
L 253.064457 263.920883 
L 253.170415 258.819349 
L 253.38233 263.662062 
L 253.488288 259.988291 
L 253.700204 263.887276 
L 253.806161 264.094407 
L 253.912119 263.866628 
L 254.018077 262.559139 
L 254.229992 264.157286 
L 254.441908 263.233425 
L 254.865739 264.422031 
L 254.971697 263.670313 
L 255.077654 259.097993 
L 255.183612 263.819154 
L 255.28957 259.495414 
L 255.395528 264.231029 
L 255.501485 263.779736 
L 255.607443 259.732809 
L 255.819359 264.068542 
L 255.925316 263.390952 
L 256.031274 263.780001 
L 256.137232 259.460023 
L 256.24319 259.736751 
L 256.349147 263.575701 
L 256.455105 263.222262 
L 256.561063 263.967458 
L 256.772978 263.400089 
L 256.878936 264.319187 
L 256.984894 263.557414 
L 257.196809 264.110037 
L 257.302767 263.837693 
L 257.408725 264.258113 
L 257.514683 263.888001 
L 257.62064 264.034493 
L 257.726598 263.838121 
L 257.832556 264.062342 
L 257.938514 259.526711 
L 258.044471 263.889801 
L 258.150429 263.409414 
L 258.256387 264.314291 
L 258.468302 259.011544 
L 258.680218 263.609267 
L 258.786176 262.561078 
L 258.892133 263.943453 
L 258.998091 263.753432 
L 259.315964 264.422031 
L 259.421922 263.624277 
L 259.633838 263.914793 
L 259.739795 263.915993 
L 259.845753 263.775249 
L 259.951711 263.919836 
L 260.057669 263.540996 
L 260.269584 258.943952 
L 260.375542 264.002797 
L 260.4815 263.536623 
L 260.587457 258.389167 
L 260.799373 264.06868 
L 260.905331 262.745803 
L 261.011288 263.703181 
L 261.117246 263.641969 
L 261.435119 264.142376 
L 261.541077 263.778092 
L 261.647035 258.716318 
L 261.85895 264.33743 
L 262.070866 262.993414 
L 262.176824 263.837478 
L 262.282781 263.627139 
L 262.388739 264.086224 
L 262.494697 262.744438 
L 262.600655 263.154918 
L 262.706612 262.470471 
L 262.81257 263.274648 
L 262.918528 263.082335 
L 263.024486 260.007396 
L 263.236401 263.79111 
L 263.342359 263.74043 
L 263.448317 264.164629 
L 263.660232 263.60124 
L 263.76619 259.47149 
L 263.872148 263.913278 
L 263.978105 262.999622 
L 264.084063 263.819709 
L 264.295979 263.505393 
L 264.401936 263.799763 
L 264.507894 259.136946 
L 264.613852 264.55215 
L 264.71981 263.662428 
L 265.037683 264.429843 
L 265.143641 263.632666 
L 265.355556 264.331159 
L 265.461514 264.615996 
L 265.673429 263.745639 
L 265.779387 264.110436 
L 265.885345 258.566514 
L 265.991303 258.918407 
L 266.09726 258.645884 
L 266.309176 264.393446 
L 266.415134 261.307212 
L 266.627049 263.763556 
L 266.733007 263.318301 
L 266.838965 263.449292 
L 267.05088 264.238973 
L 267.156838 264.01614 
L 267.262796 264.393446 
L 267.368753 263.2903 
L 267.474711 259.313065 
L 267.580669 263.415801 
L 267.686627 263.056668 
L 267.898542 263.433917 
L 268.110458 264.302024 
L 268.216415 263.629389 
L 268.322373 259.013526 
L 268.428331 262.953142 
L 268.534289 258.991721 
L 268.640246 263.716082 
L 268.746204 263.512923 
L 268.852162 263.698233 
L 268.95812 258.625212 
L 269.064077 264.212544 
L 269.170035 263.922486 
L 269.275993 259.913477 
L 269.381951 263.552022 
L 269.487908 258.337589 
L 269.593866 263.929535 
L 269.699824 263.9127 
L 269.805782 264.473057 
L 270.017697 263.345769 
L 270.123655 259.495414 
L 270.229613 259.876946 
L 270.441528 263.359792 
L 270.547486 263.79257 
L 270.653444 258.34502 
L 270.865359 263.362577 
L 271.077275 263.843976 
L 271.183232 263.495858 
L 271.28919 264.280132 
L 271.395148 262.877111 
L 271.501106 259.22345 
L 271.607063 263.663753 
L 271.713021 263.482282 
L 271.818979 258.505656 
L 271.924937 264.149495 
L 272.030894 259.207687 
L 272.136852 263.206528 
L 272.24281 263.194823 
L 272.454725 263.488631 
L 272.560683 263.501643 
L 272.666641 263.301401 
L 272.772599 263.970966 
L 272.984514 263.433342 
L 273.090472 263.602472 
L 273.302387 263.385179 
L 273.408345 263.468712 
L 273.620261 258.061254 
L 273.726218 263.799763 
L 273.832176 258.334264 
L 274.044092 264.400514 
L 274.150049 263.191054 
L 274.256007 258.16129 
L 274.361965 263.763556 
L 274.467923 263.753036 
L 274.57388 258.684112 
L 274.785796 263.421251 
L 274.891754 258.531963 
L 274.997711 263.123289 
L 275.103669 262.889304 
L 275.209627 263.628073 
L 275.315585 263.583333 
L 275.421542 262.532242 
L 275.5275 263.469614 
L 275.633458 258.199277 
L 275.845373 263.687045 
L 275.951331 263.026124 
L 276.057289 258.269458 
L 276.269204 263.90742 
L 276.375162 264.111362 
L 276.48112 263.640679 
L 276.587078 263.828762 
L 276.798993 263.282707 
L 276.904951 259.370735 
L 277.116866 264.629329 
L 277.222824 263.26406 
L 277.328782 257.951757 
L 277.540697 264.457384 
L 277.646655 263.198654 
L 277.858571 264.103048 
L 277.964528 262.413436 
L 278.070486 263.77414 
L 278.176444 259.130977 
L 278.388359 264.380275 
L 278.494317 264.256021 
L 278.706233 262.684823 
L 278.918148 264.067329 
L 279.024106 264.015999 
L 279.130064 263.275288 
L 279.341979 263.586602 
L 279.447937 263.361221 
L 279.553895 263.714416 
L 279.659852 263.620592 
L 279.871768 264.352267 
L 279.977726 263.984429 
L 280.083683 264.298253 
L 280.189641 263.101649 
L 280.295599 264.352557 
L 280.401557 263.924452 
L 280.613472 258.736655 
L 280.71943 262.653412 
L 280.825388 258.029171 
L 281.037303 264.152562 
L 281.143261 257.825524 
L 281.249219 264.172027 
L 281.355176 263.001818 
L 281.567092 264.21169 
L 281.67305 263.951825 
L 281.779007 264.436362 
L 281.884965 264.352557 
L 282.096881 263.413455 
L 282.308796 264.1517 
L 282.414754 262.852131 
L 282.626669 263.989537 
L 282.732627 263.658286 
L 282.944543 264.023965 
L 283.0505 263.946082 
L 283.262416 259.432234 
L 283.368374 264.275121 
L 283.474331 263.999308 
L 283.580289 258.128635 
L 283.792205 264.081483 
L 283.898162 263.982655 
L 284.00412 259.018231 
L 284.110078 264.301287 
L 284.321993 263.342089 
L 284.427951 263.355482 
L 284.533909 263.855435 
L 284.639867 263.152936 
L 284.851782 263.500451 
L 284.95774 258.282167 
L 285.169655 263.92393 
L 285.275613 263.900494 
L 285.381571 264.429378 
L 285.487529 261.930896 
L 285.699444 264.333114 
L 285.805402 263.915136 
L 285.91136 264.031778 
L 286.017317 258.580384 
L 286.123275 263.750889 
L 286.335191 257.137285 
L 286.441148 264.057407 
L 286.547106 263.758911 
L 286.653064 264.566117 
L 286.759022 263.845518 
L 286.864979 260.101237 
L 287.076895 263.702799 
L 287.28881 264.343369 
L 287.500726 262.862357 
L 287.606684 263.90582 
L 287.712641 263.808741 
L 287.818599 263.295921 
L 287.924557 259.396317 
L 288.030515 263.914285 
L 288.136472 263.871646 
L 288.24243 264.037349 
L 288.348388 263.478259 
L 288.454346 258.026638 
L 288.560303 264.023823 
L 288.666261 263.123207 
L 288.878177 263.792355 
L 288.984134 259.440921 
L 289.090092 263.872468 
L 289.19605 263.489759 
L 289.302008 264.14272 
L 289.513923 263.787099 
L 289.619881 263.016954 
L 289.725839 264.044902 
L 289.831796 262.713268 
L 289.937754 263.582476 
L 290.043712 263.542811 
L 290.255627 263.558249 
L 290.361585 263.775817 
L 290.467543 258.637413 
L 290.679458 263.72606 
L 290.785416 259.143076 
L 290.891374 264.039548 
L 291.209247 263.048477 
L 291.315205 263.173479 
L 291.421163 257.964908 
L 291.52712 263.420126 
L 291.739036 257.379433 
L 291.844994 263.287061 
L 291.950951 262.138427 
L 292.162867 264.530756 
L 292.268825 262.47451 
L 292.374782 263.456041 
L 292.586698 262.572822 
L 292.692656 262.142852 
L 292.904571 263.320125 
L 293.010529 263.012648 
L 293.116487 263.999637 
L 293.222444 263.956822 
L 293.328402 263.808972 
L 293.43436 257.409096 
L 293.540318 258.795864 
L 293.646275 263.993661 
L 293.752233 262.437969 
L 293.858191 263.554215 
L 293.964149 263.505814 
L 294.070106 263.330964 
L 294.176064 264.434679 
L 294.282022 263.567154 
L 294.38798 257.013304 
L 294.599895 264.236534 
L 294.705853 263.732642 
L 294.811811 261.182973 
L 294.917768 263.969153 
L 295.023726 258.589588 
L 295.129684 263.619804 
L 295.235642 262.935215 
L 295.341599 258.122271 
L 295.553515 263.99778 
L 295.76543 257.889246 
L 295.871388 264.377705 
L 296.295219 262.893919 
L 296.401177 263.642703 
L 296.507135 263.245005 
L 296.613092 263.400296 
L 296.71905 263.284117 
L 296.825008 264.19559 
L 296.930966 263.459663 
L 297.036923 263.674322 
L 297.142881 263.493116 
L 297.354797 263.90156 
L 297.460754 263.275436 
L 297.566712 264.209229 
L 297.67267 263.13498 
L 297.778628 264.176593 
L 297.884585 263.737356 
L 297.990543 264.106472 
L 298.096501 259.236251 
L 298.308416 264.124609 
L 298.414374 263.777047 
L 298.520332 263.990627 
L 298.62629 263.75541 
L 298.732247 263.831549 
L 298.838205 264.088259 
L 298.944163 263.728689 
L 299.050121 258.542873 
L 299.156078 263.770476 
L 299.367994 263.337175 
L 299.473952 264.468791 
L 299.579909 263.344941 
L 299.897783 263.424204 
L 300.109698 263.373778 
L 300.321614 264.206012 
L 300.427571 263.376199 
L 300.533529 263.445026 
L 300.639487 263.7161 
L 300.745445 259.840997 
L 300.851402 263.642189 
L 300.95736 262.730234 
L 301.063318 263.987445 
L 301.169276 258.51554 
L 301.275233 263.235485 
L 301.381191 262.641157 
L 301.487149 263.74426 
L 301.593107 263.611861 
L 301.699064 263.661239 
L 301.805022 258.814545 
L 301.91098 263.677192 
L 302.016938 262.685547 
L 302.440769 263.116244 
L 302.546726 259.59906 
L 302.652684 263.542577 
L 302.758642 263.190176 
L 302.970557 264.30423 
L 303.076515 263.100618 
L 303.182473 263.406373 
L 303.288431 263.21075 
L 303.394388 263.263746 
L 303.500346 262.12026 
L 303.606304 263.264518 
L 303.712262 262.862312 
L 303.818219 263.140325 
L 303.924177 260.202259 
L 304.030135 263.408407 
L 304.136093 263.138815 
L 304.24205 263.405333 
L 304.348008 262.211105 
L 304.453966 262.943355 
L 304.559924 259.010578 
L 304.665881 263.46333 
L 304.771839 262.790619 
L 304.877797 264.014244 
L 304.983755 262.41898 
L 305.089712 262.765831 
L 305.19567 264.052625 
L 305.301628 262.50394 
L 305.407586 258.74393 
L 305.513543 263.931614 
L 305.619501 262.885053 
L 305.725459 263.018374 
L 305.831417 262.825167 
L 306.043332 263.312083 
L 306.14929 263.572725 
L 306.255248 258.861749 
L 306.361205 263.196131 
L 306.467163 259.171481 
L 306.573121 263.639779 
L 306.679079 263.055955 
L 306.785036 263.675023 
L 306.890994 262.654447 
L 306.996952 263.153969 
L 307.10291 260.478707 
L 307.208867 262.676216 
L 307.420783 259.014767 
L 307.526741 264.14132 
L 307.738656 263.726573 
L 307.844614 262.248757 
L 308.162487 263.897542 
L 308.268445 262.876709 
L 308.374403 263.979315 
L 308.692276 260.30693 
L 308.798234 262.850667 
L 308.904191 262.765286 
L 309.010149 263.469274 
L 309.116107 260.146796 
L 309.328022 263.484777 
L 309.43398 259.764121 
L 309.645896 263.166387 
L 309.751853 262.640871 
L 309.857811 264.288066 
L 309.963769 263.457128 
L 310.069727 263.86365 
L 310.175684 262.915518 
L 310.281642 264.337211 
L 310.3876 264.179866 
L 310.599515 263.373235 
L 310.705473 263.246683 
L 310.811431 263.600961 
L 310.917389 264.371415 
L 311.023346 264.302924 
L 311.129304 263.674172 
L 311.235262 261.179401 
L 311.34122 264.472718 
L 311.447177 263.842057 
L 311.553135 264.343777 
L 311.659093 264.125031 
L 311.765051 263.381532 
L 312.082924 264.159879 
L 312.188882 259.2083 
L 312.400797 264.258383 
L 312.71867 264.238557 
L 312.824628 264.343777 
L 312.930586 259.649686 
L 313.142501 264.375272 
L 313.248459 264.446245 
L 313.354417 263.101281 
L 313.460375 263.903609 
L 313.566332 262.953475 
L 313.67229 264.361395 
L 313.884206 263.901337 
L 313.990163 263.914806 
L 314.096121 264.044285 
L 314.202079 264.449225 
L 314.308037 259.057788 
L 314.519952 264.172015 
L 314.62591 259.258178 
L 314.837825 263.606596 
L 315.049741 264.170816 
L 315.155699 263.081081 
L 315.261656 264.379932 
L 315.367614 263.606911 
L 315.473572 264.039077 
L 315.57953 259.764121 
L 315.685487 264.414494 
L 315.791445 264.342471 
L 315.897403 264.307908 
L 316.003361 263.943351 
L 316.109318 264.187495 
L 316.215276 264.038326 
L 316.427192 264.245516 
L 316.533149 260.885703 
L 316.745065 263.674172 
L 316.95698 264.387659 
L 317.168896 263.733421 
L 317.274854 264.182848 
L 317.380811 263.917542 
L 317.486769 264.280785 
L 317.592727 259.046725 
L 317.804642 264.192697 
L 317.9106 263.824866 
L 318.016558 264.666606 
L 318.122516 263.583632 
L 318.334431 263.904494 
L 318.440389 260.405807 
L 318.546347 264.304487 
L 318.652304 263.571799 
L 318.758262 264.574418 
L 318.86422 263.581958 
L 318.970178 263.810163 
L 319.076135 264.534661 
L 319.182093 263.92594 
L 319.288051 259.443854 
L 319.394009 264.379932 
L 319.499966 264.151653 
L 319.605924 264.06549 
L 319.711882 263.754268 
L 319.81784 263.813526 
L 319.923797 263.731263 
L 320.135713 264.371415 
L 320.241671 263.594828 
L 320.347628 264.68634 
L 320.453586 263.339593 
L 320.559544 263.761478 
L 320.665502 263.635246 
L 320.771459 263.841517 
L 320.877417 259.246805 
L 320.983375 264.034327 
L 321.089333 263.139323 
L 321.19529 263.919382 
L 321.301248 263.705101 
L 321.513164 264.384175 
L 321.619121 263.480144 
L 321.725079 263.881181 
L 321.831037 263.827154 
L 321.936995 264.155062 
L 322.042952 259.093543 
L 322.14891 264.305086 
L 322.360826 263.341755 
L 322.466783 264.264121 
L 322.572741 263.505758 
L 322.678699 259.695854 
L 322.890614 263.989781 
L 323.10253 264.118047 
L 323.208488 264.405121 
L 323.420403 263.788657 
L 323.526361 264.30743 
L 323.950192 263.518745 
L 324.162107 264.393046 
L 324.268065 258.871059 
L 324.479981 263.626953 
L 324.585938 263.821944 
L 324.691896 263.344965 
L 324.797854 264.338113 
L 325.009769 263.652046 
L 325.115727 263.469796 
L 325.221685 264.388506 
L 325.327643 264.053678 
L 325.4336 264.26044 
L 325.539558 258.839769 
L 325.645516 263.936255 
L 325.751474 259.132402 
L 325.857431 259.757056 
L 326.069347 263.841556 
L 326.281262 264.286146 
L 326.38722 259.90066 
L 326.599136 263.936988 
L 326.705093 259.55498 
L 326.917009 264.116663 
L 327.022967 264.278923 
L 327.234882 263.460044 
L 327.34084 263.546996 
L 327.446798 264.148569 
L 327.552755 263.921772 
L 327.764671 264.387436 
L 327.870629 263.798353 
L 328.082544 264.028643 
L 328.188502 264.028643 
L 328.29446 263.860437 
L 328.400417 258.852949 
L 328.612333 264.17158 
L 328.718291 263.337201 
L 328.824248 264.46286 
L 328.930206 264.060779 
L 329.036164 264.250163 
L 329.142122 264.047229 
L 329.354037 264.46286 
L 329.459995 263.282819 
L 329.565953 264.263181 
L 329.67191 263.838577 
L 329.777868 259.460131 
L 329.883826 263.965052 
L 329.989784 263.56727 
L 330.095741 263.843289 
L 330.201699 259.910951 
L 330.413615 264.658615 
L 330.62553 263.529961 
L 330.731488 264.076531 
L 330.837446 264.047229 
L 330.943403 264.475607 
L 331.155319 264.177357 
L 331.367234 263.879714 
L 331.473192 264.178167 
L 331.57915 263.143789 
L 331.685108 264.658615 
L 331.897023 263.296359 
L 332.002981 263.865733 
L 332.108939 263.396126 
L 332.214896 259.975128 
L 332.426812 264.127366 
L 332.53277 264.235281 
L 332.638727 264.180288 
L 332.744685 259.499208 
L 332.956601 264.119191 
L 333.062558 264.316703 
L 333.274474 263.728065 
L 333.380432 264.527253 
L 333.486389 262.277354 
L 333.698305 264.455187 
L 333.804263 259.566668 
L 333.91022 264.277113 
L 334.016178 264.055824 
L 334.122136 264.320237 
L 334.228094 264.228377 
L 334.334051 263.815609 
L 334.440009 259.303372 
L 334.651925 263.765975 
L 334.757882 264.599214 
L 334.86384 261.33624 
L 334.969798 264.305086 
L 335.075756 264.103829 
L 335.181713 264.30743 
L 335.287671 262.911446 
L 335.393629 263.811667 
L 335.499587 263.776628 
L 335.605544 264.455187 
L 335.711502 263.382979 
L 335.923418 264.384175 
L 336.135333 262.864884 
L 336.241291 264.45391 
L 336.347249 259.596526 
L 336.453206 263.970483 
L 336.559164 263.801212 
L 336.77108 263.970483 
L 336.877037 264.173085 
L 336.982995 263.719353 
L 337.088953 264.258692 
L 337.300868 263.593667 
L 337.406826 263.615932 
L 337.512784 259.121367 
L 337.724699 264.14142 
L 337.936615 264.14142 
L 338.254488 263.0357 
L 338.466404 264.615111 
L 338.572361 263.246145 
L 338.784277 264.023777 
L 338.890235 263.913414 
L 338.996192 264.112955 
L 339.10215 264.049186 
L 339.208108 264.24279 
L 339.420023 263.965579 
L 339.525981 259.678999 
L 339.631939 260.157386 
L 339.843854 264.049023 
L 339.949812 264.139089 
L 340.05577 262.973296 
L 340.161728 264.26044 
L 340.267685 263.634979 
L 340.373643 262.176901 
L 340.479601 263.801931 
L 340.585559 260.318463 
L 340.691516 263.917318 
L 340.797474 263.838577 
L 340.903432 263.751484 
L 341.00939 264.420214 
L 341.221305 263.373732 
L 341.327263 263.293501 
L 341.433221 264.393046 
L 341.539178 263.878584 
L 341.645136 263.983102 
L 341.751094 263.545522 
L 341.963009 263.881181 
L 342.068967 263.617018 
L 342.174925 263.786142 
L 342.280883 259.712681 
L 342.38684 260.165385 
L 342.492798 262.872941 
L 342.598756 259.661213 
L 342.704714 264.455187 
L 342.810671 263.913414 
L 342.916629 264.15064 
L 343.022587 259.28945 
L 343.234502 264.186711 
L 343.446418 263.979424 
L 343.552376 259.495414 
L 343.764291 263.891829 
L 343.976207 264.60017 
L 344.082164 263.119532 
L 344.188122 263.265752 
L 344.29408 259.798758 
L 344.505995 263.926896 
L 344.611953 263.211562 
L 344.717911 263.978885 
L 344.823869 262.777188 
L 344.929826 264.309352 
L 345.035784 263.790737 
L 345.141742 263.991212 
L 345.353657 262.909701 
L 345.459615 263.756524 
L 345.565573 263.432486 
L 345.671531 260.489256 
L 345.777488 263.983102 
L 345.883446 263.552967 
L 346.095362 259.410621 
L 346.201319 263.657167 
L 346.307277 258.542873 
L 346.519193 263.812746 
L 346.62515 259.276637 
L 346.731108 264.026652 
L 346.943024 263.461029 
L 347.154939 263.894984 
L 347.260897 259.490272 
L 347.366855 263.595699 
L 347.472812 259.792967 
L 347.684728 263.966666 
L 347.790686 263.719259 
L 347.896643 263.936988 
L 348.108559 263.201247 
L 348.214517 259.797786 
L 348.320474 264.083425 
L 348.426432 263.910654 
L 348.638348 259.718792 
L 348.744305 264.555093 
L 348.850263 259.125744 
L 349.062179 263.381628 
L 349.168136 258.78382 
L 349.274094 263.839035 
L 349.380052 263.328885 
L 349.48601 263.595699 
L 349.591967 263.436072 
L 349.697925 263.770391 
L 349.803883 263.193846 
L 350.121756 264.149484 
L 350.227714 264.070828 
L 350.439629 263.645666 
L 350.545587 263.418837 
L 350.651545 264.148569 
L 350.757503 258.693441 
L 350.86346 264.012173 
L 350.969418 263.768318 
L 351.075376 260.561346 
L 351.181334 264.12689 
L 351.287291 263.486722 
L 351.393249 264.070828 
L 351.605165 263.490887 
L 351.711122 264.206115 
L 351.923038 263.416454 
L 352.028996 263.926896 
L 352.134953 262.099711 
L 352.240911 263.412649 
L 352.346869 262.775498 
L 352.452827 260.039029 
L 352.664742 264.097941 
L 352.7707 259.234942 
L 352.876658 263.528746 
L 352.982615 258.372758 
L 353.088573 264.17938 
L 353.194531 263.913199 
L 353.300489 263.375824 
L 353.406446 264.014331 
L 353.512404 263.925565 
L 353.618362 264.138615 
L 353.72432 262.79876 
L 353.830277 263.329909 
L 353.936235 259.726232 
L 354.148151 264.047229 
L 354.254108 263.97056 
L 354.466024 261.333158 
L 354.677939 264.116484 
L 354.783897 264.370349 
L 354.889855 262.973296 
L 354.995813 264.462294 
L 355.10177 262.940857 
L 355.313686 264.178876 
L 355.419644 259.73634 
L 355.631559 263.883405 
L 355.843475 263.045955 
L 355.949432 263.978085 
L 356.05539 263.531494 
L 356.161348 262.120233 
L 356.267306 263.907443 
L 356.373263 263.49682 
L 356.479221 261.182681 
L 356.585179 263.154468 
L 356.691137 262.915102 
L 356.797094 263.468452 
L 357.00901 263.421907 
L 357.114968 263.83107 
L 357.220925 263.375229 
L 357.326883 260.061321 
L 357.432841 263.842637 
L 357.538799 262.31445 
L 357.750714 263.573546 
L 357.856672 262.396654 
L 357.96263 263.32571 
L 358.174545 262.968103 
L 358.280503 263.930574 
L 358.386461 263.014388 
L 358.598376 263.805368 
L 358.704334 263.112788 
L 358.916249 264.21309 
L 359.022207 263.69967 
L 359.128165 259.59906 
L 359.34008 263.965955 
L 359.446038 262.98939 
L 359.551996 260.156856 
L 359.657954 264.127366 
L 359.763911 263.182035 
L 359.869869 263.243826 
L 359.975827 263.986568 
L 360.081785 263.217915 
L 360.187742 259.648989 
L 360.399658 263.438257 
L 360.505616 263.709927 
L 360.611573 260.099521 
L 360.823489 263.575238 
L 360.929447 262.982214 
L 361.035404 263.669815 
L 361.141362 263.280812 
L 361.24732 259.175252 
L 361.459235 263.872752 
L 361.565193 263.276727 
L 361.777109 264.262141 
L 361.883066 264.143828 
L 361.989024 263.297282 
L 362.094982 263.380749 
L 362.306897 263.806221 
L 362.518813 259.589375 
L 362.730728 263.641331 
L 362.836686 264.463996 
L 362.942644 263.769882 
L 363.048602 263.931953 
L 363.154559 263.405367 
L 363.260517 259.721192 
L 363.472433 264.548911 
L 363.57839 263.450812 
L 363.790306 264.222865 
L 363.896263 263.710382 
L 364.108179 263.929354 
L 364.214137 263.945616 
L 364.426052 264.382003 
L 364.53201 264.310213 
L 364.637968 263.609565 
L 364.743925 263.949488 
L 364.849883 263.411568 
L 364.955841 264.131877 
L 365.061799 263.334371 
L 365.273714 264.276055 
L 365.379672 264.499702 
L 365.591587 263.68458 
L 365.697545 264.295349 
L 365.803503 259.573945 
L 366.015418 263.853093 
L 366.121376 259.507413 
L 366.227334 263.682219 
L 366.333292 262.984045 
L 366.439249 263.673426 
L 366.545207 258.876494 
L 366.651165 259.954864 
L 366.86308 264.262084 
L 366.969038 263.206066 
L 367.074996 264.086984 
L 367.286911 252.132946 
L 367.498827 207.755134 
L 367.604785 218.489932 
L 367.8167 82.727673 
L 367.922658 84.293844 
L 368.134573 120.812429 
L 368.240531 110.474936 
L 368.346489 205.072081 
L 368.558404 53.952523 
L 368.664362 258.985998 
L 368.77032 225.690176 
L 368.982235 258.286607 
L 369.088193 260.796991 
L 369.194151 259.26776 
L 369.406066 263.387929 
L 369.512024 263.263058 
L 369.72394 262.276336 
L 369.935855 263.963742 
L 370.041813 264.102257 
L 370.147771 263.414056 
L 370.253728 264.327299 
L 370.359686 263.387723 
L 370.465644 260.122267 
L 370.571602 263.283453 
L 370.783517 259.104121 
L 370.995433 263.256662 
L 371.10139 263.354466 
L 371.207348 263.049197 
L 371.313306 263.315678 
L 371.419264 262.798781 
L 371.631179 263.820987 
L 371.843095 263.005308 
L 371.949052 259.472168 
L 372.160968 263.958353 
L 372.266926 263.642053 
L 372.372883 263.83783 
L 372.478841 262.992789 
L 372.584799 263.984541 
L 372.690757 263.408881 
L 372.796714 258.74393 
L 373.00863 263.953678 
L 373.114588 264.205493 
L 373.326503 262.459263 
L 373.432461 263.666108 
L 373.538419 262.37137 
L 373.644376 263.830587 
L 373.750334 258.345837 
L 373.856292 263.788268 
L 373.96225 263.763483 
L 374.068207 259.018231 
L 374.174165 262.710869 
L 374.280123 259.535805 
L 374.492038 264.243366 
L 374.597996 255.804778 
L 374.915869 263.342948 
L 375.021827 264.153567 
L 375.127785 263.416922 
L 375.233743 264.273503 
L 375.3397 263.143507 
L 375.445658 263.534683 
L 375.551616 259.018961 
L 375.763531 263.972629 
L 375.869489 259.480947 
L 376.081405 264.124717 
L 376.187362 263.616837 
L 376.29332 260.540054 
L 376.399278 263.258071 
L 376.611193 262.030912 
L 376.717151 262.880382 
L 376.929067 255.501615 
L 377.035024 258.886413 
L 377.140982 257.831603 
L 377.24694 262.390819 
L 377.352898 257.229538 
L 377.352898 257.229538 
" style="fill:none;stroke:#1f77b4;stroke-linecap:square;stroke-width:1.5;"/>
   </g>
   <g id="patch_3">
    <path d="M 36.465625 276.812 
L 36.465625 10.7 
" style="fill:none;stroke:#000000;stroke-linecap:square;stroke-linejoin:miter;stroke-width:0.8;"/>
   </g>
   <g id="patch_4">
    <path d="M 393.585625 276.812 
L 393.585625 10.7 
" style="fill:none;stroke:#000000;stroke-linecap:square;stroke-linejoin:miter;stroke-width:0.8;"/>
   </g>
   <g id="patch_5">
    <path d="M 36.465625 276.812 
L 393.585625 276.812 
" style="fill:none;stroke:#000000;stroke-linecap:square;stroke-linejoin:miter;stroke-width:0.8;"/>
   </g>
   <g id="patch_6">
    <path d="M 36.465625 10.7 
L 393.585625 10.7 
" style="fill:none;stroke:#000000;stroke-linecap:square;stroke-linejoin:miter;stroke-width:0.8;"/>
   </g>
  </g>
 </g>
 <defs>
  <clipPath id="p8a018bdc80">
   <rect height="266.112" width="357.12" x="36.465625" y="10.7"/>
  </clipPath>
 </defs>
</svg>
