<?xml version="1.0" encoding="utf-8" standalone="no"?>
<!DOCTYPE svg PUBLIC "-//W3C//DTD SVG 1.1//EN"
  "http://www.w3.org/Graphics/SVG/1.1/DTD/svg11.dtd">
<!-- Created with matplotlib (http://matplotlib.org/) -->
<svg height="252.018125pt" version="1.1" viewBox="0 0 375.603125 252.018125" width="375.603125pt" xmlns="http://www.w3.org/2000/svg" xmlns:xlink="http://www.w3.org/1999/xlink">
 <defs>
  <style type="text/css">
*{stroke-linecap:butt;stroke-linejoin:round;}
  </style>
 </defs>
 <g id="figure_1">
  <g id="patch_1">
   <path d="M 0 252.018125 
L 375.603125 252.018125 
L 375.603125 0 
L 0 0 
z
" style="fill:#ffffff;"/>
  </g>
  <g id="axes_1">
   <g id="patch_2">
    <path d="M 30.103125 228.14 
L 364.903125 228.14 
L 364.903125 10.7 
L 30.103125 10.7 
z
" style="fill:#ffffff;"/>
   </g>
   <g id="matplotlib.axis_1">
    <g id="xtick_1">
     <g id="line2d_1">
      <defs>
       <path d="M 0 0 
L 0 3.5 
" id="m9705ac8d45" style="stroke:#000000;stroke-width:0.8;"/>
      </defs>
      <g>
       <use style="stroke:#000000;stroke-width:0.8;" x="45.321307" xlink:href="#m9705ac8d45" y="228.14"/>
      </g>
     </g>
     <g id="text_1">
      <!-- 0 -->
      <defs>
       <path d="M 31.78125 66.40625 
Q 24.171875 66.40625 20.328125 58.90625 
Q 16.5 51.421875 16.5 36.375 
Q 16.5 21.390625 20.328125 13.890625 
Q 24.171875 6.390625 31.78125 6.390625 
Q 39.453125 6.390625 43.28125 13.890625 
Q 47.125 21.390625 47.125 36.375 
Q 47.125 51.421875 43.28125 58.90625 
Q 39.453125 66.40625 31.78125 66.40625 
z
M 31.78125 74.21875 
Q 44.046875 74.21875 50.515625 64.515625 
Q 56.984375 54.828125 56.984375 36.375 
Q 56.984375 17.96875 50.515625 8.265625 
Q 44.046875 -1.421875 31.78125 -1.421875 
Q 19.53125 -1.421875 13.0625 8.265625 
Q 6.59375 17.96875 6.59375 36.375 
Q 6.59375 54.828125 13.0625 64.515625 
Q 19.53125 74.21875 31.78125 74.21875 
z
" id="DejaVuSans-30"/>
      </defs>
      <g transform="translate(42.140057 242.738437)scale(0.1 -0.1)">
       <use xlink:href="#DejaVuSans-30"/>
      </g>
     </g>
    </g>
    <g id="xtick_2">
     <g id="line2d_2">
      <g>
       <use style="stroke:#000000;stroke-width:0.8;" x="89.114636" xlink:href="#m9705ac8d45" y="228.14"/>
      </g>
     </g>
     <g id="text_2">
      <!-- 100 -->
      <defs>
       <path d="M 12.40625 8.296875 
L 28.515625 8.296875 
L 28.515625 63.921875 
L 10.984375 60.40625 
L 10.984375 69.390625 
L 28.421875 72.90625 
L 38.28125 72.90625 
L 38.28125 8.296875 
L 54.390625 8.296875 
L 54.390625 0 
L 12.40625 0 
z
" id="DejaVuSans-31"/>
      </defs>
      <g transform="translate(79.570886 242.738437)scale(0.1 -0.1)">
       <use xlink:href="#DejaVuSans-31"/>
       <use x="63.623047" xlink:href="#DejaVuSans-30"/>
       <use x="127.246094" xlink:href="#DejaVuSans-30"/>
      </g>
     </g>
    </g>
    <g id="xtick_3">
     <g id="line2d_3">
      <g>
       <use style="stroke:#000000;stroke-width:0.8;" x="132.907965" xlink:href="#m9705ac8d45" y="228.14"/>
      </g>
     </g>
     <g id="text_3">
      <!-- 200 -->
      <defs>
       <path d="M 19.1875 8.296875 
L 53.609375 8.296875 
L 53.609375 0 
L 7.328125 0 
L 7.328125 8.296875 
Q 12.9375 14.109375 22.625 23.890625 
Q 32.328125 33.6875 34.8125 36.53125 
Q 39.546875 41.84375 41.421875 45.53125 
Q 43.3125 49.21875 43.3125 52.78125 
Q 43.3125 58.59375 39.234375 62.25 
Q 35.15625 65.921875 28.609375 65.921875 
Q 23.96875 65.921875 18.8125 64.3125 
Q 13.671875 62.703125 7.8125 59.421875 
L 7.8125 69.390625 
Q 13.765625 71.78125 18.9375 73 
Q 24.125 74.21875 28.421875 74.21875 
Q 39.75 74.21875 46.484375 68.546875 
Q 53.21875 62.890625 53.21875 53.421875 
Q 53.21875 48.921875 51.53125 44.890625 
Q 49.859375 40.875 45.40625 35.40625 
Q 44.1875 33.984375 37.640625 27.21875 
Q 31.109375 20.453125 19.1875 8.296875 
z
" id="DejaVuSans-32"/>
      </defs>
      <g transform="translate(123.364215 242.738437)scale(0.1 -0.1)">
       <use xlink:href="#DejaVuSans-32"/>
       <use x="63.623047" xlink:href="#DejaVuSans-30"/>
       <use x="127.246094" xlink:href="#DejaVuSans-30"/>
      </g>
     </g>
    </g>
    <g id="xtick_4">
     <g id="line2d_4">
      <g>
       <use style="stroke:#000000;stroke-width:0.8;" x="176.701294" xlink:href="#m9705ac8d45" y="228.14"/>
      </g>
     </g>
     <g id="text_4">
      <!-- 300 -->
      <defs>
       <path d="M 40.578125 39.3125 
Q 47.65625 37.796875 51.625 33 
Q 55.609375 28.21875 55.609375 21.1875 
Q 55.609375 10.40625 48.1875 4.484375 
Q 40.765625 -1.421875 27.09375 -1.421875 
Q 22.515625 -1.421875 17.65625 -0.515625 
Q 12.796875 0.390625 7.625 2.203125 
L 7.625 11.71875 
Q 11.71875 9.328125 16.59375 8.109375 
Q 21.484375 6.890625 26.8125 6.890625 
Q 36.078125 6.890625 40.9375 10.546875 
Q 45.796875 14.203125 45.796875 21.1875 
Q 45.796875 27.640625 41.28125 31.265625 
Q 36.765625 34.90625 28.71875 34.90625 
L 20.21875 34.90625 
L 20.21875 43.015625 
L 29.109375 43.015625 
Q 36.375 43.015625 40.234375 45.921875 
Q 44.09375 48.828125 44.09375 54.296875 
Q 44.09375 59.90625 40.109375 62.90625 
Q 36.140625 65.921875 28.71875 65.921875 
Q 24.65625 65.921875 20.015625 65.03125 
Q 15.375 64.15625 9.8125 62.3125 
L 9.8125 71.09375 
Q 15.4375 72.65625 20.34375 73.4375 
Q 25.25 74.21875 29.59375 74.21875 
Q 40.828125 74.21875 47.359375 69.109375 
Q 53.90625 64.015625 53.90625 55.328125 
Q 53.90625 49.265625 50.4375 45.09375 
Q 46.96875 40.921875 40.578125 39.3125 
z
" id="DejaVuSans-33"/>
      </defs>
      <g transform="translate(167.157544 242.738437)scale(0.1 -0.1)">
       <use xlink:href="#DejaVuSans-33"/>
       <use x="63.623047" xlink:href="#DejaVuSans-30"/>
       <use x="127.246094" xlink:href="#DejaVuSans-30"/>
      </g>
     </g>
    </g>
    <g id="xtick_5">
     <g id="line2d_5">
      <g>
       <use style="stroke:#000000;stroke-width:0.8;" x="220.494623" xlink:href="#m9705ac8d45" y="228.14"/>
      </g>
     </g>
     <g id="text_5">
      <!-- 400 -->
      <defs>
       <path d="M 37.796875 64.3125 
L 12.890625 25.390625 
L 37.796875 25.390625 
z
M 35.203125 72.90625 
L 47.609375 72.90625 
L 47.609375 25.390625 
L 58.015625 25.390625 
L 58.015625 17.1875 
L 47.609375 17.1875 
L 47.609375 0 
L 37.796875 0 
L 37.796875 17.1875 
L 4.890625 17.1875 
L 4.890625 26.703125 
z
" id="DejaVuSans-34"/>
      </defs>
      <g transform="translate(210.950873 242.738437)scale(0.1 -0.1)">
       <use xlink:href="#DejaVuSans-34"/>
       <use x="63.623047" xlink:href="#DejaVuSans-30"/>
       <use x="127.246094" xlink:href="#DejaVuSans-30"/>
      </g>
     </g>
    </g>
    <g id="xtick_6">
     <g id="line2d_6">
      <g>
       <use style="stroke:#000000;stroke-width:0.8;" x="264.287952" xlink:href="#m9705ac8d45" y="228.14"/>
      </g>
     </g>
     <g id="text_6">
      <!-- 500 -->
      <defs>
       <path d="M 10.796875 72.90625 
L 49.515625 72.90625 
L 49.515625 64.59375 
L 19.828125 64.59375 
L 19.828125 46.734375 
Q 21.96875 47.46875 24.109375 47.828125 
Q 26.265625 48.1875 28.421875 48.1875 
Q 40.625 48.1875 47.75 41.5 
Q 54.890625 34.8125 54.890625 23.390625 
Q 54.890625 11.625 47.5625 5.09375 
Q 40.234375 -1.421875 26.90625 -1.421875 
Q 22.3125 -1.421875 17.546875 -0.640625 
Q 12.796875 0.140625 7.71875 1.703125 
L 7.71875 11.625 
Q 12.109375 9.234375 16.796875 8.0625 
Q 21.484375 6.890625 26.703125 6.890625 
Q 35.15625 6.890625 40.078125 11.328125 
Q 45.015625 15.765625 45.015625 23.390625 
Q 45.015625 31 40.078125 35.4375 
Q 35.15625 39.890625 26.703125 39.890625 
Q 22.75 39.890625 18.8125 39.015625 
Q 14.890625 38.140625 10.796875 36.28125 
z
" id="DejaVuSans-35"/>
      </defs>
      <g transform="translate(254.744202 242.738437)scale(0.1 -0.1)">
       <use xlink:href="#DejaVuSans-35"/>
       <use x="63.623047" xlink:href="#DejaVuSans-30"/>
       <use x="127.246094" xlink:href="#DejaVuSans-30"/>
      </g>
     </g>
    </g>
    <g id="xtick_7">
     <g id="line2d_7">
      <g>
       <use style="stroke:#000000;stroke-width:0.8;" x="308.081281" xlink:href="#m9705ac8d45" y="228.14"/>
      </g>
     </g>
     <g id="text_7">
      <!-- 600 -->
      <defs>
       <path d="M 33.015625 40.375 
Q 26.375 40.375 22.484375 35.828125 
Q 18.609375 31.296875 18.609375 23.390625 
Q 18.609375 15.53125 22.484375 10.953125 
Q 26.375 6.390625 33.015625 6.390625 
Q 39.65625 6.390625 43.53125 10.953125 
Q 47.40625 15.53125 47.40625 23.390625 
Q 47.40625 31.296875 43.53125 35.828125 
Q 39.65625 40.375 33.015625 40.375 
z
M 52.59375 71.296875 
L 52.59375 62.3125 
Q 48.875 64.0625 45.09375 64.984375 
Q 41.3125 65.921875 37.59375 65.921875 
Q 27.828125 65.921875 22.671875 59.328125 
Q 17.53125 52.734375 16.796875 39.40625 
Q 19.671875 43.65625 24.015625 45.921875 
Q 28.375 48.1875 33.59375 48.1875 
Q 44.578125 48.1875 50.953125 41.515625 
Q 57.328125 34.859375 57.328125 23.390625 
Q 57.328125 12.15625 50.6875 5.359375 
Q 44.046875 -1.421875 33.015625 -1.421875 
Q 20.359375 -1.421875 13.671875 8.265625 
Q 6.984375 17.96875 6.984375 36.375 
Q 6.984375 53.65625 15.1875 63.9375 
Q 23.390625 74.21875 37.203125 74.21875 
Q 40.921875 74.21875 44.703125 73.484375 
Q 48.484375 72.75 52.59375 71.296875 
z
" id="DejaVuSans-36"/>
      </defs>
      <g transform="translate(298.537531 242.738437)scale(0.1 -0.1)">
       <use xlink:href="#DejaVuSans-36"/>
       <use x="63.623047" xlink:href="#DejaVuSans-30"/>
       <use x="127.246094" xlink:href="#DejaVuSans-30"/>
      </g>
     </g>
    </g>
    <g id="xtick_8">
     <g id="line2d_8">
      <g>
       <use style="stroke:#000000;stroke-width:0.8;" x="351.87461" xlink:href="#m9705ac8d45" y="228.14"/>
      </g>
     </g>
     <g id="text_8">
      <!-- 700 -->
      <defs>
       <path d="M 8.203125 72.90625 
L 55.078125 72.90625 
L 55.078125 68.703125 
L 28.609375 0 
L 18.3125 0 
L 43.21875 64.59375 
L 8.203125 64.59375 
z
" id="DejaVuSans-37"/>
      </defs>
      <g transform="translate(342.33086 242.738437)scale(0.1 -0.1)">
       <use xlink:href="#DejaVuSans-37"/>
       <use x="63.623047" xlink:href="#DejaVuSans-30"/>
       <use x="127.246094" xlink:href="#DejaVuSans-30"/>
      </g>
     </g>
    </g>
   </g>
   <g id="matplotlib.axis_2">
    <g id="ytick_1">
     <g id="line2d_9">
      <defs>
       <path d="M 0 0 
L -3.5 0 
" id="mb4ff81a0db" style="stroke:#000000;stroke-width:0.8;"/>
      </defs>
      <g>
       <use style="stroke:#000000;stroke-width:0.8;" x="30.103125" xlink:href="#mb4ff81a0db" y="218.402567"/>
      </g>
     </g>
     <g id="text_9">
      <!-- 0.0 -->
      <defs>
       <path d="M 10.6875 12.40625 
L 21 12.40625 
L 21 0 
L 10.6875 0 
z
" id="DejaVuSans-2e"/>
      </defs>
      <g transform="translate(7.2 222.201786)scale(0.1 -0.1)">
       <use xlink:href="#DejaVuSans-30"/>
       <use x="63.623047" xlink:href="#DejaVuSans-2e"/>
       <use x="95.410156" xlink:href="#DejaVuSans-30"/>
      </g>
     </g>
    </g>
    <g id="ytick_2">
     <g id="line2d_10">
      <g>
       <use style="stroke:#000000;stroke-width:0.8;" x="30.103125" xlink:href="#mb4ff81a0db" y="190.994823"/>
      </g>
     </g>
     <g id="text_10">
      <!-- 0.5 -->
      <g transform="translate(7.2 194.794041)scale(0.1 -0.1)">
       <use xlink:href="#DejaVuSans-30"/>
       <use x="63.623047" xlink:href="#DejaVuSans-2e"/>
       <use x="95.410156" xlink:href="#DejaVuSans-35"/>
      </g>
     </g>
    </g>
    <g id="ytick_3">
     <g id="line2d_11">
      <g>
       <use style="stroke:#000000;stroke-width:0.8;" x="30.103125" xlink:href="#mb4ff81a0db" y="163.587078"/>
      </g>
     </g>
     <g id="text_11">
      <!-- 1.0 -->
      <g transform="translate(7.2 167.386297)scale(0.1 -0.1)">
       <use xlink:href="#DejaVuSans-31"/>
       <use x="63.623047" xlink:href="#DejaVuSans-2e"/>
       <use x="95.410156" xlink:href="#DejaVuSans-30"/>
      </g>
     </g>
    </g>
    <g id="ytick_4">
     <g id="line2d_12">
      <g>
       <use style="stroke:#000000;stroke-width:0.8;" x="30.103125" xlink:href="#mb4ff81a0db" y="136.179334"/>
      </g>
     </g>
     <g id="text_12">
      <!-- 1.5 -->
      <g transform="translate(7.2 139.978553)scale(0.1 -0.1)">
       <use xlink:href="#DejaVuSans-31"/>
       <use x="63.623047" xlink:href="#DejaVuSans-2e"/>
       <use x="95.410156" xlink:href="#DejaVuSans-35"/>
      </g>
     </g>
    </g>
    <g id="ytick_5">
     <g id="line2d_13">
      <g>
       <use style="stroke:#000000;stroke-width:0.8;" x="30.103125" xlink:href="#mb4ff81a0db" y="108.77159"/>
      </g>
     </g>
     <g id="text_13">
      <!-- 2.0 -->
      <g transform="translate(7.2 112.570808)scale(0.1 -0.1)">
       <use xlink:href="#DejaVuSans-32"/>
       <use x="63.623047" xlink:href="#DejaVuSans-2e"/>
       <use x="95.410156" xlink:href="#DejaVuSans-30"/>
      </g>
     </g>
    </g>
    <g id="ytick_6">
     <g id="line2d_14">
      <g>
       <use style="stroke:#000000;stroke-width:0.8;" x="30.103125" xlink:href="#mb4ff81a0db" y="81.363845"/>
      </g>
     </g>
     <g id="text_14">
      <!-- 2.5 -->
      <g transform="translate(7.2 85.163064)scale(0.1 -0.1)">
       <use xlink:href="#DejaVuSans-32"/>
       <use x="63.623047" xlink:href="#DejaVuSans-2e"/>
       <use x="95.410156" xlink:href="#DejaVuSans-35"/>
      </g>
     </g>
    </g>
    <g id="ytick_7">
     <g id="line2d_15">
      <g>
       <use style="stroke:#000000;stroke-width:0.8;" x="30.103125" xlink:href="#mb4ff81a0db" y="53.956101"/>
      </g>
     </g>
     <g id="text_15">
      <!-- 3.0 -->
      <g transform="translate(7.2 57.75532)scale(0.1 -0.1)">
       <use xlink:href="#DejaVuSans-33"/>
       <use x="63.623047" xlink:href="#DejaVuSans-2e"/>
       <use x="95.410156" xlink:href="#DejaVuSans-30"/>
      </g>
     </g>
    </g>
    <g id="ytick_8">
     <g id="line2d_16">
      <g>
       <use style="stroke:#000000;stroke-width:0.8;" x="30.103125" xlink:href="#mb4ff81a0db" y="26.548357"/>
      </g>
     </g>
     <g id="text_16">
      <!-- 3.5 -->
      <g transform="translate(7.2 30.347575)scale(0.1 -0.1)">
       <use xlink:href="#DejaVuSans-33"/>
       <use x="63.623047" xlink:href="#DejaVuSans-2e"/>
       <use x="95.410156" xlink:href="#DejaVuSans-35"/>
      </g>
     </g>
    </g>
   </g>
   <g id="line2d_17">
    <path clip-path="url(#pf03b5daefd)" d="M 45.321307 216.907843 
L 45.75924 208.337093 
L 46.197173 212.466716 
L 46.635107 183.765377 
L 47.07304 27.388143 
L 47.510973 181.904864 
L 47.948907 173.055128 
L 48.38684 126.43642 
L 49.262706 181.092648 
L 49.70064 192.939821 
L 50.138573 148.885958 
L 50.576506 162.311524 
L 51.01444 158.578169 
L 51.452373 136.663823 
L 51.890306 102.272686 
L 52.328239 52.788398 
L 52.766173 94.764436 
L 53.204106 67.447131 
L 53.642039 150.690384 
L 54.079973 181.103036 
L 54.955839 190.362178 
L 55.393772 181.731015 
L 55.831706 199.1321 
L 56.269639 191.188374 
L 56.707572 191.174209 
L 57.145506 191.525645 
L 57.583439 187.208835 
L 58.021372 180.721134 
L 58.459306 164.445381 
L 58.897239 158.436524 
L 59.335172 154.119932 
L 59.773105 157.253388 
L 60.211039 191.236801 
L 60.648972 205.944554 
L 61.086905 163.810256 
L 61.524839 189.171053 
L 61.962772 178.06693 
L 62.400705 200.014152 
L 62.838638 155.542101 
L 63.276572 199.599219 
L 63.714505 214.063216 
L 64.152438 208.405137 
L 64.590372 211.422347 
L 65.028305 195.221945 
L 65.466238 140.411246 
L 65.904171 116.885533 
L 66.342105 192.549256 
L 66.780038 167.621335 
L 67.655905 212.812926 
L 68.093838 155.146965 
L 68.531771 134.517647 
L 68.969704 147.188989 
L 69.407638 148.319023 
L 69.845571 154.399928 
L 70.283504 139.65762 
L 70.721438 152.651324 
L 71.159371 158.444788 
L 71.597304 44.861252 
L 72.035237 188.14465 
L 72.473171 186.517814 
L 72.911104 176.157943 
L 73.349037 175.594493 
L 73.786971 201.020163 
L 74.224904 188.789018 
L 74.662837 134.040599 
L 75.100771 185.08701 
L 75.538704 202.024715 
L 75.976637 179.859863 
L 76.41457 150.530012 
L 76.852504 160.577227 
L 77.290437 163.124672 
L 77.72837 193.122978 
L 78.166304 192.209138 
L 78.604237 193.766855 
L 79.04217 121.348015 
L 79.480103 202.869812 
L 79.918037 210.644209 
L 80.35597 209.649943 
L 80.793903 213.896592 
L 81.231837 213.809784 
L 81.66977 215.243969 
L 82.107703 217.293214 
L 82.545636 217.143795 
L 82.98357 216.517117 
L 83.421503 214.125691 
L 83.859436 196.452966 
L 84.735303 212.569322 
L 85.173236 214.505135 
L 85.611169 189.124781 
L 86.049103 173.606578 
L 86.487036 83.425101 
L 86.924969 195.826858 
L 87.362903 182.962486 
L 87.800836 187.214797 
L 88.238769 199.818513 
L 88.676703 149.192315 
L 89.114636 197.654306 
L 89.552569 90.975025 
L 89.990502 68.499588 
L 90.866369 196.248169 
L 91.304302 143.969234 
L 91.742236 199.695155 
L 92.180169 198.914408 
L 92.618102 197.302768 
L 93.056035 188.026017 
L 93.493969 185.972324 
L 93.931902 201.421882 
L 94.807769 214.127061 
L 95.245702 214.324185 
L 95.683635 215.836448 
L 96.121568 212.518051 
L 96.559502 215.424368 
L 96.997435 216.29025 
L 97.873302 217.266915 
L 98.311235 214.62189 
L 98.749168 217.982887 
L 99.187101 216.737227 
L 99.625035 217.216283 
L 100.062968 215.229205 
L 100.500901 217.153335 
L 100.938835 216.490378 
L 101.376768 217.005675 
L 101.814701 216.809172 
L 102.252634 215.544094 
L 102.690568 215.817926 
L 103.128501 215.666372 
L 103.566434 216.235387 
L 104.004368 215.955593 
L 104.442301 216.234997 
L 105.318168 214.976595 
L 105.756101 216.797086 
L 106.194034 217.183045 
L 106.631967 217.006404 
L 107.945767 217.633519 
L 108.383701 216.667773 
L 108.821634 217.424246 
L 109.259567 216.150622 
L 109.6975 217.012154 
L 110.135434 217.479498 
L 110.573367 217.042475 
L 111.449234 214.342142 
L 111.887167 216.850505 
L 112.3251 215.185862 
L 113.200967 214.360253 
L 113.6389 215.74133 
L 114.076833 216.139504 
L 114.514767 217.528603 
L 114.9527 217.314241 
L 115.390633 216.036664 
L 115.828566 215.262632 
L 116.2665 214.897883 
L 116.704433 217.376767 
L 117.142366 217.308983 
L 117.5803 217.361341 
L 118.018233 215.488313 
L 118.894099 214.975264 
L 119.332033 214.961556 
L 119.769966 215.452273 
L 120.207899 216.359493 
L 120.645833 215.318203 
L 121.521699 216.837083 
L 121.959633 217.163344 
L 122.397566 215.545409 
L 122.835499 217.381891 
L 123.273432 216.858318 
L 123.711366 217.315198 
L 124.149299 215.089061 
L 124.587232 217.246244 
L 125.025166 217.855807 
L 125.463099 217.519471 
L 126.776899 217.092413 
L 127.214832 217.265421 
L 127.652765 215.814174 
L 128.090699 217.978473 
L 128.528632 217.612492 
L 128.966565 216.828457 
L 129.842432 216.153173 
L 130.280365 215.280486 
L 130.718298 217.971353 
L 131.594165 215.565327 
L 132.032098 215.312242 
L 132.470031 214.557418 
L 133.345898 215.791405 
L 133.783831 215.83061 
L 134.221765 216.653183 
L 134.659698 215.768621 
L 135.097631 217.187471 
L 135.535565 216.64993 
L 135.973498 217.095258 
L 136.411431 215.8592 
L 136.849364 217.977194 
L 137.287298 216.014828 
L 137.725231 217.843385 
L 138.163164 217.107012 
L 138.601098 217.922763 
L 139.039031 216.573012 
L 139.914897 217.749912 
L 140.790764 215.331554 
L 141.228697 214.144092 
L 141.666631 216.235741 
L 142.104564 216.600785 
L 142.542497 217.503784 
L 143.418364 215.452462 
L 143.856297 217.578734 
L 144.29423 215.995418 
L 144.732164 218.256364 
L 145.170097 217.180638 
L 145.60803 216.902282 
L 146.045963 215.91096 
L 146.483897 216.369369 
L 147.359763 215.702448 
L 147.797697 217.38549 
L 148.23563 216.193202 
L 148.673563 216.486306 
L 149.111496 216.492868 
L 149.54943 216.313996 
L 149.987363 217.084057 
L 150.425296 215.716392 
L 150.86323 216.564161 
L 151.301163 214.948696 
L 151.739096 214.747958 
L 152.17703 214.799849 
L 152.614963 217.427554 
L 153.052896 218.083203 
L 153.490829 216.878488 
L 153.928763 216.854237 
L 154.366696 217.263758 
L 154.804629 214.351346 
L 155.242563 216.44163 
L 155.680496 216.840762 
L 156.118429 217.848602 
L 156.556362 216.784764 
L 156.994296 214.99558 
L 157.432229 215.730143 
L 157.870162 214.5743 
L 158.308096 216.908715 
L 158.746029 217.528296 
L 159.183962 215.356552 
L 159.621895 214.58439 
L 160.059829 214.858864 
L 160.497762 217.274348 
L 160.935695 217.144967 
L 161.373629 214.488411 
L 162.249495 214.496437 
L 162.687428 216.87115 
L 163.563295 216.216012 
L 164.439162 215.529739 
L 164.877095 215.26691 
L 165.315028 217.181636 
L 165.752961 218.002782 
L 166.190895 215.422264 
L 166.628828 215.744016 
L 167.066761 216.544475 
L 167.942628 217.105376 
L 168.380561 216.410117 
L 168.818495 216.322129 
L 169.256428 217.856776 
L 169.694361 218.075479 
L 170.132294 217.919308 
L 170.570228 216.329815 
L 171.008161 217.478723 
L 171.446094 218.070729 
L 171.884028 215.972637 
L 172.759894 217.378703 
L 173.197827 217.898982 
L 173.635761 215.941944 
L 174.073694 218.015174 
L 174.511627 217.860544 
L 175.387494 216.167064 
L 175.825427 217.230566 
L 176.701294 216.933908 
L 177.139227 216.266997 
L 177.57716 217.010197 
L 178.015094 216.710291 
L 178.453027 217.379398 
L 179.328893 215.80253 
L 179.766827 215.494716 
L 180.20476 215.024606 
L 180.642693 215.879249 
L 181.080627 216.375828 
L 181.51856 217.736592 
L 181.956493 217.239003 
L 182.394427 216.359189 
L 182.83236 216.465647 
L 183.270293 215.802251 
L 183.708226 217.638181 
L 184.14616 215.010273 
L 184.584093 216.281432 
L 185.022026 215.852932 
L 185.45996 216.673144 
L 185.897893 216.254576 
L 186.335826 217.025163 
L 186.773759 217.399029 
L 187.211693 217.521183 
L 187.649626 217.01937 
L 188.087559 215.733584 
L 188.525493 216.189681 
L 188.963426 217.366668 
L 189.401359 216.555492 
L 189.839292 218.032778 
L 190.277226 216.510267 
L 190.715159 217.981482 
L 191.591026 214.411027 
L 192.028959 215.958977 
L 192.466892 216.90436 
L 192.904825 215.743369 
L 193.342759 215.966587 
L 193.780692 217.043144 
L 194.218625 216.379483 
L 194.656559 216.769144 
L 195.094492 214.853253 
L 195.532425 216.456409 
L 195.970358 215.489085 
L 196.408292 215.054882 
L 197.284158 216.401658 
L 197.722092 215.572585 
L 198.160025 215.960783 
L 198.597958 215.244412 
L 199.473825 215.649106 
L 199.911758 215.681707 
L 200.349691 216.587606 
L 200.787625 216.28341 
L 201.225558 216.535683 
L 201.663491 216.428119 
L 202.101425 217.523783 
L 202.539358 216.49688 
L 202.977291 217.206993 
L 203.415224 215.796736 
L 203.853158 215.506173 
L 204.291091 216.876598 
L 204.729024 215.519602 
L 205.166958 216.210597 
L 205.604891 215.976979 
L 206.042824 218.057708 
L 206.480757 217.603228 
L 206.918691 216.039386 
L 207.356624 215.945097 
L 207.794557 215.709526 
L 208.232491 217.031133 
L 208.670424 217.01203 
L 209.108357 216.528231 
L 209.54629 217.207418 
L 209.984224 215.204731 
L 210.422157 217.468108 
L 210.86009 217.734193 
L 211.298024 216.500865 
L 211.735957 216.85079 
L 212.611823 216.376456 
L 213.049757 217.644945 
L 213.48769 217.478439 
L 213.925623 216.89962 
L 214.363557 216.953809 
L 214.80149 217.711808 
L 215.677357 216.580672 
L 216.11529 216.866492 
L 216.553223 215.93225 
L 216.991156 218.115277 
L 217.42909 217.576245 
L 217.867023 216.568224 
L 218.304956 214.950705 
L 218.74289 214.535395 
L 219.180823 216.833705 
L 219.618756 217.819552 
L 220.056689 215.596826 
L 220.494623 216.018991 
L 220.932556 216.656946 
L 221.370489 217.795458 
L 221.808423 216.128673 
L 222.246356 216.362564 
L 222.684289 216.198601 
L 223.122222 216.814697 
L 223.560156 216.759555 
L 223.998089 216.50219 
L 224.436022 217.768382 
L 224.873956 217.056834 
L 225.311889 217.465521 
L 225.749822 217.580829 
L 226.187755 214.356104 
L 226.625689 214.186371 
L 227.063622 216.259287 
L 227.939489 215.513053 
L 228.377422 214.898126 
L 228.815355 215.371952 
L 229.253289 216.334917 
L 229.691222 215.160485 
L 230.129155 215.300427 
L 230.567088 215.612745 
L 231.005022 215.736826 
L 231.442955 217.821798 
L 231.880888 216.034332 
L 232.318822 215.121031 
L 232.756755 217.590422 
L 233.194688 215.977887 
L 233.632621 215.561929 
L 234.070555 217.826074 
L 234.508488 216.263601 
L 234.946421 217.126654 
L 235.384355 215.835706 
L 235.822288 216.556715 
L 236.260221 217.921705 
L 236.698154 216.673691 
L 237.136088 216.638798 
L 237.574021 216.814316 
L 238.011954 217.516506 
L 238.449888 215.374791 
L 238.887821 218.004613 
L 239.325754 216.180697 
L 239.763687 217.740635 
L 240.201621 217.606626 
L 241.077487 217.966432 
L 241.515421 216.263857 
L 241.953354 217.473706 
L 242.391287 216.111001 
L 242.82922 217.639426 
L 243.267154 216.318045 
L 243.705087 216.318454 
L 244.14302 216.828216 
L 244.580954 209.976506 
L 245.45682 215.46738 
L 245.894754 211.220897 
L 246.332687 216.936203 
L 246.77062 209.817977 
L 247.208553 211.378399 
L 247.646487 213.543295 
L 248.08442 214.721907 
L 248.522353 209.250621 
L 248.960287 212.568339 
L 249.39822 208.409329 
L 249.836153 216.528586 
L 250.274086 204.236306 
L 250.71202 213.061665 
L 251.149953 205.859775 
L 251.587886 212.862999 
L 252.463753 207.575141 
L 252.901686 213.965016 
L 253.339619 212.772582 
L 253.777553 217.804947 
L 254.215486 217.535823 
L 254.653419 218.138067 
L 255.529286 218.15828 
L 255.967219 217.945028 
L 256.405152 217.914894 
L 256.843086 218.153184 
L 257.718952 218.135828 
L 258.156886 217.885684 
L 258.594819 217.374996 
L 259.032752 217.28161 
L 259.908619 215.238232 
L 260.346552 214.832333 
L 260.784485 214.881921 
L 261.222419 214.437328 
L 261.660352 215.980865 
L 262.536219 217.147266 
L 262.974152 215.443813 
L 263.412085 216.853032 
L 263.850018 217.771488 
L 264.287952 216.001654 
L 264.725885 217.588146 
L 265.163818 217.453981 
L 265.601752 216.070883 
L 266.039685 217.11168 
L 266.477618 217.14232 
L 266.915551 214.100541 
L 267.353485 216.459946 
L 267.791418 214.979934 
L 268.229351 215.452783 
L 268.667285 216.544272 
L 269.105218 215.700187 
L 269.543151 216.176163 
L 269.981084 216.123329 
L 270.419018 217.015252 
L 270.856951 217.183735 
L 271.294884 216.184769 
L 271.732818 217.388457 
L 272.170751 217.671457 
L 272.608684 217.324058 
L 273.046617 216.302912 
L 273.484551 216.764001 
L 273.922484 217.607704 
L 274.360417 215.243986 
L 274.798351 216.836553 
L 275.236284 213.142429 
L 275.674217 214.084139 
L 276.112151 215.767329 
L 276.550084 215.554785 
L 277.42595 217.944657 
L 277.863884 217.892006 
L 278.301817 218.173564 
L 278.73975 218.172808 
L 279.177684 217.673666 
L 279.615617 217.930384 
L 280.05355 218.028927 
L 280.491483 218.246264 
L 280.929417 218.116026 
L 281.36735 217.830704 
L 281.805283 216.793544 
L 282.68115 217.969519 
L 283.119083 217.836609 
L 283.557016 217.125046 
L 283.99495 218.128665 
L 284.432883 214.801289 
L 284.870816 215.070039 
L 285.30875 213.658543 
L 285.746683 216.645729 
L 286.184616 217.858662 
L 286.622549 216.064283 
L 287.060483 215.506922 
L 287.498416 216.553475 
L 287.936349 212.948796 
L 288.374283 213.597359 
L 288.812216 218.012154 
L 289.250149 217.496911 
L 289.688082 218.166418 
L 290.126016 217.71771 
L 290.563949 217.781476 
L 291.001882 217.570002 
L 291.439816 217.756457 
L 291.877749 216.784824 
L 292.753616 218.065198 
L 293.191549 217.576454 
L 293.629482 217.444008 
L 294.067415 217.781249 
L 294.505349 217.864291 
L 294.943282 217.160348 
L 295.381215 218.03012 
L 295.819149 217.717429 
L 296.257082 217.57445 
L 296.695015 218.14891 
L 297.132948 217.983004 
L 297.570882 218.094628 
L 298.008815 217.08729 
L 298.446748 218.105627 
L 298.884682 218.194896 
L 299.322615 217.758617 
L 299.760548 216.664465 
L 300.198481 217.447934 
L 300.636415 216.154872 
L 301.074348 214.410961 
L 301.512281 217.268241 
L 301.950215 214.814221 
L 302.388148 204.978765 
L 302.826081 211.855286 
L 303.264014 211.932831 
L 303.701948 212.511547 
L 304.139881 203.488089 
L 304.577814 208.312195 
L 305.015748 163.884905 
L 305.453681 206.708157 
L 305.891614 172.993909 
L 306.329547 191.862315 
L 306.767481 171.236763 
L 307.205414 180.343726 
L 307.643347 30.942258 
L 308.081281 204.859093 
L 308.519214 213.486164 
L 308.957147 187.798798 
L 309.395081 70.560168 
L 309.833014 137.473784 
L 310.270947 179.311054 
L 311.146814 20.583636 
L 312.02268 148.42195 
L 312.460614 155.099665 
L 313.33648 130.960512 
L 313.774413 72.146374 
L 314.212347 151.952577 
L 314.65028 179.861197 
L 315.088213 182.713708 
L 315.526147 206.478974 
L 315.96408 192.102252 
L 316.402013 197.904848 
L 316.839946 197.530334 
L 317.27788 208.731751 
L 317.715813 210.700046 
L 318.153746 171.116198 
L 318.59168 162.815105 
L 319.029613 175.428393 
L 319.467546 180.140624 
L 319.905479 170.240548 
L 320.343413 190.514193 
L 320.781346 192.595977 
L 321.219279 195.560226 
L 321.657213 166.7281 
L 322.095146 191.070257 
L 323.408946 213.461563 
L 323.846879 216.729145 
L 324.284812 185.496547 
L 324.722746 190.935725 
L 325.160679 202.450652 
L 325.598612 192.992318 
L 326.036546 207.154955 
L 326.474479 202.101972 
L 326.912412 213.868145 
L 327.350345 212.832599 
L 327.788279 196.992761 
L 328.226212 159.018036 
L 328.664145 189.657076 
L 329.102079 210.808001 
L 329.540012 213.834193 
L 329.977945 213.519409 
L 330.415878 212.821148 
L 330.853812 210.55089 
L 331.291745 204.718277 
L 331.729678 215.801956 
L 332.167612 180.173839 
L 332.605545 200.61647 
L 333.043478 215.541238 
L 333.481411 215.064761 
L 333.919345 216.286768 
L 334.357278 213.361986 
L 334.795211 183.97156 
L 335.233145 183.189821 
L 335.671078 203.539283 
L 336.109011 212.303519 
L 336.546944 186.431676 
L 336.984878 179.532829 
L 337.422811 209.299767 
L 337.860744 204.305403 
L 338.298678 198.022659 
L 338.736611 169.278205 
L 339.174544 204.452225 
L 340.050411 216.082249 
L 340.488344 207.69755 
L 340.926277 203.048532 
L 341.364211 211.77336 
L 341.802144 200.359141 
L 342.240077 185.602544 
L 342.678011 208.216078 
L 343.115944 216.672047 
L 343.553877 212.972999 
L 343.99181 200.009506 
L 344.429744 211.449359 
L 344.867677 211.747683 
L 345.30561 185.79815 
L 346.181477 151.635901 
L 346.61941 190.707453 
L 347.057343 200.215331 
L 347.495277 198.062995 
L 347.93321 211.620365 
L 348.371143 208.703768 
L 348.809077 211.059812 
L 349.24701 208.588149 
L 349.684943 202.594355 
L 349.684943 202.594355 
" style="fill:none;stroke:#1f77b4;stroke-linecap:square;stroke-width:1.5;"/>
   </g>
   <g id="patch_3">
    <path d="M 30.103125 228.14 
L 30.103125 10.7 
" style="fill:none;stroke:#000000;stroke-linecap:square;stroke-linejoin:miter;stroke-width:0.8;"/>
   </g>
   <g id="patch_4">
    <path d="M 364.903125 228.14 
L 364.903125 10.7 
" style="fill:none;stroke:#000000;stroke-linecap:square;stroke-linejoin:miter;stroke-width:0.8;"/>
   </g>
   <g id="patch_5">
    <path d="M 30.103125 228.14 
L 364.903125 228.14 
" style="fill:none;stroke:#000000;stroke-linecap:square;stroke-linejoin:miter;stroke-width:0.8;"/>
   </g>
   <g id="patch_6">
    <path d="M 30.103125 10.7 
L 364.903125 10.7 
" style="fill:none;stroke:#000000;stroke-linecap:square;stroke-linejoin:miter;stroke-width:0.8;"/>
   </g>
  </g>
 </g>
 <defs>
  <clipPath id="pf03b5daefd">
   <rect height="217.44" width="334.8" x="30.103125" y="10.7"/>
  </clipPath>
 </defs>
</svg>
