<?xml version="1.0" encoding="utf-8" standalone="no"?>
<!DOCTYPE svg PUBLIC "-//W3C//DTD SVG 1.1//EN"
  "http://www.w3.org/Graphics/SVG/1.1/DTD/svg11.dtd">
<!-- Created with matplotlib (http://matplotlib.org/) -->
<svg height="300.690125pt" version="1.1" viewBox="0 0 403.901836 300.690125" width="403.901836pt" xmlns="http://www.w3.org/2000/svg" xmlns:xlink="http://www.w3.org/1999/xlink">
 <defs>
  <style type="text/css">
*{stroke-linecap:butt;stroke-linejoin:round;}
  </style>
 </defs>
 <g id="figure_1">
  <g id="patch_1">
   <path d="M 0 300.690125 
L 403.901836 300.690125 
L 403.901836 0 
L 0 0 
z
" style="fill:#ffffff;"/>
  </g>
  <g id="axes_1">
   <g id="patch_2">
    <path d="M 26.925 276.812 
L 384.045 276.812 
L 384.045 10.7 
L 26.925 10.7 
z
" style="fill:#ffffff;"/>
   </g>
   <g id="matplotlib.axis_1">
    <g id="xtick_1">
     <g id="line2d_1">
      <defs>
       <path d="M 0 0 
L 0 3.5 
" id="me40e27545c" style="stroke:#000000;stroke-width:0.8;"/>
      </defs>
      <g>
       <use style="stroke:#000000;stroke-width:0.8;" x="43.157727" xlink:href="#me40e27545c" y="276.812"/>
      </g>
     </g>
     <g id="text_1">
      <!-- 0 -->
      <defs>
       <path d="M 31.78125 66.40625 
Q 24.171875 66.40625 20.328125 58.90625 
Q 16.5 51.421875 16.5 36.375 
Q 16.5 21.390625 20.328125 13.890625 
Q 24.171875 6.390625 31.78125 6.390625 
Q 39.453125 6.390625 43.28125 13.890625 
Q 47.125 21.390625 47.125 36.375 
Q 47.125 51.421875 43.28125 58.90625 
Q 39.453125 66.40625 31.78125 66.40625 
z
M 31.78125 74.21875 
Q 44.046875 74.21875 50.515625 64.515625 
Q 56.984375 54.828125 56.984375 36.375 
Q 56.984375 17.96875 50.515625 8.265625 
Q 44.046875 -1.421875 31.78125 -1.421875 
Q 19.53125 -1.421875 13.0625 8.265625 
Q 6.59375 17.96875 6.59375 36.375 
Q 6.59375 54.828125 13.0625 64.515625 
Q 19.53125 74.21875 31.78125 74.21875 
z
" id="DejaVuSans-30"/>
      </defs>
      <g transform="translate(39.976477 291.410437)scale(0.1 -0.1)">
       <use xlink:href="#DejaVuSans-30"/>
      </g>
     </g>
    </g>
    <g id="xtick_2">
     <g id="line2d_2">
      <g>
       <use style="stroke:#000000;stroke-width:0.8;" x="91.846171" xlink:href="#me40e27545c" y="276.812"/>
      </g>
     </g>
     <g id="text_2">
      <!-- 500 -->
      <defs>
       <path d="M 10.796875 72.90625 
L 49.515625 72.90625 
L 49.515625 64.59375 
L 19.828125 64.59375 
L 19.828125 46.734375 
Q 21.96875 47.46875 24.109375 47.828125 
Q 26.265625 48.1875 28.421875 48.1875 
Q 40.625 48.1875 47.75 41.5 
Q 54.890625 34.8125 54.890625 23.390625 
Q 54.890625 11.625 47.5625 5.09375 
Q 40.234375 -1.421875 26.90625 -1.421875 
Q 22.3125 -1.421875 17.546875 -0.640625 
Q 12.796875 0.140625 7.71875 1.703125 
L 7.71875 11.625 
Q 12.109375 9.234375 16.796875 8.0625 
Q 21.484375 6.890625 26.703125 6.890625 
Q 35.15625 6.890625 40.078125 11.328125 
Q 45.015625 15.765625 45.015625 23.390625 
Q 45.015625 31 40.078125 35.4375 
Q 35.15625 39.890625 26.703125 39.890625 
Q 22.75 39.890625 18.8125 39.015625 
Q 14.890625 38.140625 10.796875 36.28125 
z
" id="DejaVuSans-35"/>
      </defs>
      <g transform="translate(82.302421 291.410437)scale(0.1 -0.1)">
       <use xlink:href="#DejaVuSans-35"/>
       <use x="63.623047" xlink:href="#DejaVuSans-30"/>
       <use x="127.246094" xlink:href="#DejaVuSans-30"/>
      </g>
     </g>
    </g>
    <g id="xtick_3">
     <g id="line2d_3">
      <g>
       <use style="stroke:#000000;stroke-width:0.8;" x="140.534616" xlink:href="#me40e27545c" y="276.812"/>
      </g>
     </g>
     <g id="text_3">
      <!-- 1000 -->
      <defs>
       <path d="M 12.40625 8.296875 
L 28.515625 8.296875 
L 28.515625 63.921875 
L 10.984375 60.40625 
L 10.984375 69.390625 
L 28.421875 72.90625 
L 38.28125 72.90625 
L 38.28125 8.296875 
L 54.390625 8.296875 
L 54.390625 0 
L 12.40625 0 
z
" id="DejaVuSans-31"/>
      </defs>
      <g transform="translate(127.809616 291.410437)scale(0.1 -0.1)">
       <use xlink:href="#DejaVuSans-31"/>
       <use x="63.623047" xlink:href="#DejaVuSans-30"/>
       <use x="127.246094" xlink:href="#DejaVuSans-30"/>
       <use x="190.869141" xlink:href="#DejaVuSans-30"/>
      </g>
     </g>
    </g>
    <g id="xtick_4">
     <g id="line2d_4">
      <g>
       <use style="stroke:#000000;stroke-width:0.8;" x="189.22306" xlink:href="#me40e27545c" y="276.812"/>
      </g>
     </g>
     <g id="text_4">
      <!-- 1500 -->
      <g transform="translate(176.49806 291.410437)scale(0.1 -0.1)">
       <use xlink:href="#DejaVuSans-31"/>
       <use x="63.623047" xlink:href="#DejaVuSans-35"/>
       <use x="127.246094" xlink:href="#DejaVuSans-30"/>
       <use x="190.869141" xlink:href="#DejaVuSans-30"/>
      </g>
     </g>
    </g>
    <g id="xtick_5">
     <g id="line2d_5">
      <g>
       <use style="stroke:#000000;stroke-width:0.8;" x="237.911504" xlink:href="#me40e27545c" y="276.812"/>
      </g>
     </g>
     <g id="text_5">
      <!-- 2000 -->
      <defs>
       <path d="M 19.1875 8.296875 
L 53.609375 8.296875 
L 53.609375 0 
L 7.328125 0 
L 7.328125 8.296875 
Q 12.9375 14.109375 22.625 23.890625 
Q 32.328125 33.6875 34.8125 36.53125 
Q 39.546875 41.84375 41.421875 45.53125 
Q 43.3125 49.21875 43.3125 52.78125 
Q 43.3125 58.59375 39.234375 62.25 
Q 35.15625 65.921875 28.609375 65.921875 
Q 23.96875 65.921875 18.8125 64.3125 
Q 13.671875 62.703125 7.8125 59.421875 
L 7.8125 69.390625 
Q 13.765625 71.78125 18.9375 73 
Q 24.125 74.21875 28.421875 74.21875 
Q 39.75 74.21875 46.484375 68.546875 
Q 53.21875 62.890625 53.21875 53.421875 
Q 53.21875 48.921875 51.53125 44.890625 
Q 49.859375 40.875 45.40625 35.40625 
Q 44.1875 33.984375 37.640625 27.21875 
Q 31.109375 20.453125 19.1875 8.296875 
z
" id="DejaVuSans-32"/>
      </defs>
      <g transform="translate(225.186504 291.410437)scale(0.1 -0.1)">
       <use xlink:href="#DejaVuSans-32"/>
       <use x="63.623047" xlink:href="#DejaVuSans-30"/>
       <use x="127.246094" xlink:href="#DejaVuSans-30"/>
       <use x="190.869141" xlink:href="#DejaVuSans-30"/>
      </g>
     </g>
    </g>
    <g id="xtick_6">
     <g id="line2d_6">
      <g>
       <use style="stroke:#000000;stroke-width:0.8;" x="286.599948" xlink:href="#me40e27545c" y="276.812"/>
      </g>
     </g>
     <g id="text_6">
      <!-- 2500 -->
      <g transform="translate(273.874948 291.410437)scale(0.1 -0.1)">
       <use xlink:href="#DejaVuSans-32"/>
       <use x="63.623047" xlink:href="#DejaVuSans-35"/>
       <use x="127.246094" xlink:href="#DejaVuSans-30"/>
       <use x="190.869141" xlink:href="#DejaVuSans-30"/>
      </g>
     </g>
    </g>
    <g id="xtick_7">
     <g id="line2d_7">
      <g>
       <use style="stroke:#000000;stroke-width:0.8;" x="335.288392" xlink:href="#me40e27545c" y="276.812"/>
      </g>
     </g>
     <g id="text_7">
      <!-- 3000 -->
      <defs>
       <path d="M 40.578125 39.3125 
Q 47.65625 37.796875 51.625 33 
Q 55.609375 28.21875 55.609375 21.1875 
Q 55.609375 10.40625 48.1875 4.484375 
Q 40.765625 -1.421875 27.09375 -1.421875 
Q 22.515625 -1.421875 17.65625 -0.515625 
Q 12.796875 0.390625 7.625 2.203125 
L 7.625 11.71875 
Q 11.71875 9.328125 16.59375 8.109375 
Q 21.484375 6.890625 26.8125 6.890625 
Q 36.078125 6.890625 40.9375 10.546875 
Q 45.796875 14.203125 45.796875 21.1875 
Q 45.796875 27.640625 41.28125 31.265625 
Q 36.765625 34.90625 28.71875 34.90625 
L 20.21875 34.90625 
L 20.21875 43.015625 
L 29.109375 43.015625 
Q 36.375 43.015625 40.234375 45.921875 
Q 44.09375 48.828125 44.09375 54.296875 
Q 44.09375 59.90625 40.109375 62.90625 
Q 36.140625 65.921875 28.71875 65.921875 
Q 24.65625 65.921875 20.015625 65.03125 
Q 15.375 64.15625 9.8125 62.3125 
L 9.8125 71.09375 
Q 15.4375 72.65625 20.34375 73.4375 
Q 25.25 74.21875 29.59375 74.21875 
Q 40.828125 74.21875 47.359375 69.109375 
Q 53.90625 64.015625 53.90625 55.328125 
Q 53.90625 49.265625 50.4375 45.09375 
Q 46.96875 40.921875 40.578125 39.3125 
z
" id="DejaVuSans-33"/>
      </defs>
      <g transform="translate(322.563392 291.410437)scale(0.1 -0.1)">
       <use xlink:href="#DejaVuSans-33"/>
       <use x="63.623047" xlink:href="#DejaVuSans-30"/>
       <use x="127.246094" xlink:href="#DejaVuSans-30"/>
       <use x="190.869141" xlink:href="#DejaVuSans-30"/>
      </g>
     </g>
    </g>
    <g id="xtick_8">
     <g id="line2d_8">
      <g>
       <use style="stroke:#000000;stroke-width:0.8;" x="383.976836" xlink:href="#me40e27545c" y="276.812"/>
      </g>
     </g>
     <g id="text_8">
      <!-- 3500 -->
      <g transform="translate(371.251836 291.410437)scale(0.1 -0.1)">
       <use xlink:href="#DejaVuSans-33"/>
       <use x="63.623047" xlink:href="#DejaVuSans-35"/>
       <use x="127.246094" xlink:href="#DejaVuSans-30"/>
       <use x="190.869141" xlink:href="#DejaVuSans-30"/>
      </g>
     </g>
    </g>
   </g>
   <g id="matplotlib.axis_2">
    <g id="ytick_1">
     <g id="line2d_9">
      <defs>
       <path d="M 0 0 
L -3.5 0 
" id="m41e96db03c" style="stroke:#000000;stroke-width:0.8;"/>
      </defs>
      <g>
       <use style="stroke:#000000;stroke-width:0.8;" x="26.925" xlink:href="#m41e96db03c" y="264.817238"/>
      </g>
     </g>
     <g id="text_9">
      <!-- 0 -->
      <g transform="translate(13.5625 268.616456)scale(0.1 -0.1)">
       <use xlink:href="#DejaVuSans-30"/>
      </g>
     </g>
    </g>
    <g id="ytick_2">
     <g id="line2d_10">
      <g>
       <use style="stroke:#000000;stroke-width:0.8;" x="26.925" xlink:href="#m41e96db03c" y="214.178719"/>
      </g>
     </g>
     <g id="text_10">
      <!-- 2 -->
      <g transform="translate(13.5625 217.977938)scale(0.1 -0.1)">
       <use xlink:href="#DejaVuSans-32"/>
      </g>
     </g>
    </g>
    <g id="ytick_3">
     <g id="line2d_11">
      <g>
       <use style="stroke:#000000;stroke-width:0.8;" x="26.925" xlink:href="#m41e96db03c" y="163.540201"/>
      </g>
     </g>
     <g id="text_11">
      <!-- 4 -->
      <defs>
       <path d="M 37.796875 64.3125 
L 12.890625 25.390625 
L 37.796875 25.390625 
z
M 35.203125 72.90625 
L 47.609375 72.90625 
L 47.609375 25.390625 
L 58.015625 25.390625 
L 58.015625 17.1875 
L 47.609375 17.1875 
L 47.609375 0 
L 37.796875 0 
L 37.796875 17.1875 
L 4.890625 17.1875 
L 4.890625 26.703125 
z
" id="DejaVuSans-34"/>
      </defs>
      <g transform="translate(13.5625 167.339419)scale(0.1 -0.1)">
       <use xlink:href="#DejaVuSans-34"/>
      </g>
     </g>
    </g>
    <g id="ytick_4">
     <g id="line2d_12">
      <g>
       <use style="stroke:#000000;stroke-width:0.8;" x="26.925" xlink:href="#m41e96db03c" y="112.901682"/>
      </g>
     </g>
     <g id="text_12">
      <!-- 6 -->
      <defs>
       <path d="M 33.015625 40.375 
Q 26.375 40.375 22.484375 35.828125 
Q 18.609375 31.296875 18.609375 23.390625 
Q 18.609375 15.53125 22.484375 10.953125 
Q 26.375 6.390625 33.015625 6.390625 
Q 39.65625 6.390625 43.53125 10.953125 
Q 47.40625 15.53125 47.40625 23.390625 
Q 47.40625 31.296875 43.53125 35.828125 
Q 39.65625 40.375 33.015625 40.375 
z
M 52.59375 71.296875 
L 52.59375 62.3125 
Q 48.875 64.0625 45.09375 64.984375 
Q 41.3125 65.921875 37.59375 65.921875 
Q 27.828125 65.921875 22.671875 59.328125 
Q 17.53125 52.734375 16.796875 39.40625 
Q 19.671875 43.65625 24.015625 45.921875 
Q 28.375 48.1875 33.59375 48.1875 
Q 44.578125 48.1875 50.953125 41.515625 
Q 57.328125 34.859375 57.328125 23.390625 
Q 57.328125 12.15625 50.6875 5.359375 
Q 44.046875 -1.421875 33.015625 -1.421875 
Q 20.359375 -1.421875 13.671875 8.265625 
Q 6.984375 17.96875 6.984375 36.375 
Q 6.984375 53.65625 15.1875 63.9375 
Q 23.390625 74.21875 37.203125 74.21875 
Q 40.921875 74.21875 44.703125 73.484375 
Q 48.484375 72.75 52.59375 71.296875 
z
" id="DejaVuSans-36"/>
      </defs>
      <g transform="translate(13.5625 116.700901)scale(0.1 -0.1)">
       <use xlink:href="#DejaVuSans-36"/>
      </g>
     </g>
    </g>
    <g id="ytick_5">
     <g id="line2d_13">
      <g>
       <use style="stroke:#000000;stroke-width:0.8;" x="26.925" xlink:href="#m41e96db03c" y="62.263163"/>
      </g>
     </g>
     <g id="text_13">
      <!-- 8 -->
      <defs>
       <path d="M 31.78125 34.625 
Q 24.75 34.625 20.71875 30.859375 
Q 16.703125 27.09375 16.703125 20.515625 
Q 16.703125 13.921875 20.71875 10.15625 
Q 24.75 6.390625 31.78125 6.390625 
Q 38.8125 6.390625 42.859375 10.171875 
Q 46.921875 13.96875 46.921875 20.515625 
Q 46.921875 27.09375 42.890625 30.859375 
Q 38.875 34.625 31.78125 34.625 
z
M 21.921875 38.8125 
Q 15.578125 40.375 12.03125 44.71875 
Q 8.5 49.078125 8.5 55.328125 
Q 8.5 64.0625 14.71875 69.140625 
Q 20.953125 74.21875 31.78125 74.21875 
Q 42.671875 74.21875 48.875 69.140625 
Q 55.078125 64.0625 55.078125 55.328125 
Q 55.078125 49.078125 51.53125 44.71875 
Q 48 40.375 41.703125 38.8125 
Q 48.828125 37.15625 52.796875 32.3125 
Q 56.78125 27.484375 56.78125 20.515625 
Q 56.78125 9.90625 50.3125 4.234375 
Q 43.84375 -1.421875 31.78125 -1.421875 
Q 19.734375 -1.421875 13.25 4.234375 
Q 6.78125 9.90625 6.78125 20.515625 
Q 6.78125 27.484375 10.78125 32.3125 
Q 14.796875 37.15625 21.921875 38.8125 
z
M 18.3125 54.390625 
Q 18.3125 48.734375 21.84375 45.5625 
Q 25.390625 42.390625 31.78125 42.390625 
Q 38.140625 42.390625 41.71875 45.5625 
Q 45.3125 48.734375 45.3125 54.390625 
Q 45.3125 60.0625 41.71875 63.234375 
Q 38.140625 66.40625 31.78125 66.40625 
Q 25.390625 66.40625 21.84375 63.234375 
Q 18.3125 60.0625 18.3125 54.390625 
z
" id="DejaVuSans-38"/>
      </defs>
      <g transform="translate(13.5625 66.062382)scale(0.1 -0.1)">
       <use xlink:href="#DejaVuSans-38"/>
      </g>
     </g>
    </g>
    <g id="ytick_6">
     <g id="line2d_14">
      <g>
       <use style="stroke:#000000;stroke-width:0.8;" x="26.925" xlink:href="#m41e96db03c" y="11.624645"/>
      </g>
     </g>
     <g id="text_14">
      <!-- 10 -->
      <g transform="translate(7.2 15.423864)scale(0.1 -0.1)">
       <use xlink:href="#DejaVuSans-31"/>
       <use x="63.623047" xlink:href="#DejaVuSans-30"/>
      </g>
     </g>
    </g>
   </g>
   <g id="line2d_15">
    <path clip-path="url(#p0bc6e87bd9)" d="M 43.157727 204.4788 
L 43.255104 227.788178 
L 43.352481 205.736783 
L 43.644612 259.147098 
L 43.741989 238.1325 
L 43.839365 241.555829 
L 44.034119 210.488534 
L 44.131496 222.645591 
L 44.228873 220.764872 
L 44.32625 194.522062 
L 44.521004 22.796 
L 44.618381 202.262385 
L 44.715757 154.945474 
L 44.910511 226.082925 
L 45.105265 247.25154 
L 45.397396 235.438632 
L 45.494773 258.203889 
L 45.592149 240.970655 
L 45.689526 248.482741 
L 45.786903 247.793196 
L 45.88428 254.377331 
L 45.981657 252.871332 
L 46.176411 239.992248 
L 46.273788 255.126338 
L 46.371165 242.238287 
L 46.565918 251.127672 
L 46.663295 246.745156 
L 46.760672 248.473886 
L 46.858049 253.060511 
L 46.955426 248.257586 
L 47.052803 253.41536 
L 47.247557 238.090709 
L 47.344933 259.594872 
L 47.44231 258.162394 
L 47.539687 256.970106 
L 47.734441 243.994592 
L 47.929195 260.550467 
L 48.123949 241.117285 
L 48.318702 252.568832 
L 48.416079 251.666906 
L 48.513456 242.572916 
L 48.610833 258.403943 
L 48.70821 239.7321 
L 48.805587 260.218603 
L 48.902964 243.263769 
L 49.000341 253.285929 
L 49.097717 250.38026 
L 49.195094 250.845611 
L 49.389848 256.076202 
L 49.487225 239.045827 
L 49.584602 241.192149 
L 49.779356 251.201221 
L 49.876733 250.964503 
L 49.974109 264.150937 
L 50.071486 258.636204 
L 50.168863 259.991868 
L 50.460994 235.949016 
L 50.655748 260.250945 
L 50.753125 249.870138 
L 50.850501 255.291375 
L 50.947878 252.209322 
L 51.045255 254.713867 
L 51.142632 252.333077 
L 51.240009 252.403645 
L 51.337386 255.264322 
L 51.434763 248.110468 
L 51.53214 230.027672 
L 52.019024 260.109719 
L 52.116401 256.751773 
L 52.213778 245.4073 
L 52.505909 257.093405 
L 52.798039 234.871621 
L 52.992793 256.816335 
L 53.09017 257.165616 
L 53.187547 256.151722 
L 53.284924 250.363768 
L 53.382301 260.751274 
L 53.479677 247.851965 
L 53.577054 258.878877 
L 53.674431 241.032999 
L 53.771808 244.838693 
L 53.869185 256.850684 
L 53.966562 244.143383 
L 54.161316 259.865539 
L 54.356069 249.53321 
L 54.453446 241.664495 
L 54.550823 258.376798 
L 54.6482 251.636481 
L 54.842954 259.026859 
L 54.940331 242.969846 
L 55.037708 257.633909 
L 55.232461 234.273582 
L 55.329838 260.853495 
L 55.427215 246.022684 
L 55.621969 256.945466 
L 55.719346 238.475242 
L 55.9141 246.757892 
L 56.011477 256.479057 
L 56.108853 246.574268 
L 56.20623 252.411869 
L 56.303607 240.281548 
L 56.400984 246.146208 
L 56.498361 235.132805 
L 56.595738 253.438779 
L 56.790492 243.022937 
L 56.887869 246.984389 
L 56.985245 237.635862 
L 57.082622 214.236956 
L 57.277376 259.004083 
L 57.374753 254.963729 
L 57.47213 259.205462 
L 57.569507 257.536662 
L 57.666884 248.835723 
L 57.861637 255.159097 
L 57.959014 252.925397 
L 58.056391 244.000524 
L 58.251145 258.74831 
L 58.348522 262.418112 
L 58.445899 255.635579 
L 58.543276 260.54456 
L 58.640653 239.433156 
L 59.03016 261.212509 
L 59.127537 259.451355 
L 59.224914 244.315407 
L 59.322291 261.130192 
L 59.419668 242.77893 
L 59.614421 258.472503 
L 59.711798 253.168202 
L 59.809175 253.184105 
L 59.906552 253.766088 
L 60.003929 244.239685 
L 60.101306 261.307184 
L 60.198683 259.480729 
L 60.29606 247.68323 
L 60.393436 259.095703 
L 60.490813 239.779213 
L 60.58819 255.086221 
L 60.782944 240.569655 
L 60.880321 240.88848 
L 60.977698 242.06321 
L 61.075075 239.829434 
L 61.172452 259.149239 
L 61.269828 259.011746 
L 61.367205 247.717126 
L 61.464582 254.110679 
L 61.659336 245.504625 
L 61.756713 222.369975 
L 61.951467 250.741108 
L 62.048844 253.669099 
L 62.14622 252.526581 
L 62.243597 257.52063 
L 62.340974 242.74694 
L 62.535728 255.656627 
L 62.633105 253.928878 
L 62.827859 243.426367 
L 62.925236 245.435955 
L 63.217366 256.077158 
L 63.314743 229.931849 
L 63.509497 255.549365 
L 63.606874 246.575003 
L 63.704251 264.125994 
L 63.899004 250.954263 
L 63.996381 252.778964 
L 64.093758 235.810571 
L 64.385889 258.311517 
L 64.483266 237.12395 
L 64.580643 252.048196 
L 64.67802 239.286219 
L 64.775396 244.596772 
L 64.872773 240.753064 
L 64.97015 243.788863 
L 65.067527 242.928976 
L 65.164904 254.1949 
L 65.359658 241.084976 
L 65.457035 234.760529 
L 65.554412 259.008407 
L 65.749165 246.351364 
L 65.846542 251.489756 
L 65.943919 243.702766 
L 66.041296 247.093088 
L 66.138673 244.20137 
L 66.333427 248.144238 
L 66.430804 256.1382 
L 66.52818 251.469333 
L 66.625557 256.191046 
L 66.722934 236.949959 
L 66.917688 259.344881 
L 67.015065 248.220723 
L 67.112442 258.950679 
L 67.209819 246.721622 
L 67.404572 259.338558 
L 67.599326 243.687732 
L 67.79408 248.327379 
L 67.891457 245.22701 
L 67.988834 254.354064 
L 68.086211 242.038291 
L 68.183588 242.118978 
L 68.280964 252.276611 
L 68.378341 244.323869 
L 68.475718 258.414701 
L 68.670472 235.17455 
L 68.865226 260.474069 
L 69.157356 234.213821 
L 69.35211 250.920905 
L 69.546864 259.111315 
L 69.644241 245.49631 
L 69.741618 254.444971 
L 69.838995 248.242344 
L 69.936372 248.664677 
L 70.033748 248.597406 
L 70.131125 247.671309 
L 70.325879 262.611048 
L 70.715387 246.707011 
L 70.812764 262.68092 
L 70.91014 211.97012 
L 71.104894 241.43878 
L 71.397025 258.077067 
L 71.689156 241.565243 
L 71.786532 254.071643 
L 71.981286 240.72423 
L 72.078663 252.120708 
L 72.17604 246.574152 
L 72.370794 260.461937 
L 72.468171 239.215812 
L 72.662924 254.016804 
L 72.760301 246.512258 
L 72.857678 256.82998 
L 72.955055 235.997081 
L 73.149809 259.890947 
L 73.247186 253.37967 
L 73.344563 254.545318 
L 73.539316 259.403352 
L 73.73407 240.971625 
L 73.928824 253.029195 
L 74.026201 253.762144 
L 74.123578 256.939503 
L 74.220955 247.393764 
L 74.415708 255.547066 
L 74.513085 246.028487 
L 74.707839 253.267801 
L 74.805216 250.070027 
L 74.902593 255.577973 
L 75.097347 251.958074 
L 75.2921 256.961209 
L 75.389477 247.405653 
L 75.486854 258.62963 
L 75.681608 233.519961 
L 75.778985 250.50221 
L 75.876362 243.299846 
L 75.973739 247.951123 
L 76.071116 258.707936 
L 76.265869 242.989999 
L 76.460623 256.688721 
L 76.655377 253.422387 
L 76.850131 236.166925 
L 77.044884 252.788445 
L 77.142261 252.297526 
L 77.239638 260.651503 
L 77.337015 248.276528 
L 77.434392 258.794643 
L 77.531769 254.927838 
L 77.629146 259.030037 
L 77.726523 255.732366 
L 77.823899 243.638626 
L 77.921276 247.100543 
L 78.018653 257.313031 
L 78.11603 245.914744 
L 78.213407 261.652237 
L 78.408161 246.32358 
L 78.505538 237.687128 
L 78.602915 262.94702 
L 78.700291 256.572284 
L 78.797668 259.981733 
L 78.895045 244.466341 
L 79.187176 260.432249 
L 79.284553 257.875897 
L 79.38193 234.807222 
L 79.479307 255.18871 
L 79.576683 255.0431 
L 79.868814 239.184052 
L 79.966191 255.430231 
L 80.160945 249.638082 
L 80.258322 254.108187 
L 80.355699 252.600236 
L 80.453075 256.469413 
L 80.550452 253.126456 
L 80.647829 258.560568 
L 80.745206 249.733827 
L 80.842583 250.688365 
L 81.037337 260.874955 
L 81.232091 241.351958 
L 81.329467 251.551808 
L 81.426844 251.356464 
L 81.524221 259.046841 
L 81.816352 243.447626 
L 81.913729 260.493241 
L 82.011106 239.658544 
L 82.108483 252.099184 
L 82.303236 241.555349 
L 82.49799 251.998702 
L 82.790121 242.776931 
L 82.984875 254.318851 
L 83.082251 252.373762 
L 83.374382 231.000901 
L 83.471759 254.487109 
L 83.569136 247.455492 
L 83.666513 248.953584 
L 83.76389 243.579778 
L 83.861267 246.503023 
L 83.958643 259.046319 
L 84.05602 253.118536 
L 84.153397 233.085994 
L 84.250774 256.441196 
L 84.348151 248.314999 
L 84.445528 259.692932 
L 84.542905 245.005573 
L 84.640282 261.516757 
L 84.737659 238.926286 
L 84.835035 253.432984 
L 84.932412 251.41249 
L 85.029789 239.073962 
L 85.419297 258.799027 
L 85.516674 243.717637 
L 85.614051 255.267352 
L 85.711427 248.056309 
L 85.808804 261.876037 
L 86.003558 240.873407 
L 86.100935 251.777285 
L 86.198312 239.475983 
L 86.295689 240.578196 
L 86.393066 238.064956 
L 86.587819 262.098536 
L 86.685196 232.162278 
L 86.782573 250.160066 
L 86.87995 249.550977 
L 86.977327 246.727659 
L 87.074704 259.56025 
L 87.172081 234.216112 
L 87.366835 252.641158 
L 87.464211 253.483818 
L 87.561588 260.147067 
L 87.756342 239.63665 
L 87.853719 259.563656 
L 87.951096 247.316199 
L 88.048473 255.823737 
L 88.14585 253.876914 
L 88.243227 255.189123 
L 88.340603 253.844165 
L 88.535357 250.141955 
L 88.632734 250.641358 
L 88.827488 256.10387 
L 89.022242 233.435551 
L 89.314372 257.28133 
L 89.411749 256.45637 
L 89.509126 251.655926 
L 89.606503 238.172396 
L 89.70388 253.659843 
L 89.801257 249.58927 
L 89.996011 258.559198 
L 90.190764 239.985476 
L 90.288141 238.71377 
L 90.385518 257.78101 
L 90.482895 256.610289 
L 90.580272 253.989418 
L 90.677649 258.646622 
L 90.872403 247.459783 
L 90.969779 246.675503 
L 91.067156 254.446403 
L 91.164533 242.758295 
L 91.26191 257.925174 
L 91.359287 256.087829 
L 91.456664 245.76353 
L 91.554041 250.790346 
L 91.651418 261.932701 
L 91.846171 253.715146 
L 91.943548 221.285032 
L 92.138302 256.873954 
L 92.430433 245.59069 
L 92.52781 247.425935 
L 92.625187 260.418158 
L 92.722563 256.118713 
L 92.81994 239.968926 
L 92.917317 246.295844 
L 93.014694 260.325112 
L 93.112071 252.645473 
L 93.209448 260.862236 
L 93.404202 248.96912 
L 93.501579 263.096183 
L 93.598955 254.759527 
L 93.696332 255.168921 
L 93.793709 249.413405 
L 93.891086 252.693837 
L 93.988463 247.907982 
L 94.08584 255.508438 
L 94.280594 237.761657 
L 94.37797 254.735773 
L 94.475347 248.477363 
L 94.572724 256.026054 
L 94.670101 255.665152 
L 94.864855 235.823877 
L 95.059609 240.244838 
L 95.254362 256.821687 
L 95.351739 258.426497 
L 95.449116 239.751 
L 95.546493 257.88659 
L 95.64387 247.3541 
L 95.838624 256.588187 
L 96.033378 245.511004 
L 96.130754 247.053266 
L 96.228131 243.773251 
L 96.520262 260.364371 
L 96.715016 248.525956 
L 96.812393 255.352548 
L 96.90977 242.106509 
L 97.007146 256.929404 
L 97.2019 243.081084 
L 97.299277 256.53412 
L 97.494031 243.721235 
L 97.591408 256.910015 
L 97.688785 256.036789 
L 97.786162 236.936873 
L 98.078292 259.266549 
L 98.273046 244.983052 
L 98.370423 242.678408 
L 98.662554 258.682575 
L 98.75993 259.200359 
L 99.052061 203.738867 
L 99.246815 262.962869 
L 99.538946 241.478858 
L 99.831076 255.876072 
L 100.123207 235.937159 
L 100.220584 252.923999 
L 100.317961 238.700862 
L 100.707468 258.247283 
L 100.999599 242.986185 
L 101.194353 257.768469 
L 101.29173 220.420157 
L 101.389106 253.491928 
L 101.486483 253.475257 
L 101.58386 249.935567 
L 101.681237 257.796834 
L 101.778614 241.71122 
L 101.973368 251.088497 
L 102.070745 257.70278 
L 102.168122 248.283404 
L 102.362875 258.199485 
L 102.460252 254.838098 
L 102.557629 255.072705 
L 102.655006 257.916316 
L 102.84976 237.39137 
L 103.14189 258.300439 
L 103.239267 254.350334 
L 103.336644 255.034615 
L 103.531398 241.143823 
L 103.628775 245.853238 
L 103.726152 244.379043 
L 103.823529 254.064371 
L 103.920906 252.225928 
L 104.018282 243.842639 
L 104.115659 258.957393 
L 104.213036 228.138856 
L 104.505167 258.06602 
L 104.797298 243.68783 
L 104.894674 258.325775 
L 104.992051 258.221681 
L 105.186805 240.244301 
L 105.284182 249.173617 
L 105.381559 247.295213 
L 105.478936 218.346013 
L 105.67369 236.175835 
L 105.868443 262.288164 
L 105.96582 251.244774 
L 106.063197 252.572974 
L 106.160574 247.378894 
L 106.257951 220.470172 
L 106.452705 249.150452 
L 106.550082 252.611759 
L 106.647458 243.890696 
L 106.744835 252.205262 
L 106.842212 238.180331 
L 107.036966 250.765784 
L 107.23172 230.914709 
L 107.426474 258.969805 
L 107.52385 252.456334 
L 107.621227 252.694927 
L 107.718604 248.995639 
L 107.815981 255.495877 
L 107.913358 254.024612 
L 108.010735 254.993994 
L 108.302866 241.104953 
L 108.400242 251.838269 
L 108.497619 244.089365 
L 108.594996 256.916024 
L 108.692373 256.353182 
L 108.887127 241.34311 
L 108.984504 256.829194 
L 109.081881 254.190774 
L 109.179258 259.581956 
L 109.276634 255.936001 
L 109.374011 255.948039 
L 109.471388 243.014614 
L 109.568765 257.743478 
L 109.666142 239.244917 
L 109.860896 254.580677 
L 109.958273 255.423515 
L 110.250403 249.853682 
L 110.34778 261.357937 
L 110.542534 238.808505 
L 110.737288 255.179688 
L 110.932042 253.117663 
L 111.029418 236.98798 
L 111.321549 257.730956 
L 111.516303 233.406413 
L 111.711057 250.250632 
L 111.808433 249.953554 
L 112.003187 261.37222 
L 112.100564 259.328851 
L 112.197941 243.063562 
L 112.295318 255.933306 
L 112.392695 251.83807 
L 112.490072 256.978282 
L 112.782202 239.673043 
L 112.879579 256.215062 
L 112.976956 250.358975 
L 113.17171 263.303562 
L 113.269087 258.522391 
L 113.366464 247.216232 
L 113.463841 260.160297 
L 113.658594 246.480542 
L 113.755971 240.368707 
L 113.950725 260.337471 
L 114.048102 254.096077 
L 114.242856 258.766138 
L 114.340233 240.370996 
L 114.437609 258.701641 
L 114.534986 257.872587 
L 114.632363 247.900037 
L 114.72974 259.62575 
L 115.021871 237.664765 
L 115.119248 253.781799 
L 115.216625 242.796221 
L 115.411378 261.512437 
L 115.508755 202.441772 
L 115.606132 234.532786 
L 115.800886 184.909922 
L 116.190393 223.314662 
L 116.385147 250.861147 
L 116.482524 247.746571 
L 116.677278 251.891459 
L 116.969409 256.685993 
L 117.066785 252.373671 
L 117.164162 253.746305 
L 117.358916 261.989853 
L 117.456293 240.282988 
L 117.651047 254.598307 
L 118.040554 203.984462 
L 118.332685 256.265608 
L 118.527439 231.912881 
L 118.624816 231.03247 
L 118.722193 261.890901 
L 119.014323 242.360121 
L 119.209077 256.398407 
L 119.403831 231.711432 
L 119.501208 232.643461 
L 119.695961 239.235284 
L 119.793338 258.581488 
L 119.890715 253.203113 
L 119.988092 253.469109 
L 120.182846 259.277944 
L 120.280223 228.131806 
L 120.474977 264.077489 
L 120.66973 256.390375 
L 121.059238 231.365045 
L 121.156615 234.763717 
L 121.253992 235.860363 
L 121.351369 233.998517 
L 121.448745 235.688919 
L 121.546122 242.689019 
L 121.740876 259.332679 
L 121.838253 257.351236 
L 122.033007 251.053538 
L 122.130384 249.303985 
L 122.227761 250.379367 
L 122.325137 263.536331 
L 122.422514 258.236784 
L 122.519891 258.844406 
L 122.714645 262.822377 
L 122.909399 264.116267 
L 123.006776 264.110905 
L 123.104153 263.881073 
L 123.201529 264.716 
L 123.396283 263.93523 
L 123.591037 257.915026 
L 123.688414 258.561443 
L 123.883168 260.423558 
L 123.980545 264.238663 
L 124.272675 261.735885 
L 124.370052 247.010883 
L 124.564806 263.274383 
L 124.662183 263.148055 
L 124.75956 261.727705 
L 124.856937 262.215713 
L 124.954313 263.9979 
L 125.149067 262.773512 
L 125.246444 262.297367 
L 125.343821 263.297061 
L 125.441198 262.71299 
L 125.635952 264.503111 
L 125.733329 262.063213 
L 125.928082 252.531423 
L 126.414967 264.352657 
L 126.901851 258.564351 
L 127.096605 243.322971 
L 127.193982 243.944504 
L 127.291359 261.242959 
L 127.486113 250.664784 
L 127.778243 263.827636 
L 127.87562 263.055968 
L 127.972997 263.218838 
L 128.070374 264.543007 
L 128.167751 264.361758 
L 128.362504 263.571496 
L 128.654635 264.057773 
L 128.946766 263.027354 
L 129.044143 262.965475 
L 129.14152 263.973213 
L 129.238896 263.423118 
L 129.336273 263.724887 
L 129.531027 264.519597 
L 129.628404 264.562223 
L 129.920535 262.506452 
L 130.115288 263.936384 
L 130.212665 264.293531 
L 130.310042 263.883882 
L 130.407419 264.482541 
L 130.602173 263.886951 
L 130.69955 263.951436 
L 130.796927 264.24553 
L 130.894304 263.092896 
L 131.089057 263.394791 
L 131.186434 264.4811 
L 131.283811 263.761138 
L 131.381188 261.525933 
L 131.478565 253.82116 
L 131.575942 260.904055 
L 131.770696 257.490852 
L 131.868072 257.537947 
L 132.062826 261.563258 
L 132.160203 260.686948 
L 132.25758 261.086768 
L 132.354957 260.899988 
L 132.647088 263.835513 
L 132.744464 264.208674 
L 132.939218 263.728885 
L 133.036595 263.800384 
L 133.231349 264.123128 
L 133.328726 263.418587 
L 133.426103 257.065513 
L 133.52348 258.915804 
L 133.620856 263.303391 
L 133.718233 261.382885 
L 133.81561 255.034368 
L 134.010364 233.019584 
L 134.205118 257.633676 
L 134.302495 256.445076 
L 134.594625 245.751963 
L 134.789379 244.296573 
L 134.984133 261.934714 
L 135.08151 260.325478 
L 135.276264 262.92064 
L 135.37364 262.068252 
L 135.471017 262.168584 
L 135.860525 264.421001 
L 135.957902 264.462689 
L 136.152656 263.633984 
L 136.347409 264.201547 
L 136.444786 263.843451 
L 136.542163 263.969461 
L 136.63954 264.331062 
L 136.736917 264.173204 
L 137.223801 264.638972 
L 137.418555 264.127543 
L 137.613309 264.646476 
L 137.710686 264.470518 
L 137.808063 264.546989 
L 138.100193 263.434123 
L 138.19757 263.944348 
L 138.294947 263.772517 
L 138.392324 264.036725 
L 138.489701 263.609189 
L 138.781832 259.180687 
L 138.879208 264.120589 
L 138.976585 263.406972 
L 139.268716 264.579918 
L 139.366093 263.147121 
L 139.46347 263.173995 
L 139.658224 264.407192 
L 139.7556 259.687383 
L 140.047731 234.482568 
L 140.242485 262.863319 
L 140.339862 260.02011 
L 140.437239 261.083401 
L 140.534616 238.239663 
L 140.826746 255.14622 
L 140.924123 258.832754 
L 141.0215 257.027077 
L 141.216254 260.907425 
L 141.411008 255.638467 
L 141.508384 261.368187 
L 141.605761 258.817475 
L 141.703138 259.041697 
L 141.800515 259.788736 
L 142.092646 264.387605 
L 142.384776 263.969696 
L 142.482153 264.057166 
L 142.676907 264.300479 
L 142.774284 263.923492 
L 142.871661 264.563975 
L 142.969038 263.599765 
L 143.261168 264.37915 
L 143.358545 263.963635 
L 143.455922 264.457382 
L 143.553299 263.482617 
L 143.650676 264.033578 
L 143.84543 263.181942 
L 143.942807 263.648342 
L 144.13756 180.164195 
L 144.234937 184.244381 
L 144.624445 249.030245 
L 144.721822 223.063584 
L 144.819199 240.748317 
L 144.916576 234.397583 
L 145.013952 251.320339 
L 145.111329 223.896845 
L 145.306083 249.89101 
L 145.500837 220.033 
L 145.695591 262.929546 
L 145.890344 241.456137 
L 146.085098 249.510359 
L 146.182475 250.619424 
L 146.474606 232.360835 
L 146.669359 257.531822 
L 146.766736 235.226277 
L 146.864113 254.481562 
L 146.96149 240.401281 
L 147.058867 244.508431 
L 147.156244 254.405865 
L 147.253621 238.280759 
L 147.448375 254.795446 
L 147.545751 252.36177 
L 147.837882 259.351635 
L 148.032636 244.910975 
L 148.130013 246.081518 
L 148.22739 253.617139 
L 148.324767 242.022175 
L 148.422143 255.213127 
L 148.714274 237.571235 
L 149.006405 256.926855 
L 149.201159 248.61965 
L 149.395912 251.702407 
L 149.493289 259.329163 
L 149.590666 234.23255 
L 149.688043 257.558687 
L 149.78542 255.863767 
L 149.882797 255.050723 
L 149.980174 247.988546 
L 150.077551 251.561012 
L 150.272304 240.602261 
L 150.564435 258.413217 
L 150.661812 245.3185 
L 150.953943 261.252226 
L 151.051319 249.010634 
L 151.246073 259.442789 
L 151.34345 257.931803 
L 151.440827 248.838068 
L 151.538204 254.944405 
L 151.635581 244.119757 
L 151.732958 253.29868 
L 151.830335 234.748015 
L 152.025088 254.635203 
L 152.122465 245.450255 
L 152.219842 258.73933 
L 152.414596 249.304411 
L 152.511973 259.165517 
L 152.60935 250.886141 
L 152.706727 259.554336 
L 152.804103 255.127931 
L 152.90148 260.722745 
L 153.096234 251.017771 
L 153.193611 252.520368 
L 153.290988 262.055064 
L 153.583119 243.787455 
L 153.680495 252.257254 
L 153.777872 249.885261 
L 153.875249 255.386154 
L 153.972626 252.063751 
L 154.070003 262.95986 
L 154.264757 245.037504 
L 154.556887 256.87821 
L 154.654264 239.087538 
L 154.849018 261.74705 
L 154.946395 244.803131 
L 155.043772 257.552737 
L 155.141149 242.709864 
L 155.433279 256.821617 
L 155.530656 257.859943 
L 155.628033 250.832695 
L 155.72541 256.460041 
L 155.822787 252.708425 
L 155.920164 236.285748 
L 156.114918 255.014258 
L 156.212295 253.162679 
L 156.309671 256.71385 
L 156.407048 255.715908 
L 156.504425 260.619301 
L 156.601802 253.37298 
L 156.699179 258.169803 
L 156.796556 253.146238 
L 156.893933 258.14243 
L 156.99131 234.638348 
L 157.186063 258.746498 
L 157.28344 240.986247 
L 157.380817 257.343935 
L 157.478194 252.048509 
L 157.575571 258.924087 
L 157.672948 237.078759 
L 157.867702 261.09358 
L 157.965079 241.752609 
L 158.257209 254.361221 
L 158.354586 257.345172 
L 158.54934 242.583105 
L 158.744094 254.363915 
L 158.841471 254.906352 
L 158.938847 251.507135 
L 159.036224 259.920817 
L 159.133601 257.670051 
L 159.230978 259.700535 
L 159.328355 246.337351 
L 159.425732 249.872866 
L 159.523109 235.519275 
L 159.815239 260.471784 
L 160.10737 242.138614 
L 160.204747 256.917625 
L 160.399501 237.360322 
L 160.496878 242.894255 
L 160.594255 244.623819 
L 160.789008 260.259482 
L 160.886385 253.146763 
L 160.983762 261.446864 
L 161.081139 240.575968 
L 161.275893 255.58112 
L 161.37327 243.856598 
L 161.470647 257.750084 
L 161.568023 255.930624 
L 161.6654 256.160085 
L 161.762777 259.242373 
L 161.957531 238.791649 
L 162.054908 259.474736 
L 162.152285 235.473284 
L 162.347039 258.881373 
L 162.444415 237.803351 
L 162.541792 255.872584 
L 162.9313 244.13422 
L 163.028677 254.011255 
L 163.126054 253.33322 
L 163.22343 254.42438 
L 163.320807 263.458771 
L 163.418184 259.941874 
L 163.515561 247.793355 
L 163.612938 253.745098 
L 163.710315 241.667405 
L 163.807692 250.377047 
L 163.905069 244.658708 
L 164.002446 252.420916 
L 164.099822 249.298404 
L 164.197199 250.784804 
L 164.294576 254.71849 
L 164.391953 233.573322 
L 164.684084 256.454102 
L 164.781461 242.561066 
L 164.976214 252.527642 
L 165.073591 232.116528 
L 165.170968 233.569781 
L 165.268345 250.958783 
L 165.365722 246.068074 
L 165.463099 251.561053 
L 165.560476 243.460395 
L 165.657853 258.442196 
L 165.949983 230.293256 
L 166.144737 252.420491 
L 166.242114 251.368202 
L 166.339491 243.770499 
L 166.436868 244.961898 
L 166.534245 242.137864 
L 166.631622 253.480562 
L 166.728998 249.997131 
L 166.923752 257.390491 
L 167.118506 233.659557 
L 167.31326 257.621097 
L 167.410637 247.088598 
L 167.60539 256.397783 
L 167.702767 261.96039 
L 167.897521 242.993838 
L 167.994898 236.047557 
L 168.092275 252.073223 
L 168.189652 250.041466 
L 168.287029 259.493964 
L 168.384406 258.394716 
L 168.481782 257.774794 
L 168.676536 248.49473 
L 168.773913 248.251888 
L 168.87129 250.108053 
L 168.968667 249.028235 
L 169.066044 237.349411 
L 169.163421 257.713493 
L 169.358174 244.275202 
L 169.455551 256.210922 
L 169.552928 246.521732 
L 169.650305 255.39241 
L 169.747682 250.821697 
L 169.845059 255.590127 
L 169.942436 243.259775 
L 170.039813 245.561721 
L 170.13719 254.410238 
L 170.234566 242.568202 
L 170.331943 259.471765 
L 170.526697 254.199492 
L 170.624074 248.700228 
L 170.721451 258.932728 
L 171.013582 253.209048 
L 171.110958 256.298561 
L 171.305712 251.141436 
L 171.403089 231.869732 
L 171.500466 253.492249 
L 171.597843 243.962911 
L 171.69522 257.639525 
L 171.792597 256.094819 
L 171.889974 261.013527 
L 172.084727 256.443839 
L 172.182104 262.048362 
L 172.376858 246.176768 
L 172.474235 262.750183 
L 172.571612 258.541926 
L 172.668989 245.875605 
L 172.863742 261.099355 
L 172.961119 250.053936 
L 173.058496 255.884088 
L 173.155873 248.198969 
L 173.25325 254.73972 
L 173.350627 250.105515 
L 173.545381 257.966246 
L 173.642758 255.687237 
L 173.740134 257.850751 
L 173.837511 250.327607 
L 173.934888 256.675613 
L 174.032265 246.330006 
L 174.129642 257.453177 
L 174.324396 245.973259 
L 174.421773 238.829817 
L 174.51915 254.599596 
L 174.616526 252.562717 
L 174.713903 253.259375 
L 174.81128 259.952825 
L 174.908657 254.851796 
L 175.006034 255.164814 
L 175.200788 250.113306 
L 175.298165 254.68214 
L 175.395542 242.161314 
L 175.492918 258.54354 
L 175.590295 253.844307 
L 175.687672 239.598416 
L 175.785049 255.386354 
L 175.979803 248.737754 
L 176.07718 249.403208 
L 176.174557 251.960339 
L 176.271934 250.791509 
L 176.466687 255.401465 
L 176.564064 248.630749 
L 176.661441 253.847333 
L 176.758818 250.983927 
L 176.953572 258.02489 
L 177.050949 253.250917 
L 177.245702 257.399358 
L 177.343079 261.764178 
L 177.440456 250.770942 
L 177.63521 260.093865 
L 177.732587 257.398445 
L 177.829964 249.403134 
L 177.927341 257.128276 
L 178.024718 242.13917 
L 178.219471 258.497759 
L 178.414225 251.834594 
L 178.511602 254.006857 
L 178.608979 235.745327 
L 178.706356 253.467667 
L 178.803733 249.452426 
L 178.90111 250.78371 
L 178.998486 255.515108 
L 179.095863 254.972929 
L 179.19324 248.482573 
L 179.290617 222.379323 
L 179.485371 255.249709 
L 179.582748 249.85858 
L 179.680125 252.337207 
L 179.777501 231.014427 
L 179.972255 251.028005 
L 180.069632 254.750577 
L 180.167009 251.645027 
L 180.264386 235.300958 
L 180.361763 248.336207 
L 180.45914 231.712809 
L 180.556517 232.96339 
L 180.653893 251.255983 
L 180.848647 234.992405 
L 180.946024 240.608643 
L 181.043401 255.128455 
L 181.140778 247.987329 
L 181.238155 261.889703 
L 181.432909 243.084856 
L 181.530285 246.901869 
L 181.627662 259.346983 
L 181.725039 240.066413 
L 181.822416 258.624511 
L 181.919793 255.572222 
L 182.114547 262.267819 
L 182.211924 229.455068 
L 182.309301 247.730053 
L 182.406677 239.22622 
L 182.601431 257.133783 
L 182.698808 241.369864 
L 182.796185 260.404014 
L 182.990939 248.843839 
L 183.088316 258.840565 
L 183.185693 257.461968 
L 183.283069 253.11817 
L 183.380446 259.805523 
L 183.477823 236.809713 
L 183.5752 256.829036 
L 183.769954 237.75263 
L 183.867331 244.405817 
L 183.964708 262.956524 
L 184.159461 249.792172 
L 184.256838 257.759574 
L 184.354215 253.706127 
L 184.451592 260.090325 
L 184.548969 248.068377 
L 184.646346 252.381914 
L 184.743723 236.009152 
L 184.938477 257.187257 
L 185.13323 245.514744 
L 185.230607 259.422422 
L 185.425361 239.555891 
L 185.522738 252.413279 
L 185.620115 244.965788 
L 185.717492 258.566972 
L 185.814869 235.66645 
L 185.912245 253.6156 
L 186.009622 252.999153 
L 186.106999 237.507029 
L 186.204376 252.254485 
L 186.301753 250.697027 
L 186.39913 243.331114 
L 186.593884 255.241335 
L 186.691261 239.811657 
L 186.788637 248.185222 
L 186.886014 247.465903 
L 186.983391 239.571725 
L 187.080768 249.924549 
L 187.275522 233.614308 
L 187.372899 260.801367 
L 187.665029 247.127257 
L 187.859783 258.09639 
L 188.054537 247.842087 
L 188.151914 253.685818 
L 188.249291 242.325286 
L 188.444045 259.073411 
L 188.541421 248.515577 
L 188.638798 253.762017 
L 188.736175 244.258647 
L 188.833552 255.03395 
L 188.930929 251.610215 
L 189.028306 240.963149 
L 189.125683 254.386283 
L 189.320437 248.71137 
L 189.417813 237.251242 
L 189.51519 250.381015 
L 189.612567 249.856725 
L 189.709944 246.236453 
L 189.807321 247.666733 
L 189.904698 250.901196 
L 190.002075 246.583612 
L 190.099452 260.437811 
L 190.294205 233.890052 
L 190.488959 261.61621 
L 190.78109 247.892163 
L 191.073221 255.140207 
L 191.170597 241.043114 
L 191.365351 256.90513 
L 191.560105 254.801532 
L 191.657482 227.117225 
L 191.754859 257.527765 
L 191.949613 247.831425 
L 192.046989 244.529075 
L 192.144366 237.372888 
L 192.33912 253.716268 
L 192.436497 254.915649 
L 192.533874 249.617904 
L 192.631251 258.131014 
L 192.728628 254.9346 
L 192.826005 261.671619 
L 193.020758 226.993231 
L 193.215512 259.615718 
L 193.312889 260.012022 
L 193.410266 259.650993 
L 193.507643 236.2799 
L 193.60502 241.433655 
L 193.702397 256.956009 
L 193.799773 251.692806 
L 193.89715 254.851934 
L 193.994527 248.606573 
L 194.091904 248.975335 
L 194.189281 244.993148 
L 194.286658 256.882549 
L 194.384035 250.257129 
L 194.481412 257.401003 
L 194.578789 249.858083 
L 194.773542 258.952151 
L 194.870919 237.910711 
L 194.968296 258.876054 
L 195.065673 251.097957 
L 195.260427 258.378356 
L 195.357804 247.968989 
L 195.455181 259.28891 
L 195.552557 252.84491 
L 195.649934 257.108548 
L 195.747311 252.192894 
L 195.844688 257.051688 
L 195.942065 240.486014 
L 196.039442 259.710781 
L 196.136819 248.244813 
L 196.234196 258.997314 
L 196.331573 255.960918 
L 196.428949 246.298689 
L 196.526326 247.149052 
L 196.623703 256.63664 
L 196.72108 255.833703 
L 196.818457 244.482214 
L 196.915834 252.337758 
L 197.013211 250.77186 
L 197.110588 236.807783 
L 197.207964 253.836725 
L 197.305341 247.098869 
L 197.402718 256.114799 
L 197.694849 244.951727 
L 197.98698 255.781232 
L 198.084356 252.365974 
L 198.181733 253.377668 
L 198.27911 260.788487 
L 198.376487 258.321365 
L 198.473864 236.705521 
L 198.571241 242.519741 
L 198.765995 261.998087 
L 198.960748 240.19302 
L 199.155502 262.024441 
L 199.252879 248.931253 
L 199.350256 258.121589 
L 199.447633 254.476021 
L 199.54501 254.93681 
L 199.642387 226.172769 
L 199.83714 250.898334 
L 199.934517 255.720755 
L 200.031894 242.119366 
L 200.226648 259.759852 
L 200.324025 252.839972 
L 200.421402 256.390085 
L 200.616156 247.915359 
L 200.713532 250.131431 
L 200.810909 248.382187 
L 200.908286 251.213782 
L 201.005663 261.537705 
L 201.10304 252.116128 
L 201.200417 259.511046 
L 201.297794 252.754741 
L 201.395171 257.076515 
L 201.589924 243.152468 
L 201.687301 243.309246 
L 201.784678 244.004442 
L 201.882055 252.981628 
L 201.979432 251.582216 
L 202.174186 258.556384 
L 202.271563 255.724884 
L 202.36894 217.100794 
L 202.563693 258.859802 
L 202.66107 259.982955 
L 202.855824 246.772637 
L 202.953201 257.496877 
L 203.050578 242.118064 
L 203.245332 259.409783 
L 203.537462 239.850119 
L 203.634839 240.0824 
L 203.732216 257.637333 
L 204.024347 232.589948 
L 204.2191 261.493273 
L 204.316477 259.936502 
L 204.511231 238.990305 
L 204.608608 256.129107 
L 204.705985 243.892557 
L 204.900739 261.350022 
L 205.095492 230.503454 
L 205.192869 245.027469 
L 205.290246 237.782015 
L 205.387623 253.371251 
L 205.679754 235.48701 
L 205.874508 246.814686 
L 205.971884 242.561148 
L 206.166638 257.286521 
L 206.264015 250.771902 
L 206.458769 260.800605 
L 206.556146 235.446664 
L 206.7509 259.966841 
L 206.848276 245.704353 
L 206.945653 251.179321 
L 207.04303 245.754401 
L 207.140407 234.128809 
L 207.237784 257.227828 
L 207.335161 248.072464 
L 207.432538 252.460011 
L 207.529915 245.819437 
L 207.627292 230.478288 
L 207.919422 260.109352 
L 208.016799 235.095207 
L 208.211553 255.607183 
L 208.30893 255.720102 
L 208.406307 257.904744 
L 208.60106 247.099243 
L 208.698437 256.390274 
L 208.795814 250.960648 
L 208.893191 259.463886 
L 209.087945 243.014421 
L 209.185322 258.025508 
L 209.282699 254.990458 
L 209.380076 242.383331 
L 209.477452 257.087693 
L 209.574829 248.831067 
L 209.769583 259.106095 
L 209.86696 251.858556 
L 209.964337 253.34454 
L 210.061714 240.805638 
L 210.256468 258.586178 
L 210.548598 237.616809 
L 210.645975 237.737196 
L 210.743352 234.395175 
L 210.840729 237.069071 
L 211.13286 258.667306 
L 211.230236 256.519231 
L 211.327613 238.920123 
L 211.522367 256.927827 
L 211.619744 256.717001 
L 211.717121 224.954204 
L 211.911875 255.16216 
L 212.106628 227.117028 
L 212.301382 252.869516 
L 212.398759 255.999063 
L 212.69089 242.984507 
L 212.788267 250.652943 
L 212.885644 228.484738 
L 213.080397 257.186465 
L 213.275151 228.90393 
L 213.469905 252.198848 
L 213.567282 226.176059 
L 213.762036 257.359393 
L 213.859412 241.415576 
L 213.956789 257.854587 
L 214.054166 246.395868 
L 214.151543 254.687136 
L 214.24892 248.041975 
L 214.346297 255.560735 
L 214.443674 249.236413 
L 214.541051 252.729447 
L 214.735804 249.063793 
L 214.833181 247.735147 
L 215.027935 228.220436 
L 215.222689 253.700219 
L 215.320066 251.034029 
L 215.417443 257.219649 
L 215.514819 246.780171 
L 215.612196 255.924364 
L 215.709573 245.629151 
L 215.80695 256.289228 
L 215.904327 243.380149 
L 216.001704 247.986007 
L 216.099081 246.848838 
L 216.196458 259.900736 
L 216.293835 227.397068 
L 216.488588 254.234397 
L 216.683342 236.513091 
L 216.780719 259.432514 
L 216.878096 238.853286 
L 217.07285 249.393264 
L 217.267603 226.304318 
L 217.462357 249.753139 
L 217.559734 254.580012 
L 217.657111 250.841445 
L 217.754488 256.350302 
L 217.851865 245.773545 
L 217.949242 253.945556 
L 218.143995 242.197129 
L 218.338749 254.497196 
L 218.63088 235.135982 
L 218.923011 258.043672 
L 219.020387 249.384421 
L 219.215141 258.265945 
L 219.312518 248.437989 
L 219.409895 258.120312 
L 219.507272 239.83691 
L 219.702026 255.193781 
L 219.896779 249.4074 
L 219.994156 254.37728 
L 220.091533 253.602564 
L 220.286287 242.859645 
L 220.383664 252.514525 
L 220.481041 252.190018 
L 220.578418 258.676568 
L 220.675795 221.659017 
L 220.773171 253.998093 
L 220.870548 244.902905 
L 220.967925 211.036507 
L 221.065302 246.523139 
L 221.162679 245.119894 
L 221.260056 246.427472 
L 221.357433 242.223203 
L 221.552187 248.564258 
L 221.649563 262.781691 
L 221.844317 241.902547 
L 221.941694 255.373975 
L 222.039071 253.760941 
L 222.136448 260.648201 
L 222.233825 250.966009 
L 222.331202 257.364182 
L 222.525955 246.494466 
L 222.720709 258.553446 
L 222.818086 253.232209 
L 222.915463 253.399342 
L 223.01284 217.563008 
L 223.110217 251.725895 
L 223.207594 247.595471 
L 223.304971 256.592358 
L 223.499724 254.115482 
L 223.694478 240.251521 
L 223.791855 242.441991 
L 223.889232 261.034103 
L 224.181363 236.640766 
L 224.376116 244.713858 
L 224.473493 262.233437 
L 224.668247 238.77459 
L 224.765624 256.591479 
L 224.863001 244.326119 
L 224.960378 257.837733 
L 225.057755 245.993226 
L 225.155131 257.970942 
L 225.349885 252.393319 
L 225.544639 227.175822 
L 225.642016 251.198929 
L 225.739393 246.694477 
L 225.83677 253.713724 
L 226.031523 246.872306 
L 226.226277 249.234375 
L 226.323654 248.567482 
L 226.421031 259.326091 
L 226.615785 240.338297 
L 226.810539 250.023878 
L 227.005292 236.954006 
L 227.102669 241.600777 
L 227.297423 254.334018 
L 227.3948 245.130079 
L 227.492177 260.86123 
L 227.686931 242.108346 
L 227.784307 253.305219 
L 227.881684 248.902428 
L 227.979061 235.371113 
L 228.076438 257.905809 
L 228.173815 251.573947 
L 228.271192 260.400098 
L 228.465946 250.464318 
L 228.563323 246.696911 
L 228.660699 253.20197 
L 228.758076 251.817061 
L 229.050207 237.693526 
L 229.147584 255.458556 
L 229.244961 239.630697 
L 229.342338 258.240167 
L 229.439715 249.799912 
L 229.634468 254.161614 
L 229.731845 246.387547 
L 229.829222 256.848106 
L 229.926599 253.303899 
L 230.023976 242.387159 
L 230.121353 256.558765 
L 230.21873 252.221448 
L 230.316107 258.422242 
L 230.413483 214.484503 
L 230.51086 228.64021 
L 230.608237 227.279764 
L 230.705614 230.603365 
L 230.900368 255.866267 
L 230.997745 252.642602 
L 231.192499 260.173699 
L 231.289875 258.97171 
L 231.387252 259.111659 
L 231.484629 263.17539 
L 231.582006 262.436325 
L 232.06889 264.187078 
L 232.263644 262.050872 
L 232.361021 263.853475 
L 232.653152 258.403245 
L 232.847906 261.713716 
L 232.945282 258.717858 
L 233.140036 259.254473 
L 233.33479 263.407539 
L 233.432167 263.335167 
L 233.529544 263.568546 
L 233.724298 262.735698 
L 233.821674 261.591511 
L 234.113805 252.861704 
L 234.211182 261.20902 
L 234.405936 256.88238 
L 234.503313 257.422761 
L 234.795443 255.783101 
L 234.990197 262.883567 
L 235.184951 260.801836 
L 235.379705 263.923958 
L 235.574458 258.593036 
L 235.671835 263.443443 
L 235.769212 263.148674 
L 235.866589 262.297477 
L 235.963966 260.382189 
L 236.061343 245.147496 
L 236.353474 264.383367 
L 236.45085 252.319168 
L 236.548227 254.000211 
L 236.742981 262.73493 
L 236.937735 254.265369 
L 237.229866 262.237784 
L 237.424619 261.722129 
L 237.619373 262.078157 
L 237.71675 260.62615 
L 237.911504 263.95475 
L 238.106258 262.283904 
L 238.203634 263.459974 
L 238.301011 262.024843 
L 238.398388 264.009008 
L 238.593142 253.588074 
L 238.787896 259.157941 
L 238.98265 257.892554 
L 239.177403 220.369638 
L 239.27478 221.546614 
L 239.469534 257.569973 
L 239.566911 257.498919 
L 239.761665 260.401403 
L 239.859042 260.425441 
L 239.956418 260.121882 
L 240.053795 260.76811 
L 240.151172 262.361459 
L 240.345926 259.439228 
L 240.443303 263.986317 
L 240.54068 261.067526 
L 240.638057 261.584036 
L 240.83281 213.206376 
L 240.930187 258.192566 
L 241.124941 243.176592 
L 241.222318 244.930203 
L 241.514449 259.378852 
L 241.611826 255.384214 
L 241.709202 255.947988 
L 242.001333 263.269388 
L 242.09871 261.235243 
L 242.390841 262.255086 
L 242.585594 258.395689 
L 242.975102 264.007718 
L 243.072479 263.24959 
L 243.169856 263.973108 
L 243.267233 263.954395 
L 243.461986 263.364362 
L 243.559363 264.290923 
L 243.65674 263.803591 
L 243.851494 264.34913 
L 243.948871 264.390242 
L 244.046248 262.82526 
L 244.241002 264.380087 
L 244.338378 264.177177 
L 244.533132 264.304793 
L 244.727886 264.000102 
L 244.825263 264.669646 
L 244.92264 264.420902 
L 245.020017 264.496538 
L 245.21477 264.226552 
L 245.312147 264.610716 
L 245.506901 264.449053 
L 245.604278 262.423578 
L 245.701655 262.954987 
L 245.799032 264.56236 
L 245.896409 264.141346 
L 245.993786 264.252136 
L 246.091162 264.577792 
L 246.48067 263.884538 
L 246.578047 263.786204 
L 246.870178 264.364614 
L 246.967554 263.624042 
L 247.064931 263.84196 
L 247.162308 264.552015 
L 247.259685 263.941952 
L 247.357062 264.529024 
L 247.454439 264.131172 
L 247.649193 264.443582 
L 247.74657 264.487804 
L 247.843946 264.277048 
L 247.941323 264.36867 
L 248.0387 264.269777 
L 248.136077 264.356052 
L 248.233454 264.129075 
L 248.428208 264.619503 
L 248.525585 264.255259 
L 248.720338 264.543108 
L 248.915092 264.389027 
L 249.012469 264.356732 
L 249.207223 264.443888 
L 249.401977 264.549728 
L 249.499353 264.52652 
L 249.59673 228.111149 
L 249.694107 234.778965 
L 249.888861 258.352314 
L 249.986238 259.070467 
L 250.083615 260.928877 
L 250.180992 257.330677 
L 250.278369 264.42822 
L 250.473122 251.103584 
L 250.86263 248.22251 
L 250.960007 250.042616 
L 251.154761 262.144646 
L 251.252137 262.494054 
L 251.349514 263.792255 
L 251.446891 263.625737 
L 251.739022 263.971198 
L 251.933776 264.296207 
L 252.128529 263.931422 
L 252.323283 227.966288 
L 252.42066 253.516866 
L 252.810168 223.70129 
L 252.907545 232.182117 
L 253.102298 263.851083 
L 253.199675 262.368028 
L 253.297052 262.838613 
L 253.491806 252.051103 
L 253.589183 263.945661 
L 253.68656 261.054947 
L 253.783937 262.647415 
L 253.881313 258.768032 
L 253.97869 258.806988 
L 254.076067 258.018003 
L 254.173444 258.506407 
L 254.270821 260.098828 
L 254.368198 256.24454 
L 254.562952 264.202489 
L 254.660329 263.405308 
L 254.757705 263.816806 
L 254.855082 263.455294 
L 254.952459 263.605392 
L 255.049836 262.244511 
L 255.147213 262.607423 
L 255.24459 262.192389 
L 255.341967 260.190765 
L 255.439344 263.807882 
L 255.828851 254.130163 
L 256.023605 236.340489 
L 256.315736 262.928373 
L 256.510489 254.574583 
L 256.607866 253.956607 
L 256.705243 254.983419 
L 256.80262 230.360495 
L 256.899997 247.96798 
L 257.094751 224.607757 
L 257.192128 224.626556 
L 257.386881 232.280815 
L 257.484258 258.524995 
L 257.679012 235.094799 
L 257.776389 257.512017 
L 257.873766 248.791763 
L 258.06852 262.493402 
L 258.263273 259.853313 
L 258.36065 259.634616 
L 258.555404 263.791673 
L 258.652781 264.086892 
L 258.750158 262.331802 
L 259.042289 264.358823 
L 259.139665 264.441689 
L 259.237042 263.815778 
L 259.431796 264.238523 
L 259.529173 264.367822 
L 259.723927 263.897424 
L 259.821304 264.13322 
L 259.918681 263.953587 
L 260.016057 262.220096 
L 260.113434 262.88915 
L 260.210811 255.191425 
L 260.308188 255.949458 
L 260.502942 260.733802 
L 260.697696 252.407108 
L 260.795073 239.108896 
L 260.892449 249.561589 
L 260.989826 239.122117 
L 261.087203 243.473846 
L 261.18458 242.442268 
L 261.281957 235.951555 
L 261.379334 252.835156 
L 261.476711 246.295232 
L 261.574088 253.368198 
L 261.671465 251.70469 
L 261.866218 258.764143 
L 261.963595 259.917093 
L 262.060972 236.324723 
L 262.255726 260.823406 
L 262.353103 257.917771 
L 262.547857 239.655912 
L 262.645233 254.784381 
L 262.74261 242.883093 
L 262.937364 253.804317 
L 263.034741 237.061444 
L 263.229495 258.707464 
L 263.326872 246.340864 
L 263.424249 247.761822 
L 263.521625 257.752573 
L 263.619002 253.391981 
L 263.813756 239.287916 
L 263.911133 254.065415 
L 264.105887 233.248254 
L 264.300641 248.543958 
L 264.398017 251.19686 
L 264.592771 239.110978 
L 264.690148 252.199064 
L 264.884902 246.297966 
L 264.982279 256.030934 
L 265.079656 247.218758 
L 265.274409 256.357648 
L 265.371786 251.17039 
L 265.469163 252.165846 
L 265.56654 248.689712 
L 265.663917 253.472594 
L 265.858671 230.507971 
L 266.053424 257.869909 
L 266.150801 246.311539 
L 266.248178 221.197545 
L 266.540309 258.188448 
L 266.637686 241.13437 
L 266.735063 255.240217 
L 266.929816 240.403518 
L 267.027193 255.221641 
L 267.12457 253.326333 
L 267.319324 224.538975 
L 267.416701 228.850549 
L 267.514078 254.653337 
L 267.708832 237.414709 
L 267.806208 257.715636 
L 267.903585 247.564135 
L 268.000962 257.563601 
L 268.195716 237.794658 
L 268.293093 252.36922 
L 268.39047 246.994503 
L 268.585224 254.73293 
L 268.6826 242.470093 
L 268.779977 256.056144 
L 269.072108 238.144632 
L 269.266862 253.667535 
L 269.364239 260.686147 
L 269.461616 244.877969 
L 269.558992 249.539576 
L 269.656369 243.221358 
L 269.851123 257.058501 
L 269.9485 230.725217 
L 270.045877 242.176537 
L 270.143254 234.586551 
L 270.338008 250.034588 
L 270.435384 241.412401 
L 270.630138 252.027476 
L 270.824892 245.944111 
L 271.019646 257.633401 
L 271.117023 245.319203 
L 271.2144 254.572494 
L 271.409153 222.646304 
L 271.50653 259.10503 
L 271.603907 246.728085 
L 271.701284 249.437682 
L 271.798661 262.406095 
L 271.993415 239.821192 
L 272.090792 239.849476 
L 272.188168 242.023698 
L 272.480299 255.786186 
L 272.675053 245.972924 
L 272.77243 254.72751 
L 272.967184 248.099989 
L 273.06456 255.054727 
L 273.259314 244.640769 
L 273.454068 259.088407 
L 273.746199 246.703296 
L 273.843576 256.133417 
L 273.940952 250.65939 
L 274.038329 253.969043 
L 274.233083 244.85056 
L 274.33046 251.015151 
L 274.427837 244.204277 
L 274.622591 260.306494 
L 274.719968 261.293317 
L 274.914721 234.22894 
L 275.012098 253.211581 
L 275.109475 251.82014 
L 275.304229 257.782719 
L 275.401606 240.231177 
L 275.498983 252.727613 
L 275.59636 250.026884 
L 275.791113 257.173304 
L 275.985867 246.158288 
L 276.083244 249.413565 
L 276.180621 257.363749 
L 276.277998 257.319324 
L 276.375375 257.289097 
L 276.472752 235.419189 
L 276.570128 252.920398 
L 276.667505 251.500323 
L 276.764882 259.73139 
L 276.862259 253.946265 
L 276.959636 225.55368 
L 277.057013 249.262234 
L 277.15439 240.284932 
L 277.251767 250.859228 
L 277.349144 244.888751 
L 277.44652 253.638819 
L 277.641274 234.172468 
L 277.738651 250.253734 
L 277.836028 249.49754 
L 277.933405 248.898262 
L 278.128159 257.760729 
L 278.225536 235.320872 
L 278.420289 257.725376 
L 278.517666 261.493045 
L 278.71242 222.044443 
L 278.809797 258.753617 
L 278.907174 232.887773 
L 279.101928 258.080638 
L 279.199304 247.092938 
L 279.296681 256.416851 
L 279.394058 255.384269 
L 279.491435 259.814189 
L 279.588812 245.076411 
L 279.783566 261.137195 
L 279.97832 243.089282 
L 280.075696 259.318824 
L 280.367827 250.00651 
L 280.465204 237.152698 
L 280.659958 249.730192 
L 280.757335 258.768603 
L 280.854712 251.868482 
L 280.952088 255.694943 
L 281.049465 235.874208 
L 281.244219 255.491471 
L 281.341596 256.912511 
L 281.53635 241.263259 
L 281.633727 253.724223 
L 281.82848 239.292549 
L 281.925857 257.216601 
L 282.120611 250.878927 
L 282.315365 260.146542 
L 282.510119 230.318884 
L 282.607496 254.743077 
L 282.704872 251.657064 
L 282.802249 240.297595 
L 282.899626 241.371768 
L 282.997003 250.245883 
L 283.09438 245.708352 
L 283.191757 250.850168 
L 283.289134 241.058869 
L 283.386511 253.062413 
L 283.483887 232.430118 
L 283.678641 255.018415 
L 283.776018 248.787252 
L 283.873395 258.501608 
L 283.970772 253.238465 
L 284.068149 241.862483 
L 284.165526 252.800571 
L 284.262903 250.147236 
L 284.457656 253.852973 
L 284.555033 242.492614 
L 284.749787 248.132672 
L 284.847164 247.885222 
L 284.944541 234.231835 
L 285.041918 256.296953 
L 285.139295 247.359817 
L 285.334048 254.381107 
L 285.528802 241.795526 
L 285.626179 259.262085 
L 285.723556 249.723255 
L 285.820933 251.283204 
L 286.015687 262.283488 
L 286.113063 253.147871 
L 286.21044 262.186219 
L 286.405194 247.126237 
L 286.502571 251.714215 
L 286.599948 262.02304 
L 286.697325 261.170044 
L 286.794702 259.189472 
L 286.892079 251.760886 
L 287.086832 261.667976 
L 287.184209 252.204075 
L 287.281586 230.503358 
L 287.47634 250.031017 
L 287.573717 246.912971 
L 287.671094 236.288079 
L 287.865847 258.265331 
L 287.963224 240.648445 
L 288.157978 253.827523 
L 288.255355 246.5978 
L 288.352732 255.906217 
L 288.450109 244.711411 
L 288.644863 261.198637 
L 288.839616 258.101025 
L 288.936993 243.568616 
L 289.03437 245.586829 
L 289.131747 254.167387 
L 289.229124 213.933406 
L 289.326501 252.395543 
L 289.521255 237.669821 
L 289.618631 219.741633 
L 289.813385 245.016819 
L 289.910762 241.389276 
L 290.105516 256.021973 
L 290.30027 245.999512 
L 290.495023 252.997331 
L 290.5924 255.537507 
L 290.689777 234.460835 
L 290.884531 259.681213 
L 291.079285 250.791039 
L 291.176662 221.401492 
L 291.371415 250.288253 
L 291.468792 260.713755 
L 291.566169 231.869832 
L 291.663546 254.521129 
L 291.8583 243.302484 
L 291.955677 248.178333 
L 292.053054 260.31733 
L 292.247807 253.490462 
L 292.345184 248.185168 
L 292.442561 250.205313 
L 292.539938 240.019361 
L 292.637315 244.492261 
L 292.734692 255.068605 
L 292.832069 249.968596 
L 292.929446 250.748377 
L 293.026823 256.000522 
L 293.124199 237.89974 
L 293.318953 254.437464 
L 293.513707 236.152021 
L 293.611084 255.723066 
L 293.805838 238.845319 
L 293.903215 240.009477 
L 294.000591 258.355806 
L 294.195345 239.145331 
L 294.292722 253.179082 
L 294.390099 248.150487 
L 294.487476 252.479325 
L 294.584853 234.700754 
L 294.779607 251.680637 
L 294.876983 245.381804 
L 294.97436 258.860051 
L 295.071737 241.837319 
L 295.169114 256.357036 
L 295.266491 248.495322 
L 295.363868 252.108446 
L 295.461245 246.610806 
L 295.558622 252.570907 
L 295.753375 228.382376 
L 295.850752 255.58584 
L 295.948129 239.536324 
L 296.045506 261.044346 
L 296.24026 254.768091 
L 296.337637 254.953503 
L 296.435014 257.355868 
L 296.532391 250.493291 
L 296.629767 220.487876 
L 296.921898 248.796966 
L 297.019275 238.953936 
L 297.116652 261.782419 
L 297.214029 256.40522 
L 297.311406 256.920681 
L 297.408783 227.933163 
L 297.603536 250.833917 
L 297.700913 254.917874 
L 297.79829 241.949885 
L 297.895667 245.881463 
L 297.993044 242.590131 
L 298.187798 260.937182 
L 298.382551 246.215858 
L 298.479928 248.454924 
L 298.674682 258.786858 
L 298.869436 239.148449 
L 299.06419 257.892717 
L 299.161567 257.034895 
L 299.258943 237.017855 
L 299.35632 259.52755 
L 299.453697 257.89833 
L 299.551074 253.44968 
L 299.745828 232.317038 
L 299.843205 244.548038 
L 299.940582 244.250721 
L 300.037958 253.812794 
L 300.135335 244.560878 
L 300.524843 261.590905 
L 300.719597 242.556123 
L 300.816974 237.946044 
L 300.91435 253.591795 
L 301.011727 251.782621 
L 301.109104 250.75421 
L 301.206481 252.864433 
L 301.303858 238.350125 
L 301.401235 240.377571 
L 301.498612 260.385713 
L 301.693366 238.378087 
L 301.790742 261.873161 
L 301.888119 241.40592 
L 301.985496 251.968121 
L 302.082873 250.500767 
L 302.18025 255.032385 
L 302.277627 232.52704 
L 302.375004 252.488345 
L 302.569758 225.493036 
L 302.667134 252.792041 
L 302.764511 251.545843 
L 302.861888 253.874914 
L 302.959265 230.831791 
L 303.251396 255.16809 
L 303.348773 254.155056 
L 303.44615 259.560546 
L 303.543526 243.434468 
L 303.640903 262.579962 
L 303.933034 241.675698 
L 304.225165 253.525066 
L 304.322542 238.656045 
L 304.517295 260.637118 
L 304.614672 255.015708 
L 304.712049 252.34169 
L 304.809426 241.600107 
L 304.906803 261.650055 
L 305.00418 249.479874 
L 305.198934 258.810971 
L 305.29631 252.684966 
L 305.393687 259.401137 
L 305.491064 246.425583 
L 305.588441 258.888601 
L 305.685818 241.576621 
L 305.783195 242.167988 
L 305.880572 256.360792 
L 305.977949 241.619725 
L 306.075326 241.977901 
L 306.270079 258.748844 
L 306.367456 247.451357 
L 306.464833 248.204199 
L 306.56221 249.28225 
L 306.659587 254.592209 
L 306.854341 248.336914 
L 306.951718 253.62956 
L 307.049094 244.316976 
L 307.146471 260.006428 
L 307.535979 223.720548 
L 307.633356 258.135498 
L 307.730733 257.988458 
L 307.82811 253.239927 
L 307.925486 255.942685 
L 308.022863 253.256917 
L 308.12024 256.446205 
L 308.314994 254.639179 
L 308.412371 258.024017 
L 308.509748 244.24405 
L 308.704502 257.340177 
L 308.801878 234.882945 
L 308.899255 260.80737 
L 308.996632 245.72283 
L 309.191386 259.41926 
L 309.288763 232.74938 
L 309.38614 262.803411 
L 309.483517 246.670574 
L 309.580894 256.232565 
L 309.67827 231.771399 
L 309.775647 260.948157 
L 309.970401 246.586397 
L 310.067778 248.721213 
L 310.165155 259.685034 
L 310.262532 250.790158 
L 310.359909 256.424663 
L 310.457286 243.475753 
L 310.554662 259.647703 
L 310.652039 258.675971 
L 310.846793 240.972089 
L 310.94417 232.543156 
L 311.236301 259.907112 
L 311.333678 250.021614 
L 311.431054 253.720322 
L 311.528431 247.758745 
L 311.625808 248.023783 
L 311.723185 248.629515 
L 311.917939 237.650016 
L 312.015316 263.231478 
L 312.112693 242.331439 
L 312.21007 245.514457 
L 312.307446 256.542519 
L 312.404823 236.284826 
L 312.5022 257.480795 
L 312.599577 255.198504 
L 312.696954 245.992712 
L 312.891708 259.508618 
L 312.989085 246.885529 
L 313.183838 258.760368 
L 313.281215 255.960587 
L 313.378592 235.573483 
L 313.573346 255.605423 
L 313.670723 250.534189 
L 313.7681 239.443835 
L 313.962854 259.247118 
L 314.06023 239.977229 
L 314.254984 257.24234 
L 314.352361 230.140399 
L 314.547115 247.190932 
L 314.644492 243.589897 
L 314.741869 248.972183 
L 314.839246 237.241437 
L 314.936622 258.186634 
L 315.033999 242.008614 
L 315.131376 258.387978 
L 315.228753 233.902009 
L 315.32613 242.11655 
L 315.423507 240.473032 
L 315.520884 257.699604 
L 315.618261 247.954079 
L 315.715638 260.159667 
L 315.910391 237.896355 
L 316.007768 237.905525 
L 316.202522 254.708407 
L 316.397276 260.207029 
L 316.494653 259.451749 
L 316.689406 248.900904 
L 316.786783 244.296912 
L 316.981537 254.666525 
L 317.176291 241.939063 
L 317.273668 234.786584 
L 317.468421 252.355631 
L 317.565798 262.179579 
L 317.663175 244.023649 
L 317.857929 258.150995 
L 318.052683 252.793262 
L 318.15006 255.540146 
L 318.247437 249.873137 
L 318.344813 253.27414 
L 318.44219 246.587948 
L 318.539567 246.846046 
L 318.636944 253.03032 
L 318.734321 248.561377 
L 318.831698 257.989421 
L 318.929075 245.517236 
L 319.123829 255.064705 
L 319.318582 242.9537 
L 319.415959 261.700495 
L 319.513336 261.189691 
L 319.805467 242.018561 
L 319.902844 243.027757 
L 320.097597 260.416266 
L 320.194974 240.736838 
L 320.292351 255.326077 
L 320.389728 246.621531 
L 320.584482 256.236835 
L 320.681859 255.407569 
L 320.876613 257.5854 
L 321.071366 244.138678 
L 321.168743 254.223511 
L 321.26612 242.298076 
L 321.363497 256.559713 
L 321.460874 254.624454 
L 321.558251 251.644574 
L 321.655628 253.53405 
L 321.753005 239.204185 
L 321.850381 259.612705 
L 321.947758 259.513258 
L 322.045135 256.307646 
L 322.239889 240.054215 
L 322.337266 259.968648 
L 322.434643 255.797853 
L 322.53202 242.781159 
L 322.629397 257.709785 
L 322.726773 230.278445 
L 322.82415 252.476688 
L 322.921527 246.41123 
L 323.018904 250.486913 
L 323.213658 243.913235 
L 323.311035 253.77203 
L 323.505789 237.944709 
L 323.603165 240.068545 
L 323.797919 259.461595 
L 323.895296 252.051758 
L 323.992673 253.495371 
L 324.187427 257.70039 
L 324.284804 244.043726 
L 324.382181 245.625464 
L 324.479557 254.039014 
L 324.576934 250.428725 
L 324.674311 238.69728 
L 324.771688 258.861714 
L 324.869065 245.648144 
L 325.063819 256.369108 
L 325.161196 251.559136 
L 325.258573 257.39858 
L 325.355949 251.344589 
L 325.453326 260.653225 
L 325.64808 241.428036 
L 325.745457 257.922184 
L 325.842834 248.249497 
L 326.134965 258.639718 
L 326.232341 255.330652 
L 326.329718 236.627431 
L 326.427095 245.194826 
L 326.524472 240.770104 
L 326.621849 252.325367 
L 326.719226 234.488744 
L 326.91398 252.907565 
L 327.011357 253.539988 
L 327.108733 257.548572 
L 327.20611 255.658355 
L 327.303487 243.892331 
L 327.400864 249.245214 
L 327.498241 248.781655 
L 327.595618 252.995868 
L 327.692995 238.877924 
L 327.790372 260.738923 
L 327.887749 249.953525 
L 327.985125 261.85486 
L 328.082502 247.185112 
L 328.179879 248.798397 
L 328.277256 252.888399 
L 328.374633 249.124018 
L 328.47201 255.006893 
L 328.569387 249.361111 
L 328.666764 251.022722 
L 328.764141 254.839953 
L 328.861517 241.227661 
L 328.958894 258.037204 
L 329.056271 255.781891 
L 329.153648 242.472669 
L 329.251025 246.956127 
L 329.348402 256.62599 
L 329.445779 256.167048 
L 329.543156 255.838358 
L 329.640533 260.525593 
L 329.737909 250.99682 
L 329.835286 252.724668 
L 329.932663 234.982569 
L 330.127417 252.673701 
L 330.224794 237.987603 
L 330.419548 253.313328 
L 330.516925 262.057723 
L 330.614301 257.893086 
L 330.711678 239.247338 
L 331.003809 248.500364 
L 331.198563 260.465668 
L 331.29594 247.812958 
L 331.393317 248.328966 
L 331.490693 257.049782 
L 331.58807 256.063514 
L 331.685447 256.256826 
L 331.782824 258.043558 
L 331.880201 235.313593 
L 332.074955 252.500629 
L 332.172332 256.281186 
L 332.269709 251.525088 
L 332.464462 256.996715 
L 332.561839 247.111346 
L 332.659216 261.275813 
L 332.756593 258.488195 
L 332.85397 260.919458 
L 332.951347 240.358559 
L 333.048724 259.409074 
L 333.146101 255.902854 
L 333.243477 246.414723 
L 333.340854 258.811259 
L 333.438231 255.375596 
L 333.535608 261.570463 
L 333.827739 246.551562 
L 333.925116 252.374434 
L 334.022493 249.854636 
L 334.119869 255.007292 
L 334.217246 244.890765 
L 334.412 261.555999 
L 334.509377 252.642114 
L 334.606754 257.304564 
L 334.704131 235.963092 
L 334.801508 262.115028 
L 334.898884 259.685277 
L 335.093638 242.754567 
L 335.288392 254.758278 
L 335.385769 247.772784 
L 335.6779 260.012264 
L 335.775276 254.963901 
L 335.872653 257.704407 
L 336.067407 252.403919 
L 336.164784 245.475308 
L 336.359538 255.937515 
L 336.456915 261.117205 
L 336.554292 251.391104 
L 336.651668 256.383161 
L 336.749045 255.731583 
L 336.846422 256.463772 
L 336.943799 258.387332 
L 337.041176 249.286036 
L 337.23593 259.938539 
L 337.333307 260.682634 
L 337.430684 255.153205 
L 337.52806 258.734189 
L 337.625437 258.637483 
L 337.820191 261.37583 
L 337.917568 244.377934 
L 338.014945 245.179511 
L 338.209699 259.141821 
L 338.307076 260.532037 
L 338.404452 255.874586 
L 338.501829 233.274893 
L 338.599206 237.240192 
L 338.79396 256.332527 
L 338.891337 250.743715 
L 338.988714 260.415379 
L 339.183468 233.575352 
L 339.378221 260.938584 
L 339.572975 246.587254 
L 339.670352 250.368951 
L 339.865106 259.806161 
L 340.05986 258.176291 
L 340.157236 240.540866 
L 340.35199 259.105729 
L 340.449367 259.780137 
L 340.546744 247.32108 
L 340.644121 254.691392 
L 340.741498 254.581618 
L 340.838875 259.813328 
L 341.033628 244.316972 
L 341.131005 259.801233 
L 341.228382 246.810943 
L 341.325759 250.823415 
L 341.423136 244.127822 
L 341.520513 255.163961 
L 341.61789 254.304912 
L 341.715267 253.332233 
L 341.91002 262.83222 
L 342.104774 244.598797 
L 342.494282 262.363576 
L 342.591659 253.695416 
L 342.689036 256.077467 
L 342.786412 254.398038 
L 342.883789 243.764184 
L 342.981166 249.891075 
L 343.078543 245.434395 
L 343.17592 260.360734 
L 343.370674 247.320212 
L 343.468051 249.401474 
L 343.565428 234.913578 
L 343.662804 259.149072 
L 343.857558 243.057746 
L 343.954935 253.020494 
L 344.052312 252.895485 
L 344.149689 249.701529 
L 344.247066 250.882564 
L 344.344443 248.718332 
L 344.44182 257.35416 
L 344.636573 243.169236 
L 344.73395 255.870885 
L 344.831327 255.278949 
L 345.026081 248.606077 
L 345.123458 258.797848 
L 345.220835 255.653388 
L 345.318212 248.27091 
L 345.415588 251.480952 
L 345.512965 245.109822 
L 345.610342 259.300618 
L 345.707719 243.448946 
L 345.805096 255.855831 
L 345.902473 234.976212 
L 346.097227 251.192484 
L 346.194604 249.553267 
L 346.29198 259.861357 
L 346.486734 250.195265 
L 346.584111 254.366902 
L 346.778865 236.541235 
L 346.876242 259.810662 
L 347.070996 252.410176 
L 347.168372 234.330613 
L 347.265749 253.583825 
L 347.363126 250.285574 
L 347.55788 229.223293 
L 347.752634 258.285247 
L 347.850011 257.216497 
L 347.947388 257.38024 
L 348.142141 228.317846 
L 348.239518 247.099796 
L 348.336895 196.020071 
L 348.434272 248.214432 
L 348.629026 214.062913 
L 348.726403 250.452837 
L 348.82378 249.350181 
L 348.921156 208.750883 
L 349.11591 259.358991 
L 349.213287 253.621264 
L 349.310664 218.104948 
L 349.408041 249.816148 
L 349.505418 243.745582 
L 349.602795 253.591179 
L 349.700172 234.673353 
L 349.797548 236.505682 
L 349.992302 262.033542 
L 350.089679 239.038261 
L 350.284433 256.128258 
L 350.38181 228.471277 
L 350.576564 258.236504 
L 350.67394 255.022815 
L 350.771317 259.034698 
L 350.868694 253.545955 
L 350.966071 236.067614 
L 351.063448 255.355994 
L 351.258202 245.299843 
L 351.355579 255.236007 
L 351.550332 243.530129 
L 351.647709 241.936256 
L 351.745086 262.272223 
L 351.842463 238.941842 
L 351.93984 252.765436 
L 352.037217 243.586225 
L 352.134594 259.327166 
L 352.329347 241.592668 
L 352.426724 258.713829 
L 352.524101 239.386929 
L 352.718855 245.451882 
L 352.816232 234.944513 
L 353.010986 260.694628 
L 353.205739 247.066037 
L 353.303116 259.171846 
L 353.400493 216.615652 
L 353.790001 259.877659 
L 353.887378 239.076832 
L 353.984755 241.294428 
L 354.082131 240.924434 
L 354.179508 255.842557 
L 354.374262 227.261707 
L 354.471639 248.801724 
L 354.569016 247.782376 
L 354.666393 257.688418 
L 354.76377 242.930909 
L 354.861147 244.32743 
L 354.958523 246.372914 
L 355.250654 259.893353 
L 355.348031 254.135011 
L 355.445408 254.327632 
L 355.542785 235.130376 
L 355.737539 254.602261 
L 355.834915 256.414465 
L 355.932292 244.612383 
L 356.029669 258.560323 
L 356.127046 257.7697 
L 356.224423 233.286342 
L 356.3218 256.946944 
L 356.516554 249.000505 
L 356.613931 255.556575 
L 356.711307 247.832429 
L 356.808684 259.045738 
L 356.906061 239.185134 
L 357.100815 258.370139 
L 357.198192 249.834742 
L 357.392946 257.377959 
L 357.490323 257.187654 
L 357.587699 254.62135 
L 357.685076 256.305597 
L 357.782453 236.331043 
L 357.977207 255.229859 
L 358.074584 260.592877 
L 358.366715 244.471982 
L 358.464091 244.20726 
L 358.658845 255.05421 
L 358.853599 241.209471 
L 358.950976 243.298213 
L 359.048353 237.346682 
L 359.14573 254.081778 
L 359.340483 241.88961 
L 359.43786 260.144246 
L 359.729991 238.604095 
L 359.924745 261.239382 
L 360.022122 251.377297 
L 360.119499 252.618344 
L 360.216875 245.630968 
L 360.314252 258.487844 
L 360.411629 255.643137 
L 360.509006 236.566511 
L 360.70376 256.827182 
L 360.801137 254.92927 
L 360.898514 244.385444 
L 360.995891 248.788399 
L 361.190644 240.723325 
L 361.288021 239.514746 
L 361.385398 253.512752 
L 361.482775 228.51444 
L 361.677529 254.057374 
L 361.774906 252.600935 
L 361.872283 255.633475 
L 361.969659 241.180544 
L 362.067036 256.81685 
L 362.164413 249.452988 
L 362.26179 254.283441 
L 362.456544 237.49397 
L 362.553921 182.63105 
L 362.748675 248.583214 
L 362.846051 237.546272 
L 363.040805 255.084091 
L 363.138182 249.514767 
L 363.235559 253.903554 
L 363.332936 205.843288 
L 363.625067 249.154309 
L 363.81982 253.686742 
L 363.917197 183.122586 
L 364.014574 226.531325 
L 364.111951 198.663543 
L 364.404082 243.260535 
L 364.501459 227.243374 
L 364.598835 260.374995 
L 364.696212 252.066942 
L 364.793589 229.341708 
L 364.890966 233.334673 
L 364.988343 211.609738 
L 365.183097 222.186728 
L 365.280474 237.216174 
L 365.377851 230.194978 
L 365.572604 247.257279 
L 365.669981 243.870374 
L 365.767358 252.671077 
L 365.864735 236.07195 
L 366.156866 260.239929 
L 366.351619 242.974904 
L 366.448996 242.125392 
L 366.741127 261.437527 
L 366.838504 260.587126 
L 366.935881 192.584014 
L 367.130635 243.049845 
L 367.228011 218.919378 
L 367.422765 255.706141 
L 367.520142 252.797644 
L 367.714896 255.705164 
L 367.812273 258.270218 
L 367.812273 258.270218 
" style="fill:none;stroke:#1f77b4;stroke-linecap:square;stroke-width:1.5;"/>
   </g>
   <g id="patch_3">
    <path d="M 26.925 276.812 
L 26.925 10.7 
" style="fill:none;stroke:#000000;stroke-linecap:square;stroke-linejoin:miter;stroke-width:0.8;"/>
   </g>
   <g id="patch_4">
    <path d="M 384.045 276.812 
L 384.045 10.7 
" style="fill:none;stroke:#000000;stroke-linecap:square;stroke-linejoin:miter;stroke-width:0.8;"/>
   </g>
   <g id="patch_5">
    <path d="M 26.925 276.812 
L 384.045 276.812 
" style="fill:none;stroke:#000000;stroke-linecap:square;stroke-linejoin:miter;stroke-width:0.8;"/>
   </g>
   <g id="patch_6">
    <path d="M 26.925 10.7 
L 384.045 10.7 
" style="fill:none;stroke:#000000;stroke-linecap:square;stroke-linejoin:miter;stroke-width:0.8;"/>
   </g>
  </g>
 </g>
 <defs>
  <clipPath id="p0bc6e87bd9">
   <rect height="266.112" width="357.12" x="26.925" y="10.7"/>
  </clipPath>
 </defs>
</svg>
