<?xml version="1.0" encoding="utf-8" standalone="no"?>
<!DOCTYPE svg PUBLIC "-//W3C//DTD SVG 1.1//EN"
  "http://www.w3.org/Graphics/SVG/1.1/DTD/svg11.dtd">
<!-- Created with matplotlib (http://matplotlib.org/) -->
<svg height="300.690125pt" version="1.1" viewBox="0 0 388.3825 300.690125" width="388.3825pt" xmlns="http://www.w3.org/2000/svg" xmlns:xlink="http://www.w3.org/1999/xlink">
 <defs>
  <style type="text/css">
*{stroke-linecap:butt;stroke-linejoin:round;}
  </style>
 </defs>
 <g id="figure_1">
  <g id="patch_1">
   <path d="M 0 300.690125 
L 388.3825 300.690125 
L 388.3825 0 
L 0 0 
z
" style="fill:#ffffff;"/>
  </g>
  <g id="axes_1">
   <g id="patch_2">
    <path d="M 20.5625 276.812 
L 377.6825 276.812 
L 377.6825 10.7 
L 20.5625 10.7 
z
" style="fill:#ffffff;"/>
   </g>
   <g id="matplotlib.axis_1">
    <g id="xtick_1">
     <g id="line2d_1">
      <defs>
       <path d="M 0 0 
L 0 3.5 
" id="m36fb63ee8b" style="stroke:#000000;stroke-width:0.8;"/>
      </defs>
      <g>
       <use style="stroke:#000000;stroke-width:0.8;" x="36.795227" xlink:href="#m36fb63ee8b" y="276.812"/>
      </g>
     </g>
     <g id="text_1">
      <!-- 0 -->
      <defs>
       <path d="M 31.78125 66.40625 
Q 24.171875 66.40625 20.328125 58.90625 
Q 16.5 51.421875 16.5 36.375 
Q 16.5 21.390625 20.328125 13.890625 
Q 24.171875 6.390625 31.78125 6.390625 
Q 39.453125 6.390625 43.28125 13.890625 
Q 47.125 21.390625 47.125 36.375 
Q 47.125 51.421875 43.28125 58.90625 
Q 39.453125 66.40625 31.78125 66.40625 
z
M 31.78125 74.21875 
Q 44.046875 74.21875 50.515625 64.515625 
Q 56.984375 54.828125 56.984375 36.375 
Q 56.984375 17.96875 50.515625 8.265625 
Q 44.046875 -1.421875 31.78125 -1.421875 
Q 19.53125 -1.421875 13.0625 8.265625 
Q 6.59375 17.96875 6.59375 36.375 
Q 6.59375 54.828125 13.0625 64.515625 
Q 19.53125 74.21875 31.78125 74.21875 
z
" id="DejaVuSans-30"/>
      </defs>
      <g transform="translate(33.613977 291.410437)scale(0.1 -0.1)">
       <use xlink:href="#DejaVuSans-30"/>
      </g>
     </g>
    </g>
    <g id="xtick_2">
     <g id="line2d_2">
      <g>
       <use style="stroke:#000000;stroke-width:0.8;" x="115.882814" xlink:href="#m36fb63ee8b" y="276.812"/>
      </g>
     </g>
     <g id="text_2">
      <!-- 200 -->
      <defs>
       <path d="M 19.1875 8.296875 
L 53.609375 8.296875 
L 53.609375 0 
L 7.328125 0 
L 7.328125 8.296875 
Q 12.9375 14.109375 22.625 23.890625 
Q 32.328125 33.6875 34.8125 36.53125 
Q 39.546875 41.84375 41.421875 45.53125 
Q 43.3125 49.21875 43.3125 52.78125 
Q 43.3125 58.59375 39.234375 62.25 
Q 35.15625 65.921875 28.609375 65.921875 
Q 23.96875 65.921875 18.8125 64.3125 
Q 13.671875 62.703125 7.8125 59.421875 
L 7.8125 69.390625 
Q 13.765625 71.78125 18.9375 73 
Q 24.125 74.21875 28.421875 74.21875 
Q 39.75 74.21875 46.484375 68.546875 
Q 53.21875 62.890625 53.21875 53.421875 
Q 53.21875 48.921875 51.53125 44.890625 
Q 49.859375 40.875 45.40625 35.40625 
Q 44.1875 33.984375 37.640625 27.21875 
Q 31.109375 20.453125 19.1875 8.296875 
z
" id="DejaVuSans-32"/>
      </defs>
      <g transform="translate(106.339064 291.410437)scale(0.1 -0.1)">
       <use xlink:href="#DejaVuSans-32"/>
       <use x="63.623047" xlink:href="#DejaVuSans-30"/>
       <use x="127.246094" xlink:href="#DejaVuSans-30"/>
      </g>
     </g>
    </g>
    <g id="xtick_3">
     <g id="line2d_3">
      <g>
       <use style="stroke:#000000;stroke-width:0.8;" x="194.970402" xlink:href="#m36fb63ee8b" y="276.812"/>
      </g>
     </g>
     <g id="text_3">
      <!-- 400 -->
      <defs>
       <path d="M 37.796875 64.3125 
L 12.890625 25.390625 
L 37.796875 25.390625 
z
M 35.203125 72.90625 
L 47.609375 72.90625 
L 47.609375 25.390625 
L 58.015625 25.390625 
L 58.015625 17.1875 
L 47.609375 17.1875 
L 47.609375 0 
L 37.796875 0 
L 37.796875 17.1875 
L 4.890625 17.1875 
L 4.890625 26.703125 
z
" id="DejaVuSans-34"/>
      </defs>
      <g transform="translate(185.426652 291.410437)scale(0.1 -0.1)">
       <use xlink:href="#DejaVuSans-34"/>
       <use x="63.623047" xlink:href="#DejaVuSans-30"/>
       <use x="127.246094" xlink:href="#DejaVuSans-30"/>
      </g>
     </g>
    </g>
    <g id="xtick_4">
     <g id="line2d_4">
      <g>
       <use style="stroke:#000000;stroke-width:0.8;" x="274.057989" xlink:href="#m36fb63ee8b" y="276.812"/>
      </g>
     </g>
     <g id="text_4">
      <!-- 600 -->
      <defs>
       <path d="M 33.015625 40.375 
Q 26.375 40.375 22.484375 35.828125 
Q 18.609375 31.296875 18.609375 23.390625 
Q 18.609375 15.53125 22.484375 10.953125 
Q 26.375 6.390625 33.015625 6.390625 
Q 39.65625 6.390625 43.53125 10.953125 
Q 47.40625 15.53125 47.40625 23.390625 
Q 47.40625 31.296875 43.53125 35.828125 
Q 39.65625 40.375 33.015625 40.375 
z
M 52.59375 71.296875 
L 52.59375 62.3125 
Q 48.875 64.0625 45.09375 64.984375 
Q 41.3125 65.921875 37.59375 65.921875 
Q 27.828125 65.921875 22.671875 59.328125 
Q 17.53125 52.734375 16.796875 39.40625 
Q 19.671875 43.65625 24.015625 45.921875 
Q 28.375 48.1875 33.59375 48.1875 
Q 44.578125 48.1875 50.953125 41.515625 
Q 57.328125 34.859375 57.328125 23.390625 
Q 57.328125 12.15625 50.6875 5.359375 
Q 44.046875 -1.421875 33.015625 -1.421875 
Q 20.359375 -1.421875 13.671875 8.265625 
Q 6.984375 17.96875 6.984375 36.375 
Q 6.984375 53.65625 15.1875 63.9375 
Q 23.390625 74.21875 37.203125 74.21875 
Q 40.921875 74.21875 44.703125 73.484375 
Q 48.484375 72.75 52.59375 71.296875 
z
" id="DejaVuSans-36"/>
      </defs>
      <g transform="translate(264.514239 291.410437)scale(0.1 -0.1)">
       <use xlink:href="#DejaVuSans-36"/>
       <use x="63.623047" xlink:href="#DejaVuSans-30"/>
       <use x="127.246094" xlink:href="#DejaVuSans-30"/>
      </g>
     </g>
    </g>
    <g id="xtick_5">
     <g id="line2d_5">
      <g>
       <use style="stroke:#000000;stroke-width:0.8;" x="353.145576" xlink:href="#m36fb63ee8b" y="276.812"/>
      </g>
     </g>
     <g id="text_5">
      <!-- 800 -->
      <defs>
       <path d="M 31.78125 34.625 
Q 24.75 34.625 20.71875 30.859375 
Q 16.703125 27.09375 16.703125 20.515625 
Q 16.703125 13.921875 20.71875 10.15625 
Q 24.75 6.390625 31.78125 6.390625 
Q 38.8125 6.390625 42.859375 10.171875 
Q 46.921875 13.96875 46.921875 20.515625 
Q 46.921875 27.09375 42.890625 30.859375 
Q 38.875 34.625 31.78125 34.625 
z
M 21.921875 38.8125 
Q 15.578125 40.375 12.03125 44.71875 
Q 8.5 49.078125 8.5 55.328125 
Q 8.5 64.0625 14.71875 69.140625 
Q 20.953125 74.21875 31.78125 74.21875 
Q 42.671875 74.21875 48.875 69.140625 
Q 55.078125 64.0625 55.078125 55.328125 
Q 55.078125 49.078125 51.53125 44.71875 
Q 48 40.375 41.703125 38.8125 
Q 48.828125 37.15625 52.796875 32.3125 
Q 56.78125 27.484375 56.78125 20.515625 
Q 56.78125 9.90625 50.3125 4.234375 
Q 43.84375 -1.421875 31.78125 -1.421875 
Q 19.734375 -1.421875 13.25 4.234375 
Q 6.78125 9.90625 6.78125 20.515625 
Q 6.78125 27.484375 10.78125 32.3125 
Q 14.796875 37.15625 21.921875 38.8125 
z
M 18.3125 54.390625 
Q 18.3125 48.734375 21.84375 45.5625 
Q 25.390625 42.390625 31.78125 42.390625 
Q 38.140625 42.390625 41.71875 45.5625 
Q 45.3125 48.734375 45.3125 54.390625 
Q 45.3125 60.0625 41.71875 63.234375 
Q 38.140625 66.40625 31.78125 66.40625 
Q 25.390625 66.40625 21.84375 63.234375 
Q 18.3125 60.0625 18.3125 54.390625 
z
" id="DejaVuSans-38"/>
      </defs>
      <g transform="translate(343.601826 291.410437)scale(0.1 -0.1)">
       <use xlink:href="#DejaVuSans-38"/>
       <use x="63.623047" xlink:href="#DejaVuSans-30"/>
       <use x="127.246094" xlink:href="#DejaVuSans-30"/>
      </g>
     </g>
    </g>
   </g>
   <g id="matplotlib.axis_2">
    <g id="ytick_1">
     <g id="line2d_6">
      <defs>
       <path d="M 0 0 
L -3.5 0 
" id="m7aa759e7f9" style="stroke:#000000;stroke-width:0.8;"/>
      </defs>
      <g>
       <use style="stroke:#000000;stroke-width:0.8;" x="20.5625" xlink:href="#m7aa759e7f9" y="264.87874"/>
      </g>
     </g>
     <g id="text_6">
      <!-- 0 -->
      <g transform="translate(7.2 268.677959)scale(0.1 -0.1)">
       <use xlink:href="#DejaVuSans-30"/>
      </g>
     </g>
    </g>
    <g id="ytick_2">
     <g id="line2d_7">
      <g>
       <use style="stroke:#000000;stroke-width:0.8;" x="20.5625" xlink:href="#m7aa759e7f9" y="218.793583"/>
      </g>
     </g>
     <g id="text_7">
      <!-- 1 -->
      <defs>
       <path d="M 12.40625 8.296875 
L 28.515625 8.296875 
L 28.515625 63.921875 
L 10.984375 60.40625 
L 10.984375 69.390625 
L 28.421875 72.90625 
L 38.28125 72.90625 
L 38.28125 8.296875 
L 54.390625 8.296875 
L 54.390625 0 
L 12.40625 0 
z
" id="DejaVuSans-31"/>
      </defs>
      <g transform="translate(7.2 222.592801)scale(0.1 -0.1)">
       <use xlink:href="#DejaVuSans-31"/>
      </g>
     </g>
    </g>
    <g id="ytick_3">
     <g id="line2d_8">
      <g>
       <use style="stroke:#000000;stroke-width:0.8;" x="20.5625" xlink:href="#m7aa759e7f9" y="172.708425"/>
      </g>
     </g>
     <g id="text_8">
      <!-- 2 -->
      <g transform="translate(7.2 176.507644)scale(0.1 -0.1)">
       <use xlink:href="#DejaVuSans-32"/>
      </g>
     </g>
    </g>
    <g id="ytick_4">
     <g id="line2d_9">
      <g>
       <use style="stroke:#000000;stroke-width:0.8;" x="20.5625" xlink:href="#m7aa759e7f9" y="126.623268"/>
      </g>
     </g>
     <g id="text_9">
      <!-- 3 -->
      <defs>
       <path d="M 40.578125 39.3125 
Q 47.65625 37.796875 51.625 33 
Q 55.609375 28.21875 55.609375 21.1875 
Q 55.609375 10.40625 48.1875 4.484375 
Q 40.765625 -1.421875 27.09375 -1.421875 
Q 22.515625 -1.421875 17.65625 -0.515625 
Q 12.796875 0.390625 7.625 2.203125 
L 7.625 11.71875 
Q 11.71875 9.328125 16.59375 8.109375 
Q 21.484375 6.890625 26.8125 6.890625 
Q 36.078125 6.890625 40.9375 10.546875 
Q 45.796875 14.203125 45.796875 21.1875 
Q 45.796875 27.640625 41.28125 31.265625 
Q 36.765625 34.90625 28.71875 34.90625 
L 20.21875 34.90625 
L 20.21875 43.015625 
L 29.109375 43.015625 
Q 36.375 43.015625 40.234375 45.921875 
Q 44.09375 48.828125 44.09375 54.296875 
Q 44.09375 59.90625 40.109375 62.90625 
Q 36.140625 65.921875 28.71875 65.921875 
Q 24.65625 65.921875 20.015625 65.03125 
Q 15.375 64.15625 9.8125 62.3125 
L 9.8125 71.09375 
Q 15.4375 72.65625 20.34375 73.4375 
Q 25.25 74.21875 29.59375 74.21875 
Q 40.828125 74.21875 47.359375 69.109375 
Q 53.90625 64.015625 53.90625 55.328125 
Q 53.90625 49.265625 50.4375 45.09375 
Q 46.96875 40.921875 40.578125 39.3125 
z
" id="DejaVuSans-33"/>
      </defs>
      <g transform="translate(7.2 130.422487)scale(0.1 -0.1)">
       <use xlink:href="#DejaVuSans-33"/>
      </g>
     </g>
    </g>
    <g id="ytick_5">
     <g id="line2d_10">
      <g>
       <use style="stroke:#000000;stroke-width:0.8;" x="20.5625" xlink:href="#m7aa759e7f9" y="80.53811"/>
      </g>
     </g>
     <g id="text_10">
      <!-- 4 -->
      <g transform="translate(7.2 84.337329)scale(0.1 -0.1)">
       <use xlink:href="#DejaVuSans-34"/>
      </g>
     </g>
    </g>
    <g id="ytick_6">
     <g id="line2d_11">
      <g>
       <use style="stroke:#000000;stroke-width:0.8;" x="20.5625" xlink:href="#m7aa759e7f9" y="34.452953"/>
      </g>
     </g>
     <g id="text_11">
      <!-- 5 -->
      <defs>
       <path d="M 10.796875 72.90625 
L 49.515625 72.90625 
L 49.515625 64.59375 
L 19.828125 64.59375 
L 19.828125 46.734375 
Q 21.96875 47.46875 24.109375 47.828125 
Q 26.265625 48.1875 28.421875 48.1875 
Q 40.625 48.1875 47.75 41.5 
Q 54.890625 34.8125 54.890625 23.390625 
Q 54.890625 11.625 47.5625 5.09375 
Q 40.234375 -1.421875 26.90625 -1.421875 
Q 22.3125 -1.421875 17.546875 -0.640625 
Q 12.796875 0.140625 7.71875 1.703125 
L 7.71875 11.625 
Q 12.109375 9.234375 16.796875 8.0625 
Q 21.484375 6.890625 26.703125 6.890625 
Q 35.15625 6.890625 40.078125 11.328125 
Q 45.015625 15.765625 45.015625 23.390625 
Q 45.015625 31 40.078125 35.4375 
Q 35.15625 39.890625 26.703125 39.890625 
Q 22.75 39.890625 18.8125 39.015625 
Q 14.890625 38.140625 10.796875 36.28125 
z
" id="DejaVuSans-35"/>
      </defs>
      <g transform="translate(7.2 38.252172)scale(0.1 -0.1)">
       <use xlink:href="#DejaVuSans-35"/>
      </g>
     </g>
    </g>
   </g>
   <g id="line2d_12">
    <path clip-path="url(#pd1d340fd21)" d="M 36.795227 262.04764 
L 37.190665 255.533896 
L 37.586103 259.689119 
L 37.981541 256.944126 
L 38.376979 255.176545 
L 38.772417 254.021178 
L 39.167855 250.390881 
L 39.563293 244.836342 
L 39.958731 259.159424 
L 40.354169 259.269945 
L 40.749607 252.082526 
L 41.145045 252.54763 
L 41.540483 261.95024 
L 41.93592 262.584057 
L 42.331358 261.570378 
L 42.726796 258.291922 
L 43.122234 262.201048 
L 43.517672 261.240091 
L 43.91311 250.612692 
L 44.308548 250.334901 
L 44.703986 261.635053 
L 45.099424 255.24578 
L 45.494862 256.071616 
L 45.8903 250.502489 
L 46.285738 250.255079 
L 46.681176 255.892596 
L 47.076614 256.991452 
L 47.472052 260.09568 
L 47.867489 254.237659 
L 48.262927 250.683751 
L 48.658365 260.336571 
L 49.053803 261.834547 
L 49.449241 262.793495 
L 49.844679 264.068004 
L 50.240117 262.761412 
L 50.635555 252.041761 
L 51.030993 260.716918 
L 51.426431 248.611609 
L 51.821869 251.144084 
L 52.217307 258.996718 
L 52.612745 245.908137 
L 53.008183 239.398039 
L 53.403621 259.086638 
L 53.799059 257.176159 
L 54.194496 256.648617 
L 54.589934 260.47108 
L 54.985372 262.807396 
L 55.38081 259.531455 
L 55.776248 240.375136 
L 56.171686 245.713245 
L 56.567124 260.975136 
L 56.962562 262.909896 
L 57.358 262.237259 
L 57.753438 261.234802 
L 58.148876 264.062086 
L 58.544314 262.286947 
L 58.939752 254.954868 
L 59.33519 249.715063 
L 59.730628 253.002664 
L 60.126065 260.745071 
L 60.521503 253.215515 
L 60.916941 249.290016 
L 61.312379 260.689242 
L 62.103255 248.474907 
L 62.498693 259.294035 
L 63.289569 253.066698 
L 63.685007 243.9516 
L 64.080445 255.285979 
L 64.475883 243.226853 
L 64.871321 258.399349 
L 65.266759 258.827043 
L 65.662197 248.116724 
L 66.057635 242.652131 
L 66.453072 246.017154 
L 66.84851 240.672052 
L 67.243948 256.877648 
L 67.639386 231.546257 
L 68.034824 250.583355 
L 68.430262 220.991214 
L 68.8257 245.752228 
L 69.221138 256.795468 
L 69.616576 259.022151 
L 70.012014 257.902452 
L 70.407452 254.343624 
L 70.80289 254.055605 
L 71.198328 241.123192 
L 71.593766 249.692691 
L 71.989204 252.349769 
L 72.384642 248.35477 
L 72.780079 249.650025 
L 73.570955 255.92279 
L 73.966393 257.941387 
L 74.361831 253.685967 
L 74.757269 254.320453 
L 75.152707 258.67945 
L 75.548145 256.377507 
L 75.943583 255.418665 
L 76.339021 263.885189 
L 76.734459 251.842713 
L 77.129897 262.286947 
L 77.525335 258.419074 
L 77.920773 243.804965 
L 78.316211 260.05483 
L 78.711648 215.131297 
L 79.107086 243.869387 
L 79.502524 260.993373 
L 79.897962 255.929244 
L 80.2934 260.116364 
L 80.688838 256.622331 
L 81.084276 262.274436 
L 81.479714 253.108762 
L 81.875152 260.058575 
L 82.27059 246.442687 
L 82.666028 241.164174 
L 83.061466 251.457321 
L 83.456904 251.74959 
L 83.852342 246.509935 
L 84.24778 249.758074 
L 84.643218 237.342501 
L 85.038655 259.121034 
L 85.829531 242.282464 
L 86.224969 254.942865 
L 86.620407 253.707391 
L 87.015845 249.796099 
L 87.411283 251.923954 
L 87.806721 255.975232 
L 88.202159 238.959644 
L 88.597597 250.853704 
L 88.993035 210.021996 
L 89.388473 221.417017 
L 89.783911 245.731092 
L 90.179349 229.328785 
L 90.574787 254.973688 
L 90.970225 249.370615 
L 91.365662 256.783117 
L 91.7611 248.982756 
L 92.156538 254.197347 
L 92.551976 230.05785 
L 92.947414 244.828355 
L 93.342852 251.111167 
L 93.73829 248.915346 
L 94.529166 195.762073 
L 94.924604 259.005935 
L 95.320042 214.747076 
L 95.71548 237.237952 
L 96.110918 228.166863 
L 96.506356 176.944107 
L 96.901794 247.991579 
L 97.297231 210.563933 
L 97.692669 236.931429 
L 98.088107 241.698385 
L 98.483545 257.342369 
L 98.878983 253.309823 
L 99.274421 239.544589 
L 99.669859 232.904739 
L 100.065297 240.604115 
L 100.460735 214.265207 
L 100.856173 206.919391 
L 101.251611 233.332945 
L 101.647049 246.113841 
L 102.042487 240.174675 
L 102.437925 247.814504 
L 102.833363 241.330704 
L 103.228801 250.713464 
L 103.624238 252.338244 
L 104.019676 254.657393 
L 104.415114 250.372446 
L 104.810552 243.701311 
L 105.20599 242.134203 
L 105.996866 257.118858 
L 106.392304 256.398491 
L 106.787742 238.521736 
L 107.18318 255.464716 
L 107.578618 257.506938 
L 107.974056 224.710902 
L 108.369494 229.901487 
L 108.764932 242.352417 
L 109.16037 209.130226 
L 109.555807 246.730679 
L 109.951245 255.468554 
L 110.346683 252.93726 
L 110.742121 251.989633 
L 111.137559 245.533564 
L 111.532997 253.739766 
L 111.928435 240.164541 
L 112.323873 251.443247 
L 112.719311 244.308012 
L 113.114749 257.481018 
L 113.510187 247.248303 
L 113.905625 251.566747 
L 114.301063 241.150421 
L 114.696501 258.501034 
L 115.091939 248.618123 
L 115.487377 248.926058 
L 115.882814 259.694921 
L 116.278252 261.280346 
L 116.67369 254.833934 
L 117.069128 255.80899 
L 117.464566 253.688548 
L 118.255442 261.940801 
L 119.046318 254.744804 
L 119.441756 262.987234 
L 120.232632 248.226608 
L 120.62807 261.594115 
L 121.023508 258.31224 
L 121.418946 245.192689 
L 121.814384 263.071199 
L 122.209821 261.106563 
L 122.605259 242.644875 
L 123.396135 263.814971 
L 123.791573 262.624815 
L 124.187011 260.235653 
L 124.582449 261.248704 
L 124.977887 261.018552 
L 125.373325 257.40976 
L 125.768763 236.05047 
L 126.164201 243.681936 
L 126.559639 243.853177 
L 126.955077 231.04235 
L 127.350515 239.508595 
L 127.745953 255.61983 
L 128.14139 249.809354 
L 128.536828 237.149463 
L 128.932266 263.92981 
L 129.327704 260.864751 
L 129.723142 254.972959 
L 130.11858 254.971744 
L 130.514018 258.037845 
L 130.909456 253.850661 
L 131.304894 260.539898 
L 131.700332 259.253656 
L 132.09577 259.974641 
L 132.491208 258.44185 
L 132.886646 259.705615 
L 133.282084 259.369779 
L 133.677522 261.851599 
L 134.07296 259.955775 
L 134.863835 257.197444 
L 135.259273 258.953894 
L 135.654711 258.909159 
L 136.050149 258.110558 
L 136.445587 211.154038 
L 136.841025 183.430825 
L 137.236463 246.357604 
L 137.631901 263.35368 
L 138.027339 221.644048 
L 138.422777 238.709303 
L 138.818215 246.642999 
L 139.213653 240.154168 
L 139.609091 256.587992 
L 140.004529 253.802191 
L 140.399967 255.197413 
L 140.795404 260.755277 
L 141.190842 262.316846 
L 141.58628 262.294389 
L 141.981718 262.478417 
L 142.377156 258.384503 
L 142.772594 257.236567 
L 143.168032 257.449516 
L 143.56347 261.163156 
L 143.958908 252.701176 
L 144.354346 257.42202 
L 144.749784 257.448706 
L 145.145222 246.72166 
L 145.54066 180.223881 
L 145.936098 249.845505 
L 146.331536 239.691703 
L 146.726973 254.818725 
L 147.122411 227.667274 
L 147.517849 245.882835 
L 147.913287 255.478921 
L 148.308725 248.488782 
L 148.704163 178.238326 
L 149.099601 253.997588 
L 149.495039 256.826056 
L 149.890477 254.097172 
L 150.285915 260.87857 
L 150.681353 253.358207 
L 151.076791 261.8389 
L 151.472229 261.605497 
L 151.867667 262.522455 
L 152.263105 262.500587 
L 152.658543 257.533932 
L 153.05398 255.155598 
L 153.449418 249.998512 
L 153.844856 250.622906 
L 154.635732 256.68042 
L 155.03117 253.166384 
L 155.426608 259.178822 
L 155.822046 257.800352 
L 156.217484 254.782293 
L 156.612922 225.306779 
L 157.00836 178.629435 
L 157.403798 239.791365 
L 157.799236 233.305631 
L 158.194674 233.428722 
L 158.590112 225.408519 
L 158.985549 209.641583 
L 159.380987 253.003475 
L 159.776425 171.951606 
L 160.171863 259.581897 
L 160.567301 245.129864 
L 160.962739 211.746648 
L 161.358177 237.418721 
L 161.753615 236.441987 
L 162.544491 244.820912 
L 162.939929 253.432744 
L 163.335367 249.897567 
L 163.730805 251.848255 
L 164.126243 243.03483 
L 164.521681 257.183352 
L 164.917119 257.130813 
L 165.312556 251.300021 
L 165.707994 253.662651 
L 166.103432 258.604749 
L 166.49887 252.705032 
L 166.894308 255.34224 
L 167.289746 254.625878 
L 167.685184 234.891411 
L 168.080622 249.785965 
L 168.47606 231.808627 
L 168.871498 248.650731 
L 169.266936 250.170615 
L 169.662374 242.776401 
L 170.45325 236.211273 
L 170.848688 244.890895 
L 171.244126 251.034434 
L 171.639563 250.279384 
L 172.035001 256.435908 
L 172.430439 260.271049 
L 172.825877 261.654783 
L 173.221315 260.759074 
L 173.616753 259.587354 
L 174.012191 252.264926 
L 174.407629 256.504773 
L 174.803067 253.744089 
L 175.198505 242.188521 
L 175.593943 235.645335 
L 175.989381 260.025968 
L 176.384819 254.397353 
L 176.780257 253.933498 
L 177.175695 248.347779 
L 177.571132 249.411112 
L 177.96657 262.068125 
L 178.362008 251.963322 
L 178.757446 260.673181 
L 179.152884 260.538233 
L 179.548322 254.420809 
L 179.94376 245.365158 
L 180.339198 259.291665 
L 180.734636 260.118639 
L 181.130074 260.462076 
L 181.525512 257.538687 
L 181.92095 252.976945 
L 182.316388 259.939906 
L 182.711826 248.220681 
L 183.107264 257.718679 
L 183.502702 248.734625 
L 183.898139 207.044957 
L 184.293577 243.604215 
L 184.689015 257.978273 
L 185.084453 263.000647 
L 185.479891 263.380759 
L 185.875329 261.691586 
L 186.270767 255.144709 
L 186.666205 255.156713 
L 187.061643 264.560743 
L 187.457081 262.200599 
L 187.852519 261.570378 
L 188.247957 262.795805 
L 188.643395 262.687647 
L 189.038833 264.009253 
L 189.434271 262.579341 
L 190.225146 264.101357 
L 190.620584 260.969588 
L 191.016022 263.079209 
L 192.202336 261.551511 
L 192.597774 263.909725 
L 192.993212 262.878956 
L 193.38865 263.995516 
L 193.784088 262.875949 
L 194.179526 261.321395 
L 194.574964 262.807978 
L 194.970402 258.905531 
L 195.36584 262.330509 
L 195.761278 257.599954 
L 196.156715 256.687325 
L 196.552153 260.471626 
L 196.947591 262.643587 
L 197.343029 263.788149 
L 197.738467 259.648681 
L 198.133905 262.519391 
L 198.529343 262.730369 
L 199.320219 261.814838 
L 199.715657 264.046029 
L 200.111095 264.701823 
L 200.506533 264.209542 
L 200.901971 264.341227 
L 201.297409 256.963418 
L 201.692847 257.021271 
L 202.088285 255.814964 
L 202.483722 261.516956 
L 202.87916 263.868368 
L 203.274598 263.834387 
L 203.670036 264.347989 
L 204.065474 264.437128 
L 204.460912 247.631218 
L 205.251788 261.233811 
L 205.647226 261.874352 
L 206.438102 221.214705 
L 207.228978 250.044049 
L 207.624416 253.062724 
L 208.019854 247.14638 
L 208.415291 261.952708 
L 208.810729 256.29072 
L 209.206167 227.697567 
L 209.601605 253.16988 
L 209.997043 233.780742 
L 210.392481 239.205065 
L 210.787919 258.244573 
L 211.183357 251.635017 
L 211.578795 230.431542 
L 211.974233 256.157603 
L 212.369671 254.498453 
L 213.160547 147.895071 
L 213.555985 248.003489 
L 213.951423 230.822973 
L 214.346861 219.048867 
L 214.742298 238.778396 
L 215.137736 240.36816 
L 215.533174 232.310418 
L 215.928612 254.380139 
L 216.32405 257.896415 
L 216.719488 244.438344 
L 217.114926 254.20242 
L 217.510364 251.331531 
L 217.905802 260.480923 
L 218.30124 259.282838 
L 218.696678 261.762247 
L 219.092116 254.369137 
L 219.487554 250.576284 
L 219.882992 244.770799 
L 220.673868 258.482186 
L 221.069305 230.983481 
L 221.464743 226.570681 
L 221.860181 238.625714 
L 222.255619 229.544198 
L 222.651057 245.644713 
L 223.046495 239.553336 
L 223.441933 261.405641 
L 223.837371 243.761824 
L 224.232809 251.457949 
L 224.628247 262.130932 
L 225.419123 259.432414 
L 225.814561 257.2045 
L 226.209999 257.99889 
L 226.605437 254.02262 
L 227.000874 262.652221 
L 227.396312 257.874209 
L 227.79175 263.779354 
L 228.582626 257.859959 
L 228.978064 259.002451 
L 229.373502 244.349077 
L 229.76894 261.002058 
L 230.164378 252.317238 
L 230.559816 259.357337 
L 230.955254 259.98324 
L 231.350692 253.156418 
L 231.74613 257.862704 
L 232.141568 260.698447 
L 232.537006 258.495185 
L 233.327881 250.263561 
L 233.723319 233.172235 
L 234.118757 252.822184 
L 234.514195 252.725519 
L 234.909633 261.576205 
L 235.305071 254.16022 
L 235.700509 260.206962 
L 236.095947 258.814524 
L 236.491385 262.586682 
L 236.886823 262.156461 
L 237.282261 262.336185 
L 237.677699 263.434773 
L 238.073137 264.149292 
L 238.468575 264.29609 
L 238.864013 264.317131 
L 239.259451 264.456641 
L 239.654888 264.204167 
L 240.050326 264.38806 
L 240.445764 263.943869 
L 240.841202 263.18394 
L 241.23664 263.351314 
L 241.632078 263.89493 
L 242.027516 263.62871 
L 242.422954 262.522454 
L 242.818392 261.870748 
L 243.21383 259.602163 
L 243.609268 260.960668 
L 244.004706 261.919163 
L 244.795582 264.580271 
L 245.19102 261.81995 
L 245.586457 257.500572 
L 245.981895 259.125217 
L 246.377333 263.842487 
L 246.772771 259.494436 
L 247.563647 262.472907 
L 247.959085 263.659916 
L 248.354523 264.06652 
L 248.749961 264.638357 
L 249.145399 264.134587 
L 249.540837 263.816104 
L 249.936275 263.181101 
L 250.331713 262.874747 
L 250.727151 263.053305 
L 251.122589 262.039149 
L 251.518027 260.363152 
L 251.913464 262.755734 
L 252.308902 261.554406 
L 252.70434 263.849481 
L 253.099778 262.71029 
L 253.495216 263.561194 
L 254.286092 246.696682 
L 254.68153 256.842218 
L 255.076968 249.273498 
L 255.472406 261.376646 
L 256.263282 262.023927 
L 256.65872 256.765292 
L 257.054158 256.767963 
L 257.449596 247.76681 
L 257.845033 259.535959 
L 258.240471 259.093917 
L 258.635909 246.460849 
L 259.031347 262.146309 
L 259.426785 245.203394 
L 259.822223 259.028321 
L 260.217661 259.452787 
L 260.613099 261.924048 
L 261.008537 258.669555 
L 261.403975 250.237719 
L 261.799413 259.265654 
L 262.194851 258.289181 
L 262.590289 247.108945 
L 262.985727 261.208795 
L 263.381165 262.814966 
L 263.776603 255.033789 
L 264.17204 258.749168 
L 264.567478 260.552401 
L 264.962916 264.053289 
L 265.358354 262.251883 
L 265.753792 262.874146 
L 266.14923 264.277782 
L 266.544668 262.895276 
L 266.940106 264.112274 
L 267.730982 264.716 
L 268.12642 264.609984 
L 268.521858 264.101357 
L 268.917296 264.14272 
L 269.312734 264.456641 
L 269.708172 264.128144 
L 270.10361 263.976636 
L 270.499047 262.900746 
L 270.894485 264.202385 
L 271.289923 263.941297 
L 272.080799 264.184814 
L 272.476237 264.580271 
L 272.871675 262.253717 
L 273.267113 261.560205 
L 273.662551 264.623775 
L 274.057989 264.431709 
L 274.453427 264.366455 
L 274.848865 264.592627 
L 275.244303 264.193543 
L 275.639741 264.056211 
L 276.035179 264.511549 
L 276.430616 264.040266 
L 276.826054 264.179629 
L 277.221492 264.501842 
L 277.61693 264.44817 
L 278.012368 262.633913 
L 278.407806 264.174482 
L 278.803244 264.528325 
L 279.198682 263.829786 
L 279.59412 259.422477 
L 279.989558 263.549369 
L 280.384996 261.804248 
L 280.780434 233.387409 
L 281.57131 258.450459 
L 281.966748 260.005421 
L 282.362186 263.699066 
L 282.757623 262.712512 
L 283.153061 262.635522 
L 283.548499 254.911655 
L 283.943937 261.952296 
L 284.339375 262.354718 
L 284.734813 263.363977 
L 285.130251 263.687893 
L 285.525689 262.574111 
L 285.921127 259.633282 
L 286.316565 263.52425 
L 286.712003 262.283697 
L 287.107441 258.988741 
L 287.502879 263.234413 
L 287.898317 261.594115 
L 288.293755 264.209542 
L 288.689193 262.761412 
L 289.08463 256.047183 
L 289.480068 261.333939 
L 289.875506 262.257848 
L 290.270944 259.595323 
L 290.666382 261.256007 
L 291.06182 260.861753 
L 291.457258 255.880548 
L 291.852696 248.972459 
L 292.643572 255.906943 
L 293.03901 253.839423 
L 293.829886 257.261656 
L 294.225324 256.23706 
L 294.620762 256.081327 
L 295.016199 251.186748 
L 295.411637 253.034536 
L 295.807075 253.713535 
L 296.202513 254.125795 
L 296.597951 251.802327 
L 296.993389 257.331356 
L 297.784265 258.805201 
L 298.179703 258.48388 
L 298.575141 257.146988 
L 298.970579 256.321615 
L 299.366017 255.903052 
L 299.761455 257.706584 
L 300.156893 261.734558 
L 300.552331 260.401706 
L 300.947769 257.301905 
L 301.343206 261.908201 
L 301.738644 262.28927 
L 302.134082 262.972652 
L 302.52952 257.991545 
L 302.924958 248.811239 
L 303.320396 250.781873 
L 303.715834 251.781263 
L 304.111272 257.263552 
L 304.50671 258.883202 
L 304.902148 258.852959 
L 305.297586 260.89425 
L 305.693024 248.168369 
L 306.088462 257.637262 
L 306.4839 241.315424 
L 306.879338 235.484514 
L 307.274775 261.187535 
L 307.670213 251.975351 
L 308.065651 226.321353 
L 308.461089 245.769167 
L 308.856527 235.965074 
L 309.251965 258.692669 
L 309.647403 252.778828 
L 310.042841 254.219686 
L 310.438279 239.194049 
L 310.833717 248.236587 
L 311.229155 261.369778 
L 311.624593 261.658893 
L 312.020031 255.428979 
L 312.415469 252.012443 
L 312.810907 234.684218 
L 313.206345 262.232251 
L 313.601782 246.922738 
L 313.99722 260.004927 
L 314.392658 240.343567 
L 314.788096 181.194807 
L 315.183534 228.317488 
L 315.578972 215.12699 
L 315.97441 239.612772 
L 316.369848 193.775901 
L 316.765286 252.924363 
L 317.160724 255.967798 
L 317.556162 224.208834 
L 317.9516 134.735828 
L 318.347038 228.868518 
L 318.742476 218.138032 
L 319.137914 157.8455 
L 319.928789 228.951788 
L 320.324227 172.269926 
L 320.719665 216.351836 
L 321.115103 209.533353 
L 321.510541 246.914091 
L 321.905979 240.761734 
L 322.301417 228.236512 
L 322.696855 230.618283 
L 323.092293 193.089837 
L 323.487731 226.428842 
L 323.883169 72.782807 
L 324.278607 197.705179 
L 324.674045 197.325497 
L 325.069483 186.292251 
L 325.464921 234.538173 
L 325.860358 247.257524 
L 326.255796 230.725338 
L 326.651234 220.709479 
L 327.046672 222.294026 
L 327.44211 248.566825 
L 327.837548 256.316552 
L 328.232986 259.539115 
L 328.628424 250.758493 
L 329.023862 247.732653 
L 329.4193 247.521012 
L 329.814738 249.461315 
L 330.605614 218.84462 
L 331.001052 133.210918 
L 331.39649 22.796 
L 331.791928 188.391922 
L 332.187365 188.136479 
L 332.582803 222.051011 
L 332.978241 218.901611 
L 333.373679 193.630583 
L 333.769117 254.147984 
L 334.164555 235.500327 
L 334.559993 246.415413 
L 334.955431 238.799159 
L 335.746307 258.789958 
L 336.141745 260.321224 
L 336.537183 253.760535 
L 336.932621 260.165913 
L 337.328059 261.258001 
L 337.723497 258.424108 
L 338.118935 248.997455 
L 338.514372 242.80665 
L 338.90981 249.820302 
L 339.305248 240.959717 
L 339.700686 251.824717 
L 340.096124 235.348001 
L 340.491562 260.431924 
L 340.887 244.525221 
L 341.282438 256.447466 
L 342.073314 248.36235 
L 342.468752 256.995116 
L 342.86419 260.922448 
L 343.259628 251.955308 
L 343.655066 253.240106 
L 344.050504 260.34267 
L 344.445941 239.2319 
L 344.841379 258.300701 
L 345.236817 258.245481 
L 345.632255 259.22569 
L 346.027693 256.587992 
L 346.423131 251.630655 
L 346.818569 249.980079 
L 347.214007 249.308948 
L 347.609445 250.695968 
L 348.004883 260.53269 
L 348.400321 263.50659 
L 348.795759 263.877946 
L 349.191197 260.056327 
L 349.586635 261.867948 
L 349.982073 255.21247 
L 350.377511 250.486922 
L 350.772948 260.602499 
L 351.168386 248.829306 
L 351.563824 259.234215 
L 351.959262 254.904411 
L 352.3547 263.810454 
L 352.750138 257.414435 
L 353.145576 259.619301 
L 353.541014 244.250274 
L 353.936452 248.018976 
L 354.33189 256.832787 
L 354.727328 253.001245 
L 355.518204 254.817289 
L 355.913642 260.944111 
L 356.704517 262.687647 
L 357.099955 262.270741 
L 357.495393 262.206448 
L 357.890831 261.685548 
L 358.286269 259.755421 
L 358.681707 259.925546 
L 359.077145 258.625121 
L 359.472583 260.718944 
L 359.868021 251.667326 
L 360.263459 258.301067 
L 360.658897 260.213151 
L 361.054335 257.168349 
L 361.449773 241.259701 
L 361.449773 241.259701 
" style="fill:none;stroke:#1f77b4;stroke-linecap:square;stroke-width:1.5;"/>
   </g>
   <g id="patch_3">
    <path d="M 20.5625 276.812 
L 20.5625 10.7 
" style="fill:none;stroke:#000000;stroke-linecap:square;stroke-linejoin:miter;stroke-width:0.8;"/>
   </g>
   <g id="patch_4">
    <path d="M 377.6825 276.812 
L 377.6825 10.7 
" style="fill:none;stroke:#000000;stroke-linecap:square;stroke-linejoin:miter;stroke-width:0.8;"/>
   </g>
   <g id="patch_5">
    <path d="M 20.5625 276.812 
L 377.6825 276.812 
" style="fill:none;stroke:#000000;stroke-linecap:square;stroke-linejoin:miter;stroke-width:0.8;"/>
   </g>
   <g id="patch_6">
    <path d="M 20.5625 10.7 
L 377.6825 10.7 
" style="fill:none;stroke:#000000;stroke-linecap:square;stroke-linejoin:miter;stroke-width:0.8;"/>
   </g>
  </g>
 </g>
 <defs>
  <clipPath id="pd1d340fd21">
   <rect height="266.112" width="357.12" x="20.5625" y="10.7"/>
  </clipPath>
 </defs>
</svg>
