<?xml version="1.0" encoding="utf-8" standalone="no"?>
<!DOCTYPE svg PUBLIC "-//W3C//DTD SVG 1.1//EN"
  "http://www.w3.org/Graphics/SVG/1.1/DTD/svg11.dtd">
<!-- Created with matplotlib (http://matplotlib.org/) -->
<svg height="252.018125pt" version="1.1" viewBox="0 0 375.603125 252.018125" width="375.603125pt" xmlns="http://www.w3.org/2000/svg" xmlns:xlink="http://www.w3.org/1999/xlink">
 <defs>
  <style type="text/css">
*{stroke-linecap:butt;stroke-linejoin:round;}
  </style>
 </defs>
 <g id="figure_1">
  <g id="patch_1">
   <path d="M 0 252.018125 
L 375.603125 252.018125 
L 375.603125 0 
L 0 0 
z
" style="fill:#ffffff;"/>
  </g>
  <g id="axes_1">
   <g id="patch_2">
    <path d="M 30.103125 228.14 
L 364.903125 228.14 
L 364.903125 10.7 
L 30.103125 10.7 
z
" style="fill:#ffffff;"/>
   </g>
   <g id="matplotlib.axis_1">
    <g id="xtick_1">
     <g id="line2d_1">
      <defs>
       <path d="M 0 0 
L 0 3.5 
" id="m19fea3dcbe" style="stroke:#000000;stroke-width:0.8;"/>
      </defs>
      <g>
       <use style="stroke:#000000;stroke-width:0.8;" x="45.321307" xlink:href="#m19fea3dcbe" y="228.14"/>
      </g>
     </g>
     <g id="text_1">
      <!-- 0 -->
      <defs>
       <path d="M 31.78125 66.40625 
Q 24.171875 66.40625 20.328125 58.90625 
Q 16.5 51.421875 16.5 36.375 
Q 16.5 21.390625 20.328125 13.890625 
Q 24.171875 6.390625 31.78125 6.390625 
Q 39.453125 6.390625 43.28125 13.890625 
Q 47.125 21.390625 47.125 36.375 
Q 47.125 51.421875 43.28125 58.90625 
Q 39.453125 66.40625 31.78125 66.40625 
z
M 31.78125 74.21875 
Q 44.046875 74.21875 50.515625 64.515625 
Q 56.984375 54.828125 56.984375 36.375 
Q 56.984375 17.96875 50.515625 8.265625 
Q 44.046875 -1.421875 31.78125 -1.421875 
Q 19.53125 -1.421875 13.0625 8.265625 
Q 6.59375 17.96875 6.59375 36.375 
Q 6.59375 54.828125 13.0625 64.515625 
Q 19.53125 74.21875 31.78125 74.21875 
z
" id="DejaVuSans-30"/>
      </defs>
      <g transform="translate(42.140057 242.738437)scale(0.1 -0.1)">
       <use xlink:href="#DejaVuSans-30"/>
      </g>
     </g>
    </g>
    <g id="xtick_2">
     <g id="line2d_2">
      <g>
       <use style="stroke:#000000;stroke-width:0.8;" x="91.437009" xlink:href="#m19fea3dcbe" y="228.14"/>
      </g>
     </g>
     <g id="text_2">
      <!-- 50 -->
      <defs>
       <path d="M 10.796875 72.90625 
L 49.515625 72.90625 
L 49.515625 64.59375 
L 19.828125 64.59375 
L 19.828125 46.734375 
Q 21.96875 47.46875 24.109375 47.828125 
Q 26.265625 48.1875 28.421875 48.1875 
Q 40.625 48.1875 47.75 41.5 
Q 54.890625 34.8125 54.890625 23.390625 
Q 54.890625 11.625 47.5625 5.09375 
Q 40.234375 -1.421875 26.90625 -1.421875 
Q 22.3125 -1.421875 17.546875 -0.640625 
Q 12.796875 0.140625 7.71875 1.703125 
L 7.71875 11.625 
Q 12.109375 9.234375 16.796875 8.0625 
Q 21.484375 6.890625 26.703125 6.890625 
Q 35.15625 6.890625 40.078125 11.328125 
Q 45.015625 15.765625 45.015625 23.390625 
Q 45.015625 31 40.078125 35.4375 
Q 35.15625 39.890625 26.703125 39.890625 
Q 22.75 39.890625 18.8125 39.015625 
Q 14.890625 38.140625 10.796875 36.28125 
z
" id="DejaVuSans-35"/>
      </defs>
      <g transform="translate(85.074509 242.738437)scale(0.1 -0.1)">
       <use xlink:href="#DejaVuSans-35"/>
       <use x="63.623047" xlink:href="#DejaVuSans-30"/>
      </g>
     </g>
    </g>
    <g id="xtick_3">
     <g id="line2d_3">
      <g>
       <use style="stroke:#000000;stroke-width:0.8;" x="137.552712" xlink:href="#m19fea3dcbe" y="228.14"/>
      </g>
     </g>
     <g id="text_3">
      <!-- 100 -->
      <defs>
       <path d="M 12.40625 8.296875 
L 28.515625 8.296875 
L 28.515625 63.921875 
L 10.984375 60.40625 
L 10.984375 69.390625 
L 28.421875 72.90625 
L 38.28125 72.90625 
L 38.28125 8.296875 
L 54.390625 8.296875 
L 54.390625 0 
L 12.40625 0 
z
" id="DejaVuSans-31"/>
      </defs>
      <g transform="translate(128.008962 242.738437)scale(0.1 -0.1)">
       <use xlink:href="#DejaVuSans-31"/>
       <use x="63.623047" xlink:href="#DejaVuSans-30"/>
       <use x="127.246094" xlink:href="#DejaVuSans-30"/>
      </g>
     </g>
    </g>
    <g id="xtick_4">
     <g id="line2d_4">
      <g>
       <use style="stroke:#000000;stroke-width:0.8;" x="183.668414" xlink:href="#m19fea3dcbe" y="228.14"/>
      </g>
     </g>
     <g id="text_4">
      <!-- 150 -->
      <g transform="translate(174.124664 242.738437)scale(0.1 -0.1)">
       <use xlink:href="#DejaVuSans-31"/>
       <use x="63.623047" xlink:href="#DejaVuSans-35"/>
       <use x="127.246094" xlink:href="#DejaVuSans-30"/>
      </g>
     </g>
    </g>
    <g id="xtick_5">
     <g id="line2d_5">
      <g>
       <use style="stroke:#000000;stroke-width:0.8;" x="229.784117" xlink:href="#m19fea3dcbe" y="228.14"/>
      </g>
     </g>
     <g id="text_5">
      <!-- 200 -->
      <defs>
       <path d="M 19.1875 8.296875 
L 53.609375 8.296875 
L 53.609375 0 
L 7.328125 0 
L 7.328125 8.296875 
Q 12.9375 14.109375 22.625 23.890625 
Q 32.328125 33.6875 34.8125 36.53125 
Q 39.546875 41.84375 41.421875 45.53125 
Q 43.3125 49.21875 43.3125 52.78125 
Q 43.3125 58.59375 39.234375 62.25 
Q 35.15625 65.921875 28.609375 65.921875 
Q 23.96875 65.921875 18.8125 64.3125 
Q 13.671875 62.703125 7.8125 59.421875 
L 7.8125 69.390625 
Q 13.765625 71.78125 18.9375 73 
Q 24.125 74.21875 28.421875 74.21875 
Q 39.75 74.21875 46.484375 68.546875 
Q 53.21875 62.890625 53.21875 53.421875 
Q 53.21875 48.921875 51.53125 44.890625 
Q 49.859375 40.875 45.40625 35.40625 
Q 44.1875 33.984375 37.640625 27.21875 
Q 31.109375 20.453125 19.1875 8.296875 
z
" id="DejaVuSans-32"/>
      </defs>
      <g transform="translate(220.240367 242.738437)scale(0.1 -0.1)">
       <use xlink:href="#DejaVuSans-32"/>
       <use x="63.623047" xlink:href="#DejaVuSans-30"/>
       <use x="127.246094" xlink:href="#DejaVuSans-30"/>
      </g>
     </g>
    </g>
    <g id="xtick_6">
     <g id="line2d_6">
      <g>
       <use style="stroke:#000000;stroke-width:0.8;" x="275.899819" xlink:href="#m19fea3dcbe" y="228.14"/>
      </g>
     </g>
     <g id="text_6">
      <!-- 250 -->
      <g transform="translate(266.356069 242.738437)scale(0.1 -0.1)">
       <use xlink:href="#DejaVuSans-32"/>
       <use x="63.623047" xlink:href="#DejaVuSans-35"/>
       <use x="127.246094" xlink:href="#DejaVuSans-30"/>
      </g>
     </g>
    </g>
    <g id="xtick_7">
     <g id="line2d_7">
      <g>
       <use style="stroke:#000000;stroke-width:0.8;" x="322.015522" xlink:href="#m19fea3dcbe" y="228.14"/>
      </g>
     </g>
     <g id="text_7">
      <!-- 300 -->
      <defs>
       <path d="M 40.578125 39.3125 
Q 47.65625 37.796875 51.625 33 
Q 55.609375 28.21875 55.609375 21.1875 
Q 55.609375 10.40625 48.1875 4.484375 
Q 40.765625 -1.421875 27.09375 -1.421875 
Q 22.515625 -1.421875 17.65625 -0.515625 
Q 12.796875 0.390625 7.625 2.203125 
L 7.625 11.71875 
Q 11.71875 9.328125 16.59375 8.109375 
Q 21.484375 6.890625 26.8125 6.890625 
Q 36.078125 6.890625 40.9375 10.546875 
Q 45.796875 14.203125 45.796875 21.1875 
Q 45.796875 27.640625 41.28125 31.265625 
Q 36.765625 34.90625 28.71875 34.90625 
L 20.21875 34.90625 
L 20.21875 43.015625 
L 29.109375 43.015625 
Q 36.375 43.015625 40.234375 45.921875 
Q 44.09375 48.828125 44.09375 54.296875 
Q 44.09375 59.90625 40.109375 62.90625 
Q 36.140625 65.921875 28.71875 65.921875 
Q 24.65625 65.921875 20.015625 65.03125 
Q 15.375 64.15625 9.8125 62.3125 
L 9.8125 71.09375 
Q 15.4375 72.65625 20.34375 73.4375 
Q 25.25 74.21875 29.59375 74.21875 
Q 40.828125 74.21875 47.359375 69.109375 
Q 53.90625 64.015625 53.90625 55.328125 
Q 53.90625 49.265625 50.4375 45.09375 
Q 46.96875 40.921875 40.578125 39.3125 
z
" id="DejaVuSans-33"/>
      </defs>
      <g transform="translate(312.471772 242.738437)scale(0.1 -0.1)">
       <use xlink:href="#DejaVuSans-33"/>
       <use x="63.623047" xlink:href="#DejaVuSans-30"/>
       <use x="127.246094" xlink:href="#DejaVuSans-30"/>
      </g>
     </g>
    </g>
   </g>
   <g id="matplotlib.axis_2">
    <g id="ytick_1">
     <g id="line2d_8">
      <defs>
       <path d="M 0 0 
L -3.5 0 
" id="m31c26d502e" style="stroke:#000000;stroke-width:0.8;"/>
      </defs>
      <g>
       <use style="stroke:#000000;stroke-width:0.8;" x="30.103125" xlink:href="#m31c26d502e" y="219.063486"/>
      </g>
     </g>
     <g id="text_8">
      <!-- 0.0 -->
      <defs>
       <path d="M 10.6875 12.40625 
L 21 12.40625 
L 21 0 
L 10.6875 0 
z
" id="DejaVuSans-2e"/>
      </defs>
      <g transform="translate(7.2 222.862704)scale(0.1 -0.1)">
       <use xlink:href="#DejaVuSans-30"/>
       <use x="63.623047" xlink:href="#DejaVuSans-2e"/>
       <use x="95.410156" xlink:href="#DejaVuSans-30"/>
      </g>
     </g>
    </g>
    <g id="ytick_2">
     <g id="line2d_9">
      <g>
       <use style="stroke:#000000;stroke-width:0.8;" x="30.103125" xlink:href="#m31c26d502e" y="192.445612"/>
      </g>
     </g>
     <g id="text_9">
      <!-- 0.5 -->
      <g transform="translate(7.2 196.244831)scale(0.1 -0.1)">
       <use xlink:href="#DejaVuSans-30"/>
       <use x="63.623047" xlink:href="#DejaVuSans-2e"/>
       <use x="95.410156" xlink:href="#DejaVuSans-35"/>
      </g>
     </g>
    </g>
    <g id="ytick_3">
     <g id="line2d_10">
      <g>
       <use style="stroke:#000000;stroke-width:0.8;" x="30.103125" xlink:href="#m31c26d502e" y="165.827739"/>
      </g>
     </g>
     <g id="text_10">
      <!-- 1.0 -->
      <g transform="translate(7.2 169.626958)scale(0.1 -0.1)">
       <use xlink:href="#DejaVuSans-31"/>
       <use x="63.623047" xlink:href="#DejaVuSans-2e"/>
       <use x="95.410156" xlink:href="#DejaVuSans-30"/>
      </g>
     </g>
    </g>
    <g id="ytick_4">
     <g id="line2d_11">
      <g>
       <use style="stroke:#000000;stroke-width:0.8;" x="30.103125" xlink:href="#m31c26d502e" y="139.209865"/>
      </g>
     </g>
     <g id="text_11">
      <!-- 1.5 -->
      <g transform="translate(7.2 143.009084)scale(0.1 -0.1)">
       <use xlink:href="#DejaVuSans-31"/>
       <use x="63.623047" xlink:href="#DejaVuSans-2e"/>
       <use x="95.410156" xlink:href="#DejaVuSans-35"/>
      </g>
     </g>
    </g>
    <g id="ytick_5">
     <g id="line2d_12">
      <g>
       <use style="stroke:#000000;stroke-width:0.8;" x="30.103125" xlink:href="#m31c26d502e" y="112.591992"/>
      </g>
     </g>
     <g id="text_12">
      <!-- 2.0 -->
      <g transform="translate(7.2 116.391211)scale(0.1 -0.1)">
       <use xlink:href="#DejaVuSans-32"/>
       <use x="63.623047" xlink:href="#DejaVuSans-2e"/>
       <use x="95.410156" xlink:href="#DejaVuSans-30"/>
      </g>
     </g>
    </g>
    <g id="ytick_6">
     <g id="line2d_13">
      <g>
       <use style="stroke:#000000;stroke-width:0.8;" x="30.103125" xlink:href="#m31c26d502e" y="85.974119"/>
      </g>
     </g>
     <g id="text_13">
      <!-- 2.5 -->
      <g transform="translate(7.2 89.773337)scale(0.1 -0.1)">
       <use xlink:href="#DejaVuSans-32"/>
       <use x="63.623047" xlink:href="#DejaVuSans-2e"/>
       <use x="95.410156" xlink:href="#DejaVuSans-35"/>
      </g>
     </g>
    </g>
    <g id="ytick_7">
     <g id="line2d_14">
      <g>
       <use style="stroke:#000000;stroke-width:0.8;" x="30.103125" xlink:href="#m31c26d502e" y="59.356245"/>
      </g>
     </g>
     <g id="text_14">
      <!-- 3.0 -->
      <g transform="translate(7.2 63.155464)scale(0.1 -0.1)">
       <use xlink:href="#DejaVuSans-33"/>
       <use x="63.623047" xlink:href="#DejaVuSans-2e"/>
       <use x="95.410156" xlink:href="#DejaVuSans-30"/>
      </g>
     </g>
    </g>
    <g id="ytick_8">
     <g id="line2d_15">
      <g>
       <use style="stroke:#000000;stroke-width:0.8;" x="30.103125" xlink:href="#m31c26d502e" y="32.738372"/>
      </g>
     </g>
     <g id="text_15">
      <!-- 3.5 -->
      <g transform="translate(7.2 36.537591)scale(0.1 -0.1)">
       <use xlink:href="#DejaVuSans-33"/>
       <use x="63.623047" xlink:href="#DejaVuSans-2e"/>
       <use x="95.410156" xlink:href="#DejaVuSans-35"/>
      </g>
     </g>
    </g>
   </g>
   <g id="line2d_16">
    <path clip-path="url(#pc4c12c9f0f)" d="M 45.321307 208.210421 
L 46.243621 204.208917 
L 47.165935 207.375861 
L 48.088249 208.821018 
L 49.010563 209.423333 
L 49.932877 192.252832 
L 50.855191 211.231664 
L 51.777505 207.042917 
L 52.699819 214.813946 
L 53.622133 199.465685 
L 54.544447 199.907103 
L 55.466761 207.912632 
L 57.311389 189.313583 
L 58.233704 196.733156 
L 59.156018 123.482046 
L 60.078332 112.691224 
L 61.000646 146.546601 
L 61.92296 131.518096 
L 62.845274 201.488671 
L 63.767588 146.47244 
L 64.689902 68.369955 
L 65.612216 53.173937 
L 66.53453 158.696907 
L 67.456844 163.920913 
L 68.379158 165.650815 
L 69.301472 178.967611 
L 70.223786 168.805401 
L 71.1461 163.804739 
L 72.068414 111.62743 
L 72.990728 112.192816 
L 73.913042 100.638631 
L 74.835356 169.028439 
L 75.75767 185.243263 
L 76.679985 148.726266 
L 77.602299 137.825082 
L 78.524613 192.722955 
L 79.446927 172.959168 
L 81.291555 20.583636 
L 82.213869 48.334625 
L 83.136183 168.059146 
L 84.058497 121.399422 
L 84.980811 216.02675 
L 85.903125 202.67515 
L 86.825439 212.258203 
L 87.747753 216.640374 
L 88.670067 216.835934 
L 89.592381 216.900487 
L 90.514695 215.559781 
L 91.437009 216.017709 
L 92.359323 215.591314 
L 93.281637 215.953797 
L 94.203951 215.093397 
L 96.04858 218.217969 
L 96.970894 217.01396 
L 97.893208 213.617985 
L 98.815522 191.315214 
L 99.737836 204.561229 
L 100.66015 213.855025 
L 101.582464 211.998961 
L 102.504778 201.691423 
L 103.427092 139.278495 
L 104.349406 131.946601 
L 105.27172 148.894142 
L 106.194034 203.938845 
L 107.116348 211.154001 
L 108.038662 196.907453 
L 108.960976 162.13105 
L 109.88329 211.955978 
L 110.805604 203.396064 
L 111.727918 206.9934 
L 112.650232 202.079893 
L 113.572546 202.552357 
L 114.494861 210.830883 
L 115.417175 199.404049 
L 116.339489 213.833951 
L 117.261803 214.187674 
L 118.184117 196.067547 
L 119.106431 208.304175 
L 120.028745 209.933333 
L 120.951059 182.161818 
L 121.873373 207.862102 
L 122.795687 218.256364 
L 123.718001 203.277176 
L 124.640315 209.201008 
L 125.562629 203.675573 
L 126.484943 211.995668 
L 127.407257 205.506951 
L 128.329571 202.024812 
L 129.251885 201.976593 
L 130.174199 216.713939 
L 131.096513 212.18463 
L 132.018827 215.530924 
L 132.941142 216.552076 
L 133.863456 210.956445 
L 134.78577 211.299746 
L 135.708084 213.063944 
L 136.630398 211.344828 
L 137.552712 214.788638 
L 138.475026 216.215814 
L 139.39734 212.190167 
L 141.241968 209.769856 
L 142.164282 213.721114 
L 143.086596 204.376309 
L 144.00891 210.941588 
L 144.931224 208.913743 
L 145.853538 209.827385 
L 146.775852 214.061342 
L 147.698166 210.493528 
L 148.62048 194.129418 
L 149.542794 215.361359 
L 150.465108 217.620834 
L 151.387423 208.664041 
L 152.309737 214.825409 
L 153.232051 208.090837 
L 154.154365 211.086103 
L 155.076679 212.738225 
L 155.998993 214.857974 
L 156.921307 207.379843 
L 157.843621 207.74844 
L 158.765935 212.213285 
L 159.688249 209.284572 
L 160.610563 214.690319 
L 161.532877 213.491284 
L 162.455191 201.103919 
L 163.377505 211.247344 
L 164.299819 212.284049 
L 165.222133 211.16899 
L 166.144447 209.680616 
L 167.066761 213.79005 
L 167.989075 213.579282 
L 168.911389 211.953003 
L 169.833704 212.291853 
L 170.756018 206.69208 
L 171.678332 207.357417 
L 172.600646 213.359608 
L 173.52296 207.328724 
L 174.445274 200.430537 
L 175.367588 215.779784 
L 176.289902 209.770994 
L 177.212216 218.155255 
L 178.13453 216.510313 
L 179.056844 216.663176 
L 180.901472 206.13873 
L 181.823786 215.062088 
L 182.7461 210.38464 
L 183.668414 210.567394 
L 184.590728 214.141907 
L 185.513042 215.25158 
L 186.435356 211.200937 
L 187.35767 210.471099 
L 188.279985 215.579759 
L 189.202299 215.766285 
L 190.124613 208.830728 
L 191.046927 213.778432 
L 191.969241 211.143045 
L 192.891555 213.742535 
L 194.736183 208.154439 
L 195.658497 214.562097 
L 196.580811 217.343925 
L 197.503125 210.261708 
L 198.425439 213.321173 
L 199.347753 208.877134 
L 200.270067 208.217439 
L 201.192381 208.425959 
L 202.114695 198.87213 
L 203.037009 208.947768 
L 203.959323 206.882983 
L 204.881637 213.175683 
L 205.803951 203.541728 
L 206.726265 205.760196 
L 207.64858 211.637269 
L 208.570894 215.113158 
L 209.493208 213.14344 
L 210.415522 215.970848 
L 211.337836 207.62518 
L 212.26015 209.74009 
L 213.182464 200.755637 
L 214.104778 210.879585 
L 215.027092 214.666203 
L 215.949406 216.470854 
L 216.87172 215.247698 
L 217.794034 184.432772 
L 218.716348 199.57011 
L 219.638662 174.238838 
L 220.560976 180.052383 
L 221.48329 205.036901 
L 222.405604 210.594073 
L 223.327918 186.956181 
L 224.250232 203.631926 
L 225.172546 192.295071 
L 226.094861 204.72949 
L 227.017175 190.772846 
L 227.939489 196.23806 
L 228.861803 209.904653 
L 229.784117 200.642424 
L 230.706431 193.941809 
L 231.628745 215.138942 
L 232.551059 208.411851 
L 233.473373 192.877096 
L 234.395687 198.288813 
L 235.318001 189.537452 
L 236.240315 188.858709 
L 237.162629 210.843482 
L 238.084943 198.040353 
L 239.007257 208.816682 
L 239.929571 202.840928 
L 240.851885 204.22188 
L 241.774199 122.974593 
L 242.696513 110.611623 
L 243.618827 78.850456 
L 244.541142 120.149145 
L 245.463456 146.403068 
L 246.38577 133.736186 
L 247.308084 213.43426 
L 248.230398 213.558111 
L 249.152712 212.238651 
L 250.075026 210.614076 
L 250.99734 177.361449 
L 251.919654 197.350927 
L 252.841968 210.477009 
L 253.764282 213.658922 
L 254.686596 161.967266 
L 256.531224 152.834991 
L 257.453538 209.322062 
L 258.375852 202.365491 
L 259.298166 208.374189 
L 260.22048 203.081568 
L 261.142794 200.084583 
L 262.065108 194.284969 
L 262.987423 209.070622 
L 263.909737 202.530979 
L 264.832051 206.263871 
L 265.754365 210.751367 
L 266.676679 197.832918 
L 267.598993 181.634658 
L 268.521307 213.459113 
L 269.443621 214.550834 
L 270.365935 214.762987 
L 271.288249 201.972756 
L 272.210563 208.63378 
L 273.132877 192.991231 
L 274.055191 209.007325 
L 274.977505 211.645248 
L 275.899819 208.684399 
L 276.822133 214.028469 
L 277.744447 213.99414 
L 278.666761 213.539701 
L 279.589075 217.110127 
L 280.511389 55.178678 
L 281.433704 188.797847 
L 282.356018 210.098141 
L 283.278332 214.044879 
L 284.200646 202.938615 
L 285.12296 214.390572 
L 286.045274 204.27313 
L 286.967588 209.771677 
L 287.889902 212.298103 
L 288.812216 195.399298 
L 289.73453 214.436056 
L 290.656844 213.460245 
L 291.579158 217.367457 
L 292.501472 213.871701 
L 293.423786 208.926881 
L 294.3461 191.855567 
L 295.268414 166.916663 
L 296.190728 96.559237 
L 297.113042 194.221201 
L 298.035356 200.478731 
L 298.95767 199.138703 
L 299.879985 186.932211 
L 300.802299 205.619283 
L 302.646927 189.818884 
L 303.569241 205.13693 
L 304.491555 189.392034 
L 305.413869 198.81439 
L 306.336183 182.269731 
L 307.258497 177.218869 
L 308.180811 151.107452 
L 309.103125 204.590573 
L 310.025439 200.15895 
L 310.947753 198.807185 
L 311.870067 211.407008 
L 312.792381 197.672629 
L 313.714695 209.309911 
L 314.637009 211.010894 
L 315.559323 208.815857 
L 316.481637 203.891095 
L 317.403951 210.601819 
L 318.326265 200.969459 
L 319.24858 201.448161 
L 320.170894 203.379061 
L 321.093208 191.290759 
L 322.015522 194.344877 
L 322.937836 193.410607 
L 323.86015 195.257344 
L 324.782464 202.934025 
L 325.704778 204.416687 
L 326.627092 174.235913 
L 327.549406 195.958904 
L 328.47172 175.690126 
L 329.394034 207.137248 
L 330.316348 213.859494 
L 331.238662 210.394394 
L 332.160976 215.584012 
L 333.08329 211.959848 
L 334.005604 215.46449 
L 335.850232 213.293981 
L 336.772546 215.630521 
L 337.694861 214.006254 
L 338.617175 215.466253 
L 339.539489 216.468408 
L 340.461803 216.5877 
L 341.384117 217.312237 
L 342.306431 215.772064 
L 343.228745 194.363367 
L 344.151059 182.437279 
L 345.073373 197.402031 
L 345.995687 196.018025 
L 346.918001 202.943994 
L 347.840315 204.473549 
L 348.762629 208.59431 
L 349.684943 199.2524 
L 349.684943 199.2524 
" style="fill:none;stroke:#1f77b4;stroke-linecap:square;stroke-width:1.5;"/>
   </g>
   <g id="patch_3">
    <path d="M 30.103125 228.14 
L 30.103125 10.7 
" style="fill:none;stroke:#000000;stroke-linecap:square;stroke-linejoin:miter;stroke-width:0.8;"/>
   </g>
   <g id="patch_4">
    <path d="M 364.903125 228.14 
L 364.903125 10.7 
" style="fill:none;stroke:#000000;stroke-linecap:square;stroke-linejoin:miter;stroke-width:0.8;"/>
   </g>
   <g id="patch_5">
    <path d="M 30.103125 228.14 
L 364.903125 228.14 
" style="fill:none;stroke:#000000;stroke-linecap:square;stroke-linejoin:miter;stroke-width:0.8;"/>
   </g>
   <g id="patch_6">
    <path d="M 30.103125 10.7 
L 364.903125 10.7 
" style="fill:none;stroke:#000000;stroke-linecap:square;stroke-linejoin:miter;stroke-width:0.8;"/>
   </g>
  </g>
 </g>
 <defs>
  <clipPath id="pc4c12c9f0f">
   <rect height="217.44" width="334.8" x="30.103125" y="10.7"/>
  </clipPath>
 </defs>
</svg>
