<?xml version="1.0" encoding="utf-8" standalone="no"?>
<!DOCTYPE svg PUBLIC "-//W3C//DTD SVG 1.1//EN"
  "http://www.w3.org/Graphics/SVG/1.1/DTD/svg11.dtd">
<!-- Created with matplotlib (http://matplotlib.org/) -->
<svg height="300.690125pt" version="1.1" viewBox="0 0 397.923125 300.690125" width="397.923125pt" xmlns="http://www.w3.org/2000/svg" xmlns:xlink="http://www.w3.org/1999/xlink">
 <defs>
  <style type="text/css">
*{stroke-linecap:butt;stroke-linejoin:round;}
  </style>
 </defs>
 <g id="figure_1">
  <g id="patch_1">
   <path d="M 0 300.690125 
L 397.923125 300.690125 
L 397.923125 0 
L 0 0 
z
" style="fill:#ffffff;"/>
  </g>
  <g id="axes_1">
   <g id="patch_2">
    <path d="M 30.103125 276.812 
L 387.223125 276.812 
L 387.223125 10.7 
L 30.103125 10.7 
z
" style="fill:#ffffff;"/>
   </g>
   <g id="matplotlib.axis_1">
    <g id="xtick_1">
     <g id="line2d_1">
      <defs>
       <path d="M 0 0 
L 0 3.5 
" id="mff808f4e54" style="stroke:#000000;stroke-width:0.8;"/>
      </defs>
      <g>
       <use style="stroke:#000000;stroke-width:0.8;" x="46.335852" xlink:href="#mff808f4e54" y="276.812"/>
      </g>
     </g>
     <g id="text_1">
      <!-- 0 -->
      <defs>
       <path d="M 31.78125 66.40625 
Q 24.171875 66.40625 20.328125 58.90625 
Q 16.5 51.421875 16.5 36.375 
Q 16.5 21.390625 20.328125 13.890625 
Q 24.171875 6.390625 31.78125 6.390625 
Q 39.453125 6.390625 43.28125 13.890625 
Q 47.125 21.390625 47.125 36.375 
Q 47.125 51.421875 43.28125 58.90625 
Q 39.453125 66.40625 31.78125 66.40625 
z
M 31.78125 74.21875 
Q 44.046875 74.21875 50.515625 64.515625 
Q 56.984375 54.828125 56.984375 36.375 
Q 56.984375 17.96875 50.515625 8.265625 
Q 44.046875 -1.421875 31.78125 -1.421875 
Q 19.53125 -1.421875 13.0625 8.265625 
Q 6.59375 17.96875 6.59375 36.375 
Q 6.59375 54.828125 13.0625 64.515625 
Q 19.53125 74.21875 31.78125 74.21875 
z
" id="DejaVuSans-30"/>
      </defs>
      <g transform="translate(43.154602 291.410437)scale(0.1 -0.1)">
       <use xlink:href="#DejaVuSans-30"/>
      </g>
     </g>
    </g>
    <g id="xtick_2">
     <g id="line2d_2">
      <g>
       <use style="stroke:#000000;stroke-width:0.8;" x="95.525935" xlink:href="#mff808f4e54" y="276.812"/>
      </g>
     </g>
     <g id="text_2">
      <!-- 50 -->
      <defs>
       <path d="M 10.796875 72.90625 
L 49.515625 72.90625 
L 49.515625 64.59375 
L 19.828125 64.59375 
L 19.828125 46.734375 
Q 21.96875 47.46875 24.109375 47.828125 
Q 26.265625 48.1875 28.421875 48.1875 
Q 40.625 48.1875 47.75 41.5 
Q 54.890625 34.8125 54.890625 23.390625 
Q 54.890625 11.625 47.5625 5.09375 
Q 40.234375 -1.421875 26.90625 -1.421875 
Q 22.3125 -1.421875 17.546875 -0.640625 
Q 12.796875 0.140625 7.71875 1.703125 
L 7.71875 11.625 
Q 12.109375 9.234375 16.796875 8.0625 
Q 21.484375 6.890625 26.703125 6.890625 
Q 35.15625 6.890625 40.078125 11.328125 
Q 45.015625 15.765625 45.015625 23.390625 
Q 45.015625 31 40.078125 35.4375 
Q 35.15625 39.890625 26.703125 39.890625 
Q 22.75 39.890625 18.8125 39.015625 
Q 14.890625 38.140625 10.796875 36.28125 
z
" id="DejaVuSans-35"/>
      </defs>
      <g transform="translate(89.163435 291.410437)scale(0.1 -0.1)">
       <use xlink:href="#DejaVuSans-35"/>
       <use x="63.623047" xlink:href="#DejaVuSans-30"/>
      </g>
     </g>
    </g>
    <g id="xtick_3">
     <g id="line2d_3">
      <g>
       <use style="stroke:#000000;stroke-width:0.8;" x="144.716018" xlink:href="#mff808f4e54" y="276.812"/>
      </g>
     </g>
     <g id="text_3">
      <!-- 100 -->
      <defs>
       <path d="M 12.40625 8.296875 
L 28.515625 8.296875 
L 28.515625 63.921875 
L 10.984375 60.40625 
L 10.984375 69.390625 
L 28.421875 72.90625 
L 38.28125 72.90625 
L 38.28125 8.296875 
L 54.390625 8.296875 
L 54.390625 0 
L 12.40625 0 
z
" id="DejaVuSans-31"/>
      </defs>
      <g transform="translate(135.172268 291.410437)scale(0.1 -0.1)">
       <use xlink:href="#DejaVuSans-31"/>
       <use x="63.623047" xlink:href="#DejaVuSans-30"/>
       <use x="127.246094" xlink:href="#DejaVuSans-30"/>
      </g>
     </g>
    </g>
    <g id="xtick_4">
     <g id="line2d_4">
      <g>
       <use style="stroke:#000000;stroke-width:0.8;" x="193.9061" xlink:href="#mff808f4e54" y="276.812"/>
      </g>
     </g>
     <g id="text_4">
      <!-- 150 -->
      <g transform="translate(184.36235 291.410437)scale(0.1 -0.1)">
       <use xlink:href="#DejaVuSans-31"/>
       <use x="63.623047" xlink:href="#DejaVuSans-35"/>
       <use x="127.246094" xlink:href="#DejaVuSans-30"/>
      </g>
     </g>
    </g>
    <g id="xtick_5">
     <g id="line2d_5">
      <g>
       <use style="stroke:#000000;stroke-width:0.8;" x="243.096183" xlink:href="#mff808f4e54" y="276.812"/>
      </g>
     </g>
     <g id="text_5">
      <!-- 200 -->
      <defs>
       <path d="M 19.1875 8.296875 
L 53.609375 8.296875 
L 53.609375 0 
L 7.328125 0 
L 7.328125 8.296875 
Q 12.9375 14.109375 22.625 23.890625 
Q 32.328125 33.6875 34.8125 36.53125 
Q 39.546875 41.84375 41.421875 45.53125 
Q 43.3125 49.21875 43.3125 52.78125 
Q 43.3125 58.59375 39.234375 62.25 
Q 35.15625 65.921875 28.609375 65.921875 
Q 23.96875 65.921875 18.8125 64.3125 
Q 13.671875 62.703125 7.8125 59.421875 
L 7.8125 69.390625 
Q 13.765625 71.78125 18.9375 73 
Q 24.125 74.21875 28.421875 74.21875 
Q 39.75 74.21875 46.484375 68.546875 
Q 53.21875 62.890625 53.21875 53.421875 
Q 53.21875 48.921875 51.53125 44.890625 
Q 49.859375 40.875 45.40625 35.40625 
Q 44.1875 33.984375 37.640625 27.21875 
Q 31.109375 20.453125 19.1875 8.296875 
z
" id="DejaVuSans-32"/>
      </defs>
      <g transform="translate(233.552433 291.410437)scale(0.1 -0.1)">
       <use xlink:href="#DejaVuSans-32"/>
       <use x="63.623047" xlink:href="#DejaVuSans-30"/>
       <use x="127.246094" xlink:href="#DejaVuSans-30"/>
      </g>
     </g>
    </g>
    <g id="xtick_6">
     <g id="line2d_6">
      <g>
       <use style="stroke:#000000;stroke-width:0.8;" x="292.286265" xlink:href="#mff808f4e54" y="276.812"/>
      </g>
     </g>
     <g id="text_6">
      <!-- 250 -->
      <g transform="translate(282.742515 291.410437)scale(0.1 -0.1)">
       <use xlink:href="#DejaVuSans-32"/>
       <use x="63.623047" xlink:href="#DejaVuSans-35"/>
       <use x="127.246094" xlink:href="#DejaVuSans-30"/>
      </g>
     </g>
    </g>
    <g id="xtick_7">
     <g id="line2d_7">
      <g>
       <use style="stroke:#000000;stroke-width:0.8;" x="341.476348" xlink:href="#mff808f4e54" y="276.812"/>
      </g>
     </g>
     <g id="text_7">
      <!-- 300 -->
      <defs>
       <path d="M 40.578125 39.3125 
Q 47.65625 37.796875 51.625 33 
Q 55.609375 28.21875 55.609375 21.1875 
Q 55.609375 10.40625 48.1875 4.484375 
Q 40.765625 -1.421875 27.09375 -1.421875 
Q 22.515625 -1.421875 17.65625 -0.515625 
Q 12.796875 0.390625 7.625 2.203125 
L 7.625 11.71875 
Q 11.71875 9.328125 16.59375 8.109375 
Q 21.484375 6.890625 26.8125 6.890625 
Q 36.078125 6.890625 40.9375 10.546875 
Q 45.796875 14.203125 45.796875 21.1875 
Q 45.796875 27.640625 41.28125 31.265625 
Q 36.765625 34.90625 28.71875 34.90625 
L 20.21875 34.90625 
L 20.21875 43.015625 
L 29.109375 43.015625 
Q 36.375 43.015625 40.234375 45.921875 
Q 44.09375 48.828125 44.09375 54.296875 
Q 44.09375 59.90625 40.109375 62.90625 
Q 36.140625 65.921875 28.71875 65.921875 
Q 24.65625 65.921875 20.015625 65.03125 
Q 15.375 64.15625 9.8125 62.3125 
L 9.8125 71.09375 
Q 15.4375 72.65625 20.34375 73.4375 
Q 25.25 74.21875 29.59375 74.21875 
Q 40.828125 74.21875 47.359375 69.109375 
Q 53.90625 64.015625 53.90625 55.328125 
Q 53.90625 49.265625 50.4375 45.09375 
Q 46.96875 40.921875 40.578125 39.3125 
z
" id="DejaVuSans-33"/>
      </defs>
      <g transform="translate(331.932598 291.410437)scale(0.1 -0.1)">
       <use xlink:href="#DejaVuSans-33"/>
       <use x="63.623047" xlink:href="#DejaVuSans-30"/>
       <use x="127.246094" xlink:href="#DejaVuSans-30"/>
      </g>
     </g>
    </g>
   </g>
   <g id="matplotlib.axis_2">
    <g id="ytick_1">
     <g id="line2d_8">
      <defs>
       <path d="M 0 0 
L -3.5 0 
" id="mdc538cff36" style="stroke:#000000;stroke-width:0.8;"/>
      </defs>
      <g>
       <use style="stroke:#000000;stroke-width:0.8;" x="30.103125" xlink:href="#mdc538cff36" y="265.703789"/>
      </g>
     </g>
     <g id="text_8">
      <!-- 0.0 -->
      <defs>
       <path d="M 10.6875 12.40625 
L 21 12.40625 
L 21 0 
L 10.6875 0 
z
" id="DejaVuSans-2e"/>
      </defs>
      <g transform="translate(7.2 269.503008)scale(0.1 -0.1)">
       <use xlink:href="#DejaVuSans-30"/>
       <use x="63.623047" xlink:href="#DejaVuSans-2e"/>
       <use x="95.410156" xlink:href="#DejaVuSans-30"/>
      </g>
     </g>
    </g>
    <g id="ytick_2">
     <g id="line2d_9">
      <g>
       <use style="stroke:#000000;stroke-width:0.8;" x="30.103125" xlink:href="#mdc538cff36" y="233.127743"/>
      </g>
     </g>
     <g id="text_9">
      <!-- 0.5 -->
      <g transform="translate(7.2 236.926961)scale(0.1 -0.1)">
       <use xlink:href="#DejaVuSans-30"/>
       <use x="63.623047" xlink:href="#DejaVuSans-2e"/>
       <use x="95.410156" xlink:href="#DejaVuSans-35"/>
      </g>
     </g>
    </g>
    <g id="ytick_3">
     <g id="line2d_10">
      <g>
       <use style="stroke:#000000;stroke-width:0.8;" x="30.103125" xlink:href="#mdc538cff36" y="200.551696"/>
      </g>
     </g>
     <g id="text_10">
      <!-- 1.0 -->
      <g transform="translate(7.2 204.350915)scale(0.1 -0.1)">
       <use xlink:href="#DejaVuSans-31"/>
       <use x="63.623047" xlink:href="#DejaVuSans-2e"/>
       <use x="95.410156" xlink:href="#DejaVuSans-30"/>
      </g>
     </g>
    </g>
    <g id="ytick_4">
     <g id="line2d_11">
      <g>
       <use style="stroke:#000000;stroke-width:0.8;" x="30.103125" xlink:href="#mdc538cff36" y="167.97565"/>
      </g>
     </g>
     <g id="text_11">
      <!-- 1.5 -->
      <g transform="translate(7.2 171.774869)scale(0.1 -0.1)">
       <use xlink:href="#DejaVuSans-31"/>
       <use x="63.623047" xlink:href="#DejaVuSans-2e"/>
       <use x="95.410156" xlink:href="#DejaVuSans-35"/>
      </g>
     </g>
    </g>
    <g id="ytick_5">
     <g id="line2d_12">
      <g>
       <use style="stroke:#000000;stroke-width:0.8;" x="30.103125" xlink:href="#mdc538cff36" y="135.399604"/>
      </g>
     </g>
     <g id="text_12">
      <!-- 2.0 -->
      <g transform="translate(7.2 139.198822)scale(0.1 -0.1)">
       <use xlink:href="#DejaVuSans-32"/>
       <use x="63.623047" xlink:href="#DejaVuSans-2e"/>
       <use x="95.410156" xlink:href="#DejaVuSans-30"/>
      </g>
     </g>
    </g>
    <g id="ytick_6">
     <g id="line2d_13">
      <g>
       <use style="stroke:#000000;stroke-width:0.8;" x="30.103125" xlink:href="#mdc538cff36" y="102.823557"/>
      </g>
     </g>
     <g id="text_13">
      <!-- 2.5 -->
      <g transform="translate(7.2 106.622776)scale(0.1 -0.1)">
       <use xlink:href="#DejaVuSans-32"/>
       <use x="63.623047" xlink:href="#DejaVuSans-2e"/>
       <use x="95.410156" xlink:href="#DejaVuSans-35"/>
      </g>
     </g>
    </g>
    <g id="ytick_7">
     <g id="line2d_14">
      <g>
       <use style="stroke:#000000;stroke-width:0.8;" x="30.103125" xlink:href="#mdc538cff36" y="70.247511"/>
      </g>
     </g>
     <g id="text_14">
      <!-- 3.0 -->
      <g transform="translate(7.2 74.04673)scale(0.1 -0.1)">
       <use xlink:href="#DejaVuSans-33"/>
       <use x="63.623047" xlink:href="#DejaVuSans-2e"/>
       <use x="95.410156" xlink:href="#DejaVuSans-30"/>
      </g>
     </g>
    </g>
    <g id="ytick_8">
     <g id="line2d_15">
      <g>
       <use style="stroke:#000000;stroke-width:0.8;" x="30.103125" xlink:href="#mdc538cff36" y="37.671465"/>
      </g>
     </g>
     <g id="text_15">
      <!-- 3.5 -->
      <g transform="translate(7.2 41.470683)scale(0.1 -0.1)">
       <use xlink:href="#DejaVuSans-33"/>
       <use x="63.623047" xlink:href="#DejaVuSans-2e"/>
       <use x="95.410156" xlink:href="#DejaVuSans-35"/>
      </g>
     </g>
    </g>
   </g>
   <g id="line2d_16">
    <path clip-path="url(#pb0c18fca1b)" d="M 46.335852 252.421363 
L 47.319654 247.524158 
L 48.303456 251.399994 
L 49.287257 253.168637 
L 50.271059 253.905774 
L 51.254861 232.89181 
L 52.238662 256.118885 
L 53.222464 250.992524 
L 54.206265 260.503028 
L 55.190067 241.719195 
L 56.173869 242.259421 
L 57.15767 252.056916 
L 59.125274 229.294637 
L 60.109075 238.375015 
L 61.092877 148.727298 
L 62.076679 135.521048 
L 63.06048 176.954648 
L 64.044282 158.562147 
L 65.028084 244.195009 
L 66.011885 176.863886 
L 66.995687 81.278858 
L 67.979489 62.681348 
L 68.96329 191.824691 
L 69.947092 198.218044 
L 70.930894 200.335169 
L 71.914695 216.632811 
L 72.898497 204.195881 
L 73.882299 198.075866 
L 74.8661 134.219133 
L 75.849902 134.911075 
L 76.833704 120.77059 
L 77.817505 204.468845 
L 78.801307 224.313211 
L 79.785108 179.622212 
L 80.76891 166.280895 
L 81.752712 233.467166 
L 82.736513 209.279432 
L 83.720315 110.103143 
L 84.704117 22.796 
L 85.687918 56.7588 
L 86.67172 203.282584 
L 87.655522 146.178498 
L 88.639323 261.987307 
L 89.623125 245.647071 
L 90.606927 257.375205 
L 91.590728 262.738285 
L 92.57453 262.97762 
L 93.558332 263.056622 
L 94.542133 261.415811 
L 95.525935 261.976242 
L 96.509737 261.454403 
L 97.493538 261.898025 
L 98.47734 260.845032 
L 99.461142 262.632285 
L 100.444943 264.669011 
L 101.428745 263.195495 
L 102.412546 259.039362 
L 103.396348 231.744315 
L 104.38015 247.955332 
L 105.363951 259.329461 
L 106.347753 257.057933 
L 107.331555 244.443145 
L 108.315356 168.059642 
L 109.299158 159.086568 
L 110.28296 179.827665 
L 111.266761 247.193633 
L 112.250563 256.023837 
L 113.234365 238.588326 
L 114.218166 196.027537 
L 115.201968 257.00533 
L 116.18577 246.529355 
L 117.169571 250.931923 
L 118.153373 244.918571 
L 119.137175 245.496792 
L 120.120976 255.628392 
L 121.104778 241.643764 
L 122.08858 259.30367 
L 123.072381 259.736571 
L 124.056183 237.560416 
L 125.039985 252.536103 
L 126.023786 254.529934 
L 127.007588 220.542013 
L 127.991389 251.995076 
L 128.975191 264.716 
L 129.958993 246.383855 
L 130.942794 253.633684 
L 131.926596 246.871429 
L 132.910398 257.053904 
L 133.894199 249.112746 
L 134.878001 244.851161 
L 135.861803 244.792148 
L 136.845604 262.828318 
L 137.829406 257.285163 
L 138.813208 261.380495 
L 139.797009 262.630223 
L 140.780811 255.78206 
L 141.764613 256.202205 
L 142.748414 258.361304 
L 143.732216 256.257379 
L 144.716018 260.472055 
L 145.699819 262.218692 
L 146.683621 257.291939 
L 148.651224 254.329863 
L 149.635026 259.165575 
L 150.618827 247.729019 
L 151.602629 255.763877 
L 152.586431 253.282118 
L 153.570232 254.40027 
L 154.554034 259.58196 
L 155.537836 255.215524 
L 156.521637 235.188454 
L 157.505439 261.172974 
L 158.489241 263.938213 
L 159.473042 252.976522 
L 160.456844 260.517057 
L 161.440646 252.275011 
L 162.424447 255.940741 
L 163.408249 257.962675 
L 164.392051 260.556911 
L 165.375852 251.404868 
L 166.359654 251.855972 
L 167.343456 257.320232 
L 168.327257 253.735953 
L 169.311059 260.351728 
L 170.294861 258.8843 
L 171.278662 243.724134 
L 172.262464 256.138074 
L 173.246265 257.406836 
L 174.230067 256.042181 
L 175.213869 254.220649 
L 176.19767 259.249942 
L 177.181472 258.991996 
L 178.165274 257.001689 
L 179.149075 257.416387 
L 180.132877 250.563154 
L 181.116679 251.377422 
L 182.10048 258.72315 
L 183.084282 251.342306 
L 184.068084 242.900022 
L 185.051885 261.68506 
L 186.035687 254.331256 
L 187.019489 264.592259 
L 188.00329 262.579112 
L 188.987092 262.766191 
L 190.954695 249.885942 
L 191.938497 260.806714 
L 192.922299 255.082261 
L 193.9061 255.305923 
L 194.889902 259.680559 
L 195.873704 261.038622 
L 196.857505 256.08128 
L 197.841307 255.188073 
L 198.825108 261.440262 
L 199.80891 261.66854 
L 200.792712 253.18052 
L 201.776513 259.235723 
L 202.760315 256.010429 
L 203.744117 259.191792 
L 205.71172 252.35285 
L 206.695522 260.194805 
L 207.679323 263.599321 
L 208.663125 254.931812 
L 209.646927 258.676111 
L 210.630728 253.237313 
L 211.61453 252.429952 
L 212.598332 252.685147 
L 213.582133 240.992779 
L 214.565935 253.323758 
L 215.549737 250.796789 
L 216.533538 258.498054 
L 217.51734 246.707625 
L 218.501142 249.422677 
L 219.484943 256.61528 
L 220.468745 260.869216 
L 221.452546 258.458594 
L 222.436348 261.918892 
L 223.42015 251.705121 
L 224.403951 254.293434 
L 225.387753 243.297892 
L 226.371555 255.687995 
L 227.355356 260.322214 
L 228.339158 262.530821 
L 229.32296 261.033871 
L 230.306761 223.3213 
L 231.290563 241.846995 
L 232.274365 210.845545 
L 233.258166 217.9604 
L 234.241968 248.537479 
L 235.22577 255.338575 
L 236.209571 226.409551 
L 237.193373 246.818012 
L 238.177175 232.943504 
L 239.160976 248.161256 
L 240.144778 231.080542 
L 241.12858 237.769096 
L 242.112381 254.494833 
L 243.096183 243.159337 
L 244.079985 234.95885 
L 245.063786 260.900772 
L 246.047588 252.667881 
L 247.031389 233.655811 
L 248.015191 240.278891 
L 248.998993 229.568617 
L 249.982794 228.737943 
L 250.966596 255.643811 
L 251.950398 239.974816 
L 252.934199 253.163331 
L 253.918001 245.849957 
L 254.901803 247.540022 
L 255.885604 148.106257 
L 256.869406 132.975947 
L 257.853208 94.105327 
L 258.837009 144.648358 
L 259.820811 176.778986 
L 260.804613 161.276737 
L 261.788414 258.814511 
L 262.772216 258.966086 
L 263.756018 257.351276 
L 264.739819 255.363054 
L 265.723621 214.667124 
L 266.707423 239.131069 
L 267.691224 255.195307 
L 268.675026 259.089462 
L 269.658827 195.827091 
L 270.642629 190.556882 
L 271.626431 184.650638 
L 272.610232 253.781834 
L 273.594034 245.268098 
L 274.577836 252.62179 
L 275.561637 246.144462 
L 276.545439 242.476629 
L 277.529241 235.378824 
L 278.513042 253.474112 
L 279.496844 245.470629 
L 280.480646 250.039095 
L 281.464447 255.531077 
L 282.448249 239.720949 
L 283.432051 219.896853 
L 284.415852 258.844928 
L 285.399654 260.181021 
L 286.383456 260.440662 
L 287.367257 244.787453 
L 288.351059 252.939487 
L 289.334861 233.795493 
L 290.318662 253.396646 
L 291.302464 256.625046 
L 292.286265 253.001436 
L 293.270067 259.541729 
L 294.253869 259.499716 
L 295.23767 258.943555 
L 296.221472 263.313188 
L 297.205274 65.134833 
L 298.189075 228.663458 
L 299.172877 254.731632 
L 300.156679 259.561812 
L 301.14048 245.96951 
L 302.124282 259.984885 
L 303.108084 247.602744 
L 304.091885 254.332092 
L 305.075687 257.424036 
L 306.059489 236.742584 
L 307.04329 260.04055 
L 308.027092 258.846313 
L 309.010894 263.628119 
L 309.994695 259.34987 
L 310.978497 253.298195 
L 311.962299 232.405621 
L 312.9461 201.884366 
L 313.929902 115.778059 
L 314.913704 235.300781 
L 315.897505 242.959003 
L 316.881307 241.319022 
L 317.865108 226.380216 
L 318.84891 249.250222 
L 320.816513 229.913045 
L 321.800315 248.659899 
L 322.784117 229.390649 
L 323.767918 240.922114 
L 324.75172 220.674082 
L 325.735522 214.492629 
L 326.719323 182.536405 
L 327.703125 247.991245 
L 328.686927 242.567642 
L 329.670728 240.913296 
L 330.65453 256.333477 
L 331.638332 239.52478 
L 332.622133 253.766963 
L 333.605935 255.848697 
L 334.589737 253.16232 
L 335.573538 247.135195 
L 336.55734 255.348054 
L 337.541142 243.559577 
L 338.524943 244.145432 
L 339.508745 246.508547 
L 340.492546 231.714385 
L 341.476348 235.452141 
L 342.46015 234.308743 
L 343.443951 236.568855 
L 344.427753 245.963893 
L 345.411555 247.778435 
L 346.395356 210.841965 
L 347.379158 237.427453 
L 348.36296 212.621691 
L 349.346761 251.10797 
L 350.330563 259.33493 
L 351.314365 255.094199 
L 352.298166 261.445466 
L 353.281968 257.010066 
L 354.26577 261.29919 
L 356.233373 258.642832 
L 357.217175 261.502386 
L 358.200976 259.514541 
L 359.184778 261.301348 
L 360.16858 262.527827 
L 361.152381 262.673821 
L 362.136183 263.560539 
L 363.119985 261.675612 
L 364.103786 235.474769 
L 365.087588 220.879134 
L 366.071389 239.193612 
L 367.055191 237.499808 
L 368.038993 245.976093 
L 369.022794 247.848025 
L 370.006596 252.891182 
L 370.990398 241.458169 
L 370.990398 241.458169 
" style="fill:none;stroke:#1f77b4;stroke-linecap:square;stroke-width:1.5;"/>
   </g>
   <g id="patch_3">
    <path d="M 30.103125 276.812 
L 30.103125 10.7 
" style="fill:none;stroke:#000000;stroke-linecap:square;stroke-linejoin:miter;stroke-width:0.8;"/>
   </g>
   <g id="patch_4">
    <path d="M 387.223125 276.812 
L 387.223125 10.7 
" style="fill:none;stroke:#000000;stroke-linecap:square;stroke-linejoin:miter;stroke-width:0.8;"/>
   </g>
   <g id="patch_5">
    <path d="M 30.103125 276.812 
L 387.223125 276.812 
" style="fill:none;stroke:#000000;stroke-linecap:square;stroke-linejoin:miter;stroke-width:0.8;"/>
   </g>
   <g id="patch_6">
    <path d="M 30.103125 10.7 
L 387.223125 10.7 
" style="fill:none;stroke:#000000;stroke-linecap:square;stroke-linejoin:miter;stroke-width:0.8;"/>
   </g>
  </g>
 </g>
 <defs>
  <clipPath id="pb0c18fca1b">
   <rect height="266.112" width="357.12" x="30.103125" y="10.7"/>
  </clipPath>
 </defs>
</svg>
