<?xml version="1.0" encoding="utf-8" standalone="no"?>
<!DOCTYPE svg PUBLIC "-//W3C//DTD SVG 1.1//EN"
  "http://www.w3.org/Graphics/SVG/1.1/DTD/svg11.dtd">
<!-- Created with matplotlib (http://matplotlib.org/) -->
<svg height="252.018125pt" version="1.1" viewBox="0 0 366.0625 252.018125" width="366.0625pt" xmlns="http://www.w3.org/2000/svg" xmlns:xlink="http://www.w3.org/1999/xlink">
 <defs>
  <style type="text/css">
*{stroke-linecap:butt;stroke-linejoin:round;}
  </style>
 </defs>
 <g id="figure_1">
  <g id="patch_1">
   <path d="M 0 252.018125 
L 366.0625 252.018125 
L 366.0625 0 
L 0 0 
z
" style="fill:#ffffff;"/>
  </g>
  <g id="axes_1">
   <g id="patch_2">
    <path d="M 20.5625 228.14 
L 355.3625 228.14 
L 355.3625 10.7 
L 20.5625 10.7 
z
" style="fill:#ffffff;"/>
   </g>
   <g id="matplotlib.axis_1">
    <g id="xtick_1">
     <g id="line2d_1">
      <defs>
       <path d="M 0 0 
L 0 3.5 
" id="m1e830385e0" style="stroke:#000000;stroke-width:0.8;"/>
      </defs>
      <g>
       <use style="stroke:#000000;stroke-width:0.8;" x="35.780682" xlink:href="#m1e830385e0" y="228.14"/>
      </g>
     </g>
     <g id="text_1">
      <!-- 0 -->
      <defs>
       <path d="M 31.78125 66.40625 
Q 24.171875 66.40625 20.328125 58.90625 
Q 16.5 51.421875 16.5 36.375 
Q 16.5 21.390625 20.328125 13.890625 
Q 24.171875 6.390625 31.78125 6.390625 
Q 39.453125 6.390625 43.28125 13.890625 
Q 47.125 21.390625 47.125 36.375 
Q 47.125 51.421875 43.28125 58.90625 
Q 39.453125 66.40625 31.78125 66.40625 
z
M 31.78125 74.21875 
Q 44.046875 74.21875 50.515625 64.515625 
Q 56.984375 54.828125 56.984375 36.375 
Q 56.984375 17.96875 50.515625 8.265625 
Q 44.046875 -1.421875 31.78125 -1.421875 
Q 19.53125 -1.421875 13.0625 8.265625 
Q 6.59375 17.96875 6.59375 36.375 
Q 6.59375 54.828125 13.0625 64.515625 
Q 19.53125 74.21875 31.78125 74.21875 
z
" id="DejaVuSans-30"/>
      </defs>
      <g transform="translate(32.599432 242.738437)scale(0.1 -0.1)">
       <use xlink:href="#DejaVuSans-30"/>
      </g>
     </g>
    </g>
    <g id="xtick_2">
     <g id="line2d_2">
      <g>
       <use style="stroke:#000000;stroke-width:0.8;" x="103.043364" xlink:href="#m1e830385e0" y="228.14"/>
      </g>
     </g>
     <g id="text_2">
      <!-- 200 -->
      <defs>
       <path d="M 19.1875 8.296875 
L 53.609375 8.296875 
L 53.609375 0 
L 7.328125 0 
L 7.328125 8.296875 
Q 12.9375 14.109375 22.625 23.890625 
Q 32.328125 33.6875 34.8125 36.53125 
Q 39.546875 41.84375 41.421875 45.53125 
Q 43.3125 49.21875 43.3125 52.78125 
Q 43.3125 58.59375 39.234375 62.25 
Q 35.15625 65.921875 28.609375 65.921875 
Q 23.96875 65.921875 18.8125 64.3125 
Q 13.671875 62.703125 7.8125 59.421875 
L 7.8125 69.390625 
Q 13.765625 71.78125 18.9375 73 
Q 24.125 74.21875 28.421875 74.21875 
Q 39.75 74.21875 46.484375 68.546875 
Q 53.21875 62.890625 53.21875 53.421875 
Q 53.21875 48.921875 51.53125 44.890625 
Q 49.859375 40.875 45.40625 35.40625 
Q 44.1875 33.984375 37.640625 27.21875 
Q 31.109375 20.453125 19.1875 8.296875 
z
" id="DejaVuSans-32"/>
      </defs>
      <g transform="translate(93.499614 242.738437)scale(0.1 -0.1)">
       <use xlink:href="#DejaVuSans-32"/>
       <use x="63.623047" xlink:href="#DejaVuSans-30"/>
       <use x="127.246094" xlink:href="#DejaVuSans-30"/>
      </g>
     </g>
    </g>
    <g id="xtick_3">
     <g id="line2d_3">
      <g>
       <use style="stroke:#000000;stroke-width:0.8;" x="170.306046" xlink:href="#m1e830385e0" y="228.14"/>
      </g>
     </g>
     <g id="text_3">
      <!-- 400 -->
      <defs>
       <path d="M 37.796875 64.3125 
L 12.890625 25.390625 
L 37.796875 25.390625 
z
M 35.203125 72.90625 
L 47.609375 72.90625 
L 47.609375 25.390625 
L 58.015625 25.390625 
L 58.015625 17.1875 
L 47.609375 17.1875 
L 47.609375 0 
L 37.796875 0 
L 37.796875 17.1875 
L 4.890625 17.1875 
L 4.890625 26.703125 
z
" id="DejaVuSans-34"/>
      </defs>
      <g transform="translate(160.762296 242.738437)scale(0.1 -0.1)">
       <use xlink:href="#DejaVuSans-34"/>
       <use x="63.623047" xlink:href="#DejaVuSans-30"/>
       <use x="127.246094" xlink:href="#DejaVuSans-30"/>
      </g>
     </g>
    </g>
    <g id="xtick_4">
     <g id="line2d_4">
      <g>
       <use style="stroke:#000000;stroke-width:0.8;" x="237.568728" xlink:href="#m1e830385e0" y="228.14"/>
      </g>
     </g>
     <g id="text_4">
      <!-- 600 -->
      <defs>
       <path d="M 33.015625 40.375 
Q 26.375 40.375 22.484375 35.828125 
Q 18.609375 31.296875 18.609375 23.390625 
Q 18.609375 15.53125 22.484375 10.953125 
Q 26.375 6.390625 33.015625 6.390625 
Q 39.65625 6.390625 43.53125 10.953125 
Q 47.40625 15.53125 47.40625 23.390625 
Q 47.40625 31.296875 43.53125 35.828125 
Q 39.65625 40.375 33.015625 40.375 
z
M 52.59375 71.296875 
L 52.59375 62.3125 
Q 48.875 64.0625 45.09375 64.984375 
Q 41.3125 65.921875 37.59375 65.921875 
Q 27.828125 65.921875 22.671875 59.328125 
Q 17.53125 52.734375 16.796875 39.40625 
Q 19.671875 43.65625 24.015625 45.921875 
Q 28.375 48.1875 33.59375 48.1875 
Q 44.578125 48.1875 50.953125 41.515625 
Q 57.328125 34.859375 57.328125 23.390625 
Q 57.328125 12.15625 50.6875 5.359375 
Q 44.046875 -1.421875 33.015625 -1.421875 
Q 20.359375 -1.421875 13.671875 8.265625 
Q 6.984375 17.96875 6.984375 36.375 
Q 6.984375 53.65625 15.1875 63.9375 
Q 23.390625 74.21875 37.203125 74.21875 
Q 40.921875 74.21875 44.703125 73.484375 
Q 48.484375 72.75 52.59375 71.296875 
z
" id="DejaVuSans-36"/>
      </defs>
      <g transform="translate(228.024978 242.738437)scale(0.1 -0.1)">
       <use xlink:href="#DejaVuSans-36"/>
       <use x="63.623047" xlink:href="#DejaVuSans-30"/>
       <use x="127.246094" xlink:href="#DejaVuSans-30"/>
      </g>
     </g>
    </g>
    <g id="xtick_5">
     <g id="line2d_5">
      <g>
       <use style="stroke:#000000;stroke-width:0.8;" x="304.83141" xlink:href="#m1e830385e0" y="228.14"/>
      </g>
     </g>
     <g id="text_5">
      <!-- 800 -->
      <defs>
       <path d="M 31.78125 34.625 
Q 24.75 34.625 20.71875 30.859375 
Q 16.703125 27.09375 16.703125 20.515625 
Q 16.703125 13.921875 20.71875 10.15625 
Q 24.75 6.390625 31.78125 6.390625 
Q 38.8125 6.390625 42.859375 10.171875 
Q 46.921875 13.96875 46.921875 20.515625 
Q 46.921875 27.09375 42.890625 30.859375 
Q 38.875 34.625 31.78125 34.625 
z
M 21.921875 38.8125 
Q 15.578125 40.375 12.03125 44.71875 
Q 8.5 49.078125 8.5 55.328125 
Q 8.5 64.0625 14.71875 69.140625 
Q 20.953125 74.21875 31.78125 74.21875 
Q 42.671875 74.21875 48.875 69.140625 
Q 55.078125 64.0625 55.078125 55.328125 
Q 55.078125 49.078125 51.53125 44.71875 
Q 48 40.375 41.703125 38.8125 
Q 48.828125 37.15625 52.796875 32.3125 
Q 56.78125 27.484375 56.78125 20.515625 
Q 56.78125 9.90625 50.3125 4.234375 
Q 43.84375 -1.421875 31.78125 -1.421875 
Q 19.734375 -1.421875 13.25 4.234375 
Q 6.78125 9.90625 6.78125 20.515625 
Q 6.78125 27.484375 10.78125 32.3125 
Q 14.796875 37.15625 21.921875 38.8125 
z
M 18.3125 54.390625 
Q 18.3125 48.734375 21.84375 45.5625 
Q 25.390625 42.390625 31.78125 42.390625 
Q 38.140625 42.390625 41.71875 45.5625 
Q 45.3125 48.734375 45.3125 54.390625 
Q 45.3125 60.0625 41.71875 63.234375 
Q 38.140625 66.40625 31.78125 66.40625 
Q 25.390625 66.40625 21.84375 63.234375 
Q 18.3125 60.0625 18.3125 54.390625 
z
" id="DejaVuSans-38"/>
      </defs>
      <g transform="translate(295.28766 242.738437)scale(0.1 -0.1)">
       <use xlink:href="#DejaVuSans-38"/>
       <use x="63.623047" xlink:href="#DejaVuSans-30"/>
       <use x="127.246094" xlink:href="#DejaVuSans-30"/>
      </g>
     </g>
    </g>
   </g>
   <g id="matplotlib.axis_2">
    <g id="ytick_1">
     <g id="line2d_6">
      <defs>
       <path d="M 0 0 
L -3.5 0 
" id="m2213dfef26" style="stroke:#000000;stroke-width:0.8;"/>
      </defs>
      <g>
       <use style="stroke:#000000;stroke-width:0.8;" x="20.5625" xlink:href="#m2213dfef26" y="218.405843"/>
      </g>
     </g>
     <g id="text_6">
      <!-- 0 -->
      <g transform="translate(7.2 222.205062)scale(0.1 -0.1)">
       <use xlink:href="#DejaVuSans-30"/>
      </g>
     </g>
    </g>
    <g id="ytick_2">
     <g id="line2d_7">
      <g>
       <use style="stroke:#000000;stroke-width:0.8;" x="20.5625" xlink:href="#m2213dfef26" y="181.515783"/>
      </g>
     </g>
     <g id="text_7">
      <!-- 1 -->
      <defs>
       <path d="M 12.40625 8.296875 
L 28.515625 8.296875 
L 28.515625 63.921875 
L 10.984375 60.40625 
L 10.984375 69.390625 
L 28.421875 72.90625 
L 38.28125 72.90625 
L 38.28125 8.296875 
L 54.390625 8.296875 
L 54.390625 0 
L 12.40625 0 
z
" id="DejaVuSans-31"/>
      </defs>
      <g transform="translate(7.2 185.315002)scale(0.1 -0.1)">
       <use xlink:href="#DejaVuSans-31"/>
      </g>
     </g>
    </g>
    <g id="ytick_3">
     <g id="line2d_8">
      <g>
       <use style="stroke:#000000;stroke-width:0.8;" x="20.5625" xlink:href="#m2213dfef26" y="144.625723"/>
      </g>
     </g>
     <g id="text_8">
      <!-- 2 -->
      <g transform="translate(7.2 148.424942)scale(0.1 -0.1)">
       <use xlink:href="#DejaVuSans-32"/>
      </g>
     </g>
    </g>
    <g id="ytick_4">
     <g id="line2d_9">
      <g>
       <use style="stroke:#000000;stroke-width:0.8;" x="20.5625" xlink:href="#m2213dfef26" y="107.735664"/>
      </g>
     </g>
     <g id="text_9">
      <!-- 3 -->
      <defs>
       <path d="M 40.578125 39.3125 
Q 47.65625 37.796875 51.625 33 
Q 55.609375 28.21875 55.609375 21.1875 
Q 55.609375 10.40625 48.1875 4.484375 
Q 40.765625 -1.421875 27.09375 -1.421875 
Q 22.515625 -1.421875 17.65625 -0.515625 
Q 12.796875 0.390625 7.625 2.203125 
L 7.625 11.71875 
Q 11.71875 9.328125 16.59375 8.109375 
Q 21.484375 6.890625 26.8125 6.890625 
Q 36.078125 6.890625 40.9375 10.546875 
Q 45.796875 14.203125 45.796875 21.1875 
Q 45.796875 27.640625 41.28125 31.265625 
Q 36.765625 34.90625 28.71875 34.90625 
L 20.21875 34.90625 
L 20.21875 43.015625 
L 29.109375 43.015625 
Q 36.375 43.015625 40.234375 45.921875 
Q 44.09375 48.828125 44.09375 54.296875 
Q 44.09375 59.90625 40.109375 62.90625 
Q 36.140625 65.921875 28.71875 65.921875 
Q 24.65625 65.921875 20.015625 65.03125 
Q 15.375 64.15625 9.8125 62.3125 
L 9.8125 71.09375 
Q 15.4375 72.65625 20.34375 73.4375 
Q 25.25 74.21875 29.59375 74.21875 
Q 40.828125 74.21875 47.359375 69.109375 
Q 53.90625 64.015625 53.90625 55.328125 
Q 53.90625 49.265625 50.4375 45.09375 
Q 46.96875 40.921875 40.578125 39.3125 
z
" id="DejaVuSans-33"/>
      </defs>
      <g transform="translate(7.2 111.534882)scale(0.1 -0.1)">
       <use xlink:href="#DejaVuSans-33"/>
      </g>
     </g>
    </g>
    <g id="ytick_5">
     <g id="line2d_10">
      <g>
       <use style="stroke:#000000;stroke-width:0.8;" x="20.5625" xlink:href="#m2213dfef26" y="70.845604"/>
      </g>
     </g>
     <g id="text_10">
      <!-- 4 -->
      <g transform="translate(7.2 74.644823)scale(0.1 -0.1)">
       <use xlink:href="#DejaVuSans-34"/>
      </g>
     </g>
    </g>
    <g id="ytick_6">
     <g id="line2d_11">
      <g>
       <use style="stroke:#000000;stroke-width:0.8;" x="20.5625" xlink:href="#m2213dfef26" y="33.955544"/>
      </g>
     </g>
     <g id="text_11">
      <!-- 5 -->
      <defs>
       <path d="M 10.796875 72.90625 
L 49.515625 72.90625 
L 49.515625 64.59375 
L 19.828125 64.59375 
L 19.828125 46.734375 
Q 21.96875 47.46875 24.109375 47.828125 
Q 26.265625 48.1875 28.421875 48.1875 
Q 40.625 48.1875 47.75 41.5 
Q 54.890625 34.8125 54.890625 23.390625 
Q 54.890625 11.625 47.5625 5.09375 
Q 40.234375 -1.421875 26.90625 -1.421875 
Q 22.3125 -1.421875 17.546875 -0.640625 
Q 12.796875 0.140625 7.71875 1.703125 
L 7.71875 11.625 
Q 12.109375 9.234375 16.796875 8.0625 
Q 21.484375 6.890625 26.703125 6.890625 
Q 35.15625 6.890625 40.078125 11.328125 
Q 45.015625 15.765625 45.015625 23.390625 
Q 45.015625 31 40.078125 35.4375 
Q 35.15625 39.890625 26.703125 39.890625 
Q 22.75 39.890625 18.8125 39.015625 
Q 14.890625 38.140625 10.796875 36.28125 
z
" id="DejaVuSans-35"/>
      </defs>
      <g transform="translate(7.2 37.754763)scale(0.1 -0.1)">
       <use xlink:href="#DejaVuSans-35"/>
      </g>
     </g>
    </g>
   </g>
   <g id="line2d_12">
    <path clip-path="url(#padb1ef2554)" d="M 35.780682 211.450198 
L 36.116995 208.996954 
L 36.453309 210.976036 
L 36.789622 207.6784 
L 37.125935 207.037818 
L 37.462249 199.774981 
L 37.798562 196.96341 
L 38.134876 197.733727 
L 38.471189 210.035244 
L 38.807503 210.31561 
L 39.143816 204.53008 
L 39.480129 193.930501 
L 39.816443 192.905546 
L 40.152756 208.603725 
L 40.825383 214.665328 
L 41.161696 213.365082 
L 41.49801 215.514348 
L 41.834323 205.294585 
L 42.170637 207.199062 
L 42.50695 211.395511 
L 42.843263 210.481004 
L 43.179577 194.755193 
L 43.51589 200.723232 
L 43.852204 211.656813 
L 44.188517 212.385535 
L 44.52483 209.261022 
L 44.861144 215.637447 
L 45.197457 214.70738 
L 45.533771 208.821136 
L 45.870084 216.994218 
L 46.206398 216.61379 
L 46.542711 213.447355 
L 46.879024 217.566287 
L 47.215338 214.643399 
L 47.551651 216.646392 
L 47.887965 216.780831 
L 48.224278 214.550868 
L 48.560591 216.276567 
L 48.896905 214.601522 
L 49.233218 211.514597 
L 49.569532 215.224675 
L 49.905845 215.774374 
L 50.242158 216.715879 
L 50.578472 202.526139 
L 50.914785 196.794834 
L 51.251099 210.122329 
L 51.587412 195.436247 
L 51.923726 208.182864 
L 52.260039 199.735284 
L 52.596352 167.206751 
L 52.932666 193.692348 
L 53.268979 201.499654 
L 53.605293 215.055796 
L 53.941606 209.821512 
L 54.277919 214.603391 
L 54.614233 216.380713 
L 54.950546 210.733792 
L 55.28686 212.067337 
L 55.623173 200.816814 
L 55.959486 216.160485 
L 56.2958 210.313727 
L 56.632113 215.309124 
L 56.968427 213.134228 
L 57.30474 215.058525 
L 57.641053 214.449451 
L 57.977367 203.127543 
L 58.31368 209.913341 
L 58.649994 197.266948 
L 58.986307 207.6112 
L 59.322621 208.629351 
L 59.658934 195.652066 
L 59.995247 204.721859 
L 60.331561 203.739547 
L 60.667874 206.375269 
L 61.004188 207.788506 
L 61.340501 214.562477 
L 61.676814 205.030462 
L 62.013128 203.684252 
L 62.349441 180.88223 
L 62.685755 184.983042 
L 63.022068 197.969177 
L 63.358381 215.638548 
L 63.694695 204.590525 
L 64.031008 215.986309 
L 64.367322 213.482299 
L 64.703635 212.479733 
L 65.039949 210.025664 
L 65.376262 217.905996 
L 65.712575 216.571777 
L 66.048889 217.299109 
L 66.385202 217.567498 
L 66.721516 212.389248 
L 67.394142 206.268946 
L 67.730456 216.482575 
L 68.066769 209.887071 
L 68.403083 214.476498 
L 68.739396 201.545494 
L 69.075709 214.008831 
L 69.412023 194.535526 
L 69.748336 193.55751 
L 70.08465 178.025043 
L 70.420963 177.977484 
L 70.757276 208.272372 
L 71.09359 196.516342 
L 71.429903 215.59919 
L 71.766217 209.037954 
L 72.10253 217.01305 
L 72.438844 216.870824 
L 72.775157 201.528153 
L 73.11147 172.015928 
L 73.447784 111.843327 
L 73.784097 124.269268 
L 74.120411 150.902865 
L 74.456724 129.294452 
L 75.129351 54.668645 
L 75.801978 152.439783 
L 76.138291 159.493871 
L 76.474604 114.663626 
L 76.810918 33.272519 
L 77.147231 20.583636 
L 77.483545 199.9655 
L 78.156172 216.03336 
L 78.492485 207.2543 
L 78.828798 215.600276 
L 79.165112 216.526917 
L 79.501425 207.208491 
L 79.837739 188.655737 
L 80.174052 214.635579 
L 80.510365 216.58679 
L 80.846679 214.83366 
L 81.182992 217.801169 
L 81.519306 215.343423 
L 81.855619 217.679116 
L 82.528246 214.142287 
L 82.864559 213.375773 
L 83.200873 205.762685 
L 83.537186 218.243342 
L 83.873499 216.841333 
L 84.209813 216.514525 
L 84.546126 216.522598 
L 85.218753 217.061284 
L 85.555067 215.985469 
L 85.89138 216.019701 
L 86.227693 215.686305 
L 86.564007 211.926768 
L 86.90032 215.529138 
L 87.236634 216.694974 
L 87.572947 216.502214 
L 87.90926 215.285274 
L 88.245574 216.297178 
L 88.581887 208.123231 
L 88.918201 217.168271 
L 89.254514 216.847187 
L 89.590827 185.880277 
L 89.927141 214.692033 
L 90.263454 215.098819 
L 90.599768 214.280549 
L 90.936081 216.091435 
L 91.272395 216.179107 
L 91.608708 217.691804 
L 91.945021 217.055255 
L 92.281335 216.026948 
L 92.617648 215.811299 
L 92.953962 211.049395 
L 93.290275 105.431967 
L 93.626588 208.846601 
L 93.962902 201.273601 
L 94.299215 215.357717 
L 94.635529 215.673637 
L 94.971842 214.560892 
L 95.308155 158.673219 
L 95.644469 40.829157 
L 95.980782 160.622451 
L 96.317096 161.705979 
L 96.653409 202.034988 
L 96.989723 181.784464 
L 97.326036 210.138161 
L 97.662349 175.336057 
L 97.998663 203.709453 
L 98.334976 130.633391 
L 98.67129 210.271915 
L 99.007603 208.703076 
L 99.343916 215.399318 
L 99.68023 215.185644 
L 100.016543 209.374791 
L 100.352857 101.14507 
L 100.68917 110.223496 
L 101.025483 209.609048 
L 101.361797 192.010302 
L 101.69811 215.741769 
L 102.034424 212.766543 
L 102.370737 216.692008 
L 102.70705 217.661169 
L 103.043364 216.416129 
L 103.379677 216.802856 
L 103.715991 216.727942 
L 104.052304 217.333601 
L 104.724931 216.909691 
L 105.061244 216.490513 
L 105.397558 216.881447 
L 105.733871 217.607206 
L 106.070185 216.503282 
L 106.406498 216.472042 
L 106.742811 216.165919 
L 107.079125 213.999602 
L 107.415438 214.395651 
L 107.751752 205.466439 
L 108.088065 214.893007 
L 108.424378 217.447648 
L 108.760692 216.727337 
L 109.433319 216.863563 
L 109.769632 214.808444 
L 110.105946 217.008682 
L 110.442259 217.650337 
L 110.778572 216.242497 
L 111.114886 214.275628 
L 111.451199 216.917177 
L 111.787513 217.2755 
L 112.123826 214.78649 
L 112.460139 216.33705 
L 112.796453 216.66905 
L 113.132766 216.502214 
L 113.46908 216.719489 
L 113.805393 216.673148 
L 114.141706 216.955887 
L 114.47802 215.893232 
L 114.814333 217.524964 
L 115.150647 217.629126 
L 115.48696 216.880115 
L 115.823273 217.344071 
L 116.159587 216.957288 
L 116.4959 218.042479 
L 116.832214 218.225564 
L 117.168527 217.229705 
L 117.504841 209.928663 
L 117.841154 217.968876 
L 118.513781 214.666686 
L 118.850094 217.876394 
L 119.186408 218.103506 
L 119.522721 216.946113 
L 119.859034 217.247104 
L 120.195348 216.722503 
L 120.531661 216.743143 
L 120.867975 216.37971 
L 121.204288 216.536129 
L 121.540601 218.128015 
L 121.876915 217.304628 
L 122.213228 217.893949 
L 122.549542 216.843932 
L 122.885855 216.633738 
L 123.222169 215.953371 
L 123.558482 213.395599 
L 123.894795 192.560968 
L 124.231109 212.344679 
L 124.567422 192.761138 
L 124.903736 203.071342 
L 125.240049 217.307399 
L 125.576362 215.955857 
L 125.912676 217.044022 
L 126.248989 214.956611 
L 126.585303 216.454267 
L 126.921616 216.345413 
L 127.257929 215.737198 
L 127.594243 211.320145 
L 127.930556 215.149264 
L 128.26687 217.475615 
L 128.939496 217.760543 
L 129.27581 217.140676 
L 129.612123 215.220208 
L 129.948437 203.380653 
L 130.621064 217.105053 
L 131.29369 216.662047 
L 131.630004 217.577246 
L 131.966317 217.088758 
L 132.302631 194.931575 
L 132.638944 210.620776 
L 132.975257 216.25521 
L 133.311571 216.129934 
L 133.647884 217.857546 
L 133.984198 216.217756 
L 134.320511 216.490513 
L 134.656824 214.934012 
L 134.993138 217.74653 
L 135.329451 218.256364 
L 135.665765 217.626515 
L 136.002078 217.848361 
L 136.338392 216.068293 
L 136.674705 216.787721 
L 137.011018 216.403916 
L 137.347332 213.71621 
L 137.683645 214.584208 
L 138.019959 217.717884 
L 138.692585 214.284983 
L 139.028899 210.993143 
L 139.365212 213.842437 
L 140.037839 216.811751 
L 140.374152 217.065066 
L 140.710466 216.999264 
L 141.046779 217.389024 
L 141.383093 210.963743 
L 142.055719 217.68755 
L 142.392033 218.100165 
L 142.728346 217.616158 
L 143.06466 207.206315 
L 143.400973 217.11367 
L 144.0736 215.096977 
L 144.409913 216.358269 
L 144.746227 216.363235 
L 145.418854 217.980656 
L 145.755167 216.150105 
L 146.09148 216.259938 
L 146.427794 217.633058 
L 146.764107 216.209879 
L 147.100421 213.745321 
L 147.436734 215.474579 
L 147.773047 213.12172 
L 148.109361 213.894592 
L 148.445674 218.256364 
L 148.781988 215.998513 
L 149.118301 217.607206 
L 149.454615 213.368711 
L 149.790928 217.556665 
L 150.127241 216.57067 
L 150.463555 216.730365 
L 150.799868 213.486427 
L 151.136182 215.843203 
L 151.472495 195.556166 
L 151.808808 212.509112 
L 152.145122 215.839638 
L 152.481435 211.870579 
L 152.817749 210.765364 
L 153.154062 217.485493 
L 153.490375 216.125031 
L 153.826689 215.960006 
L 154.163002 217.639658 
L 154.499316 215.445617 
L 155.171942 218.128015 
L 155.508256 215.447676 
L 155.844569 214.349068 
L 156.180883 202.710579 
L 156.517196 212.92992 
L 156.85351 214.812399 
L 157.189823 215.259344 
L 157.526136 212.946451 
L 157.86245 216.770862 
L 158.198763 213.966534 
L 158.535077 214.948376 
L 158.87139 214.054806 
L 159.207703 214.634502 
L 159.544017 217.105053 
L 159.88033 211.82335 
L 160.216644 214.01646 
L 160.552957 213.945535 
L 160.88927 216.402394 
L 161.225584 216.46575 
L 161.561897 217.511235 
L 161.898211 215.594851 
L 162.234524 216.29429 
L 162.907151 215.744821 
L 163.243464 214.15302 
L 163.579778 213.597726 
L 163.916091 213.883125 
L 164.252405 215.582234 
L 164.588718 215.386172 
L 165.261345 213.335951 
L 165.597658 217.01378 
L 165.933972 201.607836 
L 166.270285 215.867094 
L 166.606598 214.150632 
L 166.942912 214.707379 
L 167.279225 214.799139 
L 167.615539 216.570116 
L 167.951852 213.511264 
L 168.288165 215.98002 
L 168.624479 213.147731 
L 168.960792 215.758981 
L 169.297106 212.473566 
L 169.633419 211.09343 
L 169.969733 210.809089 
L 170.306046 209.477717 
L 170.642359 214.640701 
L 170.978673 215.117916 
L 171.314986 216.987758 
L 171.6513 216.723106 
L 171.987613 217.717884 
L 172.323926 217.661169 
L 172.996553 215.055493 
L 173.332867 210.686281 
L 173.66918 217.638333 
L 174.005493 215.737198 
L 174.341807 216.512379 
L 174.67812 212.199464 
L 175.014434 213.731178 
L 175.350747 212.017063 
L 175.687061 212.192595 
L 176.023374 215.811691 
L 176.359687 214.008138 
L 176.696001 214.801111 
L 177.032314 211.704385 
L 177.368628 214.779481 
L 177.704941 209.09014 
L 178.041254 215.495791 
L 178.377568 216.530163 
L 178.713881 214.51181 
L 179.050195 216.782082 
L 179.386508 172.98566 
L 179.722821 209.785149 
L 180.059135 198.713732 
L 180.395448 208.196086 
L 180.731762 205.459455 
L 181.068075 213.324945 
L 181.404388 217.201545 
L 181.740702 215.466621 
L 182.077015 214.830249 
L 182.749642 203.676526 
L 183.085956 216.039361 
L 183.422269 201.840164 
L 183.758582 216.510234 
L 184.431209 213.71621 
L 184.767523 217.359488 
L 185.103836 212.877863 
L 185.440149 213.801447 
L 185.776463 213.16941 
L 186.112776 217.192304 
L 186.44909 215.515402 
L 186.785403 215.90417 
L 187.121716 215.603536 
L 187.45803 215.655113 
L 187.794343 213.623567 
L 188.130657 216.711078 
L 188.46697 172.38084 
L 188.803284 214.948376 
L 189.139597 172.105517 
L 189.47591 215.592684 
L 189.812224 212.165844 
L 190.148537 216.195129 
L 190.484851 216.383724 
L 190.821164 215.72164 
L 191.493791 218.020767 
L 192.166418 214.077273 
L 192.502731 216.289006 
L 193.175358 208.693137 
L 193.511671 216.818135 
L 193.847985 216.46575 
L 194.184298 217.086447 
L 194.520612 216.708683 
L 194.856925 212.838137 
L 195.529552 216.133954 
L 195.865865 214.277595 
L 196.202179 216.732184 
L 196.538492 216.843282 
L 196.874805 216.213582 
L 197.211119 188.917057 
L 197.547432 214.713151 
L 198.220059 216.39329 
L 198.556372 207.310453 
L 198.892686 204.603396 
L 199.228999 214.553767 
L 199.565313 216.096707 
L 199.901626 213.172902 
L 200.237939 215.293095 
L 200.574253 196.796385 
L 200.910566 25.160416 
L 201.24688 214.287694 
L 201.583193 209.03286 
L 201.919507 216.118361 
L 202.25582 213.675885 
L 202.592133 216.137981 
L 202.928447 216.43356 
L 203.26476 217.250616 
L 203.601074 216.234063 
L 203.937387 215.706547 
L 204.2737 216.835502 
L 204.610014 197.442371 
L 204.946327 211.947651 
L 205.282641 218.077731 
L 205.618954 216.418172 
L 205.955267 213.394991 
L 206.291581 183.354442 
L 206.627894 203.135655 
L 206.964208 213.075218 
L 207.300521 214.433056 
L 207.636835 213.763444 
L 207.973148 214.655837 
L 208.309461 205.301326 
L 208.645775 216.467845 
L 208.982088 205.776187 
L 209.318402 206.443082 
L 209.991028 193.800546 
L 210.327342 205.177442 
L 210.663655 208.747245 
L 210.999969 213.603433 
L 211.336282 205.46644 
L 211.672595 203.506844 
L 212.008909 203.517755 
L 212.345222 216.152808 
L 212.681536 214.221878 
L 213.017849 217.202389 
L 213.354162 214.041522 
L 213.690476 212.970129 
L 214.026789 213.787792 
L 214.363103 189.217855 
L 214.699416 211.078722 
L 215.03573 215.730357 
L 215.372043 182.541963 
L 215.708356 208.165096 
L 216.04467 194.099183 
L 216.380983 205.739571 
L 216.717297 210.3283 
L 217.05361 205.33858 
L 217.389923 206.996528 
L 217.726237 211.456187 
L 218.06255 206.258072 
L 218.398864 217.03436 
L 218.735177 214.288681 
L 219.407804 216.18596 
L 219.744117 216.042797 
L 220.080431 214.666958 
L 220.416744 216.103756 
L 220.753058 216.681374 
L 221.089371 217.526117 
L 221.425684 194.599605 
L 221.761998 188.584097 
L 222.098311 213.258219 
L 222.434625 199.263999 
L 222.770938 208.631949 
L 223.107251 203.062403 
L 223.443565 216.15732 
L 223.779878 217.68755 
L 224.116192 211.191169 
L 224.452505 208.35843 
L 224.788818 211.573655 
L 225.125132 185.840085 
L 225.461445 180.691112 
L 225.797759 169.037638 
L 226.134072 187.750023 
L 226.470385 212.984723 
L 226.806699 210.01319 
L 227.143012 210.667096 
L 227.479326 196.641792 
L 228.151953 215.242925 
L 228.488266 217.352715 
L 228.824579 202.101194 
L 229.160893 215.90214 
L 229.497206 214.536667 
L 229.83352 216.816856 
L 230.169833 216.16955 
L 230.506146 197.354429 
L 230.84246 214.921456 
L 231.178773 213.217342 
L 231.515087 199.994991 
L 231.8514 181.378174 
L 232.187713 205.407548 
L 232.524027 200.956471 
L 232.86034 216.762188 
L 233.532967 206.313547 
L 233.869281 210.841378 
L 234.205594 211.63023 
L 234.541907 216.313132 
L 234.878221 213.329145 
L 235.214534 214.571472 
L 235.550848 216.817495 
L 235.887161 203.800266 
L 236.223474 200.930124 
L 236.559788 196.922242 
L 236.896101 216.854371 
L 237.232415 216.645238 
L 237.568728 217.380074 
L 238.241355 213.870791 
L 238.577668 213.638456 
L 238.913982 214.663971 
L 239.250295 204.364693 
L 239.586608 216.622312 
L 239.922922 209.026794 
L 240.259235 216.165013 
L 240.595549 215.663989 
L 240.931862 214.116636 
L 241.604489 214.474431 
L 241.940802 216.79338 
L 242.277116 215.714838 
L 242.613429 202.481814 
L 242.949743 213.213038 
L 243.286056 215.089619 
L 243.958683 181.864534 
L 244.294996 212.686072 
L 244.967623 217.048504 
L 245.303936 213.081128 
L 245.64025 215.369736 
L 245.976563 215.283972 
L 246.312877 216.682553 
L 246.64919 216.056591 
L 246.985504 214.305242 
L 247.321817 214.037335 
L 247.994444 216.982039 
L 248.330757 216.285171 
L 248.667071 218.163135 
L 249.003384 216.327743 
L 249.339697 217.54715 
L 249.676011 217.540082 
L 250.012324 216.781457 
L 250.348638 211.073457 
L 250.684951 210.97795 
L 251.021264 201.989266 
L 251.357578 180.699381 
L 252.030205 214.615429 
L 252.366518 210.087947 
L 252.702831 214.032223 
L 253.039145 208.998357 
L 253.375458 207.749072 
L 253.711772 210.573951 
L 254.048085 211.25423 
L 254.384399 214.244271 
L 254.720712 213.43876 
L 255.057025 205.156574 
L 255.393339 216.189165 
L 255.729652 198.31395 
L 256.065966 174.270168 
L 256.402279 216.044087 
L 256.738592 216.405946 
L 257.074906 216.57899 
L 257.411219 201.131204 
L 257.747533 214.454846 
L 258.083846 211.450928 
L 258.420159 214.261145 
L 258.756473 208.179686 
L 259.092786 196.112732 
L 259.4291 216.665545 
L 259.765413 216.622312 
L 260.101727 215.324577 
L 260.43804 214.607934 
L 260.774353 211.626633 
L 261.110667 216.939864 
L 261.44698 174.632943 
L 261.783294 208.725817 
L 262.119607 198.813681 
L 262.45592 211.008642 
L 262.792234 203.551151 
L 263.128547 158.876536 
L 263.464861 217.617445 
L 263.801174 216.689048 
L 264.137487 215.278771 
L 264.473801 215.564663 
L 264.810114 217.090301 
L 265.146428 214.664785 
L 265.482741 208.360857 
L 265.819054 213.444693 
L 266.155368 212.83121 
L 266.491681 209.878968 
L 267.164308 215.474925 
L 267.500622 214.697507 
L 267.836935 213.243836 
L 268.173248 213.433038 
L 268.509562 215.641853 
L 268.845875 214.640971 
L 269.182189 215.876312 
L 269.518502 215.320625 
L 269.854815 216.019701 
L 270.191129 214.118768 
L 270.527442 216.851755 
L 270.863756 214.656379 
L 271.200069 213.226943 
L 271.536382 208.88706 
L 271.872696 198.935467 
L 272.209009 212.014678 
L 272.545323 210.918572 
L 272.881636 214.25845 
L 273.21795 205.003078 
L 273.554263 205.112646 
L 273.890576 211.627532 
L 274.22689 214.906331 
L 274.563203 212.479733 
L 274.899517 216.877455 
L 275.23583 198.34729 
L 275.572143 210.650971 
L 275.908457 216.851101 
L 276.24477 214.852474 
L 276.581084 216.437168 
L 276.917397 213.596882 
L 277.25371 214.270467 
L 277.926337 210.140004 
L 278.262651 206.088282 
L 278.935277 214.632348 
L 279.271591 215.225313 
L 279.607904 213.884023 
L 279.944218 216.18596 
L 280.280531 212.70261 
L 280.953158 216.95169 
L 281.289471 217.128691 
L 281.625785 217.728297 
L 281.962098 217.549518 
L 282.298412 216.752331 
L 282.634725 217.87067 
L 282.971038 216.789605 
L 283.307352 216.466797 
L 283.643665 216.341965 
L 283.979979 216.516675 
L 284.316292 217.916261 
L 284.652605 217.901948 
L 284.988919 216.297659 
L 285.325232 217.094942 
L 285.661546 216.119249 
L 285.997859 217.314821 
L 286.334173 217.260327 
L 286.670486 215.816001 
L 287.006799 214.923497 
L 287.679426 217.194817 
L 288.01574 217.172381 
L 288.688366 215.349731 
L 289.02468 216.057888 
L 289.360993 214.023639 
L 289.697307 215.602449 
L 290.03362 215.351393 
L 290.369933 216.648124 
L 290.706247 195.403108 
L 291.04256 207.55031 
L 291.378874 199.122063 
L 291.715187 213.826885 
L 292.387814 216.06699 
L 292.724127 215.828975 
L 293.060441 216.326277 
L 293.396754 215.329526 
L 293.733068 217.349826 
L 294.069381 216.728547 
L 295.078321 217.855697 
L 295.414635 215.674009 
L 295.750948 216.904271 
L 296.087261 216.999986 
L 296.423575 216.949596 
L 296.759888 215.89 
L 297.096202 216.214046 
L 297.432515 216.866859 
L 297.768828 215.973331 
L 298.105142 216.425338 
L 298.441455 215.358717 
L 298.777769 214.780041 
L 299.114082 217.659806 
L 299.450396 216.039791 
L 299.786709 213.737482 
L 300.123022 215.50628 
L 300.459336 214.285722 
L 300.795649 216.322374 
L 301.131963 216.377205 
L 301.468276 216.945417 
L 301.804589 215.644059 
L 302.140903 215.804653 
L 302.477216 217.038811 
L 302.81353 215.592323 
L 303.149843 217.299109 
L 303.486156 215.439106 
L 303.82247 214.294606 
L 304.158783 216.54484 
L 304.495097 216.127704 
L 304.83141 214.056207 
L 305.167724 215.868294 
L 305.504037 216.851755 
L 305.84035 214.262615 
L 306.176664 216.351336 
L 306.512977 217.049252 
L 306.849291 217.194817 
L 307.185604 217.722327 
L 307.521917 216.538303 
L 307.858231 215.937273 
L 308.194544 216.518288 
L 308.530858 214.739927 
L 308.867171 217.271912 
L 309.203484 216.552497 
L 309.539798 216.399355 
L 309.876111 217.589596 
L 310.212425 216.066556 
L 310.548738 216.69854 
L 310.885051 215.805043 
L 311.221365 215.577921 
L 311.557678 216.806027 
L 311.893992 216.838091 
L 312.230305 216.285171 
L 312.566619 215.426807 
L 312.902932 213.65724 
L 313.239245 215.019611 
L 313.575559 214.547444 
L 313.911872 216.894159 
L 314.248186 215.286902 
L 314.584499 191.369501 
L 314.920812 206.897436 
L 315.257126 196.015403 
L 315.593439 214.774164 
L 315.929753 215.307813 
L 316.266066 214.824573 
L 316.602379 215.646266 
L 316.938693 217.5101 
L 317.275006 216.890803 
L 317.61132 211.321292 
L 317.947633 144.713984 
L 318.283947 192.423554 
L 318.62026 204.990126 
L 318.956573 197.957451 
L 319.6292 215.812865 
L 320.301827 210.820596 
L 320.63814 217.139873 
L 320.974454 216.204798 
L 321.310767 210.491776 
L 321.647081 217.405133 
L 321.983394 216.084425 
L 322.319707 216.416129 
L 322.656021 214.312431 
L 322.992334 215.692287 
L 323.328648 213.042169 
L 323.664961 215.016913 
L 324.001274 214.361354 
L 324.337588 214.048042 
L 324.673901 214.932257 
L 325.346528 208.978944 
L 326.019155 215.998513 
L 326.355468 215.508733 
L 326.691782 211.165874 
L 327.028095 215.332829 
L 327.364409 214.871964 
L 327.700722 217.662534 
L 328.037035 210.430287 
L 328.373349 216.59743 
L 328.709662 210.269543 
L 329.045976 217.291791 
L 329.382289 208.606316 
L 329.718602 209.803193 
L 330.054916 177.143691 
L 330.727543 215.594851 
L 331.063856 217.055255 
L 331.40017 204.507335 
L 331.736483 214.434846 
L 332.072796 207.866756 
L 332.745423 212.013407 
L 333.081737 217.198177 
L 333.41805 210.354117 
L 333.754363 216.640629 
L 334.090677 217.791174 
L 334.763304 211.680029 
L 335.099617 214.418001 
L 335.43593 215.129985 
L 335.772244 200.670067 
L 336.108557 210.513494 
L 336.444871 215.972079 
L 336.781184 216.271327 
L 337.117497 215.08136 
L 337.453811 217.221958 
L 337.790124 216.026948 
L 338.126438 213.788012 
L 338.462751 216.649859 
L 338.799065 216.025667 
L 339.135378 216.894831 
L 339.471691 216.319938 
L 339.808005 216.584558 
L 340.144318 216.195588 
L 340.144318 216.195588 
" style="fill:none;stroke:#1f77b4;stroke-linecap:square;stroke-width:1.5;"/>
   </g>
   <g id="patch_3">
    <path d="M 20.5625 228.14 
L 20.5625 10.7 
" style="fill:none;stroke:#000000;stroke-linecap:square;stroke-linejoin:miter;stroke-width:0.8;"/>
   </g>
   <g id="patch_4">
    <path d="M 355.3625 228.14 
L 355.3625 10.7 
" style="fill:none;stroke:#000000;stroke-linecap:square;stroke-linejoin:miter;stroke-width:0.8;"/>
   </g>
   <g id="patch_5">
    <path d="M 20.5625 228.14 
L 355.3625 228.14 
" style="fill:none;stroke:#000000;stroke-linecap:square;stroke-linejoin:miter;stroke-width:0.8;"/>
   </g>
   <g id="patch_6">
    <path d="M 20.5625 10.7 
L 355.3625 10.7 
" style="fill:none;stroke:#000000;stroke-linecap:square;stroke-linejoin:miter;stroke-width:0.8;"/>
   </g>
  </g>
 </g>
 <defs>
  <clipPath id="padb1ef2554">
   <rect height="217.44" width="334.8" x="20.5625" y="10.7"/>
  </clipPath>
 </defs>
</svg>
