<?xml version="1.0" encoding="utf-8" standalone="no"?>
<!DOCTYPE svg PUBLIC "-//W3C//DTD SVG 1.1//EN"
  "http://www.w3.org/Graphics/SVG/1.1/DTD/svg11.dtd">
<!-- Created with matplotlib (http://matplotlib.org/) -->
<svg height="300.690125pt" version="1.1" viewBox="0 0 402.147527 300.690125" width="402.147527pt" xmlns="http://www.w3.org/2000/svg" xmlns:xlink="http://www.w3.org/1999/xlink">
 <defs>
  <style type="text/css">
*{stroke-linecap:butt;stroke-linejoin:round;}
  </style>
 </defs>
 <g id="figure_1">
  <g id="patch_1">
   <path d="M 0 300.690125 
L 402.147527 300.690125 
L 402.147527 0 
L 0 0 
z
" style="fill:#ffffff;"/>
  </g>
  <g id="axes_1">
   <g id="patch_2">
    <path d="M 26.925 276.812 
L 384.045 276.812 
L 384.045 10.7 
L 26.925 10.7 
z
" style="fill:#ffffff;"/>
   </g>
   <g id="matplotlib.axis_1">
    <g id="xtick_1">
     <g id="line2d_1">
      <defs>
       <path d="M 0 0 
L 0 3.5 
" id="md836c22ddb" style="stroke:#000000;stroke-width:0.8;"/>
      </defs>
      <g>
       <use style="stroke:#000000;stroke-width:0.8;" x="43.157727" xlink:href="#md836c22ddb" y="276.812"/>
      </g>
     </g>
     <g id="text_1">
      <!-- 0 -->
      <defs>
       <path d="M 31.78125 66.40625 
Q 24.171875 66.40625 20.328125 58.90625 
Q 16.5 51.421875 16.5 36.375 
Q 16.5 21.390625 20.328125 13.890625 
Q 24.171875 6.390625 31.78125 6.390625 
Q 39.453125 6.390625 43.28125 13.890625 
Q 47.125 21.390625 47.125 36.375 
Q 47.125 51.421875 43.28125 58.90625 
Q 39.453125 66.40625 31.78125 66.40625 
z
M 31.78125 74.21875 
Q 44.046875 74.21875 50.515625 64.515625 
Q 56.984375 54.828125 56.984375 36.375 
Q 56.984375 17.96875 50.515625 8.265625 
Q 44.046875 -1.421875 31.78125 -1.421875 
Q 19.53125 -1.421875 13.0625 8.265625 
Q 6.59375 17.96875 6.59375 36.375 
Q 6.59375 54.828125 13.0625 64.515625 
Q 19.53125 74.21875 31.78125 74.21875 
z
" id="DejaVuSans-30"/>
      </defs>
      <g transform="translate(39.976477 291.410437)scale(0.1 -0.1)">
       <use xlink:href="#DejaVuSans-30"/>
      </g>
     </g>
    </g>
    <g id="xtick_2">
     <g id="line2d_2">
      <g>
       <use style="stroke:#000000;stroke-width:0.8;" x="85.540827" xlink:href="#md836c22ddb" y="276.812"/>
      </g>
     </g>
     <g id="text_2">
      <!-- 200 -->
      <defs>
       <path d="M 19.1875 8.296875 
L 53.609375 8.296875 
L 53.609375 0 
L 7.328125 0 
L 7.328125 8.296875 
Q 12.9375 14.109375 22.625 23.890625 
Q 32.328125 33.6875 34.8125 36.53125 
Q 39.546875 41.84375 41.421875 45.53125 
Q 43.3125 49.21875 43.3125 52.78125 
Q 43.3125 58.59375 39.234375 62.25 
Q 35.15625 65.921875 28.609375 65.921875 
Q 23.96875 65.921875 18.8125 64.3125 
Q 13.671875 62.703125 7.8125 59.421875 
L 7.8125 69.390625 
Q 13.765625 71.78125 18.9375 73 
Q 24.125 74.21875 28.421875 74.21875 
Q 39.75 74.21875 46.484375 68.546875 
Q 53.21875 62.890625 53.21875 53.421875 
Q 53.21875 48.921875 51.53125 44.890625 
Q 49.859375 40.875 45.40625 35.40625 
Q 44.1875 33.984375 37.640625 27.21875 
Q 31.109375 20.453125 19.1875 8.296875 
z
" id="DejaVuSans-32"/>
      </defs>
      <g transform="translate(75.997077 291.410437)scale(0.1 -0.1)">
       <use xlink:href="#DejaVuSans-32"/>
       <use x="63.623047" xlink:href="#DejaVuSans-30"/>
       <use x="127.246094" xlink:href="#DejaVuSans-30"/>
      </g>
     </g>
    </g>
    <g id="xtick_3">
     <g id="line2d_3">
      <g>
       <use style="stroke:#000000;stroke-width:0.8;" x="127.923927" xlink:href="#md836c22ddb" y="276.812"/>
      </g>
     </g>
     <g id="text_3">
      <!-- 400 -->
      <defs>
       <path d="M 37.796875 64.3125 
L 12.890625 25.390625 
L 37.796875 25.390625 
z
M 35.203125 72.90625 
L 47.609375 72.90625 
L 47.609375 25.390625 
L 58.015625 25.390625 
L 58.015625 17.1875 
L 47.609375 17.1875 
L 47.609375 0 
L 37.796875 0 
L 37.796875 17.1875 
L 4.890625 17.1875 
L 4.890625 26.703125 
z
" id="DejaVuSans-34"/>
      </defs>
      <g transform="translate(118.380177 291.410437)scale(0.1 -0.1)">
       <use xlink:href="#DejaVuSans-34"/>
       <use x="63.623047" xlink:href="#DejaVuSans-30"/>
       <use x="127.246094" xlink:href="#DejaVuSans-30"/>
      </g>
     </g>
    </g>
    <g id="xtick_4">
     <g id="line2d_4">
      <g>
       <use style="stroke:#000000;stroke-width:0.8;" x="170.307027" xlink:href="#md836c22ddb" y="276.812"/>
      </g>
     </g>
     <g id="text_4">
      <!-- 600 -->
      <defs>
       <path d="M 33.015625 40.375 
Q 26.375 40.375 22.484375 35.828125 
Q 18.609375 31.296875 18.609375 23.390625 
Q 18.609375 15.53125 22.484375 10.953125 
Q 26.375 6.390625 33.015625 6.390625 
Q 39.65625 6.390625 43.53125 10.953125 
Q 47.40625 15.53125 47.40625 23.390625 
Q 47.40625 31.296875 43.53125 35.828125 
Q 39.65625 40.375 33.015625 40.375 
z
M 52.59375 71.296875 
L 52.59375 62.3125 
Q 48.875 64.0625 45.09375 64.984375 
Q 41.3125 65.921875 37.59375 65.921875 
Q 27.828125 65.921875 22.671875 59.328125 
Q 17.53125 52.734375 16.796875 39.40625 
Q 19.671875 43.65625 24.015625 45.921875 
Q 28.375 48.1875 33.59375 48.1875 
Q 44.578125 48.1875 50.953125 41.515625 
Q 57.328125 34.859375 57.328125 23.390625 
Q 57.328125 12.15625 50.6875 5.359375 
Q 44.046875 -1.421875 33.015625 -1.421875 
Q 20.359375 -1.421875 13.671875 8.265625 
Q 6.984375 17.96875 6.984375 36.375 
Q 6.984375 53.65625 15.1875 63.9375 
Q 23.390625 74.21875 37.203125 74.21875 
Q 40.921875 74.21875 44.703125 73.484375 
Q 48.484375 72.75 52.59375 71.296875 
z
" id="DejaVuSans-36"/>
      </defs>
      <g transform="translate(160.763277 291.410437)scale(0.1 -0.1)">
       <use xlink:href="#DejaVuSans-36"/>
       <use x="63.623047" xlink:href="#DejaVuSans-30"/>
       <use x="127.246094" xlink:href="#DejaVuSans-30"/>
      </g>
     </g>
    </g>
    <g id="xtick_5">
     <g id="line2d_5">
      <g>
       <use style="stroke:#000000;stroke-width:0.8;" x="212.690127" xlink:href="#md836c22ddb" y="276.812"/>
      </g>
     </g>
     <g id="text_5">
      <!-- 800 -->
      <defs>
       <path d="M 31.78125 34.625 
Q 24.75 34.625 20.71875 30.859375 
Q 16.703125 27.09375 16.703125 20.515625 
Q 16.703125 13.921875 20.71875 10.15625 
Q 24.75 6.390625 31.78125 6.390625 
Q 38.8125 6.390625 42.859375 10.171875 
Q 46.921875 13.96875 46.921875 20.515625 
Q 46.921875 27.09375 42.890625 30.859375 
Q 38.875 34.625 31.78125 34.625 
z
M 21.921875 38.8125 
Q 15.578125 40.375 12.03125 44.71875 
Q 8.5 49.078125 8.5 55.328125 
Q 8.5 64.0625 14.71875 69.140625 
Q 20.953125 74.21875 31.78125 74.21875 
Q 42.671875 74.21875 48.875 69.140625 
Q 55.078125 64.0625 55.078125 55.328125 
Q 55.078125 49.078125 51.53125 44.71875 
Q 48 40.375 41.703125 38.8125 
Q 48.828125 37.15625 52.796875 32.3125 
Q 56.78125 27.484375 56.78125 20.515625 
Q 56.78125 9.90625 50.3125 4.234375 
Q 43.84375 -1.421875 31.78125 -1.421875 
Q 19.734375 -1.421875 13.25 4.234375 
Q 6.78125 9.90625 6.78125 20.515625 
Q 6.78125 27.484375 10.78125 32.3125 
Q 14.796875 37.15625 21.921875 38.8125 
z
M 18.3125 54.390625 
Q 18.3125 48.734375 21.84375 45.5625 
Q 25.390625 42.390625 31.78125 42.390625 
Q 38.140625 42.390625 41.71875 45.5625 
Q 45.3125 48.734375 45.3125 54.390625 
Q 45.3125 60.0625 41.71875 63.234375 
Q 38.140625 66.40625 31.78125 66.40625 
Q 25.390625 66.40625 21.84375 63.234375 
Q 18.3125 60.0625 18.3125 54.390625 
z
" id="DejaVuSans-38"/>
      </defs>
      <g transform="translate(203.146377 291.410437)scale(0.1 -0.1)">
       <use xlink:href="#DejaVuSans-38"/>
       <use x="63.623047" xlink:href="#DejaVuSans-30"/>
       <use x="127.246094" xlink:href="#DejaVuSans-30"/>
      </g>
     </g>
    </g>
    <g id="xtick_6">
     <g id="line2d_6">
      <g>
       <use style="stroke:#000000;stroke-width:0.8;" x="255.073227" xlink:href="#md836c22ddb" y="276.812"/>
      </g>
     </g>
     <g id="text_6">
      <!-- 1000 -->
      <defs>
       <path d="M 12.40625 8.296875 
L 28.515625 8.296875 
L 28.515625 63.921875 
L 10.984375 60.40625 
L 10.984375 69.390625 
L 28.421875 72.90625 
L 38.28125 72.90625 
L 38.28125 8.296875 
L 54.390625 8.296875 
L 54.390625 0 
L 12.40625 0 
z
" id="DejaVuSans-31"/>
      </defs>
      <g transform="translate(242.348227 291.410437)scale(0.1 -0.1)">
       <use xlink:href="#DejaVuSans-31"/>
       <use x="63.623047" xlink:href="#DejaVuSans-30"/>
       <use x="127.246094" xlink:href="#DejaVuSans-30"/>
       <use x="190.869141" xlink:href="#DejaVuSans-30"/>
      </g>
     </g>
    </g>
    <g id="xtick_7">
     <g id="line2d_7">
      <g>
       <use style="stroke:#000000;stroke-width:0.8;" x="297.456327" xlink:href="#md836c22ddb" y="276.812"/>
      </g>
     </g>
     <g id="text_7">
      <!-- 1200 -->
      <g transform="translate(284.731327 291.410437)scale(0.1 -0.1)">
       <use xlink:href="#DejaVuSans-31"/>
       <use x="63.623047" xlink:href="#DejaVuSans-32"/>
       <use x="127.246094" xlink:href="#DejaVuSans-30"/>
       <use x="190.869141" xlink:href="#DejaVuSans-30"/>
      </g>
     </g>
    </g>
    <g id="xtick_8">
     <g id="line2d_8">
      <g>
       <use style="stroke:#000000;stroke-width:0.8;" x="339.839427" xlink:href="#md836c22ddb" y="276.812"/>
      </g>
     </g>
     <g id="text_8">
      <!-- 1400 -->
      <g transform="translate(327.114427 291.410437)scale(0.1 -0.1)">
       <use xlink:href="#DejaVuSans-31"/>
       <use x="63.623047" xlink:href="#DejaVuSans-34"/>
       <use x="127.246094" xlink:href="#DejaVuSans-30"/>
       <use x="190.869141" xlink:href="#DejaVuSans-30"/>
      </g>
     </g>
    </g>
    <g id="xtick_9">
     <g id="line2d_9">
      <g>
       <use style="stroke:#000000;stroke-width:0.8;" x="382.222527" xlink:href="#md836c22ddb" y="276.812"/>
      </g>
     </g>
     <g id="text_9">
      <!-- 1600 -->
      <g transform="translate(369.497527 291.410437)scale(0.1 -0.1)">
       <use xlink:href="#DejaVuSans-31"/>
       <use x="63.623047" xlink:href="#DejaVuSans-36"/>
       <use x="127.246094" xlink:href="#DejaVuSans-30"/>
       <use x="190.869141" xlink:href="#DejaVuSans-30"/>
      </g>
     </g>
    </g>
   </g>
   <g id="matplotlib.axis_2">
    <g id="ytick_1">
     <g id="line2d_10">
      <defs>
       <path d="M 0 0 
L -3.5 0 
" id="me25cec86d8" style="stroke:#000000;stroke-width:0.8;"/>
      </defs>
      <g>
       <use style="stroke:#000000;stroke-width:0.8;" x="26.925" xlink:href="#me25cec86d8" y="269.650932"/>
      </g>
     </g>
     <g id="text_10">
      <!-- 30 -->
      <defs>
       <path d="M 40.578125 39.3125 
Q 47.65625 37.796875 51.625 33 
Q 55.609375 28.21875 55.609375 21.1875 
Q 55.609375 10.40625 48.1875 4.484375 
Q 40.765625 -1.421875 27.09375 -1.421875 
Q 22.515625 -1.421875 17.65625 -0.515625 
Q 12.796875 0.390625 7.625 2.203125 
L 7.625 11.71875 
Q 11.71875 9.328125 16.59375 8.109375 
Q 21.484375 6.890625 26.8125 6.890625 
Q 36.078125 6.890625 40.9375 10.546875 
Q 45.796875 14.203125 45.796875 21.1875 
Q 45.796875 27.640625 41.28125 31.265625 
Q 36.765625 34.90625 28.71875 34.90625 
L 20.21875 34.90625 
L 20.21875 43.015625 
L 29.109375 43.015625 
Q 36.375 43.015625 40.234375 45.921875 
Q 44.09375 48.828125 44.09375 54.296875 
Q 44.09375 59.90625 40.109375 62.90625 
Q 36.140625 65.921875 28.71875 65.921875 
Q 24.65625 65.921875 20.015625 65.03125 
Q 15.375 64.15625 9.8125 62.3125 
L 9.8125 71.09375 
Q 15.4375 72.65625 20.34375 73.4375 
Q 25.25 74.21875 29.59375 74.21875 
Q 40.828125 74.21875 47.359375 69.109375 
Q 53.90625 64.015625 53.90625 55.328125 
Q 53.90625 49.265625 50.4375 45.09375 
Q 46.96875 40.921875 40.578125 39.3125 
z
" id="DejaVuSans-33"/>
      </defs>
      <g transform="translate(7.2 273.450151)scale(0.1 -0.1)">
       <use xlink:href="#DejaVuSans-33"/>
       <use x="63.623047" xlink:href="#DejaVuSans-30"/>
      </g>
     </g>
    </g>
    <g id="ytick_2">
     <g id="line2d_11">
      <g>
       <use style="stroke:#000000;stroke-width:0.8;" x="26.925" xlink:href="#me25cec86d8" y="227.105119"/>
      </g>
     </g>
     <g id="text_11">
      <!-- 40 -->
      <g transform="translate(7.2 230.904337)scale(0.1 -0.1)">
       <use xlink:href="#DejaVuSans-34"/>
       <use x="63.623047" xlink:href="#DejaVuSans-30"/>
      </g>
     </g>
    </g>
    <g id="ytick_3">
     <g id="line2d_12">
      <g>
       <use style="stroke:#000000;stroke-width:0.8;" x="26.925" xlink:href="#me25cec86d8" y="184.559305"/>
      </g>
     </g>
     <g id="text_12">
      <!-- 50 -->
      <defs>
       <path d="M 10.796875 72.90625 
L 49.515625 72.90625 
L 49.515625 64.59375 
L 19.828125 64.59375 
L 19.828125 46.734375 
Q 21.96875 47.46875 24.109375 47.828125 
Q 26.265625 48.1875 28.421875 48.1875 
Q 40.625 48.1875 47.75 41.5 
Q 54.890625 34.8125 54.890625 23.390625 
Q 54.890625 11.625 47.5625 5.09375 
Q 40.234375 -1.421875 26.90625 -1.421875 
Q 22.3125 -1.421875 17.546875 -0.640625 
Q 12.796875 0.140625 7.71875 1.703125 
L 7.71875 11.625 
Q 12.109375 9.234375 16.796875 8.0625 
Q 21.484375 6.890625 26.703125 6.890625 
Q 35.15625 6.890625 40.078125 11.328125 
Q 45.015625 15.765625 45.015625 23.390625 
Q 45.015625 31 40.078125 35.4375 
Q 35.15625 39.890625 26.703125 39.890625 
Q 22.75 39.890625 18.8125 39.015625 
Q 14.890625 38.140625 10.796875 36.28125 
z
" id="DejaVuSans-35"/>
      </defs>
      <g transform="translate(7.2 188.358524)scale(0.1 -0.1)">
       <use xlink:href="#DejaVuSans-35"/>
       <use x="63.623047" xlink:href="#DejaVuSans-30"/>
      </g>
     </g>
    </g>
    <g id="ytick_4">
     <g id="line2d_13">
      <g>
       <use style="stroke:#000000;stroke-width:0.8;" x="26.925" xlink:href="#me25cec86d8" y="142.013491"/>
      </g>
     </g>
     <g id="text_13">
      <!-- 60 -->
      <g transform="translate(7.2 145.81271)scale(0.1 -0.1)">
       <use xlink:href="#DejaVuSans-36"/>
       <use x="63.623047" xlink:href="#DejaVuSans-30"/>
      </g>
     </g>
    </g>
    <g id="ytick_5">
     <g id="line2d_14">
      <g>
       <use style="stroke:#000000;stroke-width:0.8;" x="26.925" xlink:href="#me25cec86d8" y="99.467678"/>
      </g>
     </g>
     <g id="text_14">
      <!-- 70 -->
      <defs>
       <path d="M 8.203125 72.90625 
L 55.078125 72.90625 
L 55.078125 68.703125 
L 28.609375 0 
L 18.3125 0 
L 43.21875 64.59375 
L 8.203125 64.59375 
z
" id="DejaVuSans-37"/>
      </defs>
      <g transform="translate(7.2 103.266896)scale(0.1 -0.1)">
       <use xlink:href="#DejaVuSans-37"/>
       <use x="63.623047" xlink:href="#DejaVuSans-30"/>
      </g>
     </g>
    </g>
    <g id="ytick_6">
     <g id="line2d_15">
      <g>
       <use style="stroke:#000000;stroke-width:0.8;" x="26.925" xlink:href="#me25cec86d8" y="56.921864"/>
      </g>
     </g>
     <g id="text_15">
      <!-- 80 -->
      <g transform="translate(7.2 60.721083)scale(0.1 -0.1)">
       <use xlink:href="#DejaVuSans-38"/>
       <use x="63.623047" xlink:href="#DejaVuSans-30"/>
      </g>
     </g>
    </g>
    <g id="ytick_7">
     <g id="line2d_16">
      <g>
       <use style="stroke:#000000;stroke-width:0.8;" x="26.925" xlink:href="#me25cec86d8" y="14.37605"/>
      </g>
     </g>
     <g id="text_16">
      <!-- 90 -->
      <defs>
       <path d="M 10.984375 1.515625 
L 10.984375 10.5 
Q 14.703125 8.734375 18.5 7.8125 
Q 22.3125 6.890625 25.984375 6.890625 
Q 35.75 6.890625 40.890625 13.453125 
Q 46.046875 20.015625 46.78125 33.40625 
Q 43.953125 29.203125 39.59375 26.953125 
Q 35.25 24.703125 29.984375 24.703125 
Q 19.046875 24.703125 12.671875 31.3125 
Q 6.296875 37.9375 6.296875 49.421875 
Q 6.296875 60.640625 12.9375 67.421875 
Q 19.578125 74.21875 30.609375 74.21875 
Q 43.265625 74.21875 49.921875 64.515625 
Q 56.59375 54.828125 56.59375 36.375 
Q 56.59375 19.140625 48.40625 8.859375 
Q 40.234375 -1.421875 26.421875 -1.421875 
Q 22.703125 -1.421875 18.890625 -0.6875 
Q 15.09375 0.046875 10.984375 1.515625 
z
M 30.609375 32.421875 
Q 37.25 32.421875 41.125 36.953125 
Q 45.015625 41.5 45.015625 49.421875 
Q 45.015625 57.28125 41.125 61.84375 
Q 37.25 66.40625 30.609375 66.40625 
Q 23.96875 66.40625 20.09375 61.84375 
Q 16.21875 57.28125 16.21875 49.421875 
Q 16.21875 41.5 20.09375 36.953125 
Q 23.96875 32.421875 30.609375 32.421875 
z
" id="DejaVuSans-39"/>
      </defs>
      <g transform="translate(7.2 18.175269)scale(0.1 -0.1)">
       <use xlink:href="#DejaVuSans-39"/>
       <use x="63.623047" xlink:href="#DejaVuSans-30"/>
      </g>
     </g>
    </g>
   </g>
   <g id="line2d_17">
    <path clip-path="url(#p0d333310cb)" d="M 43.157727 139.776161 
L 43.369643 190.639629 
L 43.581558 133.393527 
L 43.793474 204.240522 
L 44.005389 129.953352 
L 44.217305 133.735679 
L 44.42922 141.059412 
L 44.641136 127.200189 
L 44.853051 75.827222 
L 45.064967 254.10922 
L 45.276882 253.997376 
L 45.488798 60.024298 
L 45.700713 244.47485 
L 45.912629 69.127734 
L 46.124544 66.652648 
L 46.33646 250.362946 
L 46.548375 56.946861 
L 46.760291 247.599042 
L 46.972206 57.775713 
L 47.184122 56.660038 
L 47.396037 247.636535 
L 47.607953 55.460623 
L 47.819868 247.251175 
L 48.031784 247.714573 
L 48.243699 249.80099 
L 48.455615 56.734714 
L 48.66753 248.545264 
L 48.879446 56.655523 
L 49.091361 250.384511 
L 49.303277 249.486517 
L 49.515192 53.43475 
L 49.727108 51.635906 
L 49.939023 48.340584 
L 50.150939 243.530721 
L 50.362854 245.143208 
L 50.57477 251.102788 
L 50.786685 61.454185 
L 50.998601 252.579433 
L 51.210516 72.473725 
L 51.634347 66.087318 
L 51.846263 255.973491 
L 52.058178 65.679575 
L 52.270094 64.43977 
L 52.482009 255.010945 
L 52.693925 65.77375 
L 52.90584 252.894998 
L 53.117756 62.76543 
L 53.329671 255.312156 
L 53.541587 255.057394 
L 53.753502 255.344673 
L 53.965418 254.947983 
L 54.177333 256.111898 
L 54.389249 254.089629 
L 54.601164 253.747472 
L 54.81308 255.641477 
L 55.024995 62.120241 
L 55.236911 61.595428 
L 55.448826 61.595428 
L 55.660742 252.579434 
L 55.872657 64.981598 
L 56.084573 63.80952 
L 56.296488 254.150952 
L 56.508404 252.016998 
L 56.720319 64.367714 
L 56.932235 63.503239 
L 57.14415 253.306148 
L 57.356066 63.360919 
L 57.991812 65.363934 
L 58.203728 64.125583 
L 58.415643 58.561434 
L 58.627559 252.438776 
L 58.839474 63.588127 
L 59.05139 62.90372 
L 59.263305 252.498775 
L 59.475221 61.997667 
L 59.687136 253.339467 
L 59.899052 252.616966 
L 60.110967 61.519673 
L 60.322883 252.097392 
L 60.534798 63.309958 
L 60.746714 256.307568 
L 60.958629 255.241415 
L 61.170545 64.907526 
L 61.38246 252.320732 
L 61.594376 252.489398 
L 61.806291 251.271909 
L 62.018207 251.787909 
L 62.230122 253.015397 
L 62.442038 61.806067 
L 62.653953 253.804861 
L 62.865869 63.634239 
L 63.077784 63.90886 
L 63.501615 67.732108 
L 63.925446 71.539384 
L 64.137362 258.825441 
L 64.349277 72.451709 
L 64.561193 261.606578 
L 64.773108 75.526674 
L 65.196939 72.72181 
L 65.408855 74.636788 
L 65.62077 250.413471 
L 65.832686 241.677087 
L 66.044601 84.037031 
L 66.256517 243.203788 
L 66.468432 103.628242 
L 66.680348 103.900506 
L 66.892263 245.895207 
L 67.104179 106.40286 
L 67.316094 104.699046 
L 67.739925 106.253544 
L 67.951841 245.354538 
L 68.163756 104.406873 
L 68.375672 245.322969 
L 68.587587 104.859317 
L 68.799503 246.978161 
L 69.011418 103.869973 
L 69.223334 102.508199 
L 69.435249 102.719822 
L 69.647165 244.063183 
L 69.85908 243.940959 
L 70.070996 102.735498 
L 70.282911 104.39853 
L 70.494827 98.680102 
L 70.706742 106.907026 
L 70.918658 249.985206 
L 71.130573 104.270626 
L 71.342489 104.589563 
L 71.554404 105.182926 
L 71.76632 248.155131 
L 71.978235 99.385939 
L 72.190151 97.987111 
L 72.402066 98.423185 
L 72.613982 97.72807 
L 73.037813 99.132969 
L 73.249728 96.690231 
L 73.461644 242.131426 
L 73.673559 243.867202 
L 73.885475 100.090099 
L 74.09739 99.406291 
L 74.521221 102.719822 
L 74.945052 102.335397 
L 75.156968 245.50473 
L 75.368883 245.547669 
L 75.580799 92.470852 
L 75.792714 241.422553 
L 76.00463 247.777517 
L 76.216545 248.58482 
L 76.428461 109.334924 
L 76.640376 109.364786 
L 76.852292 244.600464 
L 77.064207 246.243536 
L 77.276123 105.314641 
L 77.488038 107.611365 
L 77.699954 106.785508 
L 77.911869 249.985206 
L 78.123785 250.549719 
L 78.547616 248.348246 
L 78.759531 250.152425 
L 79.183362 250.470174 
L 79.395278 249.22221 
L 79.607193 102.37437 
L 79.819109 249.324937 
L 80.031024 250.328457 
L 80.24294 97.735019 
L 80.454855 250.500383 
L 80.666771 250.356789 
L 80.878686 92.217374 
L 81.090602 77.951501 
L 81.302517 73.500748 
L 81.514433 256.759609 
L 81.726348 256.489365 
L 81.938264 254.267975 
L 82.150179 56.341077 
L 82.362095 221.526782 
L 82.57401 215.585367 
L 82.785926 22.796 
L 82.997841 24.816114 
L 83.209757 25.399264 
L 83.421672 212.791547 
L 83.633588 211.742764 
L 83.845503 25.547973 
L 84.057419 24.177106 
L 84.48125 28.11891 
L 84.693165 27.374358 
L 84.905081 212.309468 
L 85.116996 211.853529 
L 85.328912 22.892202 
L 85.540827 208.016873 
L 85.752743 238.379902 
L 85.964658 28.48193 
L 86.176574 29.336936 
L 86.388489 214.444793 
L 86.600405 215.12421 
L 86.81232 28.262604 
L 87.024236 215.488263 
L 87.448067 205.965567 
L 87.659982 216.187581 
L 87.871898 214.211797 
L 88.083813 217.152694 
L 88.295729 217.715803 
L 88.507644 217.413649 
L 88.71956 30.914566 
L 88.931475 217.792935 
L 89.143391 32.635256 
L 89.355306 219.661758 
L 89.567222 32.923763 
L 89.779137 33.112611 
L 89.991053 37.019526 
L 90.202968 229.773991 
L 90.414884 235.304998 
L 90.626799 49.422536 
L 90.838715 48.931679 
L 91.262546 53.157954 
L 91.474461 225.846165 
L 91.686377 58.806811 
L 91.898292 226.029969 
L 92.110208 66.392427 
L 92.322123 222.37902 
L 92.534039 82.745875 
L 92.745954 82.752775 
L 92.95787 261.668625 
L 93.169785 85.11659 
L 93.381701 259.614694 
L 93.593616 258.925489 
L 93.805532 257.703735 
L 94.017447 258.084218 
L 94.229363 259.457009 
L 94.653194 258.547261 
L 94.865109 257.993873 
L 95.077025 258.703261 
L 95.28894 258.439017 
L 95.500856 258.527695 
L 95.712771 80.34719 
L 95.924687 257.879563 
L 96.136602 258.191539 
L 96.348518 259.388734 
L 96.560433 79.116219 
L 96.772349 80.803275 
L 96.984264 257.725781 
L 97.19618 257.141404 
L 97.408095 257.141404 
L 97.620011 78.651756 
L 97.831926 257.17757 
L 98.043842 257.454969 
L 98.255757 80.463151 
L 98.467673 258.922872 
L 98.679588 259.369702 
L 98.891504 259.191976 
L 99.103419 80.124813 
L 99.315335 81.236259 
L 99.52725 78.149108 
L 99.739166 78.508914 
L 99.951081 77.265211 
L 100.162997 79.019517 
L 100.374912 257.741347 
L 100.586828 78.196471 
L 100.798743 258.108277 
L 101.010659 77.763648 
L 101.222574 257.652518 
L 101.43449 258.095272 
L 101.646405 257.95749 
L 101.858321 68.273584 
L 102.070236 67.590155 
L 102.282152 253.583629 
L 102.494067 59.566516 
L 102.705983 251.257032 
L 102.917898 68.98958 
L 103.129814 69.271182 
L 103.341729 248.105372 
L 103.553645 248.56656 
L 103.76556 58.307156 
L 103.977476 250.159805 
L 104.189391 59.369069 
L 104.401307 250.551569 
L 104.613222 251.296085 
L 104.825138 59.554994 
L 105.037053 250.950562 
L 105.248969 251.853237 
L 105.460884 60.406649 
L 105.6728 59.404693 
L 105.884715 246.946854 
L 106.096631 247.490249 
L 106.308546 248.372553 
L 106.520462 56.577152 
L 106.732377 248.806531 
L 107.156208 246.212986 
L 107.368124 46.757077 
L 107.580039 58.394209 
L 107.791955 252.160368 
L 108.00387 252.320103 
L 108.215786 63.195357 
L 108.427701 253.228223 
L 108.639617 68.038199 
L 108.851532 257.032306 
L 109.063448 257.464678 
L 109.275363 257.581888 
L 109.487279 258.609251 
L 109.699194 259.029532 
L 109.91111 78.346554 
L 110.123025 260.710347 
L 110.334941 260.736851 
L 110.546856 85.047316 
L 110.758772 262.218983 
L 110.970687 86.789911 
L 111.182603 261.234203 
L 111.394518 86.893408 
L 111.606434 259.962244 
L 111.818349 86.796033 
L 112.030265 83.515664 
L 112.24218 82.494488 
L 112.454096 84.592266 
L 112.666011 85.053983 
L 112.877927 260.74282 
L 113.089842 85.910273 
L 113.513673 83.286422 
L 113.725589 83.793852 
L 113.937504 258.38688 
L 114.361335 263.853821 
L 114.573251 87.535272 
L 114.785166 263.624752 
L 114.997082 85.245065 
L 115.208997 85.369231 
L 115.420913 262.713066 
L 115.632828 87.772911 
L 115.844744 263.888417 
L 116.056659 264.154643 
L 116.268575 263.699261 
L 116.48049 263.699261 
L 116.692406 86.534962 
L 116.904321 263.929133 
L 117.116237 264.716 
L 117.328152 84.691271 
L 117.751983 78.674192 
L 117.963899 78.754313 
L 118.175814 77.723423 
L 118.38773 261.919118 
L 118.599645 72.869912 
L 118.811561 71.341894 
L 119.023476 71.567171 
L 119.235392 72.167641 
L 119.447307 68.858942 
L 119.659223 255.174529 
L 119.871138 60.312361 
L 120.083054 59.23946 
L 120.294969 53.525307 
L 120.506885 242.359673 
L 120.7188 243.248433 
L 121.142631 237.150995 
L 121.354547 236.775023 
L 121.566462 228.572355 
L 121.778378 225.170703 
L 121.990293 223.897609 
L 122.202209 225.471752 
L 122.414124 217.322599 
L 122.62604 193.817051 
L 122.837955 191.668809 
L 123.049871 238.925901 
L 123.261786 38.421304 
L 123.473702 42.871272 
L 123.685617 239.559846 
L 123.897533 242.224199 
L 124.109448 48.287421 
L 124.321364 242.923856 
L 124.533279 48.47756 
L 124.745195 244.092129 
L 124.95711 244.932177 
L 125.169026 245.261042 
L 125.380941 245.82946 
L 125.592857 51.890511 
L 125.804772 52.054324 
L 126.016688 50.689848 
L 126.228603 51.651357 
L 126.440519 249.398975 
L 126.652434 57.005367 
L 126.86435 252.839224 
L 127.076265 62.007385 
L 127.288181 254.513088 
L 127.712012 256.471371 
L 127.923927 68.887327 
L 128.135843 68.900281 
L 128.347758 68.144044 
L 128.559674 73.003858 
L 128.771589 255.123587 
L 128.983505 255.686214 
L 129.19542 74.91124 
L 129.407336 258.015967 
L 129.619251 73.628524 
L 129.831167 71.312462 
L 130.043082 67.720025 
L 130.254998 252.939513 
L 130.466913 253.070615 
L 130.678829 252.603827 
L 130.890744 67.16493 
L 131.10266 252.791615 
L 131.314575 253.211261 
L 131.526491 252.96773 
L 131.738406 67.139987 
L 131.950322 66.357959 
L 132.162237 252.64637 
L 132.374153 252.364441 
L 132.586068 245.52083 
L 132.797984 246.983582 
L 133.009899 254.275571 
L 133.221815 256.55945 
L 133.43373 69.776509 
L 133.645646 252.864918 
L 133.857561 252.324476 
L 134.069477 252.498775 
L 134.281392 251.006234 
L 134.493308 61.33966 
L 134.705223 60.044962 
L 134.917139 245.430206 
L 135.129054 243.48305 
L 135.552885 245.111086 
L 135.764801 53.706231 
L 135.976716 53.923624 
L 136.188632 244.096264 
L 136.400547 244.588606 
L 136.612463 55.376431 
L 136.824378 245.127148 
L 137.036294 245.919122 
L 137.248209 57.040481 
L 137.460125 248.402947 
L 137.67204 251.633726 
L 137.883956 76.458802 
L 138.095871 78.404165 
L 138.307787 94.251646 
L 138.519702 263.84161 
L 138.731618 111.3384 
L 138.943533 243.083421 
L 139.367364 252.623848 
L 139.57928 247.475145 
L 139.791195 59.04193 
L 140.003111 247.549472 
L 140.215026 248.100521 
L 140.426942 58.993233 
L 140.638857 60.530523 
L 140.850773 248.28081 
L 141.062688 247.171571 
L 141.274604 58.158471 
L 141.486519 57.550794 
L 141.698435 57.340666 
L 141.91035 247.243329 
L 142.122266 56.738694 
L 142.334181 248.66701 
L 142.546097 57.825833 
L 142.758012 247.938018 
L 142.969928 57.664565 
L 143.181843 248.899212 
L 143.393759 58.701742 
L 143.605674 57.380338 
L 143.81759 56.885429 
L 144.029505 247.149866 
L 144.241421 246.733292 
L 144.453336 55.455855 
L 144.665252 246.644347 
L 144.877167 57.530541 
L 145.089083 248.505109 
L 145.300998 57.480464 
L 145.512914 248.461314 
L 145.724829 58.024256 
L 145.936745 246.855978 
L 146.14866 55.843706 
L 146.360576 246.350841 
L 146.572491 247.301858 
L 146.784407 59.195548 
L 146.996322 61.326994 
L 147.208238 248.579951 
L 147.420153 248.559254 
L 147.632069 60.645849 
L 147.843984 59.869218 
L 148.0559 65.676847 
L 148.267815 251.520678 
L 148.479731 59.204387 
L 148.691646 59.486937 
L 148.903562 59.082864 
L 149.115477 57.047391 
L 149.327393 247.456418 
L 149.539308 54.875182 
L 149.751224 248.435168 
L 149.963139 248.693198 
L 150.175055 248.651174 
L 150.38697 54.7301 
L 150.598886 55.213148 
L 150.810801 56.715044 
L 151.022717 55.559398 
L 151.234632 59.36639 
L 151.446548 252.015131 
L 151.658463 67.371718 
L 151.870379 254.154113 
L 152.082294 254.288862 
L 152.29421 253.6712 
L 152.506125 67.939254 
L 152.718041 253.095088 
L 152.929956 254.252156 
L 153.141872 70.425191 
L 153.353787 255.748221 
L 153.565703 73.207373 
L 153.777618 255.275823 
L 153.989534 254.721167 
L 154.201449 73.677732 
L 154.413365 69.339347 
L 154.62528 68.763055 
L 154.837196 69.524304 
L 155.049111 63.703689 
L 155.261027 245.320584 
L 155.472942 73.941029 
L 155.684858 77.394207 
L 155.896773 249.225882 
L 156.108689 73.624329 
L 156.320604 75.273609 
L 156.53252 255.970931 
L 156.744435 72.563456 
L 156.956351 252.293888 
L 157.168266 68.092082 
L 157.380182 67.941726 
L 157.592097 64.503677 
L 157.804013 70.098888 
L 158.015928 254.179409 
L 158.227844 254.290128 
L 158.439759 253.968962 
L 158.651675 72.615864 
L 158.86359 72.621718 
L 159.075506 253.30992 
L 159.499337 250.612641 
L 159.711252 252.154132 
L 159.923168 251.331426 
L 160.135083 252.026343 
L 160.346999 253.128364 
L 160.558914 73.93991 
L 160.77083 253.190529 
L 160.982745 76.015634 
L 161.194661 253.228851 
L 161.406576 244.601056 
L 161.618492 63.756864 
L 161.830407 257.446555 
L 162.254238 250.637329 
L 162.466154 69.760751 
L 162.678069 69.588923 
L 163.1019 64.795895 
L 163.313816 246.689411 
L 163.525731 247.29341 
L 163.737647 58.268437 
L 163.949562 55.431503 
L 164.161478 50.993153 
L 164.373393 43.895234 
L 164.585309 44.353218 
L 164.797224 42.722171 
L 165.00914 42.697156 
L 165.221055 237.395341 
L 165.432971 236.464632 
L 165.644886 43.033727 
L 165.856802 239.833792 
L 166.068717 241.456236 
L 166.280633 48.198478 
L 166.492548 46.994946 
L 166.704464 241.695122 
L 166.916379 239.367732 
L 167.128295 239.090011 
L 167.552126 236.052647 
L 167.764041 236.759799 
L 167.975957 42.991827 
L 168.187872 237.292353 
L 168.399788 241.357528 
L 168.611703 47.484673 
L 168.823619 47.341345 
L 169.035534 49.14713 
L 169.459365 38.507067 
L 169.671281 231.233747 
L 170.095112 230.312993 
L 170.307027 231.044724 
L 170.518943 33.890833 
L 170.730858 229.204404 
L 170.942774 34.209017 
L 171.154689 34.394776 
L 171.366605 34.216997 
L 171.57852 230.637448 
L 171.790436 230.637448 
L 172.002351 34.027094 
L 172.214267 33.511697 
L 172.426182 35.81868 
L 172.638098 232.577818 
L 173.061929 233.678833 
L 173.273844 33.652562 
L 173.48576 37.476287 
L 173.697675 233.87478 
L 173.909591 234.067083 
L 174.121506 38.507807 
L 174.333422 39.585343 
L 174.545337 38.026823 
L 174.757253 230.386182 
L 174.969168 36.776678 
L 175.181084 234.291813 
L 175.392999 233.138155 
L 175.604915 37.386984 
L 176.028746 38.982642 
L 176.240661 235.636116 
L 176.452577 236.06612 
L 176.664492 235.085004 
L 176.876408 234.884811 
L 177.088323 235.288795 
L 177.300239 41.95288 
L 177.72407 43.176059 
L 177.935985 239.802183 
L 178.147901 38.389784 
L 178.359816 42.645583 
L 178.571732 41.781247 
L 178.783647 42.544808 
L 178.995563 40.943872 
L 179.207478 234.907104 
L 179.419394 227.417585 
L 179.631309 229.226485 
L 179.843225 229.864245 
L 180.05514 35.486319 
L 180.267056 236.248672 
L 180.478971 236.623979 
L 180.902802 238.176698 
L 181.114718 236.991689 
L 181.326633 237.260113 
L 181.538549 43.248912 
L 181.96238 41.020077 
L 182.174295 38.582737 
L 182.386211 231.606431 
L 182.598126 226.498857 
L 182.810042 30.484483 
L 183.021957 222.174745 
L 183.233873 217.934176 
L 183.445788 220.514229 
L 183.657704 228.569678 
L 183.869619 39.2778 
L 184.081535 232.243516 
L 184.29345 226.645182 
L 184.505366 34.747858 
L 184.717281 225.246964 
L 184.929197 32.461039 
L 185.141112 223.500305 
L 185.353028 31.668039 
L 185.564943 32.003137 
L 185.776859 226.369065 
L 185.988774 34.356373 
L 186.20069 227.418649 
L 186.412605 225.887345 
L 186.624521 31.979601 
L 186.836436 31.55074 
L 187.048352 33.40972 
L 187.260267 226.119844 
L 187.472183 32.067565 
L 187.684098 223.610755 
L 187.896014 33.617963 
L 188.107929 224.361229 
L 188.319845 221.917025 
L 188.53176 223.53625 
L 188.743676 31.882723 
L 188.955591 224.50941 
L 189.167507 32.43253 
L 189.379422 225.299586 
L 189.591338 32.973694 
L 189.803253 224.526174 
L 190.015169 225.089744 
L 190.227084 33.916732 
L 190.439 226.194416 
L 190.650915 224.70124 
L 190.862831 224.786732 
L 191.074746 225.811853 
L 191.286662 224.41724 
L 191.498577 225.954948 
L 191.922408 224.508356 
L 192.134324 225.341164 
L 192.346239 224.279075 
L 192.558155 221.473236 
L 192.77007 28.340605 
L 192.981986 210.020567 
L 193.193901 208.464504 
L 193.405817 41.757821 
L 193.617732 44.70266 
L 193.829648 53.697012 
L 194.041563 56.753584 
L 194.253479 259.813375 
L 194.465394 243.926206 
L 194.67731 240.412545 
L 194.889225 239.628718 
L 195.101141 46.647364 
L 195.313056 240.776438 
L 195.524972 242.189768 
L 195.736887 48.992736 
L 195.948803 248.397476 
L 196.160718 254.68308 
L 196.372634 254.386362 
L 196.584549 254.463649 
L 196.796465 58.541925 
L 197.00838 254.340771 
L 197.220296 252.506896 
L 197.432211 63.400223 
L 197.644127 256.396834 
L 197.856042 256.412894 
L 198.067958 66.251043 
L 198.279873 73.770604 
L 198.491789 74.47217 
L 198.703704 259.381511 
L 198.91562 74.333978 
L 199.127535 79.165441 
L 199.339451 262.949335 
L 199.551366 80.033795 
L 199.763282 263.650489 
L 199.975197 79.475695 
L 200.187113 67.744741 
L 200.399028 254.551131 
L 200.610944 59.367997 
L 200.822859 248.832744 
L 201.034775 232.92381 
L 201.24669 232.634973 
L 201.458606 238.054445 
L 201.670521 44.618222 
L 201.882437 249.261955 
L 202.094352 46.163979 
L 202.306268 45.577536 
L 202.518183 48.172815 
L 202.730099 47.091868 
L 202.942014 242.588844 
L 203.15393 243.128032 
L 203.365845 245.514867 
L 203.577761 244.377156 
L 203.789676 49.185081 
L 204.001592 243.37187 
L 204.213507 46.795299 
L 204.425423 244.831813 
L 204.637338 245.368238 
L 204.849254 245.027255 
L 205.061169 244.181956 
L 205.273085 244.448792 
L 205.485 42.126124 
L 205.696915 236.077912 
L 205.908831 235.516898 
L 206.120746 237.302533 
L 206.332662 36.141302 
L 206.544577 42.526435 
L 206.756493 40.008395 
L 206.968408 237.354023 
L 207.180324 41.600536 
L 207.392239 238.040237 
L 207.604155 237.613983 
L 207.81607 237.998183 
L 208.027986 39.110719 
L 208.239901 40.477862 
L 208.451817 236.99395 
L 208.663732 41.467727 
L 208.875648 237.269728 
L 209.087563 235.808648 
L 209.511394 221.792694 
L 209.72331 31.015864 
L 209.935225 31.416127 
L 210.147141 225.601384 
L 210.359056 33.27394 
L 210.570972 225.842997 
L 210.994803 227.117351 
L 211.206718 224.93371 
L 211.418634 34.923401 
L 211.630549 32.879551 
L 211.842465 28.814847 
L 212.05438 215.718911 
L 212.266296 215.589353 
L 212.478211 217.631644 
L 212.690127 217.356297 
L 212.902042 39.383727 
L 213.113958 219.678581 
L 213.325873 219.796844 
L 213.537789 220.335634 
L 213.749704 37.092389 
L 213.96162 218.737832 
L 214.173535 38.143723 
L 214.385451 218.544806 
L 214.597366 220.315687 
L 214.809282 219.863656 
L 215.233113 216.355077 
L 215.445028 208.7408 
L 215.656944 208.7408 
L 215.868859 36.97029 
L 216.080775 36.339854 
L 216.29269 211.439123 
L 216.504606 39.427747 
L 216.716521 208.253247 
L 216.928437 208.956455 
L 217.140352 42.339477 
L 217.352268 65.818529 
L 217.564183 212.206749 
L 217.776099 42.715275 
L 217.988014 44.665696 
L 218.19993 261.14642 
L 218.411845 74.388066 
L 218.623761 244.873375 
L 218.835676 44.232451 
L 219.047592 36.365183 
L 219.471423 33.624687 
L 219.683338 222.120994 
L 219.895254 35.119523 
L 220.107169 35.493557 
L 220.319085 219.190052 
L 220.531 213.322617 
L 220.742916 232.029238 
L 220.954831 233.823834 
L 221.166747 46.186409 
L 221.378662 237.264632 
L 221.590578 45.925357 
L 221.802493 237.027832 
L 222.014409 236.661163 
L 222.226324 31.253652 
L 222.43824 233.122166 
L 222.650155 238.000459 
L 222.862071 41.376172 
L 223.073986 41.189825 
L 223.285902 236.170006 
L 223.497817 236.1335 
L 223.709733 40.918482 
L 223.921648 234.544657 
L 224.133564 38.092585 
L 224.345479 237.81874 
L 224.76931 239.849888 
L 224.981226 31.774022 
L 225.193141 226.815522 
L 225.405057 29.876265 
L 225.616972 28.816326 
L 225.828888 226.192827 
L 226.040803 229.292738 
L 226.252719 33.088998 
L 226.67655 32.54864 
L 226.888465 228.550902 
L 227.100381 228.573431 
L 227.312296 227.952291 
L 227.524212 33.387332 
L 227.736127 226.906331 
L 227.948043 32.873354 
L 228.159958 32.372501 
L 228.371874 227.954964 
L 228.583789 228.677532 
L 228.795705 31.871341 
L 229.00762 32.141174 
L 229.219536 31.684148 
L 229.431451 33.752383 
L 229.643367 228.045319 
L 229.855282 229.474395 
L 230.067198 32.390594 
L 230.279113 228.767201 
L 230.491029 34.398267 
L 230.702944 229.48518 
L 230.91486 33.214769 
L 231.126775 33.661754 
L 231.338691 228.33756 
L 231.550606 29.406796 
L 231.974437 34.398267 
L 232.186353 231.132399 
L 233.034015 229.273342 
L 233.24593 230.941859 
L 233.457846 34.959354 
L 233.669761 34.468111 
L 233.881677 33.152609 
L 234.093592 228.56485 
L 234.305508 231.70916 
L 234.729339 233.733605 
L 234.941254 40.041076 
L 235.365085 41.69953 
L 235.577001 233.665559 
L 235.788916 233.08909 
L 236.000832 233.957882 
L 236.212747 38.010939 
L 236.424663 42.225516 
L 236.636578 239.732081 
L 236.848494 240.075403 
L 237.060409 237.351193 
L 237.272325 39.656196 
L 237.48424 235.732445 
L 237.696156 35.692757 
L 237.908071 31.861193 
L 238.119987 229.258798 
L 238.331902 229.007982 
L 238.543818 230.255546 
L 238.755733 33.355253 
L 238.967649 31.613849 
L 239.179564 31.762367 
L 239.39148 230.723277 
L 239.603395 36.945672 
L 239.815311 37.714067 
L 240.027226 233.535064 
L 240.239142 37.35255 
L 240.451057 232.485524 
L 240.662973 35.777866 
L 240.874888 36.160612 
L 241.086804 233.265571 
L 241.298719 35.31023 
L 241.510635 35.819674 
L 241.72255 36.936634 
L 241.934466 234.237403 
L 242.146381 36.910008 
L 242.358297 37.435036 
L 242.570212 232.725698 
L 242.782128 33.391316 
L 242.994043 227.352064 
L 243.205959 33.984723 
L 243.417874 32.122089 
L 243.62979 33.464694 
L 243.841705 228.471538 
L 244.053621 229.870732 
L 244.265536 224.74687 
L 244.477452 29.50891 
L 244.689367 32.69135 
L 244.901283 228.104687 
L 245.325114 227.005692 
L 245.537029 222.290558 
L 245.748945 234.2313 
L 245.96086 40.57122 
L 246.172776 222.725539 
L 246.384691 223.36183 
L 246.596607 223.527916 
L 246.808522 31.478718 
L 247.020438 29.938101 
L 247.232353 223.700932 
L 247.444269 31.87011 
L 247.656184 215.480291 
L 247.8681 24.097297 
L 248.080015 215.496223 
L 248.291931 31.664344 
L 248.503846 34.921655 
L 248.715762 40.054 
L 248.927677 226.316646 
L 249.139593 37.099927 
L 249.351508 33.160579 
L 249.563424 229.11074 
L 249.775339 228.466175 
L 249.987255 34.046776 
L 250.19917 31.970187 
L 250.411086 35.54436 
L 250.623001 31.81983 
L 250.834917 33.921716 
L 251.046832 226.661623 
L 251.258748 33.891082 
L 251.470663 226.097109 
L 251.682579 226.429979 
L 251.894494 29.876489 
L 252.10641 225.139683 
L 252.318325 32.241077 
L 252.530241 225.320108 
L 252.742156 34.479337 
L 252.954072 227.9058 
L 253.165987 227.473001 
L 253.377903 36.241831 
L 253.589818 229.503521 
L 253.801734 36.270911 
L 254.013649 228.140531 
L 254.225565 35.41353 
L 254.43748 227.672987 
L 254.649396 227.495923 
L 254.861311 224.549748 
L 255.073227 227.516714 
L 255.497058 223.577918 
L 255.708973 223.448761 
L 255.920889 222.937207 
L 256.132804 223.466983 
L 256.34472 34.293535 
L 256.556635 223.15017 
L 256.768551 32.132001 
L 256.980466 220.76374 
L 257.192382 221.333268 
L 257.616213 224.482697 
L 257.828128 35.768856 
L 258.040044 219.876922 
L 258.251959 33.590841 
L 258.463875 222.234191 
L 258.67579 33.471888 
L 258.887706 32.685892 
L 259.099621 33.083783 
L 259.311537 219.895798 
L 259.523452 32.426314 
L 259.735368 221.841693 
L 259.947283 37.615164 
L 260.371114 34.773573 
L 260.58303 222.580425 
L 260.794945 224.00726 
L 261.006861 36.221777 
L 261.218776 35.573133 
L 261.430692 224.780969 
L 261.642607 33.156353 
L 261.854523 220.917619 
L 262.066438 223.388896 
L 262.278354 221.33687 
L 262.490269 223.138217 
L 262.702185 223.367032 
L 262.9141 225.975553 
L 263.126016 36.917544 
L 263.337931 35.360511 
L 263.549847 224.207939 
L 263.761762 34.631042 
L 263.973678 222.725537 
L 264.185593 221.656594 
L 264.397509 32.093587 
L 264.609424 221.860265 
L 264.82134 222.445266 
L 265.033255 32.809781 
L 265.245171 223.140808 
L 265.457086 32.591575 
L 265.880917 31.33872 
L 266.092833 219.444319 
L 266.304748 28.925631 
L 266.516664 29.663967 
L 266.728579 217.909442 
L 266.940495 219.181412 
L 267.15241 224.043304 
L 267.364326 38.763458 
L 267.576241 35.83796 
L 267.788157 228.701694 
L 268.000072 33.262746 
L 268.211988 220.711455 
L 268.423903 32.977436 
L 268.635819 29.164301 
L 268.847734 225.039294 
L 269.05965 225.04875 
L 269.271565 30.773042 
L 269.483481 30.590845 
L 269.695396 220.74529 
L 269.907312 220.832977 
L 270.119227 23.762782 
L 270.331143 220.061694 
L 270.543058 220.582335 
L 270.754974 223.060279 
L 270.966889 28.421059 
L 271.178805 28.279771 
L 271.39072 27.735665 
L 271.602636 223.003666 
L 271.814551 226.541257 
L 272.026467 219.674506 
L 272.238382 25.107089 
L 272.450298 218.950347 
L 272.662213 224.589575 
L 272.874129 33.015197 
L 273.086044 226.102396 
L 273.29796 36.738269 
L 273.509875 40.206046 
L 273.721791 236.676372 
L 273.933706 232.638273 
L 274.145622 253.639691 
L 274.357537 241.862743 
L 274.569453 37.62221 
L 274.781368 37.128574 
L 274.993284 39.201715 
L 275.205199 234.424021 
L 275.417115 240.746951 
L 275.62903 237.096741 
L 275.840946 230.899425 
L 276.052861 231.745238 
L 276.264777 231.302435 
L 276.476692 33.374402 
L 276.688608 228.60777 
L 277.112439 226.868622 
L 277.324354 227.138627 
L 277.53627 37.084347 
L 277.748185 224.901681 
L 277.960101 228.023922 
L 278.172016 35.876023 
L 278.383932 36.082183 
L 278.595847 226.403494 
L 278.807763 227.460215 
L 279.019678 230.698827 
L 279.231594 237.628157 
L 279.443509 238.514372 
L 279.655425 241.221189 
L 279.86734 50.150773 
L 280.079256 244.643148 
L 280.291171 48.927262 
L 280.503087 47.749186 
L 280.715002 235.20948 
L 280.926918 39.027357 
L 281.138833 232.8638 
L 281.350749 36.42136 
L 281.562664 33.260763 
L 281.77458 231.464461 
L 281.986495 37.757115 
L 282.198411 40.63541 
L 282.410326 39.55878 
L 282.622242 40.156114 
L 282.834157 234.406795 
L 283.046073 36.275908 
L 283.469904 38.379949 
L 283.681819 234.915465 
L 283.893735 38.862412 
L 284.10565 37.001172 
L 284.317566 233.111138 
L 284.529481 36.201707 
L 284.741397 233.883085 
L 284.953312 37.183361 
L 285.165228 37.474023 
L 285.377143 232.809315 
L 285.589059 233.832138 
L 285.800974 41.654994 
L 286.01289 237.170212 
L 286.224805 236.953299 
L 286.436721 42.118475 
L 286.648636 241.342437 
L 287.072467 226.857999 
L 287.284383 34.067442 
L 287.496298 229.01551 
L 287.708214 45.526593 
L 287.920129 237.272554 
L 288.132045 237.63496 
L 288.34396 42.890663 
L 288.555876 42.260702 
L 288.767791 237.655367 
L 288.979707 237.182648 
L 289.191622 237.346663 
L 289.403538 236.071175 
L 289.615453 237.214873 
L 289.827369 234.968983 
L 290.039284 38.686721 
L 290.2512 234.558005 
L 290.463115 38.450312 
L 290.675031 37.323382 
L 290.886946 35.520324 
L 291.098862 235.183796 
L 291.310777 240.935545 
L 291.522693 42.536627 
L 291.734608 40.869723 
L 291.946524 233.429534 
L 292.58227 237.727955 
L 292.794186 41.426022 
L 293.006101 236.299265 
L 293.218017 236.541185 
L 293.429932 41.333453 
L 293.641848 235.781752 
L 294.065679 232.215003 
L 294.277594 231.37661 
L 294.48951 36.86305 
L 294.701425 230.471343 
L 294.913341 40.191848 
L 295.125256 235.2106 
L 295.337172 236.300389 
L 295.549087 41.718879 
L 295.761003 41.563388 
L 295.972918 40.726515 
L 296.184834 233.720327 
L 296.396749 232.745499 
L 296.608665 41.037343 
L 296.82058 40.626007 
L 297.032496 43.166605 
L 297.244411 40.748109 
L 297.456327 40.543311 
L 297.668242 234.170807 
L 297.880158 40.182728 
L 298.092073 229.747515 
L 298.303989 35.147514 
L 298.515904 232.02595 
L 298.72782 233.456051 
L 298.939735 233.063186 
L 299.151651 234.298474 
L 299.363566 231.57475 
L 299.575482 39.094564 
L 299.787397 233.711472 
L 299.999313 231.955316 
L 300.211228 37.380965 
L 300.423144 38.682685 
L 300.635059 39.263392 
L 300.846975 232.277519 
L 301.05889 230.17158 
L 301.270806 35.977961 
L 301.482721 35.429787 
L 301.694637 227.790422 
L 301.906552 226.966901 
L 302.118468 34.872454 
L 302.330383 225.864108 
L 302.542299 221.818989 
L 302.754214 34.760574 
L 302.96613 209.374531 
L 303.178045 206.020451 
L 303.389961 31.393134 
L 303.601876 205.013771 
L 303.813792 33.696619 
L 304.025707 37.320113 
L 304.237623 201.709937 
L 304.449538 198.714704 
L 304.661454 197.721294 
L 304.873369 208.755204 
L 305.085285 208.101056 
L 305.2972 207.874899 
L 305.509116 76.342025 
L 305.721031 60.471135 
L 305.932947 60.347818 
L 306.144862 57.422944 
L 306.356778 58.821511 
L 306.568693 231.194508 
L 306.780609 54.876768 
L 306.992524 51.069478 
L 307.20444 238.863622 
L 307.416355 242.245214 
L 307.628271 241.793462 
L 307.840186 249.29253 
L 308.052102 248.617082 
L 308.264017 65.649009 
L 308.475933 248.017425 
L 308.687848 247.513814 
L 308.899764 247.5936 
L 309.111679 81.988005 
L 309.323595 247.911361 
L 309.53551 251.078027 
L 309.747426 89.489479 
L 309.959341 91.470377 
L 310.171257 81.616212 
L 310.383172 253.323118 
L 310.595088 66.352491 
L 310.807003 254.090895 
L 311.018919 253.953175 
L 311.230834 66.035669 
L 311.44275 59.075646 
L 311.654665 250.96912 
L 311.866581 58.455633 
L 312.078496 248.996831 
L 312.290412 58.683298 
L 312.502327 249.19838 
L 312.714243 250.645968 
L 312.926158 64.970433 
L 313.138074 253.283521 
L 313.349989 66.757501 
L 313.561905 254.878694 
L 313.77382 254.988049 
L 313.985736 255.289209 
L 314.197651 65.289783 
L 314.409567 65.679575 
L 314.621482 254.207238 
L 314.833398 66.028023 
L 315.045313 65.632362 
L 315.257229 65.790952 
L 315.469144 65.710146 
L 315.68106 65.308048 
L 315.892975 256.861402 
L 316.316806 254.023914 
L 316.528722 247.359196 
L 316.740637 249.051771 
L 316.952553 253.936759 
L 317.164468 261.640602 
L 317.376384 74.874749 
L 317.588299 70.718004 
L 317.800215 254.829763 
L 318.01213 255.425675 
L 318.224046 253.623941 
L 318.435961 253.731081 
L 318.647877 64.99195 
L 318.859792 67.333039 
L 319.071708 256.430881 
L 319.283623 256.430881 
L 319.495539 69.957019 
L 319.707454 68.472536 
L 319.91937 67.926338 
L 320.131285 67.768367 
L 320.343201 66.614054 
L 320.555116 64.643493 
L 320.767032 64.09706 
L 320.978947 62.919688 
L 321.190863 62.705643 
L 321.402778 60.892747 
L 321.614694 57.856757 
L 322.038525 60.188839 
L 322.25044 250.809617 
L 322.462356 61.455263 
L 322.674271 250.586729 
L 322.886187 61.692234 
L 323.098102 250.702144 
L 323.310018 251.006238 
L 323.521933 249.971683 
L 323.733849 249.544092 
L 323.945764 248.022888 
L 324.15768 59.041387 
L 324.369595 59.601352 
L 324.581511 61.511587 
L 324.793426 61.206067 
L 325.005342 60.599068 
L 325.217257 250.326609 
L 325.429173 250.964168 
L 325.641088 254.146526 
L 325.853004 253.924763 
L 326.064919 64.114167 
L 326.276835 62.788976 
L 326.48875 62.964355 
L 326.700666 252.851128 
L 326.912581 252.22399 
L 327.124497 252.207145 
L 327.336412 249.365322 
L 327.548328 62.158584 
L 327.760243 60.12951 
L 327.972159 247.361 
L 328.184074 247.50414 
L 328.39599 247.996207 
L 328.607905 61.442058 
L 328.819821 61.595433 
L 329.031736 62.076227 
L 329.243652 248.896162 
L 329.667483 251.452392 
L 329.879398 64.589083 
L 330.091314 65.61216 
L 330.303229 253.011009 
L 330.515145 252.802264 
L 330.72706 64.398985 
L 330.938976 252.46127 
L 331.150891 65.129525 
L 331.362807 64.578478 
L 331.574722 66.120931 
L 331.786638 252.969611 
L 331.998553 66.052066 
L 332.210469 64.839997 
L 332.422384 255.455024 
L 332.6343 253.933602 
L 332.846215 66.603379 
L 333.058131 66.298076 
L 333.270046 253.304261 
L 333.481962 66.354957 
L 333.693877 65.953438 
L 333.905793 253.561583 
L 334.117708 254.323044 
L 334.329624 254.606942 
L 334.541539 254.328106 
L 334.753455 57.062826 
L 334.96537 54.996263 
L 335.177286 51.422305 
L 335.389201 248.042292 
L 335.601117 245.131904 
L 335.813032 244.863876 
L 336.024948 45.866906 
L 336.236863 43.804087 
L 336.448779 234.297919 
L 336.660694 39.005884 
L 336.87261 41.242691 
L 337.084525 232.923807 
L 337.296441 44.246811 
L 337.508356 43.730353 
L 337.720272 41.989305 
L 337.932187 229.573121 
L 338.144103 39.326087 
L 338.356018 228.729069 
L 338.567934 229.573121 
L 338.779849 38.271026 
L 338.991765 231.887453 
L 339.20368 232.902885 
L 339.415596 233.072002 
L 339.627511 229.752379 
L 339.839427 232.36585 
L 340.051342 232.371885 
L 340.263258 43.12442 
L 340.475173 41.492661 
L 340.687089 233.763496 
L 340.899004 43.410754 
L 341.11092 231.835477 
L 341.322835 230.793933 
L 341.534751 231.514135 
L 341.746666 228.492985 
L 341.958582 38.335317 
L 342.170497 38.836926 
L 342.382413 226.641462 
L 342.594328 226.641462 
L 342.806244 230.277762 
L 343.018159 40.906291 
L 343.230075 39.586358 
L 343.44199 39.416092 
L 343.653906 43.752118 
L 343.865821 230.818393 
L 344.289652 229.04186 
L 344.501568 40.310741 
L 344.713483 40.956065 
L 344.925399 233.250117 
L 345.137314 43.061317 
L 345.34923 232.387798 
L 345.561145 42.468004 
L 345.773061 42.95428 
L 345.984976 43.81254 
L 346.196892 236.434246 
L 346.408807 236.779532 
L 346.832638 242.218367 
L 347.044554 242.759776 
L 347.256469 246.892081 
L 347.468385 61.993618 
L 347.6803 67.784842 
L 347.892216 68.406206 
L 348.104131 67.843079 
L 348.316047 66.925404 
L 348.527962 255.900498 
L 348.739878 253.195557 
L 348.951793 63.909954 
L 349.163709 254.343937 
L 349.58754 253.343869 
L 349.799455 254.235074 
L 350.011371 246.995622 
L 350.223286 55.745113 
L 350.435202 249.219161 
L 350.647117 54.118472 
L 350.859033 254.561906 
L 351.070948 255.261806 
L 351.282864 255.278374 
L 351.494779 255.47736 
L 351.706695 60.484039 
L 351.91861 252.652002 
L 352.130526 56.262511 
L 352.342441 251.108355 
L 352.554357 251.353127 
L 352.766272 251.965298 
L 352.978188 251.108355 
L 353.190103 55.530531 
L 353.402019 251.903031 
L 353.613934 252.581934 
L 353.82585 58.915913 
L 354.037765 58.836218 
L 354.249681 253.358329 
L 354.461596 55.673042 
L 354.673512 250.813321 
L 354.885427 57.467686 
L 355.097343 56.579542 
L 355.309258 57.120551 
L 355.521174 58.160871 
L 355.733089 58.297277 
L 355.945005 59.644242 
L 356.15692 254.025807 
L 356.368836 251.171528 
L 356.580751 251.242158 
L 356.792667 69.595556 
L 357.004582 255.773805 
L 357.216498 77.329428 
L 357.428413 254.996314 
L 357.640329 254.479498 
L 357.852244 253.613229 
L 358.06416 78.119899 
L 358.276075 255.333834 
L 358.487991 259.176901 
L 358.699906 259.042624 
L 358.911822 75.757693 
L 359.335653 72.522491 
L 359.547568 254.448447 
L 359.759484 253.71469 
L 359.971399 254.68689 
L 360.183315 67.802974 
L 360.39523 71.49215 
L 360.607146 258.311967 
L 360.819061 256.726764 
L 361.030977 71.095967 
L 361.242892 70.70414 
L 361.454808 256.07344 
L 361.666723 256.083695 
L 361.878639 255.814745 
L 362.090554 92.415035 
L 362.30247 91.189638 
L 362.514385 254.21989 
L 362.726301 254.996954 
L 362.938216 255.13632 
L 363.150132 254.881233 
L 363.362047 82.570689 
L 363.573963 81.814674 
L 363.785878 256.181797 
L 363.997794 258.681713 
L 364.209709 86.209507 
L 364.421625 85.08877 
L 364.63354 258.166165 
L 364.845456 258.80387 
L 365.057371 261.560559 
L 365.269287 259.862758 
L 365.481202 259.554885 
L 365.693118 65.489389 
L 365.905033 256.501582 
L 366.116949 255.603783 
L 366.328864 251.941012 
L 366.54078 251.970902 
L 366.752695 56.772455 
L 366.964611 250.783669 
L 367.176526 250.768841 
L 367.388442 249.813266 
L 367.600357 57.139711 
L 367.812273 56.181574 
L 367.812273 56.181574 
" style="fill:none;stroke:#1f77b4;stroke-linecap:square;stroke-width:1.5;"/>
   </g>
   <g id="patch_3">
    <path d="M 26.925 276.812 
L 26.925 10.7 
" style="fill:none;stroke:#000000;stroke-linecap:square;stroke-linejoin:miter;stroke-width:0.8;"/>
   </g>
   <g id="patch_4">
    <path d="M 384.045 276.812 
L 384.045 10.7 
" style="fill:none;stroke:#000000;stroke-linecap:square;stroke-linejoin:miter;stroke-width:0.8;"/>
   </g>
   <g id="patch_5">
    <path d="M 26.925 276.812 
L 384.045 276.812 
" style="fill:none;stroke:#000000;stroke-linecap:square;stroke-linejoin:miter;stroke-width:0.8;"/>
   </g>
   <g id="patch_6">
    <path d="M 26.925 10.7 
L 384.045 10.7 
" style="fill:none;stroke:#000000;stroke-linecap:square;stroke-linejoin:miter;stroke-width:0.8;"/>
   </g>
  </g>
 </g>
 <defs>
  <clipPath id="p0d333310cb">
   <rect height="266.112" width="357.12" x="26.925" y="10.7"/>
  </clipPath>
 </defs>
</svg>
