<?xml version="1.0" encoding="utf-8" standalone="no"?>
<!DOCTYPE svg PUBLIC "-//W3C//DTD SVG 1.1//EN"
  "http://www.w3.org/Graphics/SVG/1.1/DTD/svg11.dtd">
<!-- Created with matplotlib (http://matplotlib.org/) -->
<svg height="300.690125pt" version="1.1" viewBox="0 0 394.745 300.690125" width="394.745pt" xmlns="http://www.w3.org/2000/svg" xmlns:xlink="http://www.w3.org/1999/xlink">
 <defs>
  <style type="text/css">
*{stroke-linecap:butt;stroke-linejoin:round;}
  </style>
 </defs>
 <g id="figure_1">
  <g id="patch_1">
   <path d="M 0 300.690125 
L 394.745 300.690125 
L 394.745 0 
L 0 0 
z
" style="fill:#ffffff;"/>
  </g>
  <g id="axes_1">
   <g id="patch_2">
    <path d="M 26.925 276.812 
L 384.045 276.812 
L 384.045 10.7 
L 26.925 10.7 
z
" style="fill:#ffffff;"/>
   </g>
   <g id="matplotlib.axis_1">
    <g id="xtick_1">
     <g id="line2d_1">
      <defs>
       <path d="M 0 0 
L 0 3.5 
" id="m1508331ca6" style="stroke:#000000;stroke-width:0.8;"/>
      </defs>
      <g>
       <use style="stroke:#000000;stroke-width:0.8;" x="43.157727" xlink:href="#m1508331ca6" y="276.812"/>
      </g>
     </g>
     <g id="text_1">
      <!-- 0 -->
      <defs>
       <path d="M 31.78125 66.40625 
Q 24.171875 66.40625 20.328125 58.90625 
Q 16.5 51.421875 16.5 36.375 
Q 16.5 21.390625 20.328125 13.890625 
Q 24.171875 6.390625 31.78125 6.390625 
Q 39.453125 6.390625 43.28125 13.890625 
Q 47.125 21.390625 47.125 36.375 
Q 47.125 51.421875 43.28125 58.90625 
Q 39.453125 66.40625 31.78125 66.40625 
z
M 31.78125 74.21875 
Q 44.046875 74.21875 50.515625 64.515625 
Q 56.984375 54.828125 56.984375 36.375 
Q 56.984375 17.96875 50.515625 8.265625 
Q 44.046875 -1.421875 31.78125 -1.421875 
Q 19.53125 -1.421875 13.0625 8.265625 
Q 6.59375 17.96875 6.59375 36.375 
Q 6.59375 54.828125 13.0625 64.515625 
Q 19.53125 74.21875 31.78125 74.21875 
z
" id="DejaVuSans-30"/>
      </defs>
      <g transform="translate(39.976477 291.410437)scale(0.1 -0.1)">
       <use xlink:href="#DejaVuSans-30"/>
      </g>
     </g>
    </g>
    <g id="xtick_2">
     <g id="line2d_2">
      <g>
       <use style="stroke:#000000;stroke-width:0.8;" x="93.258737" xlink:href="#m1508331ca6" y="276.812"/>
      </g>
     </g>
     <g id="text_2">
      <!-- 50 -->
      <defs>
       <path d="M 10.796875 72.90625 
L 49.515625 72.90625 
L 49.515625 64.59375 
L 19.828125 64.59375 
L 19.828125 46.734375 
Q 21.96875 47.46875 24.109375 47.828125 
Q 26.265625 48.1875 28.421875 48.1875 
Q 40.625 48.1875 47.75 41.5 
Q 54.890625 34.8125 54.890625 23.390625 
Q 54.890625 11.625 47.5625 5.09375 
Q 40.234375 -1.421875 26.90625 -1.421875 
Q 22.3125 -1.421875 17.546875 -0.640625 
Q 12.796875 0.140625 7.71875 1.703125 
L 7.71875 11.625 
Q 12.109375 9.234375 16.796875 8.0625 
Q 21.484375 6.890625 26.703125 6.890625 
Q 35.15625 6.890625 40.078125 11.328125 
Q 45.015625 15.765625 45.015625 23.390625 
Q 45.015625 31 40.078125 35.4375 
Q 35.15625 39.890625 26.703125 39.890625 
Q 22.75 39.890625 18.8125 39.015625 
Q 14.890625 38.140625 10.796875 36.28125 
z
" id="DejaVuSans-35"/>
      </defs>
      <g transform="translate(86.896237 291.410437)scale(0.1 -0.1)">
       <use xlink:href="#DejaVuSans-35"/>
       <use x="63.623047" xlink:href="#DejaVuSans-30"/>
      </g>
     </g>
    </g>
    <g id="xtick_3">
     <g id="line2d_3">
      <g>
       <use style="stroke:#000000;stroke-width:0.8;" x="143.359747" xlink:href="#m1508331ca6" y="276.812"/>
      </g>
     </g>
     <g id="text_3">
      <!-- 100 -->
      <defs>
       <path d="M 12.40625 8.296875 
L 28.515625 8.296875 
L 28.515625 63.921875 
L 10.984375 60.40625 
L 10.984375 69.390625 
L 28.421875 72.90625 
L 38.28125 72.90625 
L 38.28125 8.296875 
L 54.390625 8.296875 
L 54.390625 0 
L 12.40625 0 
z
" id="DejaVuSans-31"/>
      </defs>
      <g transform="translate(133.815997 291.410437)scale(0.1 -0.1)">
       <use xlink:href="#DejaVuSans-31"/>
       <use x="63.623047" xlink:href="#DejaVuSans-30"/>
       <use x="127.246094" xlink:href="#DejaVuSans-30"/>
      </g>
     </g>
    </g>
    <g id="xtick_4">
     <g id="line2d_4">
      <g>
       <use style="stroke:#000000;stroke-width:0.8;" x="193.460758" xlink:href="#m1508331ca6" y="276.812"/>
      </g>
     </g>
     <g id="text_4">
      <!-- 150 -->
      <g transform="translate(183.917008 291.410437)scale(0.1 -0.1)">
       <use xlink:href="#DejaVuSans-31"/>
       <use x="63.623047" xlink:href="#DejaVuSans-35"/>
       <use x="127.246094" xlink:href="#DejaVuSans-30"/>
      </g>
     </g>
    </g>
    <g id="xtick_5">
     <g id="line2d_5">
      <g>
       <use style="stroke:#000000;stroke-width:0.8;" x="243.561768" xlink:href="#m1508331ca6" y="276.812"/>
      </g>
     </g>
     <g id="text_5">
      <!-- 200 -->
      <defs>
       <path d="M 19.1875 8.296875 
L 53.609375 8.296875 
L 53.609375 0 
L 7.328125 0 
L 7.328125 8.296875 
Q 12.9375 14.109375 22.625 23.890625 
Q 32.328125 33.6875 34.8125 36.53125 
Q 39.546875 41.84375 41.421875 45.53125 
Q 43.3125 49.21875 43.3125 52.78125 
Q 43.3125 58.59375 39.234375 62.25 
Q 35.15625 65.921875 28.609375 65.921875 
Q 23.96875 65.921875 18.8125 64.3125 
Q 13.671875 62.703125 7.8125 59.421875 
L 7.8125 69.390625 
Q 13.765625 71.78125 18.9375 73 
Q 24.125 74.21875 28.421875 74.21875 
Q 39.75 74.21875 46.484375 68.546875 
Q 53.21875 62.890625 53.21875 53.421875 
Q 53.21875 48.921875 51.53125 44.890625 
Q 49.859375 40.875 45.40625 35.40625 
Q 44.1875 33.984375 37.640625 27.21875 
Q 31.109375 20.453125 19.1875 8.296875 
z
" id="DejaVuSans-32"/>
      </defs>
      <g transform="translate(234.018018 291.410437)scale(0.1 -0.1)">
       <use xlink:href="#DejaVuSans-32"/>
       <use x="63.623047" xlink:href="#DejaVuSans-30"/>
       <use x="127.246094" xlink:href="#DejaVuSans-30"/>
      </g>
     </g>
    </g>
    <g id="xtick_6">
     <g id="line2d_6">
      <g>
       <use style="stroke:#000000;stroke-width:0.8;" x="293.662778" xlink:href="#m1508331ca6" y="276.812"/>
      </g>
     </g>
     <g id="text_6">
      <!-- 250 -->
      <g transform="translate(284.119028 291.410437)scale(0.1 -0.1)">
       <use xlink:href="#DejaVuSans-32"/>
       <use x="63.623047" xlink:href="#DejaVuSans-35"/>
       <use x="127.246094" xlink:href="#DejaVuSans-30"/>
      </g>
     </g>
    </g>
    <g id="xtick_7">
     <g id="line2d_7">
      <g>
       <use style="stroke:#000000;stroke-width:0.8;" x="343.763788" xlink:href="#m1508331ca6" y="276.812"/>
      </g>
     </g>
     <g id="text_7">
      <!-- 300 -->
      <defs>
       <path d="M 40.578125 39.3125 
Q 47.65625 37.796875 51.625 33 
Q 55.609375 28.21875 55.609375 21.1875 
Q 55.609375 10.40625 48.1875 4.484375 
Q 40.765625 -1.421875 27.09375 -1.421875 
Q 22.515625 -1.421875 17.65625 -0.515625 
Q 12.796875 0.390625 7.625 2.203125 
L 7.625 11.71875 
Q 11.71875 9.328125 16.59375 8.109375 
Q 21.484375 6.890625 26.8125 6.890625 
Q 36.078125 6.890625 40.9375 10.546875 
Q 45.796875 14.203125 45.796875 21.1875 
Q 45.796875 27.640625 41.28125 31.265625 
Q 36.765625 34.90625 28.71875 34.90625 
L 20.21875 34.90625 
L 20.21875 43.015625 
L 29.109375 43.015625 
Q 36.375 43.015625 40.234375 45.921875 
Q 44.09375 48.828125 44.09375 54.296875 
Q 44.09375 59.90625 40.109375 62.90625 
Q 36.140625 65.921875 28.71875 65.921875 
Q 24.65625 65.921875 20.015625 65.03125 
Q 15.375 64.15625 9.8125 62.3125 
L 9.8125 71.09375 
Q 15.4375 72.65625 20.34375 73.4375 
Q 25.25 74.21875 29.59375 74.21875 
Q 40.828125 74.21875 47.359375 69.109375 
Q 53.90625 64.015625 53.90625 55.328125 
Q 53.90625 49.265625 50.4375 45.09375 
Q 46.96875 40.921875 40.578125 39.3125 
z
" id="DejaVuSans-33"/>
      </defs>
      <g transform="translate(334.220038 291.410437)scale(0.1 -0.1)">
       <use xlink:href="#DejaVuSans-33"/>
       <use x="63.623047" xlink:href="#DejaVuSans-30"/>
       <use x="127.246094" xlink:href="#DejaVuSans-30"/>
      </g>
     </g>
    </g>
   </g>
   <g id="matplotlib.axis_2">
    <g id="ytick_1">
     <g id="line2d_8">
      <defs>
       <path d="M 0 0 
L -3.5 0 
" id="m0bcf26ba35" style="stroke:#000000;stroke-width:0.8;"/>
      </defs>
      <g>
       <use style="stroke:#000000;stroke-width:0.8;" x="26.925" xlink:href="#m0bcf26ba35" y="235.628587"/>
      </g>
     </g>
     <g id="text_8">
      <!-- 30 -->
      <g transform="translate(7.2 239.427805)scale(0.1 -0.1)">
       <use xlink:href="#DejaVuSans-33"/>
       <use x="63.623047" xlink:href="#DejaVuSans-30"/>
      </g>
     </g>
    </g>
    <g id="ytick_2">
     <g id="line2d_9">
      <g>
       <use style="stroke:#000000;stroke-width:0.8;" x="26.925" xlink:href="#m0bcf26ba35" y="177.113398"/>
      </g>
     </g>
     <g id="text_9">
      <!-- 35 -->
      <g transform="translate(7.2 180.912617)scale(0.1 -0.1)">
       <use xlink:href="#DejaVuSans-33"/>
       <use x="63.623047" xlink:href="#DejaVuSans-35"/>
      </g>
     </g>
    </g>
    <g id="ytick_3">
     <g id="line2d_10">
      <g>
       <use style="stroke:#000000;stroke-width:0.8;" x="26.925" xlink:href="#m0bcf26ba35" y="118.598209"/>
      </g>
     </g>
     <g id="text_10">
      <!-- 40 -->
      <defs>
       <path d="M 37.796875 64.3125 
L 12.890625 25.390625 
L 37.796875 25.390625 
z
M 35.203125 72.90625 
L 47.609375 72.90625 
L 47.609375 25.390625 
L 58.015625 25.390625 
L 58.015625 17.1875 
L 47.609375 17.1875 
L 47.609375 0 
L 37.796875 0 
L 37.796875 17.1875 
L 4.890625 17.1875 
L 4.890625 26.703125 
z
" id="DejaVuSans-34"/>
      </defs>
      <g transform="translate(7.2 122.397428)scale(0.1 -0.1)">
       <use xlink:href="#DejaVuSans-34"/>
       <use x="63.623047" xlink:href="#DejaVuSans-30"/>
      </g>
     </g>
    </g>
    <g id="ytick_4">
     <g id="line2d_11">
      <g>
       <use style="stroke:#000000;stroke-width:0.8;" x="26.925" xlink:href="#m0bcf26ba35" y="60.08302"/>
      </g>
     </g>
     <g id="text_11">
      <!-- 45 -->
      <g transform="translate(7.2 63.882239)scale(0.1 -0.1)">
       <use xlink:href="#DejaVuSans-34"/>
       <use x="63.623047" xlink:href="#DejaVuSans-35"/>
      </g>
     </g>
    </g>
   </g>
   <g id="line2d_12">
    <path clip-path="url(#pcda3de2175)" d="M 43.157727 264.716 
L 44.159747 244.242362 
L 45.161768 243.700892 
L 46.163788 251.103611 
L 47.165808 53.716022 
L 48.167828 250.502219 
L 49.169848 51.158973 
L 50.171869 246.95047 
L 51.173889 47.853603 
L 52.175909 50.790864 
L 53.177929 35.649524 
L 54.179949 56.844716 
L 55.18197 250.956731 
L 56.18399 42.301995 
L 57.18601 56.681895 
L 58.18803 250.044252 
L 59.190051 56.322864 
L 60.192071 52.196997 
L 61.194091 51.198628 
L 62.196111 52.041998 
L 63.198131 246.505336 
L 64.200152 54.827268 
L 65.202172 247.990055 
L 66.204192 50.334869 
L 67.206212 248.433089 
L 68.208232 50.677136 
L 69.210253 51.686059 
L 70.212273 52.171373 
L 71.214293 51.807645 
L 72.216313 52.171373 
L 73.218333 256.308324 
L 74.220354 50.106405 
L 75.222374 49.374359 
L 76.224394 48.374894 
L 77.226414 256.999211 
L 78.228434 46.235728 
L 79.230455 251.836921 
L 80.232475 49.723686 
L 81.234495 254.968008 
L 82.236515 252.444811 
L 83.238535 50.387234 
L 84.240556 252.444811 
L 85.242576 47.727806 
L 86.244596 49.058406 
L 87.246616 47.565203 
L 88.248636 53.135624 
L 89.250657 51.807645 
L 90.252677 255.695408 
L 91.254697 52.489185 
L 92.256717 51.355946 
L 93.258737 254.209251 
L 94.260758 36.784021 
L 95.262778 54.36525 
L 96.264798 246.356417 
L 97.266818 243.68294 
L 98.268838 52.412262 
L 99.270859 251.673367 
L 100.272879 53.859957 
L 101.274899 53.01628 
L 102.276919 248.433089 
L 103.278939 52.311037 
L 104.28096 245.910059 
L 105.28298 52.004859 
L 106.285 52.935439 
L 107.28702 51.686059 
L 108.28904 249.296562 
L 109.291061 253.624862 
L 110.293081 54.149196 
L 111.295101 251.812392 
L 112.297121 57.455093 
L 113.299141 54.263654 
L 114.301162 55.477855 
L 115.303182 56.126651 
L 116.305202 54.149196 
L 117.307222 56.773657 
L 118.309242 53.334595 
L 119.311263 248.856439 
L 120.313283 247.684917 
L 121.315303 54.430876 
L 122.317323 50.140862 
L 123.319343 247.250913 
L 124.321364 247.392148 
L 125.323384 245.00504 
L 126.325404 54.149196 
L 127.327424 53.53235 
L 128.329444 253.314567 
L 129.331465 251.830786 
L 130.333485 245.440196 
L 131.335505 52.654558 
L 132.337525 246.95047 
L 133.339545 45.057408 
L 134.341566 247.21662 
L 135.343586 245.739302 
L 136.345606 55.590015 
L 137.347626 249.331066 
L 138.349646 55.958894 
L 139.351667 247.95972 
L 140.353687 53.439884 
L 141.355707 244.724596 
L 142.357727 52.68534 
L 143.359747 245.910059 
L 144.361768 52.766113 
L 145.363788 54.187749 
L 146.365808 244.566444 
L 147.367828 252.246162 
L 148.369848 53.664656 
L 149.371869 245.466282 
L 150.373889 56.001473 
L 151.375909 54.528661 
L 152.377929 55.35283 
L 153.379949 53.614549 
L 154.38197 41.815423 
L 155.38399 51.743666 
L 156.38601 52.67765 
L 157.38803 52.004859 
L 158.390051 50.677136 
L 159.392071 49.707098 
L 160.394091 52.530199 
L 161.396111 252.139704 
L 162.398131 51.198628 
L 163.400152 51.807645 
L 164.402172 250.652976 
L 165.404192 51.844801 
L 166.406212 52.818723 
L 167.408232 31.877231 
L 168.410253 67.799838 
L 169.412273 250.280282 
L 170.414293 245.564626 
L 171.416313 35.77257 
L 172.418333 55.320612 
L 173.420354 61.794445 
L 174.422374 49.964769 
L 175.424394 246.199518 
L 176.426414 55.958894 
L 177.428434 53.98206 
L 178.430455 53.330744 
L 179.432475 52.849502 
L 180.434495 53.98206 
L 181.436515 247.250913 
L 182.438535 52.786657 
L 183.440556 244.278356 
L 184.442576 246.652307 
L 185.444596 51.158973 
L 186.446616 55.590015 
L 189.452677 51.638694 
L 190.454697 52.654558 
L 191.456717 247.093612 
L 192.458737 52.485339 
L 193.460758 248.141715 
L 194.462778 245.765417 
L 195.464798 246.646266 
L 196.466818 50.677136 
L 197.468838 251.407775 
L 198.470859 250.502219 
L 199.472879 44.092368 
L 200.474899 250.204974 
L 201.476919 55.590015 
L 202.478939 55.590015 
L 203.48096 53.98206 
L 204.48298 53.330744 
L 205.485 53.614549 
L 207.48904 50.311901 
L 208.491061 53.784145 
L 209.493081 54.65733 
L 210.495101 241.74004 
L 211.497121 55.508787 
L 212.499141 241.30162 
L 213.501162 57.279155 
L 214.503182 241.137108 
L 215.505202 57.095516 
L 216.507222 240.859796 
L 217.509242 57.565084 
L 218.511263 58.040246 
L 219.513283 250.066627 
L 220.515303 248.275232 
L 221.517323 242.941118 
L 222.519343 248.858472 
L 223.521364 51.833273 
L 224.523384 245.466282 
L 225.525404 244.568446 
L 226.527424 48.918337 
L 227.529444 50.110222 
L 228.531465 249.16467 
L 229.533485 251.99237 
L 230.535505 251.232173 
L 231.537525 256.733482 
L 232.539545 45.288813 
L 233.541566 248.299499 
L 234.543586 58.036365 
L 235.545606 54.631613 
L 236.547626 247.101667 
L 237.549646 246.060794 
L 238.551667 246.805385 
L 239.553687 51.563207 
L 240.555707 247.684917 
L 241.557727 50.600502 
L 242.559747 249.857174 
L 243.561768 255.883722 
L 244.563788 254.231905 
L 245.565808 53.664656 
L 246.567828 249.028773 
L 247.569848 48.918337 
L 248.571869 248.107327 
L 249.573889 22.796 
L 250.575909 48.699367 
L 251.577929 251.536453 
L 252.579949 248.384513 
L 253.58197 247.814209 
L 254.58399 42.885941 
L 255.58601 257.987237 
L 256.58803 39.60552 
L 257.590051 39.64681 
L 258.592071 253.740015 
L 259.594091 48.862313 
L 260.596111 48.214639 
L 261.598131 45.708903 
L 262.600152 50.709085 
L 263.602172 47.853603 
L 264.604192 253.32895 
L 265.606212 48.57081 
L 267.610253 48.815201 
L 268.612273 249.1809 
L 269.614293 254.030122 
L 270.616313 52.116278 
L 271.618333 48.728621 
L 272.620354 249.467085 
L 273.622374 259.308543 
L 274.624394 50.790864 
L 275.626414 50.193174 
L 276.628434 250.219224 
L 277.630455 48.699367 
L 278.632475 250.044252 
L 279.634495 48.699367 
L 280.636515 249.9202 
L 281.638535 249.9202 
L 282.640556 251.407775 
L 283.642576 244.426371 
L 284.644596 248.580903 
L 285.646616 52.022793 
L 286.648636 54.890349 
L 287.650657 250.655013 
L 288.652677 249.9202 
L 289.654697 248.29142 
L 290.656717 53.06503 
L 291.658737 244.572449 
L 292.660758 51.563207 
L 293.662778 245.765417 
L 294.664798 52.67765 
L 295.666818 50.140862 
L 296.668838 52.485339 
L 297.670859 247.844524 
L 298.672879 49.489097 
L 299.674899 246.505347 
L 300.676919 52.116278 
L 301.678939 51.880651 
L 302.68096 252.109015 
L 303.68298 251.536453 
L 304.685 251.536453 
L 305.68702 49.570679 
L 306.68904 49.421543 
L 307.691061 253.608409 
L 308.693081 251.685642 
L 309.695101 53.784145 
L 310.697121 249.75961 
L 311.699141 46.235728 
L 312.701162 34.681083 
L 313.703182 252.444811 
L 314.705202 49.994108 
L 315.707222 46.468906 
L 316.709242 48.335462 
L 317.711263 39.360242 
L 318.713283 70.297402 
L 319.715303 251.828751 
L 320.717323 36.053534 
L 321.719343 52.789223 
L 322.721364 263.737079 
L 323.723384 57.910727 
L 324.725404 69.6785 
L 325.727424 60.237775 
L 326.729444 259.308539 
L 327.731465 67.019181 
L 328.733485 255.19928 
L 329.735505 256.864249 
L 330.737525 257.479337 
L 331.739545 257.910174 
L 332.741566 264.15504 
L 333.743586 36.740439 
L 334.745606 250.217189 
L 335.747626 37.378329 
L 336.749646 51.052875 
L 337.751667 50.74231 
L 338.753687 252.444811 
L 339.755707 49.707098 
L 340.757727 34.234689 
L 341.759747 261.333174 
L 342.761768 256.550906 
L 343.763788 53.420606 
L 344.765808 48.922152 
L 345.767828 49.412621 
L 346.769848 253.043546 
L 347.771869 246.209584 
L 348.773889 51.464667 
L 349.775909 49.058406 
L 350.777929 49.900982 
L 351.779949 53.692915 
L 352.78197 254.363749 
L 353.78399 47.565203 
L 354.78601 50.508525 
L 355.78803 50.027272 
L 356.790051 250.060524 
L 357.792071 49.011294 
L 358.794091 49.011294 
L 359.796111 252.156085 
L 360.798131 250.369854 
L 361.800152 250.669278 
L 362.802172 36.174193 
L 363.804192 49.218913 
L 364.806212 251.994426 
L 365.808232 47.755742 
L 366.810253 49.181984 
L 367.812273 50.140862 
L 367.812273 50.140862 
" style="fill:none;stroke:#1f77b4;stroke-linecap:square;stroke-width:1.5;"/>
   </g>
   <g id="patch_3">
    <path d="M 26.925 276.812 
L 26.925 10.7 
" style="fill:none;stroke:#000000;stroke-linecap:square;stroke-linejoin:miter;stroke-width:0.8;"/>
   </g>
   <g id="patch_4">
    <path d="M 384.045 276.812 
L 384.045 10.7 
" style="fill:none;stroke:#000000;stroke-linecap:square;stroke-linejoin:miter;stroke-width:0.8;"/>
   </g>
   <g id="patch_5">
    <path d="M 26.925 276.812 
L 384.045 276.812 
" style="fill:none;stroke:#000000;stroke-linecap:square;stroke-linejoin:miter;stroke-width:0.8;"/>
   </g>
   <g id="patch_6">
    <path d="M 26.925 10.7 
L 384.045 10.7 
" style="fill:none;stroke:#000000;stroke-linecap:square;stroke-linejoin:miter;stroke-width:0.8;"/>
   </g>
  </g>
 </g>
 <defs>
  <clipPath id="pcda3de2175">
   <rect height="266.112" width="357.12" x="26.925" y="10.7"/>
  </clipPath>
 </defs>
</svg>
