<?xml version="1.0" encoding="utf-8" standalone="no"?>
<!DOCTYPE svg PUBLIC "-//W3C//DTD SVG 1.1//EN"
  "http://www.w3.org/Graphics/SVG/1.1/DTD/svg11.dtd">
<!-- Created with matplotlib (http://matplotlib.org/) -->
<svg height="252.018125pt" version="1.1" viewBox="0 0 378.7875 252.018125" width="378.7875pt" xmlns="http://www.w3.org/2000/svg" xmlns:xlink="http://www.w3.org/1999/xlink">
 <defs>
  <style type="text/css">
*{stroke-linecap:butt;stroke-linejoin:round;}
  </style>
 </defs>
 <g id="figure_1">
  <g id="patch_1">
   <path d="M 0 252.018125 
L 378.7875 252.018125 
L 378.7875 0 
L 0 0 
z
" style="fill:#ffffff;"/>
  </g>
  <g id="axes_1">
   <g id="patch_2">
    <path d="M 33.2875 228.14 
L 368.0875 228.14 
L 368.0875 10.7 
L 33.2875 10.7 
z
" style="fill:#ffffff;"/>
   </g>
   <g id="matplotlib.axis_1">
    <g id="xtick_1">
     <g id="line2d_1">
      <defs>
       <path d="M 0 0 
L 0 3.5 
" id="m3e8cd1443b" style="stroke:#000000;stroke-width:0.8;"/>
      </defs>
      <g>
       <use style="stroke:#000000;stroke-width:0.8;" x="48.505682" xlink:href="#m3e8cd1443b" y="228.14"/>
      </g>
     </g>
     <g id="text_1">
      <!-- 0 -->
      <defs>
       <path d="M 31.78125 66.40625 
Q 24.171875 66.40625 20.328125 58.90625 
Q 16.5 51.421875 16.5 36.375 
Q 16.5 21.390625 20.328125 13.890625 
Q 24.171875 6.390625 31.78125 6.390625 
Q 39.453125 6.390625 43.28125 13.890625 
Q 47.125 21.390625 47.125 36.375 
Q 47.125 51.421875 43.28125 58.90625 
Q 39.453125 66.40625 31.78125 66.40625 
z
M 31.78125 74.21875 
Q 44.046875 74.21875 50.515625 64.515625 
Q 56.984375 54.828125 56.984375 36.375 
Q 56.984375 17.96875 50.515625 8.265625 
Q 44.046875 -1.421875 31.78125 -1.421875 
Q 19.53125 -1.421875 13.0625 8.265625 
Q 6.59375 17.96875 6.59375 36.375 
Q 6.59375 54.828125 13.0625 64.515625 
Q 19.53125 74.21875 31.78125 74.21875 
z
" id="DejaVuSans-30"/>
      </defs>
      <g transform="translate(45.324432 242.738437)scale(0.1 -0.1)">
       <use xlink:href="#DejaVuSans-30"/>
      </g>
     </g>
    </g>
    <g id="xtick_2">
     <g id="line2d_2">
      <g>
       <use style="stroke:#000000;stroke-width:0.8;" x="116.142045" xlink:href="#m3e8cd1443b" y="228.14"/>
      </g>
     </g>
     <g id="text_2">
      <!-- 50 -->
      <defs>
       <path d="M 10.796875 72.90625 
L 49.515625 72.90625 
L 49.515625 64.59375 
L 19.828125 64.59375 
L 19.828125 46.734375 
Q 21.96875 47.46875 24.109375 47.828125 
Q 26.265625 48.1875 28.421875 48.1875 
Q 40.625 48.1875 47.75 41.5 
Q 54.890625 34.8125 54.890625 23.390625 
Q 54.890625 11.625 47.5625 5.09375 
Q 40.234375 -1.421875 26.90625 -1.421875 
Q 22.3125 -1.421875 17.546875 -0.640625 
Q 12.796875 0.140625 7.71875 1.703125 
L 7.71875 11.625 
Q 12.109375 9.234375 16.796875 8.0625 
Q 21.484375 6.890625 26.703125 6.890625 
Q 35.15625 6.890625 40.078125 11.328125 
Q 45.015625 15.765625 45.015625 23.390625 
Q 45.015625 31 40.078125 35.4375 
Q 35.15625 39.890625 26.703125 39.890625 
Q 22.75 39.890625 18.8125 39.015625 
Q 14.890625 38.140625 10.796875 36.28125 
z
" id="DejaVuSans-35"/>
      </defs>
      <g transform="translate(109.779545 242.738437)scale(0.1 -0.1)">
       <use xlink:href="#DejaVuSans-35"/>
       <use x="63.623047" xlink:href="#DejaVuSans-30"/>
      </g>
     </g>
    </g>
    <g id="xtick_3">
     <g id="line2d_3">
      <g>
       <use style="stroke:#000000;stroke-width:0.8;" x="183.778409" xlink:href="#m3e8cd1443b" y="228.14"/>
      </g>
     </g>
     <g id="text_3">
      <!-- 100 -->
      <defs>
       <path d="M 12.40625 8.296875 
L 28.515625 8.296875 
L 28.515625 63.921875 
L 10.984375 60.40625 
L 10.984375 69.390625 
L 28.421875 72.90625 
L 38.28125 72.90625 
L 38.28125 8.296875 
L 54.390625 8.296875 
L 54.390625 0 
L 12.40625 0 
z
" id="DejaVuSans-31"/>
      </defs>
      <g transform="translate(174.234659 242.738437)scale(0.1 -0.1)">
       <use xlink:href="#DejaVuSans-31"/>
       <use x="63.623047" xlink:href="#DejaVuSans-30"/>
       <use x="127.246094" xlink:href="#DejaVuSans-30"/>
      </g>
     </g>
    </g>
    <g id="xtick_4">
     <g id="line2d_4">
      <g>
       <use style="stroke:#000000;stroke-width:0.8;" x="251.414773" xlink:href="#m3e8cd1443b" y="228.14"/>
      </g>
     </g>
     <g id="text_4">
      <!-- 150 -->
      <g transform="translate(241.871023 242.738437)scale(0.1 -0.1)">
       <use xlink:href="#DejaVuSans-31"/>
       <use x="63.623047" xlink:href="#DejaVuSans-35"/>
       <use x="127.246094" xlink:href="#DejaVuSans-30"/>
      </g>
     </g>
    </g>
    <g id="xtick_5">
     <g id="line2d_5">
      <g>
       <use style="stroke:#000000;stroke-width:0.8;" x="319.051136" xlink:href="#m3e8cd1443b" y="228.14"/>
      </g>
     </g>
     <g id="text_5">
      <!-- 200 -->
      <defs>
       <path d="M 19.1875 8.296875 
L 53.609375 8.296875 
L 53.609375 0 
L 7.328125 0 
L 7.328125 8.296875 
Q 12.9375 14.109375 22.625 23.890625 
Q 32.328125 33.6875 34.8125 36.53125 
Q 39.546875 41.84375 41.421875 45.53125 
Q 43.3125 49.21875 43.3125 52.78125 
Q 43.3125 58.59375 39.234375 62.25 
Q 35.15625 65.921875 28.609375 65.921875 
Q 23.96875 65.921875 18.8125 64.3125 
Q 13.671875 62.703125 7.8125 59.421875 
L 7.8125 69.390625 
Q 13.765625 71.78125 18.9375 73 
Q 24.125 74.21875 28.421875 74.21875 
Q 39.75 74.21875 46.484375 68.546875 
Q 53.21875 62.890625 53.21875 53.421875 
Q 53.21875 48.921875 51.53125 44.890625 
Q 49.859375 40.875 45.40625 35.40625 
Q 44.1875 33.984375 37.640625 27.21875 
Q 31.109375 20.453125 19.1875 8.296875 
z
" id="DejaVuSans-32"/>
      </defs>
      <g transform="translate(309.507386 242.738437)scale(0.1 -0.1)">
       <use xlink:href="#DejaVuSans-32"/>
       <use x="63.623047" xlink:href="#DejaVuSans-30"/>
       <use x="127.246094" xlink:href="#DejaVuSans-30"/>
      </g>
     </g>
    </g>
   </g>
   <g id="matplotlib.axis_2">
    <g id="ytick_1">
     <g id="line2d_6">
      <defs>
       <path d="M 0 0 
L -3.5 0 
" id="mb8520937b0" style="stroke:#000000;stroke-width:0.8;"/>
      </defs>
      <g>
       <use style="stroke:#000000;stroke-width:0.8;" x="33.2875" xlink:href="#mb8520937b0" y="182.885606"/>
      </g>
     </g>
     <g id="text_6">
      <!-- 40 -->
      <defs>
       <path d="M 37.796875 64.3125 
L 12.890625 25.390625 
L 37.796875 25.390625 
z
M 35.203125 72.90625 
L 47.609375 72.90625 
L 47.609375 25.390625 
L 58.015625 25.390625 
L 58.015625 17.1875 
L 47.609375 17.1875 
L 47.609375 0 
L 37.796875 0 
L 37.796875 17.1875 
L 4.890625 17.1875 
L 4.890625 26.703125 
z
" id="DejaVuSans-34"/>
      </defs>
      <g transform="translate(13.5625 186.684825)scale(0.1 -0.1)">
       <use xlink:href="#DejaVuSans-34"/>
       <use x="63.623047" xlink:href="#DejaVuSans-30"/>
      </g>
     </g>
    </g>
    <g id="ytick_2">
     <g id="line2d_7">
      <g>
       <use style="stroke:#000000;stroke-width:0.8;" x="33.2875" xlink:href="#mb8520937b0" y="136.050621"/>
      </g>
     </g>
     <g id="text_7">
      <!-- 60 -->
      <defs>
       <path d="M 33.015625 40.375 
Q 26.375 40.375 22.484375 35.828125 
Q 18.609375 31.296875 18.609375 23.390625 
Q 18.609375 15.53125 22.484375 10.953125 
Q 26.375 6.390625 33.015625 6.390625 
Q 39.65625 6.390625 43.53125 10.953125 
Q 47.40625 15.53125 47.40625 23.390625 
Q 47.40625 31.296875 43.53125 35.828125 
Q 39.65625 40.375 33.015625 40.375 
z
M 52.59375 71.296875 
L 52.59375 62.3125 
Q 48.875 64.0625 45.09375 64.984375 
Q 41.3125 65.921875 37.59375 65.921875 
Q 27.828125 65.921875 22.671875 59.328125 
Q 17.53125 52.734375 16.796875 39.40625 
Q 19.671875 43.65625 24.015625 45.921875 
Q 28.375 48.1875 33.59375 48.1875 
Q 44.578125 48.1875 50.953125 41.515625 
Q 57.328125 34.859375 57.328125 23.390625 
Q 57.328125 12.15625 50.6875 5.359375 
Q 44.046875 -1.421875 33.015625 -1.421875 
Q 20.359375 -1.421875 13.671875 8.265625 
Q 6.984375 17.96875 6.984375 36.375 
Q 6.984375 53.65625 15.1875 63.9375 
Q 23.390625 74.21875 37.203125 74.21875 
Q 40.921875 74.21875 44.703125 73.484375 
Q 48.484375 72.75 52.59375 71.296875 
z
" id="DejaVuSans-36"/>
      </defs>
      <g transform="translate(13.5625 139.84984)scale(0.1 -0.1)">
       <use xlink:href="#DejaVuSans-36"/>
       <use x="63.623047" xlink:href="#DejaVuSans-30"/>
      </g>
     </g>
    </g>
    <g id="ytick_3">
     <g id="line2d_8">
      <g>
       <use style="stroke:#000000;stroke-width:0.8;" x="33.2875" xlink:href="#mb8520937b0" y="89.215636"/>
      </g>
     </g>
     <g id="text_8">
      <!-- 80 -->
      <defs>
       <path d="M 31.78125 34.625 
Q 24.75 34.625 20.71875 30.859375 
Q 16.703125 27.09375 16.703125 20.515625 
Q 16.703125 13.921875 20.71875 10.15625 
Q 24.75 6.390625 31.78125 6.390625 
Q 38.8125 6.390625 42.859375 10.171875 
Q 46.921875 13.96875 46.921875 20.515625 
Q 46.921875 27.09375 42.890625 30.859375 
Q 38.875 34.625 31.78125 34.625 
z
M 21.921875 38.8125 
Q 15.578125 40.375 12.03125 44.71875 
Q 8.5 49.078125 8.5 55.328125 
Q 8.5 64.0625 14.71875 69.140625 
Q 20.953125 74.21875 31.78125 74.21875 
Q 42.671875 74.21875 48.875 69.140625 
Q 55.078125 64.0625 55.078125 55.328125 
Q 55.078125 49.078125 51.53125 44.71875 
Q 48 40.375 41.703125 38.8125 
Q 48.828125 37.15625 52.796875 32.3125 
Q 56.78125 27.484375 56.78125 20.515625 
Q 56.78125 9.90625 50.3125 4.234375 
Q 43.84375 -1.421875 31.78125 -1.421875 
Q 19.734375 -1.421875 13.25 4.234375 
Q 6.78125 9.90625 6.78125 20.515625 
Q 6.78125 27.484375 10.78125 32.3125 
Q 14.796875 37.15625 21.921875 38.8125 
z
M 18.3125 54.390625 
Q 18.3125 48.734375 21.84375 45.5625 
Q 25.390625 42.390625 31.78125 42.390625 
Q 38.140625 42.390625 41.71875 45.5625 
Q 45.3125 48.734375 45.3125 54.390625 
Q 45.3125 60.0625 41.71875 63.234375 
Q 38.140625 66.40625 31.78125 66.40625 
Q 25.390625 66.40625 21.84375 63.234375 
Q 18.3125 60.0625 18.3125 54.390625 
z
" id="DejaVuSans-38"/>
      </defs>
      <g transform="translate(13.5625 93.014855)scale(0.1 -0.1)">
       <use xlink:href="#DejaVuSans-38"/>
       <use x="63.623047" xlink:href="#DejaVuSans-30"/>
      </g>
     </g>
    </g>
    <g id="ytick_4">
     <g id="line2d_9">
      <g>
       <use style="stroke:#000000;stroke-width:0.8;" x="33.2875" xlink:href="#mb8520937b0" y="42.380651"/>
      </g>
     </g>
     <g id="text_9">
      <!-- 100 -->
      <g transform="translate(7.2 46.179869)scale(0.1 -0.1)">
       <use xlink:href="#DejaVuSans-31"/>
       <use x="63.623047" xlink:href="#DejaVuSans-30"/>
       <use x="127.246094" xlink:href="#DejaVuSans-30"/>
      </g>
     </g>
    </g>
   </g>
   <g id="line2d_10">
    <path clip-path="url(#p85a66fe531)" d="M 48.505682 114.165607 
L 49.858409 86.503615 
L 51.211136 87.095904 
L 52.563864 86.351903 
L 53.916591 86.202328 
L 55.269318 86.308651 
L 56.622045 50.267085 
L 57.974773 71.045364 
L 59.3275 83.34253 
L 60.680227 83.428688 
L 62.032955 54.040349 
L 63.385682 83.678866 
L 64.738409 83.56574 
L 66.091136 83.040213 
L 67.443864 84.749155 
L 68.796591 50.561607 
L 70.149318 83.60438 
L 71.502045 50.116526 
L 72.854773 82.827644 
L 74.2075 85.172617 
L 75.560227 86.05431 
L 76.912955 47.280624 
L 78.265682 87.738401 
L 79.618409 80.492838 
L 80.971136 102.5302 
L 82.323864 100.944522 
L 83.676591 83.556073 
L 85.029318 83.596998 
L 86.382045 29.085303 
L 87.734773 81.91803 
L 89.0875 81.092865 
L 90.440227 31.091433 
L 91.792955 29.159326 
L 93.145682 25.425037 
L 94.498409 84.97744 
L 95.851136 83.654269 
L 97.203864 27.294435 
L 98.556591 83.372472 
L 99.909318 26.22214 
L 101.262045 22.445882 
L 102.614773 81.274748 
L 103.9675 81.980308 
L 105.320227 21.214154 
L 106.672955 80.49088 
L 108.025682 20.784228 
L 109.378409 80.678919 
L 110.731136 20.583636 
L 112.083864 80.409507 
L 113.436591 80.256498 
L 114.789318 20.941014 
L 116.142045 75.212253 
L 117.494773 21.889831 
L 118.8475 77.293491 
L 120.200227 27.854088 
L 121.552955 28.060117 
L 122.905682 77.796785 
L 124.258409 78.01929 
L 125.611136 78.680395 
L 126.963864 78.403734 
L 128.316591 22.784606 
L 129.669318 80.587396 
L 131.022045 82.356213 
L 132.374773 39.582343 
L 133.7275 83.941747 
L 135.080227 39.516873 
L 136.432955 39.819085 
L 137.785682 39.608272 
L 139.138409 84.581263 
L 140.491136 39.858583 
L 141.843864 39.078416 
L 143.196591 39.569848 
L 144.549318 84.3011 
L 145.902045 39.877816 
L 147.254773 39.379609 
L 148.6075 39.347463 
L 149.960227 84.765595 
L 151.312955 40.452663 
L 152.665682 41.031821 
L 154.018409 84.249473 
L 155.371136 40.819342 
L 156.723864 40.152304 
L 158.076591 40.150093 
L 159.429318 84.32121 
L 160.782045 84.743296 
L 162.134773 43.083636 
L 163.4875 82.666365 
L 164.840227 85.077082 
L 166.192955 82.843498 
L 167.545682 82.970371 
L 168.898409 50.004437 
L 170.251136 82.678253 
L 171.603864 86.104981 
L 172.956591 41.671355 
L 174.309318 41.677656 
L 175.662045 83.884821 
L 177.014773 41.870936 
L 178.3675 42.208944 
L 179.720227 44.074466 
L 181.072955 45.580619 
L 182.425682 46.2329 
L 183.778409 84.485306 
L 185.131136 47.204099 
L 186.483864 41.682328 
L 187.836591 45.689737 
L 189.189318 47.541598 
L 190.542045 47.205046 
L 191.894773 47.976497 
L 193.2475 84.268158 
L 194.600227 86.88256 
L 195.952955 51.17696 
L 197.305682 83.928514 
L 198.658409 49.085881 
L 200.011136 49.632823 
L 201.363864 85.811079 
L 202.716591 49.570967 
L 204.069318 49.456843 
L 205.422045 85.892601 
L 206.774773 86.773438 
L 208.1275 87.451675 
L 209.480227 86.431203 
L 210.832955 86.371365 
L 212.185682 87.107617 
L 213.538409 86.564508 
L 214.891136 49.663758 
L 216.243864 49.173653 
L 217.596591 86.981173 
L 218.949318 85.121619 
L 220.302045 88.653133 
L 221.654773 88.66292 
L 223.0075 53.1241 
L 224.360227 88.967136 
L 225.712955 88.751812 
L 227.065682 52.547091 
L 228.418409 52.533865 
L 229.771136 50.785078 
L 231.123864 47.277754 
L 232.476591 89.223831 
L 233.829318 44.607815 
L 235.182045 88.480305 
L 236.534773 86.785728 
L 237.8875 86.828069 
L 239.240227 29.036889 
L 240.592955 86.656021 
L 241.945682 23.804774 
L 243.298409 24.219516 
L 244.651136 21.784658 
L 246.003864 22.453337 
L 247.356591 100.403102 
L 248.709318 99.05098 
L 250.062045 23.095962 
L 251.414773 23.386163 
L 252.7675 109.22534 
L 254.120227 34.852337 
L 255.472955 57.457431 
L 256.825682 168.175835 
L 258.178409 175.190288 
L 259.531136 171.833293 
L 260.883864 123.786452 
L 262.236591 165.534432 
L 263.589318 127.916278 
L 264.942045 116.125923 
L 266.294773 109.328771 
L 267.6475 103.773508 
L 269.000227 116.93792 
L 270.352955 117.590986 
L 271.705682 90.181315 
L 273.058409 89.019763 
L 274.411136 111.498796 
L 275.763864 95.232493 
L 277.116591 206.815073 
L 278.469318 93.645021 
L 279.822045 94.10295 
L 281.174773 209.187637 
L 282.5275 92.279401 
L 285.232955 89.612827 
L 286.585682 209.487451 
L 287.938409 209.313927 
L 289.291136 85.555945 
L 290.643864 85.228347 
L 291.996591 88.383091 
L 293.349318 90.451028 
L 294.702045 206.149881 
L 296.054773 87.585688 
L 297.4075 215.60483 
L 298.760227 200.819988 
L 300.112955 88.881941 
L 301.465682 212.249075 
L 302.818409 213.010838 
L 304.171136 211.963611 
L 305.523864 211.715332 
L 306.876591 214.098002 
L 308.229318 213.84521 
L 309.582045 79.081678 
L 312.2875 83.236539 
L 313.640227 212.654564 
L 314.992955 89.947545 
L 316.345682 210.552302 
L 317.698409 96.194499 
L 319.051136 212.426695 
L 320.403864 211.946209 
L 321.756591 213.829472 
L 323.109318 213.540762 
L 324.462045 112.853731 
L 325.814773 211.261071 
L 327.1675 210.032996 
L 328.520227 207.229514 
L 329.872955 211.005417 
L 331.225682 210.828302 
L 332.578409 218.256364 
L 333.931136 87.606592 
L 335.283864 87.619363 
L 336.636591 89.481457 
L 337.989318 214.360636 
L 339.342045 214.739605 
L 340.694773 88.64147 
L 342.0475 89.143485 
L 343.400227 85.406706 
L 344.752955 213.582547 
L 346.105682 213.522924 
L 347.458409 78.803064 
L 348.811136 213.204442 
L 350.163864 76.235249 
L 351.516591 210.872534 
L 352.869318 68.889934 
L 352.869318 68.889934 
" style="fill:none;stroke:#1f77b4;stroke-linecap:square;stroke-width:1.5;"/>
   </g>
   <g id="patch_3">
    <path d="M 33.2875 228.14 
L 33.2875 10.7 
" style="fill:none;stroke:#000000;stroke-linecap:square;stroke-linejoin:miter;stroke-width:0.8;"/>
   </g>
   <g id="patch_4">
    <path d="M 368.0875 228.14 
L 368.0875 10.7 
" style="fill:none;stroke:#000000;stroke-linecap:square;stroke-linejoin:miter;stroke-width:0.8;"/>
   </g>
   <g id="patch_5">
    <path d="M 33.2875 228.14 
L 368.0875 228.14 
" style="fill:none;stroke:#000000;stroke-linecap:square;stroke-linejoin:miter;stroke-width:0.8;"/>
   </g>
   <g id="patch_6">
    <path d="M 33.2875 10.7 
L 368.0875 10.7 
" style="fill:none;stroke:#000000;stroke-linecap:square;stroke-linejoin:miter;stroke-width:0.8;"/>
   </g>
  </g>
 </g>
 <defs>
  <clipPath id="p85a66fe531">
   <rect height="217.44" width="334.8" x="33.2875" y="10.7"/>
  </clipPath>
 </defs>
</svg>
