<?xml version="1.0" encoding="utf-8" standalone="no"?>
<!DOCTYPE svg PUBLIC "-//W3C//DTD SVG 1.1//EN"
  "http://www.w3.org/Graphics/SVG/1.1/DTD/svg11.dtd">
<!-- Created with matplotlib (http://matplotlib.org/) -->
<svg height="300.690125pt" version="1.1" viewBox="0 0 401.1075 300.690125" width="401.1075pt" xmlns="http://www.w3.org/2000/svg" xmlns:xlink="http://www.w3.org/1999/xlink">
 <defs>
  <style type="text/css">
*{stroke-linecap:butt;stroke-linejoin:round;}
  </style>
 </defs>
 <g id="figure_1">
  <g id="patch_1">
   <path d="M 0 300.690125 
L 401.1075 300.690125 
L 401.1075 0 
L 0 0 
z
" style="fill:#ffffff;"/>
  </g>
  <g id="axes_1">
   <g id="patch_2">
    <path d="M 33.2875 276.812 
L 390.4075 276.812 
L 390.4075 10.7 
L 33.2875 10.7 
z
" style="fill:#ffffff;"/>
   </g>
   <g id="matplotlib.axis_1">
    <g id="xtick_1">
     <g id="line2d_1">
      <defs>
       <path d="M 0 0 
L 0 3.5 
" id="m8d1ffcdddd" style="stroke:#000000;stroke-width:0.8;"/>
      </defs>
      <g>
       <use style="stroke:#000000;stroke-width:0.8;" x="49.520227" xlink:href="#m8d1ffcdddd" y="276.812"/>
      </g>
     </g>
     <g id="text_1">
      <!-- 0 -->
      <defs>
       <path d="M 31.78125 66.40625 
Q 24.171875 66.40625 20.328125 58.90625 
Q 16.5 51.421875 16.5 36.375 
Q 16.5 21.390625 20.328125 13.890625 
Q 24.171875 6.390625 31.78125 6.390625 
Q 39.453125 6.390625 43.28125 13.890625 
Q 47.125 21.390625 47.125 36.375 
Q 47.125 51.421875 43.28125 58.90625 
Q 39.453125 66.40625 31.78125 66.40625 
z
M 31.78125 74.21875 
Q 44.046875 74.21875 50.515625 64.515625 
Q 56.984375 54.828125 56.984375 36.375 
Q 56.984375 17.96875 50.515625 8.265625 
Q 44.046875 -1.421875 31.78125 -1.421875 
Q 19.53125 -1.421875 13.0625 8.265625 
Q 6.59375 17.96875 6.59375 36.375 
Q 6.59375 54.828125 13.0625 64.515625 
Q 19.53125 74.21875 31.78125 74.21875 
z
" id="DejaVuSans-30"/>
      </defs>
      <g transform="translate(46.338977 291.410437)scale(0.1 -0.1)">
       <use xlink:href="#DejaVuSans-30"/>
      </g>
     </g>
    </g>
    <g id="xtick_2">
     <g id="line2d_2">
      <g>
       <use style="stroke:#000000;stroke-width:0.8;" x="121.665682" xlink:href="#m8d1ffcdddd" y="276.812"/>
      </g>
     </g>
     <g id="text_2">
      <!-- 50 -->
      <defs>
       <path d="M 10.796875 72.90625 
L 49.515625 72.90625 
L 49.515625 64.59375 
L 19.828125 64.59375 
L 19.828125 46.734375 
Q 21.96875 47.46875 24.109375 47.828125 
Q 26.265625 48.1875 28.421875 48.1875 
Q 40.625 48.1875 47.75 41.5 
Q 54.890625 34.8125 54.890625 23.390625 
Q 54.890625 11.625 47.5625 5.09375 
Q 40.234375 -1.421875 26.90625 -1.421875 
Q 22.3125 -1.421875 17.546875 -0.640625 
Q 12.796875 0.140625 7.71875 1.703125 
L 7.71875 11.625 
Q 12.109375 9.234375 16.796875 8.0625 
Q 21.484375 6.890625 26.703125 6.890625 
Q 35.15625 6.890625 40.078125 11.328125 
Q 45.015625 15.765625 45.015625 23.390625 
Q 45.015625 31 40.078125 35.4375 
Q 35.15625 39.890625 26.703125 39.890625 
Q 22.75 39.890625 18.8125 39.015625 
Q 14.890625 38.140625 10.796875 36.28125 
z
" id="DejaVuSans-35"/>
      </defs>
      <g transform="translate(115.303182 291.410437)scale(0.1 -0.1)">
       <use xlink:href="#DejaVuSans-35"/>
       <use x="63.623047" xlink:href="#DejaVuSans-30"/>
      </g>
     </g>
    </g>
    <g id="xtick_3">
     <g id="line2d_3">
      <g>
       <use style="stroke:#000000;stroke-width:0.8;" x="193.811136" xlink:href="#m8d1ffcdddd" y="276.812"/>
      </g>
     </g>
     <g id="text_3">
      <!-- 100 -->
      <defs>
       <path d="M 12.40625 8.296875 
L 28.515625 8.296875 
L 28.515625 63.921875 
L 10.984375 60.40625 
L 10.984375 69.390625 
L 28.421875 72.90625 
L 38.28125 72.90625 
L 38.28125 8.296875 
L 54.390625 8.296875 
L 54.390625 0 
L 12.40625 0 
z
" id="DejaVuSans-31"/>
      </defs>
      <g transform="translate(184.267386 291.410437)scale(0.1 -0.1)">
       <use xlink:href="#DejaVuSans-31"/>
       <use x="63.623047" xlink:href="#DejaVuSans-30"/>
       <use x="127.246094" xlink:href="#DejaVuSans-30"/>
      </g>
     </g>
    </g>
    <g id="xtick_4">
     <g id="line2d_4">
      <g>
       <use style="stroke:#000000;stroke-width:0.8;" x="265.956591" xlink:href="#m8d1ffcdddd" y="276.812"/>
      </g>
     </g>
     <g id="text_4">
      <!-- 150 -->
      <g transform="translate(256.412841 291.410437)scale(0.1 -0.1)">
       <use xlink:href="#DejaVuSans-31"/>
       <use x="63.623047" xlink:href="#DejaVuSans-35"/>
       <use x="127.246094" xlink:href="#DejaVuSans-30"/>
      </g>
     </g>
    </g>
    <g id="xtick_5">
     <g id="line2d_5">
      <g>
       <use style="stroke:#000000;stroke-width:0.8;" x="338.102045" xlink:href="#m8d1ffcdddd" y="276.812"/>
      </g>
     </g>
     <g id="text_5">
      <!-- 200 -->
      <defs>
       <path d="M 19.1875 8.296875 
L 53.609375 8.296875 
L 53.609375 0 
L 7.328125 0 
L 7.328125 8.296875 
Q 12.9375 14.109375 22.625 23.890625 
Q 32.328125 33.6875 34.8125 36.53125 
Q 39.546875 41.84375 41.421875 45.53125 
Q 43.3125 49.21875 43.3125 52.78125 
Q 43.3125 58.59375 39.234375 62.25 
Q 35.15625 65.921875 28.609375 65.921875 
Q 23.96875 65.921875 18.8125 64.3125 
Q 13.671875 62.703125 7.8125 59.421875 
L 7.8125 69.390625 
Q 13.765625 71.78125 18.9375 73 
Q 24.125 74.21875 28.421875 74.21875 
Q 39.75 74.21875 46.484375 68.546875 
Q 53.21875 62.890625 53.21875 53.421875 
Q 53.21875 48.921875 51.53125 44.890625 
Q 49.859375 40.875 45.40625 35.40625 
Q 44.1875 33.984375 37.640625 27.21875 
Q 31.109375 20.453125 19.1875 8.296875 
z
" id="DejaVuSans-32"/>
      </defs>
      <g transform="translate(328.558295 291.410437)scale(0.1 -0.1)">
       <use xlink:href="#DejaVuSans-32"/>
       <use x="63.623047" xlink:href="#DejaVuSans-30"/>
       <use x="127.246094" xlink:href="#DejaVuSans-30"/>
      </g>
     </g>
    </g>
   </g>
   <g id="matplotlib.axis_2">
    <g id="ytick_1">
     <g id="line2d_6">
      <defs>
       <path d="M 0 0 
L -3.5 0 
" id="m4be02fbb12" style="stroke:#000000;stroke-width:0.8;"/>
      </defs>
      <g>
       <use style="stroke:#000000;stroke-width:0.8;" x="33.2875" xlink:href="#m4be02fbb12" y="221.427815"/>
      </g>
     </g>
     <g id="text_6">
      <!-- 40 -->
      <defs>
       <path d="M 37.796875 64.3125 
L 12.890625 25.390625 
L 37.796875 25.390625 
z
M 35.203125 72.90625 
L 47.609375 72.90625 
L 47.609375 25.390625 
L 58.015625 25.390625 
L 58.015625 17.1875 
L 47.609375 17.1875 
L 47.609375 0 
L 37.796875 0 
L 37.796875 17.1875 
L 4.890625 17.1875 
L 4.890625 26.703125 
z
" id="DejaVuSans-34"/>
      </defs>
      <g transform="translate(13.5625 225.227033)scale(0.1 -0.1)">
       <use xlink:href="#DejaVuSans-34"/>
       <use x="63.623047" xlink:href="#DejaVuSans-30"/>
      </g>
     </g>
    </g>
    <g id="ytick_2">
     <g id="line2d_7">
      <g>
       <use style="stroke:#000000;stroke-width:0.8;" x="33.2875" xlink:href="#m4be02fbb12" y="164.109237"/>
      </g>
     </g>
     <g id="text_7">
      <!-- 60 -->
      <defs>
       <path d="M 33.015625 40.375 
Q 26.375 40.375 22.484375 35.828125 
Q 18.609375 31.296875 18.609375 23.390625 
Q 18.609375 15.53125 22.484375 10.953125 
Q 26.375 6.390625 33.015625 6.390625 
Q 39.65625 6.390625 43.53125 10.953125 
Q 47.40625 15.53125 47.40625 23.390625 
Q 47.40625 31.296875 43.53125 35.828125 
Q 39.65625 40.375 33.015625 40.375 
z
M 52.59375 71.296875 
L 52.59375 62.3125 
Q 48.875 64.0625 45.09375 64.984375 
Q 41.3125 65.921875 37.59375 65.921875 
Q 27.828125 65.921875 22.671875 59.328125 
Q 17.53125 52.734375 16.796875 39.40625 
Q 19.671875 43.65625 24.015625 45.921875 
Q 28.375 48.1875 33.59375 48.1875 
Q 44.578125 48.1875 50.953125 41.515625 
Q 57.328125 34.859375 57.328125 23.390625 
Q 57.328125 12.15625 50.6875 5.359375 
Q 44.046875 -1.421875 33.015625 -1.421875 
Q 20.359375 -1.421875 13.671875 8.265625 
Q 6.984375 17.96875 6.984375 36.375 
Q 6.984375 53.65625 15.1875 63.9375 
Q 23.390625 74.21875 37.203125 74.21875 
Q 40.921875 74.21875 44.703125 73.484375 
Q 48.484375 72.75 52.59375 71.296875 
z
" id="DejaVuSans-36"/>
      </defs>
      <g transform="translate(13.5625 167.908455)scale(0.1 -0.1)">
       <use xlink:href="#DejaVuSans-36"/>
       <use x="63.623047" xlink:href="#DejaVuSans-30"/>
      </g>
     </g>
    </g>
    <g id="ytick_3">
     <g id="line2d_8">
      <g>
       <use style="stroke:#000000;stroke-width:0.8;" x="33.2875" xlink:href="#m4be02fbb12" y="106.790659"/>
      </g>
     </g>
     <g id="text_8">
      <!-- 80 -->
      <defs>
       <path d="M 31.78125 34.625 
Q 24.75 34.625 20.71875 30.859375 
Q 16.703125 27.09375 16.703125 20.515625 
Q 16.703125 13.921875 20.71875 10.15625 
Q 24.75 6.390625 31.78125 6.390625 
Q 38.8125 6.390625 42.859375 10.171875 
Q 46.921875 13.96875 46.921875 20.515625 
Q 46.921875 27.09375 42.890625 30.859375 
Q 38.875 34.625 31.78125 34.625 
z
M 21.921875 38.8125 
Q 15.578125 40.375 12.03125 44.71875 
Q 8.5 49.078125 8.5 55.328125 
Q 8.5 64.0625 14.71875 69.140625 
Q 20.953125 74.21875 31.78125 74.21875 
Q 42.671875 74.21875 48.875 69.140625 
Q 55.078125 64.0625 55.078125 55.328125 
Q 55.078125 49.078125 51.53125 44.71875 
Q 48 40.375 41.703125 38.8125 
Q 48.828125 37.15625 52.796875 32.3125 
Q 56.78125 27.484375 56.78125 20.515625 
Q 56.78125 9.90625 50.3125 4.234375 
Q 43.84375 -1.421875 31.78125 -1.421875 
Q 19.734375 -1.421875 13.25 4.234375 
Q 6.78125 9.90625 6.78125 20.515625 
Q 6.78125 27.484375 10.78125 32.3125 
Q 14.796875 37.15625 21.921875 38.8125 
z
M 18.3125 54.390625 
Q 18.3125 48.734375 21.84375 45.5625 
Q 25.390625 42.390625 31.78125 42.390625 
Q 38.140625 42.390625 41.71875 45.5625 
Q 45.3125 48.734375 45.3125 54.390625 
Q 45.3125 60.0625 41.71875 63.234375 
Q 38.140625 66.40625 31.78125 66.40625 
Q 25.390625 66.40625 21.84375 63.234375 
Q 18.3125 60.0625 18.3125 54.390625 
z
" id="DejaVuSans-38"/>
      </defs>
      <g transform="translate(13.5625 110.589878)scale(0.1 -0.1)">
       <use xlink:href="#DejaVuSans-38"/>
       <use x="63.623047" xlink:href="#DejaVuSans-30"/>
      </g>
     </g>
    </g>
    <g id="ytick_4">
     <g id="line2d_9">
      <g>
       <use style="stroke:#000000;stroke-width:0.8;" x="33.2875" xlink:href="#m4be02fbb12" y="49.472081"/>
      </g>
     </g>
     <g id="text_9">
      <!-- 100 -->
      <g transform="translate(7.2 53.2713)scale(0.1 -0.1)">
       <use xlink:href="#DejaVuSans-31"/>
       <use x="63.623047" xlink:href="#DejaVuSans-30"/>
       <use x="127.246094" xlink:href="#DejaVuSans-30"/>
      </g>
     </g>
    </g>
   </g>
   <g id="line2d_10">
    <path clip-path="url(#pd254e5eebb)" d="M 49.520227 137.325458 
L 50.963136 103.471577 
L 52.406045 104.196444 
L 53.848955 103.285905 
L 55.291864 103.10285 
L 56.734773 103.232972 
L 58.177682 59.123824 
L 59.620591 84.553134 
L 61.0635 99.60291 
L 62.506409 99.708355 
L 63.949318 63.741698 
L 65.392227 100.014533 
L 66.835136 99.876084 
L 68.278045 99.232923 
L 69.720955 101.324397 
L 71.163864 59.484271 
L 72.606773 99.923374 
L 74.049682 58.939563 
L 75.492591 98.972772 
L 76.9355 101.842647 
L 78.378409 102.921699 
L 79.821318 55.468869 
L 81.264227 104.982758 
L 82.707136 96.11534 
L 84.150045 123.08557 
L 85.592955 121.144952 
L 87.035864 99.864253 
L 88.478773 99.91434 
L 89.921682 33.200688 
L 91.364591 97.859549 
L 92.8075 96.849678 
L 94.250409 35.655873 
L 95.693318 33.291281 
L 97.136227 28.721105 
L 98.579136 101.603781 
L 100.022045 99.98443 
L 101.464955 31.008951 
L 102.907864 99.639556 
L 104.350773 29.696632 
L 105.793682 25.075092 
L 107.236591 97.072275 
L 108.6795 97.935768 
L 110.122409 23.567653 
L 111.565318 96.112945 
L 113.008227 23.041493 
L 114.451136 96.343074 
L 115.894045 22.796 
L 117.336955 96.013357 
L 118.779864 95.826098 
L 120.222773 23.233373 
L 121.665682 89.652744 
L 123.108591 24.394574 
L 124.5515 92.199849 
L 125.994409 31.693877 
L 127.437318 31.946024 
L 128.880227 92.815801 
L 130.323136 93.088111 
L 131.766045 93.897198 
L 133.208955 93.558609 
L 134.651864 25.489637 
L 136.094773 96.231064 
L 137.537682 98.395815 
L 138.980591 46.047398 
L 140.4235 100.336258 
L 141.866409 45.967273 
L 143.309318 46.337132 
L 144.752227 46.07913 
L 146.195136 101.118923 
L 147.638045 46.385471 
L 149.080955 45.430671 
L 150.523864 46.032105 
L 151.966773 100.776048 
L 153.409682 46.409009 
L 154.852591 45.799283 
L 156.2955 45.759942 
L 157.738409 101.344517 
L 159.181318 47.11253 
L 160.624227 47.821328 
L 162.067136 100.712865 
L 163.510045 47.561287 
L 164.952955 46.744939 
L 166.395864 46.742233 
L 167.838773 100.80066 
L 169.281682 101.317226 
L 170.724591 50.332423 
L 172.1675 98.775392 
L 173.610409 101.725726 
L 175.053318 98.992175 
L 176.496227 99.147448 
L 177.939136 58.802383 
L 179.382045 98.789942 
L 180.824955 102.983711 
L 182.267864 48.604016 
L 183.710773 48.611728 
L 185.153682 100.266589 
L 186.596591 48.848271 
L 188.0395 49.261939 
L 189.482409 51.545041 
L 190.925318 53.388333 
L 192.368227 54.186622 
L 193.811136 101.001487 
L 195.254045 55.375216 
L 196.696955 48.617445 
L 198.139864 53.521876 
L 199.582773 55.78826 
L 201.025682 55.376374 
L 202.468591 56.320507 
L 203.9115 100.735732 
L 205.354409 103.935345 
L 206.797318 60.237366 
L 208.240227 100.320062 
L 209.683136 57.678217 
L 211.126045 58.347587 
L 212.568955 102.624023 
L 214.011864 58.271886 
L 215.454773 58.132216 
L 216.897682 102.723792 
L 218.340591 103.801796 
L 219.7835 104.631852 
L 221.226409 103.382956 
L 222.669318 103.309724 
L 224.112227 104.210779 
L 225.555136 103.546099 
L 226.998045 58.385447 
L 228.440955 57.785636 
L 229.883864 104.056031 
L 231.326773 101.780232 
L 232.769682 106.102245 
L 234.212591 106.114223 
L 235.6555 62.620355 
L 237.098409 106.486535 
L 238.541318 106.223012 
L 239.984227 61.914188 
L 241.427136 61.898001 
L 242.870045 59.757764 
L 244.312955 55.465357 
L 245.755864 106.800689 
L 247.198773 52.197776 
L 248.641682 105.890731 
L 250.084591 103.816838 
L 251.5275 103.868657 
L 252.970409 33.141438 
L 254.413318 103.658097 
L 255.856227 26.738161 
L 257.299136 27.245739 
L 258.742045 24.265859 
L 260.184955 25.084216 
L 261.627864 120.482339 
L 263.070773 118.827557 
L 264.513682 25.870687 
L 265.956591 26.225847 
L 267.3995 131.279357 
L 268.842409 40.258622 
L 270.285318 67.923664 
L 271.728227 203.425393 
L 273.171136 212.009968 
L 274.614045 207.90154 
L 276.056955 149.099844 
L 277.499864 200.192735 
L 278.942773 154.154094 
L 280.385682 139.724573 
L 281.828591 131.40594 
L 283.2715 124.607181 
L 284.714409 140.718329 
L 286.157318 141.517577 
L 287.600227 107.972497 
L 289.043136 106.550942 
L 290.486045 134.061705 
L 291.928955 114.154336 
L 293.371864 250.713679 
L 294.814773 112.211522 
L 296.257682 112.771955 
L 297.700591 253.61732 
L 299.1435 110.54022 
L 302.029318 107.276758 
L 303.472227 253.984245 
L 304.915136 253.771879 
L 306.358045 102.311779 
L 307.800955 101.910851 
L 309.243864 105.771757 
L 310.686773 108.302582 
L 312.129682 249.89959 
L 313.572591 104.795861 
L 315.0155 261.470944 
L 316.458409 243.376647 
L 317.901318 106.382269 
L 319.344227 257.364033 
L 320.787136 258.296311 
L 322.230045 257.014671 
L 323.672955 256.710817 
L 325.115864 259.626827 
L 326.558773 259.317449 
L 328.001682 94.388305 
L 330.8875 99.473195 
L 332.330409 257.860287 
L 333.773318 107.686399 
L 335.216227 255.287453 
L 336.659136 115.331678 
L 338.102045 257.581413 
L 339.544955 256.993374 
L 340.987864 259.298188 
L 342.430773 258.944853 
L 343.873682 135.719931 
L 345.316591 256.154874 
L 346.7595 254.651905 
L 348.202409 251.220889 
L 349.645318 255.841994 
L 351.088227 255.625233 
L 352.531136 264.716 
L 353.974045 104.821445 
L 355.416955 104.837074 
L 356.859864 107.115981 
L 358.302773 259.948249 
L 359.745682 260.412047 
L 361.188591 106.087971 
L 362.6315 106.702357 
L 364.074409 102.129134 
L 365.517318 258.995991 
L 366.960227 258.923023 
L 368.403136 94.047326 
L 369.846045 258.533251 
L 371.288955 90.904729 
L 372.731864 255.679366 
L 374.174773 81.915231 
L 374.174773 81.915231 
" style="fill:none;stroke:#1f77b4;stroke-linecap:square;stroke-width:1.5;"/>
   </g>
   <g id="patch_3">
    <path d="M 33.2875 276.812 
L 33.2875 10.7 
" style="fill:none;stroke:#000000;stroke-linecap:square;stroke-linejoin:miter;stroke-width:0.8;"/>
   </g>
   <g id="patch_4">
    <path d="M 390.4075 276.812 
L 390.4075 10.7 
" style="fill:none;stroke:#000000;stroke-linecap:square;stroke-linejoin:miter;stroke-width:0.8;"/>
   </g>
   <g id="patch_5">
    <path d="M 33.2875 276.812 
L 390.4075 276.812 
" style="fill:none;stroke:#000000;stroke-linecap:square;stroke-linejoin:miter;stroke-width:0.8;"/>
   </g>
   <g id="patch_6">
    <path d="M 33.2875 10.7 
L 390.4075 10.7 
" style="fill:none;stroke:#000000;stroke-linecap:square;stroke-linejoin:miter;stroke-width:0.8;"/>
   </g>
  </g>
 </g>
 <defs>
  <clipPath id="pd254e5eebb">
   <rect height="266.112" width="357.12" x="33.2875" y="10.7"/>
  </clipPath>
 </defs>
</svg>
