<?xml version="1.0" encoding="utf-8" standalone="no"?>
<!DOCTYPE svg PUBLIC "-//W3C//DTD SVG 1.1//EN"
  "http://www.w3.org/Graphics/SVG/1.1/DTD/svg11.dtd">
<!-- Created with matplotlib (http://matplotlib.org/) -->
<svg height="252.018125pt" version="1.1" viewBox="0 0 378.7875 252.018125" width="378.7875pt" xmlns="http://www.w3.org/2000/svg" xmlns:xlink="http://www.w3.org/1999/xlink">
 <defs>
  <style type="text/css">
*{stroke-linecap:butt;stroke-linejoin:round;}
  </style>
 </defs>
 <g id="figure_1">
  <g id="patch_1">
   <path d="M 0 252.018125 
L 378.7875 252.018125 
L 378.7875 0 
L 0 0 
z
" style="fill:#ffffff;"/>
  </g>
  <g id="axes_1">
   <g id="patch_2">
    <path d="M 33.2875 228.14 
L 368.0875 228.14 
L 368.0875 10.7 
L 33.2875 10.7 
z
" style="fill:#ffffff;"/>
   </g>
   <g id="matplotlib.axis_1">
    <g id="xtick_1">
     <g id="line2d_1">
      <defs>
       <path d="M 0 0 
L 0 3.5 
" id="ma63eecf8a6" style="stroke:#000000;stroke-width:0.8;"/>
      </defs>
      <g>
       <use style="stroke:#000000;stroke-width:0.8;" x="48.505682" xlink:href="#ma63eecf8a6" y="228.14"/>
      </g>
     </g>
     <g id="text_1">
      <!-- 0 -->
      <defs>
       <path d="M 31.78125 66.40625 
Q 24.171875 66.40625 20.328125 58.90625 
Q 16.5 51.421875 16.5 36.375 
Q 16.5 21.390625 20.328125 13.890625 
Q 24.171875 6.390625 31.78125 6.390625 
Q 39.453125 6.390625 43.28125 13.890625 
Q 47.125 21.390625 47.125 36.375 
Q 47.125 51.421875 43.28125 58.90625 
Q 39.453125 66.40625 31.78125 66.40625 
z
M 31.78125 74.21875 
Q 44.046875 74.21875 50.515625 64.515625 
Q 56.984375 54.828125 56.984375 36.375 
Q 56.984375 17.96875 50.515625 8.265625 
Q 44.046875 -1.421875 31.78125 -1.421875 
Q 19.53125 -1.421875 13.0625 8.265625 
Q 6.59375 17.96875 6.59375 36.375 
Q 6.59375 54.828125 13.0625 64.515625 
Q 19.53125 74.21875 31.78125 74.21875 
z
" id="DejaVuSans-30"/>
      </defs>
      <g transform="translate(45.324432 242.738437)scale(0.1 -0.1)">
       <use xlink:href="#DejaVuSans-30"/>
      </g>
     </g>
    </g>
    <g id="xtick_2">
     <g id="line2d_2">
      <g>
       <use style="stroke:#000000;stroke-width:0.8;" x="95.914348" xlink:href="#ma63eecf8a6" y="228.14"/>
      </g>
     </g>
     <g id="text_2">
      <!-- 100 -->
      <defs>
       <path d="M 12.40625 8.296875 
L 28.515625 8.296875 
L 28.515625 63.921875 
L 10.984375 60.40625 
L 10.984375 69.390625 
L 28.421875 72.90625 
L 38.28125 72.90625 
L 38.28125 8.296875 
L 54.390625 8.296875 
L 54.390625 0 
L 12.40625 0 
z
" id="DejaVuSans-31"/>
      </defs>
      <g transform="translate(86.370598 242.738437)scale(0.1 -0.1)">
       <use xlink:href="#DejaVuSans-31"/>
       <use x="63.623047" xlink:href="#DejaVuSans-30"/>
       <use x="127.246094" xlink:href="#DejaVuSans-30"/>
      </g>
     </g>
    </g>
    <g id="xtick_3">
     <g id="line2d_3">
      <g>
       <use style="stroke:#000000;stroke-width:0.8;" x="143.323014" xlink:href="#ma63eecf8a6" y="228.14"/>
      </g>
     </g>
     <g id="text_3">
      <!-- 200 -->
      <defs>
       <path d="M 19.1875 8.296875 
L 53.609375 8.296875 
L 53.609375 0 
L 7.328125 0 
L 7.328125 8.296875 
Q 12.9375 14.109375 22.625 23.890625 
Q 32.328125 33.6875 34.8125 36.53125 
Q 39.546875 41.84375 41.421875 45.53125 
Q 43.3125 49.21875 43.3125 52.78125 
Q 43.3125 58.59375 39.234375 62.25 
Q 35.15625 65.921875 28.609375 65.921875 
Q 23.96875 65.921875 18.8125 64.3125 
Q 13.671875 62.703125 7.8125 59.421875 
L 7.8125 69.390625 
Q 13.765625 71.78125 18.9375 73 
Q 24.125 74.21875 28.421875 74.21875 
Q 39.75 74.21875 46.484375 68.546875 
Q 53.21875 62.890625 53.21875 53.421875 
Q 53.21875 48.921875 51.53125 44.890625 
Q 49.859375 40.875 45.40625 35.40625 
Q 44.1875 33.984375 37.640625 27.21875 
Q 31.109375 20.453125 19.1875 8.296875 
z
" id="DejaVuSans-32"/>
      </defs>
      <g transform="translate(133.779264 242.738437)scale(0.1 -0.1)">
       <use xlink:href="#DejaVuSans-32"/>
       <use x="63.623047" xlink:href="#DejaVuSans-30"/>
       <use x="127.246094" xlink:href="#DejaVuSans-30"/>
      </g>
     </g>
    </g>
    <g id="xtick_4">
     <g id="line2d_4">
      <g>
       <use style="stroke:#000000;stroke-width:0.8;" x="190.73168" xlink:href="#ma63eecf8a6" y="228.14"/>
      </g>
     </g>
     <g id="text_4">
      <!-- 300 -->
      <defs>
       <path d="M 40.578125 39.3125 
Q 47.65625 37.796875 51.625 33 
Q 55.609375 28.21875 55.609375 21.1875 
Q 55.609375 10.40625 48.1875 4.484375 
Q 40.765625 -1.421875 27.09375 -1.421875 
Q 22.515625 -1.421875 17.65625 -0.515625 
Q 12.796875 0.390625 7.625 2.203125 
L 7.625 11.71875 
Q 11.71875 9.328125 16.59375 8.109375 
Q 21.484375 6.890625 26.8125 6.890625 
Q 36.078125 6.890625 40.9375 10.546875 
Q 45.796875 14.203125 45.796875 21.1875 
Q 45.796875 27.640625 41.28125 31.265625 
Q 36.765625 34.90625 28.71875 34.90625 
L 20.21875 34.90625 
L 20.21875 43.015625 
L 29.109375 43.015625 
Q 36.375 43.015625 40.234375 45.921875 
Q 44.09375 48.828125 44.09375 54.296875 
Q 44.09375 59.90625 40.109375 62.90625 
Q 36.140625 65.921875 28.71875 65.921875 
Q 24.65625 65.921875 20.015625 65.03125 
Q 15.375 64.15625 9.8125 62.3125 
L 9.8125 71.09375 
Q 15.4375 72.65625 20.34375 73.4375 
Q 25.25 74.21875 29.59375 74.21875 
Q 40.828125 74.21875 47.359375 69.109375 
Q 53.90625 64.015625 53.90625 55.328125 
Q 53.90625 49.265625 50.4375 45.09375 
Q 46.96875 40.921875 40.578125 39.3125 
z
" id="DejaVuSans-33"/>
      </defs>
      <g transform="translate(181.18793 242.738437)scale(0.1 -0.1)">
       <use xlink:href="#DejaVuSans-33"/>
       <use x="63.623047" xlink:href="#DejaVuSans-30"/>
       <use x="127.246094" xlink:href="#DejaVuSans-30"/>
      </g>
     </g>
    </g>
    <g id="xtick_5">
     <g id="line2d_5">
      <g>
       <use style="stroke:#000000;stroke-width:0.8;" x="238.140346" xlink:href="#ma63eecf8a6" y="228.14"/>
      </g>
     </g>
     <g id="text_5">
      <!-- 400 -->
      <defs>
       <path d="M 37.796875 64.3125 
L 12.890625 25.390625 
L 37.796875 25.390625 
z
M 35.203125 72.90625 
L 47.609375 72.90625 
L 47.609375 25.390625 
L 58.015625 25.390625 
L 58.015625 17.1875 
L 47.609375 17.1875 
L 47.609375 0 
L 37.796875 0 
L 37.796875 17.1875 
L 4.890625 17.1875 
L 4.890625 26.703125 
z
" id="DejaVuSans-34"/>
      </defs>
      <g transform="translate(228.596596 242.738437)scale(0.1 -0.1)">
       <use xlink:href="#DejaVuSans-34"/>
       <use x="63.623047" xlink:href="#DejaVuSans-30"/>
       <use x="127.246094" xlink:href="#DejaVuSans-30"/>
      </g>
     </g>
    </g>
    <g id="xtick_6">
     <g id="line2d_6">
      <g>
       <use style="stroke:#000000;stroke-width:0.8;" x="285.549012" xlink:href="#ma63eecf8a6" y="228.14"/>
      </g>
     </g>
     <g id="text_6">
      <!-- 500 -->
      <defs>
       <path d="M 10.796875 72.90625 
L 49.515625 72.90625 
L 49.515625 64.59375 
L 19.828125 64.59375 
L 19.828125 46.734375 
Q 21.96875 47.46875 24.109375 47.828125 
Q 26.265625 48.1875 28.421875 48.1875 
Q 40.625 48.1875 47.75 41.5 
Q 54.890625 34.8125 54.890625 23.390625 
Q 54.890625 11.625 47.5625 5.09375 
Q 40.234375 -1.421875 26.90625 -1.421875 
Q 22.3125 -1.421875 17.546875 -0.640625 
Q 12.796875 0.140625 7.71875 1.703125 
L 7.71875 11.625 
Q 12.109375 9.234375 16.796875 8.0625 
Q 21.484375 6.890625 26.703125 6.890625 
Q 35.15625 6.890625 40.078125 11.328125 
Q 45.015625 15.765625 45.015625 23.390625 
Q 45.015625 31 40.078125 35.4375 
Q 35.15625 39.890625 26.703125 39.890625 
Q 22.75 39.890625 18.8125 39.015625 
Q 14.890625 38.140625 10.796875 36.28125 
z
" id="DejaVuSans-35"/>
      </defs>
      <g transform="translate(276.005262 242.738437)scale(0.1 -0.1)">
       <use xlink:href="#DejaVuSans-35"/>
       <use x="63.623047" xlink:href="#DejaVuSans-30"/>
       <use x="127.246094" xlink:href="#DejaVuSans-30"/>
      </g>
     </g>
    </g>
    <g id="xtick_7">
     <g id="line2d_7">
      <g>
       <use style="stroke:#000000;stroke-width:0.8;" x="332.957678" xlink:href="#ma63eecf8a6" y="228.14"/>
      </g>
     </g>
     <g id="text_7">
      <!-- 600 -->
      <defs>
       <path d="M 33.015625 40.375 
Q 26.375 40.375 22.484375 35.828125 
Q 18.609375 31.296875 18.609375 23.390625 
Q 18.609375 15.53125 22.484375 10.953125 
Q 26.375 6.390625 33.015625 6.390625 
Q 39.65625 6.390625 43.53125 10.953125 
Q 47.40625 15.53125 47.40625 23.390625 
Q 47.40625 31.296875 43.53125 35.828125 
Q 39.65625 40.375 33.015625 40.375 
z
M 52.59375 71.296875 
L 52.59375 62.3125 
Q 48.875 64.0625 45.09375 64.984375 
Q 41.3125 65.921875 37.59375 65.921875 
Q 27.828125 65.921875 22.671875 59.328125 
Q 17.53125 52.734375 16.796875 39.40625 
Q 19.671875 43.65625 24.015625 45.921875 
Q 28.375 48.1875 33.59375 48.1875 
Q 44.578125 48.1875 50.953125 41.515625 
Q 57.328125 34.859375 57.328125 23.390625 
Q 57.328125 12.15625 50.6875 5.359375 
Q 44.046875 -1.421875 33.015625 -1.421875 
Q 20.359375 -1.421875 13.671875 8.265625 
Q 6.984375 17.96875 6.984375 36.375 
Q 6.984375 53.65625 15.1875 63.9375 
Q 23.390625 74.21875 37.203125 74.21875 
Q 40.921875 74.21875 44.703125 73.484375 
Q 48.484375 72.75 52.59375 71.296875 
z
" id="DejaVuSans-36"/>
      </defs>
      <g transform="translate(323.413928 242.738437)scale(0.1 -0.1)">
       <use xlink:href="#DejaVuSans-36"/>
       <use x="63.623047" xlink:href="#DejaVuSans-30"/>
       <use x="127.246094" xlink:href="#DejaVuSans-30"/>
      </g>
     </g>
    </g>
   </g>
   <g id="matplotlib.axis_2">
    <g id="ytick_1">
     <g id="line2d_8">
      <defs>
       <path d="M 0 0 
L -3.5 0 
" id="mc2b56bedfc" style="stroke:#000000;stroke-width:0.8;"/>
      </defs>
      <g>
       <use style="stroke:#000000;stroke-width:0.8;" x="33.2875" xlink:href="#mc2b56bedfc" y="202.703918"/>
      </g>
     </g>
     <g id="text_8">
      <!-- 50 -->
      <g transform="translate(13.5625 206.503136)scale(0.1 -0.1)">
       <use xlink:href="#DejaVuSans-35"/>
       <use x="63.623047" xlink:href="#DejaVuSans-30"/>
      </g>
     </g>
    </g>
    <g id="ytick_2">
     <g id="line2d_9">
      <g>
       <use style="stroke:#000000;stroke-width:0.8;" x="33.2875" xlink:href="#mc2b56bedfc" y="159.000117"/>
      </g>
     </g>
     <g id="text_9">
      <!-- 100 -->
      <g transform="translate(7.2 162.799335)scale(0.1 -0.1)">
       <use xlink:href="#DejaVuSans-31"/>
       <use x="63.623047" xlink:href="#DejaVuSans-30"/>
       <use x="127.246094" xlink:href="#DejaVuSans-30"/>
      </g>
     </g>
    </g>
    <g id="ytick_3">
     <g id="line2d_10">
      <g>
       <use style="stroke:#000000;stroke-width:0.8;" x="33.2875" xlink:href="#mc2b56bedfc" y="115.296316"/>
      </g>
     </g>
     <g id="text_10">
      <!-- 150 -->
      <g transform="translate(7.2 119.095534)scale(0.1 -0.1)">
       <use xlink:href="#DejaVuSans-31"/>
       <use x="63.623047" xlink:href="#DejaVuSans-35"/>
       <use x="127.246094" xlink:href="#DejaVuSans-30"/>
      </g>
     </g>
    </g>
    <g id="ytick_4">
     <g id="line2d_11">
      <g>
       <use style="stroke:#000000;stroke-width:0.8;" x="33.2875" xlink:href="#mc2b56bedfc" y="71.592515"/>
      </g>
     </g>
     <g id="text_11">
      <!-- 200 -->
      <g transform="translate(7.2 75.391733)scale(0.1 -0.1)">
       <use xlink:href="#DejaVuSans-32"/>
       <use x="63.623047" xlink:href="#DejaVuSans-30"/>
       <use x="127.246094" xlink:href="#DejaVuSans-30"/>
      </g>
     </g>
    </g>
    <g id="ytick_5">
     <g id="line2d_12">
      <g>
       <use style="stroke:#000000;stroke-width:0.8;" x="33.2875" xlink:href="#mc2b56bedfc" y="27.888713"/>
      </g>
     </g>
     <g id="text_12">
      <!-- 250 -->
      <g transform="translate(7.2 31.687932)scale(0.1 -0.1)">
       <use xlink:href="#DejaVuSans-32"/>
       <use x="63.623047" xlink:href="#DejaVuSans-35"/>
       <use x="127.246094" xlink:href="#DejaVuSans-30"/>
      </g>
     </g>
    </g>
   </g>
   <g id="line2d_13">
    <path clip-path="url(#pf8e90b4d3c)" d="M 48.505682 218.256364 
L 48.979768 89.277389 
L 49.453855 31.764296 
L 49.927942 32.169832 
L 50.402028 156.267593 
L 50.876115 32.651521 
L 51.350202 157.422444 
L 52.298375 157.353741 
L 52.772462 35.436451 
L 53.246548 35.842485 
L 53.720635 160.787477 
L 54.194722 40.981016 
L 54.668808 41.601933 
L 55.142895 159.988074 
L 55.616982 159.553145 
L 56.091068 160.734088 
L 56.565155 160.026141 
L 57.039242 42.749394 
L 57.513328 42.824361 
L 57.987415 161.574599 
L 58.461502 43.553656 
L 58.935588 161.316605 
L 59.409675 43.36001 
L 59.883762 44.074544 
L 60.357848 44.101695 
L 60.831935 160.872062 
L 61.306022 42.861536 
L 61.780108 42.657949 
L 62.254195 160.924067 
L 62.728282 161.306598 
L 63.202368 160.430578 
L 63.676455 35.372711 
L 64.150542 32.87796 
L 64.624628 28.982472 
L 65.098715 28.242931 
L 65.572802 156.640452 
L 66.046888 33.415586 
L 66.520975 157.878616 
L 66.995062 145.331984 
L 67.469148 144.619884 
L 67.943235 25.445692 
L 68.417322 27.000883 
L 68.891408 142.420254 
L 69.365495 22.807831 
L 69.839582 146.547641 
L 70.313668 146.465544 
L 70.787755 26.367279 
L 71.261842 26.367279 
L 71.735928 145.601547 
L 72.210015 25.429804 
L 72.684102 29.66205 
L 73.158188 29.71463 
L 73.632275 146.408455 
L 74.106362 26.970938 
L 74.580448 28.839428 
L 75.054535 28.063791 
L 75.528621 27.533393 
L 76.002708 145.305831 
L 76.476795 141.993859 
L 76.950881 144.434507 
L 77.424968 23.439743 
L 77.899055 22.355208 
L 78.373141 23.927004 
L 78.847228 24.202161 
L 79.321315 23.919587 
L 79.795401 142.538426 
L 80.269488 20.583636 
L 80.743575 139.899984 
L 81.217661 23.247124 
L 81.691748 143.040108 
L 82.165835 148.695167 
L 83.114008 148.728051 
L 83.588095 30.812213 
L 84.062181 32.030351 
L 84.536268 34.814946 
L 85.010355 35.709958 
L 85.484441 151.146945 
L 85.958528 151.89936 
L 86.432615 38.245986 
L 86.906701 37.917848 
L 87.380788 38.283457 
L 87.854875 38.33288 
L 88.328961 149.105782 
L 88.803048 37.29795 
L 89.277135 149.923776 
L 89.751221 38.527356 
L 90.225308 152.183621 
L 90.699395 152.730088 
L 91.173481 154.222488 
L 91.647568 41.942877 
L 92.121655 154.977444 
L 92.595741 42.866397 
L 93.069828 43.766186 
L 93.543915 41.55391 
L 94.018001 38.127117 
L 94.492088 150.372854 
L 94.966175 37.236743 
L 95.440261 37.043131 
L 95.914348 36.429642 
L 96.388435 148.25034 
L 96.862521 147.452237 
L 97.810695 148.378268 
L 98.284781 147.461811 
L 98.758868 33.364818 
L 99.232955 146.642977 
L 99.707041 30.84116 
L 100.181128 30.375001 
L 100.655215 145.02567 
L 101.603388 143.852076 
L 102.077475 28.281404 
L 102.551561 29.660375 
L 103.025648 29.592426 
L 103.499734 144.127153 
L 104.447908 143.10506 
L 104.921994 142.877224 
L 105.396081 23.133534 
L 105.870168 23.160175 
L 106.344254 143.677456 
L 106.818341 143.69724 
L 107.292428 143.896151 
L 107.766514 145.983915 
L 108.240601 153.928448 
L 108.714688 156.124339 
L 109.188774 33.698534 
L 109.662861 35.173201 
L 110.611034 35.922856 
L 111.085121 158.599089 
L 111.559208 36.011447 
L 112.033294 32.90182 
L 112.507381 32.493171 
L 112.981468 153.971049 
L 113.455554 151.406793 
L 113.929641 152.09811 
L 114.403728 27.969703 
L 114.877814 28.08562 
L 115.351901 28.654259 
L 115.825988 152.377487 
L 116.300074 152.471057 
L 116.774161 152.684675 
L 117.248248 25.890378 
L 117.722334 150.587735 
L 118.196421 151.19885 
L 118.670508 26.297234 
L 119.144594 26.251334 
L 119.618681 24.880484 
L 120.092768 24.711556 
L 120.566854 87.565594 
L 121.040941 211.421085 
L 121.515028 214.143774 
L 121.989114 86.430195 
L 122.463201 210.501701 
L 122.937288 176.863723 
L 123.411374 170.437786 
L 123.885461 154.934546 
L 124.359548 32.916295 
L 124.833634 32.218462 
L 125.307721 34.332485 
L 125.781808 35.392262 
L 126.255894 34.238984 
L 126.729981 36.238434 
L 127.204068 152.258207 
L 127.678154 31.182642 
L 128.152241 32.657293 
L 128.626328 33.0517 
L 129.100414 32.872736 
L 129.574501 157.663988 
L 130.048588 34.838886 
L 130.522674 35.443047 
L 130.996761 36.256756 
L 131.470847 37.749643 
L 131.944934 38.446921 
L 132.419021 43.039435 
L 132.893107 43.764339 
L 133.367194 168.545843 
L 133.841281 42.671524 
L 134.315367 39.386022 
L 134.789454 164.059273 
L 135.263541 39.456547 
L 135.737627 160.236146 
L 136.211714 33.594295 
L 136.685801 33.822619 
L 137.159887 156.738041 
L 137.633974 32.935495 
L 138.108061 155.038584 
L 138.582147 154.539667 
L 139.056234 31.493588 
L 139.530321 31.250786 
L 140.004407 151.981934 
L 140.478494 151.941975 
L 140.952581 32.59661 
L 141.900754 38.611591 
L 142.374841 154.346763 
L 142.848927 155.197854 
L 143.323014 154.782285 
L 143.797101 154.842548 
L 144.271187 155.062425 
L 144.745274 154.319506 
L 145.219361 36.85487 
L 145.693447 153.500506 
L 146.167534 153.677108 
L 146.641621 153.017614 
L 147.115707 152.61985 
L 147.589794 152.617569 
L 148.063881 31.965296 
L 148.537967 34.473121 
L 149.012054 150.888844 
L 149.486141 32.891252 
L 149.960227 152.591465 
L 150.434314 34.667582 
L 150.908401 151.933645 
L 151.382487 147.557871 
L 151.856574 147.160206 
L 152.330661 26.266957 
L 153.278834 28.132781 
L 153.752921 156.133056 
L 154.227007 33.747951 
L 154.701094 34.654563 
L 155.175181 32.466594 
L 155.649267 158.150232 
L 156.123354 33.65889 
L 156.597441 33.966058 
L 157.071527 159.388501 
L 157.545614 34.649259 
L 158.019701 35.183328 
L 158.493787 36.437611 
L 158.967874 38.149591 
L 159.44196 39.444568 
L 159.916047 165.38403 
L 160.390134 165.515772 
L 160.86422 165.848963 
L 161.338307 40.629746 
L 161.812394 165.310887 
L 162.28648 39.016867 
L 162.760567 39.102179 
L 163.234654 36.851217 
L 163.70874 36.91179 
L 164.182827 160.406278 
L 164.656914 157.72772 
L 165.131 34.086467 
L 165.605087 161.551407 
L 166.079174 161.825698 
L 166.55326 37.240523 
L 167.027347 36.702666 
L 167.501434 164.174537 
L 167.97552 165.58612 
L 168.449607 40.378748 
L 168.923694 165.904937 
L 169.39778 165.963039 
L 169.871867 166.333147 
L 170.345954 166.550218 
L 170.82004 166.603332 
L 171.294127 167.489109 
L 171.768214 42.345335 
L 172.2423 41.973141 
L 172.716387 166.977049 
L 173.190474 40.872947 
L 173.66456 40.297004 
L 174.138647 163.158137 
L 174.612734 38.370715 
L 175.08682 159.910399 
L 175.560907 159.843735 
L 176.034994 36.235599 
L 176.50908 162.024563 
L 176.983167 37.640551 
L 177.457254 39.077145 
L 177.93134 165.449352 
L 178.405427 41.544195 
L 178.879514 167.091541 
L 179.3536 167.875551 
L 179.827687 48.681425 
L 180.301774 49.489642 
L 180.77586 49.815896 
L 181.249947 49.664371 
L 181.724034 48.141188 
L 182.19812 169.712939 
L 182.672207 167.193421 
L 183.146294 46.040399 
L 183.62038 162.509305 
L 184.094467 42.071228 
L 184.568554 210.459383 
L 185.04264 45.281402 
L 185.516727 46.200783 
L 185.990814 210.782926 
L 186.4649 212.594983 
L 186.938987 50.165713 
L 187.413073 210.743596 
L 187.88716 44.333075 
L 188.835333 44.051625 
L 189.30942 43.47899 
L 189.783507 209.171668 
L 190.257593 41.244052 
L 190.73168 204.88874 
L 191.205767 205.703827 
L 191.679853 38.725527 
L 192.15394 40.024703 
L 192.628027 40.284703 
L 193.102113 39.690268 
L 193.5762 207.593132 
L 194.050287 40.966344 
L 194.524373 40.705687 
L 194.99846 207.104805 
L 195.472547 42.443638 
L 195.946633 41.757326 
L 196.42072 41.685213 
L 196.894807 42.347581 
L 197.368893 214.672739 
L 197.84298 214.270117 
L 198.317067 43.995509 
L 198.791153 42.155578 
L 199.26524 44.851569 
L 199.739327 42.974153 
L 200.213413 42.575852 
L 200.6875 44.166001 
L 201.161587 211.537781 
L 201.635673 46.403686 
L 202.10976 42.382659 
L 202.583847 47.056099 
L 203.057933 44.280265 
L 203.53202 212.213467 
L 204.006107 48.086027 
L 204.480193 209.735045 
L 204.95428 47.738392 
L 205.428367 210.98477 
L 205.902453 208.650366 
L 206.37654 208.587387 
L 206.850627 43.611263 
L 207.324713 43.339541 
L 207.7988 207.780876 
L 208.272887 40.621022 
L 208.746973 40.311603 
L 209.22106 206.062411 
L 209.695147 43.206487 
L 210.169233 202.664426 
L 210.64332 202.595143 
L 211.117407 41.477127 
L 211.591493 39.424376 
L 212.06558 33.886234 
L 212.539667 39.152436 
L 213.013753 39.576021 
L 213.48784 39.498933 
L 213.961927 204.590968 
L 214.436013 204.799313 
L 214.9101 39.741006 
L 215.384186 206.491239 
L 215.858273 40.893467 
L 216.33236 209.202664 
L 216.806446 41.96102 
L 217.280533 209.576744 
L 217.75462 42.207796 
L 218.228706 209.807199 
L 218.702793 42.806836 
L 219.17688 209.878136 
L 219.650966 42.494913 
L 220.125053 42.632027 
L 220.59914 209.906383 
L 221.073226 209.966715 
L 221.547313 42.699131 
L 222.0214 42.85341 
L 222.969573 42.680811 
L 223.44366 210.29399 
L 224.391833 209.948373 
L 224.86592 42.510137 
L 225.340006 210.003213 
L 225.814093 211.107706 
L 226.28818 43.931088 
L 226.762266 211.38289 
L 227.236353 211.836493 
L 227.71044 44.106624 
L 228.658613 44.448386 
L 229.1327 45.429338 
L 229.606786 212.450118 
L 230.080873 44.562626 
L 230.55496 45.985054 
L 231.029046 45.702746 
L 231.503133 45.007377 
L 231.97722 212.327047 
L 232.451306 44.644749 
L 232.925393 45.477311 
L 233.39948 42.216657 
L 233.873566 211.869989 
L 234.347653 45.536409 
L 234.82174 44.966266 
L 235.295826 44.803814 
L 235.769913 212.006192 
L 236.244 48.165401 
L 236.718086 47.724086 
L 237.192173 212.568331 
L 237.66626 213.063924 
L 238.140346 47.815473 
L 238.614433 213.527353 
L 239.08852 213.527353 
L 239.562606 48.176469 
L 240.036693 213.828477 
L 240.51078 213.81816 
L 240.984866 213.327088 
L 241.458953 213.160987 
L 241.93304 45.476405 
L 242.407126 44.696254 
L 242.881213 41.800114 
L 243.355299 209.738484 
L 243.829386 42.239183 
L 244.303473 210.483619 
L 244.777559 210.723142 
L 245.251646 44.057515 
L 245.725733 44.426225 
L 246.199819 212.528618 
L 246.673906 212.448091 
L 247.147993 212.105942 
L 247.622079 46.564424 
L 248.096166 48.954327 
L 248.570253 203.283426 
L 249.044339 49.635423 
L 249.518426 200.553037 
L 249.992513 200.134081 
L 250.466599 191.295856 
L 250.940686 45.234741 
L 251.414773 45.066987 
L 251.888859 188.321832 
L 252.362946 44.278154 
L 252.837033 44.262279 
L 253.311119 45.118316 
L 253.785206 190.207551 
L 254.259293 190.24352 
L 254.733379 45.521905 
L 255.207466 190.246923 
L 255.681553 50.547253 
L 256.155639 194.89319 
L 256.629726 195.203796 
L 257.103813 50.572961 
L 257.577899 50.732921 
L 258.051986 199.544118 
L 258.526073 49.804374 
L 259.000159 202.414594 
L 259.474246 49.24466 
L 259.948333 202.61084 
L 260.422419 202.585727 
L 260.896506 49.138496 
L 261.370593 201.046205 
L 261.844679 50.368601 
L 262.318766 50.233375 
L 262.792853 210.745953 
L 263.266939 211.250951 
L 263.741026 50.271857 
L 264.215113 210.050674 
L 264.689199 209.741193 
L 265.163286 208.397369 
L 265.637373 208.525623 
L 266.111459 49.559026 
L 266.585546 49.549808 
L 267.059633 204.786735 
L 267.533719 203.56114 
L 268.007806 48.883278 
L 268.481893 47.735906 
L 268.955979 191.377986 
L 269.430066 189.031368 
L 269.904153 187.936018 
L 270.378239 43.718505 
L 270.852326 187.259887 
L 271.326412 185.955329 
L 271.800499 39.898403 
L 272.274586 183.037147 
L 272.748672 182.737235 
L 273.222759 182.761718 
L 273.696846 36.672982 
L 274.170932 36.232418 
L 274.645019 181.051318 
L 275.119106 181.032675 
L 275.593192 34.629266 
L 276.067279 34.34208 
L 276.541366 32.76033 
L 277.015452 32.622566 
L 277.489539 183.248967 
L 277.963626 34.021185 
L 278.437712 181.434643 
L 278.911799 34.972156 
L 279.385886 35.319771 
L 279.859972 182.17211 
L 280.334059 35.520181 
L 280.808146 35.161772 
L 281.282232 36.203466 
L 281.756319 34.752182 
L 282.230406 34.814061 
L 282.704492 181.571955 
L 283.178579 181.414005 
L 284.126752 181.41542 
L 284.600839 35.979912 
L 285.074926 36.210602 
L 285.549012 181.429998 
L 286.023099 181.472694 
L 286.497186 181.39397 
L 286.971272 36.661872 
L 287.445359 181.522188 
L 287.919446 37.2696 
L 288.393532 181.541737 
L 288.867619 181.134599 
L 289.341706 37.783277 
L 289.815792 182.319104 
L 290.763966 182.158315 
L 291.238052 36.858655 
L 291.712139 182.27162 
L 292.186226 37.131722 
L 292.660312 181.870595 
L 293.134399 181.807587 
L 293.608486 38.097779 
L 294.082572 186.657218 
L 294.556659 43.677002 
L 295.030746 43.544447 
L 295.504832 189.871754 
L 295.978919 189.930773 
L 296.453006 47.173138 
L 296.927092 48.867981 
L 297.401179 48.529938 
L 297.875266 195.430948 
L 298.349352 46.967811 
L 299.297525 46.510603 
L 299.771612 44.056666 
L 300.245699 43.892736 
L 300.719785 184.856752 
L 301.193872 183.33152 
L 301.667959 183.866495 
L 302.142045 39.815893 
L 302.616132 38.694518 
L 303.090219 182.889089 
L 303.564305 182.636699 
L 304.038392 182.724573 
L 304.512479 182.689195 
L 304.986565 39.225278 
L 305.460652 38.50062 
L 305.934739 39.394609 
L 306.408825 38.862569 
L 306.882912 182.422309 
L 307.356999 182.403685 
L 307.831085 182.520829 
L 308.305172 38.43718 
L 308.779259 183.697774 
L 309.253345 183.657948 
L 309.727432 38.49531 
L 310.201519 183.744027 
L 311.149692 182.961957 
L 311.623779 38.243509 
L 312.571952 37.549611 
L 313.046039 180.220768 
L 313.520125 180.087867 
L 313.994212 36.312533 
L 314.468299 34.781248 
L 314.942385 180.45499 
L 315.416472 32.983817 
L 315.890559 32.832875 
L 316.364645 183.499926 
L 316.838732 183.728423 
L 317.312819 188.757054 
L 317.786905 189.780948 
L 318.260992 189.72222 
L 318.735079 33.663397 
L 319.209165 187.238967 
L 319.683252 186.83163 
L 320.157339 186.625646 
L 320.631425 33.30995 
L 321.105512 182.285678 
L 321.579599 34.766579 
L 322.053685 181.896996 
L 322.527772 182.022007 
L 323.001859 40.174821 
L 323.475945 182.88109 
L 323.950032 39.948422 
L 324.424119 38.920034 
L 324.898205 35.461427 
L 325.372292 183.029732 
L 325.846379 184.060176 
L 326.320465 34.066425 
L 326.794552 34.050588 
L 327.268638 189.168818 
L 327.742725 34.598087 
L 328.216812 34.693858 
L 328.690898 188.225828 
L 329.164985 187.268932 
L 329.639072 187.411925 
L 330.113158 187.771027 
L 330.587245 36.915741 
L 331.061332 37.039154 
L 331.535418 175.436621 
L 332.009505 176.681814 
L 332.483592 56.449575 
L 332.957678 54.761022 
L 333.431765 179.142074 
L 333.905852 54.862619 
L 334.379938 54.857593 
L 334.854025 178.954983 
L 335.328112 54.904977 
L 335.802198 179.165074 
L 336.276285 53.769488 
L 336.750372 179.0743 
L 337.224458 54.565156 
L 337.698545 178.910649 
L 338.172632 54.342824 
L 338.646718 56.964443 
L 339.120805 98.153655 
L 339.594892 96.756076 
L 340.068978 95.872744 
L 341.017152 90.03129 
L 341.491238 89.292626 
L 341.965325 89.018225 
L 342.439412 89.044368 
L 342.913498 89.268637 
L 343.387585 89.022643 
L 343.861672 88.905865 
L 344.335758 89.125784 
L 344.809845 89.993335 
L 345.283932 89.791951 
L 345.758018 89.310456 
L 346.232105 88.455862 
L 347.180278 87.936844 
L 347.654365 87.875242 
L 348.128452 87.691872 
L 350.498885 88.181851 
L 351.447058 89.053908 
L 352.395232 89.54039 
L 352.869318 89.332245 
L 352.869318 89.332245 
" style="fill:none;stroke:#1f77b4;stroke-linecap:square;stroke-width:1.5;"/>
   </g>
   <g id="patch_3">
    <path d="M 33.2875 228.14 
L 33.2875 10.7 
" style="fill:none;stroke:#000000;stroke-linecap:square;stroke-linejoin:miter;stroke-width:0.8;"/>
   </g>
   <g id="patch_4">
    <path d="M 368.0875 228.14 
L 368.0875 10.7 
" style="fill:none;stroke:#000000;stroke-linecap:square;stroke-linejoin:miter;stroke-width:0.8;"/>
   </g>
   <g id="patch_5">
    <path d="M 33.2875 228.14 
L 368.0875 228.14 
" style="fill:none;stroke:#000000;stroke-linecap:square;stroke-linejoin:miter;stroke-width:0.8;"/>
   </g>
   <g id="patch_6">
    <path d="M 33.2875 10.7 
L 368.0875 10.7 
" style="fill:none;stroke:#000000;stroke-linecap:square;stroke-linejoin:miter;stroke-width:0.8;"/>
   </g>
  </g>
 </g>
 <defs>
  <clipPath id="pf8e90b4d3c">
   <rect height="217.44" width="334.8" x="33.2875" y="10.7"/>
  </clipPath>
 </defs>
</svg>
