<?xml version="1.0" encoding="utf-8" standalone="no"?>
<!DOCTYPE svg PUBLIC "-//W3C//DTD SVG 1.1//EN"
  "http://www.w3.org/Graphics/SVG/1.1/DTD/svg11.dtd">
<!-- Created with matplotlib (http://matplotlib.org/) -->
<svg height="300.690125pt" version="1.1" viewBox="0 0 401.1075 300.690125" width="401.1075pt" xmlns="http://www.w3.org/2000/svg" xmlns:xlink="http://www.w3.org/1999/xlink">
 <defs>
  <style type="text/css">
*{stroke-linecap:butt;stroke-linejoin:round;}
  </style>
 </defs>
 <g id="figure_1">
  <g id="patch_1">
   <path d="M 0 300.690125 
L 401.1075 300.690125 
L 401.1075 0 
L 0 0 
z
" style="fill:#ffffff;"/>
  </g>
  <g id="axes_1">
   <g id="patch_2">
    <path d="M 33.2875 276.812 
L 390.4075 276.812 
L 390.4075 10.7 
L 33.2875 10.7 
z
" style="fill:#ffffff;"/>
   </g>
   <g id="matplotlib.axis_1">
    <g id="xtick_1">
     <g id="line2d_1">
      <defs>
       <path d="M 0 0 
L 0 3.5 
" id="m105c173ad5" style="stroke:#000000;stroke-width:0.8;"/>
      </defs>
      <g>
       <use style="stroke:#000000;stroke-width:0.8;" x="49.520227" xlink:href="#m105c173ad5" y="276.812"/>
      </g>
     </g>
     <g id="text_1">
      <!-- 0 -->
      <defs>
       <path d="M 31.78125 66.40625 
Q 24.171875 66.40625 20.328125 58.90625 
Q 16.5 51.421875 16.5 36.375 
Q 16.5 21.390625 20.328125 13.890625 
Q 24.171875 6.390625 31.78125 6.390625 
Q 39.453125 6.390625 43.28125 13.890625 
Q 47.125 21.390625 47.125 36.375 
Q 47.125 51.421875 43.28125 58.90625 
Q 39.453125 66.40625 31.78125 66.40625 
z
M 31.78125 74.21875 
Q 44.046875 74.21875 50.515625 64.515625 
Q 56.984375 54.828125 56.984375 36.375 
Q 56.984375 17.96875 50.515625 8.265625 
Q 44.046875 -1.421875 31.78125 -1.421875 
Q 19.53125 -1.421875 13.0625 8.265625 
Q 6.59375 17.96875 6.59375 36.375 
Q 6.59375 54.828125 13.0625 64.515625 
Q 19.53125 74.21875 31.78125 74.21875 
z
" id="DejaVuSans-30"/>
      </defs>
      <g transform="translate(46.338977 291.410437)scale(0.1 -0.1)">
       <use xlink:href="#DejaVuSans-30"/>
      </g>
     </g>
    </g>
    <g id="xtick_2">
     <g id="line2d_2">
      <g>
       <use style="stroke:#000000;stroke-width:0.8;" x="100.089471" xlink:href="#m105c173ad5" y="276.812"/>
      </g>
     </g>
     <g id="text_2">
      <!-- 100 -->
      <defs>
       <path d="M 12.40625 8.296875 
L 28.515625 8.296875 
L 28.515625 63.921875 
L 10.984375 60.40625 
L 10.984375 69.390625 
L 28.421875 72.90625 
L 38.28125 72.90625 
L 38.28125 8.296875 
L 54.390625 8.296875 
L 54.390625 0 
L 12.40625 0 
z
" id="DejaVuSans-31"/>
      </defs>
      <g transform="translate(90.545721 291.410437)scale(0.1 -0.1)">
       <use xlink:href="#DejaVuSans-31"/>
       <use x="63.623047" xlink:href="#DejaVuSans-30"/>
       <use x="127.246094" xlink:href="#DejaVuSans-30"/>
      </g>
     </g>
    </g>
    <g id="xtick_3">
     <g id="line2d_3">
      <g>
       <use style="stroke:#000000;stroke-width:0.8;" x="150.658715" xlink:href="#m105c173ad5" y="276.812"/>
      </g>
     </g>
     <g id="text_3">
      <!-- 200 -->
      <defs>
       <path d="M 19.1875 8.296875 
L 53.609375 8.296875 
L 53.609375 0 
L 7.328125 0 
L 7.328125 8.296875 
Q 12.9375 14.109375 22.625 23.890625 
Q 32.328125 33.6875 34.8125 36.53125 
Q 39.546875 41.84375 41.421875 45.53125 
Q 43.3125 49.21875 43.3125 52.78125 
Q 43.3125 58.59375 39.234375 62.25 
Q 35.15625 65.921875 28.609375 65.921875 
Q 23.96875 65.921875 18.8125 64.3125 
Q 13.671875 62.703125 7.8125 59.421875 
L 7.8125 69.390625 
Q 13.765625 71.78125 18.9375 73 
Q 24.125 74.21875 28.421875 74.21875 
Q 39.75 74.21875 46.484375 68.546875 
Q 53.21875 62.890625 53.21875 53.421875 
Q 53.21875 48.921875 51.53125 44.890625 
Q 49.859375 40.875 45.40625 35.40625 
Q 44.1875 33.984375 37.640625 27.21875 
Q 31.109375 20.453125 19.1875 8.296875 
z
" id="DejaVuSans-32"/>
      </defs>
      <g transform="translate(141.114965 291.410437)scale(0.1 -0.1)">
       <use xlink:href="#DejaVuSans-32"/>
       <use x="63.623047" xlink:href="#DejaVuSans-30"/>
       <use x="127.246094" xlink:href="#DejaVuSans-30"/>
      </g>
     </g>
    </g>
    <g id="xtick_4">
     <g id="line2d_4">
      <g>
       <use style="stroke:#000000;stroke-width:0.8;" x="201.227959" xlink:href="#m105c173ad5" y="276.812"/>
      </g>
     </g>
     <g id="text_4">
      <!-- 300 -->
      <defs>
       <path d="M 40.578125 39.3125 
Q 47.65625 37.796875 51.625 33 
Q 55.609375 28.21875 55.609375 21.1875 
Q 55.609375 10.40625 48.1875 4.484375 
Q 40.765625 -1.421875 27.09375 -1.421875 
Q 22.515625 -1.421875 17.65625 -0.515625 
Q 12.796875 0.390625 7.625 2.203125 
L 7.625 11.71875 
Q 11.71875 9.328125 16.59375 8.109375 
Q 21.484375 6.890625 26.8125 6.890625 
Q 36.078125 6.890625 40.9375 10.546875 
Q 45.796875 14.203125 45.796875 21.1875 
Q 45.796875 27.640625 41.28125 31.265625 
Q 36.765625 34.90625 28.71875 34.90625 
L 20.21875 34.90625 
L 20.21875 43.015625 
L 29.109375 43.015625 
Q 36.375 43.015625 40.234375 45.921875 
Q 44.09375 48.828125 44.09375 54.296875 
Q 44.09375 59.90625 40.109375 62.90625 
Q 36.140625 65.921875 28.71875 65.921875 
Q 24.65625 65.921875 20.015625 65.03125 
Q 15.375 64.15625 9.8125 62.3125 
L 9.8125 71.09375 
Q 15.4375 72.65625 20.34375 73.4375 
Q 25.25 74.21875 29.59375 74.21875 
Q 40.828125 74.21875 47.359375 69.109375 
Q 53.90625 64.015625 53.90625 55.328125 
Q 53.90625 49.265625 50.4375 45.09375 
Q 46.96875 40.921875 40.578125 39.3125 
z
" id="DejaVuSans-33"/>
      </defs>
      <g transform="translate(191.684209 291.410437)scale(0.1 -0.1)">
       <use xlink:href="#DejaVuSans-33"/>
       <use x="63.623047" xlink:href="#DejaVuSans-30"/>
       <use x="127.246094" xlink:href="#DejaVuSans-30"/>
      </g>
     </g>
    </g>
    <g id="xtick_5">
     <g id="line2d_5">
      <g>
       <use style="stroke:#000000;stroke-width:0.8;" x="251.797203" xlink:href="#m105c173ad5" y="276.812"/>
      </g>
     </g>
     <g id="text_5">
      <!-- 400 -->
      <defs>
       <path d="M 37.796875 64.3125 
L 12.890625 25.390625 
L 37.796875 25.390625 
z
M 35.203125 72.90625 
L 47.609375 72.90625 
L 47.609375 25.390625 
L 58.015625 25.390625 
L 58.015625 17.1875 
L 47.609375 17.1875 
L 47.609375 0 
L 37.796875 0 
L 37.796875 17.1875 
L 4.890625 17.1875 
L 4.890625 26.703125 
z
" id="DejaVuSans-34"/>
      </defs>
      <g transform="translate(242.253453 291.410437)scale(0.1 -0.1)">
       <use xlink:href="#DejaVuSans-34"/>
       <use x="63.623047" xlink:href="#DejaVuSans-30"/>
       <use x="127.246094" xlink:href="#DejaVuSans-30"/>
      </g>
     </g>
    </g>
    <g id="xtick_6">
     <g id="line2d_6">
      <g>
       <use style="stroke:#000000;stroke-width:0.8;" x="302.366446" xlink:href="#m105c173ad5" y="276.812"/>
      </g>
     </g>
     <g id="text_6">
      <!-- 500 -->
      <defs>
       <path d="M 10.796875 72.90625 
L 49.515625 72.90625 
L 49.515625 64.59375 
L 19.828125 64.59375 
L 19.828125 46.734375 
Q 21.96875 47.46875 24.109375 47.828125 
Q 26.265625 48.1875 28.421875 48.1875 
Q 40.625 48.1875 47.75 41.5 
Q 54.890625 34.8125 54.890625 23.390625 
Q 54.890625 11.625 47.5625 5.09375 
Q 40.234375 -1.421875 26.90625 -1.421875 
Q 22.3125 -1.421875 17.546875 -0.640625 
Q 12.796875 0.140625 7.71875 1.703125 
L 7.71875 11.625 
Q 12.109375 9.234375 16.796875 8.0625 
Q 21.484375 6.890625 26.703125 6.890625 
Q 35.15625 6.890625 40.078125 11.328125 
Q 45.015625 15.765625 45.015625 23.390625 
Q 45.015625 31 40.078125 35.4375 
Q 35.15625 39.890625 26.703125 39.890625 
Q 22.75 39.890625 18.8125 39.015625 
Q 14.890625 38.140625 10.796875 36.28125 
z
" id="DejaVuSans-35"/>
      </defs>
      <g transform="translate(292.822696 291.410437)scale(0.1 -0.1)">
       <use xlink:href="#DejaVuSans-35"/>
       <use x="63.623047" xlink:href="#DejaVuSans-30"/>
       <use x="127.246094" xlink:href="#DejaVuSans-30"/>
      </g>
     </g>
    </g>
    <g id="xtick_7">
     <g id="line2d_7">
      <g>
       <use style="stroke:#000000;stroke-width:0.8;" x="352.93569" xlink:href="#m105c173ad5" y="276.812"/>
      </g>
     </g>
     <g id="text_7">
      <!-- 600 -->
      <defs>
       <path d="M 33.015625 40.375 
Q 26.375 40.375 22.484375 35.828125 
Q 18.609375 31.296875 18.609375 23.390625 
Q 18.609375 15.53125 22.484375 10.953125 
Q 26.375 6.390625 33.015625 6.390625 
Q 39.65625 6.390625 43.53125 10.953125 
Q 47.40625 15.53125 47.40625 23.390625 
Q 47.40625 31.296875 43.53125 35.828125 
Q 39.65625 40.375 33.015625 40.375 
z
M 52.59375 71.296875 
L 52.59375 62.3125 
Q 48.875 64.0625 45.09375 64.984375 
Q 41.3125 65.921875 37.59375 65.921875 
Q 27.828125 65.921875 22.671875 59.328125 
Q 17.53125 52.734375 16.796875 39.40625 
Q 19.671875 43.65625 24.015625 45.921875 
Q 28.375 48.1875 33.59375 48.1875 
Q 44.578125 48.1875 50.953125 41.515625 
Q 57.328125 34.859375 57.328125 23.390625 
Q 57.328125 12.15625 50.6875 5.359375 
Q 44.046875 -1.421875 33.015625 -1.421875 
Q 20.359375 -1.421875 13.671875 8.265625 
Q 6.984375 17.96875 6.984375 36.375 
Q 6.984375 53.65625 15.1875 63.9375 
Q 23.390625 74.21875 37.203125 74.21875 
Q 40.921875 74.21875 44.703125 73.484375 
Q 48.484375 72.75 52.59375 71.296875 
z
" id="DejaVuSans-36"/>
      </defs>
      <g transform="translate(343.39194 291.410437)scale(0.1 -0.1)">
       <use xlink:href="#DejaVuSans-36"/>
       <use x="63.623047" xlink:href="#DejaVuSans-30"/>
       <use x="127.246094" xlink:href="#DejaVuSans-30"/>
      </g>
     </g>
    </g>
   </g>
   <g id="matplotlib.axis_2">
    <g id="ytick_1">
     <g id="line2d_8">
      <defs>
       <path d="M 0 0 
L -3.5 0 
" id="me2fbf22518" style="stroke:#000000;stroke-width:0.8;"/>
      </defs>
      <g>
       <use style="stroke:#000000;stroke-width:0.8;" x="33.2875" xlink:href="#me2fbf22518" y="245.682278"/>
      </g>
     </g>
     <g id="text_8">
      <!-- 50 -->
      <g transform="translate(13.5625 249.481497)scale(0.1 -0.1)">
       <use xlink:href="#DejaVuSans-35"/>
       <use x="63.623047" xlink:href="#DejaVuSans-30"/>
      </g>
     </g>
    </g>
    <g id="ytick_2">
     <g id="line2d_9">
      <g>
       <use style="stroke:#000000;stroke-width:0.8;" x="33.2875" xlink:href="#me2fbf22518" y="192.195772"/>
      </g>
     </g>
     <g id="text_9">
      <!-- 100 -->
      <g transform="translate(7.2 195.99499)scale(0.1 -0.1)">
       <use xlink:href="#DejaVuSans-31"/>
       <use x="63.623047" xlink:href="#DejaVuSans-30"/>
       <use x="127.246094" xlink:href="#DejaVuSans-30"/>
      </g>
     </g>
    </g>
    <g id="ytick_3">
     <g id="line2d_10">
      <g>
       <use style="stroke:#000000;stroke-width:0.8;" x="33.2875" xlink:href="#me2fbf22518" y="138.709266"/>
      </g>
     </g>
     <g id="text_10">
      <!-- 150 -->
      <g transform="translate(7.2 142.508484)scale(0.1 -0.1)">
       <use xlink:href="#DejaVuSans-31"/>
       <use x="63.623047" xlink:href="#DejaVuSans-35"/>
       <use x="127.246094" xlink:href="#DejaVuSans-30"/>
      </g>
     </g>
    </g>
    <g id="ytick_4">
     <g id="line2d_11">
      <g>
       <use style="stroke:#000000;stroke-width:0.8;" x="33.2875" xlink:href="#me2fbf22518" y="85.222759"/>
      </g>
     </g>
     <g id="text_11">
      <!-- 200 -->
      <g transform="translate(7.2 89.021978)scale(0.1 -0.1)">
       <use xlink:href="#DejaVuSans-32"/>
       <use x="63.623047" xlink:href="#DejaVuSans-30"/>
       <use x="127.246094" xlink:href="#DejaVuSans-30"/>
      </g>
     </g>
    </g>
    <g id="ytick_5">
     <g id="line2d_12">
      <g>
       <use style="stroke:#000000;stroke-width:0.8;" x="33.2875" xlink:href="#me2fbf22518" y="31.736253"/>
      </g>
     </g>
     <g id="text_12">
      <!-- 250 -->
      <g transform="translate(7.2 35.535472)scale(0.1 -0.1)">
       <use xlink:href="#DejaVuSans-32"/>
       <use x="63.623047" xlink:href="#DejaVuSans-35"/>
       <use x="127.246094" xlink:href="#DejaVuSans-30"/>
      </g>
     </g>
    </g>
   </g>
   <g id="line2d_13">
    <path clip-path="url(#pb4f48c959b)" d="M 49.520227 264.716 
L 50.02592 106.866235 
L 50.531612 36.47935 
L 51.037305 36.975661 
L 51.542997 188.851598 
L 52.048689 37.565173 
L 52.554382 190.264951 
L 53.565767 190.18087 
L 54.071459 40.973484 
L 54.577152 41.470405 
L 55.082844 194.383217 
L 55.588537 47.75915 
L 56.094229 48.519055 
L 56.599921 193.404875 
L 57.105614 192.872591 
L 57.611306 194.317877 
L 58.116999 193.451462 
L 58.622691 49.923364 
L 59.128384 50.015112 
L 59.634076 195.346529 
L 60.139768 50.907653 
L 60.645461 195.030785 
L 61.151153 50.670661 
L 61.656846 51.545138 
L 62.162538 51.578366 
L 62.668231 194.486735 
L 63.173923 50.060608 
L 63.679616 49.811451 
L 64.185308 194.550381 
L 64.691 195.018539 
L 65.196693 193.946429 
L 65.702385 40.895477 
L 66.208078 37.842298 
L 66.71377 33.074841 
L 67.219463 32.16976 
L 67.725155 189.307917 
L 68.230847 38.500267 
L 68.73654 190.823233 
L 69.242232 175.46815 
L 69.747925 174.596652 
L 70.253617 28.746383 
L 70.75931 30.649689 
L 71.265002 171.904655 
L 71.770695 25.518061 
L 72.276387 176.955921 
L 72.782079 176.855447 
L 73.287772 29.874259 
L 73.793464 29.874259 
L 74.299157 175.798052 
L 74.804849 28.72694 
L 75.310542 33.906535 
L 75.816234 33.970885 
L 76.321927 176.785579 
L 76.827619 30.613042 
L 77.333311 32.899776 
L 77.839004 31.950521 
L 78.344696 31.301398 
L 78.850389 175.436143 
L 79.356081 171.382816 
L 79.861774 174.369781 
L 80.367466 26.29142 
L 80.873158 24.964122 
L 81.378851 26.887751 
L 81.884543 27.224499 
L 82.390236 26.878673 
L 82.895928 172.049279 
L 83.401621 22.796 
L 83.907313 168.820245 
L 84.413006 26.055685 
L 84.918698 172.663258 
L 85.42439 179.584152 
L 86.435775 179.624397 
L 86.941468 35.314152 
L 87.44716 36.804959 
L 87.952853 40.212861 
L 88.458545 41.308213 
L 88.964237 182.584738 
L 89.46993 183.505574 
L 89.975622 44.411909 
L 90.481315 44.01032 
L 90.987007 44.457767 
L 91.4927 44.518253 
L 91.998392 180.086679 
L 92.504085 43.251664 
L 93.009777 181.087774 
L 93.515469 44.75626 
L 94.021162 183.853465 
L 94.526854 184.522254 
L 95.032547 186.348714 
L 95.538239 48.936316 
L 96.043932 187.27266 
L 96.549624 50.066557 
L 97.055316 51.167756 
L 97.561009 48.460282 
L 98.066701 44.266432 
L 98.572394 181.637373 
L 99.078086 43.176756 
L 99.583779 42.939806 
L 100.089471 42.188993 
L 100.595164 179.039754 
L 101.100856 178.063003 
L 102.112241 179.196318 
L 102.617933 178.07472 
L 103.123626 38.438135 
L 103.629318 177.072598 
L 104.135011 35.349579 
L 104.640703 34.779074 
L 105.146395 175.09327 
L 106.15778 173.656978 
L 106.663473 32.216844 
L 107.169165 33.904486 
L 107.674858 33.821327 
L 108.18055 173.993628 
L 108.686243 173.26373 
L 109.191935 172.742749 
L 109.697627 172.463913 
L 110.20332 25.91667 
L 110.709012 25.949274 
L 111.214705 173.44327 
L 111.720397 173.467483 
L 112.22609 173.710918 
L 112.731782 176.26601 
L 113.237475 185.988856 
L 113.743167 188.676277 
L 114.248859 38.84655 
L 114.754552 40.651308 
L 115.765937 41.568767 
L 116.271629 191.704977 
L 116.777322 41.677188 
L 117.283014 37.871499 
L 117.788706 37.371377 
L 118.294399 186.040992 
L 118.800091 182.90275 
L 119.305784 183.748813 
L 119.811476 31.835371 
L 120.317169 31.977236 
L 120.822861 32.67316 
L 121.328554 184.090726 
L 121.834246 184.205241 
L 122.339938 184.466675 
L 122.845631 29.290608 
L 123.351323 181.900354 
L 123.857016 182.648262 
L 124.362708 29.788535 
L 124.868401 29.732361 
L 125.374093 28.054659 
L 125.879785 27.847918 
L 126.385478 104.77127 
L 126.89117 256.350706 
L 127.396863 259.682844 
L 127.902555 103.381722 
L 128.408248 255.225526 
L 128.91394 214.057987 
L 129.419633 206.193661 
L 129.925325 187.220159 
L 130.431017 37.889214 
L 130.93671 37.035177 
L 131.442402 39.622406 
L 131.948095 40.919404 
L 132.453787 39.507975 
L 132.95948 41.954984 
L 133.465172 183.944747 
L 133.970864 35.767498 
L 134.476557 37.572237 
L 134.982249 38.054928 
L 135.487942 37.835904 
L 135.993634 190.560563 
L 136.499327 40.24216 
L 137.005019 40.981557 
L 137.510712 41.977408 
L 138.016404 43.804464 
L 138.522096 44.657821 
L 139.027789 50.278329 
L 139.533481 51.165495 
L 140.039174 203.878224 
L 140.544866 49.828063 
L 141.050559 45.807131 
L 141.556251 198.387375 
L 142.061944 45.893443 
L 142.567636 193.708475 
L 143.073328 38.718979 
L 143.579021 38.99841 
L 144.084713 189.42735 
L 144.590406 37.912712 
L 145.096098 187.347486 
L 145.601791 186.73689 
L 146.107483 36.148046 
L 146.613175 35.850895 
L 147.118868 183.606632 
L 147.62456 183.557728 
L 148.130253 37.497971 
L 149.141638 44.859351 
L 149.64733 186.500807 
L 150.153023 187.542406 
L 150.658715 187.033817 
L 151.164407 187.107569 
L 151.6701 187.376663 
L 152.175792 186.467448 
L 152.681485 42.709403 
L 153.187177 185.465123 
L 153.69287 185.681256 
L 154.198562 184.87414 
L 154.704254 184.387339 
L 155.209947 184.384549 
L 155.715639 36.725342 
L 156.221332 39.794522 
L 156.727024 182.268863 
L 157.232717 37.858566 
L 157.738409 184.352601 
L 158.244102 40.032511 
L 158.749794 183.547534 
L 159.255486 178.192282 
L 159.761179 177.705603 
L 160.266871 29.751481 
L 161.278256 32.034953 
L 161.783949 188.686945 
L 162.289641 38.907029 
L 162.795333 40.016577 
L 163.301026 37.338851 
L 163.806718 191.155648 
L 164.312411 38.798032 
L 164.818103 39.173956 
L 165.323796 192.671093 
L 165.829488 40.010086 
L 166.335181 40.663702 
L 166.840873 42.198745 
L 167.346565 44.293937 
L 167.852258 45.878782 
L 168.35795 200.008668 
L 168.863643 200.169899 
L 169.369335 200.577671 
L 169.875028 47.329253 
L 170.38072 199.919152 
L 170.886412 45.355345 
L 171.392105 45.459753 
L 171.897797 42.704934 
L 172.40349 42.779065 
L 172.909182 193.91669 
L 173.414875 190.638561 
L 173.920567 39.321318 
L 174.42626 195.318146 
L 174.931952 195.653835 
L 175.437644 43.181382 
L 175.943337 42.52313 
L 176.449029 198.52844 
L 176.954722 200.255993 
L 177.460414 47.022071 
L 177.966107 200.646175 
L 178.471799 200.717282 
L 178.977492 201.170236 
L 179.483184 201.435896 
L 179.988876 201.5009 
L 180.494569 202.584949 
L 181.000261 49.42886 
L 181.505954 48.973354 
L 182.011646 201.958269 
L 182.517339 47.626892 
L 183.023031 46.922028 
L 183.528723 197.284527 
L 184.034416 44.564557 
L 184.540108 193.309813 
L 185.045801 193.228226 
L 185.551493 41.951514 
L 186.057186 195.897213 
L 186.562878 43.670953 
L 187.068571 45.429115 
L 187.574263 200.088611 
L 188.079955 48.448392 
L 188.585648 202.098389 
L 189.09134 203.057893 
L 189.597033 57.183227 
L 190.102725 58.172357 
L 190.608418 58.57164 
L 191.11411 58.386196 
L 191.619802 56.522063 
L 192.125495 205.306563 
L 192.631187 202.223074 
L 193.13688 53.951031 
L 193.642572 196.490461 
L 194.148265 49.093397 
L 194.653957 255.173735 
L 195.15965 53.022139 
L 195.665342 54.147315 
L 196.171034 255.5697 
L 196.676727 257.78737 
L 197.182419 58.99976 
L 197.688112 255.521566 
L 198.193804 51.861538 
L 198.699497 51.750898 
L 199.205189 51.517088 
L 199.710881 50.816274 
L 200.216574 253.597777 
L 200.722266 48.081065 
L 201.227959 248.356153 
L 201.733651 249.353691 
L 202.239344 44.998791 
L 202.745036 46.588776 
L 203.250729 46.906975 
L 203.756421 46.17948 
L 204.262113 251.665899 
L 204.767806 47.741195 
L 205.273498 47.422192 
L 205.779191 251.068265 
L 206.284883 49.549168 
L 206.790576 48.709231 
L 207.296268 48.620976 
L 207.80196 49.431609 
L 208.307653 260.330213 
L 208.813345 259.837468 
L 209.319038 51.448411 
L 209.82473 49.196628 
L 210.330423 52.496092 
L 210.836115 50.198434 
L 211.341808 49.710976 
L 211.8475 51.657066 
L 212.353192 256.493523 
L 212.858885 54.395637 
L 213.364577 49.474539 
L 213.87027 55.194086 
L 214.375962 51.796907 
L 214.881655 257.320454 
L 215.387347 56.454555 
L 215.89304 254.287261 
L 216.398732 56.029105 
L 216.904424 255.816725 
L 217.410117 252.959785 
L 217.915809 252.882709 
L 218.421502 50.978155 
L 218.927194 50.645611 
L 219.432887 251.895668 
L 219.938579 47.318575 
L 220.444271 46.939895 
L 220.949964 249.79254 
L 221.455656 50.482773 
L 221.961349 245.633946 
L 222.467041 245.549155 
L 222.972734 48.366312 
L 223.478426 45.854071 
L 223.984119 39.076266 
L 224.489811 45.521259 
L 224.995503 46.03966 
L 225.501196 45.945316 
L 226.006888 247.991728 
L 226.512581 248.246709 
L 227.018273 46.241576 
L 227.523966 250.317357 
L 228.029658 47.652005 
L 228.53535 253.635711 
L 229.041043 48.95852 
L 229.546735 254.093525 
L 230.052428 49.260534 
L 230.55812 254.375566 
L 231.063813 49.993665 
L 231.569505 254.462381 
L 232.075198 49.611919 
L 232.58089 49.779726 
L 233.086582 254.496951 
L 233.592275 254.570787 
L 234.097967 49.86185 
L 234.60366 50.050663 
L 235.615045 49.839429 
L 236.120737 254.97132 
L 236.626429 254.68743 
L 237.132122 254.54834 
L 237.637814 49.630552 
L 238.143507 254.615455 
L 238.649199 255.967179 
L 239.154892 51.36957 
L 239.660584 256.303961 
L 240.166277 256.859098 
L 240.671969 51.584398 
L 241.177661 51.863351 
L 241.683354 52.002661 
L 242.189046 53.203189 
L 242.694739 257.610079 
L 243.200431 52.142472 
L 243.706124 53.883298 
L 244.211816 53.537798 
L 244.717508 52.686777 
L 245.223201 257.459459 
L 245.728893 52.242977 
L 246.234586 53.261901 
L 246.740278 49.271379 
L 247.245971 256.900093 
L 247.751663 53.334228 
L 248.257356 52.636463 
L 248.763048 52.437647 
L 249.26874 257.066783 
L 249.774433 56.551696 
L 250.280125 56.011597 
L 250.785818 257.754752 
L 251.29151 258.361279 
L 251.797203 56.12344 
L 252.302895 258.928443 
L 252.808588 258.928443 
L 253.31428 56.565242 
L 253.819972 259.29697 
L 254.325665 259.284344 
L 254.831357 258.68335 
L 255.33705 258.480069 
L 255.842742 53.260793 
L 256.348435 52.306011 
L 256.854127 48.761596 
L 257.359819 254.291469 
L 257.865512 49.298947 
L 258.371204 255.203396 
L 258.876897 255.496534 
L 259.382589 51.524297 
L 259.888282 51.975539 
L 260.393974 257.706149 
L 260.899667 257.607598 
L 261.405359 257.188861 
L 261.911051 54.592355 
L 262.416744 57.517216 
L 262.922436 246.391504 
L 263.428129 58.350769 
L 263.933821 243.049942 
L 264.439514 242.537207 
L 264.945206 231.720624 
L 265.450898 52.965034 
L 265.956591 52.75973 
L 266.462283 228.080891 
L 266.967976 51.794323 
L 267.473668 51.774896 
L 267.979361 52.822548 
L 268.485053 230.388712 
L 268.990746 230.432732 
L 269.496438 53.316477 
L 270.00213 230.436896 
L 270.507823 59.466705 
L 271.013515 236.123189 
L 271.519208 236.503321 
L 272.0249 59.498167 
L 272.530593 59.693933 
L 273.036285 241.815186 
L 273.541977 58.557538 
L 274.04767 245.328192 
L 274.553362 57.872538 
L 275.059055 245.568366 
L 275.564747 245.537632 
L 276.07044 57.742609 
L 276.576132 243.653501 
L 277.081825 59.248063 
L 277.587517 59.082568 
L 278.093209 255.52445 
L 278.598902 256.142488 
L 279.104594 59.129663 
L 279.610287 254.67354 
L 280.115979 254.294785 
L 280.621672 252.650158 
L 281.127364 252.80712 
L 281.633056 58.257272 
L 282.138749 58.245991 
L 282.644441 248.231316 
L 283.150134 246.731382 
L 283.655826 57.430264 
L 284.161519 56.026063 
L 284.667211 231.821138 
L 285.172904 228.949251 
L 285.678596 227.608716 
L 286.184288 51.109402 
L 286.689981 226.781239 
L 287.195673 225.184668 
L 287.701366 46.434204 
L 288.207058 221.613276 
L 288.712751 221.246232 
L 289.218443 221.276196 
L 289.724136 42.486801 
L 290.229828 41.947622 
L 290.73552 219.182937 
L 291.241213 219.160122 
L 291.746905 39.985618 
L 292.252598 39.634148 
L 292.75829 37.698337 
L 293.263983 37.529736 
L 293.769675 221.87251 
L 294.275367 39.241423 
L 294.78106 219.652066 
L 295.286752 40.405261 
L 295.792445 40.830687 
L 296.298137 220.554609 
L 296.80383 41.075957 
L 297.309522 40.637321 
L 297.815215 41.912189 
L 298.320907 40.136048 
L 298.826599 40.211778 
L 299.332292 219.820115 
L 299.837984 219.626809 
L 300.849369 219.628541 
L 301.355062 41.638594 
L 301.860754 41.920922 
L 302.366446 219.646382 
L 302.872139 219.698635 
L 303.377831 219.602289 
L 303.883524 42.473205 
L 304.389216 219.759207 
L 304.894909 43.216968 
L 305.400601 219.783132 
L 305.906294 219.28486 
L 306.411986 43.845626 
L 306.917678 220.734506 
L 307.929063 220.537726 
L 308.434756 42.714036 
L 308.940448 220.676393 
L 309.446141 43.048226 
L 309.951833 220.185603 
L 310.457525 220.108491 
L 310.963218 44.230527 
L 311.46891 226.043668 
L 311.974603 51.058609 
L 312.480295 50.896383 
L 312.985988 229.97775 
L 313.49168 230.049979 
L 313.997373 55.337324 
L 314.503065 57.411543 
L 315.008757 56.997831 
L 315.51445 236.78132 
L 316.020142 55.086036 
L 317.031527 54.526486 
L 317.53722 51.523257 
L 318.042912 51.322633 
L 318.548605 223.840184 
L 319.054297 221.973542 
L 319.559989 222.628267 
L 320.065682 46.333225 
L 320.571374 44.96084 
L 321.077067 221.432077 
L 321.582759 221.123192 
L 322.088452 221.230735 
L 322.594144 221.187439 
L 323.099836 45.610407 
L 323.605529 44.723541 
L 324.111221 45.817641 
L 324.616914 45.166508 
L 325.122606 220.860813 
L 325.628299 220.838019 
L 326.133991 220.981385 
L 326.639684 44.645899 
L 327.145376 222.421779 
L 327.651068 222.373038 
L 328.156761 44.717042 
L 328.662453 222.478385 
L 329.168146 221.905309 
L 329.673838 221.521255 
L 330.179531 44.408878 
L 331.190915 43.559656 
L 331.696608 218.166477 
L 332.2023 218.003826 
L 332.707993 42.045669 
L 333.213685 40.17162 
L 333.719378 218.453127 
L 334.22507 37.97185 
L 334.730763 37.787122 
L 335.236455 222.179645 
L 335.742147 222.459288 
L 336.24784 228.613534 
L 336.753532 229.866617 
L 337.259225 229.794743 
L 337.764917 38.803548 
L 338.27061 226.755637 
L 338.776302 226.25712 
L 339.281994 226.005029 
L 339.787687 38.370986 
L 340.293379 220.693598 
L 340.799072 40.153668 
L 341.304764 220.217913 
L 341.810457 220.370906 
L 342.316149 46.772496 
L 342.821842 221.422288 
L 343.327534 46.49542 
L 343.833226 45.236836 
L 344.338919 41.004051 
L 344.844611 221.604201 
L 345.350304 222.865301 
L 345.855996 39.29679 
L 346.361689 39.277408 
L 346.867381 229.117468 
L 347.373073 39.94746 
L 347.878766 40.064668 
L 348.384458 227.963397 
L 348.890151 226.792309 
L 349.395843 226.96731 
L 349.901536 227.406794 
L 350.407228 42.7839 
L 350.912921 42.934938 
L 351.418613 212.311441 
L 351.924305 213.835359 
L 352.429998 66.690208 
L 352.93569 64.623688 
L 353.441383 216.846326 
L 353.947075 64.748026 
L 354.452768 64.741876 
L 354.95846 216.617356 
L 355.464153 64.799866 
L 355.969845 216.874475 
L 356.475537 63.410208 
L 356.98123 216.763382 
L 357.486922 64.383979 
L 357.992615 216.563099 
L 358.498307 64.111879 
L 359.004 67.320325 
L 359.509692 117.729373 
L 360.015384 116.018959 
L 360.521077 114.937901 
L 361.532462 107.78889 
L 362.038154 106.884883 
L 362.543847 106.54906 
L 363.049539 106.581054 
L 363.555232 106.855524 
L 364.060924 106.554466 
L 364.566616 106.411549 
L 365.072309 106.680694 
L 365.578001 107.742439 
L 366.083694 107.495978 
L 366.589386 106.906704 
L 367.095079 105.860817 
L 368.106463 105.225621 
L 368.612156 105.15023 
L 369.117848 104.925814 
L 371.646311 105.52547 
L 372.657695 106.59273 
L 373.163388 106.971173 
L 373.66908 107.188106 
L 374.174773 106.93337 
L 374.174773 106.93337 
" style="fill:none;stroke:#1f77b4;stroke-linecap:square;stroke-width:1.5;"/>
   </g>
   <g id="patch_3">
    <path d="M 33.2875 276.812 
L 33.2875 10.7 
" style="fill:none;stroke:#000000;stroke-linecap:square;stroke-linejoin:miter;stroke-width:0.8;"/>
   </g>
   <g id="patch_4">
    <path d="M 390.4075 276.812 
L 390.4075 10.7 
" style="fill:none;stroke:#000000;stroke-linecap:square;stroke-linejoin:miter;stroke-width:0.8;"/>
   </g>
   <g id="patch_5">
    <path d="M 33.2875 276.812 
L 390.4075 276.812 
" style="fill:none;stroke:#000000;stroke-linecap:square;stroke-linejoin:miter;stroke-width:0.8;"/>
   </g>
   <g id="patch_6">
    <path d="M 33.2875 10.7 
L 390.4075 10.7 
" style="fill:none;stroke:#000000;stroke-linecap:square;stroke-linejoin:miter;stroke-width:0.8;"/>
   </g>
  </g>
 </g>
 <defs>
  <clipPath id="pb4f48c959b">
   <rect height="266.112" width="357.12" x="33.2875" y="10.7"/>
  </clipPath>
 </defs>
</svg>
