<?xml version="1.0" encoding="utf-8" standalone="no"?>
<!DOCTYPE svg PUBLIC "-//W3C//DTD SVG 1.1//EN"
  "http://www.w3.org/Graphics/SVG/1.1/DTD/svg11.dtd">
<!-- Created with matplotlib (http://matplotlib.org/) -->
<svg height="300.690125pt" version="1.1" viewBox="0 0 401.1075 300.690125" width="401.1075pt" xmlns="http://www.w3.org/2000/svg" xmlns:xlink="http://www.w3.org/1999/xlink">
 <defs>
  <style type="text/css">
*{stroke-linecap:butt;stroke-linejoin:round;}
  </style>
 </defs>
 <g id="figure_1">
  <g id="patch_1">
   <path d="M 0 300.690125 
L 401.1075 300.690125 
L 401.1075 0 
L 0 0 
z
" style="fill:#ffffff;"/>
  </g>
  <g id="axes_1">
   <g id="patch_2">
    <path d="M 33.2875 276.812 
L 390.4075 276.812 
L 390.4075 10.7 
L 33.2875 10.7 
z
" style="fill:#ffffff;"/>
   </g>
   <g id="matplotlib.axis_1">
    <g id="xtick_1">
     <g id="line2d_1">
      <defs>
       <path d="M 0 0 
L 0 3.5 
" id="m94a338a1b9" style="stroke:#000000;stroke-width:0.8;"/>
      </defs>
      <g>
       <use style="stroke:#000000;stroke-width:0.8;" x="49.520227" xlink:href="#m94a338a1b9" y="276.812"/>
      </g>
     </g>
     <g id="text_1">
      <!-- 0 -->
      <defs>
       <path d="M 31.78125 66.40625 
Q 24.171875 66.40625 20.328125 58.90625 
Q 16.5 51.421875 16.5 36.375 
Q 16.5 21.390625 20.328125 13.890625 
Q 24.171875 6.390625 31.78125 6.390625 
Q 39.453125 6.390625 43.28125 13.890625 
Q 47.125 21.390625 47.125 36.375 
Q 47.125 51.421875 43.28125 58.90625 
Q 39.453125 66.40625 31.78125 66.40625 
z
M 31.78125 74.21875 
Q 44.046875 74.21875 50.515625 64.515625 
Q 56.984375 54.828125 56.984375 36.375 
Q 56.984375 17.96875 50.515625 8.265625 
Q 44.046875 -1.421875 31.78125 -1.421875 
Q 19.53125 -1.421875 13.0625 8.265625 
Q 6.59375 17.96875 6.59375 36.375 
Q 6.59375 54.828125 13.0625 64.515625 
Q 19.53125 74.21875 31.78125 74.21875 
z
" id="DejaVuSans-30"/>
      </defs>
      <g transform="translate(46.338977 291.410437)scale(0.1 -0.1)">
       <use xlink:href="#DejaVuSans-30"/>
      </g>
     </g>
    </g>
    <g id="xtick_2">
     <g id="line2d_2">
      <g>
       <use style="stroke:#000000;stroke-width:0.8;" x="119.791774" xlink:href="#m94a338a1b9" y="276.812"/>
      </g>
     </g>
     <g id="text_2">
      <!-- 50 -->
      <defs>
       <path d="M 10.796875 72.90625 
L 49.515625 72.90625 
L 49.515625 64.59375 
L 19.828125 64.59375 
L 19.828125 46.734375 
Q 21.96875 47.46875 24.109375 47.828125 
Q 26.265625 48.1875 28.421875 48.1875 
Q 40.625 48.1875 47.75 41.5 
Q 54.890625 34.8125 54.890625 23.390625 
Q 54.890625 11.625 47.5625 5.09375 
Q 40.234375 -1.421875 26.90625 -1.421875 
Q 22.3125 -1.421875 17.546875 -0.640625 
Q 12.796875 0.140625 7.71875 1.703125 
L 7.71875 11.625 
Q 12.109375 9.234375 16.796875 8.0625 
Q 21.484375 6.890625 26.703125 6.890625 
Q 35.15625 6.890625 40.078125 11.328125 
Q 45.015625 15.765625 45.015625 23.390625 
Q 45.015625 31 40.078125 35.4375 
Q 35.15625 39.890625 26.703125 39.890625 
Q 22.75 39.890625 18.8125 39.015625 
Q 14.890625 38.140625 10.796875 36.28125 
z
" id="DejaVuSans-35"/>
      </defs>
      <g transform="translate(113.429274 291.410437)scale(0.1 -0.1)">
       <use xlink:href="#DejaVuSans-35"/>
       <use x="63.623047" xlink:href="#DejaVuSans-30"/>
      </g>
     </g>
    </g>
    <g id="xtick_3">
     <g id="line2d_3">
      <g>
       <use style="stroke:#000000;stroke-width:0.8;" x="190.063321" xlink:href="#m94a338a1b9" y="276.812"/>
      </g>
     </g>
     <g id="text_3">
      <!-- 100 -->
      <defs>
       <path d="M 12.40625 8.296875 
L 28.515625 8.296875 
L 28.515625 63.921875 
L 10.984375 60.40625 
L 10.984375 69.390625 
L 28.421875 72.90625 
L 38.28125 72.90625 
L 38.28125 8.296875 
L 54.390625 8.296875 
L 54.390625 0 
L 12.40625 0 
z
" id="DejaVuSans-31"/>
      </defs>
      <g transform="translate(180.519571 291.410437)scale(0.1 -0.1)">
       <use xlink:href="#DejaVuSans-31"/>
       <use x="63.623047" xlink:href="#DejaVuSans-30"/>
       <use x="127.246094" xlink:href="#DejaVuSans-30"/>
      </g>
     </g>
    </g>
    <g id="xtick_4">
     <g id="line2d_4">
      <g>
       <use style="stroke:#000000;stroke-width:0.8;" x="260.334867" xlink:href="#m94a338a1b9" y="276.812"/>
      </g>
     </g>
     <g id="text_4">
      <!-- 150 -->
      <g transform="translate(250.791117 291.410437)scale(0.1 -0.1)">
       <use xlink:href="#DejaVuSans-31"/>
       <use x="63.623047" xlink:href="#DejaVuSans-35"/>
       <use x="127.246094" xlink:href="#DejaVuSans-30"/>
      </g>
     </g>
    </g>
    <g id="xtick_5">
     <g id="line2d_5">
      <g>
       <use style="stroke:#000000;stroke-width:0.8;" x="330.606414" xlink:href="#m94a338a1b9" y="276.812"/>
      </g>
     </g>
     <g id="text_5">
      <!-- 200 -->
      <defs>
       <path d="M 19.1875 8.296875 
L 53.609375 8.296875 
L 53.609375 0 
L 7.328125 0 
L 7.328125 8.296875 
Q 12.9375 14.109375 22.625 23.890625 
Q 32.328125 33.6875 34.8125 36.53125 
Q 39.546875 41.84375 41.421875 45.53125 
Q 43.3125 49.21875 43.3125 52.78125 
Q 43.3125 58.59375 39.234375 62.25 
Q 35.15625 65.921875 28.609375 65.921875 
Q 23.96875 65.921875 18.8125 64.3125 
Q 13.671875 62.703125 7.8125 59.421875 
L 7.8125 69.390625 
Q 13.765625 71.78125 18.9375 73 
Q 24.125 74.21875 28.421875 74.21875 
Q 39.75 74.21875 46.484375 68.546875 
Q 53.21875 62.890625 53.21875 53.421875 
Q 53.21875 48.921875 51.53125 44.890625 
Q 49.859375 40.875 45.40625 35.40625 
Q 44.1875 33.984375 37.640625 27.21875 
Q 31.109375 20.453125 19.1875 8.296875 
z
" id="DejaVuSans-32"/>
      </defs>
      <g transform="translate(321.062664 291.410437)scale(0.1 -0.1)">
       <use xlink:href="#DejaVuSans-32"/>
       <use x="63.623047" xlink:href="#DejaVuSans-30"/>
       <use x="127.246094" xlink:href="#DejaVuSans-30"/>
      </g>
     </g>
    </g>
   </g>
   <g id="matplotlib.axis_2">
    <g id="ytick_1">
     <g id="line2d_6">
      <defs>
       <path d="M 0 0 
L -3.5 0 
" id="mfd16419bef" style="stroke:#000000;stroke-width:0.8;"/>
      </defs>
      <g>
       <use style="stroke:#000000;stroke-width:0.8;" x="33.2875" xlink:href="#mfd16419bef" y="247.341365"/>
      </g>
     </g>
     <g id="text_6">
      <!-- 50 -->
      <g transform="translate(13.5625 251.140584)scale(0.1 -0.1)">
       <use xlink:href="#DejaVuSans-35"/>
       <use x="63.623047" xlink:href="#DejaVuSans-30"/>
      </g>
     </g>
    </g>
    <g id="ytick_2">
     <g id="line2d_7">
      <g>
       <use style="stroke:#000000;stroke-width:0.8;" x="33.2875" xlink:href="#mfd16419bef" y="216.599767"/>
      </g>
     </g>
     <g id="text_7">
      <!-- 100 -->
      <g transform="translate(7.2 220.398986)scale(0.1 -0.1)">
       <use xlink:href="#DejaVuSans-31"/>
       <use x="63.623047" xlink:href="#DejaVuSans-30"/>
       <use x="127.246094" xlink:href="#DejaVuSans-30"/>
      </g>
     </g>
    </g>
    <g id="ytick_3">
     <g id="line2d_8">
      <g>
       <use style="stroke:#000000;stroke-width:0.8;" x="33.2875" xlink:href="#mfd16419bef" y="185.858169"/>
      </g>
     </g>
     <g id="text_8">
      <!-- 150 -->
      <g transform="translate(7.2 189.657388)scale(0.1 -0.1)">
       <use xlink:href="#DejaVuSans-31"/>
       <use x="63.623047" xlink:href="#DejaVuSans-35"/>
       <use x="127.246094" xlink:href="#DejaVuSans-30"/>
      </g>
     </g>
    </g>
    <g id="ytick_4">
     <g id="line2d_9">
      <g>
       <use style="stroke:#000000;stroke-width:0.8;" x="33.2875" xlink:href="#mfd16419bef" y="155.116572"/>
      </g>
     </g>
     <g id="text_9">
      <!-- 200 -->
      <g transform="translate(7.2 158.91579)scale(0.1 -0.1)">
       <use xlink:href="#DejaVuSans-32"/>
       <use x="63.623047" xlink:href="#DejaVuSans-30"/>
       <use x="127.246094" xlink:href="#DejaVuSans-30"/>
      </g>
     </g>
    </g>
    <g id="ytick_5">
     <g id="line2d_10">
      <g>
       <use style="stroke:#000000;stroke-width:0.8;" x="33.2875" xlink:href="#mfd16419bef" y="124.374974"/>
      </g>
     </g>
     <g id="text_10">
      <!-- 250 -->
      <g transform="translate(7.2 128.174193)scale(0.1 -0.1)">
       <use xlink:href="#DejaVuSans-32"/>
       <use x="63.623047" xlink:href="#DejaVuSans-35"/>
       <use x="127.246094" xlink:href="#DejaVuSans-30"/>
      </g>
     </g>
    </g>
    <g id="ytick_6">
     <g id="line2d_11">
      <g>
       <use style="stroke:#000000;stroke-width:0.8;" x="33.2875" xlink:href="#mfd16419bef" y="93.633376"/>
      </g>
     </g>
     <g id="text_11">
      <!-- 300 -->
      <defs>
       <path d="M 40.578125 39.3125 
Q 47.65625 37.796875 51.625 33 
Q 55.609375 28.21875 55.609375 21.1875 
Q 55.609375 10.40625 48.1875 4.484375 
Q 40.765625 -1.421875 27.09375 -1.421875 
Q 22.515625 -1.421875 17.65625 -0.515625 
Q 12.796875 0.390625 7.625 2.203125 
L 7.625 11.71875 
Q 11.71875 9.328125 16.59375 8.109375 
Q 21.484375 6.890625 26.8125 6.890625 
Q 36.078125 6.890625 40.9375 10.546875 
Q 45.796875 14.203125 45.796875 21.1875 
Q 45.796875 27.640625 41.28125 31.265625 
Q 36.765625 34.90625 28.71875 34.90625 
L 20.21875 34.90625 
L 20.21875 43.015625 
L 29.109375 43.015625 
Q 36.375 43.015625 40.234375 45.921875 
Q 44.09375 48.828125 44.09375 54.296875 
Q 44.09375 59.90625 40.109375 62.90625 
Q 36.140625 65.921875 28.71875 65.921875 
Q 24.65625 65.921875 20.015625 65.03125 
Q 15.375 64.15625 9.8125 62.3125 
L 9.8125 71.09375 
Q 15.4375 72.65625 20.34375 73.4375 
Q 25.25 74.21875 29.59375 74.21875 
Q 40.828125 74.21875 47.359375 69.109375 
Q 53.90625 64.015625 53.90625 55.328125 
Q 53.90625 49.265625 50.4375 45.09375 
Q 46.96875 40.921875 40.578125 39.3125 
z
" id="DejaVuSans-33"/>
      </defs>
      <g transform="translate(7.2 97.432595)scale(0.1 -0.1)">
       <use xlink:href="#DejaVuSans-33"/>
       <use x="63.623047" xlink:href="#DejaVuSans-30"/>
       <use x="127.246094" xlink:href="#DejaVuSans-30"/>
      </g>
     </g>
    </g>
    <g id="ytick_7">
     <g id="line2d_12">
      <g>
       <use style="stroke:#000000;stroke-width:0.8;" x="33.2875" xlink:href="#mfd16419bef" y="62.891778"/>
      </g>
     </g>
     <g id="text_12">
      <!-- 350 -->
      <g transform="translate(7.2 66.690997)scale(0.1 -0.1)">
       <use xlink:href="#DejaVuSans-33"/>
       <use x="63.623047" xlink:href="#DejaVuSans-35"/>
       <use x="127.246094" xlink:href="#DejaVuSans-30"/>
      </g>
     </g>
    </g>
    <g id="ytick_8">
     <g id="line2d_13">
      <g>
       <use style="stroke:#000000;stroke-width:0.8;" x="33.2875" xlink:href="#mfd16419bef" y="32.150181"/>
      </g>
     </g>
     <g id="text_13">
      <!-- 400 -->
      <defs>
       <path d="M 37.796875 64.3125 
L 12.890625 25.390625 
L 37.796875 25.390625 
z
M 35.203125 72.90625 
L 47.609375 72.90625 
L 47.609375 25.390625 
L 58.015625 25.390625 
L 58.015625 17.1875 
L 47.609375 17.1875 
L 47.609375 0 
L 37.796875 0 
L 37.796875 17.1875 
L 4.890625 17.1875 
L 4.890625 26.703125 
z
" id="DejaVuSans-34"/>
      </defs>
      <g transform="translate(7.2 35.949399)scale(0.1 -0.1)">
       <use xlink:href="#DejaVuSans-34"/>
       <use x="63.623047" xlink:href="#DejaVuSans-30"/>
       <use x="127.246094" xlink:href="#DejaVuSans-30"/>
      </g>
     </g>
    </g>
   </g>
   <g id="line2d_14">
    <path clip-path="url(#p074273504a)" d="M 49.520227 245.813173 
L 50.925658 246.205063 
L 52.331089 26.898564 
L 53.73652 28.015308 
L 55.141951 246.507179 
L 56.547382 247.68464 
L 57.952813 248.219372 
L 59.358244 29.596094 
L 60.763675 30.12342 
L 62.169106 247.59124 
L 63.574537 28.222373 
L 64.979968 27.98185 
L 66.385398 28.702915 
L 67.790829 247.464268 
L 69.19626 248.049754 
L 70.601691 27.794203 
L 72.007122 246.850665 
L 73.412553 247.992827 
L 74.817984 247.538336 
L 76.223415 248.50953 
L 77.628846 29.262195 
L 79.034277 249.046526 
L 80.439708 27.015414 
L 81.845139 249.15141 
L 83.25057 248.563514 
L 84.656001 250.183241 
L 86.061432 250.69237 
L 87.466862 248.777092 
L 88.872293 27.981605 
L 90.277724 27.926255 
L 91.683155 250.129847 
L 93.088586 250.410707 
L 94.494017 248.547973 
L 95.899448 30.711327 
L 97.304879 250.225739 
L 98.71031 251.723015 
L 100.115741 26.847202 
L 101.521172 251.089807 
L 102.926603 249.444427 
L 104.332034 250.218746 
L 105.737465 30.300209 
L 107.142896 250.462562 
L 108.548326 28.356136 
L 109.953757 29.803751 
L 111.359188 30.368374 
L 112.764619 27.76705 
L 114.17005 26.486633 
L 115.575481 249.065278 
L 116.980912 27.019665 
L 118.386343 26.590245 
L 119.791774 25.686383 
L 121.197205 247.037029 
L 122.602636 27.472761 
L 124.008067 26.80887 
L 125.413498 247.945203 
L 126.818929 29.014385 
L 128.22436 31.644359 
L 129.62979 260.48518 
L 131.035221 34.051329 
L 132.440652 32.781508 
L 133.846083 262.172671 
L 135.251514 34.463567 
L 136.656945 34.290038 
L 138.062376 32.193525 
L 139.467807 261.693686 
L 140.873238 31.482575 
L 142.278669 33.145573 
L 143.6841 262.148041 
L 145.089531 262.359442 
L 146.494962 261.460383 
L 147.900393 261.957177 
L 149.305823 35.248522 
L 150.711254 33.3673 
L 152.116685 261.868274 
L 153.522116 33.797718 
L 154.927547 260.597138 
L 157.738409 258.861064 
L 159.14384 32.242227 
L 160.549271 257.78122 
L 161.954702 32.178739 
L 163.360133 32.10766 
L 164.765564 258.091298 
L 166.170995 31.506341 
L 167.576426 30.885811 
L 168.981857 256.661655 
L 170.387287 257.062371 
L 171.792718 30.151568 
L 174.60358 30.690991 
L 176.009011 257.305946 
L 177.414442 256.289618 
L 178.819873 257.028336 
L 180.225304 32.557753 
L 181.630735 29.982452 
L 183.036166 30.478457 
L 184.441597 257.7501 
L 185.847028 30.941292 
L 187.252459 257.707215 
L 188.65789 257.770622 
L 190.063321 31.063165 
L 191.468751 255.597267 
L 192.874182 257.012433 
L 194.279613 29.56804 
L 195.685044 256.429204 
L 197.090475 30.229045 
L 198.495906 256.534815 
L 199.901337 30.764208 
L 201.306768 254.005281 
L 202.712199 256.218477 
L 204.11763 251.600282 
L 205.523061 251.807065 
L 206.928492 28.408671 
L 208.333923 30.277149 
L 209.739354 264.028005 
L 211.144785 31.500787 
L 212.550215 33.159753 
L 213.955646 264.572737 
L 215.361077 264.147412 
L 216.766508 34.707418 
L 218.171939 261.916548 
L 219.57737 263.293539 
L 220.982801 32.766735 
L 222.388232 33.064041 
L 223.793663 264.437426 
L 225.199094 263.859207 
L 226.604525 264.179912 
L 228.009956 32.777321 
L 229.415387 264.03548 
L 230.820818 32.662237 
L 232.226249 33.543304 
L 233.631679 263.68712 
L 235.03711 263.011111 
L 236.442541 34.010474 
L 237.847972 33.480405 
L 239.253403 263.112839 
L 240.658834 262.05659 
L 242.064265 32.452594 
L 243.469696 261.941788 
L 244.875127 263.374603 
L 246.280558 263.524525 
L 247.685989 262.806064 
L 249.09142 33.481203 
L 250.496851 263.982895 
L 251.902282 31.681747 
L 253.307713 263.53426 
L 254.713143 31.791041 
L 257.524005 30.280614 
L 258.929436 31.986894 
L 260.334867 32.445057 
L 261.740298 261.744316 
L 263.145729 32.832717 
L 264.55116 33.439891 
L 265.956591 31.864973 
L 267.362022 32.719551 
L 268.767453 31.329368 
L 270.172884 260.319089 
L 271.578315 32.890394 
L 272.983746 33.559033 
L 274.389177 34.415748 
L 275.794607 32.422547 
L 277.200038 32.690691 
L 278.605469 34.122664 
L 280.0109 33.492939 
L 281.416331 33.3294 
L 282.821762 261.394964 
L 284.227193 33.837048 
L 285.632624 35.111588 
L 287.038055 263.338209 
L 288.443486 263.524813 
L 289.848917 262.467426 
L 291.254348 262.065481 
L 292.659779 35.32881 
L 294.06521 32.813169 
L 295.47064 263.196309 
L 296.876071 33.858961 
L 298.281502 264.716 
L 299.686933 34.919048 
L 301.092364 31.362099 
L 302.497795 33.122454 
L 303.903226 32.939522 
L 305.308657 260.990623 
L 306.714088 261.776221 
L 308.119519 256.393535 
L 309.52495 33.00753 
L 310.930381 262.416878 
L 312.335812 262.673021 
L 313.741243 26.265068 
L 315.146674 36.802013 
L 316.552104 261.248442 
L 317.957535 35.123238 
L 319.362966 263.089287 
L 320.768397 263.313158 
L 322.173828 262.71751 
L 323.579259 33.006587 
L 324.98469 37.603157 
L 326.390121 33.937749 
L 327.795552 33.973672 
L 329.200983 34.925079 
L 330.606414 32.76928 
L 332.011845 35.373423 
L 333.417276 263.491197 
L 334.822707 263.189324 
L 336.228138 33.085254 
L 337.633568 263.47223 
L 339.038999 33.197854 
L 340.44443 33.831734 
L 341.849861 33.719681 
L 343.255292 262.816882 
L 344.660723 263.87021 
L 346.066154 262.450685 
L 347.471585 32.479616 
L 348.877016 263.612438 
L 350.282447 264.217147 
L 351.687878 263.553056 
L 353.093309 263.838956 
L 354.49874 33.995258 
L 355.904171 263.316624 
L 357.309602 33.534068 
L 358.715032 32.943009 
L 360.120463 263.275659 
L 361.525894 33.304568 
L 362.931325 264.107652 
L 364.336756 263.949086 
L 365.742187 263.064097 
L 367.147618 256.329877 
L 368.553049 256.785216 
L 369.95848 25.653237 
L 371.363911 22.796 
L 372.769342 23.331252 
L 374.174773 251.301028 
L 374.174773 251.301028 
" style="fill:none;stroke:#1f77b4;stroke-linecap:square;stroke-width:1.5;"/>
   </g>
   <g id="patch_3">
    <path d="M 33.2875 276.812 
L 33.2875 10.7 
" style="fill:none;stroke:#000000;stroke-linecap:square;stroke-linejoin:miter;stroke-width:0.8;"/>
   </g>
   <g id="patch_4">
    <path d="M 390.4075 276.812 
L 390.4075 10.7 
" style="fill:none;stroke:#000000;stroke-linecap:square;stroke-linejoin:miter;stroke-width:0.8;"/>
   </g>
   <g id="patch_5">
    <path d="M 33.2875 276.812 
L 390.4075 276.812 
" style="fill:none;stroke:#000000;stroke-linecap:square;stroke-linejoin:miter;stroke-width:0.8;"/>
   </g>
   <g id="patch_6">
    <path d="M 33.2875 10.7 
L 390.4075 10.7 
" style="fill:none;stroke:#000000;stroke-linecap:square;stroke-linejoin:miter;stroke-width:0.8;"/>
   </g>
  </g>
 </g>
 <defs>
  <clipPath id="p074273504a">
   <rect height="266.112" width="357.12" x="33.2875" y="10.7"/>
  </clipPath>
 </defs>
</svg>
