<?xml version="1.0" encoding="utf-8" standalone="no"?>
<!DOCTYPE svg PUBLIC "-//W3C//DTD SVG 1.1//EN"
  "http://www.w3.org/Graphics/SVG/1.1/DTD/svg11.dtd">
<!-- Created with matplotlib (http://matplotlib.org/) -->
<svg height="300.690125pt" version="1.1" viewBox="0 0 401.1075 300.690125" width="401.1075pt" xmlns="http://www.w3.org/2000/svg" xmlns:xlink="http://www.w3.org/1999/xlink">
 <defs>
  <style type="text/css">
*{stroke-linecap:butt;stroke-linejoin:round;}
  </style>
 </defs>
 <g id="figure_1">
  <g id="patch_1">
   <path d="M 0 300.690125 
L 401.1075 300.690125 
L 401.1075 0 
L 0 0 
z
" style="fill:#ffffff;"/>
  </g>
  <g id="axes_1">
   <g id="patch_2">
    <path d="M 33.2875 276.812 
L 390.4075 276.812 
L 390.4075 10.7 
L 33.2875 10.7 
z
" style="fill:#ffffff;"/>
   </g>
   <g id="matplotlib.axis_1">
    <g id="xtick_1">
     <g id="line2d_1">
      <defs>
       <path d="M 0 0 
L 0 3.5 
" id="m43d433b7cb" style="stroke:#000000;stroke-width:0.8;"/>
      </defs>
      <g>
       <use style="stroke:#000000;stroke-width:0.8;" x="49.520227" xlink:href="#m43d433b7cb" y="276.812"/>
      </g>
     </g>
     <g id="text_1">
      <!-- 0 -->
      <defs>
       <path d="M 31.78125 66.40625 
Q 24.171875 66.40625 20.328125 58.90625 
Q 16.5 51.421875 16.5 36.375 
Q 16.5 21.390625 20.328125 13.890625 
Q 24.171875 6.390625 31.78125 6.390625 
Q 39.453125 6.390625 43.28125 13.890625 
Q 47.125 21.390625 47.125 36.375 
Q 47.125 51.421875 43.28125 58.90625 
Q 39.453125 66.40625 31.78125 66.40625 
z
M 31.78125 74.21875 
Q 44.046875 74.21875 50.515625 64.515625 
Q 56.984375 54.828125 56.984375 36.375 
Q 56.984375 17.96875 50.515625 8.265625 
Q 44.046875 -1.421875 31.78125 -1.421875 
Q 19.53125 -1.421875 13.0625 8.265625 
Q 6.59375 17.96875 6.59375 36.375 
Q 6.59375 54.828125 13.0625 64.515625 
Q 19.53125 74.21875 31.78125 74.21875 
z
" id="DejaVuSans-30"/>
      </defs>
      <g transform="translate(46.338977 291.410437)scale(0.1 -0.1)">
       <use xlink:href="#DejaVuSans-30"/>
      </g>
     </g>
    </g>
    <g id="xtick_2">
     <g id="line2d_2">
      <g>
       <use style="stroke:#000000;stroke-width:0.8;" x="89.900146" xlink:href="#m43d433b7cb" y="276.812"/>
      </g>
     </g>
     <g id="text_2">
      <!-- 100 -->
      <defs>
       <path d="M 12.40625 8.296875 
L 28.515625 8.296875 
L 28.515625 63.921875 
L 10.984375 60.40625 
L 10.984375 69.390625 
L 28.421875 72.90625 
L 38.28125 72.90625 
L 38.28125 8.296875 
L 54.390625 8.296875 
L 54.390625 0 
L 12.40625 0 
z
" id="DejaVuSans-31"/>
      </defs>
      <g transform="translate(80.356396 291.410437)scale(0.1 -0.1)">
       <use xlink:href="#DejaVuSans-31"/>
       <use x="63.623047" xlink:href="#DejaVuSans-30"/>
       <use x="127.246094" xlink:href="#DejaVuSans-30"/>
      </g>
     </g>
    </g>
    <g id="xtick_3">
     <g id="line2d_3">
      <g>
       <use style="stroke:#000000;stroke-width:0.8;" x="130.280064" xlink:href="#m43d433b7cb" y="276.812"/>
      </g>
     </g>
     <g id="text_3">
      <!-- 200 -->
      <defs>
       <path d="M 19.1875 8.296875 
L 53.609375 8.296875 
L 53.609375 0 
L 7.328125 0 
L 7.328125 8.296875 
Q 12.9375 14.109375 22.625 23.890625 
Q 32.328125 33.6875 34.8125 36.53125 
Q 39.546875 41.84375 41.421875 45.53125 
Q 43.3125 49.21875 43.3125 52.78125 
Q 43.3125 58.59375 39.234375 62.25 
Q 35.15625 65.921875 28.609375 65.921875 
Q 23.96875 65.921875 18.8125 64.3125 
Q 13.671875 62.703125 7.8125 59.421875 
L 7.8125 69.390625 
Q 13.765625 71.78125 18.9375 73 
Q 24.125 74.21875 28.421875 74.21875 
Q 39.75 74.21875 46.484375 68.546875 
Q 53.21875 62.890625 53.21875 53.421875 
Q 53.21875 48.921875 51.53125 44.890625 
Q 49.859375 40.875 45.40625 35.40625 
Q 44.1875 33.984375 37.640625 27.21875 
Q 31.109375 20.453125 19.1875 8.296875 
z
" id="DejaVuSans-32"/>
      </defs>
      <g transform="translate(120.736314 291.410437)scale(0.1 -0.1)">
       <use xlink:href="#DejaVuSans-32"/>
       <use x="63.623047" xlink:href="#DejaVuSans-30"/>
       <use x="127.246094" xlink:href="#DejaVuSans-30"/>
      </g>
     </g>
    </g>
    <g id="xtick_4">
     <g id="line2d_4">
      <g>
       <use style="stroke:#000000;stroke-width:0.8;" x="170.659983" xlink:href="#m43d433b7cb" y="276.812"/>
      </g>
     </g>
     <g id="text_4">
      <!-- 300 -->
      <defs>
       <path d="M 40.578125 39.3125 
Q 47.65625 37.796875 51.625 33 
Q 55.609375 28.21875 55.609375 21.1875 
Q 55.609375 10.40625 48.1875 4.484375 
Q 40.765625 -1.421875 27.09375 -1.421875 
Q 22.515625 -1.421875 17.65625 -0.515625 
Q 12.796875 0.390625 7.625 2.203125 
L 7.625 11.71875 
Q 11.71875 9.328125 16.59375 8.109375 
Q 21.484375 6.890625 26.8125 6.890625 
Q 36.078125 6.890625 40.9375 10.546875 
Q 45.796875 14.203125 45.796875 21.1875 
Q 45.796875 27.640625 41.28125 31.265625 
Q 36.765625 34.90625 28.71875 34.90625 
L 20.21875 34.90625 
L 20.21875 43.015625 
L 29.109375 43.015625 
Q 36.375 43.015625 40.234375 45.921875 
Q 44.09375 48.828125 44.09375 54.296875 
Q 44.09375 59.90625 40.109375 62.90625 
Q 36.140625 65.921875 28.71875 65.921875 
Q 24.65625 65.921875 20.015625 65.03125 
Q 15.375 64.15625 9.8125 62.3125 
L 9.8125 71.09375 
Q 15.4375 72.65625 20.34375 73.4375 
Q 25.25 74.21875 29.59375 74.21875 
Q 40.828125 74.21875 47.359375 69.109375 
Q 53.90625 64.015625 53.90625 55.328125 
Q 53.90625 49.265625 50.4375 45.09375 
Q 46.96875 40.921875 40.578125 39.3125 
z
" id="DejaVuSans-33"/>
      </defs>
      <g transform="translate(161.116233 291.410437)scale(0.1 -0.1)">
       <use xlink:href="#DejaVuSans-33"/>
       <use x="63.623047" xlink:href="#DejaVuSans-30"/>
       <use x="127.246094" xlink:href="#DejaVuSans-30"/>
      </g>
     </g>
    </g>
    <g id="xtick_5">
     <g id="line2d_5">
      <g>
       <use style="stroke:#000000;stroke-width:0.8;" x="211.039902" xlink:href="#m43d433b7cb" y="276.812"/>
      </g>
     </g>
     <g id="text_5">
      <!-- 400 -->
      <defs>
       <path d="M 37.796875 64.3125 
L 12.890625 25.390625 
L 37.796875 25.390625 
z
M 35.203125 72.90625 
L 47.609375 72.90625 
L 47.609375 25.390625 
L 58.015625 25.390625 
L 58.015625 17.1875 
L 47.609375 17.1875 
L 47.609375 0 
L 37.796875 0 
L 37.796875 17.1875 
L 4.890625 17.1875 
L 4.890625 26.703125 
z
" id="DejaVuSans-34"/>
      </defs>
      <g transform="translate(201.496152 291.410437)scale(0.1 -0.1)">
       <use xlink:href="#DejaVuSans-34"/>
       <use x="63.623047" xlink:href="#DejaVuSans-30"/>
       <use x="127.246094" xlink:href="#DejaVuSans-30"/>
      </g>
     </g>
    </g>
    <g id="xtick_6">
     <g id="line2d_6">
      <g>
       <use style="stroke:#000000;stroke-width:0.8;" x="251.41982" xlink:href="#m43d433b7cb" y="276.812"/>
      </g>
     </g>
     <g id="text_6">
      <!-- 500 -->
      <defs>
       <path d="M 10.796875 72.90625 
L 49.515625 72.90625 
L 49.515625 64.59375 
L 19.828125 64.59375 
L 19.828125 46.734375 
Q 21.96875 47.46875 24.109375 47.828125 
Q 26.265625 48.1875 28.421875 48.1875 
Q 40.625 48.1875 47.75 41.5 
Q 54.890625 34.8125 54.890625 23.390625 
Q 54.890625 11.625 47.5625 5.09375 
Q 40.234375 -1.421875 26.90625 -1.421875 
Q 22.3125 -1.421875 17.546875 -0.640625 
Q 12.796875 0.140625 7.71875 1.703125 
L 7.71875 11.625 
Q 12.109375 9.234375 16.796875 8.0625 
Q 21.484375 6.890625 26.703125 6.890625 
Q 35.15625 6.890625 40.078125 11.328125 
Q 45.015625 15.765625 45.015625 23.390625 
Q 45.015625 31 40.078125 35.4375 
Q 35.15625 39.890625 26.703125 39.890625 
Q 22.75 39.890625 18.8125 39.015625 
Q 14.890625 38.140625 10.796875 36.28125 
z
" id="DejaVuSans-35"/>
      </defs>
      <g transform="translate(241.87607 291.410437)scale(0.1 -0.1)">
       <use xlink:href="#DejaVuSans-35"/>
       <use x="63.623047" xlink:href="#DejaVuSans-30"/>
       <use x="127.246094" xlink:href="#DejaVuSans-30"/>
      </g>
     </g>
    </g>
    <g id="xtick_7">
     <g id="line2d_7">
      <g>
       <use style="stroke:#000000;stroke-width:0.8;" x="291.799739" xlink:href="#m43d433b7cb" y="276.812"/>
      </g>
     </g>
     <g id="text_7">
      <!-- 600 -->
      <defs>
       <path d="M 33.015625 40.375 
Q 26.375 40.375 22.484375 35.828125 
Q 18.609375 31.296875 18.609375 23.390625 
Q 18.609375 15.53125 22.484375 10.953125 
Q 26.375 6.390625 33.015625 6.390625 
Q 39.65625 6.390625 43.53125 10.953125 
Q 47.40625 15.53125 47.40625 23.390625 
Q 47.40625 31.296875 43.53125 35.828125 
Q 39.65625 40.375 33.015625 40.375 
z
M 52.59375 71.296875 
L 52.59375 62.3125 
Q 48.875 64.0625 45.09375 64.984375 
Q 41.3125 65.921875 37.59375 65.921875 
Q 27.828125 65.921875 22.671875 59.328125 
Q 17.53125 52.734375 16.796875 39.40625 
Q 19.671875 43.65625 24.015625 45.921875 
Q 28.375 48.1875 33.59375 48.1875 
Q 44.578125 48.1875 50.953125 41.515625 
Q 57.328125 34.859375 57.328125 23.390625 
Q 57.328125 12.15625 50.6875 5.359375 
Q 44.046875 -1.421875 33.015625 -1.421875 
Q 20.359375 -1.421875 13.671875 8.265625 
Q 6.984375 17.96875 6.984375 36.375 
Q 6.984375 53.65625 15.1875 63.9375 
Q 23.390625 74.21875 37.203125 74.21875 
Q 40.921875 74.21875 44.703125 73.484375 
Q 48.484375 72.75 52.59375 71.296875 
z
" id="DejaVuSans-36"/>
      </defs>
      <g transform="translate(282.255989 291.410437)scale(0.1 -0.1)">
       <use xlink:href="#DejaVuSans-36"/>
       <use x="63.623047" xlink:href="#DejaVuSans-30"/>
       <use x="127.246094" xlink:href="#DejaVuSans-30"/>
      </g>
     </g>
    </g>
    <g id="xtick_8">
     <g id="line2d_8">
      <g>
       <use style="stroke:#000000;stroke-width:0.8;" x="332.179657" xlink:href="#m43d433b7cb" y="276.812"/>
      </g>
     </g>
     <g id="text_8">
      <!-- 700 -->
      <defs>
       <path d="M 8.203125 72.90625 
L 55.078125 72.90625 
L 55.078125 68.703125 
L 28.609375 0 
L 18.3125 0 
L 43.21875 64.59375 
L 8.203125 64.59375 
z
" id="DejaVuSans-37"/>
      </defs>
      <g transform="translate(322.635907 291.410437)scale(0.1 -0.1)">
       <use xlink:href="#DejaVuSans-37"/>
       <use x="63.623047" xlink:href="#DejaVuSans-30"/>
       <use x="127.246094" xlink:href="#DejaVuSans-30"/>
      </g>
     </g>
    </g>
    <g id="xtick_9">
     <g id="line2d_9">
      <g>
       <use style="stroke:#000000;stroke-width:0.8;" x="372.559576" xlink:href="#m43d433b7cb" y="276.812"/>
      </g>
     </g>
     <g id="text_9">
      <!-- 800 -->
      <defs>
       <path d="M 31.78125 34.625 
Q 24.75 34.625 20.71875 30.859375 
Q 16.703125 27.09375 16.703125 20.515625 
Q 16.703125 13.921875 20.71875 10.15625 
Q 24.75 6.390625 31.78125 6.390625 
Q 38.8125 6.390625 42.859375 10.171875 
Q 46.921875 13.96875 46.921875 20.515625 
Q 46.921875 27.09375 42.890625 30.859375 
Q 38.875 34.625 31.78125 34.625 
z
M 21.921875 38.8125 
Q 15.578125 40.375 12.03125 44.71875 
Q 8.5 49.078125 8.5 55.328125 
Q 8.5 64.0625 14.71875 69.140625 
Q 20.953125 74.21875 31.78125 74.21875 
Q 42.671875 74.21875 48.875 69.140625 
Q 55.078125 64.0625 55.078125 55.328125 
Q 55.078125 49.078125 51.53125 44.71875 
Q 48 40.375 41.703125 38.8125 
Q 48.828125 37.15625 52.796875 32.3125 
Q 56.78125 27.484375 56.78125 20.515625 
Q 56.78125 9.90625 50.3125 4.234375 
Q 43.84375 -1.421875 31.78125 -1.421875 
Q 19.734375 -1.421875 13.25 4.234375 
Q 6.78125 9.90625 6.78125 20.515625 
Q 6.78125 27.484375 10.78125 32.3125 
Q 14.796875 37.15625 21.921875 38.8125 
z
M 18.3125 54.390625 
Q 18.3125 48.734375 21.84375 45.5625 
Q 25.390625 42.390625 31.78125 42.390625 
Q 38.140625 42.390625 41.71875 45.5625 
Q 45.3125 48.734375 45.3125 54.390625 
Q 45.3125 60.0625 41.71875 63.234375 
Q 38.140625 66.40625 31.78125 66.40625 
Q 25.390625 66.40625 21.84375 63.234375 
Q 18.3125 60.0625 18.3125 54.390625 
z
" id="DejaVuSans-38"/>
      </defs>
      <g transform="translate(363.015826 291.410437)scale(0.1 -0.1)">
       <use xlink:href="#DejaVuSans-38"/>
       <use x="63.623047" xlink:href="#DejaVuSans-30"/>
       <use x="127.246094" xlink:href="#DejaVuSans-30"/>
      </g>
     </g>
    </g>
   </g>
   <g id="matplotlib.axis_2">
    <g id="ytick_1">
     <g id="line2d_10">
      <defs>
       <path d="M 0 0 
L -3.5 0 
" id="m5cd182c79b" style="stroke:#000000;stroke-width:0.8;"/>
      </defs>
      <g>
       <use style="stroke:#000000;stroke-width:0.8;" x="33.2875" xlink:href="#m5cd182c79b" y="262.120953"/>
      </g>
     </g>
     <g id="text_10">
      <!-- 20 -->
      <g transform="translate(13.5625 265.920171)scale(0.1 -0.1)">
       <use xlink:href="#DejaVuSans-32"/>
       <use x="63.623047" xlink:href="#DejaVuSans-30"/>
      </g>
     </g>
    </g>
    <g id="ytick_2">
     <g id="line2d_11">
      <g>
       <use style="stroke:#000000;stroke-width:0.8;" x="33.2875" xlink:href="#m5cd182c79b" y="231.941605"/>
      </g>
     </g>
     <g id="text_11">
      <!-- 40 -->
      <g transform="translate(13.5625 235.740824)scale(0.1 -0.1)">
       <use xlink:href="#DejaVuSans-34"/>
       <use x="63.623047" xlink:href="#DejaVuSans-30"/>
      </g>
     </g>
    </g>
    <g id="ytick_3">
     <g id="line2d_12">
      <g>
       <use style="stroke:#000000;stroke-width:0.8;" x="33.2875" xlink:href="#m5cd182c79b" y="201.762258"/>
      </g>
     </g>
     <g id="text_12">
      <!-- 60 -->
      <g transform="translate(13.5625 205.561477)scale(0.1 -0.1)">
       <use xlink:href="#DejaVuSans-36"/>
       <use x="63.623047" xlink:href="#DejaVuSans-30"/>
      </g>
     </g>
    </g>
    <g id="ytick_4">
     <g id="line2d_13">
      <g>
       <use style="stroke:#000000;stroke-width:0.8;" x="33.2875" xlink:href="#m5cd182c79b" y="171.582911"/>
      </g>
     </g>
     <g id="text_13">
      <!-- 80 -->
      <g transform="translate(13.5625 175.38213)scale(0.1 -0.1)">
       <use xlink:href="#DejaVuSans-38"/>
       <use x="63.623047" xlink:href="#DejaVuSans-30"/>
      </g>
     </g>
    </g>
    <g id="ytick_5">
     <g id="line2d_14">
      <g>
       <use style="stroke:#000000;stroke-width:0.8;" x="33.2875" xlink:href="#m5cd182c79b" y="141.403564"/>
      </g>
     </g>
     <g id="text_14">
      <!-- 100 -->
      <g transform="translate(7.2 145.202783)scale(0.1 -0.1)">
       <use xlink:href="#DejaVuSans-31"/>
       <use x="63.623047" xlink:href="#DejaVuSans-30"/>
       <use x="127.246094" xlink:href="#DejaVuSans-30"/>
      </g>
     </g>
    </g>
    <g id="ytick_6">
     <g id="line2d_15">
      <g>
       <use style="stroke:#000000;stroke-width:0.8;" x="33.2875" xlink:href="#m5cd182c79b" y="111.224217"/>
      </g>
     </g>
     <g id="text_15">
      <!-- 120 -->
      <g transform="translate(7.2 115.023436)scale(0.1 -0.1)">
       <use xlink:href="#DejaVuSans-31"/>
       <use x="63.623047" xlink:href="#DejaVuSans-32"/>
       <use x="127.246094" xlink:href="#DejaVuSans-30"/>
      </g>
     </g>
    </g>
    <g id="ytick_7">
     <g id="line2d_16">
      <g>
       <use style="stroke:#000000;stroke-width:0.8;" x="33.2875" xlink:href="#m5cd182c79b" y="81.04487"/>
      </g>
     </g>
     <g id="text_16">
      <!-- 140 -->
      <g transform="translate(7.2 84.844088)scale(0.1 -0.1)">
       <use xlink:href="#DejaVuSans-31"/>
       <use x="63.623047" xlink:href="#DejaVuSans-34"/>
       <use x="127.246094" xlink:href="#DejaVuSans-30"/>
      </g>
     </g>
    </g>
    <g id="ytick_8">
     <g id="line2d_17">
      <g>
       <use style="stroke:#000000;stroke-width:0.8;" x="33.2875" xlink:href="#m5cd182c79b" y="50.865522"/>
      </g>
     </g>
     <g id="text_17">
      <!-- 160 -->
      <g transform="translate(7.2 54.664741)scale(0.1 -0.1)">
       <use xlink:href="#DejaVuSans-31"/>
       <use x="63.623047" xlink:href="#DejaVuSans-36"/>
       <use x="127.246094" xlink:href="#DejaVuSans-30"/>
      </g>
     </g>
    </g>
    <g id="ytick_9">
     <g id="line2d_18">
      <g>
       <use style="stroke:#000000;stroke-width:0.8;" x="33.2875" xlink:href="#m5cd182c79b" y="20.686175"/>
      </g>
     </g>
     <g id="text_18">
      <!-- 180 -->
      <g transform="translate(7.2 24.485394)scale(0.1 -0.1)">
       <use xlink:href="#DejaVuSans-31"/>
       <use x="63.623047" xlink:href="#DejaVuSans-38"/>
       <use x="127.246094" xlink:href="#DejaVuSans-30"/>
      </g>
     </g>
    </g>
   </g>
   <g id="line2d_19">
    <path clip-path="url(#pab60d3adbc)" d="M 49.520227 240.11788 
L 49.924026 62.206845 
L 50.327826 72.443436 
L 50.731625 239.366276 
L 51.135424 244.281131 
L 51.539223 75.893056 
L 51.943022 232.764703 
L 52.346822 232.077237 
L 52.750621 236.821389 
L 53.15442 232.507075 
L 53.558219 74.310417 
L 53.962018 236.36961 
L 54.365818 239.712542 
L 54.769617 236.990484 
L 55.173416 73.27412 
L 55.577215 251.897504 
L 55.981014 248.443711 
L 56.788613 251.834854 
L 57.192412 253.669815 
L 57.596211 253.149207 
L 58.403809 251.429147 
L 58.807609 251.679971 
L 59.211408 253.792312 
L 59.615207 70.345006 
L 60.019006 254.365345 
L 60.422805 255.725321 
L 61.230404 244.633762 
L 61.634203 244.28139 
L 62.038002 245.121461 
L 62.441801 244.814668 
L 63.2494 241.978208 
L 63.653199 246.355182 
L 64.056998 243.24741 
L 64.460797 243.75699 
L 64.864596 248.536016 
L 65.268396 248.957984 
L 65.672195 238.999144 
L 66.075994 70.014204 
L 66.479793 233.429108 
L 66.883592 77.092851 
L 67.287391 76.730441 
L 67.691191 202.254915 
L 68.09499 74.000945 
L 68.498789 195.071531 
L 68.902588 201.610105 
L 69.306387 198.469215 
L 69.710187 217.98092 
L 70.113986 217.298156 
L 70.517785 234.08734 
L 70.921584 236.798886 
L 71.325383 234.217716 
L 71.729182 241.095325 
L 72.132982 227.461983 
L 72.94058 233.423191 
L 73.344379 238.679831 
L 73.748178 236.209561 
L 74.151978 236.671221 
L 74.555777 239.787566 
L 74.959576 235.034991 
L 75.363375 232.861407 
L 76.170974 231.759941 
L 76.574773 218.575931 
L 76.978572 228.520484 
L 77.382371 256.389676 
L 77.78617 251.636609 
L 78.189969 250.209338 
L 78.593769 92.868112 
L 78.997568 217.48061 
L 79.401367 91.498889 
L 79.805166 93.223379 
L 80.208965 223.235925 
L 80.612765 229.886514 
L 81.016564 229.979174 
L 81.420363 238.521811 
L 81.824162 227.589549 
L 82.227961 95.570526 
L 82.631761 245.858775 
L 83.03556 250.571503 
L 83.439359 244.265124 
L 83.843158 89.938289 
L 84.246957 264.716 
L 84.650756 233.427285 
L 85.054556 243.760366 
L 85.458355 97.55656 
L 85.862154 101.119438 
L 86.265953 245.349783 
L 86.669752 218.637084 
L 87.073552 211.456792 
L 87.88115 204.342394 
L 88.284949 219.443224 
L 88.688748 92.770757 
L 89.092547 221.059522 
L 89.496347 229.920265 
L 89.900146 235.859219 
L 90.303945 238.156773 
L 90.707744 238.360879 
L 91.111543 222.519359 
L 91.515343 181.207944 
L 91.919142 207.792255 
L 92.322941 83.979561 
L 92.72674 207.056284 
L 93.130539 203.559251 
L 93.534339 93.412262 
L 93.938138 212.172263 
L 94.341937 97.835629 
L 94.745736 69.503048 
L 95.149535 173.908755 
L 95.553334 66.437782 
L 95.957134 66.324016 
L 96.360933 190.326245 
L 96.764732 188.633274 
L 97.168531 68.32305 
L 97.57233 69.574394 
L 97.97613 204.254547 
L 98.379929 207.520599 
L 98.783728 201.367132 
L 99.187527 199.455554 
L 99.591326 68.92002 
L 99.995126 64.60186 
L 100.398925 200.909348 
L 100.802724 198.24497 
L 101.206523 199.34507 
L 101.610322 204.636731 
L 102.014121 207.912649 
L 102.417921 208.728906 
L 102.82172 208.541285 
L 103.225519 209.374467 
L 103.629318 210.794254 
L 104.033117 207.895059 
L 104.436917 215.108298 
L 104.840716 215.261414 
L 105.244515 218.007929 
L 105.648314 216.045545 
L 106.052113 216.14863 
L 106.455912 210.746075 
L 106.859712 217.50107 
L 107.263511 212.402711 
L 107.66731 213.805338 
L 108.071109 82.051054 
L 108.474908 212.270547 
L 108.878708 213.088002 
L 109.282507 215.425352 
L 109.686306 215.726566 
L 110.090105 220.752713 
L 110.493904 220.881257 
L 110.897704 222.970588 
L 111.301503 221.326278 
L 111.705302 78.669548 
L 112.109101 218.682724 
L 112.5129 224.502336 
L 112.916699 224.271164 
L 113.320499 224.72084 
L 114.128097 229.983157 
L 114.531896 229.270171 
L 114.935695 227.570416 
L 115.339495 225.344818 
L 115.743294 225.612176 
L 116.954691 223.747057 
L 117.358491 219.46315 
L 117.76229 220.521137 
L 118.166089 222.156241 
L 118.973687 220.021632 
L 119.377486 78.601934 
L 119.781286 228.532886 
L 120.185085 81.647405 
L 120.588884 220.073849 
L 120.992683 218.665932 
L 121.396482 222.117731 
L 121.800282 238.050221 
L 122.204081 242.542349 
L 122.60788 233.715226 
L 123.011679 229.835408 
L 123.415478 227.60138 
L 123.819277 97.490068 
L 124.223077 95.278194 
L 124.626876 220.774016 
L 125.030675 218.733617 
L 125.434474 219.750397 
L 125.838273 219.836865 
L 126.242073 198.245473 
L 126.645872 198.398081 
L 127.049671 78.355389 
L 127.45347 196.717528 
L 127.857269 199.06841 
L 128.261069 74.447771 
L 128.664868 205.728226 
L 129.068667 212.872152 
L 129.472466 208.591221 
L 129.876265 213.060536 
L 130.280064 87.170329 
L 130.683864 216.47478 
L 131.087663 89.230531 
L 131.491462 90.054636 
L 131.895261 211.205147 
L 132.29906 209.3647 
L 132.70286 212.613269 
L 133.106659 211.663421 
L 133.510458 209.508143 
L 133.914257 208.089766 
L 134.318056 208.538375 
L 134.721855 208.659643 
L 135.125655 208.190211 
L 135.529454 209.371476 
L 135.933253 208.189893 
L 136.337052 76.667515 
L 136.740851 207.68587 
L 137.144651 77.542458 
L 137.54845 216.743431 
L 137.952249 214.92747 
L 138.356048 83.356945 
L 138.759847 208.176383 
L 139.163647 74.577896 
L 139.567446 206.092101 
L 139.971245 205.461671 
L 140.375044 207.043029 
L 140.778843 203.947282 
L 141.182642 205.402469 
L 141.586442 76.019598 
L 141.990241 216.617435 
L 142.39404 217.5588 
L 142.797839 230.104453 
L 143.201638 228.954529 
L 143.605438 224.11802 
L 144.009237 216.69493 
L 144.413036 79.996953 
L 144.816835 217.39315 
L 145.220634 215.78475 
L 145.624434 216.441998 
L 146.028233 214.196298 
L 146.432032 215.328054 
L 146.835831 216.029342 
L 147.23963 216.279609 
L 147.643429 216.092687 
L 148.047229 79.048298 
L 148.451028 213.223945 
L 148.854827 216.94407 
L 149.258626 213.610108 
L 149.662425 213.671542 
L 150.066225 215.612493 
L 150.470024 214.407935 
L 150.873823 212.555133 
L 151.277622 213.366474 
L 151.681421 213.873935 
L 152.08522 213.59788 
L 152.48902 214.604468 
L 152.892819 213.738017 
L 153.296618 215.553946 
L 153.700417 215.051891 
L 154.104216 214.16379 
L 154.508016 80.460422 
L 154.911815 222.576701 
L 155.315614 225.292278 
L 155.719413 80.19718 
L 156.123212 230.469056 
L 156.527012 231.061055 
L 156.930811 82.67141 
L 157.33461 232.16324 
L 157.738409 235.183154 
L 158.142208 231.970323 
L 158.546007 80.426172 
L 158.949807 231.238319 
L 159.353606 79.573589 
L 159.757405 231.997774 
L 160.161204 233.442391 
L 160.565003 233.896341 
L 160.968803 231.24462 
L 161.372602 232.790836 
L 161.776401 80.809557 
L 162.1802 230.198995 
L 162.583999 230.788127 
L 162.987799 228.964711 
L 163.391598 230.506676 
L 163.795397 231.24038 
L 164.199196 230.679278 
L 164.602995 228.655578 
L 165.006794 227.34063 
L 165.410594 228.665661 
L 165.814393 231.384247 
L 166.218192 226.212463 
L 166.621991 80.463294 
L 167.02579 227.386555 
L 167.42959 228.957893 
L 167.833389 229.002079 
L 168.237188 80.974678 
L 168.640987 82.13338 
L 169.044786 231.440483 
L 169.448585 229.768413 
L 169.852385 229.134634 
L 170.256184 81.28451 
L 170.659983 227.792618 
L 171.063782 226.139209 
L 171.467581 227.305627 
L 171.871381 81.631445 
L 172.27518 226.094263 
L 172.678979 226.021931 
L 173.082778 226.133121 
L 173.486577 227.356824 
L 173.890377 230.044247 
L 174.294176 227.746664 
L 174.697975 235.099657 
L 175.101774 237.945712 
L 175.505573 83.165556 
L 175.909372 236.741637 
L 176.313172 239.712797 
L 176.716971 239.414583 
L 177.12077 237.804697 
L 177.524569 239.568638 
L 177.928368 236.669911 
L 178.332168 241.171794 
L 178.735967 240.708351 
L 179.139766 237.626073 
L 179.543565 240.911256 
L 179.947364 237.982171 
L 180.351164 240.085411 
L 180.754963 240.058745 
L 181.158762 239.873 
L 181.562561 237.940924 
L 181.96636 241.251155 
L 182.370159 245.663969 
L 182.773959 241.105789 
L 183.177758 230.168828 
L 183.581557 82.886952 
L 183.985356 227.241367 
L 184.389155 218.537435 
L 184.792955 214.167838 
L 185.196754 213.355979 
L 185.600553 211.917727 
L 186.004352 213.064085 
L 186.408151 212.528496 
L 186.81195 214.306433 
L 187.21575 213.988918 
L 187.619549 215.064416 
L 188.023348 215.349947 
L 188.427147 213.663004 
L 188.830946 215.56495 
L 189.234746 82.480398 
L 189.638545 204.477653 
L 190.042344 203.399977 
L 190.446143 198.318483 
L 190.849942 198.124777 
L 191.253742 80.665282 
L 191.657541 198.825916 
L 192.06134 199.871619 
L 192.465139 199.246646 
L 192.868938 81.903256 
L 193.272737 79.014393 
L 193.676537 79.840556 
L 194.080336 200.446479 
L 194.484135 199.256251 
L 194.887934 200.489731 
L 195.291733 200.590377 
L 195.695533 203.215271 
L 196.099332 202.341937 
L 196.503131 202.320649 
L 196.90693 208.879033 
L 197.310729 209.453417 
L 197.714528 206.791954 
L 198.118328 209.442707 
L 198.522127 209.770836 
L 198.925926 208.76605 
L 199.329725 208.339837 
L 199.733524 212.319664 
L 200.137324 211.971562 
L 200.541123 211.358487 
L 200.944922 211.352103 
L 201.348721 212.879243 
L 201.75252 210.911739 
L 202.15632 213.593372 
L 202.560119 210.409864 
L 202.963918 212.719017 
L 203.367717 212.613605 
L 203.771516 82.030764 
L 204.175315 80.710924 
L 204.579115 212.323535 
L 204.982914 211.289882 
L 205.386713 212.835548 
L 205.790512 210.820686 
L 206.194311 211.985103 
L 206.598111 213.991726 
L 207.00191 213.070479 
L 207.405709 213.54392 
L 208.617107 211.104305 
L 209.020906 211.669113 
L 209.424705 79.348184 
L 209.828504 216.027397 
L 210.232303 213.364055 
L 210.636102 212.227457 
L 211.039902 81.807655 
L 211.443701 213.042605 
L 211.8475 211.22747 
L 212.251299 213.231486 
L 212.655098 213.91134 
L 213.058898 211.7828 
L 213.462697 212.278869 
L 213.866496 83.306609 
L 214.270295 212.161095 
L 214.674094 211.728405 
L 215.077893 81.007353 
L 215.481693 213.987422 
L 215.885492 210.597478 
L 216.289291 80.98245 
L 216.69309 214.25982 
L 217.096889 215.81265 
L 217.500689 213.302812 
L 218.308287 215.421097 
L 218.712086 213.904189 
L 219.115885 80.801922 
L 219.519685 214.670274 
L 219.923484 212.412146 
L 220.327283 82.950619 
L 220.731082 212.795738 
L 221.134881 213.274158 
L 221.53868 212.349346 
L 221.94248 214.534853 
L 222.346279 213.353586 
L 222.750078 80.131649 
L 223.153877 216.745289 
L 223.557676 215.612493 
L 223.961476 215.126518 
L 224.365275 218.011383 
L 224.769074 83.776225 
L 225.172873 215.937247 
L 225.576672 80.595027 
L 225.980472 216.279609 
L 226.384271 215.743712 
L 226.78807 82.463436 
L 227.191869 82.048577 
L 227.595668 81.272882 
L 227.999467 218.508392 
L 228.403267 216.910126 
L 228.807066 83.873968 
L 229.210865 205.292912 
L 229.614664 207.686787 
L 230.018463 78.398624 
L 230.422263 199.977033 
L 230.826062 79.249726 
L 231.229861 197.791308 
L 231.63366 200.802435 
L 232.037459 199.233891 
L 232.441258 199.121069 
L 232.845058 79.137336 
L 233.248857 198.698294 
L 233.652656 198.155294 
L 234.056455 199.674946 
L 234.460254 200.111889 
L 234.864054 199.528775 
L 235.267853 199.345703 
L 235.671652 79.402619 
L 236.075451 198.441066 
L 236.47925 197.585143 
L 236.88305 79.963245 
L 237.286849 199.380735 
L 237.690648 198.978487 
L 238.094447 198.181817 
L 238.498246 78.21438 
L 238.902045 79.281769 
L 239.305845 199.543652 
L 239.709644 200.90204 
L 240.113443 199.660213 
L 240.517242 199.41308 
L 240.921041 200.713717 
L 241.324841 199.709833 
L 241.72864 199.717852 
L 242.132439 203.257746 
L 242.536238 203.368283 
L 242.940037 78.427506 
L 243.343836 205.845997 
L 243.747636 208.303302 
L 244.151435 205.302134 
L 244.555234 204.96125 
L 244.959033 202.969902 
L 245.362832 204.055498 
L 245.766632 203.847899 
L 246.170431 204.461718 
L 246.57423 203.798331 
L 246.978029 202.913758 
L 247.381828 204.43105 
L 247.785628 214.097098 
L 248.189427 212.862411 
L 248.593226 214.756611 
L 248.997025 218.690751 
L 249.400824 224.223149 
L 249.804623 224.845684 
L 250.612222 229.201207 
L 251.016021 229.005676 
L 251.41982 232.81339 
L 251.823619 77.225743 
L 252.227419 238.785476 
L 252.631218 238.322785 
L 253.035017 244.067957 
L 253.438816 244.805771 
L 253.842615 81.047584 
L 254.246415 238.531612 
L 254.650214 238.127086 
L 255.054013 81.335309 
L 255.457812 238.143535 
L 255.861611 240.531312 
L 256.26541 238.420597 
L 256.66921 246.628986 
L 257.073009 246.927405 
L 257.476808 244.859557 
L 257.880607 245.070175 
L 258.284406 246.543376 
L 258.688206 242.916883 
L 259.092005 243.187208 
L 259.495804 243.608962 
L 259.899603 77.646432 
L 260.303402 240.979804 
L 261.111001 241.807049 
L 261.5148 75.345207 
L 261.918599 242.526806 
L 262.322398 250.734504 
L 262.726197 254.618684 
L 263.129997 248.518731 
L 263.533796 244.687548 
L 263.937595 239.10172 
L 264.341394 238.635458 
L 264.745193 239.71931 
L 265.148993 231.008278 
L 265.552792 230.454468 
L 265.956591 91.984694 
L 266.36039 223.840966 
L 266.764189 91.398729 
L 267.167988 88.948001 
L 267.571788 224.641538 
L 267.975587 224.268421 
L 268.379386 218.916384 
L 268.783185 219.174407 
L 269.186984 226.748385 
L 269.590784 229.854659 
L 269.994583 228.731651 
L 270.398382 226.88463 
L 270.802181 227.307186 
L 271.20598 226.708418 
L 271.60978 227.390544 
L 272.013579 225.437013 
L 272.417378 228.642077 
L 272.821177 228.271638 
L 273.224976 225.779697 
L 273.628775 221.685862 
L 274.032575 84.397801 
L 274.436374 226.946912 
L 274.840173 228.324619 
L 275.243972 228.695552 
L 275.647771 230.298064 
L 276.051571 228.587475 
L 276.45537 228.49912 
L 276.859169 227.825766 
L 277.262968 230.021542 
L 277.666767 234.216719 
L 278.070566 88.589337 
L 278.474366 241.939611 
L 278.878165 248.918733 
L 279.281964 252.177493 
L 279.685763 245.623606 
L 280.089562 242.481983 
L 280.493362 242.716287 
L 280.897161 84.465301 
L 281.30096 84.835854 
L 281.704759 245.536049 
L 282.108558 234.273486 
L 282.916157 229.477655 
L 283.319956 230.715396 
L 283.723755 79.07097 
L 284.127554 230.953635 
L 284.531353 225.080688 
L 284.935153 217.063902 
L 285.338952 218.877023 
L 285.742751 217.024537 
L 286.14655 216.81407 
L 286.550349 225.098909 
L 287.357948 222.548696 
L 287.761747 214.300031 
L 288.165546 208.906111 
L 288.569345 84.183092 
L 288.973145 220.478489 
L 289.376944 219.835895 
L 289.780743 219.787891 
L 290.184542 219.399059 
L 290.588341 217.518164 
L 290.99214 219.5079 
L 291.39594 222.461805 
L 291.799739 217.163024 
L 292.203538 219.460711 
L 292.607337 79.691328 
L 293.011136 227.634079 
L 293.414936 225.580777 
L 293.818735 78.050091 
L 294.222534 224.262883 
L 295.030132 220.80204 
L 295.433931 223.99487 
L 295.837731 221.703872 
L 296.24153 77.618728 
L 296.645329 219.492914 
L 297.049128 219.396268 
L 297.452927 76.337876 
L 297.856727 222.654953 
L 298.260526 221.73563 
L 298.664325 222.836706 
L 299.068124 221.649855 
L 299.471923 220.826584 
L 299.875723 223.644616 
L 300.279522 224.680867 
L 300.683321 220.415226 
L 301.08712 220.974666 
L 301.490919 221.341541 
L 301.894718 217.078856 
L 302.298518 215.911232 
L 302.702317 218.182739 
L 303.106116 218.111865 
L 303.509915 217.51122 
L 303.913714 217.926131 
L 304.317514 212.958767 
L 304.721313 205.981345 
L 305.125112 72.814476 
L 305.528911 200.59217 
L 305.93271 242.709903 
L 306.336509 199.004984 
L 306.740309 200.226437 
L 307.144108 47.71311 
L 307.547907 220.212057 
L 307.951706 220.568499 
L 308.355505 221.603726 
L 308.759305 224.083455 
L 309.163104 225.474779 
L 309.566903 227.384653 
L 309.970702 222.026611 
L 310.374501 223.239692 
L 310.778301 223.071345 
L 311.1821 229.056883 
L 311.585899 85.2608 
L 311.989698 218.675001 
L 312.393497 219.775525 
L 312.797296 68.219085 
L 313.201096 208.745657 
L 313.604895 227.511321 
L 314.008694 223.334263 
L 314.412493 216.589568 
L 314.816292 217.08857 
L 315.220092 221.857683 
L 315.623891 214.883071 
L 316.02769 216.478509 
L 316.431489 223.840216 
L 316.835288 218.028255 
L 317.239088 103.251264 
L 317.642887 212.70326 
L 318.046686 207.621129 
L 318.450485 212.500906 
L 318.854284 212.046745 
L 319.258083 211.343866 
L 319.661883 213.828853 
L 320.065682 220.52454 
L 320.469481 85.775757 
L 320.87328 221.502109 
L 321.277079 221.150926 
L 321.680879 221.070006 
L 322.084678 222.612908 
L 322.488477 85.750223 
L 322.892276 221.295396 
L 323.296075 220.856541 
L 323.699874 218.994565 
L 324.103674 220.055939 
L 324.507473 218.253251 
L 324.911272 87.166584 
L 325.315071 224.539457 
L 325.71887 223.348845 
L 326.12267 228.322028 
L 326.526469 95.273339 
L 326.930268 229.235962 
L 327.334067 218.235828 
L 327.737866 220.456973 
L 328.141666 83.454506 
L 328.545465 83.606711 
L 328.949264 222.92743 
L 329.353063 222.288347 
L 329.756862 221.343794 
L 330.160661 224.138657 
L 330.564461 218.216795 
L 330.96826 222.061969 
L 331.372059 220.185407 
L 331.775858 219.285505 
L 332.179657 220.617626 
L 332.583457 220.20609 
L 332.987256 220.335322 
L 333.391055 219.232512 
L 333.794854 220.52196 
L 334.198653 219.116174 
L 334.602453 220.722246 
L 335.006252 224.350486 
L 335.410051 222.374351 
L 335.81385 221.802039 
L 336.217649 220.278103 
L 336.621448 220.022851 
L 337.025248 221.876838 
L 337.832846 220.53968 
L 338.236645 221.017893 
L 338.640444 220.286036 
L 339.448043 219.673238 
L 339.851842 218.674163 
L 340.255641 89.777052 
L 340.65944 221.717425 
L 341.063239 223.751065 
L 341.467039 233.589524 
L 341.870838 230.934974 
L 342.274637 218.565061 
L 342.678436 220.749746 
L 343.082235 220.743273 
L 343.486035 92.343821 
L 343.889834 93.47575 
L 344.293633 218.152993 
L 344.697432 218.200084 
L 345.101231 220.321784 
L 345.505031 215.219537 
L 345.90883 211.885059 
L 346.312629 218.100704 
L 346.716428 217.48042 
L 347.120227 95.053694 
L 347.524026 93.892799 
L 347.927826 222.992999 
L 348.331625 91.397519 
L 348.735424 92.898659 
L 349.139223 91.041691 
L 349.543022 91.114131 
L 349.946822 90.232449 
L 350.350621 88.972699 
L 350.75442 212.225029 
L 351.158219 213.478347 
L 351.562018 215.717504 
L 351.965818 94.018722 
L 352.369617 91.500147 
L 352.773416 214.760126 
L 353.177215 216.991363 
L 353.581014 217.130464 
L 353.984813 87.13554 
L 354.388613 89.295824 
L 354.792412 206.630556 
L 355.196211 204.784497 
L 355.60001 202.070988 
L 356.003809 201.483194 
L 356.407609 199.002311 
L 356.811408 192.036367 
L 357.215207 194.019542 
L 357.619006 79.949168 
L 358.022805 190.460852 
L 358.426604 193.301971 
L 358.830404 192.08066 
L 359.234203 81.696846 
L 359.638002 193.372732 
L 360.041801 81.390665 
L 360.4456 190.10702 
L 360.8494 184.374644 
L 361.253199 77.115426 
L 361.656998 79.971862 
L 362.060797 183.338502 
L 362.464596 182.956775 
L 362.868396 187.708676 
L 363.272195 85.218422 
L 363.675994 189.487581 
L 364.079793 189.817707 
L 364.483592 194.016585 
L 364.887391 202.764519 
L 365.291191 208.523427 
L 365.69499 206.156567 
L 366.098789 206.610932 
L 366.502588 207.796855 
L 366.906387 207.506828 
L 367.310187 29.434248 
L 367.713986 204.847015 
L 368.117785 206.350668 
L 368.521584 204.235546 
L 368.925383 205.835636 
L 369.732982 203.569828 
L 370.136781 205.798984 
L 370.54058 27.860201 
L 370.944379 23.468169 
L 371.348178 22.796 
L 371.751978 199.337274 
L 372.155777 199.666252 
L 372.559576 197.502896 
L 372.963375 199.051022 
L 373.367174 195.975271 
L 373.770974 198.60445 
L 374.174773 196.437444 
L 374.174773 196.437444 
" style="fill:none;stroke:#1f77b4;stroke-linecap:square;stroke-width:1.5;"/>
   </g>
   <g id="patch_3">
    <path d="M 33.2875 276.812 
L 33.2875 10.7 
" style="fill:none;stroke:#000000;stroke-linecap:square;stroke-linejoin:miter;stroke-width:0.8;"/>
   </g>
   <g id="patch_4">
    <path d="M 390.4075 276.812 
L 390.4075 10.7 
" style="fill:none;stroke:#000000;stroke-linecap:square;stroke-linejoin:miter;stroke-width:0.8;"/>
   </g>
   <g id="patch_5">
    <path d="M 33.2875 276.812 
L 390.4075 276.812 
" style="fill:none;stroke:#000000;stroke-linecap:square;stroke-linejoin:miter;stroke-width:0.8;"/>
   </g>
   <g id="patch_6">
    <path d="M 33.2875 10.7 
L 390.4075 10.7 
" style="fill:none;stroke:#000000;stroke-linecap:square;stroke-linejoin:miter;stroke-width:0.8;"/>
   </g>
  </g>
 </g>
 <defs>
  <clipPath id="pab60d3adbc">
   <rect height="266.112" width="357.12" x="33.2875" y="10.7"/>
  </clipPath>
 </defs>
</svg>
