<?xml version="1.0" encoding="utf-8" standalone="no"?>
<!DOCTYPE svg PUBLIC "-//W3C//DTD SVG 1.1//EN"
  "http://www.w3.org/Graphics/SVG/1.1/DTD/svg11.dtd">
<!-- Created with matplotlib (http://matplotlib.org/) -->
<svg height="300.690125pt" version="1.1" viewBox="0 0 401.1075 300.690125" width="401.1075pt" xmlns="http://www.w3.org/2000/svg" xmlns:xlink="http://www.w3.org/1999/xlink">
 <defs>
  <style type="text/css">
*{stroke-linecap:butt;stroke-linejoin:round;}
  </style>
 </defs>
 <g id="figure_1">
  <g id="patch_1">
   <path d="M 0 300.690125 
L 401.1075 300.690125 
L 401.1075 0 
L 0 0 
z
" style="fill:#ffffff;"/>
  </g>
  <g id="axes_1">
   <g id="patch_2">
    <path d="M 33.2875 276.812 
L 390.4075 276.812 
L 390.4075 10.7 
L 33.2875 10.7 
z
" style="fill:#ffffff;"/>
   </g>
   <g id="matplotlib.axis_1">
    <g id="xtick_1">
     <g id="line2d_1">
      <defs>
       <path d="M 0 0 
L 0 3.5 
" id="m9f99ada479" style="stroke:#000000;stroke-width:0.8;"/>
      </defs>
      <g>
       <use style="stroke:#000000;stroke-width:0.8;" x="49.520227" xlink:href="#m9f99ada479" y="276.812"/>
      </g>
     </g>
     <g id="text_1">
      <!-- 0 -->
      <defs>
       <path d="M 31.78125 66.40625 
Q 24.171875 66.40625 20.328125 58.90625 
Q 16.5 51.421875 16.5 36.375 
Q 16.5 21.390625 20.328125 13.890625 
Q 24.171875 6.390625 31.78125 6.390625 
Q 39.453125 6.390625 43.28125 13.890625 
Q 47.125 21.390625 47.125 36.375 
Q 47.125 51.421875 43.28125 58.90625 
Q 39.453125 66.40625 31.78125 66.40625 
z
M 31.78125 74.21875 
Q 44.046875 74.21875 50.515625 64.515625 
Q 56.984375 54.828125 56.984375 36.375 
Q 56.984375 17.96875 50.515625 8.265625 
Q 44.046875 -1.421875 31.78125 -1.421875 
Q 19.53125 -1.421875 13.0625 8.265625 
Q 6.59375 17.96875 6.59375 36.375 
Q 6.59375 54.828125 13.0625 64.515625 
Q 19.53125 74.21875 31.78125 74.21875 
z
" id="DejaVuSans-30"/>
      </defs>
      <g transform="translate(46.338977 291.410437)scale(0.1 -0.1)">
       <use xlink:href="#DejaVuSans-30"/>
      </g>
     </g>
    </g>
    <g id="xtick_2">
     <g id="line2d_2">
      <g>
       <use style="stroke:#000000;stroke-width:0.8;" x="90.102045" xlink:href="#m9f99ada479" y="276.812"/>
      </g>
     </g>
     <g id="text_2">
      <!-- 50 -->
      <defs>
       <path d="M 10.796875 72.90625 
L 49.515625 72.90625 
L 49.515625 64.59375 
L 19.828125 64.59375 
L 19.828125 46.734375 
Q 21.96875 47.46875 24.109375 47.828125 
Q 26.265625 48.1875 28.421875 48.1875 
Q 40.625 48.1875 47.75 41.5 
Q 54.890625 34.8125 54.890625 23.390625 
Q 54.890625 11.625 47.5625 5.09375 
Q 40.234375 -1.421875 26.90625 -1.421875 
Q 22.3125 -1.421875 17.546875 -0.640625 
Q 12.796875 0.140625 7.71875 1.703125 
L 7.71875 11.625 
Q 12.109375 9.234375 16.796875 8.0625 
Q 21.484375 6.890625 26.703125 6.890625 
Q 35.15625 6.890625 40.078125 11.328125 
Q 45.015625 15.765625 45.015625 23.390625 
Q 45.015625 31 40.078125 35.4375 
Q 35.15625 39.890625 26.703125 39.890625 
Q 22.75 39.890625 18.8125 39.015625 
Q 14.890625 38.140625 10.796875 36.28125 
z
" id="DejaVuSans-35"/>
      </defs>
      <g transform="translate(83.739545 291.410437)scale(0.1 -0.1)">
       <use xlink:href="#DejaVuSans-35"/>
       <use x="63.623047" xlink:href="#DejaVuSans-30"/>
      </g>
     </g>
    </g>
    <g id="xtick_3">
     <g id="line2d_3">
      <g>
       <use style="stroke:#000000;stroke-width:0.8;" x="130.683864" xlink:href="#m9f99ada479" y="276.812"/>
      </g>
     </g>
     <g id="text_3">
      <!-- 100 -->
      <defs>
       <path d="M 12.40625 8.296875 
L 28.515625 8.296875 
L 28.515625 63.921875 
L 10.984375 60.40625 
L 10.984375 69.390625 
L 28.421875 72.90625 
L 38.28125 72.90625 
L 38.28125 8.296875 
L 54.390625 8.296875 
L 54.390625 0 
L 12.40625 0 
z
" id="DejaVuSans-31"/>
      </defs>
      <g transform="translate(121.140114 291.410437)scale(0.1 -0.1)">
       <use xlink:href="#DejaVuSans-31"/>
       <use x="63.623047" xlink:href="#DejaVuSans-30"/>
       <use x="127.246094" xlink:href="#DejaVuSans-30"/>
      </g>
     </g>
    </g>
    <g id="xtick_4">
     <g id="line2d_4">
      <g>
       <use style="stroke:#000000;stroke-width:0.8;" x="171.265682" xlink:href="#m9f99ada479" y="276.812"/>
      </g>
     </g>
     <g id="text_4">
      <!-- 150 -->
      <g transform="translate(161.721932 291.410437)scale(0.1 -0.1)">
       <use xlink:href="#DejaVuSans-31"/>
       <use x="63.623047" xlink:href="#DejaVuSans-35"/>
       <use x="127.246094" xlink:href="#DejaVuSans-30"/>
      </g>
     </g>
    </g>
    <g id="xtick_5">
     <g id="line2d_5">
      <g>
       <use style="stroke:#000000;stroke-width:0.8;" x="211.8475" xlink:href="#m9f99ada479" y="276.812"/>
      </g>
     </g>
     <g id="text_5">
      <!-- 200 -->
      <defs>
       <path d="M 19.1875 8.296875 
L 53.609375 8.296875 
L 53.609375 0 
L 7.328125 0 
L 7.328125 8.296875 
Q 12.9375 14.109375 22.625 23.890625 
Q 32.328125 33.6875 34.8125 36.53125 
Q 39.546875 41.84375 41.421875 45.53125 
Q 43.3125 49.21875 43.3125 52.78125 
Q 43.3125 58.59375 39.234375 62.25 
Q 35.15625 65.921875 28.609375 65.921875 
Q 23.96875 65.921875 18.8125 64.3125 
Q 13.671875 62.703125 7.8125 59.421875 
L 7.8125 69.390625 
Q 13.765625 71.78125 18.9375 73 
Q 24.125 74.21875 28.421875 74.21875 
Q 39.75 74.21875 46.484375 68.546875 
Q 53.21875 62.890625 53.21875 53.421875 
Q 53.21875 48.921875 51.53125 44.890625 
Q 49.859375 40.875 45.40625 35.40625 
Q 44.1875 33.984375 37.640625 27.21875 
Q 31.109375 20.453125 19.1875 8.296875 
z
" id="DejaVuSans-32"/>
      </defs>
      <g transform="translate(202.30375 291.410437)scale(0.1 -0.1)">
       <use xlink:href="#DejaVuSans-32"/>
       <use x="63.623047" xlink:href="#DejaVuSans-30"/>
       <use x="127.246094" xlink:href="#DejaVuSans-30"/>
      </g>
     </g>
    </g>
    <g id="xtick_6">
     <g id="line2d_6">
      <g>
       <use style="stroke:#000000;stroke-width:0.8;" x="252.429318" xlink:href="#m9f99ada479" y="276.812"/>
      </g>
     </g>
     <g id="text_6">
      <!-- 250 -->
      <g transform="translate(242.885568 291.410437)scale(0.1 -0.1)">
       <use xlink:href="#DejaVuSans-32"/>
       <use x="63.623047" xlink:href="#DejaVuSans-35"/>
       <use x="127.246094" xlink:href="#DejaVuSans-30"/>
      </g>
     </g>
    </g>
    <g id="xtick_7">
     <g id="line2d_7">
      <g>
       <use style="stroke:#000000;stroke-width:0.8;" x="293.011136" xlink:href="#m9f99ada479" y="276.812"/>
      </g>
     </g>
     <g id="text_7">
      <!-- 300 -->
      <defs>
       <path d="M 40.578125 39.3125 
Q 47.65625 37.796875 51.625 33 
Q 55.609375 28.21875 55.609375 21.1875 
Q 55.609375 10.40625 48.1875 4.484375 
Q 40.765625 -1.421875 27.09375 -1.421875 
Q 22.515625 -1.421875 17.65625 -0.515625 
Q 12.796875 0.390625 7.625 2.203125 
L 7.625 11.71875 
Q 11.71875 9.328125 16.59375 8.109375 
Q 21.484375 6.890625 26.8125 6.890625 
Q 36.078125 6.890625 40.9375 10.546875 
Q 45.796875 14.203125 45.796875 21.1875 
Q 45.796875 27.640625 41.28125 31.265625 
Q 36.765625 34.90625 28.71875 34.90625 
L 20.21875 34.90625 
L 20.21875 43.015625 
L 29.109375 43.015625 
Q 36.375 43.015625 40.234375 45.921875 
Q 44.09375 48.828125 44.09375 54.296875 
Q 44.09375 59.90625 40.109375 62.90625 
Q 36.140625 65.921875 28.71875 65.921875 
Q 24.65625 65.921875 20.015625 65.03125 
Q 15.375 64.15625 9.8125 62.3125 
L 9.8125 71.09375 
Q 15.4375 72.65625 20.34375 73.4375 
Q 25.25 74.21875 29.59375 74.21875 
Q 40.828125 74.21875 47.359375 69.109375 
Q 53.90625 64.015625 53.90625 55.328125 
Q 53.90625 49.265625 50.4375 45.09375 
Q 46.96875 40.921875 40.578125 39.3125 
z
" id="DejaVuSans-33"/>
      </defs>
      <g transform="translate(283.467386 291.410437)scale(0.1 -0.1)">
       <use xlink:href="#DejaVuSans-33"/>
       <use x="63.623047" xlink:href="#DejaVuSans-30"/>
       <use x="127.246094" xlink:href="#DejaVuSans-30"/>
      </g>
     </g>
    </g>
    <g id="xtick_8">
     <g id="line2d_8">
      <g>
       <use style="stroke:#000000;stroke-width:0.8;" x="333.592955" xlink:href="#m9f99ada479" y="276.812"/>
      </g>
     </g>
     <g id="text_8">
      <!-- 350 -->
      <g transform="translate(324.049205 291.410437)scale(0.1 -0.1)">
       <use xlink:href="#DejaVuSans-33"/>
       <use x="63.623047" xlink:href="#DejaVuSans-35"/>
       <use x="127.246094" xlink:href="#DejaVuSans-30"/>
      </g>
     </g>
    </g>
    <g id="xtick_9">
     <g id="line2d_9">
      <g>
       <use style="stroke:#000000;stroke-width:0.8;" x="374.174773" xlink:href="#m9f99ada479" y="276.812"/>
      </g>
     </g>
     <g id="text_9">
      <!-- 400 -->
      <defs>
       <path d="M 37.796875 64.3125 
L 12.890625 25.390625 
L 37.796875 25.390625 
z
M 35.203125 72.90625 
L 47.609375 72.90625 
L 47.609375 25.390625 
L 58.015625 25.390625 
L 58.015625 17.1875 
L 47.609375 17.1875 
L 47.609375 0 
L 37.796875 0 
L 37.796875 17.1875 
L 4.890625 17.1875 
L 4.890625 26.703125 
z
" id="DejaVuSans-34"/>
      </defs>
      <g transform="translate(364.631023 291.410437)scale(0.1 -0.1)">
       <use xlink:href="#DejaVuSans-34"/>
       <use x="63.623047" xlink:href="#DejaVuSans-30"/>
       <use x="127.246094" xlink:href="#DejaVuSans-30"/>
      </g>
     </g>
    </g>
   </g>
   <g id="matplotlib.axis_2">
    <g id="ytick_1">
     <g id="line2d_10">
      <defs>
       <path d="M 0 0 
L -3.5 0 
" id="m0f18ff1e75" style="stroke:#000000;stroke-width:0.8;"/>
      </defs>
      <g>
       <use style="stroke:#000000;stroke-width:0.8;" x="33.2875" xlink:href="#m0f18ff1e75" y="276.570099"/>
      </g>
     </g>
     <g id="text_10">
      <!-- 40 -->
      <g transform="translate(13.5625 280.369317)scale(0.1 -0.1)">
       <use xlink:href="#DejaVuSans-34"/>
       <use x="63.623047" xlink:href="#DejaVuSans-30"/>
      </g>
     </g>
    </g>
    <g id="ytick_2">
     <g id="line2d_11">
      <g>
       <use style="stroke:#000000;stroke-width:0.8;" x="33.2875" xlink:href="#m0f18ff1e75" y="241.849929"/>
      </g>
     </g>
     <g id="text_11">
      <!-- 50 -->
      <g transform="translate(13.5625 245.649148)scale(0.1 -0.1)">
       <use xlink:href="#DejaVuSans-35"/>
       <use x="63.623047" xlink:href="#DejaVuSans-30"/>
      </g>
     </g>
    </g>
    <g id="ytick_3">
     <g id="line2d_12">
      <g>
       <use style="stroke:#000000;stroke-width:0.8;" x="33.2875" xlink:href="#m0f18ff1e75" y="207.129759"/>
      </g>
     </g>
     <g id="text_12">
      <!-- 60 -->
      <defs>
       <path d="M 33.015625 40.375 
Q 26.375 40.375 22.484375 35.828125 
Q 18.609375 31.296875 18.609375 23.390625 
Q 18.609375 15.53125 22.484375 10.953125 
Q 26.375 6.390625 33.015625 6.390625 
Q 39.65625 6.390625 43.53125 10.953125 
Q 47.40625 15.53125 47.40625 23.390625 
Q 47.40625 31.296875 43.53125 35.828125 
Q 39.65625 40.375 33.015625 40.375 
z
M 52.59375 71.296875 
L 52.59375 62.3125 
Q 48.875 64.0625 45.09375 64.984375 
Q 41.3125 65.921875 37.59375 65.921875 
Q 27.828125 65.921875 22.671875 59.328125 
Q 17.53125 52.734375 16.796875 39.40625 
Q 19.671875 43.65625 24.015625 45.921875 
Q 28.375 48.1875 33.59375 48.1875 
Q 44.578125 48.1875 50.953125 41.515625 
Q 57.328125 34.859375 57.328125 23.390625 
Q 57.328125 12.15625 50.6875 5.359375 
Q 44.046875 -1.421875 33.015625 -1.421875 
Q 20.359375 -1.421875 13.671875 8.265625 
Q 6.984375 17.96875 6.984375 36.375 
Q 6.984375 53.65625 15.1875 63.9375 
Q 23.390625 74.21875 37.203125 74.21875 
Q 40.921875 74.21875 44.703125 73.484375 
Q 48.484375 72.75 52.59375 71.296875 
z
" id="DejaVuSans-36"/>
      </defs>
      <g transform="translate(13.5625 210.928978)scale(0.1 -0.1)">
       <use xlink:href="#DejaVuSans-36"/>
       <use x="63.623047" xlink:href="#DejaVuSans-30"/>
      </g>
     </g>
    </g>
    <g id="ytick_4">
     <g id="line2d_13">
      <g>
       <use style="stroke:#000000;stroke-width:0.8;" x="33.2875" xlink:href="#m0f18ff1e75" y="172.40959"/>
      </g>
     </g>
     <g id="text_13">
      <!-- 70 -->
      <defs>
       <path d="M 8.203125 72.90625 
L 55.078125 72.90625 
L 55.078125 68.703125 
L 28.609375 0 
L 18.3125 0 
L 43.21875 64.59375 
L 8.203125 64.59375 
z
" id="DejaVuSans-37"/>
      </defs>
      <g transform="translate(13.5625 176.208808)scale(0.1 -0.1)">
       <use xlink:href="#DejaVuSans-37"/>
       <use x="63.623047" xlink:href="#DejaVuSans-30"/>
      </g>
     </g>
    </g>
    <g id="ytick_5">
     <g id="line2d_14">
      <g>
       <use style="stroke:#000000;stroke-width:0.8;" x="33.2875" xlink:href="#m0f18ff1e75" y="137.68942"/>
      </g>
     </g>
     <g id="text_14">
      <!-- 80 -->
      <defs>
       <path d="M 31.78125 34.625 
Q 24.75 34.625 20.71875 30.859375 
Q 16.703125 27.09375 16.703125 20.515625 
Q 16.703125 13.921875 20.71875 10.15625 
Q 24.75 6.390625 31.78125 6.390625 
Q 38.8125 6.390625 42.859375 10.171875 
Q 46.921875 13.96875 46.921875 20.515625 
Q 46.921875 27.09375 42.890625 30.859375 
Q 38.875 34.625 31.78125 34.625 
z
M 21.921875 38.8125 
Q 15.578125 40.375 12.03125 44.71875 
Q 8.5 49.078125 8.5 55.328125 
Q 8.5 64.0625 14.71875 69.140625 
Q 20.953125 74.21875 31.78125 74.21875 
Q 42.671875 74.21875 48.875 69.140625 
Q 55.078125 64.0625 55.078125 55.328125 
Q 55.078125 49.078125 51.53125 44.71875 
Q 48 40.375 41.703125 38.8125 
Q 48.828125 37.15625 52.796875 32.3125 
Q 56.78125 27.484375 56.78125 20.515625 
Q 56.78125 9.90625 50.3125 4.234375 
Q 43.84375 -1.421875 31.78125 -1.421875 
Q 19.734375 -1.421875 13.25 4.234375 
Q 6.78125 9.90625 6.78125 20.515625 
Q 6.78125 27.484375 10.78125 32.3125 
Q 14.796875 37.15625 21.921875 38.8125 
z
M 18.3125 54.390625 
Q 18.3125 48.734375 21.84375 45.5625 
Q 25.390625 42.390625 31.78125 42.390625 
Q 38.140625 42.390625 41.71875 45.5625 
Q 45.3125 48.734375 45.3125 54.390625 
Q 45.3125 60.0625 41.71875 63.234375 
Q 38.140625 66.40625 31.78125 66.40625 
Q 25.390625 66.40625 21.84375 63.234375 
Q 18.3125 60.0625 18.3125 54.390625 
z
" id="DejaVuSans-38"/>
      </defs>
      <g transform="translate(13.5625 141.488639)scale(0.1 -0.1)">
       <use xlink:href="#DejaVuSans-38"/>
       <use x="63.623047" xlink:href="#DejaVuSans-30"/>
      </g>
     </g>
    </g>
    <g id="ytick_6">
     <g id="line2d_15">
      <g>
       <use style="stroke:#000000;stroke-width:0.8;" x="33.2875" xlink:href="#m0f18ff1e75" y="102.96925"/>
      </g>
     </g>
     <g id="text_15">
      <!-- 90 -->
      <defs>
       <path d="M 10.984375 1.515625 
L 10.984375 10.5 
Q 14.703125 8.734375 18.5 7.8125 
Q 22.3125 6.890625 25.984375 6.890625 
Q 35.75 6.890625 40.890625 13.453125 
Q 46.046875 20.015625 46.78125 33.40625 
Q 43.953125 29.203125 39.59375 26.953125 
Q 35.25 24.703125 29.984375 24.703125 
Q 19.046875 24.703125 12.671875 31.3125 
Q 6.296875 37.9375 6.296875 49.421875 
Q 6.296875 60.640625 12.9375 67.421875 
Q 19.578125 74.21875 30.609375 74.21875 
Q 43.265625 74.21875 49.921875 64.515625 
Q 56.59375 54.828125 56.59375 36.375 
Q 56.59375 19.140625 48.40625 8.859375 
Q 40.234375 -1.421875 26.421875 -1.421875 
Q 22.703125 -1.421875 18.890625 -0.6875 
Q 15.09375 0.046875 10.984375 1.515625 
z
M 30.609375 32.421875 
Q 37.25 32.421875 41.125 36.953125 
Q 45.015625 41.5 45.015625 49.421875 
Q 45.015625 57.28125 41.125 61.84375 
Q 37.25 66.40625 30.609375 66.40625 
Q 23.96875 66.40625 20.09375 61.84375 
Q 16.21875 57.28125 16.21875 49.421875 
Q 16.21875 41.5 20.09375 36.953125 
Q 23.96875 32.421875 30.609375 32.421875 
z
" id="DejaVuSans-39"/>
      </defs>
      <g transform="translate(13.5625 106.768469)scale(0.1 -0.1)">
       <use xlink:href="#DejaVuSans-39"/>
       <use x="63.623047" xlink:href="#DejaVuSans-30"/>
      </g>
     </g>
    </g>
    <g id="ytick_7">
     <g id="line2d_16">
      <g>
       <use style="stroke:#000000;stroke-width:0.8;" x="33.2875" xlink:href="#m0f18ff1e75" y="68.249081"/>
      </g>
     </g>
     <g id="text_16">
      <!-- 100 -->
      <g transform="translate(7.2 72.048299)scale(0.1 -0.1)">
       <use xlink:href="#DejaVuSans-31"/>
       <use x="63.623047" xlink:href="#DejaVuSans-30"/>
       <use x="127.246094" xlink:href="#DejaVuSans-30"/>
      </g>
     </g>
    </g>
    <g id="ytick_8">
     <g id="line2d_17">
      <g>
       <use style="stroke:#000000;stroke-width:0.8;" x="33.2875" xlink:href="#m0f18ff1e75" y="33.528911"/>
      </g>
     </g>
     <g id="text_17">
      <!-- 110 -->
      <g transform="translate(7.2 37.32813)scale(0.1 -0.1)">
       <use xlink:href="#DejaVuSans-31"/>
       <use x="63.623047" xlink:href="#DejaVuSans-31"/>
       <use x="127.246094" xlink:href="#DejaVuSans-30"/>
      </g>
     </g>
    </g>
   </g>
   <g id="line2d_18">
    <path clip-path="url(#p92e830743d)" d="M 49.520227 262.698947 
L 50.331864 256.44312 
L 51.1435 194.747256 
L 51.955136 200.590022 
L 52.766773 196.282045 
L 53.578409 199.429463 
L 54.390045 196.132561 
L 55.201682 201.683228 
L 56.824955 189.264999 
L 57.636591 197.201723 
L 58.448227 197.195728 
L 59.259864 209.220045 
L 60.0715 216.51695 
L 60.883136 216.842707 
L 61.694773 216.80862 
L 62.506409 220.475682 
L 63.318045 212.30308 
L 64.129682 207.732723 
L 64.941318 219.853044 
L 65.752955 203.391603 
L 66.564591 214.92616 
L 67.376227 207.661271 
L 68.187864 196.01574 
L 68.9995 211.886962 
L 69.811136 215.368613 
L 70.622773 222.455041 
L 71.434409 198.402617 
L 72.246045 223.120317 
L 73.057682 185.853081 
L 73.869318 199.150404 
L 74.680955 221.228434 
L 75.492591 216.547009 
L 76.304227 190.114615 
L 77.115864 225.424934 
L 77.9275 185.959596 
L 78.739136 220.169909 
L 79.550773 184.380321 
L 80.362409 183.466659 
L 81.174045 210.934076 
L 81.985682 191.064755 
L 82.797318 215.244045 
L 83.608955 197.157633 
L 84.420591 208.862028 
L 85.232227 207.178941 
L 86.043864 192.110883 
L 86.8555 211.399934 
L 87.667136 209.713386 
L 88.478773 205.737741 
L 89.290409 200.242724 
L 90.102045 212.292864 
L 90.913682 211.380658 
L 91.725318 208.955601 
L 92.536955 217.198994 
L 93.348591 199.332555 
L 94.160227 215.364605 
L 94.971864 214.850463 
L 95.7835 203.717983 
L 96.595136 203.878009 
L 97.406773 201.121648 
L 98.218409 211.698744 
L 99.030045 205.843325 
L 99.841682 212.226057 
L 100.653318 209.813025 
L 101.464955 212.030193 
L 102.276591 199.175827 
L 103.088227 212.991077 
L 103.899864 202.376095 
L 104.7115 212.588631 
L 105.523136 187.696761 
L 106.334773 180.080376 
L 107.146409 214.191289 
L 107.958045 242.633826 
L 108.769682 195.138715 
L 109.581318 195.319144 
L 110.392955 191.724043 
L 111.204591 217.606487 
L 112.016227 217.470333 
L 112.827864 236.155137 
L 113.6395 184.968594 
L 114.451136 149.628288 
L 115.262773 143.345034 
L 116.074409 192.179654 
L 116.886045 195.803369 
L 117.697682 187.246164 
L 118.509318 200.809256 
L 119.320955 196.995735 
L 120.132591 196.887957 
L 120.944227 186.82299 
L 121.755864 195.968126 
L 122.5675 209.646668 
L 123.379136 187.817672 
L 124.190773 212.738979 
L 125.002409 216.145297 
L 125.814045 195.088615 
L 126.625682 193.736294 
L 127.437318 198.070762 
L 128.248955 210.001184 
L 129.060591 209.778686 
L 129.872227 193.08957 
L 130.683864 202.685762 
L 131.4955 193.922959 
L 132.307136 215.789492 
L 133.118773 194.794625 
L 133.930409 201.445217 
L 134.742045 220.637943 
L 135.553682 208.062075 
L 136.365318 212.211669 
L 137.176955 194.496711 
L 137.988591 196.77123 
L 138.800227 199.919061 
L 139.611864 208.560612 
L 140.4235 199.745413 
L 141.235136 201.379927 
L 142.046773 224.998301 
L 142.858409 205.893249 
L 143.670045 209.26409 
L 144.481682 236.450665 
L 145.293318 165.17396 
L 146.104955 215.253067 
L 146.916591 217.266578 
L 147.728227 217.849022 
L 148.539864 217.109346 
L 149.3515 177.528859 
L 150.163136 197.275468 
L 150.974773 187.155665 
L 151.786409 195.61887 
L 152.598045 229.513773 
L 153.409682 177.395195 
L 154.221318 224.652749 
L 155.032955 243.495577 
L 155.844591 216.148261 
L 156.656227 212.98325 
L 157.467864 220.496994 
L 158.2795 214.923448 
L 159.091136 227.071114 
L 159.902773 203.204838 
L 160.714409 202.163124 
L 161.526045 206.118378 
L 162.337682 183.103831 
L 163.149318 262.143287 
L 163.960955 191.030243 
L 164.772591 226.293086 
L 165.584227 213.871038 
L 166.395864 224.161802 
L 167.2075 201.604296 
L 168.019136 196.80834 
L 168.830773 201.119873 
L 169.642409 229.761668 
L 170.454045 232.372602 
L 171.265682 201.358112 
L 172.077318 224.544922 
L 172.888955 200.64411 
L 173.700591 211.136885 
L 174.512227 188.685412 
L 175.323864 209.570843 
L 176.1355 184.597519 
L 176.947136 189.250294 
L 177.758773 204.709712 
L 178.570409 196.345465 
L 179.382045 218.81409 
L 180.193682 190.760348 
L 181.816955 209.47523 
L 182.628591 210.721135 
L 183.440227 210.146193 
L 184.251864 207.171113 
L 185.0635 202.513856 
L 185.875136 211.410938 
L 186.686773 213.314951 
L 187.498409 213.295184 
L 189.121682 196.284301 
L 189.933318 207.184878 
L 190.744955 226.363926 
L 191.556591 205.132728 
L 192.368227 201.631527 
L 193.179864 204.39726 
L 193.9915 207.850565 
L 194.803136 200.174592 
L 195.614773 209.25173 
L 196.426409 207.68572 
L 197.238045 205.753999 
L 198.049682 202.493742 
L 198.861318 196.923294 
L 199.672955 220.637786 
L 200.484591 182.020991 
L 201.296227 194.146468 
L 202.107864 208.406944 
L 202.9195 228.59719 
L 203.731136 220.594861 
L 204.542773 202.482493 
L 205.354409 187.423437 
L 206.166045 245.475746 
L 206.977682 173.070124 
L 207.789318 245.072321 
L 208.600955 191.074806 
L 209.412591 212.458204 
L 210.224227 195.89417 
L 211.035864 206.992091 
L 211.8475 171.571683 
L 212.659136 220.37444 
L 213.470773 194.348749 
L 214.282409 200.022421 
L 215.094045 220.896208 
L 215.905682 196.284301 
L 216.717318 204.008493 
L 217.528955 182.871642 
L 218.340591 240.863635 
L 219.152227 207.543718 
L 219.963864 203.254912 
L 220.7755 188.397363 
L 221.587136 219.368418 
L 222.398773 186.152202 
L 223.210409 190.342375 
L 224.022045 224.100142 
L 224.833682 208.409653 
L 225.645318 199.49038 
L 226.456955 197.721496 
L 227.268591 192.11999 
L 228.080227 224.543732 
L 228.891864 224.164337 
L 229.7035 187.00727 
L 230.515136 185.627305 
L 231.326773 222.603273 
L 232.138409 182.811064 
L 232.950045 223.623014 
L 233.761682 182.872743 
L 234.573318 192.415688 
L 235.384955 185.236718 
L 236.196591 218.881107 
L 237.008227 188.393201 
L 237.819864 181.517566 
L 238.6315 159.85318 
L 239.443136 220.451127 
L 240.254773 221.065494 
L 241.066409 220.24445 
L 241.878045 218.837505 
L 242.689682 220.098526 
L 243.501318 189.882934 
L 244.312955 191.079921 
L 245.124591 188.162173 
L 245.936227 220.93211 
L 246.747864 186.82299 
L 247.5595 220.396278 
L 248.371136 221.278444 
L 249.182773 192.601247 
L 249.994409 189.663141 
L 250.806045 223.385847 
L 251.617682 178.486746 
L 252.429318 186.708555 
L 253.240955 193.094693 
L 254.052591 177.079255 
L 254.864227 222.832055 
L 255.675864 184.43862 
L 256.4875 219.067726 
L 257.299136 179.001593 
L 258.110773 180.789706 
L 258.922409 222.077146 
L 259.734045 190.14869 
L 260.545682 193.051411 
L 261.357318 187.996023 
L 262.168955 191.079921 
L 262.980591 221.231543 
L 263.792227 206.131647 
L 264.603864 220.258078 
L 265.4155 205.30459 
L 267.038773 157.216574 
L 267.850409 206.049722 
L 268.662045 136.200912 
L 269.473682 202.889796 
L 270.285318 151.793081 
L 271.096955 195.001201 
L 271.908591 212.984347 
L 272.720227 134.481273 
L 273.531864 224.132141 
L 274.3435 168.491849 
L 275.155136 207.651716 
L 275.966773 134.086856 
L 276.778409 201.939549 
L 277.590045 203.249243 
L 278.401682 124.103872 
L 279.213318 131.928333 
L 280.024955 119.956481 
L 280.836591 125.125779 
L 281.648227 141.046308 
L 282.459864 144.007797 
L 283.2715 134.694517 
L 284.083136 132.391143 
L 284.894773 144.244783 
L 285.706409 158.919063 
L 286.518045 207.267233 
L 287.329682 203.23437 
L 288.141318 209.088775 
L 288.952955 206.920679 
L 289.764591 125.992251 
L 290.576227 137.662825 
L 291.387864 205.199506 
L 292.1995 137.071242 
L 293.011136 207.267913 
L 293.822773 145.976696 
L 294.634409 116.720666 
L 295.446045 111.631042 
L 296.257682 201.759733 
L 297.069318 100.347339 
L 297.880955 202.720338 
L 298.692591 118.592998 
L 299.504227 142.505387 
L 300.315864 202.784081 
L 301.1275 129.583706 
L 301.939136 213.390532 
L 302.750773 144.115216 
L 303.562409 136.338461 
L 304.374045 125.400628 
L 305.185682 210.511597 
L 305.997318 205.256379 
L 306.808955 130.473616 
L 307.620591 210.380782 
L 308.432227 222.264406 
L 309.243864 214.700338 
L 310.0555 193.211201 
L 310.867136 134.442005 
L 311.678773 121.090401 
L 312.490409 242.002527 
L 313.302045 213.673231 
L 314.113682 129.329534 
L 314.925318 131.836967 
L 315.736955 229.272561 
L 316.548591 238.231804 
L 317.360227 235.391547 
L 318.171864 210.596717 
L 318.9835 133.68723 
L 319.795136 131.54078 
L 320.606773 207.688208 
L 321.418409 124.988609 
L 322.230045 201.568301 
L 323.041682 125.485166 
L 323.853318 208.690943 
L 324.664955 137.691383 
L 325.476591 86.998339 
L 326.288227 201.138342 
L 327.099864 202.249126 
L 327.9115 125.586172 
L 328.723136 124.478334 
L 329.534773 131.167102 
L 330.346409 208.425232 
L 331.158045 205.774984 
L 331.969682 205.830226 
L 332.781318 124.092139 
L 333.592955 87.060453 
L 334.404591 213.613146 
L 335.216227 119.206979 
L 336.027864 203.215751 
L 336.8395 149.688835 
L 337.651136 148.558633 
L 338.462773 200.525376 
L 339.274409 200.897735 
L 340.086045 196.213893 
L 340.897682 132.891652 
L 341.709318 204.507727 
L 342.520955 203.919217 
L 343.332591 201.063177 
L 344.144227 123.52446 
L 344.955864 206.744378 
L 345.7675 199.254633 
L 346.579136 137.20678 
L 347.390773 205.080732 
L 348.202409 126.431312 
L 349.014045 125.91162 
L 349.825682 202.802842 
L 350.637318 200.15484 
L 351.448955 144.523423 
L 352.260591 198.234317 
L 353.072227 168.229383 
L 353.883864 233.180552 
L 354.6955 162.804859 
L 355.507136 231.549307 
L 356.318773 163.853724 
L 357.130409 185.02736 
L 357.942045 180.848159 
L 358.753682 207.061003 
L 359.565318 208.576032 
L 360.376955 119.338096 
L 361.188591 241.318032 
L 362.000227 206.152388 
L 362.811864 123.076686 
L 363.6235 127.054797 
L 364.435136 203.475919 
L 365.246773 198.747117 
L 366.058409 104.364827 
L 366.870045 133.65704 
L 367.681682 109.449724 
L 368.493318 225.907289 
L 369.304955 39.333201 
L 370.116591 22.796 
L 370.928227 231.400644 
L 371.739864 216.784953 
L 372.5515 122.162497 
L 373.363136 258.660232 
L 374.174773 264.716 
L 374.174773 264.716 
" style="fill:none;stroke:#1f77b4;stroke-linecap:square;stroke-width:1.5;"/>
   </g>
   <g id="patch_3">
    <path d="M 33.2875 276.812 
L 33.2875 10.7 
" style="fill:none;stroke:#000000;stroke-linecap:square;stroke-linejoin:miter;stroke-width:0.8;"/>
   </g>
   <g id="patch_4">
    <path d="M 390.4075 276.812 
L 390.4075 10.7 
" style="fill:none;stroke:#000000;stroke-linecap:square;stroke-linejoin:miter;stroke-width:0.8;"/>
   </g>
   <g id="patch_5">
    <path d="M 33.2875 276.812 
L 390.4075 276.812 
" style="fill:none;stroke:#000000;stroke-linecap:square;stroke-linejoin:miter;stroke-width:0.8;"/>
   </g>
   <g id="patch_6">
    <path d="M 33.2875 10.7 
L 390.4075 10.7 
" style="fill:none;stroke:#000000;stroke-linecap:square;stroke-linejoin:miter;stroke-width:0.8;"/>
   </g>
  </g>
 </g>
 <defs>
  <clipPath id="p92e830743d">
   <rect height="266.112" width="357.12" x="33.2875" y="10.7"/>
  </clipPath>
 </defs>
</svg>
