<?xml version="1.0" encoding="utf-8" standalone="no"?>
<!DOCTYPE svg PUBLIC "-//W3C//DTD SVG 1.1//EN"
  "http://www.w3.org/Graphics/SVG/1.1/DTD/svg11.dtd">
<!-- Created with matplotlib (http://matplotlib.org/) -->
<svg height="300.690125pt" version="1.1" viewBox="0 0 401.1075 300.690125" width="401.1075pt" xmlns="http://www.w3.org/2000/svg" xmlns:xlink="http://www.w3.org/1999/xlink">
 <defs>
  <style type="text/css">
*{stroke-linecap:butt;stroke-linejoin:round;}
  </style>
 </defs>
 <g id="figure_1">
  <g id="patch_1">
   <path d="M 0 300.690125 
L 401.1075 300.690125 
L 401.1075 0 
L 0 0 
z
" style="fill:#ffffff;"/>
  </g>
  <g id="axes_1">
   <g id="patch_2">
    <path d="M 33.2875 276.812 
L 390.4075 276.812 
L 390.4075 10.7 
L 33.2875 10.7 
z
" style="fill:#ffffff;"/>
   </g>
   <g id="matplotlib.axis_1">
    <g id="xtick_1">
     <g id="line2d_1">
      <defs>
       <path d="M 0 0 
L 0 3.5 
" id="md491e5f11f" style="stroke:#000000;stroke-width:0.8;"/>
      </defs>
      <g>
       <use style="stroke:#000000;stroke-width:0.8;" x="49.520227" xlink:href="#md491e5f11f" y="276.812"/>
      </g>
     </g>
     <g id="text_1">
      <!-- 0 -->
      <defs>
       <path d="M 31.78125 66.40625 
Q 24.171875 66.40625 20.328125 58.90625 
Q 16.5 51.421875 16.5 36.375 
Q 16.5 21.390625 20.328125 13.890625 
Q 24.171875 6.390625 31.78125 6.390625 
Q 39.453125 6.390625 43.28125 13.890625 
Q 47.125 21.390625 47.125 36.375 
Q 47.125 51.421875 43.28125 58.90625 
Q 39.453125 66.40625 31.78125 66.40625 
z
M 31.78125 74.21875 
Q 44.046875 74.21875 50.515625 64.515625 
Q 56.984375 54.828125 56.984375 36.375 
Q 56.984375 17.96875 50.515625 8.265625 
Q 44.046875 -1.421875 31.78125 -1.421875 
Q 19.53125 -1.421875 13.0625 8.265625 
Q 6.59375 17.96875 6.59375 36.375 
Q 6.59375 54.828125 13.0625 64.515625 
Q 19.53125 74.21875 31.78125 74.21875 
z
" id="DejaVuSans-30"/>
      </defs>
      <g transform="translate(46.338977 291.410437)scale(0.1 -0.1)">
       <use xlink:href="#DejaVuSans-30"/>
      </g>
     </g>
    </g>
    <g id="xtick_2">
     <g id="line2d_2">
      <g>
       <use style="stroke:#000000;stroke-width:0.8;" x="120.872875" xlink:href="#md491e5f11f" y="276.812"/>
      </g>
     </g>
     <g id="text_2">
      <!-- 200 -->
      <defs>
       <path d="M 19.1875 8.296875 
L 53.609375 8.296875 
L 53.609375 0 
L 7.328125 0 
L 7.328125 8.296875 
Q 12.9375 14.109375 22.625 23.890625 
Q 32.328125 33.6875 34.8125 36.53125 
Q 39.546875 41.84375 41.421875 45.53125 
Q 43.3125 49.21875 43.3125 52.78125 
Q 43.3125 58.59375 39.234375 62.25 
Q 35.15625 65.921875 28.609375 65.921875 
Q 23.96875 65.921875 18.8125 64.3125 
Q 13.671875 62.703125 7.8125 59.421875 
L 7.8125 69.390625 
Q 13.765625 71.78125 18.9375 73 
Q 24.125 74.21875 28.421875 74.21875 
Q 39.75 74.21875 46.484375 68.546875 
Q 53.21875 62.890625 53.21875 53.421875 
Q 53.21875 48.921875 51.53125 44.890625 
Q 49.859375 40.875 45.40625 35.40625 
Q 44.1875 33.984375 37.640625 27.21875 
Q 31.109375 20.453125 19.1875 8.296875 
z
" id="DejaVuSans-32"/>
      </defs>
      <g transform="translate(111.329125 291.410437)scale(0.1 -0.1)">
       <use xlink:href="#DejaVuSans-32"/>
       <use x="63.623047" xlink:href="#DejaVuSans-30"/>
       <use x="127.246094" xlink:href="#DejaVuSans-30"/>
      </g>
     </g>
    </g>
    <g id="xtick_3">
     <g id="line2d_3">
      <g>
       <use style="stroke:#000000;stroke-width:0.8;" x="192.225522" xlink:href="#md491e5f11f" y="276.812"/>
      </g>
     </g>
     <g id="text_3">
      <!-- 400 -->
      <defs>
       <path d="M 37.796875 64.3125 
L 12.890625 25.390625 
L 37.796875 25.390625 
z
M 35.203125 72.90625 
L 47.609375 72.90625 
L 47.609375 25.390625 
L 58.015625 25.390625 
L 58.015625 17.1875 
L 47.609375 17.1875 
L 47.609375 0 
L 37.796875 0 
L 37.796875 17.1875 
L 4.890625 17.1875 
L 4.890625 26.703125 
z
" id="DejaVuSans-34"/>
      </defs>
      <g transform="translate(182.681772 291.410437)scale(0.1 -0.1)">
       <use xlink:href="#DejaVuSans-34"/>
       <use x="63.623047" xlink:href="#DejaVuSans-30"/>
       <use x="127.246094" xlink:href="#DejaVuSans-30"/>
      </g>
     </g>
    </g>
    <g id="xtick_4">
     <g id="line2d_4">
      <g>
       <use style="stroke:#000000;stroke-width:0.8;" x="263.578169" xlink:href="#md491e5f11f" y="276.812"/>
      </g>
     </g>
     <g id="text_4">
      <!-- 600 -->
      <defs>
       <path d="M 33.015625 40.375 
Q 26.375 40.375 22.484375 35.828125 
Q 18.609375 31.296875 18.609375 23.390625 
Q 18.609375 15.53125 22.484375 10.953125 
Q 26.375 6.390625 33.015625 6.390625 
Q 39.65625 6.390625 43.53125 10.953125 
Q 47.40625 15.53125 47.40625 23.390625 
Q 47.40625 31.296875 43.53125 35.828125 
Q 39.65625 40.375 33.015625 40.375 
z
M 52.59375 71.296875 
L 52.59375 62.3125 
Q 48.875 64.0625 45.09375 64.984375 
Q 41.3125 65.921875 37.59375 65.921875 
Q 27.828125 65.921875 22.671875 59.328125 
Q 17.53125 52.734375 16.796875 39.40625 
Q 19.671875 43.65625 24.015625 45.921875 
Q 28.375 48.1875 33.59375 48.1875 
Q 44.578125 48.1875 50.953125 41.515625 
Q 57.328125 34.859375 57.328125 23.390625 
Q 57.328125 12.15625 50.6875 5.359375 
Q 44.046875 -1.421875 33.015625 -1.421875 
Q 20.359375 -1.421875 13.671875 8.265625 
Q 6.984375 17.96875 6.984375 36.375 
Q 6.984375 53.65625 15.1875 63.9375 
Q 23.390625 74.21875 37.203125 74.21875 
Q 40.921875 74.21875 44.703125 73.484375 
Q 48.484375 72.75 52.59375 71.296875 
z
" id="DejaVuSans-36"/>
      </defs>
      <g transform="translate(254.034419 291.410437)scale(0.1 -0.1)">
       <use xlink:href="#DejaVuSans-36"/>
       <use x="63.623047" xlink:href="#DejaVuSans-30"/>
       <use x="127.246094" xlink:href="#DejaVuSans-30"/>
      </g>
     </g>
    </g>
    <g id="xtick_5">
     <g id="line2d_5">
      <g>
       <use style="stroke:#000000;stroke-width:0.8;" x="334.930817" xlink:href="#md491e5f11f" y="276.812"/>
      </g>
     </g>
     <g id="text_5">
      <!-- 800 -->
      <defs>
       <path d="M 31.78125 34.625 
Q 24.75 34.625 20.71875 30.859375 
Q 16.703125 27.09375 16.703125 20.515625 
Q 16.703125 13.921875 20.71875 10.15625 
Q 24.75 6.390625 31.78125 6.390625 
Q 38.8125 6.390625 42.859375 10.171875 
Q 46.921875 13.96875 46.921875 20.515625 
Q 46.921875 27.09375 42.890625 30.859375 
Q 38.875 34.625 31.78125 34.625 
z
M 21.921875 38.8125 
Q 15.578125 40.375 12.03125 44.71875 
Q 8.5 49.078125 8.5 55.328125 
Q 8.5 64.0625 14.71875 69.140625 
Q 20.953125 74.21875 31.78125 74.21875 
Q 42.671875 74.21875 48.875 69.140625 
Q 55.078125 64.0625 55.078125 55.328125 
Q 55.078125 49.078125 51.53125 44.71875 
Q 48 40.375 41.703125 38.8125 
Q 48.828125 37.15625 52.796875 32.3125 
Q 56.78125 27.484375 56.78125 20.515625 
Q 56.78125 9.90625 50.3125 4.234375 
Q 43.84375 -1.421875 31.78125 -1.421875 
Q 19.734375 -1.421875 13.25 4.234375 
Q 6.78125 9.90625 6.78125 20.515625 
Q 6.78125 27.484375 10.78125 32.3125 
Q 14.796875 37.15625 21.921875 38.8125 
z
M 18.3125 54.390625 
Q 18.3125 48.734375 21.84375 45.5625 
Q 25.390625 42.390625 31.78125 42.390625 
Q 38.140625 42.390625 41.71875 45.5625 
Q 45.3125 48.734375 45.3125 54.390625 
Q 45.3125 60.0625 41.71875 63.234375 
Q 38.140625 66.40625 31.78125 66.40625 
Q 25.390625 66.40625 21.84375 63.234375 
Q 18.3125 60.0625 18.3125 54.390625 
z
" id="DejaVuSans-38"/>
      </defs>
      <g transform="translate(325.387067 291.410437)scale(0.1 -0.1)">
       <use xlink:href="#DejaVuSans-38"/>
       <use x="63.623047" xlink:href="#DejaVuSans-30"/>
       <use x="127.246094" xlink:href="#DejaVuSans-30"/>
      </g>
     </g>
    </g>
   </g>
   <g id="matplotlib.axis_2">
    <g id="ytick_1">
     <g id="line2d_6">
      <defs>
       <path d="M 0 0 
L -3.5 0 
" id="m73ab1fe692" style="stroke:#000000;stroke-width:0.8;"/>
      </defs>
      <g>
       <use style="stroke:#000000;stroke-width:0.8;" x="33.2875" xlink:href="#m73ab1fe692" y="255.913872"/>
      </g>
     </g>
     <g id="text_6">
      <!-- 60 -->
      <g transform="translate(13.5625 259.71309)scale(0.1 -0.1)">
       <use xlink:href="#DejaVuSans-36"/>
       <use x="63.623047" xlink:href="#DejaVuSans-30"/>
      </g>
     </g>
    </g>
    <g id="ytick_2">
     <g id="line2d_7">
      <g>
       <use style="stroke:#000000;stroke-width:0.8;" x="33.2875" xlink:href="#m73ab1fe692" y="221.559331"/>
      </g>
     </g>
     <g id="text_7">
      <!-- 80 -->
      <g transform="translate(13.5625 225.35855)scale(0.1 -0.1)">
       <use xlink:href="#DejaVuSans-38"/>
       <use x="63.623047" xlink:href="#DejaVuSans-30"/>
      </g>
     </g>
    </g>
    <g id="ytick_3">
     <g id="line2d_8">
      <g>
       <use style="stroke:#000000;stroke-width:0.8;" x="33.2875" xlink:href="#m73ab1fe692" y="187.20479"/>
      </g>
     </g>
     <g id="text_8">
      <!-- 100 -->
      <defs>
       <path d="M 12.40625 8.296875 
L 28.515625 8.296875 
L 28.515625 63.921875 
L 10.984375 60.40625 
L 10.984375 69.390625 
L 28.421875 72.90625 
L 38.28125 72.90625 
L 38.28125 8.296875 
L 54.390625 8.296875 
L 54.390625 0 
L 12.40625 0 
z
" id="DejaVuSans-31"/>
      </defs>
      <g transform="translate(7.2 191.004009)scale(0.1 -0.1)">
       <use xlink:href="#DejaVuSans-31"/>
       <use x="63.623047" xlink:href="#DejaVuSans-30"/>
       <use x="127.246094" xlink:href="#DejaVuSans-30"/>
      </g>
     </g>
    </g>
    <g id="ytick_4">
     <g id="line2d_9">
      <g>
       <use style="stroke:#000000;stroke-width:0.8;" x="33.2875" xlink:href="#m73ab1fe692" y="152.850249"/>
      </g>
     </g>
     <g id="text_9">
      <!-- 120 -->
      <g transform="translate(7.2 156.649468)scale(0.1 -0.1)">
       <use xlink:href="#DejaVuSans-31"/>
       <use x="63.623047" xlink:href="#DejaVuSans-32"/>
       <use x="127.246094" xlink:href="#DejaVuSans-30"/>
      </g>
     </g>
    </g>
    <g id="ytick_5">
     <g id="line2d_10">
      <g>
       <use style="stroke:#000000;stroke-width:0.8;" x="33.2875" xlink:href="#m73ab1fe692" y="118.495708"/>
      </g>
     </g>
     <g id="text_10">
      <!-- 140 -->
      <g transform="translate(7.2 122.294927)scale(0.1 -0.1)">
       <use xlink:href="#DejaVuSans-31"/>
       <use x="63.623047" xlink:href="#DejaVuSans-34"/>
       <use x="127.246094" xlink:href="#DejaVuSans-30"/>
      </g>
     </g>
    </g>
    <g id="ytick_6">
     <g id="line2d_11">
      <g>
       <use style="stroke:#000000;stroke-width:0.8;" x="33.2875" xlink:href="#m73ab1fe692" y="84.141168"/>
      </g>
     </g>
     <g id="text_11">
      <!-- 160 -->
      <g transform="translate(7.2 87.940386)scale(0.1 -0.1)">
       <use xlink:href="#DejaVuSans-31"/>
       <use x="63.623047" xlink:href="#DejaVuSans-36"/>
       <use x="127.246094" xlink:href="#DejaVuSans-30"/>
      </g>
     </g>
    </g>
    <g id="ytick_7">
     <g id="line2d_12">
      <g>
       <use style="stroke:#000000;stroke-width:0.8;" x="33.2875" xlink:href="#m73ab1fe692" y="49.786627"/>
      </g>
     </g>
     <g id="text_12">
      <!-- 180 -->
      <g transform="translate(7.2 53.585846)scale(0.1 -0.1)">
       <use xlink:href="#DejaVuSans-31"/>
       <use x="63.623047" xlink:href="#DejaVuSans-38"/>
       <use x="127.246094" xlink:href="#DejaVuSans-30"/>
      </g>
     </g>
    </g>
    <g id="ytick_8">
     <g id="line2d_13">
      <g>
       <use style="stroke:#000000;stroke-width:0.8;" x="33.2875" xlink:href="#m73ab1fe692" y="15.432086"/>
      </g>
     </g>
     <g id="text_13">
      <!-- 200 -->
      <g transform="translate(7.2 19.231305)scale(0.1 -0.1)">
       <use xlink:href="#DejaVuSans-32"/>
       <use x="63.623047" xlink:href="#DejaVuSans-30"/>
       <use x="127.246094" xlink:href="#DejaVuSans-30"/>
      </g>
     </g>
    </g>
   </g>
   <g id="line2d_14">
    <path clip-path="url(#p4c93f94a40)" d="M 49.520227 211.040414 
L 49.876991 209.243658 
L 50.233754 213.406083 
L 50.590517 212.785284 
L 51.304043 209.204093 
L 51.660807 210.88747 
L 52.01757 210.561084 
L 52.374333 210.691682 
L 52.731096 210.617053 
L 53.08786 211.099639 
L 53.444623 210.807321 
L 53.801386 209.524842 
L 54.158149 188.370526 
L 54.514913 210.789196 
L 54.871676 208.180735 
L 55.228439 207.78076 
L 55.585202 207.174769 
L 55.941966 187.895113 
L 56.298729 210.290594 
L 56.655492 207.836888 
L 57.012255 207.801246 
L 57.369018 204.948923 
L 57.725782 203.675424 
L 58.082545 205.935446 
L 58.439308 213.26199 
L 58.796071 211.862128 
L 59.152835 212.68915 
L 59.509598 189.897293 
L 59.866361 212.268397 
L 60.223124 189.795482 
L 60.579888 212.17321 
L 60.936651 211.562265 
L 61.293414 190.203812 
L 61.650177 213.944828 
L 62.006941 187.454948 
L 62.363704 216.046902 
L 62.720467 214.110393 
L 63.07723 212.897869 
L 63.433994 189.491096 
L 63.790757 188.919196 
L 64.14752 212.080853 
L 64.504283 211.477687 
L 64.861046 189.66633 
L 65.21781 212.738601 
L 65.574573 212.841142 
L 65.931336 210.62142 
L 66.288099 190.972471 
L 66.644863 213.070774 
L 67.001626 211.451961 
L 67.358389 191.097891 
L 67.715152 213.159208 
L 68.071916 212.099847 
L 68.428679 214.126283 
L 68.785442 214.607458 
L 69.142205 213.189302 
L 69.498969 213.139934 
L 69.855732 213.453548 
L 70.212495 209.904987 
L 70.569258 213.302982 
L 70.926021 210.522893 
L 71.282785 209.54779 
L 71.639548 210.528331 
L 71.996311 210.083979 
L 72.353074 211.055134 
L 72.709838 210.748852 
L 73.066601 213.818612 
L 73.780127 209.020811 
L 74.136891 209.963851 
L 74.493654 209.171046 
L 74.850417 210.11019 
L 75.20718 211.514741 
L 75.563944 213.928075 
L 76.27747 211.29497 
L 76.634233 212.36299 
L 76.990997 187.814693 
L 77.34776 215.856143 
L 77.704523 188.815024 
L 78.061286 214.049746 
L 78.418049 214.911163 
L 78.774813 214.870094 
L 79.131576 215.39364 
L 79.488339 212.856076 
L 79.845102 213.317625 
L 80.201866 186.535309 
L 80.558629 213.58284 
L 80.915392 209.769138 
L 81.272155 211.992264 
L 81.628919 211.108507 
L 81.985682 212.717241 
L 82.342445 210.807157 
L 82.699208 209.589085 
L 83.055972 211.224183 
L 83.412735 192.247157 
L 83.769498 213.295993 
L 84.126261 212.44587 
L 84.839788 214.447104 
L 85.196551 213.548806 
L 85.553314 212.132874 
L 85.910077 215.076806 
L 86.266841 214.994467 
L 86.623604 213.429471 
L 86.980367 215.261671 
L 87.693894 211.089349 
L 88.050657 214.230327 
L 88.40742 213.164259 
L 88.764183 206.122821 
L 89.120947 212.702997 
L 89.47771 213.841839 
L 89.834473 210.079715 
L 90.191236 213.990083 
L 90.548 213.26655 
L 90.904763 201.333737 
L 91.261526 214.449245 
L 91.618289 216.488933 
L 91.975052 213.106348 
L 92.331816 200.565115 
L 92.688579 213.355306 
L 93.045342 214.140613 
L 93.402105 214.435271 
L 93.758869 199.46509 
L 94.115632 213.557588 
L 94.472395 213.287427 
L 94.829158 214.3205 
L 95.185922 212.417311 
L 95.542685 200.699191 
L 95.899448 201.194665 
L 96.256211 214.512702 
L 96.612975 201.490678 
L 96.969738 212.42118 
L 97.326501 211.656351 
L 97.683264 210.398593 
L 98.040027 212.864676 
L 98.396791 199.686057 
L 98.753554 213.686105 
L 99.110317 211.613131 
L 99.46708 202.499807 
L 99.823844 213.487131 
L 100.180607 203.268023 
L 100.53737 213.318767 
L 100.894133 213.763247 
L 101.250897 214.876791 
L 101.964423 213.399485 
L 102.321186 211.559867 
L 102.67795 211.381937 
L 103.034713 213.25249 
L 103.391476 212.788976 
L 103.748239 213.564477 
L 104.105002 212.539267 
L 104.461766 213.587214 
L 104.818529 201.677228 
L 105.175292 212.436825 
L 105.532055 210.614677 
L 105.888819 213.40704 
L 106.245582 214.07205 
L 106.602345 212.266168 
L 106.959108 212.308554 
L 107.315872 214.004686 
L 107.672635 214.730766 
L 108.029398 214.180532 
L 108.386161 210.85181 
L 108.742925 201.358378 
L 109.099688 213.364244 
L 109.456451 213.72196 
L 109.813214 213.057125 
L 110.169978 211.639694 
L 110.526741 212.433114 
L 110.883504 212.76744 
L 111.240267 212.932686 
L 111.59703 211.097531 
L 111.953794 211.143999 
L 112.310557 202.680335 
L 112.66732 212.622219 
L 113.024083 212.014163 
L 113.380847 214.242217 
L 113.73761 211.624818 
L 114.094373 214.433414 
L 114.451136 210.684921 
L 114.8079 215.087496 
L 115.164663 217.176067 
L 115.521426 220.614052 
L 115.878189 217.716255 
L 116.234953 213.69448 
L 116.591716 196.741388 
L 116.948479 215.072794 
L 117.305242 214.447809 
L 117.662005 212.340821 
L 118.018769 212.747482 
L 118.375532 208.179232 
L 118.732295 195.43396 
L 119.089058 218.643117 
L 119.445822 199.186678 
L 119.802585 213.36191 
L 120.159348 213.340755 
L 120.516111 212.473939 
L 120.872875 214.582048 
L 121.229638 209.304334 
L 121.586401 197.277261 
L 121.943164 212.670584 
L 122.299928 216.371928 
L 122.656691 214.814166 
L 123.013454 215.89784 
L 123.370217 212.380176 
L 123.726981 211.409608 
L 124.083744 212.331857 
L 124.440507 203.320883 
L 124.79727 212.98976 
L 125.154033 212.194413 
L 125.510797 210.423722 
L 125.86756 213.578197 
L 126.224323 212.443519 
L 126.93785 212.971019 
L 127.294613 214.424845 
L 127.651376 215.260624 
L 128.008139 212.154952 
L 128.364903 212.100008 
L 128.721666 210.520916 
L 129.078429 209.931975 
L 129.435192 211.233046 
L 129.791956 207.305002 
L 130.148719 209.993739 
L 130.505482 210.758042 
L 130.862245 214.784952 
L 131.219008 213.493984 
L 131.575772 213.156773 
L 131.932535 213.936552 
L 132.289298 211.980446 
L 132.646061 212.883996 
L 133.002825 212.338632 
L 133.359588 214.255866 
L 133.716351 203.316181 
L 134.073114 204.776022 
L 134.429878 215.453261 
L 134.786641 214.317236 
L 135.143404 200.716232 
L 135.500167 215.293471 
L 136.213694 215.200112 
L 136.570457 213.528696 
L 136.92722 214.383456 
L 137.283984 211.919303 
L 137.640747 214.418283 
L 137.99751 212.368186 
L 138.354273 201.499204 
L 138.711036 215.109415 
L 139.0678 212.825996 
L 139.424563 213.809864 
L 139.781326 213.576641 
L 140.138089 215.06491 
L 140.851616 219.055872 
L 141.208379 216.781394 
L 141.565142 218.310299 
L 141.921906 218.744995 
L 142.278669 222.624221 
L 142.635432 219.795104 
L 142.992195 219.611504 
L 143.348959 218.070161 
L 143.705722 208.107041 
L 144.062485 218.205336 
L 144.419248 214.172125 
L 144.776011 216.80877 
L 145.132775 217.111011 
L 145.489538 217.634812 
L 146.203064 216.64123 
L 146.559828 212.729419 
L 146.916591 217.138014 
L 147.273354 216.96811 
L 147.630117 217.137221 
L 147.986881 212.866414 
L 148.343644 216.541591 
L 148.700407 212.842002 
L 149.05717 219.112146 
L 149.770697 216.596324 
L 150.484223 216.721924 
L 150.840987 219.269252 
L 151.19775 218.692374 
L 151.554513 217.835333 
L 151.911276 213.986194 
L 152.268039 212.899746 
L 152.624803 220.124981 
L 152.981566 212.726109 
L 153.338329 223.484889 
L 153.695092 219.375424 
L 154.051856 217.700641 
L 154.408619 218.462741 
L 154.765382 216.705294 
L 155.478909 219.42975 
L 155.835672 218.582042 
L 156.192435 211.072965 
L 156.549198 220.599975 
L 156.905962 222.55846 
L 157.262725 220.736247 
L 157.619488 222.672012 
L 157.976251 222.489939 
L 158.333014 218.147775 
L 158.689778 219.199485 
L 159.046541 211.555769 
L 159.403304 219.12207 
L 159.760067 219.086062 
L 160.116831 219.465774 
L 160.473594 210.316012 
L 160.830357 218.735693 
L 161.18712 220.159651 
L 161.543884 219.862384 
L 161.900647 217.086385 
L 162.25741 218.104522 
L 162.614173 221.527885 
L 162.970937 223.454933 
L 163.3277 222.874205 
L 163.684463 207.108351 
L 164.041226 222.721305 
L 164.39799 222.012447 
L 164.754753 220.069067 
L 165.111516 204.751881 
L 165.468279 220.691835 
L 165.825042 222.505394 
L 166.181806 218.809996 
L 166.538569 218.852299 
L 166.895332 222.415778 
L 167.252095 221.018651 
L 167.608859 220.766921 
L 167.965622 212.535794 
L 168.322385 218.535895 
L 168.679148 217.380166 
L 169.035912 218.212703 
L 169.392675 216.274312 
L 170.106201 216.428674 
L 170.462965 205.455865 
L 170.819728 217.889551 
L 171.176491 209.959182 
L 171.533254 216.091047 
L 171.890017 209.694705 
L 172.246781 222.449955 
L 172.603544 219.181502 
L 172.960307 208.879268 
L 173.31707 219.019376 
L 173.673834 216.667469 
L 174.030597 217.079543 
L 174.38736 218.701366 
L 174.744123 208.117583 
L 175.100887 219.077781 
L 175.45765 211.831854 
L 175.814413 211.103126 
L 176.171176 223.830289 
L 176.52794 212.469111 
L 176.884703 221.59663 
L 177.241466 221.747313 
L 177.598229 222.019542 
L 177.954993 221.582356 
L 178.311756 219.276808 
L 178.668519 221.242467 
L 179.025282 221.143794 
L 179.382045 224.061848 
L 179.738809 219.121721 
L 180.095572 219.083962 
L 180.452335 223.837716 
L 180.809098 221.869384 
L 181.522625 225.722037 
L 181.879388 197.656372 
L 182.236151 224.349232 
L 182.592915 202.357234 
L 182.949678 223.925135 
L 183.306441 221.317125 
L 183.663204 216.557723 
L 184.019968 207.655268 
L 184.376731 218.966235 
L 184.733494 205.308787 
L 185.090257 217.828712 
L 185.44702 217.330552 
L 185.803784 217.987367 
L 186.160547 201.393481 
L 186.51731 223.173818 
L 186.874073 217.476635 
L 187.230837 214.968179 
L 187.5876 217.429176 
L 187.944363 210.999409 
L 189.371416 221.982282 
L 189.728179 222.33604 
L 190.084943 220.691797 
L 190.441706 220.073202 
L 190.798469 217.930915 
L 191.155232 212.946152 
L 191.511996 214.335117 
L 191.868759 190.086529 
L 192.225522 210.403312 
L 192.582285 211.828863 
L 192.939048 216.880871 
L 193.295812 218.06877 
L 193.652575 222.066733 
L 194.009338 196.639757 
L 194.366101 215.432865 
L 194.722865 215.224244 
L 195.079628 214.440895 
L 195.436391 215.282702 
L 195.793154 209.132964 
L 196.149918 207.116292 
L 196.863444 214.717407 
L 197.220207 218.043663 
L 197.576971 192.993473 
L 197.933734 206.768851 
L 198.290497 210.563971 
L 198.64726 216.460485 
L 199.71755 206.51351 
L 200.074313 209.936585 
L 200.431076 210.4084 
L 200.78784 212.65113 
L 201.144603 211.668884 
L 201.501366 213.717505 
L 201.858129 214.582688 
L 202.214893 214.007826 
L 202.571656 215.422805 
L 202.928419 215.422852 
L 203.285182 213.65263 
L 203.641946 213.377502 
L 203.998709 214.668763 
L 204.355472 214.843452 
L 204.712235 218.059688 
L 205.068999 216.904171 
L 205.425762 193.153399 
L 205.782525 216.818966 
L 206.139288 218.846982 
L 206.496051 216.84809 
L 206.852815 217.235153 
L 207.209578 218.325596 
L 207.566341 189.352289 
L 207.923104 218.865082 
L 208.279868 218.810194 
L 208.636631 218.274358 
L 208.993394 216.104262 
L 209.350157 216.709376 
L 210.063684 217.38988 
L 210.420447 216.562167 
L 210.77721 217.280345 
L 211.133974 216.204624 
L 211.490737 217.17795 
L 211.8475 217.217481 
L 212.204263 217.643092 
L 212.561026 220.987798 
L 212.91779 220.162538 
L 213.274553 220.15699 
L 213.631316 216.364582 
L 213.988079 218.351027 
L 214.344843 219.526962 
L 214.701606 218.100599 
L 215.058369 217.191696 
L 215.415132 190.002986 
L 215.771896 216.482113 
L 216.128659 216.445743 
L 216.485422 217.132778 
L 216.842185 217.510708 
L 217.198949 216.58157 
L 217.555712 216.758636 
L 218.269238 218.935489 
L 218.982765 216.894763 
L 219.339528 182.721977 
L 219.696291 216.754192 
L 220.053054 219.021741 
L 220.766581 216.920638 
L 221.123344 218.180903 
L 221.480107 218.979518 
L 221.836871 222.181698 
L 222.550397 217.976078 
L 222.90716 218.327603 
L 223.263924 216.979403 
L 223.620687 219.17681 
L 223.97745 219.156113 
L 224.334213 188.386099 
L 224.690977 224.50651 
L 225.04774 213.475837 
L 225.404503 219.024616 
L 225.761266 219.929011 
L 226.118029 216.773587 
L 226.474793 217.588958 
L 226.831556 221.905375 
L 227.188319 218.710226 
L 227.545082 217.571211 
L 227.901846 221.084058 
L 228.258609 195.74784 
L 228.615372 213.948518 
L 228.972135 215.011918 
L 229.328899 216.809879 
L 229.685662 212.438882 
L 230.042425 214.06706 
L 230.399188 185.226006 
L 230.755952 215.371428 
L 231.112715 217.51272 
L 231.469478 217.69228 
L 231.826241 213.627098 
L 232.183004 215.894577 
L 232.539768 221.618294 
L 232.896531 219.696784 
L 233.253294 225.078651 
L 233.610057 224.513555 
L 233.966821 218.933658 
L 234.323584 216.577366 
L 234.680347 185.240335 
L 235.03711 219.531878 
L 235.750637 216.209285 
L 236.1074 212.23063 
L 236.464163 211.322941 
L 236.820927 216.261405 
L 237.534453 217.93818 
L 237.891216 224.479977 
L 238.24798 235.182824 
L 238.604743 213.634268 
L 239.318269 220.055176 
L 240.031796 220.647299 
L 240.388559 220.098647 
L 240.745322 220.28067 
L 241.102085 219.662896 
L 241.458849 220.664186 
L 241.815612 216.575195 
L 242.172375 214.875103 
L 242.529138 218.203353 
L 242.885902 223.982135 
L 243.242665 223.45322 
L 243.599428 221.683531 
L 243.956191 214.673256 
L 244.312955 214.247558 
L 244.669718 215.720537 
L 245.026481 216.644382 
L 245.383244 217.241046 
L 246.096771 220.315538 
L 246.453534 219.187554 
L 246.810297 217.408185 
L 247.16706 211.756988 
L 247.523824 214.532887 
L 247.880587 218.380026 
L 248.23735 218.431485 
L 248.594113 222.254233 
L 248.950877 188.270774 
L 249.30764 224.143 
L 249.664403 224.015504 
L 250.021166 197.93765 
L 250.37793 219.825392 
L 250.734693 222.382374 
L 251.091456 222.343499 
L 251.448219 220.813107 
L 251.804983 219.863395 
L 252.161746 223.609488 
L 252.518509 222.542757 
L 252.875272 222.707637 
L 253.232035 221.431826 
L 253.588799 194.457905 
L 253.945562 220.818441 
L 254.302325 220.944165 
L 254.659088 222.511865 
L 255.015852 222.705961 
L 255.372615 220.24083 
L 255.729378 223.049701 
L 256.086141 221.765185 
L 256.442905 221.741979 
L 256.799668 225.361162 
L 257.156431 222.989701 
L 257.513194 222.515503 
L 257.869958 195.644287 
L 258.226721 223.585043 
L 258.583484 222.750094 
L 258.940247 193.343989 
L 259.29701 221.745527 
L 259.653774 221.236926 
L 260.010537 222.393498 
L 260.3673 221.284572 
L 260.724063 221.797006 
L 261.080827 222.945054 
L 261.43759 218.044392 
L 261.794353 219.373422 
L 262.151116 221.945968 
L 262.50788 221.216822 
L 262.864643 221.484404 
L 263.221406 223.734401 
L 263.578169 221.619719 
L 263.934933 221.637825 
L 264.291696 219.703347 
L 265.005222 221.006716 
L 265.361986 221.640124 
L 265.718749 220.237576 
L 266.075512 220.746502 
L 266.432275 217.158349 
L 266.789038 217.586851 
L 267.502565 216.239445 
L 267.859328 187.726907 
L 268.216091 213.40228 
L 268.572855 215.376081 
L 268.929618 213.859241 
L 269.286381 216.504218 
L 269.643144 217.239456 
L 269.999908 186.558002 
L 270.356671 214.711128 
L 270.713434 215.139303 
L 271.070197 213.489732 
L 271.426961 215.61223 
L 271.783724 216.758308 
L 272.140487 217.217637 
L 272.49725 218.151752 
L 272.854013 187.344379 
L 273.210777 217.948924 
L 273.56754 219.121844 
L 274.281066 216.999023 
L 274.63783 181.342273 
L 274.994593 219.306627 
L 275.351356 216.899749 
L 276.064883 202.935894 
L 276.421646 218.843701 
L 276.778409 219.164908 
L 277.135172 218.860574 
L 277.491936 221.48797 
L 277.848699 218.150558 
L 278.205462 186.415176 
L 278.562225 213.864144 
L 278.918989 217.475669 
L 279.632515 218.815234 
L 279.989278 221.581339 
L 280.346041 220.252651 
L 280.702805 217.966725 
L 281.059568 219.143216 
L 281.416331 221.876699 
L 281.773094 218.170236 
L 282.486621 218.1216 
L 282.843384 219.473068 
L 283.556911 219.013902 
L 283.913674 219.523509 
L 284.270437 218.9368 
L 284.6272 217.108634 
L 284.983964 219.566682 
L 285.340727 217.219571 
L 285.69749 188.477604 
L 286.054253 217.537183 
L 286.411016 217.500495 
L 286.76778 217.254419 
L 287.124543 189.845324 
L 287.481306 218.068897 
L 287.838069 219.342375 
L 288.194833 216.248941 
L 288.551596 220.022384 
L 288.908359 219.013902 
L 289.265122 218.394729 
L 289.621886 218.782703 
L 289.978649 219.95666 
L 290.335412 218.65558 
L 290.692175 218.376468 
L 291.048939 220.539364 
L 291.405702 218.362214 
L 291.762465 217.658907 
L 292.119228 217.7781 
L 292.475992 218.058388 
L 292.832755 194.881383 
L 293.189518 194.606528 
L 293.546281 217.329793 
L 293.903044 217.003877 
L 294.259808 212.654222 
L 294.616571 215.921321 
L 294.973334 215.640714 
L 295.330097 187.689457 
L 295.686861 215.331443 
L 296.043624 216.302053 
L 296.400387 215.952663 
L 296.75715 217.964166 
L 297.113914 216.458577 
L 297.470677 218.732691 
L 297.82744 198.637988 
L 298.184203 221.724576 
L 298.540967 199.195009 
L 298.89773 221.602626 
L 299.254493 221.07307 
L 300.324783 218.901051 
L 300.681546 216.78434 
L 301.038309 216.651029 
L 301.395072 217.381724 
L 301.751836 195.030038 
L 302.108599 217.703889 
L 302.465362 214.608336 
L 302.822125 216.513927 
L 303.178889 216.569283 
L 303.535652 218.598506 
L 303.892415 214.890067 
L 304.249178 216.368513 
L 304.605942 219.258696 
L 304.962705 217.218891 
L 305.319468 216.294034 
L 305.676231 216.117216 
L 306.032995 219.381075 
L 306.389758 217.586324 
L 306.746521 217.476962 
L 307.103284 217.667647 
L 307.816811 221.660103 
L 308.173574 217.826801 
L 308.530337 220.558733 
L 308.8871 219.20752 
L 309.243864 217.256956 
L 309.600627 217.646886 
L 309.95739 216.274156 
L 310.314153 216.2 
L 310.670917 217.460933 
L 311.02768 215.820643 
L 311.384443 218.736856 
L 311.741206 216.973767 
L 312.09797 221.05208 
L 312.811496 218.220136 
L 313.168259 221.491617 
L 313.881786 212.90306 
L 314.238549 221.778191 
L 314.952075 217.453683 
L 315.308839 219.621964 
L 315.665602 219.579104 
L 316.022365 218.728792 
L 316.735892 221.317856 
L 317.092655 221.926193 
L 317.449418 218.973059 
L 317.806181 224.248288 
L 318.162945 220.815897 
L 318.519708 208.56312 
L 318.876471 220.880263 
L 319.233234 222.180321 
L 319.589998 220.697722 
L 319.946761 208.18957 
L 320.303524 219.04704 
L 320.660287 219.083769 
L 321.01705 206.42545 
L 321.373814 217.539427 
L 321.730577 220.880263 
L 322.08734 218.697449 
L 322.444103 192.061168 
L 322.800867 215.00851 
L 323.15763 211.658082 
L 323.514393 193.848088 
L 323.871156 169.484304 
L 324.22792 22.796 
L 324.584683 70.902852 
L 324.941446 157.678014 
L 325.298209 97.538438 
L 325.654973 92.898181 
L 326.011736 197.486191 
L 326.368499 120.356695 
L 326.725262 252.418347 
L 327.082025 209.0976 
L 327.438789 203.351524 
L 327.795552 202.621587 
L 328.152315 207.884463 
L 328.509078 200.667412 
L 328.865842 220.82451 
L 329.222605 199.570187 
L 329.579368 194.980337 
L 329.936131 202.859343 
L 330.292895 213.294618 
L 330.649658 210.301119 
L 331.006421 216.483334 
L 331.363184 204.178313 
L 331.719948 208.117578 
L 332.076711 217.62312 
L 332.433474 217.252871 
L 333.147 146.595455 
L 333.503764 135.094668 
L 333.860527 219.186325 
L 334.21729 142.196607 
L 334.574053 149.52167 
L 334.930817 145.198038 
L 335.644343 133.990399 
L 336.001106 132.606163 
L 336.35787 128.391006 
L 336.714633 127.188257 
L 337.071396 133.402 
L 337.428159 134.703544 
L 337.784923 133.037454 
L 338.141686 134.06906 
L 338.498449 123.809425 
L 338.855212 238.894915 
L 339.211976 148.522032 
L 339.568739 155.793666 
L 339.925502 264.716 
L 340.282265 147.613246 
L 340.995792 186.162395 
L 341.352555 179.438295 
L 341.709318 192.481236 
L 342.066081 195.781313 
L 342.422845 195.114177 
L 342.779608 196.505552 
L 343.136371 193.901741 
L 343.493134 257.761956 
L 343.849898 197.878362 
L 344.206661 198.146297 
L 344.563424 198.228527 
L 344.920187 198.16326 
L 345.276951 198.902624 
L 345.990477 195.161238 
L 346.34724 194.581273 
L 346.704003 193.337432 
L 347.060767 193.919855 
L 347.41753 191.556032 
L 347.774293 191.424031 
L 348.48782 194.724035 
L 348.844583 190.168535 
L 349.201346 190.484399 
L 349.558109 190.451539 
L 349.914873 191.276021 
L 350.271636 190.209883 
L 350.628399 194.036325 
L 351.341926 191.999212 
L 351.698689 191.905633 
L 352.055452 191.388563 
L 352.768979 189.081387 
L 353.125742 189.001218 
L 353.482505 190.88412 
L 353.839268 189.369239 
L 354.196031 191.164683 
L 354.552795 191.301429 
L 354.909558 193.814089 
L 355.266321 194.880171 
L 355.623084 194.461066 
L 355.979848 192.559859 
L 356.336611 192.947383 
L 356.693374 193.013208 
L 357.050137 193.336724 
L 357.406901 192.757234 
L 358.120427 193.774967 
L 358.47719 194.055417 
L 358.833954 193.050613 
L 359.190717 194.642551 
L 359.54748 194.818448 
L 359.904243 196.418353 
L 360.261006 194.744436 
L 360.61777 194.670828 
L 360.974533 193.735808 
L 361.331296 192.003224 
L 361.688059 192.003224 
L 362.044823 193.883667 
L 362.401586 262.364713 
L 362.758349 193.599669 
L 363.115112 193.003643 
L 363.471876 191.68071 
L 363.828639 263.727221 
L 364.185402 192.677345 
L 364.542165 193.356593 
L 364.898929 192.347794 
L 365.255692 196.684129 
L 365.612455 195.283243 
L 365.969218 195.352571 
L 366.325982 196.65968 
L 366.682745 195.703909 
L 367.039508 195.405411 
L 367.396271 195.497896 
L 367.753034 195.0794 
L 368.109798 193.737505 
L 368.466561 196.636168 
L 368.823324 197.071264 
L 369.180087 195.032266 
L 369.536851 198.328596 
L 369.893614 257.158803 
L 370.250377 197.10354 
L 370.963904 201.12676 
L 371.320667 197.377165 
L 371.67743 198.388598 
L 372.034193 196.911963 
L 372.390957 197.394942 
L 372.74772 194.943866 
L 373.104483 199.484174 
L 373.461246 198.795734 
L 373.818009 197.593542 
L 374.174773 200.296235 
L 374.174773 200.296235 
" style="fill:none;stroke:#1f77b4;stroke-linecap:square;stroke-width:1.5;"/>
   </g>
   <g id="patch_3">
    <path d="M 33.2875 276.812 
L 33.2875 10.7 
" style="fill:none;stroke:#000000;stroke-linecap:square;stroke-linejoin:miter;stroke-width:0.8;"/>
   </g>
   <g id="patch_4">
    <path d="M 390.4075 276.812 
L 390.4075 10.7 
" style="fill:none;stroke:#000000;stroke-linecap:square;stroke-linejoin:miter;stroke-width:0.8;"/>
   </g>
   <g id="patch_5">
    <path d="M 33.2875 276.812 
L 390.4075 276.812 
" style="fill:none;stroke:#000000;stroke-linecap:square;stroke-linejoin:miter;stroke-width:0.8;"/>
   </g>
   <g id="patch_6">
    <path d="M 33.2875 10.7 
L 390.4075 10.7 
" style="fill:none;stroke:#000000;stroke-linecap:square;stroke-linejoin:miter;stroke-width:0.8;"/>
   </g>
  </g>
 </g>
 <defs>
  <clipPath id="p4c93f94a40">
   <rect height="266.112" width="357.12" x="33.2875" y="10.7"/>
  </clipPath>
 </defs>
</svg>
