<?xml version="1.0" encoding="utf-8" standalone="no"?>
<!DOCTYPE svg PUBLIC "-//W3C//DTD SVG 1.1//EN"
  "http://www.w3.org/Graphics/SVG/1.1/DTD/svg11.dtd">
<!-- Created with matplotlib (http://matplotlib.org/) -->
<svg height="252.018125pt" version="1.1" viewBox="0 0 372.425 252.018125" width="372.425pt" xmlns="http://www.w3.org/2000/svg" xmlns:xlink="http://www.w3.org/1999/xlink">
 <defs>
  <style type="text/css">
*{stroke-linecap:butt;stroke-linejoin:round;}
  </style>
 </defs>
 <g id="figure_1">
  <g id="patch_1">
   <path d="M -0 252.018125 
L 372.425 252.018125 
L 372.425 0 
L -0 0 
z
" style="fill:#ffffff;"/>
  </g>
  <g id="axes_1">
   <g id="patch_2">
    <path d="M 26.925 228.14 
L 361.725 228.14 
L 361.725 10.7 
L 26.925 10.7 
z
" style="fill:#ffffff;"/>
   </g>
   <g id="matplotlib.axis_1">
    <g id="xtick_1">
     <g id="line2d_1">
      <defs>
       <path d="M 0 0 
L 0 3.5 
" id="mfc27ef4128" style="stroke:#000000;stroke-width:0.8;"/>
      </defs>
      <g>
       <use style="stroke:#000000;stroke-width:0.8;" x="42.143182" xlink:href="#mfc27ef4128" y="228.14"/>
      </g>
     </g>
     <g id="text_1">
      <!-- 0 -->
      <defs>
       <path d="M 31.78125 66.40625 
Q 24.171875 66.40625 20.328125 58.90625 
Q 16.5 51.421875 16.5 36.375 
Q 16.5 21.390625 20.328125 13.890625 
Q 24.171875 6.390625 31.78125 6.390625 
Q 39.453125 6.390625 43.28125 13.890625 
Q 47.125 21.390625 47.125 36.375 
Q 47.125 51.421875 43.28125 58.90625 
Q 39.453125 66.40625 31.78125 66.40625 
z
M 31.78125 74.21875 
Q 44.046875 74.21875 50.515625 64.515625 
Q 56.984375 54.828125 56.984375 36.375 
Q 56.984375 17.96875 50.515625 8.265625 
Q 44.046875 -1.421875 31.78125 -1.421875 
Q 19.53125 -1.421875 13.0625 8.265625 
Q 6.59375 17.96875 6.59375 36.375 
Q 6.59375 54.828125 13.0625 64.515625 
Q 19.53125 74.21875 31.78125 74.21875 
z
" id="DejaVuSans-30"/>
      </defs>
      <g transform="translate(38.961932 242.738437)scale(0.1 -0.1)">
       <use xlink:href="#DejaVuSans-30"/>
      </g>
     </g>
    </g>
    <g id="xtick_2">
     <g id="line2d_2">
      <g>
       <use style="stroke:#000000;stroke-width:0.8;" x="85.303085" xlink:href="#mfc27ef4128" y="228.14"/>
      </g>
     </g>
     <g id="text_2">
      <!-- 250 -->
      <defs>
       <path d="M 19.1875 8.296875 
L 53.609375 8.296875 
L 53.609375 0 
L 7.328125 0 
L 7.328125 8.296875 
Q 12.9375 14.109375 22.625 23.890625 
Q 32.328125 33.6875 34.8125 36.53125 
Q 39.546875 41.84375 41.421875 45.53125 
Q 43.3125 49.21875 43.3125 52.78125 
Q 43.3125 58.59375 39.234375 62.25 
Q 35.15625 65.921875 28.609375 65.921875 
Q 23.96875 65.921875 18.8125 64.3125 
Q 13.671875 62.703125 7.8125 59.421875 
L 7.8125 69.390625 
Q 13.765625 71.78125 18.9375 73 
Q 24.125 74.21875 28.421875 74.21875 
Q 39.75 74.21875 46.484375 68.546875 
Q 53.21875 62.890625 53.21875 53.421875 
Q 53.21875 48.921875 51.53125 44.890625 
Q 49.859375 40.875 45.40625 35.40625 
Q 44.1875 33.984375 37.640625 27.21875 
Q 31.109375 20.453125 19.1875 8.296875 
z
" id="DejaVuSans-32"/>
       <path d="M 10.796875 72.90625 
L 49.515625 72.90625 
L 49.515625 64.59375 
L 19.828125 64.59375 
L 19.828125 46.734375 
Q 21.96875 47.46875 24.109375 47.828125 
Q 26.265625 48.1875 28.421875 48.1875 
Q 40.625 48.1875 47.75 41.5 
Q 54.890625 34.8125 54.890625 23.390625 
Q 54.890625 11.625 47.5625 5.09375 
Q 40.234375 -1.421875 26.90625 -1.421875 
Q 22.3125 -1.421875 17.546875 -0.640625 
Q 12.796875 0.140625 7.71875 1.703125 
L 7.71875 11.625 
Q 12.109375 9.234375 16.796875 8.0625 
Q 21.484375 6.890625 26.703125 6.890625 
Q 35.15625 6.890625 40.078125 11.328125 
Q 45.015625 15.765625 45.015625 23.390625 
Q 45.015625 31 40.078125 35.4375 
Q 35.15625 39.890625 26.703125 39.890625 
Q 22.75 39.890625 18.8125 39.015625 
Q 14.890625 38.140625 10.796875 36.28125 
z
" id="DejaVuSans-35"/>
      </defs>
      <g transform="translate(75.759335 242.738437)scale(0.1 -0.1)">
       <use xlink:href="#DejaVuSans-32"/>
       <use x="63.623047" xlink:href="#DejaVuSans-35"/>
       <use x="127.246094" xlink:href="#DejaVuSans-30"/>
      </g>
     </g>
    </g>
    <g id="xtick_3">
     <g id="line2d_3">
      <g>
       <use style="stroke:#000000;stroke-width:0.8;" x="128.462988" xlink:href="#mfc27ef4128" y="228.14"/>
      </g>
     </g>
     <g id="text_3">
      <!-- 500 -->
      <g transform="translate(118.919238 242.738437)scale(0.1 -0.1)">
       <use xlink:href="#DejaVuSans-35"/>
       <use x="63.623047" xlink:href="#DejaVuSans-30"/>
       <use x="127.246094" xlink:href="#DejaVuSans-30"/>
      </g>
     </g>
    </g>
    <g id="xtick_4">
     <g id="line2d_4">
      <g>
       <use style="stroke:#000000;stroke-width:0.8;" x="171.622891" xlink:href="#mfc27ef4128" y="228.14"/>
      </g>
     </g>
     <g id="text_4">
      <!-- 750 -->
      <defs>
       <path d="M 8.203125 72.90625 
L 55.078125 72.90625 
L 55.078125 68.703125 
L 28.609375 0 
L 18.3125 0 
L 43.21875 64.59375 
L 8.203125 64.59375 
z
" id="DejaVuSans-37"/>
      </defs>
      <g transform="translate(162.079141 242.738437)scale(0.1 -0.1)">
       <use xlink:href="#DejaVuSans-37"/>
       <use x="63.623047" xlink:href="#DejaVuSans-35"/>
       <use x="127.246094" xlink:href="#DejaVuSans-30"/>
      </g>
     </g>
    </g>
    <g id="xtick_5">
     <g id="line2d_5">
      <g>
       <use style="stroke:#000000;stroke-width:0.8;" x="214.782794" xlink:href="#mfc27ef4128" y="228.14"/>
      </g>
     </g>
     <g id="text_5">
      <!-- 1000 -->
      <defs>
       <path d="M 12.40625 8.296875 
L 28.515625 8.296875 
L 28.515625 63.921875 
L 10.984375 60.40625 
L 10.984375 69.390625 
L 28.421875 72.90625 
L 38.28125 72.90625 
L 38.28125 8.296875 
L 54.390625 8.296875 
L 54.390625 0 
L 12.40625 0 
z
" id="DejaVuSans-31"/>
      </defs>
      <g transform="translate(202.057794 242.738437)scale(0.1 -0.1)">
       <use xlink:href="#DejaVuSans-31"/>
       <use x="63.623047" xlink:href="#DejaVuSans-30"/>
       <use x="127.246094" xlink:href="#DejaVuSans-30"/>
       <use x="190.869141" xlink:href="#DejaVuSans-30"/>
      </g>
     </g>
    </g>
    <g id="xtick_6">
     <g id="line2d_6">
      <g>
       <use style="stroke:#000000;stroke-width:0.8;" x="257.942697" xlink:href="#mfc27ef4128" y="228.14"/>
      </g>
     </g>
     <g id="text_6">
      <!-- 1250 -->
      <g transform="translate(245.217697 242.738437)scale(0.1 -0.1)">
       <use xlink:href="#DejaVuSans-31"/>
       <use x="63.623047" xlink:href="#DejaVuSans-32"/>
       <use x="127.246094" xlink:href="#DejaVuSans-35"/>
       <use x="190.869141" xlink:href="#DejaVuSans-30"/>
      </g>
     </g>
    </g>
    <g id="xtick_7">
     <g id="line2d_7">
      <g>
       <use style="stroke:#000000;stroke-width:0.8;" x="301.1026" xlink:href="#mfc27ef4128" y="228.14"/>
      </g>
     </g>
     <g id="text_7">
      <!-- 1500 -->
      <g transform="translate(288.3776 242.738437)scale(0.1 -0.1)">
       <use xlink:href="#DejaVuSans-31"/>
       <use x="63.623047" xlink:href="#DejaVuSans-35"/>
       <use x="127.246094" xlink:href="#DejaVuSans-30"/>
       <use x="190.869141" xlink:href="#DejaVuSans-30"/>
      </g>
     </g>
    </g>
    <g id="xtick_8">
     <g id="line2d_8">
      <g>
       <use style="stroke:#000000;stroke-width:0.8;" x="344.262503" xlink:href="#mfc27ef4128" y="228.14"/>
      </g>
     </g>
     <g id="text_8">
      <!-- 1750 -->
      <g transform="translate(331.537503 242.738437)scale(0.1 -0.1)">
       <use xlink:href="#DejaVuSans-31"/>
       <use x="63.623047" xlink:href="#DejaVuSans-37"/>
       <use x="127.246094" xlink:href="#DejaVuSans-35"/>
       <use x="190.869141" xlink:href="#DejaVuSans-30"/>
      </g>
     </g>
    </g>
   </g>
   <g id="matplotlib.axis_2">
    <g id="ytick_1">
     <g id="line2d_9">
      <defs>
       <path d="M 0 0 
L -3.5 0 
" id="m88af95b1ae" style="stroke:#000000;stroke-width:0.8;"/>
      </defs>
      <g>
       <use style="stroke:#000000;stroke-width:0.8;" x="26.925" xlink:href="#m88af95b1ae" y="199.1482"/>
      </g>
     </g>
     <g id="text_9">
      <!-- 42 -->
      <defs>
       <path d="M 37.796875 64.3125 
L 12.890625 25.390625 
L 37.796875 25.390625 
z
M 35.203125 72.90625 
L 47.609375 72.90625 
L 47.609375 25.390625 
L 58.015625 25.390625 
L 58.015625 17.1875 
L 47.609375 17.1875 
L 47.609375 0 
L 37.796875 0 
L 37.796875 17.1875 
L 4.890625 17.1875 
L 4.890625 26.703125 
z
" id="DejaVuSans-34"/>
      </defs>
      <g transform="translate(7.2 202.947419)scale(0.1 -0.1)">
       <use xlink:href="#DejaVuSans-34"/>
       <use x="63.623047" xlink:href="#DejaVuSans-32"/>
      </g>
     </g>
    </g>
    <g id="ytick_2">
     <g id="line2d_10">
      <g>
       <use style="stroke:#000000;stroke-width:0.8;" x="26.925" xlink:href="#m88af95b1ae" y="169.393762"/>
      </g>
     </g>
     <g id="text_10">
      <!-- 43 -->
      <defs>
       <path d="M 40.578125 39.3125 
Q 47.65625 37.796875 51.625 33 
Q 55.609375 28.21875 55.609375 21.1875 
Q 55.609375 10.40625 48.1875 4.484375 
Q 40.765625 -1.421875 27.09375 -1.421875 
Q 22.515625 -1.421875 17.65625 -0.515625 
Q 12.796875 0.390625 7.625 2.203125 
L 7.625 11.71875 
Q 11.71875 9.328125 16.59375 8.109375 
Q 21.484375 6.890625 26.8125 6.890625 
Q 36.078125 6.890625 40.9375 10.546875 
Q 45.796875 14.203125 45.796875 21.1875 
Q 45.796875 27.640625 41.28125 31.265625 
Q 36.765625 34.90625 28.71875 34.90625 
L 20.21875 34.90625 
L 20.21875 43.015625 
L 29.109375 43.015625 
Q 36.375 43.015625 40.234375 45.921875 
Q 44.09375 48.828125 44.09375 54.296875 
Q 44.09375 59.90625 40.109375 62.90625 
Q 36.140625 65.921875 28.71875 65.921875 
Q 24.65625 65.921875 20.015625 65.03125 
Q 15.375 64.15625 9.8125 62.3125 
L 9.8125 71.09375 
Q 15.4375 72.65625 20.34375 73.4375 
Q 25.25 74.21875 29.59375 74.21875 
Q 40.828125 74.21875 47.359375 69.109375 
Q 53.90625 64.015625 53.90625 55.328125 
Q 53.90625 49.265625 50.4375 45.09375 
Q 46.96875 40.921875 40.578125 39.3125 
z
" id="DejaVuSans-33"/>
      </defs>
      <g transform="translate(7.2 173.192981)scale(0.1 -0.1)">
       <use xlink:href="#DejaVuSans-34"/>
       <use x="63.623047" xlink:href="#DejaVuSans-33"/>
      </g>
     </g>
    </g>
    <g id="ytick_3">
     <g id="line2d_11">
      <g>
       <use style="stroke:#000000;stroke-width:0.8;" x="26.925" xlink:href="#m88af95b1ae" y="139.639324"/>
      </g>
     </g>
     <g id="text_11">
      <!-- 44 -->
      <g transform="translate(7.2 143.438543)scale(0.1 -0.1)">
       <use xlink:href="#DejaVuSans-34"/>
       <use x="63.623047" xlink:href="#DejaVuSans-34"/>
      </g>
     </g>
    </g>
    <g id="ytick_4">
     <g id="line2d_12">
      <g>
       <use style="stroke:#000000;stroke-width:0.8;" x="26.925" xlink:href="#m88af95b1ae" y="109.884886"/>
      </g>
     </g>
     <g id="text_12">
      <!-- 45 -->
      <g transform="translate(7.2 113.684105)scale(0.1 -0.1)">
       <use xlink:href="#DejaVuSans-34"/>
       <use x="63.623047" xlink:href="#DejaVuSans-35"/>
      </g>
     </g>
    </g>
    <g id="ytick_5">
     <g id="line2d_13">
      <g>
       <use style="stroke:#000000;stroke-width:0.8;" x="26.925" xlink:href="#m88af95b1ae" y="80.130449"/>
      </g>
     </g>
     <g id="text_13">
      <!-- 46 -->
      <defs>
       <path d="M 33.015625 40.375 
Q 26.375 40.375 22.484375 35.828125 
Q 18.609375 31.296875 18.609375 23.390625 
Q 18.609375 15.53125 22.484375 10.953125 
Q 26.375 6.390625 33.015625 6.390625 
Q 39.65625 6.390625 43.53125 10.953125 
Q 47.40625 15.53125 47.40625 23.390625 
Q 47.40625 31.296875 43.53125 35.828125 
Q 39.65625 40.375 33.015625 40.375 
z
M 52.59375 71.296875 
L 52.59375 62.3125 
Q 48.875 64.0625 45.09375 64.984375 
Q 41.3125 65.921875 37.59375 65.921875 
Q 27.828125 65.921875 22.671875 59.328125 
Q 17.53125 52.734375 16.796875 39.40625 
Q 19.671875 43.65625 24.015625 45.921875 
Q 28.375 48.1875 33.59375 48.1875 
Q 44.578125 48.1875 50.953125 41.515625 
Q 57.328125 34.859375 57.328125 23.390625 
Q 57.328125 12.15625 50.6875 5.359375 
Q 44.046875 -1.421875 33.015625 -1.421875 
Q 20.359375 -1.421875 13.671875 8.265625 
Q 6.984375 17.96875 6.984375 36.375 
Q 6.984375 53.65625 15.1875 63.9375 
Q 23.390625 74.21875 37.203125 74.21875 
Q 40.921875 74.21875 44.703125 73.484375 
Q 48.484375 72.75 52.59375 71.296875 
z
" id="DejaVuSans-36"/>
      </defs>
      <g transform="translate(7.2 83.929667)scale(0.1 -0.1)">
       <use xlink:href="#DejaVuSans-34"/>
       <use x="63.623047" xlink:href="#DejaVuSans-36"/>
      </g>
     </g>
    </g>
    <g id="ytick_6">
     <g id="line2d_14">
      <g>
       <use style="stroke:#000000;stroke-width:0.8;" x="26.925" xlink:href="#m88af95b1ae" y="50.376011"/>
      </g>
     </g>
     <g id="text_14">
      <!-- 47 -->
      <g transform="translate(7.2 54.175229)scale(0.1 -0.1)">
       <use xlink:href="#DejaVuSans-34"/>
       <use x="63.623047" xlink:href="#DejaVuSans-37"/>
      </g>
     </g>
    </g>
    <g id="ytick_7">
     <g id="line2d_15">
      <g>
       <use style="stroke:#000000;stroke-width:0.8;" x="26.925" xlink:href="#m88af95b1ae" y="20.621573"/>
      </g>
     </g>
     <g id="text_15">
      <!-- 48 -->
      <defs>
       <path d="M 31.78125 34.625 
Q 24.75 34.625 20.71875 30.859375 
Q 16.703125 27.09375 16.703125 20.515625 
Q 16.703125 13.921875 20.71875 10.15625 
Q 24.75 6.390625 31.78125 6.390625 
Q 38.8125 6.390625 42.859375 10.171875 
Q 46.921875 13.96875 46.921875 20.515625 
Q 46.921875 27.09375 42.890625 30.859375 
Q 38.875 34.625 31.78125 34.625 
z
M 21.921875 38.8125 
Q 15.578125 40.375 12.03125 44.71875 
Q 8.5 49.078125 8.5 55.328125 
Q 8.5 64.0625 14.71875 69.140625 
Q 20.953125 74.21875 31.78125 74.21875 
Q 42.671875 74.21875 48.875 69.140625 
Q 55.078125 64.0625 55.078125 55.328125 
Q 55.078125 49.078125 51.53125 44.71875 
Q 48 40.375 41.703125 38.8125 
Q 48.828125 37.15625 52.796875 32.3125 
Q 56.78125 27.484375 56.78125 20.515625 
Q 56.78125 9.90625 50.3125 4.234375 
Q 43.84375 -1.421875 31.78125 -1.421875 
Q 19.734375 -1.421875 13.25 4.234375 
Q 6.78125 9.90625 6.78125 20.515625 
Q 6.78125 27.484375 10.78125 32.3125 
Q 14.796875 37.15625 21.921875 38.8125 
z
M 18.3125 54.390625 
Q 18.3125 48.734375 21.84375 45.5625 
Q 25.390625 42.390625 31.78125 42.390625 
Q 38.140625 42.390625 41.71875 45.5625 
Q 45.3125 48.734375 45.3125 54.390625 
Q 45.3125 60.0625 41.71875 63.234375 
Q 38.140625 66.40625 31.78125 66.40625 
Q 25.390625 66.40625 21.84375 63.234375 
Q 18.3125 60.0625 18.3125 54.390625 
z
" id="DejaVuSans-38"/>
      </defs>
      <g transform="translate(7.2 24.420792)scale(0.1 -0.1)">
       <use xlink:href="#DejaVuSans-34"/>
       <use x="63.623047" xlink:href="#DejaVuSans-38"/>
      </g>
     </g>
    </g>
   </g>
   <g id="line2d_16">
    <path clip-path="url(#p48e8dd7937)" d="M 42.143182 140.806914 
L 42.315821 95.31902 
L 42.488461 119.788081 
L 42.661101 120.182645 
L 42.83374 141.624639 
L 43.00638 134.028728 
L 43.351659 100.531831 
L 43.524299 111.063681 
L 43.696938 106.060359 
L 43.869578 78.212824 
L 44.042218 73.138936 
L 44.214857 78.466247 
L 44.387497 53.077166 
L 44.560136 62.923993 
L 44.732776 99.018622 
L 44.905416 104.984372 
L 45.078055 105.386446 
L 45.423334 71.586416 
L 45.595974 101.546284 
L 45.768614 85.109699 
L 45.941253 87.80001 
L 46.113893 76.494241 
L 46.459172 118.193108 
L 46.631812 88.650343 
L 46.804451 93.824567 
L 46.977091 94.54569 
L 47.149731 106.387969 
L 47.32237 81.637668 
L 47.49501 90.90048 
L 47.667649 76.243441 
L 47.840289 113.758598 
L 48.185568 89.725122 
L 48.358208 120.590504 
L 48.530847 96.288303 
L 48.703487 88.296529 
L 48.876127 74.180738 
L 49.221406 95.605111 
L 49.394046 92.714881 
L 49.566685 108.163821 
L 49.911964 101.438729 
L 50.084604 64.569239 
L 50.257244 73.325449 
L 50.429883 103.475664 
L 50.775162 75.76751 
L 50.947802 74.497299 
L 51.120442 90.184791 
L 51.293081 85.722219 
L 51.465721 88.262562 
L 51.63836 109.267381 
L 51.98364 85.419375 
L 52.156279 79.47027 
L 52.328919 97.910497 
L 52.501559 96.73145 
L 52.674198 128.311934 
L 52.846838 124.562866 
L 53.019477 130.11965 
L 53.192117 171.743892 
L 53.364757 168.96683 
L 53.537396 173.944458 
L 53.710036 168.88584 
L 53.882675 154.068473 
L 54.055315 172.119543 
L 54.227955 133.032868 
L 54.400594 136.479295 
L 54.573234 126.171544 
L 54.745874 103.712635 
L 55.091153 109.815881 
L 55.263792 83.205092 
L 55.436432 98.887582 
L 55.781711 73.09376 
L 55.954351 84.693755 
L 56.29963 77.515333 
L 56.47227 89.140185 
L 56.644909 89.950227 
L 56.817549 76.065818 
L 56.990188 77.980308 
L 57.162828 83.160735 
L 57.335468 91.730408 
L 57.508107 88.885859 
L 57.680747 97.439907 
L 57.853387 71.110937 
L 58.026026 65.477873 
L 58.198666 66.219942 
L 58.543945 100.508176 
L 58.716585 92.566772 
L 58.889224 76.185434 
L 59.061864 90.166025 
L 59.234503 69.77215 
L 59.407143 93.060343 
L 59.579783 79.110639 
L 59.752422 87.439413 
L 59.925062 84.321121 
L 60.097701 60.84546 
L 60.270341 71.852596 
L 60.442981 49.146004 
L 60.78826 93.176686 
L 61.133539 58.96954 
L 61.306179 74.20163 
L 61.651458 78.953584 
L 61.824098 98.105168 
L 61.996737 77.775706 
L 62.169377 92.278895 
L 62.514656 95.559205 
L 62.687296 98.423751 
L 62.859935 104.946466 
L 63.032575 64.115734 
L 63.205215 116.637127 
L 63.377854 113.818278 
L 63.723133 123.856686 
L 63.895773 87.3692 
L 64.068413 117.447226 
L 64.413692 102.094067 
L 64.586331 102.110633 
L 64.758971 66.654568 
L 64.931611 85.460282 
L 65.10425 117.81352 
L 65.27689 84.748645 
L 65.622169 131.756954 
L 65.794809 120.352961 
L 65.967448 88.498025 
L 66.140088 105.786277 
L 66.312728 105.951198 
L 66.485367 112.037287 
L 66.658007 90.241142 
L 67.003286 119.352909 
L 67.348565 98.695177 
L 67.521205 96.679526 
L 67.693844 100.432556 
L 67.866484 85.296652 
L 68.211763 110.106288 
L 68.384403 143.216502 
L 68.729682 96.690133 
L 68.902322 127.580783 
L 69.074961 100.291925 
L 69.247601 108.242279 
L 69.420241 109.564767 
L 69.59288 112.810011 
L 69.76552 98.397776 
L 69.938159 104.781614 
L 70.110799 90.503882 
L 70.283439 95.474422 
L 70.456078 74.754676 
L 70.801357 115.994936 
L 70.973997 102.097597 
L 71.146637 103.385628 
L 71.319276 112.188672 
L 71.664556 115.718754 
L 71.837195 114.78671 
L 72.009835 129.632777 
L 72.355114 105.206142 
L 72.527754 105.457625 
L 72.700393 126.492069 
L 72.873033 129.687099 
L 73.045672 109.825397 
L 73.218312 133.906315 
L 73.563591 118.619525 
L 73.736231 87.826922 
L 74.08151 142.091649 
L 74.25415 116.191045 
L 74.426789 118.048236 
L 74.599429 103.571617 
L 74.772069 99.776798 
L 74.944708 80.381742 
L 75.117348 107.859546 
L 75.462627 85.586556 
L 75.635267 129.793411 
L 75.807906 106.997059 
L 75.980546 104.126119 
L 76.153185 94.17859 
L 76.325825 94.725737 
L 76.498465 114.002129 
L 76.671104 88.144269 
L 76.843744 130.141402 
L 77.016383 136.543674 
L 77.189023 108.622734 
L 77.361663 119.517145 
L 77.534302 105.884743 
L 77.706942 105.342582 
L 77.879582 108.09962 
L 78.052221 98.282131 
L 78.224861 111.727359 
L 78.3975 113.357567 
L 78.57014 103.832252 
L 78.74278 84.186874 
L 78.915419 96.394365 
L 79.088059 119.0305 
L 79.433338 99.829935 
L 79.778617 131.172652 
L 79.951257 119.474039 
L 80.123897 126.110118 
L 80.469176 106.311991 
L 80.641815 110.320573 
L 80.814455 122.331303 
L 80.987095 96.391989 
L 81.159734 134.958683 
L 81.505013 114.288654 
L 81.677653 97.553117 
L 82.022932 110.088427 
L 82.195572 101.714254 
L 82.368211 102.556805 
L 82.540851 100.226913 
L 82.713491 121.27453 
L 82.88613 95.658152 
L 83.05877 91.090608 
L 83.23141 94.302115 
L 83.404049 112.971034 
L 83.576689 113.157143 
L 83.749328 93.203723 
L 84.094608 120.230628 
L 84.439887 93.883351 
L 84.612526 125.58494 
L 84.785166 128.064506 
L 84.957806 106.861717 
L 85.130445 117.747683 
L 85.303085 67.873758 
L 85.648364 126.120942 
L 85.821004 97.743 
L 85.993643 89.281953 
L 86.166283 109.368449 
L 86.338923 92.697163 
L 86.511562 93.034457 
L 86.684202 89.748554 
L 86.856841 83.21558 
L 87.029481 123.963744 
L 87.202121 116.980504 
L 87.37476 122.817966 
L 87.5474 107.133653 
L 87.720039 106.2372 
L 87.892679 108.248202 
L 88.065319 130.522122 
L 88.237958 124.617058 
L 88.410598 93.637564 
L 88.583238 98.16652 
L 88.755877 107.53991 
L 88.928517 103.196152 
L 89.273796 107.41281 
L 89.446436 136.923812 
L 89.619075 131.035986 
L 89.791715 100.228094 
L 89.964354 106.639655 
L 90.136994 108.628668 
L 90.309634 93.271906 
L 90.482273 93.271906 
L 90.654913 104.81129 
L 90.827552 98.395442 
L 91.000192 108.476457 
L 91.172832 101.191487 
L 91.345471 109.455342 
L 91.518111 103.197317 
L 91.690751 117.198318 
L 91.86339 103.832252 
L 92.03603 105.743522 
L 92.208669 136.877694 
L 92.381309 116.149162 
L 92.553949 118.741736 
L 92.726588 110.064625 
L 92.899228 126.828341 
L 93.071867 118.590793 
L 93.244507 102.527212 
L 93.417147 125.393482 
L 93.762426 94.283312 
L 94.107705 120.275002 
L 94.280345 114.263618 
L 94.452984 119.414052 
L 94.625624 128.235829 
L 94.798264 108.833193 
L 94.970903 107.585058 
L 95.143543 92.884054 
L 95.316182 122.947726 
L 95.488822 114.811765 
L 95.661462 112.071857 
L 95.834101 72.385033 
L 96.17938 131.944469 
L 96.35202 108.839149 
L 96.52466 114.35671 
L 96.697299 116.072654 
L 96.869939 96.56641 
L 97.042579 116.248435 
L 97.215218 111.900188 
L 97.387858 119.414052 
L 97.560497 108.323104 
L 97.733137 115.537068 
L 97.905777 117.447207 
L 98.078416 131.592362 
L 98.423695 115.127169 
L 98.596335 136.832723 
L 98.768975 132.693722 
L 99.286893 96.391989 
L 99.459533 107.089717 
L 99.632173 89.373393 
L 99.977452 130.852168 
L 100.150092 127.832878 
L 100.322731 118.61115 
L 100.66801 82.843399 
L 100.84065 87.733293 
L 101.01329 122.863615 
L 101.185929 118.950212 
L 101.358569 77.104027 
L 101.531208 101.094545 
L 101.703848 99.955178 
L 101.876488 106.403383 
L 102.049127 117.410102 
L 102.221767 116.370439 
L 102.394406 130.054396 
L 102.739686 101.527359 
L 102.912325 124.590574 
L 103.084965 127.378152 
L 103.257605 139.363989 
L 103.430244 121.352558 
L 103.775523 128.641348 
L 103.948163 112.985337 
L 104.120803 84.729974 
L 104.293442 110.457494 
L 104.466082 110.782601 
L 104.638721 129.102566 
L 104.811361 125.138245 
L 104.984001 140.755776 
L 105.15664 140.385455 
L 105.50192 132.090911 
L 105.674559 105.590511 
L 105.847199 106.644384 
L 106.019838 115.612408 
L 106.192478 87.344601 
L 106.365118 88.425396 
L 106.537757 140.350128 
L 106.710397 155.56845 
L 106.883036 140.843445 
L 107.228316 93.328375 
L 107.573595 115.41277 
L 107.746234 116.095374 
L 107.918874 139.793661 
L 108.436793 111.254291 
L 108.609433 111.904971 
L 108.782072 146.366922 
L 109.299991 105.117228 
L 109.472631 76.568562 
L 109.64527 95.715812 
L 109.990549 71.145707 
L 110.335829 94.236234 
L 110.681108 47.041352 
L 110.853747 73.566472 
L 111.199027 33.431408 
L 111.371666 51.171757 
L 111.716946 20.583636 
L 112.062225 48.867072 
L 112.234864 50.00358 
L 112.407504 34.085737 
L 112.580144 41.14789 
L 112.752783 39.671324 
L 113.443342 77.967458 
L 113.615981 80.265256 
L 114.1339 127.736343 
L 114.30654 117.32993 
L 114.479179 117.74772 
L 114.651819 143.701155 
L 114.824459 128.74999 
L 115.169738 139.783963 
L 115.342377 127.591601 
L 115.515017 150.403423 
L 115.860296 118.394322 
L 116.205575 139.439444 
L 116.378215 135.95361 
L 116.550855 161.537523 
L 116.723494 152.723913 
L 116.896134 125.972813 
L 117.068774 152.414105 
L 117.241413 157.37366 
L 117.586692 136.575227 
L 117.759332 137.001611 
L 117.931972 128.058454 
L 118.277251 131.211323 
L 118.44989 130.228415 
L 118.62253 117.30119 
L 118.967809 153.273675 
L 119.140449 131.447235 
L 119.313088 139.979928 
L 119.485728 135.06904 
L 119.658368 118.144083 
L 119.831007 118.086525 
L 120.003647 123.744829 
L 120.176287 110.397951 
L 120.348926 148.383601 
L 120.521566 140.238066 
L 120.694205 114.798624 
L 120.866845 147.237121 
L 121.212124 131.276699 
L 121.384764 126.500505 
L 121.557403 135.861419 
L 121.730043 132.604126 
L 122.075322 168.887068 
L 122.247962 172.364212 
L 122.420602 163.625133 
L 122.765881 117.880569 
L 122.93852 146.626336 
L 123.2838 125.813757 
L 123.456439 147.78089 
L 123.801718 129.456383 
L 124.146998 145.783434 
L 124.319637 129.62549 
L 124.492277 148.595622 
L 124.664916 146.336331 
L 124.837556 131.726646 
L 125.010196 106.642009 
L 125.182835 155.334338 
L 125.528115 123.244629 
L 125.700754 141.401567 
L 125.873394 123.053498 
L 126.046033 124.685636 
L 126.218673 124.393209 
L 126.391313 129.803084 
L 126.563952 156.407902 
L 126.909231 112.934073 
L 127.081871 131.035966 
L 127.254511 123.083606 
L 127.42715 139.892261 
L 127.59979 145.761413 
L 127.772429 139.297058 
L 127.945069 118.475781 
L 128.117709 128.381914 
L 128.290348 117.781259 
L 128.635628 150.170305 
L 128.808267 150.51021 
L 128.980907 161.492958 
L 129.153546 125.324883 
L 129.326186 119.655008 
L 129.671465 126.028193 
L 129.844105 117.46157 
L 130.189384 130.555969 
L 130.362024 130.274339 
L 130.534663 140.569346 
L 130.707303 125.989628 
L 130.879943 127.695381 
L 131.052582 128.16102 
L 131.225222 144.526823 
L 131.397861 117.35152 
L 131.570501 132.587227 
L 131.91578 121.902482 
L 132.08842 131.006957 
L 132.261059 125.898075 
L 132.433699 146.086757 
L 132.606339 141.07617 
L 132.778978 110.524176 
L 133.124257 134.923489 
L 133.296897 137.780451 
L 133.469537 118.461399 
L 133.814816 104.832609 
L 134.160095 125.683689 
L 134.332735 123.926454 
L 134.678014 140.112661 
L 134.850654 137.5386 
L 135.023293 132.263978 
L 135.195933 112.929251 
L 135.368572 109.029461 
L 135.541212 146.924965 
L 135.713852 122.332512 
L 135.886491 115.059064 
L 136.23177 134.838592 
L 136.40441 125.66802 
L 136.57705 125.111735 
L 136.749689 130.870305 
L 136.922329 149.74944 
L 137.267608 113.775294 
L 137.440248 139.609841 
L 137.612887 148.805222 
L 137.785527 122.477865 
L 138.130806 148.213303 
L 138.476085 165.817985 
L 138.648725 148.038081 
L 138.821365 162.685599 
L 138.994004 163.082153 
L 139.166644 169.355369 
L 139.511923 214.91077 
L 139.684563 211.784183 
L 140.029842 164.169663 
L 140.202482 140.311188 
L 140.375121 148.285586 
L 140.547761 140.213711 
L 140.89304 172.592696 
L 141.06568 140.00921 
L 141.410959 157.183662 
L 141.583598 202.44509 
L 141.756238 156.412777 
L 141.928878 141.555206 
L 142.274157 156.526235 
L 142.446797 162.610035 
L 142.619436 151.810706 
L 142.964715 168.92193 
L 143.137355 170.297232 
L 143.309995 165.948423 
L 143.482634 137.144898 
L 144.173193 218.256364 
L 144.345832 208.233817 
L 144.518472 183.321362 
L 144.691111 175.328938 
L 144.863751 178.941674 
L 145.036391 187.419209 
L 145.38167 152.871528 
L 145.726949 191.666155 
L 145.899589 168.758835 
L 146.072228 162.706663 
L 146.244868 166.190673 
L 146.417508 155.431676 
L 146.935426 194.753969 
L 147.280706 160.64652 
L 147.453345 190.78543 
L 147.625985 179.409838 
L 147.971264 145.60738 
L 148.143904 168.687877 
L 148.489183 141.623505 
L 148.661823 129.619457 
L 148.834462 170.89567 
L 149.007102 139.689005 
L 149.179741 144.787107 
L 149.525021 136.177016 
L 149.69766 125.15265 
L 149.8703 129.118281 
L 150.042939 155.084277 
L 150.215579 145.837238 
L 150.388219 146.665484 
L 150.560858 148.90328 
L 150.733498 139.396848 
L 150.906138 144.762697 
L 151.078777 126.962151 
L 151.251417 40.326269 
L 151.424056 24.136177 
L 151.596696 23.042661 
L 151.769336 96.955336 
L 151.941975 119.410447 
L 152.114615 124.186265 
L 152.459894 162.954499 
L 152.632534 176.626001 
L 152.805173 163.594135 
L 153.150452 206.390588 
L 153.323092 191.069221 
L 153.495732 200.131773 
L 153.668371 215.697545 
L 153.841011 174.02322 
L 154.18629 162.544357 
L 154.35893 164.576523 
L 154.531569 101.715437 
L 154.704209 121.252936 
L 154.876849 85.287293 
L 155.049488 83.465375 
L 155.222128 92.372876 
L 155.394767 76.761361 
L 155.567407 83.859944 
L 155.740047 77.148197 
L 156.085326 90.593029 
L 156.257966 62.984922 
L 156.430605 61.81024 
L 156.603245 81.770559 
L 156.775884 81.377728 
L 156.948524 134.118433 
L 157.466443 96.075081 
L 157.639082 67.444567 
L 157.984362 104.529088 
L 158.157001 112.188753 
L 158.329641 114.47376 
L 158.50228 89.813026 
L 158.67492 100.186792 
L 158.84756 127.075521 
L 159.192839 93.495287 
L 159.710758 131.775073 
L 159.883397 108.450311 
L 160.056037 115.037558 
L 160.228677 109.244744 
L 160.401316 96.657172 
L 160.573956 92.330584 
L 160.746595 101.099275 
L 160.919235 95.562738 
L 161.091875 122.512708 
L 161.264514 112.614396 
L 161.437154 121.860469 
L 161.609793 123.077538 
L 161.782433 120.700869 
L 161.955073 116.144379 
L 162.127712 106.169546 
L 162.300352 118.199108 
L 162.472992 107.404493 
L 162.645631 133.623948 
L 162.818271 112.479637 
L 163.16355 118.926247 
L 163.33619 132.996477 
L 163.681469 98.632622 
L 163.854108 100.637029 
L 164.026748 97.989534 
L 164.199388 97.331443 
L 164.372027 111.541448 
L 164.544667 88.753449 
L 164.717307 98.397791 
L 164.889946 97.080313 
L 165.235225 85.441571 
L 165.580505 111.673728 
L 165.753144 111.02318 
L 165.925784 112.344882 
L 166.098423 129.909398 
L 166.271063 102.305863 
L 166.443703 96.888205 
L 166.616342 113.453071 
L 166.788982 64.364337 
L 166.961621 108.992551 
L 167.134261 112.514209 
L 167.306901 111.951478 
L 167.47954 122.535537 
L 167.65218 115.648258 
L 167.82482 90.720922 
L 168.170099 117.976378 
L 168.342738 90.150788 
L 168.515378 97.100355 
L 168.688018 124.081645 
L 168.860657 111.673728 
L 169.033297 115.02566 
L 169.205936 121.646703 
L 169.378576 115.284919 
L 169.551216 123.154469 
L 169.723855 97.273648 
L 169.896495 122.942918 
L 170.069134 99.568911 
L 170.241774 94.781069 
L 170.414414 101.898808 
L 170.587053 91.73982 
L 170.759693 109.181696 
L 170.932333 84.161144 
L 171.104972 107.80607 
L 171.277612 115.306409 
L 171.450251 116.004521 
L 171.622891 110.057513 
L 171.795531 109.236416 
L 171.96817 118.044632 
L 172.14081 112.115948 
L 172.313449 117.997923 
L 172.486089 88.384379 
L 172.658729 80.531954 
L 172.831368 101.733181 
L 173.004008 86.85313 
L 173.176648 105.91083 
L 173.349287 107.248888 
L 173.694566 54.172532 
L 173.867206 105.563226 
L 174.039846 99.037531 
L 174.212485 118.542875 
L 174.557764 96.751439 
L 174.730404 95.534456 
L 174.903044 90.929839 
L 175.075683 130.913834 
L 175.420962 111.969339 
L 175.593602 101.128816 
L 175.766242 100.846262 
L 175.938881 96.250631 
L 176.111521 132.046141 
L 176.284161 114.356729 
L 176.4568 111.162556 
L 176.62944 130.649053 
L 176.802079 113.791989 
L 176.974719 129.38635 
L 177.147359 117.18271 
L 177.319998 125.29594 
L 177.492638 89.415632 
L 177.665277 94.710417 
L 177.837917 117.106123 
L 178.010557 119.452411 
L 178.183196 116.076222 
L 178.528475 100.063874 
L 178.701115 100.738666 
L 178.873755 112.870801 
L 179.046394 106.878323 
L 179.219034 71.550546 
L 179.564313 132.871753 
L 179.909592 107.260776 
L 180.082232 112.25663 
L 180.254872 127.075497 
L 180.427511 117.048686 
L 180.600151 119.717359 
L 180.94543 95.912505 
L 181.11807 94.650438 
L 181.290709 86.1104 
L 181.635989 116.047525 
L 181.808628 115.484498 
L 181.981268 132.662261 
L 182.153907 103.609543 
L 182.326547 115.108052 
L 182.499187 111.349606 
L 182.671826 112.046834 
L 182.844466 86.75602 
L 183.017105 114.094058 
L 183.189745 107.974824 
L 183.362385 118.873524 
L 183.535024 100.165498 
L 183.707664 102.554426 
L 183.880303 116.953023 
L 184.052943 73.130847 
L 184.398222 118.052995 
L 184.570862 103.190252 
L 184.743502 109.689722 
L 184.916141 89.927966 
L 185.088781 104.390399 
L 185.26142 108.452719 
L 185.43406 92.076856 
L 185.6067 109.865844 
L 185.779339 103.532525 
L 185.951979 112.671612 
L 186.124618 112.348459 
L 186.469898 87.823468 
L 186.642537 101.733181 
L 186.815177 91.223222 
L 186.987816 114.509592 
L 187.160456 103.835806 
L 187.333096 111.120881 
L 187.505735 99.35045 
L 187.678375 76.061185 
L 187.851015 105.5549 
L 188.023654 110.201531 
L 188.196294 108.060436 
L 188.368933 121.880865 
L 188.541573 109.717102 
L 188.714213 75.74662 
L 189.059492 121.954144 
L 189.232131 99.011549 
L 189.404771 92.529135 
L 189.577411 96.413219 
L 189.75005 93.568187 
L 190.267969 117.466378 
L 190.613248 97.793738 
L 190.785888 101.875185 
L 190.958528 117.351475 
L 191.303807 92.128538 
L 191.821726 103.897399 
L 191.994365 88.810823 
L 192.167005 128.803127 
L 192.512284 87.91359 
L 192.857563 100.959757 
L 193.030203 103.022078 
L 193.375482 70.995294 
L 193.548122 75.853457 
L 193.720761 108.833202 
L 193.893401 98.864013 
L 194.23868 119.189902 
L 194.583959 81.818366 
L 194.756599 82.974046 
L 194.929239 87.612666 
L 195.101878 108.503833 
L 195.274518 102.359121 
L 195.447157 90.823029 
L 195.619797 96.556972 
L 195.792437 85.825043 
L 196.137716 122.131885 
L 196.310356 104.39516 
L 196.482995 109.736142 
L 196.655635 103.410532 
L 196.828274 108.992551 
L 197.000914 94.876362 
L 197.173554 128.764496 
L 197.346193 104.704544 
L 197.518833 98.90767 
L 197.691472 85.843711 
L 197.864112 111.632027 
L 198.382031 87.79884 
L 198.55467 105.91083 
L 198.72731 112.037287 
L 198.89995 99.307899 
L 199.072589 100.997571 
L 199.417869 112.850523 
L 199.590508 96.738455 
L 199.935787 120.270204 
L 200.281067 86.50331 
L 200.453706 118.388352 
L 200.798985 90.048739 
L 201.144265 108.480034 
L 201.316904 94.639809 
L 201.662184 120.594104 
L 201.834823 110.339611 
L 202.007463 112.10643 
L 202.180102 119.614231 
L 202.352742 101.184392 
L 202.525382 101.372422 
L 202.698021 121.954144 
L 202.870661 91.41809 
L 203.0433 100.783607 
L 203.21594 96.036208 
L 203.561219 63.453009 
L 203.733859 72.644435 
L 203.906498 91.823205 
L 204.251778 72.336447 
L 204.424417 99.648026 
L 204.769697 114.414041 
L 204.942336 109.445783 
L 205.114976 98.37301 
L 205.287615 94.876362 
L 205.460255 75.415912 
L 205.805534 117.374196 
L 205.978174 119.372077 
L 206.150813 103.048168 
L 206.323453 115.669794 
L 206.668732 97.169933 
L 206.841372 108.631046 
L 207.014011 112.261419 
L 207.186651 102.643207 
L 207.359291 78.054645 
L 207.53193 104.366732 
L 207.87721 93.441221 
L 208.049849 106.487688 
L 208.222489 103.895049 
L 208.395128 80.293212 
L 208.567768 99.011549 
L 209.085687 81.039853 
L 209.430966 121.20491 
L 209.603606 122.325306 
L 209.948885 99.161481 
L 210.121525 116.948177 
L 210.294164 122.911669 
L 210.639443 90.805487 
L 210.812083 107.429461 
L 210.984723 72.671047 
L 211.157362 82.377989 
L 211.330002 99.161481 
L 211.502641 92.523281 
L 211.675281 100.606277 
L 211.847921 77.183017 
L 212.02056 103.295674 
L 212.1932 104.704544 
L 212.365839 103.049293 
L 212.711119 129.318717 
L 213.056398 90.242266 
L 213.229038 108.546636 
L 213.574317 53.213049 
L 213.919596 100.84035 
L 214.092236 109.14601 
L 214.264875 99.261866 
L 214.437515 108.163825 
L 214.955434 90.148431 
L 215.128073 125.566856 
L 215.300713 109.646892 
L 215.473352 113.667874 
L 215.818632 102.589958 
L 215.991271 71.644281 
L 216.163911 91.353522 
L 216.336551 128.267243 
L 216.50919 117.139629 
L 216.68183 116.751997 
L 216.854469 112.28765 
L 217.027109 117.048686 
L 217.199749 109.116272 
L 217.372388 89.829443 
L 217.545028 120.604882 
L 217.717667 95.008201 
L 218.062947 133.814192 
L 218.235586 61.589646 
L 218.408226 95.837142 
L 218.580866 95.634572 
L 218.926145 103.202074 
L 219.098784 112.659705 
L 219.271424 131.156919 
L 219.616703 98.841583 
L 219.961982 118.873524 
L 220.307262 97.996612 
L 220.479901 119.578284 
L 220.82518 83.585607 
L 220.99782 104.913254 
L 221.17046 105.29749 
L 221.515739 79.856606 
L 221.688379 99.488581 
L 221.861018 89.64303 
L 222.033658 69.881932 
L 222.378937 97.586168 
L 222.551577 95.329597 
L 222.896856 112.497514 
L 223.069495 91.258477 
L 223.242135 103.099027 
L 223.587414 108.612061 
L 223.932693 127.474621 
L 224.277973 120.340977 
L 224.450612 116.991263 
L 224.795892 84.897011 
L 224.968531 110.105151 
L 225.141171 95.5121 
L 225.31381 115.296891 
L 225.48645 100.337993 
L 225.65909 123.823032 
L 225.831729 88.868282 
L 226.004369 108.807038 
L 226.177008 88.772196 
L 226.349648 84.711283 
L 226.694927 117.699824 
L 226.867567 81.584082 
L 227.212846 112.78969 
L 227.385486 115.537068 
L 227.730765 99.606687 
L 227.903405 110.521822 
L 228.076044 96.529877 
L 228.421323 108.480044 
L 228.593963 112.977036 
L 228.766603 86.984143 
L 228.939242 90.791366 
L 229.111882 98.937163 
L 229.284521 87.439433 
L 229.457161 90.82301 
L 229.629801 115.779739 
L 229.80244 114.285062 
L 229.97508 110.53492 
L 230.14772 103.165382 
L 230.320359 105.742374 
L 230.492999 91.077677 
L 230.665638 101.572325 
L 230.838278 120.164676 
L 231.183557 99.058783 
L 231.356197 117.738126 
L 231.528836 73.714819 
L 231.874116 111.972896 
L 232.046755 101.496627 
L 232.219395 116.912302 
L 232.564674 86.572327 
L 232.737314 106.084113 
L 232.909953 100.073346 
L 233.600512 108.49554 
L 233.773151 115.398448 
L 234.118431 101.267189 
L 234.29107 108.628668 
L 234.636349 88.146632 
L 234.808989 118.081775 
L 234.981629 113.234676 
L 235.154268 119.578284 
L 235.326908 120.544915 
L 235.499548 120.392568 
L 235.672187 85.463779 
L 236.190106 132.44311 
L 236.362746 115.143927 
L 236.535385 118.129636 
L 236.708025 144.280065 
L 236.880664 116.157533 
L 237.225944 123.22301 
L 237.571223 83.301975 
L 237.743862 110.076519 
L 237.916502 108.811796 
L 238.089142 109.830159 
L 238.261781 115.037558 
L 238.434421 108.457434 
L 238.607061 138.418744 
L 238.95234 85.825043 
L 239.124979 86.684664 
L 239.297619 102.202904 
L 239.470259 103.515942 
L 239.642898 107.909479 
L 239.815538 102.501171 
L 239.988177 88.300043 
L 240.333457 102.709529 
L 240.506096 139.446786 
L 240.678736 126.770502 
L 240.851375 94.718695 
L 241.024015 93.203743 
L 241.196655 116.076222 
L 241.369294 96.606468 
L 241.541934 116.804637 
L 241.714574 117.267718 
L 241.887213 120.574928 
L 242.059853 103.076528 
L 242.232492 132.213131 
L 242.577772 85.476647 
L 242.750411 105.495585 
L 242.923051 95.648743 
L 243.09569 100.804895 
L 243.26833 120.781262 
L 243.44097 119.213912 
L 243.786249 126.454715 
L 243.958889 80.924525 
L 244.131528 69.253401 
L 244.304168 84.934389 
L 244.476807 78.263938 
L 244.649447 110.802858 
L 244.994726 92.199046 
L 245.167366 94.362137 
L 245.512645 126.653604 
L 245.685285 118.421891 
L 245.857924 104.390459 
L 246.030564 113.357567 
L 246.375843 91.819692 
L 246.548483 111.65469 
L 246.721122 112.123121 
L 246.893762 109.750413 
L 247.239041 119.595069 
L 247.411681 138.097745 
L 247.58432 116.838135 
L 247.9296 102.88826 
L 248.102239 87.75669 
L 248.274879 116.852482 
L 248.447518 116.252022 
L 248.620158 130.093064 
L 248.792798 91.861929 
L 249.138077 129.72459 
L 249.483356 108.864103 
L 249.655996 102.799483 
L 249.828635 89.504697 
L 250.001275 101.517897 
L 250.173915 95.340173 
L 250.346554 122.86722 
L 250.519194 120.374574 
L 250.691833 87.219366 
L 250.864473 81.049134 
L 251.037113 94.200941 
L 251.209752 88.550765 
L 251.382392 108.449121 
L 251.555031 95.543877 
L 251.727671 101.663406 
L 251.900311 101.911886 
L 252.24559 129.885276 
L 252.41823 95.110661 
L 252.590869 134.477253 
L 252.763509 135.070273 
L 253.281428 90.62238 
L 253.454067 95.176546 
L 253.626707 118.891529 
L 253.799346 110.074158 
L 253.971986 131.183506 
L 254.144626 113.296712 
L 254.317265 108.776119 
L 254.489905 113.669066 
L 254.662544 112.129082 
L 254.835184 119.575887 
L 255.007824 108.754695 
L 255.353103 121.339385 
L 255.525743 116.516335 
L 255.698382 126.742791 
L 255.871022 104.742495 
L 256.043661 119.435621 
L 256.216301 103.003171 
L 256.388941 108.3457 
L 256.56158 141.753898 
L 256.906859 129.437077 
L 257.079499 134.87744 
L 257.424778 105.374569 
L 257.597418 97.958893 
L 257.770057 85.025566 
L 257.942697 83.577377 
L 258.115337 137.944554 
L 258.287976 104.325239 
L 258.460616 128.091061 
L 258.633256 106.911574 
L 258.805895 103.870147 
L 258.978535 86.113831 
L 259.151174 116.944608 
L 259.323814 89.393301 
L 259.496454 99.700036 
L 259.669093 98.681013 
L 259.841733 98.38479 
L 260.014372 101.248268 
L 260.187012 100.443192 
L 260.359652 121.589089 
L 260.704931 109.135284 
L 260.877571 109.103187 
L 261.05021 96.423823 
L 261.22285 108.142429 
L 261.395489 100.793063 
L 261.568129 110.702807 
L 261.740769 137.28464 
L 261.913408 124.435315 
L 262.086048 126.924779 
L 262.258687 89.327657 
L 262.431327 116.865634 
L 262.603967 77.464233 
L 262.949246 125.99565 
L 263.121885 138.553749 
L 263.294525 100.707971 
L 263.639804 126.153492 
L 263.812444 99.700036 
L 263.985084 106.829616 
L 264.157723 105.828984 
L 264.330363 107.661121 
L 264.503002 111.105433 
L 264.675642 97.186399 
L 264.848282 128.406026 
L 265.020921 103.951904 
L 265.193561 102.114173 
L 265.3662 114.3997 
L 265.53884 108.685744 
L 265.71148 128.861075 
L 265.884119 128.518231 
L 266.056759 104.880052 
L 266.229398 127.110442 
L 266.402038 124.706094 
L 266.919957 85.360983 
L 267.092597 80.670533 
L 267.437876 115.758202 
L 267.783155 92.000512 
L 267.955795 120.537696 
L 268.128434 98.717633 
L 268.301074 92.908716 
L 268.473713 93.328375 
L 268.818993 122.488697 
L 268.991632 118.860354 
L 269.164272 126.54631 
L 269.336912 92.288293 
L 269.509551 93.050943 
L 269.85483 134.713681 
L 270.02747 100.219842 
L 270.20011 113.955589 
L 270.545389 95.562757 
L 270.718028 116.391956 
L 271.063308 97.823247 
L 271.235947 108.906928 
L 271.408587 104.618009 
L 271.581226 80.64494 
L 271.753866 73.450577 
L 271.926506 81.96172 
L 272.444425 124.797563 
L 272.617064 132.996477 
L 272.962343 89.341743 
L 273.134983 116.96736 
L 273.480262 90.475707 
L 273.652902 120.964866 
L 273.998181 107.926117 
L 274.170821 103.803816 
L 274.34346 86.77123 
L 274.5161 94.169179 
L 274.688739 109.782545 
L 275.034019 92.891126 
L 275.379298 105.444575 
L 275.551938 92.595012 
L 275.724577 110.725416 
L 276.069856 100.290723 
L 276.242496 103.048109 
L 276.415136 97.099176 
L 276.587775 105.158721 
L 276.760415 91.988767 
L 276.933054 59.951357 
L 277.450973 108.493122 
L 277.968892 120.471713 
L 278.141532 101.468221 
L 278.314171 121.665915 
L 278.486811 101.804182 
L 278.83209 130.252585 
L 279.00473 110.431289 
L 279.177369 104.395159 
L 279.350009 88.841339 
L 279.522649 105.35559 
L 279.695288 88.726492 
L 279.867928 98.482737 
L 280.040567 99.279559 
L 280.213207 101.002301 
L 280.385847 113.794395 
L 280.558486 105.862178 
L 280.731126 92.166174 
L 281.076405 112.89946 
L 281.421684 121.222915 
L 281.594324 130.750606 
L 281.766964 131.421841 
L 281.939603 122.121093 
L 282.112243 124.531579 
L 282.284882 123.414165 
L 282.457522 99.945727 
L 282.630162 93.094403 
L 282.802801 99.548814 
L 282.975441 130.334781 
L 283.32072 104.689151 
L 283.49336 103.883212 
L 283.665999 101.349952 
L 283.838639 107.37717 
L 284.011279 135.511868 
L 284.183918 89.682913 
L 284.529197 134.159611 
L 284.701837 116.158768 
L 284.874477 131.834332 
L 285.047116 103.011459 
L 285.219756 145.543767 
L 285.392395 119.079653 
L 285.565035 121.862851 
L 285.737675 88.916284 
L 286.428233 119.326567 
L 286.773512 91.509695 
L 287.118792 115.142761 
L 287.291431 107.463894 
L 287.464071 106.747713 
L 287.63671 108.730911 
L 287.80935 107.78468 
L 288.154629 99.128441 
L 288.499908 133.398609 
L 288.845188 95.04121 
L 289.017827 131.860953 
L 289.190467 98.600794 
L 289.363107 105.372197 
L 289.535746 103.273143 
L 289.708386 128.357732 
L 290.053665 93.99159 
L 290.398944 117.138453 
L 290.571584 76.698631 
L 290.916863 82.312671 
L 291.089503 100.055603 
L 291.262142 102.657402 
L 291.434782 113.768116 
L 291.607421 110.425394 
L 291.780061 97.891642 
L 291.952701 122.313273 
L 292.29798 71.08898 
L 292.47062 94.3951 
L 292.643259 86.740771 
L 292.815899 112.51896 
L 292.988538 113.95915 
L 293.506457 133.218144 
L 293.851736 128.223793 
L 294.024376 97.977757 
L 294.369655 121.796802 
L 294.542295 118.359606 
L 294.714935 102.29168 
L 294.887574 122.503096 
L 295.060214 124.555685 
L 295.232853 138.512406 
L 295.578133 88.454663 
L 295.750772 107.726494 
L 295.923412 111.541448 
L 296.096051 102.562722 
L 296.268691 108.711905 
L 296.61397 103.160645 
L 296.78661 118.873524 
L 296.959249 95.101185 
L 297.131889 93.244867 
L 297.304529 110.807611 
L 297.477168 104.80299 
L 297.822448 123.688325 
L 297.995087 101.053162 
L 298.167727 120.579687 
L 298.340366 73.450577 
L 298.513006 111.168533 
L 298.685646 103.049293 
L 299.030925 122.512708 
L 299.203564 115.916027 
L 299.376204 123.515165 
L 299.548844 100.679581 
L 299.894123 118.195554 
L 300.066762 135.542231 
L 300.412042 95.129437 
L 300.584681 94.140958 
L 300.929961 110.817158 
L 301.1026 114.193119 
L 301.27524 105.482516 
L 301.447879 105.806409 
L 301.620519 110.246749 
L 301.793159 111.473526 
L 301.965798 126.528281 
L 302.311077 82.76409 
L 302.483717 88.971381 
L 302.656357 111.436587 
L 302.828996 55.315615 
L 303.001636 92.45868 
L 303.174276 82.494605 
L 303.346915 117.154028 
L 303.519555 114.303012 
L 303.864834 100.579092 
L 304.037474 95.59098 
L 304.210113 130.72042 
L 304.555392 82.758218 
L 304.728032 116.994841 
L 304.900672 108.997308 
L 305.073311 109.136493 
L 305.245951 95.958463 
L 305.41859 94.429182 
L 305.76387 120.334978 
L 305.936509 90.823029 
L 306.281789 108.835561 
L 306.454428 100.271816 
L 306.799707 118.504573 
L 306.972347 119.525536 
L 307.317626 65.901836 
L 307.490266 110.507494 
L 307.662905 101.085086 
L 307.835545 98.791966 
L 308.008185 120.705668 
L 308.180824 114.025986 
L 308.353464 122.142715 
L 308.526103 97.666355 
L 308.871383 131.202857 
L 309.044022 81.099234 
L 309.216662 104.998602 
L 309.389302 97.963581 
L 309.561941 112.809987 
L 309.90722 82.162244 
L 310.07986 106.554163 
L 310.425139 94.373883 
L 310.597779 87.26388 
L 310.770418 109.867064 
L 310.943058 103.254183 
L 311.115698 111.107775 
L 311.460977 130.159529 
L 311.978896 90.791366 
L 312.324175 116.6515 
L 312.496815 119.662208 
L 312.669454 111.193531 
L 312.842094 122.511507 
L 313.014733 120.892882 
L 313.187373 106.593369 
L 313.360013 119.193526 
L 313.532652 122.476702 
L 314.050571 96.656026 
L 314.223211 106.113834 
L 314.39585 98.131125 
L 314.56849 114.82852 
L 314.74113 104.358416 
L 314.913769 109.615964 
L 315.259048 98.087484 
L 315.431688 94.452734 
L 315.604328 98.501656 
L 315.776967 120.158656 
L 316.122246 103.357221 
L 316.294886 108.29813 
L 316.467526 96.11276 
L 316.640165 101.638559 
L 316.812805 82.666064 
L 317.158084 102.703582 
L 317.330724 105.960683 
L 317.676003 120.792062 
L 317.848643 90.514453 
L 318.021282 111.897811 
L 318.193922 116.351275 
L 318.366561 103.813287 
L 318.539201 102.252658 
L 318.711841 82.759385 
L 318.88448 109.136486 
L 319.229759 94.411571 
L 319.402399 115.507206 
L 319.575039 113.536602 
L 319.747678 117.651911 
L 319.920318 96.241195 
L 320.092958 131.037244 
L 320.265597 115.178549 
L 320.438237 113.048545 
L 320.610876 89.875194 
L 320.783516 100.517649 
L 321.128795 91.527275 
L 321.301435 102.286928 
L 321.474074 99.82523 
L 321.819354 115.049556 
L 322.164633 82.170406 
L 322.337272 92.466915 
L 322.509912 121.933707 
L 322.682552 123.404528 
L 322.855191 118.82084 
L 323.027831 110.334886 
L 323.37311 141.397911 
L 323.718389 109.082987 
L 323.891029 111.143534 
L 324.236308 97.33616 
L 324.408948 115.62794 
L 324.581587 112.242342 
L 324.754227 83.426851 
L 325.272146 118.600377 
L 325.444785 124.743395 
L 325.617425 105.35207 
L 325.790065 120.627697 
L 325.962704 99.276016 
L 326.135344 92.148506 
L 326.307984 97.800808 
L 326.480623 98.270331 
L 326.653263 93.877509 
L 326.825902 122.350515 
L 326.998542 112.924497 
L 327.171182 110.559907 
L 327.343821 128.170699 
L 327.516461 102.871725 
L 327.6891 94.484483 
L 327.86174 77.931441 
L 328.03438 86.954889 
L 328.379659 120.170664 
L 328.724938 95.130614 
L 328.897578 122.055024 
L 329.242857 76.86474 
L 329.415497 115.246692 
L 329.588136 92.485682 
L 329.760776 107.214431 
L 329.933415 110.282477 
L 330.106055 99.975264 
L 330.451334 113.095111 
L 330.623974 106.042632 
L 330.969253 72.352636 
L 331.314532 93.777524 
L 331.487172 124.843338 
L 331.659812 122.780712 
L 331.832451 123.612563 
L 332.005091 119.263015 
L 332.17773 86.274057 
L 332.35037 93.68462 
L 332.52301 110.436072 
L 332.695649 106.959089 
L 332.868289 118.217099 
L 333.213568 95.257778 
L 333.386208 110.657535 
L 333.558847 115.560984 
L 333.731487 90.412393 
L 333.904126 81.637677 
L 334.076766 100.933739 
L 334.249406 94.022179 
L 334.422045 123.641443 
L 334.594685 123.238631 
L 335.112604 96.92001 
L 335.285243 101.663427 
L 335.457883 122.625675 
L 335.630523 97.344434 
L 335.975802 121.90012 
L 336.148441 102.230134 
L 336.321081 101.407942 
L 336.493721 93.501165 
L 336.839 107.37715 
L 337.184279 100.854556 
L 337.356919 108.754695 
L 337.529558 99.103627 
L 337.702198 104.469848 
L 337.874838 99.200478 
L 338.047477 110.467021 
L 338.220117 97.33616 
L 338.392756 118.384739 
L 338.565396 113.300291 
L 338.738036 88.807308 
L 338.910675 116.267569 
L 339.083315 92.949849 
L 339.255954 87.320042 
L 339.601234 123.504343 
L 339.773873 115.074617 
L 339.946513 96.426195 
L 340.119153 110.611103 
L 340.291792 98.460315 
L 340.637071 126.342656 
L 340.809711 96.148102 
L 340.982351 133.432563 
L 341.32763 107.235834 
L 341.845549 121.12329 
L 342.190828 117.225792 
L 342.363467 88.180593 
L 342.536107 90.255184 
L 342.708747 85.689387 
L 343.054026 106.988762 
L 343.226666 71.846783 
L 343.399305 79.865966 
L 343.571945 80.466786 
L 343.917224 135.852885 
L 344.089864 109.799196 
L 344.435143 131.30574 
L 344.607782 131.36735 
L 344.953062 165.847856 
L 345.298341 137.503359 
L 345.470981 139.327518 
L 345.64362 138.078299 
L 345.81626 111.744061 
L 345.988899 138.597537 
L 346.161539 144.060202 
L 346.334179 143.80252 
L 346.506818 118.169156 
L 346.506818 118.169156 
" style="fill:none;stroke:#1f77b4;stroke-linecap:square;stroke-width:1.5;"/>
   </g>
   <g id="patch_3">
    <path d="M 26.925 228.14 
L 26.925 10.7 
" style="fill:none;stroke:#000000;stroke-linecap:square;stroke-linejoin:miter;stroke-width:0.8;"/>
   </g>
   <g id="patch_4">
    <path d="M 361.725 228.14 
L 361.725 10.7 
" style="fill:none;stroke:#000000;stroke-linecap:square;stroke-linejoin:miter;stroke-width:0.8;"/>
   </g>
   <g id="patch_5">
    <path d="M 26.925 228.14 
L 361.725 228.14 
" style="fill:none;stroke:#000000;stroke-linecap:square;stroke-linejoin:miter;stroke-width:0.8;"/>
   </g>
   <g id="patch_6">
    <path d="M 26.925 10.7 
L 361.725 10.7 
" style="fill:none;stroke:#000000;stroke-linecap:square;stroke-linejoin:miter;stroke-width:0.8;"/>
   </g>
  </g>
 </g>
 <defs>
  <clipPath id="p48e8dd7937">
   <rect height="217.44" width="334.8" x="26.925" y="10.7"/>
  </clipPath>
 </defs>
</svg>
