<?xml version="1.0" encoding="utf-8" standalone="no"?>
<!DOCTYPE svg PUBLIC "-//W3C//DTD SVG 1.1//EN"
  "http://www.w3.org/Graphics/SVG/1.1/DTD/svg11.dtd">
<!-- Created with matplotlib (http://matplotlib.org/) -->
<svg height="252.018125pt" version="1.1" viewBox="0 0 384.770022 252.018125" width="384.770022pt" xmlns="http://www.w3.org/2000/svg" xmlns:xlink="http://www.w3.org/1999/xlink">
 <defs>
  <style type="text/css">
*{stroke-linecap:butt;stroke-linejoin:round;}
  </style>
 </defs>
 <g id="figure_1">
  <g id="patch_1">
   <path d="M 0 252.018125 
L 384.770022 252.018125 
L 384.770022 0 
L 0 0 
z
" style="fill:#ffffff;"/>
  </g>
  <g id="axes_1">
   <g id="patch_2">
    <path d="M 33.2875 228.14 
L 368.0875 228.14 
L 368.0875 10.7 
L 33.2875 10.7 
z
" style="fill:#ffffff;"/>
   </g>
   <g id="matplotlib.axis_1">
    <g id="xtick_1">
     <g id="line2d_1">
      <defs>
       <path d="M 0 0 
L 0 3.5 
" id="mcc8ccd645f" style="stroke:#000000;stroke-width:0.8;"/>
      </defs>
      <g>
       <use style="stroke:#000000;stroke-width:0.8;" x="48.505682" xlink:href="#mcc8ccd645f" y="228.14"/>
      </g>
     </g>
     <g id="text_1">
      <!-- 0 -->
      <defs>
       <path d="M 31.78125 66.40625 
Q 24.171875 66.40625 20.328125 58.90625 
Q 16.5 51.421875 16.5 36.375 
Q 16.5 21.390625 20.328125 13.890625 
Q 24.171875 6.390625 31.78125 6.390625 
Q 39.453125 6.390625 43.28125 13.890625 
Q 47.125 21.390625 47.125 36.375 
Q 47.125 51.421875 43.28125 58.90625 
Q 39.453125 66.40625 31.78125 66.40625 
z
M 31.78125 74.21875 
Q 44.046875 74.21875 50.515625 64.515625 
Q 56.984375 54.828125 56.984375 36.375 
Q 56.984375 17.96875 50.515625 8.265625 
Q 44.046875 -1.421875 31.78125 -1.421875 
Q 19.53125 -1.421875 13.0625 8.265625 
Q 6.59375 17.96875 6.59375 36.375 
Q 6.59375 54.828125 13.0625 64.515625 
Q 19.53125 74.21875 31.78125 74.21875 
z
" id="DejaVuSans-30"/>
      </defs>
      <g transform="translate(45.324432 242.738437)scale(0.1 -0.1)">
       <use xlink:href="#DejaVuSans-30"/>
      </g>
     </g>
    </g>
    <g id="xtick_2">
     <g id="line2d_2">
      <g>
       <use style="stroke:#000000;stroke-width:0.8;" x="93.697016" xlink:href="#mcc8ccd645f" y="228.14"/>
      </g>
     </g>
     <g id="text_2">
      <!-- 200 -->
      <defs>
       <path d="M 19.1875 8.296875 
L 53.609375 8.296875 
L 53.609375 0 
L 7.328125 0 
L 7.328125 8.296875 
Q 12.9375 14.109375 22.625 23.890625 
Q 32.328125 33.6875 34.8125 36.53125 
Q 39.546875 41.84375 41.421875 45.53125 
Q 43.3125 49.21875 43.3125 52.78125 
Q 43.3125 58.59375 39.234375 62.25 
Q 35.15625 65.921875 28.609375 65.921875 
Q 23.96875 65.921875 18.8125 64.3125 
Q 13.671875 62.703125 7.8125 59.421875 
L 7.8125 69.390625 
Q 13.765625 71.78125 18.9375 73 
Q 24.125 74.21875 28.421875 74.21875 
Q 39.75 74.21875 46.484375 68.546875 
Q 53.21875 62.890625 53.21875 53.421875 
Q 53.21875 48.921875 51.53125 44.890625 
Q 49.859375 40.875 45.40625 35.40625 
Q 44.1875 33.984375 37.640625 27.21875 
Q 31.109375 20.453125 19.1875 8.296875 
z
" id="DejaVuSans-32"/>
      </defs>
      <g transform="translate(84.153266 242.738437)scale(0.1 -0.1)">
       <use xlink:href="#DejaVuSans-32"/>
       <use x="63.623047" xlink:href="#DejaVuSans-30"/>
       <use x="127.246094" xlink:href="#DejaVuSans-30"/>
      </g>
     </g>
    </g>
    <g id="xtick_3">
     <g id="line2d_3">
      <g>
       <use style="stroke:#000000;stroke-width:0.8;" x="138.88835" xlink:href="#mcc8ccd645f" y="228.14"/>
      </g>
     </g>
     <g id="text_3">
      <!-- 400 -->
      <defs>
       <path d="M 37.796875 64.3125 
L 12.890625 25.390625 
L 37.796875 25.390625 
z
M 35.203125 72.90625 
L 47.609375 72.90625 
L 47.609375 25.390625 
L 58.015625 25.390625 
L 58.015625 17.1875 
L 47.609375 17.1875 
L 47.609375 0 
L 37.796875 0 
L 37.796875 17.1875 
L 4.890625 17.1875 
L 4.890625 26.703125 
z
" id="DejaVuSans-34"/>
      </defs>
      <g transform="translate(129.3446 242.738437)scale(0.1 -0.1)">
       <use xlink:href="#DejaVuSans-34"/>
       <use x="63.623047" xlink:href="#DejaVuSans-30"/>
       <use x="127.246094" xlink:href="#DejaVuSans-30"/>
      </g>
     </g>
    </g>
    <g id="xtick_4">
     <g id="line2d_4">
      <g>
       <use style="stroke:#000000;stroke-width:0.8;" x="184.079685" xlink:href="#mcc8ccd645f" y="228.14"/>
      </g>
     </g>
     <g id="text_4">
      <!-- 600 -->
      <defs>
       <path d="M 33.015625 40.375 
Q 26.375 40.375 22.484375 35.828125 
Q 18.609375 31.296875 18.609375 23.390625 
Q 18.609375 15.53125 22.484375 10.953125 
Q 26.375 6.390625 33.015625 6.390625 
Q 39.65625 6.390625 43.53125 10.953125 
Q 47.40625 15.53125 47.40625 23.390625 
Q 47.40625 31.296875 43.53125 35.828125 
Q 39.65625 40.375 33.015625 40.375 
z
M 52.59375 71.296875 
L 52.59375 62.3125 
Q 48.875 64.0625 45.09375 64.984375 
Q 41.3125 65.921875 37.59375 65.921875 
Q 27.828125 65.921875 22.671875 59.328125 
Q 17.53125 52.734375 16.796875 39.40625 
Q 19.671875 43.65625 24.015625 45.921875 
Q 28.375 48.1875 33.59375 48.1875 
Q 44.578125 48.1875 50.953125 41.515625 
Q 57.328125 34.859375 57.328125 23.390625 
Q 57.328125 12.15625 50.6875 5.359375 
Q 44.046875 -1.421875 33.015625 -1.421875 
Q 20.359375 -1.421875 13.671875 8.265625 
Q 6.984375 17.96875 6.984375 36.375 
Q 6.984375 53.65625 15.1875 63.9375 
Q 23.390625 74.21875 37.203125 74.21875 
Q 40.921875 74.21875 44.703125 73.484375 
Q 48.484375 72.75 52.59375 71.296875 
z
" id="DejaVuSans-36"/>
      </defs>
      <g transform="translate(174.535935 242.738437)scale(0.1 -0.1)">
       <use xlink:href="#DejaVuSans-36"/>
       <use x="63.623047" xlink:href="#DejaVuSans-30"/>
       <use x="127.246094" xlink:href="#DejaVuSans-30"/>
      </g>
     </g>
    </g>
    <g id="xtick_5">
     <g id="line2d_5">
      <g>
       <use style="stroke:#000000;stroke-width:0.8;" x="229.271019" xlink:href="#mcc8ccd645f" y="228.14"/>
      </g>
     </g>
     <g id="text_5">
      <!-- 800 -->
      <defs>
       <path d="M 31.78125 34.625 
Q 24.75 34.625 20.71875 30.859375 
Q 16.703125 27.09375 16.703125 20.515625 
Q 16.703125 13.921875 20.71875 10.15625 
Q 24.75 6.390625 31.78125 6.390625 
Q 38.8125 6.390625 42.859375 10.171875 
Q 46.921875 13.96875 46.921875 20.515625 
Q 46.921875 27.09375 42.890625 30.859375 
Q 38.875 34.625 31.78125 34.625 
z
M 21.921875 38.8125 
Q 15.578125 40.375 12.03125 44.71875 
Q 8.5 49.078125 8.5 55.328125 
Q 8.5 64.0625 14.71875 69.140625 
Q 20.953125 74.21875 31.78125 74.21875 
Q 42.671875 74.21875 48.875 69.140625 
Q 55.078125 64.0625 55.078125 55.328125 
Q 55.078125 49.078125 51.53125 44.71875 
Q 48 40.375 41.703125 38.8125 
Q 48.828125 37.15625 52.796875 32.3125 
Q 56.78125 27.484375 56.78125 20.515625 
Q 56.78125 9.90625 50.3125 4.234375 
Q 43.84375 -1.421875 31.78125 -1.421875 
Q 19.734375 -1.421875 13.25 4.234375 
Q 6.78125 9.90625 6.78125 20.515625 
Q 6.78125 27.484375 10.78125 32.3125 
Q 14.796875 37.15625 21.921875 38.8125 
z
M 18.3125 54.390625 
Q 18.3125 48.734375 21.84375 45.5625 
Q 25.390625 42.390625 31.78125 42.390625 
Q 38.140625 42.390625 41.71875 45.5625 
Q 45.3125 48.734375 45.3125 54.390625 
Q 45.3125 60.0625 41.71875 63.234375 
Q 38.140625 66.40625 31.78125 66.40625 
Q 25.390625 66.40625 21.84375 63.234375 
Q 18.3125 60.0625 18.3125 54.390625 
z
" id="DejaVuSans-38"/>
      </defs>
      <g transform="translate(219.727269 242.738437)scale(0.1 -0.1)">
       <use xlink:href="#DejaVuSans-38"/>
       <use x="63.623047" xlink:href="#DejaVuSans-30"/>
       <use x="127.246094" xlink:href="#DejaVuSans-30"/>
      </g>
     </g>
    </g>
    <g id="xtick_6">
     <g id="line2d_6">
      <g>
       <use style="stroke:#000000;stroke-width:0.8;" x="274.462353" xlink:href="#mcc8ccd645f" y="228.14"/>
      </g>
     </g>
     <g id="text_6">
      <!-- 1000 -->
      <defs>
       <path d="M 12.40625 8.296875 
L 28.515625 8.296875 
L 28.515625 63.921875 
L 10.984375 60.40625 
L 10.984375 69.390625 
L 28.421875 72.90625 
L 38.28125 72.90625 
L 38.28125 8.296875 
L 54.390625 8.296875 
L 54.390625 0 
L 12.40625 0 
z
" id="DejaVuSans-31"/>
      </defs>
      <g transform="translate(261.737353 242.738437)scale(0.1 -0.1)">
       <use xlink:href="#DejaVuSans-31"/>
       <use x="63.623047" xlink:href="#DejaVuSans-30"/>
       <use x="127.246094" xlink:href="#DejaVuSans-30"/>
       <use x="190.869141" xlink:href="#DejaVuSans-30"/>
      </g>
     </g>
    </g>
    <g id="xtick_7">
     <g id="line2d_7">
      <g>
       <use style="stroke:#000000;stroke-width:0.8;" x="319.653687" xlink:href="#mcc8ccd645f" y="228.14"/>
      </g>
     </g>
     <g id="text_7">
      <!-- 1200 -->
      <g transform="translate(306.928687 242.738437)scale(0.1 -0.1)">
       <use xlink:href="#DejaVuSans-31"/>
       <use x="63.623047" xlink:href="#DejaVuSans-32"/>
       <use x="127.246094" xlink:href="#DejaVuSans-30"/>
       <use x="190.869141" xlink:href="#DejaVuSans-30"/>
      </g>
     </g>
    </g>
    <g id="xtick_8">
     <g id="line2d_8">
      <g>
       <use style="stroke:#000000;stroke-width:0.8;" x="364.845022" xlink:href="#mcc8ccd645f" y="228.14"/>
      </g>
     </g>
     <g id="text_8">
      <!-- 1400 -->
      <g transform="translate(352.120022 242.738437)scale(0.1 -0.1)">
       <use xlink:href="#DejaVuSans-31"/>
       <use x="63.623047" xlink:href="#DejaVuSans-34"/>
       <use x="127.246094" xlink:href="#DejaVuSans-30"/>
       <use x="190.869141" xlink:href="#DejaVuSans-30"/>
      </g>
     </g>
    </g>
   </g>
   <g id="matplotlib.axis_2">
    <g id="ytick_1">
     <g id="line2d_9">
      <defs>
       <path d="M 0 0 
L -3.5 0 
" id="m13361d1c9a" style="stroke:#000000;stroke-width:0.8;"/>
      </defs>
      <g>
       <use style="stroke:#000000;stroke-width:0.8;" x="33.2875" xlink:href="#m13361d1c9a" y="208.338094"/>
      </g>
     </g>
     <g id="text_9">
      <!-- 125 -->
      <defs>
       <path d="M 10.796875 72.90625 
L 49.515625 72.90625 
L 49.515625 64.59375 
L 19.828125 64.59375 
L 19.828125 46.734375 
Q 21.96875 47.46875 24.109375 47.828125 
Q 26.265625 48.1875 28.421875 48.1875 
Q 40.625 48.1875 47.75 41.5 
Q 54.890625 34.8125 54.890625 23.390625 
Q 54.890625 11.625 47.5625 5.09375 
Q 40.234375 -1.421875 26.90625 -1.421875 
Q 22.3125 -1.421875 17.546875 -0.640625 
Q 12.796875 0.140625 7.71875 1.703125 
L 7.71875 11.625 
Q 12.109375 9.234375 16.796875 8.0625 
Q 21.484375 6.890625 26.703125 6.890625 
Q 35.15625 6.890625 40.078125 11.328125 
Q 45.015625 15.765625 45.015625 23.390625 
Q 45.015625 31 40.078125 35.4375 
Q 35.15625 39.890625 26.703125 39.890625 
Q 22.75 39.890625 18.8125 39.015625 
Q 14.890625 38.140625 10.796875 36.28125 
z
" id="DejaVuSans-35"/>
      </defs>
      <g transform="translate(7.2 212.137312)scale(0.1 -0.1)">
       <use xlink:href="#DejaVuSans-31"/>
       <use x="63.623047" xlink:href="#DejaVuSans-32"/>
       <use x="127.246094" xlink:href="#DejaVuSans-35"/>
      </g>
     </g>
    </g>
    <g id="ytick_2">
     <g id="line2d_10">
      <g>
       <use style="stroke:#000000;stroke-width:0.8;" x="33.2875" xlink:href="#m13361d1c9a" y="182.444421"/>
      </g>
     </g>
     <g id="text_10">
      <!-- 130 -->
      <defs>
       <path d="M 40.578125 39.3125 
Q 47.65625 37.796875 51.625 33 
Q 55.609375 28.21875 55.609375 21.1875 
Q 55.609375 10.40625 48.1875 4.484375 
Q 40.765625 -1.421875 27.09375 -1.421875 
Q 22.515625 -1.421875 17.65625 -0.515625 
Q 12.796875 0.390625 7.625 2.203125 
L 7.625 11.71875 
Q 11.71875 9.328125 16.59375 8.109375 
Q 21.484375 6.890625 26.8125 6.890625 
Q 36.078125 6.890625 40.9375 10.546875 
Q 45.796875 14.203125 45.796875 21.1875 
Q 45.796875 27.640625 41.28125 31.265625 
Q 36.765625 34.90625 28.71875 34.90625 
L 20.21875 34.90625 
L 20.21875 43.015625 
L 29.109375 43.015625 
Q 36.375 43.015625 40.234375 45.921875 
Q 44.09375 48.828125 44.09375 54.296875 
Q 44.09375 59.90625 40.109375 62.90625 
Q 36.140625 65.921875 28.71875 65.921875 
Q 24.65625 65.921875 20.015625 65.03125 
Q 15.375 64.15625 9.8125 62.3125 
L 9.8125 71.09375 
Q 15.4375 72.65625 20.34375 73.4375 
Q 25.25 74.21875 29.59375 74.21875 
Q 40.828125 74.21875 47.359375 69.109375 
Q 53.90625 64.015625 53.90625 55.328125 
Q 53.90625 49.265625 50.4375 45.09375 
Q 46.96875 40.921875 40.578125 39.3125 
z
" id="DejaVuSans-33"/>
      </defs>
      <g transform="translate(7.2 186.24364)scale(0.1 -0.1)">
       <use xlink:href="#DejaVuSans-31"/>
       <use x="63.623047" xlink:href="#DejaVuSans-33"/>
       <use x="127.246094" xlink:href="#DejaVuSans-30"/>
      </g>
     </g>
    </g>
    <g id="ytick_3">
     <g id="line2d_11">
      <g>
       <use style="stroke:#000000;stroke-width:0.8;" x="33.2875" xlink:href="#m13361d1c9a" y="156.550749"/>
      </g>
     </g>
     <g id="text_11">
      <!-- 135 -->
      <g transform="translate(7.2 160.349967)scale(0.1 -0.1)">
       <use xlink:href="#DejaVuSans-31"/>
       <use x="63.623047" xlink:href="#DejaVuSans-33"/>
       <use x="127.246094" xlink:href="#DejaVuSans-35"/>
      </g>
     </g>
    </g>
    <g id="ytick_4">
     <g id="line2d_12">
      <g>
       <use style="stroke:#000000;stroke-width:0.8;" x="33.2875" xlink:href="#m13361d1c9a" y="130.657076"/>
      </g>
     </g>
     <g id="text_12">
      <!-- 140 -->
      <g transform="translate(7.2 134.456295)scale(0.1 -0.1)">
       <use xlink:href="#DejaVuSans-31"/>
       <use x="63.623047" xlink:href="#DejaVuSans-34"/>
       <use x="127.246094" xlink:href="#DejaVuSans-30"/>
      </g>
     </g>
    </g>
    <g id="ytick_5">
     <g id="line2d_13">
      <g>
       <use style="stroke:#000000;stroke-width:0.8;" x="33.2875" xlink:href="#m13361d1c9a" y="104.763404"/>
      </g>
     </g>
     <g id="text_13">
      <!-- 145 -->
      <g transform="translate(7.2 108.562623)scale(0.1 -0.1)">
       <use xlink:href="#DejaVuSans-31"/>
       <use x="63.623047" xlink:href="#DejaVuSans-34"/>
       <use x="127.246094" xlink:href="#DejaVuSans-35"/>
      </g>
     </g>
    </g>
    <g id="ytick_6">
     <g id="line2d_14">
      <g>
       <use style="stroke:#000000;stroke-width:0.8;" x="33.2875" xlink:href="#m13361d1c9a" y="78.869731"/>
      </g>
     </g>
     <g id="text_14">
      <!-- 150 -->
      <g transform="translate(7.2 82.66895)scale(0.1 -0.1)">
       <use xlink:href="#DejaVuSans-31"/>
       <use x="63.623047" xlink:href="#DejaVuSans-35"/>
       <use x="127.246094" xlink:href="#DejaVuSans-30"/>
      </g>
     </g>
    </g>
    <g id="ytick_7">
     <g id="line2d_15">
      <g>
       <use style="stroke:#000000;stroke-width:0.8;" x="33.2875" xlink:href="#m13361d1c9a" y="52.976059"/>
      </g>
     </g>
     <g id="text_15">
      <!-- 155 -->
      <g transform="translate(7.2 56.775278)scale(0.1 -0.1)">
       <use xlink:href="#DejaVuSans-31"/>
       <use x="63.623047" xlink:href="#DejaVuSans-35"/>
       <use x="127.246094" xlink:href="#DejaVuSans-35"/>
      </g>
     </g>
    </g>
    <g id="ytick_8">
     <g id="line2d_16">
      <g>
       <use style="stroke:#000000;stroke-width:0.8;" x="33.2875" xlink:href="#m13361d1c9a" y="27.082386"/>
      </g>
     </g>
     <g id="text_16">
      <!-- 160 -->
      <g transform="translate(7.2 30.881605)scale(0.1 -0.1)">
       <use xlink:href="#DejaVuSans-31"/>
       <use x="63.623047" xlink:href="#DejaVuSans-36"/>
       <use x="127.246094" xlink:href="#DejaVuSans-30"/>
      </g>
     </g>
    </g>
   </g>
   <g id="line2d_17">
    <path clip-path="url(#p0bc8681498)" d="M 48.505682 76.524198 
L 48.731638 76.510947 
L 48.957595 76.32284 
L 49.183552 75.548459 
L 49.409509 75.381207 
L 49.635465 87.221818 
L 49.861422 87.503011 
L 50.087379 83.547076 
L 50.313335 82.031049 
L 50.539292 82.7493 
L 50.765249 82.828756 
L 50.991205 84.003617 
L 51.669075 82.19573 
L 51.895032 82.523809 
L 52.120989 83.470853 
L 52.346945 83.834047 
L 52.572902 83.632527 
L 52.798859 83.822581 
L 53.024815 84.796443 
L 53.250772 84.299276 
L 53.476729 82.631697 
L 53.702685 83.444285 
L 53.928642 83.813199 
L 54.154599 84.642337 
L 55.284382 93.89211 
L 55.510339 107.214252 
L 55.962252 112.185654 
L 56.414165 124.610226 
L 56.866079 127.78579 
L 57.092035 128.342547 
L 57.543949 131.985878 
L 57.995862 138.765335 
L 58.447775 154.887476 
L 58.899689 163.198452 
L 59.125645 166.346745 
L 59.351602 163.241853 
L 59.577559 143.248081 
L 60.029472 84.079052 
L 60.255429 70.359354 
L 60.481385 70.01041 
L 60.707342 60.088233 
L 60.933299 64.540936 
L 61.159255 62.927442 
L 61.385212 60.211269 
L 61.611169 62.266344 
L 61.837125 72.186496 
L 62.063082 72.959093 
L 62.289039 81.338213 
L 62.514995 73.350509 
L 62.966909 70.853671 
L 63.644779 68.759973 
L 63.870735 64.915467 
L 64.096692 65.734955 
L 64.322649 67.414407 
L 64.548605 70.265786 
L 64.774562 62.363158 
L 65.000519 62.797896 
L 65.226476 66.509244 
L 65.452432 51.010879 
L 65.678389 45.880793 
L 65.904346 45.432179 
L 66.130302 46.105219 
L 66.356259 45.983981 
L 66.582216 45.691872 
L 66.808172 44.635007 
L 67.034129 41.325904 
L 67.260086 39.960833 
L 67.486042 39.780006 
L 67.711999 40.112726 
L 67.937956 43.683732 
L 68.163912 43.239597 
L 68.389869 43.493673 
L 68.615826 44.10081 
L 68.841782 43.891822 
L 69.067739 44.537811 
L 69.293696 43.073588 
L 69.519652 213.709807 
L 69.745609 194.856135 
L 70.197522 193.618448 
L 70.649436 194.508619 
L 70.875392 195.871515 
L 71.101349 195.084853 
L 71.779219 183.545205 
L 72.909002 168.685688 
L 73.134959 169.691277 
L 73.360916 172.297076 
L 73.586872 173.469149 
L 73.812829 173.824625 
L 74.038786 172.49961 
L 74.264742 172.811574 
L 74.490699 176.18297 
L 74.716656 177.079713 
L 74.942612 177.165677 
L 75.168569 177.624537 
L 75.394526 177.678332 
L 75.846439 178.47705 
L 76.072396 178.143675 
L 76.298352 177.542272 
L 76.524309 179.320923 
L 76.976222 179.770731 
L 77.202179 179.687411 
L 77.428136 179.772517 
L 77.654092 178.915003 
L 78.106006 179.088401 
L 78.331962 178.811977 
L 78.557919 177.806487 
L 78.783876 178.899152 
L 79.009832 178.597256 
L 79.235789 180.030876 
L 79.461746 179.948698 
L 79.687702 180.804163 
L 80.139616 181.26192 
L 80.817486 178.620214 
L 81.043442 178.645562 
L 81.269399 177.766726 
L 81.495356 174.320989 
L 81.721313 173.963071 
L 81.947269 174.220822 
L 82.173226 172.876773 
L 82.625139 171.398942 
L 82.851096 171.398942 
L 83.077053 171.803713 
L 83.303009 171.098411 
L 83.528966 171.442056 
L 83.754923 171.098411 
L 84.206836 169.381106 
L 84.432793 171.158529 
L 84.658749 171.562806 
L 84.884706 175.234985 
L 85.110663 175.558063 
L 85.336619 176.226174 
L 85.562576 176.226174 
L 86.014489 178.390523 
L 86.466403 176.468767 
L 86.918316 160.63622 
L 87.144273 153.479027 
L 87.370229 139.439732 
L 87.822143 136.840031 
L 88.274056 135.600384 
L 88.500013 135.551595 
L 88.725969 135.733175 
L 89.403839 131.248042 
L 89.629796 126.090277 
L 90.307666 122.31021 
L 90.759579 120.880073 
L 91.211493 115.781365 
L 91.437449 114.343927 
L 91.663406 114.600828 
L 92.567233 119.029523 
L 93.019146 122.982307 
L 93.697016 171.183021 
L 93.922973 173.272203 
L 94.148929 177.436686 
L 94.600843 201.460566 
L 95.278713 206.448955 
L 95.504669 206.432431 
L 95.730626 207.372255 
L 95.956583 209.134866 
L 96.182539 209.432544 
L 96.860409 218.239534 
L 97.086366 218.256364 
L 97.53828 217.322362 
L 97.764236 215.961736 
L 97.990193 208.162041 
L 98.21615 194.218437 
L 98.442106 193.895992 
L 98.668063 197.456216 
L 98.89402 196.764135 
L 99.57189 189.646714 
L 99.797846 183.637763 
L 100.023803 170.257016 
L 100.24976 166.672862 
L 100.475716 161.22725 
L 100.701673 160.826111 
L 101.379543 182.477669 
L 101.831456 157.037719 
L 102.057413 151.923406 
L 102.28337 151.940742 
L 102.735283 157.185912 
L 102.96124 156.620553 
L 103.187196 149.773545 
L 103.63911 145.130922 
L 104.091023 143.085851 
L 104.542936 148.675855 
L 104.768893 148.63413 
L 104.99485 150.166515 
L 105.446763 137.179624 
L 105.67272 133.92055 
L 106.124633 133.105945 
L 106.35059 132.425181 
L 106.576546 132.152111 
L 106.802503 126.888981 
L 107.02846 125.182903 
L 107.254416 125.182903 
L 107.932286 129.683187 
L 108.3842 128.929049 
L 108.610156 128.262148 
L 108.836113 128.631691 
L 109.06207 126.86543 
L 109.288026 126.19674 
L 109.513983 124.896425 
L 109.73994 124.584914 
L 109.965896 118.528388 
L 110.41781 115.288567 
L 110.643766 111.023067 
L 110.869723 110.668594 
L 111.09568 110.673094 
L 111.547593 109.340174 
L 111.77355 108.873694 
L 112.225463 102.842905 
L 112.677376 98.654134 
L 112.903333 97.924154 
L 113.12929 96.792229 
L 113.355247 96.383276 
L 113.581203 93.033574 
L 114.033117 89.567198 
L 114.48503 93.391121 
L 114.936943 94.044918 
L 115.1629 95.5034 
L 115.388857 95.82646 
L 116.066727 92.665474 
L 116.292683 92.990849 
L 116.744597 97.117955 
L 116.970553 97.282927 
L 117.19651 94.04351 
L 117.422467 93.393056 
L 117.648423 93.393056 
L 117.87438 92.990145 
L 118.100337 94.693109 
L 118.326293 94.28951 
L 118.55225 94.28863 
L 118.778207 92.414902 
L 119.004163 92.739626 
L 119.23012 92.260995 
L 119.456077 94.774332 
L 119.682033 95.579789 
L 119.90799 103.059212 
L 120.359903 107.818823 
L 120.58586 109.175596 
L 120.811817 108.545009 
L 121.489687 100.008095 
L 121.715643 100.647924 
L 122.167557 102.650239 
L 122.61947 103.782407 
L 122.845427 106.644927 
L 123.071383 106.23525 
L 123.29734 106.143108 
L 123.523297 106.776149 
L 123.749253 106.365663 
L 123.97521 106.870355 
L 124.427123 105.860132 
L 124.65308 107.118226 
L 124.879037 107.118226 
L 125.33095 104.913245 
L 125.782863 102.380308 
L 126.00882 102.332975 
L 126.234777 101.782263 
L 126.460733 96.473523 
L 126.68669 96.795919 
L 126.912647 97.355955 
L 127.138603 98.64014 
L 127.36456 99.193689 
L 127.590517 101.19799 
L 127.816473 101.605266 
L 128.04243 100.239744 
L 128.268387 100.32653 
L 128.494343 98.959046 
L 128.946257 101.285257 
L 129.172214 104.149508 
L 129.39817 108.443071 
L 129.624127 106.047736 
L 129.850084 102.153571 
L 130.07604 102.562076 
L 130.301997 103.288912 
L 130.75391 103.833751 
L 131.205824 105.8283 
L 131.43178 106.460912 
L 131.883694 99.68628 
L 132.10965 99.279328 
L 132.335607 99.19298 
L 132.78752 99.832651 
L 133.013477 101.970636 
L 133.917304 104.597881 
L 134.595174 104.78444 
L 135.047087 108.13429 
L 135.273044 109.393897 
L 135.724957 110.531092 
L 136.17687 112.709083 
L 136.402827 112.611627 
L 136.628784 111.37558 
L 136.85474 107.648143 
L 137.306654 107.020438 
L 137.53261 105.665581 
L 137.758567 106.077094 
L 137.984524 104.721602 
L 138.21048 105.22892 
L 138.436437 105.32363 
L 138.662394 103.870157 
L 138.88835 100.286962 
L 139.340264 97.558793 
L 139.56622 100.877443 
L 139.792177 101.197279 
L 140.018134 101.107723 
L 140.24409 103.965394 
L 140.470047 104.597881 
L 140.92196 102.605543 
L 141.147917 103.015205 
L 141.59983 107.529821 
L 141.825787 105.955085 
L 142.051744 106.3662 
L 142.503657 103.555571 
L 142.729614 100.789847 
L 143.181527 101.83527 
L 143.407484 103.515987 
L 143.63344 104.150935 
L 144.085354 102.788779 
L 144.31131 101.65314 
L 144.537267 103.515987 
L 144.763224 103.198164 
L 144.989181 103.197629 
L 145.215137 102.879615 
L 145.441094 102.879615 
L 145.667051 102.697787 
L 145.893007 102.921854 
L 146.118964 102.734437 
L 146.344921 105.352761 
L 146.570877 105.255524 
L 146.796834 105.66719 
L 147.022791 106.804635 
L 147.248747 106.804635 
L 147.474704 105.860311 
L 147.700661 105.544891 
L 147.926617 105.544891 
L 148.152574 104.913781 
L 148.378531 107.407965 
L 148.604487 106.996596 
L 148.830444 106.271036 
L 149.056401 103.555571 
L 149.508314 101.244573 
L 149.734271 102.288476 
L 149.960227 102.605009 
L 150.186184 102.605009 
L 150.638097 98.608414 
L 150.864054 97.561623 
L 151.090011 97.152432 
L 151.315967 97.152432 
L 151.541924 100.06137 
L 151.767881 100.607807 
L 151.993837 104.911102 
L 152.219794 104.911102 
L 152.897664 103.329371 
L 153.123621 104.690369 
L 153.575534 105.321486 
L 154.027447 104.689119 
L 154.253404 110.312453 
L 154.479361 109.997308 
L 154.931274 108.545009 
L 155.157231 108.639781 
L 155.383187 108.860423 
L 155.609144 109.586529 
L 155.835101 109.681788 
L 156.061057 110.407995 
L 156.287014 107.092446 
L 156.512971 105.639478 
L 156.964884 104.912352 
L 157.190841 105.321486 
L 157.416797 105.415473 
L 157.642754 104.689119 
L 157.868711 105.099005 
L 158.094667 102.786642 
L 158.772537 103.18961 
L 159.224451 102.180977 
L 159.450407 101.453807 
L 159.676364 101.685863 
L 159.902321 102.326567 
L 160.354234 105.097397 
L 160.580191 105.413864 
L 160.806147 106.363516 
L 161.258061 106.364768 
L 161.484018 107.091013 
L 161.709974 108.858807 
L 161.935931 108.954876 
L 162.161888 107.502414 
L 162.387844 107.818106 
L 162.613801 109.175417 
L 162.839758 108.038506 
L 163.065714 108.764531 
L 163.291671 107.723438 
L 163.517628 108.667784 
L 163.743584 108.352614 
L 163.969541 105.858701 
L 164.195498 106.173701 
L 164.421454 103.868908 
L 164.647411 102.827624 
L 164.873368 104.187 
L 165.099324 99.331628 
L 165.325281 100.147623 
L 165.551238 102.058369 
L 166.003151 102.877478 
L 166.455064 105.194597 
L 166.681021 105.828121 
L 167.132934 105.640014 
L 167.584848 103.77563 
L 167.810804 103.143833 
L 168.488674 104.281936 
L 168.940588 103.238476 
L 169.166544 101.55923 
L 169.392501 101.241907 
L 169.618458 100.197655 
L 169.844414 101.555674 
L 170.070371 101.872805 
L 170.296328 102.599311 
L 170.522284 98.372347 
L 171.200154 101.599575 
L 171.426111 103.60068 
L 171.652068 104.238392 
L 171.878024 103.920636 
L 172.103981 103.286061 
L 172.329938 103.513313 
L 172.555894 104.465397 
L 172.781851 110.549268 
L 173.233764 111.487634 
L 173.459721 111.173824 
L 173.685678 111.587843 
L 173.911634 110.961679 
L 174.137591 112.314267 
L 174.363548 112.726034 
L 174.589504 112.726034 
L 175.041418 109.172722 
L 175.493331 113.237556 
L 175.945244 115.52875 
L 176.171201 112.937254 
L 176.397158 113.56147 
L 176.623114 113.350269 
L 177.075028 109.919646 
L 177.300985 109.701761 
L 177.526941 110.741659 
L 177.752898 110.427623 
L 177.978855 109.796501 
L 178.204811 106.670508 
L 178.430768 105.215161 
L 178.656725 105.53059 
L 178.882681 106.88683 
L 179.108638 107.198142 
L 179.786508 109.183855 
L 180.464378 109.287711 
L 180.690335 108.559167 
L 180.916291 109.285016 
L 181.142248 108.967806 
L 181.368205 109.382398 
L 181.594161 111.053157 
L 182.046075 111.369094 
L 182.272031 110.329729 
L 182.497988 108.032049 
L 182.723945 108.443071 
L 182.949901 111.6657 
L 183.175858 111.469451 
L 183.401815 107.81434 
L 183.853728 107.815954 
L 184.079685 107.595783 
L 184.305641 107.596679 
L 184.757555 105.952939 
L 185.435425 101.878497 
L 185.661381 101.74331 
L 185.887338 112.431186 
L 186.339251 116.301515 
L 186.565208 122.250603 
L 187.243078 129.411165 
L 187.469035 134.044112 
L 187.694991 20.583636 
L 187.920948 117.907058 
L 188.146905 112.164033 
L 188.372861 113.249276 
L 188.824775 106.974586 
L 189.050731 98.051383 
L 189.276688 97.020027 
L 189.502645 93.99701 
L 189.728601 94.10443 
L 189.954558 95.491601 
L 190.406471 103.443609 
L 190.858385 118.960721 
L 191.084341 120.271526 
L 191.310298 122.949548 
L 191.536255 144.647355 
L 191.988168 150.346724 
L 192.214125 150.969048 
L 192.440081 152.536654 
L 192.666038 183.208903 
L 193.117952 187.320529 
L 193.795822 146.491403 
L 194.021778 139.012279 
L 194.247735 138.601501 
L 194.473692 144.424509 
L 194.699648 145.775135 
L 194.925605 146.187799 
L 195.151562 147.849158 
L 195.377518 148.262294 
L 195.603475 149.817428 
L 195.829432 150.128312 
L 196.281345 146.705668 
L 196.507302 145.661619 
L 196.733258 140.755468 
L 196.959215 140.117274 
L 197.185172 142.706391 
L 197.411128 142.706391 
L 197.863042 139.29768 
L 198.540912 101.028823 
L 198.766868 96.482727 
L 198.992825 79.68391 
L 199.218782 82.593362 
L 199.444738 76.289291 
L 199.896652 49.88546 
L 200.122608 51.066875 
L 200.348565 54.346085 
L 200.800478 73.873303 
L 201.026435 73.525691 
L 201.252392 74.60997 
L 201.478348 76.358651 
L 201.704305 79.901142 
L 201.930262 87.798606 
L 202.156218 89.750676 
L 202.608132 89.252745 
L 202.834088 88.228131 
L 203.060045 86.464356 
L 203.286002 82.816459 
L 203.511958 66.37196 
L 203.737915 67.979067 
L 203.963872 68.392002 
L 204.189828 69.309557 
L 204.415785 71.45841 
L 204.641742 72.381105 
L 204.867698 71.664464 
L 205.093655 72.381105 
L 205.319612 72.619459 
L 205.545568 73.995586 
L 205.771525 73.88205 
L 206.223438 73.27955 
L 206.675352 72.547538 
L 206.901308 74.378238 
L 207.127265 74.969578 
L 207.353222 77.297484 
L 208.483005 82.802043 
L 208.708962 82.755719 
L 208.934919 81.849941 
L 209.160875 81.80194 
L 209.386832 80.563124 
L 209.612789 80.514166 
L 209.838745 80.304855 
L 210.064702 81.153458 
L 210.290659 81.284343 
L 210.516615 80.061373 
L 210.742572 78.202824 
L 210.968529 78.689345 
L 211.194485 78.170895 
L 211.420442 78.830892 
L 211.646399 83.163896 
L 211.872355 85.35973 
L 212.098312 90.392952 
L 212.324269 90.097743 
L 212.776182 93.355587 
L 213.002139 93.002263 
L 213.228095 91.965449 
L 213.680009 93.234047 
L 213.905965 93.267465 
L 214.131922 93.138025 
L 214.357879 93.971129 
L 214.583835 93.304562 
L 214.809792 89.740872 
L 215.261705 87.782365 
L 215.487662 87.5702 
L 215.939575 86.250136 
L 216.165532 85.250417 
L 216.391489 85.250417 
L 216.617445 85.966439 
L 216.843402 87.499505 
L 217.069359 86.699736 
L 217.521272 89.229125 
L 217.747229 84.823406 
L 218.199142 81.0025 
L 218.651055 79.399682 
L 219.102969 80.824228 
L 219.328925 82.894193 
L 219.554882 86.930653 
L 219.780839 87.123427 
L 220.006795 86.98159 
L 220.232752 86.074482 
L 220.458709 87.882245 
L 221.136579 89.669444 
L 221.362535 89.796198 
L 221.588492 86.84501 
L 221.814449 86.415894 
L 222.040405 86.415894 
L 222.492319 84.964999 
L 222.718275 83.094292 
L 223.396145 73.994385 
L 223.622102 80.576085 
L 224.074015 82.076636 
L 224.299972 78.959826 
L 224.525929 79.676479 
L 224.751886 78.469691 
L 224.977842 74.407259 
L 225.429756 76.075306 
L 225.655712 75.943905 
L 225.881669 77.186395 
L 226.107626 77.14469 
L 226.333582 75.413 
L 226.785496 75.074167 
L 227.237409 73.310209 
L 227.463366 76.155809 
L 227.689322 76.6211 
L 227.915279 78.636875 
L 228.141236 72.638124 
L 228.367192 70.099339 
L 228.593149 70.169669 
L 228.819106 68.048017 
L 229.271019 67.027842 
L 229.496976 67.144493 
L 229.722932 63.842595 
L 229.948889 55.105673 
L 230.174846 55.910917 
L 230.400802 55.996936 
L 231.078672 59.880249 
L 231.304629 60.174683 
L 231.530586 60.807231 
L 231.982499 59.958798 
L 232.208456 60.762864 
L 232.434412 62.208191 
L 232.660369 62.759844 
L 232.886326 62.843885 
L 233.112282 73.608518 
L 233.338239 74.210737 
L 233.564196 75.824906 
L 233.790152 76.164066 
L 234.016109 75.534192 
L 234.242066 76.422627 
L 234.919936 77.271664 
L 235.145892 78.914427 
L 235.597806 76.881721 
L 235.823762 76.479796 
L 236.049719 76.428327 
L 236.501632 75.061304 
L 236.727589 74.818441 
L 236.953546 74.993781 
L 237.405459 77.333167 
L 237.631416 78.651219 
L 238.083329 79.543777 
L 238.309286 80.734415 
L 238.535242 81.205226 
L 238.761199 82.602729 
L 238.987156 82.442644 
L 239.213112 82.815229 
L 239.439069 83.423412 
L 239.665026 81.331286 
L 239.890982 81.375793 
L 240.568853 82.223989 
L 240.794809 83.136975 
L 241.246723 82.139373 
L 242.376506 78.40275 
L 242.602463 78.227316 
L 242.828419 78.823987 
L 243.054376 78.461927 
L 243.280333 78.816717 
L 243.506289 78.931706 
L 244.184159 74.266528 
L 244.410116 74.440709 
L 244.636073 74.862556 
L 244.862029 73.954758 
L 245.087986 72.570141 
L 245.313943 73.763879 
L 245.539899 73.348431 
L 245.991813 75.26608 
L 246.217769 75.455644 
L 246.669683 79.128711 
L 246.895639 79.605459 
L 247.121596 79.543777 
L 247.347553 79.718472 
L 247.573509 79.592673 
L 247.799466 79.990334 
L 248.025423 79.67285 
L 248.251379 80.84982 
L 248.477336 80.592708 
L 248.929249 85.639178 
L 249.155206 85.372069 
L 249.607119 83.283852 
L 249.833076 76.49735 
L 250.284989 73.521399 
L 250.736903 71.743337 
L 250.962859 72.422207 
L 251.188816 72.238512 
L 251.640729 72.247085 
L 251.866686 71.80182 
L 252.092643 71.968478 
L 252.544556 74.165973 
L 252.996469 74.04896 
L 253.222426 73.631646 
L 253.448383 74.771904 
L 253.900296 72.356982 
L 254.126253 72.02426 
L 254.352209 72.079704 
L 254.578166 71.185533 
L 254.804123 71.877969 
L 255.030079 74.014462 
L 255.256036 74.318698 
L 255.481993 75.458909 
L 255.707949 75.678913 
L 255.933906 73.351366 
L 256.159863 74.103003 
L 256.385819 75.747188 
L 256.837733 75.408188 
L 257.06369 74.594196 
L 257.289646 76.440711 
L 257.515603 76.885875 
L 257.74156 77.052912 
L 257.967516 77.481 
L 258.193473 78.653981 
L 258.645386 77.220157 
L 258.871343 73.537879 
L 259.0973 72.980701 
L 259.323256 72.726838 
L 259.549213 73.862991 
L 260.001126 74.734814 
L 260.227083 75.209895 
L 260.45304 74.969062 
L 260.678996 74.500959 
L 260.904953 73.617949 
L 261.13091 73.869014 
L 261.356866 76.275031 
L 261.582823 77.244927 
L 262.034736 81.032966 
L 262.260693 82.120492 
L 262.48665 83.95793 
L 262.712606 83.53806 
L 262.938563 83.600062 
L 263.16452 82.709413 
L 263.390476 82.418191 
L 263.616433 79.963905 
L 264.068346 78.691086 
L 264.52026 77.294576 
L 264.746216 79.262881 
L 265.19813 78.978838 
L 265.424086 78.504868 
L 265.650043 79.223692 
L 265.876 79.223692 
L 266.327913 77.067191 
L 266.55387 78.259571 
L 266.779826 76.76501 
L 267.005783 76.405627 
L 267.457696 77.779854 
L 267.683653 77.885359 
L 267.90961 77.572161 
L 268.361523 78.313044 
L 268.58748 77.639705 
L 268.813436 75.464237 
L 269.26535 76.732129 
L 269.491306 76.732129 
L 269.717263 77.655921 
L 269.94322 76.950943 
L 270.169176 77.682099 
L 270.395133 77.38761 
L 270.62109 76.676698 
L 270.847046 77.395881 
L 271.073003 77.336785 
L 271.29896 77.521323 
L 271.524916 78.896468 
L 271.750873 79.137497 
L 271.97683 78.128145 
L 272.202786 79.738691 
L 272.428743 79.081377 
L 272.6547 79.339066 
L 272.880657 79.943162 
L 273.106613 80.004876 
L 273.558527 79.117969 
L 273.784483 77.132137 
L 274.236397 75.688389 
L 274.68831 76.222197 
L 274.914267 75.878005 
L 275.140223 76.848167 
L 275.36618 76.874661 
L 275.818093 79.314194 
L 276.04405 70.759858 
L 276.270007 71.318722 
L 276.495963 74.133164 
L 276.947877 73.185119 
L 277.39979 74.431804 
L 277.625747 74.388379 
L 277.851703 74.140407 
L 278.07766 74.898987 
L 278.303617 79.415935 
L 278.529573 75.534707 
L 278.75553 77.564234 
L 279.207443 65.721019 
L 279.4334 64.705202 
L 280.11127 66.967297 
L 280.337227 63.399683 
L 280.563183 64.032627 
L 280.78914 61.438749 
L 281.241053 59.331638 
L 281.46701 63.799207 
L 281.692967 65.030111 
L 281.918923 65.396517 
L 282.370837 66.632786 
L 282.596793 67.06659 
L 283.048707 68.805324 
L 283.274663 69.171619 
L 283.726577 70.872616 
L 283.952533 71.129981 
L 284.17849 70.768757 
L 284.630403 70.872616 
L 284.85636 70.923706 
L 285.308273 71.851109 
L 285.53423 71.592139 
L 285.760187 70.920807 
L 285.986143 71.072404 
L 286.2121 70.550279 
L 286.438057 69.251756 
L 286.664013 68.929056 
L 286.88997 70.823428 
L 287.115927 74.756429 
L 287.341883 75.730683 
L 287.56784 75.435707 
L 288.019753 85.506145 
L 288.24571 87.28517 
L 288.697624 91.84887 
L 288.92358 90.220902 
L 289.827407 93.394447 
L 290.053364 91.947695 
L 290.27932 91.624715 
L 290.505277 91.508714 
L 290.731234 94.313991 
L 291.409104 97.745243 
L 292.086974 100.194282 
L 292.31293 100.259447 
L 292.764844 101.16671 
L 292.9908 100.688794 
L 293.216757 100.964678 
L 293.442714 101.845766 
L 293.66867 100.424552 
L 293.894627 102.164071 
L 294.120584 102.730734 
L 294.572497 101.631977 
L 295.02441 102.44548 
L 295.476324 109.674244 
L 296.154194 115.885221 
L 296.832064 119.967805 
L 297.05802 112.965419 
L 297.73589 106.780462 
L 297.961847 105.127611 
L 298.187804 104.327624 
L 298.639717 102.283314 
L 299.09163 100.68613 
L 299.317587 100.687003 
L 299.7695 99.663758 
L 299.995457 99.397229 
L 300.221414 98.286489 
L 300.44737 98.738987 
L 300.673327 100.882219 
L 300.899284 101.108433 
L 301.12524 101.862807 
L 301.351197 100.231578 
L 301.577154 96.807265 
L 302.48098 93.426994 
L 302.706937 93.243193 
L 302.932894 93.248293 
L 303.15885 91.007884 
L 303.384807 90.949826 
L 303.610764 90.641285 
L 303.83672 90.804292 
L 304.062677 100.540131 
L 304.514591 106.952736 
L 304.966504 105.324682 
L 305.192461 103.508856 
L 305.418417 103.204757 
L 305.644374 101.756294 
L 306.774157 99.416379 
L 307.000114 99.82234 
L 307.226071 102.389937 
L 307.903941 104.88233 
L 308.129897 104.88233 
L 308.355854 104.299767 
L 309.033724 104.482198 
L 309.259681 104.903064 
L 309.485637 104.601095 
L 309.711594 103.995201 
L 310.163507 101.132425 
L 310.389464 98.208591 
L 310.841377 100.97907 
L 311.067334 115.175559 
L 311.293291 116.170945 
L 311.519247 119.180445 
L 311.745204 118.323584 
L 311.971161 119.209599 
L 312.197117 118.491811 
L 312.423074 118.802762 
L 312.649031 120.110899 
L 312.874987 119.403721 
L 313.100944 120.128401 
L 313.326901 115.947396 
L 313.552857 121.412601 
L 313.778814 121.977477 
L 314.004771 121.820153 
L 314.230727 121.524011 
L 314.682641 116.017735 
L 315.134554 113.253451 
L 315.360511 113.416929 
L 315.586467 111.466892 
L 315.812424 111.592152 
L 316.038381 110.865156 
L 316.264337 108.001897 
L 316.490294 106.768644 
L 316.942207 106.086397 
L 317.168164 106.090153 
L 317.394121 105.577263 
L 317.620077 106.618948 
L 317.846034 106.724419 
L 318.071991 106.498836 
L 318.297947 106.495793 
L 318.975817 104.327802 
L 319.427731 105.053091 
L 319.653687 105.778392 
L 320.105601 108.366626 
L 320.557514 108.881776 
L 320.783471 112.903854 
L 321.009428 112.464904 
L 321.235384 112.775304 
L 321.461341 112.775304 
L 321.687298 113.188792 
L 321.913254 114.222925 
L 322.139211 114.110803 
L 322.365168 113.69644 
L 322.591124 112.945002 
L 322.817081 112.829457 
L 323.043038 112.525695 
L 323.268994 113.780489 
L 323.494951 113.478717 
L 323.946864 112.338817 
L 324.172821 111.921835 
L 324.398778 112.110634 
L 324.624734 112.110634 
L 325.076648 112.227679 
L 325.302604 112.224072 
L 325.528561 112.528041 
L 325.754518 112.224072 
L 325.980474 110.356012 
L 326.206431 110.049137 
L 326.884301 112.522989 
L 327.110258 113.361454 
L 327.562171 111.613052 
L 327.788128 111.305659 
L 328.240041 113.390894 
L 328.465998 112.96903 
L 328.691954 112.96903 
L 329.143868 112.245362 
L 329.369824 112.249149 
L 329.595781 111.525491 
L 330.047694 112.245362 
L 330.273651 113.081304 
L 330.499608 113.081304 
L 330.725564 112.964877 
L 330.951521 113.688488 
L 331.403434 114.412124 
L 331.629391 114.412124 
L 331.855348 113.278196 
L 332.307261 112.441289 
L 332.533218 113.274403 
L 332.985131 112.128323 
L 333.211088 113.989276 
L 333.437044 113.270248 
L 333.663001 113.575384 
L 333.888958 113.57954 
L 334.114914 113.884441 
L 334.340871 112.221727 
L 334.792784 113.780489 
L 335.018741 113.361454 
L 335.244698 113.361454 
L 335.470654 114.08169 
L 335.696611 113.777416 
L 336.148524 115.341621 
L 336.374481 115.41099 
L 336.600438 116.143891 
L 336.826395 124.561437 
L 337.278308 128.164266 
L 337.504265 130.251008 
L 337.730221 135.593105 
L 337.956178 151.385325 
L 338.182135 158.516444 
L 338.408091 152.501007 
L 338.634048 156.499155 
L 338.860005 149.85848 
L 339.085961 147.915693 
L 339.311918 144.625515 
L 339.989788 209.123025 
L 340.215745 209.983085 
L 340.441701 212.634961 
L 340.893615 207.87942 
L 341.345528 202.798591 
L 341.571485 178.901728 
L 341.797441 88.012889 
L 342.023398 88.064092 
L 342.249355 87.524657 
L 342.475311 87.717931 
L 342.701268 95.53251 
L 343.153181 119.9545 
L 343.379138 122.952476 
L 343.605095 124.34081 
L 343.831051 121.693533 
L 344.057008 113.826596 
L 344.508921 107.163386 
L 344.734878 105.446593 
L 344.960835 105.497893 
L 345.412748 107.904163 
L 345.638705 106.869265 
L 345.864661 106.644927 
L 346.090618 106.03273 
L 346.316575 106.067971 
L 347.220401 101.769101 
L 347.446358 102.568308 
L 347.672315 102.908473 
L 347.898271 102.680497 
L 348.124228 102.983849 
L 348.350185 98.047332 
L 348.802098 95.839186 
L 349.028055 95.861585 
L 350.157838 105.168883 
L 350.383795 105.346863 
L 350.609751 104.998805 
L 350.835708 104.911637 
L 351.061665 104.5179 
L 351.287621 104.36207 
L 351.739535 105.092593 
L 351.965491 104.819479 
L 352.191448 105.798078 
L 352.417405 109.546286 
L 352.869318 112.029485 
L 352.869318 112.029485 
" style="fill:none;stroke:#1f77b4;stroke-linecap:square;stroke-width:1.5;"/>
   </g>
   <g id="patch_3">
    <path d="M 33.2875 228.14 
L 33.2875 10.7 
" style="fill:none;stroke:#000000;stroke-linecap:square;stroke-linejoin:miter;stroke-width:0.8;"/>
   </g>
   <g id="patch_4">
    <path d="M 368.0875 228.14 
L 368.0875 10.7 
" style="fill:none;stroke:#000000;stroke-linecap:square;stroke-linejoin:miter;stroke-width:0.8;"/>
   </g>
   <g id="patch_5">
    <path d="M 33.2875 228.14 
L 368.0875 228.14 
" style="fill:none;stroke:#000000;stroke-linecap:square;stroke-linejoin:miter;stroke-width:0.8;"/>
   </g>
   <g id="patch_6">
    <path d="M 33.2875 10.7 
L 368.0875 10.7 
" style="fill:none;stroke:#000000;stroke-linecap:square;stroke-linejoin:miter;stroke-width:0.8;"/>
   </g>
  </g>
 </g>
 <defs>
  <clipPath id="p0bc8681498">
   <rect height="217.44" width="334.8" x="33.2875" y="10.7"/>
  </clipPath>
 </defs>
</svg>
