<?xml version="1.0" encoding="utf-8" standalone="no"?>
<!DOCTYPE svg PUBLIC "-//W3C//DTD SVG 1.1//EN"
  "http://www.w3.org/Graphics/SVG/1.1/DTD/svg11.dtd">
<!-- Created with matplotlib (http://matplotlib.org/) -->
<svg height="300.690125pt" version="1.1" viewBox="0 0 406.873857 300.690125" width="406.873857pt" xmlns="http://www.w3.org/2000/svg" xmlns:xlink="http://www.w3.org/1999/xlink">
 <defs>
  <style type="text/css">
*{stroke-linecap:butt;stroke-linejoin:round;}
  </style>
 </defs>
 <g id="figure_1">
  <g id="patch_1">
   <path d="M 0 300.690125 
L 406.873857 300.690125 
L 406.873857 0 
L 0 0 
z
" style="fill:#ffffff;"/>
  </g>
  <g id="axes_1">
   <g id="patch_2">
    <path d="M 33.2875 276.812 
L 390.4075 276.812 
L 390.4075 10.7 
L 33.2875 10.7 
z
" style="fill:#ffffff;"/>
   </g>
   <g id="matplotlib.axis_1">
    <g id="xtick_1">
     <g id="line2d_1">
      <defs>
       <path d="M 0 0 
L 0 3.5 
" id="m66be13d624" style="stroke:#000000;stroke-width:0.8;"/>
      </defs>
      <g>
       <use style="stroke:#000000;stroke-width:0.8;" x="49.520227" xlink:href="#m66be13d624" y="276.812"/>
      </g>
     </g>
     <g id="text_1">
      <!-- 0 -->
      <defs>
       <path d="M 31.78125 66.40625 
Q 24.171875 66.40625 20.328125 58.90625 
Q 16.5 51.421875 16.5 36.375 
Q 16.5 21.390625 20.328125 13.890625 
Q 24.171875 6.390625 31.78125 6.390625 
Q 39.453125 6.390625 43.28125 13.890625 
Q 47.125 21.390625 47.125 36.375 
Q 47.125 51.421875 43.28125 58.90625 
Q 39.453125 66.40625 31.78125 66.40625 
z
M 31.78125 74.21875 
Q 44.046875 74.21875 50.515625 64.515625 
Q 56.984375 54.828125 56.984375 36.375 
Q 56.984375 17.96875 50.515625 8.265625 
Q 44.046875 -1.421875 31.78125 -1.421875 
Q 19.53125 -1.421875 13.0625 8.265625 
Q 6.59375 17.96875 6.59375 36.375 
Q 6.59375 54.828125 13.0625 64.515625 
Q 19.53125 74.21875 31.78125 74.21875 
z
" id="DejaVuSans-30"/>
      </defs>
      <g transform="translate(46.338977 291.410437)scale(0.1 -0.1)">
       <use xlink:href="#DejaVuSans-30"/>
      </g>
     </g>
    </g>
    <g id="xtick_2">
     <g id="line2d_2">
      <g>
       <use style="stroke:#000000;stroke-width:0.8;" x="97.724317" xlink:href="#m66be13d624" y="276.812"/>
      </g>
     </g>
     <g id="text_2">
      <!-- 200 -->
      <defs>
       <path d="M 19.1875 8.296875 
L 53.609375 8.296875 
L 53.609375 0 
L 7.328125 0 
L 7.328125 8.296875 
Q 12.9375 14.109375 22.625 23.890625 
Q 32.328125 33.6875 34.8125 36.53125 
Q 39.546875 41.84375 41.421875 45.53125 
Q 43.3125 49.21875 43.3125 52.78125 
Q 43.3125 58.59375 39.234375 62.25 
Q 35.15625 65.921875 28.609375 65.921875 
Q 23.96875 65.921875 18.8125 64.3125 
Q 13.671875 62.703125 7.8125 59.421875 
L 7.8125 69.390625 
Q 13.765625 71.78125 18.9375 73 
Q 24.125 74.21875 28.421875 74.21875 
Q 39.75 74.21875 46.484375 68.546875 
Q 53.21875 62.890625 53.21875 53.421875 
Q 53.21875 48.921875 51.53125 44.890625 
Q 49.859375 40.875 45.40625 35.40625 
Q 44.1875 33.984375 37.640625 27.21875 
Q 31.109375 20.453125 19.1875 8.296875 
z
" id="DejaVuSans-32"/>
      </defs>
      <g transform="translate(88.180567 291.410437)scale(0.1 -0.1)">
       <use xlink:href="#DejaVuSans-32"/>
       <use x="63.623047" xlink:href="#DejaVuSans-30"/>
       <use x="127.246094" xlink:href="#DejaVuSans-30"/>
      </g>
     </g>
    </g>
    <g id="xtick_3">
     <g id="line2d_3">
      <g>
       <use style="stroke:#000000;stroke-width:0.8;" x="145.928407" xlink:href="#m66be13d624" y="276.812"/>
      </g>
     </g>
     <g id="text_3">
      <!-- 400 -->
      <defs>
       <path d="M 37.796875 64.3125 
L 12.890625 25.390625 
L 37.796875 25.390625 
z
M 35.203125 72.90625 
L 47.609375 72.90625 
L 47.609375 25.390625 
L 58.015625 25.390625 
L 58.015625 17.1875 
L 47.609375 17.1875 
L 47.609375 0 
L 37.796875 0 
L 37.796875 17.1875 
L 4.890625 17.1875 
L 4.890625 26.703125 
z
" id="DejaVuSans-34"/>
      </defs>
      <g transform="translate(136.384657 291.410437)scale(0.1 -0.1)">
       <use xlink:href="#DejaVuSans-34"/>
       <use x="63.623047" xlink:href="#DejaVuSans-30"/>
       <use x="127.246094" xlink:href="#DejaVuSans-30"/>
      </g>
     </g>
    </g>
    <g id="xtick_4">
     <g id="line2d_4">
      <g>
       <use style="stroke:#000000;stroke-width:0.8;" x="194.132497" xlink:href="#m66be13d624" y="276.812"/>
      </g>
     </g>
     <g id="text_4">
      <!-- 600 -->
      <defs>
       <path d="M 33.015625 40.375 
Q 26.375 40.375 22.484375 35.828125 
Q 18.609375 31.296875 18.609375 23.390625 
Q 18.609375 15.53125 22.484375 10.953125 
Q 26.375 6.390625 33.015625 6.390625 
Q 39.65625 6.390625 43.53125 10.953125 
Q 47.40625 15.53125 47.40625 23.390625 
Q 47.40625 31.296875 43.53125 35.828125 
Q 39.65625 40.375 33.015625 40.375 
z
M 52.59375 71.296875 
L 52.59375 62.3125 
Q 48.875 64.0625 45.09375 64.984375 
Q 41.3125 65.921875 37.59375 65.921875 
Q 27.828125 65.921875 22.671875 59.328125 
Q 17.53125 52.734375 16.796875 39.40625 
Q 19.671875 43.65625 24.015625 45.921875 
Q 28.375 48.1875 33.59375 48.1875 
Q 44.578125 48.1875 50.953125 41.515625 
Q 57.328125 34.859375 57.328125 23.390625 
Q 57.328125 12.15625 50.6875 5.359375 
Q 44.046875 -1.421875 33.015625 -1.421875 
Q 20.359375 -1.421875 13.671875 8.265625 
Q 6.984375 17.96875 6.984375 36.375 
Q 6.984375 53.65625 15.1875 63.9375 
Q 23.390625 74.21875 37.203125 74.21875 
Q 40.921875 74.21875 44.703125 73.484375 
Q 48.484375 72.75 52.59375 71.296875 
z
" id="DejaVuSans-36"/>
      </defs>
      <g transform="translate(184.588747 291.410437)scale(0.1 -0.1)">
       <use xlink:href="#DejaVuSans-36"/>
       <use x="63.623047" xlink:href="#DejaVuSans-30"/>
       <use x="127.246094" xlink:href="#DejaVuSans-30"/>
      </g>
     </g>
    </g>
    <g id="xtick_5">
     <g id="line2d_5">
      <g>
       <use style="stroke:#000000;stroke-width:0.8;" x="242.336587" xlink:href="#m66be13d624" y="276.812"/>
      </g>
     </g>
     <g id="text_5">
      <!-- 800 -->
      <defs>
       <path d="M 31.78125 34.625 
Q 24.75 34.625 20.71875 30.859375 
Q 16.703125 27.09375 16.703125 20.515625 
Q 16.703125 13.921875 20.71875 10.15625 
Q 24.75 6.390625 31.78125 6.390625 
Q 38.8125 6.390625 42.859375 10.171875 
Q 46.921875 13.96875 46.921875 20.515625 
Q 46.921875 27.09375 42.890625 30.859375 
Q 38.875 34.625 31.78125 34.625 
z
M 21.921875 38.8125 
Q 15.578125 40.375 12.03125 44.71875 
Q 8.5 49.078125 8.5 55.328125 
Q 8.5 64.0625 14.71875 69.140625 
Q 20.953125 74.21875 31.78125 74.21875 
Q 42.671875 74.21875 48.875 69.140625 
Q 55.078125 64.0625 55.078125 55.328125 
Q 55.078125 49.078125 51.53125 44.71875 
Q 48 40.375 41.703125 38.8125 
Q 48.828125 37.15625 52.796875 32.3125 
Q 56.78125 27.484375 56.78125 20.515625 
Q 56.78125 9.90625 50.3125 4.234375 
Q 43.84375 -1.421875 31.78125 -1.421875 
Q 19.734375 -1.421875 13.25 4.234375 
Q 6.78125 9.90625 6.78125 20.515625 
Q 6.78125 27.484375 10.78125 32.3125 
Q 14.796875 37.15625 21.921875 38.8125 
z
M 18.3125 54.390625 
Q 18.3125 48.734375 21.84375 45.5625 
Q 25.390625 42.390625 31.78125 42.390625 
Q 38.140625 42.390625 41.71875 45.5625 
Q 45.3125 48.734375 45.3125 54.390625 
Q 45.3125 60.0625 41.71875 63.234375 
Q 38.140625 66.40625 31.78125 66.40625 
Q 25.390625 66.40625 21.84375 63.234375 
Q 18.3125 60.0625 18.3125 54.390625 
z
" id="DejaVuSans-38"/>
      </defs>
      <g transform="translate(232.792837 291.410437)scale(0.1 -0.1)">
       <use xlink:href="#DejaVuSans-38"/>
       <use x="63.623047" xlink:href="#DejaVuSans-30"/>
       <use x="127.246094" xlink:href="#DejaVuSans-30"/>
      </g>
     </g>
    </g>
    <g id="xtick_6">
     <g id="line2d_6">
      <g>
       <use style="stroke:#000000;stroke-width:0.8;" x="290.540677" xlink:href="#m66be13d624" y="276.812"/>
      </g>
     </g>
     <g id="text_6">
      <!-- 1000 -->
      <defs>
       <path d="M 12.40625 8.296875 
L 28.515625 8.296875 
L 28.515625 63.921875 
L 10.984375 60.40625 
L 10.984375 69.390625 
L 28.421875 72.90625 
L 38.28125 72.90625 
L 38.28125 8.296875 
L 54.390625 8.296875 
L 54.390625 0 
L 12.40625 0 
z
" id="DejaVuSans-31"/>
      </defs>
      <g transform="translate(277.815677 291.410437)scale(0.1 -0.1)">
       <use xlink:href="#DejaVuSans-31"/>
       <use x="63.623047" xlink:href="#DejaVuSans-30"/>
       <use x="127.246094" xlink:href="#DejaVuSans-30"/>
       <use x="190.869141" xlink:href="#DejaVuSans-30"/>
      </g>
     </g>
    </g>
    <g id="xtick_7">
     <g id="line2d_7">
      <g>
       <use style="stroke:#000000;stroke-width:0.8;" x="338.744767" xlink:href="#m66be13d624" y="276.812"/>
      </g>
     </g>
     <g id="text_7">
      <!-- 1200 -->
      <g transform="translate(326.019767 291.410437)scale(0.1 -0.1)">
       <use xlink:href="#DejaVuSans-31"/>
       <use x="63.623047" xlink:href="#DejaVuSans-32"/>
       <use x="127.246094" xlink:href="#DejaVuSans-30"/>
       <use x="190.869141" xlink:href="#DejaVuSans-30"/>
      </g>
     </g>
    </g>
    <g id="xtick_8">
     <g id="line2d_8">
      <g>
       <use style="stroke:#000000;stroke-width:0.8;" x="386.948857" xlink:href="#m66be13d624" y="276.812"/>
      </g>
     </g>
     <g id="text_8">
      <!-- 1400 -->
      <g transform="translate(374.223857 291.410437)scale(0.1 -0.1)">
       <use xlink:href="#DejaVuSans-31"/>
       <use x="63.623047" xlink:href="#DejaVuSans-34"/>
       <use x="127.246094" xlink:href="#DejaVuSans-30"/>
       <use x="190.869141" xlink:href="#DejaVuSans-30"/>
      </g>
     </g>
    </g>
   </g>
   <g id="matplotlib.axis_2">
    <g id="ytick_1">
     <g id="line2d_9">
      <defs>
       <path d="M 0 0 
L -3.5 0 
" id="mb0067d9ec2" style="stroke:#000000;stroke-width:0.8;"/>
      </defs>
      <g>
       <use style="stroke:#000000;stroke-width:0.8;" x="33.2875" xlink:href="#mb0067d9ec2" y="252.577614"/>
      </g>
     </g>
     <g id="text_9">
      <!-- 125 -->
      <defs>
       <path d="M 10.796875 72.90625 
L 49.515625 72.90625 
L 49.515625 64.59375 
L 19.828125 64.59375 
L 19.828125 46.734375 
Q 21.96875 47.46875 24.109375 47.828125 
Q 26.265625 48.1875 28.421875 48.1875 
Q 40.625 48.1875 47.75 41.5 
Q 54.890625 34.8125 54.890625 23.390625 
Q 54.890625 11.625 47.5625 5.09375 
Q 40.234375 -1.421875 26.90625 -1.421875 
Q 22.3125 -1.421875 17.546875 -0.640625 
Q 12.796875 0.140625 7.71875 1.703125 
L 7.71875 11.625 
Q 12.109375 9.234375 16.796875 8.0625 
Q 21.484375 6.890625 26.703125 6.890625 
Q 35.15625 6.890625 40.078125 11.328125 
Q 45.015625 15.765625 45.015625 23.390625 
Q 45.015625 31 40.078125 35.4375 
Q 35.15625 39.890625 26.703125 39.890625 
Q 22.75 39.890625 18.8125 39.015625 
Q 14.890625 38.140625 10.796875 36.28125 
z
" id="DejaVuSans-35"/>
      </defs>
      <g transform="translate(7.2 256.376833)scale(0.1 -0.1)">
       <use xlink:href="#DejaVuSans-31"/>
       <use x="63.623047" xlink:href="#DejaVuSans-32"/>
       <use x="127.246094" xlink:href="#DejaVuSans-35"/>
      </g>
     </g>
    </g>
    <g id="ytick_2">
     <g id="line2d_10">
      <g>
       <use style="stroke:#000000;stroke-width:0.8;" x="33.2875" xlink:href="#mb0067d9ec2" y="220.887874"/>
      </g>
     </g>
     <g id="text_10">
      <!-- 130 -->
      <defs>
       <path d="M 40.578125 39.3125 
Q 47.65625 37.796875 51.625 33 
Q 55.609375 28.21875 55.609375 21.1875 
Q 55.609375 10.40625 48.1875 4.484375 
Q 40.765625 -1.421875 27.09375 -1.421875 
Q 22.515625 -1.421875 17.65625 -0.515625 
Q 12.796875 0.390625 7.625 2.203125 
L 7.625 11.71875 
Q 11.71875 9.328125 16.59375 8.109375 
Q 21.484375 6.890625 26.8125 6.890625 
Q 36.078125 6.890625 40.9375 10.546875 
Q 45.796875 14.203125 45.796875 21.1875 
Q 45.796875 27.640625 41.28125 31.265625 
Q 36.765625 34.90625 28.71875 34.90625 
L 20.21875 34.90625 
L 20.21875 43.015625 
L 29.109375 43.015625 
Q 36.375 43.015625 40.234375 45.921875 
Q 44.09375 48.828125 44.09375 54.296875 
Q 44.09375 59.90625 40.109375 62.90625 
Q 36.140625 65.921875 28.71875 65.921875 
Q 24.65625 65.921875 20.015625 65.03125 
Q 15.375 64.15625 9.8125 62.3125 
L 9.8125 71.09375 
Q 15.4375 72.65625 20.34375 73.4375 
Q 25.25 74.21875 29.59375 74.21875 
Q 40.828125 74.21875 47.359375 69.109375 
Q 53.90625 64.015625 53.90625 55.328125 
Q 53.90625 49.265625 50.4375 45.09375 
Q 46.96875 40.921875 40.578125 39.3125 
z
" id="DejaVuSans-33"/>
      </defs>
      <g transform="translate(7.2 224.687093)scale(0.1 -0.1)">
       <use xlink:href="#DejaVuSans-31"/>
       <use x="63.623047" xlink:href="#DejaVuSans-33"/>
       <use x="127.246094" xlink:href="#DejaVuSans-30"/>
      </g>
     </g>
    </g>
    <g id="ytick_3">
     <g id="line2d_11">
      <g>
       <use style="stroke:#000000;stroke-width:0.8;" x="33.2875" xlink:href="#mb0067d9ec2" y="189.198135"/>
      </g>
     </g>
     <g id="text_11">
      <!-- 135 -->
      <g transform="translate(7.2 192.997354)scale(0.1 -0.1)">
       <use xlink:href="#DejaVuSans-31"/>
       <use x="63.623047" xlink:href="#DejaVuSans-33"/>
       <use x="127.246094" xlink:href="#DejaVuSans-35"/>
      </g>
     </g>
    </g>
    <g id="ytick_4">
     <g id="line2d_12">
      <g>
       <use style="stroke:#000000;stroke-width:0.8;" x="33.2875" xlink:href="#mb0067d9ec2" y="157.508395"/>
      </g>
     </g>
     <g id="text_12">
      <!-- 140 -->
      <g transform="translate(7.2 161.307614)scale(0.1 -0.1)">
       <use xlink:href="#DejaVuSans-31"/>
       <use x="63.623047" xlink:href="#DejaVuSans-34"/>
       <use x="127.246094" xlink:href="#DejaVuSans-30"/>
      </g>
     </g>
    </g>
    <g id="ytick_5">
     <g id="line2d_13">
      <g>
       <use style="stroke:#000000;stroke-width:0.8;" x="33.2875" xlink:href="#mb0067d9ec2" y="125.818656"/>
      </g>
     </g>
     <g id="text_13">
      <!-- 145 -->
      <g transform="translate(7.2 129.617875)scale(0.1 -0.1)">
       <use xlink:href="#DejaVuSans-31"/>
       <use x="63.623047" xlink:href="#DejaVuSans-34"/>
       <use x="127.246094" xlink:href="#DejaVuSans-35"/>
      </g>
     </g>
    </g>
    <g id="ytick_6">
     <g id="line2d_14">
      <g>
       <use style="stroke:#000000;stroke-width:0.8;" x="33.2875" xlink:href="#mb0067d9ec2" y="94.128916"/>
      </g>
     </g>
     <g id="text_14">
      <!-- 150 -->
      <g transform="translate(7.2 97.928135)scale(0.1 -0.1)">
       <use xlink:href="#DejaVuSans-31"/>
       <use x="63.623047" xlink:href="#DejaVuSans-35"/>
       <use x="127.246094" xlink:href="#DejaVuSans-30"/>
      </g>
     </g>
    </g>
    <g id="ytick_7">
     <g id="line2d_15">
      <g>
       <use style="stroke:#000000;stroke-width:0.8;" x="33.2875" xlink:href="#mb0067d9ec2" y="62.439177"/>
      </g>
     </g>
     <g id="text_15">
      <!-- 155 -->
      <g transform="translate(7.2 66.238395)scale(0.1 -0.1)">
       <use xlink:href="#DejaVuSans-31"/>
       <use x="63.623047" xlink:href="#DejaVuSans-35"/>
       <use x="127.246094" xlink:href="#DejaVuSans-35"/>
      </g>
     </g>
    </g>
    <g id="ytick_8">
     <g id="line2d_16">
      <g>
       <use style="stroke:#000000;stroke-width:0.8;" x="33.2875" xlink:href="#mb0067d9ec2" y="30.749437"/>
      </g>
     </g>
     <g id="text_16">
      <!-- 160 -->
      <g transform="translate(7.2 34.548656)scale(0.1 -0.1)">
       <use xlink:href="#DejaVuSans-31"/>
       <use x="63.623047" xlink:href="#DejaVuSans-36"/>
       <use x="127.246094" xlink:href="#DejaVuSans-30"/>
      </g>
     </g>
    </g>
   </g>
   <g id="line2d_17">
    <path clip-path="url(#p047ee7442e)" d="M 49.520227 91.258357 
L 49.761248 91.242139 
L 50.002268 91.011926 
L 50.243289 90.064207 
L 50.484309 89.859517 
L 50.72533 104.350543 
L 50.96635 104.694679 
L 51.20737 99.853243 
L 51.448391 97.997867 
L 51.689411 98.876892 
L 51.930432 98.974133 
L 52.171452 100.411976 
L 52.894514 98.19941 
L 53.135534 98.600927 
L 53.376554 99.759958 
L 53.617575 100.20445 
L 53.858595 99.957821 
L 54.099616 100.190417 
L 54.340636 101.382269 
L 54.581657 100.773815 
L 54.822677 98.732964 
L 55.063698 99.727443 
L 55.304718 100.178936 
L 55.545739 101.193668 
L 56.750841 112.51392 
L 56.991861 128.818105 
L 57.473902 134.90231 
L 57.955943 150.108012 
L 58.437984 153.994397 
L 58.679004 154.67578 
L 59.161045 159.134637 
L 59.643086 167.431615 
L 60.125127 187.162554 
L 60.607168 197.333868 
L 60.848188 201.186878 
L 61.089209 197.386983 
L 61.330229 172.917784 
L 61.81227 100.504297 
L 62.053291 83.713567 
L 62.294311 83.286516 
L 62.535332 71.143348 
L 62.776352 76.592749 
L 63.017372 74.618087 
L 63.258393 71.293924 
L 63.499413 73.809009 
L 63.740434 85.949698 
L 63.981454 86.895234 
L 64.222475 97.149946 
L 64.463495 87.374266 
L 64.945536 84.318532 
L 65.668597 81.756179 
L 65.909618 77.051114 
L 66.150638 78.054038 
L 66.391659 80.109419 
L 66.632679 83.599055 
L 66.8737 73.927494 
L 67.11472 74.459544 
L 67.355741 79.001644 
L 67.596761 60.034109 
L 67.837781 53.755699 
L 68.078802 53.206667 
L 68.319822 54.03036 
L 68.560843 53.881984 
L 68.801863 53.524489 
L 69.042884 52.231055 
L 69.283904 48.181239 
L 69.524925 46.510609 
L 69.765945 46.289305 
L 70.006965 46.696502 
L 70.247986 51.066845 
L 70.489006 50.523295 
L 70.730027 50.834244 
L 70.971047 51.577282 
L 71.212068 51.321514 
L 71.453088 52.112103 
L 71.694109 50.320127 
L 71.935129 259.151737 
L 72.17615 236.07784 
L 72.65819 234.563108 
L 73.140231 235.652535 
L 73.381252 237.320503 
L 73.622272 236.357754 
L 74.345334 222.235058 
L 74.827374 213.957709 
L 75.309415 207.252929 
L 75.550436 204.049371 
L 75.791456 205.280053 
L 76.032477 208.469137 
L 76.273497 209.903568 
L 76.514518 210.338614 
L 76.755538 208.717006 
L 76.996559 209.098801 
L 77.237579 213.224853 
L 77.478599 214.322324 
L 77.71962 214.427531 
L 77.96064 214.989103 
L 78.201661 215.054939 
L 78.683702 216.032443 
L 78.924722 215.624444 
L 79.165743 214.888423 
L 79.406763 217.065209 
L 79.888804 217.615703 
L 80.129824 217.513732 
L 80.370845 217.617888 
L 80.611865 216.568428 
L 81.093906 216.780639 
L 81.334927 216.44234 
L 81.575947 215.21178 
L 81.816968 216.549029 
L 82.057988 216.179556 
L 82.299008 217.934079 
L 82.540029 217.833506 
L 82.781049 218.880459 
L 83.26309 219.44068 
L 83.986152 216.207653 
L 84.227172 216.238674 
L 84.468192 215.163119 
L 84.709213 210.946085 
L 84.950233 210.508049 
L 85.191254 210.823496 
L 85.432274 209.178594 
L 85.914315 207.369964 
L 86.155336 207.369964 
L 86.396356 207.865339 
L 86.637376 207.002161 
L 86.878397 207.422728 
L 87.119417 207.002161 
L 87.601458 204.900453 
L 87.842479 207.075736 
L 88.083499 207.570507 
L 88.32452 212.064671 
L 88.56554 212.460066 
L 88.806561 213.277728 
L 89.047581 213.277728 
L 89.529622 215.926548 
L 90.011663 213.574624 
L 90.493704 194.198102 
L 90.734724 185.438835 
L 90.975745 168.25697 
L 91.457785 165.075349 
L 91.939826 163.558219 
L 92.180847 163.498509 
L 92.421867 163.720733 
L 93.144929 158.231644 
L 93.385949 151.919359 
L 93.86799 148.262196 
L 94.591051 145.542897 
L 94.832072 141.443837 
L 95.314113 137.543693 
L 95.555133 137.858099 
L 96.519215 143.278119 
L 97.001256 148.115698 
L 97.724317 207.10571 
L 97.965338 209.662537 
L 98.206358 214.759202 
L 98.688399 244.160614 
L 99.41146 250.265608 
L 99.652481 250.245386 
L 99.893501 251.395581 
L 100.134522 253.552737 
L 100.375542 253.917048 
L 100.616563 257.349483 
L 100.857583 262.470528 
L 101.098603 264.695403 
L 101.339624 264.716 
L 101.580644 263.951453 
L 101.821665 263.572931 
L 102.062685 261.907741 
L 102.303706 252.362153 
L 102.544726 235.297398 
L 102.785747 234.902776 
L 103.026767 239.259925 
L 103.267788 238.412929 
L 103.990849 229.702335 
L 104.231869 222.348335 
L 104.47289 205.972427 
L 104.71391 201.585993 
L 104.954931 194.92143 
L 105.195951 194.430499 
L 105.919012 220.928565 
L 106.401053 189.79411 
L 106.642074 183.535003 
L 106.883094 183.55622 
L 107.365135 189.975473 
L 107.606156 189.283564 
L 107.847176 180.903914 
L 108.329217 175.222083 
L 108.811258 172.71924 
L 109.293299 179.560517 
L 109.534319 179.509451 
L 109.77534 181.384847 
L 110.257381 165.490957 
L 110.498401 161.502369 
L 110.980442 160.505421 
L 111.221462 159.672274 
L 111.462483 159.33808 
L 111.703503 152.896846 
L 111.944524 150.808877 
L 112.185544 150.808877 
L 112.426565 152.489804 
L 112.908605 156.316509 
L 113.390646 155.393564 
L 113.631667 154.577384 
L 113.872687 155.029646 
L 114.113708 152.868023 
L 114.354728 152.049652 
L 114.595749 150.458274 
L 114.836769 150.077034 
L 115.07779 142.664809 
L 115.55983 138.699782 
L 115.800851 133.479488 
L 116.041871 133.04567 
L 116.282892 133.051177 
L 116.764933 131.419895 
L 117.005953 130.848998 
L 117.487994 123.468271 
L 117.970035 118.34188 
L 118.211055 117.448502 
L 118.452076 116.063205 
L 118.693096 115.562711 
L 118.934117 111.463209 
L 119.416158 107.220915 
L 119.898199 111.900789 
L 120.380239 112.700933 
L 120.62126 114.485882 
L 120.86228 114.881257 
L 121.585342 111.012713 
L 121.826362 111.410919 
L 122.308403 116.461842 
L 122.549423 116.663741 
L 122.790444 112.699209 
L 123.031464 111.903158 
L 123.272485 111.903158 
L 123.513505 111.410059 
L 123.754526 113.494216 
L 123.995546 113.000275 
L 124.236567 112.999197 
L 124.477587 110.706052 
L 124.718608 111.103463 
L 124.959628 110.517694 
L 125.200648 113.59362 
L 125.441669 114.579371 
L 125.682689 123.732996 
L 126.16473 129.558003 
L 126.405751 131.218478 
L 126.646771 130.446739 
L 127.369832 119.998914 
L 127.610853 120.781963 
L 128.092894 123.232478 
L 128.574935 124.618071 
L 128.815955 128.121342 
L 129.056976 127.619961 
L 129.297996 127.507194 
L 129.539017 128.281936 
L 129.780037 127.779566 
L 130.021057 128.397229 
L 130.503098 127.160877 
L 130.744119 128.700584 
L 130.985139 128.700584 
L 131.46718 126.002037 
L 131.949221 122.902126 
L 132.190241 122.844197 
L 132.431262 122.170213 
L 132.672282 115.673159 
L 132.913303 116.067721 
L 133.154323 116.753116 
L 133.395344 118.324754 
L 133.636364 119.00221 
L 133.877385 121.455156 
L 134.118405 121.953597 
L 134.359425 120.282415 
L 134.600446 120.388627 
L 134.841466 118.715045 
L 135.323507 121.561957 
L 135.564528 125.067345 
L 135.805548 130.321983 
L 136.046569 127.390475 
L 136.287589 122.624635 
L 136.52861 123.124581 
L 136.76963 124.014112 
L 137.251671 124.680908 
L 137.733712 127.121919 
L 137.974732 127.896136 
L 138.456773 119.605063 
L 138.697794 119.107018 
L 138.938814 119.001342 
L 139.420855 119.784198 
L 139.661875 122.400752 
L 140.625957 125.616082 
L 141.349019 125.844401 
L 141.831059 129.944085 
L 142.07208 131.485644 
L 142.554121 132.87739 
L 143.036162 135.542905 
L 143.277182 135.423633 
L 143.518203 133.910908 
L 143.759223 129.349118 
L 144.241264 128.580907 
L 144.482284 126.922778 
L 144.723305 127.426404 
L 144.964325 125.767497 
L 145.205346 126.388373 
L 145.446366 126.504284 
L 145.687387 124.725464 
L 145.928407 120.340203 
L 146.410448 117.001358 
L 146.651468 121.062858 
L 146.892489 121.454286 
L 147.133509 121.344683 
L 147.37453 124.842019 
L 147.61555 125.616082 
L 148.097591 123.177778 
L 148.338612 123.679138 
L 148.820652 129.204311 
L 149.061673 127.277085 
L 149.302693 127.780224 
L 149.784734 124.340461 
L 150.025755 120.955654 
L 150.507796 122.235086 
L 150.748816 124.292016 
L 150.989837 125.069092 
L 151.471877 123.402029 
L 151.712898 122.012187 
L 151.953918 124.292016 
L 152.194939 123.903051 
L 152.435959 123.902396 
L 152.67698 123.513198 
L 152.918 123.513198 
L 153.159021 123.290669 
L 153.400041 123.564891 
L 153.641061 123.335523 
L 153.882082 126.539935 
L 154.123102 126.420933 
L 154.364123 126.924747 
L 154.605143 128.316799 
L 154.846164 128.316799 
L 155.087184 127.161096 
L 155.328205 126.775072 
L 155.569225 126.775072 
L 155.810245 126.002693 
L 156.051266 129.055179 
L 156.292286 128.551728 
L 156.533307 127.663758 
L 156.774327 124.340461 
L 157.256368 121.512166 
L 157.497389 122.789737 
L 157.738409 123.177124 
L 157.97943 123.177124 
L 158.46147 118.285926 
L 158.702491 117.004821 
L 158.943511 116.504036 
L 159.184532 116.504036 
L 159.425552 120.064113 
L 159.666573 120.732866 
L 159.907593 125.999414 
L 160.148614 125.999414 
L 160.630654 124.451332 
L 160.871675 124.063627 
L 161.112695 125.729273 
L 161.594736 126.50166 
L 162.076777 125.727744 
L 162.317798 132.60981 
L 162.558818 132.224123 
L 163.040859 130.446739 
L 163.281879 130.562725 
L 163.5229 130.832757 
L 163.76392 131.721394 
L 164.004941 131.837976 
L 164.245961 132.726738 
L 164.486982 128.669033 
L 164.728002 126.890832 
L 165.210043 126.000945 
L 165.451063 126.50166 
L 165.692084 126.616684 
L 165.933104 125.727744 
L 166.174125 126.229378 
L 166.415145 123.399413 
L 167.138207 123.892582 
L 167.620248 122.658176 
L 167.861268 121.768235 
L 168.102288 122.052235 
L 168.343309 122.836354 
L 168.82535 126.22741 
L 169.06637 126.614716 
L 169.307391 127.776938 
L 169.789432 127.778471 
L 170.030452 128.667279 
L 170.271472 130.830779 
L 170.512493 130.948352 
L 170.753513 129.170769 
L 170.994534 129.557126 
L 171.235554 131.218258 
L 171.476575 129.82686 
L 171.717595 130.715399 
L 171.958616 129.441267 
L 172.199636 130.596997 
L 172.440657 130.211279 
L 172.681677 127.159126 
L 172.922697 127.544636 
L 173.163718 124.723936 
L 173.404738 123.449568 
L 173.645759 125.113229 
L 173.886779 119.171025 
L 174.1278 120.169674 
L 174.36882 122.508123 
L 174.850861 123.510582 
L 175.332902 126.346367 
L 175.573922 127.1217 
L 176.055963 126.891488 
L 176.538004 124.609777 
L 176.779025 123.836559 
L 177.502086 125.229416 
L 177.984127 123.952386 
L 178.225147 121.897256 
L 178.466168 121.508903 
L 178.707188 120.230905 
L 178.948209 121.892904 
L 179.189229 122.281022 
L 179.43025 123.17015 
L 179.67127 117.997018 
L 180.394331 121.946633 
L 180.635352 124.395667 
L 180.876372 125.176125 
L 181.117393 124.787242 
L 181.358413 124.010622 
L 181.599434 124.288743 
L 181.840454 125.453943 
L 182.081474 132.899634 
L 182.322495 133.665534 
L 182.563515 134.048045 
L 182.804536 133.663991 
L 183.045556 134.170684 
L 183.286577 133.40436 
L 183.527597 135.059713 
L 183.768618 135.563649 
L 184.009638 135.563649 
L 184.491679 131.214961 
L 184.97372 136.189672 
L 185.455761 138.993728 
L 185.696781 135.822149 
L 185.937802 136.586091 
L 186.178822 136.327614 
L 186.660863 132.129076 
L 186.901883 131.862421 
L 187.142904 133.13509 
L 187.383924 132.75076 
L 187.624945 131.978366 
L 187.865965 128.152648 
L 188.106986 126.371535 
L 188.348006 126.75757 
L 188.589027 128.417392 
L 188.830047 128.798388 
L 189.071068 129.572048 
L 189.312088 130.724207 
L 189.553108 131.228585 
L 190.035149 131.232322 
L 190.27617 131.355689 
L 190.51719 130.464067 
L 190.758211 131.352391 
L 190.999231 130.964176 
L 191.240252 131.47157 
L 191.481272 133.516314 
L 191.963313 133.902971 
L 192.204333 132.630954 
L 192.445354 129.818958 
L 192.686374 130.321983 
L 192.927395 134.265969 
L 193.168415 134.025792 
L 193.409436 129.552517 
L 193.891477 129.554492 
L 194.132497 129.285038 
L 194.373517 129.286135 
L 194.855558 127.274458 
L 195.57862 122.287989 
L 195.81964 122.122541 
L 196.060661 135.202802 
L 196.542701 139.93947 
L 196.783722 147.220208 
L 197.506783 155.983598 
L 197.747804 161.653589 
L 197.988824 22.796 
L 198.229845 141.9044 
L 198.470865 134.875849 
L 198.711886 136.204015 
L 199.193926 128.524791 
L 199.434947 117.604209 
L 199.675967 116.341994 
L 199.916988 112.642301 
L 200.158008 112.773766 
L 200.399029 114.471443 
L 200.88107 124.203437 
L 201.36311 143.193916 
L 201.604131 144.798132 
L 201.845151 148.075606 
L 202.086172 174.630273 
L 202.327192 179.200799 
L 202.568213 181.605394 
L 202.809233 182.367021 
L 203.050254 184.285521 
L 203.291274 221.823478 
L 203.773315 226.855456 
L 204.496376 176.887095 
L 204.737397 167.733836 
L 204.978417 167.231108 
L 205.219438 174.357544 
L 205.460458 176.010496 
L 205.701479 176.515531 
L 205.942499 178.548771 
L 206.183519 179.054383 
L 206.42454 180.957621 
L 206.66556 181.338093 
L 207.147601 177.149321 
L 207.388622 175.871571 
L 207.629642 169.867222 
L 207.870663 169.086173 
L 208.111683 172.254842 
L 208.352703 172.254842 
L 208.834744 168.083121 
L 209.557806 121.248122 
L 209.798826 115.684423 
L 210.039847 95.125341 
L 210.280867 98.686049 
L 210.521888 90.970868 
L 211.003928 58.656774 
L 211.244949 60.102639 
L 211.485969 64.11587 
L 211.96801 88.014082 
L 212.209031 87.588661 
L 212.450051 88.915645 
L 212.691072 91.055753 
L 212.932092 95.391199 
L 213.173112 105.05644 
L 213.414133 107.445463 
L 213.896174 106.836074 
L 214.137194 105.58211 
L 214.378215 103.42353 
L 214.619235 98.959083 
L 214.860256 78.83363 
L 215.101276 80.800474 
L 215.342297 81.305841 
L 215.583317 82.428782 
L 215.824337 85.058637 
L 216.065358 86.187869 
L 216.306378 85.310814 
L 216.547399 86.187869 
L 216.788419 86.479576 
L 217.02944 88.163737 
L 217.27046 88.024787 
L 217.752501 87.287423 
L 218.234542 86.391557 
L 218.475562 88.632042 
L 218.716583 89.355748 
L 218.957603 92.204735 
L 220.162706 98.941441 
L 220.403726 98.884747 
L 220.644746 97.776219 
L 220.885767 97.717474 
L 221.126787 96.20136 
L 221.367808 96.141444 
L 221.608828 95.885279 
L 221.849849 96.923834 
L 222.090869 97.084017 
L 222.33189 95.587297 
L 222.57291 93.312728 
L 222.81393 93.908152 
L 223.054951 93.273651 
L 223.295971 94.081383 
L 223.536992 99.384291 
L 223.778012 102.071643 
L 224.019033 108.231507 
L 224.260053 107.870217 
L 224.742094 111.857301 
L 224.983114 111.424889 
L 225.224135 110.155993 
L 225.706176 111.708556 
L 225.947196 111.749453 
L 226.188217 111.591039 
L 226.429237 112.610627 
L 226.670258 111.794855 
L 226.911278 107.433465 
L 227.393319 105.036563 
L 227.634339 104.776907 
L 228.11638 103.161359 
L 228.357401 101.937861 
L 228.598421 101.937861 
L 228.839442 102.814158 
L 229.080462 104.690388 
L 229.321483 103.711598 
L 229.803523 106.807167 
L 230.044544 101.415268 
L 230.526585 96.739086 
L 231.008626 94.777491 
L 231.490667 96.520909 
L 231.731687 99.054218 
L 231.972708 103.994203 
L 232.213728 104.230128 
L 232.454748 104.056541 
L 232.695769 102.946385 
L 232.936789 105.158801 
L 233.659851 107.346048 
L 233.900871 107.501174 
L 234.141892 103.88939 
L 234.382912 103.36422 
L 234.623932 103.36422 
L 235.105973 101.588555 
L 235.346994 99.299107 
L 236.070055 88.162267 
L 236.311076 96.217222 
L 236.793117 98.053658 
L 237.034137 94.239177 
L 237.275157 95.116247 
L 237.516178 93.63933 
L 237.757198 88.66756 
L 238.239239 90.708984 
L 238.48026 90.54817 
L 238.72128 92.06878 
L 238.962301 92.01774 
L 239.203321 89.898427 
L 239.685362 89.483749 
L 240.167403 87.324944 
L 240.408423 90.807507 
L 240.649444 91.376948 
L 240.890464 93.843937 
L 241.131485 86.502419 
L 241.372505 83.39535 
L 241.613526 83.481423 
L 241.854546 80.884858 
L 242.336587 79.636326 
L 242.577607 79.779088 
L 242.818628 75.73809 
L 243.059648 65.045486 
L 243.300669 66.030977 
L 243.541689 66.13625 
L 244.26475 70.888809 
L 244.505771 71.249148 
L 244.746791 72.023287 
L 245.228832 70.984939 
L 245.469853 71.968989 
L 245.710873 73.73784 
L 245.951894 74.412974 
L 246.192914 74.515827 
L 246.433935 87.690028 
L 246.674955 88.427047 
L 246.915975 90.402534 
L 247.156996 90.817612 
L 247.398016 90.046746 
L 247.639037 91.13405 
L 248.362098 92.173136 
L 248.603119 94.183617 
L 248.844139 92.544693 
L 249.32618 91.204015 
L 249.5672 91.141025 
L 250.049241 89.468006 
L 250.290262 89.170781 
L 250.531282 89.38537 
L 251.013323 92.248406 
L 251.254343 93.861492 
L 251.736384 94.953841 
L 251.977405 96.410993 
L 252.218425 96.98719 
L 252.459446 98.697512 
L 252.700466 98.501593 
L 252.941487 98.957578 
L 253.182507 99.701897 
L 253.423528 97.141468 
L 253.664548 97.195937 
L 254.146589 98.184134 
L 254.387609 98.233995 
L 254.62863 99.351345 
L 255.110671 98.130438 
L 256.315773 93.557405 
L 256.556793 93.342702 
L 256.797814 94.072932 
L 257.038834 93.629828 
L 257.279855 94.064035 
L 257.520875 94.204763 
L 258.243937 88.495327 
L 258.484957 88.708496 
L 258.725977 89.22477 
L 258.966998 88.11377 
L 259.208018 86.419219 
L 259.449039 87.880165 
L 259.690059 87.371722 
L 259.93108 88.904535 
L 260.1721 89.71862 
L 260.413121 89.950616 
L 260.895161 94.445866 
L 261.136182 95.029331 
L 261.377202 94.953841 
L 261.618223 95.16764 
L 261.859243 95.013682 
L 262.100264 95.500355 
L 262.341284 95.111806 
L 262.582305 96.55223 
L 262.823325 96.237566 
L 263.305366 102.413642 
L 263.546386 102.086744 
L 264.028427 99.531098 
L 264.269448 91.225499 
L 264.751489 87.583408 
L 265.23353 85.407343 
L 265.47455 86.238172 
L 265.71557 86.013358 
L 266.197611 86.02385 
L 266.438632 85.478916 
L 266.679652 85.682879 
L 267.161693 88.372263 
L 267.643734 88.229059 
L 267.884755 87.718332 
L 268.125775 89.113827 
L 268.607816 86.158346 
L 268.848836 85.751148 
L 269.089857 85.819002 
L 269.330877 84.724678 
L 269.571898 85.572111 
L 269.812918 88.186838 
L 270.053939 88.559175 
L 270.294959 89.954612 
L 270.535979 90.223862 
L 270.777 87.375314 
L 271.01802 88.295199 
L 271.259041 90.30742 
L 271.500061 90.004254 
L 271.741082 89.892538 
L 271.982102 88.89634 
L 272.223123 91.156181 
L 272.464143 91.700991 
L 272.705163 91.905418 
L 272.946184 92.42933 
L 273.187204 93.864872 
L 273.669245 92.110099 
L 273.910266 87.603576 
L 274.151286 86.921679 
L 274.392307 86.610991 
L 274.633327 88.001461 
L 275.115368 89.068435 
L 275.356388 89.649858 
L 275.597409 89.355117 
L 275.838429 88.782233 
L 276.07945 87.70157 
L 276.32047 88.008833 
L 276.561491 90.953415 
L 276.802511 92.140414 
L 277.284552 96.776372 
L 277.525572 98.107331 
L 277.766593 100.356063 
L 278.007613 99.842209 
L 278.248634 99.918089 
L 278.489654 98.828076 
L 278.730675 98.471667 
L 278.971695 95.468011 
L 279.453736 93.910282 
L 279.935777 92.201176 
L 280.176797 94.610069 
L 280.658838 94.262445 
L 280.899859 93.682382 
L 281.140879 94.562108 
L 281.3819 94.562108 
L 281.863941 91.922894 
L 282.104961 93.382177 
L 282.345981 91.553072 
L 282.587002 91.113245 
L 283.069043 92.79508 
L 283.310063 92.924201 
L 283.551084 92.540896 
L 284.033125 93.44762 
L 284.274145 92.623559 
L 284.515166 89.961132 
L 284.997206 91.512831 
L 285.238227 91.512831 
L 285.479247 92.643406 
L 285.720268 91.780624 
L 285.961288 92.675443 
L 286.202309 92.315035 
L 286.443329 91.444992 
L 286.68435 92.325157 
L 286.92537 92.252833 
L 287.16639 92.478679 
L 287.407411 94.161637 
L 287.648431 94.456619 
L 287.889452 93.221333 
L 288.130472 95.192384 
L 288.371493 94.387937 
L 288.612513 94.703308 
L 288.853534 95.442624 
L 289.094554 95.518152 
L 289.576595 94.43272 
L 289.817615 92.002377 
L 290.299656 90.235459 
L 290.540677 90.481217 
L 290.781697 90.888755 
L 291.022718 90.467518 
L 291.263738 91.654843 
L 291.504759 91.687268 
L 291.986799 94.672868 
L 292.22782 84.20372 
L 292.46884 84.887681 
L 292.709861 88.332111 
L 293.191902 87.171855 
L 293.673943 88.697598 
L 293.914963 88.644453 
L 294.155983 88.340975 
L 294.397004 89.269356 
L 294.638024 94.797382 
L 294.879045 90.047377 
L 295.120065 92.531195 
L 295.602106 78.036982 
L 295.843127 76.793784 
L 296.566188 79.562228 
L 296.807208 75.196036 
L 297.048229 75.970659 
L 297.289249 72.796164 
L 297.77129 70.217395 
L 298.012311 75.684989 
L 298.253331 77.19142 
L 298.494352 77.639844 
L 298.976392 79.15284 
L 299.217413 79.683747 
L 299.699454 81.811682 
L 299.940474 82.259968 
L 300.422515 84.341718 
L 300.663536 84.656693 
L 300.904556 84.214611 
L 301.145577 84.214611 
L 301.627617 84.404244 
L 302.109658 85.539238 
L 302.350679 85.2223 
L 302.591699 84.400696 
L 302.83272 84.586226 
L 303.07374 83.947229 
L 303.314761 82.358044 
L 303.555781 81.96311 
L 303.796801 84.28152 
L 304.037822 89.094887 
L 304.278842 90.28722 
L 304.519863 89.926216 
L 305.001904 102.250831 
L 305.242924 104.428076 
L 305.724965 110.013318 
L 305.965986 108.020945 
L 306.930067 111.90486 
L 307.171088 110.134265 
L 307.412108 109.738989 
L 307.653129 109.597023 
L 307.894149 113.030236 
L 308.61721 117.229542 
L 309.340272 120.226777 
L 309.581292 120.306529 
L 310.063333 121.416874 
L 310.304354 120.831981 
L 310.545374 121.169619 
L 310.786395 122.24793 
L 311.027415 120.508591 
L 311.268435 122.637485 
L 311.509456 123.330991 
L 311.991497 121.986287 
L 312.473538 122.981885 
L 312.955579 131.828744 
L 313.67864 139.429992 
L 314.401701 144.426427 
L 314.642722 135.856619 
L 315.365783 128.287214 
L 315.606804 126.264387 
L 315.847824 125.28533 
L 316.329865 122.78342 
L 316.811906 120.828721 
L 317.052926 120.829789 
L 317.534967 119.5775 
L 317.775988 119.251311 
L 318.017008 117.891941 
L 318.258028 118.445727 
L 318.499049 121.068702 
L 318.740069 121.345553 
L 318.98109 122.268786 
L 319.22211 120.272422 
L 319.463131 116.081606 
L 320.427212 111.944692 
L 320.668233 111.719749 
L 320.909253 111.725991 
L 321.150274 108.984086 
L 321.391294 108.913032 
L 321.632315 108.535426 
L 321.873335 108.734922 
L 322.114356 120.650041 
L 322.596397 128.49805 
L 323.078437 126.505571 
L 323.319458 124.283288 
L 323.560478 123.91112 
L 323.801499 122.138432 
L 325.006601 119.274747 
L 325.247621 119.771579 
L 325.488642 122.91391 
L 326.211703 125.964203 
L 326.452724 125.964203 
L 326.693744 125.251238 
L 327.416806 125.474504 
L 327.657826 125.989578 
L 327.898846 125.620015 
L 328.139867 124.878498 
L 328.621908 121.374915 
L 328.862928 117.796607 
L 329.344969 121.187233 
L 329.58599 138.561479 
L 329.82701 139.779673 
L 330.06803 143.462822 
L 330.309051 142.414162 
L 330.550071 143.498502 
L 330.791092 142.620044 
L 331.032112 143.000599 
L 331.273133 144.601551 
L 331.514153 143.736078 
L 331.755174 144.62297 
L 331.996194 139.506085 
L 332.237215 146.194627 
L 332.478235 146.885946 
L 332.719255 146.693406 
L 332.960276 146.330976 
L 333.442317 139.592169 
L 333.924358 136.209124 
L 334.165378 136.409195 
L 334.406399 134.02266 
L 334.647419 134.175959 
L 334.888439 133.286231 
L 335.12946 129.782057 
L 335.37048 128.272751 
L 335.852521 127.437789 
L 336.093542 127.442386 
L 336.334562 126.81469 
L 336.575583 128.089547 
L 336.816603 128.218627 
L 337.057624 127.942549 
L 337.298644 127.938825 
L 338.021705 125.285549 
L 338.503746 126.173187 
L 338.744767 127.06084 
L 339.226808 130.228427 
L 339.708848 130.858888 
L 339.949869 135.781273 
L 340.190889 135.244068 
L 340.43191 135.623948 
L 340.67293 135.623948 
L 340.913951 136.129992 
L 341.154971 137.395606 
L 341.395992 137.258387 
L 341.637012 136.751272 
L 341.878032 135.831631 
L 342.119053 135.690223 
L 342.360073 135.318467 
L 342.601094 136.854134 
L 342.842114 136.484814 
L 343.324155 135.089757 
L 343.565176 134.579438 
L 343.806196 134.810498 
L 344.047217 134.810498 
L 344.288237 134.951756 
L 344.770278 134.949328 
L 345.011298 135.321338 
L 345.252319 134.949328 
L 345.493339 132.66312 
L 345.73436 132.287553 
L 346.457421 135.315154 
L 346.698441 136.341302 
L 346.939462 134.943147 
L 347.180482 134.201537 
L 347.421503 133.825336 
L 347.662523 134.849804 
L 347.903544 136.377332 
L 348.144564 135.861038 
L 348.385585 135.861038 
L 348.867626 134.975383 
L 349.108646 134.980019 
L 349.349666 134.094376 
L 349.831707 134.975383 
L 350.072728 135.998444 
L 350.313748 135.998444 
L 350.554769 135.855956 
L 350.795789 136.74154 
L 351.27783 137.627155 
L 351.51885 137.627155 
L 351.759871 136.239408 
L 352.241912 135.215167 
L 352.482932 136.234766 
L 352.964973 134.832147 
L 353.205994 137.109657 
L 353.447014 136.229681 
L 353.688035 136.603119 
L 353.929055 136.608205 
L 354.170075 136.981356 
L 354.411096 134.946458 
L 354.893137 136.854134 
L 355.134157 136.341302 
L 355.375178 136.341302 
L 355.616198 137.222757 
L 355.857219 136.850374 
L 356.339259 138.764712 
L 356.58028 138.849609 
L 356.8213 139.746563 
L 357.062321 150.048301 
L 357.544362 154.457592 
L 357.785382 157.011433 
L 358.026403 163.54931 
L 358.267423 182.876477 
L 358.508444 191.603834 
L 358.749464 184.241895 
L 358.990484 189.134992 
L 359.231505 181.007861 
L 359.472525 178.630199 
L 359.713546 174.603544 
L 360.436607 253.538245 
L 360.677628 254.590822 
L 360.918648 257.836296 
L 361.400689 252.016271 
L 361.641709 247.959282 
L 361.88273 245.798144 
L 362.12375 216.55218 
L 362.364771 105.318688 
L 362.605791 105.381353 
L 362.846812 104.72117 
L 363.087832 104.957706 
L 363.328853 114.521509 
L 363.810893 144.410142 
L 364.051914 148.079189 
L 364.292934 149.77829 
L 364.533955 146.538444 
L 364.774975 136.910562 
L 365.257016 128.755852 
L 365.498037 126.654771 
L 365.739057 126.717554 
L 366.221098 129.662446 
L 366.462118 128.395895 
L 366.703139 128.121342 
L 366.944159 127.37211 
L 367.18518 127.415239 
L 368.149261 122.154105 
L 368.390282 123.132207 
L 368.631302 123.548515 
L 368.872323 123.269509 
L 369.113343 123.640764 
L 369.354364 117.599252 
L 369.836405 114.896832 
L 370.077425 114.924244 
L 371.282527 126.314898 
L 371.523548 126.532717 
L 371.764568 126.10675 
L 372.005589 126.00007 
L 372.246609 125.518199 
L 372.48763 125.327487 
L 372.96967 126.221532 
L 373.210691 125.887283 
L 373.451711 127.084932 
L 373.692732 131.672143 
L 374.174773 134.711185 
L 374.174773 134.711185 
" style="fill:none;stroke:#1f77b4;stroke-linecap:square;stroke-width:1.5;"/>
   </g>
   <g id="patch_3">
    <path d="M 33.2875 276.812 
L 33.2875 10.7 
" style="fill:none;stroke:#000000;stroke-linecap:square;stroke-linejoin:miter;stroke-width:0.8;"/>
   </g>
   <g id="patch_4">
    <path d="M 390.4075 276.812 
L 390.4075 10.7 
" style="fill:none;stroke:#000000;stroke-linecap:square;stroke-linejoin:miter;stroke-width:0.8;"/>
   </g>
   <g id="patch_5">
    <path d="M 33.2875 276.812 
L 390.4075 276.812 
" style="fill:none;stroke:#000000;stroke-linecap:square;stroke-linejoin:miter;stroke-width:0.8;"/>
   </g>
   <g id="patch_6">
    <path d="M 33.2875 10.7 
L 390.4075 10.7 
" style="fill:none;stroke:#000000;stroke-linecap:square;stroke-linejoin:miter;stroke-width:0.8;"/>
   </g>
  </g>
 </g>
 <defs>
  <clipPath id="p047ee7442e">
   <rect height="266.112" width="357.12" x="33.2875" y="10.7"/>
  </clipPath>
 </defs>
</svg>
