<?xml version="1.0" encoding="utf-8" standalone="no"?>
<!DOCTYPE svg PUBLIC "-//W3C//DTD SVG 1.1//EN"
  "http://www.w3.org/Graphics/SVG/1.1/DTD/svg11.dtd">
<!-- Created with matplotlib (http://matplotlib.org/) -->
<svg height="252.018125pt" version="1.1" viewBox="0 0 390.679254 252.018125" width="390.679254pt" xmlns="http://www.w3.org/2000/svg" xmlns:xlink="http://www.w3.org/1999/xlink">
 <defs>
  <style type="text/css">
*{stroke-linecap:butt;stroke-linejoin:round;}
  </style>
 </defs>
 <g id="figure_1">
  <g id="patch_1">
   <path d="M 0 252.018125 
L 390.679254 252.018125 
L 390.679254 0 
L 0 0 
z
" style="fill:#ffffff;"/>
  </g>
  <g id="axes_1">
   <g id="patch_2">
    <path d="M 33.2875 228.14 
L 368.0875 228.14 
L 368.0875 10.7 
L 33.2875 10.7 
z
" style="fill:#ffffff;"/>
   </g>
   <g id="matplotlib.axis_1">
    <g id="xtick_1">
     <g id="line2d_1">
      <defs>
       <path d="M 0 0 
L 0 3.5 
" id="mbe7b27492f" style="stroke:#000000;stroke-width:0.8;"/>
      </defs>
      <g>
       <use style="stroke:#000000;stroke-width:0.8;" x="48.505682" xlink:href="#mbe7b27492f" y="228.14"/>
      </g>
     </g>
     <g id="text_1">
      <!-- 0 -->
      <defs>
       <path d="M 31.78125 66.40625 
Q 24.171875 66.40625 20.328125 58.90625 
Q 16.5 51.421875 16.5 36.375 
Q 16.5 21.390625 20.328125 13.890625 
Q 24.171875 6.390625 31.78125 6.390625 
Q 39.453125 6.390625 43.28125 13.890625 
Q 47.125 21.390625 47.125 36.375 
Q 47.125 51.421875 43.28125 58.90625 
Q 39.453125 66.40625 31.78125 66.40625 
z
M 31.78125 74.21875 
Q 44.046875 74.21875 50.515625 64.515625 
Q 56.984375 54.828125 56.984375 36.375 
Q 56.984375 17.96875 50.515625 8.265625 
Q 44.046875 -1.421875 31.78125 -1.421875 
Q 19.53125 -1.421875 13.0625 8.265625 
Q 6.59375 17.96875 6.59375 36.375 
Q 6.59375 54.828125 13.0625 64.515625 
Q 19.53125 74.21875 31.78125 74.21875 
z
" id="DejaVuSans-30"/>
      </defs>
      <g transform="translate(45.324432 242.738437)scale(0.1 -0.1)">
       <use xlink:href="#DejaVuSans-30"/>
      </g>
     </g>
    </g>
    <g id="xtick_2">
     <g id="line2d_2">
      <g>
       <use style="stroke:#000000;stroke-width:0.8;" x="101.683569" xlink:href="#mbe7b27492f" y="228.14"/>
      </g>
     </g>
     <g id="text_2">
      <!-- 2000 -->
      <defs>
       <path d="M 19.1875 8.296875 
L 53.609375 8.296875 
L 53.609375 0 
L 7.328125 0 
L 7.328125 8.296875 
Q 12.9375 14.109375 22.625 23.890625 
Q 32.328125 33.6875 34.8125 36.53125 
Q 39.546875 41.84375 41.421875 45.53125 
Q 43.3125 49.21875 43.3125 52.78125 
Q 43.3125 58.59375 39.234375 62.25 
Q 35.15625 65.921875 28.609375 65.921875 
Q 23.96875 65.921875 18.8125 64.3125 
Q 13.671875 62.703125 7.8125 59.421875 
L 7.8125 69.390625 
Q 13.765625 71.78125 18.9375 73 
Q 24.125 74.21875 28.421875 74.21875 
Q 39.75 74.21875 46.484375 68.546875 
Q 53.21875 62.890625 53.21875 53.421875 
Q 53.21875 48.921875 51.53125 44.890625 
Q 49.859375 40.875 45.40625 35.40625 
Q 44.1875 33.984375 37.640625 27.21875 
Q 31.109375 20.453125 19.1875 8.296875 
z
" id="DejaVuSans-32"/>
      </defs>
      <g transform="translate(88.958569 242.738437)scale(0.1 -0.1)">
       <use xlink:href="#DejaVuSans-32"/>
       <use x="63.623047" xlink:href="#DejaVuSans-30"/>
       <use x="127.246094" xlink:href="#DejaVuSans-30"/>
       <use x="190.869141" xlink:href="#DejaVuSans-30"/>
      </g>
     </g>
    </g>
    <g id="xtick_3">
     <g id="line2d_3">
      <g>
       <use style="stroke:#000000;stroke-width:0.8;" x="154.861456" xlink:href="#mbe7b27492f" y="228.14"/>
      </g>
     </g>
     <g id="text_3">
      <!-- 4000 -->
      <defs>
       <path d="M 37.796875 64.3125 
L 12.890625 25.390625 
L 37.796875 25.390625 
z
M 35.203125 72.90625 
L 47.609375 72.90625 
L 47.609375 25.390625 
L 58.015625 25.390625 
L 58.015625 17.1875 
L 47.609375 17.1875 
L 47.609375 0 
L 37.796875 0 
L 37.796875 17.1875 
L 4.890625 17.1875 
L 4.890625 26.703125 
z
" id="DejaVuSans-34"/>
      </defs>
      <g transform="translate(142.136456 242.738437)scale(0.1 -0.1)">
       <use xlink:href="#DejaVuSans-34"/>
       <use x="63.623047" xlink:href="#DejaVuSans-30"/>
       <use x="127.246094" xlink:href="#DejaVuSans-30"/>
       <use x="190.869141" xlink:href="#DejaVuSans-30"/>
      </g>
     </g>
    </g>
    <g id="xtick_4">
     <g id="line2d_4">
      <g>
       <use style="stroke:#000000;stroke-width:0.8;" x="208.039343" xlink:href="#mbe7b27492f" y="228.14"/>
      </g>
     </g>
     <g id="text_4">
      <!-- 6000 -->
      <defs>
       <path d="M 33.015625 40.375 
Q 26.375 40.375 22.484375 35.828125 
Q 18.609375 31.296875 18.609375 23.390625 
Q 18.609375 15.53125 22.484375 10.953125 
Q 26.375 6.390625 33.015625 6.390625 
Q 39.65625 6.390625 43.53125 10.953125 
Q 47.40625 15.53125 47.40625 23.390625 
Q 47.40625 31.296875 43.53125 35.828125 
Q 39.65625 40.375 33.015625 40.375 
z
M 52.59375 71.296875 
L 52.59375 62.3125 
Q 48.875 64.0625 45.09375 64.984375 
Q 41.3125 65.921875 37.59375 65.921875 
Q 27.828125 65.921875 22.671875 59.328125 
Q 17.53125 52.734375 16.796875 39.40625 
Q 19.671875 43.65625 24.015625 45.921875 
Q 28.375 48.1875 33.59375 48.1875 
Q 44.578125 48.1875 50.953125 41.515625 
Q 57.328125 34.859375 57.328125 23.390625 
Q 57.328125 12.15625 50.6875 5.359375 
Q 44.046875 -1.421875 33.015625 -1.421875 
Q 20.359375 -1.421875 13.671875 8.265625 
Q 6.984375 17.96875 6.984375 36.375 
Q 6.984375 53.65625 15.1875 63.9375 
Q 23.390625 74.21875 37.203125 74.21875 
Q 40.921875 74.21875 44.703125 73.484375 
Q 48.484375 72.75 52.59375 71.296875 
z
" id="DejaVuSans-36"/>
      </defs>
      <g transform="translate(195.314343 242.738437)scale(0.1 -0.1)">
       <use xlink:href="#DejaVuSans-36"/>
       <use x="63.623047" xlink:href="#DejaVuSans-30"/>
       <use x="127.246094" xlink:href="#DejaVuSans-30"/>
       <use x="190.869141" xlink:href="#DejaVuSans-30"/>
      </g>
     </g>
    </g>
    <g id="xtick_5">
     <g id="line2d_5">
      <g>
       <use style="stroke:#000000;stroke-width:0.8;" x="261.21723" xlink:href="#mbe7b27492f" y="228.14"/>
      </g>
     </g>
     <g id="text_5">
      <!-- 8000 -->
      <defs>
       <path d="M 31.78125 34.625 
Q 24.75 34.625 20.71875 30.859375 
Q 16.703125 27.09375 16.703125 20.515625 
Q 16.703125 13.921875 20.71875 10.15625 
Q 24.75 6.390625 31.78125 6.390625 
Q 38.8125 6.390625 42.859375 10.171875 
Q 46.921875 13.96875 46.921875 20.515625 
Q 46.921875 27.09375 42.890625 30.859375 
Q 38.875 34.625 31.78125 34.625 
z
M 21.921875 38.8125 
Q 15.578125 40.375 12.03125 44.71875 
Q 8.5 49.078125 8.5 55.328125 
Q 8.5 64.0625 14.71875 69.140625 
Q 20.953125 74.21875 31.78125 74.21875 
Q 42.671875 74.21875 48.875 69.140625 
Q 55.078125 64.0625 55.078125 55.328125 
Q 55.078125 49.078125 51.53125 44.71875 
Q 48 40.375 41.703125 38.8125 
Q 48.828125 37.15625 52.796875 32.3125 
Q 56.78125 27.484375 56.78125 20.515625 
Q 56.78125 9.90625 50.3125 4.234375 
Q 43.84375 -1.421875 31.78125 -1.421875 
Q 19.734375 -1.421875 13.25 4.234375 
Q 6.78125 9.90625 6.78125 20.515625 
Q 6.78125 27.484375 10.78125 32.3125 
Q 14.796875 37.15625 21.921875 38.8125 
z
M 18.3125 54.390625 
Q 18.3125 48.734375 21.84375 45.5625 
Q 25.390625 42.390625 31.78125 42.390625 
Q 38.140625 42.390625 41.71875 45.5625 
Q 45.3125 48.734375 45.3125 54.390625 
Q 45.3125 60.0625 41.71875 63.234375 
Q 38.140625 66.40625 31.78125 66.40625 
Q 25.390625 66.40625 21.84375 63.234375 
Q 18.3125 60.0625 18.3125 54.390625 
z
" id="DejaVuSans-38"/>
      </defs>
      <g transform="translate(248.49223 242.738437)scale(0.1 -0.1)">
       <use xlink:href="#DejaVuSans-38"/>
       <use x="63.623047" xlink:href="#DejaVuSans-30"/>
       <use x="127.246094" xlink:href="#DejaVuSans-30"/>
       <use x="190.869141" xlink:href="#DejaVuSans-30"/>
      </g>
     </g>
    </g>
    <g id="xtick_6">
     <g id="line2d_6">
      <g>
       <use style="stroke:#000000;stroke-width:0.8;" x="314.395117" xlink:href="#mbe7b27492f" y="228.14"/>
      </g>
     </g>
     <g id="text_6">
      <!-- 10000 -->
      <defs>
       <path d="M 12.40625 8.296875 
L 28.515625 8.296875 
L 28.515625 63.921875 
L 10.984375 60.40625 
L 10.984375 69.390625 
L 28.421875 72.90625 
L 38.28125 72.90625 
L 38.28125 8.296875 
L 54.390625 8.296875 
L 54.390625 0 
L 12.40625 0 
z
" id="DejaVuSans-31"/>
      </defs>
      <g transform="translate(298.488867 242.738437)scale(0.1 -0.1)">
       <use xlink:href="#DejaVuSans-31"/>
       <use x="63.623047" xlink:href="#DejaVuSans-30"/>
       <use x="127.246094" xlink:href="#DejaVuSans-30"/>
       <use x="190.869141" xlink:href="#DejaVuSans-30"/>
       <use x="254.492188" xlink:href="#DejaVuSans-30"/>
      </g>
     </g>
    </g>
    <g id="xtick_7">
     <g id="line2d_7">
      <g>
       <use style="stroke:#000000;stroke-width:0.8;" x="367.573004" xlink:href="#mbe7b27492f" y="228.14"/>
      </g>
     </g>
     <g id="text_7">
      <!-- 12000 -->
      <g transform="translate(351.666754 242.738437)scale(0.1 -0.1)">
       <use xlink:href="#DejaVuSans-31"/>
       <use x="63.623047" xlink:href="#DejaVuSans-32"/>
       <use x="127.246094" xlink:href="#DejaVuSans-30"/>
       <use x="190.869141" xlink:href="#DejaVuSans-30"/>
       <use x="254.492188" xlink:href="#DejaVuSans-30"/>
      </g>
     </g>
    </g>
   </g>
   <g id="matplotlib.axis_2">
    <g id="ytick_1">
     <g id="line2d_8">
      <defs>
       <path d="M 0 0 
L -3.5 0 
" id="m39074e3b9b" style="stroke:#000000;stroke-width:0.8;"/>
      </defs>
      <g>
       <use style="stroke:#000000;stroke-width:0.8;" x="33.2875" xlink:href="#m39074e3b9b" y="210.625363"/>
      </g>
     </g>
     <g id="text_8">
      <!-- 100 -->
      <g transform="translate(7.2 214.424582)scale(0.1 -0.1)">
       <use xlink:href="#DejaVuSans-31"/>
       <use x="63.623047" xlink:href="#DejaVuSans-30"/>
       <use x="127.246094" xlink:href="#DejaVuSans-30"/>
      </g>
     </g>
    </g>
    <g id="ytick_2">
     <g id="line2d_9">
      <g>
       <use style="stroke:#000000;stroke-width:0.8;" x="33.2875" xlink:href="#m39074e3b9b" y="183.500481"/>
      </g>
     </g>
     <g id="text_9">
      <!-- 150 -->
      <defs>
       <path d="M 10.796875 72.90625 
L 49.515625 72.90625 
L 49.515625 64.59375 
L 19.828125 64.59375 
L 19.828125 46.734375 
Q 21.96875 47.46875 24.109375 47.828125 
Q 26.265625 48.1875 28.421875 48.1875 
Q 40.625 48.1875 47.75 41.5 
Q 54.890625 34.8125 54.890625 23.390625 
Q 54.890625 11.625 47.5625 5.09375 
Q 40.234375 -1.421875 26.90625 -1.421875 
Q 22.3125 -1.421875 17.546875 -0.640625 
Q 12.796875 0.140625 7.71875 1.703125 
L 7.71875 11.625 
Q 12.109375 9.234375 16.796875 8.0625 
Q 21.484375 6.890625 26.703125 6.890625 
Q 35.15625 6.890625 40.078125 11.328125 
Q 45.015625 15.765625 45.015625 23.390625 
Q 45.015625 31 40.078125 35.4375 
Q 35.15625 39.890625 26.703125 39.890625 
Q 22.75 39.890625 18.8125 39.015625 
Q 14.890625 38.140625 10.796875 36.28125 
z
" id="DejaVuSans-35"/>
      </defs>
      <g transform="translate(7.2 187.2997)scale(0.1 -0.1)">
       <use xlink:href="#DejaVuSans-31"/>
       <use x="63.623047" xlink:href="#DejaVuSans-35"/>
       <use x="127.246094" xlink:href="#DejaVuSans-30"/>
      </g>
     </g>
    </g>
    <g id="ytick_3">
     <g id="line2d_10">
      <g>
       <use style="stroke:#000000;stroke-width:0.8;" x="33.2875" xlink:href="#m39074e3b9b" y="156.375599"/>
      </g>
     </g>
     <g id="text_10">
      <!-- 200 -->
      <g transform="translate(7.2 160.174817)scale(0.1 -0.1)">
       <use xlink:href="#DejaVuSans-32"/>
       <use x="63.623047" xlink:href="#DejaVuSans-30"/>
       <use x="127.246094" xlink:href="#DejaVuSans-30"/>
      </g>
     </g>
    </g>
    <g id="ytick_4">
     <g id="line2d_11">
      <g>
       <use style="stroke:#000000;stroke-width:0.8;" x="33.2875" xlink:href="#m39074e3b9b" y="129.250716"/>
      </g>
     </g>
     <g id="text_11">
      <!-- 250 -->
      <g transform="translate(7.2 133.049935)scale(0.1 -0.1)">
       <use xlink:href="#DejaVuSans-32"/>
       <use x="63.623047" xlink:href="#DejaVuSans-35"/>
       <use x="127.246094" xlink:href="#DejaVuSans-30"/>
      </g>
     </g>
    </g>
    <g id="ytick_5">
     <g id="line2d_12">
      <g>
       <use style="stroke:#000000;stroke-width:0.8;" x="33.2875" xlink:href="#m39074e3b9b" y="102.125834"/>
      </g>
     </g>
     <g id="text_12">
      <!-- 300 -->
      <defs>
       <path d="M 40.578125 39.3125 
Q 47.65625 37.796875 51.625 33 
Q 55.609375 28.21875 55.609375 21.1875 
Q 55.609375 10.40625 48.1875 4.484375 
Q 40.765625 -1.421875 27.09375 -1.421875 
Q 22.515625 -1.421875 17.65625 -0.515625 
Q 12.796875 0.390625 7.625 2.203125 
L 7.625 11.71875 
Q 11.71875 9.328125 16.59375 8.109375 
Q 21.484375 6.890625 26.8125 6.890625 
Q 36.078125 6.890625 40.9375 10.546875 
Q 45.796875 14.203125 45.796875 21.1875 
Q 45.796875 27.640625 41.28125 31.265625 
Q 36.765625 34.90625 28.71875 34.90625 
L 20.21875 34.90625 
L 20.21875 43.015625 
L 29.109375 43.015625 
Q 36.375 43.015625 40.234375 45.921875 
Q 44.09375 48.828125 44.09375 54.296875 
Q 44.09375 59.90625 40.109375 62.90625 
Q 36.140625 65.921875 28.71875 65.921875 
Q 24.65625 65.921875 20.015625 65.03125 
Q 15.375 64.15625 9.8125 62.3125 
L 9.8125 71.09375 
Q 15.4375 72.65625 20.34375 73.4375 
Q 25.25 74.21875 29.59375 74.21875 
Q 40.828125 74.21875 47.359375 69.109375 
Q 53.90625 64.015625 53.90625 55.328125 
Q 53.90625 49.265625 50.4375 45.09375 
Q 46.96875 40.921875 40.578125 39.3125 
z
" id="DejaVuSans-33"/>
      </defs>
      <g transform="translate(7.2 105.925052)scale(0.1 -0.1)">
       <use xlink:href="#DejaVuSans-33"/>
       <use x="63.623047" xlink:href="#DejaVuSans-30"/>
       <use x="127.246094" xlink:href="#DejaVuSans-30"/>
      </g>
     </g>
    </g>
    <g id="ytick_6">
     <g id="line2d_13">
      <g>
       <use style="stroke:#000000;stroke-width:0.8;" x="33.2875" xlink:href="#m39074e3b9b" y="75.000951"/>
      </g>
     </g>
     <g id="text_13">
      <!-- 350 -->
      <g transform="translate(7.2 78.80017)scale(0.1 -0.1)">
       <use xlink:href="#DejaVuSans-33"/>
       <use x="63.623047" xlink:href="#DejaVuSans-35"/>
       <use x="127.246094" xlink:href="#DejaVuSans-30"/>
      </g>
     </g>
    </g>
    <g id="ytick_7">
     <g id="line2d_14">
      <g>
       <use style="stroke:#000000;stroke-width:0.8;" x="33.2875" xlink:href="#m39074e3b9b" y="47.876069"/>
      </g>
     </g>
     <g id="text_14">
      <!-- 400 -->
      <g transform="translate(7.2 51.675288)scale(0.1 -0.1)">
       <use xlink:href="#DejaVuSans-34"/>
       <use x="63.623047" xlink:href="#DejaVuSans-30"/>
       <use x="127.246094" xlink:href="#DejaVuSans-30"/>
      </g>
     </g>
    </g>
    <g id="ytick_8">
     <g id="line2d_15">
      <g>
       <use style="stroke:#000000;stroke-width:0.8;" x="33.2875" xlink:href="#m39074e3b9b" y="20.751187"/>
      </g>
     </g>
     <g id="text_15">
      <!-- 450 -->
      <g transform="translate(7.2 24.550405)scale(0.1 -0.1)">
       <use xlink:href="#DejaVuSans-34"/>
       <use x="63.623047" xlink:href="#DejaVuSans-35"/>
       <use x="127.246094" xlink:href="#DejaVuSans-30"/>
      </g>
     </g>
    </g>
   </g>
   <g id="line2d_16">
    <path clip-path="url(#p2f99d2472b)" d="M 48.505682 159.709626 
L 48.585449 156.191833 
L 48.612038 154.261449 
L 48.691804 155.717996 
L 48.931105 158.395719 
L 49.090639 158.025358 
L 49.117228 158.086614 
L 49.383117 159.210776 
L 49.436295 159.12579 
L 49.462884 159.239552 
L 49.489473 159.19745 
L 49.516062 189.012596 
L 49.595829 159.351164 
L 49.755362 159.329142 
L 49.888307 160.138767 
L 49.941485 160.250916 
L 49.968074 160.358702 
L 49.994663 160.246556 
L 50.154196 159.270217 
L 50.207374 159.311484 
L 50.31373 158.937888 
L 50.393497 158.65528 
L 50.420086 158.67361 
L 50.579619 159.14416 
L 50.739153 159.474857 
L 50.792331 159.3643 
L 50.951865 158.322707 
L 51.137987 157.790132 
L 51.217754 157.740408 
L 51.32411 157.640591 
L 51.350699 157.653985 
L 51.430466 157.779299 
L 51.483643 157.626142 
L 51.589999 157.579612 
L 51.669766 157.622945 
L 51.696355 157.569998 
L 51.749533 158.490496 
L 51.8293 158.210737 
L 52.015422 157.948057 
L 52.042011 157.99662 
L 52.095189 157.912062 
L 52.281312 157.278204 
L 52.307901 157.37372 
L 52.33449 157.428454 
L 52.467434 157.755015 
L 52.547201 157.91934 
L 52.813091 156.341828 
L 52.83968 156.448996 
L 52.919446 156.814022 
L 52.999213 156.664402 
L 53.052391 156.73814 
L 53.07898 187.514983 
L 53.105569 156.657997 
L 53.158747 156.881654 
L 53.238514 157.236089 
L 53.371458 157.846446 
L 53.398047 157.841648 
L 53.504403 157.866852 
L 53.637348 157.041578 
L 53.663937 157.149118 
L 53.690526 187.032859 
L 53.770293 156.632308 
L 53.876648 157.115648 
L 53.903237 156.790739 
L 53.956415 156.732797 
L 53.983004 156.840021 
L 54.08936 157.199334 
L 54.115949 187.164825 
L 54.169127 156.922594 
L 54.195716 156.923017 
L 54.461605 158.269164 
L 54.541372 157.950328 
L 54.674317 157.747482 
L 54.754084 157.705402 
L 54.966795 158.7208 
L 55.179507 160.493646 
L 55.312451 160.401109 
L 55.498574 158.817032 
L 55.684697 157.84255 
L 55.711286 157.848352 
L 55.817641 159.195236 
L 55.870819 159.439416 
L 55.923997 159.274879 
L 56.056942 157.144274 
L 56.136709 157.401196 
L 56.189886 157.457279 
L 56.34942 159.008425 
L 56.455776 159.699141 
L 56.85461 168.885692 
L 56.907788 169.177267 
L 57.173677 170.172046 
L 57.226855 170.047144 
L 57.280033 169.80341 
L 57.333211 170.009919 
L 57.5991 171.147233 
L 57.625689 171.191454 
L 57.652278 171.095469 
L 57.705456 170.865373 
L 57.811812 169.718716 
L 57.838401 169.762232 
L 57.86499 169.90063 
L 57.891579 169.868238 
L 58.077701 167.92843 
L 58.10429 168.243017 
L 58.210646 169.054112 
L 58.290413 168.748004 
L 58.396769 168.461619 
L 58.449947 168.515298 
L 58.60948 169.035015 
L 58.636069 169.020808 
L 58.742425 168.596757 
L 58.795603 168.657989 
L 58.822192 168.720178 
L 58.87537 168.653447 
L 58.955137 168.424355 
L 58.981726 168.581734 
L 59.221026 169.857329 
L 59.300793 169.611166 
L 59.327382 169.509761 
L 59.353971 169.725103 
L 59.540093 170.129827 
L 59.566682 170.059575 
L 59.593271 170.043213 
L 59.61986 170.10481 
L 59.673038 169.734558 
L 59.726216 169.996942 
L 59.752805 170.044925 
L 59.805983 169.929221 
L 59.859161 169.789852 
L 59.912339 169.824987 
L 60.098461 170.393575 
L 60.151639 170.127094 
L 60.178228 169.404343 
L 60.257995 169.576195 
L 60.550473 170.779994 
L 60.683418 169.397854 
L 60.710007 169.433196 
L 60.816363 169.609174 
L 60.842952 169.598393 
L 60.896129 169.516602 
L 60.922718 169.622535 
L 61.002485 169.62031 
L 61.108841 168.523131 
L 61.13543 168.749474 
L 61.241786 170.22883 
L 61.294964 170.07463 
L 61.534264 168.498878 
L 61.560853 168.522257 
L 61.720387 169.495864 
L 61.906509 170.195533 
L 61.933098 170.087918 
L 62.012865 169.565177 
L 62.172399 168.32728 
L 62.411699 169.264749 
L 62.438288 169.226639 
L 62.544644 168.616568 
L 62.704178 167.78772 
L 62.730767 167.982826 
L 62.783944 167.932362 
L 63.209368 164.926256 
L 63.235957 165.040466 
L 63.262545 164.882034 
L 63.315723 164.933691 
L 63.368901 165.110489 
L 63.422079 165.492856 
L 63.448668 165.177461 
L 63.581613 162.618049 
L 63.714558 159.207267 
L 63.741146 159.534475 
L 63.794324 160.398926 
L 63.847502 158.558857 
L 63.90068 159.088017 
L 63.953858 158.713744 
L 64.007036 158.836856 
L 64.060214 158.994082 
L 64.086803 158.760896 
L 64.16657 158.141117 
L 64.326103 155.628366 
L 64.432459 154.491408 
L 64.485637 154.642343 
L 64.591993 154.753431 
L 64.671759 154.429575 
L 64.751526 154.606386 
L 64.778115 154.599113 
L 64.804704 154.439256 
L 64.831293 154.598311 
L 64.937649 156.33035 
L 65.283305 175.415868 
L 65.363072 173.762183 
L 65.841673 170.655265 
L 65.92144 170.765498 
L 65.974618 164.72868 
L 66.027796 168.047899 
L 66.054385 168.089123 
L 66.240507 164.466473 
L 66.373452 159.071048 
L 66.453219 157.963375 
L 66.479808 158.024119 
L 66.639341 162.689045 
L 66.66593 162.284749 
L 66.905231 158.690086 
L 66.93182 158.771672 
L 66.984998 159.220427 
L 67.144531 162.286871 
L 67.197709 161.836529 
L 67.250887 161.223644 
L 67.304065 161.62373 
L 67.330654 162.40433 
L 67.410421 162.067916 
L 67.463599 162.515452 
L 67.516776 163.818853 
L 67.569954 163.63854 
L 67.702899 163.092665 
L 67.729488 163.168084 
L 67.756077 163.194626 
L 67.782666 163.070375 
L 67.809255 163.094285 
L 67.889022 163.514774 
L 67.915611 163.423223 
L 67.968788 163.476803 
L 68.048555 163.280135 
L 68.128322 163.20706 
L 68.208089 162.727474 
L 68.341034 170.245669 
L 68.367623 170.036013 
L 68.394212 168.442324 
L 68.420801 170.381282 
L 68.473978 170.266882 
L 68.553745 171.684243 
L 68.606923 171.339141 
L 68.793046 168.019256 
L 68.819635 167.818114 
L 68.872813 168.08062 
L 69.112113 170.084575 
L 69.19188 170.576016 
L 69.218469 170.448523 
L 69.298236 169.888701 
L 69.324825 169.954006 
L 69.404591 171.208153 
L 69.43118 170.993077 
L 69.510947 170.330534 
L 69.776837 168.467557 
L 69.909781 168.05451 
L 69.962959 168.153503 
L 70.122493 168.652652 
L 70.149082 168.503509 
L 70.282027 168.175474 
L 70.414971 168.701923 
L 70.627683 168.640296 
L 70.654272 168.715016 
L 70.787216 169.382335 
L 70.840394 169.460464 
L 70.866983 169.325274 
L 70.999928 168.853518 
L 71.026517 168.881231 
L 71.079695 169.496775 
L 71.159462 169.331619 
L 71.186051 169.352768 
L 71.239229 169.705206 
L 71.292406 169.628777 
L 71.425351 169.474761 
L 71.664652 165.516362 
L 71.691241 165.637459 
L 71.744418 166.434584 
L 71.797596 166.039218 
L 71.850774 165.946431 
L 71.983719 164.990055 
L 72.010308 165.024608 
L 72.036897 165.181624 
L 72.223019 167.803909 
L 72.382553 170.715897 
L 72.409142 170.627047 
L 72.861154 164.555925 
L 72.940921 164.270566 
L 72.96751 164.438749 
L 72.994099 164.503372 
L 73.047277 164.408923 
L 73.153632 162.953645 
L 73.20681 163.266535 
L 73.4727 163.991271 
L 73.525878 164.060526 
L 74.004479 169.00706 
L 74.031068 168.89765 
L 74.110834 168.014927 
L 74.802147 162.090648 
L 74.881914 162.178719 
L 74.961681 162.226172 
L 74.98827 162.192814 
L 75.094625 161.634405 
L 75.121214 196.466089 
L 75.200981 160.928445 
L 75.22757 160.912676 
L 75.254159 160.433496 
L 75.333926 160.528967 
L 75.360515 160.611413 
L 75.520048 158.950382 
L 75.546637 158.959523 
L 75.626404 158.588425 
L 75.652993 158.648741 
L 76.025238 163.288435 
L 76.078416 163.437042 
L 76.105005 163.761454 
L 76.211361 163.716524 
L 76.291128 163.79681 
L 76.424073 164.157857 
L 76.503839 164.213319 
L 76.689962 164.689545 
L 76.822907 164.295859 
L 76.955851 164.345557 
L 76.876085 164.197079 
L 76.98244 164.307389 
L 77.195152 163.725034 
L 77.24833 163.606785 
L 77.434452 162.188764 
L 77.48763 162.512449 
L 77.567397 162.881299 
L 77.647164 162.771522 
L 77.726931 162.69233 
L 77.75352 162.80208 
L 77.886464 162.84567 
L 77.913053 193.640807 
L 77.99282 163.208912 
L 78.125765 163.124043 
L 78.152354 163.071887 
L 78.205532 163.139764 
L 78.25871 163.242251 
L 78.338476 163.146331 
L 78.471421 163.252561 
L 78.604366 163.450844 
L 78.630955 163.535667 
L 78.657544 163.422933 
L 78.684133 163.417436 
L 78.790488 163.312193 
L 79.056378 162.698335 
L 79.189323 163.120298 
L 79.242501 162.840896 
L 79.348856 162.670803 
L 79.375445 162.703736 
L 79.428623 162.642587 
L 79.455212 162.767602 
L 79.481801 162.833801 
L 79.50839 162.67744 
L 79.561568 162.587215 
L 79.588157 162.839151 
L 79.641335 162.564473 
L 79.694513 162.432058 
L 79.74769 162.484176 
L 79.907224 162.825841 
L 80.040169 162.659933 
L 80.066758 162.706727 
L 80.146525 162.646502 
L 80.25288 162.481253 
L 80.306058 162.566227 
L 80.332647 162.604234 
L 80.359236 162.5 
L 80.412414 162.546869 
L 80.545359 162.353335 
L 80.678303 161.18146 
L 80.704892 161.233597 
L 80.784659 161.561762 
L 80.837837 161.537799 
L 80.864426 192.658256 
L 80.944193 161.311048 
L 81.050549 160.715382 
L 81.103727 160.89379 
L 81.156904 160.783711 
L 81.183493 160.835931 
L 81.236671 161.016465 
L 81.289849 160.912011 
L 81.316438 160.873292 
L 81.343027 160.991257 
L 81.449383 161.474877 
L 81.502561 161.350798 
L 81.741861 161.636295 
L 81.954573 161.850111 
L 81.981162 161.811011 
L 82.03434 161.87651 
L 82.087517 161.818493 
L 82.167284 161.988603 
L 82.300229 161.758583 
L 82.326818 191.688958 
L 82.406585 162.014069 
L 82.459763 161.882548 
L 82.486352 161.934959 
L 82.619296 162.134824 
L 82.645885 161.991683 
L 82.699063 162.100413 
L 82.885186 162.314841 
L 82.964953 162.269102 
L 83.097897 162.117338 
L 83.124486 162.169835 
L 83.151075 162.053384 
L 83.177664 162.019033 
L 83.230842 162.105882 
L 83.337198 162.187947 
L 83.363787 162.14783 
L 83.390376 191.278247 
L 83.416965 162.096269 
L 83.470143 162.207896 
L 83.52332 162.383519 
L 83.549909 162.185711 
L 83.629676 162.116493 
L 83.762621 162.282971 
L 83.78921 162.072625 
L 83.868977 162.323484 
L 83.895566 162.475433 
L 83.948744 162.160007 
L 84.055099 161.938127 
L 84.081688 161.972833 
L 84.2944 161.920588 
L 84.507111 162.318204 
L 84.640056 162.192217 
L 84.666645 162.238975 
L 84.773001 162.215579 
L 84.905945 161.882691 
L 84.932534 191.082505 
L 85.012301 162.040338 
L 85.145246 162.188935 
L 85.384546 161.743357 
L 85.464313 161.937303 
L 85.490902 161.859096 
L 85.597258 161.453674 
L 85.677025 161.515658 
L 85.783381 161.849954 
L 85.80997 161.647214 
L 85.916325 161.686856 
L 85.996092 161.640876 
L 86.022681 161.596056 
L 86.04927 161.706375 
L 86.102448 161.620081 
L 86.208804 161.849949 
L 86.235393 161.589118 
L 86.261982 192.014218 
L 86.341748 161.743814 
L 86.394926 161.834701 
L 86.501282 161.449904 
L 86.527871 161.554332 
L 86.634227 161.691591 
L 86.660816 161.639394 
L 86.687405 161.592965 
L 86.713994 161.697367 
L 86.740583 161.691591 
L 86.767172 161.737973 
L 86.79376 161.672169 
L 86.873527 161.331923 
L 86.900116 161.389866 
L 86.926705 191.967097 
L 87.006472 161.817351 
L 87.05965 161.556312 
L 87.139417 161.672311 
L 87.219184 161.726279 
L 87.245773 161.621791 
L 87.29895 161.550339 
L 87.352128 161.627849 
L 87.644607 162.188635 
L 87.697785 162.149921 
L 87.910496 162.001309 
L 88.016852 162.341565 
L 88.07003 162.152973 
L 88.096619 162.055693 
L 88.149797 162.108016 
L 88.256152 162.408925 
L 88.30933 162.388449 
L 88.362508 162.179034 
L 88.415686 162.326856 
L 88.442275 162.339786 
L 88.57522 162.042055 
L 88.708164 162.479721 
L 88.734753 162.433112 
L 89.000643 162.022219 
L 89.027232 162.061461 
L 89.08041 162.225436 
L 89.133588 162.121763 
L 89.293121 161.5802 
L 89.346299 192.018801 
L 89.399477 161.74378 
L 89.532422 161.730155 
L 89.559011 161.527162 
L 89.638777 161.643014 
L 89.665366 192.081282 
L 89.745133 161.606344 
L 89.957845 161.75531 
L 90.090789 161.971961 
L 90.117378 192.221241 
L 90.197145 161.786714 
L 90.250323 161.86521 
L 90.276912 161.747167 
L 90.409857 162.298821 
L 90.595979 162.630713 
L 90.622568 162.556433 
L 90.649157 162.627081 
L 90.728924 162.862704 
L 90.755513 162.828307 
L 90.782102 162.688767 
L 90.861869 162.815978 
L 90.888458 162.868489 
L 90.915047 162.822524 
L 90.968225 162.624726 
L 91.021402 162.85353 
L 91.07458 162.976633 
L 91.101169 162.778656 
L 91.127758 162.778656 
L 91.34047 163.642073 
L 91.526592 163.937015 
L 91.57977 163.852306 
L 91.606359 163.552919 
L 91.659537 164.072437 
L 91.84566 163.585689 
L 91.872249 163.644427 
L 91.898838 190.48578 
L 91.978604 163.886076 
L 92.138138 164.008163 
L 92.244494 163.700635 
L 92.271083 163.82277 
L 92.324261 163.804992 
L 92.483794 164.110984 
L 92.536972 164.062351 
L 92.563561 164.225365 
L 92.616739 164.031921 
L 92.669917 163.702089 
L 92.696506 163.431312 
L 92.776273 163.653193 
L 92.935806 164.174617 
L 92.962395 164.105332 
L 93.015573 163.850558 
L 93.121929 160.461241 
L 93.201696 161.389633 
L 93.387818 164.919822 
L 93.547352 164.744463 
L 93.627119 164.798583 
L 93.760064 164.494928 
L 93.893008 164.701996 
L 93.946186 164.696272 
L 93.972775 164.448184 
L 94.052542 164.619429 
L 94.158898 164.426213 
L 94.238665 164.601353 
L 94.265254 164.578105 
L 94.398198 164.314875 
L 94.424787 164.373226 
L 94.477965 164.625012 
L 94.557732 164.508283 
L 94.584321 164.455648 
L 94.61091 164.56056 
L 94.717266 164.683391 
L 94.664088 164.507932 
L 94.743855 164.630752 
L 94.823621 164.385291 
L 94.876799 164.5317 
L 94.983155 164.747829 
L 95.009744 164.660012 
L 95.222456 164.198073 
L 95.328811 164.005192 
L 95.3554 164.063572 
L 95.381989 164.103998 
L 95.514934 164.478862 
L 95.541523 164.431941 
L 95.594701 164.636462 
L 95.647879 164.443677 
L 95.674468 164.508049 
L 95.701057 164.361713 
L 95.727645 164.361713 
L 95.834001 164.273974 
L 95.887179 164.203861 
L 95.913768 164.297376 
L 95.966946 164.267919 
L 96.046713 164.391017 
L 96.073302 164.33835 
L 96.099891 164.443677 
L 96.179658 164.396714 
L 96.206246 164.461085 
L 96.339191 164.314061 
L 96.36578 164.406892 
L 96.392369 164.412693 
L 96.445547 164.617923 
L 96.498725 164.43113 
L 96.551903 164.483846 
L 96.63167 164.120564 
L 96.684847 164.167539 
L 96.791203 164.197299 
L 96.844381 164.109927 
L 96.897559 164.22731 
L 97.083682 164.278158 
L 97.136859 164.519104 
L 97.216626 164.870502 
L 97.243215 193.227431 
L 97.322982 164.670159 
L 97.349571 164.612815 
L 97.37616 193.440938 
L 97.402749 164.430603 
L 97.455927 164.566653 
L 97.509105 164.482468 
L 97.535694 164.329983 
L 97.588872 164.604949 
L 97.801583 165.046466 
L 97.828172 164.800706 
L 98.12065 163.332277 
L 98.173828 163.496556 
L 98.200417 163.620751 
L 98.253595 163.413375 
L 98.280184 163.367425 
L 98.306773 163.414231 
L 98.333362 191.967299 
L 98.413129 163.741678 
L 98.758785 163.837343 
L 98.865141 164.073445 
L 98.89173 163.992253 
L 98.918319 163.881545 
L 98.971497 163.899453 
L 99.104441 164.192095 
L 99.184208 164.081255 
L 99.237386 164.116299 
L 99.317153 163.934435 
L 99.39692 164.010109 
L 99.450098 164.343639 
L 99.529864 164.168962 
L 99.662809 163.80636 
L 99.715987 163.993415 
L 99.848932 163.964222 
L 100.167999 165.896044 
L 100.247766 165.843969 
L 100.6466 165.239068 
L 100.673189 165.275337 
L 100.699778 165.200159 
L 100.726367 165.136379 
L 100.752956 191.756628 
L 100.779545 165.066839 
L 100.832723 165.248068 
L 100.939078 165.409263 
L 100.992256 165.309132 
L 101.072023 165.172881 
L 101.098612 165.306235 
L 101.178379 165.502806 
L 101.204968 165.449975 
L 101.364502 165.368075 
L 101.39109 165.368075 
L 101.470857 165.579586 
L 101.524035 165.515947 
L 101.736747 165.119015 
L 101.949458 164.989702 
L 102.321703 164.335891 
L 102.374881 164.449171 
L 102.40147 164.268718 
L 102.66736 163.572077 
L 102.693949 191.40526 
L 102.720538 163.508256 
L 102.773716 163.615911 
L 102.933249 163.267578 
L 102.959838 163.331813 
L 103.145961 163.34748 
L 103.278905 163.241803 
L 103.385261 163.420613 
L 103.438439 163.366782 
L 103.465028 163.32064 
L 103.491617 163.465484 
L 103.518206 163.39474 
L 103.624562 164.083255 
L 103.704329 165.807437 
L 103.757506 165.74951 
L 103.810684 165.897462 
L 103.863862 165.734681 
L 103.890451 165.676257 
L 103.91704 165.775225 
L 103.943629 165.750416 
L 104.076574 164.453972 
L 104.103163 164.492993 
L 104.156341 164.433196 
L 104.18293 164.327466 
L 104.209518 164.378848 
L 104.236107 192.938713 
L 104.315874 164.639016 
L 104.448819 164.178426 
L 104.501997 164.242326 
L 104.528586 164.277953 
L 104.555175 164.191993 
L 104.794475 163.747891 
L 104.874242 163.110146 
L 104.92742 163.272777 
L 104.954009 163.246248 
L 105.113543 162.427525 
L 105.16672 162.466055 
L 105.193309 162.431647 
L 105.326254 162.052859 
L 105.379432 162.166869 
L 105.485788 162.194295 
L 105.592144 161.94163 
L 105.618732 162.007303 
L 105.645321 161.98547 
L 105.698499 162.077306 
L 105.725088 162.208398 
L 105.778266 162.098546 
L 106.070745 161.189237 
L 106.097333 192.611774 
L 106.1771 160.887549 
L 106.389812 159.750478 
L 106.44299 159.819952 
L 106.496168 159.741449 
L 106.522757 159.594783 
L 106.602523 159.763365 
L 106.655701 159.796513 
L 106.68229 159.733802 
L 106.94818 159.335686 
L 107.001358 159.394429 
L 107.18748 159.923222 
L 107.533136 160.963871 
L 107.559725 160.980973 
L 107.639492 161.368084 
L 107.666081 190.530482 
L 107.745848 161.919165 
L 108.064915 163.995564 
L 108.118093 163.915893 
L 108.889173 165.855198 
L 108.995528 166.474922 
L 109.022117 166.460657 
L 109.075295 166.549483 
L 109.128473 166.86011 
L 109.181651 166.817716 
L 109.288007 166.450006 
L 109.341185 166.554302 
L 109.553896 167.163786 
L 109.660252 166.902826 
L 109.740019 166.979372 
L 109.766608 167.050747 
L 109.793197 166.843852 
L 109.846374 166.888023 
L 109.926141 166.803556 
L 110.165442 167.488595 
L 110.192031 167.485558 
L 110.404742 166.594371 
L 110.803576 167.733712 
L 110.96311 167.114267 
L 111.016288 167.182914 
L 111.042877 167.283113 
L 111.096055 167.111603 
L 111.282177 166.606759 
L 111.335355 166.761162 
L 111.388533 166.641081 
L 111.415122 190.923283 
L 111.494889 166.887182 
L 111.548067 166.942702 
L 111.707601 168.015671 
L 112.079846 166.979066 
L 112.159613 167.111377 
L 112.265968 167.44771 
L 112.292557 167.402959 
L 112.398913 167.75424 
L 112.47868 167.670161 
L 112.585036 167.477399 
L 112.744569 165.783832 
L 113.090226 164.888926 
L 113.169992 165.043694 
L 113.249759 167.150941 
L 113.356115 168.794996 
L 113.409293 168.330877 
L 113.648593 165.693902 
L 113.808127 163.888976 
L 113.861305 163.925717 
L 113.887894 164.145249 
L 113.941072 163.936826 
L 114.074017 163.622088 
L 114.260139 164.338662 
L 114.579206 162.080985 
L 114.605795 162.125973 
L 114.791918 161.457056 
L 114.845096 161.784282 
L 115.323697 164.429665 
L 115.376875 164.538637 
L 115.403464 164.419841 
L 115.775709 162.654673 
L 115.961832 162.069405 
L 116.041598 161.773711 
L 116.094776 161.916163 
L 116.147954 162.255937 
L 116.227721 162.026716 
L 116.387255 161.004366 
L 116.413844 160.991234 
L 116.440432 161.097015 
L 116.546788 161.915606 
L 116.599966 161.839714 
L 116.653144 161.781527 
L 116.919033 160.800083 
L 117.131745 161.43619 
L 117.211512 161.291911 
L 117.317868 161.031428 
L 117.344457 161.144329 
L 117.371046 161.199498 
L 117.424223 161.086291 
L 117.50399 160.96591 
L 117.530579 161.018902 
L 117.636935 161.283842 
L 117.690113 161.157432 
L 117.956002 159.973279 
L 118.035769 160.147605 
L 118.062358 160.270426 
L 118.115536 160.123856 
L 118.142125 160.184692 
L 118.195303 160.298381 
L 118.301659 160.678389 
L 118.487781 162.840766 
L 118.647315 164.010342 
L 118.673904 163.93821 
L 118.753671 161.864267 
L 118.966382 156.16063 
L 119.046149 156.396948 
L 119.285449 161.212055 
L 119.471572 162.558892 
L 119.498161 162.45821 
L 119.551339 161.667364 
L 119.976762 154.137272 
L 120.056529 154.404263 
L 120.428774 156.732865 
L 120.481952 156.501395 
L 120.561719 156.157287 
L 120.614897 156.244239 
L 120.801019 156.057875 
L 120.880786 156.213805 
L 120.907375 156.155392 
L 120.933964 155.855896 
L 121.013731 156.073374 
L 121.199853 157.854627 
L 121.226442 157.711903 
L 121.385976 156.211129 
L 121.651865 157.343651 
L 121.678454 157.350438 
L 121.705043 157.244606 
L 121.758221 157.632564 
L 121.917755 154.502766 
L 121.944344 154.602436 
L 121.997522 154.907643 
L 122.130466 155.324864 
L 122.183644 155.577145 
L 122.210233 155.221035 
L 122.609067 152.735786 
L 122.662245 152.67363 
L 122.821779 154.176607 
L 122.874957 153.959909 
L 122.901546 153.905561 
L 122.928135 153.957321 
L 123.03449 154.375162 
L 123.087668 154.323784 
L 123.30038 154.991818 
L 123.619447 158.114168 
L 123.725803 157.331062 
L 124.04487 151.428596 
L 124.071459 151.545286 
L 124.151226 152.234326 
L 124.337349 163.826746 
L 124.417116 164.607179 
L 124.470293 164.35412 
L 124.603238 162.641551 
L 124.842539 160.969417 
L 124.869128 160.74309 
L 124.922305 161.151502 
L 125.002072 161.816994 
L 125.05525 163.084506 
L 125.214784 158.206598 
L 125.374318 157.999539 
L 125.427495 158.449713 
L 125.56044 156.946588 
L 125.587029 156.955628 
L 125.773152 155.680094 
L 125.906096 153.331306 
L 126.012452 151.902497 
L 126.06563 152.207914 
L 126.251753 153.991024 
L 126.384697 154.719915 
L 126.650587 155.181406 
L 126.756943 154.768124 
L 126.836709 154.998822 
L 126.863298 184.276645 
L 126.943065 154.627526 
L 126.969654 154.797636 
L 127.049421 154.596244 
L 127.102599 154.468633 
L 127.129188 154.633185 
L 127.288721 155.576607 
L 127.341899 155.457906 
L 127.421666 155.191248 
L 127.448255 155.245427 
L 127.554611 155.768439 
L 127.5812 184.73772 
L 127.660967 156.065611 
L 127.714145 156.222432 
L 127.767322 156.208158 
L 127.847089 155.782628 
L 127.873678 155.280049 
L 127.926856 155.847374 
L 128.059801 158.334537 
L 128.299101 163.477848 
L 128.458635 166.098283 
L 128.618169 168.487768 
L 128.697935 168.605898 
L 128.724524 168.571038 
L 128.83088 168.046167 
L 128.884058 166.462092 
L 128.937236 167.037772 
L 129.043592 167.931102 
L 129.123359 167.873499 
L 129.176536 168.059034 
L 129.229714 169.165658 
L 129.309481 169.025435 
L 129.389248 168.761109 
L 129.415837 168.768289 
L 129.522193 169.044458 
L 129.548782 169.006584 
L 129.681726 167.869732 
L 129.708315 168.150231 
L 129.761493 169.516046 
L 129.788082 168.263425 
L 129.894438 166.676026 
L 129.921027 167.256027 
L 130.053972 170.115199 
L 130.107149 170.833978 
L 130.186916 174.491026 
L 130.240094 173.220267 
L 130.399628 169.291138 
L 130.426217 169.384415 
L 130.452806 169.316645 
L 130.559161 168.729713 
L 130.58575 168.821572 
L 131.037762 169.918217 
L 131.064351 195.628791 
L 131.144118 169.250441 
L 131.59613 167.981191 
L 131.649308 168.023126 
L 131.729075 167.670524 
L 131.755664 167.855661 
L 131.915198 168.543996 
L 131.968375 168.468289 
L 131.994964 168.436053 
L 132.021553 168.515399 
L 132.048142 168.664826 
L 132.10132 168.48331 
L 132.154498 168.34235 
L 132.526743 166.312845 
L 132.633099 165.142428 
L 132.659688 165.197163 
L 132.686277 165.286537 
L 132.819222 166.915329 
L 132.845811 200.588127 
L 132.925577 168.315103 
L 132.978755 168.698062 
L 133.031933 168.365117 
L 133.138289 166.847614 
L 133.164878 166.959422 
L 133.37759 162.472579 
L 133.537123 161.489664 
L 133.563712 161.497095 
L 133.590301 161.583747 
L 133.61689 161.470907 
L 133.803013 160.041181 
L 133.829602 160.074621 
L 133.935957 159.691866 
L 133.962546 159.760557 
L 134.12208 161.083957 
L 134.148669 161.154183 
L 134.308203 162.563106 
L 134.441147 162.641594 
L 134.547503 162.293126 
L 134.680448 162.431173 
L 134.839981 162.614604 
L 135.026104 162.178117 
L 135.13246 161.927512 
L 135.212227 162.139265 
L 135.265404 162.098351 
L 135.345171 161.511501 
L 135.398349 161.713008 
L 135.424938 161.663571 
L 135.611061 162.389267 
L 135.690828 162.647222 
L 135.744005 162.613185 
L 135.903539 163.246783 
L 135.956717 163.206915 
L 136.063073 162.932646 
L 136.196018 162.170675 
L 136.249195 162.266663 
L 136.488496 162.730773 
L 136.515085 162.602451 
L 136.541674 162.481728 
L 136.594852 162.714149 
L 136.727796 163.667886 
L 136.807563 163.622596 
L 136.967097 161.929699 
L 136.993686 188.428739 
L 137.073453 161.016309 
L 137.100042 160.965154 
L 137.365931 163.356292 
L 137.39252 163.117261 
L 137.472287 162.715647 
L 137.498876 162.884035 
L 137.605232 164.095563 
L 137.63182 163.72403 
L 137.764765 161.904258 
L 137.844532 162.717558 
L 137.871121 162.51794 
L 138.004066 160.028296 
L 138.030655 160.201068 
L 138.083833 161.34814 
L 138.163599 161.04798 
L 138.216777 160.536906 
L 138.269955 160.775795 
L 138.456078 161.548636 
L 138.482667 187.754053 
L 138.562433 161.575185 
L 138.668789 164.858084 
L 138.695378 164.61644 
L 138.721967 164.650541 
L 138.748556 164.589379 
L 139.120801 162.195786 
L 139.227157 162.256812 
L 139.280335 161.944609 
L 139.306924 162.232953 
L 139.439869 162.888326 
L 139.493047 162.945176 
L 139.625991 163.7366 
L 139.65258 189.340946 
L 139.732347 163.764074 
L 139.865292 163.298053 
L 139.971647 164.038182 
L 140.024825 163.936549 
L 140.051414 163.720359 
L 140.131181 163.767043 
L 140.210948 163.699753 
L 140.343893 163.546393 
L 140.450248 163.378747 
L 140.476837 163.488646 
L 140.503426 163.568251 
L 140.583193 163.488457 
L 140.609782 188.488724 
L 140.689549 163.674377 
L 140.716138 163.787959 
L 140.742727 163.642983 
L 140.769316 163.442197 
L 140.795905 188.277438 
L 140.875672 163.101263 
L 140.928849 163.208782 
L 141.141561 163.784931 
L 141.354273 163.029925 
L 141.380862 163.072543 
L 141.40745 162.970495 
L 141.460628 163.124535 
L 141.513806 163.180185 
L 141.646751 163.765471 
L 141.67334 163.668357 
L 141.753107 163.839032 
L 141.779696 163.729893 
L 141.91264 163.33219 
L 141.965818 163.358206 
L 141.992407 163.30437 
L 142.125352 163.122857 
L 142.231708 163.571496 
L 142.258297 163.296532 
L 142.550775 161.798885 
L 142.603953 161.881896 
L 142.92302 167.402717 
L 142.976198 167.296026 
L 143.055965 167.181785 
L 143.082554 167.327066 
L 143.375032 169.185463 
L 143.401621 191.288187 
L 143.481388 169.817016 
L 143.534566 169.915645 
L 143.587744 169.787345 
L 143.667511 169.460581 
L 143.720689 169.62388 
L 143.747277 169.668383 
L 143.880222 170.632996 
L 143.906811 170.250765 
L 143.959989 170.343936 
L 144.013167 170.68235 
L 144.039756 192.048701 
L 144.119523 170.755335 
L 144.279056 169.187939 
L 144.43859 169.401876 
L 144.598124 169.687859 
L 144.624713 169.651553 
L 144.94378 168.733871 
L 145.050136 168.786037 
L 145.076725 168.857014 
L 145.129903 168.71421 
L 145.156491 168.781826 
L 145.422381 168.76437 
L 145.44897 168.660375 
L 145.475559 168.929484 
L 145.502148 169.645526 
L 145.528737 168.74776 
L 145.581915 169.138925 
L 145.635092 169.286468 
L 145.661681 169.270156 
L 145.68827 193.364595 
L 145.768037 167.379043 
L 145.794626 167.24332 
L 145.847804 167.521027 
L 145.874393 167.781309 
L 145.95416 170.730464 
L 146.007338 170.099221 
L 146.220049 163.953344 
L 146.246638 163.766824 
L 146.273227 164.020205 
L 146.406172 166.305306 
L 146.45935 166.27696 
L 146.485939 166.246186 
L 146.751828 162.487898 
L 146.831595 162.976127 
L 146.937951 163.60696 
L 146.96454 163.563841 
L 146.991129 163.588013 
L 147.150662 163.199432 
L 147.20384 163.266646 
L 147.230429 191.171577 
L 147.310196 163.723739 
L 147.363374 163.802691 
L 147.443141 164.744076 
L 147.46973 164.702001 
L 147.576085 163.494393 
L 147.602674 163.633656 
L 147.629263 190.942411 
L 147.70903 163.66178 
L 147.815386 163.521438 
L 147.921742 163.053907 
L 147.948331 163.251301 
L 148.107864 163.735858 
L 148.187631 164.027135 
L 148.21422 163.924828 
L 148.320576 162.981866 
L 148.347165 163.646913 
L 148.45352 164.036328 
L 148.586465 166.284258 
L 148.613054 166.134148 
L 148.666232 166.136488 
L 148.745999 165.530418 
L 148.905533 163.825566 
L 148.95871 163.891288 
L 149.330956 161.096973 
L 149.384133 161.364928 
L 149.517078 161.698845 
L 149.543667 161.698845 
L 149.570256 161.899228 
L 149.623434 161.63879 
L 149.676612 161.479502 
L 149.703201 161.685259 
L 149.782968 161.861096 
L 149.836146 161.823328 
L 149.915912 161.673452 
L 149.995679 162.094428 
L 150.048857 162.009486 
L 150.075446 161.980884 
L 150.102035 162.067644 
L 150.128624 162.132871 
L 150.181802 162.02271 
L 150.288158 158.03117 
L 150.341335 158.52706 
L 150.633814 164.006184 
L 150.660403 163.980468 
L 150.74017 164.135506 
L 150.766759 164.024976 
L 150.846525 160.461462 
L 150.926292 161.431106 
L 151.192182 164.446959 
L 151.24536 164.321197 
L 151.325126 163.868806 
L 151.378304 163.933152 
L 151.48466 164.782416 
L 151.511249 164.679925 
L 151.697372 162.867435 
L 151.750549 162.904343 
L 151.777138 189.522632 
L 151.856905 164.090535 
L 151.936672 165.692655 
L 152.016439 165.30925 
L 152.122795 164.181865 
L 152.175973 164.243423 
L 152.22915 164.492905 
L 152.255739 164.152174 
L 152.335506 163.017673 
L 152.388684 163.378341 
L 152.415273 163.994091 
L 152.49504 163.587723 
L 152.787518 160.161749 
L 152.840696 159.220748 
L 152.920463 159.574099 
L 153.026819 160.669322 
L 153.053408 160.615097 
L 153.266119 157.330829 
L 153.345886 154.751975 
L 153.372475 154.923796 
L 153.585187 158.10667 
L 153.718131 157.933864 
L 153.74472 158.028237 
L 153.771309 157.966734 
L 153.851076 157.69932 
L 153.904254 157.741787 
L 154.037199 157.381358 
L 154.063788 157.531054 
L 154.223321 159.713776 
L 154.24991 159.730933 
L 154.382855 158.644877 
L 154.436033 158.78107 
L 154.489211 159.035556 
L 154.675333 159.968552 
L 154.728511 159.776833 
L 154.781689 159.453513 
L 154.808278 190.493082 
L 154.888045 160.752954 
L 154.967812 160.512214 
L 154.994401 160.528177 
L 155.127345 159.371659 
L 155.180523 159.404698 
L 155.233701 159.476938 
L 155.26029 159.359949 
L 155.313468 159.04033 
L 155.366646 159.247055 
L 155.526179 159.953923 
L 155.552768 159.913539 
L 155.818658 158.569423 
L 155.845247 158.619461 
L 156.00478 160.600668 
L 156.057958 160.928346 
L 156.137725 160.820728 
L 156.164314 160.71736 
L 156.217492 160.820586 
L 156.323848 160.882243 
L 156.377026 160.76354 
L 156.403615 160.025035 
L 156.483381 160.272502 
L 156.642915 161.035716 
L 156.722682 160.938044 
L 156.77586 160.780694 
L 156.935393 161.419091 
L 157.041749 161.333941 
L 157.068338 161.462909 
L 157.148105 161.814952 
L 157.174694 161.745227 
L 157.440583 159.110498 
L 157.52035 158.36561 
L 157.546939 158.427053 
L 157.653295 159.077288 
L 157.706473 158.971722 
L 157.812829 158.240346 
L 157.892595 158.295526 
L 157.972362 158.333369 
L 157.998951 158.793725 
L 158.078718 158.625979 
L 158.158485 158.092738 
L 158.211663 158.262345 
L 158.371196 159.125526 
L 158.424374 158.80825 
L 158.583908 157.614329 
L 158.716853 155.259529 
L 158.743442 156.126498 
L 158.849797 157.313987 
L 158.876386 157.149943 
L 159.009331 155.897896 
L 159.03592 188.997603 
L 159.115687 155.618553 
L 159.248632 155.01922 
L 159.27522 155.173572 
L 159.381576 156.854128 
L 159.54111 159.925942 
L 159.567699 160.018865 
L 159.594288 159.938329 
L 159.78041 159.483234 
L 159.860177 159.348885 
L 159.886766 159.398433 
L 159.939944 159.922077 
L 160.072889 161.783853 
L 160.126067 161.834696 
L 160.152656 161.754716 
L 160.232422 160.107202 
L 160.2856 160.466724 
L 160.338778 160.675126 
L 160.418545 160.555539 
L 160.604668 161.040044 
L 160.711023 161.267559 
L 160.950324 159.540342 
L 161.030091 159.783694 
L 161.242802 160.766706 
L 161.29598 160.672344 
L 161.375747 160.583825 
L 161.402336 160.609268 
L 161.428925 160.664436 
L 161.721403 158.501631 
L 161.747992 158.554474 
L 161.854348 159.201209 
L 161.880937 159.146289 
L 161.987293 158.809554 
L 162.093648 157.737322 
L 162.120237 157.911911 
L 162.359538 159.185935 
L 162.439305 159.094013 
L 162.598838 157.905074 
L 162.678605 157.959191 
L 163.024262 160.397194 
L 163.130617 160.276995 
L 163.263562 159.284654 
L 163.343329 159.441314 
L 163.476274 160.235131 
L 163.502863 191.749725 
L 163.582629 160.91286 
L 163.609218 160.859549 
L 163.635807 160.959027 
L 163.662396 161.022472 
L 163.742163 160.69391 
L 163.795341 160.788009 
L 164.008052 161.009041 
L 164.220764 160.383265 
L 164.273942 160.222931 
L 164.300531 160.419252 
L 164.32712 160.380026 
L 164.406887 160.206236 
L 164.433476 160.317689 
L 164.513242 160.904877 
L 164.56642 160.828053 
L 164.805721 159.211222 
L 164.83231 159.411353 
L 165.018432 159.972255 
L 165.045021 160.259214 
L 165.124788 160.09539 
L 165.177966 159.740736 
L 165.231144 160.022157 
L 165.310911 160.294098 
L 165.3375 160.225968 
L 165.443855 159.885335 
L 165.497033 159.679443 
L 165.523622 159.916581 
L 165.683156 160.420492 
L 165.84269 161.104588 
L 165.869278 161.065329 
L 166.055401 162.803291 
L 166.108579 162.311297 
L 166.214935 161.171138 
L 166.321291 161.364331 
L 166.374468 161.477135 
L 166.454235 161.453717 
L 166.534002 161.214772 
L 166.560591 161.256751 
L 166.58718 162.02427 
L 166.666947 161.711715 
L 166.853069 161.170202 
L 166.986014 162.179607 
L 167.172137 165.910977 
L 167.305081 166.674467 
L 167.384848 167.329963 
L 167.438026 167.157281 
L 167.624149 166.649775 
L 167.810271 167.478548 
L 167.83686 167.383939 
L 168.022983 166.831859 
L 168.049572 166.773897 
L 168.076161 166.986106 
L 168.129339 166.778922 
L 168.182517 166.44599 
L 168.235694 165.792446 
L 168.315461 165.807541 
L 168.528173 166.209346 
L 168.581351 165.931052 
L 168.661118 165.960772 
L 168.687706 166.009832 
L 168.714295 165.894042 
L 168.820651 165.633297 
L 168.84724 165.809556 
L 168.953596 166.022271 
L 169.006774 165.87934 
L 169.35243 165.168694 
L 169.405608 165.605974 
L 169.432197 165.278647 
L 169.591731 163.553268 
L 169.751264 162.615861 
L 169.777853 192.799625 
L 169.85762 164.190058 
L 169.963976 165.195485 
L 169.990565 169.232593 
L 170.070332 167.509797 
L 170.203276 165.641038 
L 170.229865 165.796922 
L 170.389399 167.398128 
L 170.415988 167.425848 
L 170.442577 167.382016 
L 170.495755 167.232167 
L 170.522344 167.257428 
L 170.575521 167.549387 
L 170.628699 167.418117 
L 170.868 166.216043 
L 170.974356 166.783437 
L 171.160478 165.864076 
L 171.187067 165.870868 
L 171.266834 166.854249 
L 171.346601 166.467834 
L 171.506134 166.448501 
L 171.559312 166.61808 
L 171.585901 166.528498 
L 171.692257 165.419723 
L 171.825202 164.696595 
L 171.851791 164.821941 
L 171.904969 164.750503 
L 171.931558 164.63153 
L 171.984735 164.808588 
L 172.011324 164.8665 
L 172.037913 195.678346 
L 172.11768 165.503093 
L 172.277214 165.435467 
L 172.303803 165.542238 
L 172.330392 165.260269 
L 172.356981 165.247669 
L 172.569692 164.341341 
L 172.62287 164.202102 
L 172.649459 164.350475 
L 172.676048 164.450778 
L 172.702637 164.302414 
L 172.729226 163.541403 
L 172.808993 163.705018 
L 172.941937 166.298812 
L 172.995115 167.439726 
L 173.074882 166.858338 
L 173.12806 166.140005 
L 173.261005 162.932299 
L 173.314183 162.732818 
L 173.340772 162.837262 
L 173.393949 163.174615 
L 173.420538 194.826685 
L 173.500305 162.179406 
L 173.606661 161.208796 
L 173.659839 161.382358 
L 173.819373 162.373655 
L 173.87255 162.242315 
L 173.925728 161.881091 
L 174.005495 162.023626 
L 174.218207 162.688183 
L 174.244796 162.681112 
L 174.510685 164.388806 
L 174.563863 163.904292 
L 174.617041 164.170447 
L 174.670219 164.867942 
L 174.723397 164.54531 
L 174.962697 162.646051 
L 175.228587 163.268722 
L 175.467887 160.906689 
L 175.494476 161.004932 
L 175.521065 162.659386 
L 175.600832 162.408581 
L 175.627421 162.297157 
L 175.65401 162.359952 
L 175.760365 163.528059 
L 175.840132 162.994171 
L 176.026255 163.396944 
L 176.079433 163.882215 
L 176.265555 165.868173 
L 176.3985 165.283153 
L 176.425089 165.472311 
L 176.451678 165.501079 
L 176.531445 165.904018 
L 176.584623 165.86193 
L 176.637801 165.779338 
L 176.66439 165.939783 
L 176.717567 166.072782 
L 176.744156 165.963226 
L 176.850512 164.881318 
L 176.930279 164.283805 
L 176.956868 164.457744 
L 177.222757 166.148381 
L 177.462058 163.216164 
L 177.568414 163.438251 
L 177.674769 164.764437 
L 177.701358 190.369811 
L 177.781125 165.243578 
L 177.887481 162.259761 
L 177.967248 162.825898 
L 178.312904 167.094746 
L 178.366082 167.181855 
L 178.392671 167.073259 
L 178.499027 166.574973 
L 178.525616 166.614112 
L 178.552205 166.549289 
L 178.578793 166.56249 
L 178.605382 190.585903 
L 178.631971 166.554048 
L 178.685149 167.150143 
L 178.764916 165.997018 
L 178.871272 161.777265 
L 178.951039 162.833844 
L 179.004217 163.628293 
L 179.057394 163.042823 
L 179.16375 161.35773 
L 179.270106 161.729832 
L 179.349873 162.306496 
L 179.535995 167.830896 
L 179.562584 167.897941 
L 179.615762 167.783749 
L 179.748707 166.696332 
L 179.801885 166.721166 
L 179.881652 166.849121 
L 180.17413 167.939587 
L 180.253897 167.903672 
L 180.307075 168.004156 
L 180.333664 168.186979 
L 180.413431 168.156555 
L 180.67932 166.486797 
L 180.918621 162.454512 
L 180.945209 192.213588 
L 181.024976 162.071752 
L 181.18451 162.529255 
L 181.290866 163.476827 
L 181.317455 163.414811 
L 181.450399 162.70594 
L 181.742878 163.395837 
L 181.929 161.715381 
L 182.061945 163.39503 
L 182.141712 163.094863 
L 182.381012 161.052672 
L 182.407601 161.032604 
L 182.43419 161.106601 
L 182.513957 161.34615 
L 182.540546 193.559195 
L 182.620313 160.178268 
L 182.646902 159.994935 
L 182.673491 160.395968 
L 182.726669 160.587629 
L 182.753258 160.729129 
L 182.833024 163.06572 
L 182.886202 162.888615 
L 183.019147 161.746211 
L 183.045736 161.908197 
L 183.258448 163.35248 
L 183.417981 163.040935 
L 183.471159 163.239529 
L 183.577515 163.485844 
L 183.737049 162.903333 
L 183.763637 162.966929 
L 183.94976 165.156298 
L 184.029527 164.524882 
L 184.348594 159.511381 
L 184.401772 160.59119 
L 184.481539 164.022247 
L 184.508128 163.332581 
L 184.587895 162.186557 
L 184.641073 162.513053 
L 184.906962 164.979979 
L 184.96014 164.931021 
L 185.252618 163.193368 
L 185.358974 159.976772 
L 185.385563 160.773957 
L 185.438741 161.146272 
L 185.491919 160.914119 
L 185.784397 158.948882 
L 185.837575 159.308403 
L 186.183231 162.840608 
L 186.20982 162.97129 
L 186.236409 162.879612 
L 186.422532 161.185036 
L 186.741599 165.594294 
L 187.007489 165.892907 
L 187.034078 165.905381 
L 187.193611 165.342711 
L 187.2202 165.483148 
L 187.246789 165.461475 
L 187.273378 165.583133 
L 187.379734 166.060093 
L 187.432912 165.979518 
L 187.619034 165.240402 
L 187.698801 165.335842 
L 187.831746 165.342238 
L 187.938102 165.693145 
L 187.964691 165.559928 
L 188.044457 164.970257 
L 188.097635 165.138503 
L 188.257169 165.886238 
L 188.283758 165.776126 
L 188.310347 165.785585 
L 188.336936 189.327096 
L 188.416703 165.902065 
L 188.443292 166.031387 
L 188.523058 165.890236 
L 188.549647 165.899588 
L 188.762359 165.203531 
L 188.788948 165.215682 
L 188.895304 165.823228 
L 188.97507 165.784194 
L 189.028248 165.980232 
L 189.108015 165.276564 
L 189.161193 165.429864 
L 189.400493 167.046781 
L 189.533438 167.32945 
L 189.666383 168.211242 
L 189.692972 187.290714 
L 189.772739 186.901739 
L 189.905683 167.594585 
L 189.98545 167.70603 
L 190.038628 168.148447 
L 190.065217 168.734442 
L 190.171573 176.55339 
L 190.198162 176.53457 
L 190.25134 176.764274 
L 190.277929 176.544711 
L 190.410873 166.925915 
L 190.437462 167.456537 
L 190.517229 165.734724 
L 190.570407 166.081182 
L 190.783119 171.617132 
L 190.809707 171.528795 
L 190.836296 171.492099 
L 190.916063 169.893565 
L 190.942652 185.841487 
L 191.022419 167.881069 
L 191.102186 166.923395 
L 191.128775 167.19745 
L 191.235131 169.361549 
L 191.394664 167.106606 
L 191.527609 169.426232 
L 191.580787 168.910928 
L 191.607376 168.655603 
L 191.740321 165.691808 
L 191.820087 164.932188 
L 191.873265 165.291527 
L 192.059388 170.712491 
L 192.325277 171.929289 
L 192.351866 171.697939 
L 192.458222 171.233025 
L 192.5114 171.439938 
L 192.644345 173.705594 
L 192.830467 175.978566 
L 192.857056 175.684803 
L 193.01659 166.663694 
L 193.176123 166.224798 
L 193.282479 167.143166 
L 193.415424 168.978146 
L 193.442013 168.954777 
L 193.468602 169.015901 
L 193.495191 169.10149 
L 193.52178 190.783096 
L 193.601547 167.569679 
L 193.681313 166.703947 
L 193.734491 166.915207 
L 193.76108 166.926731 
L 193.973792 168.21963 
L 194.080148 168.164898 
L 194.186503 166.557296 
L 194.213092 166.593178 
L 194.346037 167.556023 
L 194.425804 168.022569 
L 194.585337 171.399477 
L 194.744871 171.688443 
L 194.798049 171.408163 
L 194.877816 170.455624 
L 194.904405 167.297729 
L 194.957583 172.556547 
L 195.063938 180.428663 
L 195.196883 166.816201 
L 195.223472 169.363029 
L 195.27665 166.728841 
L 195.303239 166.263887 
L 195.356417 166.811024 
L 195.409595 166.291453 
L 195.436184 167.145506 
L 195.489362 166.566037 
L 195.675484 162.177783 
L 195.702073 213.723986 
L 195.78184 162.554434 
L 195.835018 162.731564 
L 195.888196 163.005611 
L 195.941374 162.756318 
L 196.100907 161.079335 
L 196.127496 161.274538 
L 196.366797 163.212705 
L 196.393386 163.234332 
L 196.473152 162.157795 
L 196.552919 160.606553 
L 196.606097 161.540205 
L 197.004931 168.346435 
L 197.111287 167.621125 
L 197.191054 166.380605 
L 197.430354 162.555915 
L 197.456943 162.679556 
L 197.510121 164.553567 
L 197.589888 164.238013 
L 197.643066 163.943663 
L 197.669655 164.014252 
L 197.829189 165.240107 
L 197.855778 165.198201 
L 197.935544 165.476791 
L 198.121667 167.843144 
L 198.174845 167.671887 
L 198.201434 167.631894 
L 198.228023 167.710271 
L 198.30779 168.067201 
L 198.54709 171.716166 
L 198.573679 171.504142 
L 198.706624 169.798003 
L 199.078869 165.119998 
L 199.132047 165.267163 
L 199.158636 165.340218 
L 199.238403 166.001617 
L 199.264992 165.745458 
L 199.397936 165.279341 
L 199.424525 165.445964 
L 199.610648 166.067282 
L 199.770181 165.392937 
L 199.876537 165.567396 
L 200.275371 170.602507 
L 200.328549 170.389837 
L 200.355138 170.26696 
L 200.488083 169.022118 
L 200.56785 168.612593 
L 200.594439 212.335498 
L 200.674206 168.527424 
L 200.780561 168.896315 
L 200.80715 168.890981 
L 200.940095 168.578203 
L 200.966684 168.586915 
L 201.046451 168.733249 
L 201.152807 170.397251 
L 201.285751 168.37175 
L 201.365518 168.405912 
L 201.551641 165.404518 
L 201.657996 166.528893 
L 201.684585 166.401718 
L 201.790941 165.832023 
L 202.030242 162.350665 
L 202.056831 203.055122 
L 202.136597 162.056924 
L 202.32272 159.90238 
L 202.455665 157.369148 
L 202.615198 159.861483 
L 202.854499 161.806085 
L 202.881088 161.781261 
L 202.934266 161.877624 
L 203.040622 162.294733 
L 203.06721 162.245723 
L 203.306511 161.488635 
L 203.492634 163.015723 
L 203.519222 162.825437 
L 203.625578 162.640457 
L 203.652167 203.154868 
L 203.678756 162.180852 
L 203.731934 162.255492 
L 203.83829 162.354698 
L 204.104179 161.059886 
L 204.130768 161.149222 
L 204.237124 161.442492 
L 204.263713 161.285888 
L 204.476424 160.599318 
L 204.689136 159.693046 
L 204.795492 201.746278 
L 204.928436 159.838477 
L 205.061381 158.944603 
L 205.274093 157.835654 
L 205.300682 157.993206 
L 205.539982 162.201819 
L 205.619749 164.946443 
L 205.672927 164.661465 
L 205.726105 164.310491 
L 205.912227 156.122398 
L 205.965405 156.133359 
L 206.045172 156.814254 
L 206.204706 157.975268 
L 206.417417 158.789189 
L 206.470595 158.901674 
L 206.922607 162.80802 
L 207.002374 162.777036 
L 207.028963 162.697164 
L 207.082141 162.851319 
L 207.241675 162.877331 
L 207.374619 162.947558 
L 207.507564 162.739921 
L 207.534153 162.758983 
L 207.61392 162.48844 
L 207.640509 162.606652 
L 207.773453 164.013668 
L 207.826631 163.581461 
L 208.039343 162.683416 
L 208.065932 162.648863 
L 208.092521 162.738191 
L 208.252054 163.320423 
L 208.35841 163.669981 
L 208.384999 163.637129 
L 208.411588 163.632305 
L 208.464766 163.932015 
L 208.517944 163.783635 
L 208.544533 163.610577 
L 208.677478 160.630438 
L 208.704066 161.153976 
L 208.8636 163.260656 
L 208.890189 163.179274 
L 208.916778 163.227484 
L 208.969956 163.106573 
L 209.102901 162.329698 
L 209.12949 162.35755 
L 209.395379 163.523761 
L 209.448557 163.446854 
L 209.501735 163.53555 
L 209.581502 163.724874 
L 209.608091 163.676626 
L 209.634679 163.333971 
L 209.714446 163.41791 
L 209.741035 163.461755 
L 209.767624 163.373522 
L 209.794213 163.377886 
L 209.820802 163.285118 
L 209.927158 164.213669 
L 209.953747 212.259736 
L 210.033514 164.300146 
L 210.086692 163.997548 
L 210.246225 160.363593 
L 210.405759 162.724319 
L 210.458937 162.27469 
L 210.61847 159.954218 
L 210.751415 160.507547 
L 210.831182 160.774678 
L 210.857771 210.720655 
L 210.937538 162.046291 
L 211.070482 162.304038 
L 211.176838 162.804281 
L 211.256605 162.71232 
L 211.309783 162.766405 
L 211.336372 162.669939 
L 211.442728 161.505294 
L 211.495906 161.634604 
L 211.575672 162.360268 
L 211.655439 162.190907 
L 211.708617 162.243461 
L 211.735206 211.491926 
L 211.814973 162.251663 
L 211.974507 162.541808 
L 212.080862 162.75836 
L 212.107451 162.737919 
L 212.13404 162.69678 
L 212.160629 162.800927 
L 212.293574 163.039852 
L 212.346752 163.004595 
L 212.453108 162.628986 
L 212.559463 161.728448 
L 212.772175 160.71007 
L 212.931708 160.565286 
L 213.197598 162.013667 
L 213.64961 154.97986 
L 213.729377 154.761923 
L 213.782555 154.810803 
L 213.809144 202.388182 
L 213.88891 156.95286 
L 213.915499 158.123486 
L 214.021855 158.001012 
L 214.075033 158.264954 
L 214.181389 158.881734 
L 214.261156 158.8244 
L 214.314334 158.919499 
L 214.340922 158.813078 
L 214.606812 157.407809 
L 214.65999 156.699179 
L 214.713168 157.1172 
L 215.085413 160.069603 
L 215.138591 160.011735 
L 215.191769 159.958073 
L 215.218358 159.981935 
L 215.377891 160.582146 
L 215.457658 160.493026 
L 215.90967 157.691829 
L 215.962848 158.039654 
L 216.042615 158.364352 
L 216.069204 158.321712 
L 216.122382 158.171578 
L 216.148971 158.242872 
L 216.228737 158.419873 
L 216.255326 203.532721 
L 216.335093 157.25166 
L 216.41486 157.587512 
L 216.600983 158.480164 
L 216.654161 158.437629 
L 216.733927 158.685055 
L 216.92005 159.248536 
L 216.946639 159.054805 
L 216.999817 158.849448 
L 217.159351 160.469528 
L 217.212528 160.669407 
L 217.265706 160.467436 
L 217.345473 160.63298 
L 217.505007 160.912176 
L 217.558185 161.048731 
L 217.744307 161.741816 
L 217.770896 161.70193 
L 217.850663 160.510466 
L 217.983608 159.745928 
L 218.010197 159.799874 
L 218.036786 159.916019 
L 218.089964 159.675028 
L 218.143141 157.268398 
L 218.196319 158.670534 
L 218.409031 159.90088 
L 218.515387 159.961285 
L 218.595153 159.674413 
L 218.648331 159.822853 
L 218.94081 160.416435 
L 218.967399 160.402347 
L 219.047165 160.327161 
L 219.100343 160.15439 
L 219.206699 158.797734 
L 219.259877 158.903437 
L 219.392822 159.287399 
L 219.446 159.263654 
L 219.472589 159.332716 
L 219.499178 159.263654 
L 219.632122 158.932171 
L 219.765067 159.590171 
L 220.030956 159.292402 
L 220.323435 157.754409 
L 220.376613 158.093592 
L 220.509557 159.703749 
L 220.562735 167.018777 
L 220.642502 166.114538 
L 220.669091 166.175646 
L 220.828625 165.00498 
L 220.988158 165.585711 
L 221.014747 165.518731 
L 221.147692 163.649383 
L 221.227459 160.521239 
L 221.280637 161.478875 
L 221.386993 162.785978 
L 221.466759 162.726667 
L 221.519937 162.715201 
L 221.679471 163.377762 
L 221.998538 161.398114 
L 222.025127 161.446632 
L 222.078305 161.464759 
L 222.21125 161.534039 
L 222.237839 161.56829 
L 222.264428 161.505337 
L 222.370783 161.250778 
L 222.397372 161.334097 
L 222.503728 161.404295 
L 222.610084 161.179061 
L 222.636673 161.238552 
L 222.71644 161.451554 
L 222.743029 161.334424 
L 222.796207 161.236403 
L 222.929151 160.748403 
L 222.95574 160.797608 
L 223.035507 160.646745 
L 223.088685 160.719281 
L 223.195041 160.890653 
L 223.248219 160.844927 
L 223.327985 160.805385 
L 223.46093 154.88178 
L 223.487519 155.073524 
L 223.833175 161.114557 
L 223.96612 160.81821 
L 224.125654 160.10185 
L 224.152243 160.222827 
L 224.178832 160.193688 
L 224.232009 160.243161 
L 224.285187 160.60492 
L 224.444721 161.404442 
L 224.47131 161.373102 
L 224.524488 159.653433 
L 224.604255 160.331285 
L 224.657433 161.122414 
L 224.684022 160.558755 
L 224.790377 158.314421 
L 224.870144 159.430856 
L 224.923322 160.597244 
L 225.082856 162.878328 
L 225.189211 160.793291 
L 225.2158 161.018788 
L 225.375334 161.01978 
L 225.401923 160.947638 
L 225.428512 161.142754 
L 225.747579 162.624971 
L 225.800757 162.568342 
L 225.827346 205.154834 
L 225.907113 156.488383 
L 225.960291 156.911431 
L 225.98688 156.392065 
L 226.013469 156.830009 
L 226.119824 161.762302 
L 226.146413 161.704839 
L 226.305947 161.285826 
L 226.332536 161.335675 
L 226.385714 161.264918 
L 226.625014 160.025433 
L 226.73137 160.439539 
L 226.784548 160.368198 
L 226.944082 159.676538 
L 226.99726 159.725857 
L 227.077026 160.327723 
L 227.130204 160.270327 
L 227.342916 159.474187 
L 227.475861 159.588474 
L 227.555627 159.486781 
L 227.661983 159.004853 
L 227.794928 158.301123 
L 227.981051 158.819738 
L 228.193762 159.393662 
L 228.24694 159.603374 
L 228.300118 159.442347 
L 228.512829 158.406153 
L 228.539418 158.505029 
L 228.645774 158.839747 
L 228.698952 158.75002 
L 228.805308 156.349169 
L 228.911664 156.892992 
L 229.044608 157.384849 
L 229.071197 157.286396 
L 229.150964 157.373049 
L 229.230731 157.261903 
L 229.25732 157.144711 
L 229.310498 157.299111 
L 229.576387 157.965081 
L 229.602976 157.864815 
L 229.735921 157.547314 
L 229.842277 157.531621 
L 229.868866 157.566488 
L 229.895454 157.45178 
L 229.948632 157.284372 
L 230.081577 156.511498 
L 230.2677 156.142452 
L 230.294289 156.175466 
L 230.507 156.396948 
L 230.586767 156.505858 
L 230.666534 156.449213 
L 230.826067 156.056591 
L 231.01219 155.813279 
L 231.118546 154.617329 
L 231.145135 154.692292 
L 231.224902 155.001005 
L 231.251491 154.926928 
L 231.331257 154.838883 
L 231.411024 155.700472 
L 231.730092 158.521275 
L 231.75668 158.476056 
L 231.809858 158.410756 
L 232.02257 157.2089 
L 232.208693 159.52809 
L 232.315048 160.298324 
L 232.394815 160.192071 
L 232.474582 160.138837 
L 232.660705 159.65216 
L 232.687294 159.678218 
L 232.713882 200.948067 
L 232.740471 159.614505 
L 232.793649 159.735627 
L 232.900005 159.327878 
L 233.059539 158.740208 
L 233.086128 158.796582 
L 233.192483 158.928879 
L 233.910385 156.068099 
L 234.04333 155.494089 
L 234.069919 155.500049 
L 234.149685 155.387946 
L 234.28263 147.657893 
L 234.309219 147.633089 
L 234.335808 147.998444 
L 234.362397 185.565275 
L 234.442164 150.764645 
L 234.734642 156.740521 
L 234.761231 156.605182 
L 234.78782 188.493289 
L 234.867587 152.696124 
L 234.894176 152.612434 
L 234.947354 152.7185 
L 235.053709 153.454167 
L 235.080298 153.426595 
L 235.133476 152.985728 
L 235.239832 135.313389 
L 235.266421 135.457826 
L 235.585488 149.489424 
L 235.612077 149.208904 
L 235.638666 149.507624 
L 235.877967 155.768277 
L 235.904556 155.730304 
L 235.957734 155.559006 
L 235.984323 155.823514 
L 236.090678 156.522932 
L 236.143856 156.471405 
L 236.170445 156.418844 
L 236.197034 156.52645 
L 236.489512 162.253757 
L 236.595868 161.491168 
L 236.755402 161.183489 
L 236.80858 161.544292 
L 236.861758 161.310437 
L 236.968113 159.745718 
L 237.04788 160.103306 
L 237.074469 160.082878 
L 237.287181 158.770488 
L 237.393537 159.527463 
L 237.420125 159.479842 
L 237.632837 157.751594 
L 237.81896 156.14899 
L 237.845549 188.139876 
L 237.872137 156.040562 
L 237.925315 156.052393 
L 237.951904 156.059831 
L 238.191205 157.352012 
L 238.217794 157.24123 
L 238.297561 157.332594 
L 238.377327 158.088025 
L 238.802751 164.936165 
L 238.882517 164.548009 
L 238.962284 163.775382 
L 239.015462 163.914654 
L 239.095229 164.6469 
L 239.148407 164.169015 
L 239.440885 155.035202 
L 239.57383 160.545609 
L 239.786541 159.206682 
L 239.919486 158.057617 
L 239.946075 157.258006 
L 240.052431 157.36635 
L 240.238553 156.88254 
L 240.265142 156.674533 
L 240.31832 156.828357 
L 240.477854 158.134487 
L 240.531032 157.931594 
L 240.610799 157.729961 
L 240.637388 157.836795 
L 240.663977 157.871637 
L 240.903277 156.021856 
L 241.115989 151.62342 
L 241.248933 151.971926 
L 241.408467 150.405985 
L 241.435056 150.568891 
L 241.488234 151.073215 
L 241.568001 150.858564 
L 241.647767 149.985832 
L 241.727534 150.210143 
L 241.754123 150.137627 
L 241.780712 150.28085 
L 241.807301 150.261846 
L 241.940246 151.042651 
L 242.020013 152.213256 
L 242.046602 154.472805 
L 242.126368 153.036873 
L 242.206135 152.630765 
L 242.445436 157.512637 
L 242.498614 157.243075 
L 242.551792 157.05053 
L 242.817681 154.500359 
L 242.950626 155.644747 
L 243.030393 156.173254 
L 243.08357 155.899975 
L 243.136748 155.681504 
L 243.216515 155.038203 
L 243.269693 155.254232 
L 243.34946 156.242687 
L 243.402638 155.668055 
L 243.508994 153.922356 
L 243.562171 160.001431 
L 243.721705 60.964211 
L 243.774883 20.583636 
L 243.85465 28.66503 
L 243.907828 31.203021 
L 243.987595 30.972349 
L 244.067361 31.039416 
L 244.09395 150.554893 
L 244.173717 30.671678 
L 244.200306 30.326535 
L 244.226895 31.956516 
L 244.253484 27.523876 
L 244.280073 28.339217 
L 244.306662 39.279864 
L 244.333251 161.716123 
L 244.439607 158.458902 
L 244.732085 161.231822 
L 244.758674 160.426789 
L 244.997974 156.538655 
L 245.077741 156.027913 
L 245.130919 156.154945 
L 245.449986 159.353618 
L 245.476575 205.186234 
L 245.556342 160.396545 
L 245.60952 159.878846 
L 245.662698 159.962002 
L 245.795643 160.622007 
L 245.955176 159.94513 
L 246.460366 163.69587 
L 246.540133 163.531959 
L 246.566722 156.379749 
L 246.646489 162.363827 
L 246.699667 163.860186 
L 246.726256 173.924976 
L 246.806023 172.838152 
L 246.885789 169.500601 
L 246.938967 169.526617 
L 246.992145 169.780206 
L 247.045323 170.401581 
L 247.204857 160.75456 
L 247.470746 157.978457 
L 247.550513 156.955041 
L 247.603691 157.381563 
L 248.029114 163.099244 
L 248.055703 163.025937 
L 248.108881 161.787422 
L 248.13547 162.056209 
L 248.241825 169.298234 
L 248.295003 169.171316 
L 248.321592 169.491467 
L 248.37477 169.062159 
L 248.454537 168.305117 
L 248.507715 168.716307 
L 248.534304 168.881946 
L 248.587482 168.572912 
L 248.614071 167.787826 
L 248.667249 168.525255 
L 248.720426 169.014412 
L 248.747015 168.955039 
L 248.773604 168.114927 
L 248.87996 155.778689 
L 248.906549 156.202828 
L 248.986316 161.003643 
L 249.039494 160.900032 
L 249.092672 161.555187 
L 249.119261 195.733829 
L 249.199027 160.664451 
L 249.518095 158.160504 
L 249.544684 158.179378 
L 249.624451 158.215606 
L 249.730806 158.69337 
L 249.810573 159.436386 
L 249.863751 159.396754 
L 249.89034 159.450297 
L 250.023285 162.473412 
L 250.049874 196.184621 
L 250.12964 161.303447 
L 250.182818 160.56468 
L 250.262585 160.639935 
L 250.342352 160.621175 
L 250.368941 160.737461 
L 250.422119 160.569053 
L 250.448708 160.47027 
L 250.528475 160.596284 
L 250.581652 160.91671 
L 250.608241 160.633051 
L 250.661419 160.055485 
L 250.767775 158.807348 
L 250.794364 197.513299 
L 250.820953 158.897494 
L 250.927309 159.502779 
L 250.980487 159.319583 
L 251.060253 158.798414 
L 251.086842 158.973834 
L 251.166609 160.936132 
L 251.246376 165.711825 
L 251.299554 165.238852 
L 251.352732 164.717309 
L 251.379321 164.826348 
L 251.512266 169.386834 
L 251.592032 167.825088 
L 251.64521 168.464718 
L 251.671799 168.462169 
L 251.778155 169.573077 
L 251.964278 173.874822 
L 252.123811 175.512043 
L 252.1504 175.491054 
L 252.363112 174.312315 
L 252.41629 174.395269 
L 252.522645 174.276055 
L 253.081013 169.858992 
L 253.134191 170.098988 
L 253.187369 170.340574 
L 253.213958 170.16596 
L 253.346903 168.370209 
L 253.400081 167.79731 
L 253.479847 167.901962 
L 253.639381 168.06817 
L 253.719148 168.619579 
L 253.745737 168.339611 
L 253.878681 165.604388 
L 253.958448 166.890336 
L 254.17116 172.147489 
L 254.197749 172.110547 
L 254.224338 172.254064 
L 254.277516 172.076073 
L 254.862472 166.626852 
L 255.101773 162.30971 
L 255.128362 162.357856 
L 255.208129 162.465868 
L 255.234718 162.424192 
L 255.261307 162.324187 
L 255.314484 162.349488 
L 255.527196 162.982775 
L 255.553785 162.956423 
L 255.580374 162.877116 
L 255.606963 162.951586 
L 255.766496 164.333701 
L 255.819674 165.015574 
L 255.846263 190.596895 
L 255.92603 166.285209 
L 255.952619 166.328687 
L 255.979208 166.25577 
L 256.138742 164.936562 
L 256.165331 165.00496 
L 256.271686 165.323597 
L 256.324864 165.226796 
L 256.378042 164.998998 
L 256.43122 165.178711 
L 256.484398 165.441194 
L 256.537576 165.373029 
L 256.670521 164.621211 
L 256.723698 164.65243 
L 256.856643 164.331696 
L 256.909821 164.492098 
L 257.016177 164.719483 
L 257.042766 164.70466 
L 257.228888 164.164608 
L 257.255477 164.02143 
L 257.282066 164.093753 
L 257.335244 164.873092 
L 257.388422 164.722466 
L 257.494778 164.231638 
L 257.547956 164.598815 
L 257.601134 165.135636 
L 257.627723 194.994334 
L 257.707489 184.814127 
L 257.734078 187.990483 
L 257.813845 186.059106 
L 257.840434 186.101662 
L 257.867023 185.435743 
L 257.893612 194.059172 
L 257.94679 184.694435 
L 257.973379 184.709467 
L 257.999968 184.75447 
L 258.106324 185.241051 
L 258.132912 185.152772 
L 258.265857 186.094811 
L 258.292446 186.083438 
L 258.531747 184.423289 
L 258.558336 184.451247 
L 258.584924 192.17342 
L 258.664691 184.909093 
L 258.717869 184.95204 
L 258.771047 185.253456 
L 258.824225 185.200765 
L 259.223059 182.601376 
L 259.276237 182.265561 
L 259.356004 182.434297 
L 259.46236 190.54705 
L 259.488949 188.505582 
L 259.515538 186.270888 
L 259.542126 198.861075 
L 259.595304 182.739245 
L 259.887783 165.637474 
L 259.940961 163.062887 
L 259.994138 163.715651 
L 260.286617 172.476948 
L 260.313206 172.353776 
L 260.339795 171.864068 
L 260.392973 172.126242 
L 260.499328 178.398161 
L 260.552506 184.283106 
L 260.579095 177.131989 
L 260.605684 164.466243 
L 260.658862 180.887346 
L 260.685451 192.939919 
L 260.738629 188.78978 
L 260.791807 165.411265 
L 260.871574 167.318512 
L 260.898163 167.423326 
L 260.95134 165.41199 
L 260.977929 196.935942 
L 261.004518 163.991757 
L 261.057696 164.16637 
L 261.21723 165.314985 
L 261.243819 165.110917 
L 261.296997 172.274652 
L 261.376764 176.917436 
L 261.403353 176.454319 
L 261.429941 174.294687 
L 261.509708 176.075156 
L 261.562886 176.365261 
L 261.616064 176.264136 
L 261.72242 175.444082 
L 261.749009 175.461476 
L 261.855365 175.064106 
L 262.147843 173.955711 
L 262.254199 173.937019 
L 262.307377 173.850926 
L 262.440321 174.768359 
L 262.493499 179.032165 
L 262.546677 177.698472 
L 262.653033 169.02726 
L 262.679622 169.463702 
L 262.706211 169.469526 
L 262.759389 167.93936 
L 263.23799 152.552408 
L 263.530468 151.808387 
L 263.557057 151.800904 
L 263.663413 152.239408 
L 263.716591 152.194958 
L 263.822946 151.470475 
L 263.849535 151.485943 
L 263.929302 151.65667 
L 263.955891 151.452422 
L 264.062247 151.335177 
L 264.115425 151.591915 
L 264.168603 151.503178 
L 264.221781 151.444473 
L 264.274958 151.520715 
L 264.301547 151.727883 
L 264.354725 151.518482 
L 264.381314 151.473368 
L 264.407903 151.584317 
L 264.594026 151.935183 
L 264.780148 151.116785 
L 264.913093 151.086728 
L 264.939682 150.95045 
L 265.019449 151.020794 
L 265.072627 151.093505 
L 265.125805 151.054605 
L 265.285338 151.295085 
L 265.311927 151.243761 
L 265.630995 150.95637 
L 265.710761 151.001443 
L 265.73735 205.535851 
L 265.817117 150.687053 
L 266.109596 151.021375 
L 266.189362 151.031478 
L 266.402074 152.086265 
L 266.614785 152.73887 
L 266.694552 152.592832 
L 266.721141 152.51564 
L 266.74773 152.623188 
L 266.774319 152.714489 
L 266.800908 152.646943 
L 266.907264 151.13262 
L 266.933853 206.198895 
L 267.01362 151.399579 
L 267.066797 151.431502 
L 267.146564 151.920695 
L 267.226331 151.799383 
L 267.332687 152.126922 
L 267.439043 152.042772 
L 267.545398 151.747516 
L 267.571987 151.953082 
L 267.651754 152.201121 
L 267.704932 152.065654 
L 267.731521 151.71658 
L 267.75811 206.852396 
L 267.837877 151.326534 
L 268.130355 150.257644 
L 268.183533 150.388316 
L 268.236711 150.442891 
L 268.2633 150.391332 
L 268.422834 150.004481 
L 268.476011 149.436511 
L 268.555778 149.527613 
L 268.901435 150.673639 
L 268.928024 150.633405 
L 269.140735 150.79191 
L 269.406625 149.866919 
L 269.433213 149.877317 
L 269.592747 150.574865 
L 269.619336 150.312122 
L 269.699103 150.454696 
L 269.805459 150.904308 
L 269.885225 150.219409 
L 269.911814 206.97304 
L 269.991581 149.676765 
L 270.01817 149.56031 
L 270.097937 149.601624 
L 270.204293 150.255222 
L 270.230882 150.056656 
L 270.310649 149.887815 
L 270.470182 149.349289 
L 270.52336 149.484412 
L 270.629716 149.831901 
L 270.682894 149.676203 
L 270.815839 148.77655 
L 270.922194 149.00426 
L 270.975372 149.220686 
L 271.108317 149.572221 
L 271.134906 149.502101 
L 271.214673 149.156714 
L 271.321028 148.275871 
L 271.374206 148.580865 
L 271.613507 150.014475 
L 271.640096 149.93223 
L 271.746452 149.257039 
L 271.799629 149.351591 
L 271.879396 149.628222 
L 271.932574 149.487647 
L 272.118697 149.65331 
L 272.251641 150.343027 
L 272.27823 202.118065 
L 272.357997 150.19799 
L 272.411175 150.185091 
L 272.517531 149.916093 
L 272.570709 150.025506 
L 272.942954 151.94128 
L 273.368377 156.858883 
L 273.394966 156.829683 
L 273.740622 154.345349 
L 273.767211 210.902226 
L 273.846978 153.53797 
L 273.979923 153.217962 
L 274.352168 154.903348 
L 274.485113 155.414999 
L 274.511702 155.400366 
L 274.56488 155.469867 
L 274.591468 208.482243 
L 274.671235 155.929795 
L 274.80418 156.420337 
L 274.830769 156.353345 
L 275.495493 153.668812 
L 275.522082 208.171951 
L 275.575259 153.388575 
L 275.601848 153.396046 
L 275.628437 153.355185 
L 275.655026 153.402103 
L 275.841149 154.004203 
L 275.894327 153.89657 
L 275.974094 154.016839 
L 276.239983 154.851924 
L 276.266572 208.033851 
L 276.346339 154.315219 
L 276.479283 154.282834 
L 276.55905 154.476537 
L 276.612228 154.977784 
L 276.691995 154.842843 
L 276.718584 154.788065 
L 276.745173 154.94746 
L 276.771762 154.900444 
L 276.82494 155.092301 
L 276.878118 154.95738 
L 277.144007 154.330014 
L 277.170596 154.315039 
L 277.197185 154.388265 
L 277.356719 154.478918 
L 277.436485 154.114869 
L 277.463074 208.791733 
L 277.542841 153.696388 
L 277.675786 154.113143 
L 277.702375 154.237722 
L 277.755553 154.120091 
L 277.782142 154.063559 
L 277.915086 153.287028 
L 277.941675 153.331723 
L 277.968264 153.367879 
L 277.994853 153.226463 
L 278.101209 151.999278 
L 278.234154 152.057515 
L 278.260743 152.082117 
L 278.367098 151.079952 
L 278.606399 147.893664 
L 278.659577 147.901547 
L 278.712755 147.757098 
L 278.739344 147.93142 
L 278.872288 148.79836 
L 278.925466 148.621224 
L 279.164767 147.263114 
L 279.191356 147.320131 
L 279.244534 147.423573 
L 279.271123 147.884381 
L 279.350889 147.555963 
L 279.802901 145.209283 
L 279.82949 207.160772 
L 279.909257 145.527305 
L 280.068791 146.901334 
L 280.09538 146.692611 
L 280.175147 160.110615 
L 280.228325 180.124823 
L 280.281502 171.984544 
L 280.441036 157.437663 
L 280.627159 156.110627 
L 280.653748 156.058254 
L 280.893048 158.634732 
L 280.946226 158.003973 
L 281.052582 156.939057 
L 281.079171 157.578145 
L 281.185526 158.455313 
L 281.318471 160.857064 
L 281.424827 160.22885 
L 281.504594 160.283588 
L 281.584361 160.888121 
L 281.61095 160.704702 
L 281.637539 160.243406 
L 281.743894 178.117999 
L 281.770483 176.942284 
L 281.823661 184.09956 
L 281.930017 192.786394 
L 281.956606 192.353741 
L 282.275673 185.694144 
L 282.35544 186.148083 
L 282.621329 194.046393 
L 282.647918 194.089763 
L 282.887219 201.351155 
L 283.020164 201.101397 
L 283.206286 196.524343 
L 283.259464 206.630382 
L 283.418998 159.88455 
L 283.445587 155.711202 
L 283.498765 162.715185 
L 283.658298 166.830478 
L 283.738065 166.519751 
L 283.764654 166.876415 
L 283.791243 167.113558 
L 283.87101 168.796283 
L 283.897599 168.41421 
L 284.003954 165.218707 
L 284.030543 165.87008 
L 284.11031 165.552505 
L 284.163488 165.641572 
L 284.190077 165.688514 
L 284.216666 165.521131 
L 284.323022 165.76989 
L 284.828212 157.962644 
L 284.907979 158.422422 
L 285.014334 160.196851 
L 285.466346 167.675137 
L 285.492935 166.147979 
L 285.705647 161.263474 
L 285.732236 161.198931 
L 285.758825 161.291811 
L 285.918358 162.961399 
L 286.077892 166.114538 
L 286.184248 165.753042 
L 286.237426 165.808581 
L 286.290604 165.358241 
L 286.423548 159.605611 
L 286.450137 159.408813 
L 286.503315 159.47335 
L 286.716027 161.842827 
L 286.87556 165.223685 
L 286.955327 167.336993 
L 287.035094 171.525621 
L 287.088272 170.483453 
L 287.168039 167.323476 
L 287.274395 149.112994 
L 287.300983 149.16871 
L 287.354161 149.129838 
L 287.407339 151.20328 
L 287.726407 162.307042 
L 287.832762 168.475204 
L 287.88594 177.004742 
L 287.939118 171.074726 
L 288.15183 160.848605 
L 288.178419 160.863487 
L 288.284774 162.325192 
L 288.311363 218.256364 
L 288.39113 165.438899 
L 288.470897 168.100512 
L 288.524075 174.260465 
L 288.577253 173.146396 
L 288.763375 160.550574 
L 288.789964 161.051038 
L 289.082443 164.256321 
L 289.348332 174.910991 
L 289.374921 175.217297 
L 289.428099 174.55129 
L 289.9067 166.921022 
L 290.039645 167.781396 
L 290.092823 167.269413 
L 290.278945 165.567796 
L 290.358712 165.86287 
L 290.438479 165.531662 
L 290.465068 165.558683 
L 290.544835 165.89095 
L 290.598012 165.813256 
L 290.624601 165.986537 
L 290.677779 165.711212 
L 290.757546 166.101646 
L 290.784135 166.31632 
L 290.810724 193.320242 
L 290.890491 166.140482 
L 290.91708 166.137009 
L 290.943669 166.366663 
L 291.023436 166.273302 
L 291.129791 165.928892 
L 291.15638 166.245081 
L 291.236147 166.053154 
L 291.289325 165.973475 
L 291.395681 165.604312 
L 291.42227 165.680412 
L 291.608392 166.023565 
L 291.767926 165.684807 
L 291.794515 165.780051 
L 291.92746 166.072067 
L 292.060404 165.884494 
L 292.193349 166.094723 
L 292.326294 165.953733 
L 292.485827 166.313617 
L 292.645361 164.861806 
L 292.698539 165.398706 
L 292.751717 165.417213 
L 292.884662 165.79343 
L 292.991017 166.162005 
L 293.097373 165.967139 
L 293.203729 165.758997 
L 293.230318 165.896481 
L 293.310085 165.736195 
L 293.336674 165.800618 
L 293.363263 165.636975 
L 293.389852 165.54157 
L 293.443029 165.678636 
L 293.496207 165.603334 
L 293.549385 165.477641 
L 293.575974 165.496808 
L 293.735508 166.129915 
L 293.788686 166.206242 
L 293.841864 166.101486 
L 293.948219 165.99233 
L 293.974808 166.070176 
L 294.107753 166.735744 
L 294.347054 167.955923 
L 294.400231 168.133255 
L 294.42682 211.370282 
L 294.506587 168.524904 
L 294.533176 168.505905 
L 294.612943 169.069102 
L 294.666121 168.990008 
L 294.69271 168.959135 
L 294.772477 168.186112 
L 294.878832 168.351913 
L 294.985188 168.386632 
L 295.171311 167.077833 
L 295.277667 167.281624 
L 295.304255 167.389247 
L 295.357433 167.218392 
L 295.384022 167.266051 
L 295.516967 166.634765 
L 295.676501 166.189779 
L 295.70309 166.223963 
L 295.729679 166.200473 
L 295.782856 165.685886 
L 295.836034 165.900762 
L 295.862623 165.932108 
L 295.889212 165.837145 
L 295.94239 165.534506 
L 296.022157 165.664529 
L 296.181691 165.063994 
L 296.20828 164.81847 
L 296.288046 164.878021 
L 296.44758 165.937448 
L 296.899592 167.506835 
L 296.95277 167.298181 
L 297.112304 166.846879 
L 297.165482 174.6939 
L 297.19207 171.051685 
L 297.245248 154.765143 
L 297.325015 155.139117 
L 297.511138 156.122209 
L 297.644083 156.426972 
L 297.69726 156.532195 
L 297.777027 156.324331 
L 297.883383 156.622159 
L 297.96315 154.70203 
L 298.016328 131.003053 
L 298.069506 152.83906 
L 298.096095 162.006358 
L 298.175861 157.755798 
L 298.229039 154.343858 
L 298.335395 154.471619 
L 298.361984 155.436234 
L 298.521518 165.403049 
L 298.760818 162.647323 
L 298.813996 162.964575 
L 299.053297 164.2406 
L 299.079885 164.214605 
L 299.239419 163.572847 
L 299.345775 162.926424 
L 299.452131 163.129828 
L 299.611664 163.381763 
L 299.638253 163.273748 
L 299.664842 163.444416 
L 299.744609 163.920455 
L 299.824376 163.658878 
L 299.957321 163.312585 
L 300.037087 162.857858 
L 300.063676 162.961688 
L 300.143443 163.528698 
L 300.170032 163.516865 
L 300.196621 180.642292 
L 300.276388 162.775322 
L 300.622044 161.586112 
L 300.648633 161.328342 
L 300.675222 182.417823 
L 300.701811 161.024158 
L 300.754989 161.246058 
L 300.914523 162.534058 
L 301.366535 164.71722 
L 301.393124 164.474597 
L 301.659013 162.702809 
L 301.73878 162.935634 
L 301.818547 163.720073 
L 302.217381 169.299836 
L 302.297148 169.264477 
L 302.456681 168.598179 
L 302.48327 177.941013 
L 302.563037 168.372283 
L 302.616215 168.412319 
L 302.642804 168.321443 
L 302.722571 167.961936 
L 302.775749 168.029254 
L 302.961871 168.373183 
L 302.98846 168.324566 
L 303.041638 168.149136 
L 303.094816 177.979163 
L 303.147994 167.638149 
L 303.174583 167.677941 
L 303.201172 167.52207 
L 303.25435 167.455208 
L 303.307527 167.521057 
L 303.360705 167.564579 
L 303.600006 168.340495 
L 303.626595 168.384253 
L 303.653184 168.249515 
L 303.75954 168.156895 
L 303.945662 169.113797 
L 303.972251 169.146103 
L 303.99884 169.024389 
L 304.344496 166.115506 
L 304.371085 166.1361 
L 304.477441 165.957424 
L 304.610386 166.375645 
L 304.636975 166.221129 
L 304.716741 166.305172 
L 304.796508 166.501799 
L 304.876275 166.391959 
L 305.24852 165.493187 
L 305.301698 165.556178 
L 305.354876 165.505043 
L 305.647355 164.691998 
L 305.700532 164.760952 
L 305.806888 165.047138 
L 305.860066 164.737686 
L 305.939833 164.894931 
L 306.046189 165.287375 
L 306.099367 165.136379 
L 306.125955 165.157611 
L 306.152544 165.114766 
L 306.205722 164.939375 
L 306.232311 165.005245 
L 306.365256 165.231271 
L 306.418434 165.478884 
L 306.551379 165.794407 
L 306.657734 165.393513 
L 306.817268 164.333745 
L 306.843857 164.35555 
L 307.02998 164.727207 
L 307.056569 164.749469 
L 307.083157 177.868196 
L 307.162924 165.034964 
L 307.189513 165.011036 
L 307.216102 177.453992 
L 307.295869 164.897401 
L 307.402225 164.765848 
L 307.561758 164.346576 
L 307.668114 164.612287 
L 307.721292 164.541028 
L 307.77447 164.403199 
L 307.827648 164.471138 
L 308.27966 164.361249 
L 308.359427 164.317807 
L 308.492371 164.871149 
L 308.598727 164.977253 
L 308.758261 164.867452 
L 308.944384 165.040063 
L 308.970972 164.99441 
L 309.103917 164.831354 
L 309.210273 164.810485 
L 309.635696 164.033885 
L 309.742052 163.947002 
L 309.901585 164.590714 
L 309.954763 164.525307 
L 310.007941 164.371805 
L 310.061119 164.506304 
L 310.114297 164.484432 
L 310.327009 164.99807 
L 310.53972 164.324373 
L 310.566309 164.590714 
L 310.592898 164.769317 
L 310.672665 164.725757 
L 310.80561 164.130918 
L 310.911965 164.329574 
L 310.938554 164.462213 
L 310.991732 164.239168 
L 311.071499 164.216022 
L 311.04491 164.282751 
L 311.098088 164.237004 
L 311.204444 164.324612 
L 311.310799 164.594191 
L 311.337388 164.44167 
L 311.390566 164.201931 
L 311.496922 163.631258 
L 311.5501 163.784349 
L 311.709634 165.185609 
L 311.736223 167.041682 
L 311.7894 103.420746 
L 311.815989 32.142657 
L 311.869167 115.764332 
L 311.948934 171.369021 
L 312.002112 170.636416 
L 312.135057 171.074822 
L 312.188235 170.769861 
L 312.400946 165.759605 
L 312.640247 164.026858 
L 312.666836 163.969311 
L 312.79978 163.486811 
L 312.879547 163.457788 
L 312.906136 163.554197 
L 313.039081 163.994062 
L 313.092259 163.828552 
L 313.198614 163.611735 
L 313.331559 163.153564 
L 313.358148 163.238786 
L 313.384737 163.411388 
L 313.411326 163.256398 
L 313.437915 162.992996 
L 313.491093 152.410145 
L 313.517682 162.983122 
L 313.624038 170.741338 
L 313.650627 170.254518 
L 313.783571 163.603313 
L 313.943105 160.281314 
L 314.049461 161.045486 
L 314.208994 158.455562 
L 314.235583 158.353586 
L 314.341939 157.087107 
L 314.421706 160.748431 
L 314.474884 160.2443 
L 314.554651 162.060469 
L 314.58124 160.860941 
L 314.767362 156.921558 
L 314.82054 156.952928 
L 314.847129 156.999379 
L 315.033252 158.612024 
L 315.059841 158.610071 
L 315.432086 156.461537 
L 315.485264 156.27676 
L 315.538441 156.470754 
L 315.591619 156.372954 
L 315.990454 155.233106 
L 316.043631 155.521663 
L 316.149987 156.449539 
L 316.203165 156.249202 
L 316.256343 155.820496 
L 316.282932 193.168717 
L 316.309521 155.305625 
L 316.362699 157.332047 
L 316.522232 159.249605 
L 316.57541 159.423325 
L 316.628588 159.244121 
L 316.788122 157.540695 
L 316.814711 157.568476 
L 316.894478 157.185177 
L 317.107189 155.471791 
L 317.213545 155.737935 
L 317.240134 155.678962 
L 317.34649 155.723118 
L 317.399668 155.811592 
L 317.452845 155.777807 
L 317.532612 155.590758 
L 317.58579 155.14593 
L 317.638968 155.51651 
L 317.665557 155.593338 
L 317.692146 156.034118 
L 317.771913 155.904346 
L 317.825091 155.912884 
L 317.958035 155.32454 
L 318.436636 156.300582 
L 318.675937 152.180267 
L 318.755704 123.922542 
L 318.808882 130.618775 
L 318.83547 129.721876 
L 318.995004 174.651718 
L 318.941826 128.891949 
L 319.074771 166.01266 
L 319.234305 163.247247 
L 319.34066 160.772354 
L 319.526783 167.304215 
L 319.553372 167.477158 
L 319.60655 167.31328 
L 319.739495 166.227976 
L 319.792672 166.59484 
L 319.925617 167.654872 
L 320.058562 171.790494 
L 320.085151 211.895904 
L 320.164918 172.686228 
L 320.324451 172.842229 
L 320.430807 173.245166 
L 320.457396 174.259052 
L 320.510574 172.223724 
L 320.563752 171.135768 
L 320.61693 171.782684 
L 320.670108 171.851792 
L 320.696697 171.818168 
L 320.776463 171.329964 
L 320.85623 171.467634 
L 320.962586 172.305358 
L 321.015764 172.148203 
L 321.068942 172.256257 
L 321.281653 172.819394 
L 321.308242 172.663788 
L 321.441187 172.473822 
L 321.494365 172.664012 
L 321.520954 172.715427 
L 321.600721 172.649204 
L 321.707076 172.014077 
L 321.786843 172.223375 
L 322.079322 173.441274 
L 322.132499 173.042624 
L 322.292033 172.648071 
L 322.478156 172.758276 
L 322.504745 205.890039 
L 322.584512 173.108672 
L 322.6111 173.189655 
L 322.664278 173.025662 
L 322.717456 172.906847 
L 322.823812 172.239481 
L 322.87699 172.389064 
L 323.169468 173.557351 
L 323.249235 173.685808 
L 323.329002 173.854336 
L 323.355591 173.750992 
L 323.62148 172.998682 
L 323.701247 173.523791 
L 323.754425 173.433565 
L 323.781014 173.403767 
L 323.88737 172.824515 
L 323.993726 173.035483 
L 324.339382 171.610231 
L 324.419149 173.961192 
L 324.445738 173.863342 
L 324.605271 168.734468 
L 324.764805 164.449509 
L 324.924339 160.760458 
L 324.950927 160.637323 
L 325.004105 160.69843 
L 325.163639 161.779514 
L 325.296584 162.51265 
L 325.64224 160.993104 
L 325.722007 161.163397 
L 325.775185 161.061908 
L 325.961307 160.297495 
L 326.041074 160.029938 
L 326.067663 160.256227 
L 326.14743 160.760826 
L 326.227197 161.591976 
L 326.306964 162.532965 
L 326.360142 162.281063 
L 326.413319 161.697523 
L 326.493086 161.889749 
L 326.785565 162.999183 
L 326.838742 162.898455 
L 326.89192 162.744489 
L 326.945098 162.857757 
L 327.024865 162.91127 
L 327.078043 162.655845 
L 327.104632 204.339853 
L 327.184399 161.96023 
L 327.210988 161.995816 
L 327.237577 161.888311 
L 327.264166 161.882182 
L 327.476877 161.792538 
L 327.609822 162.24253 
L 327.636411 162.23615 
L 327.9023 163.182573 
L 327.928889 163.02195 
L 328.008656 162.854266 
L 328.061834 162.935845 
L 328.380901 162.887446 
L 328.513846 162.628353 
L 328.540435 162.675391 
L 328.699969 163.03699 
L 328.726557 204.937092 
L 328.753146 163.00837 
L 328.806324 163.137421 
L 328.939269 162.942413 
L 328.965858 162.995948 
L 329.019036 162.948289 
L 329.045625 204.950326 
L 329.098803 162.828797 
L 329.125392 162.929941 
L 329.151981 163.048031 
L 329.205158 162.904805 
L 329.524226 162.078108 
L 329.550815 162.192556 
L 329.577404 161.991811 
L 329.630582 162.106512 
L 329.790115 162.26609 
L 329.816704 162.158984 
L 329.896471 162.26609 
L 329.976238 162.374163 
L 330.029416 162.326254 
L 330.109183 162.142009 
L 330.16236 162.17912 
L 330.375072 162.74652 
L 330.401661 162.68714 
L 330.534606 162.363736 
L 330.694139 163.138087 
L 330.720728 163.128454 
L 330.827084 162.291692 
L 330.853673 162.333802 
L 330.906851 162.5727 
L 331.039796 163.281621 
L 331.092973 163.091446 
L 331.225918 162.417241 
L 331.252507 162.422569 
L 331.279096 162.475826 
L 331.305685 162.283817 
L 331.43863 161.925911 
L 331.465219 161.974092 
L 331.651341 161.682735 
L 331.67793 161.73638 
L 331.864053 162.588187 
L 331.94382 162.48179 
L 332.023586 162.727071 
L 332.050175 162.667765 
L 332.156531 162.249312 
L 332.18312 162.290826 
L 332.262887 162.534901 
L 332.289476 203.642113 
L 332.369243 162.808236 
L 332.502187 162.174133 
L 332.608543 162.037462 
L 332.768077 163.290926 
L 332.901022 164.601911 
L 332.927611 201.754854 
L 333.007377 164.060789 
L 333.273267 161.274405 
L 333.326445 161.334893 
L 333.406212 161.740903 
L 333.459389 161.635317 
L 333.539156 161.618941 
L 333.592334 161.522762 
L 333.618923 161.611089 
L 333.69869 161.852582 
L 333.805046 162.684741 
L 333.858224 162.631226 
L 334.257058 163.698895 
L 334.310236 163.523601 
L 334.44318 163.551539 
L 334.682481 164.074029 
L 334.788837 164.014947 
L 334.842014 163.792714 
L 334.921781 163.890025 
L 335.028137 163.847844 
L 335.161082 163.280656 
L 335.21426 163.234665 
L 335.347204 163.77625 
L 335.400382 164.862404 
L 335.533327 167.56236 
L 335.799216 171.160547 
L 335.878983 171.0799 
L 335.905572 171.06553 
L 335.932161 171.139603 
L 336.144873 171.648174 
L 336.171462 171.69247 
L 336.22464 171.588797 
L 336.330995 171.366645 
L 336.357584 171.45393 
L 336.46394 171.255484 
L 336.490529 205.29068 
L 336.517118 171.24038 
L 336.570296 171.431629 
L 336.650063 171.534975 
L 336.676652 171.483421 
L 336.703241 171.387168 
L 336.756418 171.45393 
L 336.889363 172.09448 
L 336.915952 204.658547 
L 336.995719 172.057681 
L 337.102075 171.681343 
L 337.128664 171.725312 
L 337.314786 172.12767 
L 337.341375 172.082828 
L 337.47432 171.036802 
L 337.500909 205.887495 
L 337.554087 170.563814 
L 337.580676 170.674274 
L 337.793387 171.085757 
L 337.846565 171.367962 
L 337.899743 171.100004 
L 337.952921 170.983448 
L 337.97951 205.513663 
L 338.059277 171.230464 
L 338.112455 171.391953 
L 338.192221 171.27485 
L 338.245399 171.349158 
L 338.271988 171.273137 
L 338.404933 171.413237 
L 338.511289 171.106025 
L 338.617644 171.194894 
L 338.750589 171.519022 
L 338.777178 171.484362 
L 338.803767 171.435928 
L 338.830356 171.602963 
L 338.910123 171.803953 
L 338.98989 172.255351 
L 339.043068 172.128749 
L 339.282368 169.011096 
L 339.308957 203.608286 
L 339.335546 168.59799 
L 339.388724 168.919945 
L 339.521669 169.477245 
L 339.574846 169.422763 
L 339.601435 169.431237 
L 339.707791 168.60252 
L 339.73438 204.260174 
L 339.814147 168.454004 
L 339.840736 168.498562 
L 339.893914 168.372237 
L 340.00027 168.151874 
L 340.053447 168.222599 
L 340.133214 168.67435 
L 340.23957 167.628353 
L 340.266159 203.906743 
L 340.292748 166.900198 
L 340.345926 166.951838 
L 340.372515 166.928739 
L 340.399104 167.051971 
L 340.611815 169.348558 
L 340.638404 169.312755 
L 340.691582 169.180619 
L 340.74476 169.261953 
L 340.771349 169.31354 
L 340.851116 169.676003 
L 340.904294 169.58874 
L 340.930883 169.70618 
L 340.98406 169.601693 
L 341.010649 169.548226 
L 341.170183 168.977608 
L 341.24995 168.672015 
L 341.276539 168.818033 
L 341.382895 169.276847 
L 341.436072 169.546127 
L 341.48925 169.458181 
L 341.542428 169.338089 
L 341.569017 169.501953 
L 341.595606 204.593752 
L 341.675373 170.08545 
L 341.808318 170.214854 
L 341.834907 170.171834 
L 341.861496 170.30482 
L 341.914673 170.384168 
L 342.393274 172.363605 
L 342.552808 173.761214 
L 342.685753 174.423654 
L 342.738931 174.42367 
L 342.76552 174.530174 
L 342.792109 174.437451 
L 342.845286 174.184139 
L 342.871875 201.375043 
L 342.925053 173.927434 
L 342.951642 173.949005 
L 342.978231 173.881258 
L 343.031409 173.949005 
L 343.27071 174.575079 
L 343.297299 201.345318 
L 343.377065 174.22356 
L 343.7759 169.049495 
L 343.829077 169.188569 
L 343.855666 205.071705 
L 343.935433 170.624841 
L 344.227912 169.536495 
L 344.281089 169.55826 
L 344.467212 170.866672 
L 344.493801 170.577764 
L 344.600157 169.555867 
L 344.626746 169.761731 
L 344.786279 171.09208 
L 344.812868 170.917887 
L 344.919224 169.769318 
L 344.972402 170.29717 
L 345.105347 172.150774 
L 345.185114 171.546863 
L 345.583948 165.898487 
L 345.903015 167.386062 
L 345.663714 165.853034 
L 345.929604 167.285787 
L 345.982782 165.057767 
L 346.009371 166.182385 
L 346.115727 168.480318 
L 346.142315 168.10115 
L 346.301849 165.976537 
L 346.355027 166.367936 
L 346.461383 167.580417 
L 346.620916 168.170741 
L 346.647505 168.074194 
L 346.674094 168.184052 
L 346.78045 168.794961 
L 346.833628 168.474899 
L 346.939984 168.174957 
L 346.993162 167.427066 
L 347.019751 167.107554 
L 347.126106 170.147597 
L 347.338818 164.523283 
L 347.391996 164.332574 
L 347.418585 164.663947 
L 347.471763 165.312738 
L 347.684474 169.350581 
L 347.711063 169.382027 
L 347.764241 169.068922 
L 347.817419 169.198335 
L 347.897186 169.31642 
L 348.003542 169.005294 
L 348.03013 169.026355 
L 348.056719 169.139801 
L 348.083308 168.95214 
L 348.322609 167.997533 
L 348.349198 167.964654 
L 348.375787 168.084892 
L 348.721443 168.932429 
L 348.880977 168.730662 
L 348.960743 168.763207 
L 348.987332 168.71624 
L 349.093688 168.427559 
L 349.120277 168.474502 
L 349.146866 168.551695 
L 349.226633 168.483753 
L 349.279811 168.438438 
L 349.3064 168.50981 
L 349.332989 168.558143 
L 349.359578 202.933845 
L 349.439344 169.000183 
L 350.130657 171.551451 
L 350.157246 171.470738 
L 350.529491 170.062725 
L 350.55608 170.110649 
L 350.609258 169.873174 
L 350.662436 169.97565 
L 350.742203 170.127913 
L 350.768792 170.07624 
L 350.875147 169.845566 
L 350.901736 169.887322 
L 351.06127 170.894726 
L 351.141037 172.330515 
L 351.194215 172.103763 
L 351.273982 171.971629 
L 351.406926 171.313973 
L 351.513282 171.366629 
L 351.646227 171.631018 
L 351.725994 171.287082 
L 351.779171 171.32923 
L 351.965294 171.772843 
L 351.991883 171.763897 
L 352.124828 172.319968 
L 352.178006 172.263274 
L 352.390717 172.000624 
L 352.443895 172.110743 
L 352.497073 172.199713 
L 352.550251 171.950839 
L 352.603429 172.029687 
L 352.630018 172.057823 
L 352.656607 171.925316 
L 352.709785 172.067796 
L 352.762962 172.189012 
L 352.869318 171.653415 
L 352.869318 171.653415 
" style="fill:none;stroke:#1f77b4;stroke-linecap:square;stroke-width:1.5;"/>
   </g>
   <g id="patch_3">
    <path d="M 33.2875 228.14 
L 33.2875 10.7 
" style="fill:none;stroke:#000000;stroke-linecap:square;stroke-linejoin:miter;stroke-width:0.8;"/>
   </g>
   <g id="patch_4">
    <path d="M 368.0875 228.14 
L 368.0875 10.7 
" style="fill:none;stroke:#000000;stroke-linecap:square;stroke-linejoin:miter;stroke-width:0.8;"/>
   </g>
   <g id="patch_5">
    <path d="M 33.2875 228.14 
L 368.0875 228.14 
" style="fill:none;stroke:#000000;stroke-linecap:square;stroke-linejoin:miter;stroke-width:0.8;"/>
   </g>
   <g id="patch_6">
    <path d="M 33.2875 10.7 
L 368.0875 10.7 
" style="fill:none;stroke:#000000;stroke-linecap:square;stroke-linejoin:miter;stroke-width:0.8;"/>
   </g>
  </g>
 </g>
 <defs>
  <clipPath id="p2f99d2472b">
   <rect height="217.44" width="334.8" x="33.2875" y="10.7"/>
  </clipPath>
 </defs>
</svg>
