<?xml version="1.0" encoding="utf-8" standalone="no"?>
<!DOCTYPE svg PUBLIC "-//W3C//DTD SVG 1.1//EN"
  "http://www.w3.org/Graphics/SVG/1.1/DTD/svg11.dtd">
<!-- Created with matplotlib (http://matplotlib.org/) -->
<svg height="300.690125pt" version="1.1" viewBox="0 0 401.1075 300.690125" width="401.1075pt" xmlns="http://www.w3.org/2000/svg" xmlns:xlink="http://www.w3.org/1999/xlink">
 <defs>
  <style type="text/css">
*{stroke-linecap:butt;stroke-linejoin:round;}
  </style>
 </defs>
 <g id="figure_1">
  <g id="patch_1">
   <path d="M 0 300.690125 
L 401.1075 300.690125 
L 401.1075 0 
L 0 0 
z
" style="fill:#ffffff;"/>
  </g>
  <g id="axes_1">
   <g id="patch_2">
    <path d="M 33.2875 276.812 
L 390.4075 276.812 
L 390.4075 10.7 
L 33.2875 10.7 
z
" style="fill:#ffffff;"/>
   </g>
   <g id="matplotlib.axis_1">
    <g id="xtick_1">
     <g id="line2d_1">
      <defs>
       <path d="M 0 0 
L 0 3.5 
" id="m05653ea1f0" style="stroke:#000000;stroke-width:0.8;"/>
      </defs>
      <g>
       <use style="stroke:#000000;stroke-width:0.8;" x="49.520227" xlink:href="#m05653ea1f0" y="276.812"/>
      </g>
     </g>
     <g id="text_1">
      <!-- 0 -->
      <defs>
       <path d="M 31.78125 66.40625 
Q 24.171875 66.40625 20.328125 58.90625 
Q 16.5 51.421875 16.5 36.375 
Q 16.5 21.390625 20.328125 13.890625 
Q 24.171875 6.390625 31.78125 6.390625 
Q 39.453125 6.390625 43.28125 13.890625 
Q 47.125 21.390625 47.125 36.375 
Q 47.125 51.421875 43.28125 58.90625 
Q 39.453125 66.40625 31.78125 66.40625 
z
M 31.78125 74.21875 
Q 44.046875 74.21875 50.515625 64.515625 
Q 56.984375 54.828125 56.984375 36.375 
Q 56.984375 17.96875 50.515625 8.265625 
Q 44.046875 -1.421875 31.78125 -1.421875 
Q 19.53125 -1.421875 13.0625 8.265625 
Q 6.59375 17.96875 6.59375 36.375 
Q 6.59375 54.828125 13.0625 64.515625 
Q 19.53125 74.21875 31.78125 74.21875 
z
" id="DejaVuSans-30"/>
      </defs>
      <g transform="translate(46.338977 291.410437)scale(0.1 -0.1)">
       <use xlink:href="#DejaVuSans-30"/>
      </g>
     </g>
    </g>
    <g id="xtick_2">
     <g id="line2d_2">
      <g>
       <use style="stroke:#000000;stroke-width:0.8;" x="89.900146" xlink:href="#m05653ea1f0" y="276.812"/>
      </g>
     </g>
     <g id="text_2">
      <!-- 25 -->
      <defs>
       <path d="M 19.1875 8.296875 
L 53.609375 8.296875 
L 53.609375 0 
L 7.328125 0 
L 7.328125 8.296875 
Q 12.9375 14.109375 22.625 23.890625 
Q 32.328125 33.6875 34.8125 36.53125 
Q 39.546875 41.84375 41.421875 45.53125 
Q 43.3125 49.21875 43.3125 52.78125 
Q 43.3125 58.59375 39.234375 62.25 
Q 35.15625 65.921875 28.609375 65.921875 
Q 23.96875 65.921875 18.8125 64.3125 
Q 13.671875 62.703125 7.8125 59.421875 
L 7.8125 69.390625 
Q 13.765625 71.78125 18.9375 73 
Q 24.125 74.21875 28.421875 74.21875 
Q 39.75 74.21875 46.484375 68.546875 
Q 53.21875 62.890625 53.21875 53.421875 
Q 53.21875 48.921875 51.53125 44.890625 
Q 49.859375 40.875 45.40625 35.40625 
Q 44.1875 33.984375 37.640625 27.21875 
Q 31.109375 20.453125 19.1875 8.296875 
z
" id="DejaVuSans-32"/>
       <path d="M 10.796875 72.90625 
L 49.515625 72.90625 
L 49.515625 64.59375 
L 19.828125 64.59375 
L 19.828125 46.734375 
Q 21.96875 47.46875 24.109375 47.828125 
Q 26.265625 48.1875 28.421875 48.1875 
Q 40.625 48.1875 47.75 41.5 
Q 54.890625 34.8125 54.890625 23.390625 
Q 54.890625 11.625 47.5625 5.09375 
Q 40.234375 -1.421875 26.90625 -1.421875 
Q 22.3125 -1.421875 17.546875 -0.640625 
Q 12.796875 0.140625 7.71875 1.703125 
L 7.71875 11.625 
Q 12.109375 9.234375 16.796875 8.0625 
Q 21.484375 6.890625 26.703125 6.890625 
Q 35.15625 6.890625 40.078125 11.328125 
Q 45.015625 15.765625 45.015625 23.390625 
Q 45.015625 31 40.078125 35.4375 
Q 35.15625 39.890625 26.703125 39.890625 
Q 22.75 39.890625 18.8125 39.015625 
Q 14.890625 38.140625 10.796875 36.28125 
z
" id="DejaVuSans-35"/>
      </defs>
      <g transform="translate(83.537646 291.410437)scale(0.1 -0.1)">
       <use xlink:href="#DejaVuSans-32"/>
       <use x="63.623047" xlink:href="#DejaVuSans-35"/>
      </g>
     </g>
    </g>
    <g id="xtick_3">
     <g id="line2d_3">
      <g>
       <use style="stroke:#000000;stroke-width:0.8;" x="130.280064" xlink:href="#m05653ea1f0" y="276.812"/>
      </g>
     </g>
     <g id="text_3">
      <!-- 50 -->
      <g transform="translate(123.917564 291.410437)scale(0.1 -0.1)">
       <use xlink:href="#DejaVuSans-35"/>
       <use x="63.623047" xlink:href="#DejaVuSans-30"/>
      </g>
     </g>
    </g>
    <g id="xtick_4">
     <g id="line2d_4">
      <g>
       <use style="stroke:#000000;stroke-width:0.8;" x="170.659983" xlink:href="#m05653ea1f0" y="276.812"/>
      </g>
     </g>
     <g id="text_4">
      <!-- 75 -->
      <defs>
       <path d="M 8.203125 72.90625 
L 55.078125 72.90625 
L 55.078125 68.703125 
L 28.609375 0 
L 18.3125 0 
L 43.21875 64.59375 
L 8.203125 64.59375 
z
" id="DejaVuSans-37"/>
      </defs>
      <g transform="translate(164.297483 291.410437)scale(0.1 -0.1)">
       <use xlink:href="#DejaVuSans-37"/>
       <use x="63.623047" xlink:href="#DejaVuSans-35"/>
      </g>
     </g>
    </g>
    <g id="xtick_5">
     <g id="line2d_5">
      <g>
       <use style="stroke:#000000;stroke-width:0.8;" x="211.039902" xlink:href="#m05653ea1f0" y="276.812"/>
      </g>
     </g>
     <g id="text_5">
      <!-- 100 -->
      <defs>
       <path d="M 12.40625 8.296875 
L 28.515625 8.296875 
L 28.515625 63.921875 
L 10.984375 60.40625 
L 10.984375 69.390625 
L 28.421875 72.90625 
L 38.28125 72.90625 
L 38.28125 8.296875 
L 54.390625 8.296875 
L 54.390625 0 
L 12.40625 0 
z
" id="DejaVuSans-31"/>
      </defs>
      <g transform="translate(201.496152 291.410437)scale(0.1 -0.1)">
       <use xlink:href="#DejaVuSans-31"/>
       <use x="63.623047" xlink:href="#DejaVuSans-30"/>
       <use x="127.246094" xlink:href="#DejaVuSans-30"/>
      </g>
     </g>
    </g>
    <g id="xtick_6">
     <g id="line2d_6">
      <g>
       <use style="stroke:#000000;stroke-width:0.8;" x="251.41982" xlink:href="#m05653ea1f0" y="276.812"/>
      </g>
     </g>
     <g id="text_6">
      <!-- 125 -->
      <g transform="translate(241.87607 291.410437)scale(0.1 -0.1)">
       <use xlink:href="#DejaVuSans-31"/>
       <use x="63.623047" xlink:href="#DejaVuSans-32"/>
       <use x="127.246094" xlink:href="#DejaVuSans-35"/>
      </g>
     </g>
    </g>
    <g id="xtick_7">
     <g id="line2d_7">
      <g>
       <use style="stroke:#000000;stroke-width:0.8;" x="291.799739" xlink:href="#m05653ea1f0" y="276.812"/>
      </g>
     </g>
     <g id="text_7">
      <!-- 150 -->
      <g transform="translate(282.255989 291.410437)scale(0.1 -0.1)">
       <use xlink:href="#DejaVuSans-31"/>
       <use x="63.623047" xlink:href="#DejaVuSans-35"/>
       <use x="127.246094" xlink:href="#DejaVuSans-30"/>
      </g>
     </g>
    </g>
    <g id="xtick_8">
     <g id="line2d_8">
      <g>
       <use style="stroke:#000000;stroke-width:0.8;" x="332.179657" xlink:href="#m05653ea1f0" y="276.812"/>
      </g>
     </g>
     <g id="text_8">
      <!-- 175 -->
      <g transform="translate(322.635907 291.410437)scale(0.1 -0.1)">
       <use xlink:href="#DejaVuSans-31"/>
       <use x="63.623047" xlink:href="#DejaVuSans-37"/>
       <use x="127.246094" xlink:href="#DejaVuSans-35"/>
      </g>
     </g>
    </g>
    <g id="xtick_9">
     <g id="line2d_9">
      <g>
       <use style="stroke:#000000;stroke-width:0.8;" x="372.559576" xlink:href="#m05653ea1f0" y="276.812"/>
      </g>
     </g>
     <g id="text_9">
      <!-- 200 -->
      <g transform="translate(363.015826 291.410437)scale(0.1 -0.1)">
       <use xlink:href="#DejaVuSans-32"/>
       <use x="63.623047" xlink:href="#DejaVuSans-30"/>
       <use x="127.246094" xlink:href="#DejaVuSans-30"/>
      </g>
     </g>
    </g>
   </g>
   <g id="matplotlib.axis_2">
    <g id="ytick_1">
     <g id="line2d_10">
      <defs>
       <path d="M 0 0 
L -3.5 0 
" id="maa0e7ad91e" style="stroke:#000000;stroke-width:0.8;"/>
      </defs>
      <g>
       <use style="stroke:#000000;stroke-width:0.8;" x="33.2875" xlink:href="#maa0e7ad91e" y="271.200643"/>
      </g>
     </g>
     <g id="text_10">
      <!-- 75 -->
      <g transform="translate(13.5625 274.999862)scale(0.1 -0.1)">
       <use xlink:href="#DejaVuSans-37"/>
       <use x="63.623047" xlink:href="#DejaVuSans-35"/>
      </g>
     </g>
    </g>
    <g id="ytick_2">
     <g id="line2d_11">
      <g>
       <use style="stroke:#000000;stroke-width:0.8;" x="33.2875" xlink:href="#maa0e7ad91e" y="237.280332"/>
      </g>
     </g>
     <g id="text_11">
      <!-- 100 -->
      <g transform="translate(7.2 241.079551)scale(0.1 -0.1)">
       <use xlink:href="#DejaVuSans-31"/>
       <use x="63.623047" xlink:href="#DejaVuSans-30"/>
       <use x="127.246094" xlink:href="#DejaVuSans-30"/>
      </g>
     </g>
    </g>
    <g id="ytick_3">
     <g id="line2d_12">
      <g>
       <use style="stroke:#000000;stroke-width:0.8;" x="33.2875" xlink:href="#maa0e7ad91e" y="203.360021"/>
      </g>
     </g>
     <g id="text_12">
      <!-- 125 -->
      <g transform="translate(7.2 207.159239)scale(0.1 -0.1)">
       <use xlink:href="#DejaVuSans-31"/>
       <use x="63.623047" xlink:href="#DejaVuSans-32"/>
       <use x="127.246094" xlink:href="#DejaVuSans-35"/>
      </g>
     </g>
    </g>
    <g id="ytick_4">
     <g id="line2d_13">
      <g>
       <use style="stroke:#000000;stroke-width:0.8;" x="33.2875" xlink:href="#maa0e7ad91e" y="169.439709"/>
      </g>
     </g>
     <g id="text_13">
      <!-- 150 -->
      <g transform="translate(7.2 173.238928)scale(0.1 -0.1)">
       <use xlink:href="#DejaVuSans-31"/>
       <use x="63.623047" xlink:href="#DejaVuSans-35"/>
       <use x="127.246094" xlink:href="#DejaVuSans-30"/>
      </g>
     </g>
    </g>
    <g id="ytick_5">
     <g id="line2d_14">
      <g>
       <use style="stroke:#000000;stroke-width:0.8;" x="33.2875" xlink:href="#maa0e7ad91e" y="135.519398"/>
      </g>
     </g>
     <g id="text_14">
      <!-- 175 -->
      <g transform="translate(7.2 139.318617)scale(0.1 -0.1)">
       <use xlink:href="#DejaVuSans-31"/>
       <use x="63.623047" xlink:href="#DejaVuSans-37"/>
       <use x="127.246094" xlink:href="#DejaVuSans-35"/>
      </g>
     </g>
    </g>
    <g id="ytick_6">
     <g id="line2d_15">
      <g>
       <use style="stroke:#000000;stroke-width:0.8;" x="33.2875" xlink:href="#maa0e7ad91e" y="101.599087"/>
      </g>
     </g>
     <g id="text_15">
      <!-- 200 -->
      <g transform="translate(7.2 105.398306)scale(0.1 -0.1)">
       <use xlink:href="#DejaVuSans-32"/>
       <use x="63.623047" xlink:href="#DejaVuSans-30"/>
       <use x="127.246094" xlink:href="#DejaVuSans-30"/>
      </g>
     </g>
    </g>
    <g id="ytick_7">
     <g id="line2d_16">
      <g>
       <use style="stroke:#000000;stroke-width:0.8;" x="33.2875" xlink:href="#maa0e7ad91e" y="67.678776"/>
      </g>
     </g>
     <g id="text_16">
      <!-- 225 -->
      <g transform="translate(7.2 71.477995)scale(0.1 -0.1)">
       <use xlink:href="#DejaVuSans-32"/>
       <use x="63.623047" xlink:href="#DejaVuSans-32"/>
       <use x="127.246094" xlink:href="#DejaVuSans-35"/>
      </g>
     </g>
    </g>
    <g id="ytick_8">
     <g id="line2d_17">
      <g>
       <use style="stroke:#000000;stroke-width:0.8;" x="33.2875" xlink:href="#maa0e7ad91e" y="33.758465"/>
      </g>
     </g>
     <g id="text_17">
      <!-- 250 -->
      <g transform="translate(7.2 37.557683)scale(0.1 -0.1)">
       <use xlink:href="#DejaVuSans-32"/>
       <use x="63.623047" xlink:href="#DejaVuSans-35"/>
       <use x="127.246094" xlink:href="#DejaVuSans-30"/>
      </g>
     </g>
    </g>
   </g>
   <g id="line2d_18">
    <path clip-path="url(#p2e9521406e)" d="M 49.520227 119.319866 
L 52.750621 111.916994 
L 54.365818 105.089892 
L 55.981014 112.319033 
L 57.596211 108.610287 
L 59.211408 110.086422 
L 60.826604 108.328813 
L 62.441801 109.495811 
L 64.056998 110.066043 
L 65.672195 110.370516 
L 67.287391 109.786615 
L 68.902588 102.149799 
L 70.517785 106.274909 
L 72.132982 105.772924 
L 73.748178 105.629098 
L 75.363375 105.232911 
L 76.978572 108.676941 
L 78.593769 142.535273 
L 80.208965 142.568431 
L 81.824162 141.853836 
L 83.439359 141.6584 
L 85.054556 141.794565 
L 86.669752 142.121001 
L 88.284949 141.875013 
L 89.900146 142.550159 
L 91.515343 141.7444 
L 93.130539 141.896085 
L 94.745736 141.080411 
L 96.360933 140.775601 
L 99.591326 141.21666 
L 101.206523 113.527292 
L 102.82172 133.683479 
L 104.436917 124.367542 
L 106.052113 121.714591 
L 107.66731 122.846201 
L 109.282507 131.424075 
L 110.897704 150.457158 
L 112.5129 238.764457 
L 114.128097 151.177062 
L 115.743294 150.121334 
L 117.358491 238.502832 
L 118.973687 238.610422 
L 120.588884 149.787705 
L 122.204081 238.247317 
L 123.819277 149.412558 
L 125.434474 150.190767 
L 127.049671 238.769871 
L 128.664868 238.663941 
L 130.280064 150.625717 
L 131.895261 121.301797 
L 133.510458 121.145557 
L 135.125655 116.775192 
L 136.740851 254.588725 
L 138.356048 112.193625 
L 139.971245 111.873312 
L 141.586442 111.856518 
L 143.201638 111.340715 
L 144.816835 111.466609 
L 146.432032 118.347437 
L 148.047229 106.100022 
L 149.662425 103.833822 
L 151.277622 250.638928 
L 152.892819 244.390149 
L 154.508016 248.176059 
L 156.123212 111.743605 
L 157.738409 112.630196 
L 159.353606 246.840696 
L 160.968803 113.199559 
L 162.583999 110.745574 
L 164.199196 110.427061 
L 165.814393 107.347112 
L 167.42959 253.327486 
L 169.044786 99.606931 
L 170.659983 104.71756 
L 172.27518 122.122327 
L 173.890377 249.781313 
L 175.505573 103.330681 
L 177.12077 95.616832 
L 178.735967 95.096921 
L 180.351164 237.721946 
L 181.96636 95.535897 
L 183.581557 88.157206 
L 185.196754 91.616434 
L 186.81195 243.674436 
L 188.427147 96.229529 
L 190.042344 92.538201 
L 191.657541 91.261221 
L 193.272737 96.598465 
L 194.887934 246.103892 
L 196.503131 244.251197 
L 198.118328 242.57783 
L 199.733524 241.3912 
L 201.348721 89.463706 
L 202.963918 246.123269 
L 204.579115 238.941333 
L 206.194311 244.519086 
L 207.809508 254.502137 
L 209.424705 244.823014 
L 211.039902 247.687731 
L 212.655098 96.38392 
L 214.270295 92.040937 
L 215.885492 90.497403 
L 217.500689 94.89234 
L 219.115885 243.233986 
L 220.731082 86.931031 
L 222.346279 231.624045 
L 223.961476 103.204672 
L 225.576672 103.610232 
L 227.191869 95.846991 
L 228.807066 246.480018 
L 230.422263 242.298283 
L 232.037459 90.626348 
L 233.652656 91.806092 
L 235.267853 264.716 
L 236.88305 135.867113 
L 238.498246 251.816686 
L 240.113443 92.916079 
L 241.72864 245.719621 
L 243.343836 76.382517 
L 244.959033 101.362392 
L 246.57423 256.673805 
L 248.189427 260.399284 
L 249.804623 121.844607 
L 251.41982 146.219976 
L 253.035017 168.607559 
L 254.650214 49.689047 
L 256.26541 168.507858 
L 257.880607 172.402941 
L 259.495804 172.245536 
L 261.111001 52.956563 
L 262.726197 172.434152 
L 264.341394 169.99091 
L 265.956591 170.37303 
L 267.571788 49.58546 
L 269.186984 48.956314 
L 270.802181 170.537664 
L 272.417378 167.266473 
L 274.032575 46.090758 
L 275.647771 45.780851 
L 277.262968 167.151415 
L 278.878165 168.566259 
L 280.493362 166.638352 
L 282.108558 166.776882 
L 283.723755 50.640703 
L 285.338952 167.41376 
L 286.954149 165.161553 
L 288.569345 42.705106 
L 290.184542 164.439278 
L 291.799739 42.121675 
L 293.414936 162.787645 
L 295.030132 165.032112 
L 296.645329 44.492415 
L 298.260526 42.367186 
L 299.875723 44.13716 
L 301.490919 165.777382 
L 303.106116 44.839736 
L 304.721313 161.426635 
L 306.336509 40.872174 
L 307.951706 162.888403 
L 309.566903 43.676051 
L 311.1821 165.604231 
L 312.797296 45.114976 
L 314.412493 167.40467 
L 316.02769 46.642485 
L 317.642887 46.833761 
L 319.258083 171.678182 
L 320.87328 165.42297 
L 322.488477 168.509389 
L 324.103674 167.737157 
L 325.71887 46.580422 
L 327.334067 163.248706 
L 328.949264 44.300865 
L 330.564461 44.550584 
L 332.179657 165.200577 
L 333.794854 164.694402 
L 335.410051 161.230179 
L 337.025248 161.585951 
L 338.640444 157.047608 
L 340.255641 155.219213 
L 341.870838 33.005347 
L 343.486035 40.263073 
L 345.101231 38.551664 
L 346.716428 37.620638 
L 348.331625 38.757876 
L 349.946822 159.702554 
L 351.562018 158.793771 
L 353.177215 22.796 
L 354.792412 153.172827 
L 356.407609 157.085548 
L 358.022805 157.99328 
L 359.638002 33.795779 
L 361.253199 35.105293 
L 362.868396 34.803109 
L 364.483592 37.065793 
L 366.098789 156.163921 
L 367.713986 156.56424 
L 369.329182 155.023622 
L 370.944379 156.447425 
L 372.559576 156.748458 
L 374.174773 35.951351 
L 374.174773 35.951351 
" style="fill:none;stroke:#1f77b4;stroke-linecap:square;stroke-width:1.5;"/>
   </g>
   <g id="patch_3">
    <path d="M 33.2875 276.812 
L 33.2875 10.7 
" style="fill:none;stroke:#000000;stroke-linecap:square;stroke-linejoin:miter;stroke-width:0.8;"/>
   </g>
   <g id="patch_4">
    <path d="M 390.4075 276.812 
L 390.4075 10.7 
" style="fill:none;stroke:#000000;stroke-linecap:square;stroke-linejoin:miter;stroke-width:0.8;"/>
   </g>
   <g id="patch_5">
    <path d="M 33.2875 276.812 
L 390.4075 276.812 
" style="fill:none;stroke:#000000;stroke-linecap:square;stroke-linejoin:miter;stroke-width:0.8;"/>
   </g>
   <g id="patch_6">
    <path d="M 33.2875 10.7 
L 390.4075 10.7 
" style="fill:none;stroke:#000000;stroke-linecap:square;stroke-linejoin:miter;stroke-width:0.8;"/>
   </g>
  </g>
 </g>
 <defs>
  <clipPath id="p2e9521406e">
   <rect height="266.112" width="357.12" x="33.2875" y="10.7"/>
  </clipPath>
 </defs>
</svg>
