<?xml version="1.0" encoding="utf-8" standalone="no"?>
<!DOCTYPE svg PUBLIC "-//W3C//DTD SVG 1.1//EN"
  "http://www.w3.org/Graphics/SVG/1.1/DTD/svg11.dtd">
<!-- Created with matplotlib (http://matplotlib.org/) -->
<svg height="252.018125pt" version="1.1" viewBox="0 0 379.674676 252.018125" width="379.674676pt" xmlns="http://www.w3.org/2000/svg" xmlns:xlink="http://www.w3.org/1999/xlink">
 <defs>
  <style type="text/css">
*{stroke-linecap:butt;stroke-linejoin:round;}
  </style>
 </defs>
 <g id="figure_1">
  <g id="patch_1">
   <path d="M 0 252.018125 
L 379.674676 252.018125 
L 379.674676 0 
L 0 0 
z
" style="fill:#ffffff;"/>
  </g>
  <g id="axes_1">
   <g id="patch_2">
    <path d="M 33.2875 228.14 
L 368.0875 228.14 
L 368.0875 10.7 
L 33.2875 10.7 
z
" style="fill:#ffffff;"/>
   </g>
   <g id="matplotlib.axis_1">
    <g id="xtick_1">
     <g id="line2d_1">
      <defs>
       <path d="M 0 0 
L 0 3.5 
" id="m6325490bab" style="stroke:#000000;stroke-width:0.8;"/>
      </defs>
      <g>
       <use style="stroke:#000000;stroke-width:0.8;" x="48.505682" xlink:href="#m6325490bab" y="228.14"/>
      </g>
     </g>
     <g id="text_1">
      <!-- 0 -->
      <defs>
       <path d="M 31.78125 66.40625 
Q 24.171875 66.40625 20.328125 58.90625 
Q 16.5 51.421875 16.5 36.375 
Q 16.5 21.390625 20.328125 13.890625 
Q 24.171875 6.390625 31.78125 6.390625 
Q 39.453125 6.390625 43.28125 13.890625 
Q 47.125 21.390625 47.125 36.375 
Q 47.125 51.421875 43.28125 58.90625 
Q 39.453125 66.40625 31.78125 66.40625 
z
M 31.78125 74.21875 
Q 44.046875 74.21875 50.515625 64.515625 
Q 56.984375 54.828125 56.984375 36.375 
Q 56.984375 17.96875 50.515625 8.265625 
Q 44.046875 -1.421875 31.78125 -1.421875 
Q 19.53125 -1.421875 13.0625 8.265625 
Q 6.59375 17.96875 6.59375 36.375 
Q 6.59375 54.828125 13.0625 64.515625 
Q 19.53125 74.21875 31.78125 74.21875 
z
" id="DejaVuSans-30"/>
      </defs>
      <g transform="translate(45.324432 242.738437)scale(0.1 -0.1)">
       <use xlink:href="#DejaVuSans-30"/>
      </g>
     </g>
    </g>
    <g id="xtick_2">
     <g id="line2d_2">
      <g>
       <use style="stroke:#000000;stroke-width:0.8;" x="111.390731" xlink:href="#m6325490bab" y="228.14"/>
      </g>
     </g>
     <g id="text_2">
      <!-- 100 -->
      <defs>
       <path d="M 12.40625 8.296875 
L 28.515625 8.296875 
L 28.515625 63.921875 
L 10.984375 60.40625 
L 10.984375 69.390625 
L 28.421875 72.90625 
L 38.28125 72.90625 
L 38.28125 8.296875 
L 54.390625 8.296875 
L 54.390625 0 
L 12.40625 0 
z
" id="DejaVuSans-31"/>
      </defs>
      <g transform="translate(101.846981 242.738437)scale(0.1 -0.1)">
       <use xlink:href="#DejaVuSans-31"/>
       <use x="63.623047" xlink:href="#DejaVuSans-30"/>
       <use x="127.246094" xlink:href="#DejaVuSans-30"/>
      </g>
     </g>
    </g>
    <g id="xtick_3">
     <g id="line2d_3">
      <g>
       <use style="stroke:#000000;stroke-width:0.8;" x="174.275779" xlink:href="#m6325490bab" y="228.14"/>
      </g>
     </g>
     <g id="text_3">
      <!-- 200 -->
      <defs>
       <path d="M 19.1875 8.296875 
L 53.609375 8.296875 
L 53.609375 0 
L 7.328125 0 
L 7.328125 8.296875 
Q 12.9375 14.109375 22.625 23.890625 
Q 32.328125 33.6875 34.8125 36.53125 
Q 39.546875 41.84375 41.421875 45.53125 
Q 43.3125 49.21875 43.3125 52.78125 
Q 43.3125 58.59375 39.234375 62.25 
Q 35.15625 65.921875 28.609375 65.921875 
Q 23.96875 65.921875 18.8125 64.3125 
Q 13.671875 62.703125 7.8125 59.421875 
L 7.8125 69.390625 
Q 13.765625 71.78125 18.9375 73 
Q 24.125 74.21875 28.421875 74.21875 
Q 39.75 74.21875 46.484375 68.546875 
Q 53.21875 62.890625 53.21875 53.421875 
Q 53.21875 48.921875 51.53125 44.890625 
Q 49.859375 40.875 45.40625 35.40625 
Q 44.1875 33.984375 37.640625 27.21875 
Q 31.109375 20.453125 19.1875 8.296875 
z
" id="DejaVuSans-32"/>
      </defs>
      <g transform="translate(164.732029 242.738437)scale(0.1 -0.1)">
       <use xlink:href="#DejaVuSans-32"/>
       <use x="63.623047" xlink:href="#DejaVuSans-30"/>
       <use x="127.246094" xlink:href="#DejaVuSans-30"/>
      </g>
     </g>
    </g>
    <g id="xtick_4">
     <g id="line2d_4">
      <g>
       <use style="stroke:#000000;stroke-width:0.8;" x="237.160828" xlink:href="#m6325490bab" y="228.14"/>
      </g>
     </g>
     <g id="text_4">
      <!-- 300 -->
      <defs>
       <path d="M 40.578125 39.3125 
Q 47.65625 37.796875 51.625 33 
Q 55.609375 28.21875 55.609375 21.1875 
Q 55.609375 10.40625 48.1875 4.484375 
Q 40.765625 -1.421875 27.09375 -1.421875 
Q 22.515625 -1.421875 17.65625 -0.515625 
Q 12.796875 0.390625 7.625 2.203125 
L 7.625 11.71875 
Q 11.71875 9.328125 16.59375 8.109375 
Q 21.484375 6.890625 26.8125 6.890625 
Q 36.078125 6.890625 40.9375 10.546875 
Q 45.796875 14.203125 45.796875 21.1875 
Q 45.796875 27.640625 41.28125 31.265625 
Q 36.765625 34.90625 28.71875 34.90625 
L 20.21875 34.90625 
L 20.21875 43.015625 
L 29.109375 43.015625 
Q 36.375 43.015625 40.234375 45.921875 
Q 44.09375 48.828125 44.09375 54.296875 
Q 44.09375 59.90625 40.109375 62.90625 
Q 36.140625 65.921875 28.71875 65.921875 
Q 24.65625 65.921875 20.015625 65.03125 
Q 15.375 64.15625 9.8125 62.3125 
L 9.8125 71.09375 
Q 15.4375 72.65625 20.34375 73.4375 
Q 25.25 74.21875 29.59375 74.21875 
Q 40.828125 74.21875 47.359375 69.109375 
Q 53.90625 64.015625 53.90625 55.328125 
Q 53.90625 49.265625 50.4375 45.09375 
Q 46.96875 40.921875 40.578125 39.3125 
z
" id="DejaVuSans-33"/>
      </defs>
      <g transform="translate(227.617078 242.738437)scale(0.1 -0.1)">
       <use xlink:href="#DejaVuSans-33"/>
       <use x="63.623047" xlink:href="#DejaVuSans-30"/>
       <use x="127.246094" xlink:href="#DejaVuSans-30"/>
      </g>
     </g>
    </g>
    <g id="xtick_5">
     <g id="line2d_5">
      <g>
       <use style="stroke:#000000;stroke-width:0.8;" x="300.045877" xlink:href="#m6325490bab" y="228.14"/>
      </g>
     </g>
     <g id="text_5">
      <!-- 400 -->
      <defs>
       <path d="M 37.796875 64.3125 
L 12.890625 25.390625 
L 37.796875 25.390625 
z
M 35.203125 72.90625 
L 47.609375 72.90625 
L 47.609375 25.390625 
L 58.015625 25.390625 
L 58.015625 17.1875 
L 47.609375 17.1875 
L 47.609375 0 
L 37.796875 0 
L 37.796875 17.1875 
L 4.890625 17.1875 
L 4.890625 26.703125 
z
" id="DejaVuSans-34"/>
      </defs>
      <g transform="translate(290.502127 242.738437)scale(0.1 -0.1)">
       <use xlink:href="#DejaVuSans-34"/>
       <use x="63.623047" xlink:href="#DejaVuSans-30"/>
       <use x="127.246094" xlink:href="#DejaVuSans-30"/>
      </g>
     </g>
    </g>
    <g id="xtick_6">
     <g id="line2d_6">
      <g>
       <use style="stroke:#000000;stroke-width:0.8;" x="362.930926" xlink:href="#m6325490bab" y="228.14"/>
      </g>
     </g>
     <g id="text_6">
      <!-- 500 -->
      <defs>
       <path d="M 10.796875 72.90625 
L 49.515625 72.90625 
L 49.515625 64.59375 
L 19.828125 64.59375 
L 19.828125 46.734375 
Q 21.96875 47.46875 24.109375 47.828125 
Q 26.265625 48.1875 28.421875 48.1875 
Q 40.625 48.1875 47.75 41.5 
Q 54.890625 34.8125 54.890625 23.390625 
Q 54.890625 11.625 47.5625 5.09375 
Q 40.234375 -1.421875 26.90625 -1.421875 
Q 22.3125 -1.421875 17.546875 -0.640625 
Q 12.796875 0.140625 7.71875 1.703125 
L 7.71875 11.625 
Q 12.109375 9.234375 16.796875 8.0625 
Q 21.484375 6.890625 26.703125 6.890625 
Q 35.15625 6.890625 40.078125 11.328125 
Q 45.015625 15.765625 45.015625 23.390625 
Q 45.015625 31 40.078125 35.4375 
Q 35.15625 39.890625 26.703125 39.890625 
Q 22.75 39.890625 18.8125 39.015625 
Q 14.890625 38.140625 10.796875 36.28125 
z
" id="DejaVuSans-35"/>
      </defs>
      <g transform="translate(353.387176 242.738437)scale(0.1 -0.1)">
       <use xlink:href="#DejaVuSans-35"/>
       <use x="63.623047" xlink:href="#DejaVuSans-30"/>
       <use x="127.246094" xlink:href="#DejaVuSans-30"/>
      </g>
     </g>
    </g>
   </g>
   <g id="matplotlib.axis_2">
    <g id="ytick_1">
     <g id="line2d_7">
      <defs>
       <path d="M 0 0 
L -3.5 0 
" id="m110e8de682" style="stroke:#000000;stroke-width:0.8;"/>
      </defs>
      <g>
       <use style="stroke:#000000;stroke-width:0.8;" x="33.2875" xlink:href="#m110e8de682" y="199.953517"/>
      </g>
     </g>
     <g id="text_7">
      <!-- 20 -->
      <g transform="translate(13.5625 203.752736)scale(0.1 -0.1)">
       <use xlink:href="#DejaVuSans-32"/>
       <use x="63.623047" xlink:href="#DejaVuSans-30"/>
      </g>
     </g>
    </g>
    <g id="ytick_2">
     <g id="line2d_8">
      <g>
       <use style="stroke:#000000;stroke-width:0.8;" x="33.2875" xlink:href="#m110e8de682" y="166.310994"/>
      </g>
     </g>
     <g id="text_8">
      <!-- 40 -->
      <g transform="translate(13.5625 170.110213)scale(0.1 -0.1)">
       <use xlink:href="#DejaVuSans-34"/>
       <use x="63.623047" xlink:href="#DejaVuSans-30"/>
      </g>
     </g>
    </g>
    <g id="ytick_3">
     <g id="line2d_9">
      <g>
       <use style="stroke:#000000;stroke-width:0.8;" x="33.2875" xlink:href="#m110e8de682" y="132.668471"/>
      </g>
     </g>
     <g id="text_9">
      <!-- 60 -->
      <defs>
       <path d="M 33.015625 40.375 
Q 26.375 40.375 22.484375 35.828125 
Q 18.609375 31.296875 18.609375 23.390625 
Q 18.609375 15.53125 22.484375 10.953125 
Q 26.375 6.390625 33.015625 6.390625 
Q 39.65625 6.390625 43.53125 10.953125 
Q 47.40625 15.53125 47.40625 23.390625 
Q 47.40625 31.296875 43.53125 35.828125 
Q 39.65625 40.375 33.015625 40.375 
z
M 52.59375 71.296875 
L 52.59375 62.3125 
Q 48.875 64.0625 45.09375 64.984375 
Q 41.3125 65.921875 37.59375 65.921875 
Q 27.828125 65.921875 22.671875 59.328125 
Q 17.53125 52.734375 16.796875 39.40625 
Q 19.671875 43.65625 24.015625 45.921875 
Q 28.375 48.1875 33.59375 48.1875 
Q 44.578125 48.1875 50.953125 41.515625 
Q 57.328125 34.859375 57.328125 23.390625 
Q 57.328125 12.15625 50.6875 5.359375 
Q 44.046875 -1.421875 33.015625 -1.421875 
Q 20.359375 -1.421875 13.671875 8.265625 
Q 6.984375 17.96875 6.984375 36.375 
Q 6.984375 53.65625 15.1875 63.9375 
Q 23.390625 74.21875 37.203125 74.21875 
Q 40.921875 74.21875 44.703125 73.484375 
Q 48.484375 72.75 52.59375 71.296875 
z
" id="DejaVuSans-36"/>
      </defs>
      <g transform="translate(13.5625 136.46769)scale(0.1 -0.1)">
       <use xlink:href="#DejaVuSans-36"/>
       <use x="63.623047" xlink:href="#DejaVuSans-30"/>
      </g>
     </g>
    </g>
    <g id="ytick_4">
     <g id="line2d_10">
      <g>
       <use style="stroke:#000000;stroke-width:0.8;" x="33.2875" xlink:href="#m110e8de682" y="99.025948"/>
      </g>
     </g>
     <g id="text_10">
      <!-- 80 -->
      <defs>
       <path d="M 31.78125 34.625 
Q 24.75 34.625 20.71875 30.859375 
Q 16.703125 27.09375 16.703125 20.515625 
Q 16.703125 13.921875 20.71875 10.15625 
Q 24.75 6.390625 31.78125 6.390625 
Q 38.8125 6.390625 42.859375 10.171875 
Q 46.921875 13.96875 46.921875 20.515625 
Q 46.921875 27.09375 42.890625 30.859375 
Q 38.875 34.625 31.78125 34.625 
z
M 21.921875 38.8125 
Q 15.578125 40.375 12.03125 44.71875 
Q 8.5 49.078125 8.5 55.328125 
Q 8.5 64.0625 14.71875 69.140625 
Q 20.953125 74.21875 31.78125 74.21875 
Q 42.671875 74.21875 48.875 69.140625 
Q 55.078125 64.0625 55.078125 55.328125 
Q 55.078125 49.078125 51.53125 44.71875 
Q 48 40.375 41.703125 38.8125 
Q 48.828125 37.15625 52.796875 32.3125 
Q 56.78125 27.484375 56.78125 20.515625 
Q 56.78125 9.90625 50.3125 4.234375 
Q 43.84375 -1.421875 31.78125 -1.421875 
Q 19.734375 -1.421875 13.25 4.234375 
Q 6.78125 9.90625 6.78125 20.515625 
Q 6.78125 27.484375 10.78125 32.3125 
Q 14.796875 37.15625 21.921875 38.8125 
z
M 18.3125 54.390625 
Q 18.3125 48.734375 21.84375 45.5625 
Q 25.390625 42.390625 31.78125 42.390625 
Q 38.140625 42.390625 41.71875 45.5625 
Q 45.3125 48.734375 45.3125 54.390625 
Q 45.3125 60.0625 41.71875 63.234375 
Q 38.140625 66.40625 31.78125 66.40625 
Q 25.390625 66.40625 21.84375 63.234375 
Q 18.3125 60.0625 18.3125 54.390625 
z
" id="DejaVuSans-38"/>
      </defs>
      <g transform="translate(13.5625 102.825167)scale(0.1 -0.1)">
       <use xlink:href="#DejaVuSans-38"/>
       <use x="63.623047" xlink:href="#DejaVuSans-30"/>
      </g>
     </g>
    </g>
    <g id="ytick_5">
     <g id="line2d_11">
      <g>
       <use style="stroke:#000000;stroke-width:0.8;" x="33.2875" xlink:href="#m110e8de682" y="65.383425"/>
      </g>
     </g>
     <g id="text_11">
      <!-- 100 -->
      <g transform="translate(7.2 69.182644)scale(0.1 -0.1)">
       <use xlink:href="#DejaVuSans-31"/>
       <use x="63.623047" xlink:href="#DejaVuSans-30"/>
       <use x="127.246094" xlink:href="#DejaVuSans-30"/>
      </g>
     </g>
    </g>
    <g id="ytick_6">
     <g id="line2d_12">
      <g>
       <use style="stroke:#000000;stroke-width:0.8;" x="33.2875" xlink:href="#m110e8de682" y="31.740902"/>
      </g>
     </g>
     <g id="text_12">
      <!-- 120 -->
      <g transform="translate(7.2 35.540121)scale(0.1 -0.1)">
       <use xlink:href="#DejaVuSans-31"/>
       <use x="63.623047" xlink:href="#DejaVuSans-32"/>
       <use x="127.246094" xlink:href="#DejaVuSans-30"/>
      </g>
     </g>
    </g>
   </g>
   <g id="line2d_13">
    <path clip-path="url(#p06695ab21c)" d="M 48.505682 83.73211 
L 49.134532 88.521269 
L 50.392233 73.601958 
L 51.021084 27.571555 
L 51.649934 22.700182 
L 52.278785 55.283416 
L 52.907635 105.708898 
L 53.536486 94.741965 
L 54.165336 79.403871 
L 54.794187 75.79088 
L 55.423037 88.583642 
L 56.051888 91.006468 
L 56.680738 89.011871 
L 57.309589 92.82672 
L 57.938439 61.690593 
L 58.56729 57.763908 
L 59.19614 30.374148 
L 59.824991 20.583636 
L 60.453841 65.573725 
L 61.082692 57.979526 
L 61.711542 63.02951 
L 62.340393 37.445997 
L 62.969243 36.617692 
L 63.598094 29.04897 
L 64.226944 186.750993 
L 64.855795 187.293031 
L 65.484645 184.425648 
L 66.113495 180.342939 
L 66.742346 178.940994 
L 67.371196 164.861482 
L 68.000047 156.431869 
L 68.628897 163.194599 
L 69.257748 196.688408 
L 69.886598 196.204041 
L 70.515449 197.119475 
L 71.144299 203.045937 
L 71.77315 205.203543 
L 73.030851 218.256364 
L 73.659701 213.232259 
L 74.288552 207.051497 
L 74.917402 208.924732 
L 75.546253 208.445758 
L 76.175103 205.227884 
L 76.803954 207.678919 
L 77.432804 128.615183 
L 78.061655 141.118476 
L 78.690505 137.34822 
L 79.319356 139.268112 
L 79.948206 149.603222 
L 80.577057 152.357431 
L 81.205907 166.259926 
L 81.834758 169.195476 
L 82.463608 189.622711 
L 83.092459 157.752519 
L 83.721309 138.343558 
L 84.35016 157.947031 
L 84.97901 160.1244 
L 85.607861 158.09511 
L 86.236711 161.185046 
L 86.865562 203.031287 
L 87.494412 203.897722 
L 88.123263 210.440776 
L 88.752113 199.650978 
L 89.380964 197.072991 
L 90.009814 210.151407 
L 90.638665 209.909156 
L 91.267515 201.523101 
L 91.896366 197.976777 
L 92.525216 195.58923 
L 93.154066 201.774624 
L 93.782917 202.799282 
L 94.411767 202.090186 
L 95.040618 207.480304 
L 95.669468 209.706111 
L 96.298319 213.152357 
L 96.927169 206.642626 
L 97.55602 197.645359 
L 98.18487 198.656949 
L 98.813721 190.032571 
L 99.442571 192.350037 
L 100.071422 188.928172 
L 100.700272 190.511307 
L 101.329123 187.714118 
L 101.957973 187.270955 
L 102.586824 201.534475 
L 103.215674 208.900328 
L 104.473375 206.576685 
L 105.102226 206.193441 
L 105.731076 203.826536 
L 106.359927 213.798092 
L 106.988777 199.992308 
L 108.246478 190.471305 
L 108.875329 191.656847 
L 109.504179 183.563611 
L 110.13303 177.994161 
L 110.76188 178.188417 
L 111.390731 172.814047 
L 112.019581 173.55513 
L 112.648432 167.846284 
L 113.277282 171.657691 
L 113.906133 155.657395 
L 114.534983 155.429971 
L 115.163834 155.562932 
L 115.792684 157.682745 
L 116.421535 178.80375 
L 117.050385 180.370344 
L 117.679236 172.756339 
L 118.308086 173.390503 
L 118.936937 172.383688 
L 119.565787 174.350978 
L 120.194637 175.570498 
L 120.823488 165.319375 
L 121.452338 169.731123 
L 122.081189 166.555462 
L 122.710039 169.893754 
L 123.33889 171.386238 
L 123.96774 164.164227 
L 124.596591 176.590357 
L 125.225441 167.987645 
L 125.854292 178.082194 
L 126.483142 177.858753 
L 127.111993 173.32619 
L 127.740843 172.047134 
L 128.369694 168.353568 
L 128.998544 173.324815 
L 129.627395 173.529455 
L 130.256245 166.394002 
L 130.885096 168.911714 
L 131.513946 173.628074 
L 132.142797 175.812153 
L 132.771647 167.865619 
L 133.400498 169.208178 
L 134.029348 171.29232 
L 134.658199 161.978242 
L 135.287049 168.601551 
L 135.9159 168.764332 
L 137.173601 170.749347 
L 137.802451 173.040868 
L 138.431302 158.499804 
L 139.689003 160.002796 
L 140.317853 166.951659 
L 140.946704 168.797159 
L 141.575554 172.576476 
L 142.204405 175.583071 
L 142.833255 164.336367 
L 143.462106 167.084471 
L 144.090956 171.75261 
L 144.719807 167.030567 
L 145.348657 169.211697 
L 145.977508 164.410534 
L 146.606358 157.073743 
L 147.235208 160.943208 
L 148.492909 173.12041 
L 149.12176 173.414741 
L 149.75061 171.956782 
L 150.379461 171.485903 
L 151.008311 170.644351 
L 151.637162 173.161547 
L 152.266012 172.322416 
L 152.894863 166.530571 
L 153.523713 166.717477 
L 154.152564 167.994805 
L 154.781414 171.51456 
L 155.410265 172.961247 
L 156.039115 175.154449 
L 156.667966 163.493137 
L 157.296816 161.759809 
L 157.925667 157.584311 
L 158.554517 172.377459 
L 159.812218 168.140033 
L 160.441069 167.249777 
L 161.069919 168.231873 
L 161.69877 166.707727 
L 162.32762 156.462815 
L 162.956471 155.246574 
L 163.585321 148.682897 
L 164.214172 159.144364 
L 164.843022 163.188398 
L 165.471873 159.824062 
L 166.100723 163.624755 
L 166.729574 159.164631 
L 167.358424 162.303386 
L 167.987275 161.352535 
L 168.616125 173.6596 
L 169.244976 161.943371 
L 169.873826 169.424836 
L 170.502677 171.720269 
L 171.131527 168.472689 
L 171.760378 161.04239 
L 172.389228 167.129604 
L 173.018079 162.832784 
L 173.646929 162.663436 
L 174.275779 169.690379 
L 174.90463 171.365809 
L 175.53348 170.150631 
L 176.162331 169.547676 
L 176.791181 173.522371 
L 177.420032 166.415305 
L 178.048882 176.918006 
L 178.677733 172.366988 
L 179.306583 175.830902 
L 179.935434 173.068618 
L 180.564284 166.620039 
L 181.193135 164.105033 
L 181.821985 173.712641 
L 182.450836 176.456342 
L 183.079686 176.38694 
L 183.708537 174.339785 
L 184.337387 167.31945 
L 184.966238 164.081179 
L 185.595088 162.548998 
L 186.223939 158.689321 
L 186.852789 161.495957 
L 187.48164 159.535165 
L 188.11049 162.209806 
L 188.739341 161.597206 
L 189.368191 157.812366 
L 189.997042 159.906513 
L 190.625892 159.747167 
L 191.254743 162.264637 
L 191.883593 165.823156 
L 192.512444 162.422553 
L 193.141294 167.042274 
L 194.398995 161.119059 
L 195.027846 168.048828 
L 195.656696 167.724268 
L 196.285547 168.065692 
L 196.914397 169.708369 
L 197.543248 169.100122 
L 198.172098 170.756382 
L 198.800949 164.01721 
L 199.429799 166.047692 
L 200.05865 166.019472 
L 200.6875 161.087345 
L 201.31635 164.85706 
L 201.945201 157.329904 
L 202.574051 157.220274 
L 203.202902 164.148707 
L 203.831752 174.712896 
L 204.460603 173.977444 
L 205.089453 154.375988 
L 205.718304 157.097869 
L 206.347154 163.671528 
L 206.976005 169.03743 
L 207.604855 171.772094 
L 208.233706 172.004319 
L 208.862556 173.803798 
L 210.120257 143.134768 
L 210.749108 177.512105 
L 211.377958 173.572345 
L 212.006809 171.031462 
L 212.635659 167.20864 
L 213.26451 135.946605 
L 213.89336 135.534332 
L 214.522211 139.095319 
L 215.151061 135.543744 
L 215.779912 137.613114 
L 216.408762 138.086706 
L 217.037613 146.316559 
L 217.666463 144.981803 
L 218.295314 148.558288 
L 218.924164 152.837423 
L 219.553015 149.636916 
L 220.810716 154.798681 
L 221.439566 154.89012 
L 222.068417 156.406305 
L 222.697267 153.082027 
L 223.326118 151.095593 
L 223.954968 154.082698 
L 224.583819 152.703476 
L 225.212669 199.813195 
L 225.84152 183.583608 
L 226.47037 182.292593 
L 227.728071 167.798223 
L 228.356921 166.69963 
L 228.985772 171.942797 
L 229.614622 165.862961 
L 230.243473 168.915474 
L 230.872323 168.834013 
L 231.501174 170.914796 
L 232.130024 152.782217 
L 232.758875 162.813184 
L 233.387725 157.52072 
L 234.016576 153.566433 
L 234.645426 160.214341 
L 235.274277 153.332677 
L 235.903127 159.461775 
L 236.531978 162.039692 
L 237.160828 167.967348 
L 237.789679 165.186031 
L 238.418529 168.008201 
L 239.04738 160.755034 
L 239.67623 157.858541 
L 240.305081 155.867494 
L 240.933931 149.568225 
L 241.562782 150.653057 
L 242.191632 149.498341 
L 242.820483 152.135896 
L 243.449333 141.79691 
L 244.078184 156.565699 
L 244.707034 166.448053 
L 245.335885 165.213908 
L 245.964735 161.647577 
L 246.593586 182.292378 
L 247.222436 179.69239 
L 247.851287 185.662708 
L 248.480137 179.771597 
L 249.108988 194.014522 
L 249.737838 199.354823 
L 250.366689 171.769859 
L 250.995539 174.215967 
L 251.62439 171.070694 
L 252.25324 170.202132 
L 252.882091 168.569333 
L 253.510941 166.106788 
L 254.139792 158.38046 
L 254.768642 158.065105 
L 255.397492 161.140031 
L 256.026343 174.624551 
L 257.284044 172.039053 
L 257.912894 173.78975 
L 258.541745 167.390865 
L 259.799446 161.241698 
L 260.428296 163.068485 
L 261.057147 168.360599 
L 261.685997 176.101712 
L 262.314848 177.108953 
L 262.943698 174.881513 
L 263.572549 161.05275 
L 264.201399 162.089834 
L 264.83025 173.031377 
L 265.4591 159.073657 
L 266.087951 164.530136 
L 266.716801 168.007696 
L 267.345652 161.554158 
L 267.974502 162.113874 
L 268.603353 166.18069 
L 269.232203 166.701943 
L 269.861054 168.359667 
L 270.489904 166.701365 
L 271.118755 167.921891 
L 271.747605 162.752544 
L 272.376456 166.760791 
L 273.005306 168.811574 
L 273.634157 162.617639 
L 274.263007 164.660207 
L 274.891858 155.366365 
L 276.149559 163.81045 
L 276.778409 166.896371 
L 277.40726 164.924064 
L 278.03611 168.864741 
L 278.664961 163.174192 
L 279.293811 174.824407 
L 279.922662 177.568695 
L 280.551512 176.362699 
L 281.180363 178.039404 
L 281.809213 177.533295 
L 282.438063 176.670006 
L 283.066914 181.023186 
L 284.324615 168.543162 
L 284.953465 173.697047 
L 285.582316 176.152198 
L 286.211166 171.124014 
L 286.840017 174.197542 
L 287.468867 174.937072 
L 288.097718 181.776512 
L 288.726568 170.613282 
L 289.355419 174.080334 
L 290.61312 160.853504 
L 291.24197 158.812041 
L 291.870821 161.402122 
L 292.499671 162.497445 
L 293.128522 164.810365 
L 293.757372 164.985415 
L 294.386223 171.412006 
L 295.015073 158.931409 
L 295.643924 165.344552 
L 296.272774 155.689594 
L 296.901625 154.935493 
L 297.530475 163.532565 
L 298.159326 161.65764 
L 298.788176 161.958876 
L 299.417027 161.576638 
L 300.045877 164.987187 
L 300.674728 166.327341 
L 301.303578 164.894938 
L 301.932429 170.296789 
L 302.561279 169.584185 
L 303.19013 172.296717 
L 303.81898 168.836402 
L 304.447831 162.560589 
L 305.076681 164.219966 
L 305.705532 159.549494 
L 306.334382 162.183798 
L 306.963233 160.502748 
L 307.592083 156.805338 
L 308.220934 159.621103 
L 308.849784 161.611178 
L 309.478634 161.499483 
L 310.107485 146.788486 
L 310.736335 162.794994 
L 311.994036 171.006645 
L 312.622887 168.402038 
L 313.251737 162.427212 
L 313.880588 158.04901 
L 314.509438 157.793991 
L 315.138289 167.709085 
L 315.767139 141.181125 
L 316.39599 161.498717 
L 317.02484 173.984026 
L 317.653691 181.375044 
L 318.282541 169.88213 
L 318.911392 131.426726 
L 319.540242 124.209227 
L 320.169093 108.370064 
L 320.797943 123.667958 
L 321.426794 151.899536 
L 322.055644 142.615328 
L 322.684495 148.16362 
L 323.313345 138.270366 
L 323.942196 150.731784 
L 324.571046 146.735597 
L 325.199897 139.444685 
L 325.828747 137.462437 
L 327.086448 155.697681 
L 327.715299 157.511132 
L 328.344149 153.948322 
L 328.973 162.296642 
L 329.60185 160.768313 
L 330.230701 158.284416 
L 330.859551 154.758223 
L 331.488402 157.731536 
L 332.117252 157.430041 
L 332.746103 162.792887 
L 333.374953 163.307414 
L 334.003804 158.713524 
L 334.632654 161.339684 
L 335.261505 159.434123 
L 336.519205 170.490995 
L 337.148056 153.909198 
L 337.776906 160.796623 
L 338.405757 163.573672 
L 339.034607 162.903419 
L 339.663458 154.208947 
L 340.292308 136.360284 
L 340.921159 138.693418 
L 342.17886 150.1596 
L 342.80771 143.477533 
L 343.436561 177.280622 
L 344.065411 197.424675 
L 344.694262 195.647729 
L 345.323112 182.861281 
L 346.580813 183.894754 
L 347.209664 178.992283 
L 347.838514 183.759837 
L 348.467365 183.447434 
L 349.096215 178.768359 
L 349.725066 172.084228 
L 350.353916 170.025757 
L 350.982767 189.686728 
L 351.611617 155.038557 
L 352.240468 156.327304 
L 352.869318 156.767132 
L 352.869318 156.767132 
" style="fill:none;stroke:#1f77b4;stroke-linecap:square;stroke-width:1.5;"/>
   </g>
   <g id="patch_3">
    <path d="M 33.2875 228.14 
L 33.2875 10.7 
" style="fill:none;stroke:#000000;stroke-linecap:square;stroke-linejoin:miter;stroke-width:0.8;"/>
   </g>
   <g id="patch_4">
    <path d="M 368.0875 228.14 
L 368.0875 10.7 
" style="fill:none;stroke:#000000;stroke-linecap:square;stroke-linejoin:miter;stroke-width:0.8;"/>
   </g>
   <g id="patch_5">
    <path d="M 33.2875 228.14 
L 368.0875 228.14 
" style="fill:none;stroke:#000000;stroke-linecap:square;stroke-linejoin:miter;stroke-width:0.8;"/>
   </g>
   <g id="patch_6">
    <path d="M 33.2875 10.7 
L 368.0875 10.7 
" style="fill:none;stroke:#000000;stroke-linecap:square;stroke-linejoin:miter;stroke-width:0.8;"/>
   </g>
  </g>
 </g>
 <defs>
  <clipPath id="p06695ab21c">
   <rect height="217.44" width="334.8" x="33.2875" y="10.7"/>
  </clipPath>
 </defs>
</svg>
