<?xml version="1.0" encoding="utf-8" standalone="no"?>
<!DOCTYPE svg PUBLIC "-//W3C//DTD SVG 1.1//EN"
  "http://www.w3.org/Graphics/SVG/1.1/DTD/svg11.dtd">
<!-- Created with matplotlib (http://matplotlib.org/) -->
<svg height="300.690125pt" version="1.1" viewBox="0 0 401.1075 300.690125" width="401.1075pt" xmlns="http://www.w3.org/2000/svg" xmlns:xlink="http://www.w3.org/1999/xlink">
 <defs>
  <style type="text/css">
*{stroke-linecap:butt;stroke-linejoin:round;}
  </style>
 </defs>
 <g id="figure_1">
  <g id="patch_1">
   <path d="M 0 300.690125 
L 401.1075 300.690125 
L 401.1075 0 
L 0 0 
z
" style="fill:#ffffff;"/>
  </g>
  <g id="axes_1">
   <g id="patch_2">
    <path d="M 33.2875 276.812 
L 390.4075 276.812 
L 390.4075 10.7 
L 33.2875 10.7 
z
" style="fill:#ffffff;"/>
   </g>
   <g id="matplotlib.axis_1">
    <g id="xtick_1">
     <g id="line2d_1">
      <defs>
       <path d="M 0 0 
L 0 3.5 
" id="m6e2fec5873" style="stroke:#000000;stroke-width:0.8;"/>
      </defs>
      <g>
       <use style="stroke:#000000;stroke-width:0.8;" x="49.520227" xlink:href="#m6e2fec5873" y="276.812"/>
      </g>
     </g>
     <g id="text_1">
      <!-- 0 -->
      <defs>
       <path d="M 31.78125 66.40625 
Q 24.171875 66.40625 20.328125 58.90625 
Q 16.5 51.421875 16.5 36.375 
Q 16.5 21.390625 20.328125 13.890625 
Q 24.171875 6.390625 31.78125 6.390625 
Q 39.453125 6.390625 43.28125 13.890625 
Q 47.125 21.390625 47.125 36.375 
Q 47.125 51.421875 43.28125 58.90625 
Q 39.453125 66.40625 31.78125 66.40625 
z
M 31.78125 74.21875 
Q 44.046875 74.21875 50.515625 64.515625 
Q 56.984375 54.828125 56.984375 36.375 
Q 56.984375 17.96875 50.515625 8.265625 
Q 44.046875 -1.421875 31.78125 -1.421875 
Q 19.53125 -1.421875 13.0625 8.265625 
Q 6.59375 17.96875 6.59375 36.375 
Q 6.59375 54.828125 13.0625 64.515625 
Q 19.53125 74.21875 31.78125 74.21875 
z
" id="DejaVuSans-30"/>
      </defs>
      <g transform="translate(46.338977 291.410437)scale(0.1 -0.1)">
       <use xlink:href="#DejaVuSans-30"/>
      </g>
     </g>
    </g>
    <g id="xtick_2">
     <g id="line2d_2">
      <g>
       <use style="stroke:#000000;stroke-width:0.8;" x="112.437775" xlink:href="#m6e2fec5873" y="276.812"/>
      </g>
     </g>
     <g id="text_2">
      <!-- 200 -->
      <defs>
       <path d="M 19.1875 8.296875 
L 53.609375 8.296875 
L 53.609375 0 
L 7.328125 0 
L 7.328125 8.296875 
Q 12.9375 14.109375 22.625 23.890625 
Q 32.328125 33.6875 34.8125 36.53125 
Q 39.546875 41.84375 41.421875 45.53125 
Q 43.3125 49.21875 43.3125 52.78125 
Q 43.3125 58.59375 39.234375 62.25 
Q 35.15625 65.921875 28.609375 65.921875 
Q 23.96875 65.921875 18.8125 64.3125 
Q 13.671875 62.703125 7.8125 59.421875 
L 7.8125 69.390625 
Q 13.765625 71.78125 18.9375 73 
Q 24.125 74.21875 28.421875 74.21875 
Q 39.75 74.21875 46.484375 68.546875 
Q 53.21875 62.890625 53.21875 53.421875 
Q 53.21875 48.921875 51.53125 44.890625 
Q 49.859375 40.875 45.40625 35.40625 
Q 44.1875 33.984375 37.640625 27.21875 
Q 31.109375 20.453125 19.1875 8.296875 
z
" id="DejaVuSans-32"/>
      </defs>
      <g transform="translate(102.894025 291.410437)scale(0.1 -0.1)">
       <use xlink:href="#DejaVuSans-32"/>
       <use x="63.623047" xlink:href="#DejaVuSans-30"/>
       <use x="127.246094" xlink:href="#DejaVuSans-30"/>
      </g>
     </g>
    </g>
    <g id="xtick_3">
     <g id="line2d_3">
      <g>
       <use style="stroke:#000000;stroke-width:0.8;" x="175.355322" xlink:href="#m6e2fec5873" y="276.812"/>
      </g>
     </g>
     <g id="text_3">
      <!-- 400 -->
      <defs>
       <path d="M 37.796875 64.3125 
L 12.890625 25.390625 
L 37.796875 25.390625 
z
M 35.203125 72.90625 
L 47.609375 72.90625 
L 47.609375 25.390625 
L 58.015625 25.390625 
L 58.015625 17.1875 
L 47.609375 17.1875 
L 47.609375 0 
L 37.796875 0 
L 37.796875 17.1875 
L 4.890625 17.1875 
L 4.890625 26.703125 
z
" id="DejaVuSans-34"/>
      </defs>
      <g transform="translate(165.811572 291.410437)scale(0.1 -0.1)">
       <use xlink:href="#DejaVuSans-34"/>
       <use x="63.623047" xlink:href="#DejaVuSans-30"/>
       <use x="127.246094" xlink:href="#DejaVuSans-30"/>
      </g>
     </g>
    </g>
    <g id="xtick_4">
     <g id="line2d_4">
      <g>
       <use style="stroke:#000000;stroke-width:0.8;" x="238.27287" xlink:href="#m6e2fec5873" y="276.812"/>
      </g>
     </g>
     <g id="text_4">
      <!-- 600 -->
      <defs>
       <path d="M 33.015625 40.375 
Q 26.375 40.375 22.484375 35.828125 
Q 18.609375 31.296875 18.609375 23.390625 
Q 18.609375 15.53125 22.484375 10.953125 
Q 26.375 6.390625 33.015625 6.390625 
Q 39.65625 6.390625 43.53125 10.953125 
Q 47.40625 15.53125 47.40625 23.390625 
Q 47.40625 31.296875 43.53125 35.828125 
Q 39.65625 40.375 33.015625 40.375 
z
M 52.59375 71.296875 
L 52.59375 62.3125 
Q 48.875 64.0625 45.09375 64.984375 
Q 41.3125 65.921875 37.59375 65.921875 
Q 27.828125 65.921875 22.671875 59.328125 
Q 17.53125 52.734375 16.796875 39.40625 
Q 19.671875 43.65625 24.015625 45.921875 
Q 28.375 48.1875 33.59375 48.1875 
Q 44.578125 48.1875 50.953125 41.515625 
Q 57.328125 34.859375 57.328125 23.390625 
Q 57.328125 12.15625 50.6875 5.359375 
Q 44.046875 -1.421875 33.015625 -1.421875 
Q 20.359375 -1.421875 13.671875 8.265625 
Q 6.984375 17.96875 6.984375 36.375 
Q 6.984375 53.65625 15.1875 63.9375 
Q 23.390625 74.21875 37.203125 74.21875 
Q 40.921875 74.21875 44.703125 73.484375 
Q 48.484375 72.75 52.59375 71.296875 
z
" id="DejaVuSans-36"/>
      </defs>
      <g transform="translate(228.72912 291.410437)scale(0.1 -0.1)">
       <use xlink:href="#DejaVuSans-36"/>
       <use x="63.623047" xlink:href="#DejaVuSans-30"/>
       <use x="127.246094" xlink:href="#DejaVuSans-30"/>
      </g>
     </g>
    </g>
    <g id="xtick_5">
     <g id="line2d_5">
      <g>
       <use style="stroke:#000000;stroke-width:0.8;" x="301.190418" xlink:href="#m6e2fec5873" y="276.812"/>
      </g>
     </g>
     <g id="text_5">
      <!-- 800 -->
      <defs>
       <path d="M 31.78125 34.625 
Q 24.75 34.625 20.71875 30.859375 
Q 16.703125 27.09375 16.703125 20.515625 
Q 16.703125 13.921875 20.71875 10.15625 
Q 24.75 6.390625 31.78125 6.390625 
Q 38.8125 6.390625 42.859375 10.171875 
Q 46.921875 13.96875 46.921875 20.515625 
Q 46.921875 27.09375 42.890625 30.859375 
Q 38.875 34.625 31.78125 34.625 
z
M 21.921875 38.8125 
Q 15.578125 40.375 12.03125 44.71875 
Q 8.5 49.078125 8.5 55.328125 
Q 8.5 64.0625 14.71875 69.140625 
Q 20.953125 74.21875 31.78125 74.21875 
Q 42.671875 74.21875 48.875 69.140625 
Q 55.078125 64.0625 55.078125 55.328125 
Q 55.078125 49.078125 51.53125 44.71875 
Q 48 40.375 41.703125 38.8125 
Q 48.828125 37.15625 52.796875 32.3125 
Q 56.78125 27.484375 56.78125 20.515625 
Q 56.78125 9.90625 50.3125 4.234375 
Q 43.84375 -1.421875 31.78125 -1.421875 
Q 19.734375 -1.421875 13.25 4.234375 
Q 6.78125 9.90625 6.78125 20.515625 
Q 6.78125 27.484375 10.78125 32.3125 
Q 14.796875 37.15625 21.921875 38.8125 
z
M 18.3125 54.390625 
Q 18.3125 48.734375 21.84375 45.5625 
Q 25.390625 42.390625 31.78125 42.390625 
Q 38.140625 42.390625 41.71875 45.5625 
Q 45.3125 48.734375 45.3125 54.390625 
Q 45.3125 60.0625 41.71875 63.234375 
Q 38.140625 66.40625 31.78125 66.40625 
Q 25.390625 66.40625 21.84375 63.234375 
Q 18.3125 60.0625 18.3125 54.390625 
z
" id="DejaVuSans-38"/>
      </defs>
      <g transform="translate(291.646668 291.410437)scale(0.1 -0.1)">
       <use xlink:href="#DejaVuSans-38"/>
       <use x="63.623047" xlink:href="#DejaVuSans-30"/>
       <use x="127.246094" xlink:href="#DejaVuSans-30"/>
      </g>
     </g>
    </g>
    <g id="xtick_6">
     <g id="line2d_6">
      <g>
       <use style="stroke:#000000;stroke-width:0.8;" x="364.107965" xlink:href="#m6e2fec5873" y="276.812"/>
      </g>
     </g>
     <g id="text_6">
      <!-- 1000 -->
      <defs>
       <path d="M 12.40625 8.296875 
L 28.515625 8.296875 
L 28.515625 63.921875 
L 10.984375 60.40625 
L 10.984375 69.390625 
L 28.421875 72.90625 
L 38.28125 72.90625 
L 38.28125 8.296875 
L 54.390625 8.296875 
L 54.390625 0 
L 12.40625 0 
z
" id="DejaVuSans-31"/>
      </defs>
      <g transform="translate(351.382965 291.410437)scale(0.1 -0.1)">
       <use xlink:href="#DejaVuSans-31"/>
       <use x="63.623047" xlink:href="#DejaVuSans-30"/>
       <use x="127.246094" xlink:href="#DejaVuSans-30"/>
       <use x="190.869141" xlink:href="#DejaVuSans-30"/>
      </g>
     </g>
    </g>
   </g>
   <g id="matplotlib.axis_2">
    <g id="ytick_1">
     <g id="line2d_7">
      <defs>
       <path d="M 0 0 
L -3.5 0 
" id="m9a56db5a8b" style="stroke:#000000;stroke-width:0.8;"/>
      </defs>
      <g>
       <use style="stroke:#000000;stroke-width:0.8;" x="33.2875" xlink:href="#m9a56db5a8b" y="241.659754"/>
      </g>
     </g>
     <g id="text_7">
      <!-- 50 -->
      <defs>
       <path d="M 10.796875 72.90625 
L 49.515625 72.90625 
L 49.515625 64.59375 
L 19.828125 64.59375 
L 19.828125 46.734375 
Q 21.96875 47.46875 24.109375 47.828125 
Q 26.265625 48.1875 28.421875 48.1875 
Q 40.625 48.1875 47.75 41.5 
Q 54.890625 34.8125 54.890625 23.390625 
Q 54.890625 11.625 47.5625 5.09375 
Q 40.234375 -1.421875 26.90625 -1.421875 
Q 22.3125 -1.421875 17.546875 -0.640625 
Q 12.796875 0.140625 7.71875 1.703125 
L 7.71875 11.625 
Q 12.109375 9.234375 16.796875 8.0625 
Q 21.484375 6.890625 26.703125 6.890625 
Q 35.15625 6.890625 40.078125 11.328125 
Q 45.015625 15.765625 45.015625 23.390625 
Q 45.015625 31 40.078125 35.4375 
Q 35.15625 39.890625 26.703125 39.890625 
Q 22.75 39.890625 18.8125 39.015625 
Q 14.890625 38.140625 10.796875 36.28125 
z
" id="DejaVuSans-35"/>
      </defs>
      <g transform="translate(13.5625 245.458972)scale(0.1 -0.1)">
       <use xlink:href="#DejaVuSans-35"/>
       <use x="63.623047" xlink:href="#DejaVuSans-30"/>
      </g>
     </g>
    </g>
    <g id="ytick_2">
     <g id="line2d_8">
      <g>
       <use style="stroke:#000000;stroke-width:0.8;" x="33.2875" xlink:href="#m9a56db5a8b" y="186.339127"/>
      </g>
     </g>
     <g id="text_8">
      <!-- 100 -->
      <g transform="translate(7.2 190.138346)scale(0.1 -0.1)">
       <use xlink:href="#DejaVuSans-31"/>
       <use x="63.623047" xlink:href="#DejaVuSans-30"/>
       <use x="127.246094" xlink:href="#DejaVuSans-30"/>
      </g>
     </g>
    </g>
    <g id="ytick_3">
     <g id="line2d_9">
      <g>
       <use style="stroke:#000000;stroke-width:0.8;" x="33.2875" xlink:href="#m9a56db5a8b" y="131.018501"/>
      </g>
     </g>
     <g id="text_9">
      <!-- 150 -->
      <g transform="translate(7.2 134.81772)scale(0.1 -0.1)">
       <use xlink:href="#DejaVuSans-31"/>
       <use x="63.623047" xlink:href="#DejaVuSans-35"/>
       <use x="127.246094" xlink:href="#DejaVuSans-30"/>
      </g>
     </g>
    </g>
    <g id="ytick_4">
     <g id="line2d_10">
      <g>
       <use style="stroke:#000000;stroke-width:0.8;" x="33.2875" xlink:href="#m9a56db5a8b" y="75.697875"/>
      </g>
     </g>
     <g id="text_10">
      <!-- 200 -->
      <g transform="translate(7.2 79.497094)scale(0.1 -0.1)">
       <use xlink:href="#DejaVuSans-32"/>
       <use x="63.623047" xlink:href="#DejaVuSans-30"/>
       <use x="127.246094" xlink:href="#DejaVuSans-30"/>
      </g>
     </g>
    </g>
    <g id="ytick_5">
     <g id="line2d_11">
      <g>
       <use style="stroke:#000000;stroke-width:0.8;" x="33.2875" xlink:href="#m9a56db5a8b" y="20.377249"/>
      </g>
     </g>
     <g id="text_11">
      <!-- 250 -->
      <g transform="translate(7.2 24.176467)scale(0.1 -0.1)">
       <use xlink:href="#DejaVuSans-32"/>
       <use x="63.623047" xlink:href="#DejaVuSans-35"/>
       <use x="127.246094" xlink:href="#DejaVuSans-30"/>
      </g>
     </g>
    </g>
   </g>
   <g id="line2d_12">
    <path clip-path="url(#pae5da59f89)" d="M 49.520227 53.266826 
L 49.834815 56.156963 
L 50.149403 56.476214 
L 50.46399 53.338806 
L 50.778578 51.966656 
L 51.407754 55.039094 
L 51.722341 54.965107 
L 52.036929 54.508083 
L 52.351517 54.668044 
L 52.666105 22.796 
L 52.980692 28.839127 
L 53.29528 243.536129 
L 53.609868 242.551465 
L 53.924456 234.818595 
L 54.239043 233.8099 
L 54.553631 230.935735 
L 55.182807 234.56859 
L 55.497394 233.617959 
L 55.811982 230.458585 
L 56.12657 230.72415 
L 56.441158 227.326282 
L 56.755745 221.070016 
L 57.070333 180.691357 
L 57.384921 173.500509 
L 57.699508 173.704703 
L 58.014096 166.965856 
L 58.328684 163.023515 
L 58.643272 162.275613 
L 58.957859 160.013817 
L 59.272447 155.023052 
L 59.587035 156.792231 
L 59.901623 156.208119 
L 60.21621 152.06817 
L 60.530798 150.049725 
L 61.159974 147.378786 
L 61.474561 146.947689 
L 61.789149 139.913666 
L 62.103737 137.529336 
L 62.418325 138.740164 
L 62.732912 137.198058 
L 63.0475 134.943864 
L 63.362088 135.802113 
L 63.676675 134.563841 
L 63.991263 136.328868 
L 64.305851 129.884814 
L 64.620439 130.079053 
L 65.249614 112.307366 
L 65.87879 109.895138 
L 66.193377 109.285015 
L 66.507965 109.248689 
L 66.822553 108.342342 
L 67.137141 109.595143 
L 67.451728 113.058393 
L 67.766316 110.745254 
L 68.080904 110.248809 
L 68.395492 106.741951 
L 68.710079 108.174618 
L 69.024667 107.007522 
L 69.339255 101.80552 
L 69.653842 102.211286 
L 69.96843 103.011978 
L 70.283018 104.384115 
L 70.597606 104.253029 
L 70.912193 110.747089 
L 71.226781 99.948599 
L 71.541369 94.85302 
L 71.855957 98.062687 
L 72.170544 96.174531 
L 72.485132 96.108199 
L 72.79972 104.141931 
L 73.114308 103.057295 
L 73.428895 100.662391 
L 74.058071 102.488828 
L 74.372659 100.067336 
L 74.687246 92.538362 
L 75.001834 92.627309 
L 75.63101 85.788387 
L 75.945597 75.118243 
L 76.574773 69.697862 
L 76.88936 82.809387 
L 77.203948 86.411591 
L 77.518536 84.87324 
L 77.833124 87.6669 
L 78.147711 77.910427 
L 78.462299 87.954034 
L 78.776887 83.039402 
L 79.091475 82.792229 
L 79.406062 100.782158 
L 79.72065 101.596474 
L 80.349826 75.991474 
L 80.664413 82.316602 
L 80.979001 85.92212 
L 81.293589 87.320019 
L 81.608177 86.136536 
L 81.922764 108.259481 
L 82.237352 89.310908 
L 82.55194 88.391987 
L 82.866527 93.278617 
L 83.181115 100.513964 
L 83.495703 101.618648 
L 83.810291 55.713497 
L 84.124878 57.252308 
L 84.439466 51.243404 
L 84.754054 49.991159 
L 85.068642 53.785954 
L 85.383229 52.225358 
L 85.697817 52.661074 
L 86.012405 55.912509 
L 86.326993 52.118874 
L 86.64158 50.101112 
L 86.956168 52.002422 
L 87.270756 57.973126 
L 87.585344 59.082691 
L 87.899931 61.171861 
L 88.214519 61.067136 
L 88.529107 57.713785 
L 89.158282 58.835063 
L 89.47287 58.830867 
L 89.787458 57.0887 
L 90.102045 61.208598 
L 90.416633 60.840014 
L 90.731221 62.396849 
L 91.045809 61.258344 
L 91.360396 65.923948 
L 91.674984 81.987727 
L 91.989572 72.085013 
L 92.30416 68.924159 
L 92.618747 67.585511 
L 92.933335 259.738398 
L 93.247923 264.716 
L 93.562511 261.737285 
L 94.191686 262.386046 
L 94.506274 259.188291 
L 94.820862 259.229182 
L 95.135449 260.040073 
L 95.450037 262.686262 
L 95.764625 257.875383 
L 96.079212 259.214555 
L 96.3938 259.773146 
L 96.708388 262.858059 
L 97.022976 259.923108 
L 97.337563 259.432014 
L 97.652151 256.010598 
L 97.966739 257.003691 
L 98.281327 257.385412 
L 98.595914 255.940628 
L 98.910502 259.097741 
L 99.22509 257.303194 
L 99.539678 229.638061 
L 99.854265 171.872853 
L 100.168853 169.299793 
L 100.483441 170.192594 
L 100.798029 170.10618 
L 101.427204 171.866585 
L 101.741792 170.085151 
L 102.056379 170.491784 
L 102.370967 173.150692 
L 102.685555 174.544823 
L 103.000143 159.965402 
L 103.31473 158.458761 
L 103.629318 158.563761 
L 104.258494 160.257828 
L 104.573081 158.64032 
L 104.887669 160.537597 
L 105.202257 160.919735 
L 105.516845 160.92404 
L 105.831432 162.087389 
L 106.460608 159.52666 
L 106.775196 154.074887 
L 107.089783 136.805701 
L 107.404371 136.074473 
L 107.718959 134.860783 
L 108.033547 134.222278 
L 108.662722 133.679229 
L 109.291897 132.597653 
L 109.606485 132.7089 
L 109.921073 132.039846 
L 110.235661 132.280373 
L 110.550248 132.176553 
L 110.864836 130.995265 
L 111.179424 131.394849 
L 111.494012 120.865377 
L 111.808599 125.846484 
L 112.123187 117.996312 
L 112.437775 115.510569 
L 112.752363 120.933827 
L 113.06695 121.436027 
L 113.696126 125.035947 
L 114.010714 124.750891 
L 114.325301 125.226678 
L 114.639889 123.885583 
L 114.954477 125.1034 
L 115.269064 118.295721 
L 115.583652 118.419869 
L 115.89824 119.957158 
L 116.212828 120.628556 
L 116.527415 120.301727 
L 116.842003 119.739572 
L 117.156591 119.567379 
L 117.471179 119.55141 
L 117.785766 118.429939 
L 118.100354 118.322845 
L 118.414942 121.406188 
L 118.72953 121.259002 
L 119.044117 122.952629 
L 119.358705 122.979627 
L 119.673293 124.214958 
L 119.987881 127.580509 
L 120.302468 125.72248 
L 120.617056 127.84117 
L 120.931644 132.670655 
L 121.246232 133.305005 
L 121.560819 132.802892 
L 121.875407 134.586351 
L 122.189995 132.623152 
L 122.504582 136.168469 
L 122.81917 137.490369 
L 123.133758 134.227787 
L 123.448346 134.018436 
L 123.762933 135.626767 
L 124.077521 131.413216 
L 124.392109 132.90654 
L 125.021284 132.110556 
L 125.335872 133.371717 
L 125.65046 132.848917 
L 125.965048 131.991641 
L 126.279635 131.604176 
L 126.594223 126.733428 
L 126.908811 128.678654 
L 127.223399 128.352669 
L 127.537986 128.237266 
L 127.852574 127.651757 
L 128.167162 128.559876 
L 128.481749 128.984036 
L 128.796337 128.36085 
L 129.110925 128.174566 
L 129.425513 131.475728 
L 129.7401 128.557661 
L 130.054688 127.326646 
L 130.369276 127.841311 
L 130.683864 129.732811 
L 130.998451 128.713605 
L 131.313039 127.215363 
L 131.627627 141.784669 
L 131.942215 140.366512 
L 132.256802 143.108296 
L 132.57139 131.684173 
L 133.200566 123.571476 
L 133.515153 124.251884 
L 133.829741 124.270434 
L 134.144329 123.662223 
L 134.458916 123.49945 
L 134.773504 124.234513 
L 135.40268 128.769782 
L 135.717267 124.557413 
L 136.346443 108.395051 
L 136.661031 115.225312 
L 136.975618 117.240135 
L 137.290206 116.926706 
L 137.919382 114.426688 
L 138.233969 117.169781 
L 138.548557 118.399303 
L 138.863145 117.858294 
L 139.177733 124.175133 
L 139.49232 125.691448 
L 139.806908 123.444524 
L 140.121496 122.863185 
L 140.436084 121.957426 
L 140.750671 121.983288 
L 141.065259 117.840849 
L 141.379847 116.726744 
L 141.694434 118.963995 
L 142.009022 117.766457 
L 142.32361 117.909958 
L 142.638198 117.550194 
L 142.952785 119.150298 
L 143.267373 118.536078 
L 143.581961 119.273187 
L 143.896549 118.628137 
L 144.211136 119.956834 
L 144.525724 120.699273 
L 145.1549 119.599941 
L 145.469487 121.965636 
L 145.784075 120.219684 
L 146.098663 120.565416 
L 146.413251 119.445741 
L 146.727838 119.364215 
L 147.042426 121.905155 
L 147.357014 121.667857 
L 147.671601 120.222471 
L 147.986189 120.46426 
L 148.300777 118.316047 
L 148.615365 118.866849 
L 148.929952 118.44262 
L 149.24454 118.413014 
L 149.873716 119.824428 
L 150.188303 121.77069 
L 150.502891 127.493222 
L 150.817479 125.203335 
L 151.132067 130.913569 
L 151.446654 132.092009 
L 151.761242 128.614128 
L 152.07583 130.176508 
L 152.390418 130.443701 
L 152.705005 130.533182 
L 153.019593 131.406343 
L 153.334181 131.735067 
L 153.648768 131.087883 
L 153.963356 136.32357 
L 154.277944 136.316308 
L 154.592532 137.248553 
L 155.221707 140.229953 
L 155.536295 147.872466 
L 155.850883 160.559678 
L 156.16547 161.093039 
L 156.480058 160.756357 
L 156.794646 156.481134 
L 157.109234 156.976751 
L 157.423821 146.52315 
L 157.738409 148.993617 
L 158.052997 144.442342 
L 158.682172 147.890635 
L 158.99676 144.738779 
L 159.311348 143.581404 
L 159.625936 144.243769 
L 159.940523 140.447658 
L 160.255111 132.38959 
L 160.569699 133.810305 
L 160.884286 140.626423 
L 161.198874 144.973668 
L 161.513462 124.484366 
L 161.82805 117.327551 
L 162.142637 122.533649 
L 162.457225 123.400096 
L 162.771813 120.133908 
L 163.086401 164.912269 
L 163.400988 170.380159 
L 163.715576 172.229742 
L 164.030164 186.478944 
L 164.344752 190.939486 
L 164.659339 208.040268 
L 164.973927 208.882663 
L 165.288515 195.61972 
L 165.603103 236.912028 
L 165.91769 228.551915 
L 166.232278 234.03763 
L 166.546866 232.302621 
L 166.861453 234.074106 
L 167.176041 227.674527 
L 167.490629 230.425131 
L 167.805217 230.001144 
L 168.119804 226.132948 
L 168.74898 225.866171 
L 169.063568 227.93309 
L 169.378155 227.061415 
L 169.692743 225.54327 
L 170.007331 229.589687 
L 170.321919 229.030103 
L 170.636506 228.952561 
L 170.951094 230.310274 
L 171.265682 230.05814 
L 172.209445 221.594069 
L 172.524033 220.152366 
L 172.838621 220.63682 
L 173.153208 219.203577 
L 173.467796 218.567844 
L 173.782384 221.373904 
L 174.411559 218.874854 
L 174.726147 220.980587 
L 175.040735 213.207981 
L 175.355322 211.905973 
L 175.66991 215.031421 
L 176.613673 201.533786 
L 177.242849 225.018001 
L 177.557437 225.9733 
L 177.872024 223.914667 
L 178.186612 229.206509 
L 178.5012 229.524048 
L 178.815788 227.222353 
L 179.130375 230.602796 
L 179.444963 230.10242 
L 179.759551 228.257895 
L 180.074138 228.52596 
L 180.388726 229.623648 
L 180.703314 227.594159 
L 181.017902 228.005949 
L 181.332489 227.547553 
L 181.647077 227.30672 
L 181.961665 225.079958 
L 182.276253 223.710174 
L 182.59084 223.332167 
L 183.220016 227.854565 
L 183.534604 225.891324 
L 184.163779 212.228316 
L 184.478367 214.250521 
L 184.792955 217.595251 
L 185.107542 215.06282 
L 185.736718 217.129938 
L 186.051305 216.45531 
L 186.365893 215.330375 
L 186.680481 212.556903 
L 186.995069 214.481351 
L 187.309656 201.204948 
L 187.624244 201.73324 
L 187.938832 196.641736 
L 188.25342 199.359507 
L 188.568007 190.281574 
L 188.882595 194.236534 
L 189.197183 192.287533 
L 189.511771 180.026595 
L 190.140946 226.374552 
L 190.770122 228.566207 
L 191.084709 224.900349 
L 191.399297 228.195891 
L 191.713885 226.670797 
L 192.028473 227.010824 
L 192.34306 229.654857 
L 192.657648 218.805305 
L 192.972236 224.778949 
L 193.286823 217.233905 
L 193.601411 221.87101 
L 193.915999 214.17859 
L 194.230587 221.536622 
L 194.545174 221.859519 
L 195.17435 218.394387 
L 195.488938 217.518367 
L 195.803525 218.77595 
L 196.118113 213.81461 
L 196.432701 215.85319 
L 196.747289 216.35718 
L 197.061876 214.757075 
L 197.376464 214.231853 
L 197.691052 214.159189 
L 198.00564 213.074688 
L 198.320227 213.74119 
L 198.634815 212.807486 
L 198.949403 213.509857 
L 199.26399 211.745455 
L 199.578578 209.301959 
L 199.893166 183.120009 
L 200.207754 167.764283 
L 200.522341 165.420439 
L 201.151517 155.040873 
L 201.466105 143.509304 
L 201.780692 146.229374 
L 202.09528 145.7874 
L 202.409868 144.109268 
L 202.724456 148.705589 
L 203.353631 125.306379 
L 203.668219 125.410863 
L 203.982807 127.132135 
L 204.297394 126.072643 
L 204.611982 127.552424 
L 204.92657 126.70603 
L 205.241158 130.305618 
L 205.555745 128.214767 
L 206.184921 131.263173 
L 206.499508 133.879115 
L 206.814096 127.875156 
L 207.128684 128.602029 
L 207.443272 131.037821 
L 207.757859 129.413464 
L 208.072447 129.918944 
L 208.387035 125.903845 
L 208.701623 125.004719 
L 209.01621 126.336913 
L 209.330798 126.929381 
L 209.645386 126.814311 
L 209.959974 123.240789 
L 210.274561 121.699595 
L 210.589149 124.095166 
L 210.903737 121.971989 
L 211.218325 125.457177 
L 211.532912 122.27115 
L 211.8475 124.713358 
L 212.162088 125.646494 
L 212.476675 123.383968 
L 212.791263 118.157659 
L 213.105851 106.145016 
L 213.420439 106.193909 
L 213.735026 107.208734 
L 214.049614 105.469837 
L 214.364202 108.929775 
L 214.67879 109.793387 
L 214.993377 103.995498 
L 215.307965 102.6923 
L 215.622553 104.016697 
L 215.937141 104.701533 
L 216.251728 101.665686 
L 216.566316 103.307122 
L 216.880904 103.699291 
L 217.195492 100.567895 
L 217.510079 105.92206 
L 217.824667 101.866364 
L 218.139255 106.569383 
L 218.453842 107.618186 
L 218.76843 104.412831 
L 219.083018 99.698093 
L 219.397606 100.220397 
L 219.712193 101.996495 
L 220.026781 96.854598 
L 220.341369 98.263745 
L 220.655957 97.28306 
L 220.970544 99.205103 
L 221.285132 97.905749 
L 221.59972 97.848144 
L 221.914308 96.145481 
L 222.228895 100.186886 
L 222.543483 90.812438 
L 222.858071 86.718456 
L 223.487246 88.809497 
L 223.801834 92.17312 
L 224.116422 84.443348 
L 224.43101 90.328729 
L 224.745597 91.291112 
L 225.060185 87.001195 
L 225.374773 86.76117 
L 225.68936 87.725883 
L 226.003948 90.152932 
L 226.318536 87.032169 
L 226.633124 85.74862 
L 226.947711 91.135213 
L 227.262299 76.522717 
L 227.576887 86.355552 
L 227.891475 87.970003 
L 228.206062 88.705466 
L 228.835238 94.745502 
L 229.149826 91.667362 
L 229.464413 93.247457 
L 229.779001 92.590282 
L 230.093589 89.620564 
L 230.408177 89.405786 
L 230.722764 88.946298 
L 231.037352 92.546233 
L 231.35194 91.26353 
L 231.666527 90.987011 
L 232.610291 101.446518 
L 232.924878 100.420353 
L 233.239466 100.320599 
L 233.554054 102.167443 
L 233.868642 109.774881 
L 234.183229 107.209792 
L 234.497817 113.780274 
L 234.812405 107.71585 
L 235.44158 128.378037 
L 235.756168 126.4617 
L 236.070756 114.385987 
L 236.385344 114.933527 
L 236.699931 116.44069 
L 237.014519 122.694971 
L 237.329107 120.796046 
L 237.643695 120.462255 
L 237.958282 117.924325 
L 238.27287 118.040787 
L 238.902045 111.440982 
L 239.216633 109.949179 
L 239.531221 110.018274 
L 239.845809 109.419363 
L 240.160396 111.217693 
L 240.474984 111.581289 
L 240.789572 114.030434 
L 241.10416 113.828517 
L 241.418747 114.031284 
L 241.733335 114.085331 
L 242.047923 113.894858 
L 242.677098 114.714473 
L 242.991686 118.832918 
L 243.306274 117.698857 
L 243.620862 118.318469 
L 243.935449 117.848711 
L 244.250037 117.799746 
L 244.879212 118.505572 
L 245.1938 118.58897 
L 245.508388 118.127297 
L 245.822976 115.68305 
L 246.137563 114.948565 
L 246.452151 114.811321 
L 246.766739 115.33791 
L 247.081327 114.932148 
L 248.02509 115.126008 
L 248.339678 115.797398 
L 248.654265 117.291635 
L 249.283441 117.939001 
L 249.912616 119.332167 
L 250.227204 119.57471 
L 250.541792 119.123263 
L 250.856379 119.044034 
L 251.170967 120.314394 
L 251.485555 120.849847 
L 251.800143 120.284974 
L 252.11473 121.804672 
L 253.058494 122.393866 
L 253.373081 121.74868 
L 254.002257 113.289502 
L 254.316845 110.550934 
L 254.631432 109.865658 
L 254.94602 110.226134 
L 255.260608 109.526727 
L 255.575196 110.034477 
L 255.889783 109.345035 
L 256.204371 110.219861 
L 256.518959 110.038365 
L 256.833547 109.630579 
L 257.148134 110.753881 
L 257.462722 111.170515 
L 257.77731 111.103513 
L 258.091897 111.599719 
L 258.406485 111.614151 
L 258.721073 112.142135 
L 259.035661 113.724164 
L 259.350248 114.198535 
L 259.664836 115.910194 
L 260.294012 117.325834 
L 260.608599 118.509979 
L 260.923187 118.974646 
L 261.552363 118.340029 
L 261.86695 119.45735 
L 262.181538 119.277318 
L 262.496126 120.197313 
L 262.810714 121.747002 
L 263.125301 121.511594 
L 263.439889 122.162961 
L 264.069064 122.295292 
L 264.383652 123.300896 
L 264.69824 122.428175 
L 265.012828 122.928684 
L 265.327415 123.680654 
L 265.642003 121.82946 
L 265.956591 122.401138 
L 266.271179 120.718765 
L 266.585766 121.259152 
L 266.900354 120.568208 
L 267.214942 117.794636 
L 267.844117 105.948004 
L 268.158705 106.183683 
L 268.473293 106.113972 
L 268.787881 106.756719 
L 269.102468 106.039528 
L 269.417056 104.392805 
L 269.731644 101.802409 
L 270.046232 105.600369 
L 270.360819 107.624638 
L 270.675407 107.320342 
L 270.989995 107.204916 
L 271.304582 105.750194 
L 271.61917 105.746944 
L 271.933758 108.118894 
L 272.248346 108.607682 
L 272.562933 113.466957 
L 272.877521 115.32842 
L 273.192109 113.087124 
L 273.506697 113.760216 
L 273.821284 117.530141 
L 274.135872 124.138195 
L 274.45046 124.18118 
L 274.765048 126.483575 
L 275.079635 127.647225 
L 275.394223 126.498889 
L 275.708811 126.274757 
L 276.023399 128.239703 
L 276.337986 128.001376 
L 276.652574 121.539106 
L 276.967162 121.872546 
L 277.281749 117.060076 
L 277.596337 118.382046 
L 277.910925 117.603716 
L 278.225513 116.461602 
L 278.5401 117.007354 
L 278.854688 119.689707 
L 279.169276 124.721061 
L 279.483864 125.000256 
L 279.798451 125.892483 
L 280.113039 130.097118 
L 280.427627 129.020246 
L 280.742215 130.13956 
L 281.056802 132.767595 
L 281.37139 134.344178 
L 281.685978 132.126219 
L 282.315153 129.649388 
L 282.629741 128.240511 
L 282.944329 122.086238 
L 283.258916 127.448707 
L 283.573504 128.35196 
L 283.888092 128.487959 
L 284.20268 130.431843 
L 284.517267 130.959949 
L 284.831855 131.709879 
L 285.461031 136.350315 
L 285.775618 131.676479 
L 286.090206 130.652348 
L 286.404794 126.804195 
L 286.719382 127.277188 
L 287.033969 126.794501 
L 287.348557 131.847427 
L 287.663145 131.138276 
L 288.29232 130.686981 
L 288.606908 130.838648 
L 289.236084 127.169006 
L 289.550671 128.37798 
L 289.865259 137.557753 
L 290.179847 138.048306 
L 290.809022 132.390898 
L 291.12361 129.665977 
L 291.752785 146.292494 
L 292.067373 144.350754 
L 292.381961 144.441308 
L 292.696549 146.932518 
L 293.011136 145.825278 
L 293.325724 141.93188 
L 293.640312 140.851281 
L 293.9549 140.698723 
L 294.269487 138.983855 
L 294.584075 143.171954 
L 294.898663 140.751544 
L 295.213251 142.964447 
L 295.842426 144.579036 
L 296.471601 150.310885 
L 296.786189 149.503726 
L 297.100777 142.537637 
L 297.729952 151.239531 
L 298.04454 151.355234 
L 298.359128 151.799913 
L 298.673716 152.69431 
L 298.988303 149.787485 
L 299.302891 145.388457 
L 299.617479 146.552297 
L 299.932067 143.0931 
L 300.246654 144.517378 
L 300.561242 143.455659 
L 300.87583 136.990722 
L 301.190418 134.168316 
L 301.505005 149.922204 
L 301.819593 148.84741 
L 302.134181 148.437899 
L 302.448768 145.492904 
L 302.763356 154.864013 
L 303.077944 159.104089 
L 303.392532 154.025557 
L 303.707119 162.989393 
L 304.021707 160.267936 
L 304.336295 161.759777 
L 304.650883 162.508064 
L 304.96547 158.362983 
L 305.280058 162.249773 
L 305.594646 154.953123 
L 305.909234 171.976305 
L 306.223821 167.37829 
L 306.538409 160.150602 
L 306.852997 148.212214 
L 307.167585 155.703774 
L 307.482172 158.056578 
L 307.79676 150.442153 
L 308.111348 149.76179 
L 308.425936 156.293252 
L 308.740523 155.021621 
L 309.055111 160.243524 
L 309.369699 155.415672 
L 309.998874 159.100672 
L 310.313462 156.30469 
L 310.942637 161.60395 
L 311.257225 160.254925 
L 311.571813 160.311139 
L 311.886401 158.524953 
L 312.200988 164.526988 
L 312.515576 163.619209 
L 313.144752 128.037885 
L 313.773927 116.61813 
L 314.088515 111.997176 
L 314.403103 113.319676 
L 314.71769 111.313219 
L 315.032278 111.173578 
L 315.346866 112.076385 
L 315.661453 112.358914 
L 315.976041 111.523679 
L 316.290629 107.939213 
L 316.605217 107.191411 
L 316.919804 106.73294 
L 317.54898 99.336676 
L 317.863568 99.663471 
L 318.492743 96.716752 
L 318.807331 97.36582 
L 319.121919 96.897098 
L 319.436506 94.46607 
L 319.751094 93.949572 
L 320.065682 94.586658 
L 320.38027 96.388536 
L 320.694857 96.198656 
L 321.009445 96.640418 
L 321.324033 96.664204 
L 321.638621 95.906193 
L 321.953208 96.961254 
L 322.267796 88.615611 
L 322.582384 96.719474 
L 322.896971 100.209169 
L 323.211559 101.476441 
L 323.526147 97.359269 
L 323.840735 101.760616 
L 324.155322 103.335987 
L 324.46991 101.791874 
L 324.784498 103.351606 
L 325.099086 99.792536 
L 325.413673 99.109236 
L 325.728261 103.484652 
L 326.042849 104.097773 
L 326.357437 103.023639 
L 326.672024 106.012947 
L 326.986612 111.488332 
L 327.3012 111.524194 
L 327.930375 124.208052 
L 328.244963 133.063485 
L 328.559551 138.450193 
L 328.874138 118.331424 
L 329.188726 109.165924 
L 329.817902 118.712317 
L 330.132489 118.030472 
L 330.761665 117.750061 
L 331.39084 93.219493 
L 331.705428 95.412822 
L 332.020016 95.463798 
L 332.649191 97.201088 
L 332.963779 95.044027 
L 333.278367 95.53888 
L 334.536718 92.429103 
L 334.851305 93.986258 
L 335.165893 100.536527 
L 335.480481 102.736853 
L 335.795069 104.09693 
L 336.109656 102.958502 
L 336.738832 123.039534 
L 337.05342 118.529419 
L 337.368007 97.782299 
L 337.682595 93.775019 
L 337.997183 91.651723 
L 338.311771 90.483799 
L 338.940946 109.159559 
L 339.255534 93.637356 
L 339.570122 91.107234 
L 340.199297 90.168087 
L 340.513885 92.959213 
L 340.828473 92.80286 
L 341.14306 95.372355 
L 341.457648 94.969129 
L 341.772236 101.633335 
L 342.086823 103.420607 
L 342.401411 104.248489 
L 342.715999 102.743278 
L 343.030587 112.658816 
L 343.345174 116.007404 
L 343.659762 116.466953 
L 343.97435 118.371993 
L 344.288938 116.167254 
L 344.603525 114.869538 
L 344.918113 117.233019 
L 345.232701 112.831832 
L 345.547289 112.422939 
L 345.861876 111.674577 
L 346.176464 110.574866 
L 346.491052 110.321512 
L 346.80564 112.099403 
L 347.120227 109.602556 
L 347.434815 109.389638 
L 347.749403 109.480777 
L 348.06399 106.171892 
L 348.693166 102.267848 
L 349.007754 98.338946 
L 349.322341 113.63878 
L 349.636929 113.567539 
L 349.951517 110.839766 
L 350.580692 101.158048 
L 350.89528 105.771963 
L 351.209868 104.976697 
L 351.524456 108.513781 
L 351.839043 109.278901 
L 352.153631 108.001703 
L 352.468219 107.90508 
L 352.782807 110.934687 
L 353.097394 110.621894 
L 353.411982 102.1061 
L 353.72657 98.685389 
L 354.355745 100.316283 
L 354.670333 98.312046 
L 354.984921 98.754272 
L 355.299508 115.756983 
L 355.614096 117.425728 
L 355.928684 117.646974 
L 356.243272 118.036939 
L 356.557859 115.543576 
L 357.187035 119.019796 
L 357.501623 119.349503 
L 357.81621 119.008645 
L 358.130798 125.374245 
L 358.445386 127.059725 
L 358.759974 126.556441 
L 359.074561 127.844435 
L 359.389149 127.503986 
L 359.703737 128.696469 
L 360.018325 131.948998 
L 360.332912 133.250922 
L 360.6475 133.506277 
L 360.962088 134.215977 
L 361.276675 133.997383 
L 361.591263 134.336548 
L 361.905851 135.253433 
L 362.849614 132.677494 
L 363.164202 132.613289 
L 363.47879 135.470381 
L 363.793377 134.406757 
L 364.422553 134.092471 
L 364.737141 128.433081 
L 365.051728 129.048533 
L 365.680904 123.29722 
L 365.995492 122.335276 
L 366.310079 118.535917 
L 366.624667 111.212455 
L 366.939255 108.357819 
L 367.253842 108.449765 
L 367.56843 110.270475 
L 367.883018 96.210159 
L 368.512193 101.287159 
L 368.826781 104.970122 
L 369.141369 110.170926 
L 369.455957 98.036823 
L 369.770544 101.489038 
L 370.085132 92.995815 
L 370.39972 94.407248 
L 370.714308 98.857884 
L 371.028895 99.398139 
L 371.343483 98.776214 
L 371.658071 99.771452 
L 371.972659 103.434195 
L 372.287246 105.387157 
L 372.601834 104.890259 
L 372.916422 103.187325 
L 373.23101 103.456778 
L 373.545597 112.012751 
L 373.860185 115.462565 
L 374.174773 175.212881 
L 374.174773 175.212881 
" style="fill:none;stroke:#1f77b4;stroke-linecap:square;stroke-width:1.5;"/>
   </g>
   <g id="patch_3">
    <path d="M 33.2875 276.812 
L 33.2875 10.7 
" style="fill:none;stroke:#000000;stroke-linecap:square;stroke-linejoin:miter;stroke-width:0.8;"/>
   </g>
   <g id="patch_4">
    <path d="M 390.4075 276.812 
L 390.4075 10.7 
" style="fill:none;stroke:#000000;stroke-linecap:square;stroke-linejoin:miter;stroke-width:0.8;"/>
   </g>
   <g id="patch_5">
    <path d="M 33.2875 276.812 
L 390.4075 276.812 
" style="fill:none;stroke:#000000;stroke-linecap:square;stroke-linejoin:miter;stroke-width:0.8;"/>
   </g>
   <g id="patch_6">
    <path d="M 33.2875 10.7 
L 390.4075 10.7 
" style="fill:none;stroke:#000000;stroke-linecap:square;stroke-linejoin:miter;stroke-width:0.8;"/>
   </g>
  </g>
 </g>
 <defs>
  <clipPath id="pae5da59f89">
   <rect height="266.112" width="357.12" x="33.2875" y="10.7"/>
  </clipPath>
 </defs>
</svg>
