<?xml version="1.0" encoding="utf-8" standalone="no"?>
<!DOCTYPE svg PUBLIC "-//W3C//DTD SVG 1.1//EN"
  "http://www.w3.org/Graphics/SVG/1.1/DTD/svg11.dtd">
<!-- Created with matplotlib (http://matplotlib.org/) -->
<svg height="252.018125pt" version="1.1" viewBox="0 0 372.425 252.018125" width="372.425pt" xmlns="http://www.w3.org/2000/svg" xmlns:xlink="http://www.w3.org/1999/xlink">
 <defs>
  <style type="text/css">
*{stroke-linecap:butt;stroke-linejoin:round;}
  </style>
 </defs>
 <g id="figure_1">
  <g id="patch_1">
   <path d="M -0 252.018125 
L 372.425 252.018125 
L 372.425 0 
L -0 0 
z
" style="fill:#ffffff;"/>
  </g>
  <g id="axes_1">
   <g id="patch_2">
    <path d="M 26.925 228.14 
L 361.725 228.14 
L 361.725 10.7 
L 26.925 10.7 
z
" style="fill:#ffffff;"/>
   </g>
   <g id="matplotlib.axis_1">
    <g id="xtick_1">
     <g id="line2d_1">
      <defs>
       <path d="M 0 0 
L 0 3.5 
" id="m80d562ee6b" style="stroke:#000000;stroke-width:0.8;"/>
      </defs>
      <g>
       <use style="stroke:#000000;stroke-width:0.8;" x="42.143182" xlink:href="#m80d562ee6b" y="228.14"/>
      </g>
     </g>
     <g id="text_1">
      <!-- 0 -->
      <defs>
       <path d="M 31.78125 66.40625 
Q 24.171875 66.40625 20.328125 58.90625 
Q 16.5 51.421875 16.5 36.375 
Q 16.5 21.390625 20.328125 13.890625 
Q 24.171875 6.390625 31.78125 6.390625 
Q 39.453125 6.390625 43.28125 13.890625 
Q 47.125 21.390625 47.125 36.375 
Q 47.125 51.421875 43.28125 58.90625 
Q 39.453125 66.40625 31.78125 66.40625 
z
M 31.78125 74.21875 
Q 44.046875 74.21875 50.515625 64.515625 
Q 56.984375 54.828125 56.984375 36.375 
Q 56.984375 17.96875 50.515625 8.265625 
Q 44.046875 -1.421875 31.78125 -1.421875 
Q 19.53125 -1.421875 13.0625 8.265625 
Q 6.59375 17.96875 6.59375 36.375 
Q 6.59375 54.828125 13.0625 64.515625 
Q 19.53125 74.21875 31.78125 74.21875 
z
" id="DejaVuSans-30"/>
      </defs>
      <g transform="translate(38.961932 242.738437)scale(0.1 -0.1)">
       <use xlink:href="#DejaVuSans-30"/>
      </g>
     </g>
    </g>
    <g id="xtick_2">
     <g id="line2d_2">
      <g>
       <use style="stroke:#000000;stroke-width:0.8;" x="82.643998" xlink:href="#m80d562ee6b" y="228.14"/>
      </g>
     </g>
     <g id="text_2">
      <!-- 200 -->
      <defs>
       <path d="M 19.1875 8.296875 
L 53.609375 8.296875 
L 53.609375 0 
L 7.328125 0 
L 7.328125 8.296875 
Q 12.9375 14.109375 22.625 23.890625 
Q 32.328125 33.6875 34.8125 36.53125 
Q 39.546875 41.84375 41.421875 45.53125 
Q 43.3125 49.21875 43.3125 52.78125 
Q 43.3125 58.59375 39.234375 62.25 
Q 35.15625 65.921875 28.609375 65.921875 
Q 23.96875 65.921875 18.8125 64.3125 
Q 13.671875 62.703125 7.8125 59.421875 
L 7.8125 69.390625 
Q 13.765625 71.78125 18.9375 73 
Q 24.125 74.21875 28.421875 74.21875 
Q 39.75 74.21875 46.484375 68.546875 
Q 53.21875 62.890625 53.21875 53.421875 
Q 53.21875 48.921875 51.53125 44.890625 
Q 49.859375 40.875 45.40625 35.40625 
Q 44.1875 33.984375 37.640625 27.21875 
Q 31.109375 20.453125 19.1875 8.296875 
z
" id="DejaVuSans-32"/>
      </defs>
      <g transform="translate(73.100248 242.738437)scale(0.1 -0.1)">
       <use xlink:href="#DejaVuSans-32"/>
       <use x="63.623047" xlink:href="#DejaVuSans-30"/>
       <use x="127.246094" xlink:href="#DejaVuSans-30"/>
      </g>
     </g>
    </g>
    <g id="xtick_3">
     <g id="line2d_3">
      <g>
       <use style="stroke:#000000;stroke-width:0.8;" x="123.144815" xlink:href="#m80d562ee6b" y="228.14"/>
      </g>
     </g>
     <g id="text_3">
      <!-- 400 -->
      <defs>
       <path d="M 37.796875 64.3125 
L 12.890625 25.390625 
L 37.796875 25.390625 
z
M 35.203125 72.90625 
L 47.609375 72.90625 
L 47.609375 25.390625 
L 58.015625 25.390625 
L 58.015625 17.1875 
L 47.609375 17.1875 
L 47.609375 0 
L 37.796875 0 
L 37.796875 17.1875 
L 4.890625 17.1875 
L 4.890625 26.703125 
z
" id="DejaVuSans-34"/>
      </defs>
      <g transform="translate(113.601065 242.738437)scale(0.1 -0.1)">
       <use xlink:href="#DejaVuSans-34"/>
       <use x="63.623047" xlink:href="#DejaVuSans-30"/>
       <use x="127.246094" xlink:href="#DejaVuSans-30"/>
      </g>
     </g>
    </g>
    <g id="xtick_4">
     <g id="line2d_4">
      <g>
       <use style="stroke:#000000;stroke-width:0.8;" x="163.645631" xlink:href="#m80d562ee6b" y="228.14"/>
      </g>
     </g>
     <g id="text_4">
      <!-- 600 -->
      <defs>
       <path d="M 33.015625 40.375 
Q 26.375 40.375 22.484375 35.828125 
Q 18.609375 31.296875 18.609375 23.390625 
Q 18.609375 15.53125 22.484375 10.953125 
Q 26.375 6.390625 33.015625 6.390625 
Q 39.65625 6.390625 43.53125 10.953125 
Q 47.40625 15.53125 47.40625 23.390625 
Q 47.40625 31.296875 43.53125 35.828125 
Q 39.65625 40.375 33.015625 40.375 
z
M 52.59375 71.296875 
L 52.59375 62.3125 
Q 48.875 64.0625 45.09375 64.984375 
Q 41.3125 65.921875 37.59375 65.921875 
Q 27.828125 65.921875 22.671875 59.328125 
Q 17.53125 52.734375 16.796875 39.40625 
Q 19.671875 43.65625 24.015625 45.921875 
Q 28.375 48.1875 33.59375 48.1875 
Q 44.578125 48.1875 50.953125 41.515625 
Q 57.328125 34.859375 57.328125 23.390625 
Q 57.328125 12.15625 50.6875 5.359375 
Q 44.046875 -1.421875 33.015625 -1.421875 
Q 20.359375 -1.421875 13.671875 8.265625 
Q 6.984375 17.96875 6.984375 36.375 
Q 6.984375 53.65625 15.1875 63.9375 
Q 23.390625 74.21875 37.203125 74.21875 
Q 40.921875 74.21875 44.703125 73.484375 
Q 48.484375 72.75 52.59375 71.296875 
z
" id="DejaVuSans-36"/>
      </defs>
      <g transform="translate(154.101881 242.738437)scale(0.1 -0.1)">
       <use xlink:href="#DejaVuSans-36"/>
       <use x="63.623047" xlink:href="#DejaVuSans-30"/>
       <use x="127.246094" xlink:href="#DejaVuSans-30"/>
      </g>
     </g>
    </g>
    <g id="xtick_5">
     <g id="line2d_5">
      <g>
       <use style="stroke:#000000;stroke-width:0.8;" x="204.146448" xlink:href="#m80d562ee6b" y="228.14"/>
      </g>
     </g>
     <g id="text_5">
      <!-- 800 -->
      <defs>
       <path d="M 31.78125 34.625 
Q 24.75 34.625 20.71875 30.859375 
Q 16.703125 27.09375 16.703125 20.515625 
Q 16.703125 13.921875 20.71875 10.15625 
Q 24.75 6.390625 31.78125 6.390625 
Q 38.8125 6.390625 42.859375 10.171875 
Q 46.921875 13.96875 46.921875 20.515625 
Q 46.921875 27.09375 42.890625 30.859375 
Q 38.875 34.625 31.78125 34.625 
z
M 21.921875 38.8125 
Q 15.578125 40.375 12.03125 44.71875 
Q 8.5 49.078125 8.5 55.328125 
Q 8.5 64.0625 14.71875 69.140625 
Q 20.953125 74.21875 31.78125 74.21875 
Q 42.671875 74.21875 48.875 69.140625 
Q 55.078125 64.0625 55.078125 55.328125 
Q 55.078125 49.078125 51.53125 44.71875 
Q 48 40.375 41.703125 38.8125 
Q 48.828125 37.15625 52.796875 32.3125 
Q 56.78125 27.484375 56.78125 20.515625 
Q 56.78125 9.90625 50.3125 4.234375 
Q 43.84375 -1.421875 31.78125 -1.421875 
Q 19.734375 -1.421875 13.25 4.234375 
Q 6.78125 9.90625 6.78125 20.515625 
Q 6.78125 27.484375 10.78125 32.3125 
Q 14.796875 37.15625 21.921875 38.8125 
z
M 18.3125 54.390625 
Q 18.3125 48.734375 21.84375 45.5625 
Q 25.390625 42.390625 31.78125 42.390625 
Q 38.140625 42.390625 41.71875 45.5625 
Q 45.3125 48.734375 45.3125 54.390625 
Q 45.3125 60.0625 41.71875 63.234375 
Q 38.140625 66.40625 31.78125 66.40625 
Q 25.390625 66.40625 21.84375 63.234375 
Q 18.3125 60.0625 18.3125 54.390625 
z
" id="DejaVuSans-38"/>
      </defs>
      <g transform="translate(194.602698 242.738437)scale(0.1 -0.1)">
       <use xlink:href="#DejaVuSans-38"/>
       <use x="63.623047" xlink:href="#DejaVuSans-30"/>
       <use x="127.246094" xlink:href="#DejaVuSans-30"/>
      </g>
     </g>
    </g>
    <g id="xtick_6">
     <g id="line2d_6">
      <g>
       <use style="stroke:#000000;stroke-width:0.8;" x="244.647265" xlink:href="#m80d562ee6b" y="228.14"/>
      </g>
     </g>
     <g id="text_6">
      <!-- 1000 -->
      <defs>
       <path d="M 12.40625 8.296875 
L 28.515625 8.296875 
L 28.515625 63.921875 
L 10.984375 60.40625 
L 10.984375 69.390625 
L 28.421875 72.90625 
L 38.28125 72.90625 
L 38.28125 8.296875 
L 54.390625 8.296875 
L 54.390625 0 
L 12.40625 0 
z
" id="DejaVuSans-31"/>
      </defs>
      <g transform="translate(231.922265 242.738437)scale(0.1 -0.1)">
       <use xlink:href="#DejaVuSans-31"/>
       <use x="63.623047" xlink:href="#DejaVuSans-30"/>
       <use x="127.246094" xlink:href="#DejaVuSans-30"/>
       <use x="190.869141" xlink:href="#DejaVuSans-30"/>
      </g>
     </g>
    </g>
    <g id="xtick_7">
     <g id="line2d_7">
      <g>
       <use style="stroke:#000000;stroke-width:0.8;" x="285.148081" xlink:href="#m80d562ee6b" y="228.14"/>
      </g>
     </g>
     <g id="text_7">
      <!-- 1200 -->
      <g transform="translate(272.423081 242.738437)scale(0.1 -0.1)">
       <use xlink:href="#DejaVuSans-31"/>
       <use x="63.623047" xlink:href="#DejaVuSans-32"/>
       <use x="127.246094" xlink:href="#DejaVuSans-30"/>
       <use x="190.869141" xlink:href="#DejaVuSans-30"/>
      </g>
     </g>
    </g>
    <g id="xtick_8">
     <g id="line2d_8">
      <g>
       <use style="stroke:#000000;stroke-width:0.8;" x="325.648898" xlink:href="#m80d562ee6b" y="228.14"/>
      </g>
     </g>
     <g id="text_8">
      <!-- 1400 -->
      <g transform="translate(312.923898 242.738437)scale(0.1 -0.1)">
       <use xlink:href="#DejaVuSans-31"/>
       <use x="63.623047" xlink:href="#DejaVuSans-34"/>
       <use x="127.246094" xlink:href="#DejaVuSans-30"/>
       <use x="190.869141" xlink:href="#DejaVuSans-30"/>
      </g>
     </g>
    </g>
   </g>
   <g id="matplotlib.axis_2">
    <g id="ytick_1">
     <g id="line2d_9">
      <defs>
       <path d="M 0 0 
L -3.5 0 
" id="md8722e5978" style="stroke:#000000;stroke-width:0.8;"/>
      </defs>
      <g>
       <use style="stroke:#000000;stroke-width:0.8;" x="26.925" xlink:href="#md8722e5978" y="205.770676"/>
      </g>
     </g>
     <g id="text_9">
      <!-- 5 -->
      <defs>
       <path d="M 10.796875 72.90625 
L 49.515625 72.90625 
L 49.515625 64.59375 
L 19.828125 64.59375 
L 19.828125 46.734375 
Q 21.96875 47.46875 24.109375 47.828125 
Q 26.265625 48.1875 28.421875 48.1875 
Q 40.625 48.1875 47.75 41.5 
Q 54.890625 34.8125 54.890625 23.390625 
Q 54.890625 11.625 47.5625 5.09375 
Q 40.234375 -1.421875 26.90625 -1.421875 
Q 22.3125 -1.421875 17.546875 -0.640625 
Q 12.796875 0.140625 7.71875 1.703125 
L 7.71875 11.625 
Q 12.109375 9.234375 16.796875 8.0625 
Q 21.484375 6.890625 26.703125 6.890625 
Q 35.15625 6.890625 40.078125 11.328125 
Q 45.015625 15.765625 45.015625 23.390625 
Q 45.015625 31 40.078125 35.4375 
Q 35.15625 39.890625 26.703125 39.890625 
Q 22.75 39.890625 18.8125 39.015625 
Q 14.890625 38.140625 10.796875 36.28125 
z
" id="DejaVuSans-35"/>
      </defs>
      <g transform="translate(13.5625 209.569895)scale(0.1 -0.1)">
       <use xlink:href="#DejaVuSans-35"/>
      </g>
     </g>
    </g>
    <g id="ytick_2">
     <g id="line2d_10">
      <g>
       <use style="stroke:#000000;stroke-width:0.8;" x="26.925" xlink:href="#md8722e5978" y="158.237916"/>
      </g>
     </g>
     <g id="text_10">
      <!-- 10 -->
      <g transform="translate(7.2 162.037135)scale(0.1 -0.1)">
       <use xlink:href="#DejaVuSans-31"/>
       <use x="63.623047" xlink:href="#DejaVuSans-30"/>
      </g>
     </g>
    </g>
    <g id="ytick_3">
     <g id="line2d_11">
      <g>
       <use style="stroke:#000000;stroke-width:0.8;" x="26.925" xlink:href="#md8722e5978" y="110.705156"/>
      </g>
     </g>
     <g id="text_11">
      <!-- 15 -->
      <g transform="translate(7.2 114.504375)scale(0.1 -0.1)">
       <use xlink:href="#DejaVuSans-31"/>
       <use x="63.623047" xlink:href="#DejaVuSans-35"/>
      </g>
     </g>
    </g>
    <g id="ytick_4">
     <g id="line2d_12">
      <g>
       <use style="stroke:#000000;stroke-width:0.8;" x="26.925" xlink:href="#md8722e5978" y="63.172397"/>
      </g>
     </g>
     <g id="text_12">
      <!-- 20 -->
      <g transform="translate(7.2 66.971615)scale(0.1 -0.1)">
       <use xlink:href="#DejaVuSans-32"/>
       <use x="63.623047" xlink:href="#DejaVuSans-30"/>
      </g>
     </g>
    </g>
    <g id="ytick_5">
     <g id="line2d_13">
      <g>
       <use style="stroke:#000000;stroke-width:0.8;" x="26.925" xlink:href="#md8722e5978" y="15.639637"/>
      </g>
     </g>
     <g id="text_13">
      <!-- 25 -->
      <g transform="translate(7.2 19.438856)scale(0.1 -0.1)">
       <use xlink:href="#DejaVuSans-32"/>
       <use x="63.623047" xlink:href="#DejaVuSans-35"/>
      </g>
     </g>
    </g>
   </g>
   <g id="line2d_14">
    <path clip-path="url(#p2e2147189b)" d="M 42.143182 173.113624 
L 42.54819 168.57596 
L 42.953198 136.253693 
L 43.155702 172.184803 
L 43.358206 168.675662 
L 43.763214 157.204986 
L 43.965719 164.675202 
L 44.168223 161.032674 
L 44.573231 164.050248 
L 44.775735 155.462998 
L 44.978239 160.992085 
L 45.180743 161.387697 
L 45.383247 159.070976 
L 45.585751 162.342264 
L 45.788255 158.25407 
L 45.990759 158.156369 
L 46.193263 164.770649 
L 46.395768 160.455083 
L 46.598272 151.182055 
L 46.800776 168.653282 
L 47.00328 159.739426 
L 47.205784 211.031413 
L 47.610792 101.777433 
L 47.813296 218.256364 
L 48.0158 170.013559 
L 48.218304 193.803546 
L 48.420808 124.25998 
L 48.623312 146.046282 
L 48.825817 155.659187 
L 49.028321 170.789725 
L 49.230825 153.247861 
L 49.433329 147.85219 
L 49.635833 171.615001 
L 49.838337 146.478211 
L 50.040841 154.517347 
L 50.243345 156.052328 
L 50.445849 156.580187 
L 50.648353 178.33168 
L 50.850857 127.013111 
L 51.053361 193.55533 
L 51.255866 120.035072 
L 51.45837 196.107569 
L 51.863378 137.067594 
L 52.065882 182.977138 
L 52.268386 181.381429 
L 52.47089 146.070861 
L 52.673394 187.93435 
L 52.875898 128.930103 
L 53.078402 161.024909 
L 53.280906 156.02306 
L 53.48341 167.453873 
L 53.685915 189.580902 
L 53.888419 129.682961 
L 54.090923 181.769299 
L 54.293427 131.991003 
L 54.495931 185.148595 
L 54.698435 116.708959 
L 54.900939 198.192086 
L 55.103443 114.878218 
L 55.305947 130.540179 
L 55.508451 157.010215 
L 55.710955 155.683642 
L 55.913459 167.371507 
L 56.115964 134.842737 
L 56.318468 188.92808 
L 56.520972 182.34798 
L 56.723476 188.015359 
L 57.128484 143.048891 
L 57.330988 118.888759 
L 57.533492 168.983024 
L 57.735996 154.973839 
L 57.9385 165.624818 
L 58.141004 191.424926 
L 58.343508 160.138931 
L 58.546013 182.131556 
L 58.748517 185.65004 
L 58.951021 159.958631 
L 59.153525 152.798223 
L 59.356029 170.134465 
L 59.558533 155.009751 
L 59.761037 150.451097 
L 59.963541 130.921137 
L 60.166045 154.249755 
L 60.368549 20.583636 
L 60.571053 151.223253 
L 60.773557 178.628119 
L 60.976062 159.305596 
L 61.178566 163.345698 
L 61.38107 130.444004 
L 61.583574 163.335242 
L 61.786078 136.945175 
L 62.191086 172.236524 
L 62.596094 141.352692 
L 62.798598 180.982174 
L 63.001102 138.639099 
L 63.406111 163.749303 
L 63.608615 164.130142 
L 63.811119 163.200421 
L 64.013623 163.675294 
L 64.216127 161.595338 
L 64.418631 163.580501 
L 64.621135 157.516389 
L 64.823639 136.467354 
L 65.026143 157.170882 
L 65.228647 155.114923 
L 65.633655 174.262417 
L 65.836159 158.85871 
L 66.038664 156.808224 
L 66.241168 173.393816 
L 66.84868 157.415027 
L 67.051184 153.942422 
L 67.253688 160.44459 
L 67.456192 145.456442 
L 67.658696 169.460297 
L 67.8612 163.966657 
L 68.063704 164.362355 
L 68.266208 150.613287 
L 68.468713 162.786444 
L 68.671217 157.285582 
L 68.873721 156.261365 
L 69.278729 148.022468 
L 69.481233 146.128568 
L 69.886241 159.759627 
L 70.088745 171.91941 
L 70.291249 158.993125 
L 70.493753 154.495742 
L 70.696257 162.489917 
L 70.898762 163.54278 
L 71.101266 158.158714 
L 71.30377 156.838422 
L 71.506274 167.339248 
L 71.911282 150.594886 
L 72.113786 156.11158 
L 72.31629 169.10018 
L 72.518794 145.384034 
L 72.721298 166.175283 
L 73.328811 144.954779 
L 73.531315 167.819465 
L 73.733819 148.878582 
L 73.936323 157.26987 
L 74.138827 148.046711 
L 74.341331 152.871646 
L 74.543835 169.75898 
L 74.746339 157.983547 
L 74.948843 178.239808 
L 75.151347 151.840479 
L 75.353851 155.169893 
L 75.556355 175.508136 
L 75.961364 145.438311 
L 76.163868 154.5293 
L 76.366372 156.631524 
L 76.568876 177.469427 
L 76.77138 157.40422 
L 76.973884 163.511245 
L 77.176388 157.690262 
L 77.378892 158.453928 
L 77.581396 155.601527 
L 77.7839 165.297397 
L 78.188909 152.339421 
L 78.391413 165.084988 
L 78.593917 161.439836 
L 78.796421 132.407684 
L 78.998925 191.050863 
L 79.201429 148.181414 
L 79.606437 175.707203 
L 79.808941 198.057492 
L 80.213949 157.951125 
L 80.416453 132.668841 
L 80.821462 171.429627 
L 81.023966 178.699194 
L 81.428974 137.40841 
L 81.631478 182.846372 
L 81.833982 84.147517 
L 82.23899 188.672493 
L 82.643998 143.270065 
L 82.846502 192.966766 
L 83.251511 131.234601 
L 83.454015 140.602381 
L 83.656519 190.535059 
L 83.859023 161.499543 
L 84.061527 156.352458 
L 84.264031 147.662814 
L 84.466535 190.619362 
L 84.871543 110.63525 
L 85.074047 161.268743 
L 85.276551 130.589717 
L 85.479056 167.397594 
L 85.68156 141.255599 
L 85.884064 132.991064 
L 86.086568 148.594568 
L 86.289072 137.834556 
L 86.491576 188.215499 
L 86.896584 130.352015 
L 87.301592 175.049 
L 87.504096 156.870993 
L 87.7066 153.837532 
L 87.909105 182.724661 
L 88.111609 181.997582 
L 88.314113 134.791218 
L 88.516617 185.981097 
L 88.719121 163.664935 
L 88.921625 179.251806 
L 89.124129 178.014884 
L 89.326633 168.363939 
L 89.731641 138.930608 
L 89.934145 181.493129 
L 90.541658 133.983997 
L 90.744162 155.407018 
L 90.946666 146.107074 
L 91.14917 144.515303 
L 91.351674 190.00951 
L 91.756682 130.633724 
L 91.959186 184.737619 
L 92.16169 116.95686 
L 92.364194 138.445499 
L 92.566698 186.13684 
L 92.769203 143.276883 
L 92.971707 148.60569 
L 93.174211 175.574433 
L 93.376715 164.915091 
L 93.579219 144.306468 
L 93.781723 159.475052 
L 93.984227 163.259506 
L 94.186731 126.95107 
L 94.389235 167.397115 
L 94.591739 180.05932 
L 94.996747 148.722568 
L 95.199251 181.782798 
L 95.60426 127.966571 
L 95.806764 184.887685 
L 96.009268 153.117809 
L 96.211772 141.0412 
L 96.414276 186.932455 
L 96.819284 138.432553 
L 97.021788 181.902845 
L 97.224292 137.895333 
L 97.426796 180.888025 
L 97.6293 167.8746 
L 97.831805 138.35292 
L 98.034309 182.607141 
L 98.236813 132.024517 
L 98.439317 172.64613 
L 98.641821 158.332932 
L 98.844325 164.094376 
L 99.046829 131.345811 
L 99.249333 178.001728 
L 99.451837 166.05226 
L 99.654341 180.838192 
L 99.856845 184.599465 
L 100.059349 180.179091 
L 100.261854 133.322634 
L 100.464358 178.179048 
L 100.869366 149.79714 
L 101.07187 116.855158 
L 101.274374 145.039851 
L 101.476878 123.854793 
L 101.679382 194.211301 
L 102.08439 138.183013 
L 102.286894 180.405977 
L 102.489398 188.731771 
L 102.691903 167.174186 
L 102.894407 197.623501 
L 103.096911 130.584415 
L 103.501919 145.981156 
L 103.704423 192.060243 
L 103.906927 171.242509 
L 104.311935 191.093414 
L 104.514439 147.34927 
L 104.716943 206.166762 
L 104.919447 164.99943 
L 105.121952 190.930077 
L 105.324456 182.674884 
L 105.729464 133.594963 
L 105.931968 140.610692 
L 106.336976 190.518089 
L 106.53948 122.84312 
L 106.741984 148.629203 
L 106.944488 158.475432 
L 107.146992 187.981601 
L 107.349496 179.007582 
L 107.552001 190.962049 
L 107.754505 192.059902 
L 107.957009 155.987226 
L 108.159513 188.977477 
L 108.362017 182.658396 
L 108.564521 138.4678 
L 108.767025 181.923863 
L 108.969529 194.085403 
L 109.374537 139.27286 
L 109.577041 145.722506 
L 109.779545 144.211913 
L 109.98205 168.268944 
L 110.184554 165.594241 
L 110.589562 184.014298 
L 110.792066 173.619062 
L 110.99457 171.091733 
L 111.197074 147.067043 
L 111.399578 99.000195 
L 111.602082 186.847649 
L 111.804586 216.30021 
L 112.00709 130.888423 
L 112.209594 184.598255 
L 112.412099 151.61921 
L 112.614603 146.069308 
L 113.019611 194.39555 
L 113.222115 130.688903 
L 113.424619 170.135455 
L 113.627123 128.686262 
L 114.032131 201.05326 
L 114.234635 194.278314 
L 114.437139 145.386765 
L 114.639643 172.606883 
L 114.842148 134.130177 
L 115.044652 123.143957 
L 115.247156 167.815337 
L 115.44966 181.972303 
L 115.652164 181.722271 
L 116.057172 128.7322 
L 116.664684 185.781384 
L 117.069692 135.67153 
L 117.272197 186.16418 
L 117.474701 177.829164 
L 117.677205 122.692188 
L 117.879709 142.426603 
L 118.082213 185.005789 
L 118.284717 185.331695 
L 118.487221 135.256778 
L 118.689725 165.273526 
L 118.892229 150.917589 
L 119.094733 144.499378 
L 119.499741 177.84795 
L 119.702246 174.714159 
L 119.90475 131.928292 
L 120.107254 123.580484 
L 120.309758 130.16929 
L 120.512262 156.563004 
L 120.714766 152.488204 
L 120.91727 126.463973 
L 121.119774 173.720756 
L 121.322278 180.970022 
L 121.524782 141.433463 
L 121.727286 138.232091 
L 121.92979 180.570009 
L 122.132295 122.557555 
L 122.334799 178.335882 
L 122.537303 130.740258 
L 122.739807 173.280419 
L 122.942311 122.103959 
L 123.144815 168.173274 
L 123.347319 181.511832 
L 123.549823 162.448681 
L 123.752327 189.010731 
L 123.954831 189.533635 
L 124.157335 149.564089 
L 124.359839 179.461811 
L 124.562343 184.908949 
L 124.967352 136.913022 
L 125.169856 185.977281 
L 125.37236 163.617185 
L 125.574864 177.038691 
L 125.777368 131.299908 
L 125.979872 127.790685 
L 126.182376 137.431477 
L 126.38488 181.974275 
L 126.789888 133.783435 
L 126.992392 165.124312 
L 127.194897 169.895709 
L 127.397401 178.186824 
L 127.599905 174.022169 
L 127.802409 140.785873 
L 128.207417 188.10709 
L 128.409921 161.11033 
L 128.612425 158.84343 
L 128.814929 168.377063 
L 129.017433 139.181202 
L 129.422441 180.987676 
L 129.624946 185.249433 
L 129.82745 135.267344 
L 130.232458 161.527452 
L 130.434962 122.401131 
L 130.637466 129.952955 
L 130.83997 175.91969 
L 131.042474 178.546917 
L 131.244978 149.901296 
L 131.649986 174.166997 
L 131.85249 200.001934 
L 132.257499 131.315639 
L 132.460003 147.582458 
L 132.662507 131.326409 
L 132.865011 127.07367 
L 133.067515 212.683725 
L 133.270019 149.607005 
L 133.472523 188.262442 
L 133.675027 176.087126 
L 133.877531 150.978643 
L 134.080035 162.14179 
L 134.282539 194.236549 
L 134.485044 192.090223 
L 135.092556 133.840535 
L 135.29506 140.539623 
L 135.497564 174.577597 
L 135.700068 168.0554 
L 135.902572 171.24437 
L 136.105076 189.236094 
L 136.30758 176.232389 
L 136.510084 150.218653 
L 136.915093 177.206246 
L 137.117597 152.095146 
L 137.320101 173.150844 
L 137.522605 128.81127 
L 138.130117 205.92314 
L 138.332621 152.419573 
L 138.535125 208.813402 
L 138.737629 156.167626 
L 138.940133 139.26214 
L 139.142637 172.418931 
L 139.547646 148.671187 
L 139.75015 171.944981 
L 139.952654 164.745327 
L 140.155158 150.440944 
L 140.357662 166.444153 
L 140.560166 165.471995 
L 140.76267 165.841999 
L 140.965174 166.877522 
L 141.167678 195.932485 
L 141.370182 169.314102 
L 141.572686 175.426613 
L 141.775191 164.181801 
L 141.977695 145.530253 
L 142.180199 184.957623 
L 142.382703 170.223651 
L 142.585207 137.504077 
L 142.787711 171.460159 
L 142.990215 161.986354 
L 143.192719 182.998825 
L 143.395223 137.993161 
L 143.597727 155.783202 
L 144.002735 165.822998 
L 144.20524 136.415582 
L 144.407744 160.258226 
L 144.610248 161.401952 
L 144.812752 165.917278 
L 145.015256 153.591544 
L 145.21776 151.587503 
L 145.420264 194.637847 
L 145.825272 141.336291 
L 146.027776 145.74408 
L 146.23028 145.809029 
L 146.432784 150.175814 
L 146.635289 157.818262 
L 146.837793 159.962405 
L 147.040297 152.661871 
L 147.242801 149.497476 
L 147.445305 172.238618 
L 147.647809 154.006757 
L 147.850313 150.901399 
L 148.052817 152.194573 
L 148.255321 159.730166 
L 148.457825 155.380224 
L 148.660329 162.929775 
L 149.065338 145.419256 
L 149.267842 168.170401 
L 149.470346 162.075127 
L 149.875354 146.19402 
L 150.077858 165.828738 
L 150.280362 159.02578 
L 150.482866 168.515473 
L 150.887874 147.268999 
L 151.292882 169.269224 
L 151.495386 146.812727 
L 151.697891 172.628091 
L 151.900395 142.234906 
L 152.102899 150.300223 
L 152.305403 146.455442 
L 152.507907 153.06438 
L 152.710411 172.066562 
L 152.912915 157.802676 
L 153.115419 186.614387 
L 153.317923 151.810302 
L 153.520427 163.947409 
L 153.722931 149.96697 
L 153.925435 146.077585 
L 154.12794 146.680489 
L 154.330444 157.54716 
L 154.532948 145.822252 
L 154.735452 175.539729 
L 154.937956 179.344206 
L 155.545468 140.200877 
L 155.747972 155.907626 
L 155.950476 159.375768 
L 156.15298 172.119074 
L 156.355484 161.394152 
L 156.557989 172.308944 
L 156.760493 150.606099 
L 156.962997 158.362875 
L 157.165501 148.824308 
L 157.368005 147.841811 
L 157.570509 139.035929 
L 157.773013 157.289987 
L 157.975517 135.910188 
L 158.380525 168.781015 
L 158.583029 174.032883 
L 158.785533 184.296292 
L 158.988038 156.895369 
L 159.190542 165.664348 
L 159.393046 143.392542 
L 159.59555 139.105256 
L 159.798054 173.385672 
L 160.000558 135.718887 
L 160.203062 167.248606 
L 160.405566 132.724475 
L 160.60807 161.510832 
L 160.810574 150.234175 
L 161.013078 176.407139 
L 161.215582 166.325096 
L 161.418087 145.115098 
L 161.620591 145.316119 
L 161.823095 160.023259 
L 162.025599 155.550929 
L 162.228103 169.378427 
L 162.430607 156.670633 
L 162.633111 167.917787 
L 162.835615 151.759633 
L 163.038119 156.134484 
L 163.240623 173.039185 
L 163.443127 157.199729 
L 163.645631 162.786307 
L 163.848136 162.780081 
L 164.05064 149.030576 
L 164.253144 165.186755 
L 164.455648 147.477092 
L 164.658152 148.614638 
L 164.860656 195.808874 
L 165.06316 172.741338 
L 165.265664 172.98566 
L 165.468168 142.567833 
L 165.670672 184.197688 
L 165.873176 185.911325 
L 166.07568 127.751568 
L 166.278185 202.854027 
L 166.683193 87.574038 
L 166.885697 143.774119 
L 167.088201 153.222565 
L 167.290705 117.697483 
L 167.493209 114.263993 
L 167.695713 155.382003 
L 167.898217 152.033325 
L 168.100721 123.519581 
L 168.708234 190.855639 
L 168.910738 149.121318 
L 169.113242 159.261162 
L 169.315746 78.862547 
L 169.51825 142.795758 
L 169.720754 127.118882 
L 169.923258 190.968898 
L 170.125762 157.857203 
L 170.328266 193.110079 
L 170.53077 144.733421 
L 170.733274 161.931096 
L 170.935778 195.496739 
L 171.138283 183.741077 
L 171.340787 215.973272 
L 171.543291 211.472146 
L 171.745795 141.20379 
L 171.948299 128.201123 
L 172.150803 143.922355 
L 172.353307 130.893095 
L 172.555811 102.275133 
L 172.758315 188.038789 
L 172.960819 187.106524 
L 173.163323 173.787026 
L 173.365827 174.538279 
L 173.568332 133.346085 
L 173.97334 206.038742 
L 174.175844 169.571833 
L 174.378348 177.757869 
L 174.580852 122.124844 
L 174.98586 165.873992 
L 175.188364 181.023214 
L 175.390868 162.620941 
L 175.593372 172.558155 
L 175.795876 172.614115 
L 175.998381 151.329033 
L 176.200885 159.374096 
L 176.403389 147.886939 
L 176.605893 148.305643 
L 176.808397 151.641471 
L 177.010901 159.345325 
L 177.213405 161.700466 
L 177.415909 156.99377 
L 177.618413 134.418327 
L 177.820917 171.879905 
L 178.023421 167.857091 
L 178.225925 160.7974 
L 178.42843 133.602707 
L 178.833438 203.891554 
L 179.035942 160.551406 
L 179.44095 172.285154 
L 179.643454 169.744256 
L 179.845958 157.878568 
L 180.048462 165.947725 
L 180.250966 169.554068 
L 180.45347 138.024218 
L 180.655974 189.120086 
L 180.858478 199.321119 
L 181.060983 88.348095 
L 181.263487 165.864321 
L 181.465991 180.703977 
L 181.668495 148.97709 
L 181.870999 139.753037 
L 182.073503 96.177822 
L 182.276007 149.747062 
L 182.478511 166.737996 
L 182.681015 122.883127 
L 182.883519 167.066666 
L 183.086023 155.498882 
L 183.288527 185.434754 
L 183.491032 149.873291 
L 183.693536 147.268725 
L 183.89604 152.073036 
L 184.098544 199.973563 
L 184.301048 168.310144 
L 184.503552 180.577413 
L 184.706056 143.435684 
L 184.90856 144.574247 
L 185.111064 189.107623 
L 185.313568 146.341161 
L 185.516072 153.719312 
L 185.718576 142.938254 
L 185.921081 140.66465 
L 186.123585 133.837127 
L 186.326089 177.760945 
L 186.528593 157.902584 
L 186.731097 121.633386 
L 186.933601 187.148172 
L 187.136105 159.907901 
L 187.338609 183.210415 
L 187.541113 191.537953 
L 187.743617 156.4878 
L 187.946121 88.963218 
L 188.148625 180.025098 
L 188.35113 159.390548 
L 188.553634 186.880772 
L 188.756138 195.1532 
L 189.36365 116.965611 
L 189.566154 137.41531 
L 189.768658 208.22751 
L 189.971162 152.549798 
L 190.173666 169.267739 
L 190.37617 174.700401 
L 190.578674 127.105087 
L 190.781179 118.707952 
L 190.983683 141.112363 
L 191.186187 147.949267 
L 191.388691 138.141303 
L 191.591195 144.749229 
L 191.793699 146.008 
L 191.996203 188.581758 
L 192.198707 160.925711 
L 192.401211 175.722801 
L 192.603715 155.725425 
L 192.806219 94.515524 
L 193.008723 161.672786 
L 193.211228 161.84242 
L 193.413732 126.162522 
L 193.81874 149.38539 
L 194.021244 186.675441 
L 194.223748 199.267944 
L 194.426252 197.951449 
L 194.628756 155.808409 
L 194.83126 142.715047 
L 195.033764 196.554792 
L 195.438772 163.400725 
L 195.641277 157.311013 
L 195.843781 135.104331 
L 196.046285 161.314506 
L 196.248789 131.463646 
L 196.451293 165.766874 
L 196.653797 158.710673 
L 196.856301 179.581455 
L 197.058805 138.725302 
L 197.463813 169.835069 
L 197.868821 152.990609 
L 198.071326 168.442626 
L 198.27383 145.509489 
L 198.476334 183.85502 
L 198.678838 136.397685 
L 198.881342 187.660594 
L 199.083846 168.835207 
L 199.28635 132.462991 
L 199.488854 178.200563 
L 199.691358 180.157837 
L 199.893862 168.815392 
L 200.096366 150.316041 
L 200.29887 178.94363 
L 200.501375 187.389169 
L 200.703879 123.637212 
L 200.906383 156.315873 
L 201.108887 150.515424 
L 201.311391 172.805825 
L 201.513895 163.058264 
L 201.716399 178.098546 
L 201.918903 177.355456 
L 202.121407 173.722266 
L 202.323911 161.982229 
L 202.526415 195.851993 
L 202.728919 176.819034 
L 202.931424 89.932183 
L 203.133928 180.012711 
L 203.538936 218.025236 
L 203.74144 177.43358 
L 203.943944 103.913465 
L 204.146448 157.35363 
L 204.348952 140.504091 
L 204.551456 142.459946 
L 204.75396 166.990373 
L 205.158968 141.507802 
L 205.361473 165.719837 
L 205.563977 150.371306 
L 205.766481 169.964614 
L 205.968985 164.561686 
L 206.171489 169.094626 
L 206.373993 138.094917 
L 206.576497 153.803994 
L 206.779001 180.995071 
L 206.981505 155.369808 
L 207.184009 168.527652 
L 207.386513 151.125375 
L 207.589017 160.119179 
L 207.791522 145.202271 
L 207.994026 152.125001 
L 208.19653 169.960035 
L 208.399034 145.043827 
L 208.601538 183.918722 
L 208.804042 196.261314 
L 209.20905 118.257425 
L 209.614058 180.511966 
L 209.816562 176.40595 
L 210.019066 181.067837 
L 210.22157 162.355574 
L 210.424075 165.10678 
L 210.626579 183.587655 
L 210.829083 178.44459 
L 211.031587 146.712679 
L 211.436595 129.556699 
L 211.639099 199.510545 
L 211.841603 156.443984 
L 212.044107 141.468925 
L 212.449115 162.377594 
L 212.651619 118.750201 
L 212.854124 184.454481 
L 213.056628 166.123344 
L 213.259132 160.696427 
L 213.461636 194.949798 
L 213.66414 155.042518 
L 213.866644 155.293161 
L 214.069148 160.204212 
L 214.271652 172.898973 
L 214.474156 163.914768 
L 214.67666 172.613919 
L 214.879164 147.76859 
L 215.284173 169.804839 
L 215.486677 146.36235 
L 215.689181 173.183219 
L 215.891685 178.525132 
L 216.094189 151.928337 
L 216.296693 157.672794 
L 216.499197 174.728718 
L 216.701701 139.827185 
L 216.904205 160.168961 
L 217.106709 141.532203 
L 217.309213 170.854691 
L 217.511717 127.030898 
L 217.714222 164.244321 
L 218.11923 143.849857 
L 218.524238 160.656023 
L 218.726742 144.954816 
L 218.929246 143.578553 
L 219.334254 164.087584 
L 219.536758 164.455131 
L 219.739262 169.732412 
L 219.941766 152.602092 
L 220.144271 163.678988 
L 220.346775 161.110463 
L 220.549279 160.975033 
L 220.751783 168.543783 
L 220.954287 166.548233 
L 221.156791 172.358694 
L 221.359295 156.908091 
L 221.764303 150.057852 
L 221.966807 153.3317 
L 222.169311 154.775602 
L 222.371815 147.356779 
L 222.57432 157.198654 
L 222.776824 134.933029 
L 222.979328 163.491581 
L 223.181832 165.814849 
L 223.384336 191.137933 
L 223.58684 143.948651 
L 223.789344 161.307298 
L 223.991848 164.140331 
L 224.194352 158.390903 
L 224.396856 140.592635 
L 224.59936 173.390546 
L 224.801864 127.075371 
L 225.004369 190.289983 
L 225.206873 134.969661 
L 225.409377 135.692951 
L 225.611881 147.566034 
L 225.814385 169.592579 
L 226.016889 145.563329 
L 226.219393 172.76656 
L 226.421897 148.318748 
L 226.624401 154.043456 
L 226.826905 166.172187 
L 227.029409 169.664004 
L 227.231913 132.127046 
L 227.434418 132.559921 
L 227.636922 105.347645 
L 227.839426 156.355364 
L 228.04193 172.465923 
L 228.244434 138.439702 
L 228.446938 152.720975 
L 228.649442 143.531008 
L 228.851946 140.367054 
L 229.05445 156.551519 
L 229.256954 152.762723 
L 229.459458 155.473973 
L 229.661962 166.199729 
L 229.864467 134.047923 
L 230.066971 171.963218 
L 230.269475 154.905621 
L 230.471979 152.726737 
L 230.674483 152.75448 
L 231.079491 165.499365 
L 231.281995 149.05029 
L 231.484499 159.53851 
L 231.687003 157.276393 
L 231.889507 167.139691 
L 232.092011 163.471331 
L 232.294516 150.469346 
L 232.49702 148.94778 
L 232.699524 172.674189 
L 232.902028 152.359119 
L 233.307036 157.559324 
L 233.50954 176.420018 
L 233.712044 184.5953 
L 233.914548 162.591102 
L 234.319556 146.291337 
L 234.52206 164.626771 
L 234.724565 152.668994 
L 234.927069 161.021898 
L 235.332077 206.966424 
L 235.534581 156.830913 
L 235.737085 143.078939 
L 236.344597 176.995338 
L 236.749605 163.698738 
L 236.952109 170.6812 
L 237.154614 158.3823 
L 237.357118 175.164757 
L 237.559622 146.432759 
L 237.762126 147.082573 
L 237.96463 161.245693 
L 238.167134 145.738808 
L 238.369638 172.474027 
L 238.572142 161.123274 
L 238.774646 157.035004 
L 238.97715 159.997043 
L 239.179654 160.126475 
L 239.382158 140.754617 
L 239.787167 167.972457 
L 239.989671 175.87878 
L 240.394679 122.292615 
L 240.597183 151.23413 
L 240.799687 198.127978 
L 241.002191 164.311916 
L 241.204695 166.984233 
L 241.407199 197.487902 
L 241.609703 186.981928 
L 241.812207 137.689572 
L 242.014711 159.466132 
L 242.217216 169.053389 
L 242.622224 154.280882 
L 243.027232 163.407363 
L 243.229736 146.554627 
L 243.43224 160.157212 
L 243.634744 157.624616 
L 243.837248 152.217415 
L 244.039752 180.973292 
L 244.242256 182.433714 
L 244.44476 157.53712 
L 244.647265 154.059604 
L 244.849769 164.091863 
L 245.052273 155.489391 
L 245.254777 162.670137 
L 245.457281 185.876404 
L 245.862289 148.37983 
L 246.267297 188.97445 
L 246.469801 132.446731 
L 246.874809 162.799498 
L 247.077314 168.755912 
L 247.279818 164.978128 
L 247.482322 150.439326 
L 247.684826 167.72236 
L 247.88733 151.812501 
L 248.089834 149.240167 
L 248.292338 127.219621 
L 248.494842 135.28648 
L 248.697346 157.478714 
L 248.89985 156.606747 
L 249.102354 172.246285 
L 249.304858 158.375792 
L 249.507363 196.528143 
L 249.709867 188.366453 
L 249.912371 168.596749 
L 250.114875 212.177145 
L 250.317379 160.415851 
L 250.519883 176.979535 
L 250.722387 113.82203 
L 250.924891 173.525558 
L 251.127395 119.112794 
L 251.329899 177.241657 
L 251.532403 132.290219 
L 251.734907 154.609096 
L 251.937412 153.087369 
L 252.139916 133.435018 
L 252.34242 169.82107 
L 252.544924 139.547118 
L 252.949932 187.984263 
L 253.35494 133.032138 
L 253.557444 173.469363 
L 253.759948 154.971229 
L 253.962452 157.62587 
L 254.164956 167.546214 
L 254.367461 164.399317 
L 254.569965 167.049271 
L 254.772469 146.874351 
L 254.974973 170.202655 
L 255.177477 159.14758 
L 255.379981 172.933094 
L 255.582485 160.179154 
L 256.189997 146.849625 
L 256.392501 193.501254 
L 256.79751 142.595527 
L 257.202518 159.897957 
L 257.405022 155.242649 
L 257.607526 154.705175 
L 257.81003 140.797265 
L 258.012534 160.289944 
L 258.215038 156.963788 
L 258.417542 149.774435 
L 258.620046 174.992143 
L 258.82255 145.729442 
L 259.025054 178.896107 
L 259.227559 142.279133 
L 259.430063 162.1187 
L 259.632567 147.848061 
L 259.835071 166.129956 
L 260.037575 173.476165 
L 260.240079 170.164862 
L 260.442583 151.712785 
L 260.645087 156.867473 
L 260.847591 158.62033 
L 261.050095 163.384827 
L 261.252599 149.55135 
L 261.455103 161.4093 
L 261.657608 161.154804 
L 261.860112 168.50697 
L 262.062616 162.94418 
L 262.26512 153.234528 
L 262.467624 157.908232 
L 262.670128 146.003361 
L 263.075136 150.851752 
L 263.27764 156.842332 
L 263.480144 148.660452 
L 263.682648 157.95086 
L 263.885152 161.487084 
L 264.087657 146.923818 
L 264.290161 166.484574 
L 264.492665 157.945823 
L 264.695169 157.363822 
L 264.897673 170.104363 
L 265.302681 149.44635 
L 265.707689 158.301997 
L 266.112697 170.727173 
L 266.315201 147.770748 
L 266.517705 171.321324 
L 266.72021 146.924558 
L 266.922714 174.505772 
L 267.125218 164.804828 
L 267.327722 161.504824 
L 267.530226 150.33322 
L 267.73273 151.938684 
L 267.935234 156.991492 
L 268.137738 165.987499 
L 268.340242 166.926452 
L 268.542746 171.940795 
L 268.74525 151.384595 
L 268.947754 172.161354 
L 269.352763 143.58245 
L 269.555267 162.820196 
L 269.757771 165.502813 
L 269.960275 159.607172 
L 270.162779 148.900772 
L 270.567787 176.413337 
L 270.972795 151.324316 
L 271.175299 152.033293 
L 271.377803 157.132948 
L 271.580308 148.617368 
L 271.782812 160.512453 
L 271.985316 158.49274 
L 272.18782 157.945298 
L 272.390324 147.841768 
L 272.592828 147.057409 
L 272.795332 170.881437 
L 272.997836 158.288779 
L 273.20034 164.944208 
L 273.605348 159.479604 
L 273.807852 150.296599 
L 274.010357 170.875857 
L 274.212861 161.591362 
L 274.415365 160.496017 
L 274.617869 158.43519 
L 274.820373 165.132215 
L 275.225381 157.356953 
L 275.427885 145.058107 
L 275.630389 171.302681 
L 275.832893 164.358866 
L 276.035397 163.25458 
L 276.237901 163.652867 
L 276.440406 176.06416 
L 276.64291 169.58554 
L 276.845414 137.553542 
L 277.250422 176.703867 
L 277.452926 137.63607 
L 277.65543 163.082612 
L 278.060438 143.507005 
L 278.262942 143.621203 
L 278.465446 141.854988 
L 278.66795 169.148966 
L 278.870455 180.329325 
L 279.072959 150.798048 
L 279.275463 141.813463 
L 279.477967 194.79836 
L 279.680471 162.765065 
L 279.882975 160.181599 
L 280.085479 162.978998 
L 280.287983 168.95855 
L 280.490487 168.217493 
L 280.692991 141.6828 
L 281.097999 168.061084 
L 281.300504 121.556633 
L 281.503008 153.833452 
L 281.705512 158.499955 
L 281.908016 157.270782 
L 282.11052 138.762564 
L 282.313024 189.25272 
L 282.515528 159.025646 
L 282.718032 187.542701 
L 282.920536 137.995863 
L 283.325544 176.661461 
L 283.730553 124.630874 
L 283.933057 159.121482 
L 284.338065 175.966138 
L 284.540569 168.85116 
L 284.743073 128.44883 
L 285.148081 185.352488 
L 285.350585 172.941451 
L 285.553089 147.831286 
L 285.755593 169.475567 
L 285.958097 151.982718 
L 286.160602 164.285655 
L 286.363106 152.420797 
L 286.56561 172.065696 
L 286.768114 139.361215 
L 286.970618 144.75812 
L 287.173122 171.80329 
L 287.375626 170.447682 
L 287.57813 127.930032 
L 287.983138 162.495627 
L 288.185642 144.571163 
L 288.388146 166.050546 
L 288.590651 134.822519 
L 288.793155 170.477304 
L 288.995659 183.469576 
L 289.198163 149.257208 
L 289.400667 181.876154 
L 289.603171 176.917391 
L 289.805675 136.481123 
L 290.008179 175.87932 
L 290.210683 169.395115 
L 290.413187 142.685593 
L 290.615691 133.354865 
L 290.818195 142.099501 
L 291.0207 187.889099 
L 291.223204 178.719252 
L 291.425708 146.471379 
L 291.628212 135.157291 
L 291.830716 182.208346 
L 292.03322 172.334224 
L 292.235724 133.189889 
L 292.438228 188.965752 
L 292.843236 132.871812 
L 293.04574 177.767527 
L 293.248244 179.801754 
L 293.450749 142.304627 
L 293.653253 193.204337 
L 293.855757 145.295437 
L 294.260765 170.334823 
L 294.463269 138.337773 
L 294.665773 166.911289 
L 294.868277 167.69563 
L 295.070781 151.458395 
L 295.273285 149.398429 
L 295.475789 132.478596 
L 295.678293 174.42513 
L 295.880797 160.562632 
L 296.083302 138.533185 
L 296.285806 174.737632 
L 296.48831 178.841374 
L 296.690814 131.79448 
L 296.893318 176.180412 
L 297.095822 135.01226 
L 297.298326 134.021441 
L 297.50083 165.390308 
L 297.703334 139.704865 
L 297.905838 181.49561 
L 298.108342 152.808122 
L 298.310846 154.909793 
L 298.513351 180.868281 
L 298.715855 142.030345 
L 298.918359 148.55025 
L 299.120863 176.413121 
L 299.323367 137.50314 
L 299.525871 175.421667 
L 299.930879 137.580364 
L 300.133383 183.457527 
L 300.335887 128.256721 
L 300.538391 175.959439 
L 300.740895 151.505644 
L 300.9434 175.911711 
L 301.145904 155.35492 
L 301.348408 185.531975 
L 301.550912 154.954665 
L 301.753416 159.06117 
L 301.95592 177.721014 
L 302.158424 170.743274 
L 302.360928 134.474919 
L 302.563432 140.913688 
L 302.765936 162.438132 
L 302.96844 167.001711 
L 303.170944 175.161357 
L 303.373449 132.171517 
L 303.575953 168.475595 
L 303.980961 150.601584 
L 304.183465 149.550345 
L 304.385969 144.330122 
L 304.588473 169.034105 
L 304.790977 148.393929 
L 304.993481 143.90076 
L 305.195985 168.222804 
L 305.398489 178.906467 
L 305.803498 134.270015 
L 306.006002 169.149415 
L 306.208506 173.653766 
L 306.41101 175.312392 
L 306.613514 174.969021 
L 306.816018 162.957938 
L 307.018522 159.422061 
L 307.221026 145.182916 
L 307.42353 181.208538 
L 307.626034 138.32419 
L 308.031042 170.684411 
L 308.233547 145.120301 
L 308.436051 149.60469 
L 308.638555 173.925834 
L 308.841059 139.605136 
L 309.043563 185.61801 
L 309.246067 144.565176 
L 309.448571 172.506336 
L 309.651075 171.298476 
L 309.853579 132.455443 
L 310.056083 171.888654 
L 310.258587 141.710914 
L 310.461091 173.789687 
L 310.8661 147.981728 
L 311.068604 173.472694 
L 311.271108 138.648364 
L 311.473612 170.258931 
L 311.676116 161.022305 
L 311.87862 141.339735 
L 312.081124 169.576188 
L 312.283628 165.734978 
L 312.486132 156.580528 
L 312.688636 163.378367 
L 312.89114 150.620628 
L 313.093645 152.481458 
L 313.296149 168.260374 
L 313.498653 160.402964 
L 313.701157 176.220782 
L 313.903661 137.0835 
L 314.106165 171.008194 
L 314.308669 147.334532 
L 314.511173 155.968543 
L 314.713677 173.308658 
L 314.916181 145.783199 
L 315.118685 156.53803 
L 315.321189 153.894047 
L 315.523694 149.77893 
L 315.726198 150.880764 
L 315.928702 176.535569 
L 316.131206 144.850643 
L 316.33371 165.961306 
L 316.536214 155.859603 
L 316.738718 169.150792 
L 317.143726 151.431533 
L 317.34623 170.469297 
L 317.548734 167.491388 
L 317.751238 151.213017 
L 317.953743 166.482907 
L 318.156247 153.688189 
L 318.358751 151.125698 
L 318.561255 167.29818 
L 318.763759 154.527453 
L 318.966263 162.108878 
L 319.168767 153.089922 
L 319.371271 154.523766 
L 319.573775 147.803825 
L 319.776279 164.262468 
L 319.978783 156.301006 
L 320.383792 162.964915 
L 320.586296 162.343276 
L 320.7888 157.780156 
L 321.193808 154.937302 
L 321.396312 157.692559 
L 321.598816 170.397135 
L 321.80132 152.254267 
L 322.003824 164.425107 
L 322.206328 157.050937 
L 322.408832 156.469315 
L 322.611336 161.153275 
L 322.813841 156.187641 
L 323.218849 159.623227 
L 323.421353 164.541611 
L 323.623857 156.411641 
L 323.826361 168.853854 
L 324.028865 159.370917 
L 324.433873 167.082327 
L 324.636377 165.435008 
L 324.838881 152.809692 
L 325.041385 149.976311 
L 325.243889 160.998061 
L 325.851402 153.073721 
L 326.053906 165.840434 
L 326.25641 152.743063 
L 326.458914 172.047744 
L 326.661418 149.013923 
L 326.863922 153.45515 
L 327.066426 160.518123 
L 327.26893 159.210278 
L 327.471434 157.008366 
L 327.673938 162.484992 
L 327.876443 152.517801 
L 328.078947 169.135033 
L 328.281451 157.560147 
L 328.483955 164.067894 
L 328.686459 156.335533 
L 328.888963 156.163014 
L 329.091467 164.166409 
L 329.293971 152.277281 
L 329.496475 162.51548 
L 329.698979 160.240723 
L 329.901483 159.470459 
L 330.103987 152.435641 
L 330.306492 161.904929 
L 330.508996 165.404495 
L 330.7115 156.764606 
L 330.914004 166.285081 
L 331.116508 154.902384 
L 331.521516 163.782493 
L 331.72402 156.376273 
L 331.926524 158.059406 
L 332.129028 158.646207 
L 332.331532 158.584579 
L 332.534036 152.523677 
L 332.736541 165.925766 
L 332.939045 153.57625 
L 333.141549 167.985379 
L 333.344053 159.159239 
L 333.546557 167.573672 
L 333.749061 152.581269 
L 333.951565 165.586491 
L 334.154069 152.609787 
L 334.356573 150.799461 
L 334.559077 165.188071 
L 334.761581 153.464111 
L 334.964085 168.218859 
L 335.16659 167.701437 
L 335.369094 151.490296 
L 335.571598 151.619121 
L 335.774102 165.359014 
L 335.976606 153.595702 
L 336.17911 153.086873 
L 336.381614 168.10899 
L 336.584118 154.084334 
L 336.786622 162.065177 
L 336.989126 157.208139 
L 337.19163 165.068732 
L 337.394134 167.328059 
L 337.596639 157.183987 
L 337.799143 159.281434 
L 338.001647 158.822509 
L 338.204151 164.892631 
L 338.406655 153.226788 
L 338.609159 168.191241 
L 338.811663 164.786004 
L 339.014167 152.331653 
L 339.216671 158.365714 
L 339.419175 160.781674 
L 339.621679 157.637614 
L 339.824183 150.890105 
L 340.026688 165.352837 
L 340.431696 149.944593 
L 340.6342 136.572964 
L 340.836704 189.971741 
L 341.241712 138.92064 
L 341.444216 79.857028 
L 341.849224 162.23057 
L 342.254232 171.424722 
L 342.456737 154.421944 
L 342.659241 148.534627 
L 343.266753 171.548463 
L 343.469257 175.090534 
L 344.076769 165.411053 
L 344.279273 167.647574 
L 344.684281 149.130108 
L 345.08929 161.342441 
L 345.291794 165.299232 
L 345.494298 164.617753 
L 345.696802 177.102297 
L 345.899306 155.453855 
L 346.10181 167.486172 
L 346.304314 149.511054 
L 346.506818 154.973838 
L 346.506818 154.973838 
" style="fill:none;stroke:#1f77b4;stroke-linecap:square;stroke-width:1.5;"/>
   </g>
   <g id="patch_3">
    <path d="M 26.925 228.14 
L 26.925 10.7 
" style="fill:none;stroke:#000000;stroke-linecap:square;stroke-linejoin:miter;stroke-width:0.8;"/>
   </g>
   <g id="patch_4">
    <path d="M 361.725 228.14 
L 361.725 10.7 
" style="fill:none;stroke:#000000;stroke-linecap:square;stroke-linejoin:miter;stroke-width:0.8;"/>
   </g>
   <g id="patch_5">
    <path d="M 26.925 228.14 
L 361.725 228.14 
" style="fill:none;stroke:#000000;stroke-linecap:square;stroke-linejoin:miter;stroke-width:0.8;"/>
   </g>
   <g id="patch_6">
    <path d="M 26.925 10.7 
L 361.725 10.7 
" style="fill:none;stroke:#000000;stroke-linecap:square;stroke-linejoin:miter;stroke-width:0.8;"/>
   </g>
  </g>
 </g>
 <defs>
  <clipPath id="p2e2147189b">
   <rect height="217.44" width="334.8" x="26.925" y="10.7"/>
  </clipPath>
 </defs>
</svg>
