<?xml version="1.0" encoding="utf-8" standalone="no"?>
<!DOCTYPE svg PUBLIC "-//W3C//DTD SVG 1.1//EN"
  "http://www.w3.org/Graphics/SVG/1.1/DTD/svg11.dtd">
<!-- Created with matplotlib (http://matplotlib.org/) -->
<svg height="300.690125pt" version="1.1" viewBox="0 0 404.569375 300.690125" width="404.569375pt" xmlns="http://www.w3.org/2000/svg" xmlns:xlink="http://www.w3.org/1999/xlink">
 <defs>
  <style type="text/css">
*{stroke-linecap:butt;stroke-linejoin:round;}
  </style>
 </defs>
 <g id="figure_1">
  <g id="patch_1">
   <path d="M 0 300.690125 
L 404.569375 300.690125 
L 404.569375 0 
L 0 0 
z
" style="fill:#ffffff;"/>
  </g>
  <g id="axes_1">
   <g id="patch_2">
    <path d="M 36.465625 276.812 
L 393.585625 276.812 
L 393.585625 10.7 
L 36.465625 10.7 
z
" style="fill:#ffffff;"/>
   </g>
   <g id="matplotlib.axis_1">
    <g id="xtick_1">
     <g id="line2d_1">
      <defs>
       <path d="M 0 0 
L 0 3.5 
" id="m7743342a11" style="stroke:#000000;stroke-width:0.8;"/>
      </defs>
      <g>
       <use style="stroke:#000000;stroke-width:0.8;" x="52.698352" xlink:href="#m7743342a11" y="276.812"/>
      </g>
     </g>
     <g id="text_1">
      <!-- 0 -->
      <defs>
       <path d="M 31.78125 66.40625 
Q 24.171875 66.40625 20.328125 58.90625 
Q 16.5 51.421875 16.5 36.375 
Q 16.5 21.390625 20.328125 13.890625 
Q 24.171875 6.390625 31.78125 6.390625 
Q 39.453125 6.390625 43.28125 13.890625 
Q 47.125 21.390625 47.125 36.375 
Q 47.125 51.421875 43.28125 58.90625 
Q 39.453125 66.40625 31.78125 66.40625 
z
M 31.78125 74.21875 
Q 44.046875 74.21875 50.515625 64.515625 
Q 56.984375 54.828125 56.984375 36.375 
Q 56.984375 17.96875 50.515625 8.265625 
Q 44.046875 -1.421875 31.78125 -1.421875 
Q 19.53125 -1.421875 13.0625 8.265625 
Q 6.59375 17.96875 6.59375 36.375 
Q 6.59375 54.828125 13.0625 64.515625 
Q 19.53125 74.21875 31.78125 74.21875 
z
" id="DejaVuSans-30"/>
      </defs>
      <g transform="translate(49.517102 291.410437)scale(0.1 -0.1)">
       <use xlink:href="#DejaVuSans-30"/>
      </g>
     </g>
    </g>
    <g id="xtick_2">
     <g id="line2d_2">
      <g>
       <use style="stroke:#000000;stroke-width:0.8;" x="94.589261" xlink:href="#m7743342a11" y="276.812"/>
      </g>
     </g>
     <g id="text_2">
      <!-- 100 -->
      <defs>
       <path d="M 12.40625 8.296875 
L 28.515625 8.296875 
L 28.515625 63.921875 
L 10.984375 60.40625 
L 10.984375 69.390625 
L 28.421875 72.90625 
L 38.28125 72.90625 
L 38.28125 8.296875 
L 54.390625 8.296875 
L 54.390625 0 
L 12.40625 0 
z
" id="DejaVuSans-31"/>
      </defs>
      <g transform="translate(85.045511 291.410437)scale(0.1 -0.1)">
       <use xlink:href="#DejaVuSans-31"/>
       <use x="63.623047" xlink:href="#DejaVuSans-30"/>
       <use x="127.246094" xlink:href="#DejaVuSans-30"/>
      </g>
     </g>
    </g>
    <g id="xtick_3">
     <g id="line2d_3">
      <g>
       <use style="stroke:#000000;stroke-width:0.8;" x="136.48017" xlink:href="#m7743342a11" y="276.812"/>
      </g>
     </g>
     <g id="text_3">
      <!-- 200 -->
      <defs>
       <path d="M 19.1875 8.296875 
L 53.609375 8.296875 
L 53.609375 0 
L 7.328125 0 
L 7.328125 8.296875 
Q 12.9375 14.109375 22.625 23.890625 
Q 32.328125 33.6875 34.8125 36.53125 
Q 39.546875 41.84375 41.421875 45.53125 
Q 43.3125 49.21875 43.3125 52.78125 
Q 43.3125 58.59375 39.234375 62.25 
Q 35.15625 65.921875 28.609375 65.921875 
Q 23.96875 65.921875 18.8125 64.3125 
Q 13.671875 62.703125 7.8125 59.421875 
L 7.8125 69.390625 
Q 13.765625 71.78125 18.9375 73 
Q 24.125 74.21875 28.421875 74.21875 
Q 39.75 74.21875 46.484375 68.546875 
Q 53.21875 62.890625 53.21875 53.421875 
Q 53.21875 48.921875 51.53125 44.890625 
Q 49.859375 40.875 45.40625 35.40625 
Q 44.1875 33.984375 37.640625 27.21875 
Q 31.109375 20.453125 19.1875 8.296875 
z
" id="DejaVuSans-32"/>
      </defs>
      <g transform="translate(126.93642 291.410437)scale(0.1 -0.1)">
       <use xlink:href="#DejaVuSans-32"/>
       <use x="63.623047" xlink:href="#DejaVuSans-30"/>
       <use x="127.246094" xlink:href="#DejaVuSans-30"/>
      </g>
     </g>
    </g>
    <g id="xtick_4">
     <g id="line2d_4">
      <g>
       <use style="stroke:#000000;stroke-width:0.8;" x="178.37108" xlink:href="#m7743342a11" y="276.812"/>
      </g>
     </g>
     <g id="text_4">
      <!-- 300 -->
      <defs>
       <path d="M 40.578125 39.3125 
Q 47.65625 37.796875 51.625 33 
Q 55.609375 28.21875 55.609375 21.1875 
Q 55.609375 10.40625 48.1875 4.484375 
Q 40.765625 -1.421875 27.09375 -1.421875 
Q 22.515625 -1.421875 17.65625 -0.515625 
Q 12.796875 0.390625 7.625 2.203125 
L 7.625 11.71875 
Q 11.71875 9.328125 16.59375 8.109375 
Q 21.484375 6.890625 26.8125 6.890625 
Q 36.078125 6.890625 40.9375 10.546875 
Q 45.796875 14.203125 45.796875 21.1875 
Q 45.796875 27.640625 41.28125 31.265625 
Q 36.765625 34.90625 28.71875 34.90625 
L 20.21875 34.90625 
L 20.21875 43.015625 
L 29.109375 43.015625 
Q 36.375 43.015625 40.234375 45.921875 
Q 44.09375 48.828125 44.09375 54.296875 
Q 44.09375 59.90625 40.109375 62.90625 
Q 36.140625 65.921875 28.71875 65.921875 
Q 24.65625 65.921875 20.015625 65.03125 
Q 15.375 64.15625 9.8125 62.3125 
L 9.8125 71.09375 
Q 15.4375 72.65625 20.34375 73.4375 
Q 25.25 74.21875 29.59375 74.21875 
Q 40.828125 74.21875 47.359375 69.109375 
Q 53.90625 64.015625 53.90625 55.328125 
Q 53.90625 49.265625 50.4375 45.09375 
Q 46.96875 40.921875 40.578125 39.3125 
z
" id="DejaVuSans-33"/>
      </defs>
      <g transform="translate(168.82733 291.410437)scale(0.1 -0.1)">
       <use xlink:href="#DejaVuSans-33"/>
       <use x="63.623047" xlink:href="#DejaVuSans-30"/>
       <use x="127.246094" xlink:href="#DejaVuSans-30"/>
      </g>
     </g>
    </g>
    <g id="xtick_5">
     <g id="line2d_5">
      <g>
       <use style="stroke:#000000;stroke-width:0.8;" x="220.261989" xlink:href="#m7743342a11" y="276.812"/>
      </g>
     </g>
     <g id="text_5">
      <!-- 400 -->
      <defs>
       <path d="M 37.796875 64.3125 
L 12.890625 25.390625 
L 37.796875 25.390625 
z
M 35.203125 72.90625 
L 47.609375 72.90625 
L 47.609375 25.390625 
L 58.015625 25.390625 
L 58.015625 17.1875 
L 47.609375 17.1875 
L 47.609375 0 
L 37.796875 0 
L 37.796875 17.1875 
L 4.890625 17.1875 
L 4.890625 26.703125 
z
" id="DejaVuSans-34"/>
      </defs>
      <g transform="translate(210.718239 291.410437)scale(0.1 -0.1)">
       <use xlink:href="#DejaVuSans-34"/>
       <use x="63.623047" xlink:href="#DejaVuSans-30"/>
       <use x="127.246094" xlink:href="#DejaVuSans-30"/>
      </g>
     </g>
    </g>
    <g id="xtick_6">
     <g id="line2d_6">
      <g>
       <use style="stroke:#000000;stroke-width:0.8;" x="262.152898" xlink:href="#m7743342a11" y="276.812"/>
      </g>
     </g>
     <g id="text_6">
      <!-- 500 -->
      <defs>
       <path d="M 10.796875 72.90625 
L 49.515625 72.90625 
L 49.515625 64.59375 
L 19.828125 64.59375 
L 19.828125 46.734375 
Q 21.96875 47.46875 24.109375 47.828125 
Q 26.265625 48.1875 28.421875 48.1875 
Q 40.625 48.1875 47.75 41.5 
Q 54.890625 34.8125 54.890625 23.390625 
Q 54.890625 11.625 47.5625 5.09375 
Q 40.234375 -1.421875 26.90625 -1.421875 
Q 22.3125 -1.421875 17.546875 -0.640625 
Q 12.796875 0.140625 7.71875 1.703125 
L 7.71875 11.625 
Q 12.109375 9.234375 16.796875 8.0625 
Q 21.484375 6.890625 26.703125 6.890625 
Q 35.15625 6.890625 40.078125 11.328125 
Q 45.015625 15.765625 45.015625 23.390625 
Q 45.015625 31 40.078125 35.4375 
Q 35.15625 39.890625 26.703125 39.890625 
Q 22.75 39.890625 18.8125 39.015625 
Q 14.890625 38.140625 10.796875 36.28125 
z
" id="DejaVuSans-35"/>
      </defs>
      <g transform="translate(252.609148 291.410437)scale(0.1 -0.1)">
       <use xlink:href="#DejaVuSans-35"/>
       <use x="63.623047" xlink:href="#DejaVuSans-30"/>
       <use x="127.246094" xlink:href="#DejaVuSans-30"/>
      </g>
     </g>
    </g>
    <g id="xtick_7">
     <g id="line2d_7">
      <g>
       <use style="stroke:#000000;stroke-width:0.8;" x="304.043807" xlink:href="#m7743342a11" y="276.812"/>
      </g>
     </g>
     <g id="text_7">
      <!-- 600 -->
      <defs>
       <path d="M 33.015625 40.375 
Q 26.375 40.375 22.484375 35.828125 
Q 18.609375 31.296875 18.609375 23.390625 
Q 18.609375 15.53125 22.484375 10.953125 
Q 26.375 6.390625 33.015625 6.390625 
Q 39.65625 6.390625 43.53125 10.953125 
Q 47.40625 15.53125 47.40625 23.390625 
Q 47.40625 31.296875 43.53125 35.828125 
Q 39.65625 40.375 33.015625 40.375 
z
M 52.59375 71.296875 
L 52.59375 62.3125 
Q 48.875 64.0625 45.09375 64.984375 
Q 41.3125 65.921875 37.59375 65.921875 
Q 27.828125 65.921875 22.671875 59.328125 
Q 17.53125 52.734375 16.796875 39.40625 
Q 19.671875 43.65625 24.015625 45.921875 
Q 28.375 48.1875 33.59375 48.1875 
Q 44.578125 48.1875 50.953125 41.515625 
Q 57.328125 34.859375 57.328125 23.390625 
Q 57.328125 12.15625 50.6875 5.359375 
Q 44.046875 -1.421875 33.015625 -1.421875 
Q 20.359375 -1.421875 13.671875 8.265625 
Q 6.984375 17.96875 6.984375 36.375 
Q 6.984375 53.65625 15.1875 63.9375 
Q 23.390625 74.21875 37.203125 74.21875 
Q 40.921875 74.21875 44.703125 73.484375 
Q 48.484375 72.75 52.59375 71.296875 
z
" id="DejaVuSans-36"/>
      </defs>
      <g transform="translate(294.500057 291.410437)scale(0.1 -0.1)">
       <use xlink:href="#DejaVuSans-36"/>
       <use x="63.623047" xlink:href="#DejaVuSans-30"/>
       <use x="127.246094" xlink:href="#DejaVuSans-30"/>
      </g>
     </g>
    </g>
    <g id="xtick_8">
     <g id="line2d_8">
      <g>
       <use style="stroke:#000000;stroke-width:0.8;" x="345.934716" xlink:href="#m7743342a11" y="276.812"/>
      </g>
     </g>
     <g id="text_8">
      <!-- 700 -->
      <defs>
       <path d="M 8.203125 72.90625 
L 55.078125 72.90625 
L 55.078125 68.703125 
L 28.609375 0 
L 18.3125 0 
L 43.21875 64.59375 
L 8.203125 64.59375 
z
" id="DejaVuSans-37"/>
      </defs>
      <g transform="translate(336.390966 291.410437)scale(0.1 -0.1)">
       <use xlink:href="#DejaVuSans-37"/>
       <use x="63.623047" xlink:href="#DejaVuSans-30"/>
       <use x="127.246094" xlink:href="#DejaVuSans-30"/>
      </g>
     </g>
    </g>
    <g id="xtick_9">
     <g id="line2d_9">
      <g>
       <use style="stroke:#000000;stroke-width:0.8;" x="387.825625" xlink:href="#m7743342a11" y="276.812"/>
      </g>
     </g>
     <g id="text_9">
      <!-- 800 -->
      <defs>
       <path d="M 31.78125 34.625 
Q 24.75 34.625 20.71875 30.859375 
Q 16.703125 27.09375 16.703125 20.515625 
Q 16.703125 13.921875 20.71875 10.15625 
Q 24.75 6.390625 31.78125 6.390625 
Q 38.8125 6.390625 42.859375 10.171875 
Q 46.921875 13.96875 46.921875 20.515625 
Q 46.921875 27.09375 42.890625 30.859375 
Q 38.875 34.625 31.78125 34.625 
z
M 21.921875 38.8125 
Q 15.578125 40.375 12.03125 44.71875 
Q 8.5 49.078125 8.5 55.328125 
Q 8.5 64.0625 14.71875 69.140625 
Q 20.953125 74.21875 31.78125 74.21875 
Q 42.671875 74.21875 48.875 69.140625 
Q 55.078125 64.0625 55.078125 55.328125 
Q 55.078125 49.078125 51.53125 44.71875 
Q 48 40.375 41.703125 38.8125 
Q 48.828125 37.15625 52.796875 32.3125 
Q 56.78125 27.484375 56.78125 20.515625 
Q 56.78125 9.90625 50.3125 4.234375 
Q 43.84375 -1.421875 31.78125 -1.421875 
Q 19.734375 -1.421875 13.25 4.234375 
Q 6.78125 9.90625 6.78125 20.515625 
Q 6.78125 27.484375 10.78125 32.3125 
Q 14.796875 37.15625 21.921875 38.8125 
z
M 18.3125 54.390625 
Q 18.3125 48.734375 21.84375 45.5625 
Q 25.390625 42.390625 31.78125 42.390625 
Q 38.140625 42.390625 41.71875 45.5625 
Q 45.3125 48.734375 45.3125 54.390625 
Q 45.3125 60.0625 41.71875 63.234375 
Q 38.140625 66.40625 31.78125 66.40625 
Q 25.390625 66.40625 21.84375 63.234375 
Q 18.3125 60.0625 18.3125 54.390625 
z
" id="DejaVuSans-38"/>
      </defs>
      <g transform="translate(378.281875 291.410437)scale(0.1 -0.1)">
       <use xlink:href="#DejaVuSans-38"/>
       <use x="63.623047" xlink:href="#DejaVuSans-30"/>
       <use x="127.246094" xlink:href="#DejaVuSans-30"/>
      </g>
     </g>
    </g>
   </g>
   <g id="matplotlib.axis_2">
    <g id="ytick_1">
     <g id="line2d_10">
      <defs>
       <path d="M 0 0 
L -3.5 0 
" id="m4bf83f2dff" style="stroke:#000000;stroke-width:0.8;"/>
      </defs>
      <g>
       <use style="stroke:#000000;stroke-width:0.8;" x="36.465625" xlink:href="#m4bf83f2dff" y="249.387684"/>
      </g>
     </g>
     <g id="text_10">
      <!-- 5.0 -->
      <defs>
       <path d="M 10.6875 12.40625 
L 21 12.40625 
L 21 0 
L 10.6875 0 
z
" id="DejaVuSans-2e"/>
      </defs>
      <g transform="translate(13.5625 253.186903)scale(0.1 -0.1)">
       <use xlink:href="#DejaVuSans-35"/>
       <use x="63.623047" xlink:href="#DejaVuSans-2e"/>
       <use x="95.410156" xlink:href="#DejaVuSans-30"/>
      </g>
     </g>
    </g>
    <g id="ytick_2">
     <g id="line2d_11">
      <g>
       <use style="stroke:#000000;stroke-width:0.8;" x="36.465625" xlink:href="#m4bf83f2dff" y="219.749915"/>
      </g>
     </g>
     <g id="text_11">
      <!-- 7.5 -->
      <g transform="translate(13.5625 223.549133)scale(0.1 -0.1)">
       <use xlink:href="#DejaVuSans-37"/>
       <use x="63.623047" xlink:href="#DejaVuSans-2e"/>
       <use x="95.410156" xlink:href="#DejaVuSans-35"/>
      </g>
     </g>
    </g>
    <g id="ytick_3">
     <g id="line2d_12">
      <g>
       <use style="stroke:#000000;stroke-width:0.8;" x="36.465625" xlink:href="#m4bf83f2dff" y="190.112145"/>
      </g>
     </g>
     <g id="text_12">
      <!-- 10.0 -->
      <g transform="translate(7.2 193.911364)scale(0.1 -0.1)">
       <use xlink:href="#DejaVuSans-31"/>
       <use x="63.623047" xlink:href="#DejaVuSans-30"/>
       <use x="127.246094" xlink:href="#DejaVuSans-2e"/>
       <use x="159.033203" xlink:href="#DejaVuSans-30"/>
      </g>
     </g>
    </g>
    <g id="ytick_4">
     <g id="line2d_13">
      <g>
       <use style="stroke:#000000;stroke-width:0.8;" x="36.465625" xlink:href="#m4bf83f2dff" y="160.474376"/>
      </g>
     </g>
     <g id="text_13">
      <!-- 12.5 -->
      <g transform="translate(7.2 164.273595)scale(0.1 -0.1)">
       <use xlink:href="#DejaVuSans-31"/>
       <use x="63.623047" xlink:href="#DejaVuSans-32"/>
       <use x="127.246094" xlink:href="#DejaVuSans-2e"/>
       <use x="159.033203" xlink:href="#DejaVuSans-35"/>
      </g>
     </g>
    </g>
    <g id="ytick_5">
     <g id="line2d_14">
      <g>
       <use style="stroke:#000000;stroke-width:0.8;" x="36.465625" xlink:href="#m4bf83f2dff" y="130.836607"/>
      </g>
     </g>
     <g id="text_14">
      <!-- 15.0 -->
      <g transform="translate(7.2 134.635825)scale(0.1 -0.1)">
       <use xlink:href="#DejaVuSans-31"/>
       <use x="63.623047" xlink:href="#DejaVuSans-35"/>
       <use x="127.246094" xlink:href="#DejaVuSans-2e"/>
       <use x="159.033203" xlink:href="#DejaVuSans-30"/>
      </g>
     </g>
    </g>
    <g id="ytick_6">
     <g id="line2d_15">
      <g>
       <use style="stroke:#000000;stroke-width:0.8;" x="36.465625" xlink:href="#m4bf83f2dff" y="101.198837"/>
      </g>
     </g>
     <g id="text_15">
      <!-- 17.5 -->
      <g transform="translate(7.2 104.998056)scale(0.1 -0.1)">
       <use xlink:href="#DejaVuSans-31"/>
       <use x="63.623047" xlink:href="#DejaVuSans-37"/>
       <use x="127.246094" xlink:href="#DejaVuSans-2e"/>
       <use x="159.033203" xlink:href="#DejaVuSans-35"/>
      </g>
     </g>
    </g>
    <g id="ytick_7">
     <g id="line2d_16">
      <g>
       <use style="stroke:#000000;stroke-width:0.8;" x="36.465625" xlink:href="#m4bf83f2dff" y="71.561068"/>
      </g>
     </g>
     <g id="text_16">
      <!-- 20.0 -->
      <g transform="translate(7.2 75.360287)scale(0.1 -0.1)">
       <use xlink:href="#DejaVuSans-32"/>
       <use x="63.623047" xlink:href="#DejaVuSans-30"/>
       <use x="127.246094" xlink:href="#DejaVuSans-2e"/>
       <use x="159.033203" xlink:href="#DejaVuSans-30"/>
      </g>
     </g>
    </g>
    <g id="ytick_8">
     <g id="line2d_17">
      <g>
       <use style="stroke:#000000;stroke-width:0.8;" x="36.465625" xlink:href="#m4bf83f2dff" y="41.923299"/>
      </g>
     </g>
     <g id="text_17">
      <!-- 22.5 -->
      <g transform="translate(7.2 45.722518)scale(0.1 -0.1)">
       <use xlink:href="#DejaVuSans-32"/>
       <use x="63.623047" xlink:href="#DejaVuSans-32"/>
       <use x="127.246094" xlink:href="#DejaVuSans-2e"/>
       <use x="159.033203" xlink:href="#DejaVuSans-35"/>
      </g>
     </g>
    </g>
    <g id="ytick_9">
     <g id="line2d_18">
      <g>
       <use style="stroke:#000000;stroke-width:0.8;" x="36.465625" xlink:href="#m4bf83f2dff" y="12.28553"/>
      </g>
     </g>
     <g id="text_18">
      <!-- 25.0 -->
      <g transform="translate(7.2 16.084748)scale(0.1 -0.1)">
       <use xlink:href="#DejaVuSans-32"/>
       <use x="63.623047" xlink:href="#DejaVuSans-35"/>
       <use x="127.246094" xlink:href="#DejaVuSans-2e"/>
       <use x="159.033203" xlink:href="#DejaVuSans-30"/>
      </g>
     </g>
    </g>
   </g>
   <g id="line2d_19">
    <path clip-path="url(#pec5363b85c)" d="M 52.698352 192.68879 
L 53.117261 195.524195 
L 53.95508 196.960348 
L 54.373989 192.393965 
L 54.792898 191.074525 
L 55.211807 193.415455 
L 55.630716 187.709832 
L 56.049625 176.446128 
L 56.468534 182.180247 
L 56.887443 185.10283 
L 57.306352 208.258714 
L 57.725261 197.660451 
L 58.14417 225.507205 
L 58.56308 203.230894 
L 58.981989 198.892443 
L 59.400898 207.32657 
L 59.819807 22.796 
L 60.238716 173.385382 
L 60.657625 174.421287 
L 61.076534 191.086359 
L 61.495443 132.504971 
L 61.914352 181.646597 
L 62.333261 179.734389 
L 62.75217 218.504439 
L 63.17108 213.1455 
L 63.589989 150.707784 
L 64.008898 172.812599 
L 64.427807 183.07519 
L 64.846716 209.334797 
L 65.265625 168.629493 
L 65.684534 175.213834 
L 66.103443 198.181904 
L 66.522352 187.443228 
L 66.941261 210.000284 
L 67.36017 214.271534 
L 68.197989 165.139942 
L 68.616898 187.142187 
L 69.035807 187.974518 
L 69.454716 204.701027 
L 69.873625 205.553648 
L 70.292534 191.375263 
L 70.711443 215.474288 
L 71.130352 171.295816 
L 71.549261 166.204423 
L 71.96817 214.884693 
L 72.38708 196.050692 
L 72.805989 169.625822 
L 73.224898 178.339454 
L 73.643807 207.166685 
L 74.062716 214.514169 
L 74.481625 177.460113 
L 74.900534 177.731009 
L 75.319443 208.870263 
L 75.738352 169.841502 
L 76.157261 206.712413 
L 76.99508 218.216176 
L 77.413989 168.855507 
L 77.832898 204.174236 
L 78.251807 174.408615 
L 78.670716 198.090418 
L 79.089625 201.723406 
L 79.508534 173.746662 
L 79.927443 205.469611 
L 80.346352 205.743652 
L 80.765261 161.712009 
L 81.18417 201.422548 
L 81.60308 163.526434 
L 82.021989 205.109679 
L 82.440898 188.41048 
L 82.859807 198.814325 
L 83.278716 168.647988 
L 83.697625 215.958567 
L 84.116534 165.745288 
L 84.535443 194.050866 
L 84.954352 186.6918 
L 85.373261 212.564624 
L 85.79217 147.902786 
L 86.21108 211.050719 
L 86.629989 181.303439 
L 87.048898 179.536431 
L 87.467807 206.401289 
L 87.886716 191.104348 
L 88.724534 210.30228 
L 89.143443 184.784544 
L 89.562352 187.90838 
L 89.981261 195.297304 
L 90.40017 197.304123 
L 90.81908 147.622517 
L 91.237989 160.456725 
L 91.656898 168.886959 
L 92.494716 213.338402 
L 92.913625 214.149599 
L 93.751443 162.412252 
L 94.170352 218.896671 
L 94.589261 163.319477 
L 95.00817 196.255427 
L 95.42708 171.707709 
L 95.845989 219.513735 
L 96.264898 193.026266 
L 96.683807 193.348753 
L 97.102716 215.018321 
L 97.521625 208.620636 
L 97.940534 167.425278 
L 98.359443 224.251191 
L 98.778352 174.73507 
L 99.197261 171.418414 
L 99.61617 229.121766 
L 100.03508 201.226505 
L 100.453989 181.940834 
L 100.872898 214.885246 
L 101.291807 157.73253 
L 101.710716 207.545151 
L 102.129625 180.333248 
L 102.548534 221.726584 
L 102.967443 183.074765 
L 103.386352 204.490396 
L 103.805261 169.825336 
L 104.22417 195.043062 
L 104.64308 227.261904 
L 105.061989 146.653512 
L 105.480898 202.894058 
L 105.899807 193.716434 
L 106.318716 227.396215 
L 106.737625 141.974239 
L 107.156534 142.796624 
L 107.575443 178.45419 
L 107.994352 189.355654 
L 108.413261 216.854299 
L 108.83217 164.408407 
L 109.25108 192.544884 
L 109.669989 236.241472 
L 110.088898 148.496817 
L 110.507807 209.350885 
L 110.926716 198.809811 
L 111.345625 222.247384 
L 111.764534 228.928748 
L 112.183443 140.971853 
L 113.021261 236.388906 
L 113.44017 155.013864 
L 113.85908 143.804039 
L 114.277989 136.769262 
L 115.115807 239.741956 
L 115.534716 237.11252 
L 116.372534 134.775645 
L 116.791443 202.505461 
L 117.210352 221.725099 
L 117.629261 224.119205 
L 118.04817 162.01666 
L 118.46708 145.345762 
L 118.885989 234.623252 
L 119.304898 176.449293 
L 119.723807 195.163554 
L 120.142716 185.630519 
L 120.561625 138.010591 
L 120.980534 165.456555 
L 121.399443 221.357877 
L 121.818352 154.31954 
L 122.237261 198.486662 
L 122.65617 207.412086 
L 123.07508 205.683997 
L 123.493989 221.163869 
L 123.912898 135.324052 
L 124.331807 136.134129 
L 124.750716 215.049298 
L 125.169625 213.534061 
L 126.007443 177.25098 
L 126.426352 187.583726 
L 126.845261 170.503305 
L 127.26417 165.373283 
L 127.68308 216.20876 
L 128.101989 219.792433 
L 128.520898 243.418362 
L 129.358716 206.086386 
L 130.196534 138.973837 
L 130.615443 167.488135 
L 131.034352 222.690332 
L 131.453261 229.630866 
L 131.87217 215.199783 
L 132.709989 141.09293 
L 133.128898 143.583663 
L 133.547807 177.928897 
L 133.966716 228.366214 
L 134.385625 186.050316 
L 134.804534 168.933766 
L 135.223443 190.675857 
L 135.642352 199.489183 
L 136.061261 196.473925 
L 136.48017 222.791595 
L 136.89908 206.299351 
L 137.317989 149.959761 
L 137.736898 157.24341 
L 138.155807 220.667572 
L 138.574716 161.404402 
L 138.993625 223.575205 
L 139.412534 152.147741 
L 139.831443 170.998618 
L 140.250352 233.873131 
L 140.669261 162.406029 
L 141.08817 200.686464 
L 141.925989 172.400192 
L 142.344898 217.663768 
L 142.763807 163.796503 
L 143.182716 191.994924 
L 143.601625 172.633478 
L 144.020534 200.301154 
L 144.439443 193.939805 
L 144.858352 198.453735 
L 145.277261 183.895254 
L 146.11508 205.09021 
L 146.533989 189.201359 
L 146.952898 206.169294 
L 147.371807 163.579739 
L 147.790716 203.816603 
L 148.209625 162.299261 
L 148.628534 210.597057 
L 149.047443 177.313768 
L 149.466352 211.15774 
L 149.885261 176.68251 
L 150.30417 202.702349 
L 150.72308 176.522188 
L 151.141989 192.411755 
L 151.560898 177.774929 
L 151.979807 200.434044 
L 152.398716 196.581509 
L 152.817625 164.673088 
L 153.236534 199.844144 
L 153.655443 188.023506 
L 154.074352 214.375105 
L 154.493261 202.417281 
L 154.91217 203.854553 
L 155.33108 179.761945 
L 156.168898 236.489116 
L 156.587807 224.565427 
L 157.006716 179.124178 
L 157.425625 217.757517 
L 157.844534 148.775232 
L 158.263443 213.78527 
L 158.682352 200.157071 
L 159.101261 214.894727 
L 159.52017 179.065873 
L 159.93908 196.227907 
L 160.357989 179.512439 
L 160.776898 198.362951 
L 161.195807 198.143942 
L 161.614716 221.5814 
L 162.033625 198.22888 
L 162.452534 237.562153 
L 162.871443 167.081862 
L 163.290352 206.122026 
L 163.709261 181.840019 
L 164.12817 210.616244 
L 165.384898 169.665837 
L 165.803807 215.078772 
L 166.222716 173.309227 
L 166.641625 167.812401 
L 167.060534 199.680443 
L 167.479443 164.898192 
L 167.898352 203.78619 
L 168.317261 202.102135 
L 168.73617 162.281691 
L 169.15508 185.231997 
L 169.573989 182.329182 
L 169.992898 209.734058 
L 170.411807 199.109314 
L 170.830716 232.704006 
L 171.249625 141.793384 
L 171.668534 209.677784 
L 172.087443 210.728581 
L 172.506352 156.414191 
L 173.34417 211.102236 
L 173.76308 163.655943 
L 174.181989 241.802544 
L 174.600898 131.975526 
L 175.019807 235.272593 
L 175.438716 154.77662 
L 175.857625 228.502213 
L 176.276534 184.245054 
L 176.695443 218.12565 
L 177.114352 172.455595 
L 177.533261 212.846314 
L 177.95217 168.72622 
L 178.37108 227.839955 
L 178.789989 213.775154 
L 179.208898 173.142096 
L 179.627807 199.4327 
L 180.046716 142.767357 
L 180.465625 214.537652 
L 180.884534 167.782204 
L 181.303443 205.543658 
L 181.722352 187.283142 
L 182.141261 207.092543 
L 182.56017 215.286498 
L 182.97908 204.084462 
L 183.816898 216.818295 
L 184.235807 196.970962 
L 184.654716 155.811861 
L 185.073625 213.323053 
L 185.492534 177.430299 
L 185.911443 165.81132 
L 186.749261 198.23512 
L 187.16817 188.963306 
L 187.58708 160.229967 
L 188.005989 217.124268 
L 188.424898 173.589787 
L 188.843807 193.520138 
L 189.262716 154.530147 
L 189.681625 161.799403 
L 190.100534 193.671802 
L 190.519443 188.385193 
L 190.938352 204.935938 
L 191.357261 191.464975 
L 191.77617 196.838495 
L 192.19508 167.771054 
L 193.032898 183.631125 
L 193.451807 210.793884 
L 193.870716 160.710112 
L 194.289625 225.391568 
L 194.708534 169.079551 
L 195.127443 165.408004 
L 195.965261 211.676806 
L 196.38417 192.903108 
L 196.80308 200.447975 
L 197.221989 180.478375 
L 197.640898 185.718294 
L 198.059807 194.356899 
L 198.478716 148.323479 
L 198.897625 143.246371 
L 199.316534 211.181808 
L 199.735443 217.288458 
L 200.154352 169.795357 
L 200.573261 225.201159 
L 200.99217 195.962316 
L 201.41108 179.645047 
L 201.829989 187.404147 
L 202.248898 183.903483 
L 202.667807 189.69349 
L 203.086716 223.809508 
L 203.505625 199.63634 
L 203.924534 198.978608 
L 204.343443 184.273761 
L 204.762352 175.482673 
L 205.181261 158.879588 
L 205.60017 202.270884 
L 206.01908 205.554021 
L 206.437989 167.491782 
L 206.856898 188.557846 
L 207.275807 175.46095 
L 207.694716 169.527923 
L 208.113625 193.904244 
L 208.532534 173.411722 
L 208.951443 186.855445 
L 209.370352 194.362308 
L 209.789261 173.157077 
L 210.20817 205.679562 
L 210.62708 198.34455 
L 211.045989 202.066583 
L 211.464898 186.217577 
L 211.883807 182.186771 
L 212.302716 172.556454 
L 212.721625 206.10449 
L 213.559443 171.601395 
L 213.978352 199.49084 
L 214.397261 172.011868 
L 214.81617 193.506919 
L 215.23508 167.245792 
L 215.653989 168.455895 
L 216.072898 185.809174 
L 216.491807 190.439731 
L 217.329625 204.32621 
L 217.748534 181.011685 
L 218.167443 229.44035 
L 218.586352 169.556453 
L 219.005261 198.221404 
L 219.42417 202.929098 
L 219.84308 164.446391 
L 220.261989 203.041804 
L 220.680898 163.82146 
L 221.099807 202.399144 
L 221.518716 144.559027 
L 221.937625 219.483161 
L 222.356534 247.386996 
L 222.775443 161.0895 
L 223.194352 148.736264 
L 224.45108 241.000248 
L 224.869989 221.97217 
L 225.288898 101.700532 
L 225.707807 218.171296 
L 226.126716 163.460904 
L 226.545625 196.882484 
L 226.964534 178.760639 
L 227.802352 210.953313 
L 228.221261 185.321056 
L 228.64017 264.716 
L 229.05908 204.394865 
L 229.477989 209.528731 
L 229.896898 238.210135 
L 230.734716 116.261485 
L 231.153625 169.545106 
L 231.572534 152.4972 
L 231.991443 180.20855 
L 232.410352 231.829419 
L 232.829261 200.627328 
L 233.24817 240.898598 
L 233.66708 244.031116 
L 234.085989 230.082879 
L 234.504898 237.133781 
L 234.923807 227.476753 
L 235.342716 191.97615 
L 235.761625 167.016271 
L 236.180534 182.649202 
L 236.599443 131.359888 
L 237.437261 189.172823 
L 237.85617 142.473186 
L 238.27508 198.871429 
L 238.693989 169.480118 
L 239.112898 205.427277 
L 239.531807 166.991986 
L 239.950716 204.271983 
L 240.369625 205.851362 
L 240.788534 176.707266 
L 241.207443 220.205238 
L 241.626352 213.82468 
L 242.045261 164.965008 
L 242.46417 216.842722 
L 242.88308 216.975058 
L 243.301989 176.866785 
L 243.720898 216.459923 
L 244.139807 234.334118 
L 244.558716 155.534197 
L 244.977625 206.645858 
L 245.396534 193.903405 
L 245.815443 187.330395 
L 246.234352 193.354065 
L 246.653261 189.268874 
L 247.07217 192.184405 
L 247.49108 189.202655 
L 247.909989 199.874411 
L 248.328898 203.827173 
L 248.747807 190.832522 
L 249.166716 198.182199 
L 249.585625 194.528889 
L 250.004534 150.790063 
L 250.423443 207.248505 
L 251.261261 170.090198 
L 251.68017 188.273199 
L 252.517989 176.168953 
L 252.936898 156.064849 
L 253.355807 173.965106 
L 253.774716 197.812039 
L 254.193625 202.256586 
L 255.031443 178.189843 
L 255.450352 200.474062 
L 255.869261 186.046256 
L 256.28817 200.235029 
L 256.70708 184.902645 
L 257.125989 197.267549 
L 257.544898 198.478762 
L 257.963807 173.91526 
L 258.382716 190.283214 
L 258.801625 212.538943 
L 259.220534 194.861176 
L 259.639443 164.16779 
L 260.058352 193.034348 
L 260.477261 156.975666 
L 260.89617 158.238792 
L 261.31508 210.357592 
L 261.733989 160.955306 
L 262.152898 208.761367 
L 262.571807 163.494196 
L 262.990716 204.647979 
L 263.409625 171.217854 
L 263.828534 211.56178 
L 264.247443 193.379605 
L 264.666352 168.18023 
L 265.085261 181.183057 
L 265.50417 205.47692 
L 265.92308 189.950763 
L 266.341989 204.791818 
L 266.760898 204.14569 
L 267.179807 194.693949 
L 267.598716 191.928555 
L 268.017625 200.715056 
L 268.436534 183.127021 
L 268.855443 202.950795 
L 269.274352 187.393305 
L 269.693261 193.039477 
L 270.11217 205.882461 
L 270.53108 206.688385 
L 270.949989 175.317755 
L 271.368898 181.06395 
L 271.787807 183.959895 
L 272.206716 183.024843 
L 272.625625 189.625243 
L 273.044534 218.26671 
L 273.463443 195.077664 
L 273.882352 238.495675 
L 274.301261 206.508102 
L 274.72017 137.136424 
L 275.13908 202.978485 
L 275.557989 142.426068 
L 275.976898 184.901135 
L 276.395807 249.336805 
L 276.814716 146.295117 
L 277.233625 182.102006 
L 277.652534 241.336846 
L 278.071443 154.281464 
L 278.490352 164.867393 
L 278.909261 242.020557 
L 279.32817 142.613942 
L 279.74708 179.235518 
L 280.584898 229.1007 
L 281.003807 225.581252 
L 281.422716 159.450082 
L 281.841625 233.096085 
L 282.260534 240.392609 
L 282.679443 174.550068 
L 283.098352 198.895913 
L 283.517261 148.005931 
L 283.93617 202.633814 
L 284.35508 223.020139 
L 284.773989 138.627988 
L 285.192898 199.147738 
L 285.611807 163.773585 
L 286.030716 222.280725 
L 286.449625 210.282881 
L 286.868534 157.796725 
L 287.287443 214.002624 
L 287.706352 185.218843 
L 288.125261 204.696937 
L 288.54417 216.805737 
L 288.96308 198.248496 
L 289.381989 209.21288 
L 289.800898 183.697639 
L 290.219807 200.274087 
L 290.638716 193.080077 
L 291.057625 213.431409 
L 291.476534 190.392202 
L 291.895443 213.937281 
L 292.314352 225.114944 
L 292.733261 170.110428 
L 293.15217 172.233325 
L 293.57108 195.811666 
L 293.989989 184.354617 
L 294.408898 196.766071 
L 294.827807 181.938695 
L 295.246716 208.086387 
L 295.665625 167.615099 
L 296.084534 192.187109 
L 296.503443 188.127291 
L 296.922352 172.81644 
L 297.341261 210.987619 
L 297.76017 209.892168 
L 298.17908 207.121667 
L 298.597989 201.251707 
L 299.016898 185.065029 
L 299.435807 180.310149 
L 299.854716 185.780695 
L 300.273625 218.685906 
L 300.692534 172.443053 
L 301.111443 196.909527 
L 301.530352 200.841234 
L 301.949261 171.58014 
L 302.36817 196.766195 
L 302.78708 201.260525 
L 303.205989 173.209035 
L 303.624898 210.17439 
L 304.043807 211.885494 
L 304.462716 175.491963 
L 304.881625 187.249797 
L 305.300534 171.660276 
L 305.719443 200.681213 
L 306.138352 203.907012 
L 306.557261 208.041926 
L 306.97617 222.659452 
L 307.39508 232.90068 
L 308.232898 134.002566 
L 308.651807 160.363675 
L 309.070716 173.635269 
L 309.489625 196.435441 
L 309.908534 147.375082 
L 310.327443 144.367412 
L 310.746352 171.54926 
L 311.165261 139.495401 
L 311.58417 172.918713 
L 312.00308 186.721809 
L 312.421989 125.168366 
L 313.678716 233.363761 
L 314.097625 233.350325 
L 314.516534 187.843014 
L 314.935443 217.83646 
L 315.354352 230.102073 
L 315.773261 228.093775 
L 316.61108 126.289115 
L 317.448898 242.372543 
L 317.867807 225.845114 
L 318.286716 147.968701 
L 318.705625 147.136916 
L 319.124534 108.517593 
L 319.543443 131.254754 
L 319.962352 241.50381 
L 320.381261 216.243555 
L 320.80017 229.83639 
L 321.21908 213.544157 
L 321.637989 216.353174 
L 322.056898 199.402079 
L 322.475807 137.168245 
L 322.894716 166.267186 
L 323.313625 221.371167 
L 323.732534 176.419359 
L 324.151443 153.320385 
L 324.570352 166.392846 
L 324.989261 219.259191 
L 325.40817 221.070449 
L 325.82708 201.080714 
L 326.245989 209.883751 
L 326.664898 215.563347 
L 327.083807 206.998227 
L 327.502716 185.118837 
L 327.921625 209.905867 
L 328.340534 216.551537 
L 328.759443 215.001393 
L 329.597261 177.236263 
L 330.01617 213.121415 
L 330.43508 162.652573 
L 330.853989 156.07064 
L 331.272898 226.971212 
L 331.691807 141.812074 
L 332.110716 180.966201 
L 332.529625 174.676178 
L 332.948534 186.427033 
L 333.367443 205.16048 
L 333.786352 183.72069 
L 334.205261 190.167089 
L 334.62417 185.7926 
L 335.04308 197.370925 
L 335.461989 191.658761 
L 335.880898 178.494689 
L 336.299807 203.281268 
L 336.718716 201.648695 
L 337.556534 219.078577 
L 337.975443 192.254685 
L 338.394352 145.091504 
L 338.813261 184.741363 
L 339.23217 191.75123 
L 339.65108 184.305938 
L 340.069989 178.961631 
L 340.488898 161.277407 
L 340.907807 175.256719 
L 341.326716 182.573005 
L 341.745625 180.648885 
L 342.164534 193.242103 
L 342.583443 188.280584 
L 343.002352 207.761832 
L 343.421261 186.809634 
L 344.25908 197.031853 
L 344.677989 196.016994 
L 345.096898 179.038027 
L 345.515807 207.316144 
L 345.934716 177.055829 
L 346.353625 188.7964 
L 346.772534 188.432778 
L 347.191443 209.035862 
L 347.610352 177.82974 
L 348.029261 193.103539 
L 348.44817 191.906852 
L 348.86708 197.649075 
L 349.285989 187.757581 
L 349.704898 189.278432 
L 350.123807 200.149001 
L 350.542716 174.256901 
L 350.961625 210.251641 
L 351.380534 204.003153 
L 352.218352 180.734455 
L 352.637261 182.369481 
L 353.05617 171.549915 
L 353.893989 193.512458 
L 354.312898 193.644571 
L 354.731807 195.572568 
L 355.150716 190.995183 
L 355.569625 155.476937 
L 355.988534 259.313236 
L 356.407443 139.27434 
L 356.826352 183.864729 
L 357.245261 162.062909 
L 357.66417 199.37224 
L 358.08308 200.83489 
L 358.501989 183.325417 
L 358.920898 205.526523 
L 359.339807 168.124082 
L 359.758716 175.180076 
L 360.177625 193.716208 
L 360.596534 189.802969 
L 361.015443 181.415682 
L 361.434352 162.827574 
L 361.853261 224.898614 
L 362.27217 181.497858 
L 362.69108 154.055575 
L 363.109989 215.056807 
L 363.528898 222.740349 
L 364.366716 188.217751 
L 364.785625 214.543266 
L 365.204534 167.134266 
L 365.623443 220.675116 
L 366.042352 181.208287 
L 366.461261 214.629727 
L 366.88017 199.690794 
L 367.29908 153.343047 
L 367.717989 202.31136 
L 368.136898 153.582118 
L 368.555807 228.670269 
L 368.974716 228.768944 
L 369.393625 165.752676 
L 369.812534 143.45616 
L 370.650352 214.145917 
L 371.069261 161.411068 
L 371.48817 181.737147 
L 371.90708 218.167376 
L 372.325989 235.443164 
L 372.744898 240.187865 
L 373.163807 219.887558 
L 373.582716 159.172468 
L 374.001625 169.016771 
L 374.420534 227.683334 
L 374.839443 193.330596 
L 375.258352 223.902299 
L 375.677261 162.451564 
L 376.09617 210.251379 
L 376.51508 200.164677 
L 376.933989 174.083482 
L 377.352898 209.190657 
L 377.352898 209.190657 
" style="fill:none;stroke:#1f77b4;stroke-linecap:square;stroke-width:1.5;"/>
   </g>
   <g id="patch_3">
    <path d="M 36.465625 276.812 
L 36.465625 10.7 
" style="fill:none;stroke:#000000;stroke-linecap:square;stroke-linejoin:miter;stroke-width:0.8;"/>
   </g>
   <g id="patch_4">
    <path d="M 393.585625 276.812 
L 393.585625 10.7 
" style="fill:none;stroke:#000000;stroke-linecap:square;stroke-linejoin:miter;stroke-width:0.8;"/>
   </g>
   <g id="patch_5">
    <path d="M 36.465625 276.812 
L 393.585625 276.812 
" style="fill:none;stroke:#000000;stroke-linecap:square;stroke-linejoin:miter;stroke-width:0.8;"/>
   </g>
   <g id="patch_6">
    <path d="M 36.465625 10.7 
L 393.585625 10.7 
" style="fill:none;stroke:#000000;stroke-linecap:square;stroke-linejoin:miter;stroke-width:0.8;"/>
   </g>
  </g>
 </g>
 <defs>
  <clipPath id="pec5363b85c">
   <rect height="266.112" width="357.12" x="36.465625" y="10.7"/>
  </clipPath>
 </defs>
</svg>
