<?xml version="1.0" encoding="utf-8" standalone="no"?>
<!DOCTYPE svg PUBLIC "-//W3C//DTD SVG 1.1//EN"
  "http://www.w3.org/Graphics/SVG/1.1/DTD/svg11.dtd">
<!-- Created with matplotlib (http://matplotlib.org/) -->
<svg height="300.690125pt" version="1.1" viewBox="0 0 401.852688 300.690125" width="401.852688pt" xmlns="http://www.w3.org/2000/svg" xmlns:xlink="http://www.w3.org/1999/xlink">
 <defs>
  <style type="text/css">
*{stroke-linecap:butt;stroke-linejoin:round;}
  </style>
 </defs>
 <g id="figure_1">
  <g id="patch_1">
   <path d="M 0 300.690125 
L 401.852688 300.690125 
L 401.852688 0 
L 0 0 
z
" style="fill:#ffffff;"/>
  </g>
  <g id="axes_1">
   <g id="patch_2">
    <path d="M 26.925 276.812 
L 384.045 276.812 
L 384.045 10.7 
L 26.925 10.7 
z
" style="fill:#ffffff;"/>
   </g>
   <g id="matplotlib.axis_1">
    <g id="xtick_1">
     <g id="line2d_1">
      <defs>
       <path d="M 0 0 
L 0 3.5 
" id="m485f76b88d" style="stroke:#000000;stroke-width:0.8;"/>
      </defs>
      <g>
       <use style="stroke:#000000;stroke-width:0.8;" x="43.157727" xlink:href="#m485f76b88d" y="276.812"/>
      </g>
     </g>
     <g id="text_1">
      <!-- 0 -->
      <defs>
       <path d="M 31.78125 66.40625 
Q 24.171875 66.40625 20.328125 58.90625 
Q 16.5 51.421875 16.5 36.375 
Q 16.5 21.390625 20.328125 13.890625 
Q 24.171875 6.390625 31.78125 6.390625 
Q 39.453125 6.390625 43.28125 13.890625 
Q 47.125 21.390625 47.125 36.375 
Q 47.125 51.421875 43.28125 58.90625 
Q 39.453125 66.40625 31.78125 66.40625 
z
M 31.78125 74.21875 
Q 44.046875 74.21875 50.515625 64.515625 
Q 56.984375 54.828125 56.984375 36.375 
Q 56.984375 17.96875 50.515625 8.265625 
Q 44.046875 -1.421875 31.78125 -1.421875 
Q 19.53125 -1.421875 13.0625 8.265625 
Q 6.59375 17.96875 6.59375 36.375 
Q 6.59375 54.828125 13.0625 64.515625 
Q 19.53125 74.21875 31.78125 74.21875 
z
" id="DejaVuSans-30"/>
      </defs>
      <g transform="translate(39.976477 291.410437)scale(0.1 -0.1)">
       <use xlink:href="#DejaVuSans-30"/>
      </g>
     </g>
    </g>
    <g id="xtick_2">
     <g id="line2d_2">
      <g>
       <use style="stroke:#000000;stroke-width:0.8;" x="99.619387" xlink:href="#m485f76b88d" y="276.812"/>
      </g>
     </g>
     <g id="text_2">
      <!-- 200 -->
      <defs>
       <path d="M 19.1875 8.296875 
L 53.609375 8.296875 
L 53.609375 0 
L 7.328125 0 
L 7.328125 8.296875 
Q 12.9375 14.109375 22.625 23.890625 
Q 32.328125 33.6875 34.8125 36.53125 
Q 39.546875 41.84375 41.421875 45.53125 
Q 43.3125 49.21875 43.3125 52.78125 
Q 43.3125 58.59375 39.234375 62.25 
Q 35.15625 65.921875 28.609375 65.921875 
Q 23.96875 65.921875 18.8125 64.3125 
Q 13.671875 62.703125 7.8125 59.421875 
L 7.8125 69.390625 
Q 13.765625 71.78125 18.9375 73 
Q 24.125 74.21875 28.421875 74.21875 
Q 39.75 74.21875 46.484375 68.546875 
Q 53.21875 62.890625 53.21875 53.421875 
Q 53.21875 48.921875 51.53125 44.890625 
Q 49.859375 40.875 45.40625 35.40625 
Q 44.1875 33.984375 37.640625 27.21875 
Q 31.109375 20.453125 19.1875 8.296875 
z
" id="DejaVuSans-32"/>
      </defs>
      <g transform="translate(90.075637 291.410437)scale(0.1 -0.1)">
       <use xlink:href="#DejaVuSans-32"/>
       <use x="63.623047" xlink:href="#DejaVuSans-30"/>
       <use x="127.246094" xlink:href="#DejaVuSans-30"/>
      </g>
     </g>
    </g>
    <g id="xtick_3">
     <g id="line2d_3">
      <g>
       <use style="stroke:#000000;stroke-width:0.8;" x="156.081047" xlink:href="#m485f76b88d" y="276.812"/>
      </g>
     </g>
     <g id="text_3">
      <!-- 400 -->
      <defs>
       <path d="M 37.796875 64.3125 
L 12.890625 25.390625 
L 37.796875 25.390625 
z
M 35.203125 72.90625 
L 47.609375 72.90625 
L 47.609375 25.390625 
L 58.015625 25.390625 
L 58.015625 17.1875 
L 47.609375 17.1875 
L 47.609375 0 
L 37.796875 0 
L 37.796875 17.1875 
L 4.890625 17.1875 
L 4.890625 26.703125 
z
" id="DejaVuSans-34"/>
      </defs>
      <g transform="translate(146.537297 291.410437)scale(0.1 -0.1)">
       <use xlink:href="#DejaVuSans-34"/>
       <use x="63.623047" xlink:href="#DejaVuSans-30"/>
       <use x="127.246094" xlink:href="#DejaVuSans-30"/>
      </g>
     </g>
    </g>
    <g id="xtick_4">
     <g id="line2d_4">
      <g>
       <use style="stroke:#000000;stroke-width:0.8;" x="212.542708" xlink:href="#m485f76b88d" y="276.812"/>
      </g>
     </g>
     <g id="text_4">
      <!-- 600 -->
      <defs>
       <path d="M 33.015625 40.375 
Q 26.375 40.375 22.484375 35.828125 
Q 18.609375 31.296875 18.609375 23.390625 
Q 18.609375 15.53125 22.484375 10.953125 
Q 26.375 6.390625 33.015625 6.390625 
Q 39.65625 6.390625 43.53125 10.953125 
Q 47.40625 15.53125 47.40625 23.390625 
Q 47.40625 31.296875 43.53125 35.828125 
Q 39.65625 40.375 33.015625 40.375 
z
M 52.59375 71.296875 
L 52.59375 62.3125 
Q 48.875 64.0625 45.09375 64.984375 
Q 41.3125 65.921875 37.59375 65.921875 
Q 27.828125 65.921875 22.671875 59.328125 
Q 17.53125 52.734375 16.796875 39.40625 
Q 19.671875 43.65625 24.015625 45.921875 
Q 28.375 48.1875 33.59375 48.1875 
Q 44.578125 48.1875 50.953125 41.515625 
Q 57.328125 34.859375 57.328125 23.390625 
Q 57.328125 12.15625 50.6875 5.359375 
Q 44.046875 -1.421875 33.015625 -1.421875 
Q 20.359375 -1.421875 13.671875 8.265625 
Q 6.984375 17.96875 6.984375 36.375 
Q 6.984375 53.65625 15.1875 63.9375 
Q 23.390625 74.21875 37.203125 74.21875 
Q 40.921875 74.21875 44.703125 73.484375 
Q 48.484375 72.75 52.59375 71.296875 
z
" id="DejaVuSans-36"/>
      </defs>
      <g transform="translate(202.998958 291.410437)scale(0.1 -0.1)">
       <use xlink:href="#DejaVuSans-36"/>
       <use x="63.623047" xlink:href="#DejaVuSans-30"/>
       <use x="127.246094" xlink:href="#DejaVuSans-30"/>
      </g>
     </g>
    </g>
    <g id="xtick_5">
     <g id="line2d_5">
      <g>
       <use style="stroke:#000000;stroke-width:0.8;" x="269.004368" xlink:href="#m485f76b88d" y="276.812"/>
      </g>
     </g>
     <g id="text_5">
      <!-- 800 -->
      <defs>
       <path d="M 31.78125 34.625 
Q 24.75 34.625 20.71875 30.859375 
Q 16.703125 27.09375 16.703125 20.515625 
Q 16.703125 13.921875 20.71875 10.15625 
Q 24.75 6.390625 31.78125 6.390625 
Q 38.8125 6.390625 42.859375 10.171875 
Q 46.921875 13.96875 46.921875 20.515625 
Q 46.921875 27.09375 42.890625 30.859375 
Q 38.875 34.625 31.78125 34.625 
z
M 21.921875 38.8125 
Q 15.578125 40.375 12.03125 44.71875 
Q 8.5 49.078125 8.5 55.328125 
Q 8.5 64.0625 14.71875 69.140625 
Q 20.953125 74.21875 31.78125 74.21875 
Q 42.671875 74.21875 48.875 69.140625 
Q 55.078125 64.0625 55.078125 55.328125 
Q 55.078125 49.078125 51.53125 44.71875 
Q 48 40.375 41.703125 38.8125 
Q 48.828125 37.15625 52.796875 32.3125 
Q 56.78125 27.484375 56.78125 20.515625 
Q 56.78125 9.90625 50.3125 4.234375 
Q 43.84375 -1.421875 31.78125 -1.421875 
Q 19.734375 -1.421875 13.25 4.234375 
Q 6.78125 9.90625 6.78125 20.515625 
Q 6.78125 27.484375 10.78125 32.3125 
Q 14.796875 37.15625 21.921875 38.8125 
z
M 18.3125 54.390625 
Q 18.3125 48.734375 21.84375 45.5625 
Q 25.390625 42.390625 31.78125 42.390625 
Q 38.140625 42.390625 41.71875 45.5625 
Q 45.3125 48.734375 45.3125 54.390625 
Q 45.3125 60.0625 41.71875 63.234375 
Q 38.140625 66.40625 31.78125 66.40625 
Q 25.390625 66.40625 21.84375 63.234375 
Q 18.3125 60.0625 18.3125 54.390625 
z
" id="DejaVuSans-38"/>
      </defs>
      <g transform="translate(259.460618 291.410437)scale(0.1 -0.1)">
       <use xlink:href="#DejaVuSans-38"/>
       <use x="63.623047" xlink:href="#DejaVuSans-30"/>
       <use x="127.246094" xlink:href="#DejaVuSans-30"/>
      </g>
     </g>
    </g>
    <g id="xtick_6">
     <g id="line2d_6">
      <g>
       <use style="stroke:#000000;stroke-width:0.8;" x="325.466028" xlink:href="#m485f76b88d" y="276.812"/>
      </g>
     </g>
     <g id="text_6">
      <!-- 1000 -->
      <defs>
       <path d="M 12.40625 8.296875 
L 28.515625 8.296875 
L 28.515625 63.921875 
L 10.984375 60.40625 
L 10.984375 69.390625 
L 28.421875 72.90625 
L 38.28125 72.90625 
L 38.28125 8.296875 
L 54.390625 8.296875 
L 54.390625 0 
L 12.40625 0 
z
" id="DejaVuSans-31"/>
      </defs>
      <g transform="translate(312.741028 291.410437)scale(0.1 -0.1)">
       <use xlink:href="#DejaVuSans-31"/>
       <use x="63.623047" xlink:href="#DejaVuSans-30"/>
       <use x="127.246094" xlink:href="#DejaVuSans-30"/>
       <use x="190.869141" xlink:href="#DejaVuSans-30"/>
      </g>
     </g>
    </g>
    <g id="xtick_7">
     <g id="line2d_7">
      <g>
       <use style="stroke:#000000;stroke-width:0.8;" x="381.927688" xlink:href="#m485f76b88d" y="276.812"/>
      </g>
     </g>
     <g id="text_7">
      <!-- 1200 -->
      <g transform="translate(369.202688 291.410437)scale(0.1 -0.1)">
       <use xlink:href="#DejaVuSans-31"/>
       <use x="63.623047" xlink:href="#DejaVuSans-32"/>
       <use x="127.246094" xlink:href="#DejaVuSans-30"/>
       <use x="190.869141" xlink:href="#DejaVuSans-30"/>
      </g>
     </g>
    </g>
   </g>
   <g id="matplotlib.axis_2">
    <g id="ytick_1">
     <g id="line2d_8">
      <defs>
       <path d="M 0 0 
L -3.5 0 
" id="m05da392de9" style="stroke:#000000;stroke-width:0.8;"/>
      </defs>
      <g>
       <use style="stroke:#000000;stroke-width:0.8;" x="26.925" xlink:href="#m05da392de9" y="259.943367"/>
      </g>
     </g>
     <g id="text_8">
      <!-- 6 -->
      <g transform="translate(13.5625 263.742586)scale(0.1 -0.1)">
       <use xlink:href="#DejaVuSans-36"/>
      </g>
     </g>
    </g>
    <g id="ytick_2">
     <g id="line2d_9">
      <g>
       <use style="stroke:#000000;stroke-width:0.8;" x="26.925" xlink:href="#m05da392de9" y="212.297698"/>
      </g>
     </g>
     <g id="text_9">
      <!-- 8 -->
      <g transform="translate(13.5625 216.096917)scale(0.1 -0.1)">
       <use xlink:href="#DejaVuSans-38"/>
      </g>
     </g>
    </g>
    <g id="ytick_3">
     <g id="line2d_10">
      <g>
       <use style="stroke:#000000;stroke-width:0.8;" x="26.925" xlink:href="#m05da392de9" y="164.652029"/>
      </g>
     </g>
     <g id="text_10">
      <!-- 10 -->
      <g transform="translate(7.2 168.451248)scale(0.1 -0.1)">
       <use xlink:href="#DejaVuSans-31"/>
       <use x="63.623047" xlink:href="#DejaVuSans-30"/>
      </g>
     </g>
    </g>
    <g id="ytick_4">
     <g id="line2d_11">
      <g>
       <use style="stroke:#000000;stroke-width:0.8;" x="26.925" xlink:href="#m05da392de9" y="117.00636"/>
      </g>
     </g>
     <g id="text_11">
      <!-- 12 -->
      <g transform="translate(7.2 120.805579)scale(0.1 -0.1)">
       <use xlink:href="#DejaVuSans-31"/>
       <use x="63.623047" xlink:href="#DejaVuSans-32"/>
      </g>
     </g>
    </g>
    <g id="ytick_5">
     <g id="line2d_12">
      <g>
       <use style="stroke:#000000;stroke-width:0.8;" x="26.925" xlink:href="#m05da392de9" y="69.360691"/>
      </g>
     </g>
     <g id="text_12">
      <!-- 14 -->
      <g transform="translate(7.2 73.159909)scale(0.1 -0.1)">
       <use xlink:href="#DejaVuSans-31"/>
       <use x="63.623047" xlink:href="#DejaVuSans-34"/>
      </g>
     </g>
    </g>
    <g id="ytick_6">
     <g id="line2d_13">
      <g>
       <use style="stroke:#000000;stroke-width:0.8;" x="26.925" xlink:href="#m05da392de9" y="21.715022"/>
      </g>
     </g>
     <g id="text_13">
      <!-- 16 -->
      <g transform="translate(7.2 25.51424)scale(0.1 -0.1)">
       <use xlink:href="#DejaVuSans-31"/>
       <use x="63.623047" xlink:href="#DejaVuSans-36"/>
      </g>
     </g>
    </g>
   </g>
   <g id="line2d_14">
    <path clip-path="url(#p3ff0bd493b)" d="M 43.157727 157.710192 
L 43.440036 172.058138 
L 43.722344 179.4598 
L 44.004652 157.856178 
L 44.28696 174.201145 
L 44.569269 173.058514 
L 44.851577 159.152078 
L 45.133885 154.594467 
L 45.416194 214.912731 
L 45.698502 209.267846 
L 45.98081 22.796 
L 46.263119 264.716 
L 46.545427 27.708077 
L 46.827735 176.908042 
L 47.110043 176.008653 
L 47.392352 70.630698 
L 47.67466 167.757103 
L 47.956968 168.751427 
L 48.803893 168.673242 
L 49.086202 168.185847 
L 49.650818 169.324297 
L 49.933126 168.042196 
L 50.215435 168.903098 
L 50.497743 168.364092 
L 50.780051 169.12876 
L 51.06236 169.298983 
L 51.344668 168.414759 
L 51.626976 168.755769 
L 51.909285 168.243574 
L 52.473901 168.584539 
L 52.756209 168.47033 
L 53.038518 169.441495 
L 53.320826 169.331601 
L 53.603134 168.606832 
L 53.885443 168.57884 
L 54.450059 169.528684 
L 55.014676 168.616051 
L 55.296984 168.900628 
L 55.579292 169.410348 
L 55.861601 168.216442 
L 56.143909 169.411936 
L 56.426217 168.527478 
L 56.708526 169.355057 
L 56.990834 168.843595 
L 57.273142 168.702735 
L 57.555451 168.899439 
L 57.837759 169.438471 
L 58.120067 168.268706 
L 58.402375 168.469497 
L 58.684684 169.119006 
L 58.966992 169.469927 
L 59.2493 168.524207 
L 59.531609 168.38147 
L 59.813917 168.843361 
L 60.096225 168.897493 
L 60.378534 167.986955 
L 60.660842 169.208767 
L 60.94315 168.271597 
L 61.225458 168.698193 
L 61.790075 167.981049 
L 62.072383 169.266758 
L 62.354692 169.214197 
L 62.919308 168.556808 
L 63.201617 168.529082 
L 63.483925 168.729721 
L 63.766233 169.183731 
L 64.048542 169.413373 
L 64.33085 168.833742 
L 64.613158 169.666094 
L 64.895466 168.869987 
L 65.177775 169.210358 
L 65.460083 168.580907 
L 65.742391 169.642456 
L 66.0247 169.984649 
L 66.307008 168.983547 
L 66.871625 169.15159 
L 67.153933 168.780204 
L 67.718549 168.670747 
L 68.000858 169.072222 
L 68.283166 169.215177 
L 68.565474 168.161367 
L 68.847783 168.951785 
L 69.130091 168.636054 
L 69.412399 169.500637 
L 69.694708 169.499159 
L 69.977016 169.008536 
L 70.541632 169.212617 
L 70.823941 168.58628 
L 71.670866 168.86571 
L 71.953174 168.528734 
L 72.235482 168.842455 
L 72.517791 168.67057 
L 72.800099 169.238859 
L 73.082407 169.041445 
L 73.364715 168.528443 
L 73.647024 168.817489 
L 73.929332 168.672658 
L 74.21164 168.957916 
L 74.493949 168.612982 
L 74.776257 169.330433 
L 75.058565 169.410113 
L 75.340874 168.841635 
L 75.623182 169.23915 
L 75.90549 168.724965 
L 76.187798 169.044777 
L 76.752415 168.873287 
L 77.034723 169.040931 
L 77.317032 168.442642 
L 77.59934 169.578879 
L 78.163957 168.130531 
L 78.728573 169.122624 
L 79.010881 169.009718 
L 79.29319 168.670776 
L 79.575498 168.554399 
L 80.140115 169.094635 
L 80.422423 168.44575 
L 80.704731 168.588529 
L 80.98704 169.18931 
L 81.269348 168.523989 
L 81.551656 168.356672 
L 81.833964 168.784719 
L 82.116273 168.957236 
L 82.680889 168.958987 
L 82.963198 169.243369 
L 83.245506 168.921267 
L 83.527814 168.837924 
L 83.810123 168.500004 
L 84.374739 168.501246 
L 84.939356 169.47244 
L 85.221664 169.435461 
L 85.503972 168.844878 
L 85.786281 168.868277 
L 86.068589 167.38967 
L 86.350897 169.121949 
L 86.915514 168.783407 
L 87.197822 169.500463 
L 87.48013 168.86738 
L 87.762439 168.554665 
L 88.609364 169.038279 
L 88.891672 169.102479 
L 89.17398 168.727191 
L 89.456289 169.757382 
L 89.738597 168.958003 
L 90.020905 169.237336 
L 90.585522 168.416211 
L 90.86783 168.558337 
L 91.150138 169.52378 
L 91.714755 168.412947 
L 91.997063 168.730479 
L 92.56168 168.812274 
L 92.843988 169.695658 
L 93.126296 168.444156 
L 93.408605 168.274419 
L 93.690913 168.985329 
L 93.973221 168.288907 
L 94.25553 169.320611 
L 94.537838 168.271985 
L 94.820146 168.319855 
L 95.102455 169.551237 
L 95.384763 169.043677 
L 95.667071 169.069895 
L 95.949379 169.213146 
L 96.231688 168.782372 
L 96.513996 168.839383 
L 96.796304 169.03975 
L 97.078613 168.953879 
L 97.360921 168.694852 
L 97.925538 168.72683 
L 98.490154 168.014477 
L 98.772462 169.246072 
L 99.054771 168.554585 
L 99.619387 167.699769 
L 99.901696 168.92292 
L 100.184004 168.896158 
L 100.466312 168.329675 
L 101.030929 169.328452 
L 101.313237 168.072282 
L 101.595545 168.302262 
L 101.877854 168.812519 
L 102.160162 168.156899 
L 102.724779 168.016133 
L 103.007087 169.187584 
L 103.289395 168.528457 
L 103.571704 169.094536 
L 103.854012 168.328099 
L 104.13632 168.721693 
L 104.418628 169.888867 
L 104.700937 168.380894 
L 104.983245 169.095693 
L 105.265553 168.67113 
L 105.547862 169.011638 
L 106.112478 168.40907 
L 106.394787 168.21499 
L 106.677095 169.299117 
L 106.959403 168.870743 
L 107.241711 168.98708 
L 107.52402 168.8355 
L 107.806328 169.410604 
L 108.088636 168.811398 
L 108.370945 168.52648 
L 108.653253 168.46588 
L 108.935561 168.559196 
L 109.21787 168.782455 
L 109.500178 168.696149 
L 109.782486 168.867881 
L 110.064794 169.522262 
L 110.347103 169.297822 
L 110.911719 168.494362 
L 111.476336 169.609045 
L 111.758644 168.446534 
L 112.040953 168.642061 
L 112.323261 169.121893 
L 112.605569 168.672985 
L 112.887877 169.239681 
L 113.734802 168.324918 
L 114.017111 168.987999 
L 114.299419 168.779636 
L 114.581727 169.61329 
L 115.146344 167.926296 
L 115.428652 168.899187 
L 115.993269 168.580957 
L 116.557885 169.583146 
L 116.840194 168.214394 
L 117.122502 169.244596 
L 117.40481 169.604978 
L 117.687119 168.895711 
L 117.969427 169.294847 
L 118.251735 169.011172 
L 118.534043 169.012589 
L 118.816352 169.297133 
L 119.09866 169.752165 
L 119.380968 168.240636 
L 119.663277 169.043061 
L 119.945585 168.841971 
L 120.227893 169.211508 
L 120.510202 168.698274 
L 121.074818 168.779383 
L 121.357126 168.294083 
L 121.639435 168.899378 
L 122.204051 168.755343 
L 122.48636 169.588799 
L 122.768668 168.729895 
L 123.050976 169.468908 
L 123.333285 169.727896 
L 123.615593 168.127552 
L 123.897901 168.789847 
L 124.180209 169.070418 
L 124.462518 168.928221 
L 125.027134 168.243839 
L 125.309443 168.839415 
L 125.591751 169.014464 
L 125.874059 168.606724 
L 126.438676 168.702553 
L 126.720984 169.01426 
L 127.003292 168.69551 
L 127.285601 169.551119 
L 127.567909 168.474576 
L 127.850217 169.211439 
L 128.414834 168.782344 
L 128.697142 168.30076 
L 128.979451 168.580358 
L 129.261759 169.100744 
L 129.826375 167.902519 
L 130.108684 169.555181 
L 130.390992 168.758409 
L 130.6733 169.291367 
L 130.955609 168.615664 
L 131.237917 169.158137 
L 131.520225 168.838649 
L 131.802534 168.87401 
L 132.084842 168.690367 
L 132.36715 168.329661 
L 132.649458 169.295759 
L 132.931767 168.52267 
L 133.496383 168.524924 
L 133.778692 168.186256 
L 134.061 169.011652 
L 134.625617 168.556662 
L 134.907925 168.61282 
L 135.190233 168.923838 
L 135.472542 169.012405 
L 136.037158 168.838379 
L 136.319466 168.95665 
L 136.601775 169.472746 
L 136.884083 168.129033 
L 137.166391 168.977512 
L 137.4487 169.043204 
L 137.731008 168.352367 
L 138.295625 169.099304 
L 138.577933 168.894761 
L 138.860241 168.986581 
L 139.142549 169.611036 
L 139.424858 168.894955 
L 139.707166 168.666049 
L 139.989474 169.64154 
L 140.271783 168.208409 
L 140.554091 168.925772 
L 140.836399 168.099585 
L 141.118708 168.440864 
L 141.683324 169.785389 
L 141.965632 168.809871 
L 142.247941 168.2423 
L 142.530249 169.386082 
L 142.812557 169.010614 
L 143.377174 169.097323 
L 143.659482 168.701756 
L 143.941791 168.842735 
L 144.224099 168.557615 
L 144.506407 168.070966 
L 144.788715 168.924243 
L 145.071024 168.558708 
L 145.353332 169.411581 
L 145.63564 168.870326 
L 145.917949 169.296525 
L 146.200257 169.328253 
L 146.482565 168.216177 
L 146.764874 168.641729 
L 147.047182 168.411688 
L 147.32949 169.242612 
L 147.611798 168.957007 
L 147.894107 169.497251 
L 148.176415 168.902409 
L 148.458723 168.810495 
L 148.741032 168.927189 
L 149.02334 168.498998 
L 149.305648 169.038767 
L 149.587957 169.211691 
L 149.870265 168.896909 
L 150.152573 169.131044 
L 150.434881 168.441877 
L 150.71719 168.470585 
L 151.564115 169.41025 
L 151.846423 169.095721 
L 152.128731 169.492761 
L 152.41104 168.589133 
L 152.693348 169.036667 
L 152.975656 168.956243 
L 153.257964 169.412166 
L 153.540273 168.638983 
L 153.822581 168.983465 
L 154.104889 168.931558 
L 154.387198 168.668089 
L 154.669506 169.036229 
L 154.951814 168.295106 
L 155.234123 168.839745 
L 155.516431 169.12876 
L 155.798739 168.958808 
L 156.081047 169.322645 
L 156.363356 168.613626 
L 156.927972 169.182435 
L 157.210281 169.496316 
L 157.492589 168.612996 
L 157.774897 168.927858 
L 158.057206 168.557766 
L 158.339514 168.641056 
L 158.621822 168.38348 
L 158.90413 168.869752 
L 159.186439 168.9243 
L 159.468747 168.472149 
L 159.751055 169.266419 
L 160.033364 168.753506 
L 160.315672 169.150259 
L 160.59798 169.09833 
L 160.880289 168.701874 
L 161.162597 169.062966 
L 161.444905 168.620981 
L 161.727213 169.01486 
L 162.009522 167.925829 
L 162.29183 169.096582 
L 162.574138 169.01047 
L 162.856447 169.493702 
L 163.138755 169.010374 
L 163.421063 169.180757 
L 163.703372 168.355994 
L 163.98568 168.554996 
L 164.267988 169.357831 
L 164.550296 167.847118 
L 164.832605 168.923893 
L 165.114913 169.526396 
L 165.397221 169.064006 
L 165.961838 168.757414 
L 166.244146 168.729784 
L 166.526455 168.358385 
L 166.808763 169.129998 
L 167.091071 168.727373 
L 167.373379 168.616552 
L 167.655688 168.643512 
L 167.937996 168.556267 
L 168.220304 168.636289 
L 168.502613 169.017348 
L 168.784921 168.757235 
L 169.067229 169.666037 
L 169.631846 168.58224 
L 170.196462 168.986979 
L 170.478771 169.526026 
L 170.761079 169.667644 
L 171.043387 168.640056 
L 171.890312 168.784561 
L 172.172621 169.092896 
L 172.454929 169.125874 
L 172.737237 168.871146 
L 173.019545 169.438945 
L 173.301854 168.843011 
L 173.584162 169.667195 
L 173.86647 169.069938 
L 174.148779 168.100902 
L 174.431087 168.416854 
L 174.713395 168.242133 
L 174.995704 169.038769 
L 175.278012 168.212859 
L 175.56032 169.615447 
L 175.842628 168.556213 
L 176.124937 168.960363 
L 176.407245 168.789473 
L 176.689553 168.271666 
L 176.971862 168.982165 
L 177.25417 168.69729 
L 177.536478 168.670617 
L 177.818787 169.267458 
L 178.101095 168.613579 
L 178.383403 169.15743 
L 178.665711 168.98918 
L 178.94802 169.039166 
L 179.230328 168.667604 
L 179.794945 168.87262 
L 180.077253 168.300001 
L 180.359561 168.901937 
L 180.64187 168.499057 
L 180.924178 169.550763 
L 181.206486 168.240094 
L 181.488794 168.984807 
L 181.771103 168.869918 
L 182.053411 169.464913 
L 182.335719 168.383454 
L 182.618028 168.358654 
L 182.900336 168.497115 
L 183.182644 169.183639 
L 183.747261 168.983103 
L 184.029569 169.465906 
L 184.311877 169.351797 
L 184.876494 168.553226 
L 185.158802 169.212279 
L 185.441111 168.556598 
L 185.723419 168.953034 
L 186.005727 168.441616 
L 186.288036 168.781816 
L 186.570344 168.419041 
L 186.852652 169.073026 
L 187.13496 168.608191 
L 187.417269 169.183042 
L 187.699577 169.090343 
L 187.981885 169.522484 
L 188.546502 168.675237 
L 188.82881 168.983547 
L 189.111119 168.727992 
L 189.393427 168.190645 
L 189.675735 168.356818 
L 189.958043 168.981071 
L 190.240352 168.640816 
L 190.52266 168.956562 
L 190.804968 169.58247 
L 191.369585 168.639223 
L 191.651893 168.356929 
L 191.934202 168.924458 
L 192.21651 168.756247 
L 192.781126 169.353109 
L 193.063435 168.555477 
L 193.345743 169.35451 
L 193.628051 169.269378 
L 193.91036 169.441614 
L 194.192668 168.775495 
L 194.474976 167.813938 
L 194.757285 169.327891 
L 195.039593 169.150351 
L 195.321901 168.838614 
L 195.604209 168.358806 
L 195.886518 169.154666 
L 196.168826 168.470182 
L 196.451134 168.868979 
L 196.733443 168.781809 
L 197.015751 169.060248 
L 197.580368 168.665187 
L 198.144984 168.950597 
L 198.427292 168.614801 
L 198.709601 167.901812 
L 198.991909 169.127474 
L 199.274217 168.756622 
L 199.838834 169.474948 
L 200.121142 169.211388 
L 200.403451 168.726123 
L 200.685759 169.066314 
L 200.968067 169.177897 
L 201.250375 168.923476 
L 201.532684 168.386076 
L 201.814992 169.099603 
L 202.0973 169.21278 
L 202.379609 168.840787 
L 202.661917 169.038913 
L 202.944225 168.986986 
L 203.226534 169.21089 
L 203.79115 168.613725 
L 204.638075 168.757247 
L 204.920383 169.239012 
L 205.202692 169.095688 
L 205.767308 169.098532 
L 206.049617 168.809934 
L 206.331925 169.240567 
L 206.614233 168.070988 
L 206.896542 168.839547 
L 207.17885 168.585122 
L 207.743466 168.810026 
L 208.025775 168.067095 
L 208.308083 168.781622 
L 208.590391 168.610538 
L 208.8727 168.838935 
L 209.155008 169.325568 
L 209.437316 169.293376 
L 210.001933 168.210577 
L 210.284241 168.812732 
L 210.566549 168.92377 
L 210.848858 169.244584 
L 211.131166 169.121227 
L 211.413474 168.011501 
L 211.695783 168.692707 
L 211.978091 168.843152 
L 212.260399 168.466888 
L 212.542708 169.125545 
L 212.825016 168.435814 
L 213.107324 168.83869 
L 213.389632 168.183635 
L 213.671941 169.039623 
L 213.954249 169.294365 
L 214.236557 168.643413 
L 214.801174 169.437602 
L 215.083482 169.008305 
L 215.365791 169.607767 
L 215.648099 168.590319 
L 216.212715 168.587733 
L 216.495024 169.014481 
L 216.777332 168.272611 
L 217.05964 168.986454 
L 217.341949 168.352171 
L 217.624257 169.068114 
L 217.906565 168.637895 
L 218.188874 168.581025 
L 218.75349 168.952515 
L 219.035798 168.12742 
L 219.318107 168.571986 
L 220.44734 169.20947 
L 220.729648 169.071718 
L 221.011957 169.809218 
L 221.294265 168.750843 
L 221.576573 168.696991 
L 221.858881 168.35749 
L 222.14119 169.211138 
L 222.423498 169.666815 
L 222.988115 168.32747 
L 223.552731 169.09737 
L 223.83504 168.470096 
L 224.117348 168.637691 
L 224.399656 168.21511 
L 224.681964 168.977144 
L 224.964273 169.097509 
L 225.811198 168.473556 
L 226.093506 168.555524 
L 226.375814 168.782676 
L 226.658123 168.809577 
L 227.505047 168.382344 
L 227.787356 169.294654 
L 228.069664 169.097765 
L 228.351972 168.329441 
L 228.916589 169.29761 
L 229.198897 169.462797 
L 229.481206 168.498594 
L 229.763514 168.469783 
L 230.045822 168.694928 
L 230.610439 169.527126 
L 230.892747 169.010678 
L 231.175055 169.518734 
L 231.457364 168.52296 
L 232.02198 169.207424 
L 232.304289 168.897314 
L 232.586597 169.671756 
L 232.868905 168.955538 
L 233.151213 168.642952 
L 233.433522 168.611616 
L 233.71583 168.808384 
L 233.998138 169.641537 
L 234.280447 168.836605 
L 234.562755 168.667971 
L 234.845063 169.639769 
L 235.127372 169.124064 
L 235.40968 169.641108 
L 235.691988 168.80956 
L 236.256605 168.840094 
L 236.538913 168.29842 
L 236.821221 169.298545 
L 237.10353 168.353775 
L 237.385838 169.067651 
L 237.668146 168.701702 
L 237.950455 168.779772 
L 238.232763 169.409644 
L 238.515071 168.721309 
L 238.797379 169.215518 
L 239.079688 169.011236 
L 239.361996 169.29452 
L 239.926613 168.641285 
L 240.208921 168.38108 
L 240.491229 168.84031 
L 241.620462 168.867354 
L 241.902771 168.446617 
L 242.185079 168.301565 
L 242.467387 169.011012 
L 242.749696 168.182682 
L 243.314312 169.012765 
L 243.596621 168.21511 
L 243.878929 169.469974 
L 244.161237 168.44217 
L 244.443545 168.329333 
L 244.725854 169.292975 
L 245.008162 169.552897 
L 245.29047 168.70054 
L 245.572779 168.954114 
L 245.855087 169.859755 
L 246.137395 169.098861 
L 246.419704 169.126933 
L 246.702012 169.636341 
L 246.98432 168.726456 
L 247.266628 168.783235 
L 247.548937 169.235102 
L 247.831245 168.530504 
L 248.113553 168.870091 
L 248.395862 168.328255 
L 248.960478 168.442163 
L 249.242787 168.153971 
L 249.525095 168.726699 
L 250.089711 168.812149 
L 250.37202 169.35648 
L 250.654328 169.327334 
L 250.936636 168.188791 
L 251.218945 168.075205 
L 251.501253 168.926396 
L 251.783561 168.26635 
L 252.06587 169.12233 
L 252.348178 168.555609 
L 252.630486 168.752165 
L 252.912794 169.236835 
L 253.195103 168.725597 
L 253.477411 169.239549 
L 253.759719 168.891945 
L 254.042028 169.696671 
L 254.324336 168.467471 
L 254.606644 168.811746 
L 254.888953 168.185177 
L 255.171261 169.264859 
L 255.453569 168.90083 
L 255.735877 168.843467 
L 256.018186 168.27033 
L 256.300494 169.150245 
L 257.147419 168.809035 
L 257.429727 168.605171 
L 257.712036 168.608748 
L 257.994344 168.18284 
L 258.276652 168.183347 
L 258.55896 169.298209 
L 258.841269 168.979002 
L 259.123577 169.497122 
L 259.405885 168.385502 
L 259.688194 168.983493 
L 259.970502 168.953912 
L 260.25281 168.694366 
L 260.535119 169.866422 
L 260.817427 169.554678 
L 261.099735 167.983817 
L 261.664352 168.953419 
L 261.94666 169.008652 
L 262.228968 168.610446 
L 262.511277 169.066578 
L 262.793585 169.29786 
L 263.075893 169.210401 
L 263.358202 168.266544 
L 263.64051 168.7845 
L 263.922818 168.840928 
L 264.205126 168.443328 
L 264.487435 169.415761 
L 264.769743 168.26826 
L 265.052051 168.583093 
L 265.616668 168.700311 
L 265.898976 167.895011 
L 266.181285 169.036034 
L 266.463593 169.269051 
L 266.745901 168.843415 
L 267.028209 168.985753 
L 267.310518 168.896295 
L 267.592826 169.238873 
L 267.875134 169.039644 
L 268.157443 168.378 
L 268.439751 168.613418 
L 268.722059 168.329434 
L 269.004368 168.274994 
L 269.286676 169.126129 
L 269.568984 169.239012 
L 269.851292 169.039957 
L 270.133601 169.240607 
L 270.415909 168.66758 
L 270.698217 168.779605 
L 271.262834 169.607377 
L 271.545142 168.472403 
L 271.827451 168.959614 
L 272.109759 168.898084 
L 272.392067 168.067166 
L 272.674375 169.26731 
L 272.956684 169.920955 
L 273.238992 169.271023 
L 273.5213 169.490615 
L 273.803609 167.614721 
L 274.085917 169.043678 
L 274.368225 168.725805 
L 274.650534 168.868861 
L 274.932842 168.806925 
L 275.21515 169.210187 
L 275.497458 168.665109 
L 275.779767 169.183061 
L 276.062075 168.840954 
L 276.344383 169.726458 
L 276.626692 168.44095 
L 276.909 168.43609 
L 277.473617 168.950462 
L 277.755925 168.381107 
L 278.038233 168.808948 
L 278.320542 168.065923 
L 278.60285 168.442406 
L 278.885158 169.157881 
L 279.167466 168.703307 
L 279.449775 169.183402 
L 279.732083 169.2426 
L 280.014391 168.84131 
L 280.2967 169.463821 
L 280.579008 168.526703 
L 280.861316 168.979765 
L 281.143625 168.584706 
L 281.708241 168.554366 
L 281.990549 168.699094 
L 282.272858 169.173747 
L 282.837474 168.205851 
L 283.402091 168.270354 
L 283.684399 168.9806 
L 284.249016 168.951242 
L 284.531324 169.125999 
L 285.095941 168.267626 
L 285.378249 168.443564 
L 285.660557 168.814953 
L 285.942866 168.728653 
L 286.225174 169.125066 
L 286.507482 168.750032 
L 286.789791 168.637992 
L 287.072099 168.989988 
L 287.354407 168.984576 
L 287.636715 168.559654 
L 287.919024 169.125837 
L 288.48364 168.982573 
L 288.765949 168.498247 
L 289.048257 168.413457 
L 289.330565 169.502939 
L 289.612874 169.410607 
L 289.895182 168.12697 
L 290.459798 169.263677 
L 290.742107 168.502693 
L 291.024415 169.240941 
L 291.306723 168.81698 
L 291.589032 168.841528 
L 291.87134 169.074862 
L 292.153648 168.045277 
L 292.435957 168.698952 
L 293.282881 169.151075 
L 294.129806 168.527678 
L 294.412115 169.411644 
L 294.694423 169.040381 
L 294.976731 169.354509 
L 295.25904 169.150854 
L 295.823656 168.417923 
L 296.105964 168.952438 
L 296.388273 168.238634 
L 296.670581 169.156454 
L 297.517506 169.069431 
L 297.799814 169.241686 
L 298.082123 168.75695 
L 298.364431 168.61219 
L 298.646739 168.325174 
L 298.929047 169.240669 
L 299.211356 168.980558 
L 299.493664 169.122487 
L 299.775972 168.269364 
L 300.058281 168.783385 
L 300.340589 169.045092 
L 300.622897 168.783399 
L 300.905206 168.839286 
L 301.187514 169.355921 
L 301.469822 167.899944 
L 302.316747 169.494859 
L 302.599055 169.096229 
L 302.881364 169.154281 
L 303.163672 168.182651 
L 303.44598 168.584005 
L 303.728289 169.186679 
L 304.010597 169.411379 
L 304.575213 168.551836 
L 305.13983 168.465563 
L 305.704447 169.013606 
L 305.986755 168.81083 
L 306.269063 169.358383 
L 306.551372 168.867584 
L 306.83368 168.817288 
L 307.115988 168.499099 
L 307.680605 169.326211 
L 307.962913 168.35414 
L 308.245221 168.497582 
L 308.809838 169.783163 
L 309.092146 168.986149 
L 309.374455 169.436954 
L 309.656763 169.663981 
L 309.939071 168.358538 
L 310.503688 169.181551 
L 310.785996 169.727974 
L 311.068304 168.671179 
L 311.350613 168.724595 
L 311.632921 169.325466 
L 311.915229 168.700039 
L 312.197538 168.812124 
L 312.479846 168.645825 
L 312.762154 169.413547 
L 313.044462 169.579664 
L 313.326771 168.75411 
L 313.609079 168.55588 
L 313.891387 169.156183 
L 314.173696 169.4641 
L 314.738312 168.135809 
L 315.020621 168.871064 
L 315.302929 169.241447 
L 315.585237 169.265214 
L 315.867545 168.955576 
L 316.149854 169.40517 
L 316.432162 167.988991 
L 316.71447 169.186381 
L 317.279087 170.007213 
L 317.561395 169.638341 
L 317.843704 169.781202 
L 318.126012 169.29679 
L 318.40832 169.101066 
L 318.690628 169.064663 
L 318.972937 169.815725 
L 319.255245 169.181713 
L 319.537553 169.557677 
L 319.819862 169.015862 
L 320.10217 169.067302 
L 320.384478 169.521382 
L 320.666787 169.184243 
L 320.949095 168.585539 
L 321.231403 168.557212 
L 321.513711 168.701313 
L 321.79602 169.070495 
L 322.078328 169.126375 
L 322.360636 168.559694 
L 322.642945 168.926426 
L 322.925253 168.407475 
L 323.207561 169.007034 
L 324.054486 168.869492 
L 324.336794 168.505983 
L 324.619103 169.242993 
L 325.183719 169.07206 
L 325.466028 168.328815 
L 325.748336 169.497927 
L 326.030644 168.269538 
L 326.312953 168.955143 
L 326.595261 168.355992 
L 326.877569 169.579031 
L 327.159877 168.899372 
L 327.724494 168.530352 
L 328.006802 169.068243 
L 328.571419 168.640436 
L 328.853727 168.780939 
L 329.136036 168.780941 
L 329.418344 169.21423 
L 329.700652 168.957916 
L 330.265269 168.677631 
L 330.547577 169.039018 
L 330.829885 167.84341 
L 331.112194 168.472446 
L 331.394502 168.384159 
L 331.67681 168.727366 
L 331.959119 167.903449 
L 332.241427 168.779605 
L 332.523735 168.211103 
L 332.806043 169.042148 
L 333.37066 169.238283 
L 333.652968 168.784566 
L 333.935277 168.922011 
L 334.217585 168.388405 
L 334.499893 168.558113 
L 334.782202 169.015623 
L 335.06451 168.757897 
L 335.346818 169.042609 
L 335.629126 169.098121 
L 335.911435 168.583614 
L 336.193743 169.013716 
L 336.476051 168.988985 
L 336.75836 168.671221 
L 337.040668 169.553006 
L 337.322976 169.238245 
L 337.605285 169.268795 
L 337.887593 168.306585 
L 338.169901 168.988067 
L 338.452209 168.638007 
L 338.734518 168.981991 
L 339.016826 168.87255 
L 339.299134 169.23979 
L 339.581443 168.500967 
L 339.863751 169.042593 
L 340.146059 169.013295 
L 340.428368 168.440336 
L 340.710676 169.151638 
L 340.992984 168.955671 
L 341.275292 168.581172 
L 341.557601 168.903272 
L 342.122217 168.414926 
L 342.404526 169.124445 
L 342.686834 169.0982 
L 342.969142 168.387241 
L 343.251451 169.072192 
L 343.533759 169.012742 
L 343.816067 169.469513 
L 344.098375 169.071246 
L 344.380684 168.915649 
L 344.662992 168.92466 
L 344.9453 168.777689 
L 345.227609 169.239404 
L 345.509917 168.497178 
L 345.792225 168.353716 
L 346.074534 169.69747 
L 346.356842 168.359736 
L 346.921458 168.757035 
L 347.203767 169.239242 
L 347.486075 168.183524 
L 347.768383 169.127998 
L 348.050692 169.097097 
L 348.333 167.502449 
L 348.615308 168.7859 
L 348.897617 168.526215 
L 349.179925 169.724256 
L 349.462233 170.238399 
L 350.02685 168.245731 
L 350.309158 169.324872 
L 350.591466 168.871177 
L 350.873775 169.612779 
L 351.156083 168.638846 
L 351.438391 169.182525 
L 351.7207 168.897839 
L 352.003008 167.503941 
L 352.285316 169.355085 
L 352.567625 169.638737 
L 353.132241 167.986698 
L 353.414549 169.246631 
L 353.696858 169.784948 
L 353.979166 168.410284 
L 354.261474 168.528728 
L 354.543783 169.353675 
L 355.108399 168.327033 
L 355.390708 168.841296 
L 355.673016 168.724754 
L 355.955324 169.1826 
L 356.237632 168.70402 
L 356.519941 168.751328 
L 357.366866 169.415219 
L 357.649174 169.075504 
L 357.931482 169.526905 
L 358.213791 168.271724 
L 358.496099 169.065898 
L 358.778407 168.872316 
L 359.060715 168.897703 
L 359.343024 168.439103 
L 359.625332 169.013982 
L 359.90764 168.755343 
L 360.189949 168.181197 
L 360.472257 169.524383 
L 360.754565 168.870627 
L 361.319182 169.245628 
L 361.883798 169.238064 
L 362.166107 168.526673 
L 362.448415 168.438494 
L 363.013032 169.472274 
L 363.29534 169.072427 
L 363.577648 167.985702 
L 363.859957 169.380097 
L 364.142265 168.529368 
L 364.424573 168.926205 
L 364.706881 168.927768 
L 365.271498 168.811101 
L 365.553806 168.753968 
L 365.836115 169.101059 
L 366.118423 168.756094 
L 366.400731 169.128916 
L 366.68304 169.071384 
L 366.965348 168.444404 
L 367.247656 169.385224 
L 367.529964 168.525037 
L 367.812273 168.781858 
L 367.812273 168.781858 
" style="fill:none;stroke:#1f77b4;stroke-linecap:square;stroke-width:1.5;"/>
   </g>
   <g id="patch_3">
    <path d="M 26.925 276.812 
L 26.925 10.7 
" style="fill:none;stroke:#000000;stroke-linecap:square;stroke-linejoin:miter;stroke-width:0.8;"/>
   </g>
   <g id="patch_4">
    <path d="M 384.045 276.812 
L 384.045 10.7 
" style="fill:none;stroke:#000000;stroke-linecap:square;stroke-linejoin:miter;stroke-width:0.8;"/>
   </g>
   <g id="patch_5">
    <path d="M 26.925 276.812 
L 384.045 276.812 
" style="fill:none;stroke:#000000;stroke-linecap:square;stroke-linejoin:miter;stroke-width:0.8;"/>
   </g>
   <g id="patch_6">
    <path d="M 26.925 10.7 
L 384.045 10.7 
" style="fill:none;stroke:#000000;stroke-linecap:square;stroke-linejoin:miter;stroke-width:0.8;"/>
   </g>
  </g>
 </g>
 <defs>
  <clipPath id="p3ff0bd493b">
   <rect height="266.112" width="357.12" x="26.925" y="10.7"/>
  </clipPath>
 </defs>
</svg>
