<?xml version="1.0" encoding="utf-8" standalone="no"?>
<!DOCTYPE svg PUBLIC "-//W3C//DTD SVG 1.1//EN"
  "http://www.w3.org/Graphics/SVG/1.1/DTD/svg11.dtd">
<!-- Created with matplotlib (http://matplotlib.org/) -->
<svg height="252.018125pt" version="1.1" viewBox="0 0 391.318509 252.018125" width="391.318509pt" xmlns="http://www.w3.org/2000/svg" xmlns:xlink="http://www.w3.org/1999/xlink">
 <defs>
  <style type="text/css">
*{stroke-linecap:butt;stroke-linejoin:round;}
  </style>
 </defs>
 <g id="figure_1">
  <g id="patch_1">
   <path d="M 0 252.018125 
L 391.318509 252.018125 
L 391.318509 0 
L 0 0 
z
" style="fill:#ffffff;"/>
  </g>
  <g id="axes_1">
   <g id="patch_2">
    <path d="M 36.465625 228.14 
L 371.265625 228.14 
L 371.265625 10.7 
L 36.465625 10.7 
z
" style="fill:#ffffff;"/>
   </g>
   <g id="matplotlib.axis_1">
    <g id="xtick_1">
     <g id="line2d_1">
      <defs>
       <path d="M 0 0 
L 0 3.5 
" id="m8a791de608" style="stroke:#000000;stroke-width:0.8;"/>
      </defs>
      <g>
       <use style="stroke:#000000;stroke-width:0.8;" x="51.683807" xlink:href="#m8a791de608" y="228.14"/>
      </g>
     </g>
     <g id="text_1">
      <!-- 0 -->
      <defs>
       <path d="M 31.78125 66.40625 
Q 24.171875 66.40625 20.328125 58.90625 
Q 16.5 51.421875 16.5 36.375 
Q 16.5 21.390625 20.328125 13.890625 
Q 24.171875 6.390625 31.78125 6.390625 
Q 39.453125 6.390625 43.28125 13.890625 
Q 47.125 21.390625 47.125 36.375 
Q 47.125 51.421875 43.28125 58.90625 
Q 39.453125 66.40625 31.78125 66.40625 
z
M 31.78125 74.21875 
Q 44.046875 74.21875 50.515625 64.515625 
Q 56.984375 54.828125 56.984375 36.375 
Q 56.984375 17.96875 50.515625 8.265625 
Q 44.046875 -1.421875 31.78125 -1.421875 
Q 19.53125 -1.421875 13.0625 8.265625 
Q 6.59375 17.96875 6.59375 36.375 
Q 6.59375 54.828125 13.0625 64.515625 
Q 19.53125 74.21875 31.78125 74.21875 
z
" id="DejaVuSans-30"/>
      </defs>
      <g transform="translate(48.502557 242.738437)scale(0.1 -0.1)">
       <use xlink:href="#DejaVuSans-30"/>
      </g>
     </g>
    </g>
    <g id="xtick_2">
     <g id="line2d_2">
      <g>
       <use style="stroke:#000000;stroke-width:0.8;" x="115.625747" xlink:href="#m8a791de608" y="228.14"/>
      </g>
     </g>
     <g id="text_2">
      <!-- 500 -->
      <defs>
       <path d="M 10.796875 72.90625 
L 49.515625 72.90625 
L 49.515625 64.59375 
L 19.828125 64.59375 
L 19.828125 46.734375 
Q 21.96875 47.46875 24.109375 47.828125 
Q 26.265625 48.1875 28.421875 48.1875 
Q 40.625 48.1875 47.75 41.5 
Q 54.890625 34.8125 54.890625 23.390625 
Q 54.890625 11.625 47.5625 5.09375 
Q 40.234375 -1.421875 26.90625 -1.421875 
Q 22.3125 -1.421875 17.546875 -0.640625 
Q 12.796875 0.140625 7.71875 1.703125 
L 7.71875 11.625 
Q 12.109375 9.234375 16.796875 8.0625 
Q 21.484375 6.890625 26.703125 6.890625 
Q 35.15625 6.890625 40.078125 11.328125 
Q 45.015625 15.765625 45.015625 23.390625 
Q 45.015625 31 40.078125 35.4375 
Q 35.15625 39.890625 26.703125 39.890625 
Q 22.75 39.890625 18.8125 39.015625 
Q 14.890625 38.140625 10.796875 36.28125 
z
" id="DejaVuSans-35"/>
      </defs>
      <g transform="translate(106.081997 242.738437)scale(0.1 -0.1)">
       <use xlink:href="#DejaVuSans-35"/>
       <use x="63.623047" xlink:href="#DejaVuSans-30"/>
       <use x="127.246094" xlink:href="#DejaVuSans-30"/>
      </g>
     </g>
    </g>
    <g id="xtick_3">
     <g id="line2d_3">
      <g>
       <use style="stroke:#000000;stroke-width:0.8;" x="179.567688" xlink:href="#m8a791de608" y="228.14"/>
      </g>
     </g>
     <g id="text_3">
      <!-- 1000 -->
      <defs>
       <path d="M 12.40625 8.296875 
L 28.515625 8.296875 
L 28.515625 63.921875 
L 10.984375 60.40625 
L 10.984375 69.390625 
L 28.421875 72.90625 
L 38.28125 72.90625 
L 38.28125 8.296875 
L 54.390625 8.296875 
L 54.390625 0 
L 12.40625 0 
z
" id="DejaVuSans-31"/>
      </defs>
      <g transform="translate(166.842688 242.738437)scale(0.1 -0.1)">
       <use xlink:href="#DejaVuSans-31"/>
       <use x="63.623047" xlink:href="#DejaVuSans-30"/>
       <use x="127.246094" xlink:href="#DejaVuSans-30"/>
       <use x="190.869141" xlink:href="#DejaVuSans-30"/>
      </g>
     </g>
    </g>
    <g id="xtick_4">
     <g id="line2d_4">
      <g>
       <use style="stroke:#000000;stroke-width:0.8;" x="243.509628" xlink:href="#m8a791de608" y="228.14"/>
      </g>
     </g>
     <g id="text_4">
      <!-- 1500 -->
      <g transform="translate(230.784628 242.738437)scale(0.1 -0.1)">
       <use xlink:href="#DejaVuSans-31"/>
       <use x="63.623047" xlink:href="#DejaVuSans-35"/>
       <use x="127.246094" xlink:href="#DejaVuSans-30"/>
       <use x="190.869141" xlink:href="#DejaVuSans-30"/>
      </g>
     </g>
    </g>
    <g id="xtick_5">
     <g id="line2d_5">
      <g>
       <use style="stroke:#000000;stroke-width:0.8;" x="307.451568" xlink:href="#m8a791de608" y="228.14"/>
      </g>
     </g>
     <g id="text_5">
      <!-- 2000 -->
      <defs>
       <path d="M 19.1875 8.296875 
L 53.609375 8.296875 
L 53.609375 0 
L 7.328125 0 
L 7.328125 8.296875 
Q 12.9375 14.109375 22.625 23.890625 
Q 32.328125 33.6875 34.8125 36.53125 
Q 39.546875 41.84375 41.421875 45.53125 
Q 43.3125 49.21875 43.3125 52.78125 
Q 43.3125 58.59375 39.234375 62.25 
Q 35.15625 65.921875 28.609375 65.921875 
Q 23.96875 65.921875 18.8125 64.3125 
Q 13.671875 62.703125 7.8125 59.421875 
L 7.8125 69.390625 
Q 13.765625 71.78125 18.9375 73 
Q 24.125 74.21875 28.421875 74.21875 
Q 39.75 74.21875 46.484375 68.546875 
Q 53.21875 62.890625 53.21875 53.421875 
Q 53.21875 48.921875 51.53125 44.890625 
Q 49.859375 40.875 45.40625 35.40625 
Q 44.1875 33.984375 37.640625 27.21875 
Q 31.109375 20.453125 19.1875 8.296875 
z
" id="DejaVuSans-32"/>
      </defs>
      <g transform="translate(294.726568 242.738437)scale(0.1 -0.1)">
       <use xlink:href="#DejaVuSans-32"/>
       <use x="63.623047" xlink:href="#DejaVuSans-30"/>
       <use x="127.246094" xlink:href="#DejaVuSans-30"/>
       <use x="190.869141" xlink:href="#DejaVuSans-30"/>
      </g>
     </g>
    </g>
    <g id="xtick_6">
     <g id="line2d_6">
      <g>
       <use style="stroke:#000000;stroke-width:0.8;" x="371.393509" xlink:href="#m8a791de608" y="228.14"/>
      </g>
     </g>
     <g id="text_6">
      <!-- 2500 -->
      <g transform="translate(358.668509 242.738437)scale(0.1 -0.1)">
       <use xlink:href="#DejaVuSans-32"/>
       <use x="63.623047" xlink:href="#DejaVuSans-35"/>
       <use x="127.246094" xlink:href="#DejaVuSans-30"/>
       <use x="190.869141" xlink:href="#DejaVuSans-30"/>
      </g>
     </g>
    </g>
   </g>
   <g id="matplotlib.axis_2">
    <g id="ytick_1">
     <g id="line2d_7">
      <defs>
       <path d="M 0 0 
L -3.5 0 
" id="me3b03fd632" style="stroke:#000000;stroke-width:0.8;"/>
      </defs>
      <g>
       <use style="stroke:#000000;stroke-width:0.8;" x="36.465625" xlink:href="#me3b03fd632" y="214.036107"/>
      </g>
     </g>
     <g id="text_7">
      <!-- 2.5 -->
      <defs>
       <path d="M 10.6875 12.40625 
L 21 12.40625 
L 21 0 
L 10.6875 0 
z
" id="DejaVuSans-2e"/>
      </defs>
      <g transform="translate(13.5625 217.835326)scale(0.1 -0.1)">
       <use xlink:href="#DejaVuSans-32"/>
       <use x="63.623047" xlink:href="#DejaVuSans-2e"/>
       <use x="95.410156" xlink:href="#DejaVuSans-35"/>
      </g>
     </g>
    </g>
    <g id="ytick_2">
     <g id="line2d_8">
      <g>
       <use style="stroke:#000000;stroke-width:0.8;" x="36.465625" xlink:href="#me3b03fd632" y="187.180012"/>
      </g>
     </g>
     <g id="text_8">
      <!-- 5.0 -->
      <g transform="translate(13.5625 190.979231)scale(0.1 -0.1)">
       <use xlink:href="#DejaVuSans-35"/>
       <use x="63.623047" xlink:href="#DejaVuSans-2e"/>
       <use x="95.410156" xlink:href="#DejaVuSans-30"/>
      </g>
     </g>
    </g>
    <g id="ytick_3">
     <g id="line2d_9">
      <g>
       <use style="stroke:#000000;stroke-width:0.8;" x="36.465625" xlink:href="#me3b03fd632" y="160.323917"/>
      </g>
     </g>
     <g id="text_9">
      <!-- 7.5 -->
      <defs>
       <path d="M 8.203125 72.90625 
L 55.078125 72.90625 
L 55.078125 68.703125 
L 28.609375 0 
L 18.3125 0 
L 43.21875 64.59375 
L 8.203125 64.59375 
z
" id="DejaVuSans-37"/>
      </defs>
      <g transform="translate(13.5625 164.123135)scale(0.1 -0.1)">
       <use xlink:href="#DejaVuSans-37"/>
       <use x="63.623047" xlink:href="#DejaVuSans-2e"/>
       <use x="95.410156" xlink:href="#DejaVuSans-35"/>
      </g>
     </g>
    </g>
    <g id="ytick_4">
     <g id="line2d_10">
      <g>
       <use style="stroke:#000000;stroke-width:0.8;" x="36.465625" xlink:href="#me3b03fd632" y="133.467822"/>
      </g>
     </g>
     <g id="text_10">
      <!-- 10.0 -->
      <g transform="translate(7.2 137.26704)scale(0.1 -0.1)">
       <use xlink:href="#DejaVuSans-31"/>
       <use x="63.623047" xlink:href="#DejaVuSans-30"/>
       <use x="127.246094" xlink:href="#DejaVuSans-2e"/>
       <use x="159.033203" xlink:href="#DejaVuSans-30"/>
      </g>
     </g>
    </g>
    <g id="ytick_5">
     <g id="line2d_11">
      <g>
       <use style="stroke:#000000;stroke-width:0.8;" x="36.465625" xlink:href="#me3b03fd632" y="106.611726"/>
      </g>
     </g>
     <g id="text_11">
      <!-- 12.5 -->
      <g transform="translate(7.2 110.410945)scale(0.1 -0.1)">
       <use xlink:href="#DejaVuSans-31"/>
       <use x="63.623047" xlink:href="#DejaVuSans-32"/>
       <use x="127.246094" xlink:href="#DejaVuSans-2e"/>
       <use x="159.033203" xlink:href="#DejaVuSans-35"/>
      </g>
     </g>
    </g>
    <g id="ytick_6">
     <g id="line2d_12">
      <g>
       <use style="stroke:#000000;stroke-width:0.8;" x="36.465625" xlink:href="#me3b03fd632" y="79.755631"/>
      </g>
     </g>
     <g id="text_12">
      <!-- 15.0 -->
      <g transform="translate(7.2 83.55485)scale(0.1 -0.1)">
       <use xlink:href="#DejaVuSans-31"/>
       <use x="63.623047" xlink:href="#DejaVuSans-35"/>
       <use x="127.246094" xlink:href="#DejaVuSans-2e"/>
       <use x="159.033203" xlink:href="#DejaVuSans-30"/>
      </g>
     </g>
    </g>
    <g id="ytick_7">
     <g id="line2d_13">
      <g>
       <use style="stroke:#000000;stroke-width:0.8;" x="36.465625" xlink:href="#me3b03fd632" y="52.899536"/>
      </g>
     </g>
     <g id="text_13">
      <!-- 17.5 -->
      <g transform="translate(7.2 56.698755)scale(0.1 -0.1)">
       <use xlink:href="#DejaVuSans-31"/>
       <use x="63.623047" xlink:href="#DejaVuSans-37"/>
       <use x="127.246094" xlink:href="#DejaVuSans-2e"/>
       <use x="159.033203" xlink:href="#DejaVuSans-35"/>
      </g>
     </g>
    </g>
    <g id="ytick_8">
     <g id="line2d_14">
      <g>
       <use style="stroke:#000000;stroke-width:0.8;" x="36.465625" xlink:href="#me3b03fd632" y="26.043441"/>
      </g>
     </g>
     <g id="text_14">
      <!-- 20.0 -->
      <g transform="translate(7.2 29.84266)scale(0.1 -0.1)">
       <use xlink:href="#DejaVuSans-32"/>
       <use x="63.623047" xlink:href="#DejaVuSans-30"/>
       <use x="127.246094" xlink:href="#DejaVuSans-2e"/>
       <use x="159.033203" xlink:href="#DejaVuSans-30"/>
      </g>
     </g>
    </g>
   </g>
   <g id="line2d_15">
    <path clip-path="url(#p7393fa8418)" d="M 51.683807 139.837427 
L 51.811691 135.564503 
L 51.939575 135.867258 
L 52.067458 135.654752 
L 52.195342 126.082507 
L 52.323226 130.700107 
L 52.45111 127.15313 
L 52.578994 135.575674 
L 52.706878 135.291621 
L 52.834762 126.037279 
L 52.962646 142.719343 
L 53.218413 125.771717 
L 53.346297 148.017775 
L 53.474181 143.61895 
L 53.602065 121.806868 
L 53.729949 140.96604 
L 53.857833 128.870066 
L 53.985717 147.689201 
L 54.241484 123.49579 
L 54.369368 153.113016 
L 54.497252 149.421136 
L 54.625136 85.801996 
L 54.880904 134.768202 
L 55.008788 155.830334 
L 55.136672 139.564915 
L 55.264555 155.495038 
L 55.392439 139.077174 
L 55.520323 138.693648 
L 55.648207 119.349273 
L 55.776091 150.867432 
L 55.903975 133.853109 
L 56.031859 142.587119 
L 56.159743 126.371757 
L 56.287627 133.058018 
L 56.41551 151.256127 
L 56.671278 136.914982 
L 56.799162 128.460455 
L 56.927046 130.09471 
L 57.05493 119.757512 
L 57.310698 145.287415 
L 57.438581 127.179555 
L 57.566465 138.5895 
L 57.694349 193.181967 
L 57.950117 132.109274 
L 58.078001 118.698088 
L 58.205885 146.982367 
L 58.333769 136.425891 
L 58.461653 135.070881 
L 58.589536 140.051419 
L 58.71742 133.639143 
L 58.845304 134.637926 
L 58.973188 133.774888 
L 59.101072 145.349074 
L 59.228956 128.54788 
L 59.35684 137.70978 
L 59.484724 138.449919 
L 59.612607 122.281823 
L 59.868375 151.392434 
L 59.996259 112.141592 
L 60.252027 154.137682 
L 60.379911 115.178825 
L 60.635678 148.239923 
L 60.891446 138.859185 
L 61.01933 151.628261 
L 61.147214 120.110802 
L 61.275098 142.572025 
L 61.402982 132.456722 
L 61.530866 133.68659 
L 61.65875 143.238347 
L 61.786633 135.750189 
L 62.042401 156.387678 
L 62.170285 123.042655 
L 62.298169 141.667873 
L 62.426053 178.297697 
L 62.937588 128.976972 
L 63.065472 155.790025 
L 63.193356 118.073557 
L 63.32124 152.85494 
L 63.449124 136.84328 
L 63.577008 150.061266 
L 63.704892 115.005903 
L 63.832775 139.475451 
L 63.960659 125.231938 
L 64.088543 155.394389 
L 64.216427 147.077398 
L 64.344311 110.443772 
L 64.600079 152.25176 
L 64.727963 139.873086 
L 64.855847 91.700054 
L 65.111614 147.841826 
L 65.239498 152.068366 
L 65.367382 117.87121 
L 65.495266 145.013493 
L 65.62315 133.708693 
L 65.878918 157.6516 
L 66.006801 157.478371 
L 66.134685 134.286739 
L 66.262569 138.340711 
L 66.390453 125.320034 
L 66.646221 148.39764 
L 66.774105 141.051657 
L 66.901989 154.62212 
L 67.157756 90.702706 
L 67.413524 142.450203 
L 67.669292 123.275777 
L 67.92506 131.430786 
L 68.052944 113.544379 
L 68.180827 123.846308 
L 68.308711 108.181118 
L 68.564479 136.756438 
L 68.692363 119.932436 
L 68.820247 164.746208 
L 68.948131 159.50829 
L 69.076015 99.125428 
L 69.203898 161.32375 
L 69.331782 125.06621 
L 69.459666 126.571897 
L 69.58755 147.217457 
L 69.715434 115.769508 
L 69.843318 143.953855 
L 69.971202 132.408491 
L 70.22697 146.20344 
L 70.482737 116.687381 
L 70.610621 121.378331 
L 70.738505 149.268827 
L 70.866389 132.985634 
L 70.994273 132.940687 
L 71.250041 123.668469 
L 71.377924 153.023383 
L 71.633692 124.51284 
L 71.761576 134.376429 
L 71.88946 130.945745 
L 72.145228 141.542205 
L 72.273112 114.865402 
L 72.400996 148.366876 
L 72.528879 133.387858 
L 72.656763 134.547122 
L 72.784647 143.401551 
L 72.912531 118.116019 
L 73.040415 157.308693 
L 73.168299 123.297283 
L 73.296183 148.759329 
L 73.424067 127.079101 
L 73.55195 138.03709 
L 73.679834 128.204147 
L 73.807718 143.937642 
L 74.063486 127.841026 
L 74.19137 133.302412 
L 74.319254 146.222289 
L 74.447138 123.542604 
L 74.575021 131.743232 
L 74.702905 150.613497 
L 74.958673 109.479118 
L 75.086557 126.744635 
L 75.214441 165.136203 
L 75.342325 118.68866 
L 75.470209 154.190504 
L 75.725976 104.957965 
L 75.981744 150.355993 
L 76.109628 130.537416 
L 76.237512 135.0916 
L 76.365396 126.922257 
L 76.49328 169.171711 
L 76.621164 107.32083 
L 76.749047 119.140718 
L 76.876931 107.795265 
L 77.004815 144.817653 
L 77.132699 133.647757 
L 77.260583 157.27633 
L 77.388467 150.137612 
L 77.516351 131.071044 
L 77.644235 139.995527 
L 77.772119 126.973912 
L 78.027886 153.061767 
L 78.15577 173.877362 
L 78.283654 105.231326 
L 78.411538 143.964615 
L 78.539422 143.820393 
L 78.79519 124.853502 
L 78.923073 144.764826 
L 79.050957 129.496932 
L 79.178841 142.325886 
L 79.434609 124.904265 
L 79.562493 139.525984 
L 79.690377 131.761101 
L 79.818261 132.181545 
L 79.946144 138.293551 
L 80.074028 128.350415 
L 80.201912 142.465714 
L 80.329796 132.806048 
L 80.45768 132.761581 
L 80.585564 135.329962 
L 80.713448 129.406459 
L 80.969216 136.682491 
L 81.097099 132.178719 
L 81.224983 136.894553 
L 81.352867 133.956079 
L 81.608635 143.01211 
L 81.736519 117.867787 
L 81.992287 141.0173 
L 82.12017 129.959636 
L 82.248054 143.139068 
L 82.375938 132.29007 
L 82.503822 134.722525 
L 82.75959 126.903291 
L 82.887474 130.824545 
L 83.015358 141.201714 
L 83.143242 132.921274 
L 83.271125 105.970848 
L 83.526893 147.67778 
L 83.654777 128.79566 
L 83.910545 140.543282 
L 84.038429 124.797055 
L 84.166313 143.120569 
L 84.42208 135.533024 
L 84.549964 133.732545 
L 84.677848 139.499661 
L 84.933616 130.189826 
L 85.0615 133.988532 
L 85.189384 127.293819 
L 85.445151 131.962718 
L 85.573035 128.514792 
L 85.828803 137.948612 
L 85.956687 134.106713 
L 86.084571 139.37666 
L 86.212455 138.203547 
L 86.340339 128.160299 
L 86.468222 131.581781 
L 86.596106 128.416921 
L 86.72399 144.18466 
L 86.979758 127.414964 
L 87.107642 136.949696 
L 87.235526 120.067832 
L 87.491293 141.627313 
L 87.619177 136.513498 
L 87.747061 114.463142 
L 87.874945 128.953727 
L 88.002829 120.481118 
L 88.130713 139.59497 
L 88.258597 125.025395 
L 88.386481 149.435693 
L 88.514364 123.466008 
L 88.642248 130.516911 
L 88.770132 150.362924 
L 88.898016 125.691234 
L 89.0259 145.413828 
L 89.153784 136.983648 
L 89.281668 143.139748 
L 89.409552 127.159182 
L 89.537436 159.84879 
L 89.665319 125.789829 
L 89.793203 128.983181 
L 89.921087 140.779795 
L 90.048971 117.244222 
L 90.176855 128.542276 
L 90.304739 153.785214 
L 90.560507 124.043234 
L 90.68839 130.711976 
L 90.816274 114.495419 
L 90.944158 153.065036 
L 91.199926 138.844159 
L 91.32781 148.030581 
L 91.455694 124.610764 
L 91.711462 153.110063 
L 91.839345 127.083468 
L 92.095113 139.274843 
L 92.222997 156.928957 
L 92.350881 122.917048 
L 92.606649 146.009509 
L 92.862416 125.557945 
L 92.9903 143.769124 
L 93.118184 127.269589 
L 93.246068 166.370722 
L 93.373952 135.186647 
L 93.501836 145.180251 
L 93.62972 145.166688 
L 93.757604 172.249582 
L 93.885487 113.19562 
L 94.013371 181.68838 
L 94.269139 94.76703 
L 94.524907 176.417476 
L 94.652791 102.528402 
L 94.908559 152.896692 
L 95.164326 151.405648 
L 95.29221 145.788886 
L 95.420094 95.854761 
L 95.547978 127.281843 
L 95.675862 93.454283 
L 95.93163 169.909626 
L 96.059513 162.389643 
L 96.315281 115.285831 
L 96.698933 150.61905 
L 96.826817 200.514473 
L 97.082585 130.584891 
L 97.210468 128.72403 
L 97.338352 122.933472 
L 97.466236 153.118111 
L 97.722004 126.132004 
L 97.849888 157.605422 
L 97.977772 136.557658 
L 98.105656 186.406465 
L 98.233539 136.720671 
L 98.617191 147.268126 
L 98.745075 124.380108 
L 98.872959 123.34543 
L 99.000843 156.171319 
L 99.128727 146.639369 
L 99.25661 116.259403 
L 99.384494 163.81472 
L 99.512378 54.602996 
L 99.768146 154.91587 
L 99.89603 135.573581 
L 100.023914 137.054223 
L 100.151798 123.978259 
L 100.279682 129.058828 
L 100.407565 148.385389 
L 100.535449 138.760391 
L 100.663333 147.212245 
L 100.791217 133.06976 
L 100.919101 140.358016 
L 101.046985 162.763963 
L 101.174869 118.049412 
L 101.302753 120.114391 
L 101.430636 160.420963 
L 101.55852 128.261118 
L 101.686404 178.712651 
L 101.814288 108.343736 
L 102.070056 164.373699 
L 102.19794 131.330616 
L 102.325824 156.022164 
L 102.581591 113.116531 
L 102.837359 130.672762 
L 102.965243 128.177679 
L 103.093127 166.241692 
L 103.348895 95.032523 
L 103.476779 132.008151 
L 103.604662 132.269937 
L 103.732546 133.589424 
L 103.86043 124.704452 
L 103.988314 159.943843 
L 104.116198 120.556734 
L 104.244082 160.958401 
L 104.49985 118.244826 
L 104.627733 150.606156 
L 104.755617 133.630161 
L 104.883501 150.804425 
L 105.267153 100.927774 
L 105.522921 131.989114 
L 105.650805 133.009743 
L 105.778688 127.804303 
L 105.906572 140.942909 
L 106.034456 136.86376 
L 106.16234 122.684888 
L 106.418108 152.837751 
L 106.673876 127.295424 
L 106.801759 155.881829 
L 107.057527 114.843876 
L 107.185411 152.805565 
L 107.441179 128.41275 
L 107.569063 120.729724 
L 107.696947 135.606508 
L 107.824831 115.403296 
L 107.952714 144.856667 
L 108.080598 132.10074 
L 108.336366 154.917784 
L 108.592134 130.48255 
L 108.720018 157.915383 
L 108.847902 132.41981 
L 108.975785 146.116047 
L 109.103669 133.148275 
L 109.231553 145.131579 
L 109.487321 127.94587 
L 109.615205 135.726866 
L 109.743089 154.782323 
L 109.870973 155.226103 
L 109.998856 119.011447 
L 110.12674 149.597493 
L 110.382508 71.512083 
L 110.510392 165.190769 
L 110.638276 126.081956 
L 110.76616 148.136776 
L 111.021928 112.086565 
L 111.149811 104.35383 
L 111.277695 167.306056 
L 111.533463 109.502104 
L 111.789231 157.265674 
L 111.917115 147.668131 
L 112.044999 120.351465 
L 112.172882 140.885674 
L 112.42865 128.94172 
L 112.684418 141.41026 
L 112.812302 124.717323 
L 112.940186 155.376921 
L 113.06807 131.757453 
L 113.195953 150.451244 
L 113.323837 136.432192 
L 113.451721 153.781128 
L 113.579605 108.662292 
L 113.707489 106.719259 
L 113.835373 128.245378 
L 113.963257 179.943856 
L 114.091141 98.821887 
L 114.346908 127.025207 
L 114.474792 138.838461 
L 114.73056 117.39477 
L 114.858444 153.369685 
L 114.986328 108.557633 
L 115.114212 166.030626 
L 115.369979 127.215628 
L 115.497863 131.054409 
L 115.625747 147.673041 
L 115.753631 134.170995 
L 115.881515 164.664507 
L 116.009399 121.943749 
L 116.265167 136.493995 
L 116.520934 106.832537 
L 116.648818 150.406106 
L 116.776702 128.096327 
L 117.03247 163.978661 
L 117.160354 153.353227 
L 117.288238 120.11325 
L 117.416122 141.39288 
L 117.544005 113.843557 
L 117.671889 159.174431 
L 117.799773 136.849068 
L 117.927657 151.165753 
L 118.055541 109.434626 
L 118.183425 140.386811 
L 118.311309 104.294489 
L 118.567076 138.950982 
L 118.69496 99.98784 
L 118.822844 173.172272 
L 118.950728 125.897246 
L 119.078612 161.207705 
L 119.206496 117.685009 
L 119.462264 132.902889 
L 119.590148 166.409268 
L 119.718031 135.256461 
L 120.229567 120.842107 
L 120.485335 157.272963 
L 120.613219 145.286011 
L 120.741102 99.527073 
L 120.868986 147.128989 
L 120.99687 149.919807 
L 121.124754 160.5396 
L 121.380522 114.844128 
L 121.508406 151.727246 
L 121.63629 112.449923 
L 121.764174 136.174768 
L 121.892057 114.479554 
L 122.019941 115.689784 
L 122.147825 152.079915 
L 122.275709 140.919848 
L 122.403593 155.113871 
L 122.659361 125.557268 
L 122.787245 119.734809 
L 123.043012 139.455069 
L 123.170896 121.109117 
L 123.29878 123.505166 
L 123.426664 121.228741 
L 123.682432 154.272416 
L 123.938199 126.438422 
L 124.066083 127.072073 
L 124.193967 125.836899 
L 124.321851 145.57469 
L 124.449735 116.349031 
L 124.577619 142.715323 
L 124.833387 135.393451 
L 125.089154 125.388577 
L 125.217038 146.510232 
L 125.344922 141.528848 
L 125.472806 144.501238 
L 125.60069 118.527202 
L 125.856458 135.525891 
L 125.984342 132.669255 
L 126.112225 135.399924 
L 126.240109 134.984601 
L 126.367993 135.668289 
L 126.495877 139.444578 
L 126.623761 134.021574 
L 126.751645 144.193136 
L 126.879529 133.18159 
L 127.135297 139.173622 
L 127.26318 130.143823 
L 127.518948 140.514564 
L 127.646832 134.345698 
L 127.9026 141.232936 
L 128.030484 132.526635 
L 128.158368 138.909618 
L 128.286251 133.982484 
L 128.414135 135.228849 
L 128.542019 130.069984 
L 128.797787 135.367581 
L 129.053555 141.272956 
L 129.309322 133.097043 
L 129.56509 141.370761 
L 129.820858 135.801456 
L 129.948742 140.837375 
L 130.076626 135.109191 
L 130.20451 139.71613 
L 130.332394 133.597881 
L 130.460277 137.215877 
L 130.588161 135.935431 
L 130.716045 137.186252 
L 130.971813 135.538221 
L 131.099697 134.999129 
L 131.227581 134.990255 
L 131.355465 133.165978 
L 131.483348 136.204283 
L 131.611232 136.078035 
L 131.739116 136.732401 
L 131.994884 135.748343 
L 132.122768 137.929234 
L 132.250652 134.396817 
L 132.506419 137.397436 
L 132.634303 136.396509 
L 132.762187 138.131975 
L 132.890071 132.078019 
L 133.145839 138.921872 
L 133.401607 129.878861 
L 133.529491 139.341953 
L 133.657374 135.330381 
L 133.785258 138.43179 
L 133.913142 134.065329 
L 134.041026 136.511993 
L 134.16891 134.778379 
L 134.296794 137.682187 
L 134.424678 136.540914 
L 134.552562 138.206912 
L 134.808329 135.760348 
L 134.936213 136.956699 
L 135.064097 135.11712 
L 135.191981 135.952321 
L 135.319865 138.12146 
L 135.575633 135.491013 
L 135.703517 136.890258 
L 135.8314 134.582784 
L 135.959284 138.878309 
L 136.087168 136.605843 
L 136.215052 137.714439 
L 136.342936 135.589367 
L 136.47082 138.036803 
L 136.726588 135.642483 
L 136.854471 139.430745 
L 136.982355 137.453388 
L 137.110239 137.584803 
L 137.366007 133.085141 
L 137.493891 137.80402 
L 137.621775 133.763896 
L 137.749659 140.414676 
L 138.005426 134.752659 
L 138.261194 141.537807 
L 138.516962 135.32358 
L 138.644846 136.006454 
L 138.77273 135.809291 
L 138.900614 135.018747 
L 139.156381 139.243136 
L 139.284265 133.679008 
L 139.540033 136.720092 
L 139.667917 134.208178 
L 139.795801 134.444663 
L 139.923685 134.157481 
L 140.051568 136.553984 
L 140.179452 135.725405 
L 140.307336 138.07918 
L 140.43522 136.835754 
L 140.563104 137.410614 
L 140.818872 135.696531 
L 140.946756 137.38341 
L 141.07464 133.888956 
L 141.202523 137.47738 
L 141.330407 137.137322 
L 141.458291 136.170636 
L 141.586175 136.168328 
L 141.714059 138.214741 
L 141.841943 133.669387 
L 141.969827 137.331579 
L 142.097711 134.926608 
L 142.225594 135.112933 
L 142.353478 137.629329 
L 142.481362 137.569484 
L 142.609246 133.350596 
L 142.73713 139.208625 
L 142.865014 135.803532 
L 143.120782 138.19164 
L 143.248665 133.448519 
L 143.376549 136.121181 
L 143.632317 135.68563 
L 143.760201 134.591594 
L 143.888085 137.792777 
L 144.015969 138.09529 
L 144.143853 136.767143 
L 144.271737 138.177538 
L 144.39962 135.570899 
L 144.527504 136.67701 
L 144.655388 135.65939 
L 144.783272 136.046137 
L 144.911156 137.62059 
L 145.03904 135.819424 
L 145.166924 136.611832 
L 145.294808 134.457256 
L 145.422691 136.858109 
L 145.550575 136.485671 
L 145.678459 135.080886 
L 145.806343 135.800689 
L 145.934227 138.0267 
L 146.062111 131.420835 
L 146.189995 139.882848 
L 146.317879 138.987899 
L 146.573646 132.605433 
L 146.70153 137.679143 
L 146.829414 137.374877 
L 146.957298 133.435743 
L 147.085182 138.171467 
L 147.213066 137.465264 
L 147.34095 135.291975 
L 147.596717 138.367604 
L 147.724601 134.53846 
L 147.852485 137.165515 
L 148.108253 135.737723 
L 148.364021 134.436808 
L 148.491905 138.251363 
L 148.619788 137.317297 
L 148.747672 133.667653 
L 148.875556 139.563832 
L 149.00344 134.634324 
L 149.131324 137.460516 
L 149.259208 134.997092 
L 149.387092 138.683739 
L 149.64286 136.256149 
L 149.770743 135.423145 
L 150.154395 139.756698 
L 150.282279 138.264655 
L 150.410163 133.712999 
L 150.538047 139.452066 
L 150.665931 134.439517 
L 150.793814 134.314538 
L 150.921698 136.500053 
L 151.049582 133.66807 
L 151.177466 139.613826 
L 151.433234 134.075269 
L 151.561118 137.327329 
L 151.689002 134.957191 
L 151.816886 141.112732 
L 152.072653 123.908399 
L 152.200537 149.221714 
L 152.456305 125.056387 
L 152.584189 140.604426 
L 152.712073 130.033197 
L 152.96784 135.401132 
L 153.095724 138.303244 
L 153.223608 134.840585 
L 153.351492 139.55774 
L 153.479376 135.769794 
L 153.60726 137.167618 
L 153.735144 134.911634 
L 153.990911 138.501965 
L 154.246679 133.378043 
L 154.502447 135.68892 
L 154.630331 133.278152 
L 154.758215 138.903284 
L 154.886099 134.634774 
L 155.013983 135.271019 
L 155.141866 133.973753 
L 155.397634 134.597844 
L 155.525518 136.617042 
L 155.653402 134.081855 
L 155.781286 139.423729 
L 155.90917 135.816813 
L 156.037054 139.021543 
L 156.164937 137.073267 
L 156.292821 129.78459 
L 156.420705 137.349914 
L 156.676473 132.223609 
L 156.804357 134.60213 
L 156.932241 134.1044 
L 157.060125 138.295761 
L 157.188008 136.375772 
L 157.315892 141.41697 
L 157.443776 129.088399 
L 157.57166 138.039832 
L 157.699544 128.439635 
L 157.955312 138.220679 
L 158.083196 129.8011 
L 158.21108 146.103046 
L 158.338963 135.402731 
L 158.466847 138.353945 
L 158.594731 155.718404 
L 158.722615 114.016699 
L 158.850499 152.557939 
L 159.106267 124.115047 
L 159.234151 123.726049 
L 159.362034 149.840852 
L 159.489918 126.812502 
L 159.617802 127.561549 
L 159.745686 142.518464 
L 159.87357 137.991796 
L 160.001454 123.62437 
L 160.129338 136.756165 
L 160.257222 137.554109 
L 160.385106 139.229418 
L 160.512989 127.5496 
L 160.640873 130.628578 
L 160.768757 125.098116 
L 160.896641 139.988376 
L 161.024525 123.137462 
L 161.152409 150.799178 
L 161.408177 107.048287 
L 161.53606 132.298896 
L 161.791828 188.708985 
L 161.919712 128.468376 
L 162.047596 128.726598 
L 162.303364 119.797999 
L 162.431248 151.376717 
L 162.687015 110.98063 
L 162.814899 150.018768 
L 162.942783 103.778503 
L 163.070667 158.834059 
L 163.198551 143.202003 
L 163.326435 145.493138 
L 163.454319 134.691826 
L 163.582203 150.536149 
L 163.83797 137.356427 
L 163.965854 139.663034 
L 164.093738 120.00279 
L 164.221622 151.141436 
L 164.349506 125.179572 
L 164.47739 143.707931 
L 164.605274 122.095783 
L 164.733157 138.377096 
L 164.861041 126.121672 
L 164.988925 153.537402 
L 165.116809 152.690002 
L 165.244693 141.484912 
L 165.372577 151.569974 
L 165.628345 129.003716 
L 165.756229 118.272052 
L 165.884112 151.122085 
L 166.011996 139.346458 
L 166.13988 140.577453 
L 166.267764 121.479982 
L 166.523532 171.872466 
L 166.7793 40.081011 
L 166.907183 218.256364 
L 167.035067 25.695619 
L 167.290835 126.919701 
L 167.418719 24.92113 
L 167.674487 150.188737 
L 167.802371 167.573527 
L 167.930254 123.710832 
L 168.058138 132.541653 
L 168.186022 131.257765 
L 168.313906 113.788266 
L 168.44179 140.579271 
L 168.569674 129.40402 
L 168.697558 153.275049 
L 168.825442 126.987291 
L 169.081209 149.728062 
L 169.209093 161.683907 
L 169.336977 135.997947 
L 169.464861 80.733895 
L 169.720629 139.121299 
L 169.848513 145.813198 
L 169.976397 120.180372 
L 170.10428 144.750057 
L 170.232164 144.5886 
L 170.360048 147.91591 
L 170.487932 130.293145 
L 170.7437 133.208699 
L 170.871584 129.675135 
L 170.999468 135.994653 
L 171.127352 133.750863 
L 171.255235 128.680583 
L 171.383119 132.162937 
L 171.511003 130.409189 
L 171.638887 133.050648 
L 171.766771 156.589983 
L 171.894655 128.119402 
L 172.022539 129.985131 
L 172.150423 168.585894 
L 172.278306 112.804816 
L 172.40619 153.256004 
L 172.534074 147.080005 
L 172.661958 129.054421 
L 172.917726 138.128689 
L 173.04561 156.642163 
L 173.173494 96.022272 
L 173.301377 143.524446 
L 173.429261 145.683107 
L 173.557145 113.817442 
L 173.685029 125.331737 
L 173.812913 154.111628 
L 173.940797 118.69792 
L 174.068681 119.763593 
L 174.196565 145.21128 
L 174.324449 145.557346 
L 174.452332 134.329742 
L 174.580216 139.645966 
L 174.835984 132.993107 
L 174.963868 129.485867 
L 175.091752 132.466374 
L 175.219636 160.629246 
L 175.34752 121.751218 
L 175.603287 145.774647 
L 175.859055 151.550419 
L 175.986939 135.853453 
L 176.242707 147.954141 
L 176.370591 105.506158 
L 176.498475 140.628984 
L 176.626358 138.157585 
L 176.754242 141.062534 
L 176.882126 113.179949 
L 177.01001 171.583061 
L 177.137894 105.42006 
L 177.265778 140.990209 
L 177.393662 133.351823 
L 177.521546 114.562873 
L 177.649429 170.463893 
L 177.777313 121.688362 
L 178.033081 141.272674 
L 178.288849 104.432225 
L 178.416733 171.301691 
L 178.544617 132.357621 
L 178.6725 129.33014 
L 178.928268 135.112239 
L 179.056152 154.573291 
L 179.31192 127.943979 
L 179.439804 139.515266 
L 179.567688 127.994146 
L 179.695572 140.009875 
L 179.823455 136.357191 
L 180.079223 124.713034 
L 180.334991 137.943237 
L 180.462875 113.100819 
L 180.718643 181.173684 
L 180.97441 130.238601 
L 181.102294 156.314033 
L 181.358062 136.311867 
L 181.485946 147.723059 
L 181.741714 118.576569 
L 181.869597 146.757489 
L 182.125365 129.020951 
L 182.381133 153.690338 
L 182.636901 113.341983 
L 182.892669 148.033608 
L 183.020552 143.561028 
L 183.148436 143.184461 
L 183.27632 155.516704 
L 183.404204 121.557606 
L 183.532088 151.969361 
L 183.659972 133.806065 
L 183.787856 139.20134 
L 183.91574 127.826703 
L 184.043623 136.372669 
L 184.171507 135.134493 
L 184.299391 142.012852 
L 184.427275 130.766254 
L 184.555159 133.405782 
L 184.683043 146.835027 
L 184.810927 135.305159 
L 184.938811 159.584733 
L 185.066695 114.836982 
L 185.322462 149.349121 
L 185.450346 133.794619 
L 185.57823 151.227984 
L 185.833998 131.932351 
L 185.961882 153.031779 
L 186.089766 143.434021 
L 186.217649 121.090104 
L 186.345533 125.146219 
L 186.473417 139.742754 
L 186.729185 127.506968 
L 186.857069 146.476827 
L 186.984953 130.600598 
L 187.112837 144.925667 
L 187.24072 122.010112 
L 187.368604 147.447404 
L 187.624372 132.782416 
L 187.88014 178.88723 
L 188.008024 108.044401 
L 188.135908 152.327279 
L 188.391675 114.346864 
L 188.647443 157.845343 
L 188.775327 127.428139 
L 189.031095 147.89761 
L 189.158979 121.675666 
L 189.414746 141.666781 
L 189.54263 138.792606 
L 189.670514 127.596131 
L 189.926282 138.646512 
L 190.054166 157.049865 
L 190.18205 134.259295 
L 190.309934 137.929482 
L 190.437818 136.599638 
L 190.565701 142.903261 
L 190.821469 125.949011 
L 190.949353 142.483829 
L 191.077237 125.307876 
L 191.333005 150.341654 
L 191.460889 149.528716 
L 191.588772 118.95204 
L 191.716656 144.503294 
L 191.84454 131.851124 
L 191.972424 155.147357 
L 192.100308 133.187691 
L 192.228192 142.176553 
L 192.356076 135.039437 
L 192.48396 140.734818 
L 192.611843 126.878424 
L 192.739727 148.824732 
L 192.867611 142.409236 
L 192.995495 99.297373 
L 193.123379 128.370789 
L 193.251263 128.183992 
L 193.379147 135.051714 
L 193.507031 128.440329 
L 193.762798 141.22001 
L 194.018566 129.089429 
L 194.14645 151.749632 
L 194.274334 133.624022 
L 194.402218 134.548033 
L 194.530102 131.859811 
L 194.657986 140.949617 
L 194.785869 138.848705 
L 194.913753 143.494113 
L 195.169521 118.644189 
L 195.297405 140.546762 
L 195.425289 137.187329 
L 195.553173 100.036936 
L 195.681057 151.975988 
L 195.808941 127.496998 
L 195.936824 143.996594 
L 196.064708 125.432778 
L 196.192592 153.449552 
L 196.320476 135.336217 
L 196.44836 138.079566 
L 196.576244 134.011783 
L 196.704128 125.190469 
L 196.832012 143.469755 
L 197.087779 124.09361 
L 197.215663 127.717275 
L 197.343547 137.939607 
L 197.471431 137.696297 
L 197.599315 138.357415 
L 197.727199 151.43843 
L 197.982966 121.965106 
L 198.11085 146.689962 
L 198.238734 125.903516 
L 198.622386 155.772067 
L 198.75027 119.029928 
L 198.878154 132.399227 
L 199.006038 123.927348 
L 199.133921 136.52166 
L 199.261805 129.433933 
L 199.389689 115.573324 
L 199.517573 146.464936 
L 199.773341 125.942101 
L 200.029109 144.871271 
L 200.156992 144.546437 
L 200.41276 129.92478 
L 200.540644 142.230127 
L 200.668528 109.312072 
L 200.796412 149.38459 
L 200.924296 144.646493 
L 201.05218 130.016324 
L 201.180064 128.112802 
L 201.307947 139.916404 
L 201.435831 121.908509 
L 201.563715 136.753658 
L 201.691599 123.735272 
L 201.819483 133.724787 
L 201.947367 121.583116 
L 202.075251 130.735777 
L 202.203135 126.254422 
L 202.458902 163.850415 
L 202.586786 126.436666 
L 202.842554 157.397864 
L 202.970438 109.906568 
L 203.098322 135.150917 
L 203.226206 101.950848 
L 203.481973 160.182972 
L 203.609857 120.33132 
L 203.737741 137.350529 
L 203.865625 114.085212 
L 203.993509 137.38929 
L 204.121393 133.787761 
L 204.249277 137.528836 
L 204.377161 126.273231 
L 204.505044 168.549027 
L 204.760812 104.450131 
L 205.01658 150.409 
L 205.272348 129.085749 
L 205.400232 147.344123 
L 205.655999 106.431004 
L 205.783883 156.963349 
L 206.039651 125.645224 
L 206.167535 136.494124 
L 206.295419 136.927513 
L 206.423303 140.430181 
L 206.551186 149.435715 
L 206.67907 125.783091 
L 206.934838 144.628769 
L 207.062722 121.782014 
L 207.190606 155.663458 
L 207.446374 134.263095 
L 207.574258 123.455439 
L 207.702141 158.355 
L 207.957909 115.677774 
L 208.085793 150.968153 
L 208.213677 130.520159 
L 208.341561 143.838332 
L 208.469445 119.421262 
L 208.597329 123.795783 
L 208.725212 176.511192 
L 208.853096 82.463975 
L 208.98098 152.659298 
L 209.108864 158.559583 
L 209.236748 100.668631 
L 209.364632 151.71709 
L 209.6204 106.426016 
L 209.748284 147.778107 
L 209.876167 117.8336 
L 210.004051 150.025948 
L 210.131935 132.671597 
L 210.259819 138.178039 
L 210.387703 130.97823 
L 210.515587 137.782174 
L 210.643471 123.952188 
L 210.771355 136.861252 
L 211.027122 124.355188 
L 211.155006 137.783174 
L 211.28289 132.170887 
L 211.410774 165.677473 
L 211.538658 96.31743 
L 211.794426 141.751092 
L 212.050193 126.758298 
L 212.178077 128.733843 
L 212.305961 150.795968 
L 212.433845 133.220048 
L 212.817497 154.00447 
L 212.945381 160.361551 
L 213.073264 132.76763 
L 213.329032 123.415251 
L 213.456916 146.32862 
L 213.5848 130.959999 
L 213.840568 143.316089 
L 214.096335 149.372383 
L 214.224219 101.656651 
L 214.352103 185.932545 
L 214.479987 117.842331 
L 214.607871 127.479846 
L 214.735755 146.041407 
L 214.863639 124.888945 
L 214.991523 134.819494 
L 215.119407 113.989052 
L 215.24729 115.552012 
L 215.375174 119.320176 
L 215.758826 148.206344 
L 215.88671 123.471739 
L 216.014594 123.217349 
L 216.142478 95.849358 
L 216.398245 168.763236 
L 216.526129 124.423014 
L 216.654013 149.363063 
L 216.781897 139.261528 
L 217.037665 140.529391 
L 217.165549 164.956792 
L 217.293432 156.368196 
L 217.421316 99.985177 
L 217.677084 140.77129 
L 217.804968 131.912945 
L 217.932852 155.452789 
L 218.060736 143.992306 
L 218.18862 119.628002 
L 218.444387 156.788795 
L 218.572271 122.412763 
L 218.700155 146.536099 
L 218.828039 133.732598 
L 218.955923 103.017105 
L 219.211691 158.861593 
L 219.467458 117.407334 
L 219.723226 138.673998 
L 219.85111 143.518718 
L 220.106878 132.742767 
L 220.234762 128.293585 
L 220.49053 139.883615 
L 220.618413 138.517269 
L 220.746297 129.810603 
L 221.002065 140.578017 
L 221.129949 139.618214 
L 221.257833 146.744142 
L 221.513601 135.233921 
L 221.769368 133.236001 
L 221.897252 140.531856 
L 222.025136 135.533516 
L 222.15302 118.088765 
L 222.280904 136.449655 
L 222.536672 108.3701 
L 222.664555 129.064379 
L 222.792439 123.450174 
L 222.920323 149.824903 
L 223.048207 133.252547 
L 223.176091 137.920566 
L 223.303975 152.018822 
L 223.431859 119.951902 
L 223.559743 145.274234 
L 223.687627 126.074323 
L 223.81551 133.374591 
L 223.943394 153.9194 
L 224.071278 134.501633 
L 224.199162 131.986273 
L 224.327046 133.257049 
L 224.45493 127.299144 
L 224.582814 142.335822 
L 224.710698 140.72542 
L 224.838581 137.655285 
L 224.966465 114.257057 
L 225.094349 158.924367 
L 225.222233 126.043939 
L 225.478001 170.698377 
L 225.605885 115.600163 
L 225.861653 144.970316 
L 225.989536 130.460097 
L 226.11742 137.230991 
L 226.245304 95.72614 
L 226.373188 142.695943 
L 226.501072 139.458775 
L 226.628956 185.787444 
L 226.884724 34.423281 
L 227.012607 175.409823 
L 227.140491 163.1632 
L 227.268375 126.313833 
L 227.524143 181.544395 
L 227.779911 147.9875 
L 227.907795 137.881749 
L 228.035678 172.88254 
L 228.291446 44.286905 
L 228.41933 178.025212 
L 228.547214 130.629352 
L 228.675098 144.852568 
L 228.802982 130.030217 
L 228.930866 134.750468 
L 229.05875 134.569651 
L 229.186633 112.835416 
L 229.314517 148.080587 
L 229.442401 136.437058 
L 229.698169 162.173309 
L 229.826053 104.81315 
L 229.953937 158.917056 
L 230.081821 127.756041 
L 230.209704 182.937458 
L 230.337588 108.511446 
L 230.465472 154.700229 
L 230.593356 154.815799 
L 230.72124 110.173643 
L 231.104892 141.939111 
L 231.232775 140.581986 
L 231.360659 78.920831 
L 231.488543 98.303588 
L 231.616427 148.739736 
L 231.744311 149.660588 
L 231.872195 164.731624 
L 232.000079 123.106248 
L 232.127963 145.566283 
L 232.38373 130.995664 
L 232.511614 144.51927 
L 232.639498 138.273399 
L 232.767382 155.112158 
L 232.895266 147.654489 
L 233.02315 146.756404 
L 233.278918 137.851917 
L 233.406801 126.988385 
L 233.534685 132.868107 
L 233.662569 132.808684 
L 233.790453 123.860192 
L 234.046221 141.789447 
L 234.174105 132.843976 
L 234.301989 146.754787 
L 234.68564 129.335834 
L 234.813524 137.742994 
L 234.941408 138.498436 
L 235.069292 134.958706 
L 235.32506 144.049811 
L 235.452944 130.868738 
L 235.580827 98.812509 
L 235.836595 199.336979 
L 236.092363 136.695686 
L 236.220247 143.994234 
L 236.348131 111.835714 
L 236.476015 133.123547 
L 236.603898 121.575907 
L 236.731782 135.699496 
L 236.859666 131.743707 
L 236.98755 122.770141 
L 237.243318 140.776315 
L 237.371202 112.800924 
L 237.499086 160.261507 
L 237.62697 152.834556 
L 237.882737 120.774603 
L 238.010621 136.231134 
L 238.138505 133.104243 
L 238.266389 141.543691 
L 238.394273 126.537025 
L 238.522157 131.646535 
L 238.650041 142.372097 
L 238.777924 132.88658 
L 238.905808 140.282654 
L 239.033692 132.183498 
L 239.161576 134.240907 
L 239.28946 140.394985 
L 239.417344 138.914009 
L 239.545228 130.803524 
L 239.673112 136.731853 
L 239.800996 127.783802 
L 239.928879 140.661039 
L 240.184647 115.873574 
L 240.440415 144.622925 
L 240.824067 125.655496 
L 240.95195 143.982499 
L 241.079834 128.457153 
L 241.207718 130.236876 
L 241.335602 136.365024 
L 241.463486 135.790022 
L 241.59137 127.639803 
L 241.719254 132.495127 
L 241.847138 142.205225 
L 241.975021 117.424448 
L 242.102905 141.821359 
L 242.230789 140.437975 
L 242.486557 135.364081 
L 242.614441 136.018719 
L 242.742325 140.498987 
L 242.870209 113.837502 
L 242.998093 136.252784 
L 243.125976 123.521299 
L 243.25386 136.117647 
L 243.381744 134.315999 
L 243.509628 125.801675 
L 243.637512 149.681965 
L 243.765396 113.028365 
L 244.021164 148.79865 
L 244.149047 147.71362 
L 244.276931 112.827128 
L 244.404815 135.670757 
L 244.532699 137.232619 
L 244.660583 136.182675 
L 244.916351 123.325899 
L 245.300002 134.427318 
L 245.427886 134.549432 
L 245.55577 133.550212 
L 245.683654 152.9006 
L 245.811538 135.522013 
L 245.939422 142.209708 
L 246.067306 142.94147 
L 246.19519 132.875485 
L 246.323073 136.306118 
L 246.450957 134.111402 
L 246.578841 146.715711 
L 246.706725 112.498436 
L 246.834609 147.843499 
L 246.962493 135.116936 
L 247.090377 134.835939 
L 247.218261 135.231425 
L 247.346144 124.74311 
L 247.474028 156.665237 
L 247.729796 137.494611 
L 247.85768 146.995232 
L 247.985564 141.654113 
L 248.113448 141.706159 
L 248.241332 139.695875 
L 248.369216 135.8479 
L 248.624983 119.621796 
L 248.752867 146.041128 
L 248.880751 136.867542 
L 249.008635 140.479759 
L 249.136519 136.759021 
L 249.264403 136.960735 
L 249.392287 127.064023 
L 249.648054 141.382254 
L 249.775938 151.915182 
L 249.903822 142.228632 
L 250.031706 143.980088 
L 250.15959 130.477969 
L 250.287474 141.796011 
L 250.415358 131.737333 
L 250.543242 141.119714 
L 250.926893 127.987711 
L 251.182661 134.933364 
L 251.310545 133.209877 
L 251.438429 129.011046 
L 251.566313 139.10622 
L 251.82208 120.445424 
L 251.949964 137.084358 
L 252.077848 119.995822 
L 252.205732 138.204158 
L 252.333616 130.070325 
L 252.589384 144.902496 
L 252.717267 124.307899 
L 252.845151 138.864202 
L 252.973035 122.515532 
L 253.100919 123.913409 
L 253.228803 135.373899 
L 253.356687 123.69953 
L 253.484571 145.62533 
L 253.740339 127.12782 
L 253.868222 137.040105 
L 254.12399 129.099601 
L 254.251874 133.164408 
L 254.379758 131.304796 
L 254.507642 123.893879 
L 254.635526 135.489224 
L 254.76341 132.787125 
L 254.891293 134.213229 
L 255.019177 127.53 
L 255.147061 139.017372 
L 255.274945 138.740221 
L 255.402829 119.8109 
L 256.042248 139.158319 
L 256.298016 129.031665 
L 256.553784 126.688086 
L 256.681668 130.487844 
L 256.809552 151.720707 
L 256.937436 124.012573 
L 257.065319 137.288687 
L 257.193203 134.569388 
L 257.321087 121.577512 
L 257.448971 128.045581 
L 257.576855 145.37804 
L 257.704739 140.567757 
L 257.832623 119.744934 
L 258.08839 131.541716 
L 258.216274 135.082568 
L 258.344158 132.291561 
L 258.472042 140.397206 
L 258.599926 127.668174 
L 258.72781 129.407349 
L 258.855694 157.164933 
L 258.983578 109.168981 
L 259.111462 148.558591 
L 259.239345 145.846717 
L 259.495113 119.615375 
L 259.622997 153.797025 
L 259.750881 128.667279 
L 260.006649 149.200178 
L 260.134533 149.85344 
L 260.262416 135.944423 
L 260.3903 136.432868 
L 260.518184 161.078159 
L 260.646068 163.236721 
L 260.773952 103.082784 
L 261.02972 152.940376 
L 261.157604 149.473062 
L 261.285487 126.386691 
L 261.413371 126.637584 
L 261.541255 140.413748 
L 261.669139 133.393417 
L 261.797023 144.228998 
L 261.924907 135.278446 
L 262.052791 112.14677 
L 262.308559 144.380754 
L 262.436442 123.858769 
L 262.564326 139.912009 
L 262.820094 127.485417 
L 262.947978 144.857742 
L 263.075862 112.831031 
L 263.33163 134.246084 
L 263.459513 127.961433 
L 263.587397 156.854251 
L 263.715281 144.105069 
L 263.843165 146.699116 
L 263.971049 126.273814 
L 264.098933 129.593104 
L 264.226817 118.797729 
L 264.354701 120.191821 
L 264.482585 167.943345 
L 264.610468 105.156934 
L 264.738352 107.739276 
L 264.866236 115.360923 
L 264.99412 131.527261 
L 265.122004 132.086639 
L 265.249888 137.733148 
L 265.377772 109.200892 
L 265.633539 156.358039 
L 265.761423 166.632046 
L 265.889307 114.356591 
L 266.017191 138.148324 
L 266.145075 108.027754 
L 266.272959 128.547157 
L 266.400843 107.817976 
L 266.528727 117.625011 
L 266.65661 145.612195 
L 266.784494 123.495542 
L 266.912378 126.682711 
L 267.168146 141.204739 
L 267.29603 130.792305 
L 267.423914 97.159549 
L 267.551798 179.84947 
L 267.679682 92.014597 
L 267.807565 149.941574 
L 267.935449 119.312621 
L 268.063333 149.988519 
L 268.319101 137.440144 
L 268.446985 147.840841 
L 268.574869 115.576643 
L 268.702753 156.563166 
L 268.830636 154.951856 
L 269.086404 119.438161 
L 269.214288 143.543182 
L 269.342172 143.870352 
L 269.470056 116.340047 
L 269.59794 119.747198 
L 269.725824 131.490472 
L 269.853708 124.759026 
L 269.981591 140.415829 
L 270.237359 106.886778 
L 270.493127 151.395305 
L 270.621011 156.835517 
L 270.748895 117.363296 
L 270.876779 132.932963 
L 271.004662 168.708175 
L 271.26043 130.620534 
L 271.388314 105.316692 
L 271.516198 132.854584 
L 271.644082 127.067237 
L 271.771966 138.835758 
L 271.89985 130.396408 
L 272.155617 148.820159 
L 272.411385 117.990312 
L 272.539269 148.739952 
L 272.667153 115.317713 
L 272.795037 120.871761 
L 272.922921 168.164946 
L 273.050805 166.278932 
L 273.178688 100.792767 
L 273.434456 137.930955 
L 273.56234 132.049569 
L 273.818108 153.65738 
L 274.073876 134.741414 
L 274.201759 136.978412 
L 274.329643 122.366766 
L 274.457527 134.400863 
L 274.585411 133.775443 
L 274.841179 118.839165 
L 274.969063 156.354657 
L 275.096947 120.760435 
L 275.224831 162.195363 
L 275.352714 113.997092 
L 275.480598 120.035311 
L 275.736366 145.900147 
L 275.86425 123.419897 
L 275.992134 137.510377 
L 276.120018 103.795222 
L 276.247902 147.459665 
L 276.375785 125.962021 
L 276.503669 141.784887 
L 276.631553 128.63091 
L 276.759437 140.124503 
L 276.887321 129.733408 
L 277.143089 148.169033 
L 277.398856 132.717555 
L 277.654624 140.71706 
L 277.782508 158.859331 
L 277.910392 138.434131 
L 278.038276 147.463448 
L 278.16616 100.041917 
L 278.421928 139.162946 
L 278.549811 126.3973 
L 278.677695 125.942411 
L 278.805579 130.93115 
L 278.933463 131.422288 
L 279.061347 151.368118 
L 279.189231 128.605306 
L 279.317115 133.224138 
L 279.444999 159.756643 
L 279.700766 116.266865 
L 279.82865 163.633937 
L 279.956534 142.899744 
L 280.084418 142.327767 
L 280.212302 133.902715 
L 280.340186 149.196424 
L 280.46807 107.793416 
L 280.595953 161.260693 
L 280.979605 121.311734 
L 281.107489 122.422342 
L 281.235373 129.229534 
L 281.363257 120.543722 
L 281.619025 179.183285 
L 281.874792 109.800278 
L 282.002676 165.072995 
L 282.13056 128.678813 
L 282.258444 136.862757 
L 282.386328 108.499749 
L 282.514212 112.606251 
L 282.642096 107.821227 
L 282.769979 130.336301 
L 282.897863 125.108908 
L 283.025747 140.743589 
L 283.281515 133.93598 
L 283.409399 137.032506 
L 283.537283 128.463065 
L 283.665167 131.12862 
L 283.793051 136.166252 
L 283.920934 128.494606 
L 284.048818 127.559465 
L 284.176702 145.909128 
L 284.304586 127.161908 
L 284.43247 138.601023 
L 284.688238 128.649934 
L 284.816122 152.134697 
L 284.944005 129.797087 
L 285.071889 133.203655 
L 285.199773 121.047995 
L 285.455541 189.924975 
L 285.583425 107.018077 
L 285.711309 106.713034 
L 285.839193 58.022069 
L 285.967076 66.768186 
L 286.09496 161.272842 
L 286.222844 131.052395 
L 286.350728 165.828412 
L 286.73438 108.8252 
L 286.862264 149.255506 
L 286.990148 116.559445 
L 287.118031 156.309143 
L 287.501683 107.866951 
L 287.757451 135.912506 
L 287.885335 129.69241 
L 288.013219 142.999762 
L 288.141102 108.709709 
L 288.268986 124.731457 
L 288.524754 75.990533 
L 288.652638 160.170404 
L 288.780522 124.731378 
L 288.908406 179.602481 
L 289.03629 111.560135 
L 289.292057 138.929068 
L 289.419941 139.354199 
L 289.547825 160.059664 
L 289.675709 159.911251 
L 289.803593 124.513459 
L 290.059361 143.047301 
L 290.187245 139.093239 
L 290.315128 139.99373 
L 290.443012 137.687445 
L 290.570896 145.788786 
L 290.826664 119.360389 
L 290.954548 134.720251 
L 291.082432 130.002942 
L 291.210316 118.334326 
L 291.338199 138.523736 
L 291.466083 115.846295 
L 291.593967 155.27902 
L 291.721851 130.619946 
L 291.849735 139.241329 
L 291.977619 124.17769 
L 292.105503 142.004799 
L 292.233387 122.018534 
L 292.361271 140.49363 
L 292.489154 141.602721 
L 292.617038 133.686339 
L 292.744922 117.76058 
L 293.00069 158.011573 
L 293.384342 110.042226 
L 293.640109 149.522255 
L 293.767993 162.073908 
L 294.023761 116.252567 
L 294.151645 195.593981 
L 294.407413 110.223465 
L 294.535297 171.119781 
L 294.66318 105.589159 
L 294.791064 138.046685 
L 294.918948 141.934302 
L 295.046832 133.3446 
L 295.174716 158.728549 
L 295.430484 112.181746 
L 295.686251 169.208969 
L 295.942019 118.145334 
L 296.069903 122.857874 
L 296.197787 153.763427 
L 296.453555 125.102405 
L 296.581439 135.565466 
L 296.709322 121.99419 
L 296.96509 155.906264 
L 297.092974 112.910484 
L 297.348742 141.485927 
L 297.476626 106.21745 
L 297.60451 162.430236 
L 297.860277 99.484757 
L 297.988161 149.719686 
L 298.116045 124.721363 
L 298.243929 143.876964 
L 298.371813 181.149717 
L 298.499697 123.882953 
L 298.627581 163.000704 
L 298.755465 150.416322 
L 298.883348 154.619087 
L 299.011232 109.593334 
L 299.139116 124.098166 
L 299.267 122.939642 
L 299.394884 126.39923 
L 299.522768 170.634317 
L 299.778536 119.415157 
L 299.906419 187.553328 
L 300.034303 116.565055 
L 300.162187 119.950865 
L 300.417955 160.646822 
L 300.545839 143.3544 
L 300.673723 158.539417 
L 300.801607 127.101105 
L 300.929491 153.223854 
L 301.185258 128.679086 
L 301.313142 133.077211 
L 301.441026 146.183971 
L 301.56891 145.451551 
L 301.696794 111.686373 
L 301.824678 144.663741 
L 301.952562 128.160054 
L 302.080445 126.298662 
L 302.336213 140.1231 
L 302.719865 124.790719 
L 302.847749 145.971695 
L 302.975633 119.776263 
L 303.103517 148.227272 
L 303.2314 134.641375 
L 303.359284 142.02542 
L 303.487168 125.780837 
L 303.742936 132.957934 
L 303.87082 135.952282 
L 303.998704 143.15324 
L 304.254471 132.372148 
L 304.382355 133.696464 
L 304.638123 122.141865 
L 304.766007 155.906468 
L 304.893891 147.627413 
L 305.021775 107.163682 
L 305.277542 149.280393 
L 305.405426 111.002988 
L 305.53331 119.619891 
L 305.789078 144.825232 
L 305.916962 133.624825 
L 306.044846 149.351301 
L 306.17273 129.153979 
L 306.300614 135.324921 
L 306.428497 129.955388 
L 306.684265 133.124577 
L 306.812149 138.506289 
L 306.940033 138.885264 
L 307.067917 132.651415 
L 307.195801 136.594814 
L 307.323685 160.559616 
L 307.579452 139.309474 
L 307.707336 133.759632 
L 307.83522 157.253727 
L 308.090988 124.017483 
L 308.218872 145.63783 
L 308.346756 122.054164 
L 308.47464 147.943959 
L 308.602523 124.604335 
L 308.858291 139.318914 
L 308.986175 132.034301 
L 309.114059 114.239185 
L 309.369827 153.072786 
L 309.625594 135.176834 
L 309.753478 140.701679 
L 310.009246 134.764355 
L 310.13713 148.630935 
L 310.265014 125.954697 
L 310.392898 152.506599 
L 310.520782 97.755513 
L 310.648665 158.693991 
L 310.904433 122.484481 
L 311.032317 130.361753 
L 311.160201 154.723127 
L 311.415969 121.29918 
L 311.543853 125.617618 
L 311.671737 123.589651 
L 311.79962 133.793901 
L 311.927504 120.12792 
L 312.183272 135.491768 
L 312.311156 126.232018 
L 312.43904 155.077153 
L 312.566924 150.312893 
L 312.694808 162.785053 
L 312.822691 122.223079 
L 313.078459 135.31185 
L 313.206343 125.754071 
L 313.462111 154.87092 
L 313.589995 122.50364 
L 313.717879 132.619509 
L 313.845763 112.742815 
L 313.973646 138.197925 
L 314.229414 129.81315 
L 314.357298 137.579658 
L 314.485182 134.972669 
L 314.613066 138.060611 
L 314.74095 148.448327 
L 314.868834 119.924787 
L 314.996717 116.653263 
L 315.124601 124.795746 
L 315.252485 124.546903 
L 315.380369 142.101185 
L 315.508253 118.630292 
L 315.636137 146.690786 
L 315.764021 132.123381 
L 315.891905 133.499628 
L 316.019788 136.981594 
L 316.147672 130.632265 
L 316.275556 138.108801 
L 316.40344 138.529814 
L 316.531324 111.188334 
L 316.787092 150.35644 
L 316.914976 118.268227 
L 317.04286 157.731071 
L 317.298627 121.297862 
L 317.426511 152.362194 
L 317.554395 121.923442 
L 317.682279 129.645904 
L 317.810163 112.103826 
L 317.938047 146.002896 
L 318.065931 125.393164 
L 318.193814 70.334247 
L 318.321698 153.622396 
L 318.449582 146.971791 
L 318.70535 108.375422 
L 318.833234 155.675693 
L 318.961118 94.636503 
L 319.089002 163.437939 
L 319.216886 133.689836 
L 319.472653 131.784813 
L 319.600537 151.510987 
L 319.728421 120.409541 
L 319.856305 136.377856 
L 319.984189 117.294103 
L 320.112073 175.00538 
L 320.239957 113.927588 
L 320.36784 129.076925 
L 320.495724 163.256384 
L 320.751492 133.035339 
L 320.879376 159.25883 
L 321.135144 118.81736 
L 321.263028 166.527044 
L 321.390911 103.908085 
L 321.646679 149.586617 
L 321.902447 109.494222 
L 322.158215 143.879084 
L 322.286099 123.775634 
L 322.413983 145.419163 
L 322.541866 105.342102 
L 322.66975 167.216243 
L 322.797634 116.332688 
L 322.925518 134.893091 
L 323.053402 115.004228 
L 323.181286 158.958215 
L 323.30917 101.359257 
L 323.820705 155.402604 
L 323.948589 130.846734 
L 324.204357 151.656876 
L 324.460125 124.476542 
L 324.588008 128.935431 
L 324.715892 144.471026 
L 324.97166 127.065076 
L 325.099544 124.593448 
L 325.227428 146.975097 
L 325.355312 141.927489 
L 325.483196 132.211665 
L 325.61108 143.662234 
L 325.738963 130.827958 
L 325.866847 140.171842 
L 325.994731 110.128662 
L 326.122615 126.590244 
L 326.250499 163.350752 
L 326.378383 129.671867 
L 326.506267 141.289424 
L 326.634151 132.902599 
L 326.762034 134.224861 
L 326.889918 126.85631 
L 327.145686 157.448052 
L 327.401454 119.170044 
L 327.529338 123.895419 
L 327.657222 136.389243 
L 327.785106 113.639564 
L 327.912989 131.304638 
L 328.040873 131.102092 
L 328.168757 139.424709 
L 328.296641 124.819219 
L 328.424525 179.642362 
L 328.552409 136.323297 
L 328.808177 143.716969 
L 328.93606 127.042445 
L 329.063944 147.397089 
L 329.319712 118.012284 
L 329.447596 144.846514 
L 329.57548 119.10756 
L 329.703364 124.177467 
L 329.831248 159.505011 
L 329.959131 149.876613 
L 330.087015 175.823435 
L 330.214899 80.737984 
L 330.342783 164.00626 
L 330.470667 126.143309 
L 330.726435 147.2692 
L 330.854319 128.466833 
L 330.982203 159.000754 
L 331.110086 86.641185 
L 331.23797 149.485001 
L 331.365854 142.576558 
L 331.493738 151.538896 
L 331.621622 126.635764 
L 331.749506 148.449848 
L 331.87739 102.212364 
L 332.005274 145.443894 
L 332.261041 139.653513 
L 332.388925 121.000145 
L 332.516809 20.583636 
L 332.644693 210.56766 
L 333.028345 122.630365 
L 333.156229 117.431317 
L 333.284112 141.221003 
L 333.411996 126.900542 
L 333.53988 181.762627 
L 333.667764 96.63012 
L 333.795648 197.039355 
L 334.051416 125.18983 
L 334.1793 132.568919 
L 334.435067 126.420781 
L 334.562951 148.793768 
L 334.690835 135.83599 
L 334.818719 134.694577 
L 335.074487 129.084434 
L 335.202371 135.621393 
L 335.330254 128.0274 
L 335.458138 145.116389 
L 335.713906 110.604871 
L 335.84179 182.292957 
L 336.097558 97.294834 
L 336.225442 148.862177 
L 336.353326 148.993186 
L 336.609093 131.619711 
L 336.736977 147.768389 
L 336.864861 128.483943 
L 336.992745 144.318353 
L 337.120629 138.620784 
L 337.248513 123.551199 
L 337.376397 142.851234 
L 337.632164 111.132694 
L 337.887932 151.605054 
L 338.015816 168.046652 
L 338.1437 85.218813 
L 338.399468 169.09237 
L 338.527352 115.797133 
L 338.655235 145.338101 
L 338.911003 115.492214 
L 339.038887 148.706291 
L 339.166771 146.218842 
L 339.294655 132.467381 
L 339.422539 150.245846 
L 339.550423 132.841648 
L 339.678306 130.636195 
L 339.80619 148.456249 
L 339.934074 113.806258 
L 340.061958 171.941382 
L 340.189842 128.657482 
L 340.44561 168.107692 
L 340.573494 82.282901 
L 340.829261 142.11366 
L 340.957145 136.102471 
L 341.085029 152.579993 
L 341.212913 135.736671 
L 341.340797 147.258073 
L 341.468681 133.241495 
L 341.596565 141.619089 
L 341.980216 113.361404 
L 342.1081 156.395453 
L 342.235984 113.044733 
L 342.619636 145.773079 
L 342.74752 128.419201 
L 342.875403 147.313487 
L 343.003287 120.404551 
L 343.131171 135.192018 
L 343.259055 120.594229 
L 343.386939 140.873713 
L 343.514823 141.237841 
L 343.642707 153.14434 
L 343.770591 183.727516 
L 343.898475 146.341535 
L 344.282126 139.105402 
L 344.41001 125.344676 
L 344.793662 152.595727 
L 345.049429 131.830575 
L 345.305197 145.336347 
L 345.433081 129.169251 
L 345.560965 137.769782 
L 345.688849 124.425016 
L 345.816733 138.823909 
L 345.944617 116.141887 
L 346.0725 141.556015 
L 346.200384 129.826122 
L 346.328268 133.292277 
L 346.456152 132.817255 
L 346.584036 127.770167 
L 346.71192 137.756649 
L 346.967688 117.368087 
L 347.095572 154.310144 
L 347.223455 147.047545 
L 347.351339 129.761192 
L 347.607107 136.563254 
L 347.734991 121.80238 
L 347.862875 140.330816 
L 347.990759 126.047458 
L 348.37441 143.188118 
L 348.502294 132.551322 
L 348.630178 153.030733 
L 348.758062 108.13501 
L 349.01383 139.155852 
L 349.141714 143.508448 
L 349.269597 161.737471 
L 349.397481 103.33417 
L 349.525365 113.815226 
L 349.653249 113.654392 
L 349.781133 156.153575 
L 349.909017 119.919123 
L 350.036901 150.808562 
L 350.164785 136.297762 
L 350.292669 149.027588 
L 350.548436 124.800358 
L 350.67632 141.666391 
L 350.932088 127.169872 
L 351.059972 151.016426 
L 351.187856 112.235628 
L 351.31574 152.248644 
L 351.443623 121.346312 
L 351.699391 144.629683 
L 351.827275 123.560806 
L 351.955159 143.444322 
L 352.083043 96.9902 
L 352.210927 152.789956 
L 352.338811 118.96778 
L 352.466695 162.368906 
L 352.594578 102.487161 
L 352.722462 147.244314 
L 353.106114 126.272002 
L 353.233998 127.784736 
L 353.361882 145.426833 
L 353.489766 121.428929 
L 353.617649 145.625393 
L 353.745533 145.848507 
L 353.873417 142.281716 
L 354.001301 151.781496 
L 354.129185 129.50209 
L 354.257069 136.504626 
L 354.384953 134.735657 
L 354.512837 144.613661 
L 354.64072 125.234599 
L 355.024372 144.151804 
L 355.152256 130.815486 
L 355.28014 141.544706 
L 355.408024 126.516112 
L 355.535908 150.287745 
L 355.663792 112.455548 
L 356.047443 134.822916 
L 356.047443 134.822916 
" style="fill:none;stroke:#1f77b4;stroke-linecap:square;stroke-width:1.5;"/>
   </g>
   <g id="patch_3">
    <path d="M 36.465625 228.14 
L 36.465625 10.7 
" style="fill:none;stroke:#000000;stroke-linecap:square;stroke-linejoin:miter;stroke-width:0.8;"/>
   </g>
   <g id="patch_4">
    <path d="M 371.265625 228.14 
L 371.265625 10.7 
" style="fill:none;stroke:#000000;stroke-linecap:square;stroke-linejoin:miter;stroke-width:0.8;"/>
   </g>
   <g id="patch_5">
    <path d="M 36.465625 228.14 
L 371.265625 228.14 
" style="fill:none;stroke:#000000;stroke-linecap:square;stroke-linejoin:miter;stroke-width:0.8;"/>
   </g>
   <g id="patch_6">
    <path d="M 36.465625 10.7 
L 371.265625 10.7 
" style="fill:none;stroke:#000000;stroke-linecap:square;stroke-linejoin:miter;stroke-width:0.8;"/>
   </g>
  </g>
 </g>
 <defs>
  <clipPath id="p7393fa8418">
   <rect height="217.44" width="334.8" x="36.465625" y="10.7"/>
  </clipPath>
 </defs>
</svg>
