<?xml version="1.0" encoding="utf-8" standalone="no"?>
<!DOCTYPE svg PUBLIC "-//W3C//DTD SVG 1.1//EN"
  "http://www.w3.org/Graphics/SVG/1.1/DTD/svg11.dtd">
<!-- Created with matplotlib (http://matplotlib.org/) -->
<svg height="300.690125pt" version="1.1" viewBox="0 0 413.647034 300.690125" width="413.647034pt" xmlns="http://www.w3.org/2000/svg" xmlns:xlink="http://www.w3.org/1999/xlink">
 <defs>
  <style type="text/css">
*{stroke-linecap:butt;stroke-linejoin:round;}
  </style>
 </defs>
 <g id="figure_1">
  <g id="patch_1">
   <path d="M 0 300.690125 
L 413.647034 300.690125 
L 413.647034 0 
L 0 0 
z
" style="fill:#ffffff;"/>
  </g>
  <g id="axes_1">
   <g id="patch_2">
    <path d="M 36.465625 276.812 
L 393.585625 276.812 
L 393.585625 10.7 
L 36.465625 10.7 
z
" style="fill:#ffffff;"/>
   </g>
   <g id="matplotlib.axis_1">
    <g id="xtick_1">
     <g id="line2d_1">
      <defs>
       <path d="M 0 0 
L 0 3.5 
" id="m5370baf69e" style="stroke:#000000;stroke-width:0.8;"/>
      </defs>
      <g>
       <use style="stroke:#000000;stroke-width:0.8;" x="52.698352" xlink:href="#m5370baf69e" y="276.812"/>
      </g>
     </g>
     <g id="text_1">
      <!-- 0 -->
      <defs>
       <path d="M 31.78125 66.40625 
Q 24.171875 66.40625 20.328125 58.90625 
Q 16.5 51.421875 16.5 36.375 
Q 16.5 21.390625 20.328125 13.890625 
Q 24.171875 6.390625 31.78125 6.390625 
Q 39.453125 6.390625 43.28125 13.890625 
Q 47.125 21.390625 47.125 36.375 
Q 47.125 51.421875 43.28125 58.90625 
Q 39.453125 66.40625 31.78125 66.40625 
z
M 31.78125 74.21875 
Q 44.046875 74.21875 50.515625 64.515625 
Q 56.984375 54.828125 56.984375 36.375 
Q 56.984375 17.96875 50.515625 8.265625 
Q 44.046875 -1.421875 31.78125 -1.421875 
Q 19.53125 -1.421875 13.0625 8.265625 
Q 6.59375 17.96875 6.59375 36.375 
Q 6.59375 54.828125 13.0625 64.515625 
Q 19.53125 74.21875 31.78125 74.21875 
z
" id="DejaVuSans-30"/>
      </defs>
      <g transform="translate(49.517102 291.410437)scale(0.1 -0.1)">
       <use xlink:href="#DejaVuSans-30"/>
      </g>
     </g>
    </g>
    <g id="xtick_2">
     <g id="line2d_2">
      <g>
       <use style="stroke:#000000;stroke-width:0.8;" x="120.903089" xlink:href="#m5370baf69e" y="276.812"/>
      </g>
     </g>
     <g id="text_2">
      <!-- 500 -->
      <defs>
       <path d="M 10.796875 72.90625 
L 49.515625 72.90625 
L 49.515625 64.59375 
L 19.828125 64.59375 
L 19.828125 46.734375 
Q 21.96875 47.46875 24.109375 47.828125 
Q 26.265625 48.1875 28.421875 48.1875 
Q 40.625 48.1875 47.75 41.5 
Q 54.890625 34.8125 54.890625 23.390625 
Q 54.890625 11.625 47.5625 5.09375 
Q 40.234375 -1.421875 26.90625 -1.421875 
Q 22.3125 -1.421875 17.546875 -0.640625 
Q 12.796875 0.140625 7.71875 1.703125 
L 7.71875 11.625 
Q 12.109375 9.234375 16.796875 8.0625 
Q 21.484375 6.890625 26.703125 6.890625 
Q 35.15625 6.890625 40.078125 11.328125 
Q 45.015625 15.765625 45.015625 23.390625 
Q 45.015625 31 40.078125 35.4375 
Q 35.15625 39.890625 26.703125 39.890625 
Q 22.75 39.890625 18.8125 39.015625 
Q 14.890625 38.140625 10.796875 36.28125 
z
" id="DejaVuSans-35"/>
      </defs>
      <g transform="translate(111.359339 291.410437)scale(0.1 -0.1)">
       <use xlink:href="#DejaVuSans-35"/>
       <use x="63.623047" xlink:href="#DejaVuSans-30"/>
       <use x="127.246094" xlink:href="#DejaVuSans-30"/>
      </g>
     </g>
    </g>
    <g id="xtick_3">
     <g id="line2d_3">
      <g>
       <use style="stroke:#000000;stroke-width:0.8;" x="189.107825" xlink:href="#m5370baf69e" y="276.812"/>
      </g>
     </g>
     <g id="text_3">
      <!-- 1000 -->
      <defs>
       <path d="M 12.40625 8.296875 
L 28.515625 8.296875 
L 28.515625 63.921875 
L 10.984375 60.40625 
L 10.984375 69.390625 
L 28.421875 72.90625 
L 38.28125 72.90625 
L 38.28125 8.296875 
L 54.390625 8.296875 
L 54.390625 0 
L 12.40625 0 
z
" id="DejaVuSans-31"/>
      </defs>
      <g transform="translate(176.382825 291.410437)scale(0.1 -0.1)">
       <use xlink:href="#DejaVuSans-31"/>
       <use x="63.623047" xlink:href="#DejaVuSans-30"/>
       <use x="127.246094" xlink:href="#DejaVuSans-30"/>
       <use x="190.869141" xlink:href="#DejaVuSans-30"/>
      </g>
     </g>
    </g>
    <g id="xtick_4">
     <g id="line2d_4">
      <g>
       <use style="stroke:#000000;stroke-width:0.8;" x="257.312562" xlink:href="#m5370baf69e" y="276.812"/>
      </g>
     </g>
     <g id="text_4">
      <!-- 1500 -->
      <g transform="translate(244.587562 291.410437)scale(0.1 -0.1)">
       <use xlink:href="#DejaVuSans-31"/>
       <use x="63.623047" xlink:href="#DejaVuSans-35"/>
       <use x="127.246094" xlink:href="#DejaVuSans-30"/>
       <use x="190.869141" xlink:href="#DejaVuSans-30"/>
      </g>
     </g>
    </g>
    <g id="xtick_5">
     <g id="line2d_5">
      <g>
       <use style="stroke:#000000;stroke-width:0.8;" x="325.517298" xlink:href="#m5370baf69e" y="276.812"/>
      </g>
     </g>
     <g id="text_5">
      <!-- 2000 -->
      <defs>
       <path d="M 19.1875 8.296875 
L 53.609375 8.296875 
L 53.609375 0 
L 7.328125 0 
L 7.328125 8.296875 
Q 12.9375 14.109375 22.625 23.890625 
Q 32.328125 33.6875 34.8125 36.53125 
Q 39.546875 41.84375 41.421875 45.53125 
Q 43.3125 49.21875 43.3125 52.78125 
Q 43.3125 58.59375 39.234375 62.25 
Q 35.15625 65.921875 28.609375 65.921875 
Q 23.96875 65.921875 18.8125 64.3125 
Q 13.671875 62.703125 7.8125 59.421875 
L 7.8125 69.390625 
Q 13.765625 71.78125 18.9375 73 
Q 24.125 74.21875 28.421875 74.21875 
Q 39.75 74.21875 46.484375 68.546875 
Q 53.21875 62.890625 53.21875 53.421875 
Q 53.21875 48.921875 51.53125 44.890625 
Q 49.859375 40.875 45.40625 35.40625 
Q 44.1875 33.984375 37.640625 27.21875 
Q 31.109375 20.453125 19.1875 8.296875 
z
" id="DejaVuSans-32"/>
      </defs>
      <g transform="translate(312.792298 291.410437)scale(0.1 -0.1)">
       <use xlink:href="#DejaVuSans-32"/>
       <use x="63.623047" xlink:href="#DejaVuSans-30"/>
       <use x="127.246094" xlink:href="#DejaVuSans-30"/>
       <use x="190.869141" xlink:href="#DejaVuSans-30"/>
      </g>
     </g>
    </g>
    <g id="xtick_6">
     <g id="line2d_6">
      <g>
       <use style="stroke:#000000;stroke-width:0.8;" x="393.722034" xlink:href="#m5370baf69e" y="276.812"/>
      </g>
     </g>
     <g id="text_6">
      <!-- 2500 -->
      <g transform="translate(380.997034 291.410437)scale(0.1 -0.1)">
       <use xlink:href="#DejaVuSans-32"/>
       <use x="63.623047" xlink:href="#DejaVuSans-35"/>
       <use x="127.246094" xlink:href="#DejaVuSans-30"/>
       <use x="190.869141" xlink:href="#DejaVuSans-30"/>
      </g>
     </g>
    </g>
   </g>
   <g id="matplotlib.axis_2">
    <g id="ytick_1">
     <g id="line2d_7">
      <defs>
       <path d="M 0 0 
L -3.5 0 
" id="ma6e0563dc9" style="stroke:#000000;stroke-width:0.8;"/>
      </defs>
      <g>
       <use style="stroke:#000000;stroke-width:0.8;" x="36.465625" xlink:href="#ma6e0563dc9" y="259.551077"/>
      </g>
     </g>
     <g id="text_7">
      <!-- 2.5 -->
      <defs>
       <path d="M 10.6875 12.40625 
L 21 12.40625 
L 21 0 
L 10.6875 0 
z
" id="DejaVuSans-2e"/>
      </defs>
      <g transform="translate(13.5625 263.350295)scale(0.1 -0.1)">
       <use xlink:href="#DejaVuSans-32"/>
       <use x="63.623047" xlink:href="#DejaVuSans-2e"/>
       <use x="95.410156" xlink:href="#DejaVuSans-35"/>
      </g>
     </g>
    </g>
    <g id="ytick_2">
     <g id="line2d_8">
      <g>
       <use style="stroke:#000000;stroke-width:0.8;" x="36.465625" xlink:href="#ma6e0563dc9" y="226.683485"/>
      </g>
     </g>
     <g id="text_8">
      <!-- 5.0 -->
      <g transform="translate(13.5625 230.482704)scale(0.1 -0.1)">
       <use xlink:href="#DejaVuSans-35"/>
       <use x="63.623047" xlink:href="#DejaVuSans-2e"/>
       <use x="95.410156" xlink:href="#DejaVuSans-30"/>
      </g>
     </g>
    </g>
    <g id="ytick_3">
     <g id="line2d_9">
      <g>
       <use style="stroke:#000000;stroke-width:0.8;" x="36.465625" xlink:href="#ma6e0563dc9" y="193.815893"/>
      </g>
     </g>
     <g id="text_9">
      <!-- 7.5 -->
      <defs>
       <path d="M 8.203125 72.90625 
L 55.078125 72.90625 
L 55.078125 68.703125 
L 28.609375 0 
L 18.3125 0 
L 43.21875 64.59375 
L 8.203125 64.59375 
z
" id="DejaVuSans-37"/>
      </defs>
      <g transform="translate(13.5625 197.615112)scale(0.1 -0.1)">
       <use xlink:href="#DejaVuSans-37"/>
       <use x="63.623047" xlink:href="#DejaVuSans-2e"/>
       <use x="95.410156" xlink:href="#DejaVuSans-35"/>
      </g>
     </g>
    </g>
    <g id="ytick_4">
     <g id="line2d_10">
      <g>
       <use style="stroke:#000000;stroke-width:0.8;" x="36.465625" xlink:href="#ma6e0563dc9" y="160.948301"/>
      </g>
     </g>
     <g id="text_10">
      <!-- 10.0 -->
      <g transform="translate(7.2 164.74752)scale(0.1 -0.1)">
       <use xlink:href="#DejaVuSans-31"/>
       <use x="63.623047" xlink:href="#DejaVuSans-30"/>
       <use x="127.246094" xlink:href="#DejaVuSans-2e"/>
       <use x="159.033203" xlink:href="#DejaVuSans-30"/>
      </g>
     </g>
    </g>
    <g id="ytick_5">
     <g id="line2d_11">
      <g>
       <use style="stroke:#000000;stroke-width:0.8;" x="36.465625" xlink:href="#ma6e0563dc9" y="128.080709"/>
      </g>
     </g>
     <g id="text_11">
      <!-- 12.5 -->
      <g transform="translate(7.2 131.879928)scale(0.1 -0.1)">
       <use xlink:href="#DejaVuSans-31"/>
       <use x="63.623047" xlink:href="#DejaVuSans-32"/>
       <use x="127.246094" xlink:href="#DejaVuSans-2e"/>
       <use x="159.033203" xlink:href="#DejaVuSans-35"/>
      </g>
     </g>
    </g>
    <g id="ytick_6">
     <g id="line2d_12">
      <g>
       <use style="stroke:#000000;stroke-width:0.8;" x="36.465625" xlink:href="#ma6e0563dc9" y="95.213117"/>
      </g>
     </g>
     <g id="text_12">
      <!-- 15.0 -->
      <g transform="translate(7.2 99.012336)scale(0.1 -0.1)">
       <use xlink:href="#DejaVuSans-31"/>
       <use x="63.623047" xlink:href="#DejaVuSans-35"/>
       <use x="127.246094" xlink:href="#DejaVuSans-2e"/>
       <use x="159.033203" xlink:href="#DejaVuSans-30"/>
      </g>
     </g>
    </g>
    <g id="ytick_7">
     <g id="line2d_13">
      <g>
       <use style="stroke:#000000;stroke-width:0.8;" x="36.465625" xlink:href="#ma6e0563dc9" y="62.345525"/>
      </g>
     </g>
     <g id="text_13">
      <!-- 17.5 -->
      <g transform="translate(7.2 66.144744)scale(0.1 -0.1)">
       <use xlink:href="#DejaVuSans-31"/>
       <use x="63.623047" xlink:href="#DejaVuSans-37"/>
       <use x="127.246094" xlink:href="#DejaVuSans-2e"/>
       <use x="159.033203" xlink:href="#DejaVuSans-35"/>
      </g>
     </g>
    </g>
    <g id="ytick_8">
     <g id="line2d_14">
      <g>
       <use style="stroke:#000000;stroke-width:0.8;" x="36.465625" xlink:href="#ma6e0563dc9" y="29.477933"/>
      </g>
     </g>
     <g id="text_14">
      <!-- 20.0 -->
      <g transform="translate(7.2 33.277152)scale(0.1 -0.1)">
       <use xlink:href="#DejaVuSans-32"/>
       <use x="63.623047" xlink:href="#DejaVuSans-30"/>
       <use x="127.246094" xlink:href="#DejaVuSans-2e"/>
       <use x="159.033203" xlink:href="#DejaVuSans-30"/>
      </g>
     </g>
    </g>
   </g>
   <g id="line2d_15">
    <path clip-path="url(#pb6b9aeff44)" d="M 52.698352 168.743685 
L 52.834762 163.514306 
L 52.971171 163.88483 
L 53.107581 163.624757 
L 53.24399 151.90985 
L 53.3804 157.561058 
L 53.516809 153.220123 
L 53.653219 163.527977 
L 53.789628 163.180342 
L 53.926038 151.854498 
L 54.062447 172.270693 
L 54.335266 151.529492 
L 54.471675 178.755131 
L 54.608085 173.371669 
L 54.744494 146.677147 
L 54.880904 170.124928 
L 55.017313 155.321379 
L 55.153723 178.353009 
L 55.426542 148.744119 
L 55.562951 184.990896 
L 55.699361 180.472622 
L 55.83577 102.612906 
L 55.97218 154.254935 
L 56.108589 162.53976 
L 56.244999 188.316461 
L 56.381408 168.410174 
L 56.517818 187.906113 
L 56.654227 167.813256 
L 56.790636 167.343881 
L 56.927046 143.669441 
L 57.063455 182.242659 
L 57.199865 161.419832 
L 57.336274 172.108871 
L 57.472684 152.263845 
L 57.609093 160.446767 
L 57.745503 182.71836 
L 58.018322 165.167078 
L 58.154731 154.82008 
L 58.291141 156.820149 
L 58.42755 144.169061 
L 58.700369 175.413604 
L 58.836779 153.252462 
L 58.973188 167.216421 
L 59.109597 234.028923 
L 59.382416 159.285655 
L 59.518826 142.872495 
L 59.655235 177.487956 
L 59.791645 164.568508 
L 59.928054 162.910191 
L 60.064464 169.005577 
L 60.200873 161.157971 
L 60.337283 162.380322 
L 60.473692 161.324102 
L 60.610102 175.489065 
L 60.746511 154.927074 
L 60.882921 166.139784 
L 61.01933 167.045596 
L 61.15574 147.258416 
L 61.428559 182.885178 
L 61.564968 134.848385 
L 61.837787 186.244924 
L 61.974196 138.565476 
L 62.247015 179.027005 
L 62.519834 167.546473 
L 62.656244 183.173792 
L 62.792653 144.601432 
L 62.929063 172.090398 
L 63.065472 159.710875 
L 63.201882 161.216038 
L 63.338291 172.90587 
L 63.474701 163.741556 
L 63.74752 188.998562 
L 63.883929 148.189554 
L 64.020339 170.983861 
L 64.156748 215.812942 
L 64.702386 155.452215 
L 64.838795 188.26713 
L 64.975205 142.108168 
L 65.111614 184.675053 
L 65.248024 165.079326 
L 65.384433 181.25604 
L 65.520843 138.353847 
L 65.657252 168.300685 
L 65.793662 150.868888 
L 65.930071 187.782935 
L 66.066481 177.604259 
L 66.20289 132.770523 
L 66.475709 183.936855 
L 66.612119 168.787326 
L 66.748528 109.831193 
L 67.021347 178.539798 
L 67.157756 183.712411 
L 67.294166 141.860528 
L 67.430575 175.078368 
L 67.566985 161.243089 
L 67.839804 190.545402 
L 67.976213 190.333397 
L 68.112623 161.950526 
L 68.249032 166.911943 
L 68.385442 150.976704 
L 68.658261 179.220026 
L 68.79467 170.22971 
L 68.93108 186.8378 
L 69.203898 108.610597 
L 69.476717 171.941308 
L 69.749536 148.474858 
L 70.022355 158.455293 
L 70.158765 136.565174 
L 70.295174 149.173098 
L 70.431584 130.001394 
L 70.704403 164.973045 
L 70.840812 144.38314 
L 70.977222 199.228075 
L 71.113631 192.817695 
L 71.250041 118.918669 
L 71.38645 195.03953 
L 71.52286 150.666063 
L 71.659269 152.508785 
L 71.795678 177.775669 
L 71.932088 139.288378 
L 72.068497 173.78154 
L 72.204907 159.651849 
L 72.477726 176.534674 
L 72.750545 140.411709 
L 72.886954 146.152685 
L 73.023364 180.286221 
L 73.159773 160.35818 
L 73.296183 160.303171 
L 73.569002 148.955451 
L 73.705411 184.8812 
L 73.97823 149.988827 
L 74.11464 162.060292 
L 74.251049 157.86168 
L 74.523868 170.830063 
L 74.660277 138.181896 
L 74.796687 179.182375 
L 74.933096 160.850439 
L 75.069506 162.269193 
L 75.205915 173.105607 
L 75.342325 142.160134 
L 75.478734 190.125739 
L 75.615144 148.501178 
L 75.751553 179.662675 
L 75.887963 153.129523 
L 76.024372 166.540359 
L 76.160782 154.5064 
L 76.297191 173.761697 
L 76.57001 154.061998 
L 76.706419 160.745866 
L 76.842829 176.557741 
L 76.979238 148.801412 
L 77.115648 158.837677 
L 77.252057 181.931882 
L 77.524876 131.58994 
L 77.661286 152.72019 
L 77.797695 199.705366 
L 77.934105 142.860956 
L 78.070514 186.309571 
L 78.343333 126.056767 
L 78.616152 181.616739 
L 78.752562 157.361951 
L 78.888971 162.935547 
L 79.025381 152.93757 
L 79.16179 204.644187 
L 79.298199 128.948539 
L 79.434609 143.414203 
L 79.571018 129.529172 
L 79.707428 174.838691 
L 79.843837 161.168513 
L 79.980247 190.086131 
L 80.116656 181.349475 
L 80.253066 158.015026 
L 80.389475 168.937175 
L 80.525885 153.000787 
L 80.662294 180.961712 
L 80.798704 184.928176 
L 80.935113 210.403156 
L 81.071523 126.391318 
L 81.207932 173.794708 
L 81.344342 173.618203 
L 81.617161 150.405743 
L 81.75357 174.774039 
L 81.889979 156.088563 
L 82.026389 171.789164 
L 82.299208 150.467869 
L 82.435617 168.362528 
L 82.572027 158.859546 
L 82.708436 159.374103 
L 82.844846 166.854226 
L 82.981255 154.685409 
L 83.117665 171.960291 
L 83.254074 160.138396 
L 83.390484 160.083975 
L 83.526893 163.227264 
L 83.663303 155.977839 
L 83.936122 164.882545 
L 84.072531 159.370644 
L 84.208941 165.142076 
L 84.34535 161.54585 
L 84.618169 172.628993 
L 84.754578 141.856338 
L 85.027397 170.187663 
L 85.163807 156.65484 
L 85.300216 172.784369 
L 85.436626 159.50692 
L 85.573035 162.483859 
L 85.845854 152.914359 
L 85.982264 157.71335 
L 86.118673 170.413356 
L 86.255083 160.279414 
L 86.391492 127.296375 
L 86.527902 171.615612 
L 86.664311 178.339032 
L 86.80072 155.230318 
L 87.073539 169.607539 
L 87.209949 150.33666 
L 87.346358 172.761729 
L 87.619177 163.475781 
L 87.755587 161.27228 
L 87.891996 168.330314 
L 88.164815 156.936555 
L 88.301225 161.585567 
L 88.437634 153.392303 
L 88.710453 159.106293 
L 88.846863 154.886579 
L 89.119682 166.432076 
L 89.256091 161.730203 
L 89.3925 168.17978 
L 89.52891 166.744076 
L 89.665319 154.452737 
L 89.801729 158.640087 
L 89.938138 154.766801 
L 90.074548 174.064008 
L 90.347367 153.540565 
L 90.483776 165.209562 
L 90.620186 144.548843 
L 90.893005 170.934221 
L 91.029414 164.675725 
L 91.165824 137.689594 
L 91.302233 155.423766 
L 91.438643 145.05464 
L 91.575052 168.446957 
L 91.711462 150.616113 
L 91.847871 180.490437 
L 91.98428 148.707671 
L 92.12069 157.336855 
L 92.257099 181.625221 
L 92.393509 151.430994 
L 92.529918 175.568314 
L 92.666328 165.251114 
L 92.802737 172.785202 
L 92.939147 153.227529 
L 93.075556 193.234413 
L 93.211966 151.551658 
L 93.348375 155.459813 
L 93.484785 169.896994 
L 93.621194 141.093194 
L 93.757604 154.920216 
L 93.894013 185.81356 
L 94.166832 149.414103 
L 94.303242 157.575584 
L 94.439651 137.729096 
L 94.57606 184.932177 
L 94.848879 167.528083 
L 94.985289 178.770804 
L 95.121698 150.10867 
L 95.258108 180.314516 
L 95.394517 184.987283 
L 95.530927 153.134867 
L 95.803746 168.055173 
L 95.940155 189.661002 
L 96.076565 148.035831 
L 96.349384 176.297333 
L 96.622203 151.26787 
L 96.758612 173.555458 
L 96.895021 153.36265 
L 97.031431 201.216221 
L 97.16784 163.05187 
L 97.30425 175.282453 
L 97.440659 175.265854 
L 97.577069 208.411011 
L 97.713478 136.138349 
L 97.849888 219.9626 
L 98.122707 113.584683 
L 98.395526 213.511851 
L 98.531935 123.083369 
L 98.804754 184.72615 
L 99.077573 182.90135 
L 99.213983 176.027325 
L 99.350392 114.915893 
L 99.486801 153.377646 
L 99.623211 111.978089 
L 99.89603 205.547277 
L 100.032439 196.344013 
L 100.305258 138.696434 
L 100.714487 181.938678 
L 100.850896 243.002745 
L 100.987306 167.556964 
L 101.260125 155.142654 
L 101.396534 148.055932 
L 101.532944 184.997132 
L 101.805763 151.970426 
L 101.942172 190.488887 
L 102.078581 164.729769 
L 102.214991 225.736787 
L 102.3514 164.929272 
L 102.760629 177.83768 
L 102.897038 149.826384 
L 103.033448 148.560103 
L 103.169857 188.733774 
L 103.306267 177.068181 
L 103.442676 139.887932 
L 103.579086 198.088082 
L 103.715495 64.430289 
L 103.988314 187.197303 
L 104.124724 163.525416 
L 104.261133 165.337486 
L 104.397542 149.334584 
L 104.533952 155.552394 
L 104.670361 179.205032 
L 104.806771 167.425565 
L 104.94318 177.76929 
L 105.07959 160.461137 
L 105.215999 169.380804 
L 105.352409 196.802122 
L 105.488818 142.078618 
L 105.625228 144.605824 
L 105.761637 193.934663 
L 105.898047 154.576123 
L 106.034456 216.320781 
L 106.170866 130.200413 
L 106.443685 198.772183 
L 106.580094 158.332701 
L 106.716504 188.551231 
L 106.989322 136.041556 
L 107.262141 157.527592 
L 107.398551 154.474008 
L 107.53496 201.058309 
L 107.807779 113.909605 
L 107.944189 159.161896 
L 108.080598 159.48228 
L 108.217008 161.097123 
L 108.353417 150.22333 
L 108.489827 193.350742 
L 108.626236 145.147181 
L 108.762646 194.592401 
L 109.035465 142.317774 
L 109.171874 181.922898 
L 109.308284 161.146978 
L 109.444693 182.165548 
L 109.853921 121.124454 
L 110.12674 159.138598 
L 110.26315 160.387686 
L 110.399559 154.017054 
L 110.535969 170.09662 
L 110.672378 165.10439 
L 110.808788 147.751703 
L 111.081607 184.654015 
L 111.354426 153.394267 
L 111.490835 188.379483 
L 111.763654 138.155551 
L 111.900064 184.614625 
L 112.172882 154.761696 
L 112.309292 145.358893 
L 112.445701 163.565713 
L 112.582111 138.840192 
L 112.71852 174.886438 
L 112.85493 159.27521 
L 113.127749 187.199645 
L 113.400568 157.294803 
L 113.536977 190.868231 
L 113.673387 159.665702 
L 113.809796 176.427718 
L 113.946206 160.557227 
L 114.082615 175.222886 
L 114.355434 154.190309 
L 114.491843 163.713013 
L 114.628253 187.033863 
L 114.764662 187.576979 
L 114.901072 143.255996 
L 115.037481 180.688455 
L 115.3103 85.124324 
L 115.44671 199.772147 
L 115.583119 151.909175 
L 115.719529 178.900769 
L 115.992348 134.781041 
L 116.128757 125.317403 
L 116.265167 202.360922 
L 116.537986 131.618071 
L 116.810805 190.07309 
L 116.947214 178.327222 
L 117.083623 144.895965 
L 117.220033 170.026573 
L 117.356442 157.310745 
L 117.492852 155.409072 
L 117.765671 170.668583 
L 117.90208 150.239082 
L 118.03849 187.761556 
L 118.174899 158.855082 
L 118.311309 181.733311 
L 118.447718 164.576219 
L 118.584128 185.808559 
L 118.720537 130.590276 
L 118.856947 128.212312 
L 118.993356 154.55686 
L 119.129766 217.82758 
L 119.266175 118.547183 
L 119.402585 148.274973 
L 119.538994 153.063564 
L 119.675403 167.521109 
L 119.948222 141.27744 
L 120.084632 185.305019 
L 120.221041 130.462189 
L 120.357451 200.799998 
L 120.63027 153.29661 
L 120.766679 157.994668 
L 120.903089 178.333232 
L 121.039498 161.808873 
L 121.175908 199.128085 
L 121.312317 146.844668 
L 121.585136 164.651856 
L 121.857955 128.350946 
L 121.994364 181.678069 
L 122.130774 154.374445 
L 122.403593 198.288719 
L 122.540002 185.284877 
L 122.676412 144.604427 
L 122.812821 170.647313 
L 122.949231 136.93132 
L 123.08564 192.409105 
L 123.22205 165.08641 
L 123.358459 182.607756 
L 123.494869 131.53549 
L 123.631278 169.416044 
L 123.767688 125.244779 
L 124.040507 167.658818 
L 124.176916 119.974124 
L 124.313326 209.540238 
L 124.449735 151.68312 
L 124.586144 194.897509 
L 124.722554 141.632647 
L 124.995373 160.256913 
L 125.131782 201.263395 
L 125.268192 163.137311 
L 125.81383 145.496432 
L 126.086649 190.082011 
L 126.223058 175.411887 
L 126.359468 119.410219 
L 126.495877 177.667398 
L 126.632287 181.082916 
L 126.768696 194.079854 
L 127.041515 138.15586 
L 127.177924 183.294934 
L 127.314334 135.225734 
L 127.450743 164.261173 
L 127.587153 137.70968 
L 127.723562 139.190809 
L 127.859972 183.726545 
L 127.996381 170.068396 
L 128.132791 187.439625 
L 128.40561 151.26704 
L 128.542019 144.141276 
L 128.814838 168.27574 
L 128.951248 145.823211 
L 129.087657 148.755594 
L 129.224067 145.969611 
L 129.496886 186.409817 
L 129.769704 152.345433 
L 129.906114 153.120922 
L 130.042523 151.609264 
L 130.178933 175.765184 
L 130.315342 139.997623 
L 130.451752 172.265772 
L 130.724571 163.304966 
L 130.99739 151.06059 
L 131.133799 176.910138 
L 131.270209 170.813716 
L 131.406618 174.451449 
L 131.543028 142.663357 
L 131.679437 160.662717 
L 131.815847 163.46705 
L 131.952256 159.970982 
L 132.088665 163.312888 
L 132.225075 162.804597 
L 132.361484 163.641323 
L 132.497894 168.262901 
L 132.634303 161.626006 
L 132.770713 174.074381 
L 132.907122 160.597999 
L 133.179941 167.931294 
L 133.316351 156.880255 
L 133.58917 169.572394 
L 133.725579 162.022681 
L 133.998398 170.451566 
L 134.134808 159.796439 
L 134.271217 167.608195 
L 134.407627 161.578166 
L 134.544036 163.103518 
L 134.680445 156.789888 
L 134.953264 163.273305 
L 135.226083 170.500545 
L 135.498902 160.494527 
L 135.771721 170.620243 
L 136.04454 163.804299 
L 136.18095 169.967462 
L 136.317359 162.957076 
L 136.453769 168.595237 
L 136.590178 161.107473 
L 136.726588 165.535325 
L 136.862997 163.968262 
L 136.999407 165.499069 
L 137.272225 163.482141 
L 137.408635 162.822378 
L 137.545044 162.811518 
L 137.681454 160.578893 
L 137.817863 164.297295 
L 137.954273 164.142787 
L 138.090682 164.943627 
L 138.363501 163.739297 
L 138.499911 166.408361 
L 138.63632 162.085244 
L 138.909139 165.757525 
L 139.045549 164.532548 
L 139.181958 166.656484 
L 139.318368 159.247404 
L 139.591186 167.623191 
L 139.864005 156.555984 
L 140.000415 168.137304 
L 140.136824 163.227778 
L 140.273234 167.023409 
L 140.409643 161.679555 
L 140.546053 164.673883 
L 140.682462 162.552215 
L 140.818872 166.106014 
L 140.955281 164.709277 
L 141.091691 166.748195 
L 141.36451 163.753988 
L 141.500919 165.218132 
L 141.637329 162.96678 
L 141.773738 163.988933 
L 141.910148 166.643614 
L 142.182966 163.424365 
L 142.319376 165.136819 
L 142.455785 162.312837 
L 142.592195 167.569878 
L 142.728604 164.78874 
L 142.865014 166.145486 
L 143.001423 163.544735 
L 143.137833 166.540008 
L 143.410652 163.609741 
L 143.547061 168.245971 
L 143.683471 165.826001 
L 143.81988 165.986832 
L 144.092699 160.47996 
L 144.229109 166.255118 
L 144.365518 161.310649 
L 144.501928 169.450146 
L 144.774746 162.520738 
L 145.047565 170.824681 
L 145.320384 163.219455 
L 145.456794 164.055183 
L 145.593203 163.813887 
L 145.729613 162.846386 
L 146.002432 168.016367 
L 146.138841 161.206759 
L 146.41166 164.928562 
L 146.54807 161.85438 
L 146.684479 162.143799 
L 146.820889 161.792334 
L 146.957298 164.725273 
L 147.093708 163.711224 
L 147.230117 166.591871 
L 147.366526 165.070115 
L 147.502936 165.773652 
L 147.775755 163.675887 
L 147.912164 165.740358 
L 148.048574 161.463703 
L 148.184983 165.855363 
L 148.321393 165.439186 
L 148.457802 164.256116 
L 148.594212 164.253291 
L 148.730621 166.757776 
L 148.867031 161.194984 
L 149.00344 165.676926 
L 149.13985 162.733623 
L 149.276259 162.961656 
L 149.412669 166.041325 
L 149.549078 165.968084 
L 149.685487 160.804836 
L 149.821897 167.974131 
L 149.958306 163.806839 
L 150.231125 166.729503 
L 150.367535 160.924678 
L 150.503944 164.19559 
L 150.776763 163.662546 
L 150.913173 162.32362 
L 151.049582 166.241358 
L 151.185992 166.611586 
L 151.322401 164.986145 
L 151.458811 166.712245 
L 151.59522 163.522134 
L 151.73163 164.875837 
L 151.868039 163.630432 
L 152.004449 164.103749 
L 152.140858 166.03063 
L 152.277267 163.826289 
L 152.413677 164.79607 
L 152.550086 162.159211 
L 152.686496 165.097474 
L 152.822905 164.641668 
L 152.959315 162.922436 
L 153.095724 163.80336 
L 153.232134 166.527643 
L 153.368543 158.443114 
L 153.504953 168.799274 
L 153.641362 167.703999 
L 153.914181 159.892875 
L 154.050591 166.102289 
L 154.187 165.729915 
L 154.32341 160.909042 
L 154.459819 166.704816 
L 154.596229 165.840534 
L 154.732638 163.180775 
L 155.005457 166.944855 
L 155.141866 162.258592 
L 155.278276 165.47369 
L 155.414685 163.955213 
L 155.551095 163.726299 
L 155.823914 162.134187 
L 155.960323 166.802595 
L 156.096733 165.659447 
L 156.233142 161.192863 
L 156.369552 168.408848 
L 156.505961 162.375914 
L 156.642371 165.834724 
L 156.77878 162.819885 
L 156.91519 167.331755 
L 157.188008 164.360771 
L 157.324418 163.341305 
L 157.733646 168.644886 
L 157.870056 166.818863 
L 158.006465 161.248359 
L 158.142875 168.272065 
L 158.279284 162.137501 
L 158.415694 161.984547 
L 158.552103 164.65927 
L 158.688513 161.193373 
L 158.824922 168.470034 
L 159.097741 161.69172 
L 159.234151 165.671724 
L 159.37056 162.771052 
L 159.50697 170.304457 
L 159.779788 149.249087 
L 159.916198 180.228562 
L 160.189017 150.654042 
L 160.325426 169.682371 
L 160.461836 156.744866 
L 160.734655 163.314366 
L 160.871064 166.866089 
L 161.007474 162.628345 
L 161.143883 168.401393 
L 161.280293 163.76555 
L 161.416702 165.476264 
L 161.553112 162.715297 
L 161.825931 167.109293 
L 162.09875 160.838427 
L 162.371568 163.666572 
L 162.507978 160.716175 
L 162.644387 167.600443 
L 162.780797 162.376465 
L 162.917206 163.155128 
L 163.053616 161.56748 
L 163.326435 162.331268 
L 163.462844 164.802446 
L 163.599254 161.699781 
L 163.735663 168.237384 
L 163.872073 163.823093 
L 164.008482 167.745173 
L 164.144892 165.360793 
L 164.281301 156.440611 
L 164.417711 165.699365 
L 164.69053 159.425583 
L 164.826939 162.336514 
L 164.963348 161.727372 
L 165.099758 166.856931 
L 165.236167 164.50717 
L 165.372577 170.676795 
L 165.508986 155.588584 
L 165.645396 166.543715 
L 165.781805 154.794599 
L 166.054624 166.765043 
L 166.191034 156.460817 
L 166.327443 176.411808 
L 166.463853 163.316323 
L 166.600262 166.928139 
L 166.736672 188.179477 
L 166.873081 137.143219 
L 167.009491 184.311571 
L 167.282309 149.501992 
L 167.418719 149.02592 
L 167.555128 180.986288 
L 167.691538 152.803248 
L 167.827947 153.719962 
L 167.964357 172.024849 
L 168.100766 166.484926 
L 168.237176 148.901481 
L 168.373585 164.972711 
L 168.509995 165.949267 
L 168.646404 167.999579 
L 168.782814 153.705338 
L 168.919223 157.473518 
L 169.055633 150.705112 
L 169.192042 168.928423 
L 169.328452 148.305583 
L 169.464861 182.159126 
L 169.73768 128.61499 
L 169.874089 159.517721 
L 170.010499 220.095305 
L 170.146908 228.554704 
L 170.283318 154.829774 
L 170.419727 155.145797 
L 170.692546 144.218611 
L 170.828956 182.865942 
L 171.101775 133.427553 
L 171.238184 181.204029 
L 171.374594 124.613293 
L 171.511003 191.992544 
L 171.647413 172.861392 
L 171.783822 175.665377 
L 171.920232 162.446288 
L 172.056641 181.837221 
L 172.32946 165.707336 
L 172.465869 168.530256 
L 172.602279 144.469242 
L 172.738688 182.577996 
L 172.875098 150.8048 
L 173.011507 173.480568 
L 173.147917 147.030733 
L 173.284326 166.956472 
L 173.420736 151.957781 
L 173.557145 185.510277 
L 173.693555 184.473195 
L 173.829964 170.759946 
L 173.966374 183.102459 
L 174.239193 155.484946 
L 174.375602 142.351094 
L 174.512012 182.554313 
L 174.648421 168.142817 
L 174.784831 169.64936 
L 174.92124 146.277091 
L 175.194059 207.949481 
L 175.466878 46.657687 
L 175.603287 264.716 
L 175.739697 29.052255 
L 176.012516 152.934442 
L 176.148925 28.104402 
L 176.421744 181.412043 
L 176.558154 202.688264 
L 176.694563 149.007296 
L 176.830973 159.814817 
L 176.967382 158.243543 
L 177.103792 136.863653 
L 177.240201 169.651585 
L 177.37661 155.974853 
L 177.51302 185.1892 
L 177.649429 153.017161 
L 177.922248 180.848251 
L 178.058658 195.480305 
L 178.195067 164.044772 
L 178.331477 96.410356 
L 178.604296 167.867259 
L 178.740705 176.05708 
L 178.877115 144.686575 
L 179.013524 174.755964 
L 179.149934 174.558366 
L 179.286343 178.630465 
L 179.422753 157.063001 
L 179.695572 160.631176 
L 179.831981 156.306655 
L 179.96839 164.040741 
L 180.1048 161.294699 
L 180.241209 155.089482 
L 180.377619 159.351329 
L 180.514028 157.20502 
L 180.650438 160.437747 
L 180.786847 189.246151 
L 180.923257 154.402685 
L 181.059666 156.686041 
L 181.196076 203.92724 
L 181.332485 135.660066 
L 181.468895 185.165891 
L 181.605304 177.60745 
L 181.741714 155.547 
L 182.014533 166.652461 
L 182.150942 189.310012 
L 182.287352 115.1209 
L 182.423761 173.256011 
L 182.56017 175.897869 
L 182.69658 136.899359 
L 182.832989 150.991026 
L 182.969399 186.213039 
L 183.105808 142.872289 
L 183.242218 144.176503 
L 183.378627 175.320427 
L 183.515037 175.743957 
L 183.651446 162.003154 
L 183.787856 168.509368 
L 184.060675 160.367326 
L 184.197084 156.075021 
L 184.333494 159.722689 
L 184.469903 194.189568 
L 184.606313 146.60904 
L 184.742722 171.486564 
L 185.15195 183.078525 
L 185.28836 163.867934 
L 185.561179 178.677253 
L 185.697588 126.727668 
L 185.833998 169.712426 
L 185.970407 166.687825 
L 186.106817 170.243022 
L 186.243226 136.11917 
L 186.379636 207.595295 
L 186.516045 126.622299 
L 186.652455 170.154507 
L 186.788864 160.806338 
L 186.925274 137.811649 
L 187.061683 206.225612 
L 187.198093 146.532114 
L 187.470911 170.500199 
L 187.74373 125.413345 
L 187.88014 207.250944 
L 188.016549 159.589591 
L 188.152959 155.884437 
L 188.289368 162.066846 
L 188.425778 162.960807 
L 188.562187 186.77804 
L 188.835006 154.187995 
L 188.971416 168.349412 
L 189.107825 154.249392 
L 189.244235 168.954734 
L 189.380644 164.48443 
L 189.653463 150.233833 
L 189.789873 155.92252 
L 189.926282 166.425498 
L 190.062691 136.022327 
L 190.199101 208.56009 
L 190.33551 219.332694 
L 190.608329 156.996248 
L 190.744739 188.908432 
L 191.017558 164.428961 
L 191.153967 178.394446 
L 191.426786 142.723775 
L 191.563196 177.212741 
L 191.836015 155.506038 
L 192.108834 185.697447 
L 192.381653 136.317474 
L 192.654471 178.774508 
L 192.790881 173.300782 
L 192.92729 172.839923 
L 193.0637 187.932628 
L 193.200109 146.37209 
L 193.336519 183.591244 
L 193.472928 161.362257 
L 193.609338 167.965216 
L 193.745747 154.044469 
L 193.882157 164.503373 
L 194.018566 162.988042 
L 194.154976 171.40606 
L 194.291385 157.642011 
L 194.427795 160.872374 
L 194.564204 177.307636 
L 194.700614 163.19691 
L 194.837023 192.91125 
L 194.973432 138.147114 
L 195.246251 180.384488 
L 195.382661 161.348249 
L 195.51907 182.683917 
L 195.65548 162.7106 
L 195.791889 159.069128 
L 195.928299 184.891476 
L 196.064708 173.145345 
L 196.201118 145.799942 
L 196.337527 150.763982 
L 196.473937 168.627821 
L 196.746756 153.653164 
L 196.883165 176.869256 
L 197.019575 157.439275 
L 197.155984 174.970883 
L 197.292394 146.925885 
L 197.428803 178.057088 
L 197.701622 160.109473 
L 197.974441 216.534438 
L 198.11085 129.834075 
L 198.24726 184.029279 
L 198.520079 137.547288 
L 198.656488 183.263232 
L 198.792898 190.782513 
L 198.929307 153.556689 
L 199.202126 178.608068 
L 199.338536 146.516577 
L 199.611355 170.982525 
L 199.747764 167.464991 
L 199.884174 153.762285 
L 200.156992 167.286195 
L 200.293402 189.808974 
L 200.429811 161.916938 
L 200.566221 166.408664 
L 200.70263 164.781147 
L 200.83904 172.495779 
L 201.111859 151.746472 
L 201.248268 171.982461 
L 201.384678 150.961825 
L 201.657497 181.59919 
L 201.793906 180.604283 
L 201.930316 143.183291 
L 202.066725 174.453965 
L 202.203135 158.96972 
L 202.339544 187.480606 
L 202.475953 160.605466 
L 202.612363 171.606404 
L 202.748772 162.871708 
L 202.885182 169.841949 
L 203.021591 152.883926 
L 203.158001 179.742719 
L 203.29441 171.89117 
L 203.43082 119.129103 
L 203.567229 154.710344 
L 203.703639 154.481734 
L 203.840048 162.886734 
L 203.976458 154.795448 
L 204.249277 170.435747 
L 204.385686 157.666946 
L 204.522096 155.589845 
L 204.658505 183.322331 
L 204.794915 161.139466 
L 204.931324 162.270307 
L 205.067733 158.980351 
L 205.204143 170.10483 
L 205.340552 167.533647 
L 205.476962 173.218888 
L 205.749781 142.80653 
L 205.88619 169.611798 
L 206.0226 165.500387 
L 206.159009 120.03421 
L 206.295419 183.599355 
L 206.431828 153.640962 
L 206.568238 173.833845 
L 206.704647 151.114685 
L 206.841057 185.402763 
L 206.977466 163.23492 
L 207.113876 166.592344 
L 207.250285 161.614023 
L 207.386695 150.818136 
L 207.523104 173.189078 
L 207.795923 149.475756 
L 207.932332 153.910546 
L 208.068742 166.421056 
L 208.205151 166.123282 
L 208.341561 166.932386 
L 208.47797 182.94147 
L 208.61438 152.439188 
L 208.750789 146.870805 
L 208.887199 177.130099 
L 209.023608 151.690793 
L 209.432837 188.245152 
L 209.569246 143.278614 
L 209.705656 159.640511 
L 209.842065 149.272278 
L 209.978475 164.685714 
L 210.114884 156.011462 
L 210.251293 139.048279 
L 210.387703 176.854703 
L 210.660522 151.738015 
L 210.933341 174.904311 
L 211.06975 174.506765 
L 211.342569 156.612181 
L 211.478979 171.67197 
L 211.615388 131.385502 
L 211.751798 180.427896 
L 211.888207 174.629218 
L 212.024617 156.724216 
L 212.161026 154.394608 
L 212.297436 168.840341 
L 212.433845 146.801539 
L 212.570254 164.969643 
L 212.706664 149.037207 
L 212.843073 161.262786 
L 212.979483 146.40331 
L 213.115892 157.604713 
L 213.252302 152.120246 
L 213.525121 198.131767 
L 213.66153 152.343283 
L 213.934349 190.234869 
L 214.070759 132.113072 
L 214.207168 163.008143 
L 214.343578 122.376535 
L 214.479987 185.009274 
L 214.616397 193.643399 
L 214.752806 144.871311 
L 214.889216 165.700118 
L 215.025625 137.227067 
L 215.162034 165.747555 
L 215.298444 161.339856 
L 215.434853 165.918336 
L 215.571263 152.143266 
L 215.707672 203.882121 
L 215.844082 176.473833 
L 215.980491 125.43526 
L 216.25331 181.681611 
L 216.526129 155.58534 
L 216.662539 177.930688 
L 216.935358 127.859533 
L 217.071767 189.703092 
L 217.344586 151.374685 
L 217.480996 164.652014 
L 217.617405 165.182413 
L 217.753814 169.469122 
L 217.890224 180.490465 
L 218.026633 151.543412 
L 218.299452 174.607526 
L 218.435862 146.64673 
L 218.572271 188.112232 
L 218.84509 161.921589 
L 218.9815 148.694736 
L 219.117909 191.406252 
L 219.390728 139.17611 
L 219.527138 182.365925 
L 219.663547 157.34083 
L 219.799957 173.640157 
L 219.936366 143.757545 
L 220.072775 149.111262 
L 220.209185 213.626545 
L 220.345594 98.5277 
L 220.482004 184.435617 
L 220.618413 191.656629 
L 220.754823 120.807305 
L 220.891232 183.282505 
L 221.027642 134.474108 
L 221.164051 127.853429 
L 221.300461 178.461816 
L 221.43687 141.814498 
L 221.57328 181.212816 
L 221.709689 159.973848 
L 221.846099 166.712858 
L 221.982508 157.901437 
L 222.118918 166.228382 
L 222.255327 149.302678 
L 222.391737 165.10132 
L 222.664555 149.795885 
L 222.800965 166.229606 
L 222.937374 159.361059 
L 223.073784 200.367795 
L 223.210193 115.482127 
L 223.483012 171.085707 
L 223.755831 152.736911 
L 223.892241 155.154663 
L 224.02865 182.155198 
L 224.16506 160.645065 
L 224.574288 186.081895 
L 224.710698 193.861951 
L 224.847107 160.091378 
L 225.119926 148.645552 
L 225.256335 176.687874 
L 225.392745 157.879124 
L 225.665564 173.001015 
L 225.801973 175.605983 
L 225.938383 180.412956 
L 226.074792 122.016484 
L 226.211202 225.156784 
L 226.347611 141.825184 
L 226.484021 153.61997 
L 226.62043 176.336372 
L 226.75684 150.449119 
L 226.893249 162.602533 
L 227.029659 137.109383 
L 227.166068 139.022197 
L 227.302478 143.633831 
L 227.711706 178.985909 
L 227.848115 148.714685 
L 227.984525 148.403352 
L 228.120934 114.90928 
L 228.393753 204.144278 
L 228.530163 149.878894 
L 228.666572 180.40155 
L 228.802982 168.038876 
L 229.075801 169.59054 
L 229.21221 199.485795 
L 229.34862 188.974719 
L 229.485029 119.970866 
L 229.757848 169.886585 
L 229.894258 159.045379 
L 230.030667 187.854406 
L 230.167076 173.828598 
L 230.303486 144.010562 
L 230.576305 189.489465 
L 230.712714 147.418666 
L 230.849124 176.941796 
L 230.985533 161.272345 
L 231.121943 123.681463 
L 231.394762 192.026241 
L 231.667581 141.292817 
L 231.9404 167.319833 
L 232.076809 173.249001 
L 232.349628 160.060949 
L 232.486038 154.615858 
L 232.758856 168.800213 
L 232.895266 167.128022 
L 233.031675 156.472446 
L 233.304494 169.650051 
L 233.440904 168.475404 
L 233.577313 177.196407 
L 233.850132 163.109725 
L 234.122951 160.664589 
L 234.259361 169.593556 
L 234.39577 163.476383 
L 234.53218 142.126781 
L 234.668589 164.597591 
L 234.941408 130.232678 
L 235.077818 155.559187 
L 235.214227 148.688293 
L 235.350636 180.966769 
L 235.487046 160.684839 
L 235.623455 166.397753 
L 235.759865 183.651776 
L 235.896274 144.406964 
L 236.032684 175.397473 
L 236.169093 151.899833 
L 236.305503 160.834201 
L 236.441912 185.977783 
L 236.578322 162.213522 
L 236.714731 159.135121 
L 236.851141 160.690349 
L 236.98755 153.39882 
L 237.12396 171.801324 
L 237.260369 169.830448 
L 237.396779 166.073091 
L 237.533188 137.437378 
L 237.669597 192.103066 
L 237.806007 151.862649 
L 238.078826 206.512584 
L 238.215235 139.081127 
L 238.488054 175.025526 
L 238.624464 157.267324 
L 238.760873 165.553822 
L 238.897283 114.758481 
L 239.033692 172.242054 
L 239.170102 168.280275 
L 239.306511 224.979203 
L 239.57933 39.733525 
L 239.71574 212.278645 
L 239.852149 197.290724 
L 239.988559 152.192956 
L 240.261377 219.786385 
L 240.397787 184.604625 
L 240.534196 178.718079 
L 240.670606 166.350247 
L 240.807015 209.185651 
L 241.079834 51.805034 
L 241.216244 215.479464 
L 241.352653 157.474465 
L 241.489063 174.881421 
L 241.625472 156.741219 
L 241.761882 162.518056 
L 241.898291 162.296765 
L 242.034701 135.697516 
L 242.17111 178.832004 
L 242.30752 164.582174 
L 242.580339 196.079254 
L 242.716748 125.879537 
L 242.853157 192.094118 
L 242.989567 153.95799 
L 243.125976 221.491272 
L 243.262386 130.405664 
L 243.398795 186.933393 
L 243.535205 187.074832 
L 243.671614 132.439929 
L 244.080843 171.315813 
L 244.217252 169.654907 
L 244.353662 94.191454 
L 244.490071 117.912868 
L 244.626481 179.638697 
L 244.76289 180.765673 
L 244.8993 199.210226 
L 245.035709 148.267381 
L 245.172119 175.754895 
L 245.444937 157.922773 
L 245.581347 174.473517 
L 245.717756 166.829564 
L 245.854166 187.437528 
L 245.990575 178.310527 
L 246.126985 177.211414 
L 246.399804 166.313736 
L 246.536213 153.018501 
L 246.672623 160.214346 
L 246.809032 160.141622 
L 246.945442 149.190089 
L 247.218261 171.132648 
L 247.35467 160.184813 
L 247.49108 177.209435 
L 247.900308 155.891405 
L 248.036717 166.180432 
L 248.173127 167.104973 
L 248.309536 162.772906 
L 248.582355 173.898973 
L 248.718765 157.767436 
L 248.855174 118.535707 
L 248.991584 161.516018 
L 249.127993 241.561681 
L 249.400812 164.898693 
L 249.537222 173.830957 
L 249.673631 134.47404 
L 249.810041 160.526963 
L 249.94645 146.394488 
L 250.08286 163.679516 
L 250.219269 158.838259 
L 250.355678 147.85604 
L 250.628497 169.892735 
L 250.764907 135.655302 
L 250.901316 193.739514 
L 251.037726 184.650105 
L 251.310545 145.413819 
L 251.446954 164.330156 
L 251.583364 160.503339 
L 251.719773 170.831882 
L 251.856183 152.466107 
L 251.992592 158.719336 
L 252.129002 171.845719 
L 252.265411 160.236954 
L 252.401821 169.288573 
L 252.53823 159.376493 
L 252.67464 161.894434 
L 252.811049 169.426047 
L 252.947458 167.613568 
L 253.083868 157.687624 
L 253.220277 164.942956 
L 253.356687 153.991965 
L 253.493096 169.751656 
L 253.765915 139.415739 
L 254.038734 174.600374 
L 254.447963 151.387256 
L 254.584372 173.816595 
L 254.720782 154.816039 
L 254.857191 156.994137 
L 254.993601 164.494016 
L 255.13001 163.790305 
L 255.266419 153.815733 
L 255.402829 159.757877 
L 255.539238 171.641493 
L 255.675648 141.313762 
L 255.812057 171.171703 
L 255.948467 169.478661 
L 256.084876 164.126471 
L 256.221286 163.269021 
L 256.357695 164.070193 
L 256.494105 169.55333 
L 256.630514 136.923909 
L 256.766924 164.356652 
L 256.903333 148.775339 
L 257.039743 164.191266 
L 257.176152 161.986335 
L 257.312562 151.566155 
L 257.448971 180.791835 
L 257.585381 135.933655 
L 257.858199 179.710799 
L 257.994609 178.382894 
L 258.131018 135.687373 
L 258.267428 163.644344 
L 258.403837 165.555815 
L 258.540247 164.27085 
L 258.676656 150.493194 
L 258.813066 148.5362 
L 259.222294 162.122571 
L 259.358704 162.27202 
L 259.495113 161.049134 
L 259.631523 184.730933 
L 259.767932 163.462305 
L 259.904342 171.64698 
L 260.040751 172.542541 
L 260.177161 160.223375 
L 260.31357 164.421925 
L 260.449979 161.735941 
L 260.586389 177.161612 
L 260.722798 135.285106 
L 260.859208 178.541845 
L 260.995617 162.966555 
L 261.132027 162.62266 
L 261.268436 163.106671 
L 261.404846 150.27064 
L 261.541255 189.33825 
L 261.677665 168.877893 
L 261.814074 165.876451 
L 261.950484 177.503701 
L 262.086893 170.96702 
L 262.223303 171.030716 
L 262.359712 168.570448 
L 262.496122 163.861139 
L 262.768941 144.002966 
L 262.90535 176.33603 
L 263.041759 165.109018 
L 263.178169 169.529798 
L 263.314578 164.976206 
L 263.450988 165.223072 
L 263.587397 153.111069 
L 263.723807 168.175734 
L 263.860216 170.634308 
L 263.996626 183.524937 
L 264.133035 171.67014 
L 264.269445 173.813644 
L 264.405854 157.289196 
L 264.542264 171.140681 
L 264.678673 158.830458 
L 264.815083 170.313001 
L 265.224311 154.241516 
L 265.49713 162.741892 
L 265.633539 160.632618 
L 265.769949 155.493915 
L 265.906358 167.848804 
L 266.179177 145.010956 
L 266.315587 165.374367 
L 266.451996 144.460714 
L 266.588406 166.744824 
L 266.724815 156.790305 
L 266.997634 174.942525 
L 267.134044 149.738012 
L 267.270453 167.552612 
L 267.406863 147.544439 
L 267.543272 149.255219 
L 267.679682 163.281037 
L 267.816091 148.993464 
L 267.9525 175.827159 
L 268.225319 153.189147 
L 268.361729 165.320208 
L 268.634548 155.602293 
L 268.770957 160.576971 
L 268.907367 158.301101 
L 269.043776 149.231317 
L 269.180186 163.422176 
L 269.316595 160.115237 
L 269.453005 161.860561 
L 269.589414 153.681351 
L 269.725824 167.740069 
L 269.862233 167.40088 
L 269.998643 144.2344 
L 270.68069 167.912565 
L 270.953509 155.51915 
L 271.226328 152.650982 
L 271.362737 157.301282 
L 271.499147 183.286932 
L 271.635556 149.37658 
L 271.771966 165.624433 
L 271.908375 162.296443 
L 272.044785 146.396451 
L 272.181194 154.31234 
L 272.317604 175.524515 
L 272.454013 169.637494 
L 272.590423 144.153668 
L 272.863242 158.591054 
L 272.999651 162.924494 
L 273.13606 159.508744 
L 273.27247 169.428766 
L 273.408879 153.850454 
L 273.545289 155.978928 
L 273.681698 189.949799 
L 273.818108 131.210382 
L 273.954517 179.417005 
L 274.090927 176.098101 
L 274.363746 143.995108 
L 274.500155 185.828015 
L 274.636565 155.0732 
L 274.909384 180.202204 
L 275.045793 181.001693 
L 275.182203 163.979267 
L 275.318612 164.577047 
L 275.455021 194.738965 
L 275.591431 197.380703 
L 275.72784 123.761845 
L 276.000659 184.779613 
L 276.137069 180.536171 
L 276.273478 152.282122 
L 276.409888 152.589175 
L 276.546297 169.449011 
L 276.682707 160.857242 
L 276.819116 174.118271 
L 276.955526 163.164218 
L 277.091935 134.854723 
L 277.228345 169.243654 
L 277.364754 174.303995 
L 277.501164 149.188348 
L 277.637573 168.834961 
L 277.910392 153.626789 
L 278.046801 174.887753 
L 278.183211 135.69215 
L 278.45603 161.900771 
L 278.592439 154.209356 
L 278.728849 189.569574 
L 278.865258 173.966602 
L 279.001668 177.141303 
L 279.138077 152.143979 
L 279.274487 156.206263 
L 279.410896 142.994439 
L 279.547306 144.700586 
L 279.683715 203.140862 
L 279.820125 126.300275 
L 279.956534 129.46065 
L 280.092944 138.788334 
L 280.229353 158.573363 
L 280.365763 159.257952 
L 280.502172 166.168382 
L 280.638581 131.249436 
L 280.774991 180.074745 
L 281.04781 201.536041 
L 281.184219 137.559193 
L 281.320629 166.676492 
L 281.457038 129.813701 
L 281.593448 154.92619 
L 281.729857 129.556967 
L 281.866267 141.559219 
L 282.002676 175.811083 
L 282.139086 148.743816 
L 282.275495 152.644404 
L 282.548314 170.417058 
L 282.684724 157.673894 
L 282.821133 116.512746 
L 282.957542 217.712066 
L 283.093952 110.216143 
L 283.230361 181.109556 
L 283.366771 143.624585 
L 283.50318 181.167008 
L 283.775999 165.809792 
L 283.912409 178.538592 
L 284.048818 139.052342 
L 284.185228 189.213331 
L 284.321637 187.241344 
L 284.594456 143.778226 
L 284.730866 173.278941 
L 284.867275 173.679344 
L 285.003685 139.986627 
L 285.140094 144.156438 
L 285.276504 158.52834 
L 285.412913 150.290119 
L 285.549322 169.451558 
L 285.822141 128.417329 
L 286.09496 182.888691 
L 286.23137 189.546646 
L 286.367779 141.238921 
L 286.504189 160.293719 
L 286.640598 204.076892 
L 286.913417 157.463673 
L 287.049827 126.495792 
L 287.186236 160.197796 
L 287.322646 153.115003 
L 287.459055 167.517802 
L 287.595465 157.189378 
L 287.868284 179.737122 
L 288.141102 142.00629 
L 288.277512 179.638961 
L 288.413921 138.735453 
L 288.550331 145.532725 
L 288.68674 203.412066 
L 288.82315 201.103885 
L 288.959559 120.959228 
L 289.232378 166.410466 
L 289.368788 159.212585 
L 289.641607 185.657111 
L 289.914426 162.506975 
L 290.050835 165.244705 
L 290.187245 147.362373 
L 290.323654 162.090195 
L 290.460064 161.32478 
L 290.732882 143.04515 
L 290.869292 188.95815 
L 291.005701 145.396479 
L 291.142111 196.106246 
L 291.27852 137.119222 
L 291.41493 144.509043 
L 291.687749 176.163491 
L 291.824158 148.651239 
L 291.960568 165.895746 
L 292.096977 124.633756 
L 292.233387 178.072094 
L 292.369796 151.762394 
L 292.506206 171.127067 
L 292.642615 155.02869 
L 292.779025 169.095021 
L 292.915434 156.377972 
L 293.188253 178.940247 
L 293.324662 162.902859 
L 293.461072 160.030094 
L 293.733891 169.820217 
L 293.8703 192.023473 
L 294.00671 167.026274 
L 294.143119 178.076724 
L 294.279529 120.040306 
L 294.552348 167.918228 
L 294.688757 152.295106 
L 294.825167 151.738394 
L 294.961576 157.843818 
L 295.097986 158.444893 
L 295.234395 182.855419 
L 295.370805 154.997355 
L 295.507214 160.650071 
L 295.643623 193.12164 
L 295.916442 139.897064 
L 296.052852 197.866832 
L 296.189261 172.491475 
L 296.325671 171.791465 
L 296.46208 161.480541 
L 296.59849 180.197611 
L 296.734899 129.526909 
L 296.871309 194.962359 
L 297.280537 146.071182 
L 297.416947 147.43039 
L 297.553356 155.761311 
L 297.689766 145.131258 
L 297.962585 216.896762 
L 298.235403 131.98299 
L 298.371813 199.62801 
L 298.508222 155.087315 
L 298.644632 165.103162 
L 298.781041 130.391348 
L 298.917451 135.417054 
L 299.05386 129.560945 
L 299.19027 157.115818 
L 299.326679 150.718319 
L 299.463089 169.852684 
L 299.735908 161.521252 
L 299.872317 165.310909 
L 300.008727 154.823274 
L 300.145136 158.08549 
L 300.281546 164.250751 
L 300.417955 154.861875 
L 300.554364 153.717411 
L 300.690774 176.174482 
L 300.827183 153.230865 
L 300.963593 167.230523 
L 301.236412 155.051972 
L 301.372821 183.793589 
L 301.509231 156.455906 
L 301.64564 160.625003 
L 301.78205 145.748407 
L 302.054869 230.042883 
L 302.191278 128.578017 
L 302.327688 128.204693 
L 302.464097 68.614691 
L 302.600507 79.318548 
L 302.736916 194.977226 
L 302.873326 157.992202 
L 303.009735 200.55252 
L 303.146144 173.432293 
L 303.282554 168.997654 
L 303.418963 130.789648 
L 303.555373 180.269918 
L 303.691782 140.255135 
L 303.828192 188.902448 
L 304.23742 129.616904 
L 304.510239 163.940205 
L 304.646649 156.327798 
L 304.783058 172.613881 
L 304.919468 130.648306 
L 305.055877 150.256379 
L 305.328696 90.605235 
L 305.465106 193.628017 
L 305.601515 150.256283 
L 305.737924 217.409792 
L 305.874334 134.136774 
L 306.010743 162.404828 
L 306.147153 167.631999 
L 306.283562 168.152291 
L 306.419972 193.49249 
L 306.556381 193.310856 
L 306.692791 149.989584 
L 306.8292 169.524514 
L 306.96561 172.672061 
L 307.102019 167.832918 
L 307.238429 168.934975 
L 307.374838 166.112449 
L 307.511248 176.027203 
L 307.784067 143.683046 
L 307.920476 162.481075 
L 308.056886 156.707839 
L 308.193295 142.427308 
L 308.329704 167.135936 
L 308.466114 139.382353 
L 308.602523 187.641741 
L 308.738933 157.462954 
L 308.875342 168.014156 
L 309.011752 149.578656 
L 309.148161 171.396205 
L 309.284571 146.936193 
L 309.42098 169.546774 
L 309.55739 170.904125 
L 309.693799 161.215731 
L 309.830209 141.725134 
L 309.966618 158.996184 
L 310.103028 190.985952 
L 310.512256 132.279095 
L 310.785075 180.596376 
L 310.921484 195.957604 
L 311.194303 139.879565 
L 311.330713 236.980846 
L 311.603532 132.500903 
L 311.739941 207.028315 
L 311.876351 126.829249 
L 312.01276 166.552102 
L 312.14917 171.309927 
L 312.285579 160.797497 
L 312.421989 191.863416 
L 312.694808 134.897527 
L 312.967627 204.689785 
L 313.240445 142.196011 
L 313.376855 147.963411 
L 313.513264 185.786896 
L 313.649674 156.178163 
L 313.786083 150.710361 
L 313.922493 163.515484 
L 314.058902 146.906399 
L 314.331721 188.409388 
L 314.468131 135.789387 
L 314.74095 170.761187 
L 314.877359 127.598177 
L 315.013769 196.393692 
L 315.286588 119.358431 
L 315.422997 180.838 
L 315.559407 150.244026 
L 315.695816 173.687437 
L 315.832225 219.303363 
L 315.968635 149.217945 
L 316.105044 197.091855 
L 316.241454 181.690572 
L 316.377863 186.834088 
L 316.514273 131.729722 
L 316.650682 149.481332 
L 316.787092 148.063482 
L 316.923501 152.297468 
L 317.059911 206.434184 
L 317.33273 143.750073 
L 317.469139 227.140364 
L 317.605549 140.262001 
L 317.741958 144.405694 
L 318.014777 194.211078 
L 318.151186 173.047901 
L 318.287596 191.631948 
L 318.424005 153.156452 
L 318.560415 185.126545 
L 318.696824 158.756221 
L 318.833234 155.08765 
L 318.969643 160.470255 
L 319.106053 176.510847 
L 319.242462 175.614482 
L 319.378872 134.29127 
L 319.515281 174.650326 
L 319.651691 154.452437 
L 319.7881 152.174389 
L 320.060919 169.093304 
L 320.470148 150.328907 
L 320.606557 176.251054 
L 320.742966 144.192009 
L 320.879376 179.011523 
L 321.015785 162.384544 
L 321.152195 171.421441 
L 321.288604 151.540654 
L 321.561423 160.324279 
L 321.697833 163.988886 
L 321.834242 172.801714 
L 322.107061 159.607371 
L 322.243471 161.228122 
L 322.51629 147.08713 
L 322.652699 188.409637 
L 322.789109 178.277391 
L 322.925518 128.756215 
L 323.198337 180.300375 
L 323.334746 133.454915 
L 323.471156 144.000635 
L 323.743975 174.847967 
L 323.880384 161.140448 
L 324.016794 180.387155 
L 324.153203 155.668844 
L 324.289613 163.221096 
L 324.426022 156.64964 
L 324.698841 160.528224 
L 324.835251 167.114585 
L 324.97166 167.57839 
L 325.10807 159.949148 
L 325.244479 164.775243 
L 325.380889 194.104352 
L 325.653708 168.097554 
L 325.790117 161.30543 
L 325.926526 190.058468 
L 326.199345 149.382588 
L 326.335755 175.842457 
L 326.472164 146.979798 
L 326.608574 178.664792 
L 326.744983 150.100802 
L 327.017802 168.109109 
L 327.154212 159.193899 
L 327.290621 137.415506 
L 327.56344 184.941661 
L 327.836259 163.03986 
L 327.972669 169.801393 
L 328.245487 162.535052 
L 328.381897 179.505542 
L 328.518306 151.75343 
L 328.654716 184.248738 
L 328.791125 117.242111 
L 328.927535 191.821123 
L 329.200354 147.506437 
L 329.336763 157.146967 
L 329.473173 186.961416 
L 329.745992 146.055818 
L 329.882401 151.3409 
L 330.018811 148.85899 
L 330.15522 161.347371 
L 330.29163 144.622382 
L 330.564449 163.42529 
L 330.700858 152.092827 
L 330.837267 187.394688 
L 330.973677 181.563991 
L 331.110086 196.827933 
L 331.246496 147.186524 
L 331.519315 163.205099 
L 331.655724 151.507897 
L 331.928543 187.142292 
L 332.064953 147.529885 
L 332.201362 159.910101 
L 332.337772 135.584187 
L 332.474181 166.737196 
L 332.747 156.475564 
L 332.88341 165.980535 
L 333.019819 162.789995 
L 333.156229 166.569145 
L 333.292638 179.282059 
L 333.429047 144.37378 
L 333.565457 140.369953 
L 333.701866 150.335059 
L 333.838276 150.030515 
L 333.974685 171.514165 
L 334.111095 142.789523 
L 334.247504 177.131108 
L 334.383914 159.302919 
L 334.520323 160.987227 
L 334.656733 165.2486 
L 334.793142 157.47803 
L 334.929552 166.628122 
L 335.065961 167.143375 
L 335.202371 133.68175 
L 335.47519 181.617285 
L 335.611599 142.346413 
L 335.748008 190.642661 
L 336.020827 146.054205 
L 336.157237 184.07201 
L 336.293646 146.819815 
L 336.430056 156.270881 
L 336.566465 134.802166 
L 336.702875 176.289239 
L 336.839284 151.066203 
L 336.975694 83.682839 
L 337.112103 185.614296 
L 337.248513 177.475013 
L 337.521332 130.239192 
L 337.657741 188.127206 
L 337.794151 113.424939 
L 337.93056 197.626961 
L 338.06697 161.220011 
L 338.339788 158.888566 
L 338.476198 183.030267 
L 338.612607 144.96704 
L 338.749017 164.509721 
L 338.885426 141.15424 
L 339.021836 211.78367 
L 339.158245 137.034161 
L 339.294655 155.574541 
L 339.431064 197.404766 
L 339.703883 160.419011 
L 339.840293 192.512396 
L 340.113112 143.018465 
L 340.249521 201.407535 
L 340.385931 124.771882 
L 340.65875 180.675144 
L 340.931568 131.608426 
L 341.204387 173.690031 
L 341.340797 149.086603 
L 341.477206 175.574844 
L 341.613616 126.52689 
L 341.750025 202.251005 
L 341.886435 139.977621 
L 342.022844 162.692605 
L 342.159254 138.351797 
L 342.295663 192.144491 
L 342.432073 121.652521 
L 342.977711 187.792988 
L 343.11412 157.740506 
L 343.386939 183.208812 
L 343.523348 154.852835 
L 343.659758 149.944404 
L 343.796167 155.401375 
L 343.932577 174.414474 
L 344.205396 153.112358 
L 344.341805 150.087478 
L 344.478215 177.479059 
L 344.614624 171.30159 
L 344.751034 159.410965 
L 344.887443 173.424641 
L 345.023853 157.717527 
L 345.160262 169.152957 
L 345.296672 132.384879 
L 345.433081 152.531239 
L 345.569491 197.520258 
L 345.7059 156.302656 
L 345.842309 170.520699 
L 345.978719 160.256558 
L 346.115128 161.874796 
L 346.251538 152.856861 
L 346.387947 185.776987 
L 346.524357 190.296292 
L 346.797176 143.450094 
L 346.933585 149.233201 
L 347.069995 164.523657 
L 347.206404 136.681665 
L 347.342814 158.300908 
L 347.479223 158.053024 
L 347.615633 168.238584 
L 347.752042 150.363786 
L 347.888452 217.4586 
L 348.024861 164.442948 
L 348.29768 173.491629 
L 348.434089 153.084661 
L 348.570499 177.995511 
L 348.843318 142.033179 
L 348.979727 174.874011 
L 349.116137 143.373623 
L 349.252546 149.578383 
L 349.388956 192.813682 
L 349.525365 181.030054 
L 349.661775 212.78484 
L 349.798184 96.415361 
L 349.934594 198.322495 
L 350.071003 151.984262 
L 350.343822 177.838994 
L 350.480232 154.827886 
L 350.616641 192.196552 
L 350.753051 103.63994 
L 350.88946 180.550783 
L 351.025869 172.095947 
L 351.162279 183.064424 
L 351.298688 152.586948 
L 351.435098 179.28392 
L 351.571507 122.696588 
L 351.707917 175.60511 
L 351.980736 168.518604 
L 352.117145 145.689847 
L 352.253555 22.796 
L 352.389964 255.306248 
L 352.799193 147.684976 
L 352.935602 141.322169 
L 353.072012 170.436963 
L 353.208421 152.910995 
L 353.344831 220.053467 
L 353.48124 115.86481 
L 353.617649 238.749753 
L 353.890468 150.817355 
L 354.026878 159.848187 
L 354.299697 152.323843 
L 354.436106 179.704823 
L 354.572516 163.846562 
L 354.708925 162.449654 
L 354.981744 155.583731 
L 355.118154 163.58393 
L 355.254563 154.29009 
L 355.390973 175.204296 
L 355.663792 132.967684 
L 355.800201 220.702506 
L 356.07302 116.678313 
L 356.209429 179.788546 
L 356.345839 179.94888 
L 356.618658 158.686507 
L 356.755067 178.449923 
L 356.891477 154.848825 
L 357.027886 174.227627 
L 357.164296 167.254708 
L 357.300705 148.811932 
L 357.437115 172.432106 
L 357.709934 133.613655 
L 357.982753 183.14539 
L 358.119162 203.267293 
L 358.255572 101.899183 
L 358.52839 204.547086 
L 358.6648 139.322187 
L 358.801209 175.475637 
L 359.074028 138.949015 
L 359.210438 179.597765 
L 359.346847 176.553524 
L 359.483257 159.723921 
L 359.619666 181.481936 
L 359.756076 160.181965 
L 359.892485 157.48284 
L 360.028895 179.291753 
L 360.165304 136.885672 
L 360.301714 208.033823 
L 360.438123 155.061209 
L 360.710942 203.341996 
L 360.847352 98.306094 
L 361.12017 171.529433 
L 361.25658 164.172693 
L 361.392989 184.338561 
L 361.529399 163.725012 
L 361.665808 177.825377 
L 361.802218 160.671313 
L 361.938627 170.924157 
L 362.347856 136.341241 
L 362.484265 189.008077 
L 362.620675 135.953687 
L 362.893494 162.065166 
L 363.029903 176.00798 
L 363.166313 154.769591 
L 363.302722 177.893195 
L 363.439131 144.960934 
L 363.575541 163.058444 
L 363.71195 145.19307 
L 363.84836 170.011935 
L 363.984769 170.45757 
L 364.121179 185.029232 
L 364.257588 222.458178 
L 364.393998 176.703679 
L 364.803226 167.847804 
L 364.939636 151.006862 
L 365.348864 184.357816 
L 365.621683 158.944571 
L 365.894502 175.47349 
L 366.030911 155.687534 
L 366.167321 166.213216 
L 366.30373 149.881344 
L 366.44014 167.503301 
L 366.576549 139.744111 
L 366.712959 170.846964 
L 366.849368 156.49144 
L 366.985778 160.733462 
L 367.122187 160.152111 
L 367.258597 153.975277 
L 367.395006 166.197144 
L 367.667825 141.244785 
L 367.804235 186.455991 
L 367.940644 177.567724 
L 368.077054 156.411976 
L 368.349873 164.736618 
L 368.486282 146.671655 
L 368.622691 169.347515 
L 368.759101 151.866955 
L 369.168329 172.844398 
L 369.304739 159.826651 
L 369.441148 184.890195 
L 369.577558 129.944966 
L 369.850377 167.909546 
L 369.986786 173.236432 
L 370.123196 195.545859 
L 370.259605 124.069501 
L 370.396015 136.896647 
L 370.532424 136.699813 
L 370.668834 188.712057 
L 370.805243 144.366847 
L 370.941653 182.170611 
L 371.078062 164.411698 
L 371.214471 179.990981 
L 371.350881 169.509177 
L 371.48729 150.340703 
L 371.6237 170.982047 
L 371.896519 153.240612 
L 372.032928 182.425003 
L 372.169338 134.963471 
L 372.305747 183.933042 
L 372.442157 146.1135 
L 372.714976 174.608645 
L 372.851385 148.823688 
L 372.987795 173.157951 
L 373.124204 116.30549 
L 373.260614 184.595522 
L 373.397023 143.202555 
L 373.533432 196.318635 
L 373.669842 123.032896 
L 373.806251 177.808538 
L 374.21548 152.141762 
L 374.351889 153.993107 
L 374.488299 175.584231 
L 374.624708 146.214609 
L 374.761118 175.827236 
L 374.897527 176.100292 
L 375.033937 171.735107 
L 375.170346 183.361328 
L 375.306756 156.094875 
L 375.443165 164.664866 
L 375.579575 162.49993 
L 375.715984 174.589037 
L 375.852394 150.872145 
L 376.261622 174.023797 
L 376.398031 157.702263 
L 376.534441 170.833123 
L 376.67085 152.440513 
L 376.80726 181.533214 
L 376.943669 135.232617 
L 377.352898 162.606721 
L 377.352898 162.606721 
" style="fill:none;stroke:#1f77b4;stroke-linecap:square;stroke-width:1.5;"/>
   </g>
   <g id="patch_3">
    <path d="M 36.465625 276.812 
L 36.465625 10.7 
" style="fill:none;stroke:#000000;stroke-linecap:square;stroke-linejoin:miter;stroke-width:0.8;"/>
   </g>
   <g id="patch_4">
    <path d="M 393.585625 276.812 
L 393.585625 10.7 
" style="fill:none;stroke:#000000;stroke-linecap:square;stroke-linejoin:miter;stroke-width:0.8;"/>
   </g>
   <g id="patch_5">
    <path d="M 36.465625 276.812 
L 393.585625 276.812 
" style="fill:none;stroke:#000000;stroke-linecap:square;stroke-linejoin:miter;stroke-width:0.8;"/>
   </g>
   <g id="patch_6">
    <path d="M 36.465625 10.7 
L 393.585625 10.7 
" style="fill:none;stroke:#000000;stroke-linecap:square;stroke-linejoin:miter;stroke-width:0.8;"/>
   </g>
  </g>
 </g>
 <defs>
  <clipPath id="pb6b9aeff44">
   <rect height="266.112" width="357.12" x="36.465625" y="10.7"/>
  </clipPath>
 </defs>
</svg>
