<?xml version="1.0" encoding="utf-8" standalone="no"?>
<!DOCTYPE svg PUBLIC "-//W3C//DTD SVG 1.1//EN"
  "http://www.w3.org/Graphics/SVG/1.1/DTD/svg11.dtd">
<!-- Created with matplotlib (http://matplotlib.org/) -->
<svg height="252.018125pt" version="1.1" viewBox="0 0 372.425 252.018125" width="372.425pt" xmlns="http://www.w3.org/2000/svg" xmlns:xlink="http://www.w3.org/1999/xlink">
 <defs>
  <style type="text/css">
*{stroke-linecap:butt;stroke-linejoin:round;}
  </style>
 </defs>
 <g id="figure_1">
  <g id="patch_1">
   <path d="M -0 252.018125 
L 372.425 252.018125 
L 372.425 0 
L -0 0 
z
" style="fill:#ffffff;"/>
  </g>
  <g id="axes_1">
   <g id="patch_2">
    <path d="M 26.925 228.14 
L 361.725 228.14 
L 361.725 10.7 
L 26.925 10.7 
z
" style="fill:#ffffff;"/>
   </g>
   <g id="matplotlib.axis_1">
    <g id="xtick_1">
     <g id="line2d_1">
      <defs>
       <path d="M 0 0 
L 0 3.5 
" id="md71d150d4e" style="stroke:#000000;stroke-width:0.8;"/>
      </defs>
      <g>
       <use style="stroke:#000000;stroke-width:0.8;" x="42.143182" xlink:href="#md71d150d4e" y="228.14"/>
      </g>
     </g>
     <g id="text_1">
      <!-- 0 -->
      <defs>
       <path d="M 31.78125 66.40625 
Q 24.171875 66.40625 20.328125 58.90625 
Q 16.5 51.421875 16.5 36.375 
Q 16.5 21.390625 20.328125 13.890625 
Q 24.171875 6.390625 31.78125 6.390625 
Q 39.453125 6.390625 43.28125 13.890625 
Q 47.125 21.390625 47.125 36.375 
Q 47.125 51.421875 43.28125 58.90625 
Q 39.453125 66.40625 31.78125 66.40625 
z
M 31.78125 74.21875 
Q 44.046875 74.21875 50.515625 64.515625 
Q 56.984375 54.828125 56.984375 36.375 
Q 56.984375 17.96875 50.515625 8.265625 
Q 44.046875 -1.421875 31.78125 -1.421875 
Q 19.53125 -1.421875 13.0625 8.265625 
Q 6.59375 17.96875 6.59375 36.375 
Q 6.59375 54.828125 13.0625 64.515625 
Q 19.53125 74.21875 31.78125 74.21875 
z
" id="DejaVuSans-30"/>
      </defs>
      <g transform="translate(38.961932 242.738437)scale(0.1 -0.1)">
       <use xlink:href="#DejaVuSans-30"/>
      </g>
     </g>
    </g>
    <g id="xtick_2">
     <g id="line2d_2">
      <g>
       <use style="stroke:#000000;stroke-width:0.8;" x="98.48595" xlink:href="#md71d150d4e" y="228.14"/>
      </g>
     </g>
     <g id="text_2">
      <!-- 500 -->
      <defs>
       <path d="M 10.796875 72.90625 
L 49.515625 72.90625 
L 49.515625 64.59375 
L 19.828125 64.59375 
L 19.828125 46.734375 
Q 21.96875 47.46875 24.109375 47.828125 
Q 26.265625 48.1875 28.421875 48.1875 
Q 40.625 48.1875 47.75 41.5 
Q 54.890625 34.8125 54.890625 23.390625 
Q 54.890625 11.625 47.5625 5.09375 
Q 40.234375 -1.421875 26.90625 -1.421875 
Q 22.3125 -1.421875 17.546875 -0.640625 
Q 12.796875 0.140625 7.71875 1.703125 
L 7.71875 11.625 
Q 12.109375 9.234375 16.796875 8.0625 
Q 21.484375 6.890625 26.703125 6.890625 
Q 35.15625 6.890625 40.078125 11.328125 
Q 45.015625 15.765625 45.015625 23.390625 
Q 45.015625 31 40.078125 35.4375 
Q 35.15625 39.890625 26.703125 39.890625 
Q 22.75 39.890625 18.8125 39.015625 
Q 14.890625 38.140625 10.796875 36.28125 
z
" id="DejaVuSans-35"/>
      </defs>
      <g transform="translate(88.9422 242.738437)scale(0.1 -0.1)">
       <use xlink:href="#DejaVuSans-35"/>
       <use x="63.623047" xlink:href="#DejaVuSans-30"/>
       <use x="127.246094" xlink:href="#DejaVuSans-30"/>
      </g>
     </g>
    </g>
    <g id="xtick_3">
     <g id="line2d_3">
      <g>
       <use style="stroke:#000000;stroke-width:0.8;" x="154.828719" xlink:href="#md71d150d4e" y="228.14"/>
      </g>
     </g>
     <g id="text_3">
      <!-- 1000 -->
      <defs>
       <path d="M 12.40625 8.296875 
L 28.515625 8.296875 
L 28.515625 63.921875 
L 10.984375 60.40625 
L 10.984375 69.390625 
L 28.421875 72.90625 
L 38.28125 72.90625 
L 38.28125 8.296875 
L 54.390625 8.296875 
L 54.390625 0 
L 12.40625 0 
z
" id="DejaVuSans-31"/>
      </defs>
      <g transform="translate(142.103719 242.738437)scale(0.1 -0.1)">
       <use xlink:href="#DejaVuSans-31"/>
       <use x="63.623047" xlink:href="#DejaVuSans-30"/>
       <use x="127.246094" xlink:href="#DejaVuSans-30"/>
       <use x="190.869141" xlink:href="#DejaVuSans-30"/>
      </g>
     </g>
    </g>
    <g id="xtick_4">
     <g id="line2d_4">
      <g>
       <use style="stroke:#000000;stroke-width:0.8;" x="211.171488" xlink:href="#md71d150d4e" y="228.14"/>
      </g>
     </g>
     <g id="text_4">
      <!-- 1500 -->
      <g transform="translate(198.446488 242.738437)scale(0.1 -0.1)">
       <use xlink:href="#DejaVuSans-31"/>
       <use x="63.623047" xlink:href="#DejaVuSans-35"/>
       <use x="127.246094" xlink:href="#DejaVuSans-30"/>
       <use x="190.869141" xlink:href="#DejaVuSans-30"/>
      </g>
     </g>
    </g>
    <g id="xtick_5">
     <g id="line2d_5">
      <g>
       <use style="stroke:#000000;stroke-width:0.8;" x="267.514257" xlink:href="#md71d150d4e" y="228.14"/>
      </g>
     </g>
     <g id="text_5">
      <!-- 2000 -->
      <defs>
       <path d="M 19.1875 8.296875 
L 53.609375 8.296875 
L 53.609375 0 
L 7.328125 0 
L 7.328125 8.296875 
Q 12.9375 14.109375 22.625 23.890625 
Q 32.328125 33.6875 34.8125 36.53125 
Q 39.546875 41.84375 41.421875 45.53125 
Q 43.3125 49.21875 43.3125 52.78125 
Q 43.3125 58.59375 39.234375 62.25 
Q 35.15625 65.921875 28.609375 65.921875 
Q 23.96875 65.921875 18.8125 64.3125 
Q 13.671875 62.703125 7.8125 59.421875 
L 7.8125 69.390625 
Q 13.765625 71.78125 18.9375 73 
Q 24.125 74.21875 28.421875 74.21875 
Q 39.75 74.21875 46.484375 68.546875 
Q 53.21875 62.890625 53.21875 53.421875 
Q 53.21875 48.921875 51.53125 44.890625 
Q 49.859375 40.875 45.40625 35.40625 
Q 44.1875 33.984375 37.640625 27.21875 
Q 31.109375 20.453125 19.1875 8.296875 
z
" id="DejaVuSans-32"/>
      </defs>
      <g transform="translate(254.789257 242.738437)scale(0.1 -0.1)">
       <use xlink:href="#DejaVuSans-32"/>
       <use x="63.623047" xlink:href="#DejaVuSans-30"/>
       <use x="127.246094" xlink:href="#DejaVuSans-30"/>
       <use x="190.869141" xlink:href="#DejaVuSans-30"/>
      </g>
     </g>
    </g>
    <g id="xtick_6">
     <g id="line2d_6">
      <g>
       <use style="stroke:#000000;stroke-width:0.8;" x="323.857025" xlink:href="#md71d150d4e" y="228.14"/>
      </g>
     </g>
     <g id="text_6">
      <!-- 2500 -->
      <g transform="translate(311.132025 242.738437)scale(0.1 -0.1)">
       <use xlink:href="#DejaVuSans-32"/>
       <use x="63.623047" xlink:href="#DejaVuSans-35"/>
       <use x="127.246094" xlink:href="#DejaVuSans-30"/>
       <use x="190.869141" xlink:href="#DejaVuSans-30"/>
      </g>
     </g>
    </g>
   </g>
   <g id="matplotlib.axis_2">
    <g id="ytick_1">
     <g id="line2d_7">
      <defs>
       <path d="M 0 0 
L -3.5 0 
" id="m07b2dfb721" style="stroke:#000000;stroke-width:0.8;"/>
      </defs>
      <g>
       <use style="stroke:#000000;stroke-width:0.8;" x="26.925" xlink:href="#m07b2dfb721" y="195.795809"/>
      </g>
     </g>
     <g id="text_7">
      <!-- 5 -->
      <g transform="translate(13.5625 199.595028)scale(0.1 -0.1)">
       <use xlink:href="#DejaVuSans-35"/>
      </g>
     </g>
    </g>
    <g id="ytick_2">
     <g id="line2d_8">
      <g>
       <use style="stroke:#000000;stroke-width:0.8;" x="26.925" xlink:href="#m07b2dfb721" y="154.382313"/>
      </g>
     </g>
     <g id="text_8">
      <!-- 10 -->
      <g transform="translate(7.2 158.181532)scale(0.1 -0.1)">
       <use xlink:href="#DejaVuSans-31"/>
       <use x="63.623047" xlink:href="#DejaVuSans-30"/>
      </g>
     </g>
    </g>
    <g id="ytick_3">
     <g id="line2d_9">
      <g>
       <use style="stroke:#000000;stroke-width:0.8;" x="26.925" xlink:href="#m07b2dfb721" y="112.968817"/>
      </g>
     </g>
     <g id="text_9">
      <!-- 15 -->
      <g transform="translate(7.2 116.768036)scale(0.1 -0.1)">
       <use xlink:href="#DejaVuSans-31"/>
       <use x="63.623047" xlink:href="#DejaVuSans-35"/>
      </g>
     </g>
    </g>
    <g id="ytick_4">
     <g id="line2d_10">
      <g>
       <use style="stroke:#000000;stroke-width:0.8;" x="26.925" xlink:href="#m07b2dfb721" y="71.555321"/>
      </g>
     </g>
     <g id="text_10">
      <!-- 20 -->
      <g transform="translate(7.2 75.35454)scale(0.1 -0.1)">
       <use xlink:href="#DejaVuSans-32"/>
       <use x="63.623047" xlink:href="#DejaVuSans-30"/>
      </g>
     </g>
    </g>
    <g id="ytick_5">
     <g id="line2d_11">
      <g>
       <use style="stroke:#000000;stroke-width:0.8;" x="26.925" xlink:href="#m07b2dfb721" y="30.141825"/>
      </g>
     </g>
     <g id="text_11">
      <!-- 25 -->
      <g transform="translate(7.2 33.941044)scale(0.1 -0.1)">
       <use xlink:href="#DejaVuSans-32"/>
       <use x="63.623047" xlink:href="#DejaVuSans-35"/>
      </g>
     </g>
    </g>
   </g>
   <g id="line2d_12">
    <path clip-path="url(#p034ca8f386)" d="M 42.143182 155.526923 
L 42.368553 161.616595 
L 42.481238 154.607519 
L 42.593924 159.492237 
L 42.70661 151.927037 
L 42.931981 156.382133 
L 43.044666 152.058601 
L 43.157352 158.076113 
L 43.270037 156.728185 
L 43.382723 162.406322 
L 43.495408 146.9543 
L 43.608094 161.330805 
L 43.720779 154.831235 
L 43.833465 156.391267 
L 43.94615 155.965164 
L 44.058836 157.947239 
L 44.171521 157.886193 
L 44.284207 157.09651 
L 44.509578 152.449992 
L 44.734949 158.34881 
L 44.96032 156.311193 
L 45.073006 157.281309 
L 45.185691 154.0847 
L 45.298377 158.672596 
L 45.411062 153.923098 
L 45.523748 156.66267 
L 45.636433 153.869533 
L 45.749119 153.980579 
L 45.97449 160.676629 
L 46.087176 155.321461 
L 46.199861 156.602804 
L 46.312547 149.87936 
L 46.425232 154.941988 
L 46.537918 144.427141 
L 46.763289 165.572725 
L 46.875974 135.210692 
L 46.98866 148.753019 
L 47.101345 176.00269 
L 47.214031 145.503233 
L 47.326717 150.136322 
L 47.439402 169.149836 
L 47.552088 165.128959 
L 47.664773 143.816261 
L 47.777459 143.622437 
L 47.890144 168.516135 
L 48.00283 164.946464 
L 48.228201 203.344843 
L 48.340886 76.657167 
L 48.453572 156.468731 
L 48.566257 153.470506 
L 48.678943 206.928461 
L 48.904314 148.81013 
L 49.017 170.45129 
L 49.129685 146.304221 
L 49.242371 160.994893 
L 49.355056 156.35231 
L 49.467742 164.448117 
L 49.580427 155.525108 
L 49.693113 159.169148 
L 49.805798 146.82708 
L 49.918484 158.762877 
L 50.031169 158.748979 
L 50.143855 158.096225 
L 50.256541 155.726409 
L 50.369226 157.417505 
L 50.481912 152.6366 
L 50.594597 156.190147 
L 50.819968 152.119107 
L 51.045339 155.539128 
L 51.383396 149.842415 
L 51.496081 158.851175 
L 51.721452 136.67022 
L 51.834138 143.351807 
L 51.946824 120.09252 
L 52.172195 165.108512 
L 52.397566 155.388477 
L 52.510251 165.453067 
L 52.622937 163.585302 
L 52.848308 164.711856 
L 52.960993 159.293068 
L 53.073679 175.544125 
L 53.186364 147.328075 
L 53.29905 148.830834 
L 53.411736 148.143944 
L 53.637107 158.288047 
L 53.749792 139.628422 
L 53.862478 192.761937 
L 54.087849 143.655045 
L 54.200534 151.392349 
L 54.31322 143.895513 
L 54.425905 167.289625 
L 54.538591 154.90928 
L 54.651276 161.701669 
L 54.763962 155.330381 
L 54.876648 161.965785 
L 54.989333 146.084906 
L 55.102019 165.350017 
L 55.214704 146.190066 
L 55.32739 163.401671 
L 55.552761 147.945033 
L 56.003503 179.484093 
L 56.228874 142.740573 
L 56.454245 166.342132 
L 56.566931 154.539494 
L 56.679616 155.354361 
L 56.904987 162.08137 
L 57.130358 143.811371 
L 57.355729 152.243287 
L 57.468415 148.580488 
L 57.693786 164.766543 
L 57.919157 148.216858 
L 58.031843 148.971104 
L 58.144528 161.562628 
L 58.257214 151.016719 
L 58.369899 157.062551 
L 58.482585 155.61711 
L 58.59527 160.850891 
L 58.707956 147.663158 
L 58.820641 159.159829 
L 58.933327 156.517474 
L 59.046012 148.200042 
L 59.158698 149.630343 
L 59.271383 152.646488 
L 59.384069 159.379194 
L 59.60944 149.319242 
L 59.834811 161.286154 
L 60.060182 151.756365 
L 60.172868 160.925999 
L 60.285553 151.61239 
L 60.510924 154.512071 
L 60.62361 155.063632 
L 60.736295 157.017296 
L 60.848981 153.875932 
L 61.074352 156.848777 
L 61.187038 149.612396 
L 61.299723 150.743572 
L 61.525094 159.992542 
L 61.63778 154.324138 
L 61.750465 155.213862 
L 61.863151 159.078308 
L 62.088522 154.313057 
L 62.201207 153.977636 
L 62.313893 150.818011 
L 62.426579 151.86393 
L 62.539264 151.62487 
L 62.65195 167.834174 
L 62.764635 149.883533 
L 62.877321 154.549335 
L 62.990006 154.109403 
L 63.102692 160.005577 
L 63.328063 150.417947 
L 63.553434 173.8582 
L 63.666119 149.960042 
L 63.778805 154.561822 
L 63.891491 145.98148 
L 64.004176 191.242101 
L 64.116862 151.533918 
L 64.342233 165.318709 
L 64.454918 159.693848 
L 64.567604 167.153811 
L 64.680289 152.924054 
L 64.792975 162.176486 
L 64.90566 156.991437 
L 65.018346 162.399634 
L 65.131031 161.823754 
L 65.243717 146.57789 
L 65.356403 151.117907 
L 65.469088 149.438941 
L 65.581774 158.810572 
L 65.694459 158.088991 
L 65.807145 150.658186 
L 66.032516 155.753521 
L 66.145201 147.368747 
L 66.370572 151.671761 
L 66.483258 146.189504 
L 66.595943 158.402747 
L 66.708629 148.397007 
L 66.821314 164.445988 
L 66.934 144.509847 
L 67.046686 151.099565 
L 67.159371 144.826525 
L 67.272057 162.906057 
L 67.384742 144.18159 
L 67.497428 155.283095 
L 67.722799 134.595663 
L 67.835484 138.072384 
L 67.94817 174.298406 
L 68.060855 145.398157 
L 68.286226 181.106861 
L 68.398912 148.981056 
L 68.511598 159.958498 
L 68.624283 155.946638 
L 68.736969 162.453499 
L 68.849654 148.631287 
L 68.96234 171.00875 
L 69.187711 152.795639 
L 69.300396 129.770879 
L 69.413082 162.404426 
L 69.525767 134.522514 
L 69.638453 140.460468 
L 69.751138 157.668284 
L 69.863824 156.218212 
L 69.97651 122.946537 
L 70.089195 151.975165 
L 70.201881 145.98566 
L 70.314566 159.475419 
L 70.539937 151.556555 
L 70.652623 160.814288 
L 70.765308 54.968453 
L 70.877994 151.512309 
L 70.990679 103.259239 
L 71.21605 180.486684 
L 71.328736 135.15235 
L 71.441422 161.588507 
L 71.554107 158.71071 
L 71.666793 170.115093 
L 71.779478 163.786141 
L 71.892164 143.860495 
L 72.004849 174.64137 
L 72.117535 112.508774 
L 72.23022 139.540436 
L 72.342906 137.446595 
L 72.455591 180.896011 
L 72.568277 157.743792 
L 72.680962 181.844729 
L 72.793648 143.348459 
L 72.906334 180.075 
L 73.019019 169.733969 
L 73.131705 172.458019 
L 73.24439 181.209464 
L 73.357076 145.709029 
L 73.469761 158.969423 
L 73.695132 74.952773 
L 73.807818 186.455612 
L 73.920503 20.583636 
L 74.033189 184.216779 
L 74.371245 153.210719 
L 74.483931 162.708058 
L 74.596617 93.342539 
L 74.709302 157.756292 
L 75.047359 123.403188 
L 75.160044 181.711445 
L 75.27273 173.94622 
L 75.385415 174.802349 
L 75.498101 149.012923 
L 75.610786 157.666411 
L 75.723472 155.453142 
L 75.836157 146.150551 
L 75.948843 171.028954 
L 76.061529 159.536973 
L 76.2869 164.890413 
L 76.399585 154.581983 
L 76.512271 159.88801 
L 76.624956 138.932286 
L 76.737642 143.098545 
L 76.850327 153.346873 
L 76.963013 146.626712 
L 77.075698 165.902377 
L 77.301069 148.540336 
L 77.413755 149.919636 
L 77.526441 149.041509 
L 77.751812 163.489924 
L 77.977183 153.076219 
L 78.089868 152.803724 
L 78.315239 155.158917 
L 78.427925 154.588272 
L 78.54061 157.898422 
L 78.653296 153.818515 
L 78.765981 158.937881 
L 78.878667 156.515201 
L 78.991353 149.429757 
L 79.329409 160.240239 
L 79.55478 154.053332 
L 79.667466 157.035445 
L 79.892837 152.556381 
L 80.005522 156.244633 
L 80.118208 154.364804 
L 80.230893 165.234899 
L 80.343579 152.867204 
L 80.56895 158.347873 
L 80.681636 156.101703 
L 80.794321 157.21139 
L 80.907007 154.764701 
L 81.019692 154.773464 
L 81.132378 157.546645 
L 81.245063 155.375973 
L 81.357749 159.186313 
L 81.58312 150.916678 
L 81.695805 164.641797 
L 81.921177 161.196317 
L 82.033862 152.850959 
L 82.146548 161.496823 
L 82.371919 150.070874 
L 82.484604 146.457019 
L 82.709975 152.989503 
L 82.822661 156.908092 
L 82.935346 154.817033 
L 83.160717 160.412204 
L 83.273403 154.892237 
L 83.386088 155.796878 
L 83.61146 146.126563 
L 83.724145 157.381858 
L 83.836831 151.880162 
L 83.949516 154.184715 
L 84.062202 163.437327 
L 84.174887 152.816002 
L 84.400258 161.285942 
L 84.512944 154.199115 
L 84.625629 155.262127 
L 84.738315 153.614878 
L 84.963686 163.078554 
L 85.076372 154.182492 
L 85.189057 157.460583 
L 85.301743 156.918706 
L 85.527114 143.543211 
L 85.639799 142.398847 
L 85.86517 155.277837 
L 85.977856 150.715663 
L 86.090541 154.417623 
L 86.203227 144.910731 
L 86.428598 156.26217 
L 86.541284 153.301999 
L 86.653969 154.444104 
L 86.766655 167.334578 
L 86.87934 149.026287 
L 86.992026 157.414638 
L 87.104711 151.85847 
L 87.217397 161.979934 
L 87.442768 153.756325 
L 87.555453 169.336921 
L 87.668139 145.333351 
L 87.89351 163.192636 
L 88.006196 164.085 
L 88.231567 151.047304 
L 88.344252 155.492339 
L 88.456938 149.800805 
L 88.794994 153.628491 
L 88.90768 153.883477 
L 89.020365 164.680215 
L 89.133051 161.626708 
L 89.245736 161.770205 
L 89.358422 165.690783 
L 89.471108 154.143989 
L 89.583793 154.262557 
L 89.809164 141.161767 
L 89.92185 163.007836 
L 90.147221 156.145563 
L 90.259906 159.636402 
L 90.372592 158.847556 
L 90.485277 149.88797 
L 90.597963 155.062514 
L 90.710648 154.5103 
L 90.823334 152.172365 
L 90.936019 152.923646 
L 91.048705 152.041314 
L 91.161391 155.969624 
L 91.274076 152.436311 
L 91.386762 153.541918 
L 91.499447 148.543744 
L 91.724818 153.527192 
L 91.837504 159.859623 
L 92.062875 149.329657 
L 92.17556 159.680771 
L 92.288246 155.242726 
L 92.400931 162.668448 
L 92.513617 154.39357 
L 92.626303 154.293163 
L 92.738988 151.913082 
L 92.851674 158.756439 
L 92.964359 151.703097 
L 93.077045 152.719802 
L 93.18973 152.082721 
L 93.302416 148.35824 
L 93.415101 161.379674 
L 93.527787 161.2048 
L 93.753158 153.79126 
L 93.865843 153.216547 
L 93.978529 155.778054 
L 94.091215 153.056023 
L 94.316586 156.93489 
L 94.429271 155.494983 
L 94.541957 160.484597 
L 94.654642 152.488146 
L 94.767328 154.923314 
L 94.880013 148.265011 
L 94.992699 149.183362 
L 95.105384 153.136171 
L 95.21807 153.109135 
L 95.443441 149.980562 
L 95.556127 159.301576 
L 95.668812 158.556698 
L 95.781498 153.74999 
L 96.006869 156.027245 
L 96.344925 146.284911 
L 96.457611 151.569586 
L 96.570296 146.491444 
L 96.908353 152.957588 
L 97.021039 152.6131 
L 97.133724 148.3821 
L 97.24641 159.21873 
L 97.359095 151.144398 
L 97.471781 154.012097 
L 97.584466 153.5358 
L 97.697152 149.165365 
L 97.922523 152.817074 
L 98.035208 148.074249 
L 98.147894 153.831066 
L 98.260579 152.538253 
L 98.373265 153.649514 
L 98.48595 157.326621 
L 98.598636 154.448077 
L 98.711322 158.072848 
L 98.824007 157.474396 
L 99.049378 154.522047 
L 99.162064 159.664928 
L 99.274749 151.832085 
L 99.387435 160.956296 
L 99.50012 149.514715 
L 99.612806 155.966061 
L 99.725491 151.614244 
L 99.950862 153.513762 
L 100.063548 147.045551 
L 100.51429 157.066159 
L 100.626976 156.75117 
L 100.739661 152.348986 
L 100.965032 155.966227 
L 101.077718 155.760029 
L 101.190403 153.115544 
L 101.303089 156.971382 
L 101.415774 153.950361 
L 101.641146 157.556329 
L 101.753831 160.689662 
L 101.866517 158.970778 
L 101.979202 154.503018 
L 102.204573 158.317662 
L 102.317259 152.538126 
L 102.429944 153.341471 
L 102.54263 155.216338 
L 102.655315 153.629126 
L 103.106058 160.719467 
L 103.331429 155.180152 
L 103.444114 158.535297 
L 103.5568 166.470313 
L 103.669485 166.138436 
L 103.782171 152.692874 
L 104.007542 160.72945 
L 104.120227 165.828412 
L 104.345598 146.221947 
L 104.57097 156.410089 
L 104.683655 154.709351 
L 104.909026 147.823635 
L 105.021712 155.27131 
L 105.134397 148.62089 
L 105.247083 158.995618 
L 105.359768 158.469512 
L 105.472454 156.686397 
L 105.585139 153.10822 
L 105.697825 157.210694 
L 105.81051 156.964116 
L 105.923196 162.5442 
L 106.148567 150.668816 
L 106.261253 161.610282 
L 106.486624 150.19993 
L 106.599309 158.909788 
L 106.711995 148.824841 
L 106.82468 157.598394 
L 106.937366 157.117883 
L 107.162737 153.976819 
L 107.275422 155.235372 
L 107.388108 153.560612 
L 107.500793 149.949573 
L 107.613479 159.837757 
L 107.726165 157.51612 
L 107.83885 159.790702 
L 107.951536 150.568593 
L 108.064221 158.284227 
L 108.176907 150.334124 
L 108.289592 155.001744 
L 108.402278 150.600817 
L 108.514963 163.019184 
L 108.627649 162.813965 
L 108.965705 150.490594 
L 109.078391 162.303512 
L 109.416448 77.503997 
L 109.529133 180.955746 
L 109.641819 181.566088 
L 109.754504 143.715053 
L 109.86719 160.691774 
L 109.979875 160.070402 
L 110.205246 138.04123 
L 110.317932 159.487096 
L 110.430617 154.700166 
L 110.655989 156.090021 
L 110.768674 168.263674 
L 110.88136 137.466721 
L 110.994045 169.19029 
L 111.106731 161.515926 
L 111.219416 136.397967 
L 111.670158 166.353819 
L 111.782844 142.329597 
L 111.895529 161.264156 
L 112.008215 150.635467 
L 112.120901 174.349952 
L 112.346272 140.447692 
L 112.458957 151.524829 
L 112.571643 151.307813 
L 112.684328 156.058768 
L 112.797014 155.189679 
L 113.022385 159.435284 
L 113.247756 144.463393 
L 113.360441 150.859493 
L 113.473127 168.705455 
L 113.585812 151.958929 
L 113.698498 152.418341 
L 113.811184 156.425212 
L 114.036555 148.945616 
L 114.14924 139.845625 
L 114.374611 155.021566 
L 114.487297 155.053428 
L 114.599982 154.39654 
L 114.712668 153.01021 
L 114.825353 147.415904 
L 114.938039 155.805029 
L 115.050724 149.475869 
L 115.16341 150.060499 
L 115.388781 146.474007 
L 115.501467 153.33594 
L 115.614152 148.816558 
L 115.839523 159.827014 
L 115.952209 151.538883 
L 116.064894 151.832676 
L 116.17758 156.400459 
L 116.290265 155.370429 
L 116.402951 151.046495 
L 116.628322 157.865994 
L 116.741008 158.651956 
L 116.853693 158.264934 
L 116.966379 149.321032 
L 117.079064 155.376189 
L 117.19175 130.66909 
L 117.304435 159.088447 
L 117.417121 142.648326 
L 117.529806 151.769911 
L 117.755177 148.342465 
L 117.867863 146.817723 
L 117.980548 150.907876 
L 118.20592 146.259261 
L 118.318605 153.127578 
L 118.431291 152.586528 
L 118.543976 148.882612 
L 118.656662 150.366756 
L 118.769347 154.179033 
L 118.882033 152.024753 
L 118.994718 153.320021 
L 119.107404 156.316028 
L 119.220089 152.327498 
L 119.332775 152.98555 
L 119.44546 151.992221 
L 119.558146 152.270186 
L 119.670832 150.160393 
L 119.783517 141.641956 
L 120.008888 148.644106 
L 120.121574 138.198129 
L 120.234259 155.638664 
L 120.45963 149.446642 
L 120.572316 148.723921 
L 120.685001 149.20317 
L 120.797687 147.881774 
L 120.910372 142.2507 
L 121.023058 171.055211 
L 121.248429 147.83949 
L 121.586486 162.964755 
L 121.699171 156.13564 
L 121.924542 159.781907 
L 122.037228 168.529322 
L 122.149913 153.33776 
L 122.375284 157.433567 
L 122.600655 154.428799 
L 122.826027 162.221021 
L 123.051398 154.65206 
L 123.164083 155.445885 
L 123.389454 151.880958 
L 123.50214 160.142672 
L 123.614825 150.074419 
L 123.840196 153.987451 
L 123.952882 150.480584 
L 124.065567 158.725588 
L 124.178253 156.020921 
L 124.290939 146.042662 
L 124.403624 148.571582 
L 124.51631 147.109556 
L 124.628995 151.286767 
L 124.741681 149.258765 
L 124.854366 150.712127 
L 124.967052 150.521493 
L 125.079737 151.755711 
L 125.305108 144.343875 
L 125.417794 150.820137 
L 125.530479 148.882934 
L 125.643165 137.914114 
L 125.868536 152.614778 
L 125.981222 145.813212 
L 126.319278 150.936884 
L 126.431964 157.914008 
L 126.657335 149.044622 
L 126.77002 160.901038 
L 126.882706 147.506866 
L 126.995391 150.351985 
L 127.108077 146.477639 
L 127.220763 161.767285 
L 127.333448 161.28047 
L 127.558819 149.061295 
L 127.78419 161.709323 
L 127.896876 154.734768 
L 128.009561 160.85995 
L 128.122247 154.011204 
L 128.234932 164.595567 
L 128.347618 159.658913 
L 128.460303 142.379482 
L 128.685674 158.024011 
L 128.79836 152.898005 
L 129.136417 161.957069 
L 129.249102 162.407695 
L 129.474473 149.539586 
L 129.587159 149.099304 
L 129.699844 149.235848 
L 129.81253 172.349068 
L 129.925215 158.805874 
L 130.037901 159.87939 
L 130.150586 157.137486 
L 130.263272 159.119846 
L 130.375958 145.680322 
L 130.601329 154.488795 
L 130.8267 163.515935 
L 130.939385 161.84779 
L 131.052071 151.587834 
L 131.164756 157.761951 
L 131.277442 145.598896 
L 131.390127 172.391935 
L 131.502813 154.925647 
L 131.615498 155.284331 
L 131.728184 159.347054 
L 131.84087 154.610327 
L 132.066241 164.511876 
L 132.178926 146.86495 
L 132.291612 153.09576 
L 132.404297 151.170295 
L 132.629668 159.075232 
L 132.742354 149.218372 
L 132.855039 149.624207 
L 132.967725 156.345591 
L 133.08041 150.358817 
L 133.193096 157.631525 
L 133.418467 147.012332 
L 133.531153 156.706058 
L 133.643838 152.592045 
L 133.869209 160.908658 
L 134.09458 146.64296 
L 134.207266 159.986674 
L 134.319951 146.392326 
L 134.432637 156.704324 
L 134.545322 152.842521 
L 134.658008 157.870361 
L 134.770694 153.087293 
L 134.883379 160.972351 
L 135.221436 144.760204 
L 135.334121 153.776292 
L 135.446807 151.408804 
L 135.672178 155.002089 
L 135.784863 145.866848 
L 135.897549 150.952192 
L 136.010234 141.319609 
L 136.12292 161.376349 
L 136.460977 146.54163 
L 136.573662 142.398857 
L 136.686348 156.535841 
L 136.799033 149.18803 
L 136.911719 156.877869 
L 137.13709 150.502815 
L 137.249775 149.623889 
L 137.587832 129.672415 
L 137.700517 170.247057 
L 137.813203 131.208911 
L 138.038574 177.458866 
L 138.263945 144.893848 
L 138.489316 158.234555 
L 138.602002 147.18974 
L 138.714687 163.132796 
L 138.940058 151.998131 
L 139.052744 149.184539 
L 139.165429 161.366726 
L 139.278115 153.556191 
L 139.390801 156.03337 
L 139.616172 149.910433 
L 139.728857 149.763474 
L 139.841543 151.348206 
L 139.954228 146.9349 
L 140.066914 160.637562 
L 140.179599 152.982427 
L 140.292285 167.989611 
L 140.630341 144.332429 
L 140.855713 151.249844 
L 140.968398 169.619722 
L 141.193769 151.29985 
L 141.306455 152.493092 
L 141.41914 150.02266 
L 141.644511 177.300488 
L 141.869882 154.775147 
L 141.982568 153.996159 
L 142.095253 160.757281 
L 142.207939 155.513802 
L 142.320625 161.682839 
L 142.43331 159.541135 
L 142.545996 153.705005 
L 142.658681 160.154434 
L 142.771367 158.523092 
L 142.884052 151.603599 
L 143.222109 162.588105 
L 143.560165 146.200863 
L 143.672851 152.104786 
L 143.785537 151.528359 
L 144.010908 154.496094 
L 144.123593 151.191771 
L 144.236279 154.775548 
L 144.348964 152.16133 
L 144.46165 159.3097 
L 144.574335 159.175661 
L 144.912392 146.540134 
L 145.025077 159.432805 
L 145.137763 152.160327 
L 145.250448 170.350357 
L 145.363134 161.919802 
L 145.47582 162.164216 
L 145.588505 171.428357 
L 145.701191 150.1962 
L 145.813876 155.434684 
L 145.926562 155.272688 
L 146.039247 163.327763 
L 146.151933 142.109047 
L 146.264618 142.903005 
L 146.377304 152.827226 
L 146.489989 152.760881 
L 146.602675 159.669627 
L 146.71536 149.172028 
L 146.828046 156.173427 
L 146.940732 129.936282 
L 147.053417 169.388103 
L 147.166103 164.583214 
L 147.278788 152.930371 
L 147.504159 160.038452 
L 147.72953 139.139369 
L 148.067587 164.722007 
L 148.180272 153.290683 
L 148.292958 154.149348 
L 148.405644 147.576758 
L 148.518329 156.213114 
L 148.7437 153.00682 
L 148.856386 151.602767 
L 148.969071 152.629945 
L 149.081757 168.26119 
L 149.307128 146.628919 
L 149.419813 150.266698 
L 149.645184 141.209196 
L 149.75787 139.426624 
L 149.983241 150.426911 
L 150.208612 151.28764 
L 150.433983 157.543693 
L 150.546669 153.480406 
L 150.659354 155.063353 
L 150.997411 147.301326 
L 151.222782 153.426955 
L 151.335468 150.439471 
L 151.448153 157.184005 
L 151.560839 152.963537 
L 151.673524 154.075924 
L 151.78621 157.301398 
L 152.011581 142.371117 
L 152.236952 169.182782 
L 152.349637 152.465594 
L 152.462323 153.500058 
L 152.575008 152.27738 
L 152.800379 145.62811 
L 153.025751 150.61803 
L 153.138436 149.301866 
L 153.251122 151.923248 
L 153.363807 150.726844 
L 153.476493 154.989265 
L 153.589178 146.608513 
L 153.814549 153.242104 
L 153.927235 151.251457 
L 154.03992 151.412166 
L 154.152606 148.565514 
L 154.265291 148.936143 
L 154.377977 150.688106 
L 154.490663 148.79086 
L 154.603348 152.108952 
L 154.716034 166.674232 
L 154.828719 151.490396 
L 154.941405 160.708211 
L 155.166776 137.130949 
L 155.279461 169.295492 
L 155.504832 132.624747 
L 155.617518 141.497651 
L 155.730203 137.722946 
L 155.842889 140.913007 
L 156.06826 154.305952 
L 156.180946 151.151393 
L 156.293631 127.189393 
L 156.406317 140.385751 
L 156.519002 124.782551 
L 156.631688 165.670389 
L 156.857059 148.562515 
L 157.08243 165.424253 
L 157.307801 142.764944 
L 157.420487 156.836129 
L 157.645858 137.303659 
L 157.758543 150.140745 
L 157.871229 148.951791 
L 158.0966 162.373015 
L 158.209285 159.807637 
L 158.321971 185.661459 
L 158.547342 151.207022 
L 158.660027 158.313723 
L 158.772713 151.3519 
L 158.885399 160.740958 
L 159.11077 156.600763 
L 159.223455 182.738832 
L 159.336141 155.695859 
L 159.448826 156.566028 
L 159.561512 146.099169 
L 159.674197 146.677974 
L 159.786883 152.800746 
L 159.899568 148.514328 
L 160.012254 130.174995 
L 160.124939 152.243821 
L 160.237625 147.024117 
L 160.35031 151.989534 
L 160.575682 147.326835 
L 160.688367 159.422945 
L 160.801053 149.093964 
L 160.913738 155.299912 
L 161.026424 144.263368 
L 161.251795 160.72549 
L 161.477166 136.323272 
L 161.589851 171.320961 
L 161.702537 158.30176 
L 161.815222 162.756408 
L 161.927908 156.58984 
L 162.040594 158.582257 
L 162.153279 176.431915 
L 162.37865 149.93208 
L 162.604021 153.764389 
L 162.829392 162.747781 
L 162.942078 146.444806 
L 163.054763 152.85218 
L 163.167449 169.446834 
L 163.280134 157.680827 
L 163.505506 163.345776 
L 163.618191 147.078711 
L 163.730877 159.191684 
L 163.843562 155.720486 
L 163.956248 168.937649 
L 164.068933 156.124518 
L 164.181619 160.753343 
L 164.40699 147.049642 
L 164.519675 150.362776 
L 164.745046 166.091155 
L 164.970418 148.024876 
L 165.083103 158.7867 
L 165.533845 134.374853 
L 165.646531 176.804885 
L 165.759216 169.392976 
L 165.871902 181.453645 
L 166.322644 142.233125 
L 166.548015 146.145751 
L 166.773386 159.282466 
L 166.886072 149.089602 
L 167.111443 151.74593 
L 167.224128 167.542526 
L 167.336814 147.592645 
L 167.449499 172.620561 
L 167.67487 128.995064 
L 167.900241 171.900886 
L 168.012927 171.801271 
L 168.125613 146.583796 
L 168.238298 146.988277 
L 168.350984 124.569293 
L 168.576355 155.400384 
L 168.68904 153.987823 
L 168.801726 190.440882 
L 168.914411 189.343182 
L 169.139782 161.261929 
L 169.252468 189.042295 
L 169.365153 145.221597 
L 169.477839 161.185602 
L 169.590525 160.136734 
L 169.815896 167.231762 
L 169.928581 161.048824 
L 170.041267 161.074232 
L 170.153952 183.865969 
L 170.266638 137.030553 
L 170.379323 196.074289 
L 170.492009 148.091102 
L 170.604694 174.374795 
L 170.71738 133.711863 
L 170.830065 173.00539 
L 170.942751 152.029582 
L 171.055437 161.00559 
L 171.168122 197.077808 
L 171.393493 144.005889 
L 171.506179 150.933921 
L 171.618864 185.423768 
L 171.73155 148.879727 
L 171.956921 173.619885 
L 172.182292 152.644899 
L 172.294977 149.307863 
L 172.520349 125.546389 
L 172.633034 165.832538 
L 172.74572 147.462904 
L 173.083776 167.488784 
L 173.196462 161.334241 
L 173.309147 144.131211 
L 173.421833 153.879989 
L 173.534518 175.351845 
L 173.759889 160.97191 
L 173.872575 159.640516 
L 173.985261 147.741293 
L 174.097946 159.911136 
L 174.210632 150.927559 
L 174.436003 158.168781 
L 174.548688 150.56321 
L 174.661374 156.856033 
L 174.774059 151.776609 
L 174.99943 161.4249 
L 175.112116 150.961617 
L 175.337487 165.53325 
L 175.450172 148.457303 
L 175.675544 159.809798 
L 175.788229 157.244796 
L 176.0136 172.287213 
L 176.126286 198.933107 
L 176.238971 145.808404 
L 176.464342 157.930015 
L 176.689713 165.314324 
L 176.802399 147.719364 
L 176.915084 148.123567 
L 177.140456 165.666268 
L 177.253141 143.067659 
L 177.365827 157.744137 
L 177.591198 140.28732 
L 177.703883 171.598513 
L 177.816569 167.087355 
L 177.929254 143.163948 
L 178.154625 176.724898 
L 178.492682 148.037476 
L 178.718053 156.326728 
L 178.830739 185.06397 
L 178.943424 140.778517 
L 179.05611 140.827189 
L 179.394166 156.502555 
L 179.506852 156.243622 
L 179.619537 145.672971 
L 179.732223 161.201136 
L 179.844908 159.745186 
L 179.957594 205.705911 
L 180.07028 188.841891 
L 180.182965 137.83401 
L 180.295651 188.609577 
L 180.408336 145.591282 
L 180.633707 168.812868 
L 180.746393 118.816387 
L 180.859078 133.043414 
L 180.971764 161.836739 
L 181.084449 155.275138 
L 181.197135 170.860721 
L 181.30982 159.341263 
L 181.535192 122.052293 
L 181.647877 158.684654 
L 181.873248 134.544556 
L 181.985934 163.998311 
L 182.211305 141.72563 
L 182.32399 140.49143 
L 182.436676 166.359079 
L 182.662047 133.29664 
L 183.000103 167.731576 
L 183.112789 158.390463 
L 183.225475 113.803308 
L 183.450846 132.611806 
L 183.563531 168.819825 
L 183.676217 144.442267 
L 183.788902 154.069642 
L 184.014273 135.608973 
L 184.239644 166.05939 
L 184.35233 149.505926 
L 184.465015 152.443082 
L 184.577701 151.895155 
L 184.690387 161.51248 
L 184.803072 145.818642 
L 184.915758 181.947854 
L 185.028443 151.954155 
L 185.141129 155.904427 
L 185.253814 147.626316 
L 185.479185 162.471552 
L 185.704556 151.843702 
L 185.817242 159.390366 
L 185.929927 149.628421 
L 186.042613 162.782782 
L 186.155299 137.153526 
L 186.267984 150.706911 
L 186.38067 149.571711 
L 186.493355 140.500097 
L 186.606041 145.091955 
L 186.718726 142.473638 
L 186.944097 163.697286 
L 187.056783 97.955479 
L 187.282154 148.652762 
L 187.394839 156.093842 
L 187.507525 139.932039 
L 187.732896 141.778706 
L 187.845582 152.635065 
L 188.070953 130.823273 
L 188.183638 97.406281 
L 188.296324 167.033399 
L 188.409009 149.042952 
L 188.521695 153.000202 
L 188.747066 173.76357 
L 188.859751 119.68908 
L 189.085123 166.241354 
L 189.197808 151.308625 
L 189.310494 160.630159 
L 189.423179 138.343935 
L 189.64855 172.865142 
L 189.761236 156.092852 
L 189.873921 176.680233 
L 189.986607 173.224087 
L 190.099292 184.802451 
L 190.211978 160.099928 
L 190.324663 162.347292 
L 190.437349 172.086907 
L 190.550034 163.293961 
L 190.66272 167.580787 
L 190.775406 218.256364 
L 190.888091 100.873626 
L 191.113462 187.274585 
L 191.226148 160.898952 
L 191.338833 197.08794 
L 191.451519 175.022116 
L 191.564204 178.146807 
L 191.67689 148.509456 
L 191.789575 149.104519 
L 191.902261 158.00767 
L 192.014946 176.289864 
L 192.127632 174.609585 
L 192.240318 72.705876 
L 192.353003 144.997165 
L 192.465689 136.0742 
L 192.578374 139.625283 
L 192.69106 204.65631 
L 192.803745 26.472951 
L 193.029116 168.309753 
L 193.254487 141.082955 
L 193.367173 153.643946 
L 193.592544 142.490235 
L 193.817915 151.900105 
L 193.930601 151.079997 
L 194.155972 161.023054 
L 194.268657 161.061153 
L 194.381343 147.311865 
L 194.494028 156.536412 
L 194.719399 146.865214 
L 194.832085 170.867872 
L 195.057456 152.843134 
L 195.170142 155.522866 
L 195.508198 147.17642 
L 195.620884 158.038261 
L 195.733569 155.005912 
L 195.846255 168.159583 
L 196.071626 155.523676 
L 196.184311 167.905774 
L 196.409682 158.870354 
L 196.522368 156.020087 
L 196.635054 156.062817 
L 196.747739 158.662287 
L 196.97311 141.557939 
L 197.198481 155.559022 
L 197.311167 147.439182 
L 197.423852 151.668873 
L 197.536538 141.914347 
L 197.874594 161.182336 
L 197.98728 162.812833 
L 198.099966 149.14998 
L 198.212651 151.239809 
L 198.325337 156.195129 
L 198.438022 166.972228 
L 198.550708 148.195062 
L 198.663393 158.785963 
L 198.888764 195.020661 
L 199.00145 153.960421 
L 199.114135 158.398442 
L 199.226821 149.709491 
L 199.339506 166.322979 
L 199.452192 147.05896 
L 199.790249 175.83174 
L 199.902934 136.721447 
L 200.01562 167.780409 
L 200.353676 140.88631 
L 200.466362 165.561612 
L 200.579047 156.30134 
L 200.691733 136.956063 
L 200.804418 151.87069 
L 200.917104 133.747222 
L 201.029789 141.58721 
L 201.142475 157.660337 
L 201.255161 151.864294 
L 201.367846 164.506192 
L 201.480532 144.712293 
L 201.705903 179.385114 
L 201.818588 162.372084 
L 202.043959 164.123646 
L 202.156645 157.948066 
L 202.26933 143.110403 
L 202.494701 154.407302 
L 202.607387 149.554896 
L 202.720073 183.728236 
L 202.945444 158.844322 
L 203.058129 142.232321 
L 203.170815 146.614921 
L 203.2835 171.409667 
L 203.508871 165.686198 
L 203.621557 154.150322 
L 203.734242 170.706189 
L 203.846928 149.883835 
L 203.959613 156.005321 
L 204.072299 153.477229 
L 204.29767 168.495017 
L 204.410356 140.127065 
L 204.635727 170.205402 
L 204.748412 144.955657 
L 204.861098 156.870347 
L 204.973783 144.762267 
L 205.086469 167.303281 
L 205.199154 146.513725 
L 205.31184 165.367358 
L 205.649897 143.62283 
L 205.762582 154.895702 
L 205.875268 152.57627 
L 205.987953 147.185872 
L 206.100639 158.828513 
L 206.213324 148.33635 
L 206.32601 157.02273 
L 206.776752 151.181647 
L 206.889437 150.118084 
L 207.002123 146.573292 
L 207.227494 165.48189 
L 207.452865 152.936996 
L 207.565551 168.543305 
L 207.678236 146.420348 
L 207.790922 210.987038 
L 208.016293 122.27579 
L 208.241664 176.324627 
L 208.467035 141.402734 
L 208.57972 144.796962 
L 208.692406 172.033327 
L 208.917777 146.354428 
L 209.030463 186.99414 
L 209.255834 153.999264 
L 209.368519 150.919723 
L 209.481205 155.530637 
L 209.59389 169.756899 
L 209.706576 143.413845 
L 209.819261 157.972359 
L 209.931947 111.979104 
L 210.044632 160.536593 
L 210.157318 156.496099 
L 210.270004 174.049003 
L 210.495375 147.024537 
L 210.60806 159.336038 
L 210.720746 127.519339 
L 210.946117 195.608539 
L 211.058802 191.41235 
L 211.284173 150.817933 
L 211.396859 162.425843 
L 211.509544 148.666822 
L 211.847601 168.610167 
L 211.960287 142.171655 
L 212.072972 155.98737 
L 212.185658 149.119378 
L 212.298343 150.864322 
L 212.411029 168.354166 
L 212.523714 165.062756 
L 212.6364 156.022167 
L 212.749085 168.077301 
L 212.861771 146.729228 
L 213.087142 157.622815 
L 213.199828 158.87879 
L 213.425199 143.137845 
L 213.537884 145.566932 
L 213.65057 164.578703 
L 213.763255 143.382478 
L 213.875941 155.625106 
L 214.101312 147.209921 
L 214.213997 165.555342 
L 214.326683 134.4356 
L 214.552054 152.962713 
L 214.664739 141.656154 
L 214.777425 142.81791 
L 215.002796 170.439866 
L 215.228167 147.031208 
L 215.453538 162.78078 
L 215.678909 156.969871 
L 215.791595 153.509852 
L 215.90428 160.662225 
L 216.016966 155.353549 
L 216.129651 155.879173 
L 216.467708 162.477784 
L 216.693079 170.157177 
L 216.805765 175.383345 
L 216.91845 140.610543 
L 217.031136 148.121434 
L 217.143821 138.753455 
L 217.256507 152.463814 
L 217.369192 143.562072 
L 217.707249 164.91823 
L 217.93262 138.834737 
L 218.045306 159.136771 
L 218.157991 150.9445 
L 218.270677 157.410297 
L 218.383362 142.822911 
L 218.496048 172.305119 
L 218.608733 129.985696 
L 218.721419 162.524078 
L 218.834104 116.753307 
L 219.059475 160.177167 
L 219.172161 165.188312 
L 219.284847 187.162249 
L 219.397532 154.959388 
L 219.510218 167.585735 
L 219.622903 162.730125 
L 219.735589 169.487999 
L 219.848274 144.941881 
L 219.96096 166.575916 
L 220.186331 163.10343 
L 220.299016 148.791881 
L 220.524387 149.834011 
L 220.637073 157.630873 
L 220.749759 151.304481 
L 220.862444 153.343629 
L 220.97513 164.880166 
L 221.087815 145.870503 
L 221.313186 151.156312 
L 221.425872 157.088743 
L 221.538557 175.644423 
L 221.651243 132.068175 
L 221.763928 147.632905 
L 221.989299 140.761847 
L 222.101985 138.67094 
L 222.21467 139.439057 
L 222.440042 174.306679 
L 222.552727 142.790566 
L 222.665413 156.307321 
L 222.890784 131.371088 
L 223.116155 151.16637 
L 223.22884 151.299931 
L 223.341526 134.024594 
L 223.454211 168.180294 
L 223.566897 139.258183 
L 223.679582 161.744867 
L 223.792268 146.322578 
L 223.904954 147.51087 
L 224.017639 144.726145 
L 224.130325 170.059337 
L 224.24301 135.710661 
L 224.468381 152.038838 
L 224.693752 142.891062 
L 224.806438 145.425096 
L 224.919123 166.806952 
L 225.031809 162.510266 
L 225.144494 152.083142 
L 225.25718 156.683152 
L 225.369866 152.671154 
L 225.482551 155.020362 
L 225.595237 152.946658 
L 225.707922 160.120931 
L 225.820608 158.538687 
L 225.933293 159.856479 
L 226.045979 155.666142 
L 226.158664 158.258531 
L 226.27135 150.087997 
L 226.384035 150.382929 
L 226.496721 153.644035 
L 226.609406 143.918302 
L 226.947463 164.668431 
L 227.060149 139.321278 
L 227.172834 141.906039 
L 227.28552 157.205576 
L 227.398205 146.841866 
L 227.510891 164.955419 
L 227.623576 153.390623 
L 227.736262 163.410615 
L 227.848947 152.694002 
L 228.074318 165.253785 
L 228.187004 142.639323 
L 228.29969 143.778593 
L 228.412375 164.001756 
L 228.525061 148.729057 
L 228.637746 162.801142 
L 228.750432 138.945195 
L 228.863117 146.017626 
L 228.975803 136.960835 
L 229.201174 158.724512 
L 229.313859 155.703748 
L 229.426545 159.064388 
L 229.53923 148.711294 
L 229.651916 161.759235 
L 229.764601 135.291304 
L 229.877287 142.708499 
L 230.102658 163.868501 
L 230.215344 149.625145 
L 230.328029 161.023465 
L 230.440715 136.384066 
L 230.5534 152.946741 
L 230.666086 200.905637 
L 230.891457 158.649544 
L 231.004142 158.816218 
L 231.116828 150.628214 
L 231.342199 161.237745 
L 231.56757 148.205459 
L 231.680256 169.921424 
L 231.792941 137.836947 
L 232.018312 153.410598 
L 232.130998 150.666017 
L 232.243683 158.266387 
L 232.469054 137.155309 
L 232.58174 160.511405 
L 232.807111 150.313076 
L 232.919797 152.19914 
L 233.032482 150.746546 
L 233.257853 160.53919 
L 233.370539 155.202872 
L 233.483224 162.449281 
L 233.821281 142.29785 
L 234.046652 152.661095 
L 234.159337 153.97769 
L 234.272023 144.733197 
L 234.384709 170.945065 
L 234.497394 152.438798 
L 234.61008 171.511656 
L 234.722765 142.402523 
L 234.835451 142.044431 
L 234.948136 161.683593 
L 235.173507 148.122694 
L 235.286193 153.675604 
L 235.398878 153.548741 
L 235.624249 143.02493 
L 235.736935 148.702151 
L 235.849621 163.301029 
L 235.962306 153.26548 
L 236.074992 156.032729 
L 236.187677 154.157886 
L 236.300363 162.332415 
L 236.751105 143.415707 
L 237.201847 161.998545 
L 237.314532 148.770056 
L 237.427218 153.437946 
L 237.539904 150.416155 
L 237.652589 158.005936 
L 237.765275 155.339197 
L 237.87796 158.044739 
L 238.103331 153.991655 
L 238.216017 145.057204 
L 238.441388 151.8379 
L 238.554073 150.677718 
L 238.666759 147.848297 
L 238.779444 156.795848 
L 238.89213 149.842535 
L 239.004816 151.049796 
L 239.117501 145.684561 
L 239.230187 151.752188 
L 239.342872 147.671198 
L 239.568243 150.270219 
L 239.680929 155.711668 
L 239.793614 145.770396 
L 239.9063 156.609948 
L 240.018985 143.617169 
L 240.131671 152.627349 
L 240.357042 140.649352 
L 240.807784 150.549262 
L 240.92047 148.372459 
L 241.033155 151.590341 
L 241.258526 143.381461 
L 241.371212 150.061227 
L 241.483897 144.013112 
L 241.596583 152.845788 
L 241.709268 145.340229 
L 241.93464 150.338678 
L 242.160011 147.912306 
L 242.272696 148.238813 
L 242.498067 158.764253 
L 242.610753 154.343948 
L 242.723438 169.204878 
L 242.836124 145.352819 
L 243.17418 161.626245 
L 243.286866 160.998048 
L 243.399552 146.697072 
L 243.512237 164.309169 
L 243.624923 157.754776 
L 243.737608 158.88796 
L 243.850294 170.646149 
L 243.962979 154.085696 
L 244.075665 162.959336 
L 244.301036 151.143239 
L 244.413721 153.539608 
L 244.526407 164.502634 
L 244.864463 149.117551 
L 245.089835 158.497777 
L 245.20252 153.237831 
L 245.315206 156.038428 
L 245.427891 153.28314 
L 245.653262 157.888133 
L 245.991319 148.554716 
L 246.21669 167.585236 
L 246.554747 147.793137 
L 246.667432 150.964703 
L 246.780118 143.738093 
L 247.005489 159.095482 
L 247.118174 157.793088 
L 247.23086 151.141846 
L 247.568916 161.447202 
L 247.681602 157.104535 
L 247.794287 144.276955 
L 248.019659 159.118362 
L 248.132344 155.106639 
L 248.24503 146.493547 
L 248.357715 149.030578 
L 248.695772 164.749291 
L 249.033828 150.240842 
L 249.146514 150.35913 
L 249.259199 161.807642 
L 249.484571 149.346146 
L 249.597256 160.10217 
L 249.709942 151.139443 
L 249.822627 161.778587 
L 250.047998 155.228973 
L 250.160684 156.345542 
L 250.273369 150.99344 
L 250.386055 152.557858 
L 250.49874 148.593568 
L 250.724111 183.063199 
L 250.949483 144.315507 
L 251.062168 154.579666 
L 251.174854 160.190982 
L 251.287539 142.049881 
L 251.400225 157.828594 
L 251.625596 134.675698 
L 251.850967 156.938254 
L 251.963652 138.422157 
L 252.189023 163.418138 
L 252.301709 153.269414 
L 252.414395 159.888682 
L 252.52708 158.333286 
L 252.639766 145.168025 
L 252.752451 147.265014 
L 252.865137 156.238126 
L 252.977822 111.851191 
L 253.203193 146.13023 
L 253.315879 147.753406 
L 253.428564 166.427118 
L 253.54125 152.046902 
L 253.653935 153.773847 
L 253.766621 153.467906 
L 253.879306 155.814594 
L 253.991992 150.248415 
L 254.104678 153.581093 
L 254.330049 161.575246 
L 254.668105 149.308471 
L 254.780791 150.31119 
L 254.893476 154.163757 
L 255.006162 153.290983 
L 255.118847 144.584252 
L 255.344218 159.415426 
L 255.682275 147.796935 
L 255.907646 152.116801 
L 256.020332 151.835157 
L 256.133017 154.109495 
L 256.245703 164.302824 
L 256.358388 148.511648 
L 256.471074 148.498763 
L 256.583759 166.067348 
L 256.696445 152.991038 
L 256.921816 163.702306 
L 257.147187 139.512543 
L 257.372558 157.985589 
L 257.485244 156.66607 
L 257.597929 157.31111 
L 257.710615 155.068433 
L 257.8233 163.124895 
L 258.048671 151.466909 
L 258.161357 158.0157 
L 258.274042 146.625626 
L 258.386728 150.639251 
L 258.499414 160.269789 
L 258.612099 158.645218 
L 258.724785 149.031699 
L 258.83747 150.08734 
L 258.950156 155.167047 
L 259.062841 148.688783 
L 259.175527 155.311842 
L 259.288212 147.399781 
L 259.400898 150.744578 
L 259.513583 123.727928 
L 259.738954 160.971219 
L 259.964326 151.240611 
L 260.077011 151.626119 
L 260.189697 161.419869 
L 260.302382 156.013852 
L 260.415068 158.750479 
L 260.527753 158.349256 
L 260.640439 153.404478 
L 260.753124 164.550254 
L 260.978495 152.339939 
L 261.091181 153.754624 
L 261.203866 149.83268 
L 261.316552 151.844684 
L 261.429237 136.181728 
L 261.541923 153.991684 
L 261.767294 145.771046 
L 261.87998 167.935626 
L 262.105351 152.643881 
L 262.218036 168.380674 
L 262.330722 152.991945 
L 262.443407 97.116269 
L 262.556093 191.677321 
L 262.781464 162.633182 
L 262.894149 156.220548 
L 263.006835 157.585625 
L 263.232206 150.646312 
L 263.344892 155.59608 
L 263.570263 149.202355 
L 263.682948 148.584441 
L 263.908319 152.506562 
L 264.021005 153.977982 
L 264.13369 144.233785 
L 264.246376 148.294339 
L 264.359061 148.223309 
L 264.471747 152.593805 
L 264.584433 147.932569 
L 264.922489 155.867277 
L 265.035175 143.852828 
L 265.14786 151.407381 
L 265.260546 140.843937 
L 265.373231 146.804379 
L 265.485917 146.397723 
L 265.598602 148.716957 
L 265.711288 148.640517 
L 265.936659 153.949248 
L 266.16203 155.847316 
L 266.274716 147.385155 
L 266.387401 157.575056 
L 266.612772 150.085755 
L 266.725458 150.484244 
L 266.838143 150.215914 
L 266.950829 152.588927 
L 267.063514 140.229044 
L 267.288885 152.562323 
L 267.401571 147.450979 
L 267.514257 154.701572 
L 267.626942 145.759064 
L 267.739628 152.618167 
L 267.852313 152.1662 
L 267.964999 153.914134 
L 268.077684 153.137458 
L 268.19037 151.30503 
L 268.303055 152.793586 
L 268.415741 152.593812 
L 268.641112 148.831088 
L 268.753797 149.88464 
L 268.866483 154.076479 
L 269.091854 146.922384 
L 269.317225 151.16585 
L 269.429911 157.936913 
L 269.542596 149.065938 
L 269.655282 152.725974 
L 269.767967 149.985729 
L 269.993338 153.202728 
L 270.106024 156.265093 
L 270.218709 152.142261 
L 270.331395 143.109493 
L 270.44408 149.091313 
L 270.556766 145.558532 
L 270.782137 158.466642 
L 270.894823 152.722303 
L 271.007508 163.703277 
L 271.120194 154.743749 
L 271.232879 157.998657 
L 271.345565 165.173897 
L 271.570936 154.677263 
L 271.796307 179.928786 
L 271.908992 146.758523 
L 272.021678 146.607411 
L 272.247049 134.937211 
L 272.359735 136.693394 
L 272.585106 154.709844 
L 272.697791 141.261767 
L 272.923162 157.913452 
L 273.035848 158.676121 
L 273.148533 149.150767 
L 273.261219 155.606517 
L 273.373904 155.628349 
L 273.48659 166.416737 
L 273.599276 150.86816 
L 273.711961 156.102583 
L 273.824647 146.022871 
L 274.050018 168.35484 
L 274.162703 133.504317 
L 274.388074 156.662775 
L 274.50076 139.063946 
L 274.838816 158.996438 
L 274.951502 148.798462 
L 275.064188 161.940442 
L 275.176873 151.497013 
L 275.402244 176.651238 
L 275.627615 156.771766 
L 275.740301 159.615215 
L 275.852986 146.789509 
L 275.965672 159.373061 
L 276.078357 156.946268 
L 276.191043 163.430687 
L 276.303728 108.717357 
L 276.416414 114.115687 
L 276.529099 149.710971 
L 276.641785 150.024483 
L 276.867156 165.970391 
L 276.979842 148.66626 
L 277.092527 150.202501 
L 277.317898 167.263547 
L 277.655955 149.658969 
L 277.76864 154.035477 
L 277.994011 145.818052 
L 278.332068 164.454209 
L 278.557439 156.586699 
L 278.78281 172.930987 
L 278.895496 173.991483 
L 279.008181 133.279768 
L 279.233552 158.688709 
L 279.346238 157.740523 
L 279.458923 149.029195 
L 279.571609 161.619646 
L 279.684295 151.023723 
L 279.79698 162.439151 
L 280.022351 157.013609 
L 280.135037 117.419667 
L 280.360408 147.577968 
L 280.473093 137.027696 
L 280.585779 158.307413 
L 280.81115 153.31973 
L 280.923835 153.947946 
L 281.036521 164.526039 
L 281.261892 138.042174 
L 281.487263 191.94618 
L 281.599949 144.575957 
L 281.712634 160.515363 
L 281.82532 140.955009 
L 281.938005 154.189939 
L 282.163376 120.746233 
L 282.388747 168.980003 
L 282.614119 135.212201 
L 282.726804 186.327644 
L 282.952175 158.94691 
L 283.064861 155.897279 
L 283.290232 160.136884 
L 283.628288 144.328986 
L 283.740974 166.808297 
L 283.853659 135.345655 
L 284.07903 164.954103 
L 284.191716 171.199349 
L 284.304402 147.744854 
L 284.417087 156.331583 
L 284.529773 139.448102 
L 284.642458 162.557538 
L 284.755144 140.003686 
L 284.980515 157.634832 
L 285.0932 147.392626 
L 285.205886 155.808553 
L 285.318571 153.288046 
L 285.431257 146.168417 
L 285.543942 152.545492 
L 285.769314 180.460381 
L 285.881999 157.92936 
L 285.994685 175.099488 
L 286.10737 163.459378 
L 286.220056 137.49313 
L 286.445427 163.043687 
L 286.558112 162.514951 
L 286.670798 163.38781 
L 286.783483 141.116036 
L 287.12154 171.420085 
L 287.234226 167.471176 
L 287.459597 160.746514 
L 287.572282 148.32639 
L 287.684968 158.472075 
L 287.797653 155.710043 
L 288.023024 158.472354 
L 288.13571 158.73952 
L 288.248395 142.425206 
L 288.361081 160.245925 
L 288.586452 157.022014 
L 288.699138 162.115952 
L 288.811823 143.305315 
L 289.037194 158.612467 
L 289.14988 156.159689 
L 289.262565 149.803593 
L 289.375251 163.26596 
L 289.487936 161.4038 
L 289.600622 152.434445 
L 289.713307 156.103551 
L 289.938678 149.29143 
L 290.051364 148.504632 
L 290.16405 151.31764 
L 290.276735 158.898103 
L 290.389421 149.049811 
L 290.614792 154.370301 
L 290.727477 131.58988 
L 290.840163 134.986476 
L 290.952848 147.831112 
L 291.065534 141.816791 
L 291.290905 168.794181 
L 291.40359 139.254163 
L 291.628961 162.698529 
L 291.741647 152.937642 
L 291.854333 161.4335 
L 291.967018 149.247287 
L 292.079704 149.83899 
L 292.305075 169.144836 
L 292.41776 168.630334 
L 292.530446 174.562063 
L 292.755817 153.631014 
L 292.868502 152.340066 
L 292.981188 152.457832 
L 293.093873 153.314325 
L 293.206559 162.176129 
L 293.43193 150.416259 
L 293.544616 153.074967 
L 293.657301 157.432181 
L 293.769987 152.077339 
L 293.882672 140.331119 
L 293.995358 154.664132 
L 294.108043 152.599281 
L 294.220729 156.027197 
L 294.333414 153.697246 
L 294.4461 157.212957 
L 294.558785 151.791952 
L 294.671471 162.29809 
L 294.896842 133.633179 
L 295.122213 154.327909 
L 295.234899 156.210336 
L 295.347584 155.719547 
L 295.46027 166.654384 
L 295.685641 160.922068 
L 295.798326 152.174753 
L 296.136383 158.352797 
L 296.249069 151.756395 
L 296.47444 152.832963 
L 296.699811 156.640939 
L 296.812496 151.570473 
L 296.925182 155.571635 
L 297.037867 151.937354 
L 297.150553 157.969325 
L 297.263238 154.574388 
L 297.488609 160.158124 
L 297.601295 151.998684 
L 297.826666 153.612951 
L 297.939352 151.922255 
L 298.164723 155.544207 
L 298.277408 153.712999 
L 298.390094 155.373789 
L 298.615465 195.052067 
L 298.72815 125.232665 
L 298.840836 210.690108 
L 299.066207 141.265982 
L 299.291578 155.493823 
L 299.404264 157.351398 
L 299.629635 154.899997 
L 299.74232 154.985431 
L 299.855006 156.791691 
L 300.193062 150.956245 
L 300.305748 156.119066 
L 300.418433 152.731631 
L 300.531119 155.940785 
L 300.643804 155.26438 
L 300.75649 157.384061 
L 300.869176 156.458727 
L 300.981861 154.219785 
L 301.094547 158.270917 
L 301.207232 147.953743 
L 301.319918 164.99832 
L 301.432603 152.332614 
L 301.77066 161.118816 
L 301.883345 151.340643 
L 301.996031 157.182899 
L 302.221402 153.839678 
L 302.334088 158.562692 
L 302.446773 153.42049 
L 302.559459 156.28293 
L 302.78483 153.906846 
L 302.897515 157.589248 
L 303.010201 156.097098 
L 303.122886 156.412126 
L 303.235572 151.259274 
L 303.348257 169.612332 
L 303.460943 149.931435 
L 303.686314 161.567881 
L 303.911685 154.864591 
L 304.024371 156.30284 
L 304.137056 155.518723 
L 304.249742 155.736725 
L 304.362427 155.481446 
L 304.475113 154.612933 
L 304.700484 157.400172 
L 304.813169 153.017161 
L 304.925855 160.046481 
L 305.151226 151.836002 
L 305.263912 153.349039 
L 305.376597 152.761544 
L 305.601968 159.644792 
L 305.827339 150.665646 
L 305.940025 163.593388 
L 306.165396 151.96892 
L 306.503452 164.649705 
L 306.616138 154.07393 
L 306.728823 160.046513 
L 306.841509 157.94313 
L 306.954195 151.5695 
L 307.06688 157.550576 
L 307.179566 151.089529 
L 307.292251 157.604102 
L 307.404937 152.633562 
L 307.630308 158.345214 
L 307.742993 158.416821 
L 307.855679 140.677708 
L 308.08105 160.02225 
L 308.193735 176.631616 
L 308.306421 137.261778 
L 308.531792 166.42406 
L 308.644478 160.482202 
L 308.869849 135.452251 
L 309.09522 158.702884 
L 309.320591 152.614011 
L 309.433276 153.347539 
L 309.545962 152.573771 
L 309.658647 159.661936 
L 309.771333 154.366991 
L 309.996704 159.430618 
L 310.10939 152.000852 
L 310.222075 158.223633 
L 310.334761 156.816171 
L 310.560132 158.861259 
L 310.898188 151.729905 
L 311.010874 156.823806 
L 311.236245 151.368323 
L 311.348931 151.803544 
L 311.461616 156.771686 
L 311.574302 154.964906 
L 311.686987 159.221755 
L 311.912358 153.6304 
L 312.137729 157.462414 
L 312.250415 155.431357 
L 312.3631 148.595857 
L 312.588471 160.562108 
L 312.701157 145.958585 
L 312.926528 154.775869 
L 313.039214 154.236811 
L 313.151899 157.035214 
L 313.264585 153.352035 
L 313.37727 161.664453 
L 313.602641 156.947096 
L 313.715327 152.448492 
L 313.828012 154.142766 
L 314.053383 152.307275 
L 314.166069 159.858935 
L 314.39144 150.535698 
L 314.504126 156.505336 
L 314.616811 156.238683 
L 314.729497 146.627161 
L 314.954868 154.812966 
L 315.067553 151.712748 
L 315.292924 166.966574 
L 315.40561 151.564399 
L 315.630981 156.232873 
L 315.743666 157.703179 
L 315.856352 152.246437 
L 315.969038 153.713996 
L 316.081723 157.037756 
L 316.194409 156.331159 
L 316.307094 151.125862 
L 316.532465 161.883376 
L 316.757836 153.701139 
L 316.870522 151.970848 
L 316.983207 155.927345 
L 317.095893 152.624021 
L 317.208578 156.311169 
L 317.321264 155.848053 
L 317.43395 165.312199 
L 317.659321 143.526182 
L 317.884692 154.30557 
L 317.997377 154.968169 
L 318.110063 153.443983 
L 318.222748 150.113224 
L 318.335434 151.20803 
L 318.560805 157.806501 
L 318.67349 156.882103 
L 318.786176 158.501769 
L 318.898862 151.76707 
L 319.011547 158.521647 
L 319.236918 150.99932 
L 319.349604 151.290953 
L 319.462289 150.763793 
L 319.68766 157.667446 
L 320.138402 151.410152 
L 320.251088 157.71375 
L 320.476459 155.712339 
L 320.589145 156.965917 
L 320.70183 151.415025 
L 320.814516 154.777263 
L 320.927201 154.100427 
L 321.039887 157.19445 
L 321.265258 155.196625 
L 321.377943 156.055045 
L 321.490629 159.029904 
L 321.603314 144.989516 
L 321.716 161.626143 
L 321.941371 153.107332 
L 322.054057 157.060526 
L 322.166742 155.131625 
L 322.279428 162.641097 
L 322.392113 160.097748 
L 322.504799 161.373457 
L 322.73017 150.925161 
L 322.842855 152.560686 
L 322.955541 151.152015 
L 323.068226 158.001761 
L 323.180912 147.70091 
L 323.293597 161.572781 
L 323.518969 151.42659 
L 323.631654 162.507283 
L 323.74434 159.694106 
L 323.857025 152.600646 
L 324.082396 157.705242 
L 324.195082 154.163355 
L 324.307767 155.377063 
L 324.420453 147.618798 
L 324.533138 159.601686 
L 324.645824 149.175087 
L 324.871195 157.131275 
L 324.983881 157.870925 
L 325.096566 157.68826 
L 325.209252 152.299971 
L 325.434623 154.43305 
L 325.547308 153.362041 
L 325.772679 158.82606 
L 325.885365 151.896679 
L 325.99805 159.886842 
L 326.110736 157.734117 
L 326.223421 158.435458 
L 326.336107 154.775285 
L 326.448793 154.745261 
L 326.561478 154.408274 
L 326.674164 157.612451 
L 326.786849 149.464661 
L 326.899535 157.340984 
L 327.01222 155.811378 
L 327.124906 159.286638 
L 327.237591 154.278531 
L 327.350277 159.261845 
L 327.462962 155.14119 
L 327.575648 159.499093 
L 327.688333 157.127532 
L 327.801019 161.100583 
L 327.913705 148.854961 
L 328.139076 157.093399 
L 328.251761 155.180717 
L 328.364447 159.162465 
L 328.477132 150.498493 
L 328.589818 153.566838 
L 328.702503 160.298737 
L 328.815189 154.627305 
L 328.927874 155.974418 
L 329.04056 150.74626 
L 329.265931 159.707534 
L 329.491302 151.085426 
L 329.603988 150.602291 
L 329.716673 161.938228 
L 329.829359 152.046915 
L 330.05473 156.031216 
L 330.167415 154.650855 
L 330.280101 156.131717 
L 330.392786 154.675678 
L 330.618157 156.191509 
L 330.730843 152.811862 
L 330.843528 157.110198 
L 330.956214 156.618528 
L 331.0689 165.430856 
L 331.294271 153.736964 
L 331.406956 158.129265 
L 331.519642 152.036161 
L 331.632327 162.56431 
L 331.745013 149.738639 
L 331.970384 160.993388 
L 332.083069 150.63674 
L 332.30844 160.057776 
L 332.421126 164.690086 
L 332.533812 148.692296 
L 332.871868 164.878724 
L 332.984554 152.136151 
L 333.097239 156.455975 
L 333.209925 149.134195 
L 333.435296 162.714822 
L 333.660667 152.185881 
L 333.773352 151.524938 
L 333.998724 166.212386 
L 334.111409 149.693218 
L 334.33678 155.840998 
L 334.449466 147.498702 
L 334.674837 161.035731 
L 334.787522 155.560437 
L 334.900208 159.882226 
L 335.125579 153.694401 
L 335.238264 154.734297 
L 335.35095 154.067782 
L 335.576321 156.872535 
L 335.689007 157.009732 
L 335.801692 155.297598 
L 335.914378 156.072743 
L 336.139749 151.684228 
L 336.252434 158.182684 
L 336.36512 157.658534 
L 336.477805 154.188768 
L 336.703176 156.768219 
L 336.928548 156.200781 
L 337.041233 156.43259 
L 337.266604 155.738467 
L 337.37929 155.803379 
L 337.491975 155.732868 
L 337.604661 152.852815 
L 337.942717 155.704849 
L 338.055403 155.736203 
L 338.168088 156.021588 
L 338.280774 156.654955 
L 338.393459 155.121121 
L 338.506145 156.293749 
L 338.618831 155.314346 
L 339.069573 156.105127 
L 339.294944 155.910283 
L 339.407629 156.038303 
L 339.520315 155.626132 
L 339.858371 155.84683 
L 339.971057 155.682373 
L 340.083743 155.769606 
L 340.196428 155.568619 
L 340.309114 156.076563 
L 340.421799 155.611195 
L 340.64717 155.692495 
L 340.872541 155.775296 
L 341.097912 155.758331 
L 341.210598 155.206027 
L 341.323283 156.595471 
L 341.435969 155.868878 
L 341.548655 156.148261 
L 341.66134 156.097448 
L 341.999397 155.585738 
L 342.112082 155.479827 
L 342.224768 154.202326 
L 342.450139 156.282302 
L 342.67551 155.562275 
L 342.788195 155.493377 
L 343.238938 155.983965 
L 343.351623 155.529668 
L 343.68968 156.040123 
L 343.802365 155.950439 
L 343.915051 155.417457 
L 344.027736 155.627207 
L 344.140422 155.28584 
L 344.253107 156.533996 
L 344.365793 155.7632 
L 344.478479 155.889687 
L 344.591164 155.836977 
L 344.70385 155.942135 
L 344.816535 155.710014 
L 344.929221 155.8415 
L 345.154592 155.697333 
L 345.267277 155.952746 
L 345.379963 155.630817 
L 345.492648 151.88969 
L 345.605334 182.200474 
L 345.718019 86.288141 
L 345.94339 168.647473 
L 346.056076 152.567031 
L 346.168762 156.196549 
L 346.281447 151.986208 
L 346.394133 155.269237 
L 346.506818 151.215754 
L 346.506818 151.215754 
" style="fill:none;stroke:#1f77b4;stroke-linecap:square;stroke-width:1.5;"/>
   </g>
   <g id="patch_3">
    <path d="M 26.925 228.14 
L 26.925 10.7 
" style="fill:none;stroke:#000000;stroke-linecap:square;stroke-linejoin:miter;stroke-width:0.8;"/>
   </g>
   <g id="patch_4">
    <path d="M 361.725 228.14 
L 361.725 10.7 
" style="fill:none;stroke:#000000;stroke-linecap:square;stroke-linejoin:miter;stroke-width:0.8;"/>
   </g>
   <g id="patch_5">
    <path d="M 26.925 228.14 
L 361.725 228.14 
" style="fill:none;stroke:#000000;stroke-linecap:square;stroke-linejoin:miter;stroke-width:0.8;"/>
   </g>
   <g id="patch_6">
    <path d="M 26.925 10.7 
L 361.725 10.7 
" style="fill:none;stroke:#000000;stroke-linecap:square;stroke-linejoin:miter;stroke-width:0.8;"/>
   </g>
  </g>
 </g>
 <defs>
  <clipPath id="p034ca8f386">
   <rect height="217.44" width="334.8" x="26.925" y="10.7"/>
  </clipPath>
 </defs>
</svg>
