<?xml version="1.0" encoding="utf-8" standalone="no"?>
<!DOCTYPE svg PUBLIC "-//W3C//DTD SVG 1.1//EN"
  "http://www.w3.org/Graphics/SVG/1.1/DTD/svg11.dtd">
<!-- Created with matplotlib (http://matplotlib.org/) -->
<svg height="300.690125pt" version="1.1" viewBox="0 0 394.745 300.690125" width="394.745pt" xmlns="http://www.w3.org/2000/svg" xmlns:xlink="http://www.w3.org/1999/xlink">
 <defs>
  <style type="text/css">
*{stroke-linecap:butt;stroke-linejoin:round;}
  </style>
 </defs>
 <g id="figure_1">
  <g id="patch_1">
   <path d="M 0 300.690125 
L 394.745 300.690125 
L 394.745 0 
L 0 0 
z
" style="fill:#ffffff;"/>
  </g>
  <g id="axes_1">
   <g id="patch_2">
    <path d="M 26.925 276.812 
L 384.045 276.812 
L 384.045 10.7 
L 26.925 10.7 
z
" style="fill:#ffffff;"/>
   </g>
   <g id="matplotlib.axis_1">
    <g id="xtick_1">
     <g id="line2d_1">
      <defs>
       <path d="M 0 0 
L 0 3.5 
" id="m2d80302cb9" style="stroke:#000000;stroke-width:0.8;"/>
      </defs>
      <g>
       <use style="stroke:#000000;stroke-width:0.8;" x="43.157727" xlink:href="#m2d80302cb9" y="276.812"/>
      </g>
     </g>
     <g id="text_1">
      <!-- 0 -->
      <defs>
       <path d="M 31.78125 66.40625 
Q 24.171875 66.40625 20.328125 58.90625 
Q 16.5 51.421875 16.5 36.375 
Q 16.5 21.390625 20.328125 13.890625 
Q 24.171875 6.390625 31.78125 6.390625 
Q 39.453125 6.390625 43.28125 13.890625 
Q 47.125 21.390625 47.125 36.375 
Q 47.125 51.421875 43.28125 58.90625 
Q 39.453125 66.40625 31.78125 66.40625 
z
M 31.78125 74.21875 
Q 44.046875 74.21875 50.515625 64.515625 
Q 56.984375 54.828125 56.984375 36.375 
Q 56.984375 17.96875 50.515625 8.265625 
Q 44.046875 -1.421875 31.78125 -1.421875 
Q 19.53125 -1.421875 13.0625 8.265625 
Q 6.59375 17.96875 6.59375 36.375 
Q 6.59375 54.828125 13.0625 64.515625 
Q 19.53125 74.21875 31.78125 74.21875 
z
" id="DejaVuSans-30"/>
      </defs>
      <g transform="translate(39.976477 291.410437)scale(0.1 -0.1)">
       <use xlink:href="#DejaVuSans-30"/>
      </g>
     </g>
    </g>
    <g id="xtick_2">
     <g id="line2d_2">
      <g>
       <use style="stroke:#000000;stroke-width:0.8;" x="103.256681" xlink:href="#m2d80302cb9" y="276.812"/>
      </g>
     </g>
     <g id="text_2">
      <!-- 500 -->
      <defs>
       <path d="M 10.796875 72.90625 
L 49.515625 72.90625 
L 49.515625 64.59375 
L 19.828125 64.59375 
L 19.828125 46.734375 
Q 21.96875 47.46875 24.109375 47.828125 
Q 26.265625 48.1875 28.421875 48.1875 
Q 40.625 48.1875 47.75 41.5 
Q 54.890625 34.8125 54.890625 23.390625 
Q 54.890625 11.625 47.5625 5.09375 
Q 40.234375 -1.421875 26.90625 -1.421875 
Q 22.3125 -1.421875 17.546875 -0.640625 
Q 12.796875 0.140625 7.71875 1.703125 
L 7.71875 11.625 
Q 12.109375 9.234375 16.796875 8.0625 
Q 21.484375 6.890625 26.703125 6.890625 
Q 35.15625 6.890625 40.078125 11.328125 
Q 45.015625 15.765625 45.015625 23.390625 
Q 45.015625 31 40.078125 35.4375 
Q 35.15625 39.890625 26.703125 39.890625 
Q 22.75 39.890625 18.8125 39.015625 
Q 14.890625 38.140625 10.796875 36.28125 
z
" id="DejaVuSans-35"/>
      </defs>
      <g transform="translate(93.712931 291.410437)scale(0.1 -0.1)">
       <use xlink:href="#DejaVuSans-35"/>
       <use x="63.623047" xlink:href="#DejaVuSans-30"/>
       <use x="127.246094" xlink:href="#DejaVuSans-30"/>
      </g>
     </g>
    </g>
    <g id="xtick_3">
     <g id="line2d_3">
      <g>
       <use style="stroke:#000000;stroke-width:0.8;" x="163.355634" xlink:href="#m2d80302cb9" y="276.812"/>
      </g>
     </g>
     <g id="text_3">
      <!-- 1000 -->
      <defs>
       <path d="M 12.40625 8.296875 
L 28.515625 8.296875 
L 28.515625 63.921875 
L 10.984375 60.40625 
L 10.984375 69.390625 
L 28.421875 72.90625 
L 38.28125 72.90625 
L 38.28125 8.296875 
L 54.390625 8.296875 
L 54.390625 0 
L 12.40625 0 
z
" id="DejaVuSans-31"/>
      </defs>
      <g transform="translate(150.630634 291.410437)scale(0.1 -0.1)">
       <use xlink:href="#DejaVuSans-31"/>
       <use x="63.623047" xlink:href="#DejaVuSans-30"/>
       <use x="127.246094" xlink:href="#DejaVuSans-30"/>
       <use x="190.869141" xlink:href="#DejaVuSans-30"/>
      </g>
     </g>
    </g>
    <g id="xtick_4">
     <g id="line2d_4">
      <g>
       <use style="stroke:#000000;stroke-width:0.8;" x="223.454587" xlink:href="#m2d80302cb9" y="276.812"/>
      </g>
     </g>
     <g id="text_4">
      <!-- 1500 -->
      <g transform="translate(210.729587 291.410437)scale(0.1 -0.1)">
       <use xlink:href="#DejaVuSans-31"/>
       <use x="63.623047" xlink:href="#DejaVuSans-35"/>
       <use x="127.246094" xlink:href="#DejaVuSans-30"/>
       <use x="190.869141" xlink:href="#DejaVuSans-30"/>
      </g>
     </g>
    </g>
    <g id="xtick_5">
     <g id="line2d_5">
      <g>
       <use style="stroke:#000000;stroke-width:0.8;" x="283.55354" xlink:href="#m2d80302cb9" y="276.812"/>
      </g>
     </g>
     <g id="text_5">
      <!-- 2000 -->
      <defs>
       <path d="M 19.1875 8.296875 
L 53.609375 8.296875 
L 53.609375 0 
L 7.328125 0 
L 7.328125 8.296875 
Q 12.9375 14.109375 22.625 23.890625 
Q 32.328125 33.6875 34.8125 36.53125 
Q 39.546875 41.84375 41.421875 45.53125 
Q 43.3125 49.21875 43.3125 52.78125 
Q 43.3125 58.59375 39.234375 62.25 
Q 35.15625 65.921875 28.609375 65.921875 
Q 23.96875 65.921875 18.8125 64.3125 
Q 13.671875 62.703125 7.8125 59.421875 
L 7.8125 69.390625 
Q 13.765625 71.78125 18.9375 73 
Q 24.125 74.21875 28.421875 74.21875 
Q 39.75 74.21875 46.484375 68.546875 
Q 53.21875 62.890625 53.21875 53.421875 
Q 53.21875 48.921875 51.53125 44.890625 
Q 49.859375 40.875 45.40625 35.40625 
Q 44.1875 33.984375 37.640625 27.21875 
Q 31.109375 20.453125 19.1875 8.296875 
z
" id="DejaVuSans-32"/>
      </defs>
      <g transform="translate(270.82854 291.410437)scale(0.1 -0.1)">
       <use xlink:href="#DejaVuSans-32"/>
       <use x="63.623047" xlink:href="#DejaVuSans-30"/>
       <use x="127.246094" xlink:href="#DejaVuSans-30"/>
       <use x="190.869141" xlink:href="#DejaVuSans-30"/>
      </g>
     </g>
    </g>
    <g id="xtick_6">
     <g id="line2d_6">
      <g>
       <use style="stroke:#000000;stroke-width:0.8;" x="343.652494" xlink:href="#m2d80302cb9" y="276.812"/>
      </g>
     </g>
     <g id="text_6">
      <!-- 2500 -->
      <g transform="translate(330.927494 291.410437)scale(0.1 -0.1)">
       <use xlink:href="#DejaVuSans-32"/>
       <use x="63.623047" xlink:href="#DejaVuSans-35"/>
       <use x="127.246094" xlink:href="#DejaVuSans-30"/>
       <use x="190.869141" xlink:href="#DejaVuSans-30"/>
      </g>
     </g>
    </g>
   </g>
   <g id="matplotlib.axis_2">
    <g id="ytick_1">
     <g id="line2d_7">
      <defs>
       <path d="M 0 0 
L -3.5 0 
" id="m53c0c36254" style="stroke:#000000;stroke-width:0.8;"/>
      </defs>
      <g>
       <use style="stroke:#000000;stroke-width:0.8;" x="26.925" xlink:href="#m53c0c36254" y="237.227851"/>
      </g>
     </g>
     <g id="text_7">
      <!-- 5 -->
      <g transform="translate(13.5625 241.02707)scale(0.1 -0.1)">
       <use xlink:href="#DejaVuSans-35"/>
      </g>
     </g>
    </g>
    <g id="ytick_2">
     <g id="line2d_8">
      <g>
       <use style="stroke:#000000;stroke-width:0.8;" x="26.925" xlink:href="#m53c0c36254" y="186.544314"/>
      </g>
     </g>
     <g id="text_8">
      <!-- 10 -->
      <g transform="translate(7.2 190.343533)scale(0.1 -0.1)">
       <use xlink:href="#DejaVuSans-31"/>
       <use x="63.623047" xlink:href="#DejaVuSans-30"/>
      </g>
     </g>
    </g>
    <g id="ytick_3">
     <g id="line2d_9">
      <g>
       <use style="stroke:#000000;stroke-width:0.8;" x="26.925" xlink:href="#m53c0c36254" y="135.860777"/>
      </g>
     </g>
     <g id="text_9">
      <!-- 15 -->
      <g transform="translate(7.2 139.659996)scale(0.1 -0.1)">
       <use xlink:href="#DejaVuSans-31"/>
       <use x="63.623047" xlink:href="#DejaVuSans-35"/>
      </g>
     </g>
    </g>
    <g id="ytick_4">
     <g id="line2d_10">
      <g>
       <use style="stroke:#000000;stroke-width:0.8;" x="26.925" xlink:href="#m53c0c36254" y="85.177241"/>
      </g>
     </g>
     <g id="text_10">
      <!-- 20 -->
      <g transform="translate(7.2 88.976459)scale(0.1 -0.1)">
       <use xlink:href="#DejaVuSans-32"/>
       <use x="63.623047" xlink:href="#DejaVuSans-30"/>
      </g>
     </g>
    </g>
    <g id="ytick_5">
     <g id="line2d_11">
      <g>
       <use style="stroke:#000000;stroke-width:0.8;" x="26.925" xlink:href="#m53c0c36254" y="34.493704"/>
      </g>
     </g>
     <g id="text_11">
      <!-- 25 -->
      <g transform="translate(7.2 38.292922)scale(0.1 -0.1)">
       <use xlink:href="#DejaVuSans-32"/>
       <use x="63.623047" xlink:href="#DejaVuSans-35"/>
      </g>
     </g>
    </g>
   </g>
   <g id="line2d_12">
    <path clip-path="url(#p48bdab3c84)" d="M 43.157727 187.945135 
L 43.398123 195.397925 
L 43.518321 186.81993 
L 43.638519 192.798049 
L 43.758717 183.539446 
L 43.999113 188.991776 
L 44.119311 183.70046 
L 44.239508 191.064939 
L 44.359706 189.415289 
L 44.479904 196.364426 
L 44.600102 177.453607 
L 44.7203 195.048164 
L 44.840498 187.093724 
L 44.960696 189.002955 
L 45.080894 188.481473 
L 45.201092 190.907217 
L 45.32129 190.832506 
L 45.441487 189.86606 
L 45.681883 184.17946 
L 45.922279 191.398676 
L 46.042477 188.976348 
L 46.162675 188.904957 
L 46.282873 190.092225 
L 46.403071 186.180083 
L 46.523269 191.794939 
L 46.643467 185.982308 
L 46.763664 189.335108 
L 46.883862 185.916753 
L 47.00406 186.052655 
L 47.244456 194.247556 
L 47.364654 187.693683 
L 47.484852 189.261842 
L 47.60505 181.033415 
L 47.725248 187.229267 
L 47.845446 174.360766 
L 48.085841 200.2396 
L 48.206039 163.081298 
L 48.326237 179.654953 
L 48.446435 213.004219 
L 48.566633 175.677731 
L 48.686831 181.347896 
L 48.807029 204.617415 
L 48.927227 199.696501 
L 49.047425 173.613146 
L 49.167623 173.375936 
L 49.287821 203.841866 
L 49.408018 199.473156 
L 49.648414 246.466668 
L 49.768612 91.421089 
L 49.88881 189.097758 
L 50.009008 185.428408 
L 50.129206 250.852447 
L 50.369602 179.724847 
L 50.4898 206.210188 
L 50.609997 176.658014 
L 50.730195 194.637061 
L 50.850393 188.955277 
L 50.970591 198.863258 
L 51.090789 187.942914 
L 51.210987 192.402639 
L 51.331185 177.29791 
L 51.451383 191.905428 
L 51.571581 191.88842 
L 51.691779 191.089552 
L 51.811977 188.189274 
L 51.932174 190.258907 
L 52.052372 184.407839 
L 52.17257 188.756815 
L 52.412966 183.77451 
L 52.653362 187.960072 
L 53.013956 180.9882 
L 53.134154 192.013491 
L 53.374549 164.867528 
L 53.494747 173.044728 
L 53.614945 144.579058 
L 53.855341 199.671477 
L 54.095737 187.775699 
L 54.215935 200.093157 
L 54.336133 197.807309 
L 54.576528 199.186033 
L 54.696726 192.554298 
L 54.816924 212.443009 
L 54.937122 177.911048 
L 55.05732 179.750187 
L 55.177518 178.909543 
L 55.417914 191.324312 
L 55.538112 168.487896 
L 55.65831 233.514874 
L 55.898705 173.415843 
L 56.018903 182.885073 
L 56.139101 173.710137 
L 56.259299 202.340812 
L 56.379497 187.189238 
L 56.499695 195.502043 
L 56.619893 187.704599 
L 56.740091 195.825278 
L 56.860289 176.389607 
L 56.980487 199.96704 
L 57.100684 176.518306 
L 57.220882 197.582575 
L 57.461278 178.666107 
L 57.94207 217.264903 
L 58.182466 172.296675 
L 58.422861 201.181231 
L 58.543059 186.736679 
L 58.663257 187.733947 
L 58.903653 195.966736 
L 59.144049 173.607162 
L 59.264247 183.585504 
L 59.384445 183.926486 
L 59.504643 179.443802 
L 59.745038 199.252962 
L 59.985434 178.998777 
L 60.105632 179.921854 
L 60.22583 195.331879 
L 60.346028 182.425362 
L 60.466226 189.824499 
L 60.586424 188.05551 
L 60.706622 194.460825 
L 60.82682 178.321136 
L 60.947017 192.391234 
L 61.067215 189.157412 
L 61.187413 178.978197 
L 61.307611 180.728659 
L 61.427809 184.41994 
L 61.548007 192.659702 
L 61.788403 180.34792 
L 62.028799 194.993518 
L 62.148996 183.794874 
L 62.269194 183.330571 
L 62.389392 194.552745 
L 62.50959 183.154369 
L 62.749986 186.703117 
L 62.870184 187.37814 
L 62.990382 189.769114 
L 63.11058 185.924584 
L 63.350976 189.562874 
L 63.471173 180.706694 
L 63.591371 182.091074 
L 63.831767 193.410343 
L 63.951965 186.473118 
L 64.072163 187.561998 
L 64.192361 192.291466 
L 64.432757 186.459556 
L 64.552955 186.049053 
L 64.673153 182.182175 
L 64.79335 183.462213 
L 64.913548 183.169642 
L 65.033746 203.007254 
L 65.153944 181.038522 
L 65.274142 186.748723 
L 65.39434 186.210315 
L 65.514538 193.426295 
L 65.634736 182.451127 
L 65.754934 181.69256 
L 65.875132 208.474995 
L 65.99533 210.379704 
L 66.115527 181.132157 
L 66.235725 186.764005 
L 66.355923 176.263029 
L 66.476121 231.654836 
L 66.596319 183.058331 
L 66.836715 199.928724 
L 66.956913 193.044788 
L 67.077111 202.174598 
L 67.197309 184.759637 
L 67.317506 196.083143 
L 67.437704 189.737468 
L 67.557902 196.356241 
L 67.6781 195.651455 
L 67.798298 176.992941 
L 67.918496 182.5492 
L 68.038694 180.494412 
L 68.158892 191.963799 
L 68.27909 191.080699 
L 68.399288 181.986575 
L 68.639683 188.222455 
L 68.759881 177.960824 
L 68.880079 182.871666 
L 69.000277 183.22703 
L 69.120475 176.517618 
L 69.240673 191.464686 
L 69.360871 179.219251 
L 69.481069 198.860653 
L 69.601267 174.461985 
L 69.721465 182.526753 
L 69.841663 174.849549 
L 69.96186 196.976022 
L 70.082058 174.060251 
L 70.202256 187.646729 
L 70.442652 162.328599 
L 70.56285 166.583554 
L 70.683048 210.918447 
L 70.803246 175.549135 
L 71.043642 219.250913 
L 71.163839 179.934034 
L 71.284037 193.368679 
L 71.404235 188.458799 
L 71.524433 196.422163 
L 71.644631 179.505972 
L 71.764829 206.892431 
L 72.005225 184.602477 
L 72.125423 156.423831 
L 72.245621 196.362105 
L 72.365819 162.239077 
L 72.486016 169.506188 
L 72.606214 190.56582 
L 72.726412 188.791163 
L 72.84661 148.071921 
L 72.966808 183.598348 
L 73.087006 176.268145 
L 73.207204 192.777467 
L 73.4476 183.086035 
L 73.567798 194.41603 
L 73.687996 64.877551 
L 73.808193 183.031886 
L 73.928391 123.977797 
L 74.168787 218.491915 
L 74.288985 163.009896 
L 74.409183 195.36355 
L 74.529381 191.841584 
L 74.649579 205.798736 
L 74.769777 198.053104 
L 74.889975 173.667281 
L 75.010172 211.33818 
L 75.13037 135.297758 
L 75.250568 168.380216 
L 75.370766 165.817687 
L 75.490964 218.992866 
L 75.611162 190.65823 
L 75.73136 220.153947 
L 75.851558 173.040631 
L 75.971756 217.98808 
L 76.091954 205.332301 
L 76.212152 208.666106 
L 76.332349 219.376483 
L 76.452547 175.929594 
L 76.572745 192.158208 
L 76.813141 89.335182 
L 76.933339 225.796934 
L 77.053537 22.796 
L 77.173735 223.056958 
L 77.534329 185.110469 
L 77.654526 196.733703 
L 77.774724 111.841332 
L 77.894922 190.673528 
L 78.255516 148.630789 
L 78.375714 219.990828 
L 78.495912 210.487427 
L 78.61611 211.535193 
L 78.736308 179.973034 
L 78.856506 190.563528 
L 78.976703 187.854839 
L 79.096901 176.469946 
L 79.217099 206.917157 
L 79.337297 192.852798 
L 79.577693 199.404558 
L 79.697891 186.788679 
L 79.818089 193.282412 
L 79.938287 167.635937 
L 80.058485 172.734775 
L 80.178682 185.2771 
L 80.29888 177.052691 
L 80.419078 200.643042 
L 80.659474 179.394663 
L 80.779672 181.082706 
L 80.89987 180.008019 
L 81.140266 197.690583 
L 81.380662 184.945862 
L 81.500859 184.612372 
L 81.741255 187.494754 
L 81.861453 186.796376 
L 81.981651 190.847473 
L 82.101849 185.854315 
L 82.222047 192.119606 
L 82.342245 189.15463 
L 82.462443 180.483173 
L 82.823036 193.713484 
L 83.063432 186.141693 
L 83.18363 189.791326 
L 83.424026 184.309663 
L 83.544224 188.823498 
L 83.664422 186.522886 
L 83.78462 199.826155 
L 83.904818 184.690062 
L 84.025015 191.115577 
L 84.145213 191.39753 
L 84.265411 188.648575 
L 84.385609 190.006655 
L 84.505807 187.012296 
L 84.626005 187.023021 
L 84.746203 190.416954 
L 84.866401 187.760396 
L 84.986599 192.423647 
L 85.226995 182.302928 
L 85.347192 199.100292 
L 85.587588 194.883573 
L 85.707786 184.67018 
L 85.827984 195.251343 
L 86.06838 181.267798 
L 86.188578 176.845014 
L 86.428974 184.839736 
L 86.549172 189.635466 
L 86.669369 187.076343 
L 86.909765 193.923942 
L 87.029963 187.16838 
L 87.150161 188.275517 
L 87.390557 176.440589 
L 87.510755 190.215281 
L 87.630953 183.482079 
L 87.751151 186.302486 
L 87.871348 197.626213 
L 87.991546 184.627399 
L 88.231942 194.993259 
L 88.35214 186.320109 
L 88.472338 187.621067 
L 88.592536 185.605096 
L 88.832932 197.187132 
L 88.95313 186.299764 
L 89.073328 190.311627 
L 89.193525 189.648456 
L 89.433921 173.278976 
L 89.554119 171.878456 
L 89.794515 187.640294 
L 89.914713 182.056918 
L 90.034911 186.587528 
L 90.155109 174.952603 
L 90.395505 188.84496 
L 90.515702 185.222181 
L 90.6359 186.619936 
L 90.756098 202.395828 
L 90.876296 179.989389 
L 90.996494 190.255399 
L 91.116692 183.455532 
L 91.23689 195.842594 
L 91.477286 185.778205 
L 91.597484 204.846378 
L 91.717681 175.469823 
L 91.958077 197.32675 
L 92.078275 198.418861 
L 92.318671 182.462793 
L 92.438869 187.902809 
L 92.559067 180.937276 
L 92.919661 185.621756 
L 93.039858 185.933819 
L 93.160056 199.14731 
L 93.280254 195.410302 
L 93.400452 195.58592 
L 93.52065 200.384084 
L 93.640848 186.252644 
L 93.761046 186.397752 
L 93.881244 171.001017 
L 94.001442 170.364467 
L 94.12164 197.100583 
L 94.362035 188.702252 
L 94.482233 192.974484 
L 94.602431 192.009062 
L 94.722629 181.043952 
L 94.842827 187.376772 
L 94.963025 186.70095 
L 95.083223 183.83969 
L 95.203421 184.759137 
L 95.323619 183.679303 
L 95.443817 188.486931 
L 95.564015 184.162717 
L 95.684212 185.515804 
L 95.80441 179.398833 
L 96.044806 185.497782 
L 96.165004 193.247671 
L 96.4054 180.360667 
L 96.525598 193.028785 
L 96.645796 187.597323 
L 96.765994 196.685226 
L 96.886191 186.558091 
L 97.006389 186.435209 
L 97.126587 183.522368 
L 97.246785 191.897549 
L 97.366983 183.265379 
L 97.487181 184.509665 
L 97.607379 183.729979 
L 97.727577 179.171806 
L 97.847775 195.107972 
L 97.967973 194.893953 
L 98.208368 185.820959 
L 98.328566 185.117602 
L 98.448764 188.252479 
L 98.568962 184.921146 
L 98.68916 189.38596 
L 98.809358 189.668262 
L 98.929556 187.906046 
L 99.049754 194.01254 
L 99.169952 184.226155 
L 99.29015 187.206414 
L 99.410348 179.057709 
L 99.530545 180.181624 
L 99.650743 185.019234 
L 99.770941 184.986147 
L 99.891139 181.373488 
L 100.011337 181.15727 
L 100.131535 192.56471 
L 100.251733 191.653098 
L 100.371931 185.770451 
L 100.492129 188.506165 
L 100.612327 188.55745 
L 100.97292 176.634381 
L 101.093118 183.101983 
L 101.213316 176.887145 
L 101.57391 184.800678 
L 101.694108 184.379079 
L 101.814306 179.201008 
L 101.934504 192.46332 
L 102.054701 182.58162 
L 102.174899 186.091228 
L 102.295097 185.508317 
L 102.415295 180.159599 
L 102.655691 184.628711 
L 102.775889 178.824246 
L 102.896087 185.869675 
L 103.016285 184.287478 
L 103.136483 185.647484 
L 103.256681 190.147679 
L 103.376878 186.624799 
L 103.497076 191.060942 
L 103.617274 190.328532 
L 103.85767 186.715327 
L 103.977868 193.009395 
L 104.098066 183.42324 
L 104.218264 194.589825 
L 104.338462 180.587148 
L 104.45866 188.48257 
L 104.578857 183.156638 
L 104.819253 185.481346 
L 104.939451 177.565284 
L 105.179847 182.315287 
L 105.420243 189.828915 
L 105.540441 189.443418 
L 105.660639 184.055846 
L 105.780837 188.263671 
L 105.901034 188.482773 
L 106.021232 188.230419 
L 106.14143 184.99399 
L 106.261628 189.712923 
L 106.381826 186.015673 
L 106.502024 190.292868 
L 106.622222 190.428805 
L 106.74242 194.263507 
L 106.862618 192.159866 
L 106.982816 186.692038 
L 107.223211 191.360556 
L 107.343409 184.287322 
L 107.463607 185.27049 
L 107.583805 187.565029 
L 107.704003 185.622533 
L 107.944399 188.52818 
L 108.064597 189.705267 
L 108.184795 194.299983 
L 108.425191 187.520742 
L 108.545388 191.626906 
L 108.665586 201.338105 
L 108.785784 200.93194 
L 108.905982 184.476709 
L 109.146378 194.312201 
L 109.266576 200.552521 
L 109.506972 176.557324 
L 109.747367 189.02599 
L 109.867565 186.944557 
L 110.107961 178.517535 
L 110.228159 187.632305 
L 110.348357 179.493248 
L 110.468555 192.190266 
L 110.588753 191.546397 
L 110.708951 189.364147 
L 110.829149 184.985027 
L 110.949347 190.005803 
L 111.069544 189.70403 
L 111.189742 196.533167 
L 111.430138 181.999584 
L 111.550336 195.390199 
L 111.790732 181.425742 
L 111.91093 192.085224 
L 112.031128 179.742852 
L 112.151326 190.480287 
L 112.271524 189.892217 
L 112.511919 186.048054 
L 112.632117 187.588322 
L 112.752315 185.538683 
L 112.872513 181.119345 
L 112.992711 193.22091 
L 113.112909 190.379595 
L 113.233107 193.163323 
L 113.353305 181.876927 
L 113.473503 191.319636 
L 113.5937 181.589974 
L 113.713898 187.302399 
L 113.834096 181.916364 
L 113.954294 197.114472 
L 114.074492 196.863317 
L 114.435086 181.781468 
L 114.555284 196.238603 
L 114.915877 92.457474 
L 115.036075 219.065972 
L 115.156273 219.812934 
L 115.276471 173.489283 
L 115.396669 194.266091 
L 115.516867 193.505631 
L 115.757263 166.545425 
L 115.877461 192.791758 
L 115.997659 186.933315 
L 116.238054 188.634277 
L 116.358252 203.532893 
L 116.47845 165.842318 
L 116.598648 204.666924 
L 116.718846 195.274723 
L 116.839044 164.534334 
L 117.319836 201.195535 
L 117.440033 171.793706 
L 117.560231 194.966597 
L 117.680429 181.95877 
L 117.800627 210.981531 
L 118.041023 169.490552 
L 118.161221 183.047208 
L 118.281419 182.781615 
L 118.401617 188.596029 
L 118.521815 187.532402 
L 118.642013 192.474379 
L 118.76221 192.728347 
L 119.002606 174.405132 
L 119.122804 182.232942 
L 119.243002 204.073563 
L 119.3632 183.578477 
L 119.483398 184.140725 
L 119.603596 189.044497 
L 119.723794 185.959673 
L 119.96419 168.753719 
L 120.204585 187.326659 
L 120.324783 187.365653 
L 120.444981 186.561726 
L 120.565179 184.865078 
L 120.685377 178.018537 
L 120.805575 188.285493 
L 120.925773 180.539606 
L 121.045971 181.255101 
L 121.286366 176.865805 
L 121.406564 185.263719 
L 121.526762 179.732715 
L 121.767158 193.207763 
L 121.887356 183.064408 
L 122.007554 183.423963 
L 122.127752 189.014205 
L 122.24795 187.753611 
L 122.368148 182.461804 
L 122.608543 190.807787 
L 122.728741 191.769678 
L 122.848939 191.296026 
L 122.969137 180.35011 
L 123.089335 187.76066 
L 123.209533 157.523099 
L 123.329731 192.303874 
L 123.449929 172.183779 
L 123.570127 183.34715 
L 123.810523 179.1525 
L 123.93072 177.286458 
L 124.050918 182.292155 
L 124.171116 180.360821 
L 124.291314 176.60299 
L 124.411512 185.008718 
L 124.53171 184.346559 
L 124.651908 179.813554 
L 124.772106 181.62991 
L 124.892304 186.295532 
L 125.012502 183.659036 
L 125.1327 185.244237 
L 125.252897 188.910874 
L 125.373095 184.029547 
L 125.493293 184.834898 
L 125.613491 183.619222 
L 125.733689 183.959406 
L 125.853887 181.377355 
L 125.974085 170.952142 
L 126.094283 179.077147 
L 126.214481 179.521661 
L 126.334679 166.737446 
L 126.454876 188.081888 
L 126.695272 180.503837 
L 126.81547 179.619342 
L 126.935668 180.205867 
L 127.055866 178.588688 
L 127.176064 171.697148 
L 127.296262 206.949292 
L 127.536658 178.536939 
L 127.897251 197.047859 
L 128.017449 188.690107 
L 128.257845 193.152559 
L 128.378043 203.858004 
L 128.498241 185.265947 
L 128.738637 190.278564 
L 128.979033 186.601206 
L 129.219428 196.137647 
L 129.459824 186.874442 
L 129.580022 187.845957 
L 129.820418 183.483053 
L 129.940616 193.594078 
L 130.060814 181.272136 
L 130.181012 185.833004 
L 130.301209 186.061066 
L 130.421407 181.769218 
L 130.541605 191.859792 
L 130.661803 188.54971 
L 130.782001 176.337907 
L 130.902199 179.432903 
L 131.022397 177.643615 
L 131.142595 182.755858 
L 131.262793 180.273906 
L 131.382991 182.05259 
L 131.503189 181.819284 
L 131.623386 183.329771 
L 131.863782 174.258862 
L 131.98398 182.184777 
L 132.104178 179.813948 
L 132.224376 166.389856 
L 132.344574 184.003514 
L 132.464772 184.381132 
L 132.58497 176.057097 
L 132.945563 182.327656 
L 133.065761 190.866547 
L 133.306157 180.011829 
L 133.426355 194.522197 
L 133.546553 178.12986 
L 133.666751 181.611833 
L 133.786949 176.87025 
L 133.907147 195.582347 
L 134.027345 194.986561 
L 134.26774 180.032233 
L 134.508136 195.51141 
L 134.628334 186.975663 
L 134.748532 194.471912 
L 134.86873 186.090136 
L 134.988928 199.043714 
L 135.109126 193.002034 
L 135.229324 171.854757 
L 135.469719 191.001174 
L 135.589917 184.727757 
L 135.710115 189.765528 
L 135.830313 189.860834 
L 136.070709 196.366107 
L 136.311105 180.617586 
L 136.431303 180.078751 
L 136.551501 180.245859 
L 136.671699 208.532767 
L 136.791896 191.958049 
L 136.912094 193.271863 
L 137.032292 189.916209 
L 137.15249 192.342302 
L 137.272688 175.894461 
L 137.513084 186.674632 
L 137.75348 197.722416 
L 137.873678 195.680872 
L 137.993876 183.124316 
L 138.114073 190.680454 
L 138.234271 175.794808 
L 138.354469 208.585229 
L 138.474667 187.209269 
L 138.594865 187.648241 
L 138.715063 192.620369 
L 138.835261 186.823367 
L 139.075657 198.94129 
L 139.195855 177.344257 
L 139.316052 184.969777 
L 139.43625 182.613314 
L 139.676646 192.287701 
L 139.796844 180.224471 
L 139.917042 180.721149 
L 140.03724 188.947054 
L 140.157438 181.620195 
L 140.277636 190.520833 
L 140.518032 177.524629 
L 140.638229 189.388209 
L 140.758427 184.353311 
L 140.998823 194.531523 
L 141.239219 177.072577 
L 141.359417 193.403161 
L 141.479615 176.76584 
L 141.599813 189.386086 
L 141.720011 184.659853 
L 141.840209 190.813131 
L 141.960406 184.959415 
L 142.080604 194.609473 
L 142.441198 174.768382 
L 142.561396 185.802641 
L 142.681594 182.905212 
L 142.92199 187.302822 
L 143.042188 176.122738 
L 143.162385 182.346392 
L 143.282583 170.55764 
L 143.402781 195.103902 
L 143.763375 176.948565 
L 143.883573 171.878469 
L 144.003771 189.17989 
L 144.123969 180.187337 
L 144.244167 189.598479 
L 144.484562 181.796425 
L 144.60476 180.72076 
L 144.965354 156.303326 
L 145.085552 205.96024 
L 145.20575 158.183753 
L 145.446146 214.786348 
L 145.686542 174.931941 
L 145.926937 191.258846 
L 146.047135 177.741748 
L 146.167333 197.253515 
L 146.407729 183.626454 
L 146.527927 180.183065 
L 146.648125 195.092125 
L 146.768323 185.533273 
L 146.888521 188.564946 
L 147.128916 181.071444 
L 147.249114 180.891589 
L 147.369312 182.83105 
L 147.48951 177.429865 
L 147.609708 194.199745 
L 147.729906 184.831077 
L 147.850104 203.197485 
L 148.210698 174.244854 
L 148.451093 182.710671 
L 148.571291 205.192481 
L 148.811687 182.77187 
L 148.931885 184.232208 
L 149.052083 181.208792 
L 149.292479 214.592518 
L 149.412677 188.438196 
L 149.653072 186.071724 
L 149.77327 194.346261 
L 149.893468 187.929077 
L 150.013666 195.478998 
L 150.133864 192.857892 
L 150.254062 185.715396 
L 150.37426 193.608473 
L 150.494458 191.61197 
L 150.614656 183.14361 
L 150.975249 196.586899 
L 151.335843 176.531519 
L 151.456041 183.756984 
L 151.576239 183.051529 
L 151.696437 186.489119 
L 151.816635 186.683564 
L 151.936833 182.639598 
L 152.057031 187.025571 
L 152.177228 183.826185 
L 152.297426 192.574653 
L 152.417624 192.41061 
L 152.778218 176.946733 
L 152.898416 192.725313 
L 153.018614 183.824956 
L 153.138812 206.086662 
L 153.25901 195.769002 
L 153.379208 196.068127 
L 153.499405 207.405963 
L 153.619603 181.421177 
L 153.739801 187.832249 
L 153.859999 187.633992 
L 153.980197 197.492124 
L 154.100395 171.523787 
L 154.220593 172.495465 
L 154.340791 184.641135 
L 154.460989 184.559939 
L 154.581187 193.015146 
L 154.701385 180.167754 
L 154.821582 188.736353 
L 154.94178 156.626258 
L 155.061978 204.909016 
L 155.182176 199.028596 
L 155.302374 184.767368 
L 155.54277 193.466529 
L 155.783166 167.889374 
L 156.143759 199.198456 
L 156.263957 185.208333 
L 156.384155 186.259202 
L 156.504353 178.215396 
L 156.624551 188.784924 
L 156.864947 184.86093 
L 156.985145 183.142592 
L 157.105343 184.399694 
L 157.225541 203.529854 
L 157.465936 177.055393 
L 157.586134 181.507456 
L 157.82653 170.422513 
L 157.946728 168.240928 
L 158.187124 181.70353 
L 158.42752 182.756926 
L 158.667915 190.413341 
L 158.788113 185.440524 
L 158.908311 187.377799 
L 159.268905 177.878312 
L 159.509301 185.375108 
L 159.629499 181.718902 
L 159.749697 189.97314 
L 159.869894 184.807958 
L 159.990092 186.169343 
L 160.11029 190.11681 
L 160.350686 171.844519 
L 160.591082 204.657736 
L 160.71128 184.198555 
L 160.831478 185.464574 
L 160.951676 183.968211 
L 161.192071 175.830561 
L 161.312269 181.769827 
L 161.432467 181.93743 
L 161.552665 180.326654 
L 161.672863 183.53481 
L 161.793061 182.070601 
L 161.913259 187.287128 
L 162.033457 177.030419 
L 162.273853 185.14888 
L 162.394051 182.712644 
L 162.514248 182.909326 
L 162.634446 179.425477 
L 162.754644 179.879068 
L 162.874842 182.023192 
L 162.99504 179.701264 
L 163.115238 183.762082 
L 163.235436 201.587669 
L 163.355634 183.005068 
L 163.475832 194.286208 
L 163.716227 165.431387 
L 163.836425 204.795676 
L 164.076821 159.916512 
L 164.197019 170.775536 
L 164.317217 166.155897 
L 164.437415 170.060024 
L 164.677811 186.45086 
L 164.798009 182.590182 
L 164.918207 153.264502 
L 165.038404 169.414747 
L 165.158602 150.318911 
L 165.2788 200.359125 
L 165.519196 179.421806 
L 165.759592 200.057894 
L 165.999988 172.326502 
L 166.120186 189.547395 
L 166.360581 165.642756 
L 166.480779 181.35331 
L 166.600977 179.898218 
L 166.721175 185.415487 
L 166.841373 196.323663 
L 166.961571 193.184049 
L 167.081769 224.825017 
L 167.322165 182.658262 
L 167.442363 191.355736 
L 167.56256 182.83557 
L 167.682758 194.326285 
L 167.923154 189.259345 
L 168.043352 221.248187 
L 168.16355 188.151886 
L 168.283748 189.216835 
L 168.403946 176.407062 
L 168.524144 177.115428 
L 168.644342 184.608728 
L 168.76454 179.362833 
L 168.884737 156.918404 
L 169.004935 183.92714 
L 169.125133 177.539052 
L 169.245331 183.615933 
L 169.485727 177.909531 
L 169.605925 192.713247 
L 169.726123 180.072215 
L 169.846321 187.667309 
L 169.966519 174.160333 
L 170.206914 194.307354 
L 170.44731 164.442918 
L 170.567508 207.274527 
L 170.687706 191.341094 
L 170.807904 196.792876 
L 170.928102 189.245976 
L 171.0483 191.684378 
L 171.168498 213.529522 
L 171.408894 181.097937 
L 171.649289 185.788073 
L 171.769487 196.132172 
L 171.889685 196.782317 
L 172.009883 176.830067 
L 172.130081 184.671674 
L 172.250279 204.980893 
L 172.370477 190.581171 
L 172.610873 197.514168 
L 172.73107 177.605866 
L 172.851268 192.43022 
L 172.971466 188.182025 
L 173.091664 204.357732 
L 173.211862 188.676496 
L 173.33206 194.341442 
L 173.572456 177.57029 
L 173.692654 181.62504 
L 173.93305 200.874076 
L 174.173445 178.763822 
L 174.293643 191.934584 
L 174.774435 162.058363 
L 174.894633 213.985978 
L 175.014831 204.91498 
L 175.135029 219.675321 
L 175.255227 206.530964 
L 175.375424 180.853493 
L 175.495622 189.924469 
L 175.61582 171.675639 
L 175.856216 176.464072 
L 175.976414 191.930749 
L 176.096612 192.541322 
L 176.21681 180.066878 
L 176.457206 183.3178 
L 176.577403 202.650324 
L 176.697601 178.234839 
L 176.817799 208.865031 
L 177.058195 155.474356 
L 177.298591 207.984263 
L 177.418789 207.86235 
L 177.538987 177.000168 
L 177.659185 177.495189 
L 177.779383 150.057917 
L 177.89958 162.703133 
L 178.019778 187.790272 
L 178.139976 186.061521 
L 178.260174 230.674272 
L 178.380372 229.330861 
L 178.50057 196.419 
L 178.620768 194.96387 
L 178.740966 228.962623 
L 178.861164 175.333053 
L 178.981362 194.870458 
L 179.10156 193.58681 
L 179.341955 202.269997 
L 179.462153 194.703063 
L 179.582351 194.73416 
L 179.702549 222.627623 
L 179.822747 165.308518 
L 179.942945 237.568666 
L 180.063143 178.844872 
L 180.183341 211.011934 
L 180.303539 161.246969 
L 180.423736 209.336001 
L 180.543934 183.664946 
L 180.664132 194.650152 
L 180.78433 238.796814 
L 181.024726 173.84522 
L 181.144924 182.324031 
L 181.265122 224.534121 
L 181.38532 179.810023 
L 181.505518 190.097234 
L 181.625716 210.088045 
L 181.866111 184.417995 
L 181.986309 180.333994 
L 182.226705 151.253727 
L 182.346903 200.557569 
L 182.467101 178.076058 
L 182.827695 202.584552 
L 182.947893 195.05237 
L 183.06809 173.998595 
L 183.188288 185.929549 
L 183.308486 212.207689 
L 183.548882 194.608934 
L 183.66908 192.979519 
L 183.789278 178.416761 
L 183.909476 193.310714 
L 184.029674 182.316245 
L 184.27007 191.178349 
L 184.390267 181.87034 
L 184.510465 189.571755 
L 184.630663 183.355347 
L 184.871059 195.163322 
L 184.991257 182.357926 
L 185.231653 200.191289 
L 185.351851 179.293043 
L 185.592246 193.186693 
L 185.712444 190.047539 
L 185.95284 208.457066 
L 186.073038 241.067405 
L 186.193236 176.051212 
L 186.313434 190.448728 
L 186.433632 190.886137 
L 186.674028 199.923358 
L 186.794226 178.389924 
L 186.914423 178.884604 
L 187.034621 199.860311 
L 187.154819 200.354082 
L 187.275017 172.696976 
L 187.395215 190.658652 
L 187.635611 169.294284 
L 187.755809 207.614207 
L 187.876007 202.093266 
L 187.996205 172.814819 
L 188.2366 213.888087 
L 188.597194 178.779243 
L 188.83759 188.92397 
L 188.957788 224.093786 
L 189.077986 169.89543 
L 189.198184 169.954997 
L 189.558777 189.139154 
L 189.678975 188.82226 
L 189.799173 175.885464 
L 189.919371 194.889469 
L 190.039569 193.107618 
L 190.159767 249.356241 
L 190.279965 228.71736 
L 190.400163 166.291822 
L 190.520361 228.433045 
L 190.640559 175.78549 
L 190.880954 204.20502 
L 191.001152 143.017274 
L 191.12135 160.428894 
L 191.241548 195.667347 
L 191.361746 187.63699 
L 191.481944 206.711266 
L 191.602142 192.613281 
L 191.842538 146.977509 
L 191.962736 191.809696 
L 192.203131 162.266053 
L 192.323329 198.312767 
L 192.563725 171.054546 
L 192.683923 169.544081 
L 192.804121 201.201973 
L 193.044517 160.738802 
L 193.40511 202.881691 
L 193.525308 191.449652 
L 193.645506 136.882062 
L 193.885902 159.900674 
L 194.0061 204.213534 
L 194.126298 174.379278 
L 194.246496 186.161655 
L 194.486892 163.56873 
L 194.727287 200.8352 
L 194.847485 180.576391 
L 194.967683 184.171003 
L 195.087881 183.500428 
L 195.208079 195.270505 
L 195.328277 176.063742 
L 195.448475 220.280155 
L 195.568673 183.572635 
L 195.688871 188.40714 
L 195.809069 178.276048 
L 196.049464 196.444256 
L 196.28986 183.437458 
L 196.410058 192.673375 
L 196.530256 180.726306 
L 196.650454 196.825154 
L 196.770652 165.459018 
L 196.89085 182.046206 
L 197.011048 180.656902 
L 197.131245 169.554689 
L 197.251443 175.174393 
L 197.371641 171.969988 
L 197.612037 197.94436 
L 197.732235 117.486838 
L 197.972631 179.532254 
L 198.092829 188.638954 
L 198.213027 168.859475 
L 198.453422 171.119502 
L 198.57362 184.40596 
L 198.814016 157.711794 
L 198.934214 116.814707 
L 199.054412 202.027232 
L 199.17461 180.009785 
L 199.294808 184.85283 
L 199.535204 210.263892 
L 199.655402 144.085311 
L 199.895797 201.057895 
L 200.015995 182.782609 
L 200.136193 194.190685 
L 200.256391 166.915888 
L 200.496787 209.16436 
L 200.616985 188.637742 
L 200.737183 213.833425 
L 200.857381 209.603651 
L 200.977579 223.773728 
L 201.097776 193.541766 
L 201.217974 196.292182 
L 201.338172 208.211923 
L 201.45837 197.450755 
L 201.578568 202.697148 
L 201.698766 264.716 
L 201.818964 121.058187 
L 201.939162 223.964394 
L 202.05936 226.799228 
L 202.179558 194.519645 
L 202.299755 238.809214 
L 202.419953 211.804153 
L 202.540151 215.628278 
L 202.660349 179.356871 
L 202.780547 180.085133 
L 202.900745 190.981175 
L 203.020943 213.355675 
L 203.141141 211.299281 
L 203.261339 86.585337 
L 203.381537 175.058385 
L 203.501735 164.138094 
L 203.621932 168.484055 
L 203.74213 248.071696 
L 203.862328 30.003585 
L 204.102724 203.589287 
L 204.34312 170.268014 
L 204.463318 185.64067 
L 204.703714 171.990301 
L 204.944109 183.506486 
L 205.064307 182.502804 
L 205.304703 194.671526 
L 205.424901 194.718153 
L 205.545099 177.89121 
L 205.665297 189.180589 
L 205.905693 177.344579 
L 206.025891 206.720018 
L 206.266286 184.660604 
L 206.386484 187.940169 
L 206.506682 184.28668 
L 206.62688 184.06727 
L 206.747078 177.725447 
L 206.867276 191.018613 
L 206.987474 187.3075 
L 207.107672 203.405503 
L 207.348068 187.941161 
L 207.468265 203.094881 
L 207.708661 192.036963 
L 207.828859 188.54869 
L 207.949057 188.600984 
L 208.069255 191.782323 
L 208.309651 170.849319 
L 208.550047 187.984419 
L 208.670245 178.047025 
L 208.790442 183.223494 
L 208.91064 171.285506 
L 209.271234 194.866462 
L 209.391432 196.861931 
L 209.51163 180.14077 
L 209.631828 182.698389 
L 209.752026 188.762913 
L 209.872224 201.952369 
L 209.992421 178.972102 
L 210.112619 191.933682 
L 210.353015 236.279193 
L 210.473213 186.027985 
L 210.593411 191.459417 
L 210.713609 180.825523 
L 210.833807 201.157791 
L 210.954005 177.581694 
L 211.314598 212.795004 
L 211.434796 164.930222 
L 211.554994 202.941454 
L 211.915588 170.027352 
L 212.035786 200.226 
L 212.155984 188.892898 
L 212.276182 165.217354 
L 212.39638 183.470486 
L 212.516578 161.290242 
L 212.636775 170.885142 
L 212.756973 190.556094 
L 212.877171 183.46266 
L 212.997369 198.934333 
L 213.117567 174.709747 
L 213.357963 217.143769 
L 213.478161 196.322524 
L 213.718557 198.466158 
L 213.838755 190.908229 
L 213.958952 172.749288 
L 214.199348 186.574896 
L 214.319546 180.636324 
L 214.439744 222.45906 
L 214.68014 192.005104 
L 214.800338 171.674655 
L 214.920536 177.038261 
L 215.040734 207.383089 
L 215.281129 200.378473 
L 215.401327 186.260394 
L 215.521525 206.522143 
L 215.641723 181.038892 
L 215.761921 188.530619 
L 215.882119 185.436635 
L 216.122515 203.816021 
L 216.242713 169.098157 
L 216.483108 205.90926 
L 216.603306 175.007585 
L 216.723504 189.589272 
L 216.843702 174.770907 
L 216.9639 202.357526 
L 217.084098 176.914413 
L 217.204296 199.988263 
L 217.56489 173.376417 
L 217.685088 187.172621 
L 217.805285 184.334004 
L 217.925483 177.737014 
L 218.045681 191.985756 
L 218.165879 179.145016 
L 218.286077 189.775765 
L 218.766869 182.627208 
L 218.887067 181.325575 
L 219.007264 176.987313 
L 219.24766 200.128432 
L 219.488056 184.775476 
L 219.608254 203.875118 
L 219.728452 176.800135 
L 219.84865 255.819501 
L 220.089046 147.251033 
L 220.329441 213.398219 
L 220.569837 170.659373 
L 220.690035 174.813368 
L 220.810233 208.14635 
L 221.050629 176.719459 
L 221.170827 226.456007 
L 221.411223 186.075523 
L 221.531421 182.306654 
L 221.651618 187.94968 
L 221.771816 205.360364 
L 221.892014 173.120653 
L 222.012212 190.93796 
L 222.13241 134.649526 
L 222.252608 194.076174 
L 222.372806 189.131253 
L 222.493004 210.613216 
L 222.7334 177.539565 
L 222.853597 192.606886 
L 222.973795 153.668304 
L 223.214191 236.998662 
L 223.334389 231.863193 
L 223.574785 182.18208 
L 223.694983 196.388317 
L 223.815181 179.549461 
L 224.175774 203.956946 
L 224.295972 171.600409 
L 224.41617 188.508649 
L 224.536368 180.103318 
L 224.656566 182.238853 
L 224.776764 203.643642 
L 224.896962 199.615479 
L 225.01716 188.551235 
L 225.137358 203.304803 
L 225.257556 177.178154 
L 225.497951 190.510174 
L 225.618149 192.047288 
L 225.738347 173.122442 
L 225.858545 172.782873 
L 225.978743 175.755689 
L 226.098941 199.023074 
L 226.219139 173.082265 
L 226.339337 188.065296 
L 226.459535 178.379124 
L 226.579733 177.766447 
L 226.69993 200.218326 
L 226.820128 162.132708 
L 227.060524 184.806949 
L 227.180722 170.969518 
L 227.30092 172.391323 
L 227.541316 206.196206 
L 227.781712 177.54773 
L 228.022107 196.822703 
L 228.262503 189.711074 
L 228.382701 185.47656 
L 228.502899 194.229928 
L 228.623097 187.732953 
L 228.743295 188.376233 
L 229.103889 196.451884 
L 229.344284 205.85024 
L 229.464482 212.246239 
L 229.58468 169.689857 
L 229.704878 178.881994 
L 229.825076 167.417076 
L 229.945274 184.196376 
L 230.065472 173.302059 
L 230.426066 199.438602 
L 230.546264 169.559498 
L 230.666461 167.516552 
L 230.786659 192.363015 
L 230.906857 182.336978 
L 231.027055 190.250085 
L 231.147253 172.397443 
L 231.267451 208.47898 
L 231.387649 156.686733 
L 231.507847 196.50854 
L 231.628045 140.492392 
L 231.86844 193.636294 
L 231.988638 199.76914 
L 232.108836 226.661746 
L 232.229034 187.250563 
L 232.349232 202.703204 
L 232.46943 196.76071 
L 232.589628 205.031273 
L 232.709826 174.990726 
L 232.830024 201.467346 
L 233.07042 197.217576 
L 233.190617 179.702514 
L 233.431013 180.977915 
L 233.551211 190.520035 
L 233.671409 182.777537 
L 233.791607 185.273131 
L 233.911805 199.392018 
L 234.032003 176.127212 
L 234.272399 182.596202 
L 234.392597 189.856554 
L 234.512794 212.565758 
L 234.632992 159.235355 
L 234.75319 178.284112 
L 234.873388 170.292746 
L 234.993586 169.875029 
L 235.113784 167.316091 
L 235.233982 168.256144 
L 235.35418 209.748246 
L 235.474378 210.928572 
L 235.594576 172.357859 
L 235.714773 188.900218 
L 235.955169 158.382233 
L 236.195565 182.608511 
L 236.315763 182.771969 
L 236.435961 161.629702 
L 236.556159 203.43085 
L 236.676357 168.034782 
L 236.796555 195.55491 
L 236.916753 176.68048 
L 237.03695 178.13476 
L 237.157148 174.7267 
L 237.277346 205.7305 
L 237.397544 163.69318 
L 237.517742 182.893476 
L 237.63794 183.676273 
L 237.878336 172.48085 
L 237.998534 175.582104 
L 238.118732 201.750098 
L 238.23893 196.491636 
L 238.359127 183.730495 
L 238.479325 189.360176 
L 238.599523 184.450127 
L 238.719721 187.325185 
L 238.839919 184.787301 
L 238.960117 193.56747 
L 239.080315 191.631055 
L 239.200513 193.243823 
L 239.320711 188.115517 
L 239.440909 191.288189 
L 239.561106 181.288754 
L 239.681304 181.649704 
L 239.801502 185.640779 
L 239.9217 173.738028 
L 240.282294 199.132888 
L 240.402492 168.112002 
L 240.52269 171.275338 
L 240.642888 189.99954 
L 240.763086 177.316006 
L 240.883283 199.484115 
L 241.003481 185.330643 
L 241.123679 197.593521 
L 241.243877 184.478089 
L 241.484273 199.849268 
L 241.604471 172.17276 
L 241.724669 173.567046 
L 241.844867 198.316983 
L 241.965065 179.625628 
L 242.085263 196.847623 
L 242.20546 167.651735 
L 242.325658 176.307267 
L 242.445856 165.223195 
L 242.686252 191.858475 
L 242.80645 188.16154 
L 242.926648 192.27443 
L 243.046846 179.603888 
L 243.167044 195.572494 
L 243.287242 163.179953 
L 243.40744 172.257421 
L 243.647835 198.153901 
L 243.768033 180.722296 
L 243.888231 194.672029 
L 244.008429 164.51732 
L 244.128627 184.787402 
L 244.248825 243.481468 
L 244.489221 191.766726 
L 244.609419 191.970709 
L 244.729616 181.949894 
L 244.970012 194.934274 
L 245.210408 178.984826 
L 245.330606 205.561716 
L 245.450804 166.295416 
L 245.571002 184.093924 
L 245.6912 185.35509 
L 245.811398 181.996158 
L 245.931596 191.297803 
L 246.171991 165.461199 
L 246.292189 194.045348 
L 246.532585 181.564215 
L 246.652783 183.872457 
L 246.772981 182.094713 
L 247.013377 194.079354 
L 247.133575 187.548548 
L 247.253773 196.417 
L 247.614366 171.754852 
L 247.854762 184.437816 
L 247.97496 186.04912 
L 248.095158 174.73533 
L 248.215356 206.814491 
L 248.335554 184.16576 
L 248.455752 207.507907 
L 248.575949 171.882955 
L 248.696147 171.444708 
L 248.816345 195.47992 
L 249.056741 178.883536 
L 249.176939 185.679415 
L 249.297137 185.524155 
L 249.537533 172.644682 
L 249.657731 179.592699 
L 249.777929 197.459405 
L 249.898126 185.177488 
L 250.018324 188.564161 
L 250.138522 186.269651 
L 250.25872 196.273976 
L 250.739512 173.122931 
L 251.220303 195.865372 
L 251.340501 179.675803 
L 251.460699 185.388559 
L 251.580897 181.690367 
L 251.701095 190.979053 
L 251.821293 187.715388 
L 251.941491 191.026541 
L 252.061689 189.353869 
L 252.181887 186.066211 
L 252.302085 175.131862 
L 252.54248 183.430357 
L 252.662678 182.010479 
L 252.782876 178.547717 
L 252.903074 189.498098 
L 253.023272 180.988348 
L 253.14347 182.465843 
L 253.263668 175.899648 
L 253.383866 183.325459 
L 253.504064 178.330976 
L 253.744459 181.511765 
L 253.864657 188.171234 
L 253.984855 176.004697 
L 254.105053 189.270586 
L 254.225251 173.369489 
L 254.345449 184.396518 
L 254.585845 169.737352 
L 255.066636 181.853269 
L 255.186834 179.189208 
L 255.307032 183.127384 
L 255.547428 173.08102 
L 255.667626 181.255991 
L 255.787824 173.85406 
L 255.908022 184.663852 
L 256.02822 175.47824 
L 256.268615 181.595547 
L 256.388813 178.71663 
L 256.509011 178.626053 
L 256.629209 179.025647 
L 256.869605 191.907112 
L 256.989803 186.497362 
L 257.110001 204.684778 
L 257.230199 175.493648 
L 257.590792 195.409735 
L 257.71099 194.640923 
L 257.831188 177.138801 
L 257.951386 198.693209 
L 258.071584 190.671673 
L 258.191782 192.05851 
L 258.31198 206.448665 
L 258.432178 186.181302 
L 258.552376 197.041227 
L 258.792772 182.580203 
L 258.912969 185.512977 
L 259.033167 198.929979 
L 259.393761 180.101082 
L 259.634157 191.580988 
L 259.754355 185.143651 
L 259.874553 188.571136 
L 259.994751 185.199101 
L 260.235146 190.834881 
L 260.59574 179.412262 
L 260.836136 202.702593 
L 261.19673 178.48021 
L 261.316928 182.361703 
L 261.437125 173.517481 
L 261.677521 192.312484 
L 261.797719 190.718561 
L 261.917917 182.578497 
L 262.278511 195.190615 
L 262.398709 189.875881 
L 262.518907 174.176962 
L 262.759302 192.340485 
L 262.8795 187.430774 
L 262.999698 176.889718 
L 263.119896 179.994641 
L 263.48049 199.231847 
L 263.841084 181.475811 
L 263.961282 181.620578 
L 264.081479 195.631736 
L 264.321875 180.380846 
L 264.442073 193.54451 
L 264.562271 182.575557 
L 264.682469 195.596178 
L 264.922865 187.580492 
L 265.043063 188.946994 
L 265.163261 182.396872 
L 265.283458 184.311471 
L 265.403656 179.45981 
L 265.644052 221.64516 
L 265.884448 174.224144 
L 266.004646 186.785843 
L 266.124844 193.653202 
L 266.245042 171.451377 
L 266.36524 190.762015 
L 266.605635 162.42655 
L 266.846031 189.67238 
L 266.966229 167.01162 
L 267.206625 197.602728 
L 267.326823 185.182303 
L 267.447021 193.283235 
L 267.567219 191.379677 
L 267.687417 175.26749 
L 267.807615 177.833871 
L 267.927812 188.815534 
L 268.04801 134.49298 
L 268.288406 176.445076 
L 268.408604 178.431586 
L 268.528802 201.285241 
L 268.649 183.686142 
L 268.769198 185.799648 
L 268.889396 185.425225 
L 269.009594 188.297198 
L 269.129791 181.485081 
L 269.249989 185.563748 
L 269.490385 195.347321 
L 269.730781 186.142482 
L 269.850979 180.334738 
L 269.971177 181.561907 
L 270.091375 186.276836 
L 270.211573 185.2087 
L 270.331771 174.553045 
L 270.572166 192.704045 
L 270.93276 178.484858 
L 271.173156 183.771687 
L 271.293354 183.427 
L 271.413552 186.210428 
L 271.53375 198.685443 
L 271.653948 179.359554 
L 271.774145 179.343785 
L 271.894343 200.84494 
L 272.014541 184.841615 
L 272.254937 197.950504 
L 272.495333 168.34608 
L 272.735729 190.954151 
L 272.855927 189.33927 
L 272.976124 190.128697 
L 273.096322 187.384017 
L 273.21652 197.243845 
L 273.456916 182.976323 
L 273.577114 190.991003 
L 273.697312 177.051362 
L 273.81751 181.963401 
L 273.937708 193.749649 
L 274.057906 191.761432 
L 274.178104 179.996013 
L 274.298301 181.28795 
L 274.418499 187.504704 
L 274.538697 179.576339 
L 274.658895 187.681909 
L 274.779093 177.998805 
L 274.899291 182.092305 
L 275.019489 149.028219 
L 275.259885 194.608088 
L 275.500281 182.699371 
L 275.620478 183.17117 
L 275.740676 195.157164 
L 275.860874 188.541058 
L 275.981072 191.890255 
L 276.10127 191.399222 
L 276.221468 185.3476 
L 276.341666 198.988258 
L 276.582062 184.044774 
L 276.70226 185.776123 
L 276.822458 180.976287 
L 276.942655 183.43866 
L 277.062853 164.269691 
L 277.183051 186.066247 
L 277.423447 176.005492 
L 277.543645 203.131415 
L 277.784041 184.416749 
L 277.904239 203.676083 
L 278.024437 184.842725 
L 278.144634 116.459778 
L 278.264832 232.187476 
L 278.505228 196.642067 
L 278.625426 188.794021 
L 278.745624 190.464659 
L 278.865822 182.418097 
L 278.98602 181.972043 
L 279.106218 188.029771 
L 279.346614 180.204869 
L 279.466811 179.44864 
L 279.707207 184.248693 
L 279.827405 186.049477 
L 279.947603 174.124128 
L 280.067801 179.093602 
L 280.187999 179.006672 
L 280.308197 184.355465 
L 280.428395 178.650852 
L 280.788988 188.361674 
L 280.909186 173.657898 
L 281.029384 182.903471 
L 281.149582 169.975493 
L 281.26978 177.270127 
L 281.389978 176.772445 
L 281.510176 179.610819 
L 281.630374 179.517268 
L 281.87077 186.014312 
L 282.111165 188.337245 
L 282.231363 177.980905 
L 282.351561 190.451725 
L 282.591957 181.28601 
L 282.712155 181.773697 
L 282.832353 181.445304 
L 282.952551 184.349495 
L 283.072749 169.222963 
L 283.313144 184.316935 
L 283.433342 178.061463 
L 283.55354 186.935036 
L 283.673738 175.990828 
L 283.793936 184.38528 
L 283.914134 183.832144 
L 284.034332 185.971338 
L 284.15453 185.02081 
L 284.274728 182.778208 
L 284.394926 184.599964 
L 284.515124 184.355473 
L 284.755519 179.750497 
L 284.875717 181.039877 
L 284.995915 186.170022 
L 285.236311 177.414546 
L 285.476707 182.607875 
L 285.596905 190.89458 
L 285.717103 180.037916 
L 285.8373 184.517218 
L 285.957498 181.163594 
L 286.197894 185.100689 
L 286.318092 188.848537 
L 286.43829 183.802847 
L 286.558488 172.748175 
L 286.678686 180.068972 
L 286.798884 175.745409 
L 287.03928 191.542884 
L 287.159477 184.512725 
L 287.279675 197.951693 
L 287.399873 186.986654 
L 287.520071 190.970145 
L 287.640269 199.751497 
L 287.880665 186.905287 
L 288.121061 217.809137 
L 288.241259 177.214007 
L 288.361457 177.02907 
L 288.601852 162.7466 
L 288.72205 164.895889 
L 288.962446 186.94516 
L 289.082644 170.486851 
L 289.32304 190.865867 
L 289.443238 191.799253 
L 289.563436 180.141734 
L 289.683634 188.042545 
L 289.803831 188.069265 
L 289.924029 201.272536 
L 290.044227 182.243549 
L 290.164425 188.649651 
L 290.284623 176.313686 
L 290.525019 203.644466 
L 290.645217 160.992966 
L 290.885613 189.335238 
L 291.00581 167.797068 
L 291.366404 192.19127 
L 291.486602 179.710568 
L 291.6068 195.794263 
L 291.726998 183.013166 
L 291.967394 213.797939 
L 292.20779 189.468625 
L 292.327987 192.948555 
L 292.448185 177.251929 
L 292.568383 192.652197 
L 292.688581 189.682187 
L 292.808779 197.618086 
L 292.928977 130.657667 
L 293.049175 137.264365 
L 293.169373 180.827333 
L 293.289571 181.211023 
L 293.529967 200.72628 
L 293.650164 179.548774 
L 293.770362 181.428888 
L 294.010758 202.308897 
L 294.371352 180.763692 
L 294.49155 186.119842 
L 294.731946 176.06302 
L 295.092539 198.870714 
L 295.212737 195.642204 
L 295.332935 189.242132 
L 295.573331 209.244944 
L 295.693529 210.542821 
L 295.813727 160.718153 
L 296.054123 191.814658 
L 296.17432 190.654229 
L 296.294518 179.992949 
L 296.414716 195.401659 
L 296.534914 182.433934 
L 296.655112 196.404604 
L 296.895508 189.764602 
L 297.015706 141.307911 
L 297.256102 178.216878 
L 297.3763 165.305021 
L 297.496497 191.348012 
L 297.736893 185.243882 
L 297.857091 186.012718 
L 297.977289 198.958623 
L 298.217685 166.546581 
L 298.337883 188.850233 
L 298.458081 232.516517 
L 298.578279 174.542894 
L 298.698476 194.050193 
L 298.818674 170.111429 
L 298.938872 186.30888 
L 299.179268 145.379099 
L 299.299466 200.262577 
L 299.419664 204.409566 
L 299.66006 163.083144 
L 299.780258 225.640322 
L 300.020653 192.130655 
L 300.140851 188.398392 
L 300.261049 193.249602 
L 300.381247 193.586995 
L 300.741841 174.24064 
L 300.862039 201.751744 
L 300.982237 163.246471 
L 301.222633 199.482505 
L 301.34283 207.125694 
L 301.463028 178.42112 
L 301.583226 188.92991 
L 301.703424 168.267213 
L 301.823622 196.549491 
L 301.94382 168.94716 
L 302.064018 189.259174 
L 302.184216 190.524881 
L 302.304414 177.990048 
L 302.424612 188.289805 
L 302.544809 185.205106 
L 302.665007 176.491811 
L 302.785205 184.296338 
L 303.025601 218.459725 
L 303.145799 190.885335 
L 303.265997 211.898843 
L 303.386195 197.653199 
L 303.506393 165.874639 
L 303.746789 197.144459 
L 303.866986 196.49737 
L 303.987184 197.565611 
L 304.107382 170.3085 
L 304.467976 207.395839 
L 304.588174 202.563003 
L 304.82857 194.333084 
L 304.948768 179.132826 
L 305.068966 191.549533 
L 305.189163 188.169244 
L 305.429559 191.549874 
L 305.549757 191.876843 
L 305.669955 171.910716 
L 305.790153 193.720443 
L 306.030549 189.774889 
L 306.150747 196.009059 
L 306.270945 172.987829 
L 306.51134 191.72135 
L 306.631538 188.71954 
L 306.751736 180.940688 
L 306.871934 197.416486 
L 306.992132 195.137498 
L 307.11233 184.160433 
L 307.232528 188.650836 
L 307.472924 180.313882 
L 307.593122 179.350967 
L 307.713319 182.793642 
L 307.833517 192.070924 
L 307.953715 180.018179 
L 308.194111 186.529614 
L 308.314309 158.649999 
L 308.434507 162.806893 
L 308.554705 178.526685 
L 308.674903 171.166113 
L 308.915299 204.18215 
L 309.035496 168.029863 
L 309.275892 196.722041 
L 309.39609 184.776266 
L 309.516288 195.173847 
L 309.636486 180.259858 
L 309.756684 180.984009 
L 309.99708 204.611296 
L 310.117278 203.981627 
L 310.237476 211.241121 
L 310.477871 185.624843 
L 310.598069 184.044928 
L 310.718267 184.189055 
L 310.838465 185.237266 
L 310.958663 196.082706 
L 311.199059 181.690494 
L 311.319257 184.944331 
L 311.439455 190.276868 
L 311.559652 183.723392 
L 311.67985 169.347886 
L 311.800048 186.889216 
L 311.920246 184.362166 
L 312.040444 188.557391 
L 312.160642 185.705901 
L 312.28084 190.008572 
L 312.401038 183.374124 
L 312.521236 196.231967 
L 312.761632 161.150672 
L 313.002027 186.477732 
L 313.122225 188.781524 
L 313.242423 188.180876 
L 313.362621 201.563379 
L 313.603017 194.547935 
L 313.723215 183.842611 
L 314.083809 191.403555 
L 314.204006 183.330608 
L 314.444402 184.648157 
L 314.684798 189.308514 
L 314.804996 183.103069 
L 314.925194 187.999855 
L 315.045392 183.552074 
L 315.16559 190.934247 
L 315.285788 186.779384 
L 315.526183 193.612988 
L 315.646381 183.627132 
L 315.886777 185.602738 
L 316.006975 183.533595 
L 316.247371 187.966288 
L 316.367569 185.72518 
L 316.487767 187.757723 
L 316.728162 236.317629 
L 316.84836 150.869778 
L 316.968558 255.456105 
L 317.208954 170.49201 
L 317.44935 187.904625 
L 317.569548 190.178002 
L 317.809944 187.177877 
L 317.930142 187.282434 
L 318.050339 189.49301 
L 318.410933 182.351351 
L 318.531131 188.669824 
L 318.651329 184.524141 
L 318.771527 188.451636 
L 318.891725 187.623824 
L 319.011923 190.217976 
L 319.132121 189.085515 
L 319.252319 186.345406 
L 319.372516 191.303348 
L 319.492714 178.676766 
L 319.612912 199.536619 
L 319.73311 184.035808 
L 320.093704 194.788724 
L 320.213902 182.821793 
L 320.3341 189.971787 
L 320.574495 185.880215 
L 320.694693 191.660434 
L 320.814891 185.367196 
L 320.935089 188.870367 
L 321.175485 185.962418 
L 321.295683 190.469093 
L 321.415881 188.642938 
L 321.536079 189.028483 
L 321.656277 182.722211 
L 321.776475 205.183437 
L 321.896672 181.097147 
L 322.137068 195.338307 
L 322.377464 187.134546 
L 322.497662 188.894734 
L 322.61786 187.935099 
L 322.738058 188.201899 
L 322.858256 187.889478 
L 322.978454 186.826556 
L 323.218849 190.237693 
L 323.339047 184.873585 
L 323.459245 193.476355 
L 323.699641 183.428034 
L 323.819839 185.279752 
L 323.940037 184.560751 
L 324.180433 192.984753 
L 324.420828 181.995705 
L 324.541026 197.817206 
L 324.781422 183.590705 
L 325.142016 199.10997 
L 325.262214 186.166902 
L 325.382412 193.476394 
L 325.50261 190.902188 
L 325.622808 183.101878 
L 325.743005 190.421764 
L 325.863203 182.51447 
L 325.983401 190.487272 
L 326.103599 184.40412 
L 326.343995 191.394275 
L 326.464193 191.481911 
L 326.584391 169.772056 
L 326.824787 193.446701 
L 326.944985 213.773925 
L 327.065182 165.5915 
L 327.305578 201.281499 
L 327.425776 194.009609 
L 327.666172 163.376927 
L 327.906568 191.832007 
L 328.146964 184.380194 
L 328.267161 185.277916 
L 328.387359 184.330946 
L 328.507557 193.005734 
L 328.627755 186.525562 
L 328.747953 192.631149 
L 328.868151 192.722637 
L 328.988349 183.629784 
L 329.108547 191.245479 
L 329.228745 189.522969 
L 329.469141 192.025832 
L 329.829734 183.298188 
L 329.949932 189.532314 
L 330.190328 182.85567 
L 330.310526 183.388311 
L 330.430724 189.468527 
L 330.550922 187.257315 
L 330.67112 192.467022 
L 330.911515 185.624092 
L 331.151911 190.313868 
L 331.272109 187.828178 
L 331.392307 179.462611 
L 331.632703 194.107401 
L 331.752901 176.23501 
L 331.993297 187.025965 
L 332.113494 186.366243 
L 332.233692 189.791044 
L 332.35389 185.283417 
L 332.474088 195.456496 
L 332.714484 189.683201 
L 332.834682 184.177625 
L 332.95488 186.251146 
L 333.195276 184.004798 
L 333.315474 193.246829 
L 333.435671 182.444079 
L 333.555869 181.836668 
L 333.676067 189.142557 
L 333.796265 188.816217 
L 333.916463 177.053241 
L 334.156859 187.071365 
L 334.277057 183.277191 
L 334.397255 189.540768 
L 334.517453 201.945449 
L 334.637651 183.095635 
L 334.878046 188.809105 
L 334.998244 190.608526 
L 335.118442 183.930341 
L 335.23864 185.726401 
L 335.358838 189.794154 
L 335.479036 188.929392 
L 335.599234 182.558935 
L 335.83963 195.724423 
L 336.080025 185.710666 
L 336.200223 183.593065 
L 336.320421 188.435188 
L 336.440619 184.392444 
L 336.560817 188.904928 
L 336.681015 188.338147 
L 336.801213 199.920758 
L 337.041609 173.258135 
L 337.282004 186.450393 
L 337.402202 187.261308 
L 337.5224 185.395947 
L 337.642598 181.319628 
L 337.762796 182.659496 
L 338.003192 190.734976 
L 338.12339 189.60366 
L 338.243588 191.585874 
L 338.363786 183.343672 
L 338.483984 191.610201 
L 338.724379 182.404069 
L 338.844577 182.760981 
L 338.964775 182.115821 
L 339.205171 190.564795 
L 339.685963 182.906862 
L 339.806161 190.621463 
L 340.046556 188.172055 
L 340.166754 189.706234 
L 340.286952 182.912825 
L 340.40715 187.02767 
L 340.527348 186.199331 
L 340.647546 189.985923 
L 340.887942 187.540902 
L 341.00814 188.591472 
L 341.128337 192.232227 
L 341.248535 175.049023 
L 341.368733 195.40961 
L 341.609129 184.98394 
L 341.729327 189.822022 
L 341.849525 187.461353 
L 341.969723 196.651754 
L 342.089921 193.539098 
L 342.210119 195.100363 
L 342.330317 183.136011 
L 342.450514 182.31331 
L 342.570712 184.314932 
L 342.69091 182.590943 
L 342.811108 190.973944 
L 342.931306 178.367338 
L 343.051504 195.344304 
L 343.2919 182.926978 
L 343.412098 196.487986 
L 343.532296 193.045105 
L 343.652494 184.363837 
L 343.892889 190.611051 
L 344.013087 186.276345 
L 344.133285 187.76173 
L 344.253483 178.266847 
L 344.373681 192.931998 
L 344.493879 180.171498 
L 344.734275 189.908606 
L 344.854473 190.81382 
L 344.97467 190.590268 
L 345.094868 183.995858 
L 345.215066 186.530786 
L 345.335264 186.606408 
L 345.455462 185.295663 
L 345.695858 191.982754 
L 345.816056 183.502293 
L 345.936254 193.280983 
L 346.056452 190.64639 
L 346.17665 191.50472 
L 346.296847 187.02525 
L 346.417045 186.988504 
L 346.537243 186.576086 
L 346.657441 190.49749 
L 346.777639 180.52589 
L 346.897837 190.165258 
L 347.018035 188.293263 
L 347.138233 192.546428 
L 347.258431 186.417302 
L 347.378629 192.516085 
L 347.498827 187.473059 
L 347.619024 192.80644 
L 347.739222 189.904025 
L 347.85942 194.766409 
L 347.979618 179.779714 
L 348.220014 189.862253 
L 348.340212 187.521434 
L 348.46041 192.394461 
L 348.580608 181.791136 
L 348.700806 185.546303 
L 348.821004 193.785076 
L 348.941201 186.844146 
L 349.061399 188.492798 
L 349.181597 182.094363 
L 349.421993 193.061538 
L 349.662389 182.509449 
L 349.782587 181.918168 
L 349.902785 195.791553 
L 350.022983 183.686158 
L 350.263378 188.562309 
L 350.383576 186.872967 
L 350.503774 188.685306 
L 350.623972 186.903346 
L 350.864368 188.758483 
L 350.984566 184.622331 
L 351.104764 189.882812 
L 351.224962 189.281086 
L 351.34516 200.065974 
L 351.585555 185.754509 
L 351.705753 191.129988 
L 351.825951 183.672997 
L 351.946149 196.557778 
L 352.066347 180.861196 
L 352.306743 194.635219 
L 352.426941 181.960328 
L 352.667337 193.490179 
L 352.787534 199.15939 
L 352.907732 179.580637 
L 353.268326 199.390253 
L 353.388524 183.795369 
L 353.508722 189.082146 
L 353.62892 180.121451 
L 353.869316 196.741981 
L 354.109711 183.85623 
L 354.229909 183.047342 
L 354.470305 201.022443 
L 354.590503 180.805607 
L 354.830899 188.329513 
L 354.951097 178.119869 
L 355.191493 194.68704 
L 355.31169 187.986151 
L 355.431888 193.275334 
L 355.672284 185.70242 
L 355.792482 186.975086 
L 355.91268 186.159379 
L 356.153076 189.591951 
L 356.273274 189.759857 
L 356.393472 187.664478 
L 356.51367 188.613132 
L 356.754065 183.242287 
L 356.874263 191.195365 
L 356.994461 190.553888 
L 357.114659 186.307446 
L 357.355055 189.464285 
L 357.595451 188.76983 
L 357.715649 189.053527 
L 357.956044 188.204031 
L 358.076242 188.283473 
L 358.19644 188.197179 
L 358.316638 184.672452 
L 358.677232 188.162888 
L 358.79743 188.201261 
L 358.917628 188.550526 
L 359.037826 189.325667 
L 359.158023 187.448498 
L 359.278221 188.883608 
L 359.398419 187.684974 
L 359.879211 188.652764 
L 359.999409 188.402551 
L 360.119607 188.414307 
L 360.239805 188.570983 
L 360.360003 188.06655 
L 360.720596 188.336651 
L 360.840794 188.135381 
L 360.960992 188.24214 
L 361.08119 187.996164 
L 361.201388 188.617807 
L 361.321586 188.04827 
L 361.441784 188.186761 
L 361.561982 188.147769 
L 361.802377 188.249104 
L 362.042773 188.228341 
L 362.162971 187.552409 
L 362.283169 189.252867 
L 362.403367 188.363634 
L 362.523565 188.705553 
L 362.643763 188.643367 
L 362.884159 188.317776 
L 363.124554 187.887497 
L 363.244752 186.324039 
L 363.485148 188.869599 
L 363.725544 187.9884 
L 363.845742 187.90408 
L 364.326533 188.504481 
L 364.446731 187.948494 
L 364.807325 188.573211 
L 364.927523 188.463452 
L 365.047721 187.811166 
L 365.167919 188.067867 
L 365.288117 187.650088 
L 365.408315 189.177632 
L 365.528513 188.2343 
L 365.64871 188.3891 
L 365.768908 188.324592 
L 365.889106 188.453288 
L 366.009304 188.169209 
L 366.129502 188.330127 
L 366.2497 188.122528 
L 366.369898 188.153689 
L 366.490096 188.466275 
L 366.610294 188.072284 
L 366.730492 183.49374 
L 366.850689 220.589322 
L 366.970887 103.20787 
L 367.211283 204.002603 
L 367.331481 184.322697 
L 367.451679 188.764651 
L 367.571877 183.611863 
L 367.692075 187.629768 
L 367.812273 182.66895 
L 367.812273 182.66895 
" style="fill:none;stroke:#1f77b4;stroke-linecap:square;stroke-width:1.5;"/>
   </g>
   <g id="patch_3">
    <path d="M 26.925 276.812 
L 26.925 10.7 
" style="fill:none;stroke:#000000;stroke-linecap:square;stroke-linejoin:miter;stroke-width:0.8;"/>
   </g>
   <g id="patch_4">
    <path d="M 384.045 276.812 
L 384.045 10.7 
" style="fill:none;stroke:#000000;stroke-linecap:square;stroke-linejoin:miter;stroke-width:0.8;"/>
   </g>
   <g id="patch_5">
    <path d="M 26.925 276.812 
L 384.045 276.812 
" style="fill:none;stroke:#000000;stroke-linecap:square;stroke-linejoin:miter;stroke-width:0.8;"/>
   </g>
   <g id="patch_6">
    <path d="M 26.925 10.7 
L 384.045 10.7 
" style="fill:none;stroke:#000000;stroke-linecap:square;stroke-linejoin:miter;stroke-width:0.8;"/>
   </g>
  </g>
 </g>
 <defs>
  <clipPath id="p48bdab3c84">
   <rect height="266.112" width="357.12" x="26.925" y="10.7"/>
  </clipPath>
 </defs>
</svg>
