<?xml version="1.0" encoding="utf-8" standalone="no"?>
<!DOCTYPE svg PUBLIC "-//W3C//DTD SVG 1.1//EN"
  "http://www.w3.org/Graphics/SVG/1.1/DTD/svg11.dtd">
<!-- Created with matplotlib (http://matplotlib.org/) -->
<svg height="252.018125pt" version="1.1" viewBox="0 0 372.425 252.018125" width="372.425pt" xmlns="http://www.w3.org/2000/svg" xmlns:xlink="http://www.w3.org/1999/xlink">
 <defs>
  <style type="text/css">
*{stroke-linecap:butt;stroke-linejoin:round;}
  </style>
 </defs>
 <g id="figure_1">
  <g id="patch_1">
   <path d="M -0 252.018125 
L 372.425 252.018125 
L 372.425 0 
L -0 0 
z
" style="fill:#ffffff;"/>
  </g>
  <g id="axes_1">
   <g id="patch_2">
    <path d="M 26.925 228.14 
L 361.725 228.14 
L 361.725 10.7 
L 26.925 10.7 
z
" style="fill:#ffffff;"/>
   </g>
   <g id="matplotlib.axis_1">
    <g id="xtick_1">
     <g id="line2d_1">
      <defs>
       <path d="M 0 0 
L 0 3.5 
" id="md344e87a53" style="stroke:#000000;stroke-width:0.8;"/>
      </defs>
      <g>
       <use style="stroke:#000000;stroke-width:0.8;" x="42.143182" xlink:href="#md344e87a53" y="228.14"/>
      </g>
     </g>
     <g id="text_1">
      <!-- 0 -->
      <defs>
       <path d="M 31.78125 66.40625 
Q 24.171875 66.40625 20.328125 58.90625 
Q 16.5 51.421875 16.5 36.375 
Q 16.5 21.390625 20.328125 13.890625 
Q 24.171875 6.390625 31.78125 6.390625 
Q 39.453125 6.390625 43.28125 13.890625 
Q 47.125 21.390625 47.125 36.375 
Q 47.125 51.421875 43.28125 58.90625 
Q 39.453125 66.40625 31.78125 66.40625 
z
M 31.78125 74.21875 
Q 44.046875 74.21875 50.515625 64.515625 
Q 56.984375 54.828125 56.984375 36.375 
Q 56.984375 17.96875 50.515625 8.265625 
Q 44.046875 -1.421875 31.78125 -1.421875 
Q 19.53125 -1.421875 13.0625 8.265625 
Q 6.59375 17.96875 6.59375 36.375 
Q 6.59375 54.828125 13.0625 64.515625 
Q 19.53125 74.21875 31.78125 74.21875 
z
" id="DejaVuSans-30"/>
      </defs>
      <g transform="translate(38.961932 242.738437)scale(0.1 -0.1)">
       <use xlink:href="#DejaVuSans-30"/>
      </g>
     </g>
    </g>
    <g id="xtick_2">
     <g id="line2d_2">
      <g>
       <use style="stroke:#000000;stroke-width:0.8;" x="88.119562" xlink:href="#md344e87a53" y="228.14"/>
      </g>
     </g>
     <g id="text_2">
      <!-- 50 -->
      <defs>
       <path d="M 10.796875 72.90625 
L 49.515625 72.90625 
L 49.515625 64.59375 
L 19.828125 64.59375 
L 19.828125 46.734375 
Q 21.96875 47.46875 24.109375 47.828125 
Q 26.265625 48.1875 28.421875 48.1875 
Q 40.625 48.1875 47.75 41.5 
Q 54.890625 34.8125 54.890625 23.390625 
Q 54.890625 11.625 47.5625 5.09375 
Q 40.234375 -1.421875 26.90625 -1.421875 
Q 22.3125 -1.421875 17.546875 -0.640625 
Q 12.796875 0.140625 7.71875 1.703125 
L 7.71875 11.625 
Q 12.109375 9.234375 16.796875 8.0625 
Q 21.484375 6.890625 26.703125 6.890625 
Q 35.15625 6.890625 40.078125 11.328125 
Q 45.015625 15.765625 45.015625 23.390625 
Q 45.015625 31 40.078125 35.4375 
Q 35.15625 39.890625 26.703125 39.890625 
Q 22.75 39.890625 18.8125 39.015625 
Q 14.890625 38.140625 10.796875 36.28125 
z
" id="DejaVuSans-35"/>
      </defs>
      <g transform="translate(81.757062 242.738437)scale(0.1 -0.1)">
       <use xlink:href="#DejaVuSans-35"/>
       <use x="63.623047" xlink:href="#DejaVuSans-30"/>
      </g>
     </g>
    </g>
    <g id="xtick_3">
     <g id="line2d_3">
      <g>
       <use style="stroke:#000000;stroke-width:0.8;" x="134.095942" xlink:href="#md344e87a53" y="228.14"/>
      </g>
     </g>
     <g id="text_3">
      <!-- 100 -->
      <defs>
       <path d="M 12.40625 8.296875 
L 28.515625 8.296875 
L 28.515625 63.921875 
L 10.984375 60.40625 
L 10.984375 69.390625 
L 28.421875 72.90625 
L 38.28125 72.90625 
L 38.28125 8.296875 
L 54.390625 8.296875 
L 54.390625 0 
L 12.40625 0 
z
" id="DejaVuSans-31"/>
      </defs>
      <g transform="translate(124.552192 242.738437)scale(0.1 -0.1)">
       <use xlink:href="#DejaVuSans-31"/>
       <use x="63.623047" xlink:href="#DejaVuSans-30"/>
       <use x="127.246094" xlink:href="#DejaVuSans-30"/>
      </g>
     </g>
    </g>
    <g id="xtick_4">
     <g id="line2d_4">
      <g>
       <use style="stroke:#000000;stroke-width:0.8;" x="180.072322" xlink:href="#md344e87a53" y="228.14"/>
      </g>
     </g>
     <g id="text_4">
      <!-- 150 -->
      <g transform="translate(170.528572 242.738437)scale(0.1 -0.1)">
       <use xlink:href="#DejaVuSans-31"/>
       <use x="63.623047" xlink:href="#DejaVuSans-35"/>
       <use x="127.246094" xlink:href="#DejaVuSans-30"/>
      </g>
     </g>
    </g>
    <g id="xtick_5">
     <g id="line2d_5">
      <g>
       <use style="stroke:#000000;stroke-width:0.8;" x="226.048702" xlink:href="#md344e87a53" y="228.14"/>
      </g>
     </g>
     <g id="text_5">
      <!-- 200 -->
      <defs>
       <path d="M 19.1875 8.296875 
L 53.609375 8.296875 
L 53.609375 0 
L 7.328125 0 
L 7.328125 8.296875 
Q 12.9375 14.109375 22.625 23.890625 
Q 32.328125 33.6875 34.8125 36.53125 
Q 39.546875 41.84375 41.421875 45.53125 
Q 43.3125 49.21875 43.3125 52.78125 
Q 43.3125 58.59375 39.234375 62.25 
Q 35.15625 65.921875 28.609375 65.921875 
Q 23.96875 65.921875 18.8125 64.3125 
Q 13.671875 62.703125 7.8125 59.421875 
L 7.8125 69.390625 
Q 13.765625 71.78125 18.9375 73 
Q 24.125 74.21875 28.421875 74.21875 
Q 39.75 74.21875 46.484375 68.546875 
Q 53.21875 62.890625 53.21875 53.421875 
Q 53.21875 48.921875 51.53125 44.890625 
Q 49.859375 40.875 45.40625 35.40625 
Q 44.1875 33.984375 37.640625 27.21875 
Q 31.109375 20.453125 19.1875 8.296875 
z
" id="DejaVuSans-32"/>
      </defs>
      <g transform="translate(216.504952 242.738437)scale(0.1 -0.1)">
       <use xlink:href="#DejaVuSans-32"/>
       <use x="63.623047" xlink:href="#DejaVuSans-30"/>
       <use x="127.246094" xlink:href="#DejaVuSans-30"/>
      </g>
     </g>
    </g>
    <g id="xtick_6">
     <g id="line2d_6">
      <g>
       <use style="stroke:#000000;stroke-width:0.8;" x="272.025082" xlink:href="#md344e87a53" y="228.14"/>
      </g>
     </g>
     <g id="text_6">
      <!-- 250 -->
      <g transform="translate(262.481332 242.738437)scale(0.1 -0.1)">
       <use xlink:href="#DejaVuSans-32"/>
       <use x="63.623047" xlink:href="#DejaVuSans-35"/>
       <use x="127.246094" xlink:href="#DejaVuSans-30"/>
      </g>
     </g>
    </g>
    <g id="xtick_7">
     <g id="line2d_7">
      <g>
       <use style="stroke:#000000;stroke-width:0.8;" x="318.001463" xlink:href="#md344e87a53" y="228.14"/>
      </g>
     </g>
     <g id="text_7">
      <!-- 300 -->
      <defs>
       <path d="M 40.578125 39.3125 
Q 47.65625 37.796875 51.625 33 
Q 55.609375 28.21875 55.609375 21.1875 
Q 55.609375 10.40625 48.1875 4.484375 
Q 40.765625 -1.421875 27.09375 -1.421875 
Q 22.515625 -1.421875 17.65625 -0.515625 
Q 12.796875 0.390625 7.625 2.203125 
L 7.625 11.71875 
Q 11.71875 9.328125 16.59375 8.109375 
Q 21.484375 6.890625 26.8125 6.890625 
Q 36.078125 6.890625 40.9375 10.546875 
Q 45.796875 14.203125 45.796875 21.1875 
Q 45.796875 27.640625 41.28125 31.265625 
Q 36.765625 34.90625 28.71875 34.90625 
L 20.21875 34.90625 
L 20.21875 43.015625 
L 29.109375 43.015625 
Q 36.375 43.015625 40.234375 45.921875 
Q 44.09375 48.828125 44.09375 54.296875 
Q 44.09375 59.90625 40.109375 62.90625 
Q 36.140625 65.921875 28.71875 65.921875 
Q 24.65625 65.921875 20.015625 65.03125 
Q 15.375 64.15625 9.8125 62.3125 
L 9.8125 71.09375 
Q 15.4375 72.65625 20.34375 73.4375 
Q 25.25 74.21875 29.59375 74.21875 
Q 40.828125 74.21875 47.359375 69.109375 
Q 53.90625 64.015625 53.90625 55.328125 
Q 53.90625 49.265625 50.4375 45.09375 
Q 46.96875 40.921875 40.578125 39.3125 
z
" id="DejaVuSans-33"/>
      </defs>
      <g transform="translate(308.457713 242.738437)scale(0.1 -0.1)">
       <use xlink:href="#DejaVuSans-33"/>
       <use x="63.623047" xlink:href="#DejaVuSans-30"/>
       <use x="127.246094" xlink:href="#DejaVuSans-30"/>
      </g>
     </g>
    </g>
   </g>
   <g id="matplotlib.axis_2">
    <g id="ytick_1">
     <g id="line2d_8">
      <defs>
       <path d="M 0 0 
L -3.5 0 
" id="m53a2155f33" style="stroke:#000000;stroke-width:0.8;"/>
      </defs>
      <g>
       <use style="stroke:#000000;stroke-width:0.8;" x="26.925" xlink:href="#m53a2155f33" y="189.249285"/>
      </g>
     </g>
     <g id="text_8">
      <!-- 6 -->
      <defs>
       <path d="M 33.015625 40.375 
Q 26.375 40.375 22.484375 35.828125 
Q 18.609375 31.296875 18.609375 23.390625 
Q 18.609375 15.53125 22.484375 10.953125 
Q 26.375 6.390625 33.015625 6.390625 
Q 39.65625 6.390625 43.53125 10.953125 
Q 47.40625 15.53125 47.40625 23.390625 
Q 47.40625 31.296875 43.53125 35.828125 
Q 39.65625 40.375 33.015625 40.375 
z
M 52.59375 71.296875 
L 52.59375 62.3125 
Q 48.875 64.0625 45.09375 64.984375 
Q 41.3125 65.921875 37.59375 65.921875 
Q 27.828125 65.921875 22.671875 59.328125 
Q 17.53125 52.734375 16.796875 39.40625 
Q 19.671875 43.65625 24.015625 45.921875 
Q 28.375 48.1875 33.59375 48.1875 
Q 44.578125 48.1875 50.953125 41.515625 
Q 57.328125 34.859375 57.328125 23.390625 
Q 57.328125 12.15625 50.6875 5.359375 
Q 44.046875 -1.421875 33.015625 -1.421875 
Q 20.359375 -1.421875 13.671875 8.265625 
Q 6.984375 17.96875 6.984375 36.375 
Q 6.984375 53.65625 15.1875 63.9375 
Q 23.390625 74.21875 37.203125 74.21875 
Q 40.921875 74.21875 44.703125 73.484375 
Q 48.484375 72.75 52.59375 71.296875 
z
" id="DejaVuSans-36"/>
      </defs>
      <g transform="translate(13.5625 193.048504)scale(0.1 -0.1)">
       <use xlink:href="#DejaVuSans-36"/>
      </g>
     </g>
    </g>
    <g id="ytick_2">
     <g id="line2d_9">
      <g>
       <use style="stroke:#000000;stroke-width:0.8;" x="26.925" xlink:href="#m53a2155f33" y="148.801228"/>
      </g>
     </g>
     <g id="text_9">
      <!-- 8 -->
      <defs>
       <path d="M 31.78125 34.625 
Q 24.75 34.625 20.71875 30.859375 
Q 16.703125 27.09375 16.703125 20.515625 
Q 16.703125 13.921875 20.71875 10.15625 
Q 24.75 6.390625 31.78125 6.390625 
Q 38.8125 6.390625 42.859375 10.171875 
Q 46.921875 13.96875 46.921875 20.515625 
Q 46.921875 27.09375 42.890625 30.859375 
Q 38.875 34.625 31.78125 34.625 
z
M 21.921875 38.8125 
Q 15.578125 40.375 12.03125 44.71875 
Q 8.5 49.078125 8.5 55.328125 
Q 8.5 64.0625 14.71875 69.140625 
Q 20.953125 74.21875 31.78125 74.21875 
Q 42.671875 74.21875 48.875 69.140625 
Q 55.078125 64.0625 55.078125 55.328125 
Q 55.078125 49.078125 51.53125 44.71875 
Q 48 40.375 41.703125 38.8125 
Q 48.828125 37.15625 52.796875 32.3125 
Q 56.78125 27.484375 56.78125 20.515625 
Q 56.78125 9.90625 50.3125 4.234375 
Q 43.84375 -1.421875 31.78125 -1.421875 
Q 19.734375 -1.421875 13.25 4.234375 
Q 6.78125 9.90625 6.78125 20.515625 
Q 6.78125 27.484375 10.78125 32.3125 
Q 14.796875 37.15625 21.921875 38.8125 
z
M 18.3125 54.390625 
Q 18.3125 48.734375 21.84375 45.5625 
Q 25.390625 42.390625 31.78125 42.390625 
Q 38.140625 42.390625 41.71875 45.5625 
Q 45.3125 48.734375 45.3125 54.390625 
Q 45.3125 60.0625 41.71875 63.234375 
Q 38.140625 66.40625 31.78125 66.40625 
Q 25.390625 66.40625 21.84375 63.234375 
Q 18.3125 60.0625 18.3125 54.390625 
z
" id="DejaVuSans-38"/>
      </defs>
      <g transform="translate(13.5625 152.600447)scale(0.1 -0.1)">
       <use xlink:href="#DejaVuSans-38"/>
      </g>
     </g>
    </g>
    <g id="ytick_3">
     <g id="line2d_10">
      <g>
       <use style="stroke:#000000;stroke-width:0.8;" x="26.925" xlink:href="#m53a2155f33" y="108.353172"/>
      </g>
     </g>
     <g id="text_10">
      <!-- 10 -->
      <g transform="translate(7.2 112.15239)scale(0.1 -0.1)">
       <use xlink:href="#DejaVuSans-31"/>
       <use x="63.623047" xlink:href="#DejaVuSans-30"/>
      </g>
     </g>
    </g>
    <g id="ytick_4">
     <g id="line2d_11">
      <g>
       <use style="stroke:#000000;stroke-width:0.8;" x="26.925" xlink:href="#m53a2155f33" y="67.905115"/>
      </g>
     </g>
     <g id="text_11">
      <!-- 12 -->
      <g transform="translate(7.2 71.704333)scale(0.1 -0.1)">
       <use xlink:href="#DejaVuSans-31"/>
       <use x="63.623047" xlink:href="#DejaVuSans-32"/>
      </g>
     </g>
    </g>
    <g id="ytick_5">
     <g id="line2d_12">
      <g>
       <use style="stroke:#000000;stroke-width:0.8;" x="26.925" xlink:href="#m53a2155f33" y="27.457058"/>
      </g>
     </g>
     <g id="text_12">
      <!-- 14 -->
      <defs>
       <path d="M 37.796875 64.3125 
L 12.890625 25.390625 
L 37.796875 25.390625 
z
M 35.203125 72.90625 
L 47.609375 72.90625 
L 47.609375 25.390625 
L 58.015625 25.390625 
L 58.015625 17.1875 
L 47.609375 17.1875 
L 47.609375 0 
L 37.796875 0 
L 37.796875 17.1875 
L 4.890625 17.1875 
L 4.890625 26.703125 
z
" id="DejaVuSans-34"/>
      </defs>
      <g transform="translate(7.2 31.256277)scale(0.1 -0.1)">
       <use xlink:href="#DejaVuSans-31"/>
       <use x="63.623047" xlink:href="#DejaVuSans-34"/>
      </g>
     </g>
    </g>
   </g>
   <g id="line2d_13">
    <path clip-path="url(#pc1e8b24f26)" d="M 42.143182 118.654818 
L 43.062709 118.125818 
L 43.982237 113.594397 
L 44.901765 117.510301 
L 45.821292 103.993474 
L 46.74082 93.298667 
L 47.660347 101.749669 
L 48.579875 126.461394 
L 49.499403 95.314574 
L 51.338458 110.488618 
L 52.257985 103.842891 
L 53.177513 107.470728 
L 54.097041 113.741496 
L 55.016568 109.000006 
L 55.936096 110.177226 
L 56.855623 107.180966 
L 57.775151 94.713338 
L 58.694679 117.134832 
L 59.614206 100.869571 
L 60.533734 104.027245 
L 61.453261 96.360259 
L 62.372789 96.973019 
L 63.292317 100.562551 
L 64.211844 111.989489 
L 65.131372 112.467493 
L 66.050899 101.102161 
L 66.970427 105.429053 
L 67.889955 110.506817 
L 68.809482 113.868042 
L 69.72901 100.555369 
L 70.648537 110.088519 
L 71.568065 117.929628 
L 72.487593 107.619316 
L 73.40712 87.108691 
L 74.326648 93.358422 
L 75.246176 111.515827 
L 76.165703 100.426868 
L 77.085231 104.922366 
L 78.004758 151.080819 
L 78.924286 109.61804 
L 79.843814 103.4361 
L 80.763341 104.294914 
L 81.682869 98.898985 
L 82.602396 100.737702 
L 83.521924 115.125453 
L 84.441452 111.964611 
L 85.360979 96.700923 
L 86.280507 66.615765 
L 87.200034 97.440963 
L 88.119562 105.62693 
L 89.03909 99.741556 
L 89.958617 132.703048 
L 90.878145 88.915557 
L 91.797672 96.895021 
L 92.7172 126.940521 
L 94.556255 97.299958 
L 95.475783 106.203752 
L 96.39531 108.928833 
L 97.314838 105.405024 
L 98.234366 105.061871 
L 99.153893 107.823832 
L 100.073421 105.702645 
L 100.992948 107.215416 
L 101.912476 109.394244 
L 102.832004 104.880265 
L 103.751531 106.336598 
L 104.671059 103.157076 
L 105.590586 109.285389 
L 106.510114 107.783932 
L 107.429642 104.604906 
L 108.349169 106.650797 
L 109.268697 106.249836 
L 110.188224 106.876882 
L 111.107752 102.103357 
L 112.02728 108.521702 
L 112.946807 105.99861 
L 113.866335 107.16662 
L 114.785862 109.425367 
L 115.70539 108.66662 
L 116.624918 105.067817 
L 117.544445 104.777664 
L 118.463973 113.773354 
L 119.3835 98.457841 
L 120.303028 118.455576 
L 121.222556 113.861288 
L 122.142083 104.402441 
L 123.061611 103.439111 
L 123.981138 101.097886 
L 124.900666 102.882027 
L 125.820194 108.730506 
L 126.739721 110.74498 
L 127.659249 103.766033 
L 128.578776 107.225883 
L 129.498304 113.177496 
L 130.417832 110.526185 
L 131.337359 100.304533 
L 132.256887 102.864219 
L 133.176414 101.270747 
L 134.095942 107.040004 
L 135.01547 108.144103 
L 135.934997 104.368268 
L 136.854525 107.202473 
L 137.774052 106.807054 
L 138.69358 109.057497 
L 139.613108 103.388407 
L 140.532635 108.487548 
L 141.452163 109.371517 
L 142.37169 106.952524 
L 143.291218 107.293039 
L 144.210746 105.948682 
L 145.130273 107.24496 
L 146.049801 103.491013 
L 146.969328 104.086203 
L 147.888856 108.253555 
L 148.808384 107.936325 
L 149.727911 105.600487 
L 150.647439 105.883263 
L 151.566966 104.855208 
L 152.486494 107.612561 
L 153.406022 107.625368 
L 154.325549 105.48734 
L 155.245077 106.930164 
L 156.164605 109.393653 
L 157.084132 105.855897 
L 158.00366 107.443469 
L 158.923187 106.828614 
L 159.842715 109.641735 
L 160.762243 108.454125 
L 161.68177 114.236609 
L 162.601298 108.580989 
L 163.520825 104.73788 
L 164.440353 107.847698 
L 165.359881 113.275097 
L 166.279408 116.681563 
L 167.198936 109.535639 
L 168.118463 123.98087 
L 169.037991 89.643181 
L 169.957519 104.010198 
L 170.877046 126.470212 
L 171.796574 113.499081 
L 172.716101 98.585096 
L 175.474684 117.557068 
L 176.394212 121.581729 
L 177.313739 131.510517 
L 178.233267 107.168594 
L 179.152795 111.327335 
L 180.072322 108.011994 
L 180.99185 103.822801 
L 181.911377 111.621084 
L 182.830905 111.314597 
L 183.750433 105.335928 
L 184.66996 104.347843 
L 185.589488 127.035711 
L 186.509015 103.282242 
L 187.428543 102.939262 
L 188.348071 47.541569 
L 189.267598 108.90026 
L 190.187126 116.658756 
L 192.026181 98.879801 
L 192.945709 115.46876 
L 193.865236 112.528794 
L 194.784764 114.032951 
L 195.704291 110.419273 
L 196.623819 89.028874 
L 197.543347 115.235831 
L 198.462874 96.248198 
L 199.382402 108.978983 
L 200.301929 107.319154 
L 201.221457 102.401162 
L 202.140985 107.089915 
L 203.060512 109.728553 
L 203.98004 104.976315 
L 204.899567 107.43058 
L 205.819095 106.220169 
L 206.738623 108.961419 
L 207.65815 106.760403 
L 208.577678 105.106926 
L 209.497205 106.623659 
L 210.416733 107.0047 
L 211.336261 107.769462 
L 212.255788 105.569626 
L 213.175316 107.373085 
L 214.094843 106.051248 
L 215.014371 106.680917 
L 215.933899 106.33943 
L 216.853426 106.746871 
L 217.772954 106.646929 
L 218.692481 106.092491 
L 219.612009 105.269671 
L 220.531537 105.659673 
L 221.451064 106.877742 
L 222.370592 107.835741 
L 223.290119 107.750444 
L 224.209647 107.315676 
L 225.129175 105.193527 
L 226.048702 110.189437 
L 226.96823 110.467603 
L 227.887757 116.223632 
L 228.807285 104.576796 
L 229.726813 106.754477 
L 230.64634 113.395514 
L 231.565868 116.31525 
L 232.485395 100.511631 
L 233.404923 116.756168 
L 234.324451 105.450405 
L 235.243978 111.610775 
L 236.163506 77.885423 
L 237.083034 90.381031 
L 238.002561 121.402176 
L 238.922089 93.06621 
L 239.841616 111.526479 
L 240.761144 101.593749 
L 241.680672 99.589227 
L 242.600199 94.106878 
L 243.519727 104.938309 
L 244.439254 113.731017 
L 245.358782 109.677608 
L 246.27831 109.3992 
L 247.197837 108.78391 
L 248.117365 117.542642 
L 249.036892 100.460448 
L 249.95642 99.984536 
L 250.875948 128.575118 
L 251.795475 100.737395 
L 252.715003 178.116247 
L 253.63453 218.256364 
L 254.554058 122.403695 
L 255.473586 113.465612 
L 256.393113 99.005147 
L 257.312641 27.463244 
L 258.232168 27.751431 
L 259.151696 32.020808 
L 260.071224 99.500802 
L 260.990751 114.641495 
L 262.829806 87.606831 
L 263.749334 112.93808 
L 264.668862 129.721139 
L 265.588389 155.659466 
L 266.507917 132.639929 
L 267.427444 93.685357 
L 268.346972 154.53715 
L 269.2665 20.583636 
L 270.186027 128.943307 
L 271.105555 112.978091 
L 272.025082 128.841063 
L 272.94461 86.733167 
L 273.864138 160.3123 
L 274.783665 104.71577 
L 275.703193 152.046442 
L 276.62272 132.592022 
L 277.542248 51.559205 
L 278.461776 111.174901 
L 279.381303 118.133616 
L 280.300831 112.547639 
L 281.220358 104.583011 
L 282.139886 115.185341 
L 283.059414 80.044216 
L 283.978941 120.706465 
L 284.898469 106.132572 
L 285.817996 106.19553 
L 286.737524 108.356179 
L 287.657052 104.471968 
L 288.576579 96.055379 
L 289.496107 109.976635 
L 290.415634 119.498809 
L 291.335162 111.976897 
L 292.25469 106.531548 
L 293.174217 107.464978 
L 294.093745 97.621473 
L 295.013272 96.011498 
L 295.9328 110.126904 
L 296.852328 107.148935 
L 297.771855 99.414656 
L 298.691383 108.351983 
L 299.61091 105.73125 
L 300.530438 46.8596 
L 301.449966 104.653656 
L 302.369493 104.319318 
L 303.289021 49.701673 
L 304.208548 111.981295 
L 305.128076 101.770722 
L 306.047604 101.53432 
L 306.967131 90.547496 
L 307.886659 100.41314 
L 308.806186 122.317263 
L 309.725714 103.818182 
L 310.645242 97.379115 
L 311.564769 97.095381 
L 312.484297 98.826259 
L 313.403824 91.110882 
L 314.323352 106.128364 
L 315.24288 109.961809 
L 316.162407 103.108968 
L 317.081935 122.682316 
L 318.001463 128.695744 
L 318.92099 102.659072 
L 319.840518 109.136296 
L 320.760045 105.25993 
L 321.679573 107.559766 
L 322.599101 107.601167 
L 323.518628 107.200526 
L 324.438156 105.232115 
L 325.357683 107.785233 
L 326.277211 105.498619 
L 327.196739 105.12332 
L 329.035794 109.618459 
L 329.955321 108.202866 
L 330.874849 108.97758 
L 331.794377 107.462381 
L 333.633432 100.725739 
L 334.552959 108.476305 
L 335.472487 95.234106 
L 336.392015 107.26006 
L 337.311542 106.243232 
L 338.23107 102.307927 
L 339.150597 107.106293 
L 340.070125 142.433382 
L 340.989653 106.026655 
L 341.90918 115.058977 
L 342.828708 96.103604 
L 343.748235 119.198751 
L 344.667763 186.809089 
L 345.587291 116.299549 
L 346.506818 120.526116 
L 346.506818 120.526116 
" style="fill:none;stroke:#1f77b4;stroke-linecap:square;stroke-width:1.5;"/>
   </g>
   <g id="patch_3">
    <path d="M 26.925 228.14 
L 26.925 10.7 
" style="fill:none;stroke:#000000;stroke-linecap:square;stroke-linejoin:miter;stroke-width:0.8;"/>
   </g>
   <g id="patch_4">
    <path d="M 361.725 228.14 
L 361.725 10.7 
" style="fill:none;stroke:#000000;stroke-linecap:square;stroke-linejoin:miter;stroke-width:0.8;"/>
   </g>
   <g id="patch_5">
    <path d="M 26.925 228.14 
L 361.725 228.14 
" style="fill:none;stroke:#000000;stroke-linecap:square;stroke-linejoin:miter;stroke-width:0.8;"/>
   </g>
   <g id="patch_6">
    <path d="M 26.925 10.7 
L 361.725 10.7 
" style="fill:none;stroke:#000000;stroke-linecap:square;stroke-linejoin:miter;stroke-width:0.8;"/>
   </g>
  </g>
 </g>
 <defs>
  <clipPath id="pc1e8b24f26">
   <rect height="217.44" width="334.8" x="26.925" y="10.7"/>
  </clipPath>
 </defs>
</svg>
