<?xml version="1.0" encoding="utf-8" standalone="no"?>
<!DOCTYPE svg PUBLIC "-//W3C//DTD SVG 1.1//EN"
  "http://www.w3.org/Graphics/SVG/1.1/DTD/svg11.dtd">
<!-- Created with matplotlib (http://matplotlib.org/) -->
<svg height="300.690125pt" version="1.1" viewBox="0 0 404.285625 300.690125" width="404.285625pt" xmlns="http://www.w3.org/2000/svg" xmlns:xlink="http://www.w3.org/1999/xlink">
 <defs>
  <style type="text/css">
*{stroke-linecap:butt;stroke-linejoin:round;}
  </style>
 </defs>
 <g id="figure_1">
  <g id="patch_1">
   <path d="M 0 300.690125 
L 404.285625 300.690125 
L 404.285625 0 
L 0 0 
z
" style="fill:#ffffff;"/>
  </g>
  <g id="axes_1">
   <g id="patch_2">
    <path d="M 36.465625 276.812 
L 393.585625 276.812 
L 393.585625 10.7 
L 36.465625 10.7 
z
" style="fill:#ffffff;"/>
   </g>
   <g id="matplotlib.axis_1">
    <g id="xtick_1">
     <g id="line2d_1">
      <defs>
       <path d="M 0 0 
L 0 3.5 
" id="macc2e6ca9b" style="stroke:#000000;stroke-width:0.8;"/>
      </defs>
      <g>
       <use style="stroke:#000000;stroke-width:0.8;" x="52.698352" xlink:href="#macc2e6ca9b" y="276.812"/>
      </g>
     </g>
     <g id="text_1">
      <!-- 0 -->
      <defs>
       <path d="M 31.78125 66.40625 
Q 24.171875 66.40625 20.328125 58.90625 
Q 16.5 51.421875 16.5 36.375 
Q 16.5 21.390625 20.328125 13.890625 
Q 24.171875 6.390625 31.78125 6.390625 
Q 39.453125 6.390625 43.28125 13.890625 
Q 47.125 21.390625 47.125 36.375 
Q 47.125 51.421875 43.28125 58.90625 
Q 39.453125 66.40625 31.78125 66.40625 
z
M 31.78125 74.21875 
Q 44.046875 74.21875 50.515625 64.515625 
Q 56.984375 54.828125 56.984375 36.375 
Q 56.984375 17.96875 50.515625 8.265625 
Q 44.046875 -1.421875 31.78125 -1.421875 
Q 19.53125 -1.421875 13.0625 8.265625 
Q 6.59375 17.96875 6.59375 36.375 
Q 6.59375 54.828125 13.0625 64.515625 
Q 19.53125 74.21875 31.78125 74.21875 
z
" id="DejaVuSans-30"/>
      </defs>
      <g transform="translate(49.517102 291.410437)scale(0.1 -0.1)">
       <use xlink:href="#DejaVuSans-30"/>
      </g>
     </g>
    </g>
    <g id="xtick_2">
     <g id="line2d_2">
      <g>
       <use style="stroke:#000000;stroke-width:0.8;" x="104.809836" xlink:href="#macc2e6ca9b" y="276.812"/>
      </g>
     </g>
     <g id="text_2">
      <!-- 200 -->
      <defs>
       <path d="M 19.1875 8.296875 
L 53.609375 8.296875 
L 53.609375 0 
L 7.328125 0 
L 7.328125 8.296875 
Q 12.9375 14.109375 22.625 23.890625 
Q 32.328125 33.6875 34.8125 36.53125 
Q 39.546875 41.84375 41.421875 45.53125 
Q 43.3125 49.21875 43.3125 52.78125 
Q 43.3125 58.59375 39.234375 62.25 
Q 35.15625 65.921875 28.609375 65.921875 
Q 23.96875 65.921875 18.8125 64.3125 
Q 13.671875 62.703125 7.8125 59.421875 
L 7.8125 69.390625 
Q 13.765625 71.78125 18.9375 73 
Q 24.125 74.21875 28.421875 74.21875 
Q 39.75 74.21875 46.484375 68.546875 
Q 53.21875 62.890625 53.21875 53.421875 
Q 53.21875 48.921875 51.53125 44.890625 
Q 49.859375 40.875 45.40625 35.40625 
Q 44.1875 33.984375 37.640625 27.21875 
Q 31.109375 20.453125 19.1875 8.296875 
z
" id="DejaVuSans-32"/>
      </defs>
      <g transform="translate(95.266086 291.410437)scale(0.1 -0.1)">
       <use xlink:href="#DejaVuSans-32"/>
       <use x="63.623047" xlink:href="#DejaVuSans-30"/>
       <use x="127.246094" xlink:href="#DejaVuSans-30"/>
      </g>
     </g>
    </g>
    <g id="xtick_3">
     <g id="line2d_3">
      <g>
       <use style="stroke:#000000;stroke-width:0.8;" x="156.92132" xlink:href="#macc2e6ca9b" y="276.812"/>
      </g>
     </g>
     <g id="text_3">
      <!-- 400 -->
      <defs>
       <path d="M 37.796875 64.3125 
L 12.890625 25.390625 
L 37.796875 25.390625 
z
M 35.203125 72.90625 
L 47.609375 72.90625 
L 47.609375 25.390625 
L 58.015625 25.390625 
L 58.015625 17.1875 
L 47.609375 17.1875 
L 47.609375 0 
L 37.796875 0 
L 37.796875 17.1875 
L 4.890625 17.1875 
L 4.890625 26.703125 
z
" id="DejaVuSans-34"/>
      </defs>
      <g transform="translate(147.37757 291.410437)scale(0.1 -0.1)">
       <use xlink:href="#DejaVuSans-34"/>
       <use x="63.623047" xlink:href="#DejaVuSans-30"/>
       <use x="127.246094" xlink:href="#DejaVuSans-30"/>
      </g>
     </g>
    </g>
    <g id="xtick_4">
     <g id="line2d_4">
      <g>
       <use style="stroke:#000000;stroke-width:0.8;" x="209.032804" xlink:href="#macc2e6ca9b" y="276.812"/>
      </g>
     </g>
     <g id="text_4">
      <!-- 600 -->
      <defs>
       <path d="M 33.015625 40.375 
Q 26.375 40.375 22.484375 35.828125 
Q 18.609375 31.296875 18.609375 23.390625 
Q 18.609375 15.53125 22.484375 10.953125 
Q 26.375 6.390625 33.015625 6.390625 
Q 39.65625 6.390625 43.53125 10.953125 
Q 47.40625 15.53125 47.40625 23.390625 
Q 47.40625 31.296875 43.53125 35.828125 
Q 39.65625 40.375 33.015625 40.375 
z
M 52.59375 71.296875 
L 52.59375 62.3125 
Q 48.875 64.0625 45.09375 64.984375 
Q 41.3125 65.921875 37.59375 65.921875 
Q 27.828125 65.921875 22.671875 59.328125 
Q 17.53125 52.734375 16.796875 39.40625 
Q 19.671875 43.65625 24.015625 45.921875 
Q 28.375 48.1875 33.59375 48.1875 
Q 44.578125 48.1875 50.953125 41.515625 
Q 57.328125 34.859375 57.328125 23.390625 
Q 57.328125 12.15625 50.6875 5.359375 
Q 44.046875 -1.421875 33.015625 -1.421875 
Q 20.359375 -1.421875 13.671875 8.265625 
Q 6.984375 17.96875 6.984375 36.375 
Q 6.984375 53.65625 15.1875 63.9375 
Q 23.390625 74.21875 37.203125 74.21875 
Q 40.921875 74.21875 44.703125 73.484375 
Q 48.484375 72.75 52.59375 71.296875 
z
" id="DejaVuSans-36"/>
      </defs>
      <g transform="translate(199.489054 291.410437)scale(0.1 -0.1)">
       <use xlink:href="#DejaVuSans-36"/>
       <use x="63.623047" xlink:href="#DejaVuSans-30"/>
       <use x="127.246094" xlink:href="#DejaVuSans-30"/>
      </g>
     </g>
    </g>
    <g id="xtick_5">
     <g id="line2d_5">
      <g>
       <use style="stroke:#000000;stroke-width:0.8;" x="261.144288" xlink:href="#macc2e6ca9b" y="276.812"/>
      </g>
     </g>
     <g id="text_5">
      <!-- 800 -->
      <defs>
       <path d="M 31.78125 34.625 
Q 24.75 34.625 20.71875 30.859375 
Q 16.703125 27.09375 16.703125 20.515625 
Q 16.703125 13.921875 20.71875 10.15625 
Q 24.75 6.390625 31.78125 6.390625 
Q 38.8125 6.390625 42.859375 10.171875 
Q 46.921875 13.96875 46.921875 20.515625 
Q 46.921875 27.09375 42.890625 30.859375 
Q 38.875 34.625 31.78125 34.625 
z
M 21.921875 38.8125 
Q 15.578125 40.375 12.03125 44.71875 
Q 8.5 49.078125 8.5 55.328125 
Q 8.5 64.0625 14.71875 69.140625 
Q 20.953125 74.21875 31.78125 74.21875 
Q 42.671875 74.21875 48.875 69.140625 
Q 55.078125 64.0625 55.078125 55.328125 
Q 55.078125 49.078125 51.53125 44.71875 
Q 48 40.375 41.703125 38.8125 
Q 48.828125 37.15625 52.796875 32.3125 
Q 56.78125 27.484375 56.78125 20.515625 
Q 56.78125 9.90625 50.3125 4.234375 
Q 43.84375 -1.421875 31.78125 -1.421875 
Q 19.734375 -1.421875 13.25 4.234375 
Q 6.78125 9.90625 6.78125 20.515625 
Q 6.78125 27.484375 10.78125 32.3125 
Q 14.796875 37.15625 21.921875 38.8125 
z
M 18.3125 54.390625 
Q 18.3125 48.734375 21.84375 45.5625 
Q 25.390625 42.390625 31.78125 42.390625 
Q 38.140625 42.390625 41.71875 45.5625 
Q 45.3125 48.734375 45.3125 54.390625 
Q 45.3125 60.0625 41.71875 63.234375 
Q 38.140625 66.40625 31.78125 66.40625 
Q 25.390625 66.40625 21.84375 63.234375 
Q 18.3125 60.0625 18.3125 54.390625 
z
" id="DejaVuSans-38"/>
      </defs>
      <g transform="translate(251.600538 291.410437)scale(0.1 -0.1)">
       <use xlink:href="#DejaVuSans-38"/>
       <use x="63.623047" xlink:href="#DejaVuSans-30"/>
       <use x="127.246094" xlink:href="#DejaVuSans-30"/>
      </g>
     </g>
    </g>
    <g id="xtick_6">
     <g id="line2d_6">
      <g>
       <use style="stroke:#000000;stroke-width:0.8;" x="313.255772" xlink:href="#macc2e6ca9b" y="276.812"/>
      </g>
     </g>
     <g id="text_6">
      <!-- 1000 -->
      <defs>
       <path d="M 12.40625 8.296875 
L 28.515625 8.296875 
L 28.515625 63.921875 
L 10.984375 60.40625 
L 10.984375 69.390625 
L 28.421875 72.90625 
L 38.28125 72.90625 
L 38.28125 8.296875 
L 54.390625 8.296875 
L 54.390625 0 
L 12.40625 0 
z
" id="DejaVuSans-31"/>
      </defs>
      <g transform="translate(300.530772 291.410437)scale(0.1 -0.1)">
       <use xlink:href="#DejaVuSans-31"/>
       <use x="63.623047" xlink:href="#DejaVuSans-30"/>
       <use x="127.246094" xlink:href="#DejaVuSans-30"/>
       <use x="190.869141" xlink:href="#DejaVuSans-30"/>
      </g>
     </g>
    </g>
    <g id="xtick_7">
     <g id="line2d_7">
      <g>
       <use style="stroke:#000000;stroke-width:0.8;" x="365.367256" xlink:href="#macc2e6ca9b" y="276.812"/>
      </g>
     </g>
     <g id="text_7">
      <!-- 1200 -->
      <g transform="translate(352.642256 291.410437)scale(0.1 -0.1)">
       <use xlink:href="#DejaVuSans-31"/>
       <use x="63.623047" xlink:href="#DejaVuSans-32"/>
       <use x="127.246094" xlink:href="#DejaVuSans-30"/>
       <use x="190.869141" xlink:href="#DejaVuSans-30"/>
      </g>
     </g>
    </g>
   </g>
   <g id="matplotlib.axis_2">
    <g id="ytick_1">
     <g id="line2d_8">
      <defs>
       <path d="M 0 0 
L -3.5 0 
" id="me409bf94f9" style="stroke:#000000;stroke-width:0.8;"/>
      </defs>
      <g>
       <use style="stroke:#000000;stroke-width:0.8;" x="36.465625" xlink:href="#me409bf94f9" y="270.145588"/>
      </g>
     </g>
     <g id="text_8">
      <!-- 8.0 -->
      <defs>
       <path d="M 10.6875 12.40625 
L 21 12.40625 
L 21 0 
L 10.6875 0 
z
" id="DejaVuSans-2e"/>
      </defs>
      <g transform="translate(13.5625 273.944807)scale(0.1 -0.1)">
       <use xlink:href="#DejaVuSans-38"/>
       <use x="63.623047" xlink:href="#DejaVuSans-2e"/>
       <use x="95.410156" xlink:href="#DejaVuSans-30"/>
      </g>
     </g>
    </g>
    <g id="ytick_2">
     <g id="line2d_9">
      <g>
       <use style="stroke:#000000;stroke-width:0.8;" x="36.465625" xlink:href="#me409bf94f9" y="214.18983"/>
      </g>
     </g>
     <g id="text_9">
      <!-- 8.5 -->
      <defs>
       <path d="M 10.796875 72.90625 
L 49.515625 72.90625 
L 49.515625 64.59375 
L 19.828125 64.59375 
L 19.828125 46.734375 
Q 21.96875 47.46875 24.109375 47.828125 
Q 26.265625 48.1875 28.421875 48.1875 
Q 40.625 48.1875 47.75 41.5 
Q 54.890625 34.8125 54.890625 23.390625 
Q 54.890625 11.625 47.5625 5.09375 
Q 40.234375 -1.421875 26.90625 -1.421875 
Q 22.3125 -1.421875 17.546875 -0.640625 
Q 12.796875 0.140625 7.71875 1.703125 
L 7.71875 11.625 
Q 12.109375 9.234375 16.796875 8.0625 
Q 21.484375 6.890625 26.703125 6.890625 
Q 35.15625 6.890625 40.078125 11.328125 
Q 45.015625 15.765625 45.015625 23.390625 
Q 45.015625 31 40.078125 35.4375 
Q 35.15625 39.890625 26.703125 39.890625 
Q 22.75 39.890625 18.8125 39.015625 
Q 14.890625 38.140625 10.796875 36.28125 
z
" id="DejaVuSans-35"/>
      </defs>
      <g transform="translate(13.5625 217.989049)scale(0.1 -0.1)">
       <use xlink:href="#DejaVuSans-38"/>
       <use x="63.623047" xlink:href="#DejaVuSans-2e"/>
       <use x="95.410156" xlink:href="#DejaVuSans-35"/>
      </g>
     </g>
    </g>
    <g id="ytick_3">
     <g id="line2d_10">
      <g>
       <use style="stroke:#000000;stroke-width:0.8;" x="36.465625" xlink:href="#me409bf94f9" y="158.234072"/>
      </g>
     </g>
     <g id="text_10">
      <!-- 9.0 -->
      <defs>
       <path d="M 10.984375 1.515625 
L 10.984375 10.5 
Q 14.703125 8.734375 18.5 7.8125 
Q 22.3125 6.890625 25.984375 6.890625 
Q 35.75 6.890625 40.890625 13.453125 
Q 46.046875 20.015625 46.78125 33.40625 
Q 43.953125 29.203125 39.59375 26.953125 
Q 35.25 24.703125 29.984375 24.703125 
Q 19.046875 24.703125 12.671875 31.3125 
Q 6.296875 37.9375 6.296875 49.421875 
Q 6.296875 60.640625 12.9375 67.421875 
Q 19.578125 74.21875 30.609375 74.21875 
Q 43.265625 74.21875 49.921875 64.515625 
Q 56.59375 54.828125 56.59375 36.375 
Q 56.59375 19.140625 48.40625 8.859375 
Q 40.234375 -1.421875 26.421875 -1.421875 
Q 22.703125 -1.421875 18.890625 -0.6875 
Q 15.09375 0.046875 10.984375 1.515625 
z
M 30.609375 32.421875 
Q 37.25 32.421875 41.125 36.953125 
Q 45.015625 41.5 45.015625 49.421875 
Q 45.015625 57.28125 41.125 61.84375 
Q 37.25 66.40625 30.609375 66.40625 
Q 23.96875 66.40625 20.09375 61.84375 
Q 16.21875 57.28125 16.21875 49.421875 
Q 16.21875 41.5 20.09375 36.953125 
Q 23.96875 32.421875 30.609375 32.421875 
z
" id="DejaVuSans-39"/>
      </defs>
      <g transform="translate(13.5625 162.033291)scale(0.1 -0.1)">
       <use xlink:href="#DejaVuSans-39"/>
       <use x="63.623047" xlink:href="#DejaVuSans-2e"/>
       <use x="95.410156" xlink:href="#DejaVuSans-30"/>
      </g>
     </g>
    </g>
    <g id="ytick_4">
     <g id="line2d_11">
      <g>
       <use style="stroke:#000000;stroke-width:0.8;" x="36.465625" xlink:href="#me409bf94f9" y="102.278314"/>
      </g>
     </g>
     <g id="text_11">
      <!-- 9.5 -->
      <g transform="translate(13.5625 106.077533)scale(0.1 -0.1)">
       <use xlink:href="#DejaVuSans-39"/>
       <use x="63.623047" xlink:href="#DejaVuSans-2e"/>
       <use x="95.410156" xlink:href="#DejaVuSans-35"/>
      </g>
     </g>
    </g>
    <g id="ytick_5">
     <g id="line2d_12">
      <g>
       <use style="stroke:#000000;stroke-width:0.8;" x="36.465625" xlink:href="#me409bf94f9" y="46.322557"/>
      </g>
     </g>
     <g id="text_12">
      <!-- 10.0 -->
      <g transform="translate(7.2 50.121775)scale(0.1 -0.1)">
       <use xlink:href="#DejaVuSans-31"/>
       <use x="63.623047" xlink:href="#DejaVuSans-30"/>
       <use x="127.246094" xlink:href="#DejaVuSans-2e"/>
       <use x="159.033203" xlink:href="#DejaVuSans-30"/>
      </g>
     </g>
    </g>
   </g>
   <g id="line2d_13">
    <path clip-path="url(#p920df30fe1)" d="M 52.698352 76.22823 
L 52.95891 63.254601 
L 53.219467 75.171982 
L 53.480025 64.904 
L 53.740582 107.350542 
L 54.001139 73.669578 
L 54.261697 264.716 
L 54.522254 41.307066 
L 54.782812 79.891297 
L 55.043369 79.354714 
L 55.303926 74.764485 
L 55.564484 100.371872 
L 55.825041 88.026751 
L 56.085599 96.32887 
L 56.346156 89.288593 
L 56.606714 77.215885 
L 56.867271 93.1545 
L 57.127828 99.343708 
L 57.388386 79.99603 
L 57.648943 82.000238 
L 57.909501 91.948591 
L 58.170058 90.586874 
L 58.430616 80.151204 
L 58.691173 76.712646 
L 58.95173 92.69056 
L 59.212288 91.267139 
L 59.472845 85.612035 
L 59.733403 82.756027 
L 59.99396 85.706727 
L 60.254517 115.559664 
L 60.515075 84.963608 
L 60.775632 86.042005 
L 61.03619 75.225285 
L 61.296747 77.619119 
L 61.557305 82.170209 
L 61.817862 76.943944 
L 62.078419 67.151588 
L 62.338977 73.393622 
L 62.599534 101.830006 
L 62.860092 77.152301 
L 63.381206 64.093846 
L 63.641764 94.346675 
L 63.902321 85.187571 
L 64.162879 95.467505 
L 64.423436 74.195626 
L 64.683994 95.071862 
L 64.944551 89.620932 
L 65.205108 97.446641 
L 65.465666 111.488045 
L 65.726223 65.431319 
L 65.986781 110.463431 
L 66.507896 81.035155 
L 66.768453 47.111437 
L 67.02901 94.254428 
L 67.289568 106.853467 
L 67.550125 109.563235 
L 67.810683 59.316587 
L 68.331797 88.701171 
L 68.592355 80.578659 
L 68.852912 78.993078 
L 69.11347 86.886653 
L 69.374027 103.449006 
L 69.634585 90.586037 
L 69.895142 88.092736 
L 70.155699 82.025723 
L 70.416257 97.32357 
L 70.676814 90.894859 
L 70.937372 62.864514 
L 71.197929 78.214539 
L 71.458487 75.589284 
L 71.719044 80.045355 
L 71.979601 102.550403 
L 72.240159 79.703591 
L 72.500716 110.6914 
L 73.021831 93.502095 
L 73.282388 61.309376 
L 73.542946 101.106432 
L 73.803503 93.638605 
L 74.064061 80.212467 
L 74.324618 87.94605 
L 74.585176 81.841256 
L 74.845733 67.930707 
L 75.10629 109.056879 
L 75.366848 91.704322 
L 75.627405 92.044266 
L 75.887963 75.411726 
L 76.409078 114.173278 
L 76.669635 83.944173 
L 76.930192 71.815824 
L 77.19075 68.15283 
L 77.451307 77.273181 
L 77.711865 92.728602 
L 77.972422 87.156918 
L 78.232979 98.098316 
L 78.493537 91.734061 
L 78.754094 79.539764 
L 79.014652 83.672199 
L 79.275209 76.10331 
L 79.535767 76.117666 
L 79.796324 85.307625 
L 80.056881 83.837516 
L 80.317439 100.37837 
L 80.577996 87.465648 
L 80.838554 84.088011 
L 81.099111 66.139961 
L 81.359668 88.836246 
L 81.620226 100.110557 
L 81.880783 94.513368 
L 82.141341 99.870554 
L 82.662456 84.20089 
L 82.923013 95.738221 
L 83.18357 87.808109 
L 83.444128 95.941236 
L 83.704685 84.518027 
L 83.965243 86.85218 
L 84.2258 111.226548 
L 84.486358 113.900675 
L 84.746915 99.52537 
L 85.007472 125.072405 
L 85.26803 75.12659 
L 85.528587 133.297074 
L 85.789145 89.267742 
L 86.049702 76.194418 
L 86.310259 89.842205 
L 86.570817 84.290998 
L 86.831374 105.300135 
L 87.091932 70.616982 
L 87.352489 109.942865 
L 87.613047 119.492634 
L 87.873604 108.298435 
L 88.134161 68.024467 
L 88.655276 96.664335 
L 88.915834 66.859196 
L 89.176391 91.15469 
L 89.436949 83.541028 
L 89.697506 88.272548 
L 89.958063 114.727759 
L 90.218621 71.994759 
L 90.479178 72.977572 
L 90.739736 76.023028 
L 91.000293 106.564595 
L 91.26085 73.576229 
L 91.781965 89.257995 
L 92.042523 89.395458 
L 92.30308 57.590395 
L 92.563638 90.794726 
L 92.824195 103.269897 
L 93.084752 84.569007 
L 93.34531 85.071085 
L 93.605867 81.098681 
L 93.866425 107.264628 
L 94.126982 105.517253 
L 94.387539 73.228852 
L 94.648097 75.996258 
L 94.908654 74.154107 
L 95.169212 85.062228 
L 95.429769 85.400652 
L 95.690327 84.177041 
L 95.950884 69.133856 
L 96.211441 47.367985 
L 96.471999 88.816209 
L 96.732556 74.582085 
L 96.993114 75.514687 
L 97.253671 104.432956 
L 97.514229 93.680833 
L 97.774786 67.033356 
L 98.035343 83.705258 
L 98.556458 62.841189 
L 98.817016 66.701551 
L 99.077573 92.79367 
L 99.598688 90.485001 
L 99.859245 71.50834 
L 100.119803 86.204278 
L 100.38036 115.853287 
L 100.640918 82.831647 
L 100.901475 97.432133 
L 101.162032 99.504666 
L 101.42259 91.878798 
L 101.683147 106.595958 
L 101.943705 112.269266 
L 102.204262 67.822725 
L 102.46482 116.434726 
L 102.725377 73.870096 
L 102.985934 70.074711 
L 103.246492 69.183824 
L 103.507049 89.666249 
L 103.767607 86.090947 
L 104.028164 77.057577 
L 104.288721 73.799266 
L 104.549279 83.081877 
L 104.809836 83.823672 
L 105.330951 58.161423 
L 105.591509 98.873511 
L 106.112623 66.860695 
L 106.373181 84.39147 
L 106.633738 85.125482 
L 106.894296 81.063524 
L 107.154853 102.72256 
L 107.675968 82.088299 
L 107.936525 104.657718 
L 108.197083 70.925693 
L 108.45764 105.063696 
L 108.718198 109.923689 
L 108.978755 85.963852 
L 109.239312 84.138618 
L 109.49987 95.948627 
L 109.760427 88.48517 
L 110.020985 92.732688 
L 110.281542 85.894693 
L 110.5421 96.544215 
L 110.802657 71.871742 
L 111.584329 95.090967 
L 111.844887 92.441377 
L 112.105444 105.797638 
L 112.366001 90.510767 
L 112.626559 85.04323 
L 113.147674 90.942799 
L 113.408231 80.405961 
L 113.668789 84.400698 
L 113.929346 79.558693 
L 114.189903 94.20826 
L 114.450461 95.55512 
L 114.711018 69.894055 
L 114.971576 89.499045 
L 115.232133 75.492368 
L 115.753248 100.148067 
L 116.013805 83.021821 
L 116.53492 99.948911 
L 116.795478 82.676131 
L 117.056035 88.078064 
L 117.316592 82.161251 
L 117.57715 85.248374 
L 117.837707 82.909902 
L 118.098265 89.688329 
L 118.358822 90.278076 
L 118.61938 82.739213 
L 118.879937 100.937904 
L 119.401052 84.563817 
L 119.661609 86.141146 
L 119.922167 91.167816 
L 120.182724 85.213313 
L 120.443282 83.998588 
L 120.703839 93.930239 
L 120.964396 86.440829 
L 121.224954 90.864397 
L 121.485511 78.85652 
L 121.746069 84.200075 
L 122.006626 86.867347 
L 122.267183 94.280761 
L 122.527741 71.29808 
L 122.788298 90.849042 
L 123.048856 91.515474 
L 123.309413 95.387908 
L 123.830528 89.616509 
L 124.091085 91.058876 
L 124.6122 102.288443 
L 124.872758 81.860086 
L 125.133315 81.367581 
L 125.393872 104.226116 
L 125.65443 83.010413 
L 125.914987 81.039262 
L 126.69666 94.203205 
L 126.957217 84.787638 
L 127.217774 85.407285 
L 127.478332 92.544737 
L 127.738889 76.311639 
L 127.999447 81.07044 
L 128.260004 91.670406 
L 128.520562 80.911692 
L 128.781119 85.91891 
L 129.041676 97.404581 
L 129.302234 101.534702 
L 129.562791 86.938749 
L 129.823349 99.773533 
L 130.083906 86.390872 
L 130.344463 89.504626 
L 130.605021 105.115307 
L 130.865578 85.11693 
L 131.126136 82.736312 
L 131.386693 89.258369 
L 131.907808 77.187194 
L 132.168365 89.415329 
L 132.428923 89.180495 
L 132.68948 80.531859 
L 132.950038 87.305829 
L 133.210595 81.099138 
L 133.471153 92.481986 
L 133.73171 87.808824 
L 133.992267 91.3409 
L 134.252825 85.866631 
L 134.513382 84.245665 
L 135.034497 94.326902 
L 135.295054 92.934172 
L 135.555612 72.803809 
L 135.816169 90.516746 
L 136.076727 79.12873 
L 136.337284 82.193096 
L 136.597842 93.403971 
L 136.858399 92.666645 
L 137.118956 81.124551 
L 137.379514 94.525403 
L 137.900629 75.820831 
L 138.161186 88.892182 
L 138.421743 80.307174 
L 138.942858 92.519701 
L 139.203416 84.995081 
L 139.724531 81.924267 
L 139.985088 82.133373 
L 140.506203 109.019642 
L 140.76676 88.075023 
L 141.027318 86.256054 
L 141.287875 85.344578 
L 141.548433 82.852967 
L 141.80899 93.430726 
L 142.069547 89.632945 
L 142.330105 93.330889 
L 142.590662 86.855562 
L 142.85122 89.434604 
L 143.111777 97.246094 
L 143.372334 96.907431 
L 143.632892 83.042354 
L 143.893449 83.563416 
L 144.154007 97.802897 
L 144.414564 84.116703 
L 144.675122 87.860976 
L 144.935679 79.73706 
L 145.196236 81.4066 
L 145.456794 82.274856 
L 145.717351 81.857812 
L 145.977909 96.976814 
L 146.499024 85.341489 
L 146.759581 78.280145 
L 147.020138 91.620555 
L 147.280696 82.461092 
L 147.541253 89.544901 
L 147.801811 91.60219 
L 148.062368 84.383405 
L 148.583483 87.787412 
L 148.84404 86.928148 
L 149.104598 92.790334 
L 149.365155 85.487152 
L 149.625713 94.38007 
L 149.88627 87.037125 
L 150.146827 85.928377 
L 150.407385 86.411399 
L 150.667942 90.240342 
L 150.9285 90.453055 
L 151.189057 87.849732 
L 151.449614 86.440942 
L 151.710172 85.804899 
L 151.970729 83.583558 
L 152.491844 86.497862 
L 152.752402 82.611414 
L 153.012959 82.124362 
L 153.273516 89.525613 
L 153.534074 85.998837 
L 153.794631 84.82596 
L 154.055189 85.386018 
L 154.315746 85.043822 
L 154.576304 87.243286 
L 154.836861 85.782762 
L 155.097418 88.776776 
L 155.357976 88.088967 
L 155.618533 85.635387 
L 155.879091 86.366375 
L 156.139648 85.867168 
L 156.400205 84.837701 
L 156.660763 87.44355 
L 156.92132 86.992228 
L 157.181878 85.361009 
L 157.442435 85.854609 
L 157.702993 85.220576 
L 157.96355 88.581758 
L 158.224107 84.692095 
L 158.484665 84.984627 
L 158.745222 88.318713 
L 159.00578 87.171679 
L 159.266337 89.125295 
L 159.526895 86.933014 
L 159.787452 87.495332 
L 160.048009 87.446804 
L 160.308567 86.381328 
L 160.569124 87.687374 
L 160.829682 85.48582 
L 161.090239 85.589514 
L 161.350796 86.537022 
L 161.611354 88.458768 
L 161.871911 88.019273 
L 162.132469 85.480392 
L 162.914141 88.484054 
L 163.174698 85.853764 
L 163.435256 85.403879 
L 163.695813 87.398875 
L 163.956371 88.008565 
L 164.216928 88.012637 
L 164.477485 85.780189 
L 164.738043 86.853108 
L 164.9986 85.720535 
L 165.259158 85.590514 
L 165.519715 87.741255 
L 165.780273 87.368707 
L 166.04083 87.598162 
L 166.301387 88.082021 
L 166.561945 86.624778 
L 166.822502 86.665765 
L 167.08306 90.323607 
L 167.604175 85.359334 
L 167.864732 85.016252 
L 168.125289 86.06205 
L 168.385847 86.165578 
L 168.646404 87.869274 
L 168.906962 95.165068 
L 169.167519 87.666159 
L 169.428076 88.056269 
L 169.688634 84.997031 
L 169.949191 88.12503 
L 170.209749 86.846805 
L 170.470306 86.875916 
L 170.730864 87.22831 
L 171.251978 88.320395 
L 171.512536 87.777384 
L 171.773093 89.263467 
L 172.033651 89.922297 
L 172.815323 83.643136 
L 173.07588 87.692966 
L 173.336438 86.547531 
L 173.596995 87.887557 
L 173.857553 86.548691 
L 174.11811 87.354876 
L 174.378667 85.102056 
L 174.639225 89.536839 
L 174.899782 96.310354 
L 175.16034 85.536819 
L 175.420897 88.745828 
L 175.681455 86.17514 
L 175.942012 89.190334 
L 176.202569 87.537898 
L 176.463127 87.95968 
L 176.723684 87.150007 
L 176.984242 86.915214 
L 177.244799 86.326879 
L 177.505357 87.2738 
L 177.765914 86.976324 
L 178.287029 84.624185 
L 178.547586 88.694296 
L 178.808144 87.62664 
L 179.068701 87.96591 
L 179.329258 87.599777 
L 179.589816 82.680887 
L 179.850373 83.545392 
L 180.110931 87.333707 
L 180.371488 85.245895 
L 180.632046 90.971664 
L 180.892603 86.545169 
L 181.15316 87.475004 
L 181.413718 85.416708 
L 181.674275 85.094782 
L 181.934833 86.877715 
L 182.19539 86.712906 
L 182.455947 87.336819 
L 182.716505 87.398013 
L 182.977062 84.295795 
L 183.23762 87.426934 
L 183.498177 85.269339 
L 184.279849 89.201235 
L 184.800964 83.257577 
L 185.061522 86.721609 
L 185.322079 87.475276 
L 185.582637 84.680395 
L 185.843194 88.915435 
L 186.103751 85.272408 
L 186.364309 87.712808 
L 186.624866 85.663405 
L 186.885424 88.283814 
L 187.145981 86.113984 
L 187.667096 84.086504 
L 187.927653 90.805851 
L 188.188211 87.473874 
L 188.448768 85.788972 
L 188.709326 85.70409 
L 188.969883 86.323673 
L 189.23044 86.602344 
L 189.490998 90.002546 
L 189.751555 84.46348 
L 190.012113 85.662439 
L 190.27267 88.844196 
L 190.533228 58.856863 
L 190.793785 85.99583 
L 191.054342 85.629597 
L 191.3149 86.124413 
L 191.575457 89.709507 
L 191.836015 87.985403 
L 192.357129 86.408227 
L 192.617687 87.268888 
L 192.878244 87.652245 
L 193.138802 85.773355 
L 193.399359 88.508819 
L 193.659917 88.672073 
L 193.920474 89.34512 
L 194.181031 87.780124 
L 194.441589 87.676888 
L 194.702146 88.157861 
L 194.962704 85.535364 
L 195.223261 86.638613 
L 195.483818 85.426425 
L 195.744376 88.321304 
L 196.004933 86.428995 
L 196.526048 86.483754 
L 196.786606 87.924287 
L 197.047163 90.901754 
L 197.30772 86.554945 
L 197.568278 86.536232 
L 197.828835 83.925917 
L 198.089393 88.837233 
L 199.131622 85.651809 
L 199.39218 88.419419 
L 199.652737 89.533813 
L 199.913295 85.802407 
L 200.173852 87.170864 
L 200.434409 87.440676 
L 200.694967 87.040385 
L 201.216082 85.302212 
L 201.476639 82.916492 
L 201.737197 87.812872 
L 201.997754 88.453995 
L 202.258311 85.451905 
L 202.518869 88.04544 
L 202.779426 87.134489 
L 203.039984 85.003796 
L 203.300541 88.236634 
L 203.561099 89.184461 
L 203.821656 88.652717 
L 204.082213 89.68682 
L 204.342771 88.174535 
L 204.603328 84.339319 
L 205.124443 88.82608 
L 205.645558 87.826088 
L 205.906115 89.020582 
L 206.166673 85.927028 
L 206.42723 86.176421 
L 206.687788 89.591623 
L 206.948345 88.427141 
L 207.208902 89.672334 
L 207.46946 89.338471 
L 207.990575 86.440133 
L 208.251132 86.983553 
L 208.511689 88.279268 
L 208.772247 86.789745 
L 209.032804 86.373973 
L 209.293362 89.780226 
L 209.553919 91.340624 
L 209.814477 87.042765 
L 210.075034 86.819272 
L 210.335591 85.496565 
L 210.596149 88.041924 
L 210.856706 88.585427 
L 211.117264 87.805344 
L 211.377821 88.262542 
L 211.638379 89.551503 
L 211.898936 86.517663 
L 212.159493 85.254001 
L 212.420051 87.774015 
L 212.941166 84.805025 
L 213.201723 87.3714 
L 213.46228 87.350443 
L 213.722838 87.015467 
L 213.983395 85.038181 
L 214.50451 87.519736 
L 214.765068 86.47508 
L 215.025625 86.052444 
L 215.286182 87.137663 
L 215.54674 84.904039 
L 216.067855 89.170317 
L 216.328412 85.050932 
L 216.58897 87.413828 
L 216.849527 87.060246 
L 217.110084 84.317769 
L 217.370642 86.719609 
L 217.631199 87.044123 
L 217.891757 83.562068 
L 218.152314 89.17367 
L 218.412871 86.355961 
L 218.673429 88.074588 
L 218.933986 84.891792 
L 219.194544 87.201297 
L 219.455101 86.2473 
L 219.715659 86.224779 
L 219.976216 89.327319 
L 220.497331 85.9326 
L 221.018446 88.582265 
L 221.539561 85.781317 
L 221.800118 82.037909 
L 222.060675 84.886274 
L 222.321233 85.683327 
L 222.842348 85.603372 
L 223.102905 86.527171 
L 223.363462 85.460946 
L 223.62402 85.814821 
L 224.145135 84.675897 
L 224.405692 86.87265 
L 224.66625 87.216856 
L 225.187364 84.321585 
L 225.447922 88.759316 
L 225.969037 86.213488 
L 226.490151 86.828637 
L 226.750709 86.779778 
L 227.011266 87.514319 
L 227.271824 87.192797 
L 227.532381 84.103769 
L 227.792939 86.162734 
L 228.053496 85.042923 
L 228.314053 88.543963 
L 228.574611 85.653044 
L 228.835168 85.928021 
L 229.095726 84.288825 
L 229.356283 88.101921 
L 229.616841 86.632855 
L 229.877398 87.558297 
L 230.137955 85.596017 
L 230.65907 87.489912 
L 231.180185 85.741798 
L 231.440742 87.961049 
L 231.7013 85.666347 
L 231.961857 84.48487 
L 232.222415 87.901515 
L 232.74353 85.190164 
L 233.004087 84.674266 
L 233.264644 85.29155 
L 233.525202 90.339827 
L 234.046317 84.164725 
L 234.306874 87.480339 
L 234.567432 85.938249 
L 234.827989 87.759273 
L 235.088546 83.246581 
L 235.349104 87.950336 
L 235.609661 88.461825 
L 235.870219 85.71559 
L 236.130776 85.518698 
L 236.391333 86.647745 
L 236.651891 85.106711 
L 236.912448 85.88656 
L 237.173006 85.454713 
L 237.433563 87.418717 
L 237.694121 88.11312 
L 237.954678 87.183698 
L 238.215235 88.397253 
L 238.475793 85.555554 
L 238.73635 85.899853 
L 238.996908 87.303427 
L 239.257465 85.526322 
L 239.518022 85.006464 
L 240.039137 88.693912 
L 240.299695 85.798105 
L 240.560252 91.597033 
L 240.82081 83.883055 
L 241.081367 84.269557 
L 241.341924 85.62897 
L 241.602482 84.092162 
L 241.863039 85.878155 
L 242.123597 81.612694 
L 242.384154 85.358431 
L 242.644712 95.001839 
L 242.905269 87.080744 
L 243.165826 84.021538 
L 243.426384 84.519019 
L 243.686941 87.384638 
L 243.947499 87.773622 
L 244.208056 85.245935 
L 244.468613 85.014964 
L 244.989728 86.820218 
L 245.250286 83.758715 
L 245.510843 83.661393 
L 245.771401 92.182036 
L 246.292515 83.076707 
L 246.553073 90.202063 
L 247.074188 79.41075 
L 247.334745 80.430066 
L 247.595303 94.7713 
L 247.85586 80.808564 
L 248.116417 87.148935 
L 248.376975 84.704265 
L 248.637532 89.971879 
L 248.89809 87.586503 
L 249.158647 91.996474 
L 249.419204 86.942883 
L 249.679762 85.716476 
L 249.940319 98.177741 
L 250.200877 97.24475 
L 250.461434 96.782628 
L 250.721992 90.950471 
L 250.982549 79.479485 
L 251.243106 85.844539 
L 251.503664 66.816236 
L 251.764221 83.417103 
L 252.024779 82.541203 
L 252.545893 90.541948 
L 252.806451 89.461452 
L 253.067008 90.654865 
L 253.327566 79.635274 
L 253.588123 77.724266 
L 253.848681 89.547367 
L 254.109238 88.303624 
L 254.369795 88.680571 
L 254.630353 87.728554 
L 254.89091 97.849387 
L 255.151468 81.049325 
L 255.412025 81.618648 
L 255.672583 87.785325 
L 255.93314 89.378965 
L 256.193697 91.83544 
L 256.454255 92.503858 
L 256.714812 96.227563 
L 256.97537 79.039 
L 257.235927 82.379974 
L 257.496484 75.431476 
L 257.757042 93.927303 
L 258.017599 91.324511 
L 258.278157 79.960889 
L 258.799272 93.869123 
L 259.059829 99.775496 
L 259.320386 73.371604 
L 259.580944 79.705994 
L 259.841501 82.171716 
L 260.102059 96.114594 
L 260.623174 77.39754 
L 260.883731 89.438596 
L 261.144288 86.467954 
L 261.665403 92.743913 
L 262.447075 75.610012 
L 262.707633 84.940642 
L 262.96819 84.69366 
L 263.228748 97.131807 
L 263.489305 90.759343 
L 263.749863 78.706521 
L 264.01042 100.648424 
L 264.270977 79.613351 
L 264.531535 80.112176 
L 264.792092 82.292767 
L 265.05265 80.790948 
L 265.313207 94.772863 
L 265.573765 73.221633 
L 266.094879 89.052241 
L 266.355437 91.603999 
L 266.615994 85.578231 
L 266.876552 83.569655 
L 267.137109 68.664972 
L 267.397666 97.095121 
L 267.658224 79.970899 
L 267.918781 86.005363 
L 268.179339 73.362529 
L 268.439896 80.342951 
L 268.700454 72.094655 
L 268.961011 95.217469 
L 269.221568 81.034992 
L 269.482126 81.046682 
L 269.742683 73.605147 
L 270.003241 75.625808 
L 270.263798 82.174595 
L 270.524355 103.039313 
L 270.784913 87.272668 
L 271.04547 101.546505 
L 271.306028 79.342995 
L 271.566585 79.755712 
L 271.827143 79.388129 
L 272.0877 79.412326 
L 272.608815 103.202195 
L 272.869372 94.802545 
L 273.12993 80.225299 
L 273.390487 86.249524 
L 273.651045 79.740747 
L 273.911602 97.616695 
L 274.172159 85.688025 
L 274.432717 91.749281 
L 274.693274 81.451469 
L 274.953832 86.966302 
L 275.214389 78.000973 
L 275.474946 85.692048 
L 275.735504 72.553676 
L 275.996061 79.646257 
L 276.256619 90.72539 
L 276.517176 88.759216 
L 276.777734 93.148544 
L 277.038291 88.988609 
L 277.298848 89.758283 
L 277.559406 78.882783 
L 277.819963 83.907461 
L 278.080521 76.044578 
L 278.341078 71.88629 
L 278.862193 89.341036 
L 279.12275 82.286343 
L 279.383308 82.559426 
L 279.643865 73.193201 
L 279.904423 106.332279 
L 280.16498 88.024973 
L 280.425537 89.104794 
L 280.686095 87.102881 
L 280.946652 81.322886 
L 281.20721 65.599109 
L 281.467767 95.263978 
L 281.728325 84.77396 
L 281.988882 98.768158 
L 282.249439 76.839593 
L 282.509997 78.123148 
L 282.770554 90.397503 
L 283.031112 92.378125 
L 283.291669 79.915316 
L 283.552226 88.22244 
L 283.812784 109.559436 
L 284.073341 102.139877 
L 284.333899 104.853476 
L 284.594456 85.553924 
L 284.855014 79.459906 
L 285.115571 84.122584 
L 285.376128 99.413802 
L 285.636686 90.084224 
L 285.897243 92.277448 
L 286.157801 78.454606 
L 286.418358 83.643022 
L 286.678916 83.248803 
L 286.939473 91.620444 
L 287.20003 85.427574 
L 287.460588 82.257591 
L 287.721145 90.143714 
L 287.981703 88.757707 
L 288.24226 79.205345 
L 288.502817 88.008724 
L 288.763375 89.109976 
L 289.023932 85.127917 
L 289.28449 85.511575 
L 289.545047 85.430201 
L 289.805605 80.374123 
L 290.066162 97.954658 
L 290.326719 82.76862 
L 290.587277 89.568992 
L 290.847834 84.070725 
L 291.108392 82.609743 
L 291.368949 86.710089 
L 291.629507 86.687182 
L 291.890064 92.541078 
L 292.671736 72.446143 
L 292.932294 87.624849 
L 293.192851 92.161894 
L 293.713966 82.970697 
L 293.974523 96.122583 
L 294.495638 92.764539 
L 294.756196 77.112346 
L 295.27731 89.344591 
L 295.537868 89.927231 
L 295.798425 77.516708 
L 296.058983 75.537373 
L 296.31954 67.957492 
L 296.580097 86.782385 
L 296.840655 94.368064 
L 297.101212 97.803283 
L 297.36177 84.345942 
L 297.622327 83.439583 
L 297.882885 87.808472 
L 298.143442 88.82224 
L 298.403999 85.418509 
L 298.664557 75.8886 
L 298.925114 85.366047 
L 299.185672 86.968779 
L 299.446229 87.29862 
L 299.706787 80.130961 
L 299.967344 85.358875 
L 300.488459 88.756922 
L 300.749016 81.169393 
L 301.009574 82.611436 
L 301.270131 89.270424 
L 301.791246 83.117933 
L 302.051803 78.929365 
L 302.312361 88.850891 
L 302.572918 82.768981 
L 302.833476 90.097767 
L 303.094033 89.245322 
L 303.35459 96.974397 
L 303.615148 85.101899 
L 303.875705 86.748515 
L 304.136263 97.450196 
L 304.39682 88.711124 
L 304.657378 86.423782 
L 304.917935 79.363485 
L 305.178492 97.762958 
L 305.43905 95.54273 
L 305.960165 79.773741 
L 306.220722 83.051359 
L 306.481279 93.95762 
L 306.741837 90.104638 
L 307.002394 90.593422 
L 307.262952 82.541411 
L 307.523509 91.668895 
L 307.784067 87.385883 
L 308.044624 93.054425 
L 308.305181 93.097843 
L 308.565739 77.705256 
L 308.826296 82.184134 
L 309.086854 88.649176 
L 309.347411 84.96301 
L 309.607968 84.415219 
L 310.129083 86.775674 
L 310.389641 79.526178 
L 310.650198 92.188312 
L 310.910756 87.63154 
L 311.171313 93.297331 
L 311.43187 78.944745 
L 311.692428 81.750911 
L 311.952985 88.200299 
L 312.213543 86.261048 
L 312.734658 78.900915 
L 312.995215 91.241248 
L 313.255772 91.051386 
L 313.51633 81.987186 
L 313.776887 82.330641 
L 314.037445 84.065223 
L 314.298002 79.371384 
L 314.558559 89.626188 
L 314.819117 87.945786 
L 315.079674 80.522285 
L 315.340232 86.745646 
L 315.600789 88.82949 
L 315.861347 85.130811 
L 316.121904 85.779731 
L 316.382461 94.61749 
L 316.643019 84.406803 
L 316.903576 85.009199 
L 317.164134 87.897297 
L 317.685249 84.675405 
L 317.945806 86.398095 
L 318.206363 86.011828 
L 318.466921 89.620884 
L 318.727478 84.482748 
L 318.988036 85.417636 
L 319.248593 79.266625 
L 319.50915 87.249563 
L 319.769708 85.98095 
L 320.030265 85.535692 
L 320.290823 82.996582 
L 320.55138 83.329563 
L 320.811938 76.399099 
L 321.072495 92.063707 
L 321.333052 79.073216 
L 321.59361 89.427805 
L 321.854167 92.919038 
L 322.114725 90.797136 
L 322.375282 86.762408 
L 322.896397 90.049959 
L 323.417512 77.722832 
L 323.678069 86.783662 
L 323.938627 81.507789 
L 324.459741 88.70377 
L 324.980856 88.27529 
L 325.241414 86.301555 
L 325.501971 82.752983 
L 325.762529 81.790858 
L 326.023086 86.439034 
L 326.283643 83.091479 
L 326.544201 84.695537 
L 326.804758 90.607607 
L 327.065316 83.877659 
L 327.325873 85.599712 
L 327.846988 91.340185 
L 328.107545 86.416222 
L 328.368103 87.573268 
L 328.62866 90.808007 
L 328.889218 86.095081 
L 329.149775 90.733849 
L 329.410332 88.582764 
L 329.67089 87.545268 
L 329.931447 78.435059 
L 330.192005 85.298103 
L 330.452562 88.033913 
L 330.71312 86.357385 
L 331.234234 84.48379 
L 331.494792 81.726144 
L 331.755349 80.683165 
L 332.015907 81.905267 
L 332.276464 90.430079 
L 332.537021 85.370343 
L 332.797579 84.057264 
L 333.058136 81.495937 
L 333.318694 89.325569 
L 333.579251 82.726465 
L 333.839809 87.928222 
L 334.100366 84.223421 
L 334.360923 84.87015 
L 334.621481 84.850747 
L 334.882038 89.651299 
L 335.142596 89.404389 
L 335.403153 84.423311 
L 335.663711 83.748417 
L 335.924268 84.865678 
L 336.184825 83.293092 
L 336.445383 82.918707 
L 336.70594 90.909825 
L 336.966498 88.289742 
L 337.227055 88.486631 
L 337.487612 82.190295 
L 338.008727 86.27033 
L 338.269285 83.65554 
L 338.529842 84.544288 
L 338.7904 84.519829 
L 339.050957 89.926836 
L 339.311514 81.530165 
L 339.572072 81.448484 
L 339.832629 83.745975 
L 340.353744 85.160551 
L 340.614301 88.008555 
L 340.874859 88.983277 
L 341.135416 87.172696 
L 341.395974 82.089821 
L 341.656531 88.053982 
L 341.917089 84.466931 
L 342.177646 84.587538 
L 342.438203 84.858174 
L 342.698761 86.185858 
L 342.959318 84.160067 
L 343.219876 84.45055 
L 343.480433 83.963784 
L 343.740991 84.753798 
L 344.001548 84.967865 
L 344.262105 81.984103 
L 344.522663 85.457419 
L 344.78322 85.149762 
L 345.043778 94.598234 
L 345.304335 82.706282 
L 345.564892 89.914448 
L 345.82545 83.210036 
L 346.086007 85.301383 
L 346.346565 84.915576 
L 346.607122 87.785964 
L 346.86768 86.541923 
L 347.128237 83.702994 
L 347.388794 87.317404 
L 347.649352 85.69167 
L 347.909909 89.400984 
L 348.170467 84.670897 
L 348.431024 86.791927 
L 348.691582 85.82534 
L 348.952139 89.559729 
L 349.212696 81.311623 
L 349.473254 86.097999 
L 349.733811 86.939654 
L 349.994369 82.971622 
L 350.254926 86.017041 
L 350.515483 86.907479 
L 350.776041 80.89759 
L 351.036598 84.563185 
L 351.557713 80.72197 
L 351.818271 80.930603 
L 352.078828 89.483517 
L 352.339385 91.240674 
L 352.599943 83.88924 
L 352.8605 85.216246 
L 353.121058 89.647707 
L 353.381615 89.344262 
L 353.642172 84.002705 
L 353.90273 82.479057 
L 354.163287 84.170927 
L 354.423845 84.952638 
L 354.684402 83.167304 
L 354.94496 89.359782 
L 355.205517 81.414558 
L 355.726632 90.501016 
L 355.987189 88.483258 
L 356.508304 79.293217 
L 356.768862 83.710483 
L 357.029419 83.279079 
L 357.289976 87.14595 
L 357.550534 95.333385 
L 357.811091 89.803036 
L 358.071649 92.010075 
L 358.332206 87.458732 
L 358.592763 86.30588 
L 358.853321 92.292971 
L 359.113878 89.284494 
L 359.374436 84.538252 
L 359.634993 81.907748 
L 359.895551 86.810096 
L 360.156108 88.767667 
L 360.416665 84.611004 
L 360.677223 89.627395 
L 360.93778 85.020929 
L 361.198338 89.771258 
L 361.458895 89.96537 
L 361.719453 85.831519 
L 361.98001 88.674626 
L 362.501125 81.017517 
L 362.761682 84.809116 
L 363.02224 83.355027 
L 363.282797 89.873087 
L 363.543354 83.437344 
L 363.803912 84.37331 
L 364.064469 86.730842 
L 364.325027 81.366248 
L 364.585584 85.557319 
L 364.846142 85.183901 
L 365.106699 82.616112 
L 365.367256 89.476372 
L 365.627814 250.997853 
L 365.888371 22.796 
L 366.148929 107.231863 
L 366.409486 136.661055 
L 366.670044 78.430316 
L 366.930601 91.978917 
L 367.191158 90.82202 
L 367.451716 81.815538 
L 367.712273 92.741403 
L 368.233388 82.932064 
L 368.493945 87.33467 
L 368.754503 84.21222 
L 369.01506 87.071847 
L 369.275618 82.345894 
L 369.536175 87.126384 
L 369.796733 81.530265 
L 370.05729 92.305804 
L 370.317847 88.774838 
L 370.578405 80.883941 
L 370.838962 86.407025 
L 371.09952 86.830943 
L 371.360077 83.888795 
L 371.620634 87.457634 
L 371.881192 79.570187 
L 372.141749 82.514062 
L 372.402307 80.389134 
L 372.662864 67.640108 
L 372.923422 74.820081 
L 373.183979 87.422156 
L 373.444536 76.827392 
L 373.705094 78.544671 
L 373.965651 81.687283 
L 374.226209 81.960684 
L 374.486766 76.704771 
L 374.747324 85.462852 
L 375.007881 78.548666 
L 375.268438 83.715389 
L 375.528996 79.007548 
L 375.789553 82.291127 
L 376.050111 82.001253 
L 376.310668 80.765124 
L 376.571225 75.968237 
L 376.831783 76.231452 
L 377.09234 92.22762 
L 377.352898 135.605778 
L 377.352898 135.605778 
" style="fill:none;stroke:#1f77b4;stroke-linecap:square;stroke-width:1.5;"/>
   </g>
   <g id="patch_3">
    <path d="M 36.465625 276.812 
L 36.465625 10.7 
" style="fill:none;stroke:#000000;stroke-linecap:square;stroke-linejoin:miter;stroke-width:0.8;"/>
   </g>
   <g id="patch_4">
    <path d="M 393.585625 276.812 
L 393.585625 10.7 
" style="fill:none;stroke:#000000;stroke-linecap:square;stroke-linejoin:miter;stroke-width:0.8;"/>
   </g>
   <g id="patch_5">
    <path d="M 36.465625 276.812 
L 393.585625 276.812 
" style="fill:none;stroke:#000000;stroke-linecap:square;stroke-linejoin:miter;stroke-width:0.8;"/>
   </g>
   <g id="patch_6">
    <path d="M 36.465625 10.7 
L 393.585625 10.7 
" style="fill:none;stroke:#000000;stroke-linecap:square;stroke-linejoin:miter;stroke-width:0.8;"/>
   </g>
  </g>
 </g>
 <defs>
  <clipPath id="p920df30fe1">
   <rect height="266.112" width="357.12" x="36.465625" y="10.7"/>
  </clipPath>
 </defs>
</svg>
