<?xml version="1.0" encoding="utf-8" standalone="no"?>
<!DOCTYPE svg PUBLIC "-//W3C//DTD SVG 1.1//EN"
  "http://www.w3.org/Graphics/SVG/1.1/DTD/svg11.dtd">
<!-- Created with matplotlib (http://matplotlib.org/) -->
<svg height="252.018125pt" version="1.1" viewBox="0 0 372.425 252.018125" width="372.425pt" xmlns="http://www.w3.org/2000/svg" xmlns:xlink="http://www.w3.org/1999/xlink">
 <defs>
  <style type="text/css">
*{stroke-linecap:butt;stroke-linejoin:round;}
  </style>
 </defs>
 <g id="figure_1">
  <g id="patch_1">
   <path d="M -0 252.018125 
L 372.425 252.018125 
L 372.425 0 
L -0 0 
z
" style="fill:#ffffff;"/>
  </g>
  <g id="axes_1">
   <g id="patch_2">
    <path d="M 26.925 228.14 
L 361.725 228.14 
L 361.725 10.7 
L 26.925 10.7 
z
" style="fill:#ffffff;"/>
   </g>
   <g id="matplotlib.axis_1">
    <g id="xtick_1">
     <g id="line2d_1">
      <defs>
       <path d="M 0 0 
L 0 3.5 
" id="ma4eb74a5bb" style="stroke:#000000;stroke-width:0.8;"/>
      </defs>
      <g>
       <use style="stroke:#000000;stroke-width:0.8;" x="42.143182" xlink:href="#ma4eb74a5bb" y="228.14"/>
      </g>
     </g>
     <g id="text_1">
      <!-- 0 -->
      <defs>
       <path d="M 31.78125 66.40625 
Q 24.171875 66.40625 20.328125 58.90625 
Q 16.5 51.421875 16.5 36.375 
Q 16.5 21.390625 20.328125 13.890625 
Q 24.171875 6.390625 31.78125 6.390625 
Q 39.453125 6.390625 43.28125 13.890625 
Q 47.125 21.390625 47.125 36.375 
Q 47.125 51.421875 43.28125 58.90625 
Q 39.453125 66.40625 31.78125 66.40625 
z
M 31.78125 74.21875 
Q 44.046875 74.21875 50.515625 64.515625 
Q 56.984375 54.828125 56.984375 36.375 
Q 56.984375 17.96875 50.515625 8.265625 
Q 44.046875 -1.421875 31.78125 -1.421875 
Q 19.53125 -1.421875 13.0625 8.265625 
Q 6.59375 17.96875 6.59375 36.375 
Q 6.59375 54.828125 13.0625 64.515625 
Q 19.53125 74.21875 31.78125 74.21875 
z
" id="DejaVuSans-30"/>
      </defs>
      <g transform="translate(38.961932 242.738437)scale(0.1 -0.1)">
       <use xlink:href="#DejaVuSans-30"/>
      </g>
     </g>
    </g>
    <g id="xtick_2">
     <g id="line2d_2">
      <g>
       <use style="stroke:#000000;stroke-width:0.8;" x="106.901402" xlink:href="#ma4eb74a5bb" y="228.14"/>
      </g>
     </g>
     <g id="text_2">
      <!-- 50 -->
      <defs>
       <path d="M 10.796875 72.90625 
L 49.515625 72.90625 
L 49.515625 64.59375 
L 19.828125 64.59375 
L 19.828125 46.734375 
Q 21.96875 47.46875 24.109375 47.828125 
Q 26.265625 48.1875 28.421875 48.1875 
Q 40.625 48.1875 47.75 41.5 
Q 54.890625 34.8125 54.890625 23.390625 
Q 54.890625 11.625 47.5625 5.09375 
Q 40.234375 -1.421875 26.90625 -1.421875 
Q 22.3125 -1.421875 17.546875 -0.640625 
Q 12.796875 0.140625 7.71875 1.703125 
L 7.71875 11.625 
Q 12.109375 9.234375 16.796875 8.0625 
Q 21.484375 6.890625 26.703125 6.890625 
Q 35.15625 6.890625 40.078125 11.328125 
Q 45.015625 15.765625 45.015625 23.390625 
Q 45.015625 31 40.078125 35.4375 
Q 35.15625 39.890625 26.703125 39.890625 
Q 22.75 39.890625 18.8125 39.015625 
Q 14.890625 38.140625 10.796875 36.28125 
z
" id="DejaVuSans-35"/>
      </defs>
      <g transform="translate(100.538902 242.738437)scale(0.1 -0.1)">
       <use xlink:href="#DejaVuSans-35"/>
       <use x="63.623047" xlink:href="#DejaVuSans-30"/>
      </g>
     </g>
    </g>
    <g id="xtick_3">
     <g id="line2d_3">
      <g>
       <use style="stroke:#000000;stroke-width:0.8;" x="171.659623" xlink:href="#ma4eb74a5bb" y="228.14"/>
      </g>
     </g>
     <g id="text_3">
      <!-- 100 -->
      <defs>
       <path d="M 12.40625 8.296875 
L 28.515625 8.296875 
L 28.515625 63.921875 
L 10.984375 60.40625 
L 10.984375 69.390625 
L 28.421875 72.90625 
L 38.28125 72.90625 
L 38.28125 8.296875 
L 54.390625 8.296875 
L 54.390625 0 
L 12.40625 0 
z
" id="DejaVuSans-31"/>
      </defs>
      <g transform="translate(162.115873 242.738437)scale(0.1 -0.1)">
       <use xlink:href="#DejaVuSans-31"/>
       <use x="63.623047" xlink:href="#DejaVuSans-30"/>
       <use x="127.246094" xlink:href="#DejaVuSans-30"/>
      </g>
     </g>
    </g>
    <g id="xtick_4">
     <g id="line2d_4">
      <g>
       <use style="stroke:#000000;stroke-width:0.8;" x="236.417843" xlink:href="#ma4eb74a5bb" y="228.14"/>
      </g>
     </g>
     <g id="text_4">
      <!-- 150 -->
      <g transform="translate(226.874093 242.738437)scale(0.1 -0.1)">
       <use xlink:href="#DejaVuSans-31"/>
       <use x="63.623047" xlink:href="#DejaVuSans-35"/>
       <use x="127.246094" xlink:href="#DejaVuSans-30"/>
      </g>
     </g>
    </g>
    <g id="xtick_5">
     <g id="line2d_5">
      <g>
       <use style="stroke:#000000;stroke-width:0.8;" x="301.176064" xlink:href="#ma4eb74a5bb" y="228.14"/>
      </g>
     </g>
     <g id="text_5">
      <!-- 200 -->
      <defs>
       <path d="M 19.1875 8.296875 
L 53.609375 8.296875 
L 53.609375 0 
L 7.328125 0 
L 7.328125 8.296875 
Q 12.9375 14.109375 22.625 23.890625 
Q 32.328125 33.6875 34.8125 36.53125 
Q 39.546875 41.84375 41.421875 45.53125 
Q 43.3125 49.21875 43.3125 52.78125 
Q 43.3125 58.59375 39.234375 62.25 
Q 35.15625 65.921875 28.609375 65.921875 
Q 23.96875 65.921875 18.8125 64.3125 
Q 13.671875 62.703125 7.8125 59.421875 
L 7.8125 69.390625 
Q 13.765625 71.78125 18.9375 73 
Q 24.125 74.21875 28.421875 74.21875 
Q 39.75 74.21875 46.484375 68.546875 
Q 53.21875 62.890625 53.21875 53.421875 
Q 53.21875 48.921875 51.53125 44.890625 
Q 49.859375 40.875 45.40625 35.40625 
Q 44.1875 33.984375 37.640625 27.21875 
Q 31.109375 20.453125 19.1875 8.296875 
z
" id="DejaVuSans-32"/>
      </defs>
      <g transform="translate(291.632314 242.738437)scale(0.1 -0.1)">
       <use xlink:href="#DejaVuSans-32"/>
       <use x="63.623047" xlink:href="#DejaVuSans-30"/>
       <use x="127.246094" xlink:href="#DejaVuSans-30"/>
      </g>
     </g>
    </g>
   </g>
   <g id="matplotlib.axis_2">
    <g id="ytick_1">
     <g id="line2d_6">
      <defs>
       <path d="M 0 0 
L -3.5 0 
" id="md17094e587" style="stroke:#000000;stroke-width:0.8;"/>
      </defs>
      <g>
       <use style="stroke:#000000;stroke-width:0.8;" x="26.925" xlink:href="#md17094e587" y="202.707782"/>
      </g>
     </g>
     <g id="text_6">
      <!-- 7 -->
      <defs>
       <path d="M 8.203125 72.90625 
L 55.078125 72.90625 
L 55.078125 68.703125 
L 28.609375 0 
L 18.3125 0 
L 43.21875 64.59375 
L 8.203125 64.59375 
z
" id="DejaVuSans-37"/>
      </defs>
      <g transform="translate(13.5625 206.507001)scale(0.1 -0.1)">
       <use xlink:href="#DejaVuSans-37"/>
      </g>
     </g>
    </g>
    <g id="ytick_2">
     <g id="line2d_7">
      <g>
       <use style="stroke:#000000;stroke-width:0.8;" x="26.925" xlink:href="#md17094e587" y="157.769777"/>
      </g>
     </g>
     <g id="text_7">
      <!-- 8 -->
      <defs>
       <path d="M 31.78125 34.625 
Q 24.75 34.625 20.71875 30.859375 
Q 16.703125 27.09375 16.703125 20.515625 
Q 16.703125 13.921875 20.71875 10.15625 
Q 24.75 6.390625 31.78125 6.390625 
Q 38.8125 6.390625 42.859375 10.171875 
Q 46.921875 13.96875 46.921875 20.515625 
Q 46.921875 27.09375 42.890625 30.859375 
Q 38.875 34.625 31.78125 34.625 
z
M 21.921875 38.8125 
Q 15.578125 40.375 12.03125 44.71875 
Q 8.5 49.078125 8.5 55.328125 
Q 8.5 64.0625 14.71875 69.140625 
Q 20.953125 74.21875 31.78125 74.21875 
Q 42.671875 74.21875 48.875 69.140625 
Q 55.078125 64.0625 55.078125 55.328125 
Q 55.078125 49.078125 51.53125 44.71875 
Q 48 40.375 41.703125 38.8125 
Q 48.828125 37.15625 52.796875 32.3125 
Q 56.78125 27.484375 56.78125 20.515625 
Q 56.78125 9.90625 50.3125 4.234375 
Q 43.84375 -1.421875 31.78125 -1.421875 
Q 19.734375 -1.421875 13.25 4.234375 
Q 6.78125 9.90625 6.78125 20.515625 
Q 6.78125 27.484375 10.78125 32.3125 
Q 14.796875 37.15625 21.921875 38.8125 
z
M 18.3125 54.390625 
Q 18.3125 48.734375 21.84375 45.5625 
Q 25.390625 42.390625 31.78125 42.390625 
Q 38.140625 42.390625 41.71875 45.5625 
Q 45.3125 48.734375 45.3125 54.390625 
Q 45.3125 60.0625 41.71875 63.234375 
Q 38.140625 66.40625 31.78125 66.40625 
Q 25.390625 66.40625 21.84375 63.234375 
Q 18.3125 60.0625 18.3125 54.390625 
z
" id="DejaVuSans-38"/>
      </defs>
      <g transform="translate(13.5625 161.568995)scale(0.1 -0.1)">
       <use xlink:href="#DejaVuSans-38"/>
      </g>
     </g>
    </g>
    <g id="ytick_3">
     <g id="line2d_8">
      <g>
       <use style="stroke:#000000;stroke-width:0.8;" x="26.925" xlink:href="#md17094e587" y="112.831771"/>
      </g>
     </g>
     <g id="text_8">
      <!-- 9 -->
      <defs>
       <path d="M 10.984375 1.515625 
L 10.984375 10.5 
Q 14.703125 8.734375 18.5 7.8125 
Q 22.3125 6.890625 25.984375 6.890625 
Q 35.75 6.890625 40.890625 13.453125 
Q 46.046875 20.015625 46.78125 33.40625 
Q 43.953125 29.203125 39.59375 26.953125 
Q 35.25 24.703125 29.984375 24.703125 
Q 19.046875 24.703125 12.671875 31.3125 
Q 6.296875 37.9375 6.296875 49.421875 
Q 6.296875 60.640625 12.9375 67.421875 
Q 19.578125 74.21875 30.609375 74.21875 
Q 43.265625 74.21875 49.921875 64.515625 
Q 56.59375 54.828125 56.59375 36.375 
Q 56.59375 19.140625 48.40625 8.859375 
Q 40.234375 -1.421875 26.421875 -1.421875 
Q 22.703125 -1.421875 18.890625 -0.6875 
Q 15.09375 0.046875 10.984375 1.515625 
z
M 30.609375 32.421875 
Q 37.25 32.421875 41.125 36.953125 
Q 45.015625 41.5 45.015625 49.421875 
Q 45.015625 57.28125 41.125 61.84375 
Q 37.25 66.40625 30.609375 66.40625 
Q 23.96875 66.40625 20.09375 61.84375 
Q 16.21875 57.28125 16.21875 49.421875 
Q 16.21875 41.5 20.09375 36.953125 
Q 23.96875 32.421875 30.609375 32.421875 
z
" id="DejaVuSans-39"/>
      </defs>
      <g transform="translate(13.5625 116.63099)scale(0.1 -0.1)">
       <use xlink:href="#DejaVuSans-39"/>
      </g>
     </g>
    </g>
    <g id="ytick_4">
     <g id="line2d_9">
      <g>
       <use style="stroke:#000000;stroke-width:0.8;" x="26.925" xlink:href="#md17094e587" y="67.893766"/>
      </g>
     </g>
     <g id="text_9">
      <!-- 10 -->
      <g transform="translate(7.2 71.692985)scale(0.1 -0.1)">
       <use xlink:href="#DejaVuSans-31"/>
       <use x="63.623047" xlink:href="#DejaVuSans-30"/>
      </g>
     </g>
    </g>
    <g id="ytick_5">
     <g id="line2d_10">
      <g>
       <use style="stroke:#000000;stroke-width:0.8;" x="26.925" xlink:href="#md17094e587" y="22.95576"/>
      </g>
     </g>
     <g id="text_10">
      <!-- 11 -->
      <g transform="translate(7.2 26.754979)scale(0.1 -0.1)">
       <use xlink:href="#DejaVuSans-31"/>
       <use x="63.623047" xlink:href="#DejaVuSans-31"/>
      </g>
     </g>
    </g>
   </g>
   <g id="line2d_11">
    <path clip-path="url(#p90988851ca)" d="M 42.143182 81.255658 
L 43.438346 112.924392 
L 44.733511 69.57047 
L 46.028675 102.170239 
L 47.323839 84.63695 
L 48.619004 115.747004 
L 49.914168 176.700294 
L 51.209333 218.256364 
L 52.504497 57.87308 
L 53.799662 63.810376 
L 55.094826 84.714068 
L 56.38999 127.988618 
L 57.685155 81.002192 
L 58.980319 63.785087 
L 60.275484 102.961923 
L 61.570648 200.056362 
L 64.160977 75.633905 
L 65.456141 73.882244 
L 66.751306 109.955384 
L 68.04647 81.8307 
L 69.341634 129.313124 
L 70.636799 112.13507 
L 71.931963 20.583636 
L 73.227128 85.020673 
L 74.522292 85.556398 
L 77.112621 109.422949 
L 78.407785 101.971175 
L 79.70295 152.434416 
L 80.998114 98.133114 
L 82.293279 81.833437 
L 83.588443 71.030109 
L 84.883607 67.253166 
L 86.178772 95.379139 
L 87.473936 76.429771 
L 88.769101 101.203378 
L 90.064265 73.215255 
L 91.359429 78.405776 
L 92.654594 70.270842 
L 93.949758 102.623655 
L 95.244923 82.407118 
L 96.540087 90.050398 
L 97.835251 115.09425 
L 99.130416 81.693534 
L 101.720745 92.52685 
L 103.015909 94.264402 
L 104.311074 89.868598 
L 105.606238 94.605095 
L 106.901402 91.128494 
L 108.196567 91.704976 
L 109.491731 89.075832 
L 110.786896 90.946378 
L 112.08206 92.133966 
L 113.377224 89.050017 
L 114.672389 91.402963 
L 115.967553 95.069209 
L 117.262718 90.554508 
L 118.557882 94.456033 
L 119.853046 96.390229 
L 121.148211 88.246408 
L 122.443375 92.922357 
L 123.73854 92.444079 
L 125.033704 93.180387 
L 126.328868 90.505586 
L 127.624033 93.098743 
L 128.919197 90.522052 
L 130.214362 92.108097 
L 131.509526 91.66823 
L 132.804691 91.381005 
L 134.099855 93.410101 
L 135.395019 96.834312 
L 136.690184 81.836045 
L 137.985348 95.17582 
L 139.280513 92.515331 
L 140.575677 88.540974 
L 141.870841 88.80775 
L 143.166006 87.75448 
L 145.756335 91.716496 
L 147.051499 91.629351 
L 148.346663 90.063426 
L 149.641828 92.73535 
L 150.936992 93.222598 
L 152.232157 91.37794 
L 153.527321 91.467048 
L 154.822485 90.683753 
L 156.11765 92.318367 
L 157.412814 88.841657 
L 158.707979 88.285641 
L 160.003143 87.283568 
L 161.298308 93.592905 
L 162.593472 88.752091 
L 163.888636 93.514273 
L 165.183801 94.398128 
L 166.478965 88.701308 
L 167.77413 92.563868 
L 169.069294 86.660807 
L 170.364458 89.548447 
L 171.659623 94.4208 
L 172.954787 87.326444 
L 174.249952 91.578276 
L 175.545116 91.764192 
L 176.84028 88.682572 
L 178.135445 89.309233 
L 179.430609 90.835111 
L 180.725774 89.560391 
L 182.020938 92.571661 
L 183.316103 88.612607 
L 184.611267 89.638856 
L 185.906431 91.265157 
L 187.201596 92.173364 
L 188.49676 93.720721 
L 189.791925 91.999997 
L 191.087089 91.216753 
L 192.382253 90.870888 
L 193.677418 89.170979 
L 194.972582 93.251427 
L 196.267747 92.398171 
L 197.562911 89.12443 
L 198.858075 90.930462 
L 200.15324 90.82437 
L 201.448404 91.160378 
L 202.743569 92.126158 
L 204.038733 92.322146 
L 205.333897 92.202298 
L 206.629062 88.735871 
L 207.924226 88.393686 
L 209.219391 90.914426 
L 210.514555 92.354187 
L 211.80972 91.9247 
L 213.104884 93.342132 
L 214.400048 93.026942 
L 215.695213 91.392987 
L 216.990377 88.208204 
L 218.285542 87.298798 
L 219.580706 90.81542 
L 220.87587 89.633422 
L 222.171035 89.830237 
L 223.466199 90.880513 
L 224.761364 88.515857 
L 226.056528 92.674675 
L 227.351692 91.031613 
L 228.646857 93.590067 
L 229.942021 88.203357 
L 232.53235 92.39364 
L 233.827515 89.148142 
L 235.122679 92.786984 
L 236.417843 93.892661 
L 237.713008 91.829975 
L 239.008172 91.629846 
L 240.303337 90.557095 
L 241.598501 94.233831 
L 242.893665 90.215537 
L 244.18883 90.284368 
L 246.779159 91.218823 
L 248.074323 88.886683 
L 249.369487 94.687981 
L 250.664652 89.830204 
L 253.254981 92.218413 
L 254.550145 89.13577 
L 255.845309 90.26688 
L 257.140474 90.401479 
L 258.435638 87.965572 
L 259.730803 87.342013 
L 262.321132 94.656444 
L 263.616296 95.641623 
L 266.206625 93.211974 
L 267.501789 93.549845 
L 268.796954 91.691193 
L 270.092118 91.86916 
L 271.387282 90.652657 
L 272.682447 86.981695 
L 273.977611 83.834106 
L 275.272776 91.683575 
L 276.56794 91.780511 
L 279.158269 93.432289 
L 280.453433 90.577408 
L 281.748598 91.691816 
L 283.043762 90.979916 
L 284.338926 91.852855 
L 285.634091 90.447051 
L 286.929255 92.032988 
L 288.22442 91.750492 
L 289.519584 94.276693 
L 290.814749 89.620863 
L 293.405077 92.739003 
L 294.700242 92.276918 
L 295.995406 91.967484 
L 297.290571 91.481839 
L 299.880899 89.098093 
L 301.176064 91.125084 
L 302.471228 92.464906 
L 303.766393 91.541084 
L 305.061557 90.297554 
L 306.356721 90.495185 
L 307.651886 116.494899 
L 308.94705 55.551049 
L 310.242215 182.300062 
L 311.537379 96.576608 
L 312.832544 112.296646 
L 314.127708 57.642309 
L 315.422872 85.672525 
L 316.718037 92.792492 
L 318.013201 91.243755 
L 319.308366 112.739409 
L 320.60353 62.949201 
L 321.898694 73.938733 
L 323.193859 97.816811 
L 324.489023 83.050251 
L 325.784188 73.72441 
L 327.079352 68.304334 
L 328.374516 83.598099 
L 329.669681 82.190638 
L 330.964845 79.558131 
L 332.26001 82.05581 
L 333.555174 79.128499 
L 334.850338 85.996986 
L 336.145503 78.082039 
L 337.440667 83.085431 
L 338.735832 80.505842 
L 340.030996 107.771555 
L 341.326161 103.224266 
L 342.621325 88.873225 
L 343.916489 80.355842 
L 345.211654 39.071799 
L 346.506818 80.806203 
L 346.506818 80.806203 
" style="fill:none;stroke:#1f77b4;stroke-linecap:square;stroke-width:1.5;"/>
   </g>
   <g id="patch_3">
    <path d="M 26.925 228.14 
L 26.925 10.7 
" style="fill:none;stroke:#000000;stroke-linecap:square;stroke-linejoin:miter;stroke-width:0.8;"/>
   </g>
   <g id="patch_4">
    <path d="M 361.725 228.14 
L 361.725 10.7 
" style="fill:none;stroke:#000000;stroke-linecap:square;stroke-linejoin:miter;stroke-width:0.8;"/>
   </g>
   <g id="patch_5">
    <path d="M 26.925 228.14 
L 361.725 228.14 
" style="fill:none;stroke:#000000;stroke-linecap:square;stroke-linejoin:miter;stroke-width:0.8;"/>
   </g>
   <g id="patch_6">
    <path d="M 26.925 10.7 
L 361.725 10.7 
" style="fill:none;stroke:#000000;stroke-linecap:square;stroke-linejoin:miter;stroke-width:0.8;"/>
   </g>
  </g>
 </g>
 <defs>
  <clipPath id="p90988851ca">
   <rect height="217.44" width="334.8" x="26.925" y="10.7"/>
  </clipPath>
 </defs>
</svg>
