<?xml version="1.0" encoding="utf-8" standalone="no"?>
<!DOCTYPE svg PUBLIC "-//W3C//DTD SVG 1.1//EN"
  "http://www.w3.org/Graphics/SVG/1.1/DTD/svg11.dtd">
<!-- Created with matplotlib (http://matplotlib.org/) -->
<svg height="300.690125pt" version="1.1" viewBox="0 0 394.745 300.690125" width="394.745pt" xmlns="http://www.w3.org/2000/svg" xmlns:xlink="http://www.w3.org/1999/xlink">
 <defs>
  <style type="text/css">
*{stroke-linecap:butt;stroke-linejoin:round;}
  </style>
 </defs>
 <g id="figure_1">
  <g id="patch_1">
   <path d="M 0 300.690125 
L 394.745 300.690125 
L 394.745 0 
L 0 0 
z
" style="fill:#ffffff;"/>
  </g>
  <g id="axes_1">
   <g id="patch_2">
    <path d="M 26.925 276.812 
L 384.045 276.812 
L 384.045 10.7 
L 26.925 10.7 
z
" style="fill:#ffffff;"/>
   </g>
   <g id="matplotlib.axis_1">
    <g id="xtick_1">
     <g id="line2d_1">
      <defs>
       <path d="M 0 0 
L 0 3.5 
" id="me82935c813" style="stroke:#000000;stroke-width:0.8;"/>
      </defs>
      <g>
       <use style="stroke:#000000;stroke-width:0.8;" x="43.157727" xlink:href="#me82935c813" y="276.812"/>
      </g>
     </g>
     <g id="text_1">
      <!-- 0 -->
      <defs>
       <path d="M 31.78125 66.40625 
Q 24.171875 66.40625 20.328125 58.90625 
Q 16.5 51.421875 16.5 36.375 
Q 16.5 21.390625 20.328125 13.890625 
Q 24.171875 6.390625 31.78125 6.390625 
Q 39.453125 6.390625 43.28125 13.890625 
Q 47.125 21.390625 47.125 36.375 
Q 47.125 51.421875 43.28125 58.90625 
Q 39.453125 66.40625 31.78125 66.40625 
z
M 31.78125 74.21875 
Q 44.046875 74.21875 50.515625 64.515625 
Q 56.984375 54.828125 56.984375 36.375 
Q 56.984375 17.96875 50.515625 8.265625 
Q 44.046875 -1.421875 31.78125 -1.421875 
Q 19.53125 -1.421875 13.0625 8.265625 
Q 6.59375 17.96875 6.59375 36.375 
Q 6.59375 54.828125 13.0625 64.515625 
Q 19.53125 74.21875 31.78125 74.21875 
z
" id="DejaVuSans-30"/>
      </defs>
      <g transform="translate(39.976477 291.410437)scale(0.1 -0.1)">
       <use xlink:href="#DejaVuSans-30"/>
      </g>
     </g>
    </g>
    <g id="xtick_2">
     <g id="line2d_2">
      <g>
       <use style="stroke:#000000;stroke-width:0.8;" x="103.16781" xlink:href="#me82935c813" y="276.812"/>
      </g>
     </g>
     <g id="text_2">
      <!-- 200 -->
      <defs>
       <path d="M 19.1875 8.296875 
L 53.609375 8.296875 
L 53.609375 0 
L 7.328125 0 
L 7.328125 8.296875 
Q 12.9375 14.109375 22.625 23.890625 
Q 32.328125 33.6875 34.8125 36.53125 
Q 39.546875 41.84375 41.421875 45.53125 
Q 43.3125 49.21875 43.3125 52.78125 
Q 43.3125 58.59375 39.234375 62.25 
Q 35.15625 65.921875 28.609375 65.921875 
Q 23.96875 65.921875 18.8125 64.3125 
Q 13.671875 62.703125 7.8125 59.421875 
L 7.8125 69.390625 
Q 13.765625 71.78125 18.9375 73 
Q 24.125 74.21875 28.421875 74.21875 
Q 39.75 74.21875 46.484375 68.546875 
Q 53.21875 62.890625 53.21875 53.421875 
Q 53.21875 48.921875 51.53125 44.890625 
Q 49.859375 40.875 45.40625 35.40625 
Q 44.1875 33.984375 37.640625 27.21875 
Q 31.109375 20.453125 19.1875 8.296875 
z
" id="DejaVuSans-32"/>
      </defs>
      <g transform="translate(93.62406 291.410437)scale(0.1 -0.1)">
       <use xlink:href="#DejaVuSans-32"/>
       <use x="63.623047" xlink:href="#DejaVuSans-30"/>
       <use x="127.246094" xlink:href="#DejaVuSans-30"/>
      </g>
     </g>
    </g>
    <g id="xtick_3">
     <g id="line2d_3">
      <g>
       <use style="stroke:#000000;stroke-width:0.8;" x="163.177892" xlink:href="#me82935c813" y="276.812"/>
      </g>
     </g>
     <g id="text_3">
      <!-- 400 -->
      <defs>
       <path d="M 37.796875 64.3125 
L 12.890625 25.390625 
L 37.796875 25.390625 
z
M 35.203125 72.90625 
L 47.609375 72.90625 
L 47.609375 25.390625 
L 58.015625 25.390625 
L 58.015625 17.1875 
L 47.609375 17.1875 
L 47.609375 0 
L 37.796875 0 
L 37.796875 17.1875 
L 4.890625 17.1875 
L 4.890625 26.703125 
z
" id="DejaVuSans-34"/>
      </defs>
      <g transform="translate(153.634142 291.410437)scale(0.1 -0.1)">
       <use xlink:href="#DejaVuSans-34"/>
       <use x="63.623047" xlink:href="#DejaVuSans-30"/>
       <use x="127.246094" xlink:href="#DejaVuSans-30"/>
      </g>
     </g>
    </g>
    <g id="xtick_4">
     <g id="line2d_4">
      <g>
       <use style="stroke:#000000;stroke-width:0.8;" x="223.187974" xlink:href="#me82935c813" y="276.812"/>
      </g>
     </g>
     <g id="text_4">
      <!-- 600 -->
      <defs>
       <path d="M 33.015625 40.375 
Q 26.375 40.375 22.484375 35.828125 
Q 18.609375 31.296875 18.609375 23.390625 
Q 18.609375 15.53125 22.484375 10.953125 
Q 26.375 6.390625 33.015625 6.390625 
Q 39.65625 6.390625 43.53125 10.953125 
Q 47.40625 15.53125 47.40625 23.390625 
Q 47.40625 31.296875 43.53125 35.828125 
Q 39.65625 40.375 33.015625 40.375 
z
M 52.59375 71.296875 
L 52.59375 62.3125 
Q 48.875 64.0625 45.09375 64.984375 
Q 41.3125 65.921875 37.59375 65.921875 
Q 27.828125 65.921875 22.671875 59.328125 
Q 17.53125 52.734375 16.796875 39.40625 
Q 19.671875 43.65625 24.015625 45.921875 
Q 28.375 48.1875 33.59375 48.1875 
Q 44.578125 48.1875 50.953125 41.515625 
Q 57.328125 34.859375 57.328125 23.390625 
Q 57.328125 12.15625 50.6875 5.359375 
Q 44.046875 -1.421875 33.015625 -1.421875 
Q 20.359375 -1.421875 13.671875 8.265625 
Q 6.984375 17.96875 6.984375 36.375 
Q 6.984375 53.65625 15.1875 63.9375 
Q 23.390625 74.21875 37.203125 74.21875 
Q 40.921875 74.21875 44.703125 73.484375 
Q 48.484375 72.75 52.59375 71.296875 
z
" id="DejaVuSans-36"/>
      </defs>
      <g transform="translate(213.644224 291.410437)scale(0.1 -0.1)">
       <use xlink:href="#DejaVuSans-36"/>
       <use x="63.623047" xlink:href="#DejaVuSans-30"/>
       <use x="127.246094" xlink:href="#DejaVuSans-30"/>
      </g>
     </g>
    </g>
    <g id="xtick_5">
     <g id="line2d_5">
      <g>
       <use style="stroke:#000000;stroke-width:0.8;" x="283.198057" xlink:href="#me82935c813" y="276.812"/>
      </g>
     </g>
     <g id="text_5">
      <!-- 800 -->
      <defs>
       <path d="M 31.78125 34.625 
Q 24.75 34.625 20.71875 30.859375 
Q 16.703125 27.09375 16.703125 20.515625 
Q 16.703125 13.921875 20.71875 10.15625 
Q 24.75 6.390625 31.78125 6.390625 
Q 38.8125 6.390625 42.859375 10.171875 
Q 46.921875 13.96875 46.921875 20.515625 
Q 46.921875 27.09375 42.890625 30.859375 
Q 38.875 34.625 31.78125 34.625 
z
M 21.921875 38.8125 
Q 15.578125 40.375 12.03125 44.71875 
Q 8.5 49.078125 8.5 55.328125 
Q 8.5 64.0625 14.71875 69.140625 
Q 20.953125 74.21875 31.78125 74.21875 
Q 42.671875 74.21875 48.875 69.140625 
Q 55.078125 64.0625 55.078125 55.328125 
Q 55.078125 49.078125 51.53125 44.71875 
Q 48 40.375 41.703125 38.8125 
Q 48.828125 37.15625 52.796875 32.3125 
Q 56.78125 27.484375 56.78125 20.515625 
Q 56.78125 9.90625 50.3125 4.234375 
Q 43.84375 -1.421875 31.78125 -1.421875 
Q 19.734375 -1.421875 13.25 4.234375 
Q 6.78125 9.90625 6.78125 20.515625 
Q 6.78125 27.484375 10.78125 32.3125 
Q 14.796875 37.15625 21.921875 38.8125 
z
M 18.3125 54.390625 
Q 18.3125 48.734375 21.84375 45.5625 
Q 25.390625 42.390625 31.78125 42.390625 
Q 38.140625 42.390625 41.71875 45.5625 
Q 45.3125 48.734375 45.3125 54.390625 
Q 45.3125 60.0625 41.71875 63.234375 
Q 38.140625 66.40625 31.78125 66.40625 
Q 25.390625 66.40625 21.84375 63.234375 
Q 18.3125 60.0625 18.3125 54.390625 
z
" id="DejaVuSans-38"/>
      </defs>
      <g transform="translate(273.654307 291.410437)scale(0.1 -0.1)">
       <use xlink:href="#DejaVuSans-38"/>
       <use x="63.623047" xlink:href="#DejaVuSans-30"/>
       <use x="127.246094" xlink:href="#DejaVuSans-30"/>
      </g>
     </g>
    </g>
    <g id="xtick_6">
     <g id="line2d_6">
      <g>
       <use style="stroke:#000000;stroke-width:0.8;" x="343.208139" xlink:href="#me82935c813" y="276.812"/>
      </g>
     </g>
     <g id="text_6">
      <!-- 1000 -->
      <defs>
       <path d="M 12.40625 8.296875 
L 28.515625 8.296875 
L 28.515625 63.921875 
L 10.984375 60.40625 
L 10.984375 69.390625 
L 28.421875 72.90625 
L 38.28125 72.90625 
L 38.28125 8.296875 
L 54.390625 8.296875 
L 54.390625 0 
L 12.40625 0 
z
" id="DejaVuSans-31"/>
      </defs>
      <g transform="translate(330.483139 291.410437)scale(0.1 -0.1)">
       <use xlink:href="#DejaVuSans-31"/>
       <use x="63.623047" xlink:href="#DejaVuSans-30"/>
       <use x="127.246094" xlink:href="#DejaVuSans-30"/>
       <use x="190.869141" xlink:href="#DejaVuSans-30"/>
      </g>
     </g>
    </g>
   </g>
   <g id="matplotlib.axis_2">
    <g id="ytick_1">
     <g id="line2d_7">
      <defs>
       <path d="M 0 0 
L -3.5 0 
" id="m0410071462" style="stroke:#000000;stroke-width:0.8;"/>
      </defs>
      <g>
       <use style="stroke:#000000;stroke-width:0.8;" x="26.925" xlink:href="#m0410071462" y="257.834763"/>
      </g>
     </g>
     <g id="text_7">
      <!-- 2 -->
      <g transform="translate(13.5625 261.633982)scale(0.1 -0.1)">
       <use xlink:href="#DejaVuSans-32"/>
      </g>
     </g>
    </g>
    <g id="ytick_2">
     <g id="line2d_8">
      <g>
       <use style="stroke:#000000;stroke-width:0.8;" x="26.925" xlink:href="#m0410071462" y="227.288684"/>
      </g>
     </g>
     <g id="text_8">
      <!-- 4 -->
      <g transform="translate(13.5625 231.087902)scale(0.1 -0.1)">
       <use xlink:href="#DejaVuSans-34"/>
      </g>
     </g>
    </g>
    <g id="ytick_3">
     <g id="line2d_9">
      <g>
       <use style="stroke:#000000;stroke-width:0.8;" x="26.925" xlink:href="#m0410071462" y="196.742605"/>
      </g>
     </g>
     <g id="text_9">
      <!-- 6 -->
      <g transform="translate(13.5625 200.541823)scale(0.1 -0.1)">
       <use xlink:href="#DejaVuSans-36"/>
      </g>
     </g>
    </g>
    <g id="ytick_4">
     <g id="line2d_10">
      <g>
       <use style="stroke:#000000;stroke-width:0.8;" x="26.925" xlink:href="#m0410071462" y="166.196526"/>
      </g>
     </g>
     <g id="text_10">
      <!-- 8 -->
      <g transform="translate(13.5625 169.995744)scale(0.1 -0.1)">
       <use xlink:href="#DejaVuSans-38"/>
      </g>
     </g>
    </g>
    <g id="ytick_5">
     <g id="line2d_11">
      <g>
       <use style="stroke:#000000;stroke-width:0.8;" x="26.925" xlink:href="#m0410071462" y="135.650447"/>
      </g>
     </g>
     <g id="text_11">
      <!-- 10 -->
      <g transform="translate(7.2 139.449665)scale(0.1 -0.1)">
       <use xlink:href="#DejaVuSans-31"/>
       <use x="63.623047" xlink:href="#DejaVuSans-30"/>
      </g>
     </g>
    </g>
    <g id="ytick_6">
     <g id="line2d_12">
      <g>
       <use style="stroke:#000000;stroke-width:0.8;" x="26.925" xlink:href="#m0410071462" y="105.104368"/>
      </g>
     </g>
     <g id="text_12">
      <!-- 12 -->
      <g transform="translate(7.2 108.903586)scale(0.1 -0.1)">
       <use xlink:href="#DejaVuSans-31"/>
       <use x="63.623047" xlink:href="#DejaVuSans-32"/>
      </g>
     </g>
    </g>
    <g id="ytick_7">
     <g id="line2d_13">
      <g>
       <use style="stroke:#000000;stroke-width:0.8;" x="26.925" xlink:href="#m0410071462" y="74.558289"/>
      </g>
     </g>
     <g id="text_13">
      <!-- 14 -->
      <g transform="translate(7.2 78.357507)scale(0.1 -0.1)">
       <use xlink:href="#DejaVuSans-31"/>
       <use x="63.623047" xlink:href="#DejaVuSans-34"/>
      </g>
     </g>
    </g>
    <g id="ytick_8">
     <g id="line2d_14">
      <g>
       <use style="stroke:#000000;stroke-width:0.8;" x="26.925" xlink:href="#m0410071462" y="44.01221"/>
      </g>
     </g>
     <g id="text_14">
      <!-- 16 -->
      <g transform="translate(7.2 47.811428)scale(0.1 -0.1)">
       <use xlink:href="#DejaVuSans-31"/>
       <use x="63.623047" xlink:href="#DejaVuSans-36"/>
      </g>
     </g>
    </g>
    <g id="ytick_9">
     <g id="line2d_15">
      <g>
       <use style="stroke:#000000;stroke-width:0.8;" x="26.925" xlink:href="#m0410071462" y="13.46613"/>
      </g>
     </g>
     <g id="text_15">
      <!-- 18 -->
      <g transform="translate(7.2 17.265349)scale(0.1 -0.1)">
       <use xlink:href="#DejaVuSans-31"/>
       <use x="63.623047" xlink:href="#DejaVuSans-38"/>
      </g>
     </g>
    </g>
   </g>
   <g id="line2d_16">
    <path clip-path="url(#pe8d39c6a85)" d="M 43.157727 109.117876 
L 43.457778 166.160548 
L 43.757828 79.417148 
L 44.057879 120.565144 
L 44.357929 182.980745 
L 44.657979 122.156218 
L 44.95803 147.22516 
L 45.25808 126.798603 
L 45.558131 203.253727 
L 45.858181 83.926971 
L 46.158231 205.042609 
L 46.758332 79.128531 
L 47.058383 192.626118 
L 47.358433 100.073405 
L 47.658483 215.115311 
L 47.958534 66.57747 
L 48.258584 85.762745 
L 48.558635 62.154056 
L 48.858685 219.316957 
L 49.158736 164.108004 
L 49.458786 34.289716 
L 49.758836 238.880961 
L 50.058887 63.120876 
L 50.658988 220.959998 
L 51.259088 68.015263 
L 51.559139 145.323928 
L 52.15924 71.515086 
L 52.45929 127.283449 
L 52.75934 151.409138 
L 53.059391 99.673362 
L 53.359441 212.462686 
L 53.659492 192.40943 
L 53.959542 100.523155 
L 54.259593 89.820639 
L 54.559643 85.822728 
L 54.859693 96.756444 
L 55.159744 211.489596 
L 55.459794 76.411927 
L 55.759845 214.071482 
L 56.059895 220.901947 
L 56.359945 173.304715 
L 56.659996 76.450563 
L 56.960046 215.522579 
L 57.260097 79.683989 
L 57.560147 76.51897 
L 58.160248 56.299736 
L 58.460298 124.221374 
L 58.760349 224.526354 
L 59.060399 82.282505 
L 59.36045 101.607226 
L 59.6605 94.46141 
L 59.96055 191.563363 
L 60.260601 191.612703 
L 60.560651 113.273289 
L 60.860702 178.985877 
L 61.160752 85.831451 
L 61.460802 103.735753 
L 61.760853 223.788632 
L 62.060903 217.502912 
L 62.360954 159.770185 
L 62.661004 78.383703 
L 62.961054 71.565485 
L 63.261105 136.400917 
L 63.561155 113.686572 
L 63.861206 110.004994 
L 64.161256 212.718441 
L 64.461307 85.036192 
L 64.761357 75.258676 
L 65.061407 185.496547 
L 65.661508 80.975605 
L 65.961559 74.075957 
L 66.261609 90.79201 
L 66.561659 207.349992 
L 66.86171 191.760823 
L 67.16176 188.475872 
L 67.461811 85.491164 
L 67.761861 234.936067 
L 68.061911 78.781841 
L 68.361962 173.234788 
L 68.662012 77.026996 
L 68.962063 139.799086 
L 69.262113 80.240321 
L 69.862214 157.825673 
L 70.162264 86.026162 
L 70.462315 146.459161 
L 70.762365 65.379752 
L 71.362466 171.54517 
L 71.662516 90.218004 
L 71.962567 98.902879 
L 72.262617 73.577287 
L 72.562668 128.915027 
L 72.862718 231.352394 
L 73.162768 105.885753 
L 73.462819 64.092712 
L 73.762869 99.545281 
L 74.06292 71.476168 
L 74.36297 81.415437 
L 74.663021 105.821118 
L 74.963071 95.656759 
L 75.263121 70.524278 
L 75.563172 105.787225 
L 75.863222 204.404018 
L 76.163273 109.837194 
L 76.463323 192.401863 
L 77.063424 59.693874 
L 77.363474 158.031421 
L 77.663525 73.09089 
L 77.963575 77.541314 
L 78.263625 89.374382 
L 78.563676 94.782117 
L 78.863726 107.896638 
L 79.163777 215.404104 
L 79.463827 95.61424 
L 79.763877 64.321492 
L 80.063928 93.619596 
L 80.363978 202.332481 
L 80.664029 72.725701 
L 80.964079 80.397644 
L 81.26413 63.218971 
L 82.164281 202.212293 
L 82.464331 90.599499 
L 82.764382 62.830541 
L 83.064432 119.612888 
L 83.364482 88.649318 
L 83.664533 154.590618 
L 83.964583 70.983214 
L 84.264634 152.244803 
L 84.864734 139.630846 
L 85.164785 136.817236 
L 85.464835 113.139976 
L 85.764886 203.216822 
L 86.064936 86.231875 
L 86.364987 195.556367 
L 86.965087 77.956692 
L 87.265138 73.50549 
L 87.565188 179.790667 
L 87.865239 184.781225 
L 88.165289 70.999553 
L 88.465339 121.148931 
L 88.76539 82.300097 
L 89.06544 194.422567 
L 89.365491 183.659087 
L 89.665541 105.025684 
L 89.965591 204.105495 
L 90.265642 50.433378 
L 90.565692 67.014573 
L 91.165793 180.176485 
L 91.465844 221.581994 
L 91.765894 104.900066 
L 92.065944 113.327546 
L 92.365995 223.985054 
L 92.966096 86.161278 
L 93.266146 211.154072 
L 93.566196 161.995504 
L 93.866247 76.612219 
L 94.166297 94.050115 
L 94.466348 174.339598 
L 94.766398 212.766843 
L 95.066448 130.708489 
L 95.666549 71.2709 
L 95.9666 80.114197 
L 96.26665 109.494946 
L 96.566701 196.741275 
L 96.866751 157.918653 
L 97.166801 86.425783 
L 97.466852 213.867761 
L 97.766902 158.994621 
L 98.066953 80.502241 
L 98.367003 194.458877 
L 98.667053 97.766272 
L 98.967104 88.277216 
L 99.267154 45.738743 
L 99.567205 93.282446 
L 99.867255 118.348933 
L 100.167305 112.277218 
L 100.467356 128.178237 
L 100.767406 59.543559 
L 101.667558 136.917019 
L 101.967608 97.989306 
L 102.267658 226.385105 
L 102.567709 72.284388 
L 102.867759 126.894521 
L 103.16781 71.64233 
L 103.46786 112.550435 
L 103.76791 72.983366 
L 104.067961 206.650555 
L 104.368011 201.818883 
L 104.668062 96.042905 
L 104.968112 47.125755 
L 105.268162 96.230436 
L 105.568213 211.601051 
L 105.868263 90.120434 
L 106.168314 87.275989 
L 106.468364 98.368527 
L 106.768415 79.405222 
L 107.068465 79.456158 
L 107.368515 160.859805 
L 107.668566 70.072141 
L 107.968616 118.839146 
L 108.268667 100.81828 
L 108.568717 56.06312 
L 108.868767 160.017427 
L 109.168818 60.730276 
L 109.468868 141.905345 
L 109.768919 90.090574 
L 110.068969 129.0364 
L 110.369019 184.565141 
L 110.96912 102.724742 
L 111.269171 72.151806 
L 111.569221 196.049007 
L 111.869272 116.790315 
L 112.169322 73.986381 
L 112.469372 94.967611 
L 112.769423 264.716 
L 113.069473 115.856275 
L 113.369524 117.809071 
L 113.669574 105.687586 
L 113.969624 172.671107 
L 114.269675 146.842098 
L 114.569725 95.084839 
L 114.869776 159.08152 
L 115.169826 94.275438 
L 115.469876 82.965761 
L 116.069977 158.483355 
L 116.670078 124.141643 
L 116.970129 137.831927 
L 117.270179 143.936125 
L 117.570229 133.210152 
L 117.87028 135.741733 
L 118.17033 129.161452 
L 118.470381 114.795348 
L 118.770431 137.063592 
L 119.070481 129.679941 
L 119.670582 134.575029 
L 120.270683 136.324623 
L 120.570733 134.188637 
L 120.870784 134.48063 
L 121.170834 133.632076 
L 121.470885 136.379446 
L 121.770935 135.456113 
L 122.070986 137.291041 
L 122.371036 134.729833 
L 122.671086 136.085336 
L 122.971137 134.823373 
L 123.271187 135.251203 
L 123.571238 134.966538 
L 124.171338 136.231671 
L 124.471389 136.314245 
L 124.771439 133.753888 
L 125.07149 135.028401 
L 125.37154 129.714086 
L 125.67159 139.042258 
L 125.971641 136.726528 
L 126.271691 137.185907 
L 126.571742 133.958106 
L 126.871792 133.56667 
L 127.171843 134.513787 
L 127.471893 133.460027 
L 128.071994 134.821946 
L 128.372044 134.960214 
L 128.672095 134.056784 
L 128.972145 136.171675 
L 129.272195 135.039622 
L 129.572246 136.04529 
L 129.872296 135.441511 
L 130.172347 135.32884 
L 130.772447 134.167419 
L 131.072498 134.749287 
L 131.372548 134.111821 
L 131.672599 135.304734 
L 131.972649 127.212853 
L 132.2727 135.983567 
L 132.57275 135.786649 
L 133.172851 134.999989 
L 133.472901 135.124316 
L 133.772952 134.012914 
L 134.073002 135.419397 
L 134.373052 135.323421 
L 134.673103 134.973161 
L 134.973153 135.091205 
L 135.273204 135.836876 
L 135.573254 134.768406 
L 135.873304 134.727162 
L 136.173355 134.043702 
L 136.473405 136.696682 
L 136.773456 135.148219 
L 137.073506 134.300986 
L 137.673607 135.042146 
L 137.973657 134.604986 
L 138.273708 132.025419 
L 138.573758 135.315414 
L 138.873809 135.136404 
L 139.173859 135.109548 
L 139.473909 136.553018 
L 139.77396 133.930228 
L 140.07401 137.689713 
L 140.674111 133.150392 
L 140.974161 139.110298 
L 141.274212 133.010657 
L 141.874313 135.933201 
L 142.174363 134.608092 
L 142.474414 134.813969 
L 142.774464 136.242358 
L 143.074514 134.234681 
L 143.374565 134.94895 
L 143.674615 134.947672 
L 143.974666 135.79168 
L 144.274716 135.844242 
L 144.574766 137.16862 
L 144.874817 124.772436 
L 145.174867 139.488556 
L 145.474918 144.151801 
L 145.774968 93.770241 
L 146.075018 128.612532 
L 146.375069 98.354724 
L 146.675119 54.150153 
L 147.27522 239.655713 
L 147.575271 84.710156 
L 147.875321 96.444578 
L 148.175371 22.796 
L 148.475422 50.698793 
L 148.775472 92.951767 
L 149.075523 70.515793 
L 149.375573 223.433659 
L 149.675623 184.747224 
L 149.975674 220.720962 
L 150.275724 91.081746 
L 150.575775 155.219708 
L 150.875825 59.254732 
L 151.175875 240.369698 
L 151.475926 145.807783 
L 151.775976 210.051824 
L 152.076027 70.690226 
L 152.376077 129.488227 
L 152.676128 92.899295 
L 152.976178 182.138324 
L 153.276228 65.53413 
L 153.576279 84.273098 
L 153.876329 233.179369 
L 154.17638 171.75253 
L 154.47643 153.912057 
L 154.77648 82.052359 
L 155.076531 84.463552 
L 155.376581 75.769245 
L 155.676632 107.051132 
L 155.976682 187.23778 
L 156.276732 73.418073 
L 156.576783 160.878689 
L 156.876833 122.746293 
L 157.176884 200.274214 
L 157.476934 78.020058 
L 157.776985 99.715388 
L 158.077035 58.01225 
L 158.677136 186.775078 
L 158.977186 111.77782 
L 159.277237 186.082256 
L 159.577287 107.021746 
L 159.877337 89.112646 
L 160.177388 163.8864 
L 160.477438 203.128347 
L 160.777489 158.109213 
L 161.077539 93.650476 
L 161.377589 99.194546 
L 161.67764 85.42587 
L 161.97769 213.552953 
L 162.277741 123.358429 
L 162.577791 102.983468 
L 162.877842 44.117286 
L 163.177892 107.814913 
L 163.477942 96.584174 
L 163.777993 216.7055 
L 164.678144 169.363301 
L 164.978194 53.713651 
L 165.278245 197.985269 
L 165.578295 228.795142 
L 165.878346 198.375413 
L 166.178396 70.162349 
L 166.478446 130.537942 
L 166.778497 125.794816 
L 167.078547 82.1136 
L 167.378598 185.785295 
L 167.678648 85.665443 
L 167.978699 90.905549 
L 168.278749 206.050056 
L 168.578799 251.216111 
L 168.87885 161.850863 
L 169.478951 91.01 
L 169.779001 175.394815 
L 170.079051 82.254384 
L 170.379102 82.483563 
L 170.679152 46.690909 
L 170.979203 113.992609 
L 171.279253 78.189958 
L 171.879354 64.105588 
L 172.179404 190.399763 
L 172.479455 115.670869 
L 172.779505 203.470247 
L 173.079556 158.293324 
L 173.379606 72.216781 
L 173.679656 114.185771 
L 173.979707 232.803021 
L 174.279757 79.035064 
L 174.579808 104.551049 
L 174.879858 194.158704 
L 175.179908 79.275264 
L 175.479959 105.968721 
L 175.780009 122.141405 
L 176.08006 233.576337 
L 176.38011 50.900174 
L 176.68016 80.336305 
L 176.980211 87.338093 
L 177.280261 158.050793 
L 177.880362 98.654398 
L 178.180413 156.508743 
L 178.480463 70.652684 
L 178.780513 93.331876 
L 179.080564 65.028521 
L 179.380614 119.408442 
L 179.680665 214.298905 
L 180.280765 68.311665 
L 180.580816 115.324937 
L 180.880866 78.985012 
L 181.180917 103.287328 
L 181.480967 94.522891 
L 181.781017 217.958241 
L 182.081068 227.298092 
L 182.381118 114.447539 
L 182.681169 83.152618 
L 182.981219 175.227646 
L 183.28127 216.948863 
L 183.58132 75.684543 
L 183.88137 220.293566 
L 184.181421 210.347861 
L 184.481471 66.315932 
L 185.081572 166.899657 
L 185.381622 171.290859 
L 185.681673 124.209839 
L 185.981723 193.184002 
L 186.281774 71.508373 
L 186.581824 90.902238 
L 186.881874 161.628456 
L 187.181925 100.419569 
L 187.481975 209.358794 
L 188.082076 62.85004 
L 188.382127 180.494628 
L 188.682177 84.770965 
L 188.982227 198.045778 
L 189.282278 99.056187 
L 189.582328 71.912297 
L 189.882379 93.105094 
L 190.182429 189.311873 
L 190.482479 87.079069 
L 190.78253 62.663156 
L 191.08258 63.873233 
L 191.382631 98.786381 
L 191.682681 203.557 
L 191.982731 92.345557 
L 192.282782 206.765044 
L 192.582832 97.598409 
L 193.182933 174.590198 
L 193.482984 113.292036 
L 193.783034 114.806265 
L 194.083084 78.713688 
L 194.383135 226.746345 
L 194.683185 226.641977 
L 194.983236 94.071978 
L 195.283286 75.156861 
L 195.583336 98.775157 
L 195.883387 77.111033 
L 196.183437 194.998292 
L 196.483488 202.096206 
L 196.783538 83.288927 
L 197.083588 116.755886 
L 197.383639 84.04905 
L 197.683689 120.146243 
L 197.98374 210.293482 
L 198.28379 87.745956 
L 198.583841 205.46962 
L 198.883891 68.282507 
L 199.183941 88.358623 
L 199.483992 245.781576 
L 199.784042 227.230484 
L 200.084093 97.592174 
L 200.384143 202.868489 
L 200.684193 82.588943 
L 200.984244 68.698034 
L 201.284294 181.072568 
L 201.584345 63.483213 
L 201.884395 122.888072 
L 202.184445 87.097045 
L 202.484496 184.747383 
L 202.784546 144.970622 
L 203.084597 190.89131 
L 203.384647 105.583126 
L 203.684698 199.847826 
L 203.984748 81.587072 
L 204.284798 62.503166 
L 204.584849 213.899064 
L 204.884899 102.99235 
L 205.18495 146.711157 
L 205.485 73.885437 
L 205.78505 99.453408 
L 206.085101 69.433493 
L 206.385151 83.238324 
L 206.685202 183.895755 
L 207.285302 217.177755 
L 207.585353 74.135471 
L 207.885403 213.160609 
L 208.185454 115.819855 
L 208.485504 161.241865 
L 208.785555 180.13163 
L 209.085605 170.670511 
L 209.685706 75.584209 
L 209.985756 183.566297 
L 210.285807 73.940845 
L 210.585857 81.020659 
L 211.185958 102.020497 
L 211.486008 196.869741 
L 211.786059 199.713925 
L 212.086109 72.145414 
L 212.386159 183.696035 
L 212.68621 209.289614 
L 212.98626 91.370396 
L 213.286311 63.974253 
L 213.586361 219.793385 
L 213.886412 94.805123 
L 214.186462 88.111134 
L 214.486512 226.485216 
L 214.786563 174.627647 
L 215.086613 84.612945 
L 215.386664 189.98444 
L 215.686714 122.063542 
L 215.986764 163.468808 
L 216.286815 107.647736 
L 216.586865 176.288332 
L 216.886916 74.938891 
L 217.186966 89.977807 
L 217.487016 194.340811 
L 217.787067 79.933945 
L 218.087117 88.92315 
L 218.387168 174.960392 
L 218.687218 67.644917 
L 218.987269 198.580711 
L 219.287319 244.346248 
L 219.88742 141.811459 
L 220.18747 220.411728 
L 220.487521 97.494051 
L 220.787571 216.529254 
L 221.087621 231.428124 
L 221.387672 102.926654 
L 221.687722 190.814613 
L 221.987773 100.124436 
L 222.287823 213.174731 
L 222.587873 86.490382 
L 222.887924 113.509788 
L 223.187974 73.081245 
L 223.488025 77.842187 
L 223.788075 118.537704 
L 224.088126 228.749187 
L 224.388176 111.75121 
L 224.688226 207.742058 
L 224.988277 68.390125 
L 225.288327 96.203407 
L 225.588378 192.708426 
L 225.888428 61.038711 
L 226.488529 107.813025 
L 226.788579 78.261368 
L 227.08863 108.699357 
L 227.38868 217.867115 
L 227.68873 204.304242 
L 227.988781 233.195328 
L 228.588882 73.251129 
L 228.888932 176.95566 
L 229.188983 146.728022 
L 229.489033 144.859222 
L 229.789083 100.904776 
L 230.089134 81.65721 
L 230.389184 106.025568 
L 230.689235 77.951159 
L 230.989285 180.27904 
L 231.289335 125.196832 
L 231.589386 114.371478 
L 231.889436 90.923691 
L 232.489537 103.073243 
L 233.089638 157.502221 
L 233.689739 115.545765 
L 233.989789 135.123546 
L 234.28984 134.815243 
L 234.58989 134.900157 
L 234.88994 133.021357 
L 235.189991 136.009015 
L 235.490041 136.128814 
L 236.090142 134.640127 
L 236.390192 134.971688 
L 236.690243 143.18545 
L 236.990293 148.046271 
L 237.290344 132.159311 
L 237.590394 131.136174 
L 237.890444 132.094955 
L 238.190495 135.147775 
L 238.490545 135.450274 
L 239.390697 133.537775 
L 239.690747 133.507748 
L 239.990797 142.277771 
L 240.590898 129.416095 
L 240.890949 141.281723 
L 241.190999 133.780324 
L 241.491049 134.347937 
L 241.7911 135.338082 
L 242.09115 134.909551 
L 242.391201 143.711682 
L 242.991301 136.160249 
L 243.291352 133.527507 
L 243.591402 136.801367 
L 243.891453 135.171835 
L 244.191503 134.904163 
L 244.491554 136.613722 
L 245.091654 134.843244 
L 245.691755 135.8983 
L 245.991806 135.395816 
L 246.291856 135.685072 
L 246.591906 134.896338 
L 246.891957 136.068254 
L 247.192007 135.2638 
L 247.492058 135.41382 
L 247.792108 134.880491 
L 248.092158 135.480709 
L 248.392209 135.211391 
L 248.692259 135.754351 
L 248.99231 134.753812 
L 249.892461 136.016855 
L 250.192511 141.481736 
L 250.492562 135.365351 
L 251.092663 134.233114 
L 251.392713 137.016117 
L 251.992814 134.780876 
L 252.292864 135.451181 
L 252.592915 135.357793 
L 252.892965 135.560967 
L 253.193015 134.020878 
L 253.493066 135.426867 
L 253.793116 135.175604 
L 254.093167 135.264548 
L 254.393217 135.0889 
L 254.693268 134.240613 
L 254.993318 140.578116 
L 255.593419 132.685411 
L 255.893469 133.964933 
L 256.19352 136.883257 
L 256.49357 135.753639 
L 257.093671 135.346401 
L 257.393721 135.599132 
L 257.693772 135.20938 
L 257.993822 135.206386 
L 258.293872 134.807185 
L 258.593923 134.910025 
L 258.893973 135.31525 
L 259.194024 163.301161 
L 259.794125 128.421915 
L 260.094175 41.676953 
L 260.394225 115.506244 
L 260.694276 217.94279 
L 260.994326 116.199975 
L 261.294377 215.47733 
L 261.594427 102.030961 
L 261.894477 104.288464 
L 262.194528 85.86906 
L 262.494578 171.107464 
L 262.794629 162.258352 
L 263.094679 165.357548 
L 263.394729 180.001788 
L 263.99483 95.281902 
L 264.294881 84.464021 
L 264.594931 44.238856 
L 264.894982 221.509043 
L 265.195032 71.286122 
L 265.495082 90.476608 
L 265.795133 239.895133 
L 266.095183 91.21229 
L 266.395234 218.403219 
L 266.695284 207.154928 
L 266.995334 107.577677 
L 267.295385 65.926199 
L 267.895486 144.683676 
L 268.195536 111.457024 
L 268.495586 116.577658 
L 268.795637 165.532809 
L 269.095687 41.260493 
L 269.695788 206.599849 
L 269.995839 168.385717 
L 270.295889 162.27717 
L 270.595939 59.28995 
L 270.89599 73.804615 
L 271.19604 204.314521 
L 271.496091 71.710908 
L 271.796141 221.377145 
L 272.096191 121.148385 
L 272.396242 77.655244 
L 272.996343 207.250072 
L 273.296393 141.574678 
L 273.596443 213.93262 
L 273.896494 204.453979 
L 274.196544 90.331298 
L 274.496595 70.406509 
L 274.796645 121.144654 
L 275.096696 122.575747 
L 275.396746 106.832016 
L 275.696796 217.646281 
L 275.996847 107.678293 
L 276.296897 207.911212 
L 276.596948 92.30705 
L 276.896998 87.230088 
L 277.197048 97.223175 
L 277.497099 91.678027 
L 277.797149 76.583157 
L 278.0972 85.545844 
L 278.39725 208.14827 
L 278.6973 176.525737 
L 278.997351 189.716954 
L 279.297401 86.084732 
L 279.597452 206.121387 
L 279.897502 207.00809 
L 280.197553 158.81852 
L 280.797653 112.294569 
L 281.097704 112.406643 
L 281.397754 109.101744 
L 281.697805 131.873366 
L 281.997855 75.032796 
L 282.297905 170.107805 
L 282.597956 73.245354 
L 282.898006 216.046984 
L 283.198057 69.985511 
L 283.498107 101.235502 
L 283.798157 116.051777 
L 284.098208 198.989527 
L 284.398258 59.924129 
L 284.698309 98.449818 
L 284.998359 185.248106 
L 285.29841 72.543978 
L 285.59846 104.057054 
L 285.89851 80.421523 
L 286.198561 69.900323 
L 286.498611 113.71848 
L 286.798662 86.417245 
L 287.098712 218.641767 
L 287.398762 108.913579 
L 287.698813 154.586833 
L 287.998863 167.69023 
L 288.298914 66.13686 
L 288.598964 192.469912 
L 288.899014 226.099581 
L 289.199065 92.238591 
L 289.499115 105.570078 
L 289.799166 77.53116 
L 290.099216 91.111316 
L 290.399267 49.245054 
L 290.999367 179.994456 
L 291.299418 106.509221 
L 291.599468 186.149555 
L 291.899519 143.241195 
L 292.199569 200.258543 
L 292.499619 121.796953 
L 292.79967 78.766943 
L 293.09972 96.141196 
L 293.399771 99.145148 
L 293.699821 94.186897 
L 293.999871 135.190308 
L 294.299922 225.316044 
L 294.900023 66.295781 
L 295.200073 80.988915 
L 295.800174 196.285727 
L 296.100224 94.020445 
L 296.400275 99.620677 
L 296.700325 173.413892 
L 297.000376 57.857781 
L 297.300426 173.538527 
L 297.600476 122.347718 
L 297.900527 120.641965 
L 298.200577 218.05656 
L 298.500628 119.920204 
L 298.800678 107.679827 
L 299.100728 144.11761 
L 299.400779 142.667042 
L 299.700829 212.286064 
L 300.00088 176.932786 
L 300.30093 174.341283 
L 300.600981 77.347883 
L 300.901031 132.385292 
L 301.201081 80.367349 
L 301.501132 151.353236 
L 301.801182 110.646189 
L 302.101233 134.811485 
L 302.401283 213.416435 
L 302.701333 214.552224 
L 303.001384 178.336157 
L 303.301434 96.538071 
L 303.601485 97.270854 
L 303.901535 203.294881 
L 304.201585 228.677475 
L 304.501636 78.383587 
L 304.801686 232.622291 
L 305.401787 95.025633 
L 306.001888 186.10778 
L 306.301938 78.940437 
L 306.601989 64.286911 
L 306.902039 220.316788 
L 307.20209 206.688351 
L 307.50214 99.167636 
L 307.80219 113.6428 
L 308.102241 188.1409 
L 308.402291 209.559797 
L 308.702342 178.127725 
L 309.002392 70.443796 
L 309.302442 186.588352 
L 309.602493 119.345198 
L 309.902543 88.045155 
L 310.502644 213.063792 
L 310.802695 114.536627 
L 311.102745 104.460692 
L 311.402795 188.640065 
L 311.702846 182.843407 
L 312.002896 58.188566 
L 312.302947 204.663005 
L 312.602997 218.114369 
L 312.903047 51.637178 
L 313.503148 168.223811 
L 313.803199 207.378541 
L 314.103249 174.495902 
L 314.403299 213.889551 
L 314.70335 105.396265 
L 315.0034 203.61897 
L 315.303451 82.376469 
L 315.603501 66.336199 
L 315.903552 108.622513 
L 316.203602 114.821596 
L 316.503652 153.243685 
L 316.803703 175.818209 
L 317.103753 28.809205 
L 317.403804 95.391128 
L 317.703854 74.184882 
L 318.003904 117.277188 
L 318.303955 184.905596 
L 318.604005 199.639479 
L 318.904056 179.250984 
L 319.204106 99.754699 
L 319.504156 65.285429 
L 319.804207 219.433956 
L 320.104257 84.892849 
L 320.404308 208.28366 
L 320.704358 134.354345 
L 321.004409 125.074739 
L 321.304459 85.451418 
L 321.604509 74.788634 
L 321.90456 185.240439 
L 322.20461 213.419377 
L 322.504661 106.033771 
L 322.804711 194.118261 
L 323.404812 79.1233 
L 323.704862 76.304888 
L 324.004913 123.382767 
L 324.304963 212.578917 
L 324.605013 77.931068 
L 324.905064 206.03466 
L 325.505165 106.316019 
L 325.805215 98.606418 
L 326.105266 57.140587 
L 326.405316 80.500028 
L 326.705366 206.947336 
L 327.005417 225.75071 
L 327.305467 70.437925 
L 327.605518 230.891005 
L 327.905568 86.435019 
L 328.205618 142.321629 
L 328.505669 113.066449 
L 328.805719 178.158267 
L 329.10577 112.354516 
L 329.40582 190.8522 
L 329.70587 107.192564 
L 330.005921 138.872661 
L 330.305971 97.05504 
L 330.606022 82.400795 
L 330.906072 116.86329 
L 331.206123 44.212576 
L 331.506173 71.055916 
L 331.806223 222.322182 
L 332.106274 175.471018 
L 332.406324 74.984735 
L 332.706375 243.499404 
L 333.006425 184.360425 
L 333.306475 191.317099 
L 333.606526 223.827429 
L 334.206627 176.470731 
L 334.506677 81.834746 
L 334.806727 69.276695 
L 335.106778 103.166338 
L 335.406828 123.063161 
L 335.706879 185.379682 
L 336.006929 85.411886 
L 336.306979 97.136777 
L 336.60703 218.700433 
L 336.90708 118.313163 
L 337.207131 131.200313 
L 337.507181 62.26278 
L 337.807232 101.467818 
L 338.107282 206.444525 
L 338.407332 82.337556 
L 338.707383 147.600138 
L 339.007433 92.986201 
L 339.307484 100.646699 
L 339.607534 117.490327 
L 339.907584 213.522324 
L 340.207635 74.413079 
L 340.507685 106.98362 
L 340.807736 172.20916 
L 341.107786 82.925797 
L 341.407836 83.818138 
L 341.707887 83.543537 
L 342.007937 84.171072 
L 342.307988 257.69878 
L 342.608038 79.58216 
L 342.908089 73.832206 
L 343.208139 99.732341 
L 343.508189 98.259181 
L 343.80824 200.956808 
L 344.10829 120.847141 
L 344.408341 72.724414 
L 344.708391 128.728673 
L 345.008441 94.18334 
L 345.308492 95.581448 
L 345.608542 165.154453 
L 345.908593 99.583358 
L 346.508693 217.35716 
L 346.808744 73.869787 
L 347.108794 218.086919 
L 347.408845 229.53495 
L 347.708895 86.139945 
L 348.008946 108.027661 
L 348.308996 91.232794 
L 348.609046 230.205376 
L 348.909097 220.55712 
L 349.509198 95.013598 
L 349.809248 116.735571 
L 350.109298 203.933389 
L 350.709399 127.289488 
L 351.00945 99.606867 
L 351.3095 200.941726 
L 351.60955 85.452843 
L 351.909601 191.054111 
L 352.209651 69.024035 
L 352.509702 151.635502 
L 352.809752 80.190883 
L 353.109803 89.391878 
L 353.409853 205.308642 
L 353.709903 197.321606 
L 354.009954 87.706319 
L 354.610055 133.513055 
L 354.910105 109.375779 
L 355.210155 101.895173 
L 355.510206 100.897757 
L 355.810256 94.985323 
L 356.110307 108.916208 
L 356.410357 67.003795 
L 356.710407 188.699513 
L 357.010458 97.429183 
L 357.310508 121.645626 
L 357.610559 191.448746 
L 358.21066 62.025255 
L 358.51071 203.384172 
L 359.110811 89.76108 
L 359.410861 197.629955 
L 359.710912 178.405518 
L 360.010962 135.458575 
L 360.311012 120.680945 
L 360.611063 93.454246 
L 360.911113 105.44747 
L 361.211164 199.099209 
L 361.511214 96.435393 
L 361.811264 50.312733 
L 362.411365 178.358992 
L 362.711416 175.51706 
L 363.011466 195.923384 
L 363.311517 121.870174 
L 363.911617 183.955583 
L 364.211668 121.051015 
L 364.511718 143.352681 
L 364.811769 152.891188 
L 365.111819 127.581586 
L 365.411869 183.982311 
L 365.71192 149.63364 
L 366.01197 155.233747 
L 366.312021 124.8585 
L 366.612071 140.097603 
L 366.912121 142.370919 
L 367.212172 172.389669 
L 367.512222 145.50064 
L 367.812273 136.159486 
L 367.812273 136.159486 
" style="fill:none;stroke:#1f77b4;stroke-linecap:square;stroke-width:1.5;"/>
   </g>
   <g id="patch_3">
    <path d="M 26.925 276.812 
L 26.925 10.7 
" style="fill:none;stroke:#000000;stroke-linecap:square;stroke-linejoin:miter;stroke-width:0.8;"/>
   </g>
   <g id="patch_4">
    <path d="M 384.045 276.812 
L 384.045 10.7 
" style="fill:none;stroke:#000000;stroke-linecap:square;stroke-linejoin:miter;stroke-width:0.8;"/>
   </g>
   <g id="patch_5">
    <path d="M 26.925 276.812 
L 384.045 276.812 
" style="fill:none;stroke:#000000;stroke-linecap:square;stroke-linejoin:miter;stroke-width:0.8;"/>
   </g>
   <g id="patch_6">
    <path d="M 26.925 10.7 
L 384.045 10.7 
" style="fill:none;stroke:#000000;stroke-linecap:square;stroke-linejoin:miter;stroke-width:0.8;"/>
   </g>
  </g>
 </g>
 <defs>
  <clipPath id="pe8d39c6a85">
   <rect height="266.112" width="357.12" x="26.925" y="10.7"/>
  </clipPath>
 </defs>
</svg>
