<?xml version="1.0" encoding="utf-8" standalone="no"?>
<!DOCTYPE svg PUBLIC "-//W3C//DTD SVG 1.1//EN"
  "http://www.w3.org/Graphics/SVG/1.1/DTD/svg11.dtd">
<!-- Created with matplotlib (http://matplotlib.org/) -->
<svg height="300.955591pt" version="1.1" viewBox="0 0 394.745 300.955591" width="394.745pt" xmlns="http://www.w3.org/2000/svg" xmlns:xlink="http://www.w3.org/1999/xlink">
 <defs>
  <style type="text/css">
*{stroke-linecap:butt;stroke-linejoin:round;}
  </style>
 </defs>
 <g id="figure_1">
  <g id="patch_1">
   <path d="M 0 300.955591 
L 394.745 300.955591 
L 394.745 0 
L 0 0 
z
" style="fill:#ffffff;"/>
  </g>
  <g id="axes_1">
   <g id="patch_2">
    <path d="M 26.925 277.077466 
L 384.045 277.077466 
L 384.045 10.965466 
L 26.925 10.965466 
z
" style="fill:#ffffff;"/>
   </g>
   <g id="matplotlib.axis_1">
    <g id="xtick_1">
     <g id="line2d_1">
      <defs>
       <path d="M 0 0 
L 0 3.5 
" id="m69f6c34344" style="stroke:#000000;stroke-width:0.8;"/>
      </defs>
      <g>
       <use style="stroke:#000000;stroke-width:0.8;" x="43.157727" xlink:href="#m69f6c34344" y="277.077466"/>
      </g>
     </g>
     <g id="text_1">
      <!-- 0 -->
      <defs>
       <path d="M 31.78125 66.40625 
Q 24.171875 66.40625 20.328125 58.90625 
Q 16.5 51.421875 16.5 36.375 
Q 16.5 21.390625 20.328125 13.890625 
Q 24.171875 6.390625 31.78125 6.390625 
Q 39.453125 6.390625 43.28125 13.890625 
Q 47.125 21.390625 47.125 36.375 
Q 47.125 51.421875 43.28125 58.90625 
Q 39.453125 66.40625 31.78125 66.40625 
z
M 31.78125 74.21875 
Q 44.046875 74.21875 50.515625 64.515625 
Q 56.984375 54.828125 56.984375 36.375 
Q 56.984375 17.96875 50.515625 8.265625 
Q 44.046875 -1.421875 31.78125 -1.421875 
Q 19.53125 -1.421875 13.0625 8.265625 
Q 6.59375 17.96875 6.59375 36.375 
Q 6.59375 54.828125 13.0625 64.515625 
Q 19.53125 74.21875 31.78125 74.21875 
z
" id="DejaVuSans-30"/>
      </defs>
      <g transform="translate(39.976477 291.675903)scale(0.1 -0.1)">
       <use xlink:href="#DejaVuSans-30"/>
      </g>
     </g>
    </g>
    <g id="xtick_2">
     <g id="line2d_2">
      <g>
       <use style="stroke:#000000;stroke-width:0.8;" x="87.875984" xlink:href="#m69f6c34344" y="277.077466"/>
      </g>
     </g>
     <g id="text_2">
      <!-- 100 -->
      <defs>
       <path d="M 12.40625 8.296875 
L 28.515625 8.296875 
L 28.515625 63.921875 
L 10.984375 60.40625 
L 10.984375 69.390625 
L 28.421875 72.90625 
L 38.28125 72.90625 
L 38.28125 8.296875 
L 54.390625 8.296875 
L 54.390625 0 
L 12.40625 0 
z
" id="DejaVuSans-31"/>
      </defs>
      <g transform="translate(78.332234 291.675903)scale(0.1 -0.1)">
       <use xlink:href="#DejaVuSans-31"/>
       <use x="63.623047" xlink:href="#DejaVuSans-30"/>
       <use x="127.246094" xlink:href="#DejaVuSans-30"/>
      </g>
     </g>
    </g>
    <g id="xtick_3">
     <g id="line2d_3">
      <g>
       <use style="stroke:#000000;stroke-width:0.8;" x="132.594241" xlink:href="#m69f6c34344" y="277.077466"/>
      </g>
     </g>
     <g id="text_3">
      <!-- 200 -->
      <defs>
       <path d="M 19.1875 8.296875 
L 53.609375 8.296875 
L 53.609375 0 
L 7.328125 0 
L 7.328125 8.296875 
Q 12.9375 14.109375 22.625 23.890625 
Q 32.328125 33.6875 34.8125 36.53125 
Q 39.546875 41.84375 41.421875 45.53125 
Q 43.3125 49.21875 43.3125 52.78125 
Q 43.3125 58.59375 39.234375 62.25 
Q 35.15625 65.921875 28.609375 65.921875 
Q 23.96875 65.921875 18.8125 64.3125 
Q 13.671875 62.703125 7.8125 59.421875 
L 7.8125 69.390625 
Q 13.765625 71.78125 18.9375 73 
Q 24.125 74.21875 28.421875 74.21875 
Q 39.75 74.21875 46.484375 68.546875 
Q 53.21875 62.890625 53.21875 53.421875 
Q 53.21875 48.921875 51.53125 44.890625 
Q 49.859375 40.875 45.40625 35.40625 
Q 44.1875 33.984375 37.640625 27.21875 
Q 31.109375 20.453125 19.1875 8.296875 
z
" id="DejaVuSans-32"/>
      </defs>
      <g transform="translate(123.050491 291.675903)scale(0.1 -0.1)">
       <use xlink:href="#DejaVuSans-32"/>
       <use x="63.623047" xlink:href="#DejaVuSans-30"/>
       <use x="127.246094" xlink:href="#DejaVuSans-30"/>
      </g>
     </g>
    </g>
    <g id="xtick_4">
     <g id="line2d_4">
      <g>
       <use style="stroke:#000000;stroke-width:0.8;" x="177.312498" xlink:href="#m69f6c34344" y="277.077466"/>
      </g>
     </g>
     <g id="text_4">
      <!-- 300 -->
      <defs>
       <path d="M 40.578125 39.3125 
Q 47.65625 37.796875 51.625 33 
Q 55.609375 28.21875 55.609375 21.1875 
Q 55.609375 10.40625 48.1875 4.484375 
Q 40.765625 -1.421875 27.09375 -1.421875 
Q 22.515625 -1.421875 17.65625 -0.515625 
Q 12.796875 0.390625 7.625 2.203125 
L 7.625 11.71875 
Q 11.71875 9.328125 16.59375 8.109375 
Q 21.484375 6.890625 26.8125 6.890625 
Q 36.078125 6.890625 40.9375 10.546875 
Q 45.796875 14.203125 45.796875 21.1875 
Q 45.796875 27.640625 41.28125 31.265625 
Q 36.765625 34.90625 28.71875 34.90625 
L 20.21875 34.90625 
L 20.21875 43.015625 
L 29.109375 43.015625 
Q 36.375 43.015625 40.234375 45.921875 
Q 44.09375 48.828125 44.09375 54.296875 
Q 44.09375 59.90625 40.109375 62.90625 
Q 36.140625 65.921875 28.71875 65.921875 
Q 24.65625 65.921875 20.015625 65.03125 
Q 15.375 64.15625 9.8125 62.3125 
L 9.8125 71.09375 
Q 15.4375 72.65625 20.34375 73.4375 
Q 25.25 74.21875 29.59375 74.21875 
Q 40.828125 74.21875 47.359375 69.109375 
Q 53.90625 64.015625 53.90625 55.328125 
Q 53.90625 49.265625 50.4375 45.09375 
Q 46.96875 40.921875 40.578125 39.3125 
z
" id="DejaVuSans-33"/>
      </defs>
      <g transform="translate(167.768748 291.675903)scale(0.1 -0.1)">
       <use xlink:href="#DejaVuSans-33"/>
       <use x="63.623047" xlink:href="#DejaVuSans-30"/>
       <use x="127.246094" xlink:href="#DejaVuSans-30"/>
      </g>
     </g>
    </g>
    <g id="xtick_5">
     <g id="line2d_5">
      <g>
       <use style="stroke:#000000;stroke-width:0.8;" x="222.030755" xlink:href="#m69f6c34344" y="277.077466"/>
      </g>
     </g>
     <g id="text_5">
      <!-- 400 -->
      <defs>
       <path d="M 37.796875 64.3125 
L 12.890625 25.390625 
L 37.796875 25.390625 
z
M 35.203125 72.90625 
L 47.609375 72.90625 
L 47.609375 25.390625 
L 58.015625 25.390625 
L 58.015625 17.1875 
L 47.609375 17.1875 
L 47.609375 0 
L 37.796875 0 
L 37.796875 17.1875 
L 4.890625 17.1875 
L 4.890625 26.703125 
z
" id="DejaVuSans-34"/>
      </defs>
      <g transform="translate(212.487005 291.675903)scale(0.1 -0.1)">
       <use xlink:href="#DejaVuSans-34"/>
       <use x="63.623047" xlink:href="#DejaVuSans-30"/>
       <use x="127.246094" xlink:href="#DejaVuSans-30"/>
      </g>
     </g>
    </g>
    <g id="xtick_6">
     <g id="line2d_6">
      <g>
       <use style="stroke:#000000;stroke-width:0.8;" x="266.749012" xlink:href="#m69f6c34344" y="277.077466"/>
      </g>
     </g>
     <g id="text_6">
      <!-- 500 -->
      <defs>
       <path d="M 10.796875 72.90625 
L 49.515625 72.90625 
L 49.515625 64.59375 
L 19.828125 64.59375 
L 19.828125 46.734375 
Q 21.96875 47.46875 24.109375 47.828125 
Q 26.265625 48.1875 28.421875 48.1875 
Q 40.625 48.1875 47.75 41.5 
Q 54.890625 34.8125 54.890625 23.390625 
Q 54.890625 11.625 47.5625 5.09375 
Q 40.234375 -1.421875 26.90625 -1.421875 
Q 22.3125 -1.421875 17.546875 -0.640625 
Q 12.796875 0.140625 7.71875 1.703125 
L 7.71875 11.625 
Q 12.109375 9.234375 16.796875 8.0625 
Q 21.484375 6.890625 26.703125 6.890625 
Q 35.15625 6.890625 40.078125 11.328125 
Q 45.015625 15.765625 45.015625 23.390625 
Q 45.015625 31 40.078125 35.4375 
Q 35.15625 39.890625 26.703125 39.890625 
Q 22.75 39.890625 18.8125 39.015625 
Q 14.890625 38.140625 10.796875 36.28125 
z
" id="DejaVuSans-35"/>
      </defs>
      <g transform="translate(257.205262 291.675903)scale(0.1 -0.1)">
       <use xlink:href="#DejaVuSans-35"/>
       <use x="63.623047" xlink:href="#DejaVuSans-30"/>
       <use x="127.246094" xlink:href="#DejaVuSans-30"/>
      </g>
     </g>
    </g>
    <g id="xtick_7">
     <g id="line2d_7">
      <g>
       <use style="stroke:#000000;stroke-width:0.8;" x="311.467269" xlink:href="#m69f6c34344" y="277.077466"/>
      </g>
     </g>
     <g id="text_7">
      <!-- 600 -->
      <defs>
       <path d="M 33.015625 40.375 
Q 26.375 40.375 22.484375 35.828125 
Q 18.609375 31.296875 18.609375 23.390625 
Q 18.609375 15.53125 22.484375 10.953125 
Q 26.375 6.390625 33.015625 6.390625 
Q 39.65625 6.390625 43.53125 10.953125 
Q 47.40625 15.53125 47.40625 23.390625 
Q 47.40625 31.296875 43.53125 35.828125 
Q 39.65625 40.375 33.015625 40.375 
z
M 52.59375 71.296875 
L 52.59375 62.3125 
Q 48.875 64.0625 45.09375 64.984375 
Q 41.3125 65.921875 37.59375 65.921875 
Q 27.828125 65.921875 22.671875 59.328125 
Q 17.53125 52.734375 16.796875 39.40625 
Q 19.671875 43.65625 24.015625 45.921875 
Q 28.375 48.1875 33.59375 48.1875 
Q 44.578125 48.1875 50.953125 41.515625 
Q 57.328125 34.859375 57.328125 23.390625 
Q 57.328125 12.15625 50.6875 5.359375 
Q 44.046875 -1.421875 33.015625 -1.421875 
Q 20.359375 -1.421875 13.671875 8.265625 
Q 6.984375 17.96875 6.984375 36.375 
Q 6.984375 53.65625 15.1875 63.9375 
Q 23.390625 74.21875 37.203125 74.21875 
Q 40.921875 74.21875 44.703125 73.484375 
Q 48.484375 72.75 52.59375 71.296875 
z
" id="DejaVuSans-36"/>
      </defs>
      <g transform="translate(301.923519 291.675903)scale(0.1 -0.1)">
       <use xlink:href="#DejaVuSans-36"/>
       <use x="63.623047" xlink:href="#DejaVuSans-30"/>
       <use x="127.246094" xlink:href="#DejaVuSans-30"/>
      </g>
     </g>
    </g>
    <g id="xtick_8">
     <g id="line2d_8">
      <g>
       <use style="stroke:#000000;stroke-width:0.8;" x="356.185526" xlink:href="#m69f6c34344" y="277.077466"/>
      </g>
     </g>
     <g id="text_8">
      <!-- 700 -->
      <defs>
       <path d="M 8.203125 72.90625 
L 55.078125 72.90625 
L 55.078125 68.703125 
L 28.609375 0 
L 18.3125 0 
L 43.21875 64.59375 
L 8.203125 64.59375 
z
" id="DejaVuSans-37"/>
      </defs>
      <g transform="translate(346.641776 291.675903)scale(0.1 -0.1)">
       <use xlink:href="#DejaVuSans-37"/>
       <use x="63.623047" xlink:href="#DejaVuSans-30"/>
       <use x="127.246094" xlink:href="#DejaVuSans-30"/>
      </g>
     </g>
    </g>
   </g>
   <g id="matplotlib.axis_2">
    <g id="ytick_1">
     <g id="line2d_9">
      <defs>
       <path d="M 0 0 
L -3.5 0 
" id="m439cfbfae3" style="stroke:#000000;stroke-width:0.8;"/>
      </defs>
      <g>
       <use style="stroke:#000000;stroke-width:0.8;" x="26.925" xlink:href="#m439cfbfae3" y="275.09444"/>
      </g>
     </g>
     <g id="text_9">
      <!-- 4 -->
      <g transform="translate(13.5625 278.893659)scale(0.1 -0.1)">
       <use xlink:href="#DejaVuSans-34"/>
      </g>
     </g>
    </g>
    <g id="ytick_2">
     <g id="line2d_10">
      <g>
       <use style="stroke:#000000;stroke-width:0.8;" x="26.925" xlink:href="#m439cfbfae3" y="242.082538"/>
      </g>
     </g>
     <g id="text_10">
      <!-- 6 -->
      <g transform="translate(13.5625 245.881756)scale(0.1 -0.1)">
       <use xlink:href="#DejaVuSans-36"/>
      </g>
     </g>
    </g>
    <g id="ytick_3">
     <g id="line2d_11">
      <g>
       <use style="stroke:#000000;stroke-width:0.8;" x="26.925" xlink:href="#m439cfbfae3" y="209.070635"/>
      </g>
     </g>
     <g id="text_11">
      <!-- 8 -->
      <defs>
       <path d="M 31.78125 34.625 
Q 24.75 34.625 20.71875 30.859375 
Q 16.703125 27.09375 16.703125 20.515625 
Q 16.703125 13.921875 20.71875 10.15625 
Q 24.75 6.390625 31.78125 6.390625 
Q 38.8125 6.390625 42.859375 10.171875 
Q 46.921875 13.96875 46.921875 20.515625 
Q 46.921875 27.09375 42.890625 30.859375 
Q 38.875 34.625 31.78125 34.625 
z
M 21.921875 38.8125 
Q 15.578125 40.375 12.03125 44.71875 
Q 8.5 49.078125 8.5 55.328125 
Q 8.5 64.0625 14.71875 69.140625 
Q 20.953125 74.21875 31.78125 74.21875 
Q 42.671875 74.21875 48.875 69.140625 
Q 55.078125 64.0625 55.078125 55.328125 
Q 55.078125 49.078125 51.53125 44.71875 
Q 48 40.375 41.703125 38.8125 
Q 48.828125 37.15625 52.796875 32.3125 
Q 56.78125 27.484375 56.78125 20.515625 
Q 56.78125 9.90625 50.3125 4.234375 
Q 43.84375 -1.421875 31.78125 -1.421875 
Q 19.734375 -1.421875 13.25 4.234375 
Q 6.78125 9.90625 6.78125 20.515625 
Q 6.78125 27.484375 10.78125 32.3125 
Q 14.796875 37.15625 21.921875 38.8125 
z
M 18.3125 54.390625 
Q 18.3125 48.734375 21.84375 45.5625 
Q 25.390625 42.390625 31.78125 42.390625 
Q 38.140625 42.390625 41.71875 45.5625 
Q 45.3125 48.734375 45.3125 54.390625 
Q 45.3125 60.0625 41.71875 63.234375 
Q 38.140625 66.40625 31.78125 66.40625 
Q 25.390625 66.40625 21.84375 63.234375 
Q 18.3125 60.0625 18.3125 54.390625 
z
" id="DejaVuSans-38"/>
      </defs>
      <g transform="translate(13.5625 212.869854)scale(0.1 -0.1)">
       <use xlink:href="#DejaVuSans-38"/>
      </g>
     </g>
    </g>
    <g id="ytick_4">
     <g id="line2d_12">
      <g>
       <use style="stroke:#000000;stroke-width:0.8;" x="26.925" xlink:href="#m439cfbfae3" y="176.058732"/>
      </g>
     </g>
     <g id="text_12">
      <!-- 10 -->
      <g transform="translate(7.2 179.857951)scale(0.1 -0.1)">
       <use xlink:href="#DejaVuSans-31"/>
       <use x="63.623047" xlink:href="#DejaVuSans-30"/>
      </g>
     </g>
    </g>
    <g id="ytick_5">
     <g id="line2d_13">
      <g>
       <use style="stroke:#000000;stroke-width:0.8;" x="26.925" xlink:href="#m439cfbfae3" y="143.04683"/>
      </g>
     </g>
     <g id="text_13">
      <!-- 12 -->
      <g transform="translate(7.2 146.846048)scale(0.1 -0.1)">
       <use xlink:href="#DejaVuSans-31"/>
       <use x="63.623047" xlink:href="#DejaVuSans-32"/>
      </g>
     </g>
    </g>
    <g id="ytick_6">
     <g id="line2d_14">
      <g>
       <use style="stroke:#000000;stroke-width:0.8;" x="26.925" xlink:href="#m439cfbfae3" y="110.034927"/>
      </g>
     </g>
     <g id="text_14">
      <!-- 14 -->
      <g transform="translate(7.2 113.834146)scale(0.1 -0.1)">
       <use xlink:href="#DejaVuSans-31"/>
       <use x="63.623047" xlink:href="#DejaVuSans-34"/>
      </g>
     </g>
    </g>
    <g id="ytick_7">
     <g id="line2d_15">
      <g>
       <use style="stroke:#000000;stroke-width:0.8;" x="26.925" xlink:href="#m439cfbfae3" y="77.023024"/>
      </g>
     </g>
     <g id="text_15">
      <!-- 16 -->
      <g transform="translate(7.2 80.822243)scale(0.1 -0.1)">
       <use xlink:href="#DejaVuSans-31"/>
       <use x="63.623047" xlink:href="#DejaVuSans-36"/>
      </g>
     </g>
    </g>
    <g id="ytick_8">
     <g id="line2d_16">
      <g>
       <use style="stroke:#000000;stroke-width:0.8;" x="26.925" xlink:href="#m439cfbfae3" y="44.011121"/>
      </g>
     </g>
     <g id="text_16">
      <!-- 18 -->
      <g transform="translate(7.2 47.81034)scale(0.1 -0.1)">
       <use xlink:href="#DejaVuSans-31"/>
       <use x="63.623047" xlink:href="#DejaVuSans-38"/>
      </g>
     </g>
    </g>
    <g id="ytick_9">
     <g id="line2d_17">
      <g>
       <use style="stroke:#000000;stroke-width:0.8;" x="26.925" xlink:href="#m439cfbfae3" y="10.999219"/>
      </g>
     </g>
     <g id="text_17">
      <!-- 20 -->
      <g transform="translate(7.2 14.798438)scale(0.1 -0.1)">
       <use xlink:href="#DejaVuSans-32"/>
       <use x="63.623047" xlink:href="#DejaVuSans-30"/>
      </g>
     </g>
    </g>
   </g>
   <g id="line2d_18">
    <path clip-path="url(#pb7950c164e)" d="M 43.157727 158.413127 
L 43.60491 185.882584 
L 44.052092 162.360931 
L 44.499275 171.002299 
L 44.946458 172.56207 
L 45.39364 166.250681 
L 45.840823 165.524673 
L 46.288005 172.294552 
L 46.735188 177.103115 
L 47.18237 163.812991 
L 47.629553 176.791521 
L 48.076736 165.347079 
L 48.523918 160.755237 
L 49.418283 173.74175 
L 49.865466 169.345614 
L 50.312648 166.423539 
L 50.759831 177.955682 
L 51.207014 173.618147 
L 51.654196 167.04157 
L 52.101379 165.846534 
L 52.548561 167.401251 
L 52.995744 165.190233 
L 53.442926 171.842349 
L 53.890109 167.558253 
L 54.337292 167.016269 
L 54.784474 174.650661 
L 55.231657 185.915222 
L 55.678839 189.296893 
L 56.126022 164.714047 
L 57.020387 167.873038 
L 57.467569 173.592947 
L 57.914752 170.958407 
L 58.361935 163.937419 
L 58.809117 160.544122 
L 59.2563 165.613356 
L 59.703482 168.600611 
L 60.150665 166.165519 
L 60.597847 165.792195 
L 61.04503 165.828154 
L 61.939395 157.336882 
L 62.386578 161.527408 
L 62.83376 157.535312 
L 63.280943 170.747925 
L 63.728125 173.575492 
L 64.175308 168.642575 
L 64.622491 177.347529 
L 65.069673 153.065587 
L 65.516856 183.2348 
L 65.964038 138.188744 
L 66.411221 186.60582 
L 66.858403 193.760932 
L 67.305586 145.982173 
L 67.752769 152.077537 
L 68.199951 170.117519 
L 68.647134 158.708697 
L 69.094316 172.233405 
L 69.541499 130.364279 
L 69.988681 190.719306 
L 70.435864 142.447824 
L 71.330229 175.186196 
L 71.777412 179.841105 
L 72.224594 181.238942 
L 72.671777 156.379896 
L 73.118959 157.594413 
L 73.566142 179.150728 
L 74.013325 161.809688 
L 74.460507 162.53218 
L 74.90769 138.137019 
L 75.354872 177.959129 
L 75.802055 132.413042 
L 76.249237 182.420769 
L 76.69642 126.920702 
L 77.143603 163.684851 
L 77.590785 173.464385 
L 78.037968 166.775322 
L 78.48515 183.180719 
L 78.932333 181.652996 
L 79.379515 181.8586 
L 79.826698 179.949886 
L 80.273881 176.382073 
L 81.168246 163.835559 
L 81.615428 173.674433 
L 82.062611 148.992133 
L 82.509793 161.302881 
L 82.956976 169.383942 
L 83.404159 162.128515 
L 83.851341 170.423352 
L 84.298524 166.552088 
L 84.745706 164.736604 
L 85.192889 168.97634 
L 85.640071 165.449882 
L 86.981619 170.465648 
L 87.875984 161.472498 
L 88.323167 186.074584 
L 88.770349 150.743624 
L 89.217532 139.4779 
L 90.111897 172.203299 
L 90.55908 175.221857 
L 91.006262 172.611837 
L 91.453445 141.757121 
L 91.900627 158.538818 
L 92.34781 205.192725 
L 92.794992 196.61705 
L 93.242175 108.025211 
L 93.689358 189.766262 
L 94.13654 190.400043 
L 94.583723 181.140361 
L 95.030905 133.153705 
L 95.478088 168.299591 
L 95.92527 136.275508 
L 96.372453 197.888443 
L 96.819636 142.435626 
L 97.266818 137.571142 
L 97.714001 215.023278 
L 98.161183 220.35103 
L 98.608366 155.166582 
L 99.055548 174.865966 
L 99.502731 156.148434 
L 99.949914 193.719701 
L 100.397096 134.183891 
L 100.844279 134.87631 
L 101.291461 207.65765 
L 101.738644 113.823342 
L 102.185826 166.742126 
L 102.633009 167.008231 
L 103.080192 195.54045 
L 103.527374 142.635466 
L 103.974557 128.411092 
L 104.421739 133.563755 
L 104.868922 161.620729 
L 105.316104 241.617092 
L 105.763287 212.682442 
L 106.21047 99.488378 
L 106.657652 199.81255 
L 107.104835 52.648564 
L 107.552017 130.441183 
L 107.9992 163.113383 
L 108.446382 114.796766 
L 108.893565 143.531098 
L 109.340748 155.006877 
L 109.78793 131.227771 
L 110.235113 169.003142 
L 110.682295 151.369598 
L 111.129478 176.49395 
L 111.57666 176.361851 
L 112.023843 154.239401 
L 112.471026 165.177197 
L 112.918208 186.309753 
L 113.365391 156.30949 
L 113.812573 190.754163 
L 114.259756 174.59655 
L 114.706938 173.135837 
L 115.154121 142.918272 
L 115.601304 199.904106 
L 116.048486 152.635124 
L 116.495669 120.213467 
L 116.942851 160.582017 
L 117.390034 156.882777 
L 117.837216 181.432992 
L 118.284399 174.524704 
L 118.731582 194.150882 
L 119.625947 167.47198 
L 120.073129 136.804656 
L 120.520312 177.09344 
L 120.967494 148.909842 
L 121.414677 153.054166 
L 121.86186 164.883251 
L 122.309042 168.438892 
L 122.756225 175.29488 
L 123.203407 146.796545 
L 124.097772 190.302123 
L 124.992137 162.536143 
L 125.43932 168.622757 
L 125.886503 162.019977 
L 126.780868 166.932929 
L 127.22805 183.87101 
L 127.675233 171.232807 
L 128.122415 163.884738 
L 128.569598 168.305499 
L 129.016781 169.333065 
L 129.463963 172.814384 
L 129.911146 164.131667 
L 130.358328 166.355245 
L 130.805511 163.45565 
L 131.252693 168.213765 
L 131.699876 168.793258 
L 132.147059 168.13777 
L 132.594241 169.203856 
L 133.041424 166.936729 
L 133.488606 162.930334 
L 133.935789 173.268069 
L 134.382971 173.040893 
L 134.830154 175.569188 
L 135.277337 173.954636 
L 135.724519 171.432491 
L 136.171702 163.999244 
L 136.618884 165.562981 
L 137.066067 158.447551 
L 137.513249 172.224309 
L 137.960432 165.168982 
L 138.407615 166.951006 
L 138.854797 163.099174 
L 139.30198 154.792385 
L 139.749162 170.542984 
L 140.196345 155.360933 
L 140.643527 166.94045 
L 141.09071 188.086331 
L 141.537893 121.44461 
L 141.985075 153.059952 
L 142.432258 173.74405 
L 142.87944 162.317683 
L 143.326623 188.71252 
L 143.773805 134.454761 
L 144.668171 171.592125 
L 145.115353 172.211642 
L 145.562536 171.509257 
L 146.009718 163.589888 
L 146.456901 167.656523 
L 146.904083 140.541873 
L 147.351266 177.641205 
L 147.798449 159.310768 
L 148.245631 166.038372 
L 148.692814 176.842632 
L 149.139996 165.520733 
L 149.587179 172.304346 
L 150.034361 164.900842 
L 150.481544 172.16871 
L 150.928727 158.14561 
L 151.375909 167.615375 
L 151.823092 166.52145 
L 152.270274 164.037332 
L 152.717457 171.283223 
L 153.164639 166.900272 
L 153.611822 166.606481 
L 154.059005 156.990833 
L 154.506187 186.43305 
L 154.95337 160.53131 
L 155.400552 157.008661 
L 155.847735 172.971343 
L 156.294917 164.902214 
L 156.7421 149.885687 
L 157.189282 158.217825 
L 157.636465 181.156367 
L 158.083648 181.092973 
L 158.53083 177.515302 
L 158.978013 152.179735 
L 159.425195 171.84381 
L 159.872378 178.694317 
L 160.31956 191.164654 
L 160.766743 151.387107 
L 161.213926 182.537717 
L 161.661108 173.350418 
L 162.108291 161.696672 
L 162.555473 162.099111 
L 163.002656 160.082723 
L 163.449838 169.439504 
L 163.897021 169.426382 
L 164.344204 163.833134 
L 164.791386 172.198245 
L 165.238569 172.20265 
L 165.685751 179.701096 
L 166.132934 168.160199 
L 166.580116 164.284125 
L 167.027299 154.175058 
L 167.474482 169.426604 
L 167.921664 166.911854 
L 168.368847 162.251194 
L 168.816029 179.960229 
L 169.263212 162.563896 
L 169.710394 174.667908 
L 170.157577 163.419547 
L 170.60476 162.519999 
L 171.051942 172.102756 
L 171.499125 170.883108 
L 171.946307 165.757098 
L 172.39349 167.111598 
L 172.840672 190.656051 
L 173.287855 186.053777 
L 173.735038 144.725222 
L 174.18222 170.230575 
L 174.629403 188.329461 
L 175.523768 137.364244 
L 175.97095 180.645362 
L 176.418133 175.233457 
L 176.865316 158.752246 
L 177.312498 184.105803 
L 177.759681 174.148817 
L 178.206863 157.270247 
L 178.654046 158.920606 
L 179.101228 165.796419 
L 179.548411 141.946397 
L 179.995594 168.816337 
L 180.442776 180.66983 
L 180.889959 167.365026 
L 181.337141 192.557889 
L 181.784324 180.111677 
L 182.231506 180.285095 
L 182.678689 179.95356 
L 183.125872 179.319023 
L 183.573054 161.133182 
L 184.020237 161.225559 
L 184.467419 162.811106 
L 184.914602 161.226966 
L 185.361784 185.701603 
L 185.808967 174.407461 
L 186.25615 120.330582 
L 186.703332 170.697472 
L 187.150515 193.394084 
L 187.597697 108.473103 
L 188.492062 173.126352 
L 188.939245 164.830027 
L 189.386427 179.66348 
L 189.83361 176.688973 
L 190.280793 113.918521 
L 190.727975 183.299403 
L 191.175158 168.525648 
L 191.62234 160.428902 
L 192.069523 186.651661 
L 192.516705 164.927381 
L 192.963888 180.449829 
L 193.411071 164.08932 
L 193.858253 165.924617 
L 194.305436 172.195602 
L 194.752618 168.068055 
L 195.199801 168.637417 
L 195.646983 168.430268 
L 196.094166 166.22495 
L 196.541349 167.258989 
L 196.988531 168.703038 
L 197.435714 167.591779 
L 197.882896 163.858197 
L 198.777261 172.314511 
L 199.224444 159.352548 
L 200.118809 171.919006 
L 200.565992 164.624832 
L 201.013174 167.84563 
L 201.460357 168.954018 
L 201.907539 167.109442 
L 202.354722 169.169008 
L 202.801905 166.117756 
L 203.249087 177.943808 
L 203.69627 165.336365 
L 204.143452 166.534036 
L 204.590635 165.330762 
L 205.037817 164.878778 
L 205.932183 169.637913 
L 206.379365 162.063928 
L 206.826548 169.045443 
L 207.27373 166.454402 
L 207.720913 176.759356 
L 208.615278 157.726776 
L 209.062461 162.146188 
L 209.509643 164.371326 
L 209.956826 162.778944 
L 210.404008 167.204041 
L 210.851191 158.460976 
L 211.298373 157.024758 
L 211.745556 178.425917 
L 212.192739 161.061636 
L 212.639921 138.806025 
L 213.087104 149.229963 
L 213.534286 167.561191 
L 213.981469 163.556415 
L 214.428651 174.563144 
L 214.875834 156.832919 
L 215.323017 162.062886 
L 215.770199 159.911177 
L 216.217382 155.922824 
L 216.664564 162.016992 
L 217.111747 165.615217 
L 217.558929 187.690279 
L 218.006112 150.422614 
L 218.453295 180.307241 
L 218.900477 129.667239 
L 219.34766 192.564557 
L 219.794842 182.877316 
L 220.242025 191.439081 
L 220.689207 172.006205 
L 221.13639 164.112219 
L 221.583573 158.878277 
L 222.030755 173.503406 
L 222.477938 152.234919 
L 222.92512 188.454931 
L 223.372303 175.653024 
L 223.819485 185.336485 
L 224.266668 142.365065 
L 224.71385 184.265842 
L 225.161033 171.73201 
L 225.608216 174.920828 
L 226.055398 143.329033 
L 226.502581 164.993798 
L 226.949763 179.04642 
L 227.396946 173.270622 
L 227.844128 163.640933 
L 228.291311 138.279469 
L 228.738494 176.152131 
L 229.185676 163.699816 
L 229.632859 171.589713 
L 230.080041 155.556488 
L 230.527224 165.870689 
L 230.974406 151.347025 
L 231.421589 179.733828 
L 231.868772 160.740227 
L 232.315954 184.001707 
L 232.763137 153.186674 
L 233.210319 178.137477 
L 233.657502 165.054093 
L 234.104684 168.062696 
L 234.551867 168.57665 
L 234.99905 173.194722 
L 235.446232 164.178309 
L 235.893415 175.427266 
L 236.340597 166.960808 
L 236.78778 168.167758 
L 237.234962 169.772711 
L 237.682145 166.709939 
L 238.129328 171.952783 
L 238.57651 168.238409 
L 239.023693 165.729526 
L 239.470875 168.449589 
L 239.918058 178.177275 
L 240.36524 153.94895 
L 240.812423 171.904315 
L 241.259606 166.151186 
L 241.706788 165.870475 
L 242.153971 171.169639 
L 242.601153 171.498335 
L 243.048336 166.75534 
L 243.495518 172.006111 
L 243.942701 167.160608 
L 244.389884 167.522302 
L 245.284249 165.559997 
L 246.178614 168.133065 
L 246.625796 171.857947 
L 247.072979 166.9937 
L 247.520162 164.096051 
L 247.967344 182.159758 
L 248.414527 178.966577 
L 248.861709 177.747111 
L 249.308892 173.627314 
L 249.756074 162.295342 
L 250.203257 170.228312 
L 250.65044 164.317771 
L 251.097622 171.622926 
L 251.544805 167.021003 
L 251.991987 164.709416 
L 252.43917 178.718389 
L 252.886352 174.114586 
L 253.333535 128.526906 
L 253.780718 179.654204 
L 254.2279 146.785581 
L 254.675083 186.327239 
L 255.122265 167.834752 
L 255.569448 164.007899 
L 256.01663 182.65275 
L 256.463813 182.408254 
L 256.910995 156.750475 
L 257.358178 188.284908 
L 257.805361 142.436317 
L 258.252543 163.520672 
L 258.699726 167.195705 
L 259.146908 161.555105 
L 259.594091 162.076044 
L 260.041273 144.040836 
L 260.488456 130.856461 
L 260.935639 128.474019 
L 261.382821 159.455513 
L 261.830004 151.246784 
L 262.277186 193.698874 
L 262.724369 152.601675 
L 263.171551 141.692066 
L 263.618734 170.151987 
L 264.065917 167.828999 
L 264.513099 126.182425 
L 264.960282 185.25291 
L 265.407464 158.437287 
L 265.854647 170.140434 
L 266.301829 169.253023 
L 266.749012 171.192942 
L 267.196195 173.854439 
L 267.643377 170.320921 
L 268.09056 169.835298 
L 268.537742 172.017891 
L 268.984925 170.826113 
L 269.432107 172.901043 
L 269.87929 169.44243 
L 270.326473 171.615609 
L 270.773655 171.929075 
L 271.220838 159.282759 
L 271.66802 170.252278 
L 272.115203 191.178874 
L 272.562385 150.85543 
L 273.009568 168.901224 
L 273.456751 165.470595 
L 273.903933 170.720342 
L 274.798298 171.844114 
L 275.245481 168.059532 
L 275.692663 156.732819 
L 276.139846 171.276425 
L 276.587029 166.653004 
L 277.034211 164.795798 
L 277.481394 163.525898 
L 277.928576 171.656323 
L 278.375759 173.340802 
L 278.822941 176.79844 
L 279.270124 168.473327 
L 279.717307 173.929664 
L 280.611672 166.261184 
L 281.058854 171.261039 
L 281.506037 165.154265 
L 281.953219 184.811283 
L 282.400402 183.492429 
L 282.847585 177.962846 
L 283.294767 164.302184 
L 283.74195 184.026653 
L 284.189132 160.381034 
L 284.636315 190.630152 
L 285.083497 193.372399 
L 285.53068 163.456766 
L 285.977863 175.756348 
L 286.425045 174.956427 
L 286.872228 176.423491 
L 287.31941 117.966082 
L 287.766593 182.535189 
L 288.213775 160.651989 
L 288.660958 175.823635 
L 289.10814 157.588649 
L 289.555323 184.858538 
L 290.002506 152.2444 
L 290.449688 156.654463 
L 290.896871 152.165586 
L 291.344053 158.087619 
L 291.791236 199.886991 
L 292.238418 168.505965 
L 292.685601 183.688818 
L 293.132784 184.94954 
L 293.579966 184.458006 
L 294.027149 189.704574 
L 294.474331 160.975443 
L 294.921514 153.766898 
L 295.368696 178.287112 
L 296.263062 164.012928 
L 296.710244 185.532642 
L 297.157427 161.557785 
L 297.604609 185.969753 
L 298.051792 149.70602 
L 298.498974 166.451026 
L 298.946157 210.901425 
L 299.840522 173.964024 
L 300.287705 197.422139 
L 300.734887 195.546108 
L 301.18207 182.576958 
L 301.629252 123.572573 
L 302.076435 179.319811 
L 302.523618 193.000182 
L 302.9708 191.951862 
L 303.417983 167.63813 
L 303.865165 219.32919 
L 304.312348 132.703433 
L 304.75953 187.607777 
L 305.206713 193.817097 
L 305.653896 180.454461 
L 306.101078 194.257971 
L 306.548261 169.365802 
L 306.995443 181.985233 
L 307.442626 166.712501 
L 307.889808 135.557934 
L 308.336991 155.368575 
L 308.784174 192.621355 
L 309.231356 175.655022 
L 309.678539 192.322377 
L 310.572904 178.511682 
L 311.020086 114.419256 
L 311.467269 105.630067 
L 311.914452 148.89706 
L 312.361634 219.498533 
L 312.808817 138.042975 
L 313.255999 127.349596 
L 313.703182 209.667498 
L 314.150364 203.981137 
L 314.597547 209.144214 
L 315.04473 186.259419 
L 315.491912 210.318199 
L 315.939095 184.114983 
L 316.386277 215.593299 
L 316.83346 153.848554 
L 317.280642 133.287418 
L 317.727825 264.981466 
L 318.175008 135.131843 
L 318.62219 93.366058 
L 319.069373 162.383728 
L 319.516555 193.615457 
L 319.963738 201.276654 
L 320.41092 160.128838 
L 320.858103 197.259343 
L 321.305285 181.629767 
L 321.752468 203.07764 
L 322.199651 189.292937 
L 322.646833 196.753888 
L 323.094016 185.318922 
L 323.988381 198.040984 
L 324.435563 195.646155 
L 324.882746 62.950354 
L 325.329929 207.098678 
L 325.777111 158.986217 
L 326.224294 23.061466 
L 327.118659 144.731634 
L 327.565841 140.199904 
L 328.013024 168.510863 
L 328.460207 181.561934 
L 328.907389 162.612871 
L 329.354572 113.491476 
L 329.801754 170.004552 
L 330.248937 165.771929 
L 330.696119 163.89436 
L 331.143302 178.517005 
L 331.590485 165.318734 
L 332.037667 171.407739 
L 332.48485 143.811068 
L 333.379215 197.546227 
L 333.826397 164.061157 
L 334.27358 174.121391 
L 334.720763 161.529597 
L 335.167945 161.812373 
L 336.06231 182.717037 
L 336.509493 147.570708 
L 336.956675 175.068488 
L 337.403858 162.396968 
L 337.851041 168.435085 
L 338.298223 163.621916 
L 338.745406 164.803621 
L 339.192588 179.918502 
L 339.639771 176.818914 
L 340.086953 174.716781 
L 340.534136 159.429401 
L 340.981319 181.749144 
L 341.428501 177.76554 
L 341.875684 162.585293 
L 342.322866 157.918125 
L 342.770049 169.795261 
L 343.217231 170.368118 
L 343.664414 170.077165 
L 344.111597 172.556059 
L 344.558779 179.380651 
L 345.005962 166.095657 
L 345.900327 171.37782 
L 346.347509 185.313397 
L 346.794692 165.805597 
L 347.241875 159.359619 
L 347.689057 146.215645 
L 348.13624 168.020378 
L 348.583422 166.065336 
L 349.030605 173.71217 
L 349.477787 160.332452 
L 349.92497 177.49842 
L 350.372153 168.089343 
L 350.819335 169.768915 
L 351.266518 168.225101 
L 351.7137 181.49963 
L 352.160883 160.723798 
L 353.055248 170.731924 
L 353.502431 166.254152 
L 353.949613 151.307256 
L 354.396796 173.173806 
L 354.843978 189.050612 
L 355.291161 163.818293 
L 355.738343 157.849805 
L 356.185526 174.9324 
L 356.632708 152.975379 
L 357.079891 160.900676 
L 357.527074 178.422194 
L 357.974256 163.47989 
L 358.421439 174.538618 
L 358.868621 169.978499 
L 359.315804 158.115126 
L 359.762986 173.381269 
L 360.210169 183.904715 
L 360.657352 166.598681 
L 361.104534 167.552085 
L 361.551717 163.1636 
L 361.998899 160.391974 
L 362.446082 166.285529 
L 362.893264 156.758375 
L 363.340447 186.209461 
L 363.78763 161.114477 
L 364.234812 166.224683 
L 364.681995 178.004272 
L 365.129177 172.711636 
L 365.57636 183.679914 
L 366.023542 169.039807 
L 366.470725 161.907939 
L 366.917908 171.234029 
L 367.36509 163.830732 
L 367.812273 161.888485 
L 367.812273 161.888485 
" style="fill:none;stroke:#1f77b4;stroke-linecap:square;stroke-width:1.5;"/>
   </g>
   <g id="patch_3">
    <path d="M 26.925 277.077466 
L 26.925 10.965466 
" style="fill:none;stroke:#000000;stroke-linecap:square;stroke-linejoin:miter;stroke-width:0.8;"/>
   </g>
   <g id="patch_4">
    <path d="M 384.045 277.077466 
L 384.045 10.965466 
" style="fill:none;stroke:#000000;stroke-linecap:square;stroke-linejoin:miter;stroke-width:0.8;"/>
   </g>
   <g id="patch_5">
    <path d="M 26.925 277.077466 
L 384.045 277.077466 
" style="fill:none;stroke:#000000;stroke-linecap:square;stroke-linejoin:miter;stroke-width:0.8;"/>
   </g>
   <g id="patch_6">
    <path d="M 26.925 10.965466 
L 384.045 10.965466 
" style="fill:none;stroke:#000000;stroke-linecap:square;stroke-linejoin:miter;stroke-width:0.8;"/>
   </g>
  </g>
 </g>
 <defs>
  <clipPath id="pb7950c164e">
   <rect height="266.112" width="357.12" x="26.925" y="10.965466"/>
  </clipPath>
 </defs>
</svg>
