<?xml version="1.0" encoding="utf-8" standalone="no"?>
<!DOCTYPE svg PUBLIC "-//W3C//DTD SVG 1.1//EN"
  "http://www.w3.org/Graphics/SVG/1.1/DTD/svg11.dtd">
<!-- Created with matplotlib (http://matplotlib.org/) -->
<svg height="252.018125pt" version="1.1" viewBox="0 0 381.965625 252.018125" width="381.965625pt" xmlns="http://www.w3.org/2000/svg" xmlns:xlink="http://www.w3.org/1999/xlink">
 <defs>
  <style type="text/css">
*{stroke-linecap:butt;stroke-linejoin:round;}
  </style>
 </defs>
 <g id="figure_1">
  <g id="patch_1">
   <path d="M 0 252.018125 
L 381.965625 252.018125 
L 381.965625 0 
L 0 0 
z
" style="fill:#ffffff;"/>
  </g>
  <g id="axes_1">
   <g id="patch_2">
    <path d="M 36.465625 228.14 
L 371.265625 228.14 
L 371.265625 10.7 
L 36.465625 10.7 
z
" style="fill:#ffffff;"/>
   </g>
   <g id="matplotlib.axis_1">
    <g id="xtick_1">
     <g id="line2d_1">
      <defs>
       <path d="M 0 0 
L 0 3.5 
" id="m8924be8b6d" style="stroke:#000000;stroke-width:0.8;"/>
      </defs>
      <g>
       <use style="stroke:#000000;stroke-width:0.8;" x="51.683807" xlink:href="#m8924be8b6d" y="228.14"/>
      </g>
     </g>
     <g id="text_1">
      <!-- 0 -->
      <defs>
       <path d="M 31.78125 66.40625 
Q 24.171875 66.40625 20.328125 58.90625 
Q 16.5 51.421875 16.5 36.375 
Q 16.5 21.390625 20.328125 13.890625 
Q 24.171875 6.390625 31.78125 6.390625 
Q 39.453125 6.390625 43.28125 13.890625 
Q 47.125 21.390625 47.125 36.375 
Q 47.125 51.421875 43.28125 58.90625 
Q 39.453125 66.40625 31.78125 66.40625 
z
M 31.78125 74.21875 
Q 44.046875 74.21875 50.515625 64.515625 
Q 56.984375 54.828125 56.984375 36.375 
Q 56.984375 17.96875 50.515625 8.265625 
Q 44.046875 -1.421875 31.78125 -1.421875 
Q 19.53125 -1.421875 13.0625 8.265625 
Q 6.59375 17.96875 6.59375 36.375 
Q 6.59375 54.828125 13.0625 64.515625 
Q 19.53125 74.21875 31.78125 74.21875 
z
" id="DejaVuSans-30"/>
      </defs>
      <g transform="translate(48.502557 242.738437)scale(0.1 -0.1)">
       <use xlink:href="#DejaVuSans-30"/>
      </g>
     </g>
    </g>
    <g id="xtick_2">
     <g id="line2d_2">
      <g>
       <use style="stroke:#000000;stroke-width:0.8;" x="98.61729" xlink:href="#m8924be8b6d" y="228.14"/>
      </g>
     </g>
     <g id="text_2">
      <!-- 200 -->
      <defs>
       <path d="M 19.1875 8.296875 
L 53.609375 8.296875 
L 53.609375 0 
L 7.328125 0 
L 7.328125 8.296875 
Q 12.9375 14.109375 22.625 23.890625 
Q 32.328125 33.6875 34.8125 36.53125 
Q 39.546875 41.84375 41.421875 45.53125 
Q 43.3125 49.21875 43.3125 52.78125 
Q 43.3125 58.59375 39.234375 62.25 
Q 35.15625 65.921875 28.609375 65.921875 
Q 23.96875 65.921875 18.8125 64.3125 
Q 13.671875 62.703125 7.8125 59.421875 
L 7.8125 69.390625 
Q 13.765625 71.78125 18.9375 73 
Q 24.125 74.21875 28.421875 74.21875 
Q 39.75 74.21875 46.484375 68.546875 
Q 53.21875 62.890625 53.21875 53.421875 
Q 53.21875 48.921875 51.53125 44.890625 
Q 49.859375 40.875 45.40625 35.40625 
Q 44.1875 33.984375 37.640625 27.21875 
Q 31.109375 20.453125 19.1875 8.296875 
z
" id="DejaVuSans-32"/>
      </defs>
      <g transform="translate(89.07354 242.738437)scale(0.1 -0.1)">
       <use xlink:href="#DejaVuSans-32"/>
       <use x="63.623047" xlink:href="#DejaVuSans-30"/>
       <use x="127.246094" xlink:href="#DejaVuSans-30"/>
      </g>
     </g>
    </g>
    <g id="xtick_3">
     <g id="line2d_3">
      <g>
       <use style="stroke:#000000;stroke-width:0.8;" x="145.550773" xlink:href="#m8924be8b6d" y="228.14"/>
      </g>
     </g>
     <g id="text_3">
      <!-- 400 -->
      <defs>
       <path d="M 37.796875 64.3125 
L 12.890625 25.390625 
L 37.796875 25.390625 
z
M 35.203125 72.90625 
L 47.609375 72.90625 
L 47.609375 25.390625 
L 58.015625 25.390625 
L 58.015625 17.1875 
L 47.609375 17.1875 
L 47.609375 0 
L 37.796875 0 
L 37.796875 17.1875 
L 4.890625 17.1875 
L 4.890625 26.703125 
z
" id="DejaVuSans-34"/>
      </defs>
      <g transform="translate(136.007023 242.738437)scale(0.1 -0.1)">
       <use xlink:href="#DejaVuSans-34"/>
       <use x="63.623047" xlink:href="#DejaVuSans-30"/>
       <use x="127.246094" xlink:href="#DejaVuSans-30"/>
      </g>
     </g>
    </g>
    <g id="xtick_4">
     <g id="line2d_4">
      <g>
       <use style="stroke:#000000;stroke-width:0.8;" x="192.484255" xlink:href="#m8924be8b6d" y="228.14"/>
      </g>
     </g>
     <g id="text_4">
      <!-- 600 -->
      <defs>
       <path d="M 33.015625 40.375 
Q 26.375 40.375 22.484375 35.828125 
Q 18.609375 31.296875 18.609375 23.390625 
Q 18.609375 15.53125 22.484375 10.953125 
Q 26.375 6.390625 33.015625 6.390625 
Q 39.65625 6.390625 43.53125 10.953125 
Q 47.40625 15.53125 47.40625 23.390625 
Q 47.40625 31.296875 43.53125 35.828125 
Q 39.65625 40.375 33.015625 40.375 
z
M 52.59375 71.296875 
L 52.59375 62.3125 
Q 48.875 64.0625 45.09375 64.984375 
Q 41.3125 65.921875 37.59375 65.921875 
Q 27.828125 65.921875 22.671875 59.328125 
Q 17.53125 52.734375 16.796875 39.40625 
Q 19.671875 43.65625 24.015625 45.921875 
Q 28.375 48.1875 33.59375 48.1875 
Q 44.578125 48.1875 50.953125 41.515625 
Q 57.328125 34.859375 57.328125 23.390625 
Q 57.328125 12.15625 50.6875 5.359375 
Q 44.046875 -1.421875 33.015625 -1.421875 
Q 20.359375 -1.421875 13.671875 8.265625 
Q 6.984375 17.96875 6.984375 36.375 
Q 6.984375 53.65625 15.1875 63.9375 
Q 23.390625 74.21875 37.203125 74.21875 
Q 40.921875 74.21875 44.703125 73.484375 
Q 48.484375 72.75 52.59375 71.296875 
z
" id="DejaVuSans-36"/>
      </defs>
      <g transform="translate(182.940505 242.738437)scale(0.1 -0.1)">
       <use xlink:href="#DejaVuSans-36"/>
       <use x="63.623047" xlink:href="#DejaVuSans-30"/>
       <use x="127.246094" xlink:href="#DejaVuSans-30"/>
      </g>
     </g>
    </g>
    <g id="xtick_5">
     <g id="line2d_5">
      <g>
       <use style="stroke:#000000;stroke-width:0.8;" x="239.417738" xlink:href="#m8924be8b6d" y="228.14"/>
      </g>
     </g>
     <g id="text_5">
      <!-- 800 -->
      <defs>
       <path d="M 31.78125 34.625 
Q 24.75 34.625 20.71875 30.859375 
Q 16.703125 27.09375 16.703125 20.515625 
Q 16.703125 13.921875 20.71875 10.15625 
Q 24.75 6.390625 31.78125 6.390625 
Q 38.8125 6.390625 42.859375 10.171875 
Q 46.921875 13.96875 46.921875 20.515625 
Q 46.921875 27.09375 42.890625 30.859375 
Q 38.875 34.625 31.78125 34.625 
z
M 21.921875 38.8125 
Q 15.578125 40.375 12.03125 44.71875 
Q 8.5 49.078125 8.5 55.328125 
Q 8.5 64.0625 14.71875 69.140625 
Q 20.953125 74.21875 31.78125 74.21875 
Q 42.671875 74.21875 48.875 69.140625 
Q 55.078125 64.0625 55.078125 55.328125 
Q 55.078125 49.078125 51.53125 44.71875 
Q 48 40.375 41.703125 38.8125 
Q 48.828125 37.15625 52.796875 32.3125 
Q 56.78125 27.484375 56.78125 20.515625 
Q 56.78125 9.90625 50.3125 4.234375 
Q 43.84375 -1.421875 31.78125 -1.421875 
Q 19.734375 -1.421875 13.25 4.234375 
Q 6.78125 9.90625 6.78125 20.515625 
Q 6.78125 27.484375 10.78125 32.3125 
Q 14.796875 37.15625 21.921875 38.8125 
z
M 18.3125 54.390625 
Q 18.3125 48.734375 21.84375 45.5625 
Q 25.390625 42.390625 31.78125 42.390625 
Q 38.140625 42.390625 41.71875 45.5625 
Q 45.3125 48.734375 45.3125 54.390625 
Q 45.3125 60.0625 41.71875 63.234375 
Q 38.140625 66.40625 31.78125 66.40625 
Q 25.390625 66.40625 21.84375 63.234375 
Q 18.3125 60.0625 18.3125 54.390625 
z
" id="DejaVuSans-38"/>
      </defs>
      <g transform="translate(229.873988 242.738437)scale(0.1 -0.1)">
       <use xlink:href="#DejaVuSans-38"/>
       <use x="63.623047" xlink:href="#DejaVuSans-30"/>
       <use x="127.246094" xlink:href="#DejaVuSans-30"/>
      </g>
     </g>
    </g>
    <g id="xtick_6">
     <g id="line2d_6">
      <g>
       <use style="stroke:#000000;stroke-width:0.8;" x="286.351221" xlink:href="#m8924be8b6d" y="228.14"/>
      </g>
     </g>
     <g id="text_6">
      <!-- 1000 -->
      <defs>
       <path d="M 12.40625 8.296875 
L 28.515625 8.296875 
L 28.515625 63.921875 
L 10.984375 60.40625 
L 10.984375 69.390625 
L 28.421875 72.90625 
L 38.28125 72.90625 
L 38.28125 8.296875 
L 54.390625 8.296875 
L 54.390625 0 
L 12.40625 0 
z
" id="DejaVuSans-31"/>
      </defs>
      <g transform="translate(273.626221 242.738437)scale(0.1 -0.1)">
       <use xlink:href="#DejaVuSans-31"/>
       <use x="63.623047" xlink:href="#DejaVuSans-30"/>
       <use x="127.246094" xlink:href="#DejaVuSans-30"/>
       <use x="190.869141" xlink:href="#DejaVuSans-30"/>
      </g>
     </g>
    </g>
    <g id="xtick_7">
     <g id="line2d_7">
      <g>
       <use style="stroke:#000000;stroke-width:0.8;" x="333.284704" xlink:href="#m8924be8b6d" y="228.14"/>
      </g>
     </g>
     <g id="text_7">
      <!-- 1200 -->
      <g transform="translate(320.559704 242.738437)scale(0.1 -0.1)">
       <use xlink:href="#DejaVuSans-31"/>
       <use x="63.623047" xlink:href="#DejaVuSans-32"/>
       <use x="127.246094" xlink:href="#DejaVuSans-30"/>
       <use x="190.869141" xlink:href="#DejaVuSans-30"/>
      </g>
     </g>
    </g>
   </g>
   <g id="matplotlib.axis_2">
    <g id="ytick_1">
     <g id="line2d_8">
      <defs>
       <path d="M 0 0 
L -3.5 0 
" id="me23d5258c8" style="stroke:#000000;stroke-width:0.8;"/>
      </defs>
      <g>
       <use style="stroke:#000000;stroke-width:0.8;" x="36.465625" xlink:href="#me23d5258c8" y="219.405"/>
      </g>
     </g>
     <g id="text_8">
      <!-- 5.0 -->
      <defs>
       <path d="M 10.796875 72.90625 
L 49.515625 72.90625 
L 49.515625 64.59375 
L 19.828125 64.59375 
L 19.828125 46.734375 
Q 21.96875 47.46875 24.109375 47.828125 
Q 26.265625 48.1875 28.421875 48.1875 
Q 40.625 48.1875 47.75 41.5 
Q 54.890625 34.8125 54.890625 23.390625 
Q 54.890625 11.625 47.5625 5.09375 
Q 40.234375 -1.421875 26.90625 -1.421875 
Q 22.3125 -1.421875 17.546875 -0.640625 
Q 12.796875 0.140625 7.71875 1.703125 
L 7.71875 11.625 
Q 12.109375 9.234375 16.796875 8.0625 
Q 21.484375 6.890625 26.703125 6.890625 
Q 35.15625 6.890625 40.078125 11.328125 
Q 45.015625 15.765625 45.015625 23.390625 
Q 45.015625 31 40.078125 35.4375 
Q 35.15625 39.890625 26.703125 39.890625 
Q 22.75 39.890625 18.8125 39.015625 
Q 14.890625 38.140625 10.796875 36.28125 
z
" id="DejaVuSans-35"/>
       <path d="M 10.6875 12.40625 
L 21 12.40625 
L 21 0 
L 10.6875 0 
z
" id="DejaVuSans-2e"/>
      </defs>
      <g transform="translate(13.5625 223.204219)scale(0.1 -0.1)">
       <use xlink:href="#DejaVuSans-35"/>
       <use x="63.623047" xlink:href="#DejaVuSans-2e"/>
       <use x="95.410156" xlink:href="#DejaVuSans-30"/>
      </g>
     </g>
    </g>
    <g id="ytick_2">
     <g id="line2d_9">
      <g>
       <use style="stroke:#000000;stroke-width:0.8;" x="36.465625" xlink:href="#me23d5258c8" y="190.017203"/>
      </g>
     </g>
     <g id="text_9">
      <!-- 7.5 -->
      <defs>
       <path d="M 8.203125 72.90625 
L 55.078125 72.90625 
L 55.078125 68.703125 
L 28.609375 0 
L 18.3125 0 
L 43.21875 64.59375 
L 8.203125 64.59375 
z
" id="DejaVuSans-37"/>
      </defs>
      <g transform="translate(13.5625 193.816422)scale(0.1 -0.1)">
       <use xlink:href="#DejaVuSans-37"/>
       <use x="63.623047" xlink:href="#DejaVuSans-2e"/>
       <use x="95.410156" xlink:href="#DejaVuSans-35"/>
      </g>
     </g>
    </g>
    <g id="ytick_3">
     <g id="line2d_10">
      <g>
       <use style="stroke:#000000;stroke-width:0.8;" x="36.465625" xlink:href="#me23d5258c8" y="160.629406"/>
      </g>
     </g>
     <g id="text_10">
      <!-- 10.0 -->
      <g transform="translate(7.2 164.428624)scale(0.1 -0.1)">
       <use xlink:href="#DejaVuSans-31"/>
       <use x="63.623047" xlink:href="#DejaVuSans-30"/>
       <use x="127.246094" xlink:href="#DejaVuSans-2e"/>
       <use x="159.033203" xlink:href="#DejaVuSans-30"/>
      </g>
     </g>
    </g>
    <g id="ytick_4">
     <g id="line2d_11">
      <g>
       <use style="stroke:#000000;stroke-width:0.8;" x="36.465625" xlink:href="#me23d5258c8" y="131.241608"/>
      </g>
     </g>
     <g id="text_11">
      <!-- 12.5 -->
      <g transform="translate(7.2 135.040827)scale(0.1 -0.1)">
       <use xlink:href="#DejaVuSans-31"/>
       <use x="63.623047" xlink:href="#DejaVuSans-32"/>
       <use x="127.246094" xlink:href="#DejaVuSans-2e"/>
       <use x="159.033203" xlink:href="#DejaVuSans-35"/>
      </g>
     </g>
    </g>
    <g id="ytick_5">
     <g id="line2d_12">
      <g>
       <use style="stroke:#000000;stroke-width:0.8;" x="36.465625" xlink:href="#me23d5258c8" y="101.853811"/>
      </g>
     </g>
     <g id="text_12">
      <!-- 15.0 -->
      <g transform="translate(7.2 105.65303)scale(0.1 -0.1)">
       <use xlink:href="#DejaVuSans-31"/>
       <use x="63.623047" xlink:href="#DejaVuSans-35"/>
       <use x="127.246094" xlink:href="#DejaVuSans-2e"/>
       <use x="159.033203" xlink:href="#DejaVuSans-30"/>
      </g>
     </g>
    </g>
    <g id="ytick_6">
     <g id="line2d_13">
      <g>
       <use style="stroke:#000000;stroke-width:0.8;" x="36.465625" xlink:href="#me23d5258c8" y="72.466014"/>
      </g>
     </g>
     <g id="text_13">
      <!-- 17.5 -->
      <g transform="translate(7.2 76.265232)scale(0.1 -0.1)">
       <use xlink:href="#DejaVuSans-31"/>
       <use x="63.623047" xlink:href="#DejaVuSans-37"/>
       <use x="127.246094" xlink:href="#DejaVuSans-2e"/>
       <use x="159.033203" xlink:href="#DejaVuSans-35"/>
      </g>
     </g>
    </g>
    <g id="ytick_7">
     <g id="line2d_14">
      <g>
       <use style="stroke:#000000;stroke-width:0.8;" x="36.465625" xlink:href="#me23d5258c8" y="43.078216"/>
      </g>
     </g>
     <g id="text_14">
      <!-- 20.0 -->
      <g transform="translate(7.2 46.877435)scale(0.1 -0.1)">
       <use xlink:href="#DejaVuSans-32"/>
       <use x="63.623047" xlink:href="#DejaVuSans-30"/>
       <use x="127.246094" xlink:href="#DejaVuSans-2e"/>
       <use x="159.033203" xlink:href="#DejaVuSans-30"/>
      </g>
     </g>
    </g>
    <g id="ytick_8">
     <g id="line2d_15">
      <g>
       <use style="stroke:#000000;stroke-width:0.8;" x="36.465625" xlink:href="#me23d5258c8" y="13.690419"/>
      </g>
     </g>
     <g id="text_15">
      <!-- 22.5 -->
      <g transform="translate(7.2 17.489638)scale(0.1 -0.1)">
       <use xlink:href="#DejaVuSans-32"/>
       <use x="63.623047" xlink:href="#DejaVuSans-32"/>
       <use x="127.246094" xlink:href="#DejaVuSans-2e"/>
       <use x="159.033203" xlink:href="#DejaVuSans-35"/>
      </g>
     </g>
    </g>
   </g>
   <g id="line2d_16">
    <path clip-path="url(#pb26b4b2cb3)" d="M 51.683807 188.857754 
L 51.918474 143.743418 
L 52.153142 132.067093 
L 52.387809 183.217062 
L 52.622476 181.187659 
L 52.857144 170.961127 
L 53.091811 187.356119 
L 53.561146 134.922896 
L 53.795814 201.899815 
L 54.265148 104.077005 
L 54.499816 152.993244 
L 54.734483 175.164295 
L 54.969151 20.583636 
L 55.203818 165.358154 
L 55.438485 150.755085 
L 55.673153 162.390362 
L 55.90782 156.373334 
L 56.142488 160.514827 
L 56.377155 160.171899 
L 56.611823 157.536549 
L 56.84649 161.659295 
L 57.081157 158.20494 
L 57.315825 161.541666 
L 57.550492 168.287197 
L 57.78516 158.385978 
L 58.019827 157.455743 
L 58.489162 162.002959 
L 58.723829 163.602161 
L 58.958497 162.094294 
L 59.193164 154.032707 
L 59.427831 162.538489 
L 59.662499 166.834119 
L 59.897166 159.043275 
L 60.131834 161.051949 
L 60.366501 160.817711 
L 60.601169 163.088589 
L 60.835836 161.032582 
L 61.070503 162.376137 
L 61.305171 162.398852 
L 61.539838 155.132003 
L 61.774506 161.456458 
L 62.009173 158.255972 
L 62.24384 160.661881 
L 62.478508 160.579953 
L 62.713175 163.090125 
L 62.947843 161.926726 
L 63.18251 171.662405 
L 63.417178 163.444974 
L 63.651845 161.503422 
L 63.886512 156.621227 
L 64.355847 160.475578 
L 64.590515 159.532333 
L 64.825182 160.371235 
L 65.059849 164.146536 
L 65.294517 175.648487 
L 65.529184 149.517078 
L 65.763852 165.519581 
L 65.998519 165.368769 
L 66.467854 130.251642 
L 66.702521 164.884055 
L 66.937189 159.789066 
L 67.171856 161.985222 
L 67.406524 160.780088 
L 67.641191 158.782286 
L 67.875858 161.608121 
L 68.110526 161.633618 
L 68.579861 160.471371 
L 68.814528 160.910077 
L 69.049195 160.691922 
L 69.283863 160.664852 
L 69.753198 160.161 
L 69.987865 161.041186 
L 70.222533 159.783875 
L 70.4572 159.957144 
L 70.691867 159.503705 
L 70.926535 160.523329 
L 71.39587 169.80187 
L 71.865204 160.069226 
L 72.099872 158.303261 
L 72.569207 153.286413 
L 72.803874 162.63909 
L 73.038542 159.165293 
L 73.273209 160.958124 
L 73.507876 160.446342 
L 73.742544 160.361768 
L 73.977211 159.90056 
L 74.211879 160.121062 
L 74.446546 160.566641 
L 74.681213 160.427402 
L 74.915881 160.640694 
L 75.150548 161.633023 
L 75.385216 160.406199 
L 75.85455 161.580299 
L 76.323885 160.551934 
L 76.79322 160.697911 
L 77.027888 160.529048 
L 77.262555 161.176284 
L 77.497222 159.784088 
L 77.73189 160.771676 
L 77.966557 160.403073 
L 78.201225 159.490945 
L 78.670559 161.590791 
L 78.905227 159.545632 
L 79.374562 161.294571 
L 79.843897 158.041469 
L 80.078564 158.245606 
L 80.313231 161.223953 
L 80.547899 160.621769 
L 80.782566 161.163128 
L 81.017234 160.258384 
L 81.251901 160.216321 
L 81.486568 160.409529 
L 81.721236 160.070668 
L 82.190571 160.601726 
L 82.659906 160.068582 
L 83.12924 160.44973 
L 83.363908 160.090578 
L 83.598575 160.569765 
L 83.833243 160.465938 
L 84.06791 160.787854 
L 84.302577 160.815979 
L 84.537245 160.617679 
L 84.771912 160.240917 
L 85.00658 160.782459 
L 85.475914 160.404852 
L 85.710582 160.371392 
L 85.945249 160.452637 
L 86.179917 160.255756 
L 86.414584 160.900621 
L 86.649252 160.231299 
L 86.883919 160.456515 
L 88.057256 160.487202 
L 88.291923 160.293369 
L 88.995926 160.604742 
L 89.230593 160.448548 
L 89.465261 160.655417 
L 89.934595 159.677905 
L 90.169263 160.072766 
L 90.40393 160.776149 
L 90.638598 159.760977 
L 90.873265 160.500018 
L 91.107932 160.574939 
L 91.3426 160.445536 
L 91.577267 159.949212 
L 91.811935 160.303053 
L 92.046602 160.454467 
L 92.281269 160.233772 
L 92.750604 160.640746 
L 92.985272 160.710639 
L 93.689274 160.346974 
L 93.923941 160.574939 
L 94.158609 160.555272 
L 94.393276 160.359179 
L 94.627944 160.314608 
L 94.862611 161.801041 
L 95.097278 159.406838 
L 95.331946 160.919041 
L 95.566613 160.563515 
L 95.801281 160.518705 
L 96.035948 159.722291 
L 96.270616 160.470083 
L 96.505283 160.602099 
L 96.73995 160.385593 
L 96.974618 160.521828 
L 97.209285 160.47385 
L 97.443953 160.013389 
L 97.67862 160.556032 
L 97.913287 160.254887 
L 98.147955 160.242261 
L 98.382622 160.392368 
L 99.321292 160.436655 
L 99.555959 160.111725 
L 99.790627 160.487202 
L 100.025294 160.255756 
L 100.494629 160.349015 
L 100.963964 160.598221 
L 101.198631 160.160144 
L 101.433299 160.964019 
L 101.902633 160.404852 
L 102.137301 160.63859 
L 102.606636 160.398019 
L 103.075971 160.168952 
L 103.310638 160.459257 
L 103.545305 160.205954 
L 103.779973 160.500124 
L 104.01464 160.355522 
L 104.249308 160.498561 
L 105.422645 160.424707 
L 105.657312 160.469219 
L 105.89198 160.343961 
L 106.126647 160.381395 
L 106.361314 160.244408 
L 106.595982 160.468088 
L 106.830649 160.318581 
L 107.065317 160.680383 
L 107.299984 160.129972 
L 107.534651 160.61482 
L 107.769319 160.500502 
L 108.003986 160.549728 
L 108.238654 160.20718 
L 108.473321 160.643339 
L 108.707988 160.125939 
L 108.942656 160.399365 
L 109.411991 160.211747 
L 109.646658 160.406091 
L 109.881326 160.282243 
L 110.35066 160.437141 
L 110.585328 160.194345 
L 110.819995 159.559725 
L 111.054663 156.468115 
L 111.28933 155.62076 
L 111.523997 161.493216 
L 111.758665 164.334351 
L 111.993332 161.502397 
L 112.228 162.936344 
L 112.462667 162.193746 
L 112.697335 160.315156 
L 112.932002 161.312953 
L 113.166669 161.010252 
L 113.401337 161.390136 
L 113.636004 160.673107 
L 113.870672 160.391523 
L 114.105339 160.788941 
L 114.340006 160.956827 
L 114.574674 160.703635 
L 114.809341 158.823972 
L 115.044009 164.871682 
L 115.513344 162.239863 
L 115.748011 162.306397 
L 115.982678 179.152106 
L 116.217346 142.060985 
L 116.452013 137.817154 
L 116.686681 161.958397 
L 116.921348 162.052814 
L 117.156015 158.823908 
L 117.390683 169.585292 
L 117.62535 170.505488 
L 117.860018 162.129839 
L 118.094685 160.036289 
L 118.329352 165.29077 
L 118.56402 164.49783 
L 118.798687 173.332577 
L 119.033355 166.893377 
L 119.268022 168.667214 
L 119.50269 167.746727 
L 119.737357 124.861115 
L 119.972024 109.050972 
L 120.206692 157.940404 
L 120.441359 161.03188 
L 120.676027 162.370828 
L 120.910694 161.104823 
L 121.145361 161.368214 
L 121.380029 161.032591 
L 121.614696 162.096971 
L 121.849364 161.149532 
L 122.084031 161.573347 
L 122.318699 161.621062 
L 122.553366 162.333415 
L 122.788033 161.625638 
L 123.022701 161.818852 
L 123.257368 161.459824 
L 123.726703 162.095657 
L 124.196038 161.449563 
L 124.430705 161.22141 
L 124.665373 161.689419 
L 124.90004 161.634827 
L 125.134707 161.842433 
L 125.369375 161.744429 
L 125.604042 161.858289 
L 125.83871 161.456347 
L 126.073377 162.331715 
L 126.308045 161.652544 
L 126.542712 161.452662 
L 126.777379 162.126609 
L 127.012047 162.0478 
L 127.246714 161.683707 
L 127.716049 161.640479 
L 128.185384 161.976009 
L 128.420051 161.81586 
L 128.654719 161.926285 
L 128.889386 161.717926 
L 129.124054 161.33003 
L 129.358721 161.784328 
L 129.593388 161.857244 
L 130.062723 161.560905 
L 130.532058 162.331546 
L 130.766725 163.008946 
L 131.470728 158.150341 
L 131.705395 157.555835 
L 131.940063 161.942645 
L 132.17473 161.499788 
L 132.409397 161.310187 
L 132.644065 161.848974 
L 132.878732 161.059362 
L 133.1134 162.501134 
L 133.582734 161.524501 
L 133.817402 162.868509 
L 134.052069 160.998189 
L 134.286737 162.052656 
L 134.521404 161.387152 
L 134.756071 162.151951 
L 134.990739 161.126524 
L 135.225406 161.246337 
L 135.694741 161.690615 
L 135.929409 161.620582 
L 136.164076 162.152438 
L 136.633411 160.952614 
L 136.868078 161.306398 
L 137.102746 160.554315 
L 137.337413 160.571923 
L 137.57208 160.778145 
L 137.806748 167.2564 
L 138.041415 159.612738 
L 138.276083 159.040664 
L 138.51075 160.541601 
L 138.745418 160.941692 
L 139.214752 162.982697 
L 139.44942 160.25065 
L 139.684087 160.753966 
L 139.918755 160.338155 
L 140.153422 161.489469 
L 140.388089 161.320549 
L 140.622757 161.684198 
L 140.857424 161.104605 
L 141.326759 163.421838 
L 141.796094 153.442823 
L 142.030761 162.62582 
L 142.265429 162.932545 
L 142.500096 164.215907 
L 142.734764 163.193128 
L 142.969431 161.621171 
L 143.204098 161.807579 
L 143.438766 161.744923 
L 143.673433 161.887491 
L 143.908101 161.580194 
L 144.142768 160.769936 
L 144.377435 161.584698 
L 144.612103 162.835876 
L 144.84677 162.529073 
L 145.081438 161.809376 
L 145.316105 161.80426 
L 145.550773 161.531017 
L 146.020107 162.398197 
L 146.254775 161.759401 
L 146.489442 162.039116 
L 146.72411 161.426764 
L 146.958777 161.147912 
L 147.193444 161.274035 
L 147.428112 161.959158 
L 147.897447 162.000441 
L 148.132114 161.311332 
L 148.366782 161.704604 
L 148.601449 161.484144 
L 148.836116 161.69084 
L 149.070784 161.24932 
L 149.305451 161.63455 
L 149.540119 161.577146 
L 149.774786 161.87071 
L 150.244121 161.800938 
L 150.478788 161.543621 
L 150.713456 161.518849 
L 150.948123 161.368387 
L 151.18279 162.921775 
L 151.417458 161.47611 
L 151.652125 162.831801 
L 151.886793 160.827537 
L 152.12146 162.05865 
L 152.356128 161.923948 
L 152.590795 160.940185 
L 152.825462 163.71703 
L 153.06013 155.189906 
L 153.294797 159.71924 
L 153.529465 158.073444 
L 153.764132 162.308533 
L 154.233467 163.30346 
L 154.468134 167.103015 
L 154.702802 135.288193 
L 154.937469 168.985451 
L 155.172137 172.563792 
L 155.406804 164.129871 
L 155.641471 162.29053 
L 155.876139 162.350528 
L 156.110806 163.468006 
L 156.345474 161.714827 
L 156.814808 165.70512 
L 157.049476 168.806054 
L 157.284143 153.286861 
L 157.518811 154.027233 
L 157.988146 165.95938 
L 158.222813 165.793548 
L 158.45748 178.461249 
L 158.692148 159.405768 
L 158.926815 72.833627 
L 159.161483 182.609183 
L 159.39615 164.474922 
L 159.865485 155.655417 
L 160.100152 160.688154 
L 160.33482 160.309986 
L 160.804154 165.005195 
L 161.038822 160.815335 
L 161.273489 168.986671 
L 161.508157 147.079226 
L 161.977492 160.656715 
L 162.212159 155.633844 
L 162.446826 160.27306 
L 162.916161 161.54933 
L 163.150829 157.256134 
L 163.620163 163.10241 
L 163.854831 159.5896 
L 164.089498 164.400054 
L 164.558833 162.767496 
L 165.028168 159.057578 
L 165.262835 160.268915 
L 165.497503 162.596546 
L 165.73217 157.303987 
L 165.966838 160.510088 
L 166.201505 157.902779 
L 166.436172 156.889456 
L 166.67084 160.346443 
L 166.905507 158.889281 
L 167.374842 160.257521 
L 167.609509 160.061012 
L 167.844177 159.394347 
L 168.078844 161.138647 
L 168.313512 160.807937 
L 168.548179 160.920722 
L 168.782847 160.448279 
L 169.017514 160.342842 
L 169.486849 160.556848 
L 170.425518 160.49916 
L 170.660186 160.838888 
L 170.894853 159.701425 
L 171.598856 160.82242 
L 171.833523 160.303475 
L 172.06819 160.398241 
L 172.302858 160.171952 
L 172.537525 160.698134 
L 172.772193 160.405881 
L 173.241527 160.553129 
L 173.476195 160.583624 
L 173.710862 160.327569 
L 173.94553 160.441238 
L 174.180197 160.368063 
L 174.414865 160.482794 
L 174.649532 160.233182 
L 175.353534 160.502824 
L 175.588202 160.37097 
L 175.822869 160.57716 
L 176.292204 160.25317 
L 176.526871 160.33671 
L 176.761539 160.566869 
L 177.230873 160.532067 
L 177.465541 160.20267 
L 177.700208 160.141026 
L 177.934876 160.317138 
L 178.404211 160.243229 
L 178.638878 160.355854 
L 178.873545 160.171952 
L 179.108213 160.448501 
L 179.34288 160.177754 
L 179.577548 160.481879 
L 179.812215 160.365266 
L 180.046882 160.750791 
L 180.28155 160.034085 
L 180.516217 160.932401 
L 180.750885 159.526557 
L 180.985552 160.427397 
L 181.22022 159.935542 
L 181.689554 160.813133 
L 182.628224 160.170663 
L 182.862891 160.347411 
L 183.332226 160.191929 
L 183.566894 160.587344 
L 183.801561 160.647875 
L 184.036228 160.515912 
L 184.270896 160.543271 
L 184.505563 160.332347 
L 184.740231 160.467879 
L 185.444233 160.560348 
L 185.6789 160.596074 
L 185.913568 158.500703 
L 186.148235 160.973488 
L 186.382903 161.051366 
L 186.61757 159.811874 
L 186.852237 160.225669 
L 187.086905 160.327399 
L 187.321572 160.306324 
L 187.55624 160.549079 
L 187.790907 160.970182 
L 188.025575 159.839178 
L 188.260242 159.812303 
L 188.494909 160.850008 
L 189.198912 159.927401 
L 189.668246 160.398241 
L 189.902914 160.449303 
L 190.137581 160.835648 
L 190.372249 160.529049 
L 190.606916 160.569181 
L 191.076251 160.269617 
L 191.310918 160.283211 
L 191.545586 160.492862 
L 191.780253 160.293638 
L 192.249588 160.42433 
L 192.718923 159.517586 
L 192.95359 161.581938 
L 193.188258 160.955754 
L 193.422925 159.595527 
L 193.657592 160.489839 
L 193.89226 162.933872 
L 194.126927 160.118911 
L 194.361595 159.662709 
L 194.596262 160.048781 
L 194.83093 160.170663 
L 195.065597 160.009521 
L 195.534932 160.0003 
L 196.004267 161.183282 
L 196.238934 159.516571 
L 196.473601 159.281793 
L 196.708269 161.301683 
L 196.942936 159.142023 
L 197.177604 159.365756 
L 197.412271 159.750808 
L 197.646939 160.429075 
L 198.350941 160.468577 
L 198.585608 160.434513 
L 198.820276 160.600388 
L 199.054943 160.293638 
L 199.28961 160.477738 
L 199.524278 160.466959 
L 199.758945 159.579705 
L 200.22828 161.45825 
L 200.462947 160.945158 
L 200.697615 159.802722 
L 200.932282 160.575813 
L 201.16695 159.832433 
L 201.401617 160.765461 
L 201.636285 160.424019 
L 201.870952 159.749093 
L 202.105619 159.988893 
L 202.340287 161.946358 
L 202.809622 160.201383 
L 203.044289 160.11725 
L 203.278956 158.86092 
L 203.513624 159.690371 
L 203.748291 158.870165 
L 203.982959 160.645921 
L 204.217626 160.070025 
L 204.452294 160.059456 
L 204.686961 160.776633 
L 204.921628 160.27273 
L 205.390963 160.235824 
L 205.625631 160.327569 
L 205.860298 159.888769 
L 206.094965 160.650465 
L 206.329633 160.515052 
L 206.5643 160.246299 
L 206.798968 160.452325 
L 207.268303 159.979764 
L 207.50297 159.965616 
L 207.737637 160.4787 
L 207.972305 160.360912 
L 208.44164 160.382148 
L 208.676307 160.251289 
L 208.910974 160.37097 
L 209.145642 160.707897 
L 209.380309 160.508145 
L 209.614977 160.81011 
L 209.849644 160.141026 
L 210.084311 159.941763 
L 210.318979 160.787046 
L 210.788314 160.385229 
L 211.022981 160.826353 
L 211.492316 160.619246 
L 211.726983 159.80175 
L 211.961651 160.324558 
L 212.196318 160.317138 
L 212.430986 160.593485 
L 212.665653 160.301271 
L 212.90032 160.400655 
L 213.134988 160.165404 
L 213.604323 160.510471 
L 213.83899 160.478969 
L 214.073658 160.591491 
L 214.308325 160.156115 
L 214.542992 160.914725 
L 214.77766 160.421649 
L 215.246995 160.58368 
L 215.481662 160.238501 
L 215.950997 160.492703 
L 216.185664 160.355854 
L 216.420332 160.479133 
L 216.654999 160.096588 
L 217.124334 160.514619 
L 217.359001 160.541601 
L 217.828336 160.378823 
L 218.063004 160.700617 
L 218.297671 160.315149 
L 218.532338 160.596074 
L 219.001673 160.232161 
L 219.236341 160.343055 
L 219.705675 160.33671 
L 219.940343 160.421649 
L 220.17501 160.181779 
L 220.409678 160.481879 
L 220.644345 160.169857 
L 220.879013 160.138396 
L 221.11368 160.355854 
L 221.348347 160.22002 
L 221.817682 160.536001 
L 222.287017 160.56288 
L 223.460354 160.264838 
L 223.695022 159.830878 
L 223.929689 159.666572 
L 224.164356 156.940035 
L 224.399024 162.038144 
L 224.868359 165.121045 
L 225.103026 165.32626 
L 225.807028 159.005675 
L 226.041696 158.869317 
L 226.276363 161.060015 
L 226.51103 160.434132 
L 226.745698 160.358488 
L 227.215033 160.707514 
L 227.4497 160.593588 
L 227.684368 160.843094 
L 228.153702 159.771955 
L 228.623037 161.312247 
L 229.092372 160.703958 
L 229.327039 159.808078 
L 229.561707 161.964727 
L 229.796374 161.62042 
L 230.031042 164.043904 
L 230.265709 160.000086 
L 230.500377 161.745521 
L 230.735044 162.514335 
L 231.204379 158.995202 
L 231.439046 163.854681 
L 231.673714 164.49249 
L 231.908381 161.324829 
L 232.143048 161.73741 
L 232.377716 159.27055 
L 232.612383 160.029854 
L 232.847051 161.961234 
L 233.081718 162.518935 
L 233.316385 162.626586 
L 234.020388 161.31957 
L 234.255055 160.956023 
L 234.489723 161.015229 
L 234.72439 161.382541 
L 234.959057 161.209009 
L 235.193725 161.341529 
L 235.428392 160.605446 
L 235.66306 160.936075 
L 235.897727 160.64771 
L 236.132394 161.331069 
L 236.367062 161.279666 
L 237.071064 162.032139 
L 237.305732 160.725261 
L 237.540399 161.087074 
L 237.775066 161.195354 
L 238.009734 160.178669 
L 238.244401 161.128853 
L 238.713736 160.902896 
L 238.948403 161.12729 
L 239.183071 160.979751 
L 239.417738 161.235065 
L 239.887073 160.830454 
L 240.121741 161.000784 
L 240.356408 161.675172 
L 240.591075 161.276899 
L 240.825743 162.380464 
L 241.06041 160.796124 
L 241.295078 160.827486 
L 241.529745 160.570907 
L 241.764412 160.947102 
L 241.99908 162.331554 
L 242.468415 160.126483 
L 242.703082 159.962082 
L 242.937749 160.643338 
L 243.172417 160.846823 
L 243.407084 160.458834 
L 243.641752 160.970235 
L 243.876419 160.899003 
L 244.111087 160.538746 
L 244.345754 161.50435 
L 244.580421 160.445376 
L 244.815089 161.371093 
L 245.049756 161.139033 
L 245.519091 161.630638 
L 245.753758 161.256577 
L 245.988426 160.597683 
L 246.223093 160.41788 
L 246.457761 161.215338 
L 246.692428 160.385114 
L 246.927096 161.775621 
L 247.161763 159.83929 
L 247.39643 158.988077 
L 247.631098 162.504307 
L 247.865765 161.13232 
L 248.3351 162.212045 
L 248.569767 159.724166 
L 248.804435 162.798517 
L 249.27377 161.322606 
L 249.743104 159.735506 
L 249.977772 162.998986 
L 250.212439 163.849245 
L 250.447107 162.859001 
L 250.681774 162.659659 
L 250.916442 163.762816 
L 251.151109 160.912558 
L 251.385776 160.306112 
L 251.620444 159.055133 
L 251.855111 162.565347 
L 252.324446 154.536324 
L 252.559113 160.930342 
L 253.028448 159.28051 
L 253.263116 160.362038 
L 253.497783 160.240708 
L 253.732451 160.61164 
L 253.967118 160.69964 
L 254.201785 161.125176 
L 254.436453 160.461194 
L 254.67112 161.157922 
L 254.905788 159.386997 
L 255.140455 160.066712 
L 255.375122 160.239203 
L 255.60979 160.56978 
L 255.844457 160.270431 
L 256.079125 159.071146 
L 256.313792 159.62461 
L 256.54846 160.469603 
L 256.783127 161.872127 
L 257.017794 161.48285 
L 257.252462 160.354352 
L 257.487129 160.96851 
L 257.721797 160.491678 
L 257.956464 160.391679 
L 258.660466 160.820797 
L 258.895134 160.17765 
L 259.129801 160.810586 
L 259.364468 160.48667 
L 259.833803 160.72294 
L 260.303138 160.583358 
L 260.537806 160.869612 
L 260.772473 160.627112 
L 261.00714 160.598492 
L 261.241808 160.224381 
L 261.476475 160.843639 
L 261.711143 159.925477 
L 261.94581 160.426765 
L 262.180477 160.280962 
L 262.415145 160.792882 
L 262.649812 160.120903 
L 262.88448 160.354239 
L 263.119147 161.08864 
L 263.353815 160.380976 
L 263.588482 160.401632 
L 263.823149 160.992998 
L 264.057817 160.594943 
L 264.292484 160.612345 
L 264.527152 161.265414 
L 264.761819 160.551133 
L 264.996486 160.860654 
L 265.231154 160.598492 
L 265.465821 160.767999 
L 265.935156 160.291984 
L 266.169824 159.712293 
L 266.404491 162.87401 
L 266.639158 162.179049 
L 266.873826 160.846125 
L 267.108493 160.601458 
L 267.577828 163.655042 
L 267.812495 160.715822 
L 268.047163 161.588461 
L 268.516498 160.46723 
L 268.751165 160.597099 
L 268.985832 161.192761 
L 269.455167 160.454106 
L 269.689835 162.071321 
L 270.15917 159.909833 
L 270.393837 160.619568 
L 270.628504 161.816733 
L 270.863172 159.480055 
L 271.097839 162.615839 
L 271.332507 161.918231 
L 271.567174 158.260029 
L 271.801841 161.643252 
L 272.036509 157.982364 
L 272.271176 160.892787 
L 272.505844 159.876776 
L 272.975179 160.363711 
L 273.209846 162.11733 
L 273.444513 161.420911 
L 273.913848 158.460059 
L 274.148516 160.575372 
L 274.61785 162.05544 
L 274.852518 160.598278 
L 275.087185 158.022643 
L 275.321853 160.852171 
L 275.55652 160.588746 
L 275.791187 161.767948 
L 276.025855 160.373983 
L 276.260522 162.20817 
L 276.49519 160.888951 
L 276.964525 159.793039 
L 277.433859 159.985725 
L 277.668527 160.548876 
L 277.903194 160.606207 
L 278.137862 159.855997 
L 278.607196 160.573279 
L 278.841864 160.018107 
L 279.076531 160.434673 
L 279.311199 159.824296 
L 279.545866 161.258211 
L 279.780534 161.954472 
L 280.015201 160.788299 
L 280.249868 161.302765 
L 280.484536 162.600927 
L 280.719203 160.484727 
L 280.953871 161.609597 
L 281.188538 160.620273 
L 281.423205 160.782569 
L 281.657873 160.221793 
L 281.89254 160.622216 
L 282.127208 159.566736 
L 282.361875 161.784931 
L 282.596543 160.641181 
L 282.83121 162.980724 
L 283.535212 157.587245 
L 283.76988 161.210902 
L 284.004547 160.581468 
L 284.239214 160.448343 
L 284.473882 161.145478 
L 284.943217 160.14055 
L 285.177884 161.010464 
L 285.412551 161.069109 
L 285.647219 160.488772 
L 286.116554 160.580763 
L 286.585889 160.125142 
L 286.820556 160.80843 
L 287.055223 160.686369 
L 287.289891 160.197419 
L 287.524558 160.932991 
L 287.759226 160.934835 
L 287.993893 160.263875 
L 288.22856 160.169596 
L 288.463228 159.564653 
L 288.697895 161.409566 
L 289.16723 160.327409 
L 289.401898 160.381992 
L 289.636565 159.592596 
L 289.871232 161.432846 
L 290.1059 162.113128 
L 290.340567 158.283129 
L 290.575235 157.338331 
L 290.809902 161.304388 
L 291.279237 162.40241 
L 291.748572 158.946766 
L 291.983239 159.452677 
L 292.452574 161.652658 
L 292.687241 161.013441 
L 292.921909 160.730934 
L 293.156576 161.057585 
L 293.391244 160.170668 
L 293.625911 160.899762 
L 293.860578 160.607121 
L 294.564581 160.453504 
L 294.799248 160.167663 
L 295.033915 160.600171 
L 295.268583 160.635369 
L 295.50325 160.165308 
L 295.737918 160.657195 
L 295.972585 160.347569 
L 296.207253 160.306007 
L 296.44192 160.476176 
L 296.676587 160.405238 
L 296.911255 160.972835 
L 297.145922 159.454061 
L 297.615257 162.267355 
L 297.849924 160.368654 
L 298.084592 159.421081 
L 298.319259 160.673701 
L 298.553927 160.889606 
L 298.788594 160.904139 
L 299.023262 160.682221 
L 299.257929 160.22588 
L 299.492596 160.752405 
L 299.727264 159.802989 
L 299.961931 160.872533 
L 300.431266 160.009904 
L 300.665933 158.956864 
L 300.900601 159.973657 
L 301.135268 158.105732 
L 301.369936 159.811657 
L 301.83927 160.115648 
L 302.073938 160.496954 
L 302.308605 161.171581 
L 302.543273 160.129277 
L 302.77794 161.670176 
L 303.012608 160.779286 
L 303.247275 161.27859 
L 303.481942 161.094482 
L 303.71661 160.103355 
L 304.185945 160.112582 
L 304.420612 160.450006 
L 304.655279 160.495071 
L 304.889947 160.823709 
L 305.124614 160.664045 
L 305.593949 160.854164 
L 305.828617 161.107534 
L 306.063284 160.266776 
L 306.297951 160.591764 
L 306.532619 160.619408 
L 306.767286 160.47849 
L 307.001954 161.122632 
L 307.236621 160.778152 
L 307.705956 160.958509 
L 308.175291 160.75008 
L 308.409958 160.968778 
L 308.644625 160.531202 
L 309.11396 160.646252 
L 309.583295 160.986728 
L 309.817963 160.562614 
L 310.05263 160.463624 
L 310.287297 160.71793 
L 310.521965 160.487473 
L 310.9913 160.894948 
L 311.225967 160.583998 
L 311.695302 160.672619 
L 311.929969 161.138165 
L 312.164637 160.784409 
L 312.633972 159.078641 
L 312.868639 161.488715 
L 313.103306 160.760503 
L 313.337974 161.223315 
L 313.572641 159.428601 
L 313.807309 159.734969 
L 314.041976 161.071762 
L 314.276643 160.189831 
L 314.745978 160.495924 
L 315.215313 159.794152 
L 315.449981 160.515214 
L 315.684648 160.205417 
L 315.919315 159.079225 
L 316.153983 160.249953 
L 316.38865 162.302186 
L 316.623318 160.937426 
L 316.857985 161.005062 
L 317.32732 161.694595 
L 317.561987 161.867983 
L 318.265989 160.202027 
L 318.500657 160.201163 
L 318.735324 160.535343 
L 318.969992 160.234524 
L 319.204659 160.694239 
L 319.439327 160.60668 
L 319.673994 160.251289 
L 319.908661 160.45996 
L 320.143329 160.256018 
L 320.377996 160.474979 
L 320.612664 160.45129 
L 320.847331 159.201077 
L 321.316666 160.461358 
L 321.551333 160.47299 
L 321.786001 159.911325 
L 322.020668 159.805716 
L 322.255336 159.887381 
L 322.490003 160.64269 
L 322.72467 160.531249 
L 322.959338 160.169858 
L 323.428673 160.401083 
L 323.66334 161.125886 
L 323.898007 159.922631 
L 324.132675 160.101743 
L 324.367342 160.633574 
L 324.60201 160.157136 
L 324.836677 160.611264 
L 325.071344 160.222222 
L 325.540679 160.396242 
L 325.775347 160.139366 
L 326.010014 160.63881 
L 326.244682 160.64593 
L 326.479349 161.196065 
L 326.714016 160.094656 
L 326.948684 160.632506 
L 327.418019 160.161216 
L 327.652686 160.636382 
L 328.122021 160.586633 
L 328.356688 160.492473 
L 328.591356 160.766538 
L 329.060691 159.922842 
L 329.295358 161.731976 
L 329.530025 160.123524 
L 329.764693 161.019609 
L 329.99936 160.178771 
L 330.234028 159.951247 
L 330.468695 161.066513 
L 330.703362 160.45824 
L 330.93803 160.259459 
L 331.172697 159.896432 
L 331.407365 160.790825 
L 331.8767 160.035857 
L 332.111367 160.320679 
L 332.346034 159.83591 
L 332.580702 160.001315 
L 333.050037 160.628457 
L 333.284704 159.728388 
L 333.519371 160.056834 
L 333.754039 159.768034 
L 334.223374 160.426482 
L 334.692708 160.951156 
L 334.927376 160.08564 
L 335.162043 160.012468 
L 335.396711 161.067479 
L 335.631378 160.949526 
L 335.866046 160.053284 
L 336.33538 159.95591 
L 336.570048 160.265633 
L 336.804715 160.135714 
L 337.039383 160.145591 
L 337.27405 160.716194 
L 337.508717 159.719827 
L 337.978052 160.760495 
L 338.21272 159.126751 
L 338.447387 159.631496 
L 338.682055 159.579171 
L 338.916722 161.100445 
L 339.151389 160.366288 
L 339.620724 160.004803 
L 339.855392 161.206289 
L 340.090059 159.554329 
L 340.324726 160.149132 
L 340.559394 160.205514 
L 340.794061 160.517247 
L 341.028729 159.930292 
L 341.263396 160.816194 
L 341.732731 160.226306 
L 342.202066 160.540783 
L 342.436733 163.938517 
L 342.671401 159.8584 
L 342.906068 160.034515 
L 343.140735 159.752623 
L 343.375403 159.997189 
L 343.61007 159.798706 
L 343.844738 160.607165 
L 344.079405 160.798223 
L 344.314072 160.400548 
L 344.783407 160.420185 
L 345.018075 161.318435 
L 345.252742 160.526458 
L 345.48741 160.620262 
L 345.722077 160.420402 
L 345.956744 160.381338 
L 346.426079 159.904892 
L 346.660747 157.991007 
L 347.130081 161.574641 
L 347.364749 159.67988 
L 347.599416 160.869835 
L 347.834084 149.69904 
L 348.068751 159.794433 
L 348.538086 156.072343 
L 348.772753 147.437784 
L 349.007421 145.735209 
L 349.242088 148.792629 
L 349.476756 166.199167 
L 349.711423 148.986418 
L 349.94609 143.372925 
L 350.415425 160.87242 
L 350.650093 183.085099 
L 350.88476 154.13717 
L 351.119427 154.130797 
L 351.354095 152.980797 
L 351.588762 151.230725 
L 351.82343 165.807304 
L 352.058097 165.911292 
L 352.292765 165.712832 
L 352.527432 163.335672 
L 352.762099 139.442397 
L 352.996767 146.470509 
L 353.231434 116.336932 
L 353.466102 127.786566 
L 353.700769 201.853312 
L 353.935436 186.604194 
L 354.170104 218.256364 
L 354.404771 178.381541 
L 354.639439 160.731306 
L 354.874106 160.18662 
L 355.108774 168.616181 
L 355.343441 162.305466 
L 355.578108 165.437263 
L 355.812776 165.620304 
L 356.047443 161.71962 
L 356.047443 161.71962 
" style="fill:none;stroke:#1f77b4;stroke-linecap:square;stroke-width:1.5;"/>
   </g>
   <g id="patch_3">
    <path d="M 36.465625 228.14 
L 36.465625 10.7 
" style="fill:none;stroke:#000000;stroke-linecap:square;stroke-linejoin:miter;stroke-width:0.8;"/>
   </g>
   <g id="patch_4">
    <path d="M 371.265625 228.14 
L 371.265625 10.7 
" style="fill:none;stroke:#000000;stroke-linecap:square;stroke-linejoin:miter;stroke-width:0.8;"/>
   </g>
   <g id="patch_5">
    <path d="M 36.465625 228.14 
L 371.265625 228.14 
" style="fill:none;stroke:#000000;stroke-linecap:square;stroke-linejoin:miter;stroke-width:0.8;"/>
   </g>
   <g id="patch_6">
    <path d="M 36.465625 10.7 
L 371.265625 10.7 
" style="fill:none;stroke:#000000;stroke-linecap:square;stroke-linejoin:miter;stroke-width:0.8;"/>
   </g>
  </g>
 </g>
 <defs>
  <clipPath id="pb26b4b2cb3">
   <rect height="217.44" width="334.8" x="36.465625" y="10.7"/>
  </clipPath>
 </defs>
</svg>
