<?xml version="1.0" encoding="utf-8" standalone="no"?>
<!DOCTYPE svg PUBLIC "-//W3C//DTD SVG 1.1//EN"
  "http://www.w3.org/Graphics/SVG/1.1/DTD/svg11.dtd">
<!-- Created with matplotlib (http://matplotlib.org/) -->
<svg height="252.018125pt" version="1.1" viewBox="0 0 381.965625 252.018125" width="381.965625pt" xmlns="http://www.w3.org/2000/svg" xmlns:xlink="http://www.w3.org/1999/xlink">
 <defs>
  <style type="text/css">
*{stroke-linecap:butt;stroke-linejoin:round;}
  </style>
 </defs>
 <g id="figure_1">
  <g id="patch_1">
   <path d="M 0 252.018125 
L 381.965625 252.018125 
L 381.965625 0 
L 0 0 
z
" style="fill:#ffffff;"/>
  </g>
  <g id="axes_1">
   <g id="patch_2">
    <path d="M 36.465625 228.14 
L 371.265625 228.14 
L 371.265625 10.7 
L 36.465625 10.7 
z
" style="fill:#ffffff;"/>
   </g>
   <g id="matplotlib.axis_1">
    <g id="xtick_1">
     <g id="line2d_1">
      <defs>
       <path d="M 0 0 
L 0 3.5 
" id="m7effe217c3" style="stroke:#000000;stroke-width:0.8;"/>
      </defs>
      <g>
       <use style="stroke:#000000;stroke-width:0.8;" x="51.683807" xlink:href="#m7effe217c3" y="228.14"/>
      </g>
     </g>
     <g id="text_1">
      <!-- 0 -->
      <defs>
       <path d="M 31.78125 66.40625 
Q 24.171875 66.40625 20.328125 58.90625 
Q 16.5 51.421875 16.5 36.375 
Q 16.5 21.390625 20.328125 13.890625 
Q 24.171875 6.390625 31.78125 6.390625 
Q 39.453125 6.390625 43.28125 13.890625 
Q 47.125 21.390625 47.125 36.375 
Q 47.125 51.421875 43.28125 58.90625 
Q 39.453125 66.40625 31.78125 66.40625 
z
M 31.78125 74.21875 
Q 44.046875 74.21875 50.515625 64.515625 
Q 56.984375 54.828125 56.984375 36.375 
Q 56.984375 17.96875 50.515625 8.265625 
Q 44.046875 -1.421875 31.78125 -1.421875 
Q 19.53125 -1.421875 13.0625 8.265625 
Q 6.59375 17.96875 6.59375 36.375 
Q 6.59375 54.828125 13.0625 64.515625 
Q 19.53125 74.21875 31.78125 74.21875 
z
" id="DejaVuSans-30"/>
      </defs>
      <g transform="translate(48.502557 242.738437)scale(0.1 -0.1)">
       <use xlink:href="#DejaVuSans-30"/>
      </g>
     </g>
    </g>
    <g id="xtick_2">
     <g id="line2d_2">
      <g>
       <use style="stroke:#000000;stroke-width:0.8;" x="117.849815" xlink:href="#m7effe217c3" y="228.14"/>
      </g>
     </g>
     <g id="text_2">
      <!-- 200 -->
      <defs>
       <path d="M 19.1875 8.296875 
L 53.609375 8.296875 
L 53.609375 0 
L 7.328125 0 
L 7.328125 8.296875 
Q 12.9375 14.109375 22.625 23.890625 
Q 32.328125 33.6875 34.8125 36.53125 
Q 39.546875 41.84375 41.421875 45.53125 
Q 43.3125 49.21875 43.3125 52.78125 
Q 43.3125 58.59375 39.234375 62.25 
Q 35.15625 65.921875 28.609375 65.921875 
Q 23.96875 65.921875 18.8125 64.3125 
Q 13.671875 62.703125 7.8125 59.421875 
L 7.8125 69.390625 
Q 13.765625 71.78125 18.9375 73 
Q 24.125 74.21875 28.421875 74.21875 
Q 39.75 74.21875 46.484375 68.546875 
Q 53.21875 62.890625 53.21875 53.421875 
Q 53.21875 48.921875 51.53125 44.890625 
Q 49.859375 40.875 45.40625 35.40625 
Q 44.1875 33.984375 37.640625 27.21875 
Q 31.109375 20.453125 19.1875 8.296875 
z
" id="DejaVuSans-32"/>
      </defs>
      <g transform="translate(108.306065 242.738437)scale(0.1 -0.1)">
       <use xlink:href="#DejaVuSans-32"/>
       <use x="63.623047" xlink:href="#DejaVuSans-30"/>
       <use x="127.246094" xlink:href="#DejaVuSans-30"/>
      </g>
     </g>
    </g>
    <g id="xtick_3">
     <g id="line2d_3">
      <g>
       <use style="stroke:#000000;stroke-width:0.8;" x="184.015823" xlink:href="#m7effe217c3" y="228.14"/>
      </g>
     </g>
     <g id="text_3">
      <!-- 400 -->
      <defs>
       <path d="M 37.796875 64.3125 
L 12.890625 25.390625 
L 37.796875 25.390625 
z
M 35.203125 72.90625 
L 47.609375 72.90625 
L 47.609375 25.390625 
L 58.015625 25.390625 
L 58.015625 17.1875 
L 47.609375 17.1875 
L 47.609375 0 
L 37.796875 0 
L 37.796875 17.1875 
L 4.890625 17.1875 
L 4.890625 26.703125 
z
" id="DejaVuSans-34"/>
      </defs>
      <g transform="translate(174.472073 242.738437)scale(0.1 -0.1)">
       <use xlink:href="#DejaVuSans-34"/>
       <use x="63.623047" xlink:href="#DejaVuSans-30"/>
       <use x="127.246094" xlink:href="#DejaVuSans-30"/>
      </g>
     </g>
    </g>
    <g id="xtick_4">
     <g id="line2d_4">
      <g>
       <use style="stroke:#000000;stroke-width:0.8;" x="250.181831" xlink:href="#m7effe217c3" y="228.14"/>
      </g>
     </g>
     <g id="text_4">
      <!-- 600 -->
      <defs>
       <path d="M 33.015625 40.375 
Q 26.375 40.375 22.484375 35.828125 
Q 18.609375 31.296875 18.609375 23.390625 
Q 18.609375 15.53125 22.484375 10.953125 
Q 26.375 6.390625 33.015625 6.390625 
Q 39.65625 6.390625 43.53125 10.953125 
Q 47.40625 15.53125 47.40625 23.390625 
Q 47.40625 31.296875 43.53125 35.828125 
Q 39.65625 40.375 33.015625 40.375 
z
M 52.59375 71.296875 
L 52.59375 62.3125 
Q 48.875 64.0625 45.09375 64.984375 
Q 41.3125 65.921875 37.59375 65.921875 
Q 27.828125 65.921875 22.671875 59.328125 
Q 17.53125 52.734375 16.796875 39.40625 
Q 19.671875 43.65625 24.015625 45.921875 
Q 28.375 48.1875 33.59375 48.1875 
Q 44.578125 48.1875 50.953125 41.515625 
Q 57.328125 34.859375 57.328125 23.390625 
Q 57.328125 12.15625 50.6875 5.359375 
Q 44.046875 -1.421875 33.015625 -1.421875 
Q 20.359375 -1.421875 13.671875 8.265625 
Q 6.984375 17.96875 6.984375 36.375 
Q 6.984375 53.65625 15.1875 63.9375 
Q 23.390625 74.21875 37.203125 74.21875 
Q 40.921875 74.21875 44.703125 73.484375 
Q 48.484375 72.75 52.59375 71.296875 
z
" id="DejaVuSans-36"/>
      </defs>
      <g transform="translate(240.638081 242.738437)scale(0.1 -0.1)">
       <use xlink:href="#DejaVuSans-36"/>
       <use x="63.623047" xlink:href="#DejaVuSans-30"/>
       <use x="127.246094" xlink:href="#DejaVuSans-30"/>
      </g>
     </g>
    </g>
    <g id="xtick_5">
     <g id="line2d_5">
      <g>
       <use style="stroke:#000000;stroke-width:0.8;" x="316.347838" xlink:href="#m7effe217c3" y="228.14"/>
      </g>
     </g>
     <g id="text_5">
      <!-- 800 -->
      <defs>
       <path d="M 31.78125 34.625 
Q 24.75 34.625 20.71875 30.859375 
Q 16.703125 27.09375 16.703125 20.515625 
Q 16.703125 13.921875 20.71875 10.15625 
Q 24.75 6.390625 31.78125 6.390625 
Q 38.8125 6.390625 42.859375 10.171875 
Q 46.921875 13.96875 46.921875 20.515625 
Q 46.921875 27.09375 42.890625 30.859375 
Q 38.875 34.625 31.78125 34.625 
z
M 21.921875 38.8125 
Q 15.578125 40.375 12.03125 44.71875 
Q 8.5 49.078125 8.5 55.328125 
Q 8.5 64.0625 14.71875 69.140625 
Q 20.953125 74.21875 31.78125 74.21875 
Q 42.671875 74.21875 48.875 69.140625 
Q 55.078125 64.0625 55.078125 55.328125 
Q 55.078125 49.078125 51.53125 44.71875 
Q 48 40.375 41.703125 38.8125 
Q 48.828125 37.15625 52.796875 32.3125 
Q 56.78125 27.484375 56.78125 20.515625 
Q 56.78125 9.90625 50.3125 4.234375 
Q 43.84375 -1.421875 31.78125 -1.421875 
Q 19.734375 -1.421875 13.25 4.234375 
Q 6.78125 9.90625 6.78125 20.515625 
Q 6.78125 27.484375 10.78125 32.3125 
Q 14.796875 37.15625 21.921875 38.8125 
z
M 18.3125 54.390625 
Q 18.3125 48.734375 21.84375 45.5625 
Q 25.390625 42.390625 31.78125 42.390625 
Q 38.140625 42.390625 41.71875 45.5625 
Q 45.3125 48.734375 45.3125 54.390625 
Q 45.3125 60.0625 41.71875 63.234375 
Q 38.140625 66.40625 31.78125 66.40625 
Q 25.390625 66.40625 21.84375 63.234375 
Q 18.3125 60.0625 18.3125 54.390625 
z
" id="DejaVuSans-38"/>
      </defs>
      <g transform="translate(306.804088 242.738437)scale(0.1 -0.1)">
       <use xlink:href="#DejaVuSans-38"/>
       <use x="63.623047" xlink:href="#DejaVuSans-30"/>
       <use x="127.246094" xlink:href="#DejaVuSans-30"/>
      </g>
     </g>
    </g>
   </g>
   <g id="matplotlib.axis_2">
    <g id="ytick_1">
     <g id="line2d_6">
      <defs>
       <path d="M 0 0 
L -3.5 0 
" id="m2c5f6d431f" style="stroke:#000000;stroke-width:0.8;"/>
      </defs>
      <g>
       <use style="stroke:#000000;stroke-width:0.8;" x="36.465625" xlink:href="#m2c5f6d431f" y="213.301937"/>
      </g>
     </g>
     <g id="text_6">
      <!-- 5.0 -->
      <defs>
       <path d="M 10.796875 72.90625 
L 49.515625 72.90625 
L 49.515625 64.59375 
L 19.828125 64.59375 
L 19.828125 46.734375 
Q 21.96875 47.46875 24.109375 47.828125 
Q 26.265625 48.1875 28.421875 48.1875 
Q 40.625 48.1875 47.75 41.5 
Q 54.890625 34.8125 54.890625 23.390625 
Q 54.890625 11.625 47.5625 5.09375 
Q 40.234375 -1.421875 26.90625 -1.421875 
Q 22.3125 -1.421875 17.546875 -0.640625 
Q 12.796875 0.140625 7.71875 1.703125 
L 7.71875 11.625 
Q 12.109375 9.234375 16.796875 8.0625 
Q 21.484375 6.890625 26.703125 6.890625 
Q 35.15625 6.890625 40.078125 11.328125 
Q 45.015625 15.765625 45.015625 23.390625 
Q 45.015625 31 40.078125 35.4375 
Q 35.15625 39.890625 26.703125 39.890625 
Q 22.75 39.890625 18.8125 39.015625 
Q 14.890625 38.140625 10.796875 36.28125 
z
" id="DejaVuSans-35"/>
       <path d="M 10.6875 12.40625 
L 21 12.40625 
L 21 0 
L 10.6875 0 
z
" id="DejaVuSans-2e"/>
      </defs>
      <g transform="translate(13.5625 217.101156)scale(0.1 -0.1)">
       <use xlink:href="#DejaVuSans-35"/>
       <use x="63.623047" xlink:href="#DejaVuSans-2e"/>
       <use x="95.410156" xlink:href="#DejaVuSans-30"/>
      </g>
     </g>
    </g>
    <g id="ytick_2">
     <g id="line2d_7">
      <g>
       <use style="stroke:#000000;stroke-width:0.8;" x="36.465625" xlink:href="#m2c5f6d431f" y="188.593497"/>
      </g>
     </g>
     <g id="text_7">
      <!-- 7.5 -->
      <defs>
       <path d="M 8.203125 72.90625 
L 55.078125 72.90625 
L 55.078125 68.703125 
L 28.609375 0 
L 18.3125 0 
L 43.21875 64.59375 
L 8.203125 64.59375 
z
" id="DejaVuSans-37"/>
      </defs>
      <g transform="translate(13.5625 192.392716)scale(0.1 -0.1)">
       <use xlink:href="#DejaVuSans-37"/>
       <use x="63.623047" xlink:href="#DejaVuSans-2e"/>
       <use x="95.410156" xlink:href="#DejaVuSans-35"/>
      </g>
     </g>
    </g>
    <g id="ytick_3">
     <g id="line2d_8">
      <g>
       <use style="stroke:#000000;stroke-width:0.8;" x="36.465625" xlink:href="#m2c5f6d431f" y="163.885057"/>
      </g>
     </g>
     <g id="text_8">
      <!-- 10.0 -->
      <defs>
       <path d="M 12.40625 8.296875 
L 28.515625 8.296875 
L 28.515625 63.921875 
L 10.984375 60.40625 
L 10.984375 69.390625 
L 28.421875 72.90625 
L 38.28125 72.90625 
L 38.28125 8.296875 
L 54.390625 8.296875 
L 54.390625 0 
L 12.40625 0 
z
" id="DejaVuSans-31"/>
      </defs>
      <g transform="translate(7.2 167.684276)scale(0.1 -0.1)">
       <use xlink:href="#DejaVuSans-31"/>
       <use x="63.623047" xlink:href="#DejaVuSans-30"/>
       <use x="127.246094" xlink:href="#DejaVuSans-2e"/>
       <use x="159.033203" xlink:href="#DejaVuSans-30"/>
      </g>
     </g>
    </g>
    <g id="ytick_4">
     <g id="line2d_9">
      <g>
       <use style="stroke:#000000;stroke-width:0.8;" x="36.465625" xlink:href="#m2c5f6d431f" y="139.176616"/>
      </g>
     </g>
     <g id="text_9">
      <!-- 12.5 -->
      <g transform="translate(7.2 142.975835)scale(0.1 -0.1)">
       <use xlink:href="#DejaVuSans-31"/>
       <use x="63.623047" xlink:href="#DejaVuSans-32"/>
       <use x="127.246094" xlink:href="#DejaVuSans-2e"/>
       <use x="159.033203" xlink:href="#DejaVuSans-35"/>
      </g>
     </g>
    </g>
    <g id="ytick_5">
     <g id="line2d_10">
      <g>
       <use style="stroke:#000000;stroke-width:0.8;" x="36.465625" xlink:href="#m2c5f6d431f" y="114.468176"/>
      </g>
     </g>
     <g id="text_10">
      <!-- 15.0 -->
      <g transform="translate(7.2 118.267395)scale(0.1 -0.1)">
       <use xlink:href="#DejaVuSans-31"/>
       <use x="63.623047" xlink:href="#DejaVuSans-35"/>
       <use x="127.246094" xlink:href="#DejaVuSans-2e"/>
       <use x="159.033203" xlink:href="#DejaVuSans-30"/>
      </g>
     </g>
    </g>
    <g id="ytick_6">
     <g id="line2d_11">
      <g>
       <use style="stroke:#000000;stroke-width:0.8;" x="36.465625" xlink:href="#m2c5f6d431f" y="89.759736"/>
      </g>
     </g>
     <g id="text_11">
      <!-- 17.5 -->
      <g transform="translate(7.2 93.558955)scale(0.1 -0.1)">
       <use xlink:href="#DejaVuSans-31"/>
       <use x="63.623047" xlink:href="#DejaVuSans-37"/>
       <use x="127.246094" xlink:href="#DejaVuSans-2e"/>
       <use x="159.033203" xlink:href="#DejaVuSans-35"/>
      </g>
     </g>
    </g>
    <g id="ytick_7">
     <g id="line2d_12">
      <g>
       <use style="stroke:#000000;stroke-width:0.8;" x="36.465625" xlink:href="#m2c5f6d431f" y="65.051295"/>
      </g>
     </g>
     <g id="text_12">
      <!-- 20.0 -->
      <g transform="translate(7.2 68.850514)scale(0.1 -0.1)">
       <use xlink:href="#DejaVuSans-32"/>
       <use x="63.623047" xlink:href="#DejaVuSans-30"/>
       <use x="127.246094" xlink:href="#DejaVuSans-2e"/>
       <use x="159.033203" xlink:href="#DejaVuSans-30"/>
      </g>
     </g>
    </g>
    <g id="ytick_8">
     <g id="line2d_13">
      <g>
       <use style="stroke:#000000;stroke-width:0.8;" x="36.465625" xlink:href="#m2c5f6d431f" y="40.342855"/>
      </g>
     </g>
     <g id="text_13">
      <!-- 22.5 -->
      <g transform="translate(7.2 44.142074)scale(0.1 -0.1)">
       <use xlink:href="#DejaVuSans-32"/>
       <use x="63.623047" xlink:href="#DejaVuSans-32"/>
       <use x="127.246094" xlink:href="#DejaVuSans-2e"/>
       <use x="159.033203" xlink:href="#DejaVuSans-35"/>
      </g>
     </g>
    </g>
    <g id="ytick_9">
     <g id="line2d_14">
      <g>
       <use style="stroke:#000000;stroke-width:0.8;" x="36.465625" xlink:href="#m2c5f6d431f" y="15.634415"/>
      </g>
     </g>
     <g id="text_14">
      <!-- 25.0 -->
      <g transform="translate(7.2 19.433634)scale(0.1 -0.1)">
       <use xlink:href="#DejaVuSans-32"/>
       <use x="63.623047" xlink:href="#DejaVuSans-35"/>
       <use x="127.246094" xlink:href="#DejaVuSans-2e"/>
       <use x="159.033203" xlink:href="#DejaVuSans-30"/>
      </g>
     </g>
    </g>
   </g>
   <g id="line2d_15">
    <path clip-path="url(#p8522678655)" d="M 51.683807 163.033623 
L 52.014637 165.985806 
L 52.345467 166.080683 
L 52.676297 166.435058 
L 53.007127 166.986406 
L 53.337957 167.196662 
L 53.668787 165.926611 
L 53.999617 168.214517 
L 54.330447 164.985044 
L 54.661277 167.249054 
L 54.992107 161.951008 
L 55.322937 163.997839 
L 55.653767 164.751966 
L 55.984597 166.715114 
L 56.315427 165.865511 
L 56.646257 161.618936 
L 56.977087 165.797564 
L 57.307917 164.531224 
L 57.638748 170.097373 
L 57.969578 163.886996 
L 58.300408 163.988469 
L 58.631238 164.794198 
L 58.962068 166.749892 
L 59.292898 163.873835 
L 59.623728 169.19082 
L 60.285388 161.434128 
L 60.616218 162.973858 
L 60.947048 170.900525 
L 61.277878 162.063161 
L 61.608708 174.839859 
L 61.939538 175.017233 
L 62.601198 150.364428 
L 62.932028 152.860378 
L 63.262858 164.255938 
L 63.593688 170.150316 
L 63.924518 158.926013 
L 64.255348 166.411736 
L 64.586178 167.399472 
L 64.917008 162.590307 
L 65.247838 167.652882 
L 65.578668 167.959804 
L 65.909499 161.192025 
L 66.240329 169.101425 
L 66.571159 164.396534 
L 66.901989 163.948532 
L 67.232819 164.214334 
L 67.563649 165.449281 
L 67.894479 167.839234 
L 68.225309 166.255143 
L 68.556139 166.818053 
L 68.886969 166.729976 
L 69.217799 167.82504 
L 69.548629 161.811071 
L 70.210289 166.733776 
L 70.871949 162.009808 
L 71.202779 166.841245 
L 71.533609 159.673626 
L 71.864439 160.998146 
L 72.195269 161.543689 
L 72.526099 160.612271 
L 72.856929 166.725219 
L 73.187759 184.099629 
L 73.518589 163.42784 
L 73.849419 155.523308 
L 74.18025 168.028553 
L 74.51108 159.233227 
L 74.84191 168.183417 
L 75.17274 169.25077 
L 75.50357 171.025431 
L 75.8344 144.450952 
L 76.16523 150.251621 
L 76.49606 143.53898 
L 76.82689 155.852738 
L 77.15772 158.486587 
L 77.48855 185.551812 
L 77.81938 174.680397 
L 78.15021 168.146299 
L 78.48104 148.193182 
L 79.1427 170.23522 
L 79.47353 174.263606 
L 79.80436 164.562945 
L 80.13519 169.244992 
L 80.46602 168.94772 
L 80.79685 174.646723 
L 81.12768 164.542032 
L 81.45851 172.306248 
L 81.78934 163.33572 
L 82.12017 171.038241 
L 82.451 164.423963 
L 82.781831 163.365994 
L 83.112661 152.59917 
L 83.443491 180.688718 
L 83.774321 180.149683 
L 84.105151 177.377485 
L 84.435981 165.662068 
L 84.766811 169.392322 
L 85.097641 167.617839 
L 85.428471 157.746585 
L 85.759301 139.923616 
L 86.090131 163.963435 
L 86.420961 152.93288 
L 86.751791 146.330976 
L 87.082621 154.383509 
L 87.413451 207.517445 
L 87.744281 145.248321 
L 88.075111 160.727345 
L 88.405941 156.221156 
L 88.736771 155.549743 
L 89.067601 175.09607 
L 89.398431 152.253117 
L 89.729261 175.255137 
L 90.060091 147.701338 
L 90.390921 170.362514 
L 90.721751 183.304269 
L 91.052582 165.20138 
L 91.383412 99.906484 
L 91.714242 124.448034 
L 92.045072 218.256364 
L 92.375902 182.4665 
L 92.706732 203.977576 
L 93.037562 135.917058 
L 93.368392 20.583636 
L 93.699222 217.46019 
L 94.030052 163.447329 
L 94.691712 211.827435 
L 95.022542 155.423473 
L 95.353372 153.037054 
L 95.684202 161.927535 
L 96.015032 101.918081 
L 96.345862 89.126252 
L 97.007522 181.208503 
L 97.338352 163.861527 
L 97.669182 179.65272 
L 98.000012 173.750723 
L 98.330842 163.071582 
L 98.661672 136.535349 
L 98.992502 160.698295 
L 99.323333 167.191154 
L 99.654163 152.750135 
L 99.984993 163.617203 
L 100.315823 163.413912 
L 100.646653 166.300013 
L 101.639143 159.580006 
L 101.969973 164.011525 
L 102.300803 160.487569 
L 102.631633 172.721941 
L 102.962463 159.18017 
L 103.293293 172.692451 
L 103.954953 124.018322 
L 104.285783 163.503883 
L 104.616613 157.675233 
L 104.947443 147.353686 
L 105.278273 167.65477 
L 105.609103 163.810761 
L 105.939933 177.755277 
L 106.270763 165.980437 
L 106.601593 168.067312 
L 106.932423 161.936575 
L 107.263253 138.608739 
L 107.594083 166.543462 
L 107.924914 174.798118 
L 108.255744 187.612235 
L 108.586574 192.258626 
L 108.917404 184.308204 
L 109.248234 136.46531 
L 109.909894 169.393323 
L 110.240724 173.403051 
L 110.571554 167.703797 
L 110.902384 138.245883 
L 111.233214 160.483096 
L 112.225704 183.093782 
L 112.556534 146.951476 
L 112.887364 182.725287 
L 113.218194 168.396471 
L 113.549024 115.795182 
L 113.879854 196.699933 
L 114.210684 177.421848 
L 114.541514 188.956593 
L 114.872344 150.316987 
L 115.534004 198.346103 
L 115.864834 148.73046 
L 116.195665 176.240363 
L 116.526495 158.211061 
L 116.857325 166.365613 
L 117.188155 160.525462 
L 117.518985 162.24858 
L 117.849815 175.375782 
L 118.180645 164.720823 
L 118.511475 171.530273 
L 118.842305 154.677707 
L 119.173135 178.482612 
L 119.503965 164.301999 
L 119.834795 174.316584 
L 120.165625 152.594154 
L 120.827285 179.305158 
L 121.158115 163.463681 
L 121.488945 164.523596 
L 121.819775 169.019022 
L 122.150605 143.489514 
L 122.481435 175.758815 
L 122.812265 167.322121 
L 123.143095 168.8915 
L 123.473925 172.736985 
L 123.804755 164.704887 
L 124.135585 169.225748 
L 124.466416 164.051047 
L 124.797246 168.736654 
L 125.128076 162.74644 
L 125.458906 163.493796 
L 125.789736 175.327692 
L 126.120566 165.279988 
L 126.451396 164.724009 
L 126.782226 162.191579 
L 127.113056 169.475126 
L 127.443886 165.77644 
L 127.774716 157.913833 
L 128.105546 167.473085 
L 128.436376 164.764207 
L 128.767206 168.139742 
L 129.098036 169.021816 
L 129.428866 171.804875 
L 129.759696 168.154867 
L 130.090526 161.387419 
L 130.421356 172.00591 
L 130.752186 166.058131 
L 131.083016 166.528205 
L 131.413846 165.955198 
L 131.744676 166.234447 
L 132.075506 166.366009 
L 132.406336 165.764934 
L 132.737167 167.325114 
L 133.067997 170.868501 
L 133.398827 162.068265 
L 133.729657 165.690721 
L 134.060487 164.300392 
L 134.391317 167.49283 
L 134.722147 166.704253 
L 135.052977 167.140701 
L 135.383807 166.912606 
L 135.714637 173.856701 
L 136.045467 167.512282 
L 136.376297 172.264604 
L 136.707127 159.531178 
L 137.037957 164.609538 
L 137.368787 166.059964 
L 137.699617 165.978812 
L 138.030447 167.729216 
L 138.361277 162.565833 
L 138.692107 167.532757 
L 139.022937 158.794557 
L 139.353767 172.54524 
L 139.684597 171.346991 
L 140.015427 180.160627 
L 140.677087 164.090023 
L 141.007917 165.185746 
L 141.338748 170.239538 
L 141.669578 169.815925 
L 142.000408 165.050906 
L 142.331238 169.757521 
L 142.662068 168.876181 
L 142.992898 164.531383 
L 143.323728 125.74803 
L 143.654558 142.144339 
L 143.985388 176.702269 
L 144.316218 165.126838 
L 144.647048 166.059004 
L 144.977878 168.787463 
L 145.308708 166.400948 
L 145.639538 168.497713 
L 145.970368 169.460077 
L 146.632028 162.839392 
L 146.962858 165.18673 
L 147.293688 166.681816 
L 147.624518 166.412787 
L 147.955348 167.306793 
L 148.617008 166.593445 
L 148.947838 160.92464 
L 149.278668 162.318775 
L 149.609499 150.587347 
L 149.940329 167.549396 
L 150.271159 161.397331 
L 150.601989 165.223658 
L 150.932819 165.880686 
L 151.263649 163.758176 
L 151.594479 166.945599 
L 151.925309 165.211902 
L 152.256139 172.645904 
L 152.586969 161.704798 
L 152.917799 167.366663 
L 153.248629 164.560827 
L 153.579459 166.399351 
L 153.910289 166.482744 
L 154.241119 162.220383 
L 154.571949 164.934723 
L 154.902779 159.795184 
L 155.233609 165.987575 
L 155.564439 164.799018 
L 155.895269 166.593525 
L 156.226099 165.616375 
L 156.556929 169.853466 
L 156.887759 169.773356 
L 157.218589 161.719992 
L 157.549419 164.385843 
L 157.88025 163.598653 
L 158.21108 166.9907 
L 158.54191 165.517071 
L 158.87274 165.570724 
L 159.20357 167.169474 
L 159.5344 171.580376 
L 159.86523 163.471086 
L 160.19606 166.432086 
L 160.52689 160.35521 
L 160.85772 169.3603 
L 161.18855 168.332938 
L 161.51938 166.170287 
L 161.85021 164.857347 
L 162.18104 169.514414 
L 162.51187 168.109182 
L 162.8427 167.82608 
L 163.17353 166.809884 
L 163.50436 164.595369 
L 163.83519 168.400345 
L 164.16602 163.380229 
L 164.49685 163.87978 
L 164.82768 167.907948 
L 165.15851 166.056165 
L 165.48934 165.063335 
L 165.82017 157.766097 
L 166.151 168.194759 
L 166.481831 165.639555 
L 166.812661 166.003301 
L 167.143491 169.604623 
L 167.474321 163.49974 
L 167.805151 164.429184 
L 168.135981 164.066514 
L 168.797641 167.21057 
L 169.128471 165.450484 
L 169.459301 167.973765 
L 169.790131 167.970635 
L 170.120961 162.767879 
L 170.451791 163.759221 
L 170.782621 169.056085 
L 171.113451 167.281052 
L 171.444281 164.112732 
L 171.775111 162.788737 
L 172.105941 169.170293 
L 172.767601 161.522436 
L 173.098431 163.838738 
L 173.760091 159.216199 
L 174.090921 171.627271 
L 174.421751 165.612485 
L 174.752582 164.272924 
L 175.083412 166.146147 
L 175.414242 162.663902 
L 175.745072 168.623881 
L 176.075902 165.508275 
L 176.406732 165.034752 
L 176.737562 160.9693 
L 177.068392 167.835807 
L 177.399222 166.943445 
L 177.730052 166.748441 
L 178.060882 167.909883 
L 178.391712 162.515036 
L 178.722542 168.42244 
L 179.053372 167.206001 
L 179.384202 164.729692 
L 179.715032 166.516632 
L 180.045862 161.678388 
L 180.376692 168.027364 
L 180.707522 167.924443 
L 181.038352 168.298617 
L 181.369182 159.059068 
L 181.700012 161.768997 
L 182.030842 169.709477 
L 182.361672 157.894373 
L 182.692502 166.931545 
L 183.354163 165.258126 
L 184.015823 164.065227 
L 184.346653 167.2746 
L 185.008313 159.832572 
L 185.339143 170.705536 
L 185.669973 169.108431 
L 186.000803 168.29121 
L 186.331633 164.122475 
L 186.662463 165.44214 
L 186.993293 164.900273 
L 187.324123 161.240116 
L 187.654953 164.555817 
L 187.985783 172.313657 
L 188.316613 157.337295 
L 188.647443 171.373847 
L 188.978273 167.37528 
L 189.309103 159.430629 
L 189.639933 163.415294 
L 189.970763 164.907099 
L 190.301593 172.951435 
L 190.632423 167.890888 
L 190.963253 159.621033 
L 191.294083 163.106162 
L 191.624914 155.633102 
L 191.955744 162.872107 
L 192.286574 162.33216 
L 192.617404 168.182124 
L 192.948234 166.999155 
L 193.279064 162.986322 
L 193.609894 164.365658 
L 193.940724 172.124948 
L 194.271554 165.681986 
L 194.602384 166.252512 
L 194.933214 170.083329 
L 195.264044 168.678412 
L 195.594874 173.676648 
L 195.925704 166.957664 
L 196.256534 166.195831 
L 196.918194 167.539602 
L 197.249024 161.509359 
L 197.579854 167.122041 
L 197.910684 165.203187 
L 198.241514 156.228371 
L 198.572344 165.925533 
L 198.903174 168.08282 
L 199.234004 165.34407 
L 199.564834 168.523034 
L 199.895665 167.44088 
L 200.226495 154.159444 
L 200.557325 189.856545 
L 201.218985 167.727249 
L 201.549815 165.243436 
L 201.880645 161.660525 
L 202.211475 166.478476 
L 202.542305 149.338038 
L 202.873135 171.764101 
L 203.203965 165.376887 
L 203.534795 163.016522 
L 203.865625 165.225689 
L 204.196455 156.369878 
L 204.527285 167.26504 
L 204.858115 165.017961 
L 205.188945 164.212228 
L 205.519775 164.335774 
L 205.850605 168.566728 
L 206.181435 174.80143 
L 206.512265 166.041413 
L 206.843095 175.815637 
L 207.835585 155.529116 
L 208.166416 165.913985 
L 208.497246 164.775346 
L 208.828076 170.133915 
L 209.158906 160.900985 
L 209.489736 166.399351 
L 209.820566 164.83914 
L 210.151396 166.603585 
L 210.482226 162.738783 
L 210.813056 163.779356 
L 211.143886 158.188861 
L 211.474716 172.243779 
L 211.805546 164.692443 
L 212.136376 165.164623 
L 212.467206 168.424535 
L 212.798036 166.55135 
L 213.128866 167.445255 
L 213.459696 164.545759 
L 213.790526 166.243254 
L 214.121356 159.893077 
L 214.452186 162.434154 
L 214.783016 167.880385 
L 215.113846 166.024844 
L 215.444676 204.874851 
L 215.775506 186.736273 
L 216.106336 156.600546 
L 216.437167 160.592828 
L 216.767997 159.262488 
L 217.098827 154.368931 
L 217.429657 192.182707 
L 217.760487 194.96198 
L 218.091317 168.023737 
L 218.422147 171.159417 
L 218.752977 171.011566 
L 219.083807 168.602031 
L 219.414637 165.028474 
L 219.745467 163.284648 
L 220.076297 169.126081 
L 220.407127 162.640064 
L 220.737957 159.190965 
L 221.068787 167.023525 
L 221.399617 167.03124 
L 221.730447 164.641469 
L 222.392107 168.279468 
L 222.722937 167.447396 
L 223.384597 156.533638 
L 223.715427 170.983082 
L 224.046257 165.544915 
L 224.377087 171.008909 
L 224.707917 164.883677 
L 225.038748 164.53734 
L 225.369578 161.101082 
L 225.700408 162.833405 
L 226.031238 166.902444 
L 226.692898 167.557313 
L 227.023728 163.531322 
L 227.354558 161.034587 
L 227.685388 169.4696 
L 228.016218 167.677467 
L 228.347048 163.899476 
L 228.677878 164.472281 
L 229.008708 163.750202 
L 230.001198 166.764927 
L 230.332028 170.018152 
L 230.662858 183.344656 
L 230.993688 162.824157 
L 231.324518 150.1371 
L 231.655348 145.681088 
L 231.986178 150.400316 
L 232.317008 163.159071 
L 232.647838 161.269417 
L 232.978668 169.780374 
L 233.640329 164.438993 
L 233.971159 166.956764 
L 234.301989 168.285184 
L 234.632819 168.809413 
L 234.963649 165.465575 
L 235.294479 164.989575 
L 235.625309 164.089242 
L 235.956139 162.833841 
L 236.286969 168.619928 
L 236.948629 173.535587 
L 237.279459 163.965625 
L 237.941119 168.416787 
L 238.271949 164.546337 
L 238.602779 164.847022 
L 238.933609 164.536657 
L 239.264439 165.820326 
L 239.595269 162.083709 
L 239.926099 171.685443 
L 240.256929 160.041654 
L 240.587759 167.157045 
L 240.918589 162.595705 
L 241.249419 163.17473 
L 241.58025 157.598377 
L 241.91108 164.805725 
L 242.24191 168.627138 
L 242.57274 163.044848 
L 242.90357 168.195616 
L 243.2344 167.052128 
L 243.56523 165.247227 
L 243.89606 166.097273 
L 244.22689 167.343567 
L 244.55772 167.839363 
L 244.88855 162.343523 
L 245.21938 165.032679 
L 245.55021 164.812237 
L 245.88104 160.217445 
L 246.5427 164.857373 
L 246.87353 165.12089 
L 247.20436 171.308359 
L 247.53519 163.912101 
L 247.86602 159.874218 
L 248.19685 164.241802 
L 248.52768 175.099261 
L 248.85851 168.615409 
L 249.18934 165.928077 
L 249.52017 158.038905 
L 249.851 163.228566 
L 250.181831 163.701992 
L 250.512661 165.701901 
L 250.843491 164.772462 
L 251.174321 166.111035 
L 251.505151 164.894141 
L 251.835981 167.123119 
L 252.497641 160.089521 
L 252.828471 164.339658 
L 253.159301 162.330172 
L 253.490131 166.136832 
L 253.820961 162.597851 
L 254.151791 170.502692 
L 254.482621 171.394444 
L 254.813451 168.402571 
L 255.144281 161.697857 
L 255.475111 164.299467 
L 255.805941 165.040693 
L 256.136771 168.41814 
L 256.467601 162.780308 
L 256.798431 166.301083 
L 257.460091 161.095995 
L 257.790921 166.373749 
L 258.121751 165.11782 
L 258.452582 174.400926 
L 258.783412 164.170997 
L 259.114242 159.582869 
L 259.445072 163.831355 
L 259.775902 161.918137 
L 260.106732 160.814386 
L 260.437562 167.511723 
L 260.768392 165.204823 
L 261.099222 167.038699 
L 261.430052 164.876154 
L 261.760882 167.898213 
L 262.091712 165.392826 
L 262.422542 167.222652 
L 262.753372 165.749979 
L 263.084202 166.621233 
L 263.415032 164.387529 
L 263.745862 163.89921 
L 264.076692 163.852804 
L 264.407522 163.571119 
L 264.738352 165.583875 
L 265.069182 168.710698 
L 265.730842 165.694482 
L 266.061672 161.592704 
L 266.392502 167.300016 
L 266.723333 164.128249 
L 267.054163 166.695204 
L 267.384993 165.040853 
L 267.715823 161.665601 
L 268.046653 164.761301 
L 268.377483 164.334127 
L 268.708313 163.185111 
L 269.039143 169.700806 
L 269.369973 164.066984 
L 269.700803 160.599776 
L 270.031633 164.126339 
L 270.362463 163.851114 
L 270.693293 169.875607 
L 271.024123 154.030585 
L 271.354953 171.870221 
L 271.685783 165.271074 
L 272.016613 173.664333 
L 272.347443 164.702978 
L 272.678273 165.405029 
L 273.009103 156.226797 
L 273.339933 165.753334 
L 273.670763 168.771405 
L 274.001593 164.772083 
L 274.332423 166.779312 
L 274.663253 162.20343 
L 274.994083 167.963734 
L 275.324914 164.828355 
L 275.655744 167.458222 
L 275.986574 164.504443 
L 276.317404 168.352548 
L 276.648234 166.229341 
L 276.979064 159.664721 
L 277.309894 167.340646 
L 277.640724 168.345975 
L 277.971554 162.553434 
L 278.302384 166.29416 
L 278.633214 164.733662 
L 278.964044 167.479845 
L 279.294874 168.249777 
L 279.625704 161.915036 
L 279.956534 163.576481 
L 280.618194 168.618199 
L 280.949024 164.928995 
L 281.279854 169.215407 
L 281.610684 164.915452 
L 281.941514 163.311619 
L 282.603174 167.916958 
L 282.934004 164.994461 
L 283.264834 164.982743 
L 283.595665 164.111183 
L 283.926495 167.279996 
L 284.257325 168.469798 
L 284.588155 165.64022 
L 284.918985 164.218525 
L 285.249815 167.295864 
L 285.580645 162.127922 
L 285.911475 166.741558 
L 286.242305 163.570686 
L 286.573135 170.935908 
L 286.903965 160.542724 
L 287.565625 167.03071 
L 287.896455 166.725369 
L 288.227285 167.1088 
L 288.558115 165.957706 
L 288.888945 161.576235 
L 289.219775 164.57104 
L 289.550605 168.74064 
L 289.881435 171.342832 
L 290.212265 161.017227 
L 290.543095 162.472778 
L 290.873925 164.439203 
L 291.204755 170.254615 
L 291.535585 165.782939 
L 291.866416 165.860697 
L 292.197246 162.867574 
L 292.528076 165.294215 
L 292.858906 166.158667 
L 293.189736 168.098667 
L 293.851396 164.31158 
L 294.182226 167.287005 
L 294.513056 166.1306 
L 294.843886 163.496734 
L 295.505546 167.337918 
L 295.836376 163.860094 
L 296.498036 167.805927 
L 296.828866 164.196527 
L 297.159696 165.03803 
L 297.490526 165.505104 
L 297.821356 165.686084 
L 298.152186 170.762272 
L 298.483016 163.204203 
L 298.813846 159.629036 
L 299.144676 163.90368 
L 299.475506 170.156867 
L 299.806336 164.039494 
L 300.137167 166.755293 
L 300.467997 166.599801 
L 300.798827 164.034302 
L 301.129657 163.737727 
L 301.460487 166.396722 
L 301.791317 164.626948 
L 302.122147 169.466959 
L 302.452977 163.105372 
L 302.783807 166.503722 
L 303.114637 166.235743 
L 303.445467 165.553963 
L 303.776297 166.211048 
L 304.107127 164.89242 
L 304.437957 167.981528 
L 304.768787 168.909478 
L 305.099617 158.904995 
L 305.430447 163.876211 
L 305.761277 158.726561 
L 306.092107 161.971179 
L 306.753767 171.036384 
L 307.415427 159.682386 
L 307.746257 165.002262 
L 308.077087 163.681361 
L 308.407917 165.458653 
L 308.738748 164.873307 
L 309.069578 168.08675 
L 309.400408 184.011055 
L 309.731238 163.217691 
L 310.062068 157.321002 
L 310.392898 156.21685 
L 310.723728 154.201938 
L 311.054558 170.996242 
L 311.385388 161.074196 
L 311.716218 168.440882 
L 312.047048 168.593323 
L 312.377878 160.723041 
L 312.708708 177.695556 
L 313.039538 162.553156 
L 313.370368 173.348356 
L 313.701198 170.215629 
L 314.032028 169.454741 
L 314.362858 163.174956 
L 314.693688 170.276934 
L 315.024518 168.668809 
L 315.355348 165.131649 
L 315.686178 165.976471 
L 316.017008 164.309562 
L 316.347838 163.631092 
L 316.678668 167.578026 
L 317.009499 156.824388 
L 317.340329 160.487226 
L 317.671159 162.186764 
L 318.001989 152.750801 
L 318.332819 168.974133 
L 318.663649 162.283172 
L 318.994479 168.174807 
L 319.656139 161.905883 
L 319.986969 169.28208 
L 320.317799 169.796686 
L 320.648629 165.302521 
L 320.979459 163.133836 
L 321.310289 169.153585 
L 321.641119 164.986881 
L 321.971949 167.068937 
L 322.302779 166.17651 
L 322.633609 172.700141 
L 322.964439 165.873114 
L 323.295269 169.022854 
L 323.626099 159.827453 
L 323.956929 168.127041 
L 324.287759 166.291361 
L 324.618589 168.82535 
L 324.949419 160.870227 
L 325.28025 167.083068 
L 325.61108 165.037886 
L 325.94191 163.735322 
L 326.27274 161.285697 
L 326.60357 170.503229 
L 326.9344 158.810218 
L 327.26523 164.884899 
L 327.59606 166.852667 
L 327.92689 159.207741 
L 328.91938 168.97808 
L 329.25021 165.071068 
L 329.58104 168.792097 
L 329.91187 165.801013 
L 330.2427 164.306955 
L 330.57353 166.189269 
L 330.90436 166.025034 
L 331.23519 168.234897 
L 331.56602 163.267165 
L 331.89685 167.826538 
L 332.22768 168.058244 
L 332.55851 164.982625 
L 332.88934 168.851566 
L 333.22017 166.254463 
L 333.551 164.804448 
L 333.881831 165.41768 
L 334.212661 165.438642 
L 334.543491 165.770021 
L 334.874321 164.469573 
L 335.205151 165.687275 
L 335.535981 165.660555 
L 335.866811 166.076206 
L 336.197641 164.015964 
L 336.528471 165.264493 
L 336.859301 165.141017 
L 337.190131 167.136639 
L 337.520961 166.18738 
L 338.182621 167.26153 
L 338.513451 163.726487 
L 339.175111 167.867894 
L 339.505941 165.605833 
L 339.836771 166.016575 
L 340.167601 168.064725 
L 340.498431 166.630606 
L 340.829261 166.580136 
L 341.160091 166.414677 
L 341.490921 164.967664 
L 342.152582 166.199757 
L 342.483412 164.957107 
L 342.814242 165.620105 
L 343.145072 168.188324 
L 343.475902 166.595082 
L 343.806732 166.865706 
L 344.137562 165.095326 
L 344.468392 166.300702 
L 344.799222 165.175867 
L 345.130052 164.989002 
L 345.460882 166.485478 
L 345.791712 160.137445 
L 346.122542 161.756434 
L 346.453372 171.93559 
L 346.784202 167.920221 
L 347.115032 160.785278 
L 347.445862 168.608481 
L 347.776692 155.655791 
L 348.107522 173.698913 
L 348.438352 160.230122 
L 348.769182 163.248026 
L 349.100012 154.717599 
L 349.430842 165.586643 
L 349.761672 172.162424 
L 350.092502 145.964589 
L 350.423333 198.887379 
L 350.754163 168.472513 
L 351.084993 164.186872 
L 351.415823 173.615638 
L 351.746653 169.243249 
L 352.077483 159.031341 
L 352.408313 173.177376 
L 352.739143 137.320117 
L 353.069973 169.597348 
L 353.400803 162.675867 
L 353.731633 165.637953 
L 354.062463 161.743328 
L 354.393293 164.406416 
L 355.054953 178.54347 
L 355.385783 174.060009 
L 356.047443 159.560805 
L 356.047443 159.560805 
" style="fill:none;stroke:#1f77b4;stroke-linecap:square;stroke-width:1.5;"/>
   </g>
   <g id="patch_3">
    <path d="M 36.465625 228.14 
L 36.465625 10.7 
" style="fill:none;stroke:#000000;stroke-linecap:square;stroke-linejoin:miter;stroke-width:0.8;"/>
   </g>
   <g id="patch_4">
    <path d="M 371.265625 228.14 
L 371.265625 10.7 
" style="fill:none;stroke:#000000;stroke-linecap:square;stroke-linejoin:miter;stroke-width:0.8;"/>
   </g>
   <g id="patch_5">
    <path d="M 36.465625 228.14 
L 371.265625 228.14 
" style="fill:none;stroke:#000000;stroke-linecap:square;stroke-linejoin:miter;stroke-width:0.8;"/>
   </g>
   <g id="patch_6">
    <path d="M 36.465625 10.7 
L 371.265625 10.7 
" style="fill:none;stroke:#000000;stroke-linecap:square;stroke-linejoin:miter;stroke-width:0.8;"/>
   </g>
  </g>
 </g>
 <defs>
  <clipPath id="p8522678655">
   <rect height="217.44" width="334.8" x="36.465625" y="10.7"/>
  </clipPath>
 </defs>
</svg>
