<?xml version="1.0" encoding="utf-8" standalone="no"?>
<!DOCTYPE svg PUBLIC "-//W3C//DTD SVG 1.1//EN"
  "http://www.w3.org/Graphics/SVG/1.1/DTD/svg11.dtd">
<!-- Created with matplotlib (http://matplotlib.org/) -->
<svg height="300.690125pt" version="1.1" viewBox="0 0 404.285625 300.690125" width="404.285625pt" xmlns="http://www.w3.org/2000/svg" xmlns:xlink="http://www.w3.org/1999/xlink">
 <defs>
  <style type="text/css">
*{stroke-linecap:butt;stroke-linejoin:round;}
  </style>
 </defs>
 <g id="figure_1">
  <g id="patch_1">
   <path d="M 0 300.690125 
L 404.285625 300.690125 
L 404.285625 0 
L 0 0 
z
" style="fill:#ffffff;"/>
  </g>
  <g id="axes_1">
   <g id="patch_2">
    <path d="M 36.465625 276.812 
L 393.585625 276.812 
L 393.585625 10.7 
L 36.465625 10.7 
z
" style="fill:#ffffff;"/>
   </g>
   <g id="matplotlib.axis_1">
    <g id="xtick_1">
     <g id="line2d_1">
      <defs>
       <path d="M 0 0 
L 0 3.5 
" id="m2aa646f6a2" style="stroke:#000000;stroke-width:0.8;"/>
      </defs>
      <g>
       <use style="stroke:#000000;stroke-width:0.8;" x="52.698352" xlink:href="#m2aa646f6a2" y="276.812"/>
      </g>
     </g>
     <g id="text_1">
      <!-- 0 -->
      <defs>
       <path d="M 31.78125 66.40625 
Q 24.171875 66.40625 20.328125 58.90625 
Q 16.5 51.421875 16.5 36.375 
Q 16.5 21.390625 20.328125 13.890625 
Q 24.171875 6.390625 31.78125 6.390625 
Q 39.453125 6.390625 43.28125 13.890625 
Q 47.125 21.390625 47.125 36.375 
Q 47.125 51.421875 43.28125 58.90625 
Q 39.453125 66.40625 31.78125 66.40625 
z
M 31.78125 74.21875 
Q 44.046875 74.21875 50.515625 64.515625 
Q 56.984375 54.828125 56.984375 36.375 
Q 56.984375 17.96875 50.515625 8.265625 
Q 44.046875 -1.421875 31.78125 -1.421875 
Q 19.53125 -1.421875 13.0625 8.265625 
Q 6.59375 17.96875 6.59375 36.375 
Q 6.59375 54.828125 13.0625 64.515625 
Q 19.53125 74.21875 31.78125 74.21875 
z
" id="DejaVuSans-30"/>
      </defs>
      <g transform="translate(49.517102 291.410437)scale(0.1 -0.1)">
       <use xlink:href="#DejaVuSans-30"/>
      </g>
     </g>
    </g>
    <g id="xtick_2">
     <g id="line2d_2">
      <g>
       <use style="stroke:#000000;stroke-width:0.8;" x="123.275427" xlink:href="#m2aa646f6a2" y="276.812"/>
      </g>
     </g>
     <g id="text_2">
      <!-- 200 -->
      <defs>
       <path d="M 19.1875 8.296875 
L 53.609375 8.296875 
L 53.609375 0 
L 7.328125 0 
L 7.328125 8.296875 
Q 12.9375 14.109375 22.625 23.890625 
Q 32.328125 33.6875 34.8125 36.53125 
Q 39.546875 41.84375 41.421875 45.53125 
Q 43.3125 49.21875 43.3125 52.78125 
Q 43.3125 58.59375 39.234375 62.25 
Q 35.15625 65.921875 28.609375 65.921875 
Q 23.96875 65.921875 18.8125 64.3125 
Q 13.671875 62.703125 7.8125 59.421875 
L 7.8125 69.390625 
Q 13.765625 71.78125 18.9375 73 
Q 24.125 74.21875 28.421875 74.21875 
Q 39.75 74.21875 46.484375 68.546875 
Q 53.21875 62.890625 53.21875 53.421875 
Q 53.21875 48.921875 51.53125 44.890625 
Q 49.859375 40.875 45.40625 35.40625 
Q 44.1875 33.984375 37.640625 27.21875 
Q 31.109375 20.453125 19.1875 8.296875 
z
" id="DejaVuSans-32"/>
      </defs>
      <g transform="translate(113.731677 291.410437)scale(0.1 -0.1)">
       <use xlink:href="#DejaVuSans-32"/>
       <use x="63.623047" xlink:href="#DejaVuSans-30"/>
       <use x="127.246094" xlink:href="#DejaVuSans-30"/>
      </g>
     </g>
    </g>
    <g id="xtick_3">
     <g id="line2d_3">
      <g>
       <use style="stroke:#000000;stroke-width:0.8;" x="193.852502" xlink:href="#m2aa646f6a2" y="276.812"/>
      </g>
     </g>
     <g id="text_3">
      <!-- 400 -->
      <defs>
       <path d="M 37.796875 64.3125 
L 12.890625 25.390625 
L 37.796875 25.390625 
z
M 35.203125 72.90625 
L 47.609375 72.90625 
L 47.609375 25.390625 
L 58.015625 25.390625 
L 58.015625 17.1875 
L 47.609375 17.1875 
L 47.609375 0 
L 37.796875 0 
L 37.796875 17.1875 
L 4.890625 17.1875 
L 4.890625 26.703125 
z
" id="DejaVuSans-34"/>
      </defs>
      <g transform="translate(184.308752 291.410437)scale(0.1 -0.1)">
       <use xlink:href="#DejaVuSans-34"/>
       <use x="63.623047" xlink:href="#DejaVuSans-30"/>
       <use x="127.246094" xlink:href="#DejaVuSans-30"/>
      </g>
     </g>
    </g>
    <g id="xtick_4">
     <g id="line2d_4">
      <g>
       <use style="stroke:#000000;stroke-width:0.8;" x="264.429578" xlink:href="#m2aa646f6a2" y="276.812"/>
      </g>
     </g>
     <g id="text_4">
      <!-- 600 -->
      <defs>
       <path d="M 33.015625 40.375 
Q 26.375 40.375 22.484375 35.828125 
Q 18.609375 31.296875 18.609375 23.390625 
Q 18.609375 15.53125 22.484375 10.953125 
Q 26.375 6.390625 33.015625 6.390625 
Q 39.65625 6.390625 43.53125 10.953125 
Q 47.40625 15.53125 47.40625 23.390625 
Q 47.40625 31.296875 43.53125 35.828125 
Q 39.65625 40.375 33.015625 40.375 
z
M 52.59375 71.296875 
L 52.59375 62.3125 
Q 48.875 64.0625 45.09375 64.984375 
Q 41.3125 65.921875 37.59375 65.921875 
Q 27.828125 65.921875 22.671875 59.328125 
Q 17.53125 52.734375 16.796875 39.40625 
Q 19.671875 43.65625 24.015625 45.921875 
Q 28.375 48.1875 33.59375 48.1875 
Q 44.578125 48.1875 50.953125 41.515625 
Q 57.328125 34.859375 57.328125 23.390625 
Q 57.328125 12.15625 50.6875 5.359375 
Q 44.046875 -1.421875 33.015625 -1.421875 
Q 20.359375 -1.421875 13.671875 8.265625 
Q 6.984375 17.96875 6.984375 36.375 
Q 6.984375 53.65625 15.1875 63.9375 
Q 23.390625 74.21875 37.203125 74.21875 
Q 40.921875 74.21875 44.703125 73.484375 
Q 48.484375 72.75 52.59375 71.296875 
z
" id="DejaVuSans-36"/>
      </defs>
      <g transform="translate(254.885828 291.410437)scale(0.1 -0.1)">
       <use xlink:href="#DejaVuSans-36"/>
       <use x="63.623047" xlink:href="#DejaVuSans-30"/>
       <use x="127.246094" xlink:href="#DejaVuSans-30"/>
      </g>
     </g>
    </g>
    <g id="xtick_5">
     <g id="line2d_5">
      <g>
       <use style="stroke:#000000;stroke-width:0.8;" x="335.006653" xlink:href="#m2aa646f6a2" y="276.812"/>
      </g>
     </g>
     <g id="text_5">
      <!-- 800 -->
      <defs>
       <path d="M 31.78125 34.625 
Q 24.75 34.625 20.71875 30.859375 
Q 16.703125 27.09375 16.703125 20.515625 
Q 16.703125 13.921875 20.71875 10.15625 
Q 24.75 6.390625 31.78125 6.390625 
Q 38.8125 6.390625 42.859375 10.171875 
Q 46.921875 13.96875 46.921875 20.515625 
Q 46.921875 27.09375 42.890625 30.859375 
Q 38.875 34.625 31.78125 34.625 
z
M 21.921875 38.8125 
Q 15.578125 40.375 12.03125 44.71875 
Q 8.5 49.078125 8.5 55.328125 
Q 8.5 64.0625 14.71875 69.140625 
Q 20.953125 74.21875 31.78125 74.21875 
Q 42.671875 74.21875 48.875 69.140625 
Q 55.078125 64.0625 55.078125 55.328125 
Q 55.078125 49.078125 51.53125 44.71875 
Q 48 40.375 41.703125 38.8125 
Q 48.828125 37.15625 52.796875 32.3125 
Q 56.78125 27.484375 56.78125 20.515625 
Q 56.78125 9.90625 50.3125 4.234375 
Q 43.84375 -1.421875 31.78125 -1.421875 
Q 19.734375 -1.421875 13.25 4.234375 
Q 6.78125 9.90625 6.78125 20.515625 
Q 6.78125 27.484375 10.78125 32.3125 
Q 14.796875 37.15625 21.921875 38.8125 
z
M 18.3125 54.390625 
Q 18.3125 48.734375 21.84375 45.5625 
Q 25.390625 42.390625 31.78125 42.390625 
Q 38.140625 42.390625 41.71875 45.5625 
Q 45.3125 48.734375 45.3125 54.390625 
Q 45.3125 60.0625 41.71875 63.234375 
Q 38.140625 66.40625 31.78125 66.40625 
Q 25.390625 66.40625 21.84375 63.234375 
Q 18.3125 60.0625 18.3125 54.390625 
z
" id="DejaVuSans-38"/>
      </defs>
      <g transform="translate(325.462903 291.410437)scale(0.1 -0.1)">
       <use xlink:href="#DejaVuSans-38"/>
       <use x="63.623047" xlink:href="#DejaVuSans-30"/>
       <use x="127.246094" xlink:href="#DejaVuSans-30"/>
      </g>
     </g>
    </g>
   </g>
   <g id="matplotlib.axis_2">
    <g id="ytick_1">
     <g id="line2d_6">
      <defs>
       <path d="M 0 0 
L -3.5 0 
" id="m1b478b8252" style="stroke:#000000;stroke-width:0.8;"/>
      </defs>
      <g>
       <use style="stroke:#000000;stroke-width:0.8;" x="36.465625" xlink:href="#m1b478b8252" y="258.65257"/>
      </g>
     </g>
     <g id="text_6">
      <!-- 5.0 -->
      <defs>
       <path d="M 10.796875 72.90625 
L 49.515625 72.90625 
L 49.515625 64.59375 
L 19.828125 64.59375 
L 19.828125 46.734375 
Q 21.96875 47.46875 24.109375 47.828125 
Q 26.265625 48.1875 28.421875 48.1875 
Q 40.625 48.1875 47.75 41.5 
Q 54.890625 34.8125 54.890625 23.390625 
Q 54.890625 11.625 47.5625 5.09375 
Q 40.234375 -1.421875 26.90625 -1.421875 
Q 22.3125 -1.421875 17.546875 -0.640625 
Q 12.796875 0.140625 7.71875 1.703125 
L 7.71875 11.625 
Q 12.109375 9.234375 16.796875 8.0625 
Q 21.484375 6.890625 26.703125 6.890625 
Q 35.15625 6.890625 40.078125 11.328125 
Q 45.015625 15.765625 45.015625 23.390625 
Q 45.015625 31 40.078125 35.4375 
Q 35.15625 39.890625 26.703125 39.890625 
Q 22.75 39.890625 18.8125 39.015625 
Q 14.890625 38.140625 10.796875 36.28125 
z
" id="DejaVuSans-35"/>
       <path d="M 10.6875 12.40625 
L 21 12.40625 
L 21 0 
L 10.6875 0 
z
" id="DejaVuSans-2e"/>
      </defs>
      <g transform="translate(13.5625 262.451789)scale(0.1 -0.1)">
       <use xlink:href="#DejaVuSans-35"/>
       <use x="63.623047" xlink:href="#DejaVuSans-2e"/>
       <use x="95.410156" xlink:href="#DejaVuSans-30"/>
      </g>
     </g>
    </g>
    <g id="ytick_2">
     <g id="line2d_7">
      <g>
       <use style="stroke:#000000;stroke-width:0.8;" x="36.465625" xlink:href="#m1b478b8252" y="228.413366"/>
      </g>
     </g>
     <g id="text_7">
      <!-- 7.5 -->
      <defs>
       <path d="M 8.203125 72.90625 
L 55.078125 72.90625 
L 55.078125 68.703125 
L 28.609375 0 
L 18.3125 0 
L 43.21875 64.59375 
L 8.203125 64.59375 
z
" id="DejaVuSans-37"/>
      </defs>
      <g transform="translate(13.5625 232.212585)scale(0.1 -0.1)">
       <use xlink:href="#DejaVuSans-37"/>
       <use x="63.623047" xlink:href="#DejaVuSans-2e"/>
       <use x="95.410156" xlink:href="#DejaVuSans-35"/>
      </g>
     </g>
    </g>
    <g id="ytick_3">
     <g id="line2d_8">
      <g>
       <use style="stroke:#000000;stroke-width:0.8;" x="36.465625" xlink:href="#m1b478b8252" y="198.174162"/>
      </g>
     </g>
     <g id="text_8">
      <!-- 10.0 -->
      <defs>
       <path d="M 12.40625 8.296875 
L 28.515625 8.296875 
L 28.515625 63.921875 
L 10.984375 60.40625 
L 10.984375 69.390625 
L 28.421875 72.90625 
L 38.28125 72.90625 
L 38.28125 8.296875 
L 54.390625 8.296875 
L 54.390625 0 
L 12.40625 0 
z
" id="DejaVuSans-31"/>
      </defs>
      <g transform="translate(7.2 201.973381)scale(0.1 -0.1)">
       <use xlink:href="#DejaVuSans-31"/>
       <use x="63.623047" xlink:href="#DejaVuSans-30"/>
       <use x="127.246094" xlink:href="#DejaVuSans-2e"/>
       <use x="159.033203" xlink:href="#DejaVuSans-30"/>
      </g>
     </g>
    </g>
    <g id="ytick_4">
     <g id="line2d_9">
      <g>
       <use style="stroke:#000000;stroke-width:0.8;" x="36.465625" xlink:href="#m1b478b8252" y="167.934958"/>
      </g>
     </g>
     <g id="text_9">
      <!-- 12.5 -->
      <g transform="translate(7.2 171.734177)scale(0.1 -0.1)">
       <use xlink:href="#DejaVuSans-31"/>
       <use x="63.623047" xlink:href="#DejaVuSans-32"/>
       <use x="127.246094" xlink:href="#DejaVuSans-2e"/>
       <use x="159.033203" xlink:href="#DejaVuSans-35"/>
      </g>
     </g>
    </g>
    <g id="ytick_5">
     <g id="line2d_10">
      <g>
       <use style="stroke:#000000;stroke-width:0.8;" x="36.465625" xlink:href="#m1b478b8252" y="137.695755"/>
      </g>
     </g>
     <g id="text_10">
      <!-- 15.0 -->
      <g transform="translate(7.2 141.494973)scale(0.1 -0.1)">
       <use xlink:href="#DejaVuSans-31"/>
       <use x="63.623047" xlink:href="#DejaVuSans-35"/>
       <use x="127.246094" xlink:href="#DejaVuSans-2e"/>
       <use x="159.033203" xlink:href="#DejaVuSans-30"/>
      </g>
     </g>
    </g>
    <g id="ytick_6">
     <g id="line2d_11">
      <g>
       <use style="stroke:#000000;stroke-width:0.8;" x="36.465625" xlink:href="#m1b478b8252" y="107.456551"/>
      </g>
     </g>
     <g id="text_11">
      <!-- 17.5 -->
      <g transform="translate(7.2 111.25577)scale(0.1 -0.1)">
       <use xlink:href="#DejaVuSans-31"/>
       <use x="63.623047" xlink:href="#DejaVuSans-37"/>
       <use x="127.246094" xlink:href="#DejaVuSans-2e"/>
       <use x="159.033203" xlink:href="#DejaVuSans-35"/>
      </g>
     </g>
    </g>
    <g id="ytick_7">
     <g id="line2d_12">
      <g>
       <use style="stroke:#000000;stroke-width:0.8;" x="36.465625" xlink:href="#m1b478b8252" y="77.217347"/>
      </g>
     </g>
     <g id="text_12">
      <!-- 20.0 -->
      <g transform="translate(7.2 81.016566)scale(0.1 -0.1)">
       <use xlink:href="#DejaVuSans-32"/>
       <use x="63.623047" xlink:href="#DejaVuSans-30"/>
       <use x="127.246094" xlink:href="#DejaVuSans-2e"/>
       <use x="159.033203" xlink:href="#DejaVuSans-30"/>
      </g>
     </g>
    </g>
    <g id="ytick_8">
     <g id="line2d_13">
      <g>
       <use style="stroke:#000000;stroke-width:0.8;" x="36.465625" xlink:href="#m1b478b8252" y="46.978143"/>
      </g>
     </g>
     <g id="text_13">
      <!-- 22.5 -->
      <g transform="translate(7.2 50.777362)scale(0.1 -0.1)">
       <use xlink:href="#DejaVuSans-32"/>
       <use x="63.623047" xlink:href="#DejaVuSans-32"/>
       <use x="127.246094" xlink:href="#DejaVuSans-2e"/>
       <use x="159.033203" xlink:href="#DejaVuSans-35"/>
      </g>
     </g>
    </g>
    <g id="ytick_9">
     <g id="line2d_14">
      <g>
       <use style="stroke:#000000;stroke-width:0.8;" x="36.465625" xlink:href="#m1b478b8252" y="16.738939"/>
      </g>
     </g>
     <g id="text_14">
      <!-- 25.0 -->
      <g transform="translate(7.2 20.538158)scale(0.1 -0.1)">
       <use xlink:href="#DejaVuSans-32"/>
       <use x="63.623047" xlink:href="#DejaVuSans-35"/>
       <use x="127.246094" xlink:href="#DejaVuSans-2e"/>
       <use x="159.033203" xlink:href="#DejaVuSans-30"/>
      </g>
     </g>
    </g>
   </g>
   <g id="line2d_15">
    <path clip-path="url(#pec3241b8fd)" d="M 52.698352 197.132142 
L 53.051238 200.745145 
L 53.404123 200.861259 
L 53.757008 201.294958 
L 54.109894 201.969721 
L 54.462779 202.22704 
L 54.815665 200.6727 
L 55.16855 203.472733 
L 55.521435 199.520372 
L 55.874321 202.29116 
L 56.227206 195.807194 
L 56.580091 198.31219 
L 56.932977 199.235121 
L 57.285862 201.637702 
L 57.638748 200.597924 
L 57.991633 195.400791 
L 58.344518 200.514767 
L 58.697404 198.964968 
L 59.050289 205.77705 
L 59.403174 198.176536 
L 59.75606 198.300723 
L 60.108945 199.286806 
L 60.461831 201.680266 
L 60.814716 198.160429 
L 61.167601 204.667573 
L 61.873372 195.174615 
L 62.226257 197.059 
L 62.579143 206.759981 
L 62.932028 195.944451 
L 63.284914 211.581098 
L 63.637799 211.798176 
L 64.34357 181.627062 
L 64.696455 184.681707 
L 65.04934 198.628061 
L 65.402226 205.841844 
L 65.755111 192.105081 
L 66.107997 201.266416 
L 66.460882 202.475247 
L 66.813767 196.589594 
L 67.166653 202.785381 
L 67.519538 203.161006 
L 67.872423 194.878319 
L 68.225309 204.558168 
L 68.578194 198.800129 
L 68.93108 198.251845 
L 69.283965 198.577145 
L 69.63685 200.088524 
L 69.989736 203.013446 
L 70.342621 201.074771 
L 70.695506 201.763683 
L 71.048392 201.655891 
L 71.401277 202.996075 
L 71.754163 195.635933 
L 72.459933 201.660541 
L 73.165704 195.879155 
L 73.518589 201.792067 
L 73.871475 193.02004 
L 74.22436 194.641043 
L 74.577246 195.308701 
L 74.930131 194.168793 
L 75.283016 201.650069 
L 75.635902 222.913585 
L 75.988787 197.614601 
L 76.341672 187.940711 
L 76.694558 203.245142 
L 77.047443 192.481062 
L 77.400329 203.434672 
L 77.753214 204.740943 
L 78.106099 206.912846 
L 78.458985 174.389907 
L 78.81187 181.489004 
L 79.164755 173.273798 
L 79.517641 188.34388 
L 79.870526 191.567293 
L 80.223412 224.690827 
L 80.576297 211.385943 
L 80.929182 203.389245 
L 81.282068 178.969802 
L 81.987838 205.945753 
L 82.340724 210.875857 
L 82.693609 199.003789 
L 83.046495 204.73387 
L 83.39938 204.370057 
L 83.752265 211.344731 
L 84.105151 198.978196 
L 84.458036 208.480361 
L 84.810921 197.501862 
L 85.163807 206.928522 
L 85.516692 198.833698 
L 85.869578 197.538911 
L 86.222463 184.362031 
L 86.575348 218.739173 
L 86.928234 218.079479 
L 87.281119 214.686749 
L 87.634004 200.348942 
L 87.98689 204.91418 
L 88.339775 202.742495 
L 88.692661 190.661648 
L 89.045546 168.849167 
L 89.398431 198.270085 
L 89.751317 184.770439 
L 90.104202 176.690757 
L 90.457087 186.545777 
L 90.809973 251.57327 
L 91.162858 175.36576 
L 91.515744 194.309625 
L 91.868629 188.794766 
L 92.221514 187.973063 
L 92.5744 211.894661 
L 92.927285 183.938517 
L 93.28017 212.089334 
L 93.633056 178.367863 
L 93.985941 206.10154 
L 94.338827 221.940192 
L 94.691712 199.785132 
L 95.044597 119.874558 
L 95.397483 149.909514 
L 95.750368 264.716 
L 96.103253 220.914896 
L 96.456139 247.241033 
L 96.809024 163.945777 
L 97.16191 22.796 
L 97.514795 263.74161 
L 97.86768 197.638453 
L 98.573451 256.848013 
L 98.926336 187.818529 
L 99.279222 184.897931 
L 99.632107 195.778467 
L 99.984993 122.336433 
L 100.337878 106.681267 
L 101.043649 219.375307 
L 101.396534 198.145366 
L 101.749419 217.471275 
L 102.102305 210.248169 
L 102.45519 197.178599 
L 102.808076 164.702466 
L 103.160961 194.274072 
L 103.513846 202.2203 
L 103.866732 184.546788 
L 104.219617 197.846351 
L 104.572502 197.597556 
L 104.925388 201.129684 
L 105.984044 192.905464 
L 106.336929 198.328939 
L 106.689815 194.016177 
L 107.0427 208.989104 
L 107.395585 192.416128 
L 107.748471 208.953012 
L 108.454242 149.383615 
L 108.807127 197.707667 
L 109.160012 190.574324 
L 109.512898 177.942392 
L 109.865783 202.787692 
L 110.218668 198.083236 
L 110.571554 215.149108 
L 110.924439 200.738574 
L 111.277325 203.292578 
L 111.63021 195.789531 
L 111.983095 167.239967 
L 112.335981 201.427627 
L 112.688866 211.530015 
L 113.041751 227.212458 
L 113.394637 232.898901 
L 113.747522 223.168849 
L 114.100408 164.61675 
L 114.453293 188.616555 
L 114.806178 204.915405 
L 115.159064 209.822674 
L 115.511949 202.847693 
L 115.864834 166.795889 
L 116.21772 194.010703 
L 117.276376 221.682589 
L 117.629261 177.450151 
L 117.982147 221.23161 
L 118.335032 203.695416 
L 118.687917 139.319799 
L 119.040803 238.334356 
L 119.393688 214.741043 
L 119.746574 228.857737 
L 120.099459 181.569002 
L 120.80523 240.349006 
L 121.158115 179.627344 
L 121.511 213.295093 
L 121.863886 191.230094 
L 122.216771 201.209969 
L 122.569657 194.062553 
L 122.922542 196.171375 
L 123.275427 212.236983 
L 123.628313 199.197008 
L 123.981198 207.530692 
L 124.334083 186.90583 
L 124.686969 216.039249 
L 125.039854 198.684434 
L 125.39274 210.940693 
L 125.745625 184.355892 
L 126.451396 217.045915 
L 126.804281 197.658465 
L 127.157167 198.955633 
L 127.510052 204.45732 
L 127.862937 173.213259 
L 128.215823 212.705755 
L 128.568708 202.380582 
L 128.921593 204.301252 
L 129.274479 209.007516 
L 129.627364 199.177504 
L 129.98025 204.710319 
L 130.333135 198.377308 
L 130.68602 204.111746 
L 131.038906 196.780676 
L 131.391791 197.695322 
L 131.744676 212.178129 
L 132.097562 199.881336 
L 132.450447 199.200906 
L 132.803333 196.101614 
L 133.156218 205.015518 
L 133.509103 200.488914 
L 133.861989 190.866333 
L 134.214874 202.565338 
L 134.567759 199.250103 
L 134.920645 203.381221 
L 135.27353 204.460739 
L 135.626416 207.866761 
L 135.979301 203.399732 
L 136.332186 195.11745 
L 136.685072 208.112796 
L 137.037957 200.83366 
L 137.390842 201.408955 
L 137.743728 200.707687 
L 138.096613 201.049442 
L 138.449499 201.210453 
L 138.802384 200.474834 
L 139.155269 202.384245 
L 139.508155 206.720788 
L 139.86104 195.950698 
L 140.213925 200.384008 
L 140.566811 198.682466 
L 140.919696 202.589503 
L 141.272582 201.624411 
L 141.625467 202.158554 
L 141.978352 201.879401 
L 142.331238 210.37787 
L 142.684123 202.61331 
L 143.037008 208.429396 
L 143.389894 192.845707 
L 143.742779 199.060812 
L 144.095665 200.835902 
L 144.44855 200.736586 
L 144.801435 202.878802 
L 145.154321 196.559642 
L 145.507206 202.638367 
L 145.860091 191.944199 
L 146.212977 208.77285 
L 146.565862 207.306384 
L 146.918748 218.092873 
L 147.624518 198.425008 
L 147.977404 199.765999 
L 148.330289 205.951037 
L 148.683174 205.432602 
L 149.03606 199.600976 
L 149.388945 205.361126 
L 149.741831 204.282505 
L 150.094716 198.965163 
L 150.447601 151.500503 
L 150.800487 171.566979 
L 151.153372 213.860393 
L 151.506257 199.693905 
L 151.859143 200.834728 
L 152.212028 204.173929 
L 152.564914 201.253213 
L 152.917799 203.81932 
L 153.270684 204.997101 
L 153.976455 196.894435 
L 154.32934 199.767204 
L 154.682226 201.596951 
L 155.035111 201.267702 
L 155.387997 202.361824 
L 155.740882 201.823548 
L 156.093767 201.488799 
L 156.446653 194.551082 
L 156.799538 196.257282 
L 157.152423 181.899879 
L 157.505309 202.65873 
L 157.858194 195.129581 
L 158.21108 199.812398 
L 158.563965 200.616495 
L 158.91685 198.018881 
L 159.269736 201.91978 
L 159.622621 199.79801 
L 159.975506 208.896047 
L 160.328392 195.505872 
L 160.681277 202.435095 
L 161.034163 199.001197 
L 161.387048 201.251259 
L 161.739933 201.353319 
L 162.092819 196.136867 
L 162.445704 199.458787 
L 162.798589 193.168808 
L 163.151475 200.747311 
L 163.50436 199.292706 
L 163.857246 201.488896 
L 164.210131 200.29302 
L 164.563016 205.478547 
L 164.915902 205.380505 
L 165.268787 195.524467 
L 165.621672 198.787045 
L 165.974558 197.82365 
L 166.327443 201.974975 
L 166.680329 200.171489 
L 167.033214 200.237151 
L 167.386099 202.193767 
L 167.738985 207.59201 
L 168.09187 197.667527 
L 168.444755 201.291321 
L 168.797641 193.854191 
L 169.150526 204.87499 
L 169.503412 203.617661 
L 169.856297 200.97092 
L 170.209182 199.364091 
L 170.562068 205.063601 
L 170.914953 203.34382 
L 171.267838 202.997349 
L 171.620724 201.753686 
L 171.973609 199.043471 
L 172.326495 203.700157 
L 172.67938 197.556333 
L 173.032265 198.167705 
L 173.385151 203.097542 
L 173.738036 200.831253 
L 174.090921 199.616187 
L 174.443807 190.685528 
L 174.796692 203.448552 
L 175.149578 200.321389 
L 175.502463 200.766556 
L 175.855348 205.174002 
L 176.208234 197.702596 
L 176.561119 198.840088 
L 176.914004 198.396237 
L 177.619775 202.244062 
L 177.972661 200.089996 
L 178.325546 203.178091 
L 178.678431 203.17426 
L 179.031317 196.806914 
L 179.384202 198.020159 
L 179.737087 204.502679 
L 180.089973 202.33032 
L 180.442858 198.452801 
L 180.795744 196.832441 
L 181.148629 204.642452 
L 181.8544 195.28269 
L 182.207285 198.117475 
L 182.913056 192.460222 
L 183.265941 207.649402 
L 183.618827 200.28826 
L 183.971712 198.648851 
L 184.324597 200.941378 
L 184.677483 196.679663 
L 185.030368 203.97373 
L 185.383253 200.160724 
L 185.736139 199.581206 
L 186.089024 194.605739 
L 186.44191 203.009252 
L 186.794795 201.917143 
L 187.14768 201.678489 
L 187.500566 203.09991 
L 187.853451 196.497474 
L 188.206336 203.727199 
L 188.559222 202.23847 
L 188.912107 199.207861 
L 189.264993 201.394792 
L 189.617878 195.47355 
L 189.970763 203.243688 
L 190.323649 203.117729 
L 190.676534 203.575658 
L 191.029419 192.267919 
L 191.382305 195.584441 
L 191.73519 205.302327 
L 192.088076 190.842517 
L 192.440961 201.90258 
L 193.146732 199.854581 
L 193.852502 198.394662 
L 194.205388 202.322424 
L 194.911159 193.214565 
L 195.264044 206.521344 
L 195.616929 204.566742 
L 195.969815 203.566594 
L 196.3227 198.464724 
L 196.675585 200.079784 
L 197.028471 199.416626 
L 197.381356 194.937175 
L 197.734242 198.995066 
L 198.087127 208.48943 
L 198.440012 190.160743 
L 198.792898 207.339252 
L 199.145783 202.445641 
L 199.498668 192.722651 
L 199.851554 197.599247 
L 200.204439 199.424979 
L 200.557325 209.269968 
L 200.91021 203.076663 
L 201.263095 192.955675 
L 201.615981 197.220919 
L 201.968866 188.075081 
L 202.321751 196.934473 
L 202.674637 196.273663 
L 203.027522 203.433089 
L 203.380408 201.985323 
L 203.733293 197.074254 
L 204.086178 198.762342 
L 204.439064 208.25848 
L 204.791949 200.373318 
L 205.144834 201.071551 
L 205.49772 205.759862 
L 205.850605 204.040467 
L 206.203491 210.157513 
L 206.556376 201.934545 
L 206.909261 201.002182 
L 207.262147 201.69539 
L 207.615032 202.646745 
L 207.967917 195.266685 
L 208.320803 202.135716 
L 208.673688 199.787344 
L 209.026574 188.803596 
L 209.379459 200.671381 
L 209.732344 203.311557 
L 210.08523 199.959763 
L 210.438115 203.85031 
L 210.791 202.525924 
L 211.143886 186.271558 
L 211.496771 229.959136 
L 212.202542 202.876395 
L 212.555427 199.836602 
L 212.908313 195.451689 
L 213.261198 201.348095 
L 213.614083 180.370923 
L 213.966969 207.816859 
L 214.319854 199.999926 
L 214.67274 197.111214 
L 215.025625 199.814883 
L 215.37851 188.976778 
L 215.731396 202.310724 
L 216.084281 199.560657 
L 216.437167 198.574568 
L 216.790052 198.725768 
L 217.142937 203.903783 
L 217.495823 211.534068 
L 217.848708 200.8132 
L 218.201593 212.775296 
L 219.26025 187.947819 
L 219.613135 200.657247 
L 219.96602 199.263735 
L 220.318906 205.821771 
L 220.671791 194.522133 
L 221.024676 201.251258 
L 221.377562 199.341809 
L 221.730447 201.501209 
L 222.083333 196.771305 
L 222.436218 198.044802 
L 222.789103 191.202924 
L 223.141989 208.403909 
L 223.494874 199.162274 
L 223.847759 199.740148 
L 224.200645 203.729763 
L 224.55353 201.437282 
L 224.906416 202.531279 
L 225.259301 198.982757 
L 225.612186 201.060221 
L 225.965072 193.288614 
L 226.317957 196.398488 
L 226.670842 203.063809 
L 227.023728 200.792921 
L 227.376613 248.339155 
L 227.729499 226.140419 
L 228.082384 189.259079 
L 228.435269 194.144997 
L 228.788155 192.516873 
L 229.14104 186.527936 
L 229.493925 232.805989 
L 229.846811 236.207377 
L 230.199696 203.239249 
L 230.552582 207.076823 
L 230.905467 206.895877 
L 231.258352 203.946989 
L 231.611238 199.573523 
L 231.964123 197.439357 
L 232.317008 204.588342 
L 232.669894 196.650489 
L 233.022779 192.42934 
L 233.375665 202.015149 
L 233.72855 202.024591 
L 234.081435 199.09989 
L 234.787206 203.552223 
L 235.140091 202.5339 
L 235.845862 189.177194 
L 236.198748 206.861017 
L 236.551633 200.205564 
L 236.904518 206.892625 
L 237.257404 199.396314 
L 237.610289 198.972453 
L 237.963174 194.767019 
L 238.31606 196.887107 
L 238.668945 201.866965 
L 239.374716 202.66842 
L 239.727601 197.741248 
L 240.080487 194.68564 
L 240.433372 205.008755 
L 240.786257 202.81547 
L 241.139143 198.191809 
L 241.492028 198.892831 
L 241.844914 198.009122 
L 242.90357 201.698665 
L 243.256455 205.680096 
L 243.60934 221.989619 
L 243.962226 196.875789 
L 244.315111 181.348848 
L 244.667997 175.895398 
L 245.020882 181.670982 
L 245.373767 197.285671 
L 245.726653 194.973035 
L 246.079538 205.389094 
L 246.785309 198.852093 
L 247.138194 201.933444 
L 247.49108 203.559218 
L 247.843965 204.200792 
L 248.19685 200.108466 
L 248.549736 199.525917 
L 248.902621 198.424052 
L 249.255506 196.887641 
L 249.608392 203.968892 
L 250.314163 209.984877 
L 250.667048 198.272765 
L 251.372819 203.720279 
L 251.725704 198.983464 
L 252.078589 199.351454 
L 252.431475 198.971617 
L 252.78436 200.542624 
L 253.137246 195.969599 
L 253.490131 207.720595 
L 253.843016 193.470448 
L 254.195902 202.178556 
L 254.548787 196.5962 
L 254.901672 197.304836 
L 255.254558 190.480265 
L 255.607443 199.300914 
L 255.960329 203.977716 
L 256.313214 197.14588 
L 256.666099 203.449602 
L 257.018985 202.050154 
L 257.37187 199.841242 
L 257.724755 200.881564 
L 258.077641 202.406829 
L 258.430526 203.013605 
L 258.783412 196.287569 
L 259.136297 199.578669 
L 259.489182 199.308884 
L 259.842068 193.685588 
L 260.547838 199.364123 
L 260.900724 199.686625 
L 261.253609 207.259104 
L 261.606495 198.20726 
L 261.95938 193.265533 
L 262.312265 198.610762 
L 262.665151 211.898565 
L 263.018036 203.963361 
L 263.370921 200.674494 
L 263.723807 191.019401 
L 264.076692 197.370722 
L 264.429578 197.95012 
L 264.782463 200.397691 
L 265.135348 199.260205 
L 265.488234 200.898405 
L 265.841119 199.409121 
L 266.194004 202.137035 
L 266.899775 193.52903 
L 267.252661 198.730522 
L 267.605546 196.271231 
L 267.958431 200.929978 
L 268.311317 196.598827 
L 268.664202 206.273095 
L 269.017087 207.364459 
L 269.369973 203.702882 
L 269.722858 195.497377 
L 270.075744 198.681335 
L 270.428629 199.588477 
L 270.781514 203.721936 
L 271.1344 196.822125 
L 271.487285 201.130994 
L 272.193056 194.760794 
L 272.545941 201.219926 
L 272.898827 199.682869 
L 273.251712 211.043915 
L 273.604597 198.524108 
L 273.957483 192.908968 
L 274.310368 198.10844 
L 274.663253 195.766965 
L 275.016139 194.416149 
L 275.369024 202.612625 
L 275.72191 199.789346 
L 276.074795 202.033719 
L 276.42768 199.387108 
L 276.780566 203.085628 
L 277.133451 200.019432 
L 277.486336 202.258849 
L 277.839222 200.456531 
L 278.192107 201.522807 
L 278.544993 198.789108 
L 278.897878 198.191484 
L 279.250763 198.13469 
L 279.603649 197.789953 
L 279.956534 200.253246 
L 280.309419 204.07998 
L 281.01519 200.388611 
L 281.368076 195.368687 
L 281.720961 202.35353 
L 282.073846 198.471791 
L 282.426732 201.613335 
L 282.779617 199.588673 
L 283.132502 195.457902 
L 283.485388 199.246546 
L 283.838273 198.723752 
L 284.191159 197.31754 
L 284.544044 205.291715 
L 284.896929 198.396813 
L 285.249815 194.1535 
L 285.6027 198.469454 
L 285.955585 198.132621 
L 286.308471 205.505643 
L 286.661356 186.113854 
L 287.014242 207.946734 
L 287.367127 199.870426 
L 287.720012 210.142442 
L 288.072898 199.175167 
L 288.425783 200.034367 
L 288.778668 188.801669 
L 289.131554 200.460636 
L 289.484439 204.154276 
L 289.837325 199.259742 
L 290.19021 201.716271 
L 290.543095 196.116119 
L 290.895981 203.165815 
L 291.248866 199.328609 
L 291.601751 202.547148 
L 291.954637 198.932193 
L 292.307522 203.641662 
L 292.660408 201.043194 
L 293.013293 193.009142 
L 293.366178 202.403254 
L 293.719064 203.633617 
L 294.071949 196.544468 
L 294.424834 201.122522 
L 294.77772 199.212721 
L 295.130605 202.573612 
L 295.483491 203.515887 
L 295.836376 195.76317 
L 296.189261 197.796515 
L 296.895032 203.966776 
L 297.247917 199.451777 
L 297.600803 204.697664 
L 297.953688 199.435202 
L 298.306574 197.472366 
L 299.012344 203.108568 
L 299.36523 199.531896 
L 299.718115 199.517556 
L 300.071 198.450905 
L 300.423886 202.329028 
L 300.776771 203.785156 
L 301.129657 200.322203 
L 301.482542 198.582274 
L 301.835427 202.348448 
L 302.188313 196.023708 
L 302.541198 201.670065 
L 302.894083 197.789423 
L 303.246969 206.803284 
L 303.599854 194.083678 
L 304.305625 202.023942 
L 304.65851 201.650253 
L 305.011396 202.119511 
L 305.364281 200.710756 
L 305.717167 195.348532 
L 306.070052 199.013697 
L 306.422937 204.116625 
L 306.775823 207.301293 
L 307.128708 194.664395 
L 307.481593 196.445758 
L 307.834479 198.852349 
L 308.187364 205.96949 
L 308.54025 200.496868 
L 308.893135 200.592031 
L 309.24602 196.928926 
L 309.598906 199.898747 
L 309.951791 200.9567 
L 310.304676 203.330951 
L 311.010447 198.696159 
L 311.363333 202.337606 
L 311.716218 200.92235 
L 312.069103 197.698916 
L 312.421989 200.510186 
L 312.774874 202.399915 
L 313.127759 198.143612 
L 313.83353 202.972684 
L 314.186416 198.555352 
L 314.539301 199.585218 
L 314.892186 200.156843 
L 315.245072 200.378333 
L 315.597957 206.59078 
L 315.950842 197.340906 
L 316.303728 192.96547 
L 316.656613 198.196954 
L 317.009499 205.849861 
L 317.362384 198.363168 
L 317.715269 201.686875 
L 318.068155 201.496578 
L 318.42104 198.356815 
L 318.773925 197.993854 
L 319.126811 201.248042 
L 319.479696 199.082119 
L 319.832582 205.005524 
L 320.185467 197.219952 
L 320.538352 201.378993 
L 320.891238 201.051028 
L 321.244123 200.216638 
L 321.597008 201.020806 
L 321.949894 199.407014 
L 322.302779 203.187592 
L 322.655665 204.323256 
L 323.00855 192.079358 
L 323.361435 198.163336 
L 323.714321 191.860983 
L 324.067206 195.83188 
L 324.772977 206.926251 
L 325.478748 193.030761 
L 325.831633 199.541444 
L 326.184518 197.924871 
L 326.537404 200.099994 
L 326.890289 199.383623 
L 327.243174 203.316367 
L 327.59606 222.805186 
L 327.948945 197.357412 
L 328.301831 190.140802 
L 328.654716 188.789496 
L 329.007601 186.323564 
L 329.360487 206.877123 
L 329.713372 194.734116 
L 330.066257 203.749768 
L 330.419143 203.936332 
L 330.772028 194.304357 
L 331.124914 215.076019 
L 331.477799 196.544128 
L 331.830684 209.755736 
L 332.18357 205.921777 
L 332.536455 204.990571 
L 332.88934 197.305111 
L 333.242226 205.996804 
L 333.595111 204.028714 
L 333.947997 199.699793 
L 334.300882 200.733721 
L 334.653767 198.69369 
L 335.006653 197.863349 
L 335.359538 202.69377 
L 335.712423 189.533026 
L 336.065309 194.015757 
L 336.418194 196.095722 
L 336.77108 184.547603 
L 337.123965 204.402382 
L 337.47685 196.21371 
L 337.829736 203.424134 
L 338.535506 195.751968 
L 338.888392 204.77926 
L 339.241277 205.409057 
L 339.594163 199.908914 
L 339.947048 197.254787 
L 340.299933 204.622004 
L 340.652819 199.52262 
L 341.005704 202.070725 
L 341.358589 200.978536 
L 341.711475 208.962424 
L 342.06436 200.607228 
L 342.417246 204.462009 
L 342.770131 193.2083 
L 343.123016 203.365677 
L 343.475902 201.119096 
L 343.828787 204.220296 
L 344.181672 194.48449 
L 344.534558 202.08802 
L 344.887443 199.585042 
L 345.240329 197.99091 
L 345.593214 194.992959 
L 345.946099 206.273753 
L 346.298985 191.963366 
L 346.65187 199.39781 
L 347.004755 201.806045 
L 347.357641 192.449872 
L 347.710526 196.385585 
L 348.063412 201.582286 
L 348.416297 204.407213 
L 348.769182 199.625652 
L 349.122068 204.179599 
L 349.474953 200.518989 
L 349.827838 198.690498 
L 350.180724 200.994152 
L 350.533609 200.793154 
L 350.886495 203.497675 
L 351.23938 197.417961 
L 351.592265 202.997908 
L 351.945151 203.28148 
L 352.298036 199.517412 
L 352.650921 204.25238 
L 353.003807 201.073939 
L 353.356692 199.299351 
L 353.709578 200.04985 
L 354.062463 200.075503 
L 354.415348 200.481059 
L 354.768234 198.889517 
L 355.121119 200.379791 
L 355.474004 200.34709 
L 355.82689 200.855781 
L 356.179775 198.334372 
L 356.532661 199.862373 
L 356.885546 199.711258 
L 357.238431 202.153582 
L 357.591317 200.99184 
L 358.297087 202.306428 
L 358.649973 197.980098 
L 359.355744 203.048523 
L 359.708629 200.280119 
L 360.061514 200.782801 
L 360.4144 203.289411 
L 360.767285 201.534278 
L 361.12017 201.472511 
L 361.473056 201.270015 
L 361.825941 199.499101 
L 362.531712 201.006988 
L 362.884597 199.486182 
L 363.237483 200.297586 
L 363.590368 203.440678 
L 363.943253 201.490802 
L 364.296139 201.822003 
L 364.649024 199.65534 
L 365.00191 201.130529 
L 365.354795 199.753909 
L 365.70768 199.525216 
L 366.060566 201.356664 
L 366.413451 193.587681 
L 366.766336 195.569066 
L 367.119222 208.026735 
L 367.472107 203.112562 
L 367.824993 194.380526 
L 368.177878 203.954883 
L 368.530763 188.102849 
L 368.883649 210.184762 
L 369.236534 193.701103 
L 369.589419 197.394537 
L 369.942305 186.954651 
L 370.29519 200.256634 
L 370.648076 208.304344 
L 371.000961 176.242358 
L 371.353846 241.011441 
L 371.706732 203.78848 
L 372.059617 198.543536 
L 372.412502 210.082847 
L 372.765388 204.731738 
L 373.118273 192.233986 
L 373.471159 209.546484 
L 373.824044 165.662898 
L 374.176929 205.165099 
L 374.529815 196.694307 
L 374.8827 200.319428 
L 375.235585 195.553027 
L 375.588471 198.812223 
L 376.294242 216.11373 
L 376.647127 210.626687 
L 377.352898 192.881965 
L 377.352898 192.881965 
" style="fill:none;stroke:#1f77b4;stroke-linecap:square;stroke-width:1.5;"/>
   </g>
   <g id="patch_3">
    <path d="M 36.465625 276.812 
L 36.465625 10.7 
" style="fill:none;stroke:#000000;stroke-linecap:square;stroke-linejoin:miter;stroke-width:0.8;"/>
   </g>
   <g id="patch_4">
    <path d="M 393.585625 276.812 
L 393.585625 10.7 
" style="fill:none;stroke:#000000;stroke-linecap:square;stroke-linejoin:miter;stroke-width:0.8;"/>
   </g>
   <g id="patch_5">
    <path d="M 36.465625 276.812 
L 393.585625 276.812 
" style="fill:none;stroke:#000000;stroke-linecap:square;stroke-linejoin:miter;stroke-width:0.8;"/>
   </g>
   <g id="patch_6">
    <path d="M 36.465625 10.7 
L 393.585625 10.7 
" style="fill:none;stroke:#000000;stroke-linecap:square;stroke-linejoin:miter;stroke-width:0.8;"/>
   </g>
  </g>
 </g>
 <defs>
  <clipPath id="pec3241b8fd">
   <rect height="266.112" width="357.12" x="36.465625" y="10.7"/>
  </clipPath>
 </defs>
</svg>
