<?xml version="1.0" encoding="utf-8" standalone="no"?>
<!DOCTYPE svg PUBLIC "-//W3C//DTD SVG 1.1//EN"
  "http://www.w3.org/Graphics/SVG/1.1/DTD/svg11.dtd">
<!-- Created with matplotlib (http://matplotlib.org/) -->
<svg height="252.018125pt" version="1.1" viewBox="0 0 372.425 252.018125" width="372.425pt" xmlns="http://www.w3.org/2000/svg" xmlns:xlink="http://www.w3.org/1999/xlink">
 <defs>
  <style type="text/css">
*{stroke-linecap:butt;stroke-linejoin:round;}
  </style>
 </defs>
 <g id="figure_1">
  <g id="patch_1">
   <path d="M -0 252.018125 
L 372.425 252.018125 
L 372.425 0 
L -0 0 
z
" style="fill:#ffffff;"/>
  </g>
  <g id="axes_1">
   <g id="patch_2">
    <path d="M 26.925 228.14 
L 361.725 228.14 
L 361.725 10.7 
L 26.925 10.7 
z
" style="fill:#ffffff;"/>
   </g>
   <g id="matplotlib.axis_1">
    <g id="xtick_1">
     <g id="line2d_1">
      <defs>
       <path d="M 0 0 
L 0 3.5 
" id="m85982ca32a" style="stroke:#000000;stroke-width:0.8;"/>
      </defs>
      <g>
       <use style="stroke:#000000;stroke-width:0.8;" x="42.143182" xlink:href="#m85982ca32a" y="228.14"/>
      </g>
     </g>
     <g id="text_1">
      <!-- 0 -->
      <defs>
       <path d="M 31.78125 66.40625 
Q 24.171875 66.40625 20.328125 58.90625 
Q 16.5 51.421875 16.5 36.375 
Q 16.5 21.390625 20.328125 13.890625 
Q 24.171875 6.390625 31.78125 6.390625 
Q 39.453125 6.390625 43.28125 13.890625 
Q 47.125 21.390625 47.125 36.375 
Q 47.125 51.421875 43.28125 58.90625 
Q 39.453125 66.40625 31.78125 66.40625 
z
M 31.78125 74.21875 
Q 44.046875 74.21875 50.515625 64.515625 
Q 56.984375 54.828125 56.984375 36.375 
Q 56.984375 17.96875 50.515625 8.265625 
Q 44.046875 -1.421875 31.78125 -1.421875 
Q 19.53125 -1.421875 13.0625 8.265625 
Q 6.59375 17.96875 6.59375 36.375 
Q 6.59375 54.828125 13.0625 64.515625 
Q 19.53125 74.21875 31.78125 74.21875 
z
" id="DejaVuSans-30"/>
      </defs>
      <g transform="translate(38.961932 242.738437)scale(0.1 -0.1)">
       <use xlink:href="#DejaVuSans-30"/>
      </g>
     </g>
    </g>
    <g id="xtick_2">
     <g id="line2d_2">
      <g>
       <use style="stroke:#000000;stroke-width:0.8;" x="92.285461" xlink:href="#m85982ca32a" y="228.14"/>
      </g>
     </g>
     <g id="text_2">
      <!-- 500 -->
      <defs>
       <path d="M 10.796875 72.90625 
L 49.515625 72.90625 
L 49.515625 64.59375 
L 19.828125 64.59375 
L 19.828125 46.734375 
Q 21.96875 47.46875 24.109375 47.828125 
Q 26.265625 48.1875 28.421875 48.1875 
Q 40.625 48.1875 47.75 41.5 
Q 54.890625 34.8125 54.890625 23.390625 
Q 54.890625 11.625 47.5625 5.09375 
Q 40.234375 -1.421875 26.90625 -1.421875 
Q 22.3125 -1.421875 17.546875 -0.640625 
Q 12.796875 0.140625 7.71875 1.703125 
L 7.71875 11.625 
Q 12.109375 9.234375 16.796875 8.0625 
Q 21.484375 6.890625 26.703125 6.890625 
Q 35.15625 6.890625 40.078125 11.328125 
Q 45.015625 15.765625 45.015625 23.390625 
Q 45.015625 31 40.078125 35.4375 
Q 35.15625 39.890625 26.703125 39.890625 
Q 22.75 39.890625 18.8125 39.015625 
Q 14.890625 38.140625 10.796875 36.28125 
z
" id="DejaVuSans-35"/>
      </defs>
      <g transform="translate(82.741711 242.738437)scale(0.1 -0.1)">
       <use xlink:href="#DejaVuSans-35"/>
       <use x="63.623047" xlink:href="#DejaVuSans-30"/>
       <use x="127.246094" xlink:href="#DejaVuSans-30"/>
      </g>
     </g>
    </g>
    <g id="xtick_3">
     <g id="line2d_3">
      <g>
       <use style="stroke:#000000;stroke-width:0.8;" x="142.427741" xlink:href="#m85982ca32a" y="228.14"/>
      </g>
     </g>
     <g id="text_3">
      <!-- 1000 -->
      <defs>
       <path d="M 12.40625 8.296875 
L 28.515625 8.296875 
L 28.515625 63.921875 
L 10.984375 60.40625 
L 10.984375 69.390625 
L 28.421875 72.90625 
L 38.28125 72.90625 
L 38.28125 8.296875 
L 54.390625 8.296875 
L 54.390625 0 
L 12.40625 0 
z
" id="DejaVuSans-31"/>
      </defs>
      <g transform="translate(129.702741 242.738437)scale(0.1 -0.1)">
       <use xlink:href="#DejaVuSans-31"/>
       <use x="63.623047" xlink:href="#DejaVuSans-30"/>
       <use x="127.246094" xlink:href="#DejaVuSans-30"/>
       <use x="190.869141" xlink:href="#DejaVuSans-30"/>
      </g>
     </g>
    </g>
    <g id="xtick_4">
     <g id="line2d_4">
      <g>
       <use style="stroke:#000000;stroke-width:0.8;" x="192.57002" xlink:href="#m85982ca32a" y="228.14"/>
      </g>
     </g>
     <g id="text_4">
      <!-- 1500 -->
      <g transform="translate(179.84502 242.738437)scale(0.1 -0.1)">
       <use xlink:href="#DejaVuSans-31"/>
       <use x="63.623047" xlink:href="#DejaVuSans-35"/>
       <use x="127.246094" xlink:href="#DejaVuSans-30"/>
       <use x="190.869141" xlink:href="#DejaVuSans-30"/>
      </g>
     </g>
    </g>
    <g id="xtick_5">
     <g id="line2d_5">
      <g>
       <use style="stroke:#000000;stroke-width:0.8;" x="242.7123" xlink:href="#m85982ca32a" y="228.14"/>
      </g>
     </g>
     <g id="text_5">
      <!-- 2000 -->
      <defs>
       <path d="M 19.1875 8.296875 
L 53.609375 8.296875 
L 53.609375 0 
L 7.328125 0 
L 7.328125 8.296875 
Q 12.9375 14.109375 22.625 23.890625 
Q 32.328125 33.6875 34.8125 36.53125 
Q 39.546875 41.84375 41.421875 45.53125 
Q 43.3125 49.21875 43.3125 52.78125 
Q 43.3125 58.59375 39.234375 62.25 
Q 35.15625 65.921875 28.609375 65.921875 
Q 23.96875 65.921875 18.8125 64.3125 
Q 13.671875 62.703125 7.8125 59.421875 
L 7.8125 69.390625 
Q 13.765625 71.78125 18.9375 73 
Q 24.125 74.21875 28.421875 74.21875 
Q 39.75 74.21875 46.484375 68.546875 
Q 53.21875 62.890625 53.21875 53.421875 
Q 53.21875 48.921875 51.53125 44.890625 
Q 49.859375 40.875 45.40625 35.40625 
Q 44.1875 33.984375 37.640625 27.21875 
Q 31.109375 20.453125 19.1875 8.296875 
z
" id="DejaVuSans-32"/>
      </defs>
      <g transform="translate(229.9873 242.738437)scale(0.1 -0.1)">
       <use xlink:href="#DejaVuSans-32"/>
       <use x="63.623047" xlink:href="#DejaVuSans-30"/>
       <use x="127.246094" xlink:href="#DejaVuSans-30"/>
       <use x="190.869141" xlink:href="#DejaVuSans-30"/>
      </g>
     </g>
    </g>
    <g id="xtick_6">
     <g id="line2d_6">
      <g>
       <use style="stroke:#000000;stroke-width:0.8;" x="292.854579" xlink:href="#m85982ca32a" y="228.14"/>
      </g>
     </g>
     <g id="text_6">
      <!-- 2500 -->
      <g transform="translate(280.129579 242.738437)scale(0.1 -0.1)">
       <use xlink:href="#DejaVuSans-32"/>
       <use x="63.623047" xlink:href="#DejaVuSans-35"/>
       <use x="127.246094" xlink:href="#DejaVuSans-30"/>
       <use x="190.869141" xlink:href="#DejaVuSans-30"/>
      </g>
     </g>
    </g>
    <g id="xtick_7">
     <g id="line2d_7">
      <g>
       <use style="stroke:#000000;stroke-width:0.8;" x="342.996859" xlink:href="#m85982ca32a" y="228.14"/>
      </g>
     </g>
     <g id="text_7">
      <!-- 3000 -->
      <defs>
       <path d="M 40.578125 39.3125 
Q 47.65625 37.796875 51.625 33 
Q 55.609375 28.21875 55.609375 21.1875 
Q 55.609375 10.40625 48.1875 4.484375 
Q 40.765625 -1.421875 27.09375 -1.421875 
Q 22.515625 -1.421875 17.65625 -0.515625 
Q 12.796875 0.390625 7.625 2.203125 
L 7.625 11.71875 
Q 11.71875 9.328125 16.59375 8.109375 
Q 21.484375 6.890625 26.8125 6.890625 
Q 36.078125 6.890625 40.9375 10.546875 
Q 45.796875 14.203125 45.796875 21.1875 
Q 45.796875 27.640625 41.28125 31.265625 
Q 36.765625 34.90625 28.71875 34.90625 
L 20.21875 34.90625 
L 20.21875 43.015625 
L 29.109375 43.015625 
Q 36.375 43.015625 40.234375 45.921875 
Q 44.09375 48.828125 44.09375 54.296875 
Q 44.09375 59.90625 40.109375 62.90625 
Q 36.140625 65.921875 28.71875 65.921875 
Q 24.65625 65.921875 20.015625 65.03125 
Q 15.375 64.15625 9.8125 62.3125 
L 9.8125 71.09375 
Q 15.4375 72.65625 20.34375 73.4375 
Q 25.25 74.21875 29.59375 74.21875 
Q 40.828125 74.21875 47.359375 69.109375 
Q 53.90625 64.015625 53.90625 55.328125 
Q 53.90625 49.265625 50.4375 45.09375 
Q 46.96875 40.921875 40.578125 39.3125 
z
" id="DejaVuSans-33"/>
      </defs>
      <g transform="translate(330.271859 242.738437)scale(0.1 -0.1)">
       <use xlink:href="#DejaVuSans-33"/>
       <use x="63.623047" xlink:href="#DejaVuSans-30"/>
       <use x="127.246094" xlink:href="#DejaVuSans-30"/>
       <use x="190.869141" xlink:href="#DejaVuSans-30"/>
      </g>
     </g>
    </g>
   </g>
   <g id="matplotlib.axis_2">
    <g id="ytick_1">
     <g id="line2d_8">
      <defs>
       <path d="M 0 0 
L -3.5 0 
" id="m916ab98bf0" style="stroke:#000000;stroke-width:0.8;"/>
      </defs>
      <g>
       <use style="stroke:#000000;stroke-width:0.8;" x="26.925" xlink:href="#m916ab98bf0" y="223.220863"/>
      </g>
     </g>
     <g id="text_8">
      <!-- 4 -->
      <defs>
       <path d="M 37.796875 64.3125 
L 12.890625 25.390625 
L 37.796875 25.390625 
z
M 35.203125 72.90625 
L 47.609375 72.90625 
L 47.609375 25.390625 
L 58.015625 25.390625 
L 58.015625 17.1875 
L 47.609375 17.1875 
L 47.609375 0 
L 37.796875 0 
L 37.796875 17.1875 
L 4.890625 17.1875 
L 4.890625 26.703125 
z
" id="DejaVuSans-34"/>
      </defs>
      <g transform="translate(13.5625 227.020082)scale(0.1 -0.1)">
       <use xlink:href="#DejaVuSans-34"/>
      </g>
     </g>
    </g>
    <g id="ytick_2">
     <g id="line2d_9">
      <g>
       <use style="stroke:#000000;stroke-width:0.8;" x="26.925" xlink:href="#m916ab98bf0" y="184.568375"/>
      </g>
     </g>
     <g id="text_9">
      <!-- 6 -->
      <defs>
       <path d="M 33.015625 40.375 
Q 26.375 40.375 22.484375 35.828125 
Q 18.609375 31.296875 18.609375 23.390625 
Q 18.609375 15.53125 22.484375 10.953125 
Q 26.375 6.390625 33.015625 6.390625 
Q 39.65625 6.390625 43.53125 10.953125 
Q 47.40625 15.53125 47.40625 23.390625 
Q 47.40625 31.296875 43.53125 35.828125 
Q 39.65625 40.375 33.015625 40.375 
z
M 52.59375 71.296875 
L 52.59375 62.3125 
Q 48.875 64.0625 45.09375 64.984375 
Q 41.3125 65.921875 37.59375 65.921875 
Q 27.828125 65.921875 22.671875 59.328125 
Q 17.53125 52.734375 16.796875 39.40625 
Q 19.671875 43.65625 24.015625 45.921875 
Q 28.375 48.1875 33.59375 48.1875 
Q 44.578125 48.1875 50.953125 41.515625 
Q 57.328125 34.859375 57.328125 23.390625 
Q 57.328125 12.15625 50.6875 5.359375 
Q 44.046875 -1.421875 33.015625 -1.421875 
Q 20.359375 -1.421875 13.671875 8.265625 
Q 6.984375 17.96875 6.984375 36.375 
Q 6.984375 53.65625 15.1875 63.9375 
Q 23.390625 74.21875 37.203125 74.21875 
Q 40.921875 74.21875 44.703125 73.484375 
Q 48.484375 72.75 52.59375 71.296875 
z
" id="DejaVuSans-36"/>
      </defs>
      <g transform="translate(13.5625 188.367594)scale(0.1 -0.1)">
       <use xlink:href="#DejaVuSans-36"/>
      </g>
     </g>
    </g>
    <g id="ytick_3">
     <g id="line2d_10">
      <g>
       <use style="stroke:#000000;stroke-width:0.8;" x="26.925" xlink:href="#m916ab98bf0" y="145.915887"/>
      </g>
     </g>
     <g id="text_10">
      <!-- 8 -->
      <defs>
       <path d="M 31.78125 34.625 
Q 24.75 34.625 20.71875 30.859375 
Q 16.703125 27.09375 16.703125 20.515625 
Q 16.703125 13.921875 20.71875 10.15625 
Q 24.75 6.390625 31.78125 6.390625 
Q 38.8125 6.390625 42.859375 10.171875 
Q 46.921875 13.96875 46.921875 20.515625 
Q 46.921875 27.09375 42.890625 30.859375 
Q 38.875 34.625 31.78125 34.625 
z
M 21.921875 38.8125 
Q 15.578125 40.375 12.03125 44.71875 
Q 8.5 49.078125 8.5 55.328125 
Q 8.5 64.0625 14.71875 69.140625 
Q 20.953125 74.21875 31.78125 74.21875 
Q 42.671875 74.21875 48.875 69.140625 
Q 55.078125 64.0625 55.078125 55.328125 
Q 55.078125 49.078125 51.53125 44.71875 
Q 48 40.375 41.703125 38.8125 
Q 48.828125 37.15625 52.796875 32.3125 
Q 56.78125 27.484375 56.78125 20.515625 
Q 56.78125 9.90625 50.3125 4.234375 
Q 43.84375 -1.421875 31.78125 -1.421875 
Q 19.734375 -1.421875 13.25 4.234375 
Q 6.78125 9.90625 6.78125 20.515625 
Q 6.78125 27.484375 10.78125 32.3125 
Q 14.796875 37.15625 21.921875 38.8125 
z
M 18.3125 54.390625 
Q 18.3125 48.734375 21.84375 45.5625 
Q 25.390625 42.390625 31.78125 42.390625 
Q 38.140625 42.390625 41.71875 45.5625 
Q 45.3125 48.734375 45.3125 54.390625 
Q 45.3125 60.0625 41.71875 63.234375 
Q 38.140625 66.40625 31.78125 66.40625 
Q 25.390625 66.40625 21.84375 63.234375 
Q 18.3125 60.0625 18.3125 54.390625 
z
" id="DejaVuSans-38"/>
      </defs>
      <g transform="translate(13.5625 149.715106)scale(0.1 -0.1)">
       <use xlink:href="#DejaVuSans-38"/>
      </g>
     </g>
    </g>
    <g id="ytick_4">
     <g id="line2d_11">
      <g>
       <use style="stroke:#000000;stroke-width:0.8;" x="26.925" xlink:href="#m916ab98bf0" y="107.2634"/>
      </g>
     </g>
     <g id="text_11">
      <!-- 10 -->
      <g transform="translate(7.2 111.062618)scale(0.1 -0.1)">
       <use xlink:href="#DejaVuSans-31"/>
       <use x="63.623047" xlink:href="#DejaVuSans-30"/>
      </g>
     </g>
    </g>
    <g id="ytick_5">
     <g id="line2d_12">
      <g>
       <use style="stroke:#000000;stroke-width:0.8;" x="26.925" xlink:href="#m916ab98bf0" y="68.610912"/>
      </g>
     </g>
     <g id="text_12">
      <!-- 12 -->
      <g transform="translate(7.2 72.410131)scale(0.1 -0.1)">
       <use xlink:href="#DejaVuSans-31"/>
       <use x="63.623047" xlink:href="#DejaVuSans-32"/>
      </g>
     </g>
    </g>
    <g id="ytick_6">
     <g id="line2d_13">
      <g>
       <use style="stroke:#000000;stroke-width:0.8;" x="26.925" xlink:href="#m916ab98bf0" y="29.958424"/>
      </g>
     </g>
     <g id="text_13">
      <!-- 14 -->
      <g transform="translate(7.2 33.757643)scale(0.1 -0.1)">
       <use xlink:href="#DejaVuSans-31"/>
       <use x="63.623047" xlink:href="#DejaVuSans-34"/>
      </g>
     </g>
    </g>
   </g>
   <g id="line2d_14">
    <path clip-path="url(#pd455c8bfda)" d="M 42.143182 111.499556 
L 42.243466 108.592219 
L 42.343751 122.457042 
L 42.444035 93.303354 
L 42.54432 110.431023 
L 42.644605 97.102354 
L 42.845174 111.064864 
L 43.045743 91.196326 
L 43.246312 114.603138 
L 43.346597 88.635358 
L 43.446881 122.455978 
L 43.547166 96.630403 
L 43.64745 107.753932 
L 43.747735 138.233176 
L 43.848019 102.608116 
L 43.948304 118.111938 
L 44.048588 98.497924 
L 44.148873 120.856002 
L 44.449727 87.069792 
L 44.550011 115.840088 
L 44.650296 102.092482 
L 44.75058 107.345916 
L 44.850865 20.583636 
L 44.951149 121.285258 
L 45.051434 115.762065 
L 45.252003 96.167709 
L 45.452572 116.202473 
L 45.552857 110.197694 
L 45.653141 111.009485 
L 45.753426 102.368852 
L 45.85371 113.457196 
L 45.953995 112.985911 
L 46.05428 122.563756 
L 46.154564 105.498494 
L 46.254849 111.823988 
L 46.355133 107.865018 
L 46.455418 111.852809 
L 46.555702 107.256862 
L 46.655987 113.644549 
L 46.856556 111.48371 
L 46.956841 114.766809 
L 47.057125 109.85699 
L 47.15741 112.380024 
L 47.257694 112.085414 
L 47.357979 118.66443 
L 47.558548 112.234137 
L 47.759117 117.441981 
L 47.859402 110.517266 
L 47.959686 111.788583 
L 48.059971 106.457764 
L 48.160255 114.262528 
L 48.26054 105.18901 
L 48.360824 114.789649 
L 48.561394 107.124072 
L 48.661678 112.678392 
L 48.761963 110.864232 
L 48.862247 117.3084 
L 48.962532 108.721349 
L 49.163101 111.578688 
L 49.263386 122.248747 
L 49.36367 105.717577 
L 49.463955 107.620893 
L 49.664524 103.46776 
L 49.764808 117.661153 
L 49.965377 105.935776 
L 50.065662 114.165256 
L 50.165947 105.443028 
L 50.266231 114.838902 
L 50.4668 106.981697 
L 50.567085 106.951294 
L 50.667369 108.82584 
L 50.767654 106.567124 
L 50.968223 112.796578 
L 51.068508 111.317488 
L 51.168792 122.314284 
L 51.269077 100.41737 
L 51.369361 112.796127 
L 51.469646 105.957093 
L 51.770499 119.005689 
L 51.870784 105.222422 
L 51.971069 112.010861 
L 52.071353 106.884603 
L 52.171638 116.858884 
L 52.372207 107.45701 
L 52.472491 114.780432 
L 52.572776 100.539408 
L 52.773345 112.673951 
L 52.87363 116.946162 
L 52.973914 110.552853 
L 53.074199 112.356059 
L 53.174483 102.899046 
L 53.274768 109.324912 
L 53.375052 102.21219 
L 53.475337 109.195388 
L 53.575622 107.538582 
L 53.675906 113.552365 
L 53.776191 104.362713 
L 53.876475 104.763164 
L 54.177329 119.452539 
L 54.377898 108.762682 
L 54.578467 101.949182 
L 54.678752 114.993403 
L 54.779036 105.272666 
L 54.879321 112.901306 
L 55.07989 101.427889 
L 55.380744 120.72575 
L 55.481028 103.903205 
L 55.581313 111.744347 
L 55.681597 195.619316 
L 55.781882 112.864447 
L 55.882166 113.164224 
L 55.982451 105.256558 
L 56.082736 111.969632 
L 56.18302 88.095176 
L 56.383589 114.70159 
L 56.483874 120.75422 
L 56.684443 97.284579 
L 56.784727 123.984886 
L 56.885012 103.807226 
L 56.985297 122.6891 
L 57.185866 104.264456 
L 57.386435 111.247379 
L 57.486719 101.552625 
L 57.587004 112.709593 
L 57.687288 108.649407 
L 57.787573 111.591173 
L 57.887858 110.967486 
L 57.988142 113.383436 
L 58.088427 109.836252 
L 58.188711 94.791839 
L 58.288996 113.281293 
L 58.38928 103.928984 
L 58.489565 126.29047 
L 58.690134 99.753622 
L 58.790419 102.626078 
L 58.890703 101.792855 
L 59.091272 116.225024 
L 59.191557 93.619775 
L 59.492411 134.455396 
L 59.69298 83.320476 
L 59.893549 130.38371 
L 59.993833 114.120735 
L 60.094118 127.569694 
L 60.194402 123.187351 
L 60.394972 101.835163 
L 60.595541 117.640693 
L 60.695825 26.054499 
L 60.896394 99.770865 
L 61.197248 126.352984 
L 61.297533 99.712273 
L 61.397817 109.99452 
L 61.498102 101.595559 
L 61.598386 117.073962 
L 61.698671 101.580432 
L 61.999524 121.378368 
L 62.099809 111.269086 
L 62.300378 118.95123 
L 62.500947 93.532271 
L 62.601232 112.619999 
L 62.701516 107.547809 
L 62.801801 111.686543 
L 62.902086 109.404565 
L 63.00237 112.025914 
L 63.102655 110.279735 
L 63.303224 115.111705 
L 63.403508 113.25213 
L 63.503793 117.594857 
L 63.604077 116.151859 
L 63.804647 101.212484 
L 63.904931 118.003545 
L 64.1055 107.986848 
L 64.306069 115.401078 
L 64.406354 117.641564 
L 64.506638 111.3595 
L 64.606923 112.478475 
L 64.707208 110.11562 
L 64.807492 111.150056 
L 64.907777 108.062293 
L 65.008061 109.228094 
L 65.108346 113.012065 
L 65.308915 109.966075 
L 65.609769 111.420568 
L 65.710053 113.521388 
L 65.810338 112.323173 
L 65.910622 109.125158 
L 66.010907 111.75433 
L 66.111191 111.676911 
L 66.211476 110.982649 
L 66.311761 111.381936 
L 66.412045 109.745562 
L 66.51233 112.648115 
L 66.612614 102.330703 
L 66.712899 112.333621 
L 66.813183 109.920655 
L 66.913468 114.464394 
L 67.013752 111.58162 
L 67.114037 113.389325 
L 67.214322 113.178757 
L 67.314606 110.607966 
L 67.414891 111.12602 
L 67.515175 109.762978 
L 67.715744 112.403703 
L 68.016598 107.973973 
L 68.116883 112.828056 
L 68.217167 109.574672 
L 68.317452 110.805196 
L 68.417736 108.863137 
L 68.518021 111.044522 
L 68.618305 110.934268 
L 68.71859 110.395881 
L 68.818874 106.77816 
L 69.019444 112.522016 
L 69.119728 111.317951 
L 69.220013 111.338971 
L 69.320297 111.049103 
L 69.420582 109.51704 
L 69.520866 109.677225 
L 69.621151 110.243692 
L 69.721436 107.158385 
L 69.82172 113.277958 
L 69.922005 113.092546 
L 70.022289 110.761411 
L 70.122574 111.783792 
L 70.222858 108.762015 
L 70.323143 111.622886 
L 70.523712 109.949152 
L 70.623997 111.325145 
L 70.724281 108.554064 
L 70.824566 114.154848 
L 70.92485 109.400351 
L 71.025135 111.613262 
L 71.225704 109.770037 
L 71.325988 113.827814 
L 71.426273 108.978666 
L 71.626842 111.841145 
L 71.827411 109.070411 
L 71.927696 110.872434 
L 72.02798 110.210251 
L 72.228549 111.032976 
L 72.328834 110.897408 
L 72.429119 111.088096 
L 72.529403 122.374738 
L 72.629688 106.920335 
L 72.729972 117.21493 
L 72.830257 81.533575 
L 72.930541 142.195371 
L 73.030826 86.199828 
L 73.131111 116.325301 
L 73.231395 110.28223 
L 73.33168 112.738864 
L 73.431964 109.853252 
L 73.532249 112.210966 
L 73.732818 109.180433 
L 73.833102 109.936029 
L 74.033672 112.298044 
L 74.133956 112.044737 
L 74.234241 112.4819 
L 74.334525 110.93039 
L 74.43481 112.585221 
L 74.535094 117.954335 
L 74.635379 139.084681 
L 74.735663 106.045334 
L 74.936233 112.349669 
L 75.036517 113.457076 
L 75.237086 111.299973 
L 75.337371 112.249082 
L 75.437655 108.253756 
L 75.53794 113.180156 
L 75.638225 110.386797 
L 75.838794 111.635569 
L 75.939078 112.121549 
L 76.039363 111.984809 
L 76.139647 111.433312 
L 76.239932 112.666215 
L 76.340216 112.354145 
L 76.440501 109.83288 
L 76.64107 112.446232 
L 76.841639 111.830827 
L 76.941924 112.061499 
L 77.042208 111.570154 
L 77.142493 112.023488 
L 77.242777 110.941913 
L 77.443347 114.730781 
L 77.543631 111.718518 
L 77.643916 113.113178 
L 77.7442 110.569301 
L 77.944769 112.319522 
L 78.045054 110.998137 
L 78.345908 111.971954 
L 78.546477 110.760678 
L 78.646761 111.423229 
L 78.747046 107.759869 
L 78.84733 115.877454 
L 78.947615 107.758687 
L 79.0479 111.826027 
L 79.148184 110.939881 
L 79.248469 112.305068 
L 79.449038 111.894202 
L 79.549322 111.993672 
L 79.649607 110.945888 
L 79.749891 111.895212 
L 79.850176 110.616389 
L 79.950461 112.265717 
L 80.050745 111.767528 
L 80.15103 111.987049 
L 80.251314 111.760994 
L 80.351599 112.068489 
L 80.451883 111.122339 
L 80.552168 112.840969 
L 80.652452 111.446051 
L 80.752737 111.845857 
L 80.853022 112.707538 
L 80.953306 112.560539 
L 81.053591 111.618332 
L 81.153875 112.99797 
L 81.25416 111.660842 
L 81.354444 113.20846 
L 81.555013 111.857634 
L 81.655298 111.82617 
L 81.855867 110.926059 
L 81.956152 112.166601 
L 82.056436 111.998786 
L 82.156721 112.440468 
L 82.257005 111.166656 
L 82.557859 112.027021 
L 82.758428 111.403713 
L 82.858713 112.112086 
L 83.059282 111.533765 
L 83.159566 112.481171 
L 83.259851 111.5076 
L 83.46042 111.923002 
L 83.660989 111.159835 
L 83.761274 116.322311 
L 83.861558 143.244365 
L 83.961843 34.956543 
L 84.062127 174.517489 
L 84.162412 55.563279 
L 84.262697 119.371404 
L 84.362981 40.604006 
L 84.463266 132.405943 
L 84.663835 110.731745 
L 84.864404 112.366438 
L 84.964688 112.898448 
L 85.165258 111.983557 
L 85.365827 112.475322 
L 85.466111 112.0597 
L 85.566396 111.130097 
L 85.66668 112.762618 
L 85.86725 111.81513 
L 85.967534 111.910823 
L 86.067819 111.546622 
L 86.168103 111.81062 
L 86.268388 112.769711 
L 86.368672 111.002997 
L 86.468957 112.803018 
L 86.669526 111.790126 
L 86.769811 112.528401 
L 86.97038 111.667114 
L 87.070664 112.42282 
L 87.271233 111.609086 
L 87.371518 111.930339 
L 87.471802 112.728264 
L 87.572087 111.424451 
L 87.672372 111.495063 
L 87.772656 111.990264 
L 87.872941 111.407511 
L 88.07351 112.019198 
L 88.173794 111.530702 
L 88.274079 111.964679 
L 88.374363 111.662415 
L 88.474648 112.121333 
L 88.574933 111.980089 
L 88.675217 112.396721 
L 88.775502 109.99138 
L 88.875786 111.746453 
L 88.976071 111.556722 
L 89.17664 111.958613 
L 89.276925 111.749016 
L 89.377209 112.163449 
L 89.477494 110.62571 
L 89.577778 112.719466 
L 89.878632 110.767592 
L 89.978916 112.526417 
L 90.079201 112.451445 
L 90.179486 111.814461 
L 90.27977 111.988875 
L 90.380055 112.627843 
L 90.480339 112.209728 
L 90.580624 112.27051 
L 90.781193 111.770037 
L 91.082047 112.752608 
L 91.282616 111.769197 
L 91.3829 112.229729 
L 91.483185 112.132369 
L 91.583469 113.402488 
L 91.784038 110.875415 
L 91.884323 112.280932 
L 92.084892 111.452454 
L 92.185177 111.574799 
L 92.385746 112.353126 
L 92.586315 111.8675 
L 92.6866 111.944477 
L 92.786884 111.728233 
L 92.887169 112.663625 
L 93.188022 106.564413 
L 93.388591 115.377003 
L 93.589161 102.569047 
L 93.689445 117.118394 
L 93.890014 111.270084 
L 93.990299 112.264817 
L 94.090583 107.874864 
L 94.190868 115.325076 
L 94.291152 105.658277 
L 94.391437 121.582683 
L 94.491722 109.751828 
L 94.592006 115.741242 
L 94.692291 104.798436 
L 94.89286 112.706504 
L 94.993144 106.997413 
L 95.193713 112.452232 
L 95.293998 111.47091 
L 95.394283 113.946312 
L 95.494567 112.31474 
L 95.594852 113.563973 
L 95.695136 110.854093 
L 95.895705 112.71226 
L 95.99599 110.79357 
L 96.096275 111.834386 
L 96.196559 108.286146 
L 96.296844 116.134303 
L 96.397128 111.279431 
L 96.497413 111.428273 
L 96.597697 47.653788 
L 96.798266 111.996106 
L 96.898551 112.107524 
L 96.998836 109.855451 
L 97.09912 112.933755 
L 97.199405 112.058989 
L 97.299689 112.609446 
L 97.399974 111.532214 
L 97.500258 112.29473 
L 97.600543 111.736366 
L 97.700827 112.047027 
L 97.801112 111.815531 
L 98.001681 112.351274 
L 98.101966 112.508336 
L 98.402819 110.886161 
L 98.503104 115.505481 
L 98.603388 108.858047 
L 98.803958 116.955989 
L 98.904242 110.050991 
L 99.004527 110.4177 
L 99.104811 108.110308 
L 99.205096 109.229787 
L 99.30538 113.355093 
L 99.606234 108.679406 
L 99.706519 110.99028 
L 99.806803 108.731639 
L 99.907088 87.3935 
L 100.007372 126.613679 
L 100.107657 97.302721 
L 100.308226 113.036573 
L 100.508795 111.119216 
L 100.60908 112.871417 
L 100.709364 111.714907 
L 100.809649 112.023487 
L 100.909933 111.16051 
L 101.010218 112.22355 
L 101.110502 108.783385 
L 101.311072 112.064541 
L 101.411356 111.395197 
L 101.511641 112.185059 
L 101.611925 111.20488 
L 101.812494 111.998607 
L 101.912779 110.065302 
L 102.013064 115.589242 
L 102.113348 110.799544 
L 102.213633 111.850704 
L 102.313917 110.199232 
L 102.414202 113.211467 
L 102.514486 111.165928 
L 102.715055 113.107681 
L 102.81534 111.768455 
L 102.915625 108.295805 
L 103.116194 111.753683 
L 103.216478 111.134085 
L 103.517332 112.655732 
L 103.717901 111.019908 
L 103.818186 109.531684 
L 103.91847 112.965285 
L 104.018755 109.688051 
L 104.219324 119.378868 
L 104.419893 112.441186 
L 104.520177 111.743732 
L 104.620462 109.90236 
L 104.720747 110.624814 
L 104.821031 108.759267 
L 105.121885 114.42854 
L 105.222169 105.303392 
L 105.322454 112.05123 
L 105.422739 110.985856 
L 105.623308 113.032448 
L 105.723592 108.485116 
L 105.823877 114.929054 
L 105.924161 110.385945 
L 106.12473 111.169163 
L 106.225015 109.970133 
L 106.3253 111.45126 
L 106.425584 114.686256 
L 106.525869 108.723958 
L 106.626153 119.503055 
L 106.726438 107.393706 
L 106.826722 112.635648 
L 106.927007 112.613797 
L 107.027291 113.536385 
L 107.127576 111.508739 
L 107.328145 112.93982 
L 107.42843 112.159566 
L 107.628999 113.010992 
L 107.729283 112.869219 
L 107.829568 111.398413 
L 107.929852 96.846276 
L 108.030137 124.189924 
L 108.230706 109.687018 
L 108.431275 111.529474 
L 108.53156 111.628805 
L 108.631844 112.675805 
L 108.832414 111.414564 
L 108.932698 112.409499 
L 109.032983 111.808065 
L 109.133267 116.62075 
L 109.233552 109.087664 
L 109.333836 112.522131 
L 109.63469 110.516522 
L 109.835259 111.557141 
L 109.935544 111.446157 
L 110.035828 111.588555 
L 110.136113 110.849172 
L 110.236397 112.290755 
L 110.336682 111.725766 
L 110.436966 110.412659 
L 110.537251 116.588902 
L 110.637536 109.82086 
L 110.838105 113.045625 
L 110.938389 110.35028 
L 111.038674 111.912198 
L 111.239243 110.640684 
L 111.339527 105.686299 
L 111.439812 108.938699 
L 111.540097 105.454695 
L 111.640381 84.835144 
L 111.740666 113.654256 
L 111.84095 111.852058 
L 111.941235 110.373139 
L 112.041519 112.156866 
L 112.242089 110.321148 
L 112.442658 113.133551 
L 112.542942 111.582937 
L 112.643227 113.711056 
L 112.743511 112.74928 
L 112.843796 109.390498 
L 112.94408 112.731916 
L 113.044365 110.765839 
L 113.14465 111.357892 
L 113.244934 111.1187 
L 113.345219 113.311305 
L 113.445503 106.374127 
L 113.646072 111.45591 
L 113.746357 107.778693 
L 114.047211 113.743979 
L 114.147495 111.954794 
L 114.24778 112.547387 
L 114.448349 110.267398 
L 114.548633 113.805574 
L 114.749202 108.894943 
L 114.849487 114.461527 
L 115.050056 107.344886 
L 115.250625 111.681123 
L 115.35091 112.719087 
L 115.451194 111.65289 
L 115.551479 113.271418 
L 115.752048 111.059372 
L 115.852333 112.421781 
L 115.952617 108.495379 
L 116.153186 111.835603 
L 116.253471 78.517716 
L 116.353755 120.103187 
L 116.554325 105.322789 
L 116.754894 114.880655 
L 116.855178 107.757934 
L 116.955463 111.913127 
L 117.055747 91.465071 
L 117.256316 116.210063 
L 117.356601 113.653719 
L 117.456886 117.536282 
L 117.55717 109.877821 
L 117.657455 109.939096 
L 117.757739 113.6577 
L 117.858024 113.29106 
L 117.958308 111.669037 
L 118.058593 114.209343 
L 118.158877 104.112466 
L 118.259162 114.171335 
L 118.359447 107.461421 
L 118.560016 110.989916 
L 118.6603 116.348074 
L 118.961154 102.515067 
L 119.061439 115.874202 
L 119.161723 114.960233 
L 119.262008 105.907892 
L 119.362292 113.678979 
L 119.462577 112.1682 
L 119.562861 122.979925 
L 119.663146 121.342983 
L 119.76343 105.806427 
L 120.064284 115.853224 
L 120.164569 116.242951 
L 120.264853 104.864639 
L 120.365138 112.259656 
L 120.465422 108.742599 
L 120.565707 119.124067 
L 120.665991 111.188964 
L 120.766276 115.183055 
L 120.866561 87.574827 
L 121.06713 121.044821 
L 121.167414 122.575576 
L 121.267699 118.994574 
L 121.367983 105.870029 
L 121.468268 110.818782 
L 121.568552 144.732512 
L 121.769122 113.902134 
L 121.869406 120.831953 
L 122.069975 110.67877 
L 122.370829 118.991011 
L 122.471114 119.073539 
L 122.671683 123.065954 
L 122.771967 107.430522 
L 122.872252 114.663843 
L 123.072821 106.112025 
L 123.173105 119.561368 
L 123.27339 118.990816 
L 123.473959 100.472023 
L 123.574244 98.604983 
L 123.674528 113.081958 
L 123.774813 107.278984 
L 123.975382 121.785031 
L 124.075666 109.973965 
L 124.175951 119.120281 
L 124.276236 110.082806 
L 124.37652 116.933602 
L 124.577089 103.194613 
L 124.677374 116.154143 
L 124.777658 115.589845 
L 124.877943 106.568027 
L 124.978227 113.396099 
L 125.078512 92.423971 
L 125.279081 121.027437 
L 125.379366 105.324978 
L 125.47965 105.775463 
L 125.579935 113.933675 
L 125.680219 103.206664 
L 125.780504 118.671207 
L 125.880789 111.875943 
L 125.981073 117.930037 
L 126.081358 96.488665 
L 126.181642 123.536021 
L 126.281927 94.628008 
L 126.382211 124.047415 
L 126.482496 109.179103 
L 126.58278 112.343038 
L 126.683065 109.473254 
L 126.883634 123.031858 
L 127.084203 106.646154 
L 127.184488 115.99063 
L 127.284772 115.275681 
L 127.385057 88.191801 
L 127.485341 95.997389 
L 127.585626 85.481228 
L 127.786195 120.334133 
L 127.88648 100.591862 
L 128.087049 111.728375 
L 128.287618 119.058709 
L 128.588472 108.905758 
L 128.688756 127.712128 
L 128.789041 119.26605 
L 128.889325 121.54574 
L 128.98961 135.993723 
L 129.089894 118.502347 
L 129.190179 134.464343 
L 129.591317 95.04847 
L 129.691602 116.984288 
L 129.791886 111.494375 
L 129.892171 148.211477 
L 130.09274 99.138489 
L 130.193025 103.665837 
L 130.293309 116.330224 
L 130.393594 92.552295 
L 130.493878 105.527208 
L 130.594163 93.852164 
L 130.694447 107.392481 
L 130.895016 92.74831 
L 130.995301 111.308103 
L 131.095586 108.102439 
L 131.19587 100.558101 
L 131.296155 107.493625 
L 131.396439 126.334034 
L 131.496724 107.468026 
L 131.597008 117.094798 
L 131.697293 113.844568 
L 131.797578 106.540459 
L 131.897862 114.674686 
L 131.998147 105.299574 
L 132.098431 109.587667 
L 132.198716 107.408633 
L 132.299 102.213407 
L 132.499569 117.963541 
L 132.599854 116.91966 
L 132.800423 103.179869 
L 132.900708 123.368276 
L 133.000992 112.269557 
L 133.101277 112.575191 
L 133.201561 112.295742 
L 133.301846 111.239058 
L 133.502415 111.792295 
L 133.6027 106.884754 
L 133.702984 113.412331 
L 133.803269 102.997808 
L 134.003838 112.125539 
L 134.204407 109.129066 
L 134.304691 117.26017 
L 134.404976 113.429289 
L 134.505261 116.429234 
L 134.605545 112.231508 
L 134.70583 117.461783 
L 134.806114 109.578748 
L 134.906399 109.625949 
L 135.006683 106.690176 
L 135.106968 106.99047 
L 135.407822 119.266587 
L 135.508106 112.552141 
L 135.608391 59.630199 
L 135.708675 130.834374 
L 135.80896 105.816545 
L 135.909244 124.270533 
L 136.009529 101.166291 
L 136.109814 131.66346 
L 136.310383 97.053212 
L 136.410667 104.576953 
L 136.510952 95.256135 
L 136.611236 98.278005 
L 136.711521 116.892741 
L 136.91209 102.795775 
L 137.112659 123.718607 
L 137.313228 115.116351 
L 137.513797 111.897668 
L 137.614082 117.089419 
L 137.714366 116.133662 
L 137.914936 110.828144 
L 138.01522 114.846403 
L 138.115505 107.448375 
L 138.215789 115.403785 
L 138.416358 105.185816 
L 138.516643 127.005533 
L 138.616928 121.490859 
L 138.717212 101.891182 
L 138.817497 107.147179 
L 138.917781 99.793702 
L 139.018066 120.190683 
L 139.11835 106.653846 
L 139.419204 125.572653 
L 139.619773 104.480997 
L 139.720058 96.933404 
L 139.920627 132.049861 
L 140.020911 103.334887 
L 140.22148 118.163812 
L 140.321765 115.313271 
L 140.42205 109.187734 
L 140.722903 116.941494 
L 140.823188 105.483311 
L 141.023757 115.039659 
L 141.124041 119.140215 
L 141.224326 117.463489 
L 141.424895 108.015334 
L 141.52518 96.205339 
L 141.625464 116.225044 
L 141.725749 97.023305 
L 142.026603 124.744853 
L 142.327456 109.735292 
L 142.427741 112.795895 
L 142.528025 111.376763 
L 142.62831 104.929673 
L 142.728594 120.916088 
L 142.929164 111.398616 
L 143.029448 112.971111 
L 143.129733 121.889759 
L 143.230017 106.080244 
L 143.330302 120.034991 
L 143.430586 108.264525 
L 143.530871 108.7314 
L 143.631155 99.256798 
L 143.831725 116.300352 
L 143.932009 113.974993 
L 144.132578 87.040476 
L 144.232863 117.101819 
L 144.433432 107.00833 
L 144.533716 122.129025 
L 144.634001 116.793837 
L 144.734286 93.671402 
L 144.83457 120.438573 
L 144.934855 116.026197 
L 145.035139 117.105007 
L 145.135424 112.281935 
L 145.235708 124.080757 
L 145.335993 115.411381 
L 145.436278 86.707538 
L 145.536562 98.738214 
L 145.737131 91.505294 
L 145.837416 105.547285 
L 145.9377 103.931785 
L 146.238554 110.975801 
L 146.338839 101.214828 
L 146.439123 119.772967 
L 146.639692 105.030098 
L 146.840261 116.449423 
L 146.940546 118.586426 
L 147.04083 104.689248 
L 147.141115 105.456678 
L 147.2414 120.092367 
L 147.341684 116.997179 
L 147.441969 101.232098 
L 147.542253 118.936703 
L 147.642538 113.491054 
L 147.742822 122.756637 
L 147.843107 98.771824 
L 147.943391 119.094117 
L 148.043676 84.421791 
L 148.143961 163.273364 
L 148.244245 126.100142 
L 148.34453 137.663312 
L 148.545099 98.513337 
L 148.645383 123.191036 
L 148.745668 96.289518 
L 148.845953 111.281335 
L 148.946237 108.847775 
L 149.146806 114.046715 
L 149.347375 107.84949 
L 149.44766 106.825959 
L 149.648229 119.261773 
L 149.748514 96.030015 
L 149.949083 114.36739 
L 150.049367 102.394437 
L 150.249936 123.63771 
L 150.350221 101.701854 
L 150.450505 118.090243 
L 150.55079 104.546527 
L 150.651075 114.298366 
L 150.851644 109.289901 
L 150.951928 105.986292 
L 151.252782 114.176839 
L 151.353066 111.46044 
L 151.453351 120.163237 
L 151.553636 111.506419 
L 151.65392 113.016997 
L 151.754205 109.646727 
L 151.954774 113.434222 
L 152.055058 110.416297 
L 152.155343 111.701702 
L 152.255628 115.380484 
L 152.355912 102.180735 
L 152.456197 138.130934 
L 152.656766 99.724185 
L 152.75705 105.783907 
L 152.857335 97.536069 
L 153.057904 115.194114 
L 153.158189 110.047609 
L 153.258473 126.678002 
L 153.358758 104.625918 
L 153.459042 105.718034 
L 153.559327 121.08339 
L 153.759896 97.045703 
L 153.86018 114.595063 
L 153.960465 108.923164 
L 154.06075 116.747466 
L 154.161034 110.695637 
L 154.261319 113.842542 
L 154.461888 103.130957 
L 154.662457 106.976982 
L 154.762742 108.866814 
L 154.963311 99.986583 
L 155.063595 119.886422 
L 155.16388 110.452129 
L 155.264164 117.346814 
L 155.364449 114.42414 
L 155.464733 105.782013 
L 155.665303 112.851835 
L 155.765587 114.283121 
L 156.166725 105.823078 
L 156.467579 118.262085 
L 156.567864 110.808768 
L 156.768433 116.973783 
L 156.868717 106.970816 
L 156.969002 117.212011 
L 157.069286 108.051525 
L 157.169571 118.808446 
L 157.269855 109.455487 
L 157.37014 124.166152 
L 157.570709 111.816619 
L 157.670994 124.800988 
L 157.771278 120.093802 
L 157.871563 101.763126 
L 157.971847 121.826787 
L 158.072132 107.849759 
L 158.272701 121.054244 
L 158.573555 106.674532 
L 158.874408 115.322904 
L 158.974693 114.776997 
L 159.175262 113.197735 
L 159.275547 114.621791 
L 159.375831 117.742467 
L 159.476116 112.506245 
L 159.5764 117.495432 
L 159.776969 110.887804 
L 159.877254 117.789432 
L 159.977539 109.032484 
L 160.178108 114.593305 
L 160.278392 110.965248 
L 160.378677 139.034649 
L 160.579246 106.973456 
L 160.67953 111.96138 
L 160.8801 108.50906 
L 160.980384 90.237517 
L 161.080669 112.210169 
L 161.180953 97.388191 
L 161.481807 114.451176 
L 161.582092 101.124386 
L 161.682376 117.480675 
L 161.782661 103.159088 
L 161.882945 117.182866 
L 161.98323 108.547151 
L 162.183799 118.340612 
L 162.284083 117.332666 
L 162.484653 109.446852 
L 162.584937 112.767273 
L 162.685222 124.818749 
L 162.885791 110.576198 
L 162.986075 110.328995 
L 163.186644 117.343836 
L 163.286929 115.432285 
L 163.387214 118.654789 
L 163.487498 116.14225 
L 163.587783 107.781917 
L 163.788352 114.944952 
L 163.888636 111.503532 
L 163.988921 115.160407 
L 164.089205 105.217884 
L 164.18949 116.539588 
L 164.289775 113.103426 
L 164.390059 115.078327 
L 164.490344 108.701624 
L 164.590628 113.206374 
L 164.791197 105.68876 
L 164.991767 113.87761 
L 165.092051 111.856853 
L 165.29262 120.69613 
L 165.392905 114.679248 
L 165.493189 117.383151 
L 165.593474 110.878241 
L 165.693758 124.510043 
L 165.894328 109.595386 
L 165.994612 110.892585 
L 166.094897 118.33674 
L 166.195181 105.372472 
L 166.295466 114.286161 
L 166.39575 103.304845 
L 166.596319 115.430226 
L 166.696604 120.88159 
L 166.796889 107.48599 
L 166.897173 121.744769 
L 167.097742 105.477602 
L 167.298311 115.474008 
L 167.398596 112.98172 
L 167.49888 114.727082 
L 167.599165 107.687934 
L 167.799734 115.222946 
L 167.900019 108.217546 
L 168.000303 114.468909 
L 168.200872 109.284521 
L 168.301157 117.293707 
L 168.401442 115.421638 
L 168.501726 101.862963 
L 168.602011 124.925404 
L 168.702295 106.700511 
L 168.80258 116.548231 
L 168.902864 112.182096 
L 169.103433 117.215188 
L 169.203718 114.779144 
L 169.304003 107.787607 
L 169.404287 112.889963 
L 169.504572 112.676631 
L 169.604856 109.393063 
L 169.705141 117.889409 
L 169.805425 104.250651 
L 169.90571 110.819898 
L 170.005994 108.657579 
L 170.106279 108.929601 
L 170.407133 121.86357 
L 170.607702 110.086809 
L 170.808271 111.678796 
L 170.908555 109.226105 
L 171.00884 109.300316 
L 171.109125 111.059356 
L 171.209409 115.017144 
L 171.309694 114.771855 
L 171.409978 110.103088 
L 171.510263 113.193153 
L 171.610547 110.797272 
L 171.710832 114.90356 
L 171.811117 112.926813 
L 171.911401 114.817607 
L 172.11197 111.753466 
L 172.312539 113.808508 
L 172.412824 113.619815 
L 172.513108 109.285361 
L 172.613393 112.401708 
L 172.713678 108.960445 
L 172.813962 113.317463 
L 172.914247 108.706495 
L 173.014531 115.034386 
L 173.114816 107.847808 
L 173.616239 118.130421 
L 173.716523 111.188688 
L 174.017377 115.778703 
L 174.117661 114.784437 
L 174.217946 109.859162 
L 174.418515 116.333608 
L 174.5188 112.352254 
L 174.619084 113.838624 
L 174.719369 111.347889 
L 174.819653 112.780866 
L 174.919938 105.756552 
L 175.020222 114.160971 
L 175.220792 108.935797 
L 175.321076 109.291302 
L 175.421361 113.476679 
L 175.62193 105.23716 
L 175.722214 114.128155 
L 175.922783 105.075908 
L 176.023068 113.123852 
L 176.123353 112.497084 
L 176.223637 112.605596 
L 176.323922 104.786989 
L 176.624775 114.77362 
L 176.72506 127.347305 
L 176.825344 100.767054 
L 177.025914 134.032845 
L 177.126198 139.692404 
L 177.226483 107.989805 
L 177.326767 110.347356 
L 177.427052 121.848528 
L 177.627621 105.680935 
L 177.727905 116.18691 
L 177.82819 113.881253 
L 178.028759 106.957131 
L 178.229328 121.458025 
L 178.429897 105.954939 
L 178.630467 111.056836 
L 178.730751 109.750694 
L 178.831036 110.727484 
L 178.93132 108.895493 
L 179.031605 111.135411 
L 179.232174 121.477082 
L 179.332458 122.240849 
L 179.533028 111.779107 
L 179.733597 115.177961 
L 179.833881 114.379442 
L 179.934166 121.400708 
L 180.03445 106.139253 
L 180.134735 123.676854 
L 180.335304 103.836742 
L 180.535873 119.410374 
L 180.636158 113.727823 
L 180.736442 120.266744 
L 180.836727 104.522837 
L 181.037296 111.498875 
L 181.237865 120.163098 
L 181.438434 105.072366 
L 181.538719 102.592111 
L 181.639003 93.123888 
L 181.739288 132.241617 
L 181.839572 88.869805 
L 181.939857 96.167249 
L 182.040142 118.000532 
L 182.340995 95.128923 
L 182.44128 132.77488 
L 182.541564 129.74036 
L 182.742133 100.124289 
L 182.842418 106.155695 
L 182.942703 129.2467 
L 183.042987 111.403924 
L 183.143272 112.17496 
L 183.243556 109.216621 
L 183.343841 109.349655 
L 183.444125 118.459593 
L 183.54441 108.013105 
L 183.744979 119.193514 
L 183.845264 97.343327 
L 183.945548 117.562963 
L 184.045833 104.389838 
L 184.146117 120.869619 
L 184.246402 117.557488 
L 184.346686 119.169757 
L 184.547256 134.422122 
L 184.64754 104.381073 
L 184.747825 118.350955 
L 184.948394 96.098533 
L 185.048678 122.494014 
L 185.349532 107.167282 
L 185.449817 113.923619 
L 185.550101 92.622856 
L 185.650386 116.168801 
L 185.850955 109.058771 
L 185.951239 112.114187 
L 186.151808 101.807878 
L 186.352378 119.586564 
L 186.452662 114.044678 
L 186.552947 121.96864 
L 186.653231 110.220215 
L 186.753516 120.570779 
L 186.8538 109.736268 
L 186.954085 112.938527 
L 187.054369 112.017322 
L 187.154654 106.93219 
L 187.254939 107.95885 
L 187.355223 117.358141 
L 187.455508 106.652611 
L 187.555792 112.225908 
L 187.656077 110.521426 
L 187.756361 103.861074 
L 187.856646 121.467195 
L 187.956931 116.523127 
L 188.1575 136.06739 
L 188.257784 94.762389 
L 188.458353 110.941291 
L 188.558638 116.844177 
L 188.658922 112.748573 
L 188.759207 123.520104 
L 188.859492 105.327669 
L 188.959776 115.447524 
L 189.060061 90.261607 
L 189.26063 116.587222 
L 189.461199 80.822533 
L 189.561483 117.00757 
L 189.661768 109.227496 
L 189.862337 118.21817 
L 189.962622 115.452676 
L 190.062906 93.809269 
L 190.163191 108.845054 
L 190.263475 107.042806 
L 190.36376 124.916683 
L 190.464044 111.216683 
L 190.564329 128.870213 
L 190.764898 109.361991 
L 190.865183 112.663496 
L 190.965467 139.541997 
L 191.065752 112.413899 
L 191.166036 175.015294 
L 191.266321 89.12175 
L 191.567175 117.064352 
L 191.667459 117.423152 
L 191.767744 119.381423 
L 191.868028 109.799508 
L 191.968313 121.297053 
L 192.068597 100.889555 
L 192.168882 116.354043 
L 192.269167 103.231618 
L 192.469736 127.092519 
L 192.57002 113.846098 
L 192.770589 122.648372 
L 192.870874 111.902941 
L 192.971158 117.23865 
L 193.071443 103.314441 
L 193.171728 110.843356 
L 193.272012 109.864723 
L 193.372297 113.745151 
L 193.472581 109.863799 
L 193.572866 110.810893 
L 193.67315 114.97753 
L 193.974004 97.682028 
L 194.074289 115.255715 
L 194.174573 107.446452 
L 194.274858 119.012305 
L 194.375142 161.773468 
L 194.475427 160.083302 
L 194.575711 113.882667 
L 194.675996 136.789775 
L 194.776281 108.671035 
L 194.97685 123.226964 
L 195.177419 103.034217 
L 195.277703 106.471405 
L 195.377988 118.009881 
L 195.478272 111.51282 
L 195.578557 113.133959 
L 195.678842 107.681865 
L 195.879411 113.294771 
L 195.979695 109.090994 
L 196.07998 110.987091 
L 196.180264 104.129691 
L 196.280549 116.387595 
L 196.481118 111.163679 
L 196.681687 121.375627 
L 196.781972 109.248294 
L 196.882256 112.353108 
L 196.982541 108.733128 
L 197.082825 115.207376 
L 197.18311 113.812936 
L 197.283394 103.57186 
L 197.584248 125.402305 
L 197.684533 101.2529 
L 197.784817 104.5456 
L 197.885102 118.760292 
L 197.985386 88.959414 
L 198.185956 113.905129 
L 198.28624 111.223437 
L 198.386525 95.449121 
L 198.486809 130.214299 
L 198.587094 129.383075 
L 198.687378 111.447422 
L 198.787663 137.592585 
L 198.887947 218.256364 
L 198.988232 123.052566 
L 199.088517 136.109443 
L 199.289086 31.728876 
L 199.38937 151.144991 
L 199.489655 87.682852 
L 199.690224 120.05533 
L 199.790508 104.103129 
L 199.991078 108.558078 
L 200.091362 95.650204 
L 200.291931 113.105374 
L 200.392216 105.254966 
L 200.592785 112.592661 
L 200.693069 108.676364 
L 200.793354 112.464052 
L 200.893639 121.913306 
L 201.094208 108.162091 
L 201.194492 114.334386 
L 201.294777 107.060228 
L 201.395061 110.240293 
L 201.595631 105.54591 
L 201.695915 123.134245 
L 201.896484 109.319742 
L 201.996769 111.579275 
L 202.097053 110.571779 
L 202.197338 114.709468 
L 202.297622 113.116987 
L 202.397907 109.390787 
L 202.598476 115.187653 
L 202.799045 106.072766 
L 202.89933 103.461823 
L 202.999614 115.905305 
L 203.300468 108.784308 
L 203.400753 110.790274 
L 203.501037 110.33142 
L 203.601322 108.245244 
L 203.701606 110.310491 
L 203.801891 109.766305 
L 204.00246 112.256607 
L 204.102744 107.241015 
L 204.203029 111.486374 
L 204.303314 111.408344 
L 204.403598 111.790605 
L 204.503883 108.578285 
L 204.604167 109.904047 
L 204.704452 109.329123 
L 204.804736 107.305112 
L 204.905021 113.922608 
L 205.005306 108.846476 
L 205.10559 114.358941 
L 205.205875 106.78428 
L 205.306159 113.117907 
L 205.406444 109.034508 
L 205.506728 125.415821 
L 205.607013 107.884664 
L 205.707297 108.966629 
L 205.807582 126.322309 
L 205.907867 69.307196 
L 206.108436 110.373809 
L 206.20872 102.610008 
L 206.309005 103.701414 
L 206.509574 114.487399 
L 206.609858 108.255018 
L 206.810428 111.532329 
L 206.910712 112.80286 
L 207.010997 105.776633 
L 207.111281 113.673559 
L 207.211566 106.824478 
L 207.412135 114.365845 
L 207.512419 114.720452 
L 207.612704 115.98442 
L 207.712989 108.903114 
L 207.813273 116.049051 
L 207.913558 97.657928 
L 208.214411 124.658552 
L 208.314696 105.642627 
L 208.414981 118.554707 
L 208.515265 104.500459 
L 208.816119 118.933422 
L 208.916403 106.373684 
L 209.016688 109.261025 
L 209.116972 105.245832 
L 209.217257 116.089756 
L 209.317542 109.755047 
L 209.417826 117.714389 
L 209.518111 112.13727 
L 209.618395 112.570926 
L 209.71868 93.28585 
L 209.818964 123.249823 
L 210.019533 105.840938 
L 210.119818 112.993434 
L 210.220103 103.889833 
L 210.320387 122.198556 
L 210.420672 105.937532 
L 210.520956 110.674743 
L 210.621241 110.537956 
L 210.721525 107.460181 
L 210.82181 107.774249 
L 210.922095 113.826844 
L 211.122664 102.372803 
L 211.222948 110.509519 
L 211.323233 106.112464 
L 211.423517 111.8597 
L 211.523802 102.482647 
L 211.724371 118.705694 
L 211.824656 119.464989 
L 212.025225 106.628303 
L 212.125509 105.448986 
L 212.225794 118.563689 
L 212.326078 108.202395 
L 212.426363 117.4265 
L 212.526647 114.042433 
L 212.626932 102.149575 
L 212.727217 105.859897 
L 212.827501 114.481439 
L 213.02807 105.970336 
L 213.228639 112.164311 
L 213.328924 103.212055 
L 213.529493 114.772507 
L 213.629778 103.190049 
L 213.730062 105.664995 
L 213.930631 119.230524 
L 214.030916 101.793736 
L 214.1312 117.333583 
L 214.33177 107.965977 
L 214.432054 109.568867 
L 214.532339 109.822023 
L 214.632623 117.170796 
L 214.833192 108.677825 
L 214.933477 106.352615 
L 215.033761 112.536716 
L 215.334615 102.02417 
L 215.4349 121.269065 
L 215.535184 107.538484 
L 215.635469 122.130095 
L 215.735753 117.487986 
L 215.836038 120.528292 
L 216.136892 102.393739 
L 216.237176 115.717748 
L 216.337461 108.162977 
L 216.437745 111.509284 
L 216.638314 108.43172 
L 216.838883 100.633103 
L 216.939168 113.376917 
L 217.039453 110.262561 
L 217.240022 114.803584 
L 217.340306 109.051746 
L 217.440591 112.317345 
L 217.540875 106.234777 
L 217.64116 114.147601 
L 217.942014 107.155137 
L 218.042298 107.062446 
L 218.142583 100.88068 
L 218.543721 114.735288 
L 218.644006 109.538845 
L 218.844575 113.748617 
L 218.944859 107.264069 
L 219.045144 107.535289 
L 219.145428 109.077524 
L 219.345997 113.666297 
L 219.546567 108.921245 
L 219.646851 108.820211 
L 219.747136 109.320748 
L 219.84742 111.206955 
L 219.947705 109.159435 
L 220.148274 112.421217 
L 220.248558 109.736032 
L 220.348843 114.108549 
L 220.549412 110.089341 
L 220.649697 106.954321 
L 220.749981 108.446016 
L 220.850266 93.886631 
L 220.95055 118.899175 
L 221.15112 108.242216 
L 221.251404 111.03876 
L 221.351689 104.31316 
L 221.451973 112.452596 
L 221.652542 108.148505 
L 221.853111 118.588222 
L 221.953396 106.211057 
L 222.053681 116.311905 
L 222.153965 100.086758 
L 222.25425 116.484443 
L 222.454819 103.347007 
L 222.555103 102.103857 
L 222.655388 123.076407 
L 222.755672 110.964128 
L 222.855957 113.17402 
L 223.056526 109.741665 
L 223.156811 114.564678 
L 223.35738 106.126814 
L 223.457664 114.536297 
L 223.557949 108.177134 
L 223.658233 111.778053 
L 223.758518 91.418225 
L 223.959087 120.628952 
L 224.059372 99.511351 
L 224.159656 115.48088 
L 224.360225 95.028774 
L 224.46051 118.930151 
L 224.560795 106.632913 
L 224.761364 111.07793 
L 224.961933 101.618008 
L 225.162502 123.588872 
L 225.262786 115.374641 
L 225.363071 91.538106 
L 225.56364 111.703698 
L 225.663925 113.619852 
L 225.764209 110.031367 
L 225.864494 113.908458 
L 225.964778 104.720995 
L 226.065063 112.314439 
L 226.265632 110.360362 
L 226.365917 113.177769 
L 226.466201 122.005 
L 226.66677 110.680568 
L 226.767055 111.630368 
L 226.967624 109.699635 
L 227.067908 111.425064 
L 227.168193 111.306171 
L 227.268478 112.652566 
L 227.368762 98.03892 
L 227.469047 114.081187 
L 227.569331 104.070827 
L 227.7699 127.286719 
L 227.97047 97.356645 
L 228.171039 109.753082 
L 228.271323 114.939831 
L 228.371608 105.429482 
L 228.572177 128.460649 
L 228.772746 105.689581 
L 228.873031 113.080461 
L 228.973315 109.04624 
L 229.0736 109.55327 
L 229.274169 112.470294 
L 229.374453 109.055074 
L 229.575022 113.723522 
L 229.675307 108.75084 
L 229.775592 109.264095 
L 229.875876 109.733418 
L 229.976161 113.699281 
L 230.076445 109.176093 
L 230.17673 110.204874 
L 230.277014 114.603717 
L 230.377299 105.062192 
L 230.477583 110.567819 
L 230.577868 127.044198 
L 230.678153 85.771385 
L 230.878722 119.712571 
L 230.979006 112.030864 
L 231.079291 116.516658 
L 231.179575 97.606034 
L 231.27986 115.092877 
L 231.380145 108.612742 
L 231.480429 112.49724 
L 231.580714 109.213511 
L 231.680998 110.724357 
L 231.781283 107.332828 
L 231.881567 112.217058 
L 231.981852 111.410993 
L 232.082136 117.557517 
L 232.182421 139.316433 
L 232.483275 83.568292 
L 232.683844 139.529656 
L 232.884413 97.830744 
L 232.984697 109.477343 
L 233.084982 111.169832 
L 233.185267 109.976044 
L 233.285551 114.204428 
L 233.385836 123.84437 
L 233.48612 106.792692 
L 233.586405 113.952106 
L 233.786974 107.631502 
L 233.887258 106.693762 
L 233.987543 111.583222 
L 234.087828 124.203488 
L 234.188112 115.46961 
L 234.288397 78.601395 
L 234.388681 124.656977 
L 234.488966 98.945774 
L 234.689535 106.994752 
L 234.78982 116.17997 
L 234.890104 115.211535 
L 235.190958 106.766813 
L 235.291242 115.539724 
L 235.491811 101.540346 
L 235.692381 115.597468 
L 235.792665 116.829345 
L 235.89295 110.9591 
L 235.993234 124.379042 
L 236.093519 109.554596 
L 236.193803 116.98101 
L 236.394372 105.85414 
L 236.494657 124.740562 
L 236.795511 103.681497 
L 236.895795 98.084469 
L 236.99608 129.264398 
L 237.196649 103.529406 
L 237.296934 110.935828 
L 237.397218 96.483236 
L 237.497503 111.576991 
L 237.597787 101.354205 
L 237.698072 102.3789 
L 237.798356 93.831798 
L 237.898641 111.378322 
L 237.998925 102.031583 
L 238.09921 110.156135 
L 238.299779 107.272755 
L 238.400064 108.588689 
L 238.500348 111.599522 
L 238.700917 105.518225 
L 239.001771 119.010872 
L 239.102056 105.754215 
L 239.20234 115.334435 
L 239.302625 105.830742 
L 239.503194 113.376878 
L 239.603478 101.940834 
L 239.703763 109.711874 
L 239.804047 107.035937 
L 239.904332 95.471845 
L 240.104901 125.719664 
L 240.205186 104.599072 
L 240.405755 121.392127 
L 240.606324 102.665628 
L 241.007462 121.115917 
L 241.308316 93.524944 
L 241.508885 127.893905 
L 241.709454 89.773617 
L 241.910023 116.901839 
L 242.110592 96.489212 
L 242.210877 110.225365 
L 242.311161 88.889974 
L 242.7123 124.447697 
L 242.812584 111.607236 
L 242.912869 121.546454 
L 243.013153 113.658977 
L 243.213722 68.52944 
L 243.414292 124.985036 
L 243.514576 93.846897 
L 243.614861 106.45727 
L 243.715145 83.90268 
L 243.915714 147.744073 
L 244.015999 78.844815 
L 244.417137 133.057629 
L 244.617706 104.245527 
L 244.717991 133.644502 
L 244.818275 102.880639 
L 244.91856 112.148489 
L 245.018845 105.822715 
L 245.119129 132.733729 
L 245.319698 96.073847 
L 245.419983 125.036963 
L 245.720836 99.990972 
L 245.821121 107.279227 
L 245.921406 99.138659 
L 246.222259 119.76852 
L 246.422828 109.010167 
L 246.523113 115.734394 
L 246.723682 107.749847 
L 246.924251 123.470013 
L 247.024536 109.063236 
L 247.12482 112.521349 
L 247.225105 85.230876 
L 247.325389 143.581109 
L 247.525959 90.11777 
L 247.726528 132.601306 
L 247.826812 83.326153 
L 247.927097 101.096951 
L 248.027381 99.313218 
L 248.127666 91.27897 
L 248.22795 96.418002 
L 248.328235 155.965647 
L 248.42852 118.619415 
L 248.629089 126.478369 
L 248.929942 100.009963 
L 249.030227 97.49919 
L 249.130511 67.388336 
L 249.331081 123.867421 
L 249.431365 96.896025 
L 249.53165 115.691639 
L 249.631934 104.122635 
L 249.832503 121.365549 
L 249.932788 109.154119 
L 250.033072 120.787844 
L 250.133357 113.436901 
L 250.333926 142.907551 
L 250.534495 110.496111 
L 250.63478 121.681441 
L 250.735064 112.567407 
L 250.835349 91.257279 
L 251.035918 116.806587 
L 251.136203 121.537624 
L 251.236487 119.809761 
L 251.336772 111.720513 
L 251.437056 119.20509 
L 251.537341 118.707933 
L 251.637625 108.23256 
L 251.73791 110.201868 
L 251.838195 173.057563 
L 252.038764 97.332249 
L 252.139048 96.094507 
L 252.239333 129.884461 
L 252.339617 115.468203 
L 252.540186 141.570544 
L 252.640471 110.754473 
L 252.740756 115.711527 
L 252.84104 91.03826 
L 252.941325 129.676974 
L 253.041609 81.49019 
L 253.242178 115.226366 
L 253.342463 110.349821 
L 253.442747 138.246763 
L 253.643317 71.008975 
L 253.743601 140.941298 
L 253.843886 111.789766 
L 254.044455 125.798974 
L 254.245024 102.894954 
L 254.345309 133.02099 
L 254.545878 115.195088 
L 254.646162 107.317944 
L 254.746447 117.851571 
L 254.947016 98.888686 
L 255.348154 124.596748 
L 255.448439 121.364221 
L 255.548723 92.927195 
L 255.749292 120.179447 
L 255.849577 128.855564 
L 255.949861 89.48848 
L 256.150431 106.245296 
L 256.250715 108.713032 
L 256.351 122.1826 
L 256.451284 113.790432 
L 256.551569 147.515422 
L 256.752138 105.338985 
L 256.852422 113.892422 
L 257.052992 105.413063 
L 257.253561 125.630118 
L 257.353845 95.420163 
L 257.45413 124.85894 
L 257.554414 107.566469 
L 257.654699 118.670217 
L 257.754984 98.984208 
L 257.855268 115.922371 
L 257.955553 101.168925 
L 258.055837 109.463705 
L 258.156122 97.041356 
L 258.256406 120.645989 
L 258.456975 112.587971 
L 258.55726 113.092563 
L 258.657545 126.453247 
L 258.757829 108.411423 
L 258.858114 109.742336 
L 258.958398 94.411572 
L 259.058683 124.458554 
L 259.359536 64.004433 
L 259.560106 142.872117 
L 259.760675 96.364897 
L 260.061528 129.532241 
L 260.161813 72.643763 
L 260.262097 109.326449 
L 260.362382 84.532033 
L 260.562951 129.003292 
L 260.663236 113.043875 
L 260.76352 131.295927 
L 260.863805 129.703619 
L 260.964089 91.335258 
L 261.064374 107.960059 
L 261.164659 104.485451 
L 261.264943 121.137683 
L 261.365228 115.9902 
L 261.465512 95.053415 
L 261.565797 111.656134 
L 261.666081 99.175123 
L 261.766366 101.484528 
L 261.86665 110.727399 
L 261.966935 133.276963 
L 262.06722 126.745377 
L 262.167504 83.952371 
L 262.267789 91.458777 
L 262.368073 144.259182 
L 262.568642 98.005595 
L 262.668927 112.363787 
L 262.769211 103.334519 
L 262.869496 126.803181 
L 262.969781 122.313893 
L 263.17035 108.784479 
L 263.370919 117.315136 
L 263.471203 107.8048 
L 263.571488 122.124996 
L 263.671773 117.705382 
L 263.772057 99.871108 
L 263.872342 124.408827 
L 263.972626 107.789275 
L 264.072911 62.879631 
L 264.474049 110.141005 
L 264.574334 106.35909 
L 264.674618 130.28484 
L 264.875187 112.030098 
L 264.975472 126.384801 
L 265.075756 93.346498 
L 265.176041 121.897426 
L 265.37661 96.063402 
L 265.476895 114.873537 
L 265.577179 114.862704 
L 265.677464 114.490412 
L 265.878033 99.170541 
L 265.978317 125.06813 
L 266.178886 106.122299 
L 266.279171 127.832089 
L 266.379456 100.530225 
L 266.47974 107.683602 
L 266.580025 102.730516 
L 266.680309 156.224356 
L 266.780594 91.244873 
L 266.880878 98.174479 
L 267.081448 123.597251 
L 267.282017 78.725966 
L 267.382301 121.367982 
L 267.58287 92.045979 
L 267.683155 99.890778 
L 267.783439 97.211913 
L 267.883724 122.537724 
L 268.084293 99.432193 
L 268.184578 97.483131 
L 268.284862 111.794868 
L 268.385147 47.911381 
L 268.485431 124.761302 
L 268.585716 31.606076 
L 268.686 99.386926 
L 268.786285 91.541251 
L 268.986854 48.062228 
L 269.087139 142.841808 
L 269.187423 118.082971 
L 269.287708 128.417846 
L 269.387992 101.567949 
L 269.488277 102.14111 
L 269.588561 135.516569 
L 269.688846 99.36078 
L 269.889415 129.668951 
L 270.089984 97.187006 
L 270.190269 108.981882 
L 270.290553 88.941933 
L 270.591407 126.636349 
L 270.992545 93.459925 
L 271.09283 110.344811 
L 271.193114 102.469759 
L 271.293399 124.012264 
L 271.493968 98.443198 
L 271.594253 106.790887 
L 271.694537 102.253181 
L 271.794822 121.525317 
L 271.895106 99.131547 
L 272.095675 119.914602 
L 272.19596 116.66456 
L 272.296245 117.501357 
L 272.396529 132.657363 
L 272.496814 38.323018 
L 272.697383 141.697022 
L 272.797667 102.530695 
L 272.897952 105.041035 
L 272.998236 112.210178 
L 273.198806 87.561467 
L 273.29909 104.406254 
L 273.399375 100.694038 
L 273.499659 104.317531 
L 273.599944 116.016113 
L 273.700228 107.127133 
L 273.900798 113.584145 
L 274.001082 105.66091 
L 274.101367 118.807663 
L 274.201651 110.49852 
L 274.301936 111.081426 
L 274.40222 108.656268 
L 274.502505 115.57064 
L 274.602789 111.808037 
L 274.703074 103.373524 
L 274.803359 112.242041 
L 274.903643 106.480992 
L 275.003928 114.043137 
L 275.204497 99.397129 
L 275.304781 114.435684 
L 275.405066 112.55414 
L 275.50535 106.920555 
L 275.70592 119.77625 
L 275.806204 102.064466 
L 275.906489 117.02021 
L 276.006773 96.874724 
L 276.107058 102.059926 
L 276.307627 116.161206 
L 276.407911 122.63748 
L 276.508196 100.690063 
L 276.708765 125.712819 
L 276.909334 103.917082 
L 277.109903 98.163494 
L 277.210188 129.067757 
L 277.310473 123.174989 
L 277.410757 103.836959 
L 277.511042 118.931377 
L 277.611326 96.109012 
L 277.711611 124.44446 
L 277.811895 115.284643 
L 277.91218 119.006468 
L 278.012464 112.760055 
L 278.213034 122.994244 
L 278.413603 106.63121 
L 278.513887 113.973681 
L 278.614172 113.807604 
L 278.714456 110.676312 
L 278.814741 97.112003 
L 279.01531 123.263762 
L 279.115595 110.438875 
L 279.215879 121.546102 
L 279.516733 108.238115 
L 279.617017 120.435528 
L 279.717302 119.256241 
L 279.817586 119.116343 
L 280.11844 106.114847 
L 280.218725 106.06866 
L 280.319009 112.761796 
L 280.419294 111.292999 
L 280.519578 115.697262 
L 280.619863 110.596911 
L 280.720148 112.122661 
L 280.820432 110.617158 
L 281.021001 113.371871 
L 281.121286 100.806157 
L 281.22157 110.715824 
L 281.321855 109.040513 
L 281.422139 111.951066 
L 281.522424 111.939408 
L 281.622709 104.59599 
L 281.722993 117.165461 
L 282.023847 103.228147 
L 282.124131 105.84609 
L 282.224416 120.993049 
L 282.424985 108.004599 
L 282.625554 119.806432 
L 282.725839 98.593161 
L 282.826123 99.016622 
L 282.926408 115.290699 
L 283.126977 104.950566 
L 283.227261 105.571043 
L 283.327546 101.715551 
L 283.528115 120.222008 
L 283.728684 101.719336 
L 284.029538 116.682517 
L 284.129823 109.290899 
L 284.330392 118.202482 
L 284.430676 117.094071 
L 284.530961 106.496878 
L 284.631245 107.144519 
L 284.73153 104.046546 
L 284.831814 112.558156 
L 284.932099 111.950459 
L 285.132668 110.917118 
L 285.232953 104.640677 
L 285.433522 120.268957 
L 285.533806 117.000396 
L 285.634091 107.725051 
L 285.734375 111.33661 
L 285.83466 108.643117 
L 285.934945 115.35064 
L 286.035229 108.013098 
L 286.336083 121.145105 
L 286.436367 91.731102 
L 286.536652 121.471541 
L 286.636936 92.212364 
L 286.737221 117.547191 
L 286.93779 110.498766 
L 287.038075 124.192038 
L 287.138359 107.986952 
L 287.238644 124.562099 
L 287.338928 116.910929 
L 287.439213 118.372453 
L 287.539498 123.980192 
L 287.639782 102.320653 
L 287.740067 109.724953 
L 287.840351 131.134243 
L 287.940636 112.403992 
L 288.04092 118.569586 
L 288.141205 132.527635 
L 288.241489 105.516484 
L 288.341774 111.921505 
L 288.442059 107.169421 
L 288.642628 120.115451 
L 288.742912 106.643864 
L 288.843197 109.588135 
L 288.943481 109.477771 
L 289.043766 107.68432 
L 289.14405 116.266975 
L 289.244335 110.033379 
L 289.34462 110.564321 
L 289.444904 113.386208 
L 289.545189 110.31356 
L 289.645473 127.237509 
L 289.846042 106.470899 
L 289.946327 116.567474 
L 290.046612 111.597389 
L 290.146896 100.907101 
L 290.247181 110.590571 
L 290.347465 107.011968 
L 290.548034 114.105435 
L 290.648319 97.377795 
L 290.848888 109.905585 
L 290.949173 110.5277 
L 291.049457 113.653578 
L 291.149742 106.437587 
L 291.250026 122.923167 
L 291.350311 107.632689 
L 291.450595 117.194374 
L 291.55088 108.896596 
L 291.651164 125.072394 
L 291.751449 112.419462 
L 291.851734 113.314703 
L 292.052303 97.62532 
L 292.353156 126.502313 
L 292.453441 109.298101 
L 292.65401 123.213996 
L 292.754295 119.528784 
L 292.954864 95.499826 
L 293.055148 125.567288 
L 293.255717 111.0237 
L 293.356002 101.579407 
L 293.556571 120.38023 
L 293.656856 118.593719 
L 293.75714 96.060731 
L 293.857425 106.802158 
L 293.957709 88.683482 
L 294.057994 89.523664 
L 294.158278 130.391354 
L 294.358848 101.079956 
L 294.459132 124.794695 
L 294.559417 95.984416 
L 294.759986 125.035625 
L 294.960555 100.756852 
L 295.060839 120.813913 
L 295.161124 105.143628 
L 295.261409 115.610594 
L 295.361693 109.355996 
L 295.461978 109.901759 
L 295.562262 111.908924 
L 295.662547 121.94125 
L 295.762831 103.940485 
L 295.863116 120.574122 
L 295.9634 101.253435 
L 296.364539 121.660351 
L 296.565108 110.221225 
L 296.665392 103.448015 
L 296.765677 111.395738 
L 296.865962 109.282688 
L 297.066531 113.483268 
L 297.166815 113.759026 
L 297.2671 101.843523 
L 297.367384 114.825533 
L 297.467669 104.063779 
L 297.668238 111.278432 
L 297.868807 97.560228 
L 297.969092 121.414401 
L 298.069376 113.121749 
L 298.169661 119.499192 
L 298.269945 95.104658 
L 298.37023 112.7833 
L 298.470514 105.176497 
L 298.570799 123.726723 
L 298.871653 111.775238 
L 298.971937 115.579087 
L 299.072222 112.047721 
L 299.172506 120.490756 
L 299.373075 103.348565 
L 299.47336 130.09349 
L 299.573645 111.801735 
L 299.673929 121.044309 
L 299.874498 94.783705 
L 299.974783 125.099155 
L 300.075067 110.168021 
L 300.175352 130.970143 
L 300.375921 85.705871 
L 300.476206 115.798174 
L 300.57649 114.187792 
L 300.676775 107.638707 
L 300.777059 121.334954 
L 300.877344 103.602389 
L 300.977628 113.147194 
L 301.278482 97.15059 
L 301.378767 103.706993 
L 301.479051 99.3803 
L 301.579336 102.67664 
L 301.67962 81.163581 
L 301.779905 121.923881 
L 301.980474 98.741094 
L 302.080759 105.287394 
L 302.181043 120.693942 
L 302.281328 102.875689 
L 302.381612 117.719342 
L 302.582181 109.632614 
L 302.682466 122.853743 
L 302.78275 112.754372 
L 303.083604 133.481955 
L 303.183889 115.594614 
L 303.284173 118.941692 
L 303.384458 87.730611 
L 303.585027 113.431827 
L 303.685312 106.087795 
L 303.785596 124.864312 
L 303.885881 94.143471 
L 303.986165 104.074143 
L 304.08645 103.506175 
L 304.287019 125.483785 
L 304.487588 108.30741 
L 304.587873 106.960646 
L 304.788442 114.49093 
L 304.989011 110.765884 
L 305.089295 114.661148 
L 305.18958 126.31168 
L 305.289864 105.148038 
L 305.390149 119.707919 
L 305.490434 103.4389 
L 305.590718 104.046506 
L 305.691003 113.796616 
L 305.791287 113.160082 
L 305.891572 82.809912 
L 305.991856 103.926649 
L 306.092141 99.227541 
L 306.392995 114.879559 
L 306.493279 113.232568 
L 306.593564 113.418181 
L 306.693848 96.394133 
L 306.794133 125.315854 
L 306.994702 100.408464 
L 307.094987 110.831268 
L 307.39584 103.987184 
L 307.496125 115.233537 
L 307.596409 106.914727 
L 307.796978 120.42303 
L 307.897263 109.701922 
L 307.997548 124.122392 
L 308.097832 104.63374 
L 308.198117 120.552593 
L 308.298401 112.639246 
L 308.398686 116.300365 
L 308.699539 97.129404 
L 308.799824 121.126457 
L 308.900109 102.312275 
L 309.000393 110.428451 
L 309.401531 91.601779 
L 309.501816 106.780673 
L 309.6021 75.95837 
L 309.80267 115.771401 
L 309.902954 114.963504 
L 310.003239 108.078068 
L 310.203808 124.042467 
L 310.304092 112.884144 
L 310.404377 123.719262 
L 310.504662 117.304343 
L 310.705231 91.919969 
L 310.9058 121.464791 
L 311.006084 111.207363 
L 311.106369 118.618053 
L 311.306938 106.865244 
L 311.507507 94.261554 
L 311.607792 113.888983 
L 311.708076 106.003866 
L 311.908645 116.688896 
L 312.109214 104.154662 
L 312.209499 113.899242 
L 312.309784 108.939555 
L 312.410068 111.411322 
L 312.710922 130.167761 
L 312.811206 89.41625 
L 312.911491 113.624873 
L 313.11206 106.207669 
L 313.212345 113.771729 
L 313.312629 112.504586 
L 313.412914 106.219471 
L 313.513198 118.397385 
L 313.613483 100.683945 
L 313.814052 125.407714 
L 314.014621 117.967045 
L 314.114906 105.174084 
L 314.21519 115.483069 
L 314.315475 101.704111 
L 314.415759 103.917959 
L 314.616328 124.545138 
L 314.816898 110.148548 
L 314.917182 112.033815 
L 315.017467 122.876613 
L 315.117751 110.906401 
L 315.218036 116.123821 
L 315.31832 98.158915 
L 315.619174 123.956876 
L 315.719459 125.553496 
L 315.920028 102.739988 
L 316.120597 108.98385 
L 316.220881 109.184663 
L 316.421451 115.166206 
L 316.62202 102.911439 
L 316.722304 121.578776 
L 316.822589 101.328508 
L 316.922873 122.465149 
L 317.023158 116.73231 
L 317.223727 89.146551 
L 317.324012 111.730601 
L 317.424296 104.532786 
L 317.524581 118.040433 
L 317.624865 103.873293 
L 317.72515 122.652137 
L 317.825434 103.804981 
L 317.925719 124.587261 
L 318.026003 112.864533 
L 318.126288 128.664327 
L 318.326857 94.681262 
L 318.527426 119.426104 
L 318.82828 116.554159 
L 318.928564 108.677415 
L 319.028849 115.636789 
L 319.129134 111.20322 
L 319.229418 112.889015 
L 319.329703 112.505246 
L 319.429987 121.584569 
L 319.630556 108.102028 
L 319.730841 106.244332 
L 319.831126 109.131768 
L 319.93141 106.878537 
L 320.031695 114.059061 
L 320.232264 102.948209 
L 320.432833 118.978808 
L 320.533117 109.11786 
L 320.733687 115.31256 
L 320.833971 112.753386 
L 321.03454 114.861005 
L 321.134825 110.959397 
L 321.335394 117.053858 
L 321.435678 114.288107 
L 321.535963 114.937921 
L 321.736532 103.303059 
L 321.937101 114.681883 
L 322.037386 113.717927 
L 322.13767 115.216424 
L 322.338239 105.21194 
L 322.438524 117.197016 
L 322.538809 114.558844 
L 322.639093 130.330579 
L 322.839662 98.349682 
L 322.939947 122.592796 
L 323.040231 101.682799 
L 323.140516 101.741114 
L 323.341085 146.054375 
L 323.44137 114.565544 
L 323.541654 116.685358 
L 323.641939 112.92272 
L 323.742223 118.395269 
L 323.942792 116.895487 
L 324.043077 104.459421 
L 324.143362 112.516298 
L 324.343931 102.566866 
L 324.444215 102.438571 
L 324.644784 126.764735 
L 324.745069 125.803231 
L 324.845353 113.726832 
L 324.945638 113.865679 
L 325.045923 113.771949 
L 325.146207 117.197167 
L 325.246492 116.713358 
L 325.447061 122.576833 
L 325.64763 107.555039 
L 325.747914 107.792502 
L 325.848199 114.894122 
L 326.048768 102.915137 
L 326.249337 120.528763 
L 326.449906 122.451341 
L 326.550191 111.481005 
L 326.650476 125.149127 
L 326.75076 106.925495 
L 326.851045 127.74619 
L 326.951329 101.124196 
L 327.051614 106.356809 
L 327.151898 105.033185 
L 327.452752 119.873939 
L 327.553037 118.068724 
L 327.653321 121.624913 
L 327.753606 107.562402 
L 327.85389 117.954311 
L 327.954175 117.229962 
L 328.054459 107.701691 
L 328.255028 119.023358 
L 328.455598 109.436512 
L 328.555882 112.931843 
L 328.656167 122.360018 
L 328.756451 111.579574 
L 328.856736 112.195794 
L 328.95702 118.405331 
L 329.057305 116.309844 
L 329.157589 118.160528 
L 329.257874 105.071712 
L 329.358159 109.34392 
L 329.458443 99.806195 
L 329.558728 120.979855 
L 329.659012 90.096655 
L 329.959866 130.504128 
L 330.060151 124.448244 
L 330.160435 106.410466 
L 330.26072 130.051186 
L 330.361004 107.704178 
L 330.461289 120.564007 
L 330.561573 105.84271 
L 330.661858 133.300988 
L 330.862427 113.416422 
L 330.962712 123.690023 
L 331.062996 93.308801 
L 331.163281 123.058943 
L 331.263565 113.478497 
L 331.36385 126.931736 
L 331.464134 88.55824 
L 331.664703 116.531032 
L 331.764988 112.782778 
L 331.865273 100.40631 
L 332.065842 114.715211 
L 332.166126 118.364965 
L 332.266411 111.635026 
L 332.46698 118.966737 
L 332.567264 106.307169 
L 332.767834 114.409365 
L 332.868118 115.881084 
L 332.968403 120.650546 
L 333.068687 109.845014 
L 333.168972 113.605888 
L 333.269256 106.935331 
L 333.469826 122.104878 
L 333.57011 110.509428 
L 333.770679 115.294613 
L 333.870964 113.864517 
L 333.971248 105.125952 
L 334.071533 109.541534 
L 334.171817 107.077939 
L 334.272102 107.948555 
L 334.372387 111.734373 
L 334.472671 109.796987 
L 334.572956 110.750909 
L 334.67324 116.736849 
L 334.773525 107.444572 
L 334.873809 109.643078 
L 334.974094 119.602674 
L 335.174663 178.611074 
L 335.375232 112.892328 
L 335.475517 117.093546 
L 335.676086 111.750725 
L 335.77637 117.509887 
L 335.976939 106.244499 
L 336.077224 115.643249 
L 336.177509 109.912355 
L 336.378078 116.165788 
L 336.478362 114.259779 
L 336.678931 103.770975 
L 336.879501 117.489528 
L 336.979785 117.711695 
L 337.08007 114.824466 
L 337.180354 101.536076 
L 337.280639 124.800667 
L 337.380923 97.840344 
L 337.481208 121.768757 
L 337.581492 99.113791 
L 337.681777 112.398298 
L 337.782062 105.064292 
L 337.982631 114.590694 
L 338.082915 111.615186 
L 338.1832 112.936358 
L 338.283484 105.150981 
L 338.383769 127.6328 
L 338.684623 109.037922 
L 338.885192 97.671744 
L 338.985476 121.13741 
L 339.186045 101.622489 
L 339.28633 121.188508 
L 339.486899 87.995127 
L 339.587184 142.146677 
L 339.687468 140.426286 
L 339.787753 93.253295 
L 339.888037 129.147357 
L 340.088606 70.911039 
L 340.188891 143.104717 
L 340.590029 85.815532 
L 340.690314 112.766518 
L 340.790598 100.409959 
L 340.890883 133.004705 
L 340.991167 127.549048 
L 341.091452 109.766945 
L 341.191737 130.381344 
L 341.292021 110.333685 
L 341.392306 114.447345 
L 341.49259 102.937289 
L 341.693159 108.73571 
L 341.793444 106.925862 
L 341.893728 86.842248 
L 341.994013 105.572458 
L 342.094298 103.277754 
L 342.194582 97.997084 
L 342.395151 130.043892 
L 342.495436 137.131407 
L 342.696005 104.836623 
L 342.896574 122.02133 
L 342.996859 100.820414 
L 343.097143 111.760032 
L 343.197428 108.410683 
L 343.297712 110.206595 
L 343.498281 100.702783 
L 343.598566 105.792777 
L 343.698851 117.96795 
L 343.799135 103.071385 
L 343.89942 136.974004 
L 344.099989 99.294257 
L 344.200273 120.837116 
L 344.300558 99.070245 
L 344.400842 100.862328 
L 344.601412 116.625313 
L 344.701696 105.01541 
L 344.902265 118.853156 
L 345.102834 108.966681 
L 345.203119 104.893234 
L 345.303403 113.783042 
L 345.503973 108.058929 
L 345.604257 113.539532 
L 345.704542 113.304942 
L 346.005395 108.13048 
L 346.10568 115.160703 
L 346.406534 111.251294 
L 346.506818 112.771291 
L 346.506818 112.771291 
" style="fill:none;stroke:#1f77b4;stroke-linecap:square;stroke-width:1.5;"/>
   </g>
   <g id="patch_3">
    <path d="M 26.925 228.14 
L 26.925 10.7 
" style="fill:none;stroke:#000000;stroke-linecap:square;stroke-linejoin:miter;stroke-width:0.8;"/>
   </g>
   <g id="patch_4">
    <path d="M 361.725 228.14 
L 361.725 10.7 
" style="fill:none;stroke:#000000;stroke-linecap:square;stroke-linejoin:miter;stroke-width:0.8;"/>
   </g>
   <g id="patch_5">
    <path d="M 26.925 228.14 
L 361.725 228.14 
" style="fill:none;stroke:#000000;stroke-linecap:square;stroke-linejoin:miter;stroke-width:0.8;"/>
   </g>
   <g id="patch_6">
    <path d="M 26.925 10.7 
L 361.725 10.7 
" style="fill:none;stroke:#000000;stroke-linecap:square;stroke-linejoin:miter;stroke-width:0.8;"/>
   </g>
  </g>
 </g>
 <defs>
  <clipPath id="pd455c8bfda">
   <rect height="217.44" width="334.8" x="26.925" y="10.7"/>
  </clipPath>
 </defs>
</svg>
