<?xml version="1.0" encoding="utf-8" standalone="no"?>
<!DOCTYPE svg PUBLIC "-//W3C//DTD SVG 1.1//EN"
  "http://www.w3.org/Graphics/SVG/1.1/DTD/svg11.dtd">
<!-- Created with matplotlib (http://matplotlib.org/) -->
<svg height="300.690125pt" version="1.1" viewBox="0 0 394.745 300.690125" width="394.745pt" xmlns="http://www.w3.org/2000/svg" xmlns:xlink="http://www.w3.org/1999/xlink">
 <defs>
  <style type="text/css">
*{stroke-linecap:butt;stroke-linejoin:round;}
  </style>
 </defs>
 <g id="figure_1">
  <g id="patch_1">
   <path d="M 0 300.690125 
L 394.745 300.690125 
L 394.745 0 
L 0 0 
z
" style="fill:#ffffff;"/>
  </g>
  <g id="axes_1">
   <g id="patch_2">
    <path d="M 26.925 276.812 
L 384.045 276.812 
L 384.045 10.7 
L 26.925 10.7 
z
" style="fill:#ffffff;"/>
   </g>
   <g id="matplotlib.axis_1">
    <g id="xtick_1">
     <g id="line2d_1">
      <defs>
       <path d="M 0 0 
L 0 3.5 
" id="me5c755b094" style="stroke:#000000;stroke-width:0.8;"/>
      </defs>
      <g>
       <use style="stroke:#000000;stroke-width:0.8;" x="43.157727" xlink:href="#me5c755b094" y="276.812"/>
      </g>
     </g>
     <g id="text_1">
      <!-- 0 -->
      <defs>
       <path d="M 31.78125 66.40625 
Q 24.171875 66.40625 20.328125 58.90625 
Q 16.5 51.421875 16.5 36.375 
Q 16.5 21.390625 20.328125 13.890625 
Q 24.171875 6.390625 31.78125 6.390625 
Q 39.453125 6.390625 43.28125 13.890625 
Q 47.125 21.390625 47.125 36.375 
Q 47.125 51.421875 43.28125 58.90625 
Q 39.453125 66.40625 31.78125 66.40625 
z
M 31.78125 74.21875 
Q 44.046875 74.21875 50.515625 64.515625 
Q 56.984375 54.828125 56.984375 36.375 
Q 56.984375 17.96875 50.515625 8.265625 
Q 44.046875 -1.421875 31.78125 -1.421875 
Q 19.53125 -1.421875 13.0625 8.265625 
Q 6.59375 17.96875 6.59375 36.375 
Q 6.59375 54.828125 13.0625 64.515625 
Q 19.53125 74.21875 31.78125 74.21875 
z
" id="DejaVuSans-30"/>
      </defs>
      <g transform="translate(39.976477 291.410437)scale(0.1 -0.1)">
       <use xlink:href="#DejaVuSans-30"/>
      </g>
     </g>
    </g>
    <g id="xtick_2">
     <g id="line2d_2">
      <g>
       <use style="stroke:#000000;stroke-width:0.8;" x="117.144634" xlink:href="#me5c755b094" y="276.812"/>
      </g>
     </g>
     <g id="text_2">
      <!-- 500 -->
      <defs>
       <path d="M 10.796875 72.90625 
L 49.515625 72.90625 
L 49.515625 64.59375 
L 19.828125 64.59375 
L 19.828125 46.734375 
Q 21.96875 47.46875 24.109375 47.828125 
Q 26.265625 48.1875 28.421875 48.1875 
Q 40.625 48.1875 47.75 41.5 
Q 54.890625 34.8125 54.890625 23.390625 
Q 54.890625 11.625 47.5625 5.09375 
Q 40.234375 -1.421875 26.90625 -1.421875 
Q 22.3125 -1.421875 17.546875 -0.640625 
Q 12.796875 0.140625 7.71875 1.703125 
L 7.71875 11.625 
Q 12.109375 9.234375 16.796875 8.0625 
Q 21.484375 6.890625 26.703125 6.890625 
Q 35.15625 6.890625 40.078125 11.328125 
Q 45.015625 15.765625 45.015625 23.390625 
Q 45.015625 31 40.078125 35.4375 
Q 35.15625 39.890625 26.703125 39.890625 
Q 22.75 39.890625 18.8125 39.015625 
Q 14.890625 38.140625 10.796875 36.28125 
z
" id="DejaVuSans-35"/>
      </defs>
      <g transform="translate(107.600884 291.410437)scale(0.1 -0.1)">
       <use xlink:href="#DejaVuSans-35"/>
       <use x="63.623047" xlink:href="#DejaVuSans-30"/>
       <use x="127.246094" xlink:href="#DejaVuSans-30"/>
      </g>
     </g>
    </g>
    <g id="xtick_3">
     <g id="line2d_3">
      <g>
       <use style="stroke:#000000;stroke-width:0.8;" x="191.13154" xlink:href="#me5c755b094" y="276.812"/>
      </g>
     </g>
     <g id="text_3">
      <!-- 1000 -->
      <defs>
       <path d="M 12.40625 8.296875 
L 28.515625 8.296875 
L 28.515625 63.921875 
L 10.984375 60.40625 
L 10.984375 69.390625 
L 28.421875 72.90625 
L 38.28125 72.90625 
L 38.28125 8.296875 
L 54.390625 8.296875 
L 54.390625 0 
L 12.40625 0 
z
" id="DejaVuSans-31"/>
      </defs>
      <g transform="translate(178.40654 291.410437)scale(0.1 -0.1)">
       <use xlink:href="#DejaVuSans-31"/>
       <use x="63.623047" xlink:href="#DejaVuSans-30"/>
       <use x="127.246094" xlink:href="#DejaVuSans-30"/>
       <use x="190.869141" xlink:href="#DejaVuSans-30"/>
      </g>
     </g>
    </g>
    <g id="xtick_4">
     <g id="line2d_4">
      <g>
       <use style="stroke:#000000;stroke-width:0.8;" x="265.118447" xlink:href="#me5c755b094" y="276.812"/>
      </g>
     </g>
     <g id="text_4">
      <!-- 1500 -->
      <g transform="translate(252.393447 291.410437)scale(0.1 -0.1)">
       <use xlink:href="#DejaVuSans-31"/>
       <use x="63.623047" xlink:href="#DejaVuSans-35"/>
       <use x="127.246094" xlink:href="#DejaVuSans-30"/>
       <use x="190.869141" xlink:href="#DejaVuSans-30"/>
      </g>
     </g>
    </g>
    <g id="xtick_5">
     <g id="line2d_5">
      <g>
       <use style="stroke:#000000;stroke-width:0.8;" x="339.105353" xlink:href="#me5c755b094" y="276.812"/>
      </g>
     </g>
     <g id="text_5">
      <!-- 2000 -->
      <defs>
       <path d="M 19.1875 8.296875 
L 53.609375 8.296875 
L 53.609375 0 
L 7.328125 0 
L 7.328125 8.296875 
Q 12.9375 14.109375 22.625 23.890625 
Q 32.328125 33.6875 34.8125 36.53125 
Q 39.546875 41.84375 41.421875 45.53125 
Q 43.3125 49.21875 43.3125 52.78125 
Q 43.3125 58.59375 39.234375 62.25 
Q 35.15625 65.921875 28.609375 65.921875 
Q 23.96875 65.921875 18.8125 64.3125 
Q 13.671875 62.703125 7.8125 59.421875 
L 7.8125 69.390625 
Q 13.765625 71.78125 18.9375 73 
Q 24.125 74.21875 28.421875 74.21875 
Q 39.75 74.21875 46.484375 68.546875 
Q 53.21875 62.890625 53.21875 53.421875 
Q 53.21875 48.921875 51.53125 44.890625 
Q 49.859375 40.875 45.40625 35.40625 
Q 44.1875 33.984375 37.640625 27.21875 
Q 31.109375 20.453125 19.1875 8.296875 
z
" id="DejaVuSans-32"/>
      </defs>
      <g transform="translate(326.380353 291.410437)scale(0.1 -0.1)">
       <use xlink:href="#DejaVuSans-32"/>
       <use x="63.623047" xlink:href="#DejaVuSans-30"/>
       <use x="127.246094" xlink:href="#DejaVuSans-30"/>
       <use x="190.869141" xlink:href="#DejaVuSans-30"/>
      </g>
     </g>
    </g>
   </g>
   <g id="matplotlib.axis_2">
    <g id="ytick_1">
     <g id="line2d_6">
      <defs>
       <path d="M 0 0 
L -3.5 0 
" id="me82c8aa7f0" style="stroke:#000000;stroke-width:0.8;"/>
      </defs>
      <g>
       <use style="stroke:#000000;stroke-width:0.8;" x="26.925" xlink:href="#me82c8aa7f0" y="252.60324"/>
      </g>
     </g>
     <g id="text_6">
      <!-- 6 -->
      <defs>
       <path d="M 33.015625 40.375 
Q 26.375 40.375 22.484375 35.828125 
Q 18.609375 31.296875 18.609375 23.390625 
Q 18.609375 15.53125 22.484375 10.953125 
Q 26.375 6.390625 33.015625 6.390625 
Q 39.65625 6.390625 43.53125 10.953125 
Q 47.40625 15.53125 47.40625 23.390625 
Q 47.40625 31.296875 43.53125 35.828125 
Q 39.65625 40.375 33.015625 40.375 
z
M 52.59375 71.296875 
L 52.59375 62.3125 
Q 48.875 64.0625 45.09375 64.984375 
Q 41.3125 65.921875 37.59375 65.921875 
Q 27.828125 65.921875 22.671875 59.328125 
Q 17.53125 52.734375 16.796875 39.40625 
Q 19.671875 43.65625 24.015625 45.921875 
Q 28.375 48.1875 33.59375 48.1875 
Q 44.578125 48.1875 50.953125 41.515625 
Q 57.328125 34.859375 57.328125 23.390625 
Q 57.328125 12.15625 50.6875 5.359375 
Q 44.046875 -1.421875 33.015625 -1.421875 
Q 20.359375 -1.421875 13.671875 8.265625 
Q 6.984375 17.96875 6.984375 36.375 
Q 6.984375 53.65625 15.1875 63.9375 
Q 23.390625 74.21875 37.203125 74.21875 
Q 40.921875 74.21875 44.703125 73.484375 
Q 48.484375 72.75 52.59375 71.296875 
z
" id="DejaVuSans-36"/>
      </defs>
      <g transform="translate(13.5625 256.402459)scale(0.1 -0.1)">
       <use xlink:href="#DejaVuSans-36"/>
      </g>
     </g>
    </g>
    <g id="ytick_2">
     <g id="line2d_7">
      <g>
       <use style="stroke:#000000;stroke-width:0.8;" x="26.925" xlink:href="#me82c8aa7f0" y="219.976794"/>
      </g>
     </g>
     <g id="text_7">
      <!-- 8 -->
      <defs>
       <path d="M 31.78125 34.625 
Q 24.75 34.625 20.71875 30.859375 
Q 16.703125 27.09375 16.703125 20.515625 
Q 16.703125 13.921875 20.71875 10.15625 
Q 24.75 6.390625 31.78125 6.390625 
Q 38.8125 6.390625 42.859375 10.171875 
Q 46.921875 13.96875 46.921875 20.515625 
Q 46.921875 27.09375 42.890625 30.859375 
Q 38.875 34.625 31.78125 34.625 
z
M 21.921875 38.8125 
Q 15.578125 40.375 12.03125 44.71875 
Q 8.5 49.078125 8.5 55.328125 
Q 8.5 64.0625 14.71875 69.140625 
Q 20.953125 74.21875 31.78125 74.21875 
Q 42.671875 74.21875 48.875 69.140625 
Q 55.078125 64.0625 55.078125 55.328125 
Q 55.078125 49.078125 51.53125 44.71875 
Q 48 40.375 41.703125 38.8125 
Q 48.828125 37.15625 52.796875 32.3125 
Q 56.78125 27.484375 56.78125 20.515625 
Q 56.78125 9.90625 50.3125 4.234375 
Q 43.84375 -1.421875 31.78125 -1.421875 
Q 19.734375 -1.421875 13.25 4.234375 
Q 6.78125 9.90625 6.78125 20.515625 
Q 6.78125 27.484375 10.78125 32.3125 
Q 14.796875 37.15625 21.921875 38.8125 
z
M 18.3125 54.390625 
Q 18.3125 48.734375 21.84375 45.5625 
Q 25.390625 42.390625 31.78125 42.390625 
Q 38.140625 42.390625 41.71875 45.5625 
Q 45.3125 48.734375 45.3125 54.390625 
Q 45.3125 60.0625 41.71875 63.234375 
Q 38.140625 66.40625 31.78125 66.40625 
Q 25.390625 66.40625 21.84375 63.234375 
Q 18.3125 60.0625 18.3125 54.390625 
z
" id="DejaVuSans-38"/>
      </defs>
      <g transform="translate(13.5625 223.776013)scale(0.1 -0.1)">
       <use xlink:href="#DejaVuSans-38"/>
      </g>
     </g>
    </g>
    <g id="ytick_3">
     <g id="line2d_8">
      <g>
       <use style="stroke:#000000;stroke-width:0.8;" x="26.925" xlink:href="#me82c8aa7f0" y="187.350347"/>
      </g>
     </g>
     <g id="text_8">
      <!-- 10 -->
      <g transform="translate(7.2 191.149566)scale(0.1 -0.1)">
       <use xlink:href="#DejaVuSans-31"/>
       <use x="63.623047" xlink:href="#DejaVuSans-30"/>
      </g>
     </g>
    </g>
    <g id="ytick_4">
     <g id="line2d_9">
      <g>
       <use style="stroke:#000000;stroke-width:0.8;" x="26.925" xlink:href="#me82c8aa7f0" y="154.723901"/>
      </g>
     </g>
     <g id="text_9">
      <!-- 12 -->
      <g transform="translate(7.2 158.52312)scale(0.1 -0.1)">
       <use xlink:href="#DejaVuSans-31"/>
       <use x="63.623047" xlink:href="#DejaVuSans-32"/>
      </g>
     </g>
    </g>
    <g id="ytick_5">
     <g id="line2d_10">
      <g>
       <use style="stroke:#000000;stroke-width:0.8;" x="26.925" xlink:href="#me82c8aa7f0" y="122.097455"/>
      </g>
     </g>
     <g id="text_10">
      <!-- 14 -->
      <defs>
       <path d="M 37.796875 64.3125 
L 12.890625 25.390625 
L 37.796875 25.390625 
z
M 35.203125 72.90625 
L 47.609375 72.90625 
L 47.609375 25.390625 
L 58.015625 25.390625 
L 58.015625 17.1875 
L 47.609375 17.1875 
L 47.609375 0 
L 37.796875 0 
L 37.796875 17.1875 
L 4.890625 17.1875 
L 4.890625 26.703125 
z
" id="DejaVuSans-34"/>
      </defs>
      <g transform="translate(7.2 125.896673)scale(0.1 -0.1)">
       <use xlink:href="#DejaVuSans-31"/>
       <use x="63.623047" xlink:href="#DejaVuSans-34"/>
      </g>
     </g>
    </g>
    <g id="ytick_6">
     <g id="line2d_11">
      <g>
       <use style="stroke:#000000;stroke-width:0.8;" x="26.925" xlink:href="#me82c8aa7f0" y="89.471008"/>
      </g>
     </g>
     <g id="text_11">
      <!-- 16 -->
      <g transform="translate(7.2 93.270227)scale(0.1 -0.1)">
       <use xlink:href="#DejaVuSans-31"/>
       <use x="63.623047" xlink:href="#DejaVuSans-36"/>
      </g>
     </g>
    </g>
    <g id="ytick_7">
     <g id="line2d_12">
      <g>
       <use style="stroke:#000000;stroke-width:0.8;" x="26.925" xlink:href="#me82c8aa7f0" y="56.844562"/>
      </g>
     </g>
     <g id="text_12">
      <!-- 18 -->
      <g transform="translate(7.2 60.643781)scale(0.1 -0.1)">
       <use xlink:href="#DejaVuSans-31"/>
       <use x="63.623047" xlink:href="#DejaVuSans-38"/>
      </g>
     </g>
    </g>
    <g id="ytick_8">
     <g id="line2d_13">
      <g>
       <use style="stroke:#000000;stroke-width:0.8;" x="26.925" xlink:href="#me82c8aa7f0" y="24.218115"/>
      </g>
     </g>
     <g id="text_13">
      <!-- 20 -->
      <g transform="translate(7.2 28.017334)scale(0.1 -0.1)">
       <use xlink:href="#DejaVuSans-32"/>
       <use x="63.623047" xlink:href="#DejaVuSans-30"/>
      </g>
     </g>
    </g>
   </g>
   <g id="line2d_14">
    <path clip-path="url(#p6f88ac5aca)" d="M 43.157727 184.773406 
L 43.305701 192.048238 
L 43.453675 191.004218 
L 43.601649 193.600632 
L 43.897596 189.19863 
L 44.04557 190.249741 
L 44.193544 193.538394 
L 44.489492 189.546762 
L 44.637465 190.029995 
L 44.785439 189.509864 
L 44.933413 189.498151 
L 45.081387 191.448827 
L 45.229361 190.527265 
L 45.377334 190.356568 
L 45.525308 191.023365 
L 45.821256 194.363702 
L 45.96923 190.06682 
L 46.117204 191.798622 
L 46.265177 195.54527 
L 46.413151 188.900819 
L 46.709099 196.9458 
L 47.005046 182.613001 
L 47.15302 195.876962 
L 47.300994 223.178842 
L 47.448968 183.030097 
L 47.596942 182.935733 
L 47.744915 190.990276 
L 47.892889 187.040926 
L 48.040863 191.409665 
L 48.188837 179.725134 
L 48.336811 182.223637 
L 48.484785 192.203211 
L 48.632758 193.946065 
L 48.780732 189.116885 
L 48.928706 189.738297 
L 49.07668 198.609127 
L 49.224654 192.5122 
L 49.372627 196.558042 
L 49.668575 181.669779 
L 49.816549 186.706122 
L 49.964523 202.088397 
L 50.112496 186.664692 
L 50.26047 199.734766 
L 50.408444 185.010839 
L 50.556418 190.698231 
L 50.704392 188.50598 
L 51.148313 194.142732 
L 51.296287 187.891809 
L 51.444261 194.483957 
L 51.592235 189.223607 
L 51.740208 188.521276 
L 51.888182 189.962731 
L 52.036156 188.218522 
L 52.18413 194.869969 
L 52.332104 193.072309 
L 52.480077 182.421333 
L 52.628051 193.951838 
L 52.776025 184.150505 
L 53.071973 191.351933 
L 53.219947 189.809157 
L 53.36792 193.929497 
L 53.515894 191.847911 
L 53.663868 193.503353 
L 53.811842 192.352678 
L 53.959816 186.931062 
L 54.255763 189.229364 
L 54.403737 189.29077 
L 54.551711 193.139707 
L 54.699685 187.682863 
L 54.847658 190.535533 
L 54.995632 189.01903 
L 55.143606 191.842914 
L 55.29158 190.43737 
L 55.587528 194.668855 
L 55.883475 192.504662 
L 56.031449 186.377618 
L 56.179423 189.081568 
L 56.327397 196.357414 
L 56.47537 188.933023 
L 56.623344 191.256498 
L 56.771318 189.19323 
L 56.919292 196.827324 
L 57.215239 190.46915 
L 57.363213 190.580367 
L 57.511187 189.708143 
L 57.659161 191.658082 
L 57.807135 198.275976 
L 57.955109 176.836866 
L 58.103082 175.013583 
L 58.251056 185.931815 
L 58.39903 210.884051 
L 58.547004 215.92632 
L 58.694978 182.698989 
L 58.842951 219.048041 
L 58.990925 22.796 
L 59.138899 184.002264 
L 59.286873 190.354549 
L 59.434847 190.57177 
L 59.582821 190.144821 
L 59.730794 190.365764 
L 59.878768 189.036469 
L 60.026742 191.045947 
L 60.174716 190.010708 
L 60.32269 191.54292 
L 60.470663 190.986705 
L 60.618637 189.745799 
L 60.766611 190.809304 
L 60.914585 190.195871 
L 61.062559 190.383953 
L 61.210532 190.929372 
L 61.358506 190.812767 
L 61.50648 190.851582 
L 61.802428 189.243591 
L 62.098375 191.925036 
L 62.246349 189.086129 
L 62.394323 190.183064 
L 62.542297 190.195871 
L 62.690271 190.8803 
L 62.838244 189.203607 
L 63.134192 190.662834 
L 63.282166 189.88795 
L 63.43014 191.310507 
L 63.578113 190.027289 
L 63.726087 191.163818 
L 63.874061 189.865599 
L 64.022035 190.791534 
L 64.170009 190.811764 
L 64.317983 190.712954 
L 64.465956 190.026253 
L 64.761904 191.43432 
L 65.057852 190.217058 
L 65.205825 190.642437 
L 65.797721 189.995665 
L 65.945694 191.074217 
L 66.093668 190.245365 
L 66.241642 190.992062 
L 66.389616 190.726063 
L 66.53759 189.969001 
L 66.685564 190.273054 
L 66.833537 190.933837 
L 67.129485 189.887086 
L 67.277459 190.099473 
L 67.425433 190.526075 
L 67.869354 190.01038 
L 68.017328 191.491504 
L 68.165302 190.05295 
L 68.313275 190.31781 
L 68.757197 189.762703 
L 69.053145 190.743219 
L 69.201118 190.242347 
L 69.349092 191.142591 
L 69.497066 189.87618 
L 69.64504 191.54962 
L 69.793014 190.193662 
L 70.088961 191.348228 
L 70.236935 191.544648 
L 70.532883 190.388832 
L 70.680856 191.440745 
L 71.124778 190.122753 
L 71.272752 190.374215 
L 71.568699 191.619048 
L 71.716673 189.888477 
L 71.864647 190.550726 
L 72.012621 190.314236 
L 72.160595 191.335267 
L 72.308568 190.694753 
L 72.456542 191.851408 
L 72.75249 191.273746 
L 72.900464 190.497928 
L 73.048437 190.890696 
L 73.344385 190.129117 
L 73.492359 190.296178 
L 73.640333 191.110451 
L 73.93628 190.543444 
L 74.084254 190.860236 
L 74.232228 190.295011 
L 74.380202 190.283767 
L 74.528176 190.112522 
L 74.676149 190.483978 
L 74.824123 190.327935 
L 74.972097 191.402761 
L 75.120071 191.017142 
L 75.268045 190.105311 
L 75.416018 191.370905 
L 75.563992 191.37708 
L 75.711966 190.093688 
L 75.85994 191.437325 
L 76.007914 190.357765 
L 76.155888 190.23199 
L 76.303861 192.177816 
L 76.747783 190.219752 
L 76.895757 191.345136 
L 77.04373 190.201405 
L 77.191704 190.594527 
L 77.339678 190.6029 
L 77.635626 191.942789 
L 77.783599 173.976292 
L 77.931573 191.699285 
L 78.079547 194.920363 
L 78.227521 190.160179 
L 78.375495 191.009307 
L 78.523469 190.997352 
L 78.671442 190.842747 
L 78.819416 190.438079 
L 78.96739 191.80498 
L 79.115364 190.774048 
L 79.263338 190.631963 
L 79.411311 190.163118 
L 79.559285 190.313169 
L 79.707259 190.794371 
L 79.855233 190.344694 
L 80.003207 190.261185 
L 80.15118 190.373984 
L 80.299154 191.44114 
L 80.447128 190.355645 
L 80.595102 191.456177 
L 80.89105 189.921562 
L 81.186997 190.914992 
L 81.334971 189.830142 
L 81.482945 189.862412 
L 81.630919 190.83602 
L 81.778892 190.066335 
L 82.07484 191.70688 
L 82.222814 190.371333 
L 82.370788 190.29863 
L 82.518761 189.735349 
L 82.666735 191.38541 
L 82.962683 190.45785 
L 83.110657 190.662961 
L 83.258631 190.337011 
L 83.406604 190.847931 
L 83.554578 190.865906 
L 83.702552 189.966349 
L 83.850526 190.148084 
L 83.9985 191.031287 
L 84.146473 190.590844 
L 84.294447 190.661651 
L 84.442421 192.048091 
L 84.590395 188.790542 
L 84.738369 190.869885 
L 85.034316 190.214297 
L 85.330264 191.41352 
L 85.478238 190.425621 
L 85.626212 190.435229 
L 85.922159 189.323549 
L 86.070133 191.020664 
L 86.218107 191.11183 
L 86.366081 190.254517 
L 86.514054 191.532866 
L 86.662028 189.984334 
L 86.957976 191.645802 
L 87.10595 190.377728 
L 87.253924 190.957329 
L 87.401897 190.979819 
L 87.549871 189.638669 
L 87.697845 197.249249 
L 87.845819 191.833289 
L 87.993793 191.887397 
L 88.141766 191.48072 
L 88.28974 190.549262 
L 88.437714 190.621799 
L 88.585688 190.048388 
L 88.733662 191.327817 
L 88.881635 191.116049 
L 89.029609 190.353249 
L 89.177583 191.520039 
L 89.473531 190.229352 
L 89.769478 191.624687 
L 89.917452 191.349848 
L 90.065426 191.451767 
L 90.2134 190.10894 
L 90.361374 190.211033 
L 90.509347 190.942916 
L 90.657321 190.131877 
L 90.953269 191.9186 
L 91.101243 190.067455 
L 91.249216 190.333481 
L 91.39719 190.97179 
L 91.545164 190.550564 
L 91.693138 192.139057 
L 91.841112 190.625263 
L 91.989086 186.275002 
L 92.285033 192.483727 
L 92.433007 189.645389 
L 92.580981 189.785908 
L 92.728955 190.716599 
L 92.876928 190.637288 
L 93.024902 190.240834 
L 93.172876 191.58055 
L 93.32085 190.322599 
L 93.468824 237.877349 
L 93.616797 198.424446 
L 93.764771 191.070597 
L 93.912745 240.561929 
L 94.060719 92.713664 
L 94.208693 190.801747 
L 94.356667 193.971306 
L 94.50464 191.51917 
L 94.652614 175.980811 
L 94.800588 179.369841 
L 94.948562 192.529881 
L 95.096536 194.990144 
L 95.392483 187.739525 
L 95.540457 190.64042 
L 95.688431 190.739076 
L 95.836405 190.271693 
L 95.984378 190.519364 
L 96.132352 190.491769 
L 96.280326 191.051932 
L 96.4283 188.916714 
L 96.576274 194.253201 
L 96.724248 188.927985 
L 96.872221 195.80914 
L 97.020195 196.387981 
L 97.316143 187.600707 
L 97.464117 192.793049 
L 97.908038 188.87469 
L 98.056012 185.18785 
L 98.203986 196.169828 
L 98.351959 179.97736 
L 98.499933 182.066328 
L 98.647907 174.678769 
L 98.795881 210.226063 
L 98.943855 188.126229 
L 99.239802 208.106035 
L 99.387776 196.849345 
L 99.53575 173.556484 
L 99.683724 190.436715 
L 99.831698 191.519219 
L 99.979671 191.335511 
L 100.127645 187.937248 
L 100.275619 192.209511 
L 100.423593 188.774811 
L 100.571567 188.095857 
L 100.867514 191.121752 
L 101.163462 187.883264 
L 101.311436 190.609292 
L 101.45941 188.894838 
L 101.607383 191.04213 
L 101.755357 190.736419 
L 102.051305 192.374408 
L 102.347252 215.124925 
L 102.495226 177.784705 
L 102.6432 182.669747 
L 102.791174 181.699053 
L 102.939148 171.68475 
L 103.087121 191.969742 
L 103.235095 190.183429 
L 103.383069 143.433665 
L 103.531043 143.672508 
L 103.679017 228.272174 
L 103.826991 184.930516 
L 103.974964 191.371729 
L 104.122938 189.011556 
L 104.270912 190.286356 
L 104.418886 189.798527 
L 104.56686 191.180564 
L 104.714833 190.377237 
L 104.862807 190.798725 
L 105.010781 189.118393 
L 105.158755 189.671894 
L 105.306729 189.117996 
L 105.454702 190.918273 
L 105.602676 190.831249 
L 105.898624 191.487151 
L 106.046598 189.507406 
L 106.194572 192.280591 
L 106.342545 190.974568 
L 106.490519 191.097881 
L 106.638493 190.381811 
L 106.786467 190.618127 
L 106.934441 189.196472 
L 107.082414 189.190475 
L 107.230388 191.648695 
L 107.378362 191.259567 
L 107.526336 190.136599 
L 107.67431 192.031288 
L 107.822284 189.566705 
L 107.970257 191.768466 
L 108.118231 189.296877 
L 108.266205 190.616781 
L 108.414179 190.826528 
L 108.562153 190.379982 
L 108.710126 190.983405 
L 108.8581 189.911315 
L 109.006074 191.995513 
L 109.154048 190.27032 
L 109.449995 193.277409 
L 109.597969 189.821866 
L 109.745943 189.549584 
L 109.893917 192.041773 
L 110.041891 189.711266 
L 110.189865 190.794177 
L 110.337838 191.014677 
L 110.485812 191.457728 
L 110.633786 190.063438 
L 110.929734 191.180411 
L 111.077707 189.632213 
L 111.225681 189.459369 
L 111.521629 190.914162 
L 111.669603 190.262079 
L 111.817576 190.682091 
L 111.96555 192.013398 
L 112.113524 189.557073 
L 112.261498 190.986844 
L 112.557446 190.849415 
L 112.705419 189.887237 
L 112.853393 190.808045 
L 113.149341 189.264419 
L 113.297315 189.386432 
L 113.445288 191.737088 
L 113.593262 188.962068 
L 113.88921 191.613841 
L 114.185157 188.807141 
L 114.333131 190.617783 
L 114.481105 189.695976 
L 114.629079 191.176389 
L 114.925027 189.514443 
L 115.073 189.657897 
L 115.220974 188.975566 
L 115.368948 189.314619 
L 115.516922 191.41466 
L 115.664896 189.23036 
L 115.812869 192.50996 
L 116.108817 190.278798 
L 116.404765 190.922609 
L 116.552738 190.648457 
L 116.700712 191.837197 
L 116.848686 189.273319 
L 116.99666 189.087334 
L 117.292608 191.418497 
L 117.440581 191.293888 
L 117.588555 191.81612 
L 117.736529 190.657343 
L 117.884503 190.783955 
L 118.032477 191.571232 
L 118.18045 189.743309 
L 118.328424 190.656327 
L 118.476398 190.562843 
L 118.624372 191.525651 
L 118.772346 189.716163 
L 118.920319 190.913612 
L 119.068293 189.91266 
L 119.364241 190.942631 
L 119.512215 190.780703 
L 119.660189 189.878999 
L 119.808162 189.755444 
L 119.956136 191.492692 
L 120.10411 189.948066 
L 120.252084 190.224666 
L 120.400058 191.418976 
L 120.548031 189.469227 
L 120.696005 191.876422 
L 120.991953 190.907776 
L 121.139927 189.11169 
L 121.2879 191.846482 
L 121.435874 189.401282 
L 121.731822 191.293112 
L 121.879796 189.794825 
L 122.02777 190.653296 
L 122.175743 190.473415 
L 122.323717 191.401196 
L 122.471691 191.125272 
L 122.619665 191.553649 
L 122.767639 182.519996 
L 122.915612 191.755503 
L 123.063586 233.797188 
L 123.21156 224.958747 
L 123.359534 177.749969 
L 123.507508 195.733569 
L 123.655481 187.706361 
L 123.803455 191.763878 
L 123.951429 189.760273 
L 124.099403 189.900473 
L 124.247377 216.747703 
L 124.543324 187.283729 
L 124.839272 264.716 
L 124.987246 189.096726 
L 125.13522 197.720899 
L 125.283193 190.289019 
L 125.431167 195.005068 
L 125.727115 187.71875 
L 125.875089 191.002047 
L 126.023062 199.907605 
L 126.171036 194.618749 
L 126.31901 206.784655 
L 126.614958 135.03855 
L 126.762932 145.981045 
L 126.910905 203.307402 
L 127.058879 191.811177 
L 127.206853 192.962825 
L 127.354827 190.575717 
L 127.502801 198.099611 
L 127.650774 193.667136 
L 127.798748 193.712817 
L 127.946722 198.373204 
L 128.094696 187.799061 
L 128.24267 191.335064 
L 128.390643 192.030163 
L 128.538617 190.042402 
L 128.686591 192.408014 
L 128.834565 192.508939 
L 128.982539 190.078363 
L 129.130513 185.440335 
L 129.278486 187.531695 
L 129.42646 187.488959 
L 129.574434 190.538088 
L 129.722408 189.340946 
L 129.870382 190.338273 
L 130.018355 189.276871 
L 130.314303 190.903848 
L 130.610251 189.690969 
L 130.758224 189.505588 
L 130.906198 191.038378 
L 131.054172 190.162845 
L 131.202146 191.007558 
L 131.35012 189.717988 
L 131.498094 189.981105 
L 131.646067 189.319684 
L 131.794041 189.294647 
L 131.942015 189.454117 
L 132.089989 190.109224 
L 132.237963 189.59036 
L 132.385936 189.825919 
L 132.681884 191.124973 
L 132.829858 189.966774 
L 132.977832 189.84719 
L 133.125806 189.274998 
L 133.273779 190.490513 
L 133.421753 189.446673 
L 133.569727 190.112653 
L 133.717701 187.774055 
L 133.865675 191.054158 
L 134.013648 189.593884 
L 134.309596 188.917173 
L 134.45757 190.238648 
L 134.605544 190.017169 
L 134.901491 191.574827 
L 135.049465 189.568828 
L 135.197439 189.780067 
L 135.345413 189.046997 
L 135.493387 190.817146 
L 135.789334 188.075971 
L 135.937308 197.444588 
L 136.085282 189.38425 
L 136.233256 191.123263 
L 136.381229 171.43833 
L 136.529203 198.262626 
L 136.825151 190.631406 
L 136.973125 186.913005 
L 137.417046 195.418133 
L 137.712994 188.59146 
L 137.860968 193.694241 
L 138.008941 182.975583 
L 138.156915 184.155696 
L 138.304889 189.920551 
L 138.452863 190.675614 
L 138.600837 189.578503 
L 138.74881 191.235674 
L 139.044758 187.315158 
L 139.340706 189.964919 
L 139.488679 189.658942 
L 139.636653 191.649369 
L 139.784627 190.137012 
L 139.932601 191.460363 
L 140.080575 189.978197 
L 140.228549 192.254852 
L 140.376522 188.551507 
L 140.524496 187.718704 
L 140.67247 187.954728 
L 140.820444 190.763915 
L 140.968418 188.087485 
L 141.116391 188.21234 
L 141.264365 196.361438 
L 141.412339 186.11797 
L 141.560313 191.167901 
L 141.708287 183.405212 
L 141.85626 194.492613 
L 142.004234 196.495818 
L 142.152208 200.160665 
L 142.300182 180.680305 
L 142.448156 196.5167 
L 142.59613 190.117407 
L 142.744103 192.929865 
L 142.892077 200.673963 
L 143.040051 184.324234 
L 143.188025 185.019428 
L 143.335999 187.932853 
L 143.483972 183.649192 
L 143.631946 192.02717 
L 143.77992 186.353878 
L 143.927894 193.092851 
L 144.075868 185.452938 
L 144.223841 187.903224 
L 144.371815 187.8987 
L 144.667763 185.451328 
L 144.815737 189.992144 
L 144.963711 184.339574 
L 145.259658 191.056839 
L 145.555606 193.09368 
L 145.70358 186.009612 
L 145.851553 186.133605 
L 146.147501 189.323078 
L 146.443449 192.555776 
L 146.591422 161.857429 
L 146.88737 196.990354 
L 147.183318 181.525061 
L 147.331292 199.573993 
L 147.479265 180.072345 
L 147.627239 180.758663 
L 147.775213 191.446724 
L 147.923187 188.736037 
L 148.071161 183.119995 
L 148.219134 183.087551 
L 148.367108 193.759243 
L 148.663056 186.329142 
L 148.81103 192.591193 
L 148.959003 183.434402 
L 149.106977 192.6958 
L 149.402925 184.537077 
L 149.698873 195.058781 
L 149.99482 186.018022 
L 150.142794 190.491361 
L 150.438742 189.61712 
L 150.586715 186.962893 
L 150.734689 191.972442 
L 150.882663 161.359858 
L 151.178611 200.498939 
L 151.326584 189.297591 
L 151.474558 192.212705 
L 151.622532 188.445234 
L 151.770506 188.74826 
L 151.91848 189.943916 
L 152.066454 202.594431 
L 152.362401 177.411414 
L 152.658349 185.980401 
L 152.806323 177.576136 
L 152.954296 193.515901 
L 153.10227 188.636123 
L 153.250244 188.766877 
L 153.546192 187.2549 
L 153.694165 183.463992 
L 153.842139 185.479965 
L 153.990113 191.575158 
L 154.138087 205.570952 
L 154.286061 188.037183 
L 154.434035 185.038901 
L 155.02593 190.919247 
L 155.173904 196.57278 
L 155.321877 188.513064 
L 155.469851 193.259233 
L 155.617825 193.496377 
L 155.765799 183.328425 
L 156.061746 190.594916 
L 156.20972 188.904611 
L 156.357694 189.526998 
L 156.505668 186.846665 
L 156.653642 186.474862 
L 156.801616 187.841814 
L 156.949589 188.168986 
L 157.097563 183.625387 
L 157.393511 220.200391 
L 157.541485 188.301693 
L 157.689458 203.694894 
L 157.985406 167.972886 
L 158.13338 193.385878 
L 158.281354 186.486655 
L 158.429328 190.653413 
L 158.577301 188.168935 
L 158.725275 189.518307 
L 158.873249 191.957379 
L 159.021223 189.020693 
L 159.169197 192.098489 
L 159.31717 187.740366 
L 159.465144 193.047344 
L 159.761092 191.403206 
L 159.909066 200.050471 
L 160.057039 185.476398 
L 160.205013 192.586903 
L 160.352987 191.018648 
L 160.500961 188.136981 
L 160.648935 192.032361 
L 160.796909 191.772244 
L 160.944882 193.52471 
L 161.092856 191.387341 
L 161.388804 182.559683 
L 161.536778 186.673349 
L 161.684751 186.474599 
L 161.832725 183.624006 
L 161.980699 205.54872 
L 162.128673 189.936513 
L 162.276647 194.469689 
L 162.572594 188.850382 
L 162.720568 196.10674 
L 162.868542 195.755101 
L 163.016516 196.244327 
L 163.16449 169.023832 
L 163.460437 193.143712 
L 163.608411 189.465188 
L 163.756385 190.203563 
L 163.904359 190.037903 
L 164.200306 191.780047 
L 164.34828 199.18025 
L 164.496254 195.242506 
L 164.644228 187.735803 
L 164.792201 192.922553 
L 165.088149 187.982106 
L 165.236123 174.266724 
L 165.384097 216.36169 
L 165.532071 143.245313 
L 165.828018 156.149239 
L 165.975992 184.327028 
L 166.123966 179.364231 
L 166.27194 189.725646 
L 166.419913 188.067076 
L 166.567887 190.163672 
L 166.715861 190.067907 
L 166.863835 192.127332 
L 167.011809 186.258467 
L 167.307756 195.128697 
L 167.45573 197.181521 
L 167.751678 188.792278 
L 167.899652 190.537963 
L 168.047625 189.876466 
L 168.343573 190.612135 
L 168.491547 190.516773 
L 168.639521 190.629993 
L 168.787494 190.593534 
L 169.231416 190.980218 
L 169.527363 189.951327 
L 169.675337 189.954379 
L 169.971285 190.843428 
L 170.267233 189.923665 
L 170.56318 190.662407 
L 170.859128 190.550237 
L 171.007102 189.872652 
L 171.451023 190.149954 
L 171.598997 191.288431 
L 171.894944 190.111521 
L 172.338866 191.287837 
L 172.48684 190.038477 
L 172.782787 190.058167 
L 173.078735 190.968637 
L 173.226709 190.651615 
L 173.374683 191.366692 
L 173.522656 189.138794 
L 173.818604 190.846665 
L 173.966578 189.749106 
L 174.114552 195.210551 
L 174.262525 195.810297 
L 174.410499 188.253012 
L 174.558473 187.732855 
L 174.706447 189.116725 
L 174.854421 198.630986 
L 175.002395 193.962094 
L 175.298342 210.965029 
L 175.742264 154.382491 
L 176.038211 179.145306 
L 176.334159 193.719247 
L 176.482133 189.862339 
L 176.630106 194.076462 
L 176.77808 194.799784 
L 176.926054 200.982709 
L 177.074028 159.156878 
L 177.222002 197.750081 
L 177.369976 182.202643 
L 177.517949 192.704286 
L 177.665923 185.372399 
L 177.813897 184.767435 
L 177.961871 199.424258 
L 178.109845 200.160543 
L 178.257818 192.974225 
L 178.405792 177.736697 
L 178.70174 195.293556 
L 178.849714 184.853256 
L 178.997687 192.210889 
L 179.145661 187.317962 
L 179.293635 187.557766 
L 179.441609 191.656301 
L 179.589583 191.309442 
L 179.737557 189.164677 
L 180.033504 193.559299 
L 180.181478 182.509516 
L 180.329452 194.255249 
L 180.477426 190.335577 
L 180.625399 193.565885 
L 180.773373 190.14939 
L 180.921347 191.149276 
L 181.069321 189.990951 
L 181.217295 192.281237 
L 181.513242 188.802527 
L 181.80919 187.168079 
L 182.105138 196.586414 
L 182.401085 191.709885 
L 182.697033 180.373422 
L 182.99298 194.586986 
L 183.140954 199.752579 
L 183.288928 187.819176 
L 183.436902 186.931938 
L 183.584876 193.59017 
L 183.73285 190.389743 
L 184.028797 190.056739 
L 184.176771 189.545593 
L 184.324745 189.51311 
L 184.472719 191.992692 
L 184.620692 190.190496 
L 184.91664 185.913027 
L 185.064614 186.78815 
L 185.360561 195.710837 
L 185.508535 195.016387 
L 185.656509 179.967394 
L 185.804483 189.021353 
L 185.952457 189.104698 
L 186.100431 193.400714 
L 186.248404 189.034152 
L 186.396378 189.115064 
L 186.544352 189.021971 
L 186.692326 190.534969 
L 186.8403 190.834047 
L 186.988273 190.295133 
L 187.136247 195.689495 
L 187.284221 189.163497 
L 187.432195 190.512673 
L 187.580169 188.325788 
L 187.728142 190.397806 
L 187.876116 187.14065 
L 188.02409 188.898755 
L 188.172064 193.791728 
L 188.320038 183.289281 
L 188.468012 198.552113 
L 188.615985 184.999713 
L 188.763959 191.33214 
L 188.911933 190.350183 
L 189.207881 197.899034 
L 189.355854 185.08376 
L 189.503828 195.715216 
L 189.799776 193.856763 
L 189.94775 193.29866 
L 190.095723 186.123136 
L 190.243697 192.304378 
L 190.391671 190.743647 
L 190.539645 186.371333 
L 190.835593 192.777209 
L 190.983566 192.700376 
L 191.13154 192.152963 
L 191.279514 189.817946 
L 191.427488 191.469989 
L 191.575462 190.215638 
L 191.871409 190.024281 
L 192.019383 191.750427 
L 192.167357 190.031148 
L 192.463304 191.074765 
L 192.759252 189.934871 
L 192.907226 185.25962 
L 193.0552 195.09626 
L 193.203174 192.592025 
L 193.351147 194.703223 
L 193.647095 187.824293 
L 193.795069 194.736793 
L 193.943043 189.470564 
L 194.091016 190.967542 
L 194.23899 181.844371 
L 194.386964 190.140984 
L 194.534938 188.760047 
L 194.682912 193.538874 
L 194.830885 188.492641 
L 194.978859 191.124524 
L 195.126833 188.666161 
L 195.274807 191.307807 
L 195.422781 191.356579 
L 195.570755 191.020773 
L 195.866702 189.426804 
L 196.16265 191.400691 
L 196.310624 191.751914 
L 196.458597 191.571611 
L 196.754545 189.311737 
L 196.902519 190.693149 
L 197.050493 190.160317 
L 197.34644 191.917601 
L 197.494414 190.533601 
L 197.790362 190.161296 
L 197.938336 191.088458 
L 198.086309 191.087066 
L 198.234283 189.75823 
L 198.382257 193.135331 
L 198.530231 191.892786 
L 198.678205 188.209822 
L 198.826178 197.139185 
L 198.974152 189.674737 
L 199.2701 192.991168 
L 199.418074 187.935827 
L 199.566047 188.206405 
L 199.861995 192.762292 
L 200.009969 195.597044 
L 200.157943 180.979268 
L 200.305917 184.06272 
L 200.45389 190.690592 
L 200.601864 191.4691 
L 200.749838 193.707899 
L 201.045786 190.646118 
L 201.193759 190.417602 
L 201.341733 190.904006 
L 201.489707 192.80913 
L 201.637681 192.690997 
L 201.785655 194.474898 
L 201.933628 188.971754 
L 202.081602 191.327361 
L 202.229576 191.243473 
L 202.37755 192.11742 
L 202.525524 192.1754 
L 202.673498 186.298096 
L 202.821471 192.484387 
L 202.969445 190.792519 
L 203.117419 191.541411 
L 203.265393 194.206242 
L 203.413367 190.542973 
L 203.56134 190.350616 
L 203.709314 189.773948 
L 203.857288 190.447397 
L 204.005262 193.128625 
L 204.153236 192.838034 
L 204.301209 191.202298 
L 204.449183 192.51257 
L 204.597157 195.998041 
L 204.745131 185.005751 
L 205.189052 190.062292 
L 205.337026 181.50361 
L 205.485 195.084321 
L 205.780948 186.810347 
L 206.076895 192.018183 
L 206.372843 191.009464 
L 206.520817 193.064728 
L 206.668791 192.892239 
L 206.816764 187.744193 
L 206.964738 189.886555 
L 207.112712 187.198013 
L 207.40866 192.665886 
L 207.556633 189.902985 
L 207.704607 190.577679 
L 207.852581 190.321223 
L 208.000555 191.47132 
L 208.148529 191.374819 
L 208.296502 190.969757 
L 208.444476 189.252112 
L 208.59245 190.025552 
L 208.740424 192.614585 
L 208.888398 190.995892 
L 209.184345 192.104429 
L 209.332319 189.944196 
L 209.480293 191.134104 
L 209.628267 191.1292 
L 209.924214 189.446014 
L 210.072188 190.789654 
L 210.220162 191.090185 
L 210.51611 190.173722 
L 210.664083 190.533904 
L 210.812057 189.746835 
L 210.960031 190.295887 
L 211.108005 191.620638 
L 211.255979 189.536075 
L 211.551926 191.698935 
L 211.6999 189.833789 
L 211.847874 190.836179 
L 211.995848 189.786206 
L 212.143822 190.788401 
L 212.291795 189.795821 
L 212.439769 191.078093 
L 212.587743 190.189239 
L 212.735717 192.810511 
L 212.883691 190.918575 
L 213.031664 190.873153 
L 213.179638 190.103 
L 213.327612 190.082858 
L 213.475586 191.369791 
L 213.62356 190.994572 
L 213.771534 189.973007 
L 213.919507 191.275411 
L 214.067481 189.700484 
L 214.215455 190.784748 
L 214.363429 190.612041 
L 214.511403 189.484009 
L 214.659376 190.951222 
L 214.80735 191.004937 
L 214.955324 190.233627 
L 215.103298 190.46475 
L 215.251272 191.198625 
L 215.547219 190.328451 
L 215.843167 191.369909 
L 215.991141 200.292164 
L 216.139115 143.230506 
L 216.435062 199.457877 
L 216.73101 180.567517 
L 216.878984 195.011683 
L 217.174931 183.322325 
L 217.618853 190.637021 
L 217.766826 189.991023 
L 217.9148 190.951844 
L 218.062774 189.824922 
L 218.210748 190.700633 
L 218.358722 190.47391 
L 218.506696 191.334708 
L 218.802643 191.538304 
L 218.950617 191.607792 
L 219.246565 189.519442 
L 219.394538 191.165419 
L 219.690486 190.845615 
L 219.83846 190.571813 
L 219.986434 191.849811 
L 220.134407 191.604761 
L 220.282381 188.773004 
L 220.430355 190.733023 
L 220.578329 186.100326 
L 220.726303 192.31581 
L 220.874277 191.959246 
L 221.02225 192.241623 
L 221.318198 189.961682 
L 221.466172 191.326116 
L 221.762119 190.1775 
L 221.910093 191.31208 
L 222.058067 190.667805 
L 222.354015 191.651016 
L 222.501988 192.420105 
L 222.797936 190.497051 
L 222.94591 189.053362 
L 223.093884 192.025002 
L 223.241858 190.927167 
L 223.389831 191.031745 
L 223.537805 190.45967 
L 223.685779 191.732081 
L 223.833753 190.192676 
L 224.1297 190.739056 
L 224.277674 190.489843 
L 224.425648 190.473149 
L 224.573622 189.426507 
L 224.721596 190.188449 
L 225.017543 192.539376 
L 225.165517 174.947537 
L 225.313491 186.561601 
L 225.461465 188.429856 
L 225.757412 185.537873 
L 225.905386 187.271567 
L 226.05336 180.584323 
L 226.201334 183.031121 
L 226.349308 192.059794 
L 226.497281 190.735582 
L 226.645255 190.988874 
L 226.793229 191.933769 
L 226.941203 187.349944 
L 227.089177 187.513348 
L 227.23715 190.983808 
L 227.385124 191.496684 
L 227.681072 193.315126 
L 227.829046 191.523317 
L 227.97702 185.534601 
L 228.124993 193.433253 
L 228.716889 189.412694 
L 228.864862 197.169716 
L 229.012836 187.775997 
L 229.16081 185.606953 
L 229.308784 194.084225 
L 229.604731 190.032578 
L 229.752705 192.588417 
L 229.900679 190.879557 
L 230.048653 195.39045 
L 230.196627 180.496552 
L 230.344601 198.799108 
L 230.640548 185.519775 
L 230.788522 189.150616 
L 231.08447 191.205367 
L 231.232443 191.00211 
L 231.380417 187.809928 
L 231.528391 187.10374 
L 231.676365 191.628096 
L 231.824339 189.584514 
L 231.972313 191.334515 
L 232.120286 184.001165 
L 232.26826 191.117989 
L 232.416234 192.380523 
L 232.564208 191.769658 
L 232.860155 193.727156 
L 233.008129 192.301725 
L 233.156103 196.504043 
L 233.304077 187.597352 
L 233.452051 191.313382 
L 233.600024 205.797799 
L 233.747998 204.661801 
L 233.895972 198.99183 
L 234.043946 179.307079 
L 234.339894 207.702531 
L 234.487867 195.920637 
L 234.635841 147.01749 
L 234.783815 182.363445 
L 234.931789 181.773312 
L 235.227736 199.829883 
L 235.523684 194.070509 
L 235.671658 183.477649 
L 235.819632 181.91517 
L 235.967605 189.336129 
L 236.115579 188.114828 
L 236.263553 189.239518 
L 236.411527 185.435393 
L 236.559501 192.72598 
L 236.707475 191.679947 
L 236.855448 194.432836 
L 237.151396 194.085744 
L 237.29937 189.938655 
L 237.447344 191.814033 
L 237.595317 187.518318 
L 237.743291 188.116594 
L 237.891265 189.332186 
L 238.187213 187.537668 
L 238.335186 187.114911 
L 238.48316 189.205004 
L 238.631134 189.680489 
L 238.779108 192.864446 
L 238.927082 191.49526 
L 239.075056 192.510971 
L 239.223029 191.066339 
L 239.371003 191.698883 
L 239.666951 190.374648 
L 239.814925 189.179614 
L 239.962898 189.705119 
L 240.258846 188.128703 
L 240.40682 190.314722 
L 240.702767 191.1693 
L 240.850741 190.679806 
L 241.146689 191.948526 
L 241.442637 192.251557 
L 241.59061 190.020378 
L 241.738584 189.867239 
L 241.886558 186.847151 
L 242.034532 188.427393 
L 242.182506 191.204636 
L 242.330479 187.727467 
L 242.478453 188.64285 
L 242.626427 187.398216 
L 242.774401 192.035594 
L 242.922375 189.777073 
L 243.070348 190.067543 
L 243.218322 193.321611 
L 243.366296 191.259054 
L 243.51427 187.623995 
L 243.662244 191.306154 
L 243.958191 192.50494 
L 244.106165 191.690632 
L 244.254139 189.408773 
L 244.402113 189.557352 
L 244.550087 189.134426 
L 244.846034 191.764438 
L 244.994008 191.813055 
L 245.141982 193.60663 
L 245.289956 189.582377 
L 245.437929 190.430265 
L 245.733877 189.054224 
L 245.881851 189.503503 
L 246.029825 191.781492 
L 246.177799 190.109184 
L 246.473746 193.860779 
L 246.62172 187.916545 
L 246.769694 188.567764 
L 247.065641 192.366518 
L 247.213615 185.565158 
L 247.361589 191.159854 
L 247.509563 188.266212 
L 247.80551 188.281846 
L 247.953484 188.053202 
L 248.101458 189.945871 
L 248.249432 189.178486 
L 248.397406 189.805002 
L 248.54538 187.934354 
L 248.693353 191.282185 
L 248.989301 192.048721 
L 249.433222 189.647556 
L 249.581196 191.568315 
L 249.72917 190.876317 
L 249.877144 191.820151 
L 250.025118 190.359312 
L 250.173091 190.226883 
L 250.321065 189.688488 
L 250.469039 191.440484 
L 250.617013 189.933535 
L 250.764987 193.007893 
L 250.912961 190.473057 
L 251.208908 192.696826 
L 251.356882 191.553853 
L 251.504856 191.36118 
L 251.65283 189.694526 
L 251.800803 178.088854 
L 252.244725 217.472766 
L 252.392699 191.272505 
L 252.540672 185.192649 
L 252.688646 184.688637 
L 252.83662 191.471263 
L 252.984594 175.170475 
L 253.132568 136.242798 
L 253.280542 194.708216 
L 253.576489 199.097144 
L 253.872437 180.663921 
L 254.020411 195.974809 
L 254.316358 185.910693 
L 254.464332 197.135549 
L 254.76028 185.943892 
L 254.908254 190.744008 
L 255.056227 191.483441 
L 255.352175 216.187525 
L 255.500149 174.450192 
L 255.796096 193.472946 
L 255.94407 189.582825 
L 256.092044 189.391575 
L 256.240018 189.500961 
L 256.387992 190.564396 
L 256.535965 190.519243 
L 256.683939 192.322302 
L 256.831913 190.707161 
L 257.127861 191.480911 
L 257.275835 184.034838 
L 257.571782 191.163368 
L 257.719756 189.088676 
L 257.86773 194.71992 
L 258.015704 196.068417 
L 258.163677 190.787543 
L 258.311651 196.441162 
L 258.607599 187.498408 
L 258.903546 194.052474 
L 259.05152 191.761496 
L 259.347468 183.49626 
L 259.495442 182.725237 
L 259.643416 196.262857 
L 259.791389 188.458973 
L 260.235311 197.959226 
L 260.383285 187.381047 
L 260.531258 188.920957 
L 260.679232 194.099284 
L 260.97518 188.683149 
L 261.123154 188.094987 
L 261.567075 194.928308 
L 261.715049 205.950912 
L 261.863023 199.136152 
L 262.010997 174.292099 
L 262.15897 182.328861 
L 262.306944 177.769973 
L 262.454918 178.911285 
L 262.602892 189.433556 
L 262.750866 191.504956 
L 262.898839 191.797775 
L 263.194787 187.525466 
L 263.342761 194.117384 
L 263.490735 186.93238 
L 263.638708 190.371146 
L 263.786682 188.439693 
L 263.934656 188.90172 
L 264.08263 191.673615 
L 264.230604 187.404526 
L 264.378578 188.817952 
L 264.526551 192.15828 
L 264.822499 247.836729 
L 264.970473 228.039168 
L 265.118447 178.293862 
L 265.414394 190.859637 
L 265.562368 187.843306 
L 265.710342 190.342836 
L 266.006289 190.556576 
L 266.154263 187.391603 
L 266.302237 189.002012 
L 266.450211 188.886369 
L 266.598185 190.988626 
L 266.894132 189.245711 
L 267.042106 190.706278 
L 267.19008 188.020369 
L 267.338054 190.435484 
L 267.486028 188.254968 
L 267.634001 189.319199 
L 267.781975 188.639396 
L 267.929949 190.251328 
L 268.077923 189.829164 
L 268.225897 190.082488 
L 268.521844 190.133526 
L 268.669818 188.925559 
L 268.817792 190.84156 
L 269.11374 189.974169 
L 269.261713 190.482418 
L 269.409687 190.536579 
L 269.705635 190.973536 
L 269.853609 189.766045 
L 270.001582 191.187054 
L 270.149556 190.735589 
L 270.29753 189.487142 
L 270.445504 190.594707 
L 270.593478 189.940434 
L 270.741451 189.954969 
L 270.889425 190.960332 
L 271.037399 190.035355 
L 271.185373 190.533125 
L 271.333347 190.024794 
L 271.481321 190.854348 
L 271.629294 190.277893 
L 271.777268 190.559434 
L 271.925242 190.018135 
L 272.073216 190.221463 
L 272.22119 190.127289 
L 272.369163 189.233205 
L 272.517137 190.212776 
L 272.665111 189.667747 
L 272.813085 189.716381 
L 273.109032 189.211178 
L 273.40498 190.847155 
L 273.552954 190.368886 
L 273.700928 192.081357 
L 273.848902 188.996376 
L 273.996875 190.968832 
L 274.144849 189.582069 
L 274.292823 190.730001 
L 274.440797 187.865599 
L 274.588771 191.59312 
L 274.736744 188.553252 
L 274.884718 188.899762 
L 275.032692 190.872859 
L 275.180666 188.876487 
L 275.32864 190.81045 
L 275.624587 189.874734 
L 275.772561 190.436198 
L 275.920535 190.030609 
L 276.068509 190.158889 
L 276.216483 188.906513 
L 276.364456 190.702286 
L 276.51243 188.82822 
L 276.660404 190.890875 
L 276.956352 188.445424 
L 277.104325 190.026658 
L 277.252299 190.256615 
L 277.400273 189.600798 
L 277.548247 190.667721 
L 277.696221 190.76925 
L 277.844194 190.089856 
L 277.992168 189.977065 
L 278.288116 190.793592 
L 278.584064 189.287058 
L 278.732037 189.709856 
L 278.880011 190.799771 
L 279.027985 190.200629 
L 279.175959 188.723237 
L 279.471906 190.567038 
L 279.61988 189.381203 
L 279.767854 191.567421 
L 279.915828 189.575717 
L 280.211776 192.257258 
L 280.359749 189.712666 
L 280.655697 191.142241 
L 280.803671 189.658086 
L 280.951645 190.39325 
L 281.099618 189.692162 
L 281.54354 190.665098 
L 281.691514 190.360767 
L 281.839487 189.247358 
L 281.987461 191.205175 
L 282.135435 190.578853 
L 282.283409 190.627409 
L 282.431383 188.929073 
L 282.579357 192.038253 
L 282.875304 190.101436 
L 283.023278 190.903528 
L 283.171252 190.435192 
L 283.319226 190.645027 
L 283.467199 188.895199 
L 283.615173 191.188545 
L 283.763147 190.075226 
L 283.911121 190.11247 
L 284.059095 191.032768 
L 284.207068 190.687839 
L 284.65099 190.72649 
L 284.946938 190.853783 
L 285.094911 189.703017 
L 285.242885 190.729426 
L 285.390859 190.016289 
L 285.538833 191.877187 
L 285.686807 190.819685 
L 285.83478 190.610949 
L 285.982754 189.848741 
L 286.130728 189.6811 
L 286.278702 190.983939 
L 286.426676 189.674748 
L 286.722623 191.53091 
L 286.870597 189.326862 
L 287.018571 190.74319 
L 287.166545 189.917396 
L 287.314519 189.971885 
L 287.462492 190.497289 
L 287.610466 189.924812 
L 287.75844 190.562362 
L 287.906414 189.345687 
L 288.054388 189.078341 
L 288.350335 190.634869 
L 288.794257 189.121018 
L 289.238178 191.93002 
L 289.386152 188.808361 
L 289.534126 189.288312 
L 289.6821 189.032492 
L 289.978047 190.505059 
L 290.273995 191.229246 
L 290.421969 190.919897 
L 290.569942 187.51491 
L 290.717916 190.500379 
L 290.86589 190.477919 
L 291.013864 190.025887 
L 291.161838 190.130759 
L 291.309811 190.613084 
L 291.457785 190.583789 
L 291.753733 189.359084 
L 291.901707 190.338674 
L 292.049681 190.505934 
L 292.197654 190.97667 
L 292.345628 190.296647 
L 292.493602 191.770485 
L 292.641576 188.441207 
L 292.78955 190.428355 
L 292.937523 190.1783 
L 293.085497 190.374892 
L 293.233471 190.779894 
L 293.381445 193.051806 
L 293.529419 192.511967 
L 293.677392 189.80454 
L 293.825366 190.908941 
L 293.97334 190.580435 
L 294.121314 192.363838 
L 294.269288 191.185758 
L 294.417262 191.227363 
L 294.565235 189.475111 
L 294.713209 190.834663 
L 294.861183 190.520401 
L 295.157131 190.720278 
L 295.305104 191.165691 
L 295.453078 190.147207 
L 295.749026 191.218811 
L 295.897 190.254373 
L 296.044973 190.736605 
L 296.192947 190.757263 
L 296.340921 190.600002 
L 296.488895 187.180553 
L 296.636869 190.73917 
L 296.932816 191.601169 
L 297.08079 190.642848 
L 297.228764 191.79805 
L 297.376738 190.184178 
L 297.524712 191.07989 
L 297.672685 190.513951 
L 297.820659 190.685917 
L 297.968633 190.047177 
L 298.116607 192.141647 
L 298.412554 189.465537 
L 298.560528 191.402073 
L 298.708502 190.888681 
L 298.856476 191.378661 
L 299.00445 193.616106 
L 299.152424 189.78414 
L 299.300397 190.090392 
L 299.448371 190.898341 
L 299.596345 190.194868 
L 299.744319 193.835225 
L 299.892293 188.2096 
L 300.040266 189.347303 
L 300.18824 191.947404 
L 300.336214 188.650561 
L 300.632162 190.532224 
L 300.780135 191.705844 
L 300.928109 189.370978 
L 301.076083 191.148596 
L 301.224057 188.921472 
L 301.520005 189.236827 
L 301.667978 192.419503 
L 301.815952 191.788638 
L 301.963926 189.586698 
L 302.1119 190.373274 
L 302.259874 190.156979 
L 302.555821 190.609315 
L 302.703795 192.111703 
L 303.147716 187.55799 
L 303.29569 190.753891 
L 303.443664 188.910599 
L 303.591638 190.004881 
L 303.739612 189.130906 
L 303.887586 191.224575 
L 304.183533 190.807514 
L 304.331507 190.667834 
L 304.479481 191.380008 
L 304.627455 190.096417 
L 304.775428 192.541464 
L 304.923402 191.985526 
L 305.21935 193.374174 
L 305.367324 188.198183 
L 305.811245 190.704048 
L 305.959219 189.684325 
L 306.107193 190.398025 
L 306.255167 190.099685 
L 306.40314 190.698581 
L 306.551114 190.689268 
L 306.699088 189.899972 
L 306.847062 194.427577 
L 306.995036 193.428475 
L 307.290983 189.403744 
L 307.438957 191.064958 
L 307.586931 189.575502 
L 307.734905 193.778093 
L 307.882879 190.150479 
L 308.030852 193.168677 
L 308.3268 189.589927 
L 308.474774 192.447602 
L 308.770721 189.696763 
L 308.918695 190.698009 
L 309.066669 190.596362 
L 309.214643 192.071681 
L 309.362617 188.255271 
L 309.658564 191.924031 
L 309.806538 191.194811 
L 309.954512 189.698561 
L 310.102486 190.988578 
L 310.25046 190.016328 
L 310.546407 190.538176 
L 310.694381 189.74564 
L 310.842355 191.330209 
L 310.990329 190.219974 
L 311.138302 191.411105 
L 311.286276 189.864595 
L 311.43425 191.402193 
L 311.582224 190.348376 
L 311.730198 190.741867 
L 311.878171 190.25799 
L 312.026145 190.359728 
L 312.174119 191.139334 
L 312.322093 189.824987 
L 312.470067 191.371022 
L 312.766014 189.674549 
L 312.913988 192.368628 
L 313.061962 190.7354 
L 313.209936 192.236376 
L 313.35791 189.444082 
L 313.653857 189.700367 
L 313.801831 190.376907 
L 313.949805 190.057465 
L 314.097779 190.347195 
L 314.245752 191.197289 
L 314.5417 190.490977 
L 314.689674 190.693235 
L 314.837648 190.675484 
L 314.985622 189.273757 
L 315.133595 190.643764 
L 315.281569 189.176655 
L 315.429543 192.563175 
L 315.577517 189.608444 
L 315.873464 191.776537 
L 316.021438 190.592944 
L 316.169412 191.140239 
L 316.317386 190.591345 
L 316.46536 189.098528 
L 316.613333 190.830019 
L 316.761307 189.918375 
L 316.909281 190.650911 
L 317.057255 189.256601 
L 317.205229 189.82731 
L 317.353203 189.909449 
L 317.501176 192.014075 
L 317.64915 189.168437 
L 317.797124 189.361352 
L 318.093072 191.404824 
L 318.241045 189.904403 
L 318.389019 191.215346 
L 318.536993 189.482598 
L 318.832941 191.13054 
L 318.980914 190.407596 
L 319.128888 190.710703 
L 319.276862 191.597979 
L 319.424836 191.645396 
L 319.720784 192.013488 
L 320.016731 189.208238 
L 320.312679 193.165385 
L 320.460653 189.445143 
L 320.608626 190.827253 
L 320.7566 189.925586 
L 320.904574 187.51397 
L 321.200522 190.187976 
L 321.348495 191.055318 
L 321.644443 189.143295 
L 321.792417 191.254281 
L 321.940391 188.285308 
L 322.088365 187.994043 
L 322.236338 190.754259 
L 322.384312 189.114555 
L 322.828234 192.308901 
L 322.976207 190.512156 
L 323.124181 193.272111 
L 323.272155 193.211044 
L 323.420129 188.937996 
L 323.568103 190.630756 
L 323.716076 190.740648 
L 323.86405 190.678116 
L 324.012024 189.999235 
L 324.159998 191.32153 
L 324.307972 189.372718 
L 324.455946 191.844733 
L 324.603919 190.415514 
L 324.899867 190.704533 
L 325.047841 190.866322 
L 325.195815 194.210121 
L 325.343788 192.453277 
L 325.491762 192.350754 
L 325.639736 190.918081 
L 325.78771 191.41963 
L 326.083657 189.604195 
L 326.231631 189.870483 
L 326.379605 187.780113 
L 326.527579 192.499063 
L 326.823527 190.603331 
L 326.9715 190.332693 
L 327.119474 192.28478 
L 327.415422 187.868777 
L 327.563396 190.986236 
L 327.711369 190.570065 
L 327.859343 188.890038 
L 328.007317 189.952203 
L 328.155291 188.401126 
L 328.451239 191.968406 
L 328.599212 189.265141 
L 328.747186 190.28469 
L 329.043134 190.261798 
L 329.191108 190.654299 
L 329.487055 190.434797 
L 329.783003 192.380137 
L 329.930977 188.705814 
L 330.07895 188.817382 
L 330.226924 190.130193 
L 330.374898 189.895191 
L 330.522872 190.821128 
L 330.670846 190.284018 
L 330.81882 188.992047 
L 330.966793 190.669273 
L 331.114767 189.770582 
L 331.262741 187.237081 
L 331.706662 193.226585 
L 331.854636 188.730028 
L 332.00261 193.600933 
L 332.298558 189.77407 
L 332.446531 187.804365 
L 332.594505 190.191069 
L 332.742479 189.976255 
L 332.890453 190.115019 
L 333.038427 192.28101 
L 333.334374 191.684865 
L 333.630322 185.137663 
L 333.778296 194.597733 
L 333.92627 190.305095 
L 334.074243 190.006119 
L 334.222217 189.262001 
L 334.370191 190.264124 
L 334.666139 189.005506 
L 334.814112 192.166322 
L 335.406008 189.17184 
L 335.553982 190.07534 
L 335.701955 189.957103 
L 335.849929 190.552399 
L 335.997903 188.822295 
L 336.145877 190.444701 
L 336.293851 190.619191 
L 336.737772 192.345931 
L 336.885746 188.182719 
L 337.181693 191.520369 
L 337.329667 189.592589 
L 337.625615 193.952982 
L 337.773589 184.709666 
L 338.069536 194.022742 
L 338.21751 190.400677 
L 338.513458 190.081746 
L 338.661432 188.287307 
L 338.957379 191.766267 
L 339.105353 189.805706 
L 339.401301 192.538666 
L 339.549274 188.855848 
L 339.697248 189.889835 
L 339.845222 192.835807 
L 340.14117 188.765272 
L 340.289144 191.309376 
L 340.437117 189.201569 
L 340.585091 191.559984 
L 340.733065 191.664115 
L 340.881039 190.95574 
L 341.029013 190.992758 
L 341.176986 191.971318 
L 341.32496 188.962839 
L 341.472934 190.594516 
L 341.620908 190.738343 
L 341.768882 194.92078 
L 341.916855 219.267791 
L 342.064829 189.314118 
L 342.212803 189.700302 
L 342.360777 189.183179 
L 342.508751 192.220327 
L 342.656725 189.580144 
L 342.804698 191.626982 
L 342.952672 188.162849 
L 343.24862 195.168648 
L 343.396594 190.153877 
L 343.544567 191.557491 
L 343.692541 191.490181 
L 343.988489 188.668987 
L 344.136463 191.200397 
L 344.284436 190.017849 
L 344.43241 190.050615 
L 344.580384 192.053411 
L 344.876332 189.101373 
L 345.024306 189.605158 
L 345.172279 190.683612 
L 345.320253 190.868616 
L 345.468227 192.120517 
L 345.616201 187.684503 
L 345.764175 189.040884 
L 345.912148 193.830461 
L 346.060122 190.627941 
L 346.208096 190.32881 
L 346.35607 190.375116 
L 346.504044 189.415122 
L 346.652017 190.648379 
L 346.799991 188.140023 
L 346.947965 190.920978 
L 347.095939 188.99171 
L 347.243913 190.673455 
L 347.391887 188.65116 
L 347.835808 192.446957 
L 348.131756 188.310571 
L 348.279729 188.916513 
L 348.427703 191.232857 
L 348.575677 186.280258 
L 348.723651 189.205184 
L 348.871625 189.262758 
L 349.019598 191.073064 
L 349.167572 189.628206 
L 349.315546 191.176179 
L 349.46352 189.904361 
L 349.611494 191.212004 
L 349.759468 190.716986 
L 349.907441 192.262708 
L 350.055415 192.22943 
L 350.203389 190.311464 
L 350.499337 191.391935 
L 350.64731 191.033798 
L 350.795284 191.517918 
L 350.943258 190.053715 
L 351.091232 190.588242 
L 351.239206 190.241164 
L 351.387179 191.848718 
L 351.535153 191.772758 
L 351.831101 189.813171 
L 351.979075 192.953335 
L 352.127049 190.850067 
L 352.275022 190.629975 
L 352.422996 192.26692 
L 352.57097 190.849685 
L 352.718944 190.967376 
L 352.866918 191.83846 
L 353.014891 190.492808 
L 353.162865 193.944114 
L 353.310839 191.55075 
L 353.458813 194.558234 
L 353.902734 190.838683 
L 354.050708 194.738483 
L 354.198682 191.168633 
L 354.49463 189.0524 
L 354.642603 191.896368 
L 354.790577 183.434744 
L 354.938551 189.031046 
L 355.086525 189.156587 
L 355.234499 193.183684 
L 355.382472 190.82355 
L 355.530446 193.343854 
L 355.67842 189.545382 
L 355.826394 190.919755 
L 355.974368 189.313839 
L 356.270315 191.498001 
L 356.418289 190.968626 
L 356.566263 192.641325 
L 356.714237 189.464588 
L 356.862211 191.038701 
L 357.010184 190.093215 
L 357.158158 190.881034 
L 357.306132 188.174789 
L 357.454106 191.408638 
L 357.60208 190.756623 
L 357.898027 192.889247 
L 358.046001 192.102886 
L 358.193975 189.409851 
L 358.341949 190.069896 
L 358.489923 187.215295 
L 358.78587 190.446928 
L 358.933844 189.701 
L 359.081818 190.773128 
L 359.229792 190.629725 
L 359.377765 187.705251 
L 359.673713 189.384205 
L 359.821687 186.714948 
L 359.969661 191.480686 
L 360.117634 189.078341 
L 360.265608 189.969053 
L 360.413582 188.756513 
L 360.561556 190.386655 
L 360.70953 188.730181 
L 361.005477 188.954992 
L 361.301425 189.955379 
L 361.597373 190.139393 
L 361.745346 190.70433 
L 361.89332 188.821218 
L 362.041294 189.448655 
L 362.189268 189.291386 
L 362.485215 186.828801 
L 362.633189 190.329062 
L 362.781163 188.515282 
L 362.929137 193.865859 
L 363.077111 188.960627 
L 363.225085 192.099617 
L 363.373058 187.905684 
L 363.521032 191.139348 
L 363.669006 189.676558 
L 363.81698 189.539833 
L 364.112927 191.417582 
L 364.260901 189.445856 
L 364.408875 191.333641 
L 364.704823 189.15598 
L 364.852796 189.914165 
L 365.00077 189.201301 
L 365.148744 190.734686 
L 365.296718 189.631574 
L 365.592666 191.886707 
L 365.740639 189.026345 
L 365.888613 189.570245 
L 366.184561 193.069914 
L 366.332535 190.280336 
L 366.480508 189.881716 
L 366.628482 191.787285 
L 366.776456 191.648367 
L 366.92443 193.182172 
L 367.072404 190.928774 
L 367.220377 190.511453 
L 367.368351 194.044397 
L 367.516325 189.761151 
L 367.812273 191.364452 
L 367.812273 191.364452 
" style="fill:none;stroke:#1f77b4;stroke-linecap:square;stroke-width:1.5;"/>
   </g>
   <g id="patch_3">
    <path d="M 26.925 276.812 
L 26.925 10.7 
" style="fill:none;stroke:#000000;stroke-linecap:square;stroke-linejoin:miter;stroke-width:0.8;"/>
   </g>
   <g id="patch_4">
    <path d="M 384.045 276.812 
L 384.045 10.7 
" style="fill:none;stroke:#000000;stroke-linecap:square;stroke-linejoin:miter;stroke-width:0.8;"/>
   </g>
   <g id="patch_5">
    <path d="M 26.925 276.812 
L 384.045 276.812 
" style="fill:none;stroke:#000000;stroke-linecap:square;stroke-linejoin:miter;stroke-width:0.8;"/>
   </g>
   <g id="patch_6">
    <path d="M 26.925 10.7 
L 384.045 10.7 
" style="fill:none;stroke:#000000;stroke-linecap:square;stroke-linejoin:miter;stroke-width:0.8;"/>
   </g>
  </g>
 </g>
 <defs>
  <clipPath id="p6f88ac5aca">
   <rect height="266.112" width="357.12" x="26.925" y="10.7"/>
  </clipPath>
 </defs>
</svg>
