<?xml version="1.0" encoding="utf-8" standalone="no"?>
<!DOCTYPE svg PUBLIC "-//W3C//DTD SVG 1.1//EN"
  "http://www.w3.org/Graphics/SVG/1.1/DTD/svg11.dtd">
<!-- Created with matplotlib (http://matplotlib.org/) -->
<svg height="252.018125pt" version="1.1" viewBox="0 0 381.965625 252.018125" width="381.965625pt" xmlns="http://www.w3.org/2000/svg" xmlns:xlink="http://www.w3.org/1999/xlink">
 <defs>
  <style type="text/css">
*{stroke-linecap:butt;stroke-linejoin:round;}
  </style>
 </defs>
 <g id="figure_1">
  <g id="patch_1">
   <path d="M 0 252.018125 
L 381.965625 252.018125 
L 381.965625 0 
L 0 0 
z
" style="fill:#ffffff;"/>
  </g>
  <g id="axes_1">
   <g id="patch_2">
    <path d="M 36.465625 228.14 
L 371.265625 228.14 
L 371.265625 10.7 
L 36.465625 10.7 
z
" style="fill:#ffffff;"/>
   </g>
   <g id="matplotlib.axis_1">
    <g id="xtick_1">
     <g id="line2d_1">
      <defs>
       <path d="M 0 0 
L 0 3.5 
" id="m9403ad2e33" style="stroke:#000000;stroke-width:0.8;"/>
      </defs>
      <g>
       <use style="stroke:#000000;stroke-width:0.8;" x="51.683807" xlink:href="#m9403ad2e33" y="228.14"/>
      </g>
     </g>
     <g id="text_1">
      <!-- 0 -->
      <defs>
       <path d="M 31.78125 66.40625 
Q 24.171875 66.40625 20.328125 58.90625 
Q 16.5 51.421875 16.5 36.375 
Q 16.5 21.390625 20.328125 13.890625 
Q 24.171875 6.390625 31.78125 6.390625 
Q 39.453125 6.390625 43.28125 13.890625 
Q 47.125 21.390625 47.125 36.375 
Q 47.125 51.421875 43.28125 58.90625 
Q 39.453125 66.40625 31.78125 66.40625 
z
M 31.78125 74.21875 
Q 44.046875 74.21875 50.515625 64.515625 
Q 56.984375 54.828125 56.984375 36.375 
Q 56.984375 17.96875 50.515625 8.265625 
Q 44.046875 -1.421875 31.78125 -1.421875 
Q 19.53125 -1.421875 13.0625 8.265625 
Q 6.59375 17.96875 6.59375 36.375 
Q 6.59375 54.828125 13.0625 64.515625 
Q 19.53125 74.21875 31.78125 74.21875 
z
" id="DejaVuSans-30"/>
      </defs>
      <g transform="translate(48.502557 242.738437)scale(0.1 -0.1)">
       <use xlink:href="#DejaVuSans-30"/>
      </g>
     </g>
    </g>
    <g id="xtick_2">
     <g id="line2d_2">
      <g>
       <use style="stroke:#000000;stroke-width:0.8;" x="120.110883" xlink:href="#m9403ad2e33" y="228.14"/>
      </g>
     </g>
     <g id="text_2">
      <!-- 500 -->
      <defs>
       <path d="M 10.796875 72.90625 
L 49.515625 72.90625 
L 49.515625 64.59375 
L 19.828125 64.59375 
L 19.828125 46.734375 
Q 21.96875 47.46875 24.109375 47.828125 
Q 26.265625 48.1875 28.421875 48.1875 
Q 40.625 48.1875 47.75 41.5 
Q 54.890625 34.8125 54.890625 23.390625 
Q 54.890625 11.625 47.5625 5.09375 
Q 40.234375 -1.421875 26.90625 -1.421875 
Q 22.3125 -1.421875 17.546875 -0.640625 
Q 12.796875 0.140625 7.71875 1.703125 
L 7.71875 11.625 
Q 12.109375 9.234375 16.796875 8.0625 
Q 21.484375 6.890625 26.703125 6.890625 
Q 35.15625 6.890625 40.078125 11.328125 
Q 45.015625 15.765625 45.015625 23.390625 
Q 45.015625 31 40.078125 35.4375 
Q 35.15625 39.890625 26.703125 39.890625 
Q 22.75 39.890625 18.8125 39.015625 
Q 14.890625 38.140625 10.796875 36.28125 
z
" id="DejaVuSans-35"/>
      </defs>
      <g transform="translate(110.567133 242.738437)scale(0.1 -0.1)">
       <use xlink:href="#DejaVuSans-35"/>
       <use x="63.623047" xlink:href="#DejaVuSans-30"/>
       <use x="127.246094" xlink:href="#DejaVuSans-30"/>
      </g>
     </g>
    </g>
    <g id="xtick_3">
     <g id="line2d_3">
      <g>
       <use style="stroke:#000000;stroke-width:0.8;" x="188.53796" xlink:href="#m9403ad2e33" y="228.14"/>
      </g>
     </g>
     <g id="text_3">
      <!-- 1000 -->
      <defs>
       <path d="M 12.40625 8.296875 
L 28.515625 8.296875 
L 28.515625 63.921875 
L 10.984375 60.40625 
L 10.984375 69.390625 
L 28.421875 72.90625 
L 38.28125 72.90625 
L 38.28125 8.296875 
L 54.390625 8.296875 
L 54.390625 0 
L 12.40625 0 
z
" id="DejaVuSans-31"/>
      </defs>
      <g transform="translate(175.81296 242.738437)scale(0.1 -0.1)">
       <use xlink:href="#DejaVuSans-31"/>
       <use x="63.623047" xlink:href="#DejaVuSans-30"/>
       <use x="127.246094" xlink:href="#DejaVuSans-30"/>
       <use x="190.869141" xlink:href="#DejaVuSans-30"/>
      </g>
     </g>
    </g>
    <g id="xtick_4">
     <g id="line2d_4">
      <g>
       <use style="stroke:#000000;stroke-width:0.8;" x="256.965036" xlink:href="#m9403ad2e33" y="228.14"/>
      </g>
     </g>
     <g id="text_4">
      <!-- 1500 -->
      <g transform="translate(244.240036 242.738437)scale(0.1 -0.1)">
       <use xlink:href="#DejaVuSans-31"/>
       <use x="63.623047" xlink:href="#DejaVuSans-35"/>
       <use x="127.246094" xlink:href="#DejaVuSans-30"/>
       <use x="190.869141" xlink:href="#DejaVuSans-30"/>
      </g>
     </g>
    </g>
    <g id="xtick_5">
     <g id="line2d_5">
      <g>
       <use style="stroke:#000000;stroke-width:0.8;" x="325.392113" xlink:href="#m9403ad2e33" y="228.14"/>
      </g>
     </g>
     <g id="text_5">
      <!-- 2000 -->
      <defs>
       <path d="M 19.1875 8.296875 
L 53.609375 8.296875 
L 53.609375 0 
L 7.328125 0 
L 7.328125 8.296875 
Q 12.9375 14.109375 22.625 23.890625 
Q 32.328125 33.6875 34.8125 36.53125 
Q 39.546875 41.84375 41.421875 45.53125 
Q 43.3125 49.21875 43.3125 52.78125 
Q 43.3125 58.59375 39.234375 62.25 
Q 35.15625 65.921875 28.609375 65.921875 
Q 23.96875 65.921875 18.8125 64.3125 
Q 13.671875 62.703125 7.8125 59.421875 
L 7.8125 69.390625 
Q 13.765625 71.78125 18.9375 73 
Q 24.125 74.21875 28.421875 74.21875 
Q 39.75 74.21875 46.484375 68.546875 
Q 53.21875 62.890625 53.21875 53.421875 
Q 53.21875 48.921875 51.53125 44.890625 
Q 49.859375 40.875 45.40625 35.40625 
Q 44.1875 33.984375 37.640625 27.21875 
Q 31.109375 20.453125 19.1875 8.296875 
z
" id="DejaVuSans-32"/>
      </defs>
      <g transform="translate(312.667113 242.738437)scale(0.1 -0.1)">
       <use xlink:href="#DejaVuSans-32"/>
       <use x="63.623047" xlink:href="#DejaVuSans-30"/>
       <use x="127.246094" xlink:href="#DejaVuSans-30"/>
       <use x="190.869141" xlink:href="#DejaVuSans-30"/>
      </g>
     </g>
    </g>
   </g>
   <g id="matplotlib.axis_2">
    <g id="ytick_1">
     <g id="line2d_6">
      <defs>
       <path d="M 0 0 
L -3.5 0 
" id="ma75a4671a6" style="stroke:#000000;stroke-width:0.8;"/>
      </defs>
      <g>
       <use style="stroke:#000000;stroke-width:0.8;" x="36.465625" xlink:href="#ma75a4671a6" y="204.761315"/>
      </g>
     </g>
     <g id="text_6">
      <!-- 5.0 -->
      <defs>
       <path d="M 10.6875 12.40625 
L 21 12.40625 
L 21 0 
L 10.6875 0 
z
" id="DejaVuSans-2e"/>
      </defs>
      <g transform="translate(13.5625 208.560534)scale(0.1 -0.1)">
       <use xlink:href="#DejaVuSans-35"/>
       <use x="63.623047" xlink:href="#DejaVuSans-2e"/>
       <use x="95.410156" xlink:href="#DejaVuSans-30"/>
      </g>
     </g>
    </g>
    <g id="ytick_2">
     <g id="line2d_7">
      <g>
       <use style="stroke:#000000;stroke-width:0.8;" x="36.465625" xlink:href="#ma75a4671a6" y="178.333004"/>
      </g>
     </g>
     <g id="text_7">
      <!-- 7.5 -->
      <defs>
       <path d="M 8.203125 72.90625 
L 55.078125 72.90625 
L 55.078125 68.703125 
L 28.609375 0 
L 18.3125 0 
L 43.21875 64.59375 
L 8.203125 64.59375 
z
" id="DejaVuSans-37"/>
      </defs>
      <g transform="translate(13.5625 182.132223)scale(0.1 -0.1)">
       <use xlink:href="#DejaVuSans-37"/>
       <use x="63.623047" xlink:href="#DejaVuSans-2e"/>
       <use x="95.410156" xlink:href="#DejaVuSans-35"/>
      </g>
     </g>
    </g>
    <g id="ytick_3">
     <g id="line2d_8">
      <g>
       <use style="stroke:#000000;stroke-width:0.8;" x="36.465625" xlink:href="#ma75a4671a6" y="151.904693"/>
      </g>
     </g>
     <g id="text_8">
      <!-- 10.0 -->
      <g transform="translate(7.2 155.703912)scale(0.1 -0.1)">
       <use xlink:href="#DejaVuSans-31"/>
       <use x="63.623047" xlink:href="#DejaVuSans-30"/>
       <use x="127.246094" xlink:href="#DejaVuSans-2e"/>
       <use x="159.033203" xlink:href="#DejaVuSans-30"/>
      </g>
     </g>
    </g>
    <g id="ytick_4">
     <g id="line2d_9">
      <g>
       <use style="stroke:#000000;stroke-width:0.8;" x="36.465625" xlink:href="#ma75a4671a6" y="125.476382"/>
      </g>
     </g>
     <g id="text_9">
      <!-- 12.5 -->
      <g transform="translate(7.2 129.275601)scale(0.1 -0.1)">
       <use xlink:href="#DejaVuSans-31"/>
       <use x="63.623047" xlink:href="#DejaVuSans-32"/>
       <use x="127.246094" xlink:href="#DejaVuSans-2e"/>
       <use x="159.033203" xlink:href="#DejaVuSans-35"/>
      </g>
     </g>
    </g>
    <g id="ytick_5">
     <g id="line2d_10">
      <g>
       <use style="stroke:#000000;stroke-width:0.8;" x="36.465625" xlink:href="#ma75a4671a6" y="99.048071"/>
      </g>
     </g>
     <g id="text_10">
      <!-- 15.0 -->
      <g transform="translate(7.2 102.84729)scale(0.1 -0.1)">
       <use xlink:href="#DejaVuSans-31"/>
       <use x="63.623047" xlink:href="#DejaVuSans-35"/>
       <use x="127.246094" xlink:href="#DejaVuSans-2e"/>
       <use x="159.033203" xlink:href="#DejaVuSans-30"/>
      </g>
     </g>
    </g>
    <g id="ytick_6">
     <g id="line2d_11">
      <g>
       <use style="stroke:#000000;stroke-width:0.8;" x="36.465625" xlink:href="#ma75a4671a6" y="72.61976"/>
      </g>
     </g>
     <g id="text_11">
      <!-- 17.5 -->
      <g transform="translate(7.2 76.418979)scale(0.1 -0.1)">
       <use xlink:href="#DejaVuSans-31"/>
       <use x="63.623047" xlink:href="#DejaVuSans-37"/>
       <use x="127.246094" xlink:href="#DejaVuSans-2e"/>
       <use x="159.033203" xlink:href="#DejaVuSans-35"/>
      </g>
     </g>
    </g>
    <g id="ytick_7">
     <g id="line2d_12">
      <g>
       <use style="stroke:#000000;stroke-width:0.8;" x="36.465625" xlink:href="#ma75a4671a6" y="46.191449"/>
      </g>
     </g>
     <g id="text_12">
      <!-- 20.0 -->
      <g transform="translate(7.2 49.990668)scale(0.1 -0.1)">
       <use xlink:href="#DejaVuSans-32"/>
       <use x="63.623047" xlink:href="#DejaVuSans-30"/>
       <use x="127.246094" xlink:href="#DejaVuSans-2e"/>
       <use x="159.033203" xlink:href="#DejaVuSans-30"/>
      </g>
     </g>
    </g>
    <g id="ytick_8">
     <g id="line2d_13">
      <g>
       <use style="stroke:#000000;stroke-width:0.8;" x="36.465625" xlink:href="#ma75a4671a6" y="19.763138"/>
      </g>
     </g>
     <g id="text_13">
      <!-- 22.5 -->
      <g transform="translate(7.2 23.562356)scale(0.1 -0.1)">
       <use xlink:href="#DejaVuSans-32"/>
       <use x="63.623047" xlink:href="#DejaVuSans-32"/>
       <use x="127.246094" xlink:href="#DejaVuSans-2e"/>
       <use x="159.033203" xlink:href="#DejaVuSans-35"/>
      </g>
     </g>
    </g>
   </g>
   <g id="line2d_14">
    <path clip-path="url(#p18e54026aa)" d="M 51.683807 139.63592 
L 51.820661 174.87349 
L 51.957515 121.530538 
L 52.094369 160.509091 
L 52.231223 75.933045 
L 52.641786 197.426876 
L 52.77864 123.177469 
L 53.052348 150.42812 
L 53.189203 138.391234 
L 53.599765 165.359965 
L 53.736619 154.162027 
L 53.873473 170.791839 
L 54.010327 99.703253 
L 54.147182 143.759808 
L 54.284036 146.752479 
L 54.42089 157.704843 
L 54.557744 141.429887 
L 54.694598 143.07394 
L 54.831452 140.896093 
L 55.105161 167.047295 
L 55.242015 152.338125 
L 55.378869 161.178988 
L 55.515723 142.399623 
L 55.652577 168.857664 
L 55.789431 163.702041 
L 55.926286 132.294169 
L 56.06314 148.431796 
L 56.199994 150.974947 
L 56.473702 162.017099 
L 56.610556 128.961061 
L 56.74741 134.66215 
L 56.884265 169.998328 
L 57.157973 142.266875 
L 57.294827 130.153452 
L 57.568535 172.18943 
L 57.70539 170.306984 
L 57.842244 156.775491 
L 57.979098 125.665884 
L 58.115952 142.339937 
L 58.252806 94.034262 
L 58.38966 157.71861 
L 58.526514 117.32709 
L 58.800223 198.805378 
L 58.937077 198.24666 
L 59.073931 126.780911 
L 59.347639 152.957352 
L 59.484494 117.208242 
L 59.621348 143.775662 
L 59.895056 102.131165 
L 60.168764 162.377522 
L 60.305618 68.012969 
L 60.442473 112.231759 
L 60.579327 115.867494 
L 60.853035 175.493022 
L 61.126743 119.682476 
L 61.263598 198.964942 
L 61.537306 123.589966 
L 61.67416 176.424837 
L 61.947868 118.078018 
L 62.358431 172.843086 
L 62.495285 161.761125 
L 62.632139 184.218916 
L 62.768993 50.238758 
L 62.905847 148.575996 
L 63.042702 146.465133 
L 63.179556 158.92304 
L 63.453264 144.510627 
L 63.590118 147.088015 
L 63.863826 185.657419 
L 64.000681 195.719828 
L 64.137535 122.485359 
L 64.274389 120.434378 
L 64.411243 99.533475 
L 64.548097 125.817793 
L 64.684951 192.688189 
L 64.95866 110.055214 
L 65.095514 155.626751 
L 65.369222 110.162467 
L 65.506076 121.194215 
L 65.64293 94.210955 
L 65.779785 124.048132 
L 65.916639 114.29254 
L 66.053493 69.550089 
L 66.327201 172.883665 
L 66.464055 125.817138 
L 66.600909 182.680611 
L 66.874618 97.191479 
L 67.011472 187.03629 
L 67.148326 152.108891 
L 67.422034 191.216493 
L 67.558889 151.639739 
L 67.695743 171.041739 
L 67.832597 135.473881 
L 67.969451 192.881809 
L 68.106305 124.815693 
L 68.243159 132.809774 
L 68.380013 128.183536 
L 68.516868 128.25264 
L 68.653722 158.626426 
L 68.92743 135.985993 
L 69.064284 164.658097 
L 69.201138 115.165036 
L 69.337993 135.750128 
L 69.474847 129.155681 
L 69.611701 130.127151 
L 69.748555 193.740161 
L 69.885409 125.903929 
L 70.022263 216.527223 
L 70.159117 141.202925 
L 70.295972 208.463394 
L 70.432826 131.891428 
L 70.56968 164.04322 
L 70.706534 105.195476 
L 70.980242 190.617101 
L 71.117097 92.0532 
L 71.253951 205.649116 
L 71.390805 192.629951 
L 71.527659 93.443503 
L 71.801367 204.414689 
L 71.938221 210.52515 
L 72.075076 162.280971 
L 72.21193 74.486003 
L 72.485638 133.868949 
L 72.622492 202.221671 
L 72.759346 104.162194 
L 72.896201 183.76931 
L 73.033055 140.26724 
L 73.169909 140.66723 
L 73.306763 218.256364 
L 73.443617 100.23009 
L 73.717325 135.074013 
L 73.85418 84.516205 
L 73.991034 211.963891 
L 74.127888 80.886658 
L 74.264742 141.826462 
L 74.401596 146.10603 
L 74.675305 204.222726 
L 74.812159 179.674084 
L 74.949013 104.544227 
L 75.085867 140.3486 
L 75.222721 98.042668 
L 75.359575 157.556945 
L 75.496429 140.934408 
L 75.633284 198.53409 
L 76.1807 114.025846 
L 76.317554 179.564954 
L 76.454409 163.959645 
L 76.591263 92.415035 
L 76.728117 150.116541 
L 76.864971 115.615999 
L 77.001825 171.068557 
L 77.138679 157.811617 
L 77.275533 107.158705 
L 77.549242 155.562709 
L 77.686096 81.98027 
L 77.82295 114.045609 
L 77.959804 173.069555 
L 78.096658 92.825651 
L 78.233513 162.295409 
L 78.370367 76.339055 
L 78.507221 169.744541 
L 78.644075 92.459284 
L 78.917783 161.146896 
L 79.054637 154.99813 
L 79.191492 156.687718 
L 79.4652 174.320468 
L 79.875762 125.34179 
L 80.012616 169.35306 
L 80.149471 167.079577 
L 80.286325 158.215591 
L 80.423179 129.825383 
L 80.560033 149.726959 
L 80.833741 143.48527 
L 80.970596 158.13431 
L 81.244304 141.893308 
L 81.381158 147.042126 
L 81.518012 138.225493 
L 81.654866 158.355807 
L 81.79172 137.414496 
L 82.202283 159.218809 
L 82.339137 144.355663 
L 82.475991 146.626918 
L 82.612845 96.86115 
L 82.886554 166.019342 
L 83.023408 122.673188 
L 83.297116 183.528704 
L 83.43397 151.488951 
L 83.570824 154.602598 
L 83.707679 145.906507 
L 83.844533 162.829059 
L 84.118241 142.821265 
L 84.255095 142.140228 
L 84.391949 157.447022 
L 84.528804 133.576103 
L 84.665658 139.940938 
L 84.939366 169.528577 
L 85.07622 162.523877 
L 85.486783 108.620121 
L 85.623637 120.454436 
L 85.760491 168.801497 
L 85.897345 143.180581 
L 86.034199 169.540286 
L 86.171053 123.407263 
L 86.307908 122.611402 
L 86.581616 162.212457 
L 86.71847 143.845922 
L 86.855324 142.315322 
L 87.265887 181.018197 
L 87.402741 156.297461 
L 87.539595 154.541685 
L 87.676449 160.872778 
L 87.813303 152.181441 
L 87.950157 178.204292 
L 88.087012 117.382257 
L 88.223866 127.89821 
L 88.36072 169.39983 
L 88.497574 173.238536 
L 88.771282 132.063183 
L 88.908136 139.021737 
L 89.044991 109.455135 
L 89.181845 175.145136 
L 89.318699 176.301036 
L 89.592407 143.241449 
L 89.729261 170.600929 
L 89.866116 169.431994 
L 90.00297 141.616508 
L 90.139824 155.222917 
L 90.276678 143.807382 
L 90.413532 93.9402 
L 90.550386 164.20323 
L 90.68724 158.149009 
L 90.824095 174.826741 
L 91.097803 93.609078 
L 91.371511 170.14269 
L 91.508365 158.578665 
L 91.64522 131.329189 
L 91.782074 126.754613 
L 91.918928 166.538 
L 92.055782 163.427791 
L 92.192636 175.632381 
L 92.32949 94.572298 
L 92.466344 179.375719 
L 92.603199 129.624368 
L 92.876907 154.156206 
L 93.013761 153.689395 
L 93.150615 154.550026 
L 93.287469 148.151825 
L 93.424323 160.483421 
L 93.561178 161.992822 
L 93.698032 126.797997 
L 93.97174 171.960263 
L 94.108594 100.888635 
L 94.245448 158.606459 
L 94.382303 168.605201 
L 94.519157 105.208455 
L 94.656011 126.893322 
L 94.792865 129.888644 
L 94.929719 172.050644 
L 95.066573 164.772856 
L 95.203427 115.028689 
L 95.477136 173.470153 
L 95.61399 162.779186 
L 95.750844 106.433578 
L 96.024552 164.776555 
L 96.161407 103.5354 
L 96.435115 180.762705 
L 96.708823 124.32263 
L 96.845677 174.213185 
L 96.982531 174.872447 
L 97.119386 152.526946 
L 97.25624 162.215164 
L 97.393094 109.65257 
L 97.803656 166.671202 
L 97.940511 159.227545 
L 98.077365 143.329437 
L 98.214219 164.513925 
L 98.487927 148.88552 
L 98.624781 147.647948 
L 98.761635 150.420102 
L 99.172198 147.259274 
L 99.309052 147.479193 
L 99.719615 145.153256 
L 99.856469 147.387903 
L 99.993323 145.377476 
L 100.130177 145.668175 
L 100.267031 149.506436 
L 100.403885 149.516776 
L 100.540739 141.229515 
L 100.677594 148.764603 
L 100.814448 148.104706 
L 100.951302 143.051426 
L 101.088156 144.482501 
L 101.361864 151.76881 
L 101.498719 145.902657 
L 101.772427 152.80302 
L 101.909281 143.630001 
L 102.046135 148.706175 
L 102.182989 141.426919 
L 102.319843 156.956407 
L 102.456698 151.8948 
L 102.593552 115.52461 
L 102.86726 148.547611 
L 103.004114 139.1211 
L 103.140968 165.037148 
L 103.277823 112.453703 
L 103.414677 171.307305 
L 103.551531 147.678437 
L 103.688385 90.741958 
L 103.962093 160.379028 
L 104.098947 164.954539 
L 104.235802 190.207716 
L 104.372656 59.561546 
L 104.50951 158.142958 
L 104.646364 140.88063 
L 104.783218 170.022861 
L 104.920072 171.851926 
L 105.056927 121.486948 
L 105.193781 150.290242 
L 105.330635 148.32161 
L 105.467489 168.739564 
L 105.604343 157.786635 
L 105.741197 191.850097 
L 105.878051 153.74484 
L 106.014906 161.629368 
L 106.15176 114.392762 
L 106.288614 146.336035 
L 106.425468 124.229776 
L 106.562322 171.252533 
L 106.83603 39.909293 
L 106.972885 164.310981 
L 107.109739 148.39085 
L 107.246593 106.43073 
L 107.383447 139.483714 
L 107.657155 67.608463 
L 107.79401 142.703737 
L 107.930864 155.317005 
L 108.067718 154.289253 
L 108.204572 159.394603 
L 108.341426 153.329325 
L 108.47828 136.536489 
L 108.615134 66.541767 
L 108.888843 169.547117 
L 109.025697 166.90975 
L 109.162551 167.981475 
L 109.299405 163.211704 
L 109.436259 97.997419 
L 109.573114 160.009247 
L 109.709968 107.331949 
L 109.846822 168.574299 
L 109.983676 136.594725 
L 110.12053 181.583748 
L 110.257384 170.122049 
L 110.394238 169.314106 
L 110.667947 82.316892 
L 110.804801 163.289151 
L 111.078509 83.64124 
L 111.352218 140.111294 
L 111.625926 164.292557 
L 111.76278 74.965015 
L 112.036488 178.539548 
L 112.173342 124.400697 
L 112.447051 169.373519 
L 112.583905 172.638468 
L 112.720759 147.419103 
L 112.857613 160.099147 
L 112.994467 91.174788 
L 113.131322 174.698067 
L 113.268176 164.001884 
L 113.40503 129.601533 
L 113.541884 56.280787 
L 113.678738 166.443655 
L 114.089301 88.135187 
L 114.363009 162.655977 
L 114.499863 89.522242 
L 114.636717 163.335648 
L 114.773571 78.438553 
L 115.04728 178.080967 
L 115.184134 116.709467 
L 115.320988 137.641452 
L 115.457842 133.069752 
L 115.594696 63.342715 
L 115.73155 167.609121 
L 115.868405 159.534746 
L 116.005259 99.655348 
L 116.142113 164.026683 
L 116.278967 163.652619 
L 116.415821 155.504591 
L 116.552675 161.203946 
L 116.68953 132.099487 
L 116.826384 160.861226 
L 116.963238 81.801188 
L 117.236946 175.001394 
L 117.3738 144.450594 
L 117.510654 139.507011 
L 117.647509 161.401228 
L 117.784363 155.605683 
L 117.921217 105.908439 
L 118.194925 174.527156 
L 118.331779 130.79316 
L 118.468634 165.237968 
L 118.605488 171.180884 
L 118.742342 131.47292 
L 118.879196 169.861053 
L 119.152904 132.230391 
L 119.289758 142.661094 
L 119.563467 66.811929 
L 119.700321 96.042262 
L 119.837175 168.347672 
L 119.974029 164.277817 
L 120.110883 79.299066 
L 120.247737 179.276884 
L 120.521446 145.038642 
L 120.6583 187.619753 
L 120.795154 177.012557 
L 120.932008 154.255971 
L 121.068862 156.033896 
L 121.342571 180.495799 
L 121.479425 180.338769 
L 121.616279 168.319749 
L 121.753133 88.852502 
L 122.026841 155.923925 
L 122.163696 154.856635 
L 122.30055 111.784776 
L 122.437404 152.387138 
L 122.574258 124.961445 
L 122.711112 137.478171 
L 122.847966 184.359619 
L 122.984821 186.017958 
L 123.121675 150.251797 
L 123.258529 162.906202 
L 123.395383 155.108783 
L 123.532237 180.32653 
L 123.669091 150.579015 
L 123.805945 154.623465 
L 123.9428 118.224124 
L 124.079654 165.714789 
L 124.353362 151.171039 
L 124.490216 110.57529 
L 124.62707 146.161557 
L 124.763925 115.833533 
L 124.900779 171.157015 
L 125.037633 147.290446 
L 125.174487 191.299412 
L 125.448195 124.928395 
L 125.585049 186.527719 
L 125.858758 96.233936 
L 125.995612 180.908275 
L 126.26932 127.455554 
L 126.406174 134.628592 
L 126.679883 176.794189 
L 126.816737 110.891369 
L 126.953591 159.27387 
L 127.090445 129.30837 
L 127.227299 174.440286 
L 127.364153 123.268954 
L 127.501008 141.957958 
L 127.637862 177.356761 
L 127.774716 128.636694 
L 128.048424 174.065905 
L 128.185278 165.587641 
L 128.322133 172.872504 
L 128.458987 165.374882 
L 128.595841 91.858582 
L 128.732695 156.367066 
L 128.869549 167.804201 
L 129.006403 126.164634 
L 129.143257 133.962786 
L 129.416966 175.96655 
L 129.55382 178.407011 
L 129.690674 103.286176 
L 129.964382 164.564735 
L 130.101237 117.398197 
L 130.238091 184.200181 
L 130.511799 168.318784 
L 130.648653 92.834524 
L 130.785507 167.814729 
L 130.922361 165.993061 
L 131.059216 142.685034 
L 131.19607 164.870137 
L 131.469778 139.236516 
L 131.606632 175.154521 
L 131.743486 176.597631 
L 132.017195 141.933432 
L 132.290903 193.066683 
L 132.427757 167.443066 
L 132.564611 170.990114 
L 132.701465 171.547712 
L 132.83832 139.287369 
L 132.975174 175.998146 
L 133.112028 106.682876 
L 133.248882 180.592852 
L 133.52259 146.709064 
L 133.659444 172.22969 
L 133.796299 97.764889 
L 133.933153 180.911638 
L 134.070007 108.662826 
L 134.206861 166.836794 
L 134.480569 123.267043 
L 134.754278 138.984765 
L 134.891132 183.961666 
L 135.027986 121.729695 
L 135.16484 128.20878 
L 135.301694 176.626287 
L 135.575403 127.429139 
L 135.712257 158.433799 
L 135.849111 76.272675 
L 136.122819 177.274316 
L 136.259673 123.563012 
L 136.396528 175.184759 
L 136.533382 103.557722 
L 136.670236 159.396345 
L 136.80709 92.126445 
L 136.943944 173.593881 
L 137.080798 117.76536 
L 137.217652 115.245939 
L 137.354507 123.900802 
L 137.491361 120.417453 
L 137.628215 49.099662 
L 137.901923 141.839082 
L 138.038777 135.479516 
L 138.312486 166.568218 
L 138.44934 164.573045 
L 138.586194 112.731155 
L 138.859902 173.756735 
L 138.996756 153.52655 
L 139.133611 74.361623 
L 139.544173 154.261796 
L 139.681027 119.59274 
L 139.817881 131.239352 
L 139.954736 166.403113 
L 140.09159 131.189701 
L 140.228444 180.187602 
L 140.365298 119.804696 
L 140.502152 166.875632 
L 140.639006 83.967233 
L 140.77586 171.106314 
L 140.912715 161.806885 
L 141.049569 173.974368 
L 141.323277 102.15605 
L 141.460131 162.086374 
L 141.73384 139.115295 
L 141.870694 45.605974 
L 142.007548 177.990214 
L 142.144402 94.171496 
L 142.281256 96.263245 
L 142.41811 123.843593 
L 142.554964 186.577324 
L 142.691819 137.448828 
L 142.965527 171.328227 
L 143.102381 126.178374 
L 143.239235 125.157969 
L 143.376089 117.569384 
L 143.649798 169.865954 
L 143.786652 108.235727 
L 144.06036 145.834959 
L 144.197214 127.084196 
L 144.470923 164.400404 
L 144.744631 119.131922 
L 144.881485 170.852261 
L 145.018339 150.289441 
L 145.155193 149.358617 
L 145.292047 113.699881 
L 145.428902 158.149872 
L 145.565756 160.226186 
L 145.839464 143.814948 
L 145.976318 144.216069 
L 146.250027 156.578732 
L 146.523735 127.788896 
L 146.660589 132.448631 
L 146.797443 162.107979 
L 146.934297 162.928891 
L 147.208006 106.597453 
L 147.481714 177.988056 
L 147.618568 176.347574 
L 147.755422 86.786081 
L 147.892276 170.164318 
L 148.029131 116.986145 
L 148.165985 115.41936 
L 148.302839 157.310642 
L 148.439693 148.299583 
L 148.576547 178.949417 
L 148.850255 157.535464 
L 148.98711 180.597316 
L 149.260818 140.890937 
L 149.534526 177.592775 
L 149.808235 142.214707 
L 149.945089 143.272272 
L 150.218797 72.014367 
L 150.492505 180.606247 
L 150.629359 170.628602 
L 150.766214 104.235611 
L 150.903068 171.348155 
L 151.176776 78.636364 
L 151.31363 180.723562 
L 151.450484 145.514673 
L 151.587339 77.943079 
L 151.724193 178.115566 
L 151.861047 126.941346 
L 151.997901 131.074817 
L 152.134755 94.594453 
L 152.408463 187.091126 
L 152.545318 169.202205 
L 152.682172 108.685918 
L 152.95588 167.946949 
L 153.092734 104.0317 
L 153.229588 110.495781 
L 153.640151 189.776711 
L 153.913859 107.839119 
L 154.187567 185.751867 
L 154.324422 170.59896 
L 154.461276 190.46329 
L 154.59813 156.583836 
L 154.734984 195.985701 
L 154.871838 167.113769 
L 155.008692 104.862463 
L 155.145547 126.419319 
L 155.282401 180.624111 
L 155.419255 117.998545 
L 155.556109 132.011839 
L 155.692963 118.151976 
L 155.829817 171.026846 
L 156.103526 95.178267 
L 156.24038 108.696888 
L 156.514088 187.467608 
L 156.650942 147.423005 
L 156.787796 193.369747 
L 156.924651 84.363777 
L 157.335213 166.625835 
L 157.472067 123.702268 
L 157.608921 146.603675 
L 157.745775 87.171014 
L 158.019484 147.341118 
L 158.156338 130.609582 
L 158.430046 172.019502 
L 158.5669 156.05506 
L 158.703754 164.447458 
L 158.840609 143.790018 
L 158.977463 154.7914 
L 159.114317 88.728243 
L 159.251171 178.566734 
L 159.388025 138.073641 
L 159.661734 124.73997 
L 159.798588 198.957615 
L 160.072296 117.235192 
L 160.346004 182.436621 
L 160.482858 90.360614 
L 160.619713 138.753077 
L 160.756567 126.050883 
L 160.893421 188.292411 
L 161.303983 131.423854 
L 161.440838 98.754928 
L 161.577692 182.628998 
L 161.714546 125.397703 
L 161.8514 138.081555 
L 161.988254 66.987755 
L 162.125108 145.927298 
L 162.261962 148.623312 
L 162.398817 116.710681 
L 162.535671 119.579657 
L 162.672525 138.169335 
L 162.946233 195.30589 
L 163.083087 170.988128 
L 163.219942 174.743704 
L 163.356796 161.508524 
L 163.49365 130.79384 
L 163.630504 181.903304 
L 163.767358 115.291835 
L 164.041066 166.227955 
L 164.177921 140.049849 
L 164.314775 181.126026 
L 164.451629 157.67387 
L 164.588483 85.063423 
L 164.725337 92.79018 
L 164.999046 173.961006 
L 165.1359 133.850891 
L 165.272754 184.199008 
L 165.546462 84.546009 
L 165.82017 149.168182 
L 166.093879 113.617478 
L 166.230733 178.499329 
L 166.367587 151.077392 
L 166.641295 185.083813 
L 166.77815 156.055905 
L 166.915004 44.912427 
L 167.188712 180.334318 
L 167.325566 178.558034 
L 167.46242 115.555465 
L 167.599274 155.620856 
L 167.736129 64.696341 
L 168.009837 181.322986 
L 168.146691 133.582338 
L 168.283545 172.016489 
L 168.557254 85.826471 
L 168.830962 168.893509 
L 168.967816 171.497779 
L 169.10467 141.182247 
L 169.241524 165.014862 
L 169.378378 157.381805 
L 169.515233 171.777773 
L 169.652087 92.355711 
L 169.788941 179.407594 
L 169.925795 176.958178 
L 170.062649 161.204841 
L 170.199503 118.386429 
L 170.473212 165.814941 
L 170.610066 96.653769 
L 171.020628 158.311644 
L 171.294337 110.671203 
L 171.568045 192.207963 
L 171.841753 126.264754 
L 172.115461 171.914102 
L 172.252316 172.080798 
L 172.38917 83.214287 
L 172.662878 159.878976 
L 172.799732 172.237745 
L 173.073441 97.560095 
L 173.210295 174.007269 
L 173.347149 170.502184 
L 173.484003 162.442542 
L 173.620857 178.316973 
L 173.894565 81.536344 
L 174.168274 148.198175 
L 174.305128 146.201676 
L 174.441982 180.254259 
L 174.578836 164.861797 
L 174.71569 50.694477 
L 174.852545 181.166503 
L 174.989399 164.093766 
L 175.126253 172.390949 
L 175.263107 165.816818 
L 175.399961 110.657753 
L 175.536815 179.020487 
L 175.673669 138.732101 
L 175.810524 55.418304 
L 175.947378 117.03751 
L 176.084232 90.424368 
L 176.221086 123.866097 
L 176.35794 106.841898 
L 176.494794 128.572051 
L 176.631649 181.767161 
L 176.768503 159.569819 
L 176.905357 113.359761 
L 177.042211 183.655303 
L 177.179065 116.871853 
L 177.452773 183.747191 
L 177.589628 160.003089 
L 177.726482 73.981039 
L 177.863336 181.086697 
L 178.137044 90.119183 
L 178.410753 176.653892 
L 178.684461 126.454056 
L 178.958169 174.573738 
L 179.095023 159.035487 
L 179.368732 38.182029 
L 179.505586 168.551126 
L 179.779294 103.3079 
L 179.916148 172.136098 
L 180.053002 178.558033 
L 180.326711 141.682496 
L 180.463565 178.693001 
L 180.600419 106.024671 
L 180.737273 157.202697 
L 180.874127 142.065803 
L 181.010981 148.207607 
L 181.147836 173.42929 
L 181.28469 167.939276 
L 181.421544 146.254942 
L 181.558398 175.897085 
L 181.695252 80.462937 
L 181.832106 134.318601 
L 181.968961 140.59741 
L 182.105815 126.237915 
L 182.379523 171.678671 
L 182.516377 177.622866 
L 182.790085 54.770036 
L 182.92694 176.891049 
L 183.063794 168.331305 
L 183.200648 117.620959 
L 183.474356 179.885057 
L 183.61121 98.465102 
L 183.884919 184.723174 
L 184.021773 179.029243 
L 184.158627 84.25463 
L 184.295481 158.591684 
L 184.432335 172.574751 
L 184.569189 174.23896 
L 184.706044 144.088765 
L 184.842898 76.012097 
L 185.116606 177.349261 
L 185.390314 104.725754 
L 185.527168 178.933024 
L 185.664023 174.684586 
L 185.937731 119.34815 
L 186.074585 168.138918 
L 186.211439 58.641615 
L 186.622002 174.588232 
L 186.758856 169.552 
L 186.89571 179.846354 
L 187.032564 158.235483 
L 187.306272 101.551633 
L 187.579981 178.117729 
L 187.716835 178.384221 
L 187.853689 115.631136 
L 187.990543 166.365415 
L 188.264252 143.861794 
L 188.401106 160.167939 
L 188.53796 117.679305 
L 188.811668 176.980567 
L 188.948522 157.205268 
L 189.085376 181.928289 
L 189.359085 167.532737 
L 189.495939 170.131878 
L 189.632793 149.376888 
L 189.769647 172.900916 
L 189.906501 175.522342 
L 190.043356 143.861789 
L 190.18021 175.008682 
L 190.317064 178.7137 
L 190.453918 135.050858 
L 190.590772 163.135236 
L 190.727626 152.015221 
L 190.86448 61.879372 
L 191.138189 161.859845 
L 191.275043 96.709856 
L 191.411897 186.811289 
L 191.685605 93.300601 
L 191.82246 63.916673 
L 191.959314 174.283316 
L 192.096168 147.885098 
L 192.369876 180.362132 
L 192.50673 149.523141 
L 192.643584 151.158932 
L 192.917293 136.439239 
L 193.054147 92.70934 
L 193.327855 168.839259 
L 193.464709 174.148268 
L 193.601564 51.322847 
L 193.738418 182.424045 
L 193.875272 163.119765 
L 194.012126 178.719145 
L 194.14898 117.733389 
L 194.285834 174.489917 
L 194.422688 79.668797 
L 194.559543 176.963508 
L 194.696397 169.89339 
L 194.833251 133.638497 
L 194.970105 128.610698 
L 195.106959 140.413871 
L 195.243813 162.674994 
L 195.380668 117.348534 
L 195.517522 176.980567 
L 195.654376 84.476464 
L 195.79123 170.869113 
L 196.201792 43.54773 
L 196.338647 181.916931 
L 196.475501 149.919178 
L 196.612355 180.835458 
L 196.749209 170.084719 
L 196.886063 177.863982 
L 197.022917 46.124478 
L 197.296626 140.12373 
L 197.43348 101.857135 
L 197.570334 177.908197 
L 197.707188 177.23152 
L 197.844042 184.336149 
L 197.980896 170.027771 
L 198.117751 192.087146 
L 198.254605 175.682736 
L 198.391459 92.251181 
L 198.528313 200.79507 
L 198.802021 118.991686 
L 198.938875 172.325397 
L 199.07573 157.790073 
L 199.212584 105.52525 
L 199.349438 174.233805 
L 199.486292 166.796079 
L 199.623146 152.728396 
L 199.76 175.774083 
L 199.896855 169.96987 
L 200.033709 112.26666 
L 200.307417 141.977293 
L 200.444271 133.183716 
L 200.581125 166.6712 
L 200.717979 171.266471 
L 200.854834 114.049201 
L 201.128542 173.159092 
L 201.539104 97.250987 
L 201.675959 117.625259 
L 201.812813 59.389712 
L 202.086521 142.184908 
L 202.223375 76.603433 
L 202.360229 181.790966 
L 202.497083 104.325884 
L 202.633938 104.178439 
L 202.907646 172.148168 
L 203.0445 174.613089 
L 203.181354 116.562488 
L 203.318208 149.231622 
L 203.455063 140.978623 
L 203.591917 116.719834 
L 203.728771 162.960678 
L 203.865625 110.293128 
L 204.002479 108.471312 
L 204.139333 177.978339 
L 204.276187 176.718695 
L 204.413042 164.344159 
L 204.549896 173.460961 
L 204.68675 125.573396 
L 204.823604 136.557083 
L 205.097312 175.994987 
L 205.234167 129.086087 
L 205.371021 173.681924 
L 205.507875 168.276432 
L 205.781583 141.770785 
L 205.918437 174.395849 
L 206.055291 160.783064 
L 206.329 178.704983 
L 206.465854 120.388012 
L 206.602708 177.974019 
L 206.739562 120.846765 
L 207.013271 172.341527 
L 207.286979 79.356458 
L 207.423833 114.74678 
L 207.560687 105.043808 
L 207.697541 59.481686 
L 207.834395 171.912096 
L 207.97125 134.201505 
L 208.108104 142.213215 
L 208.244958 173.091933 
L 208.518666 147.007141 
L 208.65552 173.295616 
L 208.792375 165.023224 
L 208.929229 123.844241 
L 209.066083 153.213968 
L 209.202937 144.58971 
L 209.339791 178.578699 
L 209.476645 184.11474 
L 209.613499 79.833622 
L 209.750354 176.357095 
L 209.887208 126.576695 
L 210.024062 129.603549 
L 210.160916 97.053806 
L 210.434624 165.126345 
L 210.571478 178.101506 
L 210.708333 176.424839 
L 210.845187 133.751587 
L 210.982041 177.951353 
L 211.118895 116.005858 
L 211.255749 109.850266 
L 211.392603 77.775191 
L 211.529458 174.064873 
L 211.666312 141.001476 
L 211.803166 169.392034 
L 211.94002 127.531541 
L 212.076874 141.755934 
L 212.213728 63.537093 
L 212.487437 177.686304 
L 212.624291 177.272176 
L 212.761145 108.358953 
L 212.897999 105.601018 
L 213.034853 176.932599 
L 213.308562 115.087801 
L 213.445416 169.975757 
L 213.58227 163.358449 
L 213.719124 119.830279 
L 213.992832 183.499697 
L 214.403395 167.004587 
L 214.540249 136.915559 
L 214.677103 151.272054 
L 214.813957 127.906171 
L 214.950811 142.701489 
L 215.087666 76.57161 
L 215.22452 104.003154 
L 215.361374 178.526502 
L 215.635082 135.936522 
L 215.771936 161.589969 
L 216.045645 114.028842 
L 216.182499 121.11735 
L 216.319353 171.626663 
L 216.456207 176.230225 
L 216.729915 94.865232 
L 216.86677 176.802704 
L 217.003624 185.448634 
L 217.140478 186.923093 
L 217.414186 124.540174 
L 217.55104 121.717046 
L 217.687894 165.823371 
L 217.824749 43.624858 
L 217.961603 155.964515 
L 218.098457 102.653485 
L 218.235311 172.759966 
L 218.372165 164.7886 
L 218.509019 120.390516 
L 218.645874 176.853783 
L 218.782728 175.704778 
L 218.919582 83.956819 
L 219.056436 106.188098 
L 219.19329 77.613192 
L 219.330144 168.613895 
L 219.466998 184.926331 
L 219.603853 88.232623 
L 219.740707 164.237296 
L 219.877561 112.164955 
L 220.151269 137.103756 
L 220.288123 196.315813 
L 220.424978 171.498775 
L 220.561832 166.999841 
L 220.698686 127.855139 
L 220.83554 182.849458 
L 221.246102 120.441894 
L 221.382957 171.959256 
L 221.519811 177.870452 
L 221.656665 155.079431 
L 221.793519 105.922048 
L 221.930373 149.793915 
L 222.067227 127.589712 
L 222.340936 163.267277 
L 222.47779 128.466825 
L 222.614644 163.827547 
L 222.751498 141.397329 
L 222.888352 189.822354 
L 223.025206 169.368649 
L 223.162061 129.986954 
L 223.435769 154.539182 
L 223.572623 137.188686 
L 223.709477 50.788812 
L 223.846331 174.759267 
L 223.983185 98.81122 
L 224.12004 166.844373 
L 224.256894 71.401604 
L 224.393748 180.535947 
L 224.667456 116.553341 
L 224.941165 171.34317 
L 225.078019 158.596901 
L 225.214873 112.290917 
L 225.351727 141.756687 
L 225.488581 195.575535 
L 225.762289 91.770937 
L 225.899144 126.757909 
L 226.035998 74.349897 
L 226.172852 184.186129 
L 226.309706 57.723786 
L 226.583414 191.294229 
L 226.857123 167.361105 
L 226.993977 45.539882 
L 227.267685 168.820862 
L 227.404539 135.464732 
L 227.541393 155.123884 
L 227.678248 153.177739 
L 227.815102 135.203887 
L 227.951956 134.778289 
L 228.08881 171.659666 
L 228.225664 77.435607 
L 228.362518 161.18968 
L 228.499373 162.070175 
L 228.773081 192.704078 
L 228.909935 91.12572 
L 229.046789 165.136572 
L 229.183643 133.200292 
L 229.320497 134.706914 
L 229.457352 111.135344 
L 229.594206 140.756955 
L 229.73106 143.633018 
L 229.867914 173.136699 
L 230.278477 100.930897 
L 230.552185 181.587142 
L 230.825893 69.586211 
L 230.962747 172.718431 
L 231.099601 122.224749 
L 231.37331 174.383451 
L 231.510164 111.626273 
L 231.647018 155.088653 
L 231.783872 113.204288 
L 231.920726 154.609274 
L 232.194435 140.558474 
L 232.331289 159.939688 
L 232.468143 99.768604 
L 232.741851 170.842359 
L 232.878705 179.125577 
L 233.01556 155.144014 
L 233.289268 94.777034 
L 233.426122 122.328301 
L 233.562976 126.232676 
L 233.69983 159.104407 
L 233.836685 76.00925 
L 234.110393 186.16581 
L 234.247247 150.706817 
L 234.384101 149.989457 
L 234.520955 122.115569 
L 234.657809 171.013935 
L 234.931518 133.000741 
L 235.068372 139.851096 
L 235.205226 113.649112 
L 235.34208 169.681945 
L 235.478934 170.458768 
L 235.615789 138.799379 
L 235.752643 143.138504 
L 235.889497 172.623294 
L 236.026351 161.012409 
L 236.163205 99.992082 
L 236.300059 116.064763 
L 236.573768 171.951227 
L 236.847476 75.316063 
L 236.98433 174.521988 
L 237.121184 114.015667 
L 237.258038 113.048385 
L 237.394892 168.414155 
L 237.531747 88.727739 
L 237.668601 160.619832 
L 237.805455 159.820931 
L 238.079163 106.781455 
L 238.216017 172.819767 
L 238.352872 179.054408 
L 238.489726 164.961967 
L 238.62658 118.471681 
L 238.763434 150.5726 
L 238.900288 107.524877 
L 239.037142 153.837586 
L 239.173996 118.787165 
L 239.310851 129.950578 
L 239.447705 124.312948 
L 239.584559 179.361435 
L 239.721413 97.894031 
L 239.995121 190.973509 
L 240.131976 167.966128 
L 240.26883 184.000196 
L 240.542538 153.95032 
L 240.679392 173.671683 
L 240.816246 127.96982 
L 240.9531 130.711159 
L 241.089955 179.652025 
L 241.226809 121.211237 
L 241.363663 113.032331 
L 241.637371 170.628605 
L 241.774225 144.614804 
L 241.91108 170.604885 
L 242.047934 83.761376 
L 242.184788 173.425209 
L 242.321642 180.562714 
L 242.458496 135.001061 
L 242.732204 182.974906 
L 242.869059 95.367336 
L 243.005913 120.650145 
L 243.142767 171.983349 
L 243.279621 153.149755 
L 243.416475 151.959056 
L 243.553329 142.319054 
L 243.690184 140.930721 
L 243.827038 89.948336 
L 243.963892 175.685884 
L 244.100746 166.894584 
L 244.2376 179.129958 
L 244.374454 167.005534 
L 244.511308 179.502193 
L 244.648163 134.706913 
L 244.785017 170.117142 
L 245.058725 150.219773 
L 245.195579 83.782638 
L 245.332433 135.952069 
L 245.469288 101.908474 
L 245.606142 157.589603 
L 245.742996 124.480751 
L 245.87985 125.478364 
L 246.016704 119.176636 
L 246.153558 167.77453 
L 246.290412 169.403727 
L 246.427267 82.511228 
L 246.564121 103.247732 
L 246.700975 166.75822 
L 246.837829 175.897085 
L 246.974683 120.602447 
L 247.111537 179.965843 
L 247.248392 177.83596 
L 247.385246 166.496477 
L 247.5221 143.262502 
L 247.658954 142.634917 
L 247.795808 172.504008 
L 247.932662 90.001677 
L 248.069516 188.832764 
L 248.206371 137.280104 
L 248.343225 184.58648 
L 248.480079 85.379126 
L 248.616933 164.136988 
L 248.753787 113.774586 
L 248.890641 172.431312 
L 249.16435 177.623941 
L 249.438058 113.967183 
L 249.574912 174.53026 
L 249.711766 179.425185 
L 249.84862 126.883454 
L 249.985475 135.129451 
L 250.122329 116.445499 
L 250.259183 75.990787 
L 250.532891 160.685448 
L 250.669745 100.643612 
L 250.806599 166.328677 
L 250.943454 158.576061 
L 251.080308 196.513889 
L 251.354016 108.126414 
L 251.49087 175.220234 
L 251.627724 160.06212 
L 251.764579 186.045583 
L 251.901433 184.825861 
L 252.175141 107.675031 
L 252.311995 59.374092 
L 252.448849 166.403112 
L 252.585703 127.857791 
L 252.859412 177.197306 
L 252.996266 107.947072 
L 253.269974 173.890119 
L 253.406828 101.612796 
L 253.543683 173.912717 
L 253.680537 102.880024 
L 253.817391 180.638631 
L 254.091099 115.953656 
L 254.364807 173.690117 
L 254.501662 176.264039 
L 254.638516 130.300589 
L 254.77537 122.590396 
L 254.912224 50.124353 
L 255.185932 167.079572 
L 255.322787 124.562799 
L 255.459641 167.922026 
L 255.596495 171.798812 
L 255.733349 182.293807 
L 255.870203 182.992189 
L 256.007057 180.952003 
L 256.143911 173.641983 
L 256.280766 116.123699 
L 256.41762 124.712795 
L 256.554474 186.328443 
L 256.691328 169.142905 
L 256.828182 133.909256 
L 257.101891 173.475264 
L 257.238745 159.96698 
L 257.375599 187.485998 
L 257.512453 179.538523 
L 257.649307 116.101209 
L 257.786161 155.860537 
L 257.923015 158.798541 
L 258.05987 139.224904 
L 258.333578 184.426546 
L 258.470432 50.426238 
L 258.607286 177.40069 
L 258.74414 183.35368 
L 258.880995 70.925267 
L 259.017849 167.034952 
L 259.154703 131.282215 
L 259.291557 177.094734 
L 259.428411 103.938245 
L 259.565265 177.54874 
L 259.838974 157.418702 
L 259.975828 124.852602 
L 260.249536 183.195238 
L 260.523244 108.41598 
L 260.660099 105.980998 
L 260.796953 165.711985 
L 260.933807 124.752266 
L 261.070661 124.509171 
L 261.207515 98.264266 
L 261.344369 108.893886 
L 261.481223 184.448871 
L 261.618078 110.690515 
L 261.754932 101.143385 
L 261.891786 144.736617 
L 262.02864 96.64736 
L 262.302348 188.063349 
L 262.439203 123.840375 
L 262.576057 122.748393 
L 262.712911 181.468496 
L 262.849765 112.115312 
L 262.986619 179.753548 
L 263.123473 94.097867 
L 263.260327 171.76075 
L 263.397182 131.805975 
L 263.534036 43.822626 
L 263.67089 187.822717 
L 263.807744 137.539022 
L 263.944598 183.937155 
L 264.492015 94.053185 
L 264.628869 162.147595 
L 264.765723 99.76533 
L 265.039431 181.259904 
L 265.176286 168.756013 
L 265.449994 82.18991 
L 265.586848 175.381078 
L 265.723702 74.601987 
L 265.860556 167.234499 
L 265.99741 87.928854 
L 266.134265 163.577614 
L 266.271119 171.003018 
L 266.407973 163.968826 
L 266.681681 79.181465 
L 266.818535 175.429185 
L 267.365952 43.466616 
L 267.502806 166.576717 
L 267.63966 130.671195 
L 267.776514 130.130516 
L 267.913369 154.077288 
L 268.050223 155.108783 
L 268.187077 70.330269 
L 268.323931 155.678194 
L 268.460785 160.171465 
L 268.597639 204.353314 
L 269.008202 82.780511 
L 269.145056 168.724086 
L 269.418764 158.957897 
L 269.555618 151.05238 
L 269.692473 171.059614 
L 269.829327 114.959373 
L 270.103035 198.323463 
L 270.376743 133.920375 
L 270.513598 191.071628 
L 270.650452 186.611218 
L 270.787306 126.90319 
L 270.92416 125.733672 
L 271.061014 143.975224 
L 271.197868 194.528387 
L 271.471577 159.966982 
L 271.608431 163.571219 
L 271.882139 106.005953 
L 272.155847 174.095753 
L 272.292702 173.849058 
L 272.56641 142.914168 
L 272.703264 158.063472 
L 272.840118 119.24932 
L 272.976972 168.824734 
L 273.113826 168.237948 
L 273.250681 118.631806 
L 273.387535 152.229567 
L 273.524389 144.016844 
L 273.798097 150.916919 
L 273.934951 137.876737 
L 274.071806 162.251219 
L 274.20866 152.156172 
L 274.345514 129.84826 
L 274.482368 149.632964 
L 274.619222 136.131702 
L 274.756076 143.000408 
L 274.89293 197.112015 
L 275.166639 62.853417 
L 275.303493 178.935208 
L 275.440347 172.520174 
L 275.577201 189.781784 
L 275.714055 171.670668 
L 275.850909 66.357357 
L 275.987764 131.711018 
L 276.124618 127.790885 
L 276.261472 153.364783 
L 276.398326 111.382664 
L 276.53518 117.090724 
L 276.672034 164.069873 
L 276.808889 87.648373 
L 276.945743 146.152295 
L 277.082597 144.505302 
L 277.219451 147.247595 
L 277.356305 97.745528 
L 277.630013 197.77499 
L 277.766868 157.782324 
L 277.903722 186.542233 
L 278.040576 98.204385 
L 278.17743 162.65235 
L 278.314284 97.060234 
L 278.587993 134.279551 
L 278.724847 157.501102 
L 278.998555 58.89542 
L 279.135409 196.04153 
L 279.272263 137.899719 
L 279.409117 156.993147 
L 279.682826 69.931751 
L 279.81968 107.547218 
L 279.956534 85.113256 
L 280.093388 171.364101 
L 280.230242 118.638608 
L 280.367097 115.782607 
L 280.503951 188.821517 
L 280.640805 159.027632 
L 280.777659 160.218239 
L 280.914513 111.453227 
L 281.051367 140.419006 
L 281.188221 63.316619 
L 281.325076 118.480942 
L 281.46193 98.971555 
L 281.735638 165.913337 
L 282.009346 57.309587 
L 282.146201 165.699823 
L 282.419909 179.22422 
L 282.556763 123.15317 
L 282.830471 179.016113 
L 282.967325 82.052259 
L 283.241034 162.119684 
L 283.377888 177.691682 
L 283.78845 100.005722 
L 283.925305 127.133607 
L 284.062159 122.646432 
L 284.199013 143.449115 
L 284.335867 147.277979 
L 284.472721 168.67574 
L 284.609575 138.344373 
L 284.883284 170.885966 
L 285.156992 140.010365 
L 285.293846 176.81866 
L 285.4307 110.265129 
L 285.567554 124.606742 
L 285.704409 177.945958 
L 285.841263 124.76715 
L 285.978117 184.041083 
L 286.114971 180.757112 
L 286.388679 134.641879 
L 286.525533 136.249944 
L 286.662388 175.591495 
L 286.799242 175.578915 
L 287.07295 101.108772 
L 287.209804 82.861659 
L 287.346658 172.512092 
L 287.757221 80.655232 
L 287.894075 175.501402 
L 288.030929 174.908826 
L 288.167783 78.243369 
L 288.441492 180.29539 
L 288.578346 172.295162 
L 288.7152 144.628506 
L 288.852054 164.690472 
L 288.988908 37.237434 
L 289.125762 117.94068 
L 289.262616 90.395055 
L 289.399471 105.364226 
L 289.673179 178.951602 
L 289.946887 114.187606 
L 290.083741 121.817668 
L 290.35745 148.227255 
L 290.494304 122.198715 
L 290.631158 50.339944 
L 290.904866 171.231628 
L 291.178575 104.67346 
L 291.315429 145.804968 
L 291.452283 127.518983 
L 291.725991 169.67901 
L 291.9997 98.821514 
L 292.136554 170.696826 
L 292.273408 152.82189 
L 292.410262 155.58209 
L 292.547116 131.734232 
L 292.68397 204.092457 
L 292.957679 128.011596 
L 293.094533 164.954537 
L 293.231387 118.961298 
L 293.368241 165.971482 
L 293.505095 161.706431 
L 293.641949 150.106154 
L 293.778804 125.081399 
L 293.915658 181.893085 
L 294.052512 178.256279 
L 294.189366 99.308467 
L 294.463074 157.257508 
L 294.599928 147.653412 
L 294.736783 107.963164 
L 294.873637 138.498732 
L 295.147345 98.976983 
L 295.284199 160.059475 
L 295.421053 160.044497 
L 295.557908 160.847904 
L 295.694762 163.329263 
L 295.831616 169.163319 
L 296.105324 114.402368 
L 296.242178 108.416563 
L 296.379032 79.342457 
L 296.652741 161.633847 
L 296.789595 150.929 
L 296.926449 54.41727 
L 297.200157 159.550533 
L 297.337012 154.826517 
L 297.473866 142.749389 
L 297.61072 176.145758 
L 297.747574 128.717372 
L 297.884428 122.753495 
L 298.021282 96.891644 
L 298.158136 148.419194 
L 298.294991 153.891451 
L 298.431845 116.203319 
L 298.705553 176.823979 
L 298.842407 115.569394 
L 299.116116 93.442461 
L 299.25297 163.804635 
L 299.526678 177.134253 
L 299.663532 131.653672 
L 299.800386 168.966218 
L 299.93724 168.777298 
L 300.074095 97.052737 
L 300.210949 166.562548 
L 300.347803 164.250184 
L 300.621511 123.926529 
L 300.758365 153.910517 
L 300.89522 112.471473 
L 301.032074 154.575886 
L 301.168928 128.906943 
L 301.305782 153.377979 
L 301.442636 141.045726 
L 301.57949 105.424653 
L 301.716344 110.050554 
L 301.853199 145.142547 
L 301.990053 144.854739 
L 302.263761 151.62595 
L 302.400615 158.742879 
L 302.537469 148.4822 
L 302.674323 151.22275 
L 302.811178 133.10289 
L 302.948032 146.874299 
L 303.084886 146.073644 
L 303.358594 157.759936 
L 303.495448 97.642298 
L 303.632303 151.867953 
L 303.769157 154.060686 
L 303.906011 151.531086 
L 304.042865 162.609819 
L 304.179719 111.514998 
L 304.316573 140.760642 
L 304.453427 111.175853 
L 304.590282 117.034452 
L 304.727136 112.34773 
L 304.86399 179.855198 
L 305.000844 165.93678 
L 305.137698 74.681404 
L 305.274552 181.866974 
L 305.548261 129.211913 
L 305.685115 168.53568 
L 305.821969 170.934553 
L 305.958823 98.817717 
L 306.095677 168.408371 
L 306.232531 90.271699 
L 306.369386 163.814712 
L 306.50624 174.519914 
L 306.643094 172.974021 
L 306.779948 154.627634 
L 307.053656 168.89351 
L 307.190511 114.607834 
L 307.327365 156.489425 
L 307.464219 118.074317 
L 307.601073 111.257476 
L 307.737927 137.601325 
L 307.874781 102.055428 
L 308.011635 104.92326 
L 308.285344 127.812742 
L 308.422198 163.945872 
L 308.559052 147.063125 
L 308.695906 159.770834 
L 308.83276 101.834505 
L 309.106469 182.067001 
L 309.243323 160.879889 
L 309.380177 117.230288 
L 309.517031 118.777874 
L 309.653885 179.92378 
L 309.790739 128.315131 
L 309.927594 170.732445 
L 310.064448 157.946084 
L 310.201302 80.509544 
L 310.338156 158.451141 
L 310.47501 173.029905 
L 310.611864 145.106628 
L 310.748719 145.4702 
L 311.022427 162.097182 
L 311.296135 99.252003 
L 311.432989 121.111047 
L 311.569843 104.153232 
L 311.706698 101.323167 
L 311.843552 86.774493 
L 311.980406 108.531855 
L 312.254114 163.11249 
L 312.390968 170.778965 
L 312.527823 155.608213 
L 312.801531 65.974293 
L 313.075239 172.745782 
L 313.212093 128.512095 
L 313.348947 134.469314 
L 313.622656 164.451149 
L 313.896364 104.18293 
L 314.033218 173.385393 
L 314.170072 163.638894 
L 314.306927 90.165378 
L 314.443781 145.545353 
L 314.580635 128.380971 
L 314.717489 191.681669 
L 314.854343 173.5816 
L 314.991197 176.336991 
L 315.128051 168.499982 
L 315.264906 84.386611 
L 315.538614 163.39768 
L 315.675468 107.089008 
L 315.812322 161.988326 
L 315.949176 164.075387 
L 316.08603 126.525524 
L 316.222885 171.313283 
L 316.359739 130.168975 
L 316.496593 138.038397 
L 316.633447 130.060396 
L 316.770301 149.030323 
L 316.907155 85.042982 
L 317.04401 166.998891 
L 317.180864 165.756895 
L 317.317718 146.266514 
L 317.454572 147.533073 
L 317.591426 134.71252 
L 317.72828 179.150773 
L 318.001989 123.455956 
L 318.138843 110.033081 
L 318.275697 119.668752 
L 318.412551 149.813052 
L 318.549405 122.198717 
L 318.686259 173.063456 
L 318.959968 110.504547 
L 319.37053 167.766871 
L 319.507384 149.307805 
L 319.644238 88.250384 
L 319.781093 145.332291 
L 319.917947 130.846727 
L 320.054801 134.436499 
L 320.191655 163.599562 
L 320.328509 148.29958 
L 320.602218 169.888488 
L 320.739072 111.831943 
L 320.875926 139.398591 
L 321.01278 136.672898 
L 321.149634 103.837572 
L 321.423342 173.232423 
L 321.560197 96.152979 
L 321.833905 166.640958 
L 321.970759 158.923043 
L 322.107613 171.077496 
L 322.244467 196.499818 
L 322.381322 79.601641 
L 322.518176 105.044935 
L 322.65503 153.921297 
L 322.928738 113.655685 
L 323.202446 149.449196 
L 323.339301 150.489098 
L 323.476155 113.312094 
L 323.613009 178.189138 
L 323.749863 99.75553 
L 323.886717 102.786708 
L 324.023571 147.571345 
L 324.160426 124.140206 
L 324.29728 140.219632 
L 324.434134 132.550338 
L 324.707842 169.506126 
L 324.844696 109.065109 
L 325.118405 175.29644 
L 325.255259 87.548243 
L 325.392113 101.18571 
L 325.528967 167.90094 
L 325.665821 104.779745 
L 325.802675 102.087481 
L 325.93953 112.981798 
L 326.076384 102.282191 
L 326.350092 168.312047 
L 326.486946 141.081869 
L 326.6238 168.120664 
L 326.760654 162.250317 
L 326.897509 168.908047 
L 327.034363 102.277215 
L 327.308071 172.313305 
L 327.444925 116.713735 
L 327.581779 173.196768 
L 327.718634 100.979184 
L 327.992342 162.221474 
L 328.129196 180.561604 
L 328.26605 80.717924 
L 328.402904 142.419771 
L 328.676613 124.632598 
L 328.813467 132.684458 
L 328.950321 171.014928 
L 329.087175 164.322043 
L 329.360883 147.966613 
L 329.497737 184.780992 
L 329.634592 169.748454 
L 329.771446 168.839257 
L 329.9083 169.149707 
L 330.182008 95.163456 
L 330.318862 112.940782 
L 330.455717 157.891757 
L 330.592571 157.656666 
L 330.729425 133.271491 
L 330.866279 129.995712 
L 331.003133 70.846522 
L 331.139987 92.011144 
L 331.276841 181.424474 
L 331.687404 74.602471 
L 331.824258 161.497789 
L 331.961112 155.555126 
L 332.097966 90.421283 
L 332.234821 160.517948 
L 332.371675 86.838415 
L 332.645383 192.925652 
L 332.782237 82.758879 
L 332.919091 99.654257 
L 333.055945 99.051782 
L 333.1928 163.526433 
L 333.329654 92.780269 
L 333.466508 110.197455 
L 333.603362 173.396615 
L 333.87707 115.113734 
L 334.150779 186.572482 
L 334.424487 100.598162 
L 334.561341 167.601482 
L 334.698195 48.652771 
L 334.835049 171.603672 
L 334.971904 143.759803 
L 335.108758 78.210297 
L 335.245612 101.682804 
L 335.382466 175.314191 
L 335.656174 28.435386 
L 335.793029 162.053985 
L 336.066737 112.154904 
L 336.203591 171.449872 
L 336.340445 85.369136 
L 336.751008 183.683208 
L 337.024716 96.831734 
L 337.298424 151.673015 
L 337.435278 140.237213 
L 337.572133 79.262431 
L 337.708987 157.57413 
L 337.845841 125.77605 
L 337.982695 124.896642 
L 338.119549 98.49536 
L 338.393257 173.039054 
L 338.530112 167.77453 
L 338.666966 139.859858 
L 338.80382 138.547831 
L 338.940674 65.648863 
L 339.214382 150.542079 
L 339.351237 174.510601 
L 339.488091 143.941183 
L 339.624945 164.127791 
L 339.761799 165.033436 
L 339.898653 97.392581 
L 340.035507 109.223198 
L 340.44607 174.142089 
L 340.719778 101.223088 
L 340.993486 167.479303 
L 341.130341 137.375158 
L 341.267195 169.061315 
L 341.404049 173.618442 
L 341.540903 134.112366 
L 341.677757 167.003635 
L 341.951465 107.174139 
L 342.08832 164.757114 
L 342.225174 87.421903 
L 342.498882 150.703596 
L 342.635736 112.071594 
L 342.77259 142.184907 
L 342.909444 100.912784 
L 343.046299 99.416582 
L 343.183153 158.100614 
L 343.320007 153.814393 
L 343.456861 154.870023 
L 343.593715 157.543194 
L 343.730569 170.365108 
L 343.867424 124.256211 
L 344.004278 147.862377 
L 344.141132 137.002483 
L 344.277986 171.810834 
L 344.41484 161.930806 
L 344.551694 164.496379 
L 344.688548 113.827196 
L 344.825403 120.378606 
L 344.962257 153.90555 
L 345.235965 139.039856 
L 345.509673 166.265591 
L 345.783382 123.936819 
L 345.920236 128.355034 
L 346.193944 143.816456 
L 346.467652 152.862097 
L 346.604507 113.695107 
L 346.741361 128.732714 
L 346.878215 171.912096 
L 347.015069 142.21993 
L 347.288777 166.210083 
L 347.425632 154.319215 
L 347.562486 109.995802 
L 347.69934 127.91612 
L 347.836194 168.50866 
L 348.109902 89.428156 
L 348.246756 125.600093 
L 348.383611 128.644691 
L 348.520465 152.311995 
L 348.794173 139.387686 
L 348.931027 147.721459 
L 349.067881 190.073921 
L 349.204736 153.659626 
L 349.34159 157.494237 
L 349.478444 130.741651 
L 349.615298 136.227279 
L 349.752152 132.564086 
L 349.889006 175.275549 
L 350.02586 176.429074 
L 350.162715 163.001555 
L 350.299569 118.675733 
L 350.436423 175.497212 
L 350.573277 148.918738 
L 350.710131 88.636125 
L 350.846985 130.064447 
L 350.98384 20.583636 
L 351.120694 161.605183 
L 351.257548 185.863219 
L 351.394402 133.407086 
L 351.531256 139.905868 
L 351.66811 166.311724 
L 351.804964 155.582085 
L 351.941819 187.033854 
L 352.078673 178.736585 
L 352.489235 125.200821 
L 352.626089 49.056802 
L 352.762944 133.114637 
L 353.036652 45.344164 
L 353.173506 138.62295 
L 353.584068 187.553458 
L 353.720923 155.710241 
L 353.857777 171.770761 
L 354.131485 124.881747 
L 354.268339 138.601996 
L 354.405193 137.303673 
L 354.542047 103.146953 
L 354.678902 166.978025 
L 354.815756 141.185207 
L 354.95261 142.102262 
L 355.089464 147.508864 
L 355.226318 177.325697 
L 355.363172 129.230662 
L 355.500027 126.655444 
L 355.636881 152.433712 
L 355.773735 155.044221 
L 355.910589 136.798083 
L 356.047443 157.223246 
L 356.047443 157.223246 
" style="fill:none;stroke:#1f77b4;stroke-linecap:square;stroke-width:1.5;"/>
   </g>
   <g id="patch_3">
    <path d="M 36.465625 228.14 
L 36.465625 10.7 
" style="fill:none;stroke:#000000;stroke-linecap:square;stroke-linejoin:miter;stroke-width:0.8;"/>
   </g>
   <g id="patch_4">
    <path d="M 371.265625 228.14 
L 371.265625 10.7 
" style="fill:none;stroke:#000000;stroke-linecap:square;stroke-linejoin:miter;stroke-width:0.8;"/>
   </g>
   <g id="patch_5">
    <path d="M 36.465625 228.14 
L 371.265625 228.14 
" style="fill:none;stroke:#000000;stroke-linecap:square;stroke-linejoin:miter;stroke-width:0.8;"/>
   </g>
   <g id="patch_6">
    <path d="M 36.465625 10.7 
L 371.265625 10.7 
" style="fill:none;stroke:#000000;stroke-linecap:square;stroke-linejoin:miter;stroke-width:0.8;"/>
   </g>
  </g>
 </g>
 <defs>
  <clipPath id="p18e54026aa">
   <rect height="217.44" width="334.8" x="36.465625" y="10.7"/>
  </clipPath>
 </defs>
</svg>
