<?xml version="1.0" encoding="utf-8" standalone="no"?>
<!DOCTYPE svg PUBLIC "-//W3C//DTD SVG 1.1//EN"
  "http://www.w3.org/Graphics/SVG/1.1/DTD/svg11.dtd">
<!-- Created with matplotlib (http://matplotlib.org/) -->
<svg height="300.690125pt" version="1.1" viewBox="0 0 394.745 300.690125" width="394.745pt" xmlns="http://www.w3.org/2000/svg" xmlns:xlink="http://www.w3.org/1999/xlink">
 <defs>
  <style type="text/css">
*{stroke-linecap:butt;stroke-linejoin:round;}
  </style>
 </defs>
 <g id="figure_1">
  <g id="patch_1">
   <path d="M 0 300.690125 
L 394.745 300.690125 
L 394.745 0 
L 0 0 
z
" style="fill:#ffffff;"/>
  </g>
  <g id="axes_1">
   <g id="patch_2">
    <path d="M 26.925 276.812 
L 384.045 276.812 
L 384.045 10.7 
L 26.925 10.7 
z
" style="fill:#ffffff;"/>
   </g>
   <g id="matplotlib.axis_1">
    <g id="xtick_1">
     <g id="line2d_1">
      <defs>
       <path d="M 0 0 
L 0 3.5 
" id="m47ca80d6e6" style="stroke:#000000;stroke-width:0.8;"/>
      </defs>
      <g>
       <use style="stroke:#000000;stroke-width:0.8;" x="43.157727" xlink:href="#m47ca80d6e6" y="276.812"/>
      </g>
     </g>
     <g id="text_1">
      <!-- 0 -->
      <defs>
       <path d="M 31.78125 66.40625 
Q 24.171875 66.40625 20.328125 58.90625 
Q 16.5 51.421875 16.5 36.375 
Q 16.5 21.390625 20.328125 13.890625 
Q 24.171875 6.390625 31.78125 6.390625 
Q 39.453125 6.390625 43.28125 13.890625 
Q 47.125 21.390625 47.125 36.375 
Q 47.125 51.421875 43.28125 58.90625 
Q 39.453125 66.40625 31.78125 66.40625 
z
M 31.78125 74.21875 
Q 44.046875 74.21875 50.515625 64.515625 
Q 56.984375 54.828125 56.984375 36.375 
Q 56.984375 17.96875 50.515625 8.265625 
Q 44.046875 -1.421875 31.78125 -1.421875 
Q 19.53125 -1.421875 13.0625 8.265625 
Q 6.59375 17.96875 6.59375 36.375 
Q 6.59375 54.828125 13.0625 64.515625 
Q 19.53125 74.21875 31.78125 74.21875 
z
" id="DejaVuSans-30"/>
      </defs>
      <g transform="translate(39.976477 291.410437)scale(0.1 -0.1)">
       <use xlink:href="#DejaVuSans-30"/>
      </g>
     </g>
    </g>
    <g id="xtick_2">
     <g id="line2d_2">
      <g>
       <use style="stroke:#000000;stroke-width:0.8;" x="88.729674" xlink:href="#m47ca80d6e6" y="276.812"/>
      </g>
     </g>
     <g id="text_2">
      <!-- 500 -->
      <defs>
       <path d="M 10.796875 72.90625 
L 49.515625 72.90625 
L 49.515625 64.59375 
L 19.828125 64.59375 
L 19.828125 46.734375 
Q 21.96875 47.46875 24.109375 47.828125 
Q 26.265625 48.1875 28.421875 48.1875 
Q 40.625 48.1875 47.75 41.5 
Q 54.890625 34.8125 54.890625 23.390625 
Q 54.890625 11.625 47.5625 5.09375 
Q 40.234375 -1.421875 26.90625 -1.421875 
Q 22.3125 -1.421875 17.546875 -0.640625 
Q 12.796875 0.140625 7.71875 1.703125 
L 7.71875 11.625 
Q 12.109375 9.234375 16.796875 8.0625 
Q 21.484375 6.890625 26.703125 6.890625 
Q 35.15625 6.890625 40.078125 11.328125 
Q 45.015625 15.765625 45.015625 23.390625 
Q 45.015625 31 40.078125 35.4375 
Q 35.15625 39.890625 26.703125 39.890625 
Q 22.75 39.890625 18.8125 39.015625 
Q 14.890625 38.140625 10.796875 36.28125 
z
" id="DejaVuSans-35"/>
      </defs>
      <g transform="translate(79.185924 291.410437)scale(0.1 -0.1)">
       <use xlink:href="#DejaVuSans-35"/>
       <use x="63.623047" xlink:href="#DejaVuSans-30"/>
       <use x="127.246094" xlink:href="#DejaVuSans-30"/>
      </g>
     </g>
    </g>
    <g id="xtick_3">
     <g id="line2d_3">
      <g>
       <use style="stroke:#000000;stroke-width:0.8;" x="134.30162" xlink:href="#m47ca80d6e6" y="276.812"/>
      </g>
     </g>
     <g id="text_3">
      <!-- 1000 -->
      <defs>
       <path d="M 12.40625 8.296875 
L 28.515625 8.296875 
L 28.515625 63.921875 
L 10.984375 60.40625 
L 10.984375 69.390625 
L 28.421875 72.90625 
L 38.28125 72.90625 
L 38.28125 8.296875 
L 54.390625 8.296875 
L 54.390625 0 
L 12.40625 0 
z
" id="DejaVuSans-31"/>
      </defs>
      <g transform="translate(121.57662 291.410437)scale(0.1 -0.1)">
       <use xlink:href="#DejaVuSans-31"/>
       <use x="63.623047" xlink:href="#DejaVuSans-30"/>
       <use x="127.246094" xlink:href="#DejaVuSans-30"/>
       <use x="190.869141" xlink:href="#DejaVuSans-30"/>
      </g>
     </g>
    </g>
    <g id="xtick_4">
     <g id="line2d_4">
      <g>
       <use style="stroke:#000000;stroke-width:0.8;" x="179.873566" xlink:href="#m47ca80d6e6" y="276.812"/>
      </g>
     </g>
     <g id="text_4">
      <!-- 1500 -->
      <g transform="translate(167.148566 291.410437)scale(0.1 -0.1)">
       <use xlink:href="#DejaVuSans-31"/>
       <use x="63.623047" xlink:href="#DejaVuSans-35"/>
       <use x="127.246094" xlink:href="#DejaVuSans-30"/>
       <use x="190.869141" xlink:href="#DejaVuSans-30"/>
      </g>
     </g>
    </g>
    <g id="xtick_5">
     <g id="line2d_5">
      <g>
       <use style="stroke:#000000;stroke-width:0.8;" x="225.445512" xlink:href="#m47ca80d6e6" y="276.812"/>
      </g>
     </g>
     <g id="text_5">
      <!-- 2000 -->
      <defs>
       <path d="M 19.1875 8.296875 
L 53.609375 8.296875 
L 53.609375 0 
L 7.328125 0 
L 7.328125 8.296875 
Q 12.9375 14.109375 22.625 23.890625 
Q 32.328125 33.6875 34.8125 36.53125 
Q 39.546875 41.84375 41.421875 45.53125 
Q 43.3125 49.21875 43.3125 52.78125 
Q 43.3125 58.59375 39.234375 62.25 
Q 35.15625 65.921875 28.609375 65.921875 
Q 23.96875 65.921875 18.8125 64.3125 
Q 13.671875 62.703125 7.8125 59.421875 
L 7.8125 69.390625 
Q 13.765625 71.78125 18.9375 73 
Q 24.125 74.21875 28.421875 74.21875 
Q 39.75 74.21875 46.484375 68.546875 
Q 53.21875 62.890625 53.21875 53.421875 
Q 53.21875 48.921875 51.53125 44.890625 
Q 49.859375 40.875 45.40625 35.40625 
Q 44.1875 33.984375 37.640625 27.21875 
Q 31.109375 20.453125 19.1875 8.296875 
z
" id="DejaVuSans-32"/>
      </defs>
      <g transform="translate(212.720512 291.410437)scale(0.1 -0.1)">
       <use xlink:href="#DejaVuSans-32"/>
       <use x="63.623047" xlink:href="#DejaVuSans-30"/>
       <use x="127.246094" xlink:href="#DejaVuSans-30"/>
       <use x="190.869141" xlink:href="#DejaVuSans-30"/>
      </g>
     </g>
    </g>
    <g id="xtick_6">
     <g id="line2d_6">
      <g>
       <use style="stroke:#000000;stroke-width:0.8;" x="271.017459" xlink:href="#m47ca80d6e6" y="276.812"/>
      </g>
     </g>
     <g id="text_6">
      <!-- 2500 -->
      <g transform="translate(258.292459 291.410437)scale(0.1 -0.1)">
       <use xlink:href="#DejaVuSans-32"/>
       <use x="63.623047" xlink:href="#DejaVuSans-35"/>
       <use x="127.246094" xlink:href="#DejaVuSans-30"/>
       <use x="190.869141" xlink:href="#DejaVuSans-30"/>
      </g>
     </g>
    </g>
    <g id="xtick_7">
     <g id="line2d_7">
      <g>
       <use style="stroke:#000000;stroke-width:0.8;" x="316.589405" xlink:href="#m47ca80d6e6" y="276.812"/>
      </g>
     </g>
     <g id="text_7">
      <!-- 3000 -->
      <defs>
       <path d="M 40.578125 39.3125 
Q 47.65625 37.796875 51.625 33 
Q 55.609375 28.21875 55.609375 21.1875 
Q 55.609375 10.40625 48.1875 4.484375 
Q 40.765625 -1.421875 27.09375 -1.421875 
Q 22.515625 -1.421875 17.65625 -0.515625 
Q 12.796875 0.390625 7.625 2.203125 
L 7.625 11.71875 
Q 11.71875 9.328125 16.59375 8.109375 
Q 21.484375 6.890625 26.8125 6.890625 
Q 36.078125 6.890625 40.9375 10.546875 
Q 45.796875 14.203125 45.796875 21.1875 
Q 45.796875 27.640625 41.28125 31.265625 
Q 36.765625 34.90625 28.71875 34.90625 
L 20.21875 34.90625 
L 20.21875 43.015625 
L 29.109375 43.015625 
Q 36.375 43.015625 40.234375 45.921875 
Q 44.09375 48.828125 44.09375 54.296875 
Q 44.09375 59.90625 40.109375 62.90625 
Q 36.140625 65.921875 28.71875 65.921875 
Q 24.65625 65.921875 20.015625 65.03125 
Q 15.375 64.15625 9.8125 62.3125 
L 9.8125 71.09375 
Q 15.4375 72.65625 20.34375 73.4375 
Q 25.25 74.21875 29.59375 74.21875 
Q 40.828125 74.21875 47.359375 69.109375 
Q 53.90625 64.015625 53.90625 55.328125 
Q 53.90625 49.265625 50.4375 45.09375 
Q 46.96875 40.921875 40.578125 39.3125 
z
" id="DejaVuSans-33"/>
      </defs>
      <g transform="translate(303.864405 291.410437)scale(0.1 -0.1)">
       <use xlink:href="#DejaVuSans-33"/>
       <use x="63.623047" xlink:href="#DejaVuSans-30"/>
       <use x="127.246094" xlink:href="#DejaVuSans-30"/>
       <use x="190.869141" xlink:href="#DejaVuSans-30"/>
      </g>
     </g>
    </g>
    <g id="xtick_8">
     <g id="line2d_8">
      <g>
       <use style="stroke:#000000;stroke-width:0.8;" x="362.161351" xlink:href="#m47ca80d6e6" y="276.812"/>
      </g>
     </g>
     <g id="text_8">
      <!-- 3500 -->
      <g transform="translate(349.436351 291.410437)scale(0.1 -0.1)">
       <use xlink:href="#DejaVuSans-33"/>
       <use x="63.623047" xlink:href="#DejaVuSans-35"/>
       <use x="127.246094" xlink:href="#DejaVuSans-30"/>
       <use x="190.869141" xlink:href="#DejaVuSans-30"/>
      </g>
     </g>
    </g>
   </g>
   <g id="matplotlib.axis_2">
    <g id="ytick_1">
     <g id="line2d_9">
      <defs>
       <path d="M 0 0 
L -3.5 0 
" id="m68f22dc8bd" style="stroke:#000000;stroke-width:0.8;"/>
      </defs>
      <g>
       <use style="stroke:#000000;stroke-width:0.8;" x="26.925" xlink:href="#m68f22dc8bd" y="251.149449"/>
      </g>
     </g>
     <g id="text_9">
      <!-- 8 -->
      <defs>
       <path d="M 31.78125 34.625 
Q 24.75 34.625 20.71875 30.859375 
Q 16.703125 27.09375 16.703125 20.515625 
Q 16.703125 13.921875 20.71875 10.15625 
Q 24.75 6.390625 31.78125 6.390625 
Q 38.8125 6.390625 42.859375 10.171875 
Q 46.921875 13.96875 46.921875 20.515625 
Q 46.921875 27.09375 42.890625 30.859375 
Q 38.875 34.625 31.78125 34.625 
z
M 21.921875 38.8125 
Q 15.578125 40.375 12.03125 44.71875 
Q 8.5 49.078125 8.5 55.328125 
Q 8.5 64.0625 14.71875 69.140625 
Q 20.953125 74.21875 31.78125 74.21875 
Q 42.671875 74.21875 48.875 69.140625 
Q 55.078125 64.0625 55.078125 55.328125 
Q 55.078125 49.078125 51.53125 44.71875 
Q 48 40.375 41.703125 38.8125 
Q 48.828125 37.15625 52.796875 32.3125 
Q 56.78125 27.484375 56.78125 20.515625 
Q 56.78125 9.90625 50.3125 4.234375 
Q 43.84375 -1.421875 31.78125 -1.421875 
Q 19.734375 -1.421875 13.25 4.234375 
Q 6.78125 9.90625 6.78125 20.515625 
Q 6.78125 27.484375 10.78125 32.3125 
Q 14.796875 37.15625 21.921875 38.8125 
z
M 18.3125 54.390625 
Q 18.3125 48.734375 21.84375 45.5625 
Q 25.390625 42.390625 31.78125 42.390625 
Q 38.140625 42.390625 41.71875 45.5625 
Q 45.3125 48.734375 45.3125 54.390625 
Q 45.3125 60.0625 41.71875 63.234375 
Q 38.140625 66.40625 31.78125 66.40625 
Q 25.390625 66.40625 21.84375 63.234375 
Q 18.3125 60.0625 18.3125 54.390625 
z
" id="DejaVuSans-38"/>
      </defs>
      <g transform="translate(13.5625 254.948667)scale(0.1 -0.1)">
       <use xlink:href="#DejaVuSans-38"/>
      </g>
     </g>
    </g>
    <g id="ytick_2">
     <g id="line2d_10">
      <g>
       <use style="stroke:#000000;stroke-width:0.8;" x="26.925" xlink:href="#m68f22dc8bd" y="216.059796"/>
      </g>
     </g>
     <g id="text_10">
      <!-- 10 -->
      <g transform="translate(7.2 219.859015)scale(0.1 -0.1)">
       <use xlink:href="#DejaVuSans-31"/>
       <use x="63.623047" xlink:href="#DejaVuSans-30"/>
      </g>
     </g>
    </g>
    <g id="ytick_3">
     <g id="line2d_11">
      <g>
       <use style="stroke:#000000;stroke-width:0.8;" x="26.925" xlink:href="#m68f22dc8bd" y="180.970144"/>
      </g>
     </g>
     <g id="text_11">
      <!-- 12 -->
      <g transform="translate(7.2 184.769363)scale(0.1 -0.1)">
       <use xlink:href="#DejaVuSans-31"/>
       <use x="63.623047" xlink:href="#DejaVuSans-32"/>
      </g>
     </g>
    </g>
    <g id="ytick_4">
     <g id="line2d_12">
      <g>
       <use style="stroke:#000000;stroke-width:0.8;" x="26.925" xlink:href="#m68f22dc8bd" y="145.880492"/>
      </g>
     </g>
     <g id="text_12">
      <!-- 14 -->
      <defs>
       <path d="M 37.796875 64.3125 
L 12.890625 25.390625 
L 37.796875 25.390625 
z
M 35.203125 72.90625 
L 47.609375 72.90625 
L 47.609375 25.390625 
L 58.015625 25.390625 
L 58.015625 17.1875 
L 47.609375 17.1875 
L 47.609375 0 
L 37.796875 0 
L 37.796875 17.1875 
L 4.890625 17.1875 
L 4.890625 26.703125 
z
" id="DejaVuSans-34"/>
      </defs>
      <g transform="translate(7.2 149.679711)scale(0.1 -0.1)">
       <use xlink:href="#DejaVuSans-31"/>
       <use x="63.623047" xlink:href="#DejaVuSans-34"/>
      </g>
     </g>
    </g>
    <g id="ytick_5">
     <g id="line2d_13">
      <g>
       <use style="stroke:#000000;stroke-width:0.8;" x="26.925" xlink:href="#m68f22dc8bd" y="110.79084"/>
      </g>
     </g>
     <g id="text_13">
      <!-- 16 -->
      <defs>
       <path d="M 33.015625 40.375 
Q 26.375 40.375 22.484375 35.828125 
Q 18.609375 31.296875 18.609375 23.390625 
Q 18.609375 15.53125 22.484375 10.953125 
Q 26.375 6.390625 33.015625 6.390625 
Q 39.65625 6.390625 43.53125 10.953125 
Q 47.40625 15.53125 47.40625 23.390625 
Q 47.40625 31.296875 43.53125 35.828125 
Q 39.65625 40.375 33.015625 40.375 
z
M 52.59375 71.296875 
L 52.59375 62.3125 
Q 48.875 64.0625 45.09375 64.984375 
Q 41.3125 65.921875 37.59375 65.921875 
Q 27.828125 65.921875 22.671875 59.328125 
Q 17.53125 52.734375 16.796875 39.40625 
Q 19.671875 43.65625 24.015625 45.921875 
Q 28.375 48.1875 33.59375 48.1875 
Q 44.578125 48.1875 50.953125 41.515625 
Q 57.328125 34.859375 57.328125 23.390625 
Q 57.328125 12.15625 50.6875 5.359375 
Q 44.046875 -1.421875 33.015625 -1.421875 
Q 20.359375 -1.421875 13.671875 8.265625 
Q 6.984375 17.96875 6.984375 36.375 
Q 6.984375 53.65625 15.1875 63.9375 
Q 23.390625 74.21875 37.203125 74.21875 
Q 40.921875 74.21875 44.703125 73.484375 
Q 48.484375 72.75 52.59375 71.296875 
z
" id="DejaVuSans-36"/>
      </defs>
      <g transform="translate(7.2 114.590058)scale(0.1 -0.1)">
       <use xlink:href="#DejaVuSans-31"/>
       <use x="63.623047" xlink:href="#DejaVuSans-36"/>
      </g>
     </g>
    </g>
    <g id="ytick_6">
     <g id="line2d_14">
      <g>
       <use style="stroke:#000000;stroke-width:0.8;" x="26.925" xlink:href="#m68f22dc8bd" y="75.701187"/>
      </g>
     </g>
     <g id="text_14">
      <!-- 18 -->
      <g transform="translate(7.2 79.500406)scale(0.1 -0.1)">
       <use xlink:href="#DejaVuSans-31"/>
       <use x="63.623047" xlink:href="#DejaVuSans-38"/>
      </g>
     </g>
    </g>
    <g id="ytick_7">
     <g id="line2d_15">
      <g>
       <use style="stroke:#000000;stroke-width:0.8;" x="26.925" xlink:href="#m68f22dc8bd" y="40.611535"/>
      </g>
     </g>
     <g id="text_15">
      <!-- 20 -->
      <g transform="translate(7.2 44.410754)scale(0.1 -0.1)">
       <use xlink:href="#DejaVuSans-32"/>
       <use x="63.623047" xlink:href="#DejaVuSans-30"/>
      </g>
     </g>
    </g>
   </g>
   <g id="line2d_16">
    <path clip-path="url(#p8a168335ad)" d="M 43.157727 204.378233 
L 43.248871 202.430538 
L 43.340015 204.521299 
L 43.431159 204.011581 
L 43.522303 202.817958 
L 43.613447 204.932107 
L 43.704591 203.654458 
L 43.795735 198.438267 
L 43.886878 202.903328 
L 43.978022 216.247284 
L 44.069166 199.749081 
L 44.16031 202.53703 
L 44.251454 201.238125 
L 44.342598 204.570687 
L 44.61603 201.146031 
L 44.707173 205.141657 
L 44.889461 202.007652 
L 45.162893 203.616644 
L 45.254037 201.69422 
L 45.345181 202.045147 
L 45.436325 202.647344 
L 45.527468 202.615981 
L 45.618612 200.893647 
L 45.8009 206.370729 
L 45.892044 194.930078 
L 45.983188 213.074822 
L 46.074332 202.647342 
L 46.165476 208.107058 
L 46.25662 203.106848 
L 46.347764 204.384556 
L 46.438907 197.827151 
L 46.621195 212.741992 
L 46.803483 201.408722 
L 46.894627 203.106848 
L 46.985771 212.03727 
L 47.076915 203.529694 
L 47.168059 154.79106 
L 47.259202 204.188482 
L 47.350346 196.574191 
L 47.44149 204.861039 
L 47.532634 225.673242 
L 47.623778 172.019664 
L 47.89721 244.99394 
L 47.988354 22.796 
L 48.170641 214.491314 
L 48.261785 202.932203 
L 48.352929 211.156637 
L 48.444073 207.537184 
L 48.535217 211.066058 
L 48.626361 207.994743 
L 48.717505 195.943468 
L 48.808649 213.903617 
L 48.899793 210.511717 
L 48.990936 206.44621 
L 49.08208 216.681592 
L 49.264368 204.703766 
L 49.355512 204.91306 
L 49.446656 202.307821 
L 49.628944 213.898291 
L 49.720088 207.11286 
L 49.811231 207.448382 
L 49.902375 207.026835 
L 49.993519 211.511532 
L 50.175807 206.702332 
L 50.358095 207.836079 
L 50.449239 207.35062 
L 50.631526 207.732957 
L 50.72267 207.582243 
L 50.813814 208.150966 
L 50.904958 201.286664 
L 50.996102 209.788297 
L 51.087246 209.607226 
L 51.17839 208.134173 
L 51.269534 209.605923 
L 51.451821 206.299104 
L 51.542965 208.444392 
L 51.634109 207.953455 
L 51.725253 204.13793 
L 51.816397 208.051535 
L 51.907541 206.702332 
L 51.998685 210.180989 
L 52.36326 205.487632 
L 52.545548 210.915176 
L 52.727836 207.953455 
L 52.910124 206.292713 
L 53.001268 206.508932 
L 53.183555 209.184582 
L 53.274699 209.497891 
L 53.365843 206.406547 
L 53.548131 209.888669 
L 53.639275 206.820262 
L 53.912707 209.362625 
L 54.00385 205.562755 
L 54.186138 210.316866 
L 54.368426 210.118305 
L 54.550714 208.152256 
L 54.641858 206.299104 
L 54.824146 209.26383 
L 55.097577 206.999876 
L 55.188721 210.629528 
L 55.279865 209.071608 
L 55.371009 205.055275 
L 55.644441 209.794806 
L 55.735584 208.051535 
L 55.826728 211.101486 
L 56.009016 205.894201 
L 56.10016 206.107401 
L 56.191304 210.418851 
L 56.282448 204.937185 
L 56.373592 210.592871 
L 56.464736 209.085888 
L 56.555879 204.751951 
L 56.647023 210.986009 
L 56.829311 207.683992 
L 57.011599 209.671027 
L 57.193887 204.551695 
L 57.285031 205.471081 
L 57.467318 212.346321 
L 57.649606 203.683463 
L 57.74075 209.344417 
L 57.923038 205.156912 
L 58.014182 205.997577 
L 58.105326 211.039806 
L 58.469901 204.323826 
L 58.561045 205.092108 
L 58.652189 209.737468 
L 58.743333 208.864025 
L 58.834477 208.338343 
L 58.925621 210.527425 
L 59.016765 209.631957 
L 59.107908 194.967424 
L 59.290196 212.37805 
L 59.38134 209.772649 
L 59.472484 210.399235 
L 59.654772 204.881341 
L 59.745916 209.26383 
L 59.83706 208.660565 
L 59.928204 210.992568 
L 60.019347 206.666457 
L 60.110491 209.591601 
L 60.201635 206.801032 
L 60.292779 212.816198 
L 60.383923 212.392592 
L 60.475067 206.735652 
L 60.566211 210.498645 
L 60.657355 204.335207 
L 60.839642 211.685292 
L 60.930786 196.223397 
L 61.204218 210.510413 
L 61.295362 204.239072 
L 61.659937 209.960397 
L 61.751081 209.456265 
L 61.933369 202.615992 
L 62.024513 202.567117 
L 62.115657 209.564262 
L 62.297945 204.426334 
L 62.389089 209.990405 
L 62.480233 209.644987 
L 62.571376 210.48032 
L 62.66252 208.2078 
L 62.753664 209.452354 
L 62.844808 207.103872 
L 62.935952 209.845636 
L 63.11824 207.618295 
L 63.209384 211.606288 
L 63.391671 206.508931 
L 63.482815 206.370722 
L 63.573959 207.601555 
L 63.665103 206.945972 
L 63.756247 209.002821 
L 63.847391 205.16581 
L 64.029679 210.076527 
L 64.120823 210.613811 
L 64.211966 206.208339 
L 64.30311 208.864025 
L 64.394254 204.116442 
L 64.576542 212.85861 
L 64.75883 209.228747 
L 64.849974 209.480977 
L 64.941118 207.953455 
L 65.032261 201.971409 
L 65.123405 206.389908 
L 65.214549 203.314391 
L 65.305693 211.691873 
L 65.396837 210.169233 
L 65.487981 216.18784 
L 65.761413 202.086399 
L 65.852557 204.793804 
L 65.9437 231.754121 
L 66.034844 201.294146 
L 66.125988 206.999872 
L 66.217132 206.320838 
L 66.308276 213.029699 
L 66.39942 204.811561 
L 66.490564 206.267139 
L 66.581708 200.248686 
L 66.672852 202.153916 
L 66.763995 208.647611 
L 66.946283 201.746627 
L 67.037427 189.396267 
L 67.219715 256.844618 
L 67.402003 173.083974 
L 67.493147 216.659918 
L 67.58429 212.980614 
L 67.766578 203.099314 
L 67.857722 203.0126 
L 67.948866 213.332502 
L 68.131154 200.361402 
L 68.313442 218.107052 
L 68.495729 193.891914 
L 68.586873 211.560218 
L 68.678017 203.844924 
L 68.860305 212.449454 
L 68.951449 202.300312 
L 69.042593 204.861041 
L 69.224881 223.360164 
L 69.407168 204.435192 
L 69.589456 200.976914 
L 69.6806 202.747688 
L 69.771744 209.998231 
L 69.954032 196.302248 
L 70.045176 217.809574 
L 70.136319 216.551593 
L 70.318607 191.012734 
L 70.409751 211.42603 
L 70.500895 206.447495 
L 70.592039 213.454826 
L 70.774327 205.822765 
L 70.865471 204.000211 
L 70.956615 207.175806 
L 71.047758 205.844441 
L 71.138902 199.705855 
L 71.230046 222.69248 
L 71.503478 210.17838 
L 71.594622 220.572035 
L 71.77691 203.920659 
L 71.959197 216.231073 
L 72.050341 215.458563 
L 72.141485 205.292943 
L 72.323773 214.097076 
L 72.506061 208.318953 
L 72.597205 211.479959 
L 72.779492 202.370421 
L 73.052924 215.870685 
L 73.144068 194.713334 
L 73.235212 204.864842 
L 73.326356 202.733892 
L 73.508644 209.896487 
L 73.599787 210.615125 
L 73.690931 210.137891 
L 73.782075 201.058971 
L 73.873219 202.401722 
L 74.146651 211.728758 
L 74.328939 207.714918 
L 74.511226 211.98186 
L 74.693514 207.294049 
L 74.784658 212.806923 
L 74.875802 211.464171 
L 75.05809 214.741677 
L 75.149234 201.817777 
L 75.240377 203.949696 
L 75.422665 217.032784 
L 75.513809 213.118631 
L 75.604953 190.712926 
L 75.878385 219.792416 
L 75.969529 219.81448 
L 76.24296 210.765746 
L 76.516392 204.977808 
L 76.607536 205.524551 
L 76.69868 205.445621 
L 76.789824 204.264369 
L 77.063255 208.54274 
L 77.154399 207.3712 
L 77.245543 213.347118 
L 77.427831 202.391702 
L 77.518975 204.426334 
L 77.610119 212.05575 
L 77.792406 204.746877 
L 77.88355 213.538634 
L 77.974694 204.669537 
L 78.156982 212.894405 
L 78.248126 211.478641 
L 78.33927 208.377139 
L 78.430414 216.097358 
L 78.612701 203.885309 
L 78.794989 209.59421 
L 78.886133 207.626029 
L 78.977277 204.076003 
L 79.068421 205.513092 
L 79.159565 210.273742 
L 79.250709 199.69474 
L 79.341853 214.677379 
L 79.52414 200.837756 
L 79.615284 212.767164 
L 79.706428 207.367341 
L 79.797572 209.31322 
L 79.888716 206.201945 
L 79.97986 215.889563 
L 80.162148 201.249318 
L 80.344435 216.029867 
L 80.435579 211.097557 
L 80.526723 199.197816 
L 80.617867 215.708949 
L 80.709011 213.299276 
L 80.800155 207.371196 
L 80.891299 216.096011 
L 80.982443 208.966492 
L 81.073587 209.559058 
L 81.16473 212.445484 
L 81.255874 212.017485 
L 81.438162 204.527629 
L 81.62045 211.291939 
L 81.711594 198.320541 
L 81.893882 219.598057 
L 81.985026 204.021679 
L 82.076169 215.985338 
L 82.258457 206.676701 
L 82.349601 210.282887 
L 82.440745 209.923873 
L 82.623033 199.41345 
L 82.714177 200.908564 
L 82.805321 212.321207 
L 82.896464 205.383265 
L 83.078752 209.52912 
L 83.169896 206.00651 
L 83.26104 209.850852 
L 83.352184 200.061796 
L 83.625616 211.969989 
L 83.807903 205.788327 
L 83.990191 208.338343 
L 84.081335 204.314964 
L 84.172479 210.127451 
L 84.354767 203.25524 
L 84.537055 211.465486 
L 84.628198 207.2362 
L 84.719342 209.626751 
L 84.90163 202.617246 
L 85.083918 204.957492 
L 85.175062 213.922296 
L 85.266206 209.794806 
L 85.35735 213.060222 
L 85.448493 206.999872 
L 85.539637 208.057988 
L 85.630781 209.909531 
L 85.904213 202.370422 
L 85.995357 209.185878 
L 86.086501 202.252751 
L 86.268788 206.804874 
L 86.359932 206.14444 
L 86.451076 211.059489 
L 86.54222 205.641743 
L 86.724508 206.852327 
L 86.815652 210.986011 
L 86.99794 206.277367 
L 87.089084 213.15979 
L 87.180227 206.222395 
L 87.362515 211.689241 
L 87.544803 207.653078 
L 87.635947 201.23314 
L 87.727091 209.348319 
L 87.818235 205.450714 
L 87.909379 208.287927 
L 88.000522 216.729007 
L 88.18281 205.67487 
L 88.273954 211.815724 
L 88.365098 208.585459 
L 88.456242 211.532587 
L 88.63853 205.943966 
L 88.911961 211.206541 
L 89.003105 209.559054 
L 89.094249 219.742772 
L 89.367681 202.909607 
L 89.549969 213.747689 
L 89.641113 205.495269 
L 89.732256 214.190558 
L 89.8234 205.348911 
L 90.005688 213.117302 
L 90.187976 201.91519 
L 90.370264 208.752547 
L 90.643695 205.257339 
L 90.825983 209.895188 
L 90.917127 204.005258 
L 91.190559 211.348459 
L 91.372846 208.485794 
L 91.46399 211.997692 
L 91.646278 206.129111 
L 91.737422 210.216258 
L 91.828566 226.142312 
L 92.010854 197.211849 
L 92.193141 219.682115 
L 92.284285 206.797183 
L 92.375429 210.315563 
L 92.648861 201.93393 
L 92.831149 210.566686 
L 92.922293 200.340331 
L 93.013437 210.80506 
L 93.10458 209.656704 
L 93.286868 207.638907 
L 93.378012 208.024428 
L 93.469156 201.12613 
L 93.5603 214.479276 
L 93.651444 203.88152 
L 93.742588 207.017849 
L 93.833732 199.650294 
L 93.924875 201.187094 
L 94.198307 215.449149 
L 94.380595 200.331663 
L 94.562883 214.009005 
L 94.654027 209.955179 
L 94.74517 210.362619 
L 94.836314 212.18777 
L 94.927458 203.88152 
L 95.018602 206.079295 
L 95.109746 214.617122 
L 95.20089 202.207714 
L 95.292034 204.026727 
L 95.383178 206.016726 
L 95.474322 203.174745 
L 95.565466 204.035572 
L 95.656609 208.781058 
L 95.747753 201.766601 
L 95.838897 202.937233 
L 95.930041 212.987244 
L 96.021185 190.352336 
L 96.112329 208.024428 
L 96.203473 207.193793 
L 96.294617 209.314517 
L 96.476904 198.406376 
L 96.568048 202.474373 
L 96.659192 206.588312 
L 96.750336 198.014311 
L 97.023768 215.094386 
L 97.114912 208.703312 
L 97.388343 213.231508 
L 97.570631 201.365119 
L 97.661775 199.334562 
L 97.844063 207.848971 
L 97.935207 207.758729 
L 98.026351 204.103802 
L 98.208638 209.827391 
L 98.299782 216.198652 
L 98.573214 204.347859 
L 98.664358 206.693364 
L 98.755502 207.249055 
L 99.028933 213.691733 
L 99.211221 206.079295 
L 99.393509 215.853159 
L 99.666941 201.492203 
L 99.940372 209.991708 
L 100.031516 210.097419 
L 100.12266 207.494705 
L 100.213804 210.93485 
L 100.304948 209.061225 
L 100.396092 200.557251 
L 100.487236 211.274857 
L 100.57838 207.031965 
L 100.760667 213.161111 
L 100.942955 203.285435 
L 101.034099 210.409694 
L 101.125243 204.921955 
L 101.216387 207.869606 
L 101.307531 206.492283 
L 101.398675 213.775666 
L 101.580962 201.906445 
L 101.76325 210.849623 
L 101.854394 204.876265 
L 101.945538 212.926229 
L 102.036682 206.44237 
L 102.127826 211.436549 
L 102.21897 208.077351 
L 102.310114 214.452526 
L 102.492401 200.969455 
L 102.674689 208.138046 
L 102.765833 205.70801 
L 102.856977 213.820973 
L 103.039265 207.224632 
L 103.130409 209.309327 
L 103.221552 208.206511 
L 103.312696 208.619125 
L 103.677272 202.853108 
L 103.768416 211.117248 
L 103.85956 205.450714 
L 103.950704 210.248917 
L 104.132991 204.317495 
L 104.224135 210.425391 
L 104.315279 205.634091 
L 104.406423 210.605954 
L 104.497567 204.030523 
L 104.588711 205.22682 
L 104.679855 210.22932 
L 104.770999 201.876467 
L 104.862143 217.512599 
L 105.04443 194.635131 
L 105.226718 217.986912 
L 105.50015 201.373836 
L 105.682438 207.854129 
L 105.773581 208.375839 
L 105.864725 207.457387 
L 105.955869 202.344127 
L 106.229301 216.156776 
L 106.411589 200.510122 
L 106.68502 212.806923 
L 106.867308 204.347862 
L 106.958452 208.952219 
L 107.049596 205.609893 
L 107.14074 208.443096 
L 107.231884 201.922684 
L 107.323028 204.431394 
L 107.414172 203.982527 
L 107.505315 202.96235 
L 107.596459 211.027994 
L 107.687603 209.579884 
L 107.778747 202.671172 
L 107.869891 214.938731 
L 107.961035 204.583365 
L 108.052179 210.012583 
L 108.143323 203.29802 
L 108.234467 210.459392 
L 108.32561 198.267834 
L 108.416754 200.817881 
L 108.507898 221.195249 
L 108.690186 201.510902 
L 108.78133 201.567001 
L 109.054762 207.472825 
L 109.145906 206.079298 
L 109.237049 207.988292 
L 109.328193 214.720239 
L 109.419337 202.201453 
L 109.601625 210.252831 
L 109.783913 205.05781 
L 109.875057 209.050842 
L 109.966201 206.240292 
L 110.057344 210.248917 
L 110.330776 206.103568 
L 110.42192 206.493566 
L 110.695352 211.395787 
L 110.877639 206.103568 
L 110.968783 205.70801 
L 111.059927 206.240292 
L 111.151071 203.6885 
L 111.333359 211.008311 
L 111.424503 208.287927 
L 111.515647 201.601916 
L 111.697935 220.522166 
L 111.789078 189.555683 
L 111.971366 205.761556 
L 112.06251 202.728871 
L 112.153654 202.853104 
L 112.335942 210.641308 
L 112.427086 201.686737 
L 112.609373 208.952219 
L 112.700517 207.381484 
L 112.791661 201.590693 
L 112.882805 213.986319 
L 112.973949 203.80328 
L 113.247381 209.039158 
L 113.338525 206.751026 
L 113.429668 208.617826 
L 113.520812 206.780512 
L 113.611956 211.871083 
L 113.7031 204.426328 
L 113.794244 210.417544 
L 113.885388 206.753601 
L 113.976532 209.800012 
L 114.067676 201.137327 
L 114.341107 213.599864 
L 114.523395 201.666772 
L 114.614539 211.519429 
L 114.705683 209.699689 
L 114.887971 207.205362 
L 114.979115 207.74069 
L 115.070259 213.295291 
L 115.34369 205.202664 
L 115.434834 206.465406 
L 115.525978 209.878227 
L 115.708266 206.103568 
L 115.981697 216.367592 
L 116.163985 200.907321 
L 116.346273 205.131497 
L 116.437417 203.275375 
L 116.528561 205.681247 
L 116.619705 203.656981 
L 116.710849 208.060574 
L 116.801992 194.791578 
L 116.893136 213.737028 
L 117.075424 202.00764 
L 117.166568 208.169046 
L 117.257712 207.64277 
L 117.348856 211.286683 
L 117.44 210.190126 
L 117.531144 210.756573 
L 117.622288 204.374435 
L 117.713431 212.064986 
L 117.804575 208.144505 
L 117.895719 211.138254 
L 117.986863 205.899301 
L 118.078007 208.501323 
L 118.169151 206.774104 
L 118.260295 213.968977 
L 118.351439 196.372623 
L 118.533726 209.955178 
L 118.62487 207.020408 
L 118.716014 201.083841 
L 118.807158 202.500684 
L 118.898302 211.144817 
L 119.08059 191.999097 
L 119.171734 213.24745 
L 119.262878 211.759059 
L 119.445165 205.125147 
L 119.536309 213.204936 
L 119.718597 201.67551 
L 119.809741 215.975892 
L 119.900885 197.124105 
L 119.992029 207.256764 
L 120.083173 205.681249 
L 120.26546 207.29276 
L 120.447748 211.859218 
L 120.538892 206.58191 
L 120.630036 208.194881 
L 120.72118 212.103262 
L 120.812324 209.341824 
L 120.903468 210.498644 
L 121.085755 205.223012 
L 121.176899 206.359211 
L 121.268043 210.488177 
L 121.359187 210.471171 
L 121.450331 212.907669 
L 121.632619 198.966439 
L 121.814907 205.558936 
L 121.90605 205.594601 
L 121.997194 213.194314 
L 122.179482 203.094288 
L 122.36177 214.389666 
L 122.544058 202.093898 
L 122.726346 210.028239 
L 122.908633 207.38534 
L 122.999777 200.046953 
L 123.273209 212.265707 
L 123.364353 210.949281 
L 123.546641 206.397594 
L 123.637784 206.034601 
L 123.728928 211.341886 
L 123.820072 198.24578 
L 123.911216 204.40987 
L 124.00236 195.949514 
L 124.093504 196.44546 
L 124.184648 206.570381 
L 124.275792 193.742166 
L 124.366936 217.606534 
L 124.549223 208.107052 
L 124.640367 210.03346 
L 124.822655 205.281497 
L 125.004943 210.03346 
L 125.369518 201.276709 
L 125.551806 209.549951 
L 125.64295 207.215634 
L 125.734094 208.63467 
L 125.916382 205.415074 
L 126.007526 208.294382 
L 126.09867 207.26191 
L 126.280957 208.121253 
L 126.372101 205.197583 
L 126.463245 208.884775 
L 126.554389 207.944421 
L 126.645533 205.572945 
L 126.827821 210.00084 
L 126.918965 207.963775 
L 127.010108 210.89289 
L 127.192396 206.324676 
L 127.28354 208.64891 
L 127.374684 206.768983 
L 127.465828 207.939262 
L 127.556972 211.148755 
L 127.73926 205.202674 
L 127.830404 205.60479 
L 128.012691 208.874399 
L 128.194979 204.126558 
L 128.377267 209.508302 
L 128.468411 206.576788 
L 128.559555 209.751804 
L 128.650699 207.484414 
L 128.741842 210.484252 
L 128.832986 205.187417 
L 128.92413 206.328512 
L 129.015274 206.125287 
L 129.197562 198.319317 
L 129.470994 214.874361 
L 129.562137 188.790206 
L 129.744425 222.65321 
L 129.926713 200.79801 
L 130.017857 201.525857 
L 130.109001 205.676143 
L 130.291289 191.721513 
L 130.382432 216.351368 
L 130.473576 202.843063 
L 130.56472 205.880164 
L 130.655864 204.279541 
L 130.747008 208.5764 
L 130.838152 204.499766 
L 130.929296 206.467967 
L 131.02044 213.240812 
L 131.202728 208.729222 
L 131.293871 209.513508 
L 131.385015 206.313167 
L 131.476159 209.30023 
L 131.567303 206.89722 
L 131.658447 201.044045 
L 131.840735 209.508302 
L 131.931879 206.018005 
L 132.023023 210.537897 
L 132.114166 209.650188 
L 132.20531 211.106746 
L 132.296454 206.018005 
L 132.387598 207.957325 
L 132.569886 205.450715 
L 132.752174 204.755751 
L 132.934461 211.786726 
L 133.025605 202.392957 
L 133.116749 202.471865 
L 133.207893 214.827434 
L 133.390181 200.408479 
L 133.481325 210.949281 
L 133.572469 209.126139 
L 133.8459 200.367589 
L 133.937044 213.935633 
L 134.028188 205.173434 
L 134.30162 215.316029 
L 134.392764 217.353422 
L 134.575052 201.312815 
L 134.666195 211.649736 
L 134.757339 206.831807 
L 134.848483 207.936684 
L 134.939627 206.546053 
L 135.030771 208.665747 
L 135.121915 207.506291 
L 135.213059 209.810441 
L 135.304203 209.331419 
L 135.395347 210.472475 
L 135.668778 201.082596 
L 135.851066 207.236196 
L 135.94221 206.825399 
L 136.033354 206.996021 
L 136.124498 199.568855 
L 136.306786 209.35742 
L 136.489073 203.61664 
L 136.580217 207.0615 
L 136.671361 206.125287 
L 136.762505 206.795902 
L 136.853649 210.494713 
L 136.944793 204.977807 
L 137.035937 210.028239 
L 137.127081 209.548647 
L 137.218224 210.725132 
L 137.400512 204.495964 
L 137.491656 209.253435 
L 137.673944 206.078015 
L 137.765088 210.503872 
L 137.856232 202.674928 
L 138.038519 206.355374 
L 138.129663 205.664686 
L 138.220807 206.596002 
L 138.311951 204.03684 
L 138.403095 206.585752 
L 138.585383 204.290927 
L 138.676527 206.338748 
L 138.858815 204.245392 
L 139.041102 209.123541 
L 139.22339 207.484414 
L 139.314534 208.152259 
L 139.405678 203.147087 
L 139.496822 204.710103 
L 139.587966 209.350921 
L 139.67911 206.825399 
L 139.861397 210.144416 
L 140.043685 205.197583 
L 140.134829 210.492101 
L 140.225973 209.758315 
L 140.317117 206.139341 
L 140.408261 207.968938 
L 140.499405 207.444521 
L 140.590548 208.203929 
L 140.772836 205.404895 
L 140.86398 205.664686 
L 140.955124 205.202674 
L 141.046268 205.665948 
L 141.137412 208.870509 
L 141.3197 205.641739 
L 141.410843 212.763189 
L 141.501987 206.544772 
L 141.593131 207.022982 
L 141.775419 203.379823 
L 141.866563 210.20581 
L 141.957707 209.350921 
L 142.322282 199.197816 
L 142.50457 210.488177 
L 142.595714 202.654872 
L 142.778002 209.783072 
L 142.96029 205.873784 
L 143.051434 210.953216 
L 143.142577 201.74539 
L 143.233721 204.06716 
L 143.324865 210.940096 
L 143.416009 204.430127 
L 143.507153 205.219195 
L 143.689441 211.581282 
L 143.780585 205.389622 
L 143.962872 208.406882 
L 144.054016 206.803602 
L 144.14516 207.729095 
L 144.236304 204.760829 
L 144.509736 206.596002 
L 144.60088 192.943846 
L 144.783168 212.335751 
L 144.874311 205.450715 
L 144.965455 205.84189 
L 145.056599 205.221744 
L 145.147743 207.022982 
L 145.238887 212.132313 
L 145.421175 206.794618 
L 145.512319 208.479327 
L 145.603463 202.093898 
L 145.78575 206.236454 
L 145.876894 209.101463 
L 145.968038 204.800148 
L 146.150326 209.684053 
L 146.24147 205.941409 
L 146.332614 206.236454 
L 146.423758 206.24924 
L 146.514901 204.203667 
L 146.606045 207.797402 
L 146.697189 198.981199 
L 146.879477 211.511529 
L 147.061765 204.193549 
L 147.335197 209.99693 
L 147.42634 209.335323 
L 147.517484 200.209061 
L 147.608628 210.640003 
L 147.699772 206.482046 
L 147.790916 211.491797 
L 147.88206 204.485836 
L 147.973204 210.284196 
L 148.064348 209.540839 
L 148.155492 201.471017 
L 148.246635 203.559931 
L 148.337779 211.511529 
L 148.520067 204.91688 
L 148.611211 208.584164 
L 148.702355 205.126418 
L 148.793499 196.165202 
L 148.975787 212.228714 
L 149.06693 210.908623 
L 149.158074 198.743939 
L 149.249218 209.230047 
L 149.340362 196.308305 
L 149.431506 198.36101 
L 149.52265 195.447587 
L 149.704938 209.477072 
L 149.796082 208.771987 
L 150.069513 202.48064 
L 150.251801 210.823406 
L 150.342945 211.626042 
L 150.434089 219.836552 
L 150.616377 200.391131 
L 150.707521 200.012321 
L 150.889808 215.244802 
L 150.980952 206.478208 
L 151.072096 207.025549 
L 151.16324 206.104841 
L 151.254384 203.693549 
L 151.436672 215.125262 
L 151.527816 216.105465 
L 151.618959 194.665205 
L 151.710103 209.319722 
L 151.801247 206.230068 
L 151.983535 205.778127 
L 152.074679 209.908223 
L 152.165823 207.123137 
L 152.256967 212.043872 
L 152.348111 204.476968 
L 152.439255 213.45349 
L 152.621542 207.948292 
L 152.712686 207.042241 
L 152.80383 203.72255 
L 152.986118 212.828125 
L 153.077262 191.236094 
L 153.168406 210.987325 
L 153.25955 203.350876 
L 153.441837 209.681443 
L 153.532981 205.548749 
L 153.624125 208.775878 
L 153.715269 206.093346 
L 153.988701 216.259458 
L 154.079845 206.670296 
L 154.170988 207.286329 
L 154.262132 222.539636 
L 154.353276 191.166335 
L 154.535564 210.06087 
L 154.808996 202.687475 
L 154.90014 208.862727 
L 154.991283 208.35127 
L 155.082427 201.492205 
L 155.173571 203.884043 
L 155.355859 219.124811 
L 155.447003 195.858712 
L 155.538147 210.714653 
L 155.720435 203.038985 
L 155.811579 202.101398 
L 155.993866 209.910837 
L 156.08501 209.289827 
L 156.176154 201.68549 
L 156.267298 203.14834 
L 156.358442 204.556761 
L 156.449586 216.878114 
L 156.631874 204.254245 
L 156.723017 206.599841 
L 156.814161 206.288874 
L 156.905305 203.991368 
L 156.996449 207.441943 
L 157.087593 203.486864 
L 157.178737 207.502426 
L 157.269881 206.025665 
L 157.452169 215.338878 
L 157.634456 194.209748 
L 157.7256 201.152254 
L 157.816744 209.507 
L 157.907888 204.805217 
L 157.999032 210.226702 
L 158.272464 207.278617 
L 158.454751 209.677541 
L 158.545895 204.56056 
L 158.637039 206.069079 
L 158.728183 204.385825 
L 158.819327 206.338745 
L 158.910471 200.035815 
L 159.001615 208.197467 
L 159.092759 204.102543 
L 159.183903 208.988548 
L 159.36619 202.500679 
L 159.457334 201.236875 
L 159.639622 211.741929 
L 159.730766 209.41334 
L 159.82191 204.151826 
L 159.913054 205.069242 
L 160.004198 206.340022 
L 160.186485 203.773005 
L 160.459917 208.775878 
L 160.551061 207.725224 
L 160.733349 209.10407 
L 161.00678 203.270345 
L 161.097924 212.821495 
L 161.189068 203.950959 
L 161.280212 205.55385 
L 161.371356 202.426771 
L 161.553644 218.765242 
L 161.918219 202.695 
L 162.009363 211.051614 
L 162.100507 203.169718 
L 162.282795 208.005066 
L 162.373939 203.870164 
L 162.465083 209.049545 
L 162.64737 205.355272 
L 162.738514 208.976874 
L 162.920802 200.216486 
L 163.011946 208.298266 
L 163.10309 202.956069 
L 163.194234 208.796616 
L 163.285378 203.495678 
L 163.376522 205.078135 
L 163.467666 211.309022 
L 163.558809 206.517887 
L 163.649953 210.582396 
L 163.741097 209.196275 
L 163.832241 205.477443 
L 164.014529 208.112218 
L 164.105673 205.746255 
L 164.379104 210.582391 
L 164.652536 206.374564 
L 164.74368 208.143212 
L 164.834824 205.746255 
L 164.925968 206.159775 
L 165.199399 209.417236 
L 165.290543 201.59568 
L 165.381687 203.942117 
L 165.472831 197.603509 
L 165.655119 209.23265 
L 165.746263 207.184796 
L 165.837407 200.739655 
L 166.019695 214.158497 
L 166.201982 207.278617 
L 166.293126 207.411072 
L 166.38427 209.669728 
L 166.566558 207.028115 
L 166.657702 209.507 
L 166.931133 204.365577 
L 167.022277 208.597109 
L 167.113421 207.80771 
L 167.204565 203.461672 
L 167.386853 206.647237 
L 167.477997 213.297939 
L 167.569141 206.734368 
L 167.660285 210.092199 
L 167.751428 209.763522 
L 167.842572 208.739588 
L 167.933716 208.921086 
L 168.02486 202.797881 
L 168.116004 207.860577 
L 168.207148 207.24776 
L 168.389436 200.675113 
L 168.48058 211.966028 
L 168.662867 202.264019 
L 168.754011 202.75647 
L 168.845155 210.226702 
L 169.027443 202.444308 
L 169.118587 206.561416 
L 169.209731 204.598571 
L 169.300875 204.760824 
L 169.392019 205.827864 
L 169.483162 209.295021 
L 169.66545 201.665528 
L 169.756594 204.570701 
L 169.847738 202.163931 
L 169.938882 208.748659 
L 170.12117 202.93723 
L 170.212314 203.774262 
L 170.303457 203.13326 
L 170.394601 207.431659 
L 170.485745 203.834828 
L 170.668033 209.689266 
L 170.759177 204.425064 
L 170.850321 208.613947 
L 170.941465 202.431783 
L 171.032609 208.034755 
L 171.123752 206.113788 
L 171.214896 212.927564 
L 171.30604 202.933468 
L 171.397184 210.37308 
L 171.488328 203.022656 
L 171.670616 212.039914 
L 171.76176 204.852157 
L 172.035191 209.436744 
L 172.126335 208.874398 
L 172.217479 202.721335 
L 172.308623 208.08123 
L 172.399767 203.570015 
L 172.673199 207.91862 
L 172.764343 206.596002 
L 172.855486 203.641855 
L 172.94663 212.647964 
L 173.037774 206.497409 
L 173.128918 209.145616 
L 173.220062 209.067711 
L 173.311206 207.031969 
L 173.493494 212.641337 
L 173.858069 203.638066 
L 173.949213 208.365497 
L 174.040357 207.042238 
L 174.131501 207.802557 
L 174.313789 204.773509 
L 174.404933 207.124424 
L 174.496077 200.79057 
L 174.678364 206.560137 
L 174.769508 200.899868 
L 174.860652 203.018876 
L 174.951796 209.376926 
L 175.04294 207.591259 
L 175.134084 209.751793 
L 175.225228 205.318382 
L 175.407515 208.505207 
L 175.589803 205.807454 
L 175.772091 208.253026 
L 175.863235 202.310323 
L 176.045523 208.956116 
L 176.136667 206.535812 
L 176.22781 207.81803 
L 176.318954 203.957268 
L 176.410098 208.718857 
L 176.501242 200.522521 
L 176.68353 208.568626 
L 176.774674 200.935903 
L 176.956962 206.236455 
L 177.048106 200.569658 
L 177.230393 209.533027 
L 177.321537 203.791928 
L 177.412681 203.923191 
L 177.594969 206.02822 
L 177.777257 200.6565 
L 177.868401 210.248909 
L 178.050688 203.60656 
L 178.32412 209.71011 
L 178.415264 205.696536 
L 178.506408 207.381486 
L 178.597552 204.967653 
L 178.779839 209.523919 
L 178.870983 205.970762 
L 179.053271 207.838657 
L 179.144415 199.826897 
L 179.326703 210.400541 
L 179.417847 202.587166 
L 179.508991 206.148278 
L 179.600135 204.815362 
L 179.691278 207.614441 
L 179.782422 205.956727 
L 179.873566 200.908559 
L 179.96471 208.187132 
L 180.146998 203.714988 
L 180.238142 209.585096 
L 180.329286 208.11093 
L 180.42043 191.836543 
L 180.693861 219.664193 
L 180.785005 216.884904 
L 180.876149 193.296003 
L 181.058437 203.357168 
L 181.149581 201.122396 
L 181.240725 202.617247 
L 181.331868 207.758733 
L 181.423012 206.067799 
L 181.514156 207.962485 
L 181.6053 203.868897 
L 181.787588 212.313278 
L 181.878732 203.196121 
L 181.969876 204.906722 
L 182.06102 207.317187 
L 182.152163 195.673602 
L 182.334451 207.310757 
L 182.425595 207.850263 
L 182.516739 211.732707 
L 182.699027 203.14331 
L 182.790171 206.135504 
L 182.881315 200.434505 
L 182.972459 211.490482 
L 183.063602 204.81029 
L 183.337034 211.272228 
L 183.428178 193.566215 
L 183.519322 213.549286 
L 183.610466 211.62209 
L 183.792754 200.657736 
L 183.883897 201.324021 
L 184.066185 211.96339 
L 184.157329 200.243721 
L 184.248473 209.986485 
L 184.339617 208.068316 
L 184.430761 204.011575 
L 184.613049 209.348324 
L 184.704192 204.317494 
L 184.795336 204.57703 
L 184.88648 211.286681 
L 184.977624 204.824247 
L 185.068768 210.369161 
L 185.159912 201.775338 
L 185.251056 205.695266 
L 185.3422 200.268494 
L 185.433344 210.764435 
L 185.706775 199.936893 
L 185.797919 210.799818 
L 185.889063 210.096113 
L 185.980207 202.521989 
L 186.071351 208.47415 
L 186.162495 202.045141 
L 186.253639 213.939628 
L 186.435926 206.999873 
L 186.618214 203.923184 
L 186.800502 209.54865 
L 186.891646 198.9689 
L 186.98279 218.149396 
L 187.073934 216.340549 
L 187.165078 211.860539 
L 187.256221 214.53681 
L 187.347365 204.749409 
L 187.438509 212.039914 
L 187.529653 199.13872 
L 187.711941 211.522059 
L 187.985373 207.695589 
L 188.076517 206.10995 
L 188.16766 208.290507 
L 188.349948 204.249187 
L 188.441092 209.117046 
L 188.532236 207.070485 
L 188.62338 207.37634 
L 188.714524 206.189169 
L 188.896812 213.169082 
L 189.079099 196.637381 
L 189.170243 216.439276 
L 189.261387 196.011283 
L 189.352531 197.660927 
L 189.443675 203.9699 
L 189.534819 202.404228 
L 189.625963 216.189196 
L 189.717107 198.630955 
L 189.80825 208.707196 
L 189.899394 197.885844 
L 190.081682 214.982999 
L 190.26397 203.450332 
L 190.446258 216.386532 
L 190.537402 205.929926 
L 190.628546 214.484625 
L 190.719689 213.30459 
L 190.810833 211.611555 
L 190.901977 204.395951 
L 190.993121 219.142667 
L 191.084265 202.12641 
L 191.175409 208.313776 
L 191.266553 205.221738 
L 191.357697 211.491796 
L 191.448841 210.178377 
L 191.539984 206.435977 
L 191.631128 213.918294 
L 191.813416 206.237737 
L 191.90456 208.068316 
L 191.995704 212.362185 
L 192.086848 205.737332 
L 192.269136 211.923828 
L 192.360279 204.982889 
L 192.451423 205.160729 
L 192.542567 212.27099 
L 192.633711 210.05304 
L 192.724855 203.660768 
L 192.815999 208.816059 
L 192.907143 207.288902 
L 192.998287 207.676263 
L 193.089431 212.161357 
L 193.362862 203.986317 
L 193.54515 210.094806 
L 193.727438 206.442373 
L 193.818582 206.815132 
L 193.909726 204.32635 
L 194.00087 205.272598 
L 194.092013 201.029127 
L 194.183157 207.565505 
L 194.274301 206.924156 
L 194.456589 209.087189 
L 194.730021 201.95142 
L 194.821165 209.74789 
L 194.912308 209.387324 
L 195.003452 205.508003 
L 195.094596 207.962482 
L 195.368028 202.307818 
L 195.550316 210.599417 
L 195.64146 217.396943 
L 195.823747 204.735465 
L 196.006035 213.607846 
L 196.097179 214.593026 
L 196.188323 198.36101 
L 196.279467 214.097076 
L 196.370611 199.967805 
L 196.552899 208.589342 
L 196.735186 198.239649 
L 196.917474 205.903131 
L 197.008618 206.492283 
L 197.099762 200.016032 
L 197.190906 210.892887 
L 197.28205 204.227688 
L 197.373194 210.919115 
L 197.464337 210.677976 
L 197.555481 202.866918 
L 197.646625 204.131608 
L 197.737769 211.401041 
L 197.828913 197.177719 
L 198.102345 210.912559 
L 198.193489 207.825763 
L 198.284632 197.872395 
L 198.46692 202.226477 
L 198.558064 212.988572 
L 198.649208 195.256826 
L 198.831496 217.217495 
L 198.92264 191.617235 
L 199.104928 208.253028 
L 199.196071 198.419865 
L 199.287215 210.954521 
L 199.378359 204.872455 
L 199.469503 213.09606 
L 199.560647 203.114397 
L 199.651791 218.348965 
L 199.742935 215.277056 
L 199.925223 193.728996 
L 200.016366 220.344972 
L 200.10751 201.630605 
L 200.198654 203.22379 
L 200.289798 214.836832 
L 200.472086 199.872621 
L 200.56323 215.412836 
L 200.654374 206.093343 
L 200.745518 213.994326 
L 200.836661 193.273302 
L 200.927805 207.340332 
L 201.018949 203.808327 
L 201.110093 205.318376 
L 201.201237 217.479937 
L 201.292381 195.007194 
L 201.383525 196.345927 
L 201.474669 210.336473 
L 201.565813 193.592534 
L 201.656957 220.23708 
L 201.7481 218.149399 
L 201.839244 216.356774 
L 202.021532 195.668764 
L 202.112676 201.540821 
L 202.20382 222.730369 
L 202.294964 191.063528 
L 202.477252 214.940076 
L 202.568395 201.219446 
L 202.659539 208.360321 
L 202.750683 206.288872 
L 202.841827 209.548646 
L 203.024115 201.985151 
L 203.206403 206.021836 
L 203.479834 210.367845 
L 203.662122 198.111033 
L 203.753266 199.043949 
L 203.935554 213.587879 
L 204.026698 203.295504 
L 204.300129 213.215564 
L 204.391273 206.707456 
L 204.482417 214.88509 
L 204.573561 199.083325 
L 204.664705 213.906294 
L 204.755849 195.876863 
L 204.938137 208.349981 
L 205.029281 213.357752 
L 205.120424 199.366604 
L 205.302712 206.157221 
L 205.393856 204.777311 
L 205.576144 209.408133 
L 205.667288 200.590741 
L 205.940719 212.245889 
L 206.031863 200.223915 
L 206.123007 206.727963 
L 206.214151 197.353287 
L 206.305295 211.202605 
L 206.396439 197.675583 
L 206.669871 217.034146 
L 206.761014 206.724114 
L 206.852158 208.030879 
L 207.034446 197.753785 
L 207.12559 211.458911 
L 207.307878 204.739265 
L 207.399022 205.543653 
L 207.490166 202.316582 
L 207.763597 210.243688 
L 207.854741 210.848312 
L 207.945885 205.567854 
L 208.037029 207.647921 
L 208.128173 203.133253 
L 208.219317 205.333649 
L 208.310461 210.238468 
L 208.401605 202.903332 
L 208.583892 216.436568 
L 208.675036 218.231382 
L 208.76618 214.460546 
L 208.857324 194.116144 
L 208.948468 211.122494 
L 209.130756 204.632782 
L 209.2219 212.39788 
L 209.313043 210.066092 
L 209.404187 211.795955 
L 209.495331 204.815361 
L 209.586475 207.341618 
L 209.768763 203.809592 
L 209.859907 204.005258 
L 210.042195 218.052432 
L 210.224482 188.443532 
L 210.315626 200.058084 
L 210.40677 194.761481 
L 210.497914 209.298926 
L 210.680202 201.816533 
L 210.771346 210.394003 
L 210.86249 201.258038 
L 210.953634 209.570772 
L 211.135921 202.385441 
L 211.227065 202.233986 
L 211.318209 211.160575 
L 211.500497 206.596002 
L 211.591641 212.092703 
L 211.682785 201.906445 
L 211.773929 209.159903 
L 211.865072 208.076059 
L 211.956216 206.92416 
L 212.04736 208.65927 
L 212.229648 197.158223 
L 212.320792 211.987137 
L 212.411936 211.981859 
L 212.594224 196.259787 
L 212.685368 205.620084 
L 212.776511 196.96579 
L 212.867655 213.970311 
L 213.049943 202.90333 
L 213.141087 207.061494 
L 213.232231 203.822205 
L 213.323375 205.927374 
L 213.505663 199.197815 
L 213.596806 211.656321 
L 213.68795 201.558271 
L 213.779094 213.790316 
L 213.961382 206.06908 
L 214.052526 206.988323 
L 214.14367 202.597191 
L 214.234814 207.514008 
L 214.325958 205.369267 
L 214.417101 205.425256 
L 214.508245 204.531434 
L 214.599389 207.053793 
L 214.690533 204.751949 
L 214.781677 209.353523 
L 214.872821 205.863582 
L 215.055109 213.980985 
L 215.146253 203.985055 
L 215.32854 211.685293 
L 215.78426 197.400866 
L 215.966548 209.475771 
L 216.148835 204.560564 
L 216.239979 206.130392 
L 216.331123 205.620084 
L 216.422267 206.69336 
L 216.604555 210.640001 
L 216.695699 200.846452 
L 216.786843 210.777538 
L 216.877987 209.622848 
L 216.96913 205.783226 
L 217.060274 206.980625 
L 217.151418 205.22682 
L 217.242562 207.247769 
L 217.333706 205.262422 
L 217.42485 208.233639 
L 217.515994 208.139339 
L 217.607138 209.237849 
L 217.698282 207.637618 
L 217.880569 210.328635 
L 217.971713 209.631963 
L 218.154001 203.079207 
L 218.245145 206.314441 
L 218.336289 216.440631 
L 218.427433 205.872511 
L 218.518577 205.966937 
L 218.609721 205.681247 
L 218.792008 209.57598 
L 218.974296 202.777802 
L 219.06544 204.197341 
L 219.156584 203.455379 
L 219.247728 205.403625 
L 219.338872 203.546073 
L 219.521159 210.915183 
L 219.612303 199.956678 
L 219.703447 209.681451 
L 219.885735 205.507999 
L 219.976879 210.770984 
L 220.068023 206.029493 
L 220.159167 206.836934 
L 220.250311 207.803851 
L 220.341454 207.541048 
L 220.432598 204.781119 
L 220.523742 205.379449 
L 220.614886 208.559568 
L 220.70603 204.989231 
L 220.797174 206.058867 
L 220.979462 204.418738 
L 221.070606 205.858476 
L 221.16175 203.398715 
L 221.435181 207.63376 
L 221.526325 206.984471 
L 221.617469 205.167077 
L 221.708613 200.18059 
L 221.890901 211.607606 
L 221.982045 208.284047 
L 222.34662 201.361384 
L 222.528908 203.872694 
L 222.620052 201.600681 
L 222.711196 202.78283 
L 222.893483 206.842064 
L 223.075771 204.769699 
L 223.166915 206.140613 
L 223.258059 203.499458 
L 223.440347 207.7059 
L 223.531491 206.401428 
L 223.622635 205.719491 
L 223.713779 203.439004 
L 223.804922 212.425653 
L 223.896066 203.591434 
L 223.98721 205.515635 
L 224.078354 205.790873 
L 224.260642 209.732257 
L 224.534074 201.45731 
L 224.625217 201.731658 
L 224.807505 206.799748 
L 224.898649 205.972051 
L 224.989793 207.144979 
L 225.080937 203.493154 
L 225.172081 207.263193 
L 225.263225 203.005057 
L 225.354369 203.9257 
L 225.445512 204.290924 
L 225.536656 207.900555 
L 225.6278 206.018006 
L 225.718944 208.629475 
L 225.901232 203.459154 
L 226.08352 203.957267 
L 226.174664 201.490963 
L 226.356951 206.239005 
L 226.448095 206.735645 
L 226.539239 205.098457 
L 226.630383 206.424456 
L 226.812671 203.919383 
L 226.903815 206.297824 
L 226.994959 195.765529 
L 227.086103 197.496056 
L 227.177246 215.054121 
L 227.359534 199.099338 
L 227.450678 202.631049 
L 227.541822 199.995009 
L 227.632966 201.732908 
L 227.72411 206.209604 
L 227.815254 203.086737 
L 227.906398 209.831301 
L 227.997541 202.567109 
L 228.088685 203.518354 
L 228.179829 207.223342 
L 228.270973 203.279148 
L 228.362117 204.836928 
L 228.453261 202.500679 
L 228.544405 206.432139 
L 228.635549 204.739264 
L 228.726693 206.774112 
L 228.817837 205.519454 
L 228.90898 207.236211 
L 229.000124 207.047376 
L 229.091268 205.65448 
L 229.182412 202.455576 
L 229.3647 208.246569 
L 229.455844 204.06084 
L 229.546988 206.862589 
L 229.638132 205.341285 
L 229.820419 207.278617 
L 229.911563 207.762601 
L 230.002707 205.750088 
L 230.093851 206.001416 
L 230.184995 206.057587 
L 230.276139 207.0217 
L 230.458427 205.402351 
L 230.54957 204.374444 
L 230.640714 205.380718 
L 230.823002 203.055317 
L 231.00529 207.323622 
L 231.096434 205.369266 
L 231.187578 206.038441 
L 231.278722 207.614437 
L 231.369865 205.895479 
L 231.461009 206.350261 
L 231.643297 205.664681 
L 231.734441 205.364172 
L 231.916729 206.033321 
L 232.007873 206.057587 
L 232.099017 207.135982 
L 232.190161 205.318378 
L 232.281304 205.822756 
L 232.372448 203.934538 
L 232.463592 206.894658 
L 232.64588 203.828514 
L 232.737024 208.61006 
L 232.828168 204.792528 
L 233.010456 208.860137 
L 233.101599 204.112655 
L 233.192743 206.576792 
L 233.375031 204.952416 
L 233.466175 205.107357 
L 233.648463 206.497418 
L 233.739607 204.389619 
L 233.830751 204.982892 
L 233.921894 204.549154 
L 234.013038 206.988335 
L 234.104182 204.571963 
L 234.195326 204.703767 
L 234.28647 206.186617 
L 234.377614 205.318378 
L 234.651046 208.6502 
L 234.833333 203.602776 
L 235.015621 207.135982 
L 235.106765 204.419994 
L 235.197909 206.585759 
L 235.289053 204.571963 
L 235.380197 205.318378 
L 235.471341 204.435191 
L 235.562485 204.904178 
L 235.653628 204.502292 
L 235.835916 206.76001 
L 235.92706 205.950352 
L 236.018204 206.475657 
L 236.109348 205.28531 
L 236.200492 205.445622 
L 236.291636 204.7025 
L 236.38278 206.094632 
L 236.473923 205.594609 
L 236.565067 204.450384 
L 236.656211 207.927649 
L 236.747355 207.499851 
L 236.838499 202.98371 
L 237.020787 206.698484 
L 237.203075 205.238261 
L 237.294219 204.820428 
L 237.385362 203.591426 
L 237.476506 205.660853 
L 237.56765 205.426519 
L 237.658794 206.697198 
L 237.749938 205.963105 
L 237.841082 206.697198 
L 237.932226 206.503802 
L 238.114514 203.627989 
L 238.205657 207.623444 
L 238.296801 207.03838 
L 238.479089 204.66319 
L 238.570233 205.924818 
L 238.752521 205.089569 
L 238.843665 206.549891 
L 239.025952 204.50736 
L 239.20824 206.120168 
L 239.299384 206.005226 
L 239.390528 205.963105 
L 239.481672 204.124025 
L 239.66396 207.852837 
L 239.846248 204.166995 
L 239.937391 207.623444 
L 240.119679 203.781823 
L 240.301967 206.011608 
L 240.393111 205.650661 
L 240.484255 206.697198 
L 240.575399 206.20066 
L 240.666543 206.774098 
L 240.84883 203.976207 
L 240.939974 207.617006 
L 241.122262 205.972044 
L 241.213406 205.853372 
L 241.30455 205.280225 
L 241.486838 206.356648 
L 241.577981 204.925752 
L 241.760269 206.232621 
L 241.851413 204.897839 
L 241.942557 205.120055 
L 242.124845 207.27861 
L 242.307133 204.578301 
L 242.398277 205.312015 
L 242.48942 205.120055 
L 242.580564 206.774098 
L 242.853996 205.660853 
L 242.94514 206.039708 
L 243.036284 207.277327 
L 243.218572 204.578301 
L 243.400859 205.702911 
L 243.492003 205.465986 
L 243.583147 206.563974 
L 243.674291 205.435432 
L 243.765435 206.039708 
L 243.947723 205.120055 
L 244.13001 206.039708 
L 244.221154 204.932098 
L 244.312298 206.356648 
L 244.403442 204.010315 
L 244.494586 206.762562 
L 244.58573 205.278955 
L 244.676874 205.336191 
L 244.768018 205.089569 
L 244.859162 205.465986 
L 245.041449 204.925752 
L 245.132593 206.41678 
L 245.223737 204.954957 
L 245.406025 205.465986 
L 245.497169 206.965213 
L 245.588313 205.435432 
L 245.679457 206.762562 
L 245.770601 205.120055 
L 245.952888 206.221118 
L 246.044032 206.985753 
L 246.135176 206.584462 
L 246.22632 206.762562 
L 246.408608 206.039708 
L 246.499752 206.39374 
L 246.682039 204.932098 
L 246.864327 206.41678 
L 247.046615 206.186602 
L 247.137759 206.626736 
L 247.228903 205.501627 
L 247.411191 206.20066 
L 247.593478 206.011608 
L 247.684622 206.085682 
L 247.775766 207.152672 
L 247.86691 206.924157 
L 248.049198 204.245398 
L 248.231486 206.611366 
L 248.32263 205.497808 
L 248.413773 208.055406 
L 248.504917 204.578301 
L 248.596061 205.522009 
L 248.687205 203.870166 
L 248.778349 206.801031 
L 248.869493 206.039708 
L 248.960637 206.41678 
L 249.051781 204.390888 
L 249.142925 204.578301 
L 249.234068 205.146747 
L 249.325212 207.814155 
L 249.5075 204.564365 
L 249.598644 209.015797 
L 249.689788 205.844443 
L 249.780932 206.41678 
L 249.872076 206.232621 
L 249.96322 204.932098 
L 250.145507 206.924157 
L 250.236651 204.384561 
L 250.418939 206.039708 
L 250.510083 206.201936 
L 250.601227 207.152672 
L 250.692371 204.411136 
L 250.783515 206.774098 
L 250.965802 204.791259 
L 251.056946 204.977803 
L 251.14809 204.769704 
L 251.239234 206.039708 
L 251.512666 204.729117 
L 251.60381 206.423176 
L 251.694954 204.602368 
L 251.786097 206.267141 
L 251.968385 204.578301 
L 252.059529 207.34418 
L 252.241817 205.120055 
L 252.332961 205.120055 
L 252.515249 205.465986 
L 252.606392 205.348905 
L 252.697536 204.976534 
L 252.78868 206.41678 
L 252.879824 204.578301 
L 253.062112 207.854126 
L 253.153256 204.035572 
L 253.335544 206.039708 
L 253.426688 206.697198 
L 253.517831 206.41678 
L 253.608975 206.762562 
L 253.700119 206.06652 
L 253.791263 206.221118 
L 253.882407 207.31461 
L 253.973551 204.925752 
L 254.064695 205.497808 
L 254.155839 207.529447 
L 254.338126 204.740529 
L 254.42927 206.232621 
L 254.520414 204.760826 
L 254.611558 206.580621 
L 254.793846 205.120055 
L 254.88499 205.497808 
L 254.976134 206.965213 
L 255.067278 205.87378 
L 255.158421 206.774098 
L 255.249565 205.329833 
L 255.340709 206.610086 
L 255.522997 205.329833 
L 255.614141 205.120055 
L 255.705285 206.41678 
L 255.796429 204.938455 
L 255.887573 205.106078 
L 255.978717 205.854641 
L 256.06986 203.324446 
L 256.252148 205.329833 
L 256.343292 204.760826 
L 256.52558 205.303111 
L 256.707868 204.760826 
L 256.799012 205.646836 
L 256.981299 205.281493 
L 257.072443 206.41678 
L 257.163587 206.161049 
L 257.345875 206.969073 
L 257.437019 205.481258 
L 257.528163 207.120565 
L 257.619307 206.958798 
L 257.892738 203.115659 
L 258.16617 204.590965 
L 258.257314 204.578301 
L 258.530745 205.678689 
L 258.621889 204.938455 
L 258.895321 206.958798 
L 258.986465 206.221118 
L 259.077609 206.580621 
L 259.168753 204.602368 
L 259.259897 205.329833 
L 259.351041 204.954957 
L 259.533328 206.039708 
L 259.624472 205.844443 
L 259.80676 204.925752 
L 259.897904 204.564365 
L 259.989048 206.052469 
L 260.080192 205.508 
L 260.171336 203.673375 
L 260.262479 206.256904 
L 260.353623 205.678689 
L 260.444767 204.217569 
L 260.627055 206.595995 
L 260.718199 204.976534 
L 260.809343 207.193788 
L 260.991631 205.303111 
L 261.082774 205.660853 
L 261.173918 204.801413 
L 261.265062 205.135311 
L 261.356206 203.299283 
L 261.538494 207.335176 
L 261.629638 207.303039 
L 261.811926 205.135311 
L 261.90307 204.954957 
L 261.994213 205.280225 
L 262.085357 206.039708 
L 262.176501 204.925752 
L 262.267645 205.303111 
L 262.358789 206.958798 
L 262.449933 205.690158 
L 262.541077 206.052469 
L 262.632221 205.303111 
L 262.814508 206.247954 
L 262.905652 206.221118 
L 263.08794 204.765892 
L 263.270228 205.702911 
L 263.361372 205.497808 
L 263.452516 204.602368 
L 263.54366 204.760826 
L 263.634803 205.303111 
L 263.725947 206.610086 
L 263.817091 206.441083 
L 263.999379 205.465986 
L 264.090523 205.844443 
L 264.181667 205.497808 
L 264.272811 205.607332 
L 264.363955 205.135311 
L 264.455099 205.465986 
L 264.546242 204.035572 
L 264.819674 206.580621 
L 264.910818 205.87378 
L 265.093106 206.924157 
L 265.18425 206.144441 
L 265.366537 203.431452 
L 265.548825 206.20066 
L 265.639969 205.646836 
L 265.731113 205.854641 
L 265.822257 206.595995 
L 265.913401 205.578033 
L 266.004545 207.87734 
L 266.186832 204.188494 
L 266.277976 206.41678 
L 266.460264 204.760826 
L 266.551408 207.277327 
L 266.642552 206.232621 
L 266.733696 208.039914 
L 266.915984 203.493163 
L 267.007128 206.580621 
L 267.189415 204.245398 
L 267.280559 205.146747 
L 267.371703 203.866381 
L 267.462847 206.645957 
L 267.553991 204.615048 
L 267.645135 207.161672 
L 267.736279 205.145471 
L 267.827423 206.958797 
L 268.00971 203.698587 
L 268.100854 205.522009 
L 268.191998 204.791259 
L 268.283142 204.949879 
L 268.374286 206.012896 
L 268.46543 203.46923 
L 268.556574 205.648107 
L 268.647718 204.067159 
L 268.830005 206.416779 
L 268.921149 205.511822 
L 269.012293 206.813848 
L 269.103437 204.942256 
L 269.194581 206.414215 
L 269.285725 206.247964 
L 269.376869 204.774781 
L 269.6503 207.541044 
L 269.832588 204.942256 
L 269.923732 206.247964 
L 270.014876 206.070358 
L 270.197164 205.145471 
L 270.288308 204.041896 
L 270.561739 207.705887 
L 270.744027 205.145471 
L 270.926315 204.569434 
L 271.108603 206.642111 
L 271.199747 205.700358 
L 271.29089 206.447493 
L 271.382034 206.435967 
L 271.473178 203.872685 
L 271.564322 204.247922 
L 271.655466 205.890372 
L 271.74661 204.420005 
L 272.020042 207.196367 
L 272.111185 204.796342 
L 272.202329 205.890372 
L 272.384617 205.511822 
L 272.475761 206.780516 
L 272.658049 204.800142 
L 272.749193 206.447493 
L 272.840337 204.055793 
L 272.931481 206.07674 
L 273.022624 204.975272 
L 273.113768 205.890372 
L 273.296056 203.884045 
L 273.3872 207.161672 
L 273.569488 202.775293 
L 273.751776 205.832966 
L 273.842919 206.447493 
L 273.934063 205.890372 
L 274.116351 206.824111 
L 274.298639 205.343819 
L 274.389783 207.016561 
L 274.572071 202.023884 
L 274.663214 206.447497 
L 274.754358 203.87648 
L 274.845502 207.173231 
L 274.936646 204.440255 
L 275.02779 206.645952 
L 275.210078 204.989243 
L 275.301222 206.08824 
L 275.392366 205.348908 
L 275.48351 202.414239 
L 275.756941 208.306023 
L 275.848085 206.642119 
L 276.030373 203.478047 
L 276.121517 203.69733 
L 276.212661 203.319425 
L 276.303805 201.850235 
L 276.394948 208.117387 
L 276.577236 205.141668 
L 276.66838 205.730956 
L 276.759524 201.841503 
L 276.941812 205.900581 
L 277.032956 203.120693 
L 277.1241 206.447497 
L 277.215243 204.602371 
L 277.306387 204.620117 
L 277.397531 205.348908 
L 277.488675 207.349327 
L 277.670963 204.045685 
L 277.762107 205.326018 
L 277.853251 204.993041 
L 277.944395 205.523276 
L 278.035539 206.97035 
L 278.217826 204.031794 
L 278.30897 204.395958 
L 278.400114 206.246691 
L 278.491258 206.047366 
L 278.582402 205.492726 
L 278.673546 203.125718 
L 278.76469 205.165818 
L 278.855834 204.976538 
L 278.946977 205.527106 
L 279.038121 204.225168 
L 279.129265 204.977812 
L 279.220409 208.117387 
L 279.311553 203.863845 
L 279.402697 205.848281 
L 279.493841 203.673372 
L 279.584985 206.626733 
L 279.676129 205.864851 
L 279.767272 206.817708 
L 279.858416 204.776043 
L 279.94956 205.511829 
L 280.040704 202.577131 
L 280.222992 206.630581 
L 280.314136 203.84366 
L 280.40528 205.899311 
L 280.496424 205.323473 
L 280.587568 205.894199 
L 280.678711 204.42128 
L 280.769855 205.348908 
L 280.860999 203.861336 
L 280.952143 204.426328 
L 281.043287 206.247964 
L 281.225575 203.849976 
L 281.316719 204.784926 
L 281.407863 206.97035 
L 281.59015 204.769711 
L 281.681294 204.956228 
L 281.772438 205.681253 
L 281.954726 202.917149 
L 282.04587 204.395958 
L 282.137014 203.457904 
L 282.228158 203.643119 
L 282.501589 205.348908 
L 282.683877 206.55374 
L 282.866165 204.751947 
L 282.957309 203.848705 
L 283.139596 205.995017 
L 283.23074 205.787057 
L 283.413028 203.525907 
L 283.504172 206.471794 
L 283.68646 204.379491 
L 283.868748 208.087674 
L 284.142179 204.25677 
L 284.233323 204.016628 
L 284.324467 202.917137 
L 284.415611 205.02478 
L 284.506755 204.686017 
L 284.597899 205.516909 
L 284.689043 205.345091 
L 284.780187 208.443101 
L 284.962474 205.818943 
L 285.053618 206.681828 
L 285.144762 205.558942 
L 285.235906 207.49856 
L 285.418194 205.467262 
L 285.509338 205.574217 
L 285.600482 207.77291 
L 285.782769 203.713715 
L 285.965057 207.292761 
L 286.056201 206.524291 
L 286.147345 202.251506 
L 286.329633 207.201502 
L 286.420777 207.025547 
L 286.511921 202.316585 
L 286.603064 203.703631 
L 286.694208 208.738295 
L 286.785352 208.391356 
L 286.876496 206.584469 
L 286.96764 207.283753 
L 287.058784 206.145721 
L 287.149928 207.323617 
L 287.241072 206.236455 
L 287.332216 207.535897 
L 287.423359 204.13161 
L 287.696791 209.642378 
L 287.879079 205.16708 
L 287.970223 204.678414 
L 288.061367 206.244125 
L 288.152511 204.811561 
L 288.425942 206.77026 
L 288.60823 204.521294 
L 288.699374 206.057585 
L 288.790518 204.00147 
L 289.06395 208.249152 
L 289.155093 206.578063 
L 289.246237 209.106658 
L 289.337381 203.698588 
L 289.428525 204.822973 
L 289.519669 209.102765 
L 289.610813 208.971683 
L 289.701957 200.387413 
L 289.793101 210.32471 
L 289.884245 205.289129 
L 289.975388 206.748465 
L 290.157676 206.103563 
L 290.24882 207.694295 
L 290.431108 204.67207 
L 290.522252 204.994312 
L 290.613396 211.929102 
L 290.70454 211.278803 
L 290.977971 202.807924 
L 291.160259 209.207962 
L 291.342547 205.936304 
L 291.524835 208.796613 
L 291.615979 207.035824 
L 291.707122 211.626041 
L 291.798266 210.860118 
L 291.980554 207.173232 
L 292.071698 209.579895 
L 292.253986 207.349328 
L 292.436274 205.931202 
L 292.527417 207.385341 
L 292.618561 201.341455 
L 292.800849 209.043053 
L 292.891993 203.99389 
L 292.983137 204.172054 
L 293.165425 207.523018 
L 293.256569 206.10867 
L 293.347712 209.278133 
L 293.438856 205.291668 
L 293.53 210.519583 
L 293.621144 206.40526 
L 293.712288 207.22206 
L 293.803432 209.747891 
L 293.894576 204.501028 
L 293.98572 204.692354 
L 294.076864 208.870511 
L 294.168008 204.861034 
L 294.259151 207.020414 
L 294.350295 203.40627 
L 294.623727 207.803846 
L 294.806015 205.114973 
L 294.897159 206.516608 
L 294.988303 204.692354 
L 295.17059 210.498639 
L 295.261734 205.710558 
L 295.352878 206.872845 
L 295.444022 203.109372 
L 295.62631 205.933758 
L 295.808598 210.32471 
L 295.899741 203.803285 
L 295.990885 207.020413 
L 296.082029 205.964384 
L 296.173173 207.170671 
L 296.264317 206.366889 
L 296.355461 202.785326 
L 296.537749 208.682584 
L 296.720036 200.630441 
L 296.902324 205.304387 
L 296.993468 207.285047 
L 297.084612 207.020414 
L 297.175756 207.94184 
L 297.449188 203.848702 
L 297.631475 208.595817 
L 297.722619 206.847197 
L 297.813763 200.520048 
L 297.904907 208.682584 
L 297.996051 205.443078 
L 298.087195 209.747891 
L 298.178339 209.056033 
L 298.269483 206.343862 
L 298.634058 208.998928 
L 298.725202 204.844544 
L 298.816346 206.057585 
L 298.998634 211.541795 
L 299.089778 203.828521 
L 299.180922 205.508 
L 299.272065 205.84827 
L 299.363209 209.815653 
L 299.454353 202.18144 
L 299.545497 207.080755 
L 299.636641 206.473091 
L 299.727785 210.394003 
L 300.001217 205.364178 
L 300.092361 206.979342 
L 300.183504 210.875839 
L 300.274648 201.50716 
L 300.456936 208.349978 
L 300.54808 207.025547 
L 300.639224 200.834024 
L 300.912656 210.598107 
L 301.094943 204.592237 
L 301.186087 204.862305 
L 301.277231 208.112217 
L 301.368375 197.730574 
L 301.459519 203.747777 
L 301.550663 201.687982 
L 301.732951 206.005236 
L 301.824094 204.027998 
L 301.915238 208.179382 
L 302.006382 204.549164 
L 302.097526 207.303046 
L 302.18867 203.420119 
L 302.279814 204.131607 
L 302.462102 208.081228 
L 302.553246 208.470267 
L 302.64439 207.292761 
L 302.735533 203.590179 
L 302.826677 203.923179 
L 302.917821 208.718857 
L 303.008965 207.977969 
L 303.191253 206.342586 
L 303.282397 209.406838 
L 303.373541 201.756615 
L 303.464685 210.777533 
L 303.555828 209.97736 
L 303.738116 207.038388 
L 303.82926 209.934312 
L 304.011548 206.237729 
L 304.102692 204.287133 
L 304.193836 208.056699 
L 304.376123 204.106332 
L 304.467267 203.789414 
L 304.558411 204.349122 
L 304.831843 208.43404 
L 304.922987 205.354 
L 305.014131 206.361772 
L 305.105275 206.301656 
L 305.196419 206.38991 
L 305.287562 209.949961 
L 305.378706 202.853105 
L 305.46985 206.167443 
L 305.560994 202.190196 
L 305.743282 208.127715 
L 305.834426 207.843818 
L 306.016714 203.636806 
L 306.107857 206.53837 
L 306.290145 204.344065 
L 306.472433 205.075598 
L 306.563577 204.7101 
L 306.745865 198.497152 
L 306.928152 208.960001 
L 307.201584 198.650593 
L 307.475016 206.997309 
L 307.56616 202.771538 
L 307.657304 205.543655 
L 307.748448 205.088291 
L 307.839591 207.180947 
L 307.930735 204.628986 
L 308.021879 205.807454 
L 308.204167 199.972755 
L 308.295311 214.078392 
L 308.386455 200.988105 
L 308.477599 203.656975 
L 308.659886 218.588478 
L 308.75103 211.755102 
L 308.842174 195.833292 
L 309.024462 208.578989 
L 309.20675 203.332 
L 309.297894 203.630517 
L 309.389038 202.801646 
L 309.571325 206.012898 
L 309.662469 208.349978 
L 309.753613 202.176435 
L 309.844757 205.589506 
L 309.935901 204.751951 
L 310.027045 207.143693 
L 310.118189 204.025466 
L 310.209333 208.621711 
L 310.482764 203.818422 
L 310.573908 211.344515 
L 310.756196 208.063156 
L 310.938484 204.24792 
L 311.029628 211.756419 
L 311.303059 199.819492 
L 311.394203 202.095151 
L 311.485347 200.259824 
L 311.576491 206.292713 
L 311.667635 203.319416 
L 311.758779 206.002682 
L 311.941067 200.754552 
L 312.305642 208.940547 
L 312.396786 207.432941 
L 312.48793 208.738295 
L 312.579074 207.421361 
L 312.670218 204.370639 
L 312.761362 209.80002 
L 312.852505 204.573235 
L 312.943649 206.213452 
L 313.034793 210.399237 
L 313.125937 206.263293 
L 313.217081 210.902067 
L 313.308225 202.345371 
L 313.399369 213.492072 
L 313.490513 211.497056 
L 313.581657 209.480978 
L 313.763944 198.919698 
L 314.037376 206.589594 
L 314.12852 202.614739 
L 314.310808 207.452244 
L 314.493096 205.067977 
L 314.584239 205.075598 
L 314.675383 207.916044 
L 314.766527 207.514006 
L 314.948815 202.745171 
L 315.039959 208.216849 
L 315.222247 204.259319 
L 315.313391 209.396432 
L 315.495678 204.435193 
L 315.586822 208.212975 
L 315.677966 203.890361 
L 315.76911 212.195689 
L 315.951398 197.069282 
L 316.042542 206.292713 
L 316.133686 205.474902 
L 316.407117 203.095546 
L 316.498261 206.035877 
L 316.680549 204.258044 
L 316.953981 208.051538 
L 317.045125 206.734376 
L 317.136268 208.431457 
L 317.318556 182.181625 
L 317.4097 213.810309 
L 317.500844 189.463059 
L 317.591988 210.530047 
L 317.683132 210.275048 
L 317.774276 207.286329 
L 317.86542 210.186213 
L 317.956563 209.467971 
L 318.047707 212.150789 
L 318.138851 203.582615 
L 318.321139 209.445856 
L 318.412283 205.562757 
L 318.503427 207.36734 
L 318.594571 207.23106 
L 318.685715 200.339088 
L 318.776859 207.638906 
L 318.868002 207.191224 
L 318.959146 207.926359 
L 319.232578 199.258166 
L 319.323722 208.399119 
L 319.50601 199.324697 
L 319.688297 215.741289 
L 319.779441 201.24683 
L 319.870585 206.681832 
L 319.961729 204.749413 
L 320.052873 205.272601 
L 320.144017 208.35127 
L 320.235161 206.345141 
L 320.326305 217.066725 
L 320.417449 190.609155 
L 320.508592 209.622849 
L 320.599736 205.074319 
L 320.782024 219.454845 
L 320.964312 199.547874 
L 321.055456 198.351196 
L 321.1466 208.642434 
L 321.237744 206.768979 
L 321.328887 202.555819 
L 321.420031 218.056532 
L 321.511175 214.322821 
L 321.602319 203.405014 
L 321.693463 214.554205 
L 321.784607 199.997482 
L 321.966895 208.39782 
L 322.058039 208.2569 
L 322.149183 201.584468 
L 322.240326 212.425649 
L 322.422614 204.739275 
L 322.513758 209.665821 
L 322.604902 209.205366 
L 322.696046 207.907011 
L 322.78719 208.16905 
L 322.878334 211.045053 
L 323.060621 203.129488 
L 323.151765 220.318687 
L 323.242909 189.76102 
L 323.516341 211.005688 
L 323.607485 205.287849 
L 323.698629 212.160039 
L 323.789773 205.894201 
L 324.063204 217.112894 
L 324.154348 205.081941 
L 324.336636 211.732707 
L 324.42778 190.099374 
L 324.610068 211.929099 
L 324.883499 203.839868 
L 324.974643 203.890357 
L 325.065787 205.188681 
L 325.156931 202.903329 
L 325.248075 203.023922 
L 325.339219 205.242092 
L 325.430363 211.479958 
L 325.521507 204.158165 
L 325.703794 213.863629 
L 325.794938 203.170973 
L 325.977226 209.548645 
L 326.159514 204.313701 
L 326.250658 206.621617 
L 326.341802 204.122764 
L 326.432945 205.167082 
L 326.524089 208.734407 
L 326.615233 205.562757 
L 326.706377 208.027012 
L 326.797521 207.477972 
L 326.979809 207.921202 
L 327.162097 205.868689 
L 327.344384 212.445486 
L 327.70896 189.365803 
L 327.891248 205.762828 
L 327.982392 197.866265 
L 328.346967 213.349779 
L 328.438111 209.908223 
L 328.529255 196.722466 
L 328.802687 208.577693 
L 328.893831 208.708497 
L 328.984974 203.415075 
L 329.076118 210.113082 
L 329.167262 197.774565 
L 329.34955 211.586542 
L 329.440694 204.693638 
L 329.531838 205.882711 
L 329.80527 208.233643 
L 329.896413 204.040639 
L 329.987557 191.76539 
L 330.078701 212.445484 
L 330.169845 206.473083 
L 330.260989 213.50005 
L 330.352133 210.133979 
L 330.443277 202.598441 
L 330.534421 207.2105 
L 330.625565 205.076858 
L 330.716708 213.256752 
L 330.807852 200.546086 
L 330.898996 204.729124 
L 330.99014 200.840233 
L 331.172428 207.402067 
L 331.263572 207.381486 
L 331.354716 204.691083 
L 331.44586 205.01717 
L 331.537003 205.562757 
L 331.628147 204.421267 
L 331.719291 204.720249 
L 331.810435 209.903005 
L 331.992723 206.217285 
L 332.083867 204.632781 
L 332.175011 205.542386 
L 332.266155 197.270359 
L 332.448442 208.656676 
L 332.63073 202.88951 
L 332.721874 201.883971 
L 332.904162 214.086402 
L 332.995306 204.122764 
L 333.08645 204.207459 
L 333.268737 206.997309 
L 333.359881 206.25051 
L 333.451025 206.117616 
L 333.542169 205.064175 
L 333.633313 209.951267 
L 333.815601 205.431633 
L 333.906745 207.694295 
L 334.089032 204.634049 
L 334.180176 205.355267 
L 334.27132 205.700356 
L 334.362464 205.413801 
L 334.453608 201.804047 
L 334.544752 206.772816 
L 334.635896 202.863143 
L 334.72704 233.561051 
L 334.909327 208.24787 
L 335.000471 209.366526 
L 335.182759 203.475517 
L 335.273903 209.96953 
L 335.365047 205.178523 
L 335.638479 208.76292 
L 335.729623 205.68635 
L 335.820766 206.012898 
L 335.91191 208.233643 
L 336.003054 203.435236 
L 336.094198 203.475517 
L 336.185342 208.184545 
L 336.276486 202.50821 
L 336.36763 207.810294 
L 336.458774 207.729094 
L 336.549918 209.396432 
L 336.641061 209.289822 
L 336.732205 206.262035 
L 336.823349 207.016565 
L 336.914493 206.066536 
L 337.005637 207.544908 
L 337.279069 205.090841 
L 337.370213 205.336191 
L 337.461356 207.618301 
L 337.5525 206.68311 
L 337.643644 206.785649 
L 337.825932 205.803634 
L 337.917076 207.227205 
L 338.099364 204.578298 
L 338.190508 205.562757 
L 338.281652 205.504183 
L 338.372795 209.367826 
L 338.463939 206.301654 
L 338.555083 206.57551 
L 338.646227 206.103566 
L 338.737371 204.202409 
L 338.919659 208.960003 
L 339.010803 204.979082 
L 339.101947 205.781957 
L 339.19309 205.705461 
L 339.284234 208.874395 
L 339.375378 207.74069 
L 339.466522 204.404806 
L 339.64881 205.78323 
L 339.739954 205.088291 
L 339.831098 206.485887 
L 339.922242 203.538516 
L 340.104529 209.396432 
L 340.195673 205.178523 
L 340.286817 205.674875 
L 340.377961 209.680148 
L 340.651393 202.972401 
L 340.742537 208.43404 
L 340.924824 206.292713 
L 341.198256 204.816632 
L 341.2894 202.112661 
L 341.471688 204.558031 
L 341.562832 201.552041 
L 341.653976 202.692483 
L 341.745119 206.989606 
L 341.836263 203.290467 
L 341.927407 206.844637 
L 342.018551 204.75321 
L 342.200839 207.062789 
L 342.291983 204.760827 
L 342.383127 206.812573 
L 342.474271 206.282482 
L 342.565414 206.681832 
L 342.656558 205.674875 
L 342.747702 206.872849 
L 342.838846 210.293344 
L 342.92999 206.108677 
L 343.021134 210.725135 
L 343.112278 208.76421 
L 343.203422 204.264369 
L 343.294566 207.324903 
L 343.38571 203.532213 
L 343.567997 206.391194 
L 343.659141 206.418061 
L 343.750285 205.659583 
L 343.841429 206.418061 
L 343.932573 204.46557 
L 344.023717 206.062687 
L 344.114861 212.049147 
L 344.206005 204.739275 
L 344.297148 205.47871 
L 344.388292 205.872501 
L 344.479436 210.746091 
L 344.661724 204.370639 
L 344.752868 206.186614 
L 344.844012 205.603521 
L 344.935156 207.028117 
L 345.117443 203.636812 
L 345.299731 206.906198 
L 345.390875 205.752625 
L 345.482019 206.936995 
L 345.573163 204.259319 
L 345.664307 209.904311 
L 345.755451 205.39217 
L 345.846595 207.96636 
L 345.937739 207.519163 
L 346.120026 208.956116 
L 346.21117 204.779847 
L 346.393458 207.243915 
L 346.575746 202.414259 
L 346.758034 205.899297 
L 346.849177 205.593331 
L 346.940321 199.833079 
L 347.122609 208.656676 
L 347.213753 209.595508 
L 347.396041 201.38505 
L 347.487185 201.396262 
L 347.578329 210.090891 
L 347.669472 203.037741 
L 347.760616 208.95741 
L 347.85176 205.291672 
L 347.942904 205.868692 
L 348.034048 203.929495 
L 348.125192 204.490896 
L 348.216336 199.228607 
L 348.30748 207.237484 
L 348.398624 206.729247 
L 348.489767 207.6402 
L 348.580911 206.014174 
L 348.672055 206.681832 
L 348.763199 202.582159 
L 348.945487 208.520738 
L 349.036631 206.186614 
L 349.127775 205.287849 
L 349.218919 209.258636 
L 349.310063 203.00255 
L 349.401206 203.940863 
L 349.49235 203.702375 
L 349.583494 210.200581 
L 349.674638 206.217286 
L 349.856926 208.78495 
L 349.94807 208.113502 
L 350.130358 203.656975 
L 350.221501 204.435193 
L 350.403789 209.595508 
L 350.586077 205.175975 
L 350.677221 207.655655 
L 350.859509 206.282476 
L 350.950653 210.00084 
L 351.041796 219.388785 
L 351.224084 202.835541 
L 351.315228 205.570405 
L 351.406372 203.532213 
L 351.497516 206.488452 
L 351.58866 206.170003 
L 351.679804 205.668511 
L 351.862092 209.14692 
L 351.953235 207.654368 
L 352.044379 202.866917 
L 352.135523 208.875697 
L 352.226667 206.865159 
L 352.317811 208.184545 
L 352.408955 201.43737 
L 352.591243 205.803629 
L 352.682387 203.421373 
L 352.77353 209.694473 
L 352.864674 204.390888 
L 353.046962 208.308607 
L 353.138106 205.618801 
L 353.22925 206.892085 
L 353.320394 203.849974 
L 353.411538 206.598555 
L 353.502682 204.26309 
L 353.776113 208.497445 
L 353.958401 203.24895 
L 354.049545 207.680123 
L 354.140689 206.701046 
L 354.231833 207.912175 
L 354.322977 202.155179 
L 354.414121 209.654106 
L 354.596408 205.120056 
L 354.687552 204.888952 
L 354.778696 206.915186 
L 354.86984 201.258031 
L 354.960984 205.007009 
L 355.143272 202.25025 
L 355.325559 207.139838 
L 355.416703 206.712583 
L 355.598991 205.141668 
L 355.690135 206.729247 
L 355.781279 206.589596 
L 355.872423 207.502423 
L 355.963567 206.766419 
L 356.145854 217.299035 
L 356.236998 201.122394 
L 356.328142 202.687473 
L 356.419286 201.771591 
L 356.51043 206.186614 
L 356.601574 204.542836 
L 356.692718 206.104839 
L 356.783862 204.055801 
L 356.875006 207.632467 
L 356.96615 207.423937 
L 357.057293 203.405009 
L 357.239581 206.526853 
L 357.330725 206.014174 
L 357.421869 206.733093 
L 357.513013 204.344072 
L 357.604157 207.910872 
L 357.695301 205.268777 
L 357.968732 208.545329 
L 358.15102 204.006526 
L 358.242164 211.327429 
L 358.333308 204.735464 
L 358.424452 207.443245 
L 358.697883 205.403622 
L 358.789027 205.883992 
L 358.880171 204.142991 
L 358.971315 205.864865 
L 359.062459 205.175975 
L 359.153603 207.910872 
L 359.244747 207.111572 
L 359.335891 201.604422 
L 359.427035 201.9739 
L 359.518179 202.375424 
L 359.609322 203.641845 
L 359.700466 210.824716 
L 359.79161 208.555682 
L 359.973898 200.768204 
L 360.065042 212.849333 
L 360.156186 196.633731 
L 360.24733 206.975489 
L 360.338474 202.51446 
L 360.429617 204.055781 
L 360.520761 201.075135 
L 360.611905 206.792058 
L 360.703049 206.420621 
L 360.794193 206.727965 
L 360.885337 206.528134 
L 360.976481 205.543659 
L 361.067625 206.785647 
L 361.158769 206.607528 
L 361.249912 203.650685 
L 361.4322 209.148212 
L 361.523344 208.960003 
L 361.614488 208.545329 
L 361.705632 209.270331 
L 361.796776 202.496922 
L 361.88792 210.681902 
L 361.979064 208.228474 
L 362.070207 202.673673 
L 362.161351 203.621687 
L 362.252495 202.938493 
L 362.343639 204.044418 
L 362.434783 202.711298 
L 362.525927 209.908223 
L 362.617071 202.421755 
L 362.890503 208.578989 
L 362.981646 203.9838 
L 363.07279 207.829631 
L 363.163934 205.173438 
L 363.255078 205.781957 
L 363.346222 207.386631 
L 363.52851 205.664677 
L 363.710798 206.332364 
L 363.893085 201.187096 
L 364.075373 218.307937 
L 364.166517 208.578989 
L 364.257661 209.684056 
L 364.348805 205.691436 
L 364.439949 207.543619 
L 364.531093 204.659412 
L 364.622236 207.619588 
L 364.71338 207.128277 
L 364.804524 205.668511 
L 364.895668 206.311891 
L 364.986812 203.124458 
L 365.1691 209.414639 
L 365.260244 208.31377 
L 365.351388 203.75282 
L 365.442532 204.632795 
L 365.533675 207.09745 
L 365.807107 203.198645 
L 365.898251 203.69228 
L 366.080539 212.838739 
L 366.262827 207.489553 
L 366.445114 264.716 
L 366.627402 177.321117 
L 366.80969 211.594441 
L 366.900834 182.239343 
L 366.991978 210.167926 
L 367.083122 183.064834 
L 367.265409 217.369742 
L 367.356553 188.050876 
L 367.447697 193.221937 
L 367.629985 208.77199 
L 367.721129 199.202735 
L 367.812273 213.934296 
L 367.812273 213.934296 
" style="fill:none;stroke:#1f77b4;stroke-linecap:square;stroke-width:1.5;"/>
   </g>
   <g id="patch_3">
    <path d="M 26.925 276.812 
L 26.925 10.7 
" style="fill:none;stroke:#000000;stroke-linecap:square;stroke-linejoin:miter;stroke-width:0.8;"/>
   </g>
   <g id="patch_4">
    <path d="M 384.045 276.812 
L 384.045 10.7 
" style="fill:none;stroke:#000000;stroke-linecap:square;stroke-linejoin:miter;stroke-width:0.8;"/>
   </g>
   <g id="patch_5">
    <path d="M 26.925 276.812 
L 384.045 276.812 
" style="fill:none;stroke:#000000;stroke-linecap:square;stroke-linejoin:miter;stroke-width:0.8;"/>
   </g>
   <g id="patch_6">
    <path d="M 26.925 10.7 
L 384.045 10.7 
" style="fill:none;stroke:#000000;stroke-linecap:square;stroke-linejoin:miter;stroke-width:0.8;"/>
   </g>
  </g>
 </g>
 <defs>
  <clipPath id="p8a168335ad">
   <rect height="266.112" width="357.12" x="26.925" y="10.7"/>
  </clipPath>
 </defs>
</svg>
